<?xml version="1.0" encoding="utf-8"?>
<!-- Generator: Adobe Illustrator 16.0.0, SVG Export Plug-In . SVG Version: 6.00 Build 0)  -->
<!DOCTYPE svg PUBLIC "-//W3C//DTD SVG 1.1//EN" "http://www.w3.org/Graphics/SVG/1.1/DTD/svg11.dtd">
<svg version="1.1" id="Calque_1" xmlns="http://www.w3.org/2000/svg" xmlns:xlink="http://www.w3.org/1999/xlink" x="0px" y="0px"
	 width="60.223px" height="51.897px" viewBox="0 0 60.223 51.897" enable-background="new 0 0 60.223 51.897" xml:space="preserve">
<g>
	<path fill="#2268A8" d="M30.111,49.636c-12.957,0-23.499-10.542-23.499-23.499c0-12.958,10.542-23.5,23.499-23.5
		s23.499,10.542,23.499,23.5C53.61,39.094,43.068,49.636,30.111,49.636z"/>
	<path d="M30.111,4.637c11.854,0,21.499,9.645,21.499,21.5c0,11.854-9.645,21.499-21.499,21.499S8.612,37.991,8.612,26.137
		C8.612,14.281,18.257,4.637,30.111,4.637 M30.111,0.637c-14.082,0-25.499,11.416-25.499,25.5c0,14.082,11.417,25.499,25.499,25.499
		c14.084,0,25.499-11.417,25.499-25.499C55.61,12.053,44.195,0.637,30.111,0.637L30.111,0.637z"/>
</g>
<g>
	<g>
		<path fill="#FFFFFF" d="M30.06,44.103c-1.388,0-2.649-0.496-3.648-1.436c-1.033-0.97-1.579-2.268-1.579-3.752
			c0-1.47,0.538-2.77,1.557-3.758c1.01-0.965,2.275-1.469,3.671-1.469c1.434,0,2.714,0.51,3.701,1.474
			c1.002,0.99,1.526,2.285,1.526,3.753c0,1.481-0.533,2.774-1.541,3.739C32.761,43.601,31.485,44.103,30.06,44.103z M27.845,31.976
			c-0.947,0-1.765-0.664-1.958-1.592c-0.072-0.346-0.123-0.71-0.156-1.113c-0.033-0.348-0.05-0.702-0.05-1.031
			c0-1.156,0.205-2.221,0.608-3.165c0.36-0.857,0.83-1.662,1.392-2.381c0.51-0.659,1.065-1.285,1.646-1.854
			c0.495-0.479,0.959-0.961,1.387-1.438c0.35-0.392,0.643-0.797,0.868-1.205c0.129-0.238,0.192-0.498,0.192-0.808
			c0-0.393-0.116-0.584-0.29-0.75c-0.212-0.202-0.698-0.316-1.339-0.316c-0.773,0-1.489,0.091-2.189,0.276
			c-0.713,0.19-1.474,0.505-2.26,0.934c-0.297,0.161-0.627,0.243-0.957,0.243c-0.238,0-0.478-0.043-0.706-0.129
			c-0.545-0.205-0.973-0.638-1.172-1.185l-1.371-3.75c-0.336-0.916,0.04-1.941,0.888-2.424c1.131-0.645,2.438-1.166,3.885-1.551
			c1.441-0.377,2.936-0.567,4.446-0.567c1.907,0,3.47,0.27,4.777,0.825c1.308,0.553,2.383,1.281,3.19,2.165
			c0.812,0.873,1.397,1.882,1.731,2.987c0.299,1.006,0.448,1.983,0.448,2.917c0,1.2-0.231,2.311-0.688,3.301
			c-0.403,0.869-0.921,1.691-1.54,2.447c-0.563,0.683-1.18,1.337-1.836,1.949c-0.556,0.517-1.065,1.038-1.518,1.552
			c-0.415,0.472-0.74,0.94-0.994,1.433c-0.191,0.362-0.284,0.782-0.284,1.26v0.465c0,0.052,0.006,0.101,0.014,0.148
			c0.105,0.583-0.053,1.183-0.433,1.638s-0.942,0.718-1.535,0.718H27.845z"/>
		<path d="M30.708,10.171c1.614,0,2.942,0.219,3.996,0.666c1.045,0.441,1.88,1,2.496,1.674c0.622,0.67,1.049,1.41,1.293,2.217
			c0.239,0.807,0.362,1.588,0.362,2.338c0,0.916-0.168,1.734-0.504,2.463c-0.337,0.727-0.762,1.396-1.271,2.018
			c-0.511,0.619-1.063,1.203-1.653,1.754c-0.594,0.553-1.146,1.115-1.654,1.693c-0.511,0.58-0.936,1.188-1.271,1.836
			c-0.338,0.643-0.507,1.373-0.507,2.178c0,0.133,0,0.287,0,0.465c0,0.176,0.017,0.342,0.046,0.504h-4.197
			c-0.057-0.271-0.096-0.561-0.121-0.869c-0.029-0.307-0.043-0.598-0.043-0.867c0-0.889,0.148-1.68,0.447-2.379
			c0.294-0.699,0.668-1.346,1.129-1.936c0.456-0.59,0.944-1.143,1.469-1.656c0.524-0.508,1.018-1.02,1.477-1.531
			c0.456-0.51,0.832-1.035,1.129-1.572c0.294-0.539,0.442-1.131,0.442-1.775c0-0.887-0.304-1.619-0.91-2.197
			c-0.603-0.578-1.51-0.869-2.719-0.869c-0.945,0-1.844,0.115-2.703,0.344c-0.862,0.23-1.764,0.598-2.703,1.109l-1.371-3.75
			c0.994-0.566,2.13-1.016,3.408-1.355C28.053,10.337,29.361,10.171,30.708,10.171 M30.06,35.688c0.915,0,1.684,0.299,2.304,0.904
			c0.616,0.609,0.924,1.379,0.924,2.322c0,0.941-0.308,1.705-0.924,2.295c-0.62,0.596-1.389,0.893-2.304,0.893
			c-0.885,0-1.645-0.297-2.278-0.893c-0.628-0.59-0.949-1.354-0.949-2.295c0-0.943,0.321-1.713,0.949-2.322
			C28.415,35.987,29.175,35.688,30.06,35.688 M30.708,6.171c-1.682,0-3.346,0.212-4.944,0.63c-1.629,0.434-3.096,1.021-4.377,1.75
			c-1.695,0.967-2.446,3.016-1.776,4.849l1.371,3.75c0.399,1.094,1.256,1.959,2.345,2.369c0.457,0.173,0.936,0.258,1.412,0.258
			c0.661,0,1.319-0.164,1.913-0.487c0.647-0.353,1.261-0.607,1.823-0.758c0.135-0.036,0.271-0.067,0.41-0.094
			c-0.299,0.319-0.614,0.641-0.941,0.958c-0.662,0.647-1.279,1.343-1.851,2.083c-0.658,0.842-1.219,1.8-1.652,2.832
			c-0.501,1.172-0.76,2.501-0.76,3.929c0,0.396,0.02,0.807,0.059,1.223c0.04,0.476,0.103,0.912,0.189,1.331
			c0.214,1.021,0.806,1.884,1.611,2.452c-0.179,0.143-0.354,0.294-0.521,0.455c-1.438,1.396-2.187,3.191-2.187,5.215
			c0,2.05,0.765,3.852,2.211,5.211c1.375,1.293,3.11,1.977,5.017,1.977c1.952,0,3.707-0.694,5.075-2.008
			c1.406-1.347,2.152-3.14,2.152-5.18c0-2.014-0.73-3.801-2.111-5.166c-0.223-0.218-0.455-0.418-0.696-0.602
			c0.23-0.178,0.442-0.381,0.632-0.607c0.737-0.882,1.058-2.036,0.885-3.169v-0.364c0-0.167,0.024-0.272,0.047-0.316
			c0.192-0.371,0.428-0.707,0.732-1.054c0.409-0.465,0.872-0.938,1.378-1.409c0.722-0.674,1.399-1.392,2.014-2.137
			c0.733-0.896,1.341-1.861,1.813-2.88c0.582-1.262,0.875-2.653,0.875-4.146c0-1.126-0.178-2.295-0.527-3.476
			c-0.43-1.42-1.167-2.691-2.197-3.801c-0.982-1.075-2.292-1.97-3.87-2.637C34.707,6.493,32.889,6.171,30.708,6.171L30.708,6.171z"
			/>
	</g>
</g>
</svg>
