<?xml version="1.0" encoding="utf-8"?>
<!-- Generator: Adobe Illustrator 16.0.0, SVG Export Plug-In . SVG Version: 6.00 Build 0)  -->
<!DOCTYPE svg PUBLIC "-//W3C//DTD SVG 1.1//EN" "http://www.w3.org/Graphics/SVG/1.1/DTD/svg11.dtd">
<svg version="1.1" id="Calque_1" xmlns="http://www.w3.org/2000/svg" xmlns:xlink="http://www.w3.org/1999/xlink" x="0px" y="0px"
	 width="80.908px" height="52.66px" viewBox="0 0 80.908 52.66" enable-background="new 0 0 80.908 52.66" xml:space="preserve">
<g>
	<defs>
		<rect id="SVGID_7_" width="80.908" height="52.66"/>
	</defs>
	<clipPath id="SVGID_2_">
		<use xlink:href="#SVGID_7_"  overflow="visible"/>
	</clipPath>
	<path clip-path="url(#SVGID_2_)" fill="#E5E2D3" d="M23.379,12.139c12.236-6.19,21.727-9.961,21.82-9.998
		c0.615-0.244,1.313-0.167,1.861,0.206C47.607,2.719,47.936,3.339,47.936,4v10.532h28.973c1.104,0,2,0.896,2,2v19.597
		c0,1.104-0.896,2-2,2H47.936V48.66c0,0.662-0.328,1.281-0.875,1.654c-0.549,0.372-1.246,0.449-1.861,0.205
		c-0.094-0.037-9.584-3.808-21.82-9.998C11.055,34.287,3.107,28.168,2.775,27.911C2.286,27.532,2,26.948,2,26.33
		s0.286-1.202,0.775-1.581C3.107,24.491,11.055,18.374,23.379,12.139z"/>
	
		<path clip-path="url(#SVGID_2_)" fill="none" stroke="#231F20" stroke-width="4" stroke-linejoin="round" stroke-miterlimit="10" d="
		M23.379,12.139c12.236-6.19,21.727-9.961,21.82-9.998c0.615-0.244,1.313-0.167,1.861,0.206C47.607,2.719,47.936,3.339,47.936,4
		v10.532h28.973c1.104,0,2,0.896,2,2v19.597c0,1.104-0.896,2-2,2H47.936V48.66c0,0.662-0.328,1.281-0.875,1.654
		c-0.549,0.372-1.246,0.449-1.861,0.205c-0.094-0.037-9.584-3.808-21.82-9.998C11.055,34.287,3.107,28.168,2.775,27.911
		C2.286,27.532,2,26.948,2,26.33s0.286-1.202,0.775-1.581C3.107,24.491,11.055,18.374,23.379,12.139z"/>
</g>
</svg>
