<?xml version="1.0" encoding="utf-8"?>
<!-- Generator: Adobe Illustrator 16.0.0, SVG Export Plug-In . SVG Version: 6.00 Build 0)  -->
<!DOCTYPE svg PUBLIC "-//W3C//DTD SVG 1.1//EN" "http://www.w3.org/Graphics/SVG/1.1/DTD/svg11.dtd">
<svg version="1.1" id="Calque_1" xmlns="http://www.w3.org/2000/svg" xmlns:xlink="http://www.w3.org/1999/xlink" x="0px" y="0px"
	 width="85.656px" height="60.946px" viewBox="0 0 85.656 60.946" enable-background="new 0 0 85.656 60.946" xml:space="preserve">
<g>
	<path fill="#368C5E" d="M60.941,14.653C47.17,6.722,36.689,2,36.689,2v15.979H2v24.987h34.689v15.979
		c0,0,10.481-4.721,24.252-12.653c13.77-7.931,22.715-15.819,22.715-15.819S74.711,22.585,60.941,14.653"/>
	<path fill="none" stroke="#000000" stroke-width="4" stroke-linecap="round" stroke-linejoin="round" stroke-miterlimit="10" d="
		M60.941,14.653C47.17,6.722,36.689,2,36.689,2v15.979H2v24.987h34.689v15.979c0,0,10.481-4.721,24.252-12.653
		c13.77-7.931,22.715-15.819,22.715-15.819S74.711,22.585,60.941,14.653z"/>
</g>
</svg>
