<?xml version="1.0" encoding="utf-8"?>
<!-- Generator: Adobe Illustrator 16.0.0, SVG Export Plug-In . SVG Version: 6.00 Build 0)  -->
<!DOCTYPE svg PUBLIC "-//W3C//DTD SVG 1.1//EN" "http://www.w3.org/Graphics/SVG/1.1/DTD/svg11.dtd">
<svg version="1.1" id="Calque_1" xmlns="http://www.w3.org/2000/svg" xmlns:xlink="http://www.w3.org/1999/xlink" x="0px" y="0px"
	 width="80.908px" height="52.66px" viewBox="0 0 80.908 52.66" enable-background="new 0 0 80.908 52.66" xml:space="preserve">
<g>
	<defs>
		<rect id="SVGID_9_" width="80.908" height="52.66"/>
	</defs>
	<clipPath id="SVGID_2_">
		<use xlink:href="#SVGID_9_"  overflow="visible"/>
	</clipPath>
	<path clip-path="url(#SVGID_2_)" fill="#E5E2D3" d="M57.529,12.139c-12.236-6.19-21.727-9.961-21.82-9.998
		c-0.615-0.244-1.313-0.167-1.861,0.206C33.301,2.719,32.973,3.339,32.973,4v10.532H4c-1.104,0-2,0.896-2,2v19.597
		c0,1.104,0.896,2,2,2h28.973V48.66c0,0.662,0.328,1.281,0.875,1.654c0.549,0.372,1.246,0.449,1.861,0.205
		c0.094-0.037,9.584-3.808,21.82-9.998c12.324-6.234,20.271-12.354,20.604-12.61c0.489-0.379,0.775-0.963,0.775-1.581
		s-0.286-1.202-0.775-1.581C77.801,24.491,69.854,18.374,57.529,12.139z"/>
	
		<path clip-path="url(#SVGID_2_)" fill="none" stroke="#231F20" stroke-width="4" stroke-linejoin="round" stroke-miterlimit="10" d="
		M57.529,12.139c-12.236-6.19-21.727-9.961-21.82-9.998c-0.615-0.244-1.313-0.167-1.861,0.206C33.301,2.719,32.973,3.339,32.973,4
		v10.532H4c-1.104,0-2,0.896-2,2v19.597c0,1.104,0.896,2,2,2h28.973V48.66c0,0.662,0.328,1.281,0.875,1.654
		c0.549,0.372,1.246,0.449,1.861,0.205c0.094-0.037,9.584-3.808,21.82-9.998c12.324-6.234,20.271-12.354,20.604-12.61
		c0.489-0.379,0.775-0.963,0.775-1.581s-0.286-1.202-0.775-1.581C77.801,24.491,69.854,18.374,57.529,12.139z"/>
</g>
</svg>
