<?xml version="1.0" encoding="utf-8"?>
<!-- Generator: Adobe Illustrator 16.0.0, SVG Export Plug-In . SVG Version: 6.00 Build 0)  -->
<!DOCTYPE svg PUBLIC "-//W3C//DTD SVG 1.1//EN" "http://www.w3.org/Graphics/SVG/1.1/DTD/svg11.dtd">
<svg version="1.1" id="Calque_1" xmlns="http://www.w3.org/2000/svg" xmlns:xlink="http://www.w3.org/1999/xlink" x="0px" y="0px"
	 width="1000px" height="1000px" viewBox="0 0 1000 1000" enable-background="new 0 0 1000 1000" xml:space="preserve">
<g>
	<path d="M368.578,538.182c-0.641,0-1.301,0.01-1.98,0.029c-0.681,0.02-1.32,0.068-1.92,0.146v26.281
		c0.439,0.039,0.95,0.068,1.53,0.09s1.27,0.029,2.069,0.029c4.681,0,8.15-1.18,10.41-3.539c2.26-2.359,3.391-5.619,3.391-9.781
		c0-4.357-1.08-7.658-3.24-9.896C376.678,539.301,373.258,538.182,368.578,538.182z"/>
	<path d="M-17.892-5.121v1013h1031v-1013H-17.892z M405.647,465.219l5.49,5.039l-9.87,8.342l-4.109-3.66L405.647,465.219z
		 M389.537,481.18h28.08v7.857h-18.721v8.16h16.62v7.68h-16.62v10.021h20.101v7.859h-29.46V481.18z M352.045,506.861
		c-0.863-2.041-1.735-4.08-2.618-6.119c-0.883-2.041-1.686-3.898-2.407-5.58c-0.399,4.842-0.7,9.641-0.899,14.398
		c-0.201,4.762-0.36,9.16-0.48,13.201h-9.122c0.159-3.279,0.351-6.781,0.57-10.5c0.219-3.723,0.459-7.434,0.72-11.131
		c0.26-3.699,0.561-7.26,0.9-10.682c0.339-3.42,0.709-6.51,1.109-9.27h8.94c0.722,1.318,1.554,2.949,2.497,4.889
		c0.942,1.941,1.925,4.041,2.948,6.303c1.021,2.26,2.034,4.57,3.038,6.93c1.002,2.357,1.944,4.58,2.827,6.66
		c0.883-2.08,1.825-4.303,2.828-6.66c1.002-2.359,2.016-4.67,3.038-6.93c1.022-2.262,2.005-4.359,2.948-6.303
		c0.942-1.938,1.775-3.568,2.497-4.889h8.52c0.399,2.76,0.771,5.85,1.11,9.27c0.339,3.422,0.64,6.982,0.9,10.682
		c0.259,3.697,0.5,7.408,0.72,11.131c0.219,3.719,0.41,7.221,0.57,10.5h-9.12c-0.12-4.041-0.28-8.439-0.48-13.201
		c-0.201-4.76-0.501-9.561-0.899-14.398c-0.724,1.682-1.525,3.539-2.407,5.58c-0.883,2.039-1.756,4.078-2.619,6.119
		c-0.862,2.039-1.695,3.99-2.498,5.85c-0.802,1.859-1.485,3.451-2.046,4.771h-6.54c-0.563-1.32-1.244-2.91-2.046-4.771
		C353.741,510.852,352.908,508.9,352.045,506.861z M390.057,560.857c-1.12,2.682-2.71,4.898-4.77,6.66
		c-2.062,1.76-4.57,3.08-7.53,3.959c-2.961,0.881-6.281,1.32-9.96,1.32c-1.68,0-3.64-0.07-5.88-0.211
		c-2.241-0.141-4.44-0.43-6.601-0.869v-40.5c2.16-0.398,4.41-0.67,6.75-0.811c2.341-0.139,4.351-0.209,6.03-0.209
		c3.561,0,6.789,0.398,9.69,1.199c2.899,0.801,5.39,2.061,7.47,3.779c2.079,1.721,3.68,3.922,4.8,6.6
		c1.121,2.684,1.681,5.904,1.681,9.662C391.737,555.039,391.176,558.178,390.057,560.857z M425.998,572.258h-29.46v-41.58h28.08
		v7.859h-18.721v8.16h16.62v7.68h-16.62v10.021h20.101V572.258z M442.722,512.711c-0.803-1.859-1.636-3.811-2.499-5.85
		c-0.863-2.041-1.734-4.08-2.618-6.119c-0.883-2.041-1.687-3.898-2.406-5.58c-0.4,4.842-0.7,9.641-0.9,14.398
		c-0.201,4.762-0.36,9.16-0.48,13.201H424.7c0.158-3.279,0.35-6.781,0.569-10.5c0.22-3.723,0.459-7.434,0.721-11.131
		c0.26-3.699,0.56-7.26,0.899-10.682c0.339-3.42,0.709-6.51,1.11-9.27h8.936c0.723,1.318,1.555,2.949,2.497,4.889
		c0.942,1.941,1.925,4.041,2.948,6.303c1.021,2.26,2.035,4.57,3.038,6.93c1.002,2.357,1.945,4.58,2.828,6.66
		c0.882-2.08,1.825-4.303,2.828-6.66c1.002-2.359,2.015-4.67,3.038-6.93c1.021-2.262,2.005-4.359,2.947-6.303
		c0.942-1.938,1.775-3.568,2.497-4.889h8.521c0.399,2.76,0.771,5.85,1.11,9.27c0.338,3.422,0.64,6.982,0.899,10.682
		c0.259,3.697,0.499,7.408,0.72,11.131c0.219,3.719,0.41,7.221,0.57,10.5h-9.12c-0.12-4.041-0.28-8.439-0.479-13.201
		c-0.2-4.76-0.502-9.561-0.899-14.398c-0.723,1.682-1.525,3.539-2.408,5.58c-0.883,2.039-1.755,4.078-2.618,6.119
		c-0.861,2.039-1.694,3.99-2.498,5.85c-0.802,1.859-1.484,3.451-2.046,4.771h-6.54C444.205,516.162,443.524,514.572,442.722,512.711
		z M471.992,555.008c-3.359,2.221-8.16,3.33-14.399,3.33h-2.939v13.92h-9.36v-40.98c2.04-0.396,4.2-0.68,6.479-0.84
		c2.281-0.16,4.281-0.24,6-0.24c6.2,0,10.96,1.092,14.28,3.271s4.98,5.75,4.98,10.709
		C477.033,549.18,475.351,552.787,471.992,555.008z M500,572.168h-25.969l12.985-46.502l1.322-4.734
		C481.001,516.836,476.037,509,476.037,500c0-13.234,10.728-23.963,23.962-23.963s23.962,10.729,23.962,23.963
		c0,9-4.964,16.836-12.301,20.934l1.321,4.732l12.987,46.502H500z M553.892,569.891c-2.721,2.141-6.819,3.209-12.299,3.209
		c-1.842,0-3.502-0.107-4.979-0.33c-1.479-0.221-2.791-0.488-3.931-0.811c-1.141-0.318-2.121-0.66-2.94-1.02
		s-1.511-0.699-2.069-1.021l2.641-7.439c1.24,0.684,2.77,1.291,4.59,1.83c1.82,0.539,4.05,0.811,6.69,0.811
		c1.319,0,2.409-0.109,3.271-0.33c0.859-0.221,1.549-0.521,2.068-0.898c0.521-0.381,0.881-0.83,1.08-1.352
		c0.201-0.521,0.301-1.102,0.301-1.74c0-1.357-0.641-2.488-1.92-3.389c-1.281-0.9-3.48-1.871-6.601-2.91
		c-1.36-0.48-2.721-1.029-4.079-1.65c-1.361-0.619-2.58-1.398-3.66-2.34c-1.08-0.939-1.961-2.078-2.642-3.42
		c-0.681-1.34-1.021-2.971-1.021-4.893c0-1.92,0.359-3.648,1.08-5.188s1.74-2.85,3.062-3.93c1.319-1.08,2.919-1.91,4.799-2.49
		c1.882-0.578,4-0.869,6.36-0.869c2.8,0,5.22,0.299,7.261,0.898c2.039,0.602,3.72,1.26,5.039,1.979l-2.699,7.379
		c-1.161-0.6-2.45-1.129-3.87-1.59c-1.421-0.459-3.13-0.688-5.13-0.688c-2.239,0-3.851,0.311-4.829,0.93
		c-0.98,0.621-1.472,1.57-1.472,2.852c0,0.76,0.181,1.4,0.541,1.92c0.358,0.52,0.869,0.99,1.528,1.41
		c0.66,0.42,1.42,0.801,2.281,1.141c0.858,0.34,1.81,0.689,2.85,1.049c2.16,0.801,4.039,1.59,5.64,2.371
		c1.601,0.779,2.931,1.689,3.99,2.729c1.06,1.041,1.851,2.262,2.371,3.66c0.519,1.4,0.778,3.102,0.778,5.1
		C557.972,564.742,556.613,567.752,553.892,569.891z M586.812,569.891c-2.721,2.143-6.82,3.209-12.301,3.209
		c-1.84,0-3.5-0.107-4.979-0.33c-1.479-0.221-2.789-0.488-3.931-0.811c-1.141-0.318-2.121-0.66-2.938-1.02
		c-0.819-0.359-1.511-0.699-2.069-1.021l2.639-7.439c1.24,0.684,2.771,1.291,4.592,1.83c1.816,0.539,4.048,0.811,6.689,0.811
		c1.319,0,2.408-0.109,3.27-0.33c0.859-0.221,1.55-0.521,2.07-0.898c0.52-0.381,0.879-0.83,1.08-1.352
		c0.199-0.521,0.299-1.102,0.299-1.74c0-1.357-0.639-2.488-1.92-3.389c-1.279-0.9-3.479-1.871-6.6-2.91
		c-1.359-0.48-2.722-1.029-4.08-1.65c-1.359-0.619-2.58-1.398-3.66-2.34c-1.08-0.939-1.959-2.078-2.64-3.42
		c-0.683-1.34-1.021-2.971-1.021-4.893c0-1.92,0.359-3.648,1.08-5.188c0.72-1.539,1.738-2.85,3.06-3.93
		c1.322-1.08,2.92-1.91,4.802-2.49c1.879-0.578,3.998-0.869,6.358-0.869c2.8,0,5.221,0.299,7.26,0.898
		c2.041,0.602,3.722,1.26,5.041,1.979l-2.7,7.379c-1.16-0.6-2.451-1.129-3.869-1.59c-1.42-0.459-3.131-0.688-5.131-0.688
		c-2.24,0-3.851,0.311-4.83,0.93c-0.98,0.621-1.47,1.57-1.47,2.852c0,0.76,0.181,1.4,0.539,1.92c0.36,0.52,0.871,0.99,1.53,1.41
		c0.66,0.42,1.418,0.801,2.279,1.141c0.859,0.34,1.81,0.689,2.851,1.049c2.159,0.801,4.04,1.59,5.642,2.371
		c1.6,0.779,2.93,1.689,3.989,2.729c1.06,1.041,1.851,2.262,2.369,3.66c0.521,1.4,0.78,3.102,0.78,5.1
		C590.892,564.742,589.532,567.752,586.812,569.891z M626.555,572.258h-29.461v-41.58h28.081v7.859h-18.72v8.16h16.619v7.68h-16.619
		v10.021h20.101V572.258z"/>
	<path d="M464.944,539.41c-0.781-0.461-1.731-0.779-2.852-0.961c-1.119-0.182-2.359-0.271-3.717-0.271
		c-0.683,0-1.352,0.021-2.01,0.061c-0.66,0.041-1.23,0.08-1.71,0.119v12h2.939c3.239,0,5.679-0.438,7.319-1.316
		c1.641-0.881,2.461-2.521,2.461-4.92c0-1.16-0.211-2.121-0.631-2.883C466.323,540.479,465.723,539.871,464.944,539.41z"/>
</g>
</svg>
