<?xml version="1.0" encoding="UTF-8" standalone="no"?>
<!-- Generator: Adobe Illustrator 16.0.0, SVG Export Plug-In . SVG Version: 6.00 Build 0)  -->

<svg
   xmlns:dc="http://purl.org/dc/elements/1.1/"
   xmlns:cc="http://creativecommons.org/ns#"
   xmlns:rdf="http://www.w3.org/1999/02/22-rdf-syntax-ns#"
   xmlns:svg="http://www.w3.org/2000/svg"
   xmlns="http://www.w3.org/2000/svg"
   xmlns:sodipodi="http://sodipodi.sourceforge.net/DTD/sodipodi-0.dtd"
   xmlns:inkscape="http://www.inkscape.org/namespaces/inkscape"
   version="1.1"
   id="Calque_1"
   x="0px"
   y="0px"
   width="531"
   height="513"
   viewBox="0 0 531 513"
   enable-background="new 0 0 1000 1000"
   xml:space="preserve"
   inkscape:version="0.48.4 r9939"
   sodipodi:docname="CacheLogo2.svg"><metadata
     id="metadata3067"><rdf:RDF><cc:Work
         rdf:about=""><dc:format>image/svg+xml</dc:format><dc:type
           rdf:resource="http://purl.org/dc/dcmitype/StillImage" /></cc:Work></rdf:RDF></metadata><defs
     id="defs3065" /><sodipodi:namedview
     pagecolor="#ffffff"
     bordercolor="#666666"
     borderopacity="1"
     objecttolerance="10"
     gridtolerance="10"
     guidetolerance="10"
     inkscape:pageopacity="0"
     inkscape:pageshadow="2"
     inkscape:window-width="963"
     inkscape:window-height="593"
     id="namedview3063"
     showgrid="false"
     inkscape:zoom="0.236"
     inkscape:cx="267.892"
     inkscape:cy="257.879"
     inkscape:window-x="0"
     inkscape:window-y="24"
     inkscape:window-maximized="0"
     inkscape:current-layer="g3055"
     fit-margin-left="-250"
     fit-margin-top="-250"
     fit-margin-bottom="-250"
     fit-margin-right="-250" /><g
     id="g3055"
     transform="translate(-232.108,-244.879)"><path
       d="m 368.578,538.182 c -0.641,0 -1.301,0.01 -1.98,0.029 -0.681,0.02 -1.32,0.068 -1.92,0.146 v 26.281 c 0.439,0.039 0.95,0.068 1.53,0.09 0.58,0.022 1.27,0.029 2.069,0.029 4.681,0 8.15,-1.18 10.41,-3.539 2.26,-2.359 3.391,-5.619 3.391,-9.781 0,-4.357 -1.08,-7.658 -3.24,-9.896 -2.16,-2.24 -5.58,-3.359 -10.26,-3.359 z"
       id="path3057"
       inkscape:connector-curvature="0" /><path
       d="m -17.892,-5.121 v 1013 h 1031 v -1013 h -1031 z m 423.539,470.34 5.49,5.039 -9.87,8.342 -4.109,-3.66 8.489,-9.721 z m -16.11,15.961 h 28.08 v 7.857 h -18.721 v 8.16 h 16.62 v 7.68 h -16.62 v 10.021 h 20.101 v 7.859 h -29.46 V 481.18 z m -37.492,25.681 c -0.863,-2.041 -1.735,-4.08 -2.618,-6.119 -0.883,-2.041 -1.686,-3.898 -2.407,-5.58 -0.399,4.842 -0.7,9.641 -0.899,14.398 -0.201,4.762 -0.36,9.16 -0.48,13.201 h -9.122 c 0.159,-3.279 0.351,-6.781 0.57,-10.5 0.219,-3.723 0.459,-7.434 0.72,-11.131 0.26,-3.699 0.561,-7.26 0.9,-10.682 0.339,-3.42 0.709,-6.51 1.109,-9.27 h 8.94 c 0.722,1.318 1.554,2.949 2.497,4.889 0.942,1.941 1.925,4.041 2.948,6.303 1.021,2.26 2.034,4.57 3.038,6.93 1.002,2.357 1.944,4.58 2.827,6.66 0.883,-2.08 1.825,-4.303 2.828,-6.66 1.002,-2.359 2.016,-4.67 3.038,-6.93 1.022,-2.262 2.005,-4.359 2.948,-6.303 0.942,-1.938 1.775,-3.568 2.497,-4.889 h 8.52 c 0.399,2.76 0.771,5.85 1.11,9.27 0.339,3.422 0.64,6.982 0.9,10.682 0.259,3.697 0.5,7.408 0.72,11.131 0.219,3.719 0.41,7.221 0.57,10.5 h -9.12 c -0.12,-4.041 -0.28,-8.439 -0.48,-13.201 -0.201,-4.76 -0.501,-9.561 -0.899,-14.398 -0.724,1.682 -1.525,3.539 -2.407,5.58 -0.883,2.039 -1.756,4.078 -2.619,6.119 -0.862,2.039 -1.695,3.99 -2.498,5.85 -0.802,1.859 -1.485,3.451 -2.046,4.771 h -6.54 c -0.563,-1.32 -1.244,-2.91 -2.046,-4.771 -0.803,-1.859 -1.636,-3.811 -2.499,-5.85 z m 38.012,53.996 c -1.12,2.682 -2.71,4.898 -4.77,6.66 -2.062,1.76 -4.57,3.08 -7.53,3.959 -2.961,0.881 -6.281,1.32 -9.96,1.32 -1.68,0 -3.64,-0.07 -5.88,-0.211 -2.241,-0.141 -4.44,-0.43 -6.601,-0.869 v -40.5 c 2.16,-0.398 4.41,-0.67 6.75,-0.811 2.341,-0.139 4.351,-0.209 6.03,-0.209 3.561,0 6.789,0.398 9.69,1.199 2.899,0.801 5.39,2.061 7.47,3.779 2.079,1.721 3.68,3.922 4.8,6.6 1.121,2.684 1.681,5.904 1.681,9.662 0,3.603 -0.561,6.742 -1.68,9.421 z m 35.941,11.401 h -29.46 v -41.58 h 28.08 v 7.859 h -18.721 v 8.16 h 16.62 v 7.68 h -16.62 v 10.021 h 20.101 v 7.86 z m 16.724,-59.547 c -0.803,-1.859 -1.636,-3.811 -2.499,-5.85 -0.863,-2.041 -1.734,-4.08 -2.618,-6.119 -0.883,-2.041 -1.687,-3.898 -2.406,-5.58 -0.4,4.842 -0.7,9.641 -0.9,14.398 -0.201,4.762 -0.36,9.16 -0.48,13.201 H 424.7 c 0.158,-3.279 0.35,-6.781 0.569,-10.5 0.22,-3.723 0.459,-7.434 0.721,-11.131 0.26,-3.699 0.56,-7.26 0.899,-10.682 0.339,-3.42 0.709,-6.51 1.11,-9.27 h 8.936 c 0.723,1.318 1.555,2.949 2.497,4.889 0.942,1.941 1.925,4.041 2.948,6.303 1.021,2.26 2.035,4.57 3.038,6.93 1.002,2.357 1.945,4.58 2.828,6.66 0.882,-2.08 1.825,-4.303 2.828,-6.66 1.002,-2.359 2.015,-4.67 3.038,-6.93 1.021,-2.262 2.005,-4.359 2.947,-6.303 0.942,-1.938 1.775,-3.568 2.497,-4.889 h 8.521 c 0.399,2.76 0.771,5.85 1.11,9.27 0.338,3.422 0.64,6.982 0.899,10.682 0.259,3.697 0.499,7.408 0.72,11.131 0.219,3.719 0.41,7.221 0.57,10.5 h -9.12 c -0.12,-4.041 -0.28,-8.439 -0.479,-13.201 -0.2,-4.76 -0.502,-9.561 -0.899,-14.398 -0.723,1.682 -1.525,3.539 -2.408,5.58 -0.883,2.039 -1.755,4.078 -2.618,6.119 -0.861,2.039 -1.694,3.99 -2.498,5.85 -0.802,1.859 -1.484,3.451 -2.046,4.771 h -6.54 c -0.563,-1.32 -1.244,-2.91 -2.046,-4.771 z m 29.27,42.297 c -3.359,2.221 -8.16,3.33 -14.399,3.33 h -2.939 v 13.92 h -9.36 v -40.98 c 2.04,-0.396 4.2,-0.68 6.479,-0.84 2.281,-0.16 4.281,-0.24 6,-0.24 6.2,0 10.96,1.092 14.28,3.271 3.32,2.179 4.98,5.75 4.98,10.709 0,5.002 -1.682,8.609 -5.041,10.83 z M 500,572.168 h -25.969 l 12.985,-46.502 1.322,-4.734 C 481.001,516.836 476.037,509 476.037,500 c 0,-13.234 10.728,-23.963 23.962,-23.963 13.234,0 23.962,10.729 23.962,23.963 0,9 -4.964,16.836 -12.301,20.934 l 1.321,4.732 12.987,46.502 H 500 z m 53.892,-2.277 c -2.721,2.141 -6.819,3.209 -12.299,3.209 -1.842,0 -3.502,-0.107 -4.979,-0.33 -1.479,-0.221 -2.791,-0.488 -3.931,-0.811 -1.141,-0.318 -2.121,-0.66 -2.94,-1.02 -0.819,-0.36 -1.511,-0.699 -2.069,-1.021 l 2.641,-7.439 c 1.24,0.684 2.77,1.291 4.59,1.83 1.82,0.539 4.05,0.811 6.69,0.811 1.319,0 2.409,-0.109 3.271,-0.33 0.859,-0.221 1.549,-0.521 2.068,-0.898 0.521,-0.381 0.881,-0.83 1.08,-1.352 0.201,-0.521 0.301,-1.102 0.301,-1.74 0,-1.357 -0.641,-2.488 -1.92,-3.389 -1.281,-0.9 -3.48,-1.871 -6.601,-2.91 -1.36,-0.48 -2.721,-1.029 -4.079,-1.65 -1.361,-0.619 -2.58,-1.398 -3.66,-2.34 -1.08,-0.939 -1.961,-2.078 -2.642,-3.42 -0.681,-1.34 -1.021,-2.971 -1.021,-4.893 0,-1.92 0.359,-3.648 1.08,-5.188 0.721,-1.54 1.74,-2.85 3.062,-3.93 1.319,-1.08 2.919,-1.91 4.799,-2.49 1.882,-0.578 4,-0.869 6.36,-0.869 2.8,0 5.22,0.299 7.261,0.898 2.039,0.602 3.72,1.26 5.039,1.979 l -2.699,7.379 c -1.161,-0.6 -2.45,-1.129 -3.87,-1.59 -1.421,-0.459 -3.13,-0.688 -5.13,-0.688 -2.239,0 -3.851,0.311 -4.829,0.93 -0.98,0.621 -1.472,1.57 -1.472,2.852 0,0.76 0.181,1.4 0.541,1.92 0.358,0.52 0.869,0.99 1.528,1.41 0.66,0.42 1.42,0.801 2.281,1.141 0.858,0.34 1.81,0.689 2.85,1.049 2.16,0.801 4.039,1.59 5.64,2.371 1.601,0.779 2.931,1.689 3.99,2.729 1.06,1.041 1.851,2.262 2.371,3.66 0.519,1.4 0.778,3.102 0.778,5.1 0,3.881 -1.359,6.891 -4.08,9.03 z m 32.92,0 c -2.721,2.143 -6.82,3.209 -12.301,3.209 -1.84,0 -3.5,-0.107 -4.979,-0.33 -1.479,-0.221 -2.789,-0.488 -3.931,-0.811 -1.141,-0.318 -2.121,-0.66 -2.938,-1.02 -0.819,-0.359 -1.511,-0.699 -2.069,-1.021 l 2.639,-7.439 c 1.24,0.684 2.771,1.291 4.592,1.83 1.816,0.539 4.048,0.811 6.689,0.811 1.319,0 2.408,-0.109 3.27,-0.33 0.859,-0.221 1.55,-0.521 2.07,-0.898 0.52,-0.381 0.879,-0.83 1.08,-1.352 0.199,-0.521 0.299,-1.102 0.299,-1.74 0,-1.357 -0.639,-2.488 -1.92,-3.389 -1.279,-0.9 -3.479,-1.871 -6.6,-2.91 -1.359,-0.48 -2.722,-1.029 -4.08,-1.65 -1.359,-0.619 -2.58,-1.398 -3.66,-2.34 -1.08,-0.939 -1.959,-2.078 -2.64,-3.42 -0.683,-1.34 -1.021,-2.971 -1.021,-4.893 0,-1.92 0.359,-3.648 1.08,-5.188 0.72,-1.539 1.738,-2.85 3.06,-3.93 1.322,-1.08 2.92,-1.91 4.802,-2.49 1.879,-0.578 3.998,-0.869 6.358,-0.869 2.8,0 5.221,0.299 7.26,0.898 2.041,0.602 3.722,1.26 5.041,1.979 l -2.7,7.379 c -1.16,-0.6 -2.451,-1.129 -3.869,-1.59 -1.42,-0.459 -3.131,-0.688 -5.131,-0.688 -2.24,0 -3.851,0.311 -4.83,0.93 -0.98,0.621 -1.47,1.57 -1.47,2.852 0,0.76 0.181,1.4 0.539,1.92 0.36,0.52 0.871,0.99 1.53,1.41 0.66,0.42 1.418,0.801 2.279,1.141 0.859,0.34 1.81,0.689 2.851,1.049 2.159,0.801 4.04,1.59 5.642,2.371 1.6,0.779 2.93,1.689 3.989,2.729 1.06,1.041 1.851,2.262 2.369,3.66 0.521,1.4 0.78,3.102 0.78,5.1 0,3.881 -1.36,6.891 -4.08,9.03 z m 39.743,2.367 h -29.461 v -41.58 h 28.081 v 7.859 h -18.72 v 8.16 h 16.619 v 7.68 h -16.619 v 10.021 h 20.101 v 7.86 z"
       id="path3059"
       inkscape:connector-curvature="0" /><path
       d="m 464.944,539.41 c -0.781,-0.461 -1.731,-0.779 -2.852,-0.961 -1.119,-0.182 -2.359,-0.271 -3.717,-0.271 -0.683,0 -1.352,0.021 -2.01,0.061 -0.66,0.041 -1.23,0.08 -1.71,0.119 v 12 h 2.939 c 3.239,0 5.679,-0.438 7.319,-1.316 1.641,-0.881 2.461,-2.521 2.461,-4.92 0,-1.16 -0.211,-2.121 -0.631,-2.883 -0.42,-0.76 -1.02,-1.368 -1.799,-1.829 z"
       id="path3061"
       inkscape:connector-curvature="0" /></g></svg>