<?xml version="1.0" encoding="utf-8"?>
<!-- Generator: Adobe Illustrator 16.0.0, SVG Export Plug-In . SVG Version: 6.00 Build 0)  -->
<!DOCTYPE svg PUBLIC "-//W3C//DTD SVG 1.1//EN" "http://www.w3.org/Graphics/SVG/1.1/DTD/svg11.dtd">
<svg version="1.1" id="Calque_1" xmlns="http://www.w3.org/2000/svg" xmlns:xlink="http://www.w3.org/1999/xlink" x="0px" y="0px"
	 width="64.869px" height="26px" viewBox="0 0 64.869 26" enable-background="new 0 0 64.869 26" xml:space="preserve">
<g>
	<path fill="#FFFFFF" d="M13.224,13c0,2.934,1.515,5.627,3.988,7.158c-1.273,0.752-2.719,1.145-4.211,1.145
		c-4.58,0-8.305-3.725-8.305-8.303s3.725-8.303,8.305-8.303c1.492,0,2.938,0.395,4.211,1.146C14.738,7.373,13.224,10.066,13.224,13
		 M64.869,13c0-1.387-1.128-2.516-2.516-2.516H25.753C24.561,4.393,19.242,0,13.001,0c-7.17,0-13,5.832-13,13s5.83,13,13,13
		c6.241,0,11.56-4.391,12.752-10.484h16.142v5.633c0,0.186,0.149,0.336,0.336,0.336h4.862c0.186,0,0.336-0.15,0.336-0.336v-5.633
		h2.627v7.311c0,0.184,0.15,0.336,0.336,0.336h8.775c0.186,0,0.336-0.152,0.336-0.336v-7.311h2.851
		C63.741,15.516,64.869,14.387,64.869,13"/>
</g>
</svg>
