<?xml version="1.0" encoding="utf-8"?>
<!-- Generator: Adobe Illustrator 16.0.0, SVG Export Plug-In . SVG Version: 6.00 Build 0)  -->
<!DOCTYPE svg PUBLIC "-//W3C//DTD SVG 1.1//EN" "http://www.w3.org/Graphics/SVG/1.1/DTD/svg11.dtd">
<svg version="1.1" id="Calque_1" xmlns="http://www.w3.org/2000/svg" xmlns:xlink="http://www.w3.org/1999/xlink" x="0px" y="0px"
	 width="167.043px" height="860.66px" viewBox="0 0 167.043 860.66" enable-background="new 0 0 167.043 860.66"
	 xml:space="preserve">
<g>
	<path fill="#515766" stroke="#000000" stroke-width="4" stroke-linecap="round" stroke-miterlimit="10" d="M142.109,762.389
		h-39.588v-7.666h29.588c3.309,0,6-2.691,6-6v-29c0-3.309-2.691-6-6-6h-29.588V540.18c36.322-8.662,62.521-41.74,62.521-79.271
		c0-44.949-36.571-81.52-81.521-81.52S2,415.959,2,460.908c0,37.529,26.199,70.607,62.521,79.271v299.543c0,10.477,8.523,19,19,19
		s19-8.523,19-19v-13h39.588c3.309,0,6-2.691,6-6v-52.334C148.109,765.08,145.418,762.389,142.109,762.389z"/>
</g>
</svg>
