<?xml version="1.0" encoding="utf-8"?>
<!-- Generator: Adobe Illustrator 16.0.0, SVG Export Plug-In . SVG Version: 6.00 Build 0)  -->
<!DOCTYPE svg PUBLIC "-//W3C//DTD SVG 1.1//EN" "http://www.w3.org/Graphics/SVG/1.1/DTD/svg11.dtd">
<svg version="1.1" id="Calque_1" xmlns="http://www.w3.org/2000/svg" xmlns:xlink="http://www.w3.org/1999/xlink" x="0px" y="0px"
	 width="59.861px" height="59.04px" viewBox="0 0 59.861 59.04" enable-background="new 0 0 59.861 59.04" xml:space="preserve">
<g>
	<defs>
		<rect id="SVGID_5_" width="59.861" height="59.04"/>
	</defs>
	<clipPath id="SVGID_2_">
		<use xlink:href="#SVGID_5_"  overflow="visible"/>
	</clipPath>
	<path clip-path="url(#SVGID_2_)" fill="#AB2E23" d="M56.83,51.661l-0.314-0.433c-0.279-0.385-0.623-0.862-1.041-1.409
		c-1.008-1.334-2.711-3.523-5.068-6.321c-1.076-1.274-2.254-2.642-3.519-4.07c-1.271-1.428-2.618-2.917-4.034-4.437
		c-1.419-1.52-2.892-3.081-4.42-4.636c-0.271-0.28-0.545-0.562-0.822-0.843c0.276-0.282,0.551-0.565,0.824-0.848
		c0.635-0.643,1.27-1.31,1.896-1.97l0.342-0.359c0.738-0.771,1.467-1.544,2.173-2.313c2.657-2.857,5.269-5.798,7.542-8.496
		c2.359-2.796,4.066-4.978,5.082-6.316c0.402-0.523,0.742-0.989,1.02-1.369l0.332-0.455l0.491-0.691
		c0.729-1.031,0.729-2.412-0.001-3.438c-0.941-1.328-2.804-1.657-4.15-0.731L52.5,2.982l-0.514,0.365
		c-0.383,0.27-0.852,0.601-1.387,0.999c-1.91,1.404-4.189,3.182-6.406,4.995c-2.74,2.236-5.728,4.807-8.641,7.431
		c-0.771,0.687-1.557,1.404-2.344,2.135l-0.359,0.33c-0.671,0.618-1.35,1.242-2.02,1.883c-0.297,0.279-0.598,0.563-0.898,0.849
		c-0.305-0.289-0.609-0.577-0.915-0.863c-0.653-0.626-1.332-1.25-2.003-1.868l-0.363-0.334c-0.783-0.727-1.568-1.444-2.349-2.139
		c-2.904-2.616-5.892-5.187-8.632-7.423c-2.217-1.813-4.496-3.591-6.416-5.003C8.729,3.948,8.26,3.617,7.878,3.348L7.402,3.01
		L6.699,2.525C5.679,1.826,4.311,1.826,3.293,2.526C2.629,2.982,2.187,3.669,2.047,4.46C1.906,5.248,2.086,6.043,2.55,6.696
		L3.014,7.35l0.359,0.492C3.65,8.222,3.99,8.688,4.4,9.221c1.008,1.329,2.715,3.511,5.074,6.308
		c2.273,2.697,4.885,5.638,7.551,8.504c0.697,0.76,1.426,1.532,2.168,2.309l0.338,0.355c0.627,0.66,1.262,1.326,1.912,1.984
		c0.266,0.275,0.535,0.553,0.809,0.832c-0.28,0.284-0.559,0.569-0.834,0.855c-1.516,1.542-2.989,3.104-4.407,4.621
		c-1.417,1.521-2.765,3.011-4.031,4.434c-1.268,1.434-2.446,2.8-3.522,4.074c-2.357,2.799-4.062,4.988-5.075,6.331
		c-0.41,0.538-0.755,1.015-1.033,1.399l-0.315,0.434l-0.487,0.69c-0.722,1.026-0.72,2.4,0,3.422
		c0.938,1.332,2.799,1.668,4.147,0.747l0.666-0.454l0.486-0.343c0.389-0.272,0.869-0.609,1.42-1.017
		c1.355-0.991,3.578-2.668,6.421-4.987c1.296-1.061,2.685-2.221,4.136-3.465c1.45-1.25,2.965-2.576,4.508-3.971
		c1.543-1.396,3.129-2.846,4.709-4.35c0.295-0.277,0.594-0.56,0.893-0.843c0.301,0.286,0.604,0.571,0.906,0.854
		c1.566,1.492,3.152,2.941,4.695,4.337s3.058,2.722,4.504,3.968c1.455,1.248,2.844,2.408,4.138,3.468
		c2.844,2.32,5.067,3.997,6.433,4.994c0.541,0.401,1.022,0.738,1.411,1.012l0.449,0.315l0.7,0.48
		c1.019,0.69,2.381,0.689,3.392-0.001c0.665-0.454,1.11-1.14,1.253-1.929c0.143-0.788-0.033-1.583-0.494-2.239l-0.461-0.654
		L56.83,51.661z"/>
	
		<path clip-path="url(#SVGID_2_)" fill="none" stroke="#231F20" stroke-width="4" stroke-linejoin="round" stroke-miterlimit="10" d="
		M56.83,51.661l-0.314-0.433c-0.279-0.385-0.623-0.862-1.041-1.409c-1.008-1.334-2.711-3.523-5.068-6.321
		c-1.076-1.274-2.254-2.642-3.519-4.07c-1.271-1.428-2.618-2.917-4.034-4.437c-1.419-1.52-2.892-3.081-4.42-4.636
		c-0.271-0.28-0.545-0.562-0.822-0.843c0.276-0.282,0.551-0.565,0.824-0.848c0.635-0.643,1.27-1.31,1.896-1.97l0.342-0.359
		c0.738-0.771,1.467-1.544,2.173-2.313c2.657-2.857,5.269-5.798,7.542-8.496c2.359-2.796,4.066-4.978,5.082-6.316
		c0.402-0.523,0.742-0.989,1.02-1.369l0.332-0.455l0.491-0.691c0.729-1.031,0.729-2.412-0.001-3.438
		c-0.941-1.328-2.804-1.657-4.15-0.731L52.5,2.982l-0.514,0.365c-0.383,0.27-0.852,0.601-1.387,0.999
		c-1.91,1.404-4.189,3.182-6.406,4.995c-2.74,2.236-5.728,4.807-8.641,7.431c-0.771,0.687-1.557,1.404-2.344,2.135l-0.359,0.33
		c-0.671,0.618-1.35,1.242-2.02,1.883c-0.297,0.279-0.598,0.563-0.898,0.849c-0.305-0.289-0.609-0.577-0.915-0.863
		c-0.653-0.626-1.332-1.25-2.003-1.868l-0.363-0.334c-0.783-0.727-1.568-1.444-2.349-2.139c-2.904-2.616-5.892-5.187-8.632-7.423
		c-2.217-1.813-4.496-3.591-6.416-5.003C8.729,3.948,8.26,3.617,7.878,3.348L7.402,3.01L6.699,2.525
		C5.679,1.826,4.311,1.826,3.293,2.526C2.629,2.982,2.187,3.669,2.047,4.46C1.906,5.248,2.086,6.043,2.55,6.696L3.014,7.35
		l0.359,0.492C3.65,8.222,3.99,8.688,4.4,9.221c1.008,1.329,2.715,3.511,5.074,6.308c2.273,2.697,4.885,5.638,7.551,8.504
		c0.697,0.76,1.426,1.532,2.168,2.309l0.338,0.355c0.627,0.66,1.262,1.326,1.912,1.984c0.266,0.275,0.535,0.553,0.809,0.832
		c-0.28,0.284-0.559,0.569-0.834,0.855c-1.516,1.542-2.989,3.104-4.407,4.621c-1.417,1.521-2.765,3.011-4.031,4.434
		c-1.268,1.434-2.446,2.8-3.522,4.074c-2.357,2.799-4.062,4.988-5.075,6.331c-0.41,0.538-0.755,1.015-1.033,1.399l-0.315,0.434
		l-0.487,0.69c-0.722,1.026-0.72,2.4,0,3.422c0.938,1.332,2.799,1.668,4.147,0.747l0.666-0.454l0.486-0.343
		c0.389-0.272,0.869-0.609,1.42-1.017c1.355-0.991,3.578-2.668,6.421-4.987c1.296-1.061,2.685-2.221,4.136-3.465
		c1.45-1.25,2.965-2.576,4.508-3.971c1.543-1.396,3.129-2.846,4.709-4.35c0.295-0.277,0.594-0.56,0.893-0.843
		c0.301,0.286,0.604,0.571,0.906,0.854c1.566,1.492,3.152,2.941,4.695,4.337s3.058,2.722,4.504,3.968
		c1.455,1.248,2.844,2.408,4.138,3.468c2.844,2.32,5.067,3.997,6.433,4.994c0.541,0.401,1.022,0.738,1.411,1.012l0.449,0.315
		l0.7,0.48c1.019,0.69,2.381,0.689,3.392-0.001c0.665-0.454,1.11-1.14,1.253-1.929c0.143-0.788-0.033-1.583-0.494-2.239
		l-0.461-0.654L56.83,51.661z"/>
</g>
</svg>
