<?xml version="1.0" encoding="utf-8"?>
<!-- Generator: Adobe Illustrator 16.0.0, SVG Export Plug-In . SVG Version: 6.00 Build 0)  -->
<!DOCTYPE svg PUBLIC "-//W3C//DTD SVG 1.1//EN" "http://www.w3.org/Graphics/SVG/1.1/DTD/svg11.dtd">
<svg version="1.1" id="Calque_1" xmlns="http://www.w3.org/2000/svg" xmlns:xlink="http://www.w3.org/1999/xlink" x="0px" y="0px"
	 width="107.51px" height="107.496px" viewBox="0 0 107.51 107.496" enable-background="new 0 0 107.51 107.496"
	 xml:space="preserve">
<g>
	<path fill="#AB2E23" d="M4.743,105.581c-0.911,0-1.769-0.442-2.297-1.185c-0.693-0.975-0.694-2.285-0.002-3.262l0.35-0.492
		c0.151-0.212,0.347-0.489,0.591-0.822c0.466-0.643,1.32-1.799,2.694-3.593c0.365-0.484,0.772-1.004,1.203-1.556
		c0.242-0.309,0.492-0.628,0.748-0.959c0.462-0.589,0.948-1.195,1.456-1.831l0.882-1.104l2.695-3.301l3.026-3.614l3.33-3.884
		c1.165-1.344,2.369-2.715,3.614-4.119c2.575-2.899,5.242-5.836,7.931-8.729c2.785-2.997,5.704-6.068,8.674-9.131
		c1.371-1.412,2.779-2.849,4.202-4.29c-1.489-1.526-2.854-2.939-4.142-4.286c-2.971-3.104-5.873-6.189-8.625-9.172
		c-2.744-2.972-5.407-5.912-7.913-8.736c-1.488-1.679-2.601-2.948-3.608-4.115l-0.553-0.636c-0.974-1.122-1.894-2.182-2.786-3.24
		L15.6,22.805c-0.843-0.991-1.656-1.947-2.424-2.88l-0.459-0.552c-0.79-0.948-1.545-1.854-2.249-2.726l-0.076-0.095
		c-0.816-1-1.581-1.937-2.278-2.817C7.394,12.837,6.73,12,6.138,11.238C4.963,9.743,4.063,8.552,3.412,7.684L2.465,6.399
		C2.019,5.795,1.836,5.053,1.947,4.311c0.113-0.745,0.509-1.4,1.114-1.847C3.548,2.105,4.125,1.915,4.73,1.915
		c0.597,0,1.191,0.195,1.671,0.549L7.671,3.4c0.897,0.673,2.099,1.583,3.575,2.743c0.755,0.586,1.593,1.25,2.499,1.978
		c0.882,0.697,1.833,1.473,2.847,2.301l0.063,0.053c0.879,0.708,1.801,1.477,2.766,2.28l0.512,0.427
		c0.915,0.755,1.861,1.559,2.841,2.392l0.757,0.644c1.049,0.884,2.104,1.8,3.221,2.771l0.653,0.567
		c1.172,1.012,2.441,2.123,4.111,3.604c2.814,2.496,5.753,5.158,8.739,7.915c2.967,2.738,6.052,5.64,9.171,8.624
		c1.367,1.307,2.793,2.685,4.327,4.182c1.541-1.502,2.967-2.88,4.328-4.182c3.101-2.968,6.186-5.869,9.171-8.625
		c2.977-2.749,5.917-5.411,8.738-7.913c1.636-1.45,2.943-2.596,4.114-3.607l0.66-0.573c1.114-0.968,2.166-1.88,3.217-2.767
		l0.775-0.657c0.971-0.827,1.91-1.625,2.825-2.379l0.53-0.441c0.956-0.797,1.87-1.559,2.748-2.268l0.185-0.149
		c0.966-0.789,1.873-1.529,2.728-2.205c0.897-0.719,1.734-1.383,2.497-1.977c1.449-1.139,2.61-2.017,3.554-2.725l1.283-0.947
		c0.487-0.358,1.064-0.549,1.669-0.549c0.891,0,1.739,0.427,2.267,1.146c0.735,0.997,0.736,2.339,0.001,3.338l-0.938,1.271
		c-0.727,0.969-1.612,2.139-2.743,3.576c-0.585,0.754-1.249,1.59-1.976,2.498c-0.714,0.902-1.506,1.872-2.354,2.911
		c-0.698,0.863-1.452,1.769-2.241,2.717l-0.466,0.561c-0.762,0.924-1.575,1.88-2.417,2.87l-0.619,0.729
		c-0.882,1.046-1.796,2.099-2.764,3.214l-0.574,0.66c-1.26,1.461-2.588,2.964-3.604,4.11c-2.507,2.825-5.169,5.766-7.914,8.738
		c-2.751,2.98-5.653,6.066-8.624,9.171c-1.297,1.355-2.661,2.768-4.142,4.286c1.412,1.43,2.82,2.867,4.202,4.29
		c2.981,3.073,5.899,6.146,8.675,9.131c2.696,2.903,5.364,5.84,7.93,8.729c1.245,1.404,2.449,2.775,3.607,4.109l3.323,3.877
		l3.026,3.611l2.694,3.3l0.867,1.086c0.519,0.649,1.014,1.27,1.48,1.862c0.256,0.331,0.5,0.644,0.738,0.946
		c0.437,0.558,0.849,1.084,1.227,1.585c1.357,1.77,2.215,2.934,2.694,3.595c0.235,0.319,0.431,0.595,0.581,0.809l0.354,0.496
		c0.432,0.608,0.603,1.355,0.478,2.098c-0.126,0.742-0.533,1.391-1.147,1.827c-0.478,0.34-1.041,0.52-1.629,0.52h-0.001
		c-0.587,0-1.151-0.18-1.63-0.519l-0.513-0.364c-0.209-0.148-0.479-0.34-0.802-0.577c-0.651-0.473-1.816-1.332-3.594-2.694
		c-0.494-0.373-1.028-0.791-1.594-1.233c-0.297-0.233-0.603-0.474-0.919-0.719c-0.6-0.47-1.219-0.965-1.867-1.483l-1.069-0.854
		l-3.3-2.692l-3.614-3.026l-3.885-3.33c-1.342-1.165-2.715-2.37-4.118-3.615c-2.911-2.584-5.847-5.253-8.728-7.931
		c-2.982-2.771-6.054-5.689-9.131-8.674c-1.398-1.357-2.822-2.752-4.249-4.161c-1.414,1.397-2.838,2.791-4.248,4.161
		c-3.066,2.974-6.138,5.892-9.131,8.674c-2.892,2.688-5.829,5.356-8.728,7.931c-1.404,1.245-2.776,2.45-4.11,3.607l-3.876,3.323
		l-3.614,3.025l-3.299,2.694l-1.096,0.875c-0.645,0.517-1.261,1.009-1.852,1.472c-0.329,0.256-0.64,0.499-0.942,0.736
		c-0.56,0.438-1.088,0.852-1.589,1.23c-1.759,1.348-2.927,2.21-3.594,2.692c-0.321,0.236-0.598,0.433-0.81,0.583l-0.492,0.351
		C5.895,105.401,5.331,105.581,4.743,105.581"/>
	<path d="M102.775,0c-1.017,0-1.987,0.319-2.806,0.923l-1.27,0.937L98.685,1.87l-0.013,0.01c-0.895,0.672-2.113,1.593-3.595,2.758
		c-0.695,0.54-1.496,1.173-2.502,1.98c-0.868,0.686-1.779,1.429-2.743,2.216L89.641,8.99c-0.879,0.709-1.79,1.469-2.755,2.272
		l-0.538,0.447c-0.916,0.756-1.849,1.548-2.835,2.387l-0.777,0.66c-1.05,0.885-2.107,1.803-3.226,2.774l-0.664,0.576
		c-1.171,1.012-2.484,2.163-4.126,3.618c-2.832,2.511-5.781,5.184-8.768,7.94c-2.992,2.763-6.086,5.673-9.195,8.647
		c-0.963,0.921-1.959,1.881-3.004,2.895c-1.043-1.011-2.038-1.97-3.004-2.895c-3.127-2.993-6.221-5.901-9.196-8.647
		c-2.994-2.765-5.943-5.437-8.766-7.939c-1.679-1.487-2.954-2.605-4.134-3.624l-0.646-0.562c-1.123-0.976-2.182-1.896-3.249-2.793
		l-0.741-0.631c-0.995-0.847-1.935-1.646-2.873-2.419l-0.498-0.414c-0.974-0.813-1.894-1.578-2.797-2.308l-0.046-0.038
		c-1.01-0.823-1.964-1.603-2.868-2.318c-0.989-0.792-1.813-1.445-2.523-1.996C10.938,3.466,9.724,2.548,8.834,1.88L8.821,1.869
		L8.807,1.858L7.538,0.924C6.729,0.328,5.733,0.001,4.729,0.001c-1.016,0-1.986,0.318-2.804,0.922
		c-1.018,0.749-1.683,1.85-1.871,3.101c-0.189,1.249,0.12,2.496,0.87,3.514L1.86,8.808L1.87,8.82l0.009,0.013
		c0.657,0.876,1.565,2.076,2.759,3.596c0.537,0.692,1.173,1.495,1.988,2.512c0.694,0.877,1.462,1.819,2.276,2.816l0.088,0.108
		c0.704,0.871,1.457,1.774,2.253,2.73l0.466,0.562c0.769,0.934,1.577,1.883,2.432,2.888l0.616,0.725
		c0.892,1.06,1.817,2.123,2.796,3.25l0.556,0.641c1.006,1.166,2.124,2.441,3.617,4.126c2.516,2.836,5.187,5.784,7.94,8.767
		c2.759,2.989,5.668,6.083,8.648,9.197c0.905,0.945,1.849,1.924,2.846,2.953c-0.979,0.995-1.946,1.985-2.896,2.964
		c-2.98,3.072-5.908,6.153-8.703,9.162c-2.698,2.902-5.376,5.85-7.96,8.76c-1.216,1.37-2.435,2.758-3.622,4.127
		c-1.16,1.353-2.268,2.645-3.331,3.885l-0.014,0.018l-0.014,0.017l-1.811,2.162l-1.2,1.433l-0.015,0.019l-0.015,0.018l-1.188,1.455
		L8.9,89.547l-0.016,0.02l-0.016,0.02c-0.298,0.376-0.591,0.742-0.877,1.099c-0.512,0.641-1.002,1.253-1.462,1.84
		c-0.267,0.344-0.514,0.66-0.755,0.968c-0.431,0.551-0.839,1.071-1.224,1.581c-1.09,1.423-2.029,2.677-2.717,3.626
		c-0.248,0.338-0.448,0.619-0.602,0.837l-0.108,0.151l-0.24,0.337c-1.164,1.644-1.162,3.846,0.003,5.482
		c0.886,1.245,2.327,1.989,3.857,1.989c0.987,0,1.935-0.303,2.741-0.875l0.331-0.236l0.155-0.11c0.217-0.153,0.5-0.354,0.839-0.604
		c0.678-0.491,1.854-1.359,3.626-2.717c0.516-0.39,1.043-0.804,1.602-1.24c0.3-0.235,0.609-0.478,0.929-0.726
		c0.609-0.477,1.231-0.975,1.882-1.495c0.348-0.279,0.706-0.565,1.073-0.857l0.018-0.014l0.018-0.016l2.667-2.178l0.615-0.502
		l0.018-0.014l0.018-0.016l1.531-1.282l2.066-1.729l0.017-0.014l0.017-0.016l0.989-0.848l2.878-2.467
		c1.347-1.169,2.735-2.387,4.143-3.637c2.911-2.585,5.858-5.263,8.761-7.96c3.004-2.793,6.086-5.72,9.161-8.702
		c0.968-0.94,1.942-1.893,2.915-2.849c0.978,0.961,1.952,1.913,2.914,2.848c3.088,2.993,6.17,5.922,9.162,8.702
		c2.892,2.688,5.839,5.366,8.759,7.959c1.39,1.233,2.777,2.451,4.127,3.623l0.311,0.267l3.576,3.064l0.016,0.015l0.017,0.014
		l1.333,1.116l2.264,1.896l0.017,0.016l0.018,0.014l3.282,2.68l0.018,0.016l0.018,0.014c0.365,0.29,0.72,0.574,1.066,0.853
		c0.653,0.521,1.278,1.021,1.876,1.489c0.326,0.253,0.63,0.492,0.925,0.724c0.565,0.441,1.099,0.86,1.621,1.254
		c1.777,1.361,2.949,2.227,3.623,2.716c0.329,0.241,0.605,0.437,0.82,0.59l0.169,0.12l0.342,0.243
		c0.807,0.57,1.754,0.872,2.739,0.872c0.988,0,1.936-0.304,2.742-0.876c1.027-0.73,1.711-1.82,1.922-3.067
		c0.211-1.246-0.076-2.5-0.809-3.531l-0.238-0.334l-0.11-0.155c-0.154-0.218-0.354-0.498-0.602-0.837
		c-0.488-0.673-1.352-1.844-2.715-3.623c-0.39-0.517-0.804-1.044-1.241-1.603c-0.235-0.3-0.478-0.61-0.727-0.93
		c-0.479-0.612-0.978-1.237-1.501-1.892c-0.277-0.346-0.561-0.699-0.85-1.063l-0.015-0.019l-0.016-0.019l-2.278-2.791l-0.4-0.49
		l-0.015-0.019l-0.016-0.02l-3.011-3.594l-0.014-0.017l-0.014-0.018l-1.236-1.44l-2.08-2.428c-1.181-1.361-2.4-2.75-3.636-4.143
		c-2.576-2.9-5.253-5.848-7.959-8.761c-2.786-2.996-5.714-6.079-8.704-9.161c-0.956-0.984-1.924-1.976-2.897-2.965
		c0.993-1.024,1.936-2.003,2.846-2.953c2.979-3.114,5.889-6.208,8.648-9.197c2.753-2.982,5.424-5.931,7.939-8.766
		c1.02-1.151,2.353-2.66,3.625-4.136l0.568-0.653c0.972-1.119,1.891-2.176,2.786-3.239l0.607-0.714
		c0.855-1.005,1.663-1.954,2.443-2.902l0.454-0.545c0.796-0.957,1.549-1.859,2.265-2.747c0.832-1.02,1.63-1.996,2.367-2.927
		c0.797-0.994,1.431-1.795,1.98-2.502c1.139-1.45,2.03-2.626,2.751-3.587l0.011-0.015l0.01-0.014l0.936-1.27
		c1.238-1.684,1.236-3.938,0.001-5.613C105.695,0.719,104.271,0,102.775,0 M102.775,3.83c0.276,0,0.549,0.127,0.725,0.365
		c0.24,0.325,0.227,0.76,0,1.068c0,0-0.326,0.442-0.936,1.271c-0.618,0.821-1.525,2.024-2.708,3.528
		c-0.586,0.756-1.244,1.585-1.964,2.484c-0.716,0.903-1.502,1.867-2.344,2.896c-0.836,1.035-1.743,2.118-2.696,3.265
		c-0.948,1.149-1.966,2.339-3.023,3.584c-1.053,1.25-2.171,2.528-3.324,3.857c-1.15,1.333-2.352,2.697-3.591,4.097
		c-2.481,2.796-5.124,5.716-7.888,8.709c-2.763,2.993-5.645,6.058-8.601,9.146c-1.79,1.87-3.61,3.745-5.445,5.62
		c1.859,1.871,3.701,3.746,5.514,5.613c2.976,3.067,5.874,6.118,8.647,9.101c2.771,2.984,5.418,5.901,7.9,8.696
		c1.241,1.398,2.44,2.764,3.594,4.094c1.145,1.336,2.252,2.627,3.315,3.867c1.049,1.253,2.055,2.454,3.011,3.596
		c0.943,1.155,1.838,2.251,2.679,3.281c0.829,1.042,1.612,2.01,2.323,2.917c0.707,0.912,1.367,1.739,1.944,2.504
		c1.166,1.522,2.067,2.73,2.672,3.565c0.305,0.414,0.532,0.738,0.686,0.956c0.155,0.217,0.235,0.33,0.235,0.33
		c0.289,0.405,0.193,0.969-0.213,1.258c-0.158,0.111-0.34,0.166-0.521,0.166c-0.186,0-0.37-0.058-0.525-0.166
		c0,0-0.112-0.08-0.329-0.235c-0.216-0.154-0.542-0.382-0.956-0.686c-0.834-0.605-2.043-1.506-3.564-2.672
		c-0.766-0.577-1.593-1.237-2.504-1.944c-0.908-0.711-1.876-1.495-2.918-2.323c-1.03-0.841-2.126-1.736-3.281-2.679
		c-1.142-0.956-2.343-1.962-3.596-3.011c-1.24-1.063-2.531-2.17-3.868-3.316c-1.328-1.153-2.695-2.352-4.093-3.593
		c-2.794-2.482-5.712-5.128-8.696-7.901c-2.983-2.772-6.033-5.67-9.101-8.646c-1.857-1.804-3.721-3.636-5.582-5.483
		c-1.86,1.848-3.725,3.68-5.582,5.483c-3.068,2.976-6.118,5.873-9.101,8.646c-2.984,2.773-5.901,5.419-8.696,7.901
		c-1.398,1.241-2.764,2.439-4.093,3.593c-1.337,1.146-2.628,2.253-3.867,3.316c-1.254,1.049-2.455,2.055-3.597,3.011
		c-1.156,0.942-2.251,1.838-3.281,2.679c-1.042,0.828-2.01,1.612-2.917,2.323c-0.912,0.707-1.739,1.367-2.504,1.944
		c-1.521,1.166-2.731,2.066-3.565,2.672c-0.414,0.304-0.739,0.531-0.956,0.686c-0.217,0.155-0.33,0.235-0.33,0.235
		c-0.158,0.111-0.341,0.167-0.521,0.167c-0.283,0-0.56-0.132-0.737-0.38c-0.228-0.321-0.215-0.741,0-1.045
		c0,0,0.08-0.113,0.235-0.33c0.154-0.218,0.381-0.542,0.686-0.956c0.605-0.835,1.507-2.043,2.672-3.565
		c0.577-0.765,1.238-1.592,1.944-2.504c0.711-0.907,1.494-1.875,2.323-2.917c0.841-1.03,1.736-2.126,2.679-3.281
		c0.956-1.142,1.962-2.343,3.011-3.596c1.063-1.24,2.17-2.531,3.316-3.867c1.153-1.33,2.352-2.695,3.593-4.094
		c2.482-2.795,5.128-5.712,7.901-8.696c2.773-2.982,5.67-6.033,8.646-9.101c1.813-1.867,3.655-3.742,5.514-5.613
		c-1.835-1.875-3.655-3.75-5.445-5.62c-2.956-3.089-5.838-6.153-8.601-9.146c-2.763-2.993-5.407-5.913-7.888-8.709
		c-1.24-1.399-2.441-2.764-3.591-4.097c-1.153-1.329-2.271-2.607-3.324-3.857c-1.057-1.245-2.075-2.435-3.023-3.584
		c-0.953-1.146-1.861-2.229-2.697-3.265c-0.84-1.029-1.627-1.993-2.343-2.896c-0.719-0.899-1.377-1.729-1.964-2.484
		C6.468,8.559,5.559,7.355,4.943,6.534C4.333,5.706,4.006,5.264,4.006,5.264c-0.295-0.399-0.21-0.963,0.191-1.258
		C4.357,3.887,4.544,3.83,4.729,3.83c0.19,0,0.379,0.06,0.535,0.176c0,0,0.442,0.326,1.271,0.936
		c0.821,0.617,2.024,1.525,3.528,2.707c0.756,0.587,1.586,1.245,2.484,1.967c0.903,0.715,1.867,1.502,2.897,2.342
		c1.035,0.836,2.119,1.743,3.264,2.696c1.15,0.948,2.339,1.967,3.584,3.023c1.25,1.053,2.529,2.171,3.858,3.324
		c1.332,1.149,2.697,2.352,4.096,3.591c2.796,2.48,5.716,5.124,8.709,7.888c2.993,2.764,6.058,5.646,9.147,8.602
		c1.881,1.799,3.767,3.63,5.651,5.476c1.884-1.846,3.771-3.677,5.652-5.476c3.087-2.955,6.153-5.838,9.146-8.602
		c2.992-2.764,5.913-5.407,8.709-7.888c1.399-1.239,2.764-2.441,4.095-3.591c1.33-1.153,2.61-2.271,3.859-3.324
		c1.246-1.057,2.434-2.075,3.584-3.023c1.146-0.953,2.229-1.86,3.264-2.696c1.03-0.84,1.993-1.627,2.897-2.342
		c0.899-0.722,1.728-1.38,2.484-1.967c1.504-1.182,2.707-2.09,3.529-2.707c0.828-0.609,1.27-0.936,1.27-0.936
		C102.402,3.887,102.589,3.83,102.775,3.83"/>
</g>
</svg>
