<?xml version="1.0" encoding="utf-8"?>
<!-- Generator: Adobe Illustrator 16.0.0, SVG Export Plug-In . SVG Version: 6.00 Build 0)  -->
<!DOCTYPE svg PUBLIC "-//W3C//DTD SVG 1.1//EN" "http://www.w3.org/Graphics/SVG/1.1/DTD/svg11.dtd">
<svg version="1.1" id="Calque_1" xmlns="http://www.w3.org/2000/svg" xmlns:xlink="http://www.w3.org/1999/xlink" x="0px" y="0px"
	 width="60.223px" height="51.897px" viewBox="0 0 60.223 51.897" enable-background="new 0 0 60.223 51.897" xml:space="preserve">
<g>
	<path fill="#FFFFFF" d="M30.111,9.22C17.663,9.22,6.932,16.068,2,25.948c4.932,9.881,15.663,16.729,28.111,16.729
		c12.447,0,23.18-6.849,28.111-16.729C53.291,16.068,42.559,9.22,30.111,9.22"/>
	<path fill="none" stroke="#000000" stroke-width="4" stroke-linejoin="round" stroke-miterlimit="10" d="M30.111,9.22
		C17.663,9.22,6.932,16.068,2,25.948c4.932,9.881,15.663,16.729,28.111,16.729c12.447,0,23.18-6.849,28.111-16.729
		C53.291,16.068,42.559,9.22,30.111,9.22z"/>
	<path fill="#564533" d="M46.293,25.949c0,9.238-7.245,16.729-16.182,16.729S13.93,35.188,13.93,25.949
		c0-9.239,7.245-16.729,16.182-16.729S46.293,16.71,46.293,25.949"/>
	
		<ellipse fill="none" stroke="#000000" stroke-width="4" stroke-linejoin="round" stroke-miterlimit="10" cx="30.111" cy="25.949" rx="16.182" ry="16.729"/>
	<path fill="#FFFFFF" d="M34.749,25.949c0,2.676-2.076,4.845-4.638,4.845s-4.639-2.169-4.639-4.845c0-2.677,2.077-4.846,4.639-4.846
		S34.749,23.272,34.749,25.949"/>
	
		<ellipse fill="none" stroke="#000000" stroke-width="4" stroke-linejoin="round" stroke-miterlimit="10" cx="30.111" cy="25.949" rx="4.638" ry="4.845"/>
	<path fill="#AB2E23" d="M53.46,44.826l-0.271-0.371c-0.24-0.332-0.537-0.744-0.897-1.216c-0.868-1.15-2.337-3.038-4.365-5.448
		c-0.926-1.099-1.94-2.275-3.028-3.506c-1.095-1.23-2.255-2.513-3.474-3.821c-1.222-1.309-2.489-2.653-3.804-3.993
		c-0.17-0.175-0.342-0.352-0.516-0.528c0.174-0.179,0.348-0.357,0.52-0.535c0.546-0.552,1.092-1.128,1.633-1.698l0.292-0.307
		c0.635-0.664,1.263-1.329,1.871-1.992c2.286-2.459,4.532-4.993,6.491-7.317c2.031-2.409,3.502-4.289,4.377-5.442
		c0.346-0.451,0.64-0.854,0.878-1.183l0.286-0.389l0.426-0.6c0.695-0.983,0.693-2.302-0.001-3.28
		c-0.899-1.268-2.675-1.58-3.956-0.697l-0.57,0.391l-0.445,0.316c-0.33,0.234-0.734,0.521-1.196,0.864
		c-1.646,1.21-3.608,2.742-5.519,4.305c-2.357,1.926-4.93,4.14-7.437,6.399c-0.664,0.591-1.339,1.209-2.017,1.839l-0.311,0.285
		c-0.578,0.531-1.161,1.069-1.736,1.621c-0.192,0.18-0.386,0.361-0.58,0.545c-0.197-0.188-0.396-0.374-0.594-0.56
		c-0.56-0.537-1.143-1.074-1.721-1.605l-0.314-0.29c-0.675-0.626-1.35-1.244-2.021-1.843c-2.499-2.253-5.071-4.466-7.43-6.393
		c-1.908-1.562-3.871-3.093-5.526-4.311c-0.452-0.337-0.856-0.623-1.187-0.856l-0.406-0.289l-0.61-0.42
		c-0.974-0.667-2.276-0.667-3.247,0C6.422,2.938,6,3.592,5.867,4.346C5.732,5.099,5.904,5.857,6.347,6.48l0.397,0.562l0.313,0.426
		C7.296,7.796,7.589,8.199,7.943,8.66c0.867,1.143,2.336,3.023,4.371,5.434c1.957,2.323,4.203,4.857,6.498,7.325
		c0.6,0.654,1.227,1.319,1.866,1.988l0.287,0.302c0.542,0.57,1.088,1.146,1.649,1.714c0.166,0.172,0.334,0.345,0.504,0.52
		c-0.178,0.18-0.354,0.36-0.528,0.542c-1.304,1.326-2.569,2.671-3.79,3.978c-1.221,1.311-2.38,2.593-3.471,3.819
		c-1.092,1.234-2.106,2.411-3.031,3.509c-2.031,2.412-3.499,4.299-4.373,5.457c-0.354,0.464-0.65,0.876-0.893,1.208l-0.269,0.371
		l-0.423,0.599c-0.688,0.98-0.686,2.29,0.001,3.266c0.894,1.27,2.668,1.59,3.954,0.711l0.57-0.391l0.42-0.295
		c0.337-0.235,0.753-0.527,1.229-0.88c1.167-0.854,3.082-2.299,5.53-4.298c1.116-0.913,2.312-1.912,3.56-2.984
		c1.25-1.076,2.553-2.219,3.881-3.42c1.328-1.203,2.692-2.451,4.053-3.746c0.189-0.178,0.382-0.358,0.572-0.541
		c0.196,0.186,0.392,0.37,0.588,0.554c1.346,1.282,2.711,2.53,4.037,3.732c1.33,1.202,2.633,2.345,3.877,3.417
		c1.254,1.076,2.449,2.075,3.563,2.987c2.45,2,4.365,3.445,5.54,4.305c0.468,0.347,0.884,0.639,1.221,0.874l0.381,0.271l0.608,0.415
		c0.972,0.66,2.269,0.659,3.233,0c0.634-0.434,1.058-1.086,1.193-1.84c0.137-0.753-0.031-1.512-0.472-2.137l-0.396-0.562
		L53.46,44.826z"/>
	<path fill="none" stroke="#000000" stroke-width="4" stroke-linejoin="round" stroke-miterlimit="10" d="M53.46,44.826
		l-0.271-0.371c-0.24-0.332-0.537-0.744-0.897-1.216c-0.868-1.15-2.337-3.038-4.365-5.448c-0.926-1.099-1.94-2.275-3.028-3.506
		c-1.095-1.23-2.255-2.513-3.474-3.821c-1.222-1.309-2.489-2.653-3.804-3.993c-0.17-0.175-0.342-0.352-0.516-0.528
		c0.174-0.179,0.348-0.357,0.52-0.535c0.546-0.552,1.092-1.128,1.633-1.698l0.292-0.307c0.635-0.664,1.263-1.329,1.871-1.992
		c2.286-2.459,4.532-4.993,6.491-7.317c2.031-2.409,3.502-4.289,4.377-5.442c0.346-0.451,0.64-0.854,0.878-1.183l0.286-0.389
		l0.426-0.6c0.695-0.983,0.693-2.302-0.001-3.28c-0.899-1.268-2.675-1.58-3.956-0.697l-0.57,0.391l-0.445,0.316
		c-0.33,0.234-0.734,0.521-1.196,0.864c-1.646,1.21-3.608,2.742-5.519,4.305c-2.357,1.926-4.93,4.14-7.437,6.399
		c-0.664,0.591-1.339,1.209-2.017,1.839l-0.311,0.285c-0.578,0.531-1.161,1.069-1.736,1.621c-0.192,0.18-0.386,0.361-0.58,0.545
		c-0.197-0.188-0.396-0.374-0.594-0.56c-0.56-0.537-1.143-1.074-1.721-1.605l-0.314-0.29c-0.675-0.626-1.35-1.244-2.021-1.843
		c-2.499-2.253-5.071-4.466-7.43-6.393c-1.908-1.562-3.871-3.093-5.526-4.311c-0.452-0.337-0.856-0.623-1.187-0.856l-0.406-0.289
		l-0.61-0.42c-0.974-0.667-2.276-0.667-3.247,0C6.422,2.938,6,3.592,5.867,4.346C5.732,5.099,5.904,5.857,6.347,6.48l0.397,0.562
		l0.313,0.426C7.296,7.796,7.589,8.199,7.943,8.66c0.867,1.143,2.336,3.023,4.371,5.434c1.957,2.323,4.203,4.857,6.498,7.325
		c0.6,0.654,1.227,1.319,1.866,1.988l0.287,0.302c0.542,0.57,1.088,1.146,1.649,1.714c0.166,0.172,0.334,0.345,0.504,0.52
		c-0.178,0.18-0.354,0.36-0.528,0.542c-1.304,1.326-2.569,2.671-3.79,3.978c-1.221,1.311-2.38,2.593-3.471,3.819
		c-1.092,1.234-2.106,2.411-3.031,3.509c-2.031,2.412-3.499,4.299-4.373,5.457c-0.354,0.464-0.65,0.876-0.893,1.208l-0.269,0.371
		l-0.423,0.599c-0.688,0.98-0.686,2.29,0.001,3.266c0.894,1.27,2.668,1.59,3.954,0.711l0.57-0.391l0.42-0.295
		c0.337-0.235,0.753-0.527,1.229-0.88c1.167-0.854,3.082-2.299,5.53-4.298c1.116-0.913,2.312-1.912,3.56-2.984
		c1.25-1.076,2.553-2.219,3.881-3.42c1.328-1.203,2.692-2.451,4.053-3.746c0.189-0.178,0.382-0.358,0.572-0.541
		c0.196,0.186,0.392,0.37,0.588,0.554c1.346,1.282,2.711,2.53,4.037,3.732c1.33,1.202,2.633,2.345,3.877,3.417
		c1.254,1.076,2.449,2.075,3.563,2.987c2.45,2,4.365,3.445,5.54,4.305c0.468,0.347,0.884,0.639,1.221,0.874l0.381,0.271l0.608,0.415
		c0.972,0.66,2.269,0.659,3.233,0c0.634-0.434,1.058-1.086,1.193-1.84c0.137-0.753-0.031-1.512-0.472-2.137l-0.396-0.562
		L53.46,44.826z"/>
</g>
</svg>
