<?xml version="1.0" encoding="utf-8"?>
<!-- Generator: Adobe Illustrator 16.0.0, SVG Export Plug-In . SVG Version: 6.00 Build 0)  -->
<!DOCTYPE svg PUBLIC "-//W3C//DTD SVG 1.1//EN" "http://www.w3.org/Graphics/SVG/1.1/DTD/svg11.dtd">
<svg version="1.1" id="Calque_1" xmlns="http://www.w3.org/2000/svg" xmlns:xlink="http://www.w3.org/1999/xlink" x="0px" y="0px"
	 width="60.223px" height="37.459px" viewBox="0 0 60.223 37.459" enable-background="new 0 0 60.223 37.459" xml:space="preserve">
<g>
	<path fill="#FFFFFF" d="M30.111,2C17.663,2,6.932,8.85,2,18.729c4.932,9.88,15.663,16.729,28.111,16.729
		c12.447,0,23.18-6.849,28.111-16.729C53.291,8.85,42.559,2,30.111,2"/>
	<path fill="none" stroke="#000000" stroke-width="4" stroke-linejoin="round" stroke-miterlimit="10" d="M30.111,2
		C17.663,2,6.932,8.85,2,18.729c4.932,9.88,15.663,16.729,28.111,16.729c12.447,0,23.18-6.849,28.111-16.729
		C53.291,8.85,42.559,2,30.111,2z"/>
	<path fill="#564533" d="M46.293,18.729c0,9.239-7.245,16.729-16.182,16.729S13.93,27.969,13.93,18.729S21.175,2.001,30.111,2.001
		S46.293,9.49,46.293,18.729"/>
	
		<ellipse fill="none" stroke="#000000" stroke-width="4" stroke-linejoin="round" stroke-miterlimit="10" cx="30.111" cy="18.729" rx="16.182" ry="16.729"/>
	<path fill="#151515" d="M34.749,18.729c0,2.676-2.075,4.845-4.638,4.845c-2.561,0-4.639-2.169-4.639-4.845s2.078-4.845,4.639-4.845
		C32.674,13.885,34.749,16.054,34.749,18.729"/>
	
		<ellipse fill="none" stroke="#000000" stroke-width="4" stroke-linejoin="round" stroke-miterlimit="10" cx="30.111" cy="18.729" rx="4.638" ry="4.845"/>
</g>
</svg>
