<?xml version="1.0" encoding="UTF-8" standalone="no"?>
<!-- Generator: Adobe Illustrator 16.0.0, SVG Export Plug-In . SVG Version: 6.00 Build 0)  -->

<svg
   xmlns:dc="http://purl.org/dc/elements/1.1/"
   xmlns:cc="http://creativecommons.org/ns#"
   xmlns:rdf="http://www.w3.org/1999/02/22-rdf-syntax-ns#"
   xmlns:svg="http://www.w3.org/2000/svg"
   xmlns="http://www.w3.org/2000/svg"
   xmlns:sodipodi="http://sodipodi.sourceforge.net/DTD/sodipodi-0.dtd"
   xmlns:inkscape="http://www.inkscape.org/namespaces/inkscape"
   version="1.1"
   id="Calque_1"
   x="0px"
   y="0px"
   width="91.396004"
   height="62.669998"
   viewBox="0 0 91.396 62.67"
   enable-background="new 0 0 91.396 121.667"
   xml:space="preserve"
   inkscape:version="0.48.4 r9939"
   sodipodi:docname="FlecheBulle.svg"><metadata
     id="metadata17"><rdf:RDF><cc:Work
         rdf:about=""><dc:format>image/svg+xml</dc:format><dc:type
           rdf:resource="http://purl.org/dc/dcmitype/StillImage" /></cc:Work></rdf:RDF></metadata><defs
     id="defs15" /><sodipodi:namedview
     pagecolor="#ffffff"
     bordercolor="#666666"
     borderopacity="1"
     objecttolerance="10"
     gridtolerance="10"
     guidetolerance="10"
     inkscape:pageopacity="0"
     inkscape:pageshadow="2"
     inkscape:window-width="640"
     inkscape:window-height="480"
     id="namedview13"
     showgrid="false"
     inkscape:zoom="1.9397207"
     inkscape:cx="45.698002"
     inkscape:cy="60.8335"
     inkscape:window-x="0"
     inkscape:window-y="24"
     inkscape:window-maximized="0"
     inkscape:current-layer="Calque_1" /><g
     id="g3"
     transform="translate(-0.51553814,-28.580136)"><g
       id="g5"><path
         d="m 37.583,91.593 c -0.346,0 -0.69,-0.089 -1,-0.268 -0.619,-0.357 -1,-1.018 -1,-1.732 V 32.074 c 0,-0.714 0.381,-1.375 1,-1.732 0.31,-0.179 0.654,-0.268 1,-0.268 0.346,0 0.69,0.089 1,0.268 l 49.813,28.759 c 0.619,0.357 1,1.018 1,1.732 0,0.714 -0.381,1.375 -1,1.732 l -49.813,28.76 c -0.31,0.179 -0.654,0.268 -1,0.268 z"
         id="path7"
         inkscape:connector-curvature="0"
         style="fill:#e5e2d3" /><path
         d="M 37.583,32.074 87.396,60.833 37.583,89.593 V 32.074 m 0,-4 c -0.69,0 -1.381,0.179 -2,0.536 -1.237,0.714 -2,2.035 -2,3.464 v 57.519 c 0,1.429 0.763,2.75 2,3.464 0.619,0.357 1.31,0.536 2,0.536 0.69,0 1.381,-0.179 2,-0.536 l 49.813,-28.76 c 1.237,-0.714 2,-2.035 2,-3.464 0,-1.429 -0.763,-2.75 -2,-3.464 L 39.583,28.61 c -0.619,-0.357 -1.31,-0.536 -2,-0.536 l 0,0 z"
         id="path9"
         inkscape:connector-curvature="0"
         style="fill:#231f20" /></g><rect
       width="42.584"
       height="121.667"
       id="rect11"
       x="0"
       y="0"
       style="fill:#e5e2d3" /></g></svg>