<?xml version="1.0" encoding="utf-8"?>
<!-- Generator: Adobe Illustrator 16.0.0, SVG Export Plug-In . SVG Version: 6.00 Build 0)  -->
<!DOCTYPE svg PUBLIC "-//W3C//DTD SVG 1.1//EN" "http://www.w3.org/Graphics/SVG/1.1/DTD/svg11.dtd">
<svg version="1.1" id="Calque_1" xmlns="http://www.w3.org/2000/svg" xmlns:xlink="http://www.w3.org/1999/xlink" x="0px" y="0px"
	 width="290.036px" height="119.39px" viewBox="0 0 290.036 119.39" enable-background="new 0 0 290.036 119.39"
	 xml:space="preserve">
<g>
	<g>
		<path d="M12.24,27.47c0.722,1.32,1.554,2.95,2.497,4.89c0.942,1.941,1.925,4.041,2.948,6.301c1.022,2.26,2.035,4.57,3.038,6.93
			c1.002,2.36,1.945,4.581,2.828,6.66c0.882-2.079,1.825-4.3,2.828-6.66c1.002-2.359,2.015-4.67,3.038-6.93
			c1.022-2.26,2.005-4.359,2.948-6.301c0.942-1.939,1.775-3.569,2.497-4.89h8.52c0.399,2.76,0.77,5.85,1.11,9.271
			c0.339,3.42,0.64,6.98,0.9,10.68c0.259,3.7,0.5,7.41,0.72,11.13c0.219,3.72,0.41,7.221,0.57,10.5h-9.12
			c-0.12-4.04-0.28-8.439-0.48-13.2c-0.201-4.76-0.501-9.56-0.9-14.399c-0.723,1.68-1.525,3.54-2.407,5.58
			c-0.883,2.039-1.756,4.079-2.619,6.119c-0.862,2.04-1.695,3.99-2.498,5.851c-0.802,1.859-1.485,3.45-2.046,4.77h-6.54
			c-0.563-1.319-1.244-2.91-2.046-4.77c-0.803-1.86-1.636-3.811-2.499-5.851s-1.735-4.08-2.618-6.119
			c-0.883-2.04-1.686-3.9-2.407-5.58c-0.4,4.84-0.7,9.64-0.9,14.399c-0.201,4.761-0.36,9.16-0.48,13.2H0
			c0.159-3.279,0.35-6.78,0.57-10.5c0.219-3.72,0.459-7.43,0.72-11.13c0.26-3.699,0.56-7.26,0.9-10.68
			c0.339-3.421,0.709-6.511,1.11-9.271H12.24z"/>
		<path d="M55.019,69.05V27.47h28.08v7.86h-18.72v8.16h16.62v7.68h-16.62v10.02h20.1v7.86H55.019z M76.619,16.55l-9.87,8.34
			l-4.11-3.66l8.49-9.72L76.619,16.55z"/>
		<path d="M102.418,27.47c0.722,1.32,1.554,2.95,2.497,4.89c0.942,1.941,1.925,4.041,2.948,6.301c1.022,2.26,2.035,4.57,3.038,6.93
			c1.002,2.36,1.945,4.581,2.828,6.66c0.882-2.079,1.825-4.3,2.828-6.66c1.002-2.359,2.015-4.67,3.038-6.93
			c1.022-2.26,2.005-4.359,2.948-6.301c0.942-1.939,1.775-3.569,2.497-4.89h8.52c0.4,2.76,0.77,5.85,1.11,9.271
			c0.339,3.42,0.64,6.98,0.9,10.68c0.259,3.7,0.499,7.41,0.72,11.13c0.219,3.72,0.41,7.221,0.57,10.5h-9.12
			c-0.12-4.04-0.28-8.439-0.479-13.2c-0.201-4.76-0.502-9.56-0.9-14.399c-0.723,1.68-1.525,3.54-2.408,5.58
			c-0.883,2.039-1.755,4.079-2.618,6.119c-0.862,2.04-1.695,3.99-2.498,5.851c-0.802,1.859-1.485,3.45-2.046,4.77h-6.54
			c-0.563-1.319-1.244-2.91-2.046-4.77c-0.803-1.86-1.636-3.811-2.499-5.851s-1.735-4.08-2.618-6.119
			c-0.883-2.04-1.686-3.9-2.407-5.58c-0.4,4.84-0.7,9.64-0.9,14.399c-0.201,4.761-0.36,9.16-0.48,13.2h-9.12
			c0.159-3.279,0.35-6.78,0.57-10.5c0.219-3.72,0.459-7.43,0.72-11.13c0.26-3.699,0.56-7.26,0.9-10.68
			c0.339-3.421,0.709-6.511,1.11-9.271H102.418z"/>
		<path d="M58.22,97.729c0,3.601-0.561,6.741-1.68,9.42c-1.12,2.681-2.71,4.9-4.77,6.66c-2.061,1.761-4.57,3.081-7.53,3.96
			c-2.961,0.88-6.281,1.32-9.96,1.32c-1.68,0-3.64-0.07-5.88-0.21c-2.241-0.141-4.44-0.43-6.6-0.87v-40.5
			c2.16-0.399,4.41-0.669,6.75-0.81c2.34-0.14,4.35-0.21,6.03-0.21c3.56,0,6.789,0.399,9.69,1.199c2.9,0.801,5.39,2.061,7.47,3.78
			c2.079,1.721,3.68,3.921,4.8,6.6C57.659,90.75,58.22,93.971,58.22,97.729z M31.16,110.93c0.439,0.04,0.95,0.07,1.53,0.09
			c0.58,0.021,1.27,0.03,2.07,0.03c4.68,0,8.15-1.18,10.41-3.54c2.259-2.359,3.39-5.619,3.39-9.78c0-4.359-1.08-7.659-3.24-9.899
			c-2.16-2.24-5.58-3.36-10.26-3.36c-0.64,0-1.3,0.011-1.98,0.03c-0.681,0.021-1.32,0.07-1.92,0.149V110.93z"/>
		<path d="M63.02,118.55V76.97H91.1v7.86H72.38v8.16H89v7.68H72.38v10.02h20.1v7.86H63.02z"/>
		<path d="M124.258,76.49c6.2,0,10.96,1.09,14.28,3.27c3.32,2.181,4.98,5.751,4.98,10.71c0,5.001-1.681,8.61-5.041,10.83
			c-3.359,2.22-8.16,3.33-14.399,3.33h-2.94v13.92h-9.36v-40.98c2.04-0.398,4.2-0.68,6.48-0.84
			C120.539,76.57,122.538,76.49,124.258,76.49z M124.859,84.47c-0.682,0-1.351,0.021-2.01,0.061c-0.66,0.04-1.23,0.08-1.71,0.119v12
			h2.94c3.239,0,5.679-0.439,7.319-1.319s2.461-2.521,2.461-4.92c0-1.16-0.211-2.12-0.631-2.88s-1.02-1.37-1.799-1.83
			c-0.781-0.46-1.731-0.78-2.851-0.96C127.458,84.56,126.218,84.47,124.859,84.47z"/>
		<path d="M202.079,111.41c1.319,0,2.409-0.11,3.271-0.33c0.859-0.22,1.549-0.52,2.069-0.9c0.52-0.38,0.88-0.829,1.08-1.35
			c0.2-0.52,0.3-1.1,0.3-1.74c0-1.359-0.641-2.49-1.92-3.39c-1.281-0.9-3.48-1.87-6.6-2.91c-1.361-0.48-2.721-1.029-4.08-1.65
			c-1.36-0.619-2.58-1.399-3.66-2.34c-1.08-0.939-1.961-2.079-2.641-3.42c-0.68-1.34-1.02-2.97-1.02-4.89
			c0-1.921,0.359-3.65,1.08-5.19c0.721-1.539,1.74-2.85,3.061-3.93c1.319-1.08,2.919-1.91,4.799-2.49c1.881-0.579,4-0.87,6.361-0.87
			c2.799,0,5.219,0.3,7.26,0.9c2.039,0.6,3.72,1.26,5.039,1.979l-2.699,7.38c-1.161-0.6-2.451-1.13-3.87-1.59
			c-1.421-0.459-3.13-0.689-5.13-0.689c-2.24,0-3.851,0.31-4.83,0.93c-0.98,0.62-1.471,1.57-1.471,2.85
			c0,0.761,0.181,1.401,0.541,1.92c0.359,0.521,0.869,0.99,1.529,1.41s1.42,0.801,2.28,1.141c0.859,0.34,1.81,0.689,2.851,1.05
			c2.159,0.801,4.039,1.59,5.639,2.37c1.6,0.779,2.93,1.69,3.99,2.729c1.06,1.041,1.85,2.261,2.371,3.66
			c0.519,1.4,0.779,3.101,0.779,5.1c0,3.881-1.36,6.891-4.08,9.03c-2.721,2.141-6.82,3.21-12.3,3.21c-1.841,0-3.501-0.11-4.979-0.33
			c-1.48-0.22-2.791-0.49-3.931-0.81c-1.14-0.32-2.12-0.66-2.94-1.021c-0.82-0.359-1.51-0.699-2.069-1.02l2.64-7.44
			c1.24,0.681,2.77,1.29,4.59,1.83S199.439,111.41,202.079,111.41z"/>
		<path d="M236.998,111.41c1.32,0,2.409-0.11,3.27-0.33c0.859-0.22,1.55-0.52,2.07-0.9c0.52-0.38,0.879-0.829,1.08-1.35
			c0.199-0.52,0.3-1.1,0.3-1.74c0-1.359-0.64-2.49-1.92-3.39c-1.28-0.9-3.479-1.87-6.601-2.91c-1.359-0.48-2.721-1.029-4.08-1.65
			c-1.359-0.619-2.579-1.399-3.659-2.34c-1.08-0.939-1.96-2.079-2.64-3.42c-0.682-1.34-1.021-2.97-1.021-4.89
			c0-1.921,0.36-3.65,1.08-5.19c0.72-1.539,1.739-2.85,3.06-3.93s2.92-1.91,4.801-2.49c1.879-0.579,3.999-0.87,6.359-0.87
			c2.8,0,5.221,0.3,7.26,0.9c2.041,0.6,3.721,1.26,5.041,1.979l-2.701,7.38c-1.16-0.6-2.45-1.13-3.869-1.59
			c-1.42-0.459-3.131-0.689-5.131-0.689c-2.24,0-3.85,0.31-4.83,0.93s-1.469,1.57-1.469,2.85c0,0.761,0.18,1.401,0.539,1.92
			c0.36,0.521,0.871,0.99,1.53,1.41c0.66,0.42,1.419,0.801,2.28,1.141c0.859,0.34,1.809,0.689,2.85,1.05
			c2.16,0.801,4.04,1.59,5.641,2.37c1.6,0.779,2.93,1.69,3.99,2.729c1.059,1.041,1.85,2.261,2.369,3.66
			c0.52,1.4,0.78,3.101,0.78,5.1c0,3.881-1.36,6.891-4.08,9.03c-2.721,2.141-6.82,3.21-12.3,3.21c-1.84,0-3.501-0.11-4.98-0.33
			c-1.48-0.22-2.789-0.49-3.93-0.81c-1.141-0.32-2.121-0.66-2.939-1.021c-0.82-0.359-1.511-0.699-2.07-1.02l2.64-7.44
			c1.239,0.681,2.77,1.29,4.591,1.83C232.126,111.14,234.357,111.41,236.998,111.41z"/>
		<path d="M260.576,118.55V76.97h28.08v7.86h-18.719v8.16h16.619v7.68h-16.619v10.02h20.1v7.86H260.576z"/>
	</g>
	<g>
		<circle cx="164.483" cy="47.291" r="21.833"/>
		<polygon points="164.484,118.458 143.515,118.458 154,71.957 164.484,25.458 174.966,71.957 185.451,118.458 		"/>
	</g>
</g>
</svg>
