<?xml version="1.0" encoding="utf-8"?>
<!-- Generator: Adobe Illustrator 16.0.0, SVG Export Plug-In . SVG Version: 6.00 Build 0)  -->
<!DOCTYPE svg PUBLIC "-//W3C//DTD SVG 1.1//EN" "http://www.w3.org/Graphics/SVG/1.1/DTD/svg11.dtd">
<svg version="1.1" id="Calque_1" xmlns="http://www.w3.org/2000/svg" xmlns:xlink="http://www.w3.org/1999/xlink" x="0px" y="0px"
	 width="290.037px" height="107.879px" viewBox="-135.308 248.52 290.037 107.879"
	 enable-background="new -135.308 248.52 290.037 107.879" xml:space="preserve">
<g>
	<path fill="rgb(255,255,255)" d="M-123.067,264.48c0.722,1.319,1.554,2.949,2.497,4.89c0.942,1.941,1.925,4.041,2.948,6.302
		c1.021,2.26,2.034,4.57,3.038,6.93c1.002,2.358,1.944,4.579,2.827,6.659c0.883-2.08,1.825-4.301,2.828-6.659
		c1.002-2.359,2.016-4.67,3.038-6.93c1.022-2.261,2.005-4.359,2.948-6.302c0.942-1.939,1.775-3.569,2.497-4.89h8.52
		c0.399,2.76,0.771,5.85,1.11,9.271c0.339,3.421,0.64,6.981,0.9,10.68c0.259,3.699,0.5,7.41,0.72,11.131
		c0.219,3.719,0.41,7.221,0.57,10.5h-9.12c-0.12-4.041-0.28-8.439-0.48-13.201c-0.201-4.76-0.501-9.56-0.899-14.397
		c-0.724,1.68-1.525,3.539-2.407,5.579c-0.883,2.039-1.756,4.078-2.619,6.119c-0.862,2.039-1.695,3.99-2.498,5.85
		c-0.802,1.859-1.485,3.451-2.046,4.771h-6.54c-0.563-1.32-1.244-2.91-2.046-4.771c-0.803-1.859-1.636-3.811-2.499-5.85
		c-0.863-2.041-1.735-4.08-2.618-6.119c-0.883-2.04-1.686-3.899-2.407-5.579c-0.399,4.84-0.7,9.64-0.899,14.397
		c-0.201,4.762-0.36,9.16-0.48,13.201h-9.122c0.159-3.279,0.351-6.781,0.57-10.5c0.219-3.721,0.459-7.432,0.72-11.131
		c0.26-3.698,0.561-7.259,0.9-10.68c0.339-3.421,0.709-6.511,1.109-9.271H-123.067L-123.067,264.48z"/>
	<path fill="rgb(255,255,255)" d="M-82.288,306.059V264.48h28.08v7.859h-18.721v8.16h16.62v7.679h-16.62V298.2h20.101v7.859H-82.288z M-60.688,253.559
		l-9.87,8.341l-4.109-3.66l8.489-9.72L-60.688,253.559z"/>
	<path fill="rgb(255,255,255)" d="M-34.89,264.48c0.723,1.319,1.555,2.949,2.497,4.89c0.942,1.941,1.925,4.041,2.948,6.302c1.021,2.26,2.035,4.57,3.038,6.93
		c1.002,2.358,1.945,4.579,2.828,6.659c0.882-2.08,1.825-4.301,2.828-6.659c1.002-2.359,2.015-4.67,3.038-6.93
		c1.021-2.261,2.005-4.359,2.947-6.302c0.942-1.939,1.775-3.569,2.497-4.89h8.521c0.399,2.76,0.771,5.85,1.11,9.271
		c0.338,3.421,0.64,6.981,0.899,10.68c0.259,3.699,0.499,7.41,0.72,11.131c0.219,3.719,0.41,7.221,0.57,10.5h-9.12
		c-0.12-4.041-0.28-8.439-0.479-13.201c-0.2-4.76-0.502-9.56-0.899-14.397c-0.723,1.68-1.525,3.539-2.408,5.579
		c-0.883,2.039-1.755,4.078-2.618,6.119c-0.861,2.039-1.694,3.99-2.498,5.85c-0.802,1.859-1.484,3.451-2.046,4.771h-6.54
		c-0.563-1.32-1.244-2.91-2.046-4.771c-0.803-1.859-1.636-3.811-2.499-5.85c-0.863-2.041-1.734-4.08-2.618-6.119
		c-0.883-2.04-1.686-3.899-2.406-5.579c-0.4,4.84-0.7,9.64-0.9,14.397c-0.201,4.762-0.36,9.16-0.48,13.201h-9.119
		c0.158-3.279,0.35-6.781,0.569-10.5c0.22-3.721,0.459-7.432,0.721-11.131c0.26-3.698,0.56-7.259,0.899-10.68
		c0.339-3.421,0.709-6.511,1.11-9.271H-34.89L-34.89,264.48z"/>
	<path fill="rgb(255,255,255)" d="M-80.088,334.739c0,3.6-0.561,6.74-1.68,9.42c-1.12,2.68-2.71,4.898-4.77,6.66c-2.062,1.76-4.57,3.08-7.53,3.959
		c-2.961,0.881-6.281,1.32-9.96,1.32c-1.68,0-3.64-0.07-5.88-0.211c-2.241-0.141-4.44-0.43-6.601-0.869v-40.5
		c2.16-0.398,4.41-0.67,6.75-0.811c2.341-0.139,4.351-0.209,6.03-0.209c3.561,0,6.789,0.398,9.69,1.199
		c2.899,0.801,5.39,2.061,7.47,3.779c2.079,1.721,3.68,3.922,4.8,6.6C-80.648,327.759-80.088,330.981-80.088,334.739z
		 M-107.147,347.94c0.439,0.039,0.95,0.068,1.53,0.09c0.58,0.02,1.27,0.029,2.069,0.029c4.681,0,8.15-1.18,10.41-3.539
		s3.391-5.619,3.391-9.781c0-4.359-1.08-7.658-3.24-9.898s-5.58-3.359-10.26-3.359c-0.641,0-1.301,0.01-1.98,0.029
		c-0.681,0.021-1.32,0.07-1.92,0.148V347.94z"/>
	<path fill="rgb(255,255,255)" d="M-75.287,355.559v-41.58h28.08v7.859h-18.721v8.16h16.62v7.68h-16.62V347.7h20.101v7.859H-75.287z"/>
	<path fill="rgb(255,255,255)" d="M-14.052,313.499c6.2,0,10.96,1.09,14.28,3.271c3.32,2.18,4.98,5.75,4.98,10.709c0,5.002-1.682,8.609-5.041,10.83
		s-8.16,3.33-14.399,3.33h-2.939v13.92h-9.36v-40.98c2.04-0.398,4.2-0.68,6.479-0.84C-17.771,313.579-15.771,313.499-14.052,313.499
		z M-13.45,321.479c-0.683,0-1.352,0.021-2.01,0.061c-0.66,0.041-1.23,0.08-1.71,0.119v12h2.939c3.239,0,5.679-0.439,7.319-1.318
		c1.641-0.881,2.461-2.521,2.461-4.92c0-1.16-0.211-2.121-0.631-2.881s-1.02-1.369-1.799-1.83c-0.781-0.459-1.731-0.779-2.852-0.959
		C-10.852,321.569-12.092,321.479-13.45,321.479z"/>
	<path fill="rgb(255,255,255)" d="M69.77,348.419c1.319,0,2.409-0.109,3.271-0.33c0.859-0.219,1.549-0.52,2.068-0.898c0.521-0.381,0.881-0.83,1.08-1.352
		c0.201-0.52,0.301-1.1,0.301-1.74c0-1.357-0.641-2.488-1.92-3.389c-1.281-0.9-3.48-1.871-6.601-2.91
		c-1.36-0.48-2.721-1.029-4.079-1.65c-1.361-0.619-2.58-1.398-3.66-2.34c-1.08-0.939-1.961-2.078-2.642-3.42
		c-0.681-1.34-1.021-2.971-1.021-4.891s0.359-3.65,1.08-5.189s1.74-2.85,3.062-3.93c1.319-1.08,2.919-1.91,4.799-2.49
		c1.882-0.578,4-0.869,6.36-0.869c2.8,0,5.22,0.299,7.261,0.898c2.039,0.602,3.72,1.26,5.039,1.98l-2.699,7.379
		c-1.161-0.6-2.45-1.129-3.87-1.59c-1.421-0.459-3.13-0.689-5.13-0.689c-2.239,0-3.851,0.311-4.829,0.93
		c-0.98,0.621-1.472,1.57-1.472,2.852c0,0.76,0.181,1.4,0.541,1.92c0.358,0.52,0.869,0.99,1.528,1.41
		c0.66,0.42,1.42,0.801,2.281,1.141c0.858,0.34,1.81,0.689,2.85,1.049c2.16,0.801,4.039,1.59,5.64,2.371
		c1.601,0.779,2.931,1.689,3.99,2.729c1.06,1.041,1.851,2.262,2.371,3.66c0.519,1.4,0.778,3.102,0.778,5.1
		c0,3.881-1.359,6.891-4.08,9.031s-6.819,3.209-12.299,3.209c-1.842,0-3.502-0.109-4.979-0.33c-1.479-0.221-2.791-0.49-3.931-0.811
		c-1.141-0.318-2.121-0.66-2.94-1.02s-1.511-0.699-2.069-1.021l2.641-7.439c1.24,0.682,2.77,1.291,4.59,1.83
		C64.9,348.149,67.13,348.419,69.77,348.419z"/>
	<path fill="rgb(255,255,255)" d="M102.689,348.419c1.319,0,2.408-0.109,3.27-0.33c0.859-0.219,1.55-0.52,2.07-0.898c0.52-0.381,0.879-0.83,1.08-1.352
		c0.199-0.52,0.299-1.1,0.299-1.74c0-1.357-0.639-2.488-1.92-3.389c-1.279-0.9-3.479-1.871-6.6-2.91
		c-1.359-0.48-2.722-1.029-4.08-1.65c-1.359-0.619-2.58-1.398-3.66-2.34c-1.08-0.939-1.959-2.078-2.64-3.42
		c-0.683-1.34-1.021-2.971-1.021-4.891s0.359-3.65,1.08-5.189c0.72-1.539,1.738-2.85,3.06-3.93s2.92-1.91,4.802-2.49
		c1.879-0.578,3.998-0.869,6.358-0.869c2.8,0,5.221,0.299,7.26,0.898c2.041,0.602,3.722,1.26,5.041,1.98l-2.7,7.379
		c-1.16-0.6-2.451-1.129-3.869-1.59c-1.42-0.459-3.131-0.689-5.131-0.689c-2.24,0-3.851,0.311-4.83,0.93
		c-0.98,0.621-1.47,1.57-1.47,2.852c0,0.76,0.181,1.4,0.539,1.92c0.36,0.52,0.871,0.99,1.53,1.41c0.66,0.42,1.418,0.801,2.279,1.141
		c0.859,0.34,1.81,0.689,2.851,1.049c2.159,0.801,4.04,1.59,5.642,2.371c1.6,0.779,2.93,1.689,3.989,2.729
		c1.06,1.041,1.851,2.262,2.369,3.66c0.521,1.4,0.78,3.102,0.78,5.1c0,3.881-1.36,6.891-4.08,9.031
		c-2.721,2.141-6.82,3.209-12.301,3.209c-1.84,0-3.5-0.109-4.979-0.33s-2.789-0.49-3.931-0.811c-1.141-0.318-2.121-0.66-2.938-1.02
		c-0.819-0.359-1.511-0.699-2.069-1.021l2.639-7.439c1.24,0.682,2.771,1.291,4.592,1.83
		C97.816,348.149,100.048,348.419,102.689,348.419z"/>
	<path fill="rgb(255,255,255)" d="M125.268,355.559v-41.58h28.081v7.859h-18.72v8.16h16.619v7.68h-16.619V347.7h20.101v7.859H125.268z"/>
	<g>
		<circle fill="rgb(255,255,255)" cx="28.174" cy="283.301" r="23.962"/>
		<polygon fill="rgb(255,255,255)" points="28.175,355.468 2.206,355.468 15.191,308.966 28.175,262.468 41.156,308.966 54.143,355.468 		"/>
	</g>
</g>
</svg>
