<?xml version="1.0" encoding="utf-8"?>
<!-- Generator: Adobe Illustrator 16.0.0, SVG Export Plug-In . SVG Version: 6.00 Build 0)  -->
<!DOCTYPE svg PUBLIC "-//W3C//DTD SVG 1.1//EN" "http://www.w3.org/Graphics/SVG/1.1/DTD/svg11.dtd">
<svg version="1.1" id="Calque_1" xmlns="http://www.w3.org/2000/svg" xmlns:xlink="http://www.w3.org/1999/xlink" x="0px" y="0px"
	 width="73.479px" height="61.684px" viewBox="0 0 73.479 61.684" enable-background="new 0 0 73.479 61.684" xml:space="preserve">
<g>
	<rect x="2" y="2.001" fill="#E5E2D3" width="17.659" height="12.732"/>
	<g>
		
			<rect x="2" y="2.001" fill="none" stroke="#231F20" stroke-width="4" stroke-linecap="round" stroke-linejoin="round" stroke-miterlimit="10" width="17.659" height="12.732"/>
	</g>
	<rect x="27.909" y="2.001" fill="#E5E2D3" width="17.659" height="12.732"/>
	<g>
		
			<rect x="27.909" y="2.001" fill="none" stroke="#231F20" stroke-width="4" stroke-linecap="round" stroke-linejoin="round" stroke-miterlimit="10" width="17.659" height="12.732"/>
	</g>
	<rect x="53.818" y="2.001" fill="#E5E2D3" width="17.66" height="12.732"/>
	<g>
		
			<rect x="53.818" y="2.001" fill="none" stroke="#231F20" stroke-width="4" stroke-linecap="round" stroke-linejoin="round" stroke-miterlimit="10" width="17.66" height="12.732"/>
	</g>
	<rect x="2" y="24.476" fill="#E5E2D3" width="17.659" height="12.734"/>
	<g>
		
			<rect x="2" y="24.476" fill="none" stroke="#231F20" stroke-width="4" stroke-linecap="round" stroke-linejoin="round" stroke-miterlimit="10" width="17.659" height="12.734"/>
	</g>
	<rect x="27.909" y="24.476" fill="#E5E2D3" width="17.659" height="12.734"/>
	
		<rect x="27.909" y="24.476" fill="none" stroke="#231F20" stroke-width="4" stroke-linecap="round" stroke-linejoin="round" stroke-miterlimit="10" width="17.659" height="12.734"/>
	<rect x="53.818" y="24.476" fill="#E5E2D3" width="17.66" height="12.734"/>
	<g>
		
			<rect x="53.818" y="24.476" fill="none" stroke="#231F20" stroke-width="4" stroke-linecap="round" stroke-linejoin="round" stroke-miterlimit="10" width="17.66" height="12.734"/>
	</g>
	<rect x="2" y="46.95" fill="#E5E2D3" width="17.659" height="12.734"/>
	<g>
		
			<rect x="2" y="46.95" fill="none" stroke="#231F20" stroke-width="4" stroke-linecap="round" stroke-linejoin="round" stroke-miterlimit="10" width="17.659" height="12.734"/>
	</g>
	<rect x="27.909" y="46.95" fill="#E5E2D3" width="17.659" height="12.734"/>
	<g>
		
			<rect x="27.909" y="46.95" fill="none" stroke="#231F20" stroke-width="4" stroke-linecap="round" stroke-linejoin="round" stroke-miterlimit="10" width="17.659" height="12.734"/>
	</g>
	<rect x="53.818" y="46.95" fill="#E5E2D3" width="17.66" height="12.734"/>
	<g>
		
			<rect x="53.818" y="46.95" fill="none" stroke="#231F20" stroke-width="4" stroke-linecap="round" stroke-linejoin="round" stroke-miterlimit="10" width="17.66" height="12.734"/>
	</g>
</g>
</svg>
