<?xml version="1.0" encoding="utf-8"?>
<!-- Generator: Adobe Illustrator 16.0.0, SVG Export Plug-In . SVG Version: 6.00 Build 0)  -->
<!DOCTYPE svg PUBLIC "-//W3C//DTD SVG 1.1//EN" "http://www.w3.org/Graphics/SVG/1.1/DTD/svg11.dtd">
<svg version="1.1" id="Calque_1" xmlns="http://www.w3.org/2000/svg" xmlns:xlink="http://www.w3.org/1999/xlink" x="0px" y="0px"
	 width="73.479px" height="61.684px" viewBox="0 0 73.479 61.684" enable-background="new 0 0 73.479 61.684" xml:space="preserve">
<g>
	<path fill="#E5E2D3" d="M59.936,27.256C58.148,13.039,45.891,2,31.08,2C15.045,2,2,14.938,2,30.842s13.045,28.842,29.08,28.842
		V46.609c-8.766,0-15.896-7.074-15.896-15.768c0-8.695,7.131-15.768,15.896-15.768c7.521,0,13.835,5.211,15.477,12.182H34.107
		c0,0,3.099,6.805,8.304,15.746c5.204,8.943,10.382,14.75,10.382,14.75s5.176-5.807,10.382-14.75
		c5.204-8.941,8.304-15.746,8.304-15.746H59.936z"/>
	<path fill="none" stroke="#231F20" stroke-width="4" stroke-linecap="round" stroke-linejoin="round" stroke-miterlimit="10" d="
		M59.936,27.256C58.148,13.039,45.891,2,31.08,2C15.045,2,2,14.938,2,30.842s13.045,28.842,29.08,28.842V46.609
		c-8.766,0-15.896-7.074-15.896-15.768c0-8.695,7.131-15.768,15.896-15.768c7.521,0,13.835,5.211,15.477,12.182H34.107
		c0,0,3.099,6.805,8.304,15.746c5.204,8.943,10.382,14.75,10.382,14.75s5.176-5.807,10.382-14.75
		c5.204-8.941,8.304-15.746,8.304-15.746H59.936z"/>
</g>
</svg>
