<?xml version="1.0" encoding="utf-8"?>
<!-- Generator: Adobe Illustrator 16.0.0, SVG Export Plug-In . SVG Version: 6.00 Build 0)  -->
<!DOCTYPE svg PUBLIC "-//W3C//DTD SVG 1.1//EN" "http://www.w3.org/Graphics/SVG/1.1/DTD/svg11.dtd">
<svg version="1.1" id="Calque_1" xmlns="http://www.w3.org/2000/svg" xmlns:xlink="http://www.w3.org/1999/xlink" x="0px" y="0px"
	 width="58.016px" height="40px" viewBox="0 0 58.016 40" enable-background="new 0 0 58.016 40" xml:space="preserve">
<g>
	<defs>
		<rect id="SVGID_11_" width="58.016" height="40"/>
	</defs>
	<clipPath id="SVGID_2_">
		<use xlink:href="#SVGID_11_"  overflow="visible"/>
	</clipPath>
	<path clip-path="url(#SVGID_2_)" fill="#FFFFFF" d="M20.787,40c-1.043,0-2.05-0.362-2.832-1.019
		c-0.228-0.19-0.408-0.388-0.521-0.521L0.324,17.926c-0.248-0.297-0.359-0.668-0.313-1.045c0.046-0.376,0.243-0.713,0.555-0.949
		c0.263-0.197,0.593-0.306,0.927-0.306c0.336,0,0.666,0.109,0.928,0.306l18.199,13.712l34.922-29.29C55.813,0.126,56.164,0,56.526,0
		c0.427,0,0.834,0.175,1.117,0.48c0.497,0.534,0.496,1.341-0.001,1.875L24.002,38.622C23.189,39.497,22.018,40,20.787,40"/>
</g>
</svg>
