<?xml version="1.0" encoding="utf-8"?>
<!-- Generator: Adobe Illustrator 16.0.0, SVG Export Plug-In . SVG Version: 6.00 Build 0)  -->
<!DOCTYPE svg PUBLIC "-//W3C//DTD SVG 1.1//EN" "http://www.w3.org/Graphics/SVG/1.1/DTD/svg11.dtd">
<svg version="1.1" id="Calque_1" xmlns="http://www.w3.org/2000/svg" xmlns:xlink="http://www.w3.org/1999/xlink" x="0px" y="0px"
	 width="135.351px" height="99.241px" viewBox="0 0 135.351 99.241" enable-background="new 0 0 135.351 99.241"
	 xml:space="preserve">
<g>
	<path fill="#368C5E" d="M49.064,97.241c-2.363,0-4.641-0.862-6.415-2.426c-0.512-0.452-0.922-0.923-1.176-1.238L2.731,44.684
		c-0.56-0.707-0.812-1.592-0.709-2.488c0.104-0.897,0.551-1.699,1.259-2.26c0.594-0.472,1.339-0.73,2.097-0.73
		c0.761,0,1.507,0.259,2.102,0.731l41.202,32.646L127.75,2.844C128.365,2.3,129.158,2,129.98,2c0.967,0,1.889,0.416,2.529,1.143
		c1.124,1.273,1.123,3.193-0.002,4.465L56.341,93.959C54.502,96.044,51.849,97.241,49.064,97.241"/>
	<path d="M129.98,0.001c-1.309,0-2.571,0.477-3.553,1.343L48.614,69.978L8.721,38.367c-0.945-0.749-2.132-1.162-3.343-1.162
		c-1.207,0-2.393,0.412-3.339,1.162c-1.126,0.894-1.837,2.171-2.002,3.599c-0.166,1.428,0.235,2.835,1.129,3.961l38.73,48.88
		l0.01,0.013l0.01,0.013c0.434,0.538,0.921,1.052,1.41,1.482c2.14,1.888,4.888,2.927,7.738,2.927c3.359,0,6.559-1.443,8.779-3.962
		l0.272-0.306l75.894-86.046c1.789-2.021,1.791-5.079,0.001-7.108C132.99,0.663,131.522,0.001,129.98,0.001 M129.98,4.001
		c0.38,0,0.759,0.156,1.03,0.465c0.463,0.524,0.452,1.305,0,1.815L55.119,92.322l-0.276,0.313c-1.522,1.725-3.645,2.606-5.779,2.606
		c-1.81,0-3.627-0.635-5.091-1.926c-0.338-0.298-0.669-0.653-0.942-0.993L4.299,43.44c-0.473-0.597-0.373-1.464,0.224-1.938
		c0.254-0.2,0.556-0.298,0.855-0.298c0.307,0,0.611,0.102,0.859,0.298l42.514,33.687l80.321-70.846
		C129.333,4.113,129.657,4.001,129.98,4.001"/>
</g>
</svg>
