<?xml version="1.0" encoding="utf-8"?>
<!-- Generator: Adobe Illustrator 16.0.0, SVG Export Plug-In . SVG Version: 6.00 Build 0)  -->
<!DOCTYPE svg PUBLIC "-//W3C//DTD SVG 1.1//EN" "http://www.w3.org/Graphics/SVG/1.1/DTD/svg11.dtd">
<svg version="1.1" xmlns="http://www.w3.org/2000/svg" xmlns:xlink="http://www.w3.org/1999/xlink" x="0px" y="0px" width="566.9px"
	 height="566.9px" viewBox="0 0 566.9 566.9" enable-background="new 0 0 566.9 566.9" xml:space="preserve">
<g id="fond" display="none">
	
		<rect x="-9532.9" y="-7591.9" display="inline" fill-rule="evenodd" clip-rule="evenodd" fill="#F2F2F2" width="15942.5" height="15814.7"/>
</g>
<g id="en_cours">
</g>
<g id="fini">
	<g>
		<path fill-rule="evenodd" clip-rule="evenodd" fill="#9C8156" d="M354.4,392.4c-0.3,0.2-0.5,0.5-0.8,0.5
			c-11.8,0.2-23.6,0.4-35.4,0.7c0.9-8.8,1.9-17.5,2.8-26.3c0.5-5.3,0.9-10.6,1.5-16c0.9-8.6,2-17.3,2.8-25.9
			c0.6-6.6,0.9-13.2,1.5-19.9c0.9-10.9,1.9-21.8,2.8-32.7c0.3-3.7,0.5-7.5,0.7-11.2c0.9-11.5,1.8-23,2.8-34.4
			c0.7-7.6,1.3-15.3,2.1-22.9c1.1-10,2.4-20,3.5-30c0.6-5.5,0.9-11.1,1.5-16.7c0.9-8.9,1.9-17.7,2.8-26.6c0.5-5.4,0.9-10.9,1.5-16.3
			c0.9-8.8,1.9-17.5,2.8-26.3c0.4-4.2,0.4-8.4,0.6-12.5c0.3-3.8,0.6-7.7,0.9-11.5c0.6-7,1.3-14.1,1.9-21.1c1.3-2.9,2-6.1,5.1-7.8
			c0.9,0,1.9,0,2.8,0c2.6,1.7,3.7,4,3.6,7.2c-0.4,12.9-0.4,25.9-0.8,38.8c-0.3,10.1-1,20.1-1.4,30.2c-0.5,12.3-1,24.6-1.4,36.9
			c-0.5,15-0.9,29.9-1.4,44.9c-0.4,11.7-1,23.4-1.4,35.2c-0.5,12.8-1.2,25.7-1.4,38.5c-0.4,26.6-0.5,53.2-0.7,79.8
			c-0.1,8.9-0.1,17.7,0,26.6c0.1,4.8,0.4,9.6,0.7,14.4c0.1,2.3-0.2,4.1-3.2,4C352.3,392.2,353.3,392.3,354.4,392.4z"/>
		<path fill-rule="evenodd" clip-rule="evenodd" fill="#9C8156" d="M228.1,391.5c-8.4-1.2-16.8-2.4-25.2-3.6
			c-0.4-0.1-0.8-0.8-1.2-1.2c0.3-1,0.8-1.9,0.8-2.9c0.3-12,0.5-24,0.8-36c0.2-0.1,0.3-0.2,0.5-0.3c-0.2-0.2-0.3-0.4-0.5-0.6
			c0.2-3,0.5-5.9,0.7-8.9c0.1-2.9,0-5.8,0.1-8.7c0.2-0.1,0.3-0.2,0.5-0.3c-0.2-0.2-0.3-0.4-0.5-0.6c0.2-1.8,0.6-3.6,0.7-5.4
			c0.3-10.3,0.5-20.6,0.7-30.9c0.2-7,0.5-14,0.7-21c0.2-0.1,0.3-0.2,0.5-0.3c-0.2-0.2-0.3-0.4-0.5-0.6c0.2-0.8,0.6-1.5,0.7-2.3
			c0.3-8.3,0.5-16.7,0.7-25c0.4-12.5,0.9-25.1,1.4-37.6c0.2-6,0.5-11.9,0.7-17.9c0.2-0.1,0.3-0.2,0.5-0.3c-0.2-0.2-0.3-0.4-0.5-0.6
			c0.2-0.9,0.6-1.7,0.7-2.6c0.3-9,0.5-18,0.8-27c0.2-0.1,0.3-0.2,0.5-0.3c-0.2-0.2-0.3-0.4-0.5-0.6c0.2-4.2,0.4-8.5,0.6-12.7
			c0.3-3.2,0.5-6.5,0.8-9.7c0.5-5,1-10.1,1.5-15.1c1.6-0.4,3.3-1.3,4.7-0.9c0.8,0.2,1.4,2.4,1.5,3.8c0.6,6.2,1.1,12.4,1.4,18.6
			c0.1,1.6-0.6,3.2-0.6,4.8c0.2,18.4,0.4,36.9,0.7,55.3c0.2,10.8,0.5,21.5,0.7,32.3c0.2,11.9,0.5,23.8,0.7,35.6
			c0.2,9.9,0.4,19.7,0.7,29.6c0.4,11.8,0.9,23.5,1.4,35.3c0.5,10.9,1,21.8,1.4,32.6c0.3,7.7,0.5,15.5,0.7,23.2
			C227.5,389.8,227.9,390.6,228.1,391.5z"/>
		<path fill-rule="evenodd" clip-rule="evenodd" fill="#543724" d="M560.8,322.9c-0.1-2.7-1.7-3.3-3.9-2.9c-2.8,0.5-5.5,1.4-8.4,1.8
			c-5.9,0.8-11.8,1.3-17.7,1.9c-6.6,0.6-13.2,0.8-19.7,1.6c-6,0.7-11.9,2.2-17.9,3.1c-5.3,0.7-10.6,0.8-15.9,1.5
			c-3.8,0.6-7.4,2.2-11.2,2.7c-6.6,0.8-13.2,1.3-19.8,1.4c-4,0.1-5.4,2.4-5.4,5.9c0,1.9,0,3.8-0.4,5.6c-1.4,6.4-3.8,12.4-8.1,17.5
			c-3,3.5-5.8,7.3-9.2,10.3c-2.7,2.3-6.1,3.9-9.3,5.5c-5,2.5-9.8,5.5-15.1,6.9c-8.5,2.3-17.2,3.5-25.9,5.2c-0.2,0.2-0.4,0.4-0.6,0.5
			c-0.1-0.2-0.2-0.4-0.3-0.5c-5.9,0.5-11.8,1-17.6,1.5c-0.3,0.2-0.5,0.5-0.8,0.5c-11.8,0.2-23.6,0.4-35.4,0.7
			c-2.6,0-5.1,0.1-7.7,0.1c-0.2,0.2-0.4,0.4-0.6,0.5c-0.1-0.2-0.2-0.4-0.3-0.5c-4.1,0-8.3,0.1-12.4-0.1c-8.7-0.4-17.4-1-26.2-1.3
			c-4.2-0.2-8.4,0-12.6,0c-10.1-0.2-20.2-0.5-30.3-0.8c-8.4-1.2-16.8-2.4-25.2-3.6c-0.4-0.1-0.8-0.8-1.2-1.2
			c-10.4-0.1-19.4-4.5-28.3-9.3c-0.2-0.2-0.4-0.4-0.6-0.6c-1-1-2-2-3-3c-0.2-0.2-0.4-0.4-0.6-0.6c-0.4-0.7-0.6-1.5-1.2-2.1
			c-7.9-8.5-13-18.6-16-29.8c-0.2-0.2-0.4-0.4-0.5-0.6c0.2-0.1,0.4-0.2,0.5-0.3c-1.2-5.1-2.7-10.1-3.4-15.3
			c-0.9-6.2-0.8-12.5-1.6-18.7c-0.2-1.7-1.6-4.1-3.1-4.7c-2.7-1.1-5.8-1.1-8.8-1.6c-11.4-1.9-23-3.3-34.3-5.8
			c-18.7-4-37.6-7.3-55.6-14.1c-11.3-4.3-23.3-6.8-33.7-13.5c-1.5-1-3-0.6-4.1,1c-0.5,0.8-1,1.7-1.5,2.5c0,0.9,0,1.9,0,2.8
			c8,4,16,8.1,24.1,12c15.6,7.6,31,15.5,46.8,22.5c5.8,2.6,7.8,6.5,8.4,12c1,8,2,16.1,2.8,24.1c1,9.1,2.1,18.2,2.8,27.3
			c0.9,10.8,1.9,21.6,2,32.4c0,5.8-1.1,11.9-5.3,16.6c-0.5,0.6-1.3,1-2,1.2c-5,1.3-6.2,5.5-3,9.7c3.3,4.3,6.6,8.6,9.9,13
			c51.2,98.4,138.2,88.7,184.7,90.9c25.7,1.2,75.6-1.5,120.3-8.2c0.2,0,0.4,0,0.6-0.1c5.6-0.6,11.2-1.3,16.7-2.3
			c5.6-1,11.2-2.5,16.8-3.7c6.6-1.4,13.2-2.7,19.7-4.4c2.2-0.6,4.2-1.8,6.3-2.8c11.1-3.7,19.8-7.9,24.8-12.6h0
			c3.3-2.5,6.3-5.3,9-8.7c5.8-7.1,10.6-14.7,14.6-22.8c3.4-6.8,5.6-14.1,8-21.3c2.3-7,4.2-14.1,6.4-21.2c0.4-1.2,1-3,1.9-3.4
			c5.6-2.1,11.4-3.8,17-5.9c2.2-0.8,5-2.1,5.9-3.9c2.5-5.6,4.4-11.4,5.9-17.3c2.1-7.8,4.1-15.7,5.4-23.7c1.9-11.7,3.3-23.5,4.5-35.3
			C561.8,332.8,560.9,327.8,560.8,322.9z"/>
		<polygon fill="#AB2E23" points="471.1,152.6 424.8,152.6 433.2,132.9 371,159.1 433.2,185.3 424.8,165.7 471.1,165.7 		"/>
		<path fill="#B1C0C9" d="M316,463c-7.4,0-14.9-0.2-22.3-0.4l0.8-23c7.2,0.2,14.5,0.4,21.7,0.4L316,463z M335.3,462.8l-0.5-23
			c7.2-0.2,14.5-0.4,21.6-0.8l1.2,23C350.2,462.4,342.7,462.7,335.3,462.8z M274.4,461.7c-7.5-0.4-15-1-22.3-1.7l2.1-22.9
			c7.1,0.6,14.4,1.2,21.6,1.6L274.4,461.7z M376.9,460.7l-1.8-22.9c7.2-0.6,14.5-1.3,21.5-2.1l2.6,22.9
			C391.8,459.4,384.3,460.2,376.9,460.7z M232.9,458c-7.5-0.9-15-1.9-22.2-3l3.5-22.7c7,1.1,14.2,2,21.4,2.9L232.9,458z
			 M418.4,456.1l-3.3-22.8c7.2-1,14.4-2.2,21.3-3.5l4.2,22.6C433.3,453.8,425.9,455,418.4,456.1z M191.5,451.8c-7.6-1.4-15-3-22-4.6
			l5.3-22.4c6.7,1.6,13.8,3.1,21,4.4L191.5,451.8z M459.6,448.6l-5-22.4c7.1-1.6,14.1-3.3,20.8-5.2l6.1,22.2
			C474.4,445,467,446.9,459.6,448.6z M150.6,442.2c-7.7-2.2-15-4.6-21.7-7l7.9-21.6c6.2,2.3,13,4.5,20.1,6.5L150.6,442.2z"/>
		<path fill="#B1C0C9" d="M477.6,379.8c-7.2-0.1-14.6-0.4-22.7-1l1.6-22.9c7.6,0.5,14.6,0.9,21.3,0.9L477.6,379.8z M488,379.8
			l-0.5-23c7-0.2,13.9-0.6,21-1.3l2.4,22.9C503.1,379.2,495.6,379.6,488,379.8z M521.1,377.1l-3.1-22.8c6.4-0.9,13.1-2,21.2-3.5
			l4.2,22.6C534.9,375.1,527.9,376.2,521.1,377.1z"/>
		<path fill="#577483" d="M326.5,74.6C326.5,74.6,326.5,74.7,326.5,74.6C326.5,74.7,326.5,74.6,326.5,74.6L326.5,74.6z"/>
		<path fill="#577483" d="M342.9,45.6c-5.9,2.8-11.7,3-17.6,0.5c-0.2-0.2-0.4-0.4-0.6-0.6c-1.3-1.1-2.5-2.3-3.9-3.4
			c-1.3-1.1-2.6-2.4-4.1-3c-5.7-2.3-10.2,0.8-14.6,3.7c-4.4,2.8-8.8,3.5-13.5,1c-0.9-0.5-1.8-0.9-2.7-1.3c-0.2,0.3-0.5,0.5-0.7,0.8
			c0.9,1.9,1.6,4,2.9,5.7c3.3,4.6,8,6.4,13.6,6.5c2.4,0,4.8,0.5,8,0.9c-6.4,5.9-11.4,12-20.8,8.4c0.6,2.1,1.1,4.1,2.4,5.2
			c5.8,4.5,12.3,5.3,19.2,2.8c2.1-0.7,4.6-1.9,6.5-1.4c3.2,0.9,6.3,2,9.4,3.3c0,0,0.1,0,0.1,0c9.1,3.7,14.4,4.9,21.3,1.4
			c0.3-3.8,0.6-7.7,0.9-11.5c0.6-7,1.3-14.1,1.9-21.1C348.1,44.1,345.3,44.5,342.9,45.6z"/>
		<path fill="#FFFFFF" d="M347.7,76.1C347.7,76.1,347.7,76.1,347.7,76.1c-0.9-0.1-12-1.6-26.6,13c-3.3,3.3-8.2,9.2-12.3,13.7
			c-3.9,4.3-8.1,8.4-11.7,12.9c-5.3,6.7-9.2,14.3-12.4,22.3c-4.2,10.3-6.5,20.8-4.5,31.6c1.6,8.9,3.9,17.9,7.5,26.2
			c5,11.7,12.3,22.1,22.6,30c2.5,1.9,2.1,3.8-0.8,5.6c-2.6,1.6-5.2,3.4-7.9,4.8c-7.6,4.1-14.8,8.8-21.1,14.8
			c-3.8,3.7-7.9,7.2-11.6,11c-4.6,4.7-10,9.2-13.1,14.8c-3.9,7-6.7,15-8.2,22.9c-1.9,9.6-2.3,19.6-1.1,29.6
			c0.9,7.6,3.7,14.1,7.6,20.3c2.1,3.3,5.6,5.8,7.9,9c3.7,4.9,8.4,8.7,13.1,12.5c5.6,4.5,12.4,6.2,18.9,8.4c8.9,3,15.8-2.2,14.9-11.5
			c-0.5-4.7-1.8-9.4-3.1-14c-0.6-2.2-2.1-4.2-3.2-6.3c-0.2-0.2-0.4-0.4-0.5-0.6c0.2-0.1,0.4-0.2,0.5-0.3c-2.1-4.4-4.7-8.6-6.1-13.2
			c-2.1-7-4.2-14-3.9-21.6c0.4-10.2-0.6-20.6,2.3-30.6c2.8-9.8,5.4-19.7,11.1-28.5c4.5-7.1,9.6-13.6,16.8-18.2
			c5.2-3.3,5.6-5.5,2.2-10.6c-1.6-2.4-3.6-4.7-4.3-7.3c-2.3-8.6-4.1-17.3-6-25.9c-0.2-0.2-0.4-0.4-0.5-0.6c0.2-0.1,0.4-0.2,0.5-0.3
			c-0.7-5.6-1.4-11.2-2.1-16.9c-0.2-0.2-0.4-0.4-0.5-0.6c0.2-0.1,0.4-0.2,0.5-0.3c0-0.7,0-1.3,0-2c-0.2-0.2-0.4-0.4-0.5-0.6
			c0.2-0.1,0.4-0.2,0.5-0.3c0-5.1,0-10.3,0-15.4c-0.2-0.2-0.4-0.4-0.5-0.6c0.2-0.1,0.4-0.2,0.5-0.3c0-0.4,0-0.8,0-1.3
			c-0.2-0.2-0.4-0.4-0.5-0.6c0.2-0.1,0.4-0.2,0.5-0.3c-0.9-9.8,3-18.7,5.7-27.7c4.9-16,13.1-30.5,24.2-43.1c0.2-0.2,0.4-0.4,0.6-0.6
			c1.6-1.2,3.2-2.4,4.9-3.7C347.8,76.1,347.8,76.1,347.7,76.1z"/>
		<path fill-rule="evenodd" clip-rule="evenodd" fill="#577483" d="M326.5,74.6"/>
		<path fill-rule="evenodd" clip-rule="evenodd" fill="#577483" d="M184.5,124.2c3.7-0.5,5.9,1.6,7.4,4.2c2.4,4.1,5.8,6,10.4,5.8
			c2.4-0.1,4.8-0.7,7.2-1.1l0,0c1.2-0.4,2.3-0.7,3.2-0.9c0.4-4.5,0.9-9,1.4-13.6c-3.8-2.3-7.2-2.1-10.7,0.9c-1.4,1.2-2.7,2-4.7-0.5
			c-4.5-5.6-9-7.8-14.7-1.2c-1.8,2.1-3.7,3.5-6.6,3c-0.5-0.1-1.1,0.5-1.7,0.9C178.2,124.7,181.4,124.6,184.5,124.2z"/>
		<path fill-rule="evenodd" clip-rule="evenodd" fill="#FFFFFF" d="M209.6,137.3c-0.2,0.2-0.3,0.5-0.5,0.7c0,0,0,0,0,0v0
			c-0.5,0.7-1.1,1.4-1.6,2.1c-3.2,5.5-6.6,10.9-9.9,16.4c-5,8.2-10,16.3-14.9,24.6c-1.1,1.8-1.7,3.9-2.7,5.8
			c-2.6,4.8-5.5,9.5-7.9,14.3c-2.3,4.5-4.1,9.2-6.1,13.9c-2.3,5.5-5,10.9-6.6,16.6c-2,7.4-2.9,15-4.5,22.5
			c-2.2,10.4-4.3,20.9-3.5,31.7c0.2,2.8-0.5,5.8,0.3,8.4c4,13.3,8.8,26.3,17.5,37.4c4.8,6.1,10.6,11,17,15.2
			c3.3,2.2,7.7,2.4,9.5-0.3c1.3-1.8,1.3-5.2,0.6-7.5c-1.3-4.7-4-8.9-6.1-13.2c-4.2-8.6-6.5-18.1-9.7-27.2
			c-2.5-7.1-2.9-14.6-4.3-21.8c-0.2-0.2-0.4-0.4-0.5-0.6c0.2-0.1,0.4-0.2,0.5-0.3c-0.7-5.4-1.4-10.8-2.1-16.2
			c-0.2-0.2-0.4-0.4-0.5-0.6c0.2-0.1,0.4-0.2,0.5-0.3c0-0.2,0-0.4,0-0.5c-0.2-0.2-0.4-0.4-0.5-0.6c0.2-0.1,0.4-0.2,0.5-0.3
			c0.2-1.4,0.5-2.7,0.7-4.1c-0.2-0.2-0.4-0.4-0.5-0.6c0.2-0.1,0.4-0.2,0.5-0.3c0.2-7-0.1-14.1,2-21c2.2-7.1,3.1-14.7,5.4-21.8
			c2.3-7.4,5.4-14.6,8.3-21.8c1.8-4.5,3.6-8.9,5.7-13.3c1.2-2.7,2.9-5.1,4.2-7.8c3.7-7.8,6.2-16.2,11.2-23.4
			c0.3-3.2,0.5-6.5,0.8-9.7c0,0,0-0.1,0-0.1C211.8,134.4,210.9,135.6,209.6,137.3z"/>
	</g>
</g>
</svg>
