<?xml version="1.0" encoding="utf-8"?>
<!-- Generator: Adobe Illustrator 16.0.0, SVG Export Plug-In . SVG Version: 6.00 Build 0)  -->
<!DOCTYPE svg PUBLIC "-//W3C//DTD SVG 1.1//EN" "http://www.w3.org/Graphics/SVG/1.1/DTD/svg11.dtd">
<svg version="1.1" xmlns="http://www.w3.org/2000/svg" xmlns:xlink="http://www.w3.org/1999/xlink" x="0px" y="0px" width="566.9px"
	 height="566.9px" viewBox="0 0 566.9 566.9" enable-background="new 0 0 566.9 566.9" xml:space="preserve">
<g id="fond" display="none">
	
		<rect x="-9532.9" y="-8228.8" display="inline" fill-rule="evenodd" clip-rule="evenodd" fill="#F2F2F2" width="15942.5" height="15814.7"/>
</g>
<g id="en_cours">
</g>
<g id="fini">
	<g>
		<circle fill-rule="evenodd" clip-rule="evenodd" fill="#A9B3C1" cx="283.5" cy="283.5" r="222.9"/>
		<path fill-rule="evenodd" clip-rule="evenodd" fill="#D23A34" d="M269.9,108.5c4.1,2.8,8.7,5.1,12.3,8.4
			c11.8,10.6,23.8,21.1,34.5,32.7c6.9,7.5,11.4,17.1,17.6,25.3c6.7,8.8,7.8,19.2,9.3,29.4c1,7,1.6,14.2,0.9,21.1
			c-0.7,7.1-2.8,14.2-5,21c-3.9,12-9.5,23-19.1,31.8c-10.2,9.4-20,19.2-29.9,28.8c-9,8.7-15.7,18.8-21.2,30.2
			c-5.3,11-8.4,22.2-7.4,34.3c0.4,4.6,2,9.1,3,13.6c0.7,4.3,1.6,8.6,2,12.9c0.9,8.3,1.4,16.6,2.2,24.9c0.2,2.3,0.9,4.6,1.7,6.7
			c2.4,5.6,5.3,11,7.4,16.7c4,10.7,10.7,18.9,20.6,24.6c-5.7,2.1-10.4-1.4-14.8-3.5c-13.7-6.6-24.3-17.2-33.6-29
			c-5.4-6.8-10.7-13.7-15.5-20.9c-1.7-2.5-1.6-6.2-2.4-9.3c-3.1-13.4-3.2-26.9-0.4-40.2c1.6-7.4,5.8-14.2,8.9-21.3
			c5.9-14,17.6-22.9,28.8-32.1c15-12.2,29.3-24.9,41-40.3c4.4-5.8,8.5-11.8,12.8-17.8c-0.5-0.4-1.1-0.8-1.6-1.2
			c-3.8,4.1-7.5,8.4-11.5,12.3c-5.9,5.7-11.9,11.1-18.1,16.5c-0.7,0.6-2.3,0.3-3.5,0.3c0.3-3.2,0.7-6.4,0.8-9.6
			c0.4-7.3,0.3-14.7,1.2-22c2.1-17.9,4.2-35.9,2.9-53.9c-0.6-7.7-1.8-15.4-3-23c-1.1-6.6-2.6-13.1-4.2-19.6
			c-2.4-9.8-4.7-19.8-7.9-29.4C276.6,120.6,272.9,114.6,269.9,108.5z"/>
		<path fill-rule="evenodd" clip-rule="evenodd" fill="#F9A01B" d="M269.9,108.5c3,6.2,6.7,12.1,8.9,18.5c3.2,9.6,5.5,19.5,7.9,29.4
			c1.6,6.5,3.1,13,4.2,19.6c1.3,7.6,2.5,15.3,3,23c1.3,18.1-0.8,36-2.9,53.9c-0.9,7.3-0.7,14.6-1.2,22c-0.2,3.2-0.6,6.4-0.8,9.6
			c-3.7,8.4-11.3,13.4-17.4,19.7c-2.2,2.3-4.4,3.3-7.2-0.8c-5-7.5-12.2-13.7-16.6-21.5c-4.1-7.3-7.5-15.8-8.3-24.1
			c-1.7-15.6,0.2-31.1,7.2-45.7c7-14.7,12.8-29.9,19.5-44.7c5.4-11.7,2.6-23.7,2.1-35.7c-0.2-4.6-0.6-9.2-1.7-13.6
			c-1.3-5.3-3.3-10.3-5.2-16.2c2.4,1.9,4.7,3.7,6.9,5.5c0.6,0.4,1.2,0.8,1.9,1.2L269.9,108.5z"/>
		<path fill-rule="evenodd" clip-rule="evenodd" fill="#FFFFFF" d="M191.1,107.6c19.4-0.3,25.8,21.9,19.7,34
			c-6.7,13.3-17.3,22.7-28.2,32.2c-3.2,2.8-6.6,5.5-9.8,8.4c-9.5,8.8-19.2,17.4-31.1,22.8c-5.3,2.4-11.4,3.9-17.2,4.7
			c-8.2,1.1-13.1-4.9-10.8-12.8c2.5-8.9,4.8-17.9,8.6-26.3c6.2-13.5,14.5-25.6,24.9-36.4c6.5-6.7,12.7-13.6,20.8-18.3
			c3.5-2,7.4-3.6,11.3-5C183,109.5,187.1,108.7,191.1,107.6z"/>
		<path fill-rule="evenodd" clip-rule="evenodd" fill="#F9A01B" d="M299,470.9c-9.9-5.6-16.6-13.9-20.6-24.6
			c-2.2-5.7-5.1-11.1-7.4-16.7c-0.9-2.1-1.5-4.4-1.7-6.7c-0.8-8.3-1.3-16.6-2.2-24.9c-0.4-4.3-1.3-8.6-2-12.9c0.7-2.9,2.1-5.8,2-8.6
			c-0.9-20.8,8.3-37.2,21.7-52c2.8-3.1,5.4-6.4,9-10.7c1.8,6.2,3,10.3,4.3,14.4c0.8,2.5,1.3,5.3,2.7,7.5c9.7,14.8,5.9,29.7,0.6,44.6
			c-4.6,12.8-10.2,25.3-13.7,38.4c-1.9,6.9-1.1,14.9,0.1,22.1C293.3,450.9,296.5,460.9,299,470.9z"/>
		<path fill-rule="evenodd" clip-rule="evenodd" fill="#00FE00" d="M270.1,108.5c-0.6-0.4-1.2-0.8-1.9-1.2
			C268.9,107.7,269.5,108.1,270.1,108.5z"/>
	</g>
</g>
</svg>
