<?xml version="1.0" encoding="utf-8"?>
<!-- Generator: Adobe Illustrator 16.0.0, SVG Export Plug-In . SVG Version: 6.00 Build 0)  -->
<!DOCTYPE svg PUBLIC "-//W3C//DTD SVG 1.1//EN" "http://www.w3.org/Graphics/SVG/1.1/DTD/svg11.dtd">
<svg version="1.1" xmlns="http://www.w3.org/2000/svg" xmlns:xlink="http://www.w3.org/1999/xlink" x="0px" y="0px" width="566.9px"
	 height="566.9px" viewBox="0 0 566.9 566.9" enable-background="new 0 0 566.9 566.9" xml:space="preserve">
<g id="fond" display="none">
	
		<rect x="-7607.9" y="-10127.9" display="inline" fill-rule="evenodd" clip-rule="evenodd" fill="#F2F2F2" width="15942.5" height="15814.7"/>
</g>
<g id="en_cours">
</g>
<g id="fini">
	<g>
		<path fill-rule="evenodd" clip-rule="evenodd" fill="#E5E2D3" d="M117.9,407.1c-0.5-16.9,3.7-32.7,9.4-48.4
			c3.1-8.7,5.5-17.5,7-26.7c1.6-10.6,3.1-21.2,6.3-31.5c1.9-6.1,0.8-12.3-1.6-18c-3-7.3-6.4-14.5-9.8-21.7
			c-5.3-11.4-10.8-22.7-16.1-34.1c-3.2-6.9-4.6-14.4-6-21.9c-1.3-7-2.6-13.9-3.7-20.9c-1.2-7.8-2.4-15.7-3.3-23.5
			c-0.8-6.9-1.6-13.9-1.6-20.8c0-6.8,0.8-13.6,1.4-20.3c0.3-3.8,0.4-7.7,1.6-11.3c2.2-6.6,4.4-13.3,7.8-19.2
			c5.6-9.7,14.3-15.9,25.6-18.1c7.7-1.5,15.4-2.2,23.2-2c2.3,0.1,4.7,0.1,7-0.1c9.8-0.8,18.2-4.2,25.3-11.4
			c6.1-6.2,11.1-13.3,16.4-20.1c7-8.9,15.4-15.5,26.5-18.5c5.1-1.4,10.3-2.5,15.2-4.1c4.8-1.6,9.2-0.3,13.7,0.8
			c12.3,3,22.9,9.4,32.6,17.4c10.4,8.6,21.2,16.4,34.4,20.3c11.1,3.3,21.9,3.1,32.8-0.2c8.3-2.5,16.7-5,25.2-7.2
			c16.1-4.2,30.7-0.7,42.8,10.6c13.2,12.5,24.8,26.5,29.8,44.6c2,7.3,3.1,14.8,4.5,22.2c2.3,12,2,24.1,2,36.2c0,1.2-0.1,2.4,0.2,3.5
			c1.8,6.3,0.5,12.7-0.5,18.8c-1.6,9.9-4.4,19.6-6.7,29.4c-2.6,11.1-8.4,20.8-13.4,30.9c-2.4,4.7-5.1,9.3-7.1,14.2
			c-1.2,2.9-1.1,6.3-1.6,9.5c-0.9,5.6-0.7,11-0.4,16.7c0.4,7.3,3.3,13.3,6.2,19.5c3.7,8.1,8.2,16,12,24c4.4,9.2,6.5,19,8.2,29
			c1.8,10.4,3,20.9,3.1,31.6c0.1,7.4,1.7,14.9,1.7,22.3c-0.1,7.1,1.1,14.1-0.5,21.2c-0.9,4-0.7,8.2-1.2,12.3
			c-0.9,7.2-1.7,14.4-3.1,21.4c-2.1,10.5-4.2,21-7,31.3c-2.2,7.9-5.4,15.6-8.4,23.3c-1.1,2.8-2.6,5.4-5.5,6.9
			c-3.1,1.6-5.8,0.8-7.1-2.6c-1.8-4.7-1-9.5-0.6-14.3c0.4-4.8,1.4-9.5,1.6-14.3c0.3-8.7,0-17.3,0.1-26c0.1-8.1-0.7-16.2-1.9-24.3
			c-0.7-4.2-0.8-8.6-1.1-12.9c-0.6-7.8-3-15.2-5.5-22.5c-4.8-14.2-12.6-27-19.8-40c-6.1-11.1-13.4-21.4-21.6-31
			c-3.2-3.8-7.2-6.5-11.7-8.2c-5-1.9-10.3,0.8-11.6,5.5c-1.2,4-2.2,8-3.2,12c-2.4,9.1-4.7,18.2-7,27.3c-2.1,8.3-4.6,16.5-6.3,24.9
			c-1.5,7.3-2.1,14.7-3.3,22c-1.5,8.8-3.2,17.5-5,26.2c-2.1,9.8-4,19.7-7,29.3c-4.7,14.6-8.6,29.5-15.9,43.1
			c-5.1,9.5-10.5,18.8-17.4,27.1c-2.5,3-5.5,5.2-9.3,6.3c-5.6,1.6-9.7-2-8.7-7.7c1.1-6.2,2.6-12.3,3.4-18.5
			c1.3-10.6,0.7-21.1-2.1-31.5c-2.6-9.3-4.2-18.7-3.8-28.4c0.3-6.3-0.5-12.6-1.8-18.8c-0.6-3.1-1.1-6.2-1.1-9.3
			c0.1-9-1.9-17.7-4.1-26.4c-3.1-12.1-6.1-24.3-11.1-35.9c-3.1-7.1-6.5-14.1-9.8-21.2c-4.5-9.5-11.6-17.1-18.9-24.3
			c-2.8-2.8-7.3-3.1-11.2-1.2c-6.8,3.3-11.7,8.6-15.8,14.8c-0.9,1.4-1.6,2.9-2.3,4.4c-2.1,4.1-4.1,8.2-5.7,12.6
			c-4.6,12-9.7,23.9-14.8,35.7c-3.5,8.2-7.9,16-11,24.4c-2.8,7.5-4.7,15.5-6.2,23.3c-1.6,8.2-2.8,16.6-3.4,25
			c-0.4,7.1-1,14.2-0.7,21.2c0.2,5.4,1.3,10.8,1.7,16.3c0.3,4.3,0.4,8.7,0.1,13c-0.2,3.6-4.6,5.8-8.5,4.5c-3-1-5.6-2.8-7.4-5.6
			c-4.3-6.4-6.6-13.6-9-20.8c-2.5-7.5-5.1-14.9-7.6-22.5c-2.5-7.7-5.1-15.4-6.9-23.2c-1.5-6.6-2-13.4-2.5-20.1
			C118.5,424.1,118.3,415.6,117.9,407.1z M149.7,118.7c1.2,4.3,3.7,7.6,6.8,10.6c6.3,6,12.6,11.8,20.6,15.4c6.1,2.7,12.6,3.1,19,3.6
			c11.2,0.8,22.3-0.3,32.6-5.1c9.8-4.5,19.4-9.2,29.3-13.6c11.5-5.1,23.4-6.7,35.8-3.8c9.1,2.2,18.2,4.8,27.3,6.9
			c12.9,2.9,25.9,4.4,39,1.3c7.4-1.8,14.8-3.9,20.9-8.8c8.1-6.5,14.5-14.6,20.6-22.9c2-2.8,4-6,3.3-9.9c-2.9,4.2-5.6,8.3-8.5,12.3
			c-5.1,7-10.9,13.4-19.6,16.2c-7.5,2.4-14.6,5.9-22.8,6.5c-8.3,0.7-16.6,1-24.7-1.2c-8.1-2.2-16.1-4.7-24.1-7.3
			c-11.2-3.6-22.4-6.2-34.3-4.4c-8.9,1.4-17.4,3.5-25.5,7.9c-11,6-22.6,10.9-34.1,16c-7.2,3.2-14.9,3.2-22.5,2.3
			c-7.3-0.9-14-4-20.7-6.8c-1.6-0.7-3.1-1.8-4.6-2.8C158.4,127.6,153.7,123.6,149.7,118.7z"/>
		<path fill-rule="evenodd" clip-rule="evenodd" fill="#C9C3AD" d="M263,406.3c-0.9,4.5-1.6,9.1-2.8,13.5
			c-1.7,6.4-1.1,12.9-0.9,19.3c0.2,4.6,1,9.2,1.6,13.8c0.3,2.3,0.9,4.5,1.2,6.8c0.3,2.8,0.5,5.7-2,7.8c-2,1.7-4.8,1.6-7.2-0.5
			c-1.2-1.1-2.2-2.5-3.1-3.8c-9.9-14.7-16.1-31-20.6-48c-1.8-7-3.2-14.2-3.9-21.4c-0.5-5,0.6-10.2,1-15.3c0.6-6.7,1.2-13.3-0.1-20
			c-0.4-1.9-0.1-4-0.1-6c0-3,0-5.9-1.2-8.8c-1.1-2.7-0.2-5.6,1.7-6.6c1.8-0.9,4.2-0.4,6.3,1.7c1.3,1.3,2.6,2.7,3.5,4.2
			c9.9,16.1,18.8,32.7,24.3,50.9c0.5,1.7,1.2,3.5,1.4,5.2c0.3,2.3,0.3,4.6,0.4,7C262.7,406.2,262.8,406.3,263,406.3z"/>
		
			<ellipse transform="matrix(-0.9454 -0.3258 0.3258 -0.9454 198.2504 232.3167)" fill-rule="evenodd" clip-rule="evenodd" fill="#FFFFFF" cx="118.6" cy="99.6" rx="6.4" ry="13.6"/>
		
			<ellipse transform="matrix(-0.8413 -0.5405 0.5405 -0.8413 388.3377 191.7479)" fill-rule="evenodd" clip-rule="evenodd" fill="#FFFFFF" cx="222.3" cy="38.9" rx="6.4" ry="13.6"/>
		
			<ellipse transform="matrix(-0.3968 -0.9179 0.9179 -0.3968 482.9614 431.7329)" fill-rule="evenodd" clip-rule="evenodd" fill="#FFFFFF" cx="383.3" cy="57.2" rx="6.4" ry="13.6"/>
		
			<ellipse transform="matrix(-0.3968 -0.9179 0.9179 -0.3968 240.4968 434.4401)" fill-rule="evenodd" clip-rule="evenodd" fill="#FFFFFF" cx="263" cy="138.2" rx="6.4" ry="13.6"/>
	</g>
</g>
</svg>
