<?xml version="1.0" encoding="utf-8"?>
<!-- Generator: Adobe Illustrator 16.0.0, SVG Export Plug-In . SVG Version: 6.00 Build 0)  -->
<!DOCTYPE svg PUBLIC "-//W3C//DTD SVG 1.1//EN" "http://www.w3.org/Graphics/SVG/1.1/DTD/svg11.dtd">
<svg version="1.1" xmlns="http://www.w3.org/2000/svg" xmlns:xlink="http://www.w3.org/1999/xlink" x="0px" y="0px" width="566.9px"
	 height="566.9px" viewBox="0 0 566.9 566.9" enable-background="new 0 0 566.9 566.9" xml:space="preserve">
<g id="fond" display="none">
	
		<rect x="-10187.9" y="-9494.9" display="inline" fill-rule="evenodd" clip-rule="evenodd" fill="#F2F2F2" width="15942.5" height="15814.7"/>
</g>
<g id="en_cours">
</g>
<g id="fini">
	<g>
		<path fill-rule="evenodd" clip-rule="evenodd" fill="#8C959D" d="M426.6,218.5c3.1,11.1,11,19.4,16.2,29.3
			c1.3,2.5,2.8,4.9,4.1,7.4c1.2,2.4,0.9,3-1.8,2.8c-1.9-0.1-3.8-0.7-5.7-1.1c-1.9-0.4-3.8-0.9-5.7-1.3c-1.3-0.2-2,0.2-2.3,1.6
			c-0.5,2.5-1.2,5-1.9,7.6c-0.8,3.1-1.9,3.7-4.9,3c-2.5-0.5-5.2-0.7-7.7-1.4c-2.2-0.6-2.7,0.5-3.1,2.2c-0.5,2.2-1,4.4-1.4,6.6
			c-0.5,2.6-1.5,3.2-4.1,2.2c-1.5-0.6-3-1.3-4.5-1.8c-3.9-1.4-5.8-0.4-7.1,3.4c-0.6,1.6-1,3.3-1.5,5c-1.2,3.7-2.6,4.5-6.4,3.6
			c-2.3-0.5-4.7-0.8-7.1-1.1c-2.5-0.3-4.2,0.7-5.1,3.1c-1.1,2.8-2.2,5.7-3.3,8.5c-0.9,2.3-1.2,2.5-3.6,1.9c-1.9-0.5-3.8-1.1-5.7-1.3
			c-1.8-0.1-3.7,0.1-5.5,0.6c-1.2,0.3-1.6,1.5-1.9,2.8c-0.5,3-1.2,5.9-1.9,8.9c-0.7,2.9-1.1,3-4,2.5c-3-0.5-6-0.8-9.1-1.2
			c-0.7-0.1-1.3,0-2,0.1c-1.6,0.3-2.8,0.6-3.1,2.7c-0.3,2.1-1.1,4.2-1.8,6.2c-0.9,2.9-1.7,3.6-4.6,3.6c-1.8,0-3.5,0-5.3,0
			c-3.4-0.1-3.4-0.1-4.8,3.2c-0.9,2.2-1.7,4.4-2.6,6.6c-0.4,1-1,1.9-1.6,2.8c-0.9,1.3-1.9,1.6-3.6,0.7c-2.2-1.1-4.7-1.8-7.1-2.4
			c-3.2-0.9-4.4,0-5,3.3c-0.5,2.9-0.9,5.8-1.4,8.7c-0.6,3.6-1.9,4.4-5.6,3.8c-2.6-0.4-5.2-0.7-7.8-0.8c-3.3-0.1-3.6,0.1-4.6,3.3
			c-0.5,1.5-1,3.1-1.4,4.7c-0.6,1.9-1.7,2.9-3.9,2.7c-2.8-0.3-5.7-0.4-8.5-0.7c-1.3-0.1-1.9,0.4-2.2,1.7c-0.7,2.8-1.5,5.6-2.4,8.4
			c-0.9,2.8-1.5,3-4.4,2.4c-3-0.7-5.9-1.3-8.9-1.8c-1.9-0.3-3,0.5-3.5,2.6c-0.7,3.5-1.6,7-2.5,10.4c-0.7,2.7-1.7,3.1-4.5,2.3
			c-2.8-0.9-5.6-1.5-8.4-2.3c-1.5-0.4-2.1,0.2-2.5,1.4c-0.6,1.8-1.4,3.6-1.8,5.5c-0.4,1.9-1.2,2.5-3.2,2.2c-3.1-0.5-6.3-0.5-9.5-1
			c-2.2-0.3-3,0.9-3.2,2.7c-0.4,2.4-0.6,4.8-0.8,7.2c-0.2,3.5-1.7,4.6-5,3.5c-2.3-0.7-4.6-1.4-6.9-1.9c-2.2-0.5-3.6,0.4-4.4,2.6
			c-0.7,1.9-1.5,3.8-2.2,5.8c-0.7,2-2,3-4.2,2.9c-2.6-0.2-5.3-0.1-7.9-0.3c-1.3-0.1-1.9,0.1-2.4,1.5c-0.8,2.1-1.7,4.9-3.4,5.7
			c-1.7,0.8-4.4-0.3-6.6-0.6c-2.8-0.4-4.2,0.4-4.9,3.3c-0.5,1.8-0.8,3.6-1.3,5.3c-0.8,2.5-1.7,3-4.2,2.3c-1.2-0.3-2.2-0.8-3.4-1.2
			c-3.1-0.9-4.7,0.2-5.4,3.3c-0.4,2-1,4-1.3,6c-0.3,1.9-1.5,2.1-2.8,1.8c-2.2-0.5-4.4-1.2-6.6-1.7c-1-0.2-2-0.4-2.9-0.2
			c-1.4,0.3-3,0.6-3.1,2.7c-0.1,1.9-0.7,3.8-1.1,5.7c-0.3,1.4-1,2.4-2.6,2.1c-2.5-0.3-5-0.4-7.5-1c-1.8-0.5-2.1,0.3-2.4,1.6
			c-0.4,1.9-0.9,3.8-1.5,5.7c-0.7,2.4-2.2,3.3-4.6,2.9c-0.7-0.1-1.5-0.4-2.2-0.5c-5.1-0.4-5.2-0.3-6.5,4.8c-0.9,3.9-1.7,4.5-5.9,4.5
			c-1.8,0-3.5-0.1-5.3,0c-2.2,0.1-2.5,0.6-2.8,2.8c-0.3,2.5-0.6,5-1,7.4c-0.5,3.5-1.6,3.2-4.6,3c-2.3-0.2-4.6-0.5-6.8-0.9
			c-1.6-0.3-2.4,0.1-2.7,1.9c-0.3,1.8-1,3.5-1.5,5.3c-0.4,1.7-1.4,2.6-3.2,2.5c-2.8-0.1-5.5-0.1-8.3-0.2c-1.2,0-2,0.1-2.2,1.7
			c-0.3,2.7-0.8,5.4-1.2,8.1c-0.2,1.6-0.5,3.1-2.2,3.6c-2,0.6-3.2-0.6-4-2.1c-3.5-6-6.9-12.1-10.5-18.1c-3.7-6.2-7.1-12.5-11.3-18.3
			c-5.7-7.9-10.9-16-15.2-24.8c-0.2-0.5-0.6-0.9-0.7-1.4c-0.2-1.2-0.4-2.3-0.4-3.5c-0.1-1.5,1.4-1.4,2.2-2c3.5-2.8,7.2-5.4,10.5-8.4
			c8-7.1,15.9-14.4,23.7-21.7c10.2-9.6,20.3-19.4,30.5-29c3.6-3.4,7.5-6.5,11.2-9.7c2.5-2.2,5-4.3,7.5-6.4
			c7-5.9,13.9-11.8,20.9-17.7c4.9-4.1,9.7-8.3,14.6-12.4c4.2-3.5,8.5-7,12.7-10.6c3.5-3,6.9-6.2,10.4-9.2
			c6.3-5.4,12.6-10.7,18.9-15.9c6.2-5.1,12.5-10.1,18.7-15.1c5.6-4.5,11.1-9,16.6-13.5c2-1.7,4.1-3.4,6-5.2c7.7-7,15.2-14,23-20.9
			c8.2-7.3,16.5-14.5,24.9-21.6c9.5-8,19.2-15.7,28.8-23.7c3.3-2.8,6.5-5.6,9.5-8.7c5.5-5.8,12.1-10.2,18.2-15.2
			c6.1-4.9,12.2-9.6,18.2-14.7c1.6-1.4,2.6-3.5,3.9-5.2c1.9-0.1,3.2,1.1,4.3,2.4c2,2.6,4.1,5.1,5.9,7.8
			c8.6,13.1,17.2,26.1,25.6,39.3c4.6,7.3,9.4,14.3,15.8,20.1c2.6,2.3,5.5,4.4,8.7,4.8c6.7,0.8,13.6,1.2,19.3-3.6
			C423.7,218.9,424.9,217.9,426.6,218.5z"/>
		<path fill-rule="evenodd" clip-rule="evenodd" fill="#AB2E23" d="M422.5,219.8c-5.8,4.8-12.6,4.4-19.3,3.6
			c-3.2-0.4-6.2-2.5-8.7-4.8c-6.4-5.8-11.2-12.8-15.8-20.1c-8.4-13.2-17-26.3-25.6-39.3c-1.8-2.7-3.9-5.2-5.9-7.8
			c-2.8-3.1-7.7-11.1-8.4-13.2c-0.6-1.6-1-2.8,0.4-4.1c3.5-3,6.9-6.1,10.5-9c7.4-5.8,14.8-11.6,22.4-17.2c4.4-3.2,9.2-5.9,13.6-9.1
			c8.4-6.1,16.7-12.3,25.1-18.4c6.9-5,14.2-9.4,20.8-14.7c12.5-10,26.3-17.9,39.5-26.8c3-2,6.2-1.8,9.4-1.6c0.8,0,1.7,1,2.2,1.7
			c1.6,2.5,2.6,5.2,2.7,8.2c0,2.3,0.3,4.6,0.4,6.9c0.1,2.7,1.5,4.4,3.8,5.6c2.1,1.1,4.2,2.4,6.4,3.4c11.9,5.9,21.8,14.1,30.1,24.3
			c7.3,8.9,11.9,19.2,14.9,30.2c1.3,4.7,2.3,9.4,3.3,14.2c0.6,3.2,0.9,6.5,1.4,9.7c0.3,2,1.1,3.3,3.4,3.8c2.2,0.4,4.2,1.8,6.4,2.3
			c2,0.5,3,1.7,3.7,3.4c1.7,4,1.7,8.1-0.4,12c-3.6,6.6-8.4,12.2-13.8,17.4c-0.2,0.2-0.3,0.3-0.5,0.4c-8,8.3-17.4,14.9-26.9,21.4
			c-7.6,5.3-15.5,9.4-24.3,12c-5.6,1.7-11.3,1.6-16.9,0.6c-5.2-0.9-10.3-2.6-15.5-3.3c-5-0.7-10.1-0.8-15.1-0.7
			c-3.4,0-6.9,0.6-10.3,1.3c-1.9,0.4-3.7,1.3-5.4,2.3C429,215.4,423.7,218.9,422.5,219.8z M523.3,161.4c-0.2-1.8-0.2-3.7-0.7-5.5
			c-1.3-5.2-4.6-9.1-8.6-12.4c-3.7-3.1-7.7-5.8-11.3-9c-3.5-3.2-7-6.4-9.7-10.3c-3.3-4.8-6.1-10-8.3-15.3
			c-2.4-5.7-4.3-11.7-5.9-17.8c-2.1-8.2-7.3-13.6-14.8-17.1c-3.5-1.6-6.8-1.4-9.9,0.7c-3.9,2.7-8,5.4-11.7,8.4
			c-8.1,6.6-16.1,13.3-24,20c-5.7,4.9-5.7,14.9-1.5,19.2c3.1,3.2,6.9,5.3,11.2,6.4c10.7,2.7,20.8,6.7,30.2,12.6
			c7.5,4.8,14.8,9.7,20.3,16.9c2.1,2.8,4.5,5.4,6.5,8.3c2.8,4,5.3,8.2,8.1,12.2c1.9,2.7,4.6,4.1,8,4.5c5,0.6,9.2-1.1,12.9-4.4
			C519.5,174.4,523.9,169.2,523.3,161.4z M382.2,152.8c0,2.4-1.9,4.3-4.3,4.3s-4.3-1.9-4.3-4.3s1.9-4.3,4.3-4.3
			S382.2,150.4,382.2,152.8z M411.5,194c0,2.4-1.9,4.3-4.3,4.3s-4.3-1.9-4.3-4.3s1.9-4.3,4.3-4.3S411.5,191.6,411.5,194z"/>
		<path fill-rule="evenodd" clip-rule="evenodd" fill="#AB2E23" d="M166,455.5"/>
		<g>
			<defs>
				<path id="SVGID_5_" d="M439.3,249.7c-1.8-3.4-3.9-6.6-6.2-10c-3.3-5-6.7-10.2-9-16.1c-3.9,2.9-8.5,4.3-14.3,4.3
					c-2.4,0-4.9-0.2-7.1-0.5c-4.6-0.5-8.3-3.4-11-5.8c-7-6.3-12-13.8-16.5-20.9c-7.8-12.2-15.9-24.5-23.7-36.5l-1.9-2.8
					c-1.3-2-2.9-3.9-4.5-6c-0.3-0.4-0.7-0.8-1-1.3c-0.7,1.1-1.6,2.2-2.7,3.1c-3.9,3.3-8,6.5-11.9,9.7c-2.1,1.6-4.2,3.4-6.3,5
					c-1.7,1.4-3.5,2.8-5.3,4.1c-4.5,3.5-8.8,6.8-12.6,10.7c-2.7,2.8-5.8,5.7-9.8,9c-4.3,3.6-8.7,7.2-12.9,10.6
					c-5.2,4.3-10.6,8.7-15.8,13c-7.5,6.3-15.6,13.4-24.9,21.6c-4.9,4.4-9.8,8.9-14.6,13.2c-2.8,2.6-5.6,5.1-8.4,7.6
					c-1.9,1.8-4,3.5-6.2,5.3c-5.7,4.7-11.6,9.4-16.6,13.5c-2.2,1.8-4.4,3.5-6.6,5.3c-4,3.2-8.1,6.5-12.1,9.8
					c-6.8,5.6-13.4,11.2-18.9,15.9c-1.7,1.5-3.5,3.1-5.2,4.6c-1.7,1.5-3.4,3.1-5.2,4.6c-2.4,2-4.8,4.1-7.2,6c-1.8,1.5-3.7,3-5.5,4.6
					c-2.8,2.4-5.7,4.9-8.5,7.2c-2,1.7-4,3.5-6.1,5.2c-4.2,3.6-8.5,7.2-12.7,10.8c-2.7,2.3-5.4,4.6-8.1,6.9l-0.2,0.2
					c-2.4,2.1-4.9,4.1-7.3,6.2c-1.1,1-2.3,1.9-3.4,2.9c-2.6,2.2-5.2,4.4-7.7,6.7c-5,4.8-10.1,9.6-15.1,14.4
					c-5,4.8-10.2,9.8-15.4,14.6c-7.9,7.4-15.9,14.8-23.7,21.8c-2.3,2.1-4.8,3.9-7.1,5.7c-1.2,0.9-2.4,1.8-3.6,2.8
					c-0.2,0.1-0.4,0.3-0.5,0.4c0,0.3,0.1,0.6,0.1,0.9c0.1,0.2,0.3,0.5,0.5,0.8c3.8,7.7,8.6,15.6,14.9,24.2c3.3,4.6,6.1,9.5,8.9,14.2
					c0.9,1.5,1.7,3,2.6,4.5c2.1,3.5,4.1,7.1,6.1,10.5c1.1,2,2.3,4.1,3.5,6.1c0.1-0.6,0.2-1.1,0.3-1.7c0.3-1.6,0.5-3.2,0.7-4.7
					c0.3-3.3,2.5-5.3,5.8-5.3c0.2,0,0.3,0,0.5,0c1.5,0.1,3,0.1,4.5,0.1c1.1,0,2.1,0,3.2,0.1c0.2-0.6,0.4-1.2,0.5-1.8
					c0.3-1,0.6-1.9,0.7-2.7c0.8-4.9,4.7-5.3,5.8-5.3c0.5,0,1,0,1.5,0.1c2.2,0.4,4.3,0.8,6.4,0.9l0.5,0c0.3-2.3,0.7-4.6,0.9-6.9
					c0.3-3,1.3-6.1,6.5-6.4c0.7,0,1.3-0.1,2.1-0.1c0.6,0,1.1,0,1.7,0c0.5,0,1,0,1.6,0H96c0.9,0,1.4,0,1.7-0.1
					c0.1-0.3,0.2-0.7,0.4-1.3c1-3.9,1.9-8,7.7-8c0.8,0,1.8,0.1,3,0.2c0.8,0.1,1.5,0.3,2.1,0.4c0.2,0.1,0.4,0.1,0.6,0.1c0,0,0,0,0,0
					c0.6-2,1-3.7,1.4-5.4c0.9-4,3.4-4.8,5.4-4.8c0.6,0,1.2,0.1,1.9,0.3c1.3,0.3,2.7,0.5,4.3,0.6c0.4,0,0.8,0.1,1.2,0.1
					c0-0.2,0.1-0.4,0.1-0.6c0.3-1.2,0.6-2.4,0.7-3.4c0.3-5,4.6-6,6-6.3l0.2,0c0.6-0.1,1.2-0.2,1.8-0.2c1.1,0,2.1,0.2,2.9,0.4
					c1.1,0.2,2.1,0.5,3.2,0.8c0.6,0.2,1.2,0.3,1.7,0.5c0.2-0.9,0.4-1.8,0.6-2.6c0.1-0.6,0.3-1.2,0.4-1.7c1.3-6.1,5.7-6.7,7.5-6.7
					c0.9,0,1.9,0.1,2.9,0.4c0.7,0.2,1.4,0.5,2,0.7c0.3,0.1,0.6,0.2,0.8,0.3c0.2-0.8,0.4-1.5,0.6-2.4c0.2-0.7,0.3-1.5,0.6-2.3
					c1.4-5.2,4.9-6.3,7.5-6.3c0.6,0,1.2,0,1.8,0.2c0.8,0.1,1.5,0.3,2.3,0.5c0.7,0.2,1.4,0.3,1.9,0.4c0.4-0.6,0.9-1.9,1.2-2.7
					c0.1-0.3,0.2-0.5,0.3-0.8c1.3-3.3,3.8-4,5.6-4c0.3,0,0.5,0,0.8,0c1.3,0.1,2.7,0.1,4.1,0.2c1.2,0,2.5,0.1,3.8,0.2
					c0,0,0.1,0,0.1,0c0-0.1,0.1-0.2,0.1-0.3c0.6-1.5,1.2-3.1,1.8-4.6l0.5-1.2c1.3-3.3,3.9-5.3,7.1-5.3c0.6,0,1.3,0.1,2,0.2
					c2.1,0.5,4.3,1.1,7,1.9c0.2-2.6,0.4-5.1,0.8-7.5c0.7-4.5,3.9-6.1,6.6-6.1c0.4,0,0.7,0,1.1,0.1c1.3,0.2,2.6,0.3,4,0.4
					c1.5,0.1,2.9,0.2,4.5,0.4c0.3-1.3,0.8-2.5,1.2-3.7c0.1-0.4,0.3-0.8,0.4-1.2c1.3-3.8,4.2-4.2,5.4-4.2c0.6,0,1.3,0.1,2,0.3
					c1.3,0.4,2.6,0.7,4,1.1c1.3,0.3,2.7,0.7,4,1.1l0.2-0.9c0.7-2.8,1.5-5.8,2.1-8.7c0.9-4.3,4-5.9,6.7-5.9c0.4,0,0.9,0,1.3,0.1
					c3,0.5,6,1.1,9,1.8c0.9-2.7,1.6-5.3,2.2-7.7c1-4.3,4.4-4.8,5.7-4.8c0.2,0,0.5,0,0.7,0c1.1,0.1,2.2,0.2,3.4,0.3
					c1.6,0.1,3.3,0.2,4.9,0.4c0.1-0.5,0.3-1,0.4-1.4c0.3-1,0.6-2.1,1-3.1c0.9-2.7,2-6.1,7.4-6.1c0.4,0,0.8,0,1.2,0
					c2.6,0.1,5.3,0.4,8.3,0.8c0.3,0.1,0.6,0.1,0.9,0.1c0-0.2,0.1-0.4,0.1-0.6c0.3-1.7,0.5-3.4,0.8-5.1c0.2-1.2,0.4-2.4,0.6-3.6
					c0.9-5.8,4.3-7,6.9-7c0.9,0,1.9,0.1,3,0.4c2.2,0.6,4.7,1.2,7,2.3c0.2-0.4,0.4-0.7,0.5-1.1c0.5-1.1,0.9-2.2,1.3-3.3
					c0.4-1.1,0.8-2.2,1.3-3.3c1.5-3.5,2.7-5.6,7.4-5.6c0.3,0,0.7,0,1.1,0h0.1c1.2,0,2.4,0,3.6,0c0.5,0,1.1,0,1.6,0
					c0.2,0,0.4,0,0.5,0c0.1-0.2,0.2-0.4,0.3-0.8c0.2-0.6,0.4-1.2,0.6-1.9c0.4-1.3,0.9-2.6,1-3.7c0.6-5.3,5-5.9,6.4-6.2
					c0.7-0.1,1.3-0.2,1.9-0.2c0.4,0,0.8,0,1.2,0.1c0.6,0.1,1.2,0.1,1.8,0.2c2.3,0.3,4.7,0.5,7,0.9c0.6-2.7,1.3-5.4,1.7-8
					c0.6-4.2,3-5.6,4.9-6.1c2-0.5,3.8-0.7,5.5-0.7c0.4,0,0.8,0,1.3,0c1.8,0.1,3.4,0.6,4.9,1c0.2,0.1,0.5,0.1,0.7,0.2
					c0.4-1,0.7-1.9,1.1-2.9c0.6-1.6,1.2-3.2,1.9-4.8c1.4-3.7,4.3-5.8,8-5.8c0.5,0,0.9,0,1.4,0.1l0.2,0c2.4,0.3,4.8,0.6,7.2,1.2
					c0.6,0.1,1,0.2,1.3,0.2c0.1-0.2,0.3-0.6,0.4-1.2c0.2-0.7,0.4-1.4,0.6-2.1c0.3-0.9,0.6-1.9,0.9-2.9c1.5-4.4,4.2-6.7,8-6.7
					c1.3,0,2.6,0.3,4.2,0.8c1.1,0.4,2.2,0.8,3.3,1.3c0.1,0.1,0.2,0.1,0.4,0.2c0.3-1.2,0.5-2.4,0.8-3.6c0.1-0.6,0.3-1.3,0.4-1.9
					c1-4.8,4.2-5.5,5.9-5.5c0.7,0,1.3,0.1,2.1,0.3c1.2,0.3,2.5,0.5,3.9,0.7c1.1,0.2,2.3,0.3,3.6,0.6c0.1,0,0.1,0,0.2,0
					c0,0,0-0.1,0-0.1c0.1-0.5,0.3-1,0.4-1.6c0.5-2,1-3.9,1.4-5.8c0.7-3.6,3.4-4.9,5.6-4.9c0.4,0,0.9,0,1.4,0.1
					c1.2,0.2,2.3,0.5,3.5,0.7c0.8,0.2,1.6,0.4,2.3,0.5c0.4,0.1,0.7,0.2,1.1,0.2c-0.1-0.1-0.1-0.2-0.2-0.3
					C440.5,252,439.9,250.9,439.3,249.7z"/>
			</defs>
			<clipPath id="SVGID_2_">
				<use xlink:href="#SVGID_5_"  overflow="visible"/>
			</clipPath>
			<g clip-path="url(#SVGID_2_)">
				
					<rect x="197.6" y="191.5" transform="matrix(0.9842 0.1772 -0.1772 0.9842 59.3535 -30.6685)" fill-rule="evenodd" clip-rule="evenodd" fill="#FFFFFF" width="7.7" height="251.1"/>
				
					<rect x="220.7" y="178.8" transform="matrix(0.9842 0.1772 -0.1772 0.9842 57.5613 -35.9655)" fill-rule="evenodd" clip-rule="evenodd" fill="#FFFFFF" width="18.9" height="251.1"/>
			</g>
		</g>
	</g>
</g>
</svg>
