<?xml version="1.0" encoding="utf-8"?>
<!-- Generator: Adobe Illustrator 16.0.0, SVG Export Plug-In . SVG Version: 6.00 Build 0)  -->
<!DOCTYPE svg PUBLIC "-//W3C//DTD SVG 1.1//EN" "http://www.w3.org/Graphics/SVG/1.1/DTD/svg11.dtd">
<svg version="1.1" xmlns="http://www.w3.org/2000/svg" xmlns:xlink="http://www.w3.org/1999/xlink" x="0px" y="0px" width="566.9px"
	 height="566.9px" viewBox="0 0 566.9 566.9" enable-background="new 0 0 566.9 566.9" xml:space="preserve">
<g id="fond" display="none">
	
		<rect x="-9532.9" y="-8861.9" display="inline" fill-rule="evenodd" clip-rule="evenodd" fill="#F2F2F2" width="15942.5" height="15814.7"/>
</g>
<g id="en_cours">
</g>
<g id="fini">
	<g>
		<g>
			<path fill-rule="evenodd" clip-rule="evenodd" fill="#AB2E23" d="M206.2,142.3c-7,84.5-50.6,166-45.9,218.9
				c2.2,25.2,15.6,48.5,48.5,47.5c26.9-0.8,37.5-23.8,39.4-47.4C252.5,307.6,215.2,237.3,206.2,142.3z"/>
			<path fill-rule="evenodd" clip-rule="evenodd" fill="#E5E2D3" d="M240.8,330.2c2.4,8.5,1.2,16.4-2.8,17.5
				c-4,1.1-9.2-4.9-11.6-13.4c-2.4-8.5-1.2-16.4,2.8-17.5C233.2,315.7,238.4,321.7,240.8,330.2z"/>
		</g>
		<g>
			<path fill-rule="evenodd" clip-rule="evenodd" fill="#AB2E23" d="M272.2,8.6c-4.6,55-32.9,108-29.9,142.4
				c1.4,16.4,10.1,31.6,31.6,30.9c17.5-0.6,24.4-15.5,25.6-30.9C302.3,116.2,278.1,70.4,272.2,8.6z"/>
			
				<ellipse transform="matrix(0.9613 -0.2756 0.2756 0.9613 -23.3175 83.9063)" fill-rule="evenodd" clip-rule="evenodd" fill="#E5E2D3" cx="286.9" cy="124.9" rx="6" ry="13.9"/>
		</g>
		<g>
			<path fill-rule="evenodd" clip-rule="evenodd" fill="#AB2E23" d="M346.8,170.9c-10,120.1-71.9,236-65.3,311.2
				c3.2,35.8,22.1,69,69,67.5c38.3-1.2,53.3-33.9,56-67.4C412.6,406,359.6,306.1,346.8,170.9z"/>
			
				<ellipse transform="matrix(0.9613 -0.2757 0.2757 0.9613 -104.4221 121.8989)" fill-rule="evenodd" clip-rule="evenodd" fill="#E5E2D3" cx="381.4" cy="432.4" rx="11.4" ry="24.5"/>
		</g>
	</g>
</g>
</svg>
