<?xml version="1.0" encoding="utf-8"?>
<!-- Generator: Adobe Illustrator 16.0.0, SVG Export Plug-In . SVG Version: 6.00 Build 0)  -->
<!DOCTYPE svg PUBLIC "-//W3C//DTD SVG 1.1//EN" "http://www.w3.org/Graphics/SVG/1.1/DTD/svg11.dtd">
<svg version="1.1" xmlns="http://www.w3.org/2000/svg" xmlns:xlink="http://www.w3.org/1999/xlink" x="0px" y="0px" width="566.9px"
	 height="566.9px" viewBox="0 0 566.9 566.9" enable-background="new 0 0 566.9 566.9" xml:space="preserve">
<g id="fond" display="none">
	
		<rect x="-8249.9" y="-7591.9" display="inline" fill-rule="evenodd" clip-rule="evenodd" fill="#F2F2F2" width="15942.5" height="15814.7"/>
</g>
<g id="en_cours">
</g>
<g id="fini">
	<g>
		<path fill-rule="evenodd" clip-rule="evenodd" fill="#A48460" d="M352.3,541.3c-1.5-0.1-2.5,0.2-3.3,1.9c-1,2.3-3.6,3.2-5.6,4.6
			c-2.1,1.5-4.1,3-6.3,4.3c-2.2,1.4-4.6,2.7-6.9,4c-1.8,1-3.7,1.9-5.5,2.8c-1.4,0-2.8,0-4.2,0c-1.3-0.5-2.5-1-3.8-1.6
			c-3.8-1.7-6-4.8-7.6-8.6c-1.1-2.8-2.3-5.6-1.8-8.6c0.6-3.4,1-6.8,2.5-10c1.7-3.7,2.8-7.6,4.6-11.3c1.2-2.4,3-4.5,4.6-6.7
			c0.8-1.2,1.6-2.3,2.4-3.5c0.4-0.5,0.9-0.9,1.3-1.4c0.3,0,0.5,0.1,0.8,0c4.5-1.3,9-0.7,13.3,0.3c5.6,1.2,9.1,5.4,11.8,10
			c2.3,3.8,3.7,7.9,4,12.4C352.9,533.8,353.3,537.5,352.3,541.3z"/>
		<path fill-rule="evenodd" clip-rule="evenodd" fill="#A48460" d="M404,8c2,1.2,2.1,3.1,1.9,5.1c-2.5,2.6-5.8,2.5-9,2.8
			c-1.9,0.2-3.9,0.1-5.8,0.3c-3.3,0.4-6.6,0.9-9.8,1.4c-2.7,0.4-5.4,0.7-8.1,1.2c-3.4,0.6-6.8,1.4-10.3,2c-2.6,0.5-5.4,0.5-7.9,1.2
			c-4.3,1.1-8.6,2.5-12.9,3.8c-1.4,0.4-2.9,0.7-4.3,1.2c-1.5,0.5-3,1.1-4.5,1.5c-1.7,0.4-3.5,0.4-5.2,0.9c-2.2,0.7-4.3,1.6-6.5,2.4
			c-3.3,1.2-6.5,2.4-9.8,3.5c-3,1.1-6,2.2-9.1,3.2c-2.3,0.7-4.8,1.2-7.1,1.8c-4.8,1.4-9.6,3-14.4,4.3c-3.7,1-7.6,1.4-11.4,2.2
			c-6.3,1.4-12.5,2.9-18.7,4.6c-3.9,1.1-7.7,2.5-11.6,3.8c-2.1,0.7-4.1,1.3-6.2,2c-2.3-0.9-3.3-2.4-2.5-4.6c0.4-0.9,1.4-1.8,2.4-2.2
			c4.3-1.8,8.7-3.5,13.1-5.1c3-1.1,6.1-1.9,9.2-2.7c1.7-0.5,3.5-0.8,5.3-1.1c2.1-0.4,4.3-0.7,6.5-1.1c4.3-0.9,8.6-1.8,12.9-2.8
			c2.5-0.6,5-1.5,7.5-2.3c2.3-0.7,4.6-1.5,6.9-2.2c4.8-1.4,9.7-2.8,14.6-4.2c4.1-1.2,7.9-2.9,11.8-4.4c3.7-1.4,7.6-2.2,11.4-3.3
			c1.9-0.6,3.8-1.6,5.7-1.8c3.2-0.3,6.1-1.4,9-2.4c3.4-1.3,7-1.5,10.5-2.1c2.7-0.5,5.4-0.9,8.1-1.4c4-0.7,8-1.7,12-2.1
			c5.6-0.5,11.1-1.4,16.6-1.9c2.9-0.3,5.6-0.6,8.4-1.4C403.1,8,403.6,8,404,8z"/>
		<path fill-rule="evenodd" clip-rule="evenodd" fill="#A48460" d="M95.3,509.9c-2.5,2.3-5.5,3.5-8.6,4.6c-3,1.1-6.3,1.4-9.3,2.3
			c-2.3,0.7-4.5,0.9-6.6,0.6c-2.6-0.3-5.4-0.8-7.6-2.8c-1.4-1.3-3.3-2-4.1-3.9c-0.8-2-1.5-4.1-2.3-6.2c-0.2-0.5-0.5-1-0.7-1.5
			c0-0.4,0-0.9,0-1.3c0.1-0.5,0.3-1.1,0.3-1.6c0.2-2.2-0.1-4.6,0.8-6.5c1.3-2.9,2.9-5.8,5.4-8c1.9-1.7,3.4-3.9,5.1-5.8
			c0.6-0.7,1.5-1.3,2.3-1.8c1.4-0.8,2.9-1.6,4.3-2.4c0.2-0.1,0.5-0.2,0.7-0.3c2.8,0.6,5.1,2,6.9,4.2c1.9,2.3,3.9,4.4,5.7,6.7
			c1,1.3,1.7,2.9,2.4,4.4c0.3,0.7,0.2,1.5,0.4,2.2c1.1,3.1,3,6,3.5,9.4C94.3,504.9,94.8,507.4,95.3,509.9z"/>
		<path fill-rule="evenodd" clip-rule="evenodd" fill="#C1A574" d="M95.3,509.9c-0.5-2.5-1-5-1.4-7.5c-0.5-3.4-2.4-6.2-3.5-9.4
			c-0.2-0.7-0.1-1.6-0.4-2.2c-0.7-1.5-1.4-3.1-2.4-4.4c-1.8-2.3-3.8-4.5-5.7-6.7c-1.8-2.2-4.1-3.7-6.9-4.2c1.8-1.2,3.1-3,5.4-3.6
			c1.1-0.3,1.9-1.4,2.9-2c2.5-1.3,5.1-2.4,7.5-3.8c1.8-1.1,3.4-2.6,5-3.9c0.4-0.3,0.7-0.7,1.1-0.9c3.4-1.6,6-4.3,8.7-6.7
			c1.7-1.5,3.4-2.8,5.1-4.2c0.9-0.8,1.7-1.7,2.4-2.7c1.3-1.9,2.7-3.8,4.7-5.1c0.9-0.6,1.1-2.2,1.8-3.3c2.5-4.6,4.4-9.4,6.2-14.4
			c1.4-4.1,3.3-8.1,5.2-12.1c2.7-5.6,5.7-11,9.2-16.1c2.4-3.6,4.6-7.3,7.1-10.7c2.9-3.9,6-7.7,9-11.5c1.9-2.3,3.7-4.6,5.6-6.9
			c0.4-0.5,0.9-0.9,1.4-1.4c2.1-2.2,4-4.4,6.2-6.5c2.1-2,4.2-4,6.6-5.6c5.2-3.3,10.1-7,14.7-11c3.9-3.3,7.6-6.8,11.7-9.9
			c3-2.3,5.1-5.3,7.1-8.3c1.8-2.7,3-5.8,4.6-8.6c2.8-4.7,3.9-9.9,4.8-15.2c0.7-4.5,1-9,1.9-13.4c0.6-2.9,0.3-6,0.5-9.1
			c0.2-3.6,0.8-7.2,0.8-10.8c0-4.6-0.5-9.1-0.7-13.7c-0.1-1.7,0.1-3.5,0.2-5.2c0.1-2.6,0.3-5.2,0.4-7.9c0.2-3.3,0.4-6.6,0.8-9.9
			c0.4-3.1,1.1-6.2,1.7-9.3c0.9-4.6,1.7-9.2,2.8-13.7c1.3-5.2,2.8-10.3,4.5-15.4c1.8-5.6,4.1-11,5.1-16.8c0.7-4.3,1.6-8.6,2.6-12.9
			c0.7-3,1.6-5.8,2.4-8.8c0.8-3,1.6-6,2-9.1c0.3-2.1,0-4.4,0.1-6.5c0.1-1.8,0.5-3.5,0.6-5.3c0.1-1.6,0-3.2,0-4.8c0-1.9,0-3.8,0-5.8
			c0-1.8-0.2-3.7-0.1-5.5c0-2.1,0.2-4.3,0.1-6.4c-0.1-2.1-0.3-4.3-0.5-6.4c-0.1-1.3-0.2-2.7-0.4-4c-0.2-1.3-0.5-2.6-0.7-4
			c-0.5-3.2-1.1-6.3-1.6-9.5c-0.6-4-1.4-7.8-2.9-11.5c-1.8-4.7-3.3-9.6-4.8-14.5c-0.4-1.3-0.5-2.6-0.7-3.9c2.1-0.7,4.1-1.3,6.2-2
			c3.9-1.3,7.7-2.7,11.6-3.8c6.2-1.7,12.4-3.2,18.7-4.6c3.8-0.9,7.6-1.3,11.4-2.2c4.8-1.2,9.6-2.9,14.4-4.3c2.3-0.7,4.8-1.1,7.1-1.8
			c3.1-1,6.1-2.1,9.1-3.2c3.3-1.2,6.5-2.3,9.8-3.5c2.2-0.8,4.3-1.8,6.5-2.4c1.7-0.5,3.5-0.5,5.2-0.9c1.5-0.4,3-1,4.5-1.5
			c1.4-0.4,2.9-0.7,4.3-1.2c4.3-1.3,8.5-2.7,12.9-3.8c2.6-0.7,5.3-0.7,7.9-1.2c3.4-0.6,6.9-1.4,10.3-2c2.7-0.5,5.4-0.8,8.1-1.2
			c3.3-0.5,6.6-1,9.8-1.4c1.9-0.2,3.9-0.1,5.8-0.3c3.2-0.4,6.5-0.2,9-2.8c3.6,3.2,5.4,7.6,7.6,11.7c1.3,2.4,1.8,5.3,2.7,8
			c0.2,0.7,0.6,1.4,0.8,2.2c0.4,1.5,0.8,3,1.1,4.5c0.1,0.3,0,0.6,0.1,0.9c0.5,2.2,1,4.4,1.5,6.6c0.2,0.7,0.8,1.4,0.9,2.1
			c0.4,1.9,0.9,3.9,0.9,5.8c0,3.2,1.1,6.2,1.5,9.3c0.2,1.3,0.3,2.6,0.5,3.9c0.2,1.6,0.4,3.2,0.6,4.8c0.1,1.2,0.3,2.5,0.3,3.7
			c0.1,2.4,0.2,4.9,0.3,7.3c0.1,2.6,0.1,5.3,0.4,7.9c0.2,2.3,0.7,4.6,1,6.9c0.7,5.4,1.2,10.8,0.6,16.2c-0.3,2.4,0.1,4.9-0.1,7.4
			c-0.3,3.1,0.6,6.2-0.2,9.4c-0.4,1.6,0,3.5-0.1,5.2c-0.3,4-0.8,8-1.3,12c-0.1,0.6-0.6,1.1-1.1,1.9c1,2.1,0.6,4.6-0.3,7.1
			c-0.5,1.4-0.3,3-0.9,4.3c-1.4,3.2-0.8,6.6-1.7,9.9c-1.4,5-2,10.1-3.1,15.1c-0.2,1-1,1.8-1.2,2.8c-0.7,2.7-1.3,5.5-2,8.3
			c-0.9,3.6-2,7.1-2.9,10.7c-0.6,2.5-1,5-1.6,7.6c-0.8,3.1-1.6,6.3-2.4,9.4c-0.2,0.8-0.6,1.5-0.9,2.2c-0.1,0.2-0.2,0.6-0.1,0.7
			c1,1.3,0.2,2.7,0,4c-0.6,3.7-0.9,7.5-2,11c-1.1,3.4,0,6.8-1.3,10.1c-0.5,1.2-0.1,2.7-0.1,4.1c-0.1,1.1-0.4,2.3-0.3,3.4
			c0.2,2.2-0.4,4.4,0.2,6.6c0.4,1.5,0.1,3.2,0.1,4.8c0,2.1,0.6,4,1.3,6c0.6,1.7,1.1,3.4,2.2,4.8c0.6,0.8,1.3,1.5,2,2.1
			c2.1,1.9,4.5,3.5,6.4,5.6c2.3,2.7,4.9,5.4,4.5,9.5c-0.1,0.6,0.4,1.3,0.8,1.7c1.9,1.7,3.9,3.2,5.8,4.9c0.9,0.8,1.8,1.7,2.4,2.7
			c1.8,2.9,3.6,5.9,4.9,9c0.9,2.1,0.9,4.5,1.4,6.8c0.7,2.9,1.5,5.7,2.3,8.5c0.5,1.8,1.1,3.6,1.6,5.5c0.6,2.4,0.9,4.8,1.5,7.2
			c0.5,1.8,1.6,3.5,2.2,5.4c1,3.1,1.7,6.3,2.6,9.5c0.2,0.7,0.4,1.4,0.6,2.1c0.3,1,0.6,2,0.9,3c0.4,1.6,0.7,3.2,1.1,4.8
			c0.9,3.5,2,6.9,2.7,10.3c0.6,2.7,0.9,5.5,1.4,8.3c0.2,1.4,0.6,2.7,1,4.1c0.7,2.9,1.7,5.7,2.1,8.6c0.3,2,1.5,3.8,0.8,6
			c-0.2,0.6,0.4,1.5,0.6,2.3c0.5,2.3,0.9,4.6,1.3,6.9c0.4,2.5,0.9,4.9,1.2,7.4c0.3,2.8,0.4,5.6,0.5,8.4c0.1,3-0.1,6.1,0,9.1
			c0.1,2.8,0.4,5.5-0.3,8.3c-0.2,0.8,0.1,1.8,0.2,2.6c0,0.2,0.1,0.4,0.1,0.6c-0.2,2.5-0.4,4.9-0.6,7.4c-0.2,2.8-0.4,5.6-0.7,8.4
			c-0.3,2.3-0.7,4.5-1,6.8c-0.2,1.3-0.3,2.6-0.6,3.8c-0.2,0.9-0.7,1.7-0.9,2.6c-0.2,0.9-0.1,1.8-0.1,2.7c-0.6-0.5-1.2-1.4-1.9-1.5
			c-1.6-0.3-3.4-0.6-5-0.3c-5,0.8-10,1.9-15,2.9c-1,0.2-2.1,0.4-3.1,0.6c-3.3,0.7-6.7,1.7-10,2.2c-2.2,0.3-5.4,2.2-5.1,5.1
			c0.2,1.5,0,3.1-0.2,4.6c-0.6,4.3-1.4,8.5-2,12.8c-0.3,2.6-0.2,5.2-0.5,7.8c-0.2,1.8,0.4,3,1.8,4c-3.2-0.1-6.5-0.4-9.7-0.2
			c-5.6,0.3-11.1,0.6-16.6,1.3c-2.8,0.3-5.5,1.5-8.3,2.3c-2.1,0.6-4.1,1.2-6.2,1.8c-2.7,0.8-5.4,1.6-8,2.6c-0.9,0.3-1.6,1-2.7,1
			c-0.1,0-0.3,0.2-0.4,0.3c0,1.7-1.7,1.7-2.6,2.5c-1.5,1.4-3.3,2.6-5,3.8c-0.9,0.6-1.9,1-2.8,1.4c0.9-3.7,0.6-7.5,0.4-11.3
			c-0.3-4.5-1.7-8.6-4-12.4c-2.8-4.6-6.2-8.8-11.8-10c-4.4-0.9-8.8-1.6-13.3-0.3c-0.2,0.1-0.5,0-0.8,0c1-1.5,1.8-3,3-4.3
			c1.4-1.6,3.1-2.8,4.5-4.3c2-2.2,3.6-4.8,5.8-6.8c3.6-3.3,7.4-6.5,11.8-8.8c2.9-1.6,5.5-3.8,8.3-5.7c2.3-1.5,4.6-2.9,6.9-4.4
			c2.3-1.5,4.5-3.2,6.8-4.7c2.3-1.5,4.9-2.8,7-4.6c4.3-3.5,8.4-7.2,10.9-12.3c1-2,1.5-4.3,2.3-6.5c0.4-1.1,0.9-2.2,1.3-3.3
			c1.8-4.7,3.8-9.4,5.2-14.2c0.7-2.4,0.1-5.1,0.1-7.7c0-2.5,0-5,0.1-7.5c0-1.1,0.3-2.2,0.2-3.3c-0.4-3.8-1-7.5-1.5-11.3
			c-0.2-1.1-0.2-2.3-0.4-3.4c-0.5-3.2-1-6.5-1.6-9.7c-0.5-2.8-1.1-5.6-2-8.3c-1-3.1-2.3-6.1-3.8-9c-2.3-4.3-4.6-8.7-7.5-12.6
			c-3-4-5.8-8.4-9.9-11.6c-1.5-1.1-2.7-2.8-3.9-4.2c-1.5-1.7-2.9-3.4-4.6-5c-1.9-1.8-3.7-3.7-5.5-5.7c-2.4-2.5-4.9-5-7.1-7.6
			c-2.2-2.6-4.2-5.4-6.3-8.1c-1.2-1.6-2.5-3.1-3.6-4.7c-1.2-1.7-2.4-3.5-3.3-5.4c-0.7-1.5-1.1-3.3-1.4-5c-0.6-3.3-1.4-6.5-1.5-9.8
			c0-1.7-0.2-3.5-0.2-5.2c0-2.6-0.5-5.2-0.5-7.8c0-2.3,0.4-4.6,0.6-6.8c0.1-1.2,0.2-2.4,0.2-3.6c-0.1-5,0.3-9.9,1.6-14.8
			c0.9-3.4,1.5-7,2.3-10.4c0.6-2.9,1.3-5.8,1.7-8.7c1-6.7,2.9-13.2,4.7-19.7c0.9-3.4,2.2-6.7,2.6-10.2c0.5-4.2,2.4-8,3.2-12.1
			c0.9-4.2,1.8-8.4,2.1-12.8c0.2-2.5,0.2-4.8-0.2-7.2c-0.3-2-1.5-3.6-3.1-4.5c-1.7-1-3.8-2.3-5.6-2.2c-2.2,0.1-4.4,0.4-6.7,1.4
			c-4,1.7-6.5,5.1-10.1,7.2c-1.9,1.1-3.7,2.4-5.2,4c-1.6,1.7-2.8,3.8-4.3,5.7c-0.8,1-2,1.6-2.8,2.6c-2,2.5-3.8,5.1-5.7,7.6
			c-1.9,2.5-3.8,4.9-5.5,7.5c-1.2,1.7-2.2,3.6-3.2,5.4c-1.1,2-2.1,4-3.1,6c-1.1,2.3-2,4.7-3,7c-0.8,2-1.5,4.1-2.3,6.2
			c-1.2,2.9-2.2,5.8-2.3,9c0,1.2-0.8,2.3-1.1,3.5c-0.4,1.2-0.8,2.3-1,3.5c-0.4,1.5-0.6,3.1-1,4.6c-0.1,0.4-0.5,0.8-0.6,0.9
			c0,1.6,0,2.9,0,4.3c0,1.4,0,2.8-0.1,4.2c-0.1,0.8-0.5,1.6-0.5,2.4c0.1,3,0.5,6.1,0.6,9.1c0.1,1.7-0.2,3.3-0.3,5
			c-0.1,1.4,0,2.8,0,4.1c-0.2,4.2-0.5,8.4-0.6,12.6c0,2.9-0.3,5.9,0.3,8.9c0.2,1.1,0.6,2.1,0.1,3.5c-0.4,1.1,0.4,2.6,0.5,3.9
			c0.1,2.1,0,4.1-0.1,6.2c0,0.1-0.1,0.3-0.1,0.4c0.5,2.3-0.2,4.5-0.7,6.7c-0.3,1.5-0.2,3.1-0.4,4.7c-0.2,1.7-0.7,3.4-0.9,5.1
			c-0.2,1.2-0.1,2.5-0.4,3.8c-0.5,3.1-1.2,6.2-1.8,9.3c-0.3,1.3-0.4,2.6-0.9,3.8c-1.6,4.1-3.4,8.1-5.1,12.2c-0.4,1-0.8,2.2-1.5,3
			c-1.4,1.5-3.1,2.7-4.6,4.2c-1.7,1.7-3.4,3.5-5.1,5.3c-0.7,0.7-1.5,1.4-2.3,1.9c-3,2-6.2,3.9-9.2,6.1c-2.3,1.6-4.4,3.6-6.7,5.3
			c-2.6,1.9-5.3,3.7-8.1,5.5c-2.5,1.6-5,2.9-7.5,4.4c-0.8,0.5-1.4,1.2-2.1,1.7c-1.2,0.8-2.4,1.8-3.7,2.1c-2.5,0.6-3.7,2.5-5.5,3.9
			c-0.9,0.8-2.3,1-3.2,1.7c-2.8,2.2-5.5,4.6-8.2,6.9c-2,1.7-3.9,3.5-5.8,5.3c-0.9,0.9-1.4,2.1-2.3,3.1c-0.8,1-1.3,2.2-2.3,3
			c-1.1,0.8-1.7,1.8-1.7,3.3c0,1.2-0.9,2.4-1.4,3.6c-2.2,4.6-2.9,9.6-4.2,14.5c-0.5,1.8-1.1,3.5-1.6,5.2c-0.8,0.1-1.6,0-2.3,0.2
			c-2,0.5-4,1.4-6,1.6c-5.4,0.6-10.2,3.3-15.3,4.7c-3.6,1-7.2,2.1-11,2.3c-1.4,0.1-3.4,2.1-3.3,3.5c0.1,1.8,0.5,3.6,0.7,5.3
			c0.3,2.7,0.7,5.3,1,8c0.2,2,0.5,3.9,0.4,5.9c-0.1,3.1-0.5,6.2-0.7,9.3c-2.9,0.9-5.7,1.7-8.6,2.6c-4.6,1.4-9.2,2.8-13.5,5.1
			c-2.7,1.4-5.6,2.5-8.3,3.9c-2.3,1.2-4.5,2.8-6.9,3.6c-2,0.7-3.5,1.9-5.2,2.9c-3.5,1.9-6.9,4-10.3,6
			C97.2,509,96.2,509.4,95.3,509.9z"/>
		<path fill-rule="evenodd" clip-rule="evenodd" fill="#A48460" d="M150.8,484.5c0.2-3.1,0.6-6.2,0.7-9.3c0.1-2-0.2-3.9-0.4-5.9
			c-0.3-2.7-0.6-5.3-1-8c-0.2-1.8-0.6-3.6-0.7-5.3c-0.1-1.4,1.9-3.4,3.3-3.5c3.8-0.2,7.4-1.3,11-2.3c5.2-1.4,9.9-4,15.3-4.7
			c2-0.2,4-1.1,6-1.6c0.8-0.2,1.6-0.1,2.3-0.2c0,2.3-0.3,4.6-0.8,6.8c-0.3,1.1-0.1,2.4-0.1,3.6c0,3.8,0.8,7.6-0.1,11.4
			c-0.2,0.8-0.4,1.7-0.3,2.6c0.2,2.7-0.6,5.1-1.5,7.6c-0.9,2.7-2.5,4.7-4.7,6.4c0,0-0.1,0.1-0.1,0.1c-2,0.3-3.9,0.7-5.9,1
			c-1.9,0.2-3.8,0.3-5.7,0.4c-1.1,0-2.2,0-3.2,0c-0.3,0-0.5-0.1-0.8,0c-2.4,0.3-4.7,0.7-7.1,0.9c-1,0.1-2.1,0.1-3.1-0.2
			C152.9,483.9,151.9,484.2,150.8,484.5z"/>
		<path fill-rule="evenodd" clip-rule="evenodd" fill="#A48460" d="M414.6,524.6c-1.4-1-2-2.2-1.8-4c0.3-2.6,0.2-5.2,0.5-7.8
			c0.6-4.3,1.4-8.5,2-12.8c0.2-1.5,0.4-3.1,0.2-4.6c-0.4-2.9,2.8-4.8,5.1-5.1c3.4-0.5,6.7-1.4,10-2.2c1-0.2,2-0.4,3.1-0.6
			c5-1,10-2.1,15-2.9c1.6-0.3,3.4,0,5,0.3c0.7,0.1,1.2,1,1.9,1.5c0.5,1.3,0.6,2.5-0.2,3.7c-0.2,0.4-0.3,0.9-0.4,1.3
			c-0.1,3.2-1.4,5.8-3.5,8.3c-1.2,1.4-2.7,2.6-2.8,4.9c0,1.3-1.1,2.7-1.9,3.8c-2.2,2.8-4.4,5.8-7,8.2c-1.9,1.8-4,3.7-6.7,4.5
			c-1.4,0.4-2.6,1.5-4,2.1c-1.1,0.4-2.4,0.5-3.9,0.8C424.8,525,416.9,525.7,414.6,524.6z"/>
	</g>
</g>
</svg>
