<?xml version="1.0" encoding="utf-8"?>
<!-- Generator: Adobe Illustrator 16.0.0, SVG Export Plug-In . SVG Version: 6.00 Build 0)  -->
<!DOCTYPE svg PUBLIC "-//W3C//DTD SVG 1.1//EN" "http://www.w3.org/Graphics/SVG/1.1/DTD/svg11.dtd">
<svg version="1.1" xmlns="http://www.w3.org/2000/svg" xmlns:xlink="http://www.w3.org/1999/xlink" x="0px" y="0px" width="566.9px"
	 height="566.9px" viewBox="0 0 566.9 566.9" enable-background="new 0 0 566.9 566.9" xml:space="preserve">
<g id="fond" display="none">
	
		<rect x="-10187.9" y="-8228.8" display="inline" fill-rule="evenodd" clip-rule="evenodd" fill="#F2F2F2" width="15942.5" height="15814.7"/>
</g>
<g id="en_cours">
</g>
<g id="fini">
	<g>
		<g>
			<g>
				<path fill-rule="evenodd" clip-rule="evenodd" fill="#969FAA" d="M210.2,265.1c14.7-30.7,37.6-56.4,66.5-74.2
					c1.2-0.7,2.4-1.4,3.5-2.1c0.1-2,0.1-4,0.1-6c0-69.7-56.5-126.1-126.1-126.1S28.1,113.2,28.1,182.8
					c0,69.7,56.5,126.1,126.1,126.1c15.2,0,29.8-2.7,43.2-7.6C200.4,289,204.6,276.8,210.2,265.1z"/>
			</g>
			<path fill-rule="evenodd" clip-rule="evenodd" fill="#0071BC" d="M146.6,83.8c2.3,1.6,4.9,2.9,7,4.8c6.7,6,13.5,11.9,19.5,18.5
				c3.9,4.2,6.5,9.7,10,14.3c3.8,5,4.4,10.9,5.2,16.7c0.6,3.9,0.9,8,0.5,12c-0.4,4-1.6,8-2.8,11.9c-2.2,6.8-5.4,13-10.8,18
				c-5.8,5.3-11.3,10.8-16.9,16.3c-5.1,4.9-8.9,10.6-12,17.1c-3,6.2-4.7,12.5-4.2,19.4c0.2,2.6,1.1,5.1,1.7,7.7
				c0.4,2.4,0.9,4.9,1.1,7.3c0.5,4.7,0.8,9.4,1.2,14.1c0.1,1.3,0.5,2.6,1,3.8c1.3,3.2,3,6.2,4.2,9.5c2.3,6,6.1,10.7,11.7,13.9
				c-3.2,1.2-5.9-0.8-8.4-2c-7.8-3.7-13.8-9.7-19-16.4c-3-3.9-6.1-7.7-8.8-11.8c-0.9-1.4-0.9-3.5-1.3-5.3
				c-1.8-7.6-1.8-15.2-0.2-22.7c0.9-4.2,3.3-8,5-12c3.4-7.9,10-13,16.3-18.1c8.5-6.9,16.6-14.1,23.2-22.8c2.5-3.3,4.8-6.7,7.2-10
				c-0.3-0.2-0.6-0.5-0.9-0.7c-2.2,2.3-4.2,4.8-6.5,7c-3.3,3.2-6.8,6.3-10.2,9.3c-0.4,0.4-1.3,0.1-2,0.2c0.2-1.8,0.4-3.6,0.5-5.4
				c0.2-4.1,0.2-8.3,0.7-12.4c1.2-10.1,2.4-20.3,1.7-30.5c-0.3-4.4-1-8.7-1.7-13c-0.6-3.7-1.5-7.4-2.4-11.1
				c-1.4-5.6-2.7-11.2-4.5-16.6C150.4,90.6,148.3,87.3,146.6,83.8z"/>
			<path fill-rule="evenodd" clip-rule="evenodd" fill="#FFDD00" d="M146.6,83.8c1.7,3.5,3.8,6.8,5,10.5c1.8,5.4,3.1,11,4.5,16.6
				c0.9,3.7,1.7,7.4,2.4,11.1c0.7,4.3,1.4,8.7,1.7,13c0.7,10.2-0.5,20.4-1.7,30.5c-0.5,4.1-0.4,8.3-0.7,12.4
				c-0.1,1.8-0.3,3.6-0.5,5.4c-2.1,4.8-6.4,7.6-9.9,11.1c-1.2,1.3-2.5,1.9-4.1-0.4c-2.9-4.2-6.9-7.8-9.4-12.2
				c-2.3-4.1-4.2-8.9-4.7-13.6c-0.9-8.8,0.1-17.6,4.1-25.9c4-8.3,7.2-16.9,11-25.3c3-6.6,1.5-13.4,1.2-20.2
				c-0.1-2.6-0.3-5.2-0.9-7.7c-0.7-3-1.9-5.9-3-9.1c1.4,1.1,2.6,2.1,3.9,3.1c0.4,0.2,0.7,0.4,1.1,0.7L146.6,83.8z"/>
			<path fill-rule="evenodd" clip-rule="evenodd" fill="#FFFFFF" d="M102,83.3c11-0.1,14.6,12.4,11.1,19.3
				c-3.8,7.5-9.8,12.8-15.9,18.2c-1.8,1.6-3.8,3.1-5.5,4.8c-5.4,5-10.9,9.8-17.6,12.9c-3,1.4-6.4,2.2-9.7,2.6
				c-4.6,0.6-7.4-2.8-6.1-7.3c1.4-5,2.7-10.1,4.9-14.9c3.5-7.6,8.2-14.5,14.1-20.6c3.7-3.8,7.2-7.7,11.8-10.4c2-1.2,4.2-2.1,6.4-2.8
				C97.4,84.4,99.7,83.9,102,83.3z"/>
			<path fill-rule="evenodd" clip-rule="evenodd" fill="#FFDD00" d="M163.1,288.9c-5.6-3.2-9.4-7.9-11.7-13.9
				c-1.2-3.2-2.9-6.3-4.2-9.5c-0.5-1.2-0.9-2.5-1-3.8c-0.5-4.7-0.8-9.4-1.2-14.1c-0.2-2.4-0.8-4.9-1.1-7.3c0.4-1.6,1.2-3.3,1.1-4.9
				c-0.5-11.8,4.7-21.1,12.3-29.5c1.6-1.8,3.1-3.6,5.1-6c1,3.5,1.7,5.8,2.4,8.2c0.5,1.4,0.7,3,1.5,4.2c5.5,8.4,3.3,16.8,0.3,25.2
				c-2.6,7.2-5.8,14.3-7.8,21.7c-1,3.9-0.6,8.4,0,12.5C159.8,277.6,161.6,283.2,163.1,288.9z"/>
			<path fill-rule="evenodd" clip-rule="evenodd" fill="#00FE00" d="M146.7,83.8c-0.4-0.2-0.7-0.4-1.1-0.7
				C146,83.4,146.4,83.6,146.7,83.8z"/>
		</g>
		<g>
			<g>
				<path fill-rule="evenodd" clip-rule="evenodd" fill="#A9B3C1" d="M522.3,414c-40.2,84.2-141,119.9-225.2,79.7
					c-84.2-40.2-119.9-141-79.7-225.2c40.2-84.2,141-119.9,225.2-79.7C526.8,228.9,562.5,329.8,522.3,414z"/>
			</g>
			<path fill-rule="evenodd" clip-rule="evenodd" fill="#17906A" d="M417.6,217.1c1.9,3.3,4.2,6.3,5.7,9.8
				c4.6,11.1,9.4,22.2,12.9,33.6c2.3,7.4,2.2,15.4,3.8,23.1c1.7,8.2-0.9,15.7-3.3,23.2c-1.6,5.1-3.5,10.2-6.3,14.8
				c-2.8,4.6-6.5,8.8-10.3,12.7c-6.6,6.9-14,12.7-23.4,15.6c-10,3.1-19.9,6.6-29.8,9.9c-9,3-16.9,7.7-24.3,13.7
				c-7.2,5.8-13,12.4-16.2,21c-1.2,3.3-1.6,6.8-2.4,10.3c-0.9,3.2-1.7,6.4-2.8,9.5c-2.1,6-4.5,11.8-6.6,17.8c-0.6,1.6-0.9,3.4-1,5.2
				c-0.2,4.6,0,9.3-0.4,13.9c-0.7,8.6,1.1,16.4,6.1,23.5c-4.6-0.4-6.6-4.3-9-7.2c-7.2-9-11-19.7-13.5-30.8
				c-1.4-6.4-2.9-12.9-3.8-19.4c-0.3-2.3,0.9-4.7,1.4-7.1c2.2-10.2,6.6-19.5,12.8-27.6c3.5-4.5,8.6-7.8,13-11.7
				c8.6-7.6,19.6-9.9,30.2-12.5c14.2-3.5,28.2-7.4,41.2-14.2c4.9-2.6,9.7-5.3,14.5-8c-0.2-0.5-0.5-0.9-0.7-1.4
				c-4,1.6-7.9,3.3-11.9,4.7c-5.9,2-11.8,3.7-17.7,5.4c-0.7,0.2-1.7-0.6-2.5-0.9c1.2-2.1,2.5-4.1,3.7-6.3c2.7-4.9,5-10,8-14.7
				c7.3-11.6,14.6-23.1,19.6-35.9c2.1-5.5,3.8-11.1,5.4-16.7c1.4-4.9,2.5-9.8,3.5-14.8c1.5-7.5,3.3-15.1,4.2-22.7
				C418.3,227.6,417.7,222.3,417.6,217.1z"/>
			<path fill-rule="evenodd" clip-rule="evenodd" fill="#D23A34" d="M417.6,217.1c0.1,5.2,0.7,10.5,0,15.6
				c-0.9,7.6-2.6,15.1-4.2,22.7c-1,5-2.1,9.9-3.5,14.8c-1.6,5.6-3.3,11.3-5.4,16.7c-5,12.8-12.3,24.4-19.6,35.9
				c-3,4.7-5.3,9.8-8,14.7c-1.2,2.1-2.5,4.2-3.7,6.3c-5.3,4.5-12.1,5.4-18.3,7.8c-2.2,0.8-4.1,0.8-4.7-2.9c-1-6.8-3.8-13.4-4.3-20.1
				c-0.4-6.3,0.1-13.2,2.2-19.2c4-11.2,10.3-21.2,19.9-28.9c9.6-7.7,18.5-16.3,27.9-24.2c7.5-6.3,9.6-15.4,13.1-23.7
				c1.3-3.2,2.6-6.5,3.3-9.9c0.9-4,1.1-8.2,1.7-12.8c1,2.1,2,4,2.9,6c0.3,0.5,0.6,0.9,0.9,1.4L417.6,217.1z"/>
			<path fill-rule="evenodd" clip-rule="evenodd" fill="#FFFFFF" d="M299.8,207.9c14.7-0.2,19.6,16.6,14.9,25.8
				c-5.1,10.1-13.1,17.2-21.3,24.4c-2.5,2.1-5,4.2-7.4,6.4c-7.2,6.6-14.6,13.2-23.6,17.3c-4.1,1.9-8.6,3-13.1,3.5
				c-6.2,0.8-9.9-3.7-8.2-9.7c1.9-6.7,3.6-13.6,6.5-19.9c4.7-10.2,11-19.4,18.9-27.6c4.9-5.1,9.6-10.3,15.8-13.9
				c2.7-1.6,5.6-2.8,8.5-3.8C293.7,209.4,296.7,208.7,299.8,207.9z"/>
			<path fill-rule="evenodd" clip-rule="evenodd" fill="#D23A34" d="M319.2,474.6c-4.9-7.1-6.8-14.9-6.1-23.5
				c0.4-4.6,0.2-9.2,0.4-13.9c0.1-1.7,0.4-3.5,1-5.2c2.1-5.9,4.5-11.8,6.6-17.8c1.1-3.1,1.9-6.3,2.8-9.5c1.4-1.7,3.3-3.3,4.2-5.3
				C334.3,385,346,376.7,360,371c2.9-1.2,5.8-2.6,9.6-4.4c-0.8,4.8-1.3,8-1.8,11.3c-0.3,2-0.8,4.1-0.6,6
				c1.8,13.3-5.6,22.2-14.2,30.7c-7.3,7.3-15.3,14-21.9,21.8c-3.5,4.1-5.6,9.8-7.1,15.1C321.8,459,320.8,466.8,319.2,474.6z"/>
			<path fill-rule="evenodd" clip-rule="evenodd" fill="#00FE00" d="M417.8,217.2c-0.3-0.5-0.6-0.9-0.9-1.4
				C417.2,216.2,417.5,216.7,417.8,217.2z"/>
		</g>
	</g>
</g>
</svg>
