<?xml version="1.0" encoding="utf-8"?>
<!-- Generator: Adobe Illustrator 16.0.0, SVG Export Plug-In . SVG Version: 6.00 Build 0)  -->
<!DOCTYPE svg PUBLIC "-//W3C//DTD SVG 1.1//EN" "http://www.w3.org/Graphics/SVG/1.1/DTD/svg11.dtd">
<svg version="1.1" xmlns="http://www.w3.org/2000/svg" xmlns:xlink="http://www.w3.org/1999/xlink" x="0px" y="0px" width="566.9px"
	 height="566.9px" viewBox="0 0 566.9 566.9" enable-background="new 0 0 566.9 566.9" xml:space="preserve">
<g id="fond" display="none">
	
		<rect x="-7607.9" y="-8861.9" display="inline" fill-rule="evenodd" clip-rule="evenodd" fill="#F2F2F2" width="15942.5" height="15814.7"/>
</g>
<g id="en_cours">
</g>
<g id="fini">
	<g>
		<g>
			<path fill-rule="evenodd" clip-rule="evenodd" fill="#333333" d="M165,7c4.7,1.5,10.3,2,14,4.8c6.1,4.7,12,10.3,16.2,16.6
				c10.5,15.6,17.4,32.9,21.5,51.3c1.3,5.7,4.4,11.3,4.1,16.8c-0.6,13.2-2.7,26.4-4.1,39.5c-0.7,6.3-1.4,12.7-1.8,19
				c-0.6,10.4-1.7,20.9-1.2,31.3c0.4,9.1,2.4,18.1,4.4,27.1c1,4.6,0.5,6.5-4.3,8.5c-13,5.6-25.6,12.1-38.2,18.5
				c-9.5,4.9-18.7,10.3-28.2,15.2c-4.3,2.2-9,3.8-13.5,5.6c-3.9,1.5-7.2-0.5-8.5-5.4c-5.1-18.9-9.9-37.9-15-56.9
				c-2-7.3-4.6-14.5-6.5-21.9c-2.5-9.9-4.6-20-6.9-29.9c-1.5-6.5-3.1-12.9-4.6-19.3c-0.7-11.5-1.5-23-2.2-34.5
				c0.3-0.4,0.8-0.8,0.9-1.2c2.5-10.1,4.2-20.6,7.7-30.3c3-8.3,8.3-15.7,12.3-23.6c6.5-12.9,16.6-21.3,30.5-25.4
				c4.6-1.3,8.9-3.5,13.4-5.2C158.3,7.5,161.7,7.2,165,7z"/>
			<path fill-rule="evenodd" clip-rule="evenodd" fill="#333333" d="M237.9,286.1c0.5,8,1.8,14,1.1,19.8
				c-2.4,20.6-20,39.4-39.4,44.2c-10.8,2.7-19.6-2.1-26.8-8.7c-13.5-12.5-23.2-27.9-30.2-45c-1.3-3.2-2.4-6.5-4-9.5
				c-2.7-5.3-1-9.5,3.5-12.3c10.7-6.6,21.6-12.8,32.5-18.9c7.1-4,14.3-7.9,21.8-11c6.5-2.7,13.4-4.6,20.2-6.2
				c8.1-1.9,9.8-0.9,12.3,6.8C233.6,259.2,238.9,273,237.9,286.1z"/>
		</g>
		<g>
			<path fill-rule="evenodd" clip-rule="evenodd" fill="#333333" d="M474.7,336.5c-1.5,5.9-3,11.8-4.4,17.7
				c-3.6,15.1-7.1,30.2-10.7,45.3c-2.9,12.2-5.7,24.4-8.9,36.6c-2.6,10-5.6,19.9-8.8,29.8c-1.6,4.9-4.8,5.7-9.6,3.4
				c-23.4-11.2-46.7-22.3-70.1-33.5c-3.6-1.7-7.5-3-10.7-5.3c-1.6-1.1-3.1-4.2-2.6-5.9c3.2-13.3,5.4-26.6,4.4-40.3
				c-0.6-9.4-1.2-18.9-2.2-28.3c-1.7-16.1-4.8-32.1-5-48.2c-0.2-9.5,3.3-19.3,6.4-28.6c3.5-10.6,7.5-21.2,12.6-31.1
				c5.1-10,11-19.9,20.7-26.3c10.4-6.9,21.4-6.7,32.9-2.7c10,3.5,19.8,7.3,27.2,15.2c2.4,2.5,4.9,5,6.6,7.9
				c5.4,9.5,11.5,18.7,15.5,28.8c3.8,9.5,5.2,19.9,7.7,29.8c0.1,0.5,0.6,0.8,0.9,1.2C476.1,313.5,475.4,325,474.7,336.5z"/>
			<path fill-rule="evenodd" clip-rule="evenodd" fill="#333333" d="M329.5,497.3c-0.4-16.4,5.2-31.4,10.8-46.4
				c1.4-3.8,4.6-5.1,7.6-4.1c11.8,3.9,23.8,7.6,35.1,12.8c12.5,5.8,24.4,13,36.5,19.7c2.5,1.4,5.1,2.9,7.2,4.8
				c3.3,3,4.6,6.2,2.8,11.2c-6.8,18.7-16.1,36-29.4,50.6c-12.7,14-28.2,20.1-47.3,6c-12.3-9.1-21.2-20-23.4-35.3
				C328.5,510.3,329.4,503.8,329.5,497.3z"/>
		</g>
	</g>
</g>
</svg>
