<?xml version="1.0" encoding="utf-8"?>
<!-- Generator: Adobe Illustrator 16.0.0, SVG Export Plug-In . SVG Version: 6.00 Build 0)  -->
<!DOCTYPE svg PUBLIC "-//W3C//DTD SVG 1.1//EN" "http://www.w3.org/Graphics/SVG/1.1/DTD/svg11.dtd">
<svg version="1.1" xmlns="http://www.w3.org/2000/svg" xmlns:xlink="http://www.w3.org/1999/xlink" x="0px" y="0px" width="566.9px"
	 height="566.9px" viewBox="0 0 566.9 566.9" enable-background="new 0 0 566.9 566.9" xml:space="preserve">
<g id="fond" display="none">
	
		<rect x="-8249.9" y="-8228.8" display="inline" fill-rule="evenodd" clip-rule="evenodd" fill="#F2F2F2" width="15942.5" height="15814.7"/>
</g>
<g id="en_cours">
</g>
<g id="fini">
	<g>
		<path fill-rule="evenodd" clip-rule="evenodd" fill="#E5E2D3" d="M366.2,167.4c4.3,0.5,15.1,7.6,17.8,20.4
			c3.6-2.8,4.5-9.1,4.5-9.1s8.2,8.6,2.1,23.1c4.6-2.5,8-7.7,8-7.7s1.4,21.8-13.2,29.3c-8.4,4.3-8.3-1.2-5.5-8.6
			c2.8-7.4-2.2-6.8-2.2-6.8l-10.2-20.3L366.2,167.4z"/>
		<polygon fill-rule="evenodd" clip-rule="evenodd" fill="#CD9994" points="174.5,86.3 147.5,12.1 143.6,14.5 140.8,18.2 
			136.2,28.8 133.8,46.4 138,71.9 145.9,85.2 164.6,98.6 		"/>
		<path fill-rule="evenodd" clip-rule="evenodd" fill="#CD9994" d="M223.1,77.4c0.2-1,28.3-69.5,28.3-69.5l6.4,6.1l3.6,15.7
			l-1.2,26.9l-4,13.6l-6.3,9.8l-11.9,13.1L223.1,77.4z"/>
		<polygon fill-rule="evenodd" clip-rule="evenodd" fill="#E5E2D3" points="237.8,225 263.9,231.1 284.9,220.6 300.2,210.6 
			315.5,202.7 327.9,202.7 341,205.3 363.4,210.6 381.3,244.9 372.5,264.6 331,260.9 260.4,267.2 229.7,249.2 		"/>
		<path fill-rule="evenodd" clip-rule="evenodd" fill="none" d="M91.1,277.1c0-95.8,0-191.5-0.1-287.3c0-2.1,0.5-2.5,2.5-2.5
			c131.2,0.1,262.5,0.1,393.7,0c2.1,0,2.5,0.5,2.5,2.5c-0.1,191.5-0.1,383.1,0,574.6c0,2.1-0.5,2.5-2.5,2.5
			c-131.2-0.1-262.5-0.1-393.7,0c-2.1,0-2.5-0.5-2.5-2.5C91.1,468.6,91.1,372.9,91.1,277.1z M289.7,368.4c-0.4,0-0.8,0-1.2,0
			c-0.4-6.8,2.4-13.2,3-20c0.3-3.7,2-7.4,3.3-11c0.5-1.5,0.6-2.9,0.1-4.4c-1.7-4.8-4.3-9.3-5-14.6c-0.4-2.9,0.7-5.2,1.2-7.8
			c0.1-0.4,0.8-0.9,1.2-0.9c0.5,0.1,0.8,0.7,0.7,1.3c-0.1,0.6-0.2,1.2-0.3,1.8c-0.3,2.6-1,5.3,0.6,7.7c2,2.9,7.7,2.8,10.9,0.1
			c3.8-3.3,8.3-5.6,12.8-7.8c4.6-2.3,9.8-3.2,13.9-6.7c1.2-1.1,2.9-0.8,4.5,0.2c4.5,3,7.3,7.6,11.1,11.4c2.3,2.2,4.5,4.5,6.5,7
			c4.2,5.2,9.2,9.5,14.9,12.8c7.3,4.2,15.5,6,23.7,7.8c4.4,0.9,8.7,2.4,12,5.3c2.6,2.3,4.8,5.1,7.2,7.6c1.1,1.2,2.2,2.7,2.8,4.2
			c2.1,5.4,4.9,10.5,7.3,15.7c2,4.3,4,8.6,4.8,13.2c1.3,7.7,4.1,14.9,6.2,22.4c1.6,5.8,3.1,11.6,4.9,17.4c2.1,6.8,3,14,5.2,20.8
			c2,6.4,3.1,13.1,6.4,19c0.1,0.1,0.1,0.4,0.1,0.5c0.8,4.8,2.1,9.6,2,14.6c0,4.7-0.5,9.2-1.4,13.8c-1.7,3.6-3.3,7.2-5.1,10.7
			c-0.6,1.2-0.8,2.2,0,3.2c0.9,1.1,2.1,1.8,3.6,1.4c2-0.4,3.9-1,5.9-1.6c3.8-1.2,3.9-1.3,5.5,2.2c1.2,2.5,3.8,3.6,6.8,1.8
			c4.3-2.6,7.2-6.5,9.1-11.1c0.9-2,1.5-4.3-0.5-6.2c-0.6-1.7-1.1-3.4-1.7-5c-1.4-3.5-1.8-6.9-1.2-10.7c0.6-4,1.1-6.3-3.8-7.9
			c-0.3-0.1-0.6-0.5-0.9-0.7c-5-3.2-7-8.4-8.4-13.8c-1.8-7.2-3.2-14.4-5.6-21.4c-3.1-9.3-5-18.9-7.2-28.4
			c-1.7-7.4-4.2-14.7-5.6-22.2c-2.6-13.4-4.5-26.9-5.5-40.6c-0.3-3.9-1.5-8.3-5.8-10.2c-2-0.9-3.8-2.3-5.9-3.1
			c-6-2.3-11-5.9-14.9-11.1c-3.2-4.4-6-9.1-7.5-14.4c-1-3.8-1.6-7.7-2.5-11.5c-2.2-9.2-5.8-17.9-6.5-27.5
			c-0.7-9.7-4.3-18.9-5.8-28.6c-1-6.4-3.6-12.2-5.9-18.2c-2.5-6.3-6.7-10.8-11.8-14.9c-3.4-2.7-7.2-4.8-10.9-7.2
			c-2.7-1.8-5.2-3-8.4-3.8c-9.4-2.2-19-2.8-28.6-2.5c-3,0.1-6,0.3-8.9,1.6c-4.7,2-9.1,4.6-13.4,7.2c-6.4,3.9-13.1,7.4-18.6,12.7
			c-1.9,1.9-4.2,3.4-6.5,4.9c-4.2,2.7-9.1,2.7-13.7,3.9c-1.1,0.3-2,0.6-3.3,0.2c-3.4-1-6.5-2.5-9.4-4.3c-1.5-1-3.7-1.5-4.5-3.6
			c-1.8-4.7-3.6-9.4-4.9-14.3c-1.6-6-2.9-12-3.4-18.1c-0.5-5.9-1.5-11.8-1.9-17.8c0-0.2-0.3-0.3-0.6-0.6c-0.5,0.9-1.1,1.6-1.3,2.4
			c-1.1,4.7-3.6,8.7-5.8,12.8c-2,3.7-4.5,6.9-8.7,8.3c-1.9,0.6-3.7,1.4-5.5,1.9c-2.5,0.7-5.1,1.8-7.5,1.6c-4.8-0.4-9-3-12-6.5
			c-5-6-8.7-13-12.7-19.7c-1.6-2.8-2.2-6.1-3.7-9.1c-0.3-0.6-0.5-1.4-1.1-1.3c-1.1,0.1-0.7,1.3-0.5,1.8c0.8,2.1,0.5,4.1,0.5,6.2
			c0,2.5,0.4,4.9,0.7,7.3c0.9,7.4,1.6,14.7,2,22.1c0.3,5.4,0.1,10.9-0.3,16.4c-0.4,5.5-0.4,11.2-0.7,16.7c-0.2,4-0.6,8-0.8,12
			c-0.5,8-1.5,16.1-1.9,24.1c-0.6,12.5,0.5,24.8,4.3,36.8c2.7,8.6,5.9,16.6,13.1,22.5c4.7,3.9,9.6,7.6,15.6,8.9
			c4.9,1.1,10,0.9,15,1.4c5.4,0.5,10.9,0.3,16.3,0.1c3.5-0.1,7.1-0.5,10.4-2.1c2.1-1.1,2.7-3.2,0.9-4.5c-1.9-1.3-2.3-3.2-3.3-5
			c-0.3-0.6-0.8-1,0-1.4c0.7-0.4,1,0.1,1.3,0.6c2.3,3.4,5,6.6,6.7,10.3c2.6,5.7,4,11.6,4.8,18c1,8.1,1.2,16.3,3,24.3
			c1.5,6.6,2.5,13.3,3.7,20c1,5.7,2.3,11.3,2.4,17c0.1,4-1.9,7.6-2.1,11.5c0,0.2,0,0.5,0,0.7c-0.2,1.7,0,3.4,0.9,4.9
			c2,3.4,4.3,6.6,6,10.1c1.7,3.4,3.7,6.7,3.6,10.8c0,0.2,0,0.4,0,0.7c0.4,1.8,0.7,3.6,0.6,5.4c0,0.2,0,0.5,0,0.7
			c0.8,2,0.1,4.2,0.6,6.2c1.5,5.9,1.7,11.9,2.5,17.8c1.1,7.4,2.9,14.7,3.7,22.2c0.4,4.1,0.8,8.2-0.1,12.3c-1.1,4.9-2,9.6-1.5,14.7
			c0.5,4.9,1.6,9.6,1.9,14.4c1.3,3.9,2.5,7.9,3.8,11.8c0.4,1.4,0.9,2.7,2,3.7c1.8,1.7,3.5,1.5,4.4-0.8c0.7-1.9,1.3-3.8,1.9-5.8
			c0.6-2.1,1.6-2.5,3.2-1.1c1.2,1,2.2,2.1,3.5,2.9c1.2,0.8,2.5,1.2,4,0.4c1.4-0.8,1.5-1.9,1.4-3.2c-0.3-1.9-0.6-3.9-1.1-5.8
			c-0.8-2.7-0.1-5.7-1.7-8.3c-0.5-1.6-0.3-3.3-0.5-4.9c-1.5-8.9-1.6-18-2.9-27c-0.8-5.2-0.9-10.5-2-15.7c-0.9-4.4-1.2-8.8-1.7-13.2
			c-0.5-4.4-1-8.8-2-13c-1.4-5.7-1.8-11.7-3.4-17.3c-0.2-0.7-0.2-1.5,0-2.2c1.1-4.4,0.4-9,0.8-13.5c0.3-3.3-0.3-6.7-1.2-10.1
			c-1.3-4.5-2.8-9-4.1-13.5c-1-3.3-1.3-6.5-0.5-9.9c0.9-3.6,0.8-7.3,1.1-10.9c1.9,0.4,1.2,2,1,2.8c-0.7,2-0.2,4-0.4,6
			c-0.1,1.1,0.7,1.8,1.4,2.1c0.9,0.3,1.4-0.7,1.8-1.3c0.3-0.6,0.5-1.3,0.7-2c0.6-2,0.7-4.1,1.4-5.9c1.3-3.3,2.8-6.5,4.9-9.4
			c2.3-3.3,3.1-7.4,5.2-10.9c2.4-4.2,4.6-8.5,6.7-12.8c2.2-4.5,2.6-8.9-0.5-13.4c-2.8-4.1-5.6-8.4-3.9-13.9c0.3-0.9-0.2-1.9-0.4-2.9
			c-0.3-2-1.7-2-2.8-1.6c-1.5,0.5-3,1.1-3.9,2.6c-1.3,2-1.6,4.2-1.6,6.4c0.1,4.5-0.2,8.7-2.1,12.9c-1.2,2.6-1.5,5.7-1.9,8.6
			C291.6,359,290.6,363.7,289.7,368.4z M235.6,498.5c1.9-1.4,3.3-3.2,4.5-5.2c1-1.8,2-4.2,4.1-4.6c2.7-0.6,5.2-1.7,7.9-2.3
			c1.5-0.3,2.1-1.1,2.2-2.6c0.1-2.4,0.3-4.9,0.8-7.3c1.2-6.4,3.9-12.3,5.4-18.6c1.4-5.8,3.3-11.4,5.6-16.8c1.1-2.5,0.7-5.4-1.1-7.7
			c-3.4-4.3-4.8-8.9-2.5-14.2c0.8-2,1-4.2,1.6-6.3c0.3-1.1-0.1-2.2-0.9-2.5c-1.1-0.5-1.9,0.6-2.2,1.5c-1.4,4.4-3.7,8.5-5.5,12.7
			c-4.3,9.9-7.1,20.4-12,30.1c-2.8,5.6-5.7,11.1-10.2,15.6c-5.2,5.2-10.3,10.4-15.4,15.6c-2.3,2.2-4.6,4.5-6.9,6.7
			c-0.9,0.9-1.7,2.1-1.1,3.4c0.6,1.3,1.8,2,3.3,2c0.6,0,1.1,0,1.7,0c3.4,0,3.5,0.1,2.2,3.5c-1.2,3.1,0.4,5.3,3.6,4.7
			C226.4,505.2,231.8,503.4,235.6,498.5z M140.2,527.7c1.5-2.5,3.2-4.9,4.4-7.6c1.3-2.9,3.4-3.6,6.2-3.5c2.1,0.1,3.4-1.1,3.7-3.2
			c0.8-5.8,1.8-11.6,3.2-17.3c2.4-9.8,6-19.1,10-28.3c2.8-6.3,5.7-12.6,8-19c2.1-5.7,4.7-11.1,8.1-16c2.5-3.7,4-7.4,3.9-12
			c-0.2-8,1.8-15.6,4.9-23.1c2.1-5,5-9.4,7.6-14c3.1-5.6,6.5-11,9.5-16.7c2.6-4.7,6.3-8.8,9.6-13c1.5-1.8,2.1-3.6,0.3-5.8
			c-1.8-2.1-2.6-4.6-0.9-7.4c1-1.7,0.1-3.5-2-3.8c-1.1-0.2-2.2,0-3.3-0.1c-7.5-0.6-14.8-1.7-20.4-7.5c-1.5-1.5-3.2-1.1-4,0.8
			c-0.5,1.2-0.7,2.5-0.9,3.9c-0.4,2.8-0.1,5.8-1.2,8.5c-3.6,8.9-6.8,17.9-9,27.3c-1.2,5.4-3.1,10.6-4,16c-1,5.5-3.8,9.6-7,13.9
			c-4,5.5-7.2,11.2-5.5,18.7c0.9,4,0.8,8.5-0.1,12.6c-1.2,5.1-3.5,10-5.5,14.9c-2.9,7.2-5.9,14.4-7.9,22c-1.9,7.1-4.5,13.9-7.5,20.5
			c-3.1,6.7-6.3,13.4-9.7,19.9c-2,3.8-5.5,6.5-8.2,9.8c-1.8,0.2-3,1.5-4.4,2.4c-2.2,1.5-4.8,2.4-6.6,4.6c-1.7,2.1-1.1,4.5,1.3,4.7
			c2.2,0.2,4.5,0.3,6.6-0.1c1.9-0.4,1.9,0.4,2,1.7c0.1,0.9-0.5,1.5-0.8,2.3c-1,2.7,0.5,5,3.2,4.5c4.2-0.9,8.6-1.8,12.3-4
			C138.3,532.7,140.3,530.8,140.2,527.7z M261.7,22.7c0.4-1.9-0.4-2.9-0.8-4.1c-1.2-4.5-2.6-8.9-6.4-12.2c-2.6-2.2-4-2.1-6.3,0.3
			c-1.3,1.4-2.2,3.1-3.4,4.5c-4.9,5.7-7.3,12.8-10.4,19.5c-3.1,7-5.4,14.3-8.5,21.2c-3,6.8-6.1,13.6-8.3,20.7
			c-0.8,2.8-2.7,3.1-4.8,2.9c-1.1-0.1-2.2-0.1-3.3-0.1c-2-0.1-3.2-0.5-2.4-3c0.4-1.1-0.5-2.3-1.3-3c-0.8-0.6-1.9,0.1-2.6,0.9
			c-0.6,0.7-1.1,1.4-1.7,2.1c-0.9,1.2-2.1,2.5-2.8-0.3c-0.2-1-0.8-2.1-2.1-2.3c-1.1-0.1-1.8,0.7-2,1.5c-1.1,3.5-2.7,6.4-6.8,7.1
			c-0.1,0-0.3,0.3-0.4,0.4c-1.8,0.2-3.7,2-5.5,0.1c-2.3-2.5-4.7-5.2-5.9-8.3c-2.1-5.4-4.8-10.4-7.2-15.7c-2.3-5-4.4-10.1-6.2-15.2
			c-1.7-5-2.6-10.3-5-15.1c-2.2-4.3-4.1-8.8-5.8-13.4c-0.9-2.3-2.6-3.4-4.5-3.6c-1.6-0.2-3.2,0.8-4.4,2.4c-1.5,1.9-1.9,4.3-3.2,6.1
			c-5.2,7.2-6.5,15.6-6.9,24.1c-0.2,4.9,0,9.8,0.4,14.8c0.6,7.3,2.1,14.4,5.2,20.9c2.8,6.1,7.2,11.1,12.6,15.5c3.7,3,6.9,6.8,11,9.4
			c1.1,0.7,0.5,1.4-0.3,1.9c-1,0.6-2.5,0.7-2,2.4c0.5,1.6,1.8,2.4,3.4,2.6c1,0.2,2.6-0.6,3,0.6c0.3,1.1-1.3,1.7-2.1,2.6
			c-0.3,0.3-0.8,0.4-1.1,0.7c-1.1,0.7-1.7,1.7-1.3,3c0.3,1.1,1.3,1.3,2.3,1.3c1.1,0,2,0.2,2.1,1.6c0.1,7.8,2.9,15.1,4,22.7
			c1.3,9.2,5.2,17.7,9.2,26c3.2,6.5,6.9,12.8,11.3,18.6c5.2,7,10,8.1,17.7,6.2c6.7-1.7,11.6-5.5,14.5-11.6c1.4-2.8,3.6-5.2,4.3-8.2
			c1.2-5.1,3.6-9.8,4.4-15.1c0.5-3,2.1-6.1,2.7-9.4c1.1-5.9,2.4-11.9,2.3-17.9c-0.1-5.5-0.4-10.9-0.4-16.4c0-1.1-0.1-2.4-0.7-3.1
			c-2-2.4-1-3.4,1.4-4.5c2.4-1.1,2.7-3.1,0.9-5c-0.4-0.4-0.6-0.7-0.3-1.1c1.1-1.1,1.3-2.6,2.5-3.8c2.1-2.1,4.1-4.3,5.7-6.8
			c1.9-2.9,3.8-5.9,6-8.6c6.8-8.5,10.4-18.2,10.9-29.1c0.2-4.4,0.2-8.9,0-13.3C262.4,32.5,263.5,27.2,261.7,22.7z M383.3,204.7
			c-0.3-1.1-0.2-2.9-2.2-2.8c-2.8,0.2-3.2-1.9-3.2-3.6c0-3.2-0.8-6.4-1.5-9.3c-1.7-7.1-3.2-14.5-8.5-20.2c-0.5-0.5-0.7-1.5-1.7-1.3
			c-1,0.2-1.5,1.1-1.6,1.9c-0.1,3.9-0.4,7.8,0,11.6c0.8,6.9,0.6,13.6-2.6,19.9c-1,1.9-0.5,3.6,1.4,4.6c4.7,2.5,9.2,5.1,12.8,9.2
			c0.9,1.1,2.8,1.9,3.6,0.1C381.2,211.5,382.7,208.4,383.3,204.7z"/>
		<path fill-rule="evenodd" clip-rule="evenodd" fill="#855914" d="M282,544.3c-0.3-4.9-1.5-9.6-1.9-14.4c-0.5-5.1,0.3-9.8,1.5-14.7
			c0.9-4,0.6-8.1,0.1-12.3c-0.8-7.5-2.7-14.8-3.7-22.2c-0.8-5.9-1.1-12-2.5-17.8c-0.5-2,0.2-4.2-0.6-6.2c0.1-0.1,0.3-0.2,0.4-0.2
			c-0.1-0.1-0.3-0.3-0.4-0.4c0.1-1.8-0.2-3.6-0.6-5.4c0.1-0.1,0.3-0.2,0.4-0.2c-0.1-0.1-0.3-0.3-0.4-0.4c0.1-4-1.9-7.4-3.6-10.8
			c-1.7-3.5-4-6.7-6-10.1c-0.9-1.5-1.1-3.2-0.9-4.9c0.1-0.1,0.3-0.2,0.4-0.2c-0.1-0.1-0.3-0.3-0.4-0.4c0.2-3.9,2.2-7.6,2.1-11.5
			c-0.1-5.8-1.4-11.4-2.4-17c-1.2-6.7-2.2-13.4-3.7-20c-1.8-8-2-16.2-3-24.3c-0.8-6.3-2.2-12.3-4.8-18c-1.7-3.7-4.4-6.9-6.7-10.3
			c-0.3-0.4-0.6-1-1.3-0.6c-0.8,0.5-0.3,0.9,0,1.4c0.9,1.8,1.3,3.7,3.3,5c1.8,1.3,1.3,3.4-0.9,4.5c-3.3,1.6-6.9,2-10.4,2.1
			c-5.4,0.2-10.9,0.4-16.3-0.1c-5-0.5-10.1-0.3-15-1.4c-6.1-1.3-10.9-5-15.6-8.9c-7.1-5.9-10.4-13.9-13.1-22.5
			c-3.8-12-4.9-24.3-4.3-36.8c0.4-8,1.4-16.1,1.9-24.1c0.2-4,0.6-8,0.8-12c0.3-5.6,0.3-11.2,0.7-16.7c0.4-5.5,0.6-11,0.3-16.4
			c-0.4-7.4-1.1-14.8-2-22.1c-0.3-2.4-0.7-4.8-0.7-7.3c0-2.1,0.3-4.2-0.5-6.2c-0.2-0.5-0.6-1.6,0.5-1.8c0.6-0.1,0.8,0.7,1.1,1.3
			c1.4,3,2.1,6.3,3.7,9.1c3.9,6.8,7.6,13.7,12.7,19.7c3,3.6,7.1,6.2,12,6.5c2.5,0.2,5.1-0.9,7.5-1.6c1.9-0.5,3.7-1.3,5.5-1.9
			c4.2-1.4,6.7-4.6,8.7-8.3c2.2-4.2,4.7-8.2,5.8-12.8c0.2-0.8,0.8-1.5,1.3-2.4c0.3,0.3,0.6,0.4,0.6,0.6c0.3,5.9,1.3,11.8,1.9,17.8
			c0.5,6.1,1.8,12.2,3.4,18.1c1.3,4.9,3.1,9.6,4.9,14.3c0.8,2.1,2.9,2.7,4.5,3.6c2.9,1.8,6,3.3,9.4,4.3c1.3,0.4,2.2,0.1,3.3-0.2
			c4.6-1.2,9.6-1.2,13.7-3.9c2.3-1.5,4.6-3,6.5-4.9c5.5-5.3,12.2-8.8,18.6-12.7c4.3-2.6,8.7-5.2,13.4-7.2c2.9-1.3,5.9-1.5,8.9-1.6
			c9.6-0.3,19.1,0.3,28.6,2.5c3.2,0.8,5.7,2,8.4,3.8c3.6,2.4,7.5,4.5,10.9,7.2c5.1,4.1,9.3,8.5,11.8,14.9c2.3,6,4.9,11.8,5.9,18.2
			c1.5,9.6,5.1,18.9,5.8,28.6c0.7,9.6,4.3,18.4,6.5,27.5c0.9,3.8,1.5,7.7,2.5,11.5c1.5,5.3,4.2,10,7.5,14.4
			c3.8,5.2,8.9,8.8,14.9,11.1c2.1,0.8,3.8,2.2,5.9,3.1c4.3,2,5.5,6.3,5.8,10.2c1,13.7,2.9,27.1,5.5,40.6c1.4,7.6,3.9,14.8,5.6,22.2
			c2.2,9.5,4.1,19.1,7.2,28.4c2.4,7,3.8,14.2,5.6,21.4c1.3,5.4,3.3,10.6,8.4,13.8c0.3,0.2,0.5,0.5,0.9,0.7c4.9,1.6,4.4,3.9,3.8,7.9
			c-0.5,3.8-0.1,7.3,1.2,10.7c0.6,1.6,1.1,3.3,1.7,5c-1-0.6-2.1-0.5-3.2-0.5c-7.4,0.3-14.7-0.5-22.1,0c0.9-4.5,1.4-9.1,1.4-13.8
			c0-5-1.3-9.7-2-14.6c0-0.2,0-0.4-0.1-0.5c-3.3-5.9-4.4-12.6-6.4-19c-2.1-6.8-3.1-14-5.2-20.8c-1.8-5.8-3.3-11.6-4.9-17.4
			c-2.1-7.4-4.8-14.7-6.2-22.4c-0.8-4.6-2.8-8.9-4.8-13.2c-2.4-5.2-5.2-10.3-7.3-15.7c-0.6-1.5-1.7-3-2.8-4.2
			c-2.4-2.6-4.6-5.4-7.2-7.6c-3.3-2.9-7.6-4.4-12-5.3c-8.2-1.7-16.4-3.6-23.7-7.8c-5.7-3.3-10.7-7.6-14.9-12.8c-2-2.5-4.2-4.8-6.5-7
			c-3.8-3.7-6.6-8.3-11.1-11.4c-1.6-1-3.3-1.3-4.5-0.2c-4.1,3.5-9.3,4.4-13.9,6.7c-4.5,2.2-9,4.5-12.8,7.8
			c-3.2,2.7-8.9,2.9-10.9-0.1c-1.6-2.4-1-5.1-0.6-7.7c0.1-0.6,0.2-1.2,0.3-1.8c0.1-0.6-0.2-1.3-0.7-1.3c-0.4,0-1.1,0.5-1.2,0.9
			c-0.5,2.6-1.6,4.9-1.2,7.8c0.7,5.3,3.2,9.8,5,14.6c0.5,1.5,0.4,2.9-0.1,4.4c-1.2,3.6-3,7.3-3.3,11c-0.5,6.7-3.3,13.1-3,20
			c-1.1,1.6-0.1,3.3-0.5,5c-1.1,0.9-0.3,1.9,0,2.8l0-0.1c-0.9,0.3-0.1,0.6,0,0.9c0,0.2,0,0.3,0,0.5c-1.1,3-0.5,6.3-1.1,9.4
			c0,0.1,0,0.2,0,0.2c-0.4,3.6-0.2,7.4-1.1,10.9c-0.9,3.4-0.5,6.6,0.5,9.9c1.3,4.5,2.8,8.9,4.1,13.5c0.9,3.4,1.5,6.8,1.2,10.1
			c-0.4,4.5,0.4,9-0.8,13.5c-0.2,0.7-0.2,1.5,0,2.2c1.7,5.7,2.1,11.6,3.4,17.3c1,4.2,1.5,8.7,2,13c0.5,4.4,0.8,8.8,1.7,13.2
			c1,5.2,1.2,10.5,2,15.7c1.3,9,1.5,18.1,2.9,27c0.3,1.6,0,3.3,0.5,4.9c-2.6-1.3-4.8,0-7.2,1C291.5,541.2,286.2,541.1,282,544.3z
			 M312.4,220.6c2.7,0,5.9-2.8,5.9-5.3c0-3.4-3.7-7.4-6.9-7.4c-2.3,0-6.8,3.9-6.9,6C304.3,216.9,308.6,220.5,312.4,220.6z
			 M329.3,228.8c-1.8,0.3-3.7,0.9-5.5,1.9c-1.7,1-2.9,6-1.7,7.6c2.3,3.1,7.6,3.1,10.1,0c0.6-0.8,1.1-1.6,1.6-2.5
			C335.4,232.9,333.1,228.8,329.3,228.8z M338.1,238.9c-0.3,3.5,1.7,5.2,5.7,5.3c3.4,0.1,7.1-3.2,7-6.1c-0.1-1.9-4.9-5.4-7.6-5.4
			C340.2,232.6,338.1,235.1,338.1,238.9z M333.4,217.3c2.3,0,3.6-1.8,3.6-5.4c0.1-3.4-3.4-6.7-6.8-6.6c-2.4,0.1-5.3,4.1-5.3,7.2
			C324.9,214.6,329.6,217.2,333.4,217.3z M293.4,231c3.3-0.1,7.7-6.1,6.6-9c-0.1-0.3-0.4-0.6-0.6-0.9c-2.7-3.2-6.8-2.9-10.1,0.4
			c-1.9,1.9-1.5,3.8-0.7,5.6C289.5,229.2,290.7,231.3,293.4,231z M281.7,229.4c-2.8-0.6-6.4,3.5-6.4,5.6c0,2.4,3.5,5.9,5.8,5.9
			c1.6,0,5.1-4.3,5.2-6.2C286.3,231.9,284.2,229.4,281.7,229.4z M310.8,232.1c-4.3,0.4-6,1.9-5.7,5.4c0.2,2.9,2.5,5.3,4.8,5.1
			c2.7-0.2,5.9-3.6,5.6-6.1C315.2,233.8,313.6,232.2,310.8,232.1z M352.7,220c2.7,0,4.2-1.5,4.2-4.4c0-3-2.5-5-6.1-5
			c-2.4,0-4.4,1.8-4.4,3.7C346.5,217.2,349.6,220,352.7,220z M260.4,239c-0.1,1.9,2.8,5.2,4.7,5.2c2,0.1,5.5-2.8,5.7-4.6
			c0.1-1.2-3.2-4.1-4.8-4.2C262.8,235.2,260.5,236.7,260.4,239z M289,243.9c0,3,1.6,5.2,3.5,5.3c1.4,0.1,3.6-2.9,3.6-4.7
			c0-2.4-2-4.6-4.2-4.6C288.6,239.8,289.2,242.3,289,243.9z M361.2,248.7c2.1-0.1,1.9-2.6,2.2-4.3c0.4-2.3-1.9-2.7-3.6-3.4
			c-0.9-0.3-4,2.2-4,3C355.6,246.9,357.3,248.6,361.2,248.7z M247.2,235.9c0,1.7,0.9,3.2,2.6,3.1c1.7-0.2,4.3-0.1,4.4-2.7
			c0.1-2.7-2.5-2.6-4.2-3C248.3,233,247.2,234.1,247.2,235.9z"/>
		<path fill-rule="evenodd" clip-rule="evenodd" fill="#855914" d="M261.7,22.7c1.8,4.5,0.7,9.8,0.8,15c0.2,4.4,0.2,8.9,0,13.3
			c-0.4,10.9-4.1,20.6-10.9,29.1c-2.2,2.7-4.1,5.7-6,8.6c-1.6,2.5-3.6,4.8-5.7,6.8c-1.2,1.1-1.4,2.7-2.5,3.8
			c-0.4,0.4-0.2,0.6,0.3,1.1c1.8,1.9,1.6,3.9-0.9,5c-2.4,1.1-3.4,2.1-1.4,4.5c0.6,0.7,0.7,2,0.7,3.1c-0.1,5.5,0.3,11,0.4,16.4
			c0.1,6-1.2,11.9-2.3,17.9c-0.6,3.3-2.3,6.3-2.7,9.4c-0.8,5.3-3.2,10-4.4,15.1c-0.7,2.9-3,5.4-4.3,8.2c-2.9,6.1-7.8,9.9-14.5,11.6
			c-7.7,1.9-12.5,0.8-17.7-6.2c-4.4-5.9-8.1-12.1-11.3-18.6c-4-8.3-7.9-16.8-9.2-26c-1.1-7.6-3.9-14.9-4-22.7c0-1.4-0.9-1.6-2.1-1.6
			c-1,0-2-0.2-2.3-1.3c-0.4-1.3,0.3-2.3,1.3-3c0.4-0.3,0.9-0.4,1.1-0.7c0.8-0.9,2.4-1.5,2.1-2.6c-0.3-1.2-1.9-0.5-3-0.6
			c-1.6-0.3-2.9-1-3.4-2.6c-0.5-1.7,1-1.8,2-2.4c0.8-0.4,1.4-1.2,0.3-1.9c-4.1-2.7-7.3-6.4-11-9.4c-5.4-4.4-9.7-9.4-12.6-15.5
			c-3.1-6.6-4.6-13.6-5.2-20.9c-0.4-4.9-0.6-9.9-0.4-14.8c0.4-8.5,1.6-16.9,6.9-24.1c1.3-1.8,1.8-4.2,3.2-6.1
			c1.3-1.6,2.8-2.6,4.4-2.4c1.9,0.2,3.6,1.3,4.5,3.6c1.7,4.5,3.6,9,5.8,13.4c2.4,4.8,3.3,10.1,5,15.1c1.8,5.1,3.9,10.2,6.2,15.2
			c2.4,5.2,5.1,10.3,7.2,15.7c1.2,3.1,3.6,5.8,5.9,8.3c1.8,1.9,3.7,0.1,5.5-0.1c0.1,0,0.2-0.3,0.4-0.4c4-0.7,5.7-3.6,6.8-7.1
			c0.3-0.8,0.9-1.7,2-1.5c1.3,0.2,1.8,1.3,2.1,2.3c0.7,2.8,1.9,1.5,2.8,0.3c0.5-0.7,1.1-1.4,1.7-2.1c0.7-0.9,1.7-1.5,2.6-0.9
			c0.8,0.6,1.7,1.8,1.3,3c-0.8,2.5,0.5,2.9,2.4,3c1.1,0,2.2,0.1,3.3,0.1c2.1,0.1,4-0.2,4.8-2.9c2.1-7.1,5.3-13.9,8.3-20.7
			c3.1-7,5.4-14.3,8.5-21.2c3-6.7,5.4-13.8,10.4-19.5c1.2-1.4,2.1-3.1,3.4-4.5c2.3-2.4,3.7-2.5,6.3-0.3c3.8,3.2,5.2,7.6,6.4,12.2
			C261.3,19.8,262,20.8,261.7,22.7z M159.9,75.2c-3.7-3.8-7.5-7.4-10.9-11.3c-0.8-0.9-2.2-1.7-1.5-3c0.7-1.3,2.1-0.8,3.4-0.4
			c2.7,0.9,5.2,2.3,8,2.9c1.1,0.2,1.9,0.4,1.5-1c-1.4-5.6-2.8-11.2-4.6-16.7c-2.2-6.7-3.9-13.4-5.6-20.2c-0.7-2.8-1.7-5.4-3-7.9
			c-1.3-2.7-3.9-2.6-5.1,0c-3.5,7.3-6,14.8-5.9,23.1c0.1,6.1,0.6,12.1,1.5,18.1c1.1,7.9,3.8,14.9,8.4,21.3c4,5.6,9.7,9.7,14.8,14.3
			c0.4,0.4,0.8,0.8,1.3,1c1.1,0.3,2.1-0.2,2.5-1.2c0.2-0.6-0.2-1.5-1.2-1.7c-1.1-0.2-1.5-1.5-2.4-2c-1.2-0.7-1.4-1.5-1-2.5
			c0.4-1.1,1.3-1.5,2.6-1.5c1.6,0,3.4,0.6,4.7-0.9c-3.6-1.9-7.1-4.1-10.9-5.5c-1.1-0.4-1.8-1-1.5-2.2c0.2-1.1,0.9-1.8,2.1-1.8
			C158.1,76.1,159,75.9,159.9,75.2z M237.3,91c1-0.9,1.5-1.3,1.9-1.8c3.1-3.2,5.1-7.1,7.8-10.6c6.4-8.2,10.5-17.5,10.5-28
			c0.1-12.2,1.2-24.4-2.1-36.4c-0.3-1.2-1.3-1.5-2-2c-1-0.7-0.9,0.8-1.3,1.2c-1.4,1.3-2.5,3.1-3.2,4.7c-4.2,8.8-8.6,17.5-11.3,26.9
			c-0.7,2.5-2.2,4.9-1.9,8c1.9-0.9,3.6-1.5,5.1-2.4c1.8-1.1,2.6,0,3,1.4c0.4,1.3,0,2.6-0.9,3.8c-1.7,2.2-3.3,4.5-5.5,7.4
			c2.4-0.9,4.3-1.3,5.6-2.3c1.5-1.2,2.8-0.8,3.3,0.4c0.6,1.4,0.8,3.2-1,4.3c-2.9,1.8-4.4,4.8-7.4,7.1c2.3,0,4.1-0.1,4.7,1.6
			c0.6,1.7-0.2,3.1-1.6,4.3c-1.9,1.5-3.1,3.7-5.1,5.1c-0.4,0.3-1.9,1.1-0.2,1.7C238.3,86.4,238,88.2,237.3,91z M205.4,162.6
			c-1.1-0.2-2.5,0.3-4,0.5c-5.9,0.9-11,5.4-12.2,11c-0.7,3.5,2.3,7.3,5.2,6.5c3.5-0.9,4-0.5,4.1,3.1c0,1.1-0.4,2.2,0.4,3.2
			c1.4,1.9,5,2.2,8,0.3c1.8-1.2,3-3.1,1.5-5.3c-0.8-1.3-0.2-2,0.8-2.6c0.9-0.5,1.8-0.7,2.8-0.7c3.1-0.2,4.5-2.5,5.5-5
			c0.9-2.3,0.3-5.1-1.4-6.6C213.3,164.6,209.9,162.4,205.4,162.6z M209.6,144.5c-0.3,2,0.5,3.8,1.1,5.6c1.3,3.8,3.9,5,7.9,4
			c3.4-0.9,4.3-3.7,6.1-6.1c2.5-3.3,3.9-7.1,4.8-11c0.6-2.8,0.3-5.8-2.2-7.7c-2.2-1.7-6.7-0.9-9.4,1.2c-1.2,0.9-2.2,2.2-3.3,3.1
			C211.2,136.6,209.9,140.3,209.6,144.5z M192.5,146.2c0-8.7-4.7-14.7-13.2-16.5c-1.7-0.4-3.3-0.3-4.4,1.7c-1.4,2.5-1.4,4.9-1.3,7.7
			c0.5,7.6,5.6,11.3,11.3,14.5c3.3,1.8,7-0.3,7.5-3.8C192.7,148.6,192.5,147.4,192.5,146.2z"/>
		<path fill-rule="evenodd" clip-rule="evenodd" fill="#855914" d="M122.5,518.3c2.7-3.3,6.2-6,8.2-9.8c3.4-6.5,6.6-13.2,9.7-19.9
			c3-6.6,5.6-13.4,7.5-20.5c2-7.6,5-14.8,7.9-22c2-4.9,4.3-9.8,5.5-14.9c0.9-4,1.1-8.6,0.1-12.6c-1.7-7.5,1.4-13.2,5.5-18.7
			c3.2-4.3,6-8.5,7-13.9c0.9-5.4,2.8-10.6,4-16c2.1-9.4,5.4-18.4,9-27.3c1.1-2.7,0.8-5.7,1.2-8.5c0.2-1.3,0.4-2.7,0.9-3.9
			c0.8-1.9,2.6-2.3,4-0.8c5.6,5.7,12.9,6.9,20.4,7.5c1.1,0.1,2.2-0.1,3.3,0.1c2.1,0.3,3,2.1,2,3.8c-1.7,2.8-0.9,5.3,0.9,7.4
			c1.8,2.2,1.2,3.9-0.3,5.8c-3.3,4.2-7,8.3-9.6,13c-3.1,5.6-6.4,11.1-9.5,16.7c-2.6,4.6-5.5,9.1-7.6,14c-3.2,7.4-5.1,15.1-4.9,23.1
			c0.1,4.6-1.4,8.3-3.9,12c-3.4,5-6,10.3-8.1,16c-2.3,6.5-5.2,12.7-8,19c-4,9.2-7.6,18.5-10,28.3c-1.4,5.8-2.4,11.5-3.2,17.3
			c-0.3,2-1.5,3.3-3.7,3.2c-2.8-0.2-4.9,0.6-6.2,3.5c-1.2,2.7-2.9,5.1-4.4,7.6C134.7,523.9,128.3,521.6,122.5,518.3z"/>
		<path fill-rule="evenodd" clip-rule="evenodd" fill="#855914" d="M217.8,485.8c5.1-5.2,10.2-10.4,15.4-15.6
			c4.5-4.5,7.4-10,10.2-15.6c4.9-9.7,7.7-20.2,12-30.1c1.8-4.2,4.1-8.2,5.5-12.7c0.3-1,1.1-2,2.2-1.5c0.8,0.3,1.3,1.4,0.9,2.5
			c-0.6,2.1-0.8,4.3-1.6,6.3c-2.3,5.4-0.9,9.9,2.5,14.2c1.8,2.3,2.2,5.2,1.1,7.7c-2.3,5.5-4.2,11-5.6,16.8
			c-1.5,6.3-4.2,12.2-5.4,18.6c-0.4,2.4-0.6,4.8-0.8,7.3c-0.1,1.5-0.7,2.3-2.2,2.6c-2.7,0.6-5.2,1.7-7.9,2.3
			c-2.1,0.4-3.1,2.8-4.1,4.6c-1.2,2.1-2.6,3.8-4.5,5.2c-0.2-1.8-1-3.1-2.6-4.1c-3.1-1.8-6.1-3.6-9.2-5.4
			C221.8,487.8,219.5,487.4,217.8,485.8z"/>
		<path fill-rule="evenodd" clip-rule="evenodd" fill="#855914" d="M286.8,387.1c0,0,0-0.1,0-0.2c1.6,0.9,1.6-0.5,1.6-1.4
			c0.2-2.4-0.3-4.8,0.5-7.1c0.2-0.6,0.1-1.6-1.1-0.9c0-0.2,0-0.3,0-0.5c0.4-0.3,0.4-0.6,0-0.9l0,0.1c0.4,0.5,0.9,0.8,1-0.1
			c0.1-0.9,0-1.8,0-2.7c1.2-1.5,0.4-3.3,0.7-4.9c0.9-4.7,2-9.4,2.6-14.1c0.4-2.9,0.7-6,1.9-8.6c1.9-4.2,2.2-8.5,2.1-12.9
			c0-2.2,0.3-4.4,1.6-6.4c1-1.5,2.5-2.1,3.9-2.6c1.2-0.4,2.5-0.4,2.8,1.6c0.2,1,0.7,2,0.4,2.9c-1.7,5.5,1.1,9.8,3.9,13.9
			c3.1,4.5,2.7,8.9,0.5,13.4c-2.1,4.3-4.3,8.6-6.7,12.8c-2,3.5-2.9,7.6-5.2,10.9c-2,3-3.6,6.1-4.9,9.4c-0.7,1.9-0.8,4-1.4,5.9
			c-0.2,0.7-0.4,1.4-0.7,2c-0.4,0.7-0.9,1.7-1.8,1.3c-0.7-0.3-1.5-1-1.4-2.1c0.2-2-0.3-4,0.4-6C288.1,389,288.7,387.5,286.8,387.1z"
			/>
		<path fill-rule="evenodd" clip-rule="evenodd" fill="#855914" d="M383.3,204.7c-0.7,3.7-2.2,6.9-3.5,10c-0.8,1.9-2.7,1-3.6-0.1
			c-3.5-4.1-8.1-6.7-12.8-9.2c-1.9-1-2.4-2.7-1.4-4.6c3.2-6.3,3.4-13,2.6-19.9c-0.4-3.8-0.1-7.7,0-11.6c0-0.8,0.5-1.7,1.6-1.9
			c1-0.2,1.2,0.8,1.7,1.3c5.3,5.7,6.9,13,8.5,20.2c0.7,3,1.5,6.1,1.5,9.3c0,1.7,0.4,3.8,3.2,3.6C383.1,201.7,383,203.6,383.3,204.7z
			"/>
		<path fill-rule="evenodd" clip-rule="evenodd" fill="#603813" d="M449.1,499.6c7.4-0.5,14.7,0.3,22.1,0c1.1,0,2.2-0.1,3.2,0.5
			c1.9,1.9,1.3,4.2,0.5,6.2c-2,4.5-4.8,8.5-9.1,11.1c-3,1.8-5.6,0.7-6.8-1.8c-1.6-3.4-1.7-3.4-5.5-2.2c-1.9,0.6-3.9,1.2-5.9,1.6
			c-1.4,0.3-2.7-0.3-3.6-1.4c-0.8-1-0.6-2.1,0-3.2C445.7,506.8,447.4,503.2,449.1,499.6z"/>
		<path fill-rule="evenodd" clip-rule="evenodd" fill="#603813" d="M282,544.3c4.2-3.2,9.6-3,14.2-5c2.3-1,4.5-2.3,7.2-1
			c1.6,2.6,0.9,5.6,1.7,8.3c0.5,1.9,0.9,3.8,1.1,5.8c0.2,1.2,0,2.4-1.4,3.2c-1.5,0.9-2.8,0.4-4-0.4c-1.3-0.8-2.3-2-3.5-2.9
			c-1.6-1.3-2.6-0.9-3.2,1.1c-0.5,2-1.1,3.9-1.9,5.8c-0.9,2.3-2.6,2.5-4.4,0.8c-1.1-1-1.6-2.4-2-3.7
			C284.5,552.1,283.2,548.2,282,544.3z"/>
		<path fill-rule="evenodd" clip-rule="evenodd" fill="#603813" d="M122.5,518.3c5.8,3.3,12.2,5.6,17.7,9.5c0,3-2,5-4.2,6.4
			c-3.7,2.3-8,3.1-12.3,4c-2.7,0.6-4.2-1.8-3.2-4.5c0.3-0.7,0.8-1.4,0.8-2.3c-0.1-1.3-0.1-2.1-2-1.7c-2.1,0.5-4.4,0.3-6.6,0.1
			c-2.4-0.2-3-2.6-1.3-4.7c1.7-2.1,4.3-3.1,6.6-4.6C119.5,519.7,120.7,518.5,122.5,518.3z"/>
		<path fill-rule="evenodd" clip-rule="evenodd" fill="#603813" d="M217.8,485.8c1.7,1.6,4,2,6,3.2c3.1,1.8,6.1,3.6,9.2,5.4
			c1.7,1,2.5,2.3,2.6,4.1c-3.8,5-9.3,6.7-15.1,7.7c-3.3,0.5-4.8-1.7-3.6-4.7c1.3-3.3,1.2-3.5-2.2-3.5c-0.5,0-1.1,0-1.7,0
			c-1.5,0-2.7-0.8-3.3-2c-0.6-1.3,0.2-2.5,1.1-3.4C213.2,490.3,215.5,488.1,217.8,485.8z"/>
		<path fill-rule="evenodd" clip-rule="evenodd" fill="none" d="M289.7,368.4c-0.4,1.6,0.5,3.4-0.7,4.9c-0.4,0-0.7,0-1.1,0
			c0.4-1.6-0.6-3.4,0.5-5C288.8,368.3,289.2,368.4,289.7,368.4z"/>
		<path fill-rule="evenodd" clip-rule="evenodd" fill="none" d="M263.7,423.4c0.1,0.1,0.3,0.3,0.4,0.4c-0.1,0.1-0.3,0.2-0.4,0.2
			C263.7,423.9,263.7,423.7,263.7,423.4z"/>
		<path fill-rule="evenodd" clip-rule="evenodd" fill="none" d="M274.2,449.9c0.1,0.1,0.3,0.3,0.4,0.4c-0.1,0.1-0.3,0.2-0.4,0.2
			C274.2,450.4,274.2,450.1,274.2,449.9z"/>
		<path fill-rule="evenodd" clip-rule="evenodd" fill="none" d="M274.7,456c0.1,0.1,0.3,0.3,0.4,0.4c-0.1,0.1-0.3,0.2-0.4,0.2
			C274.7,456.4,274.7,456.2,274.7,456z"/>
		<path fill-rule="evenodd" clip-rule="evenodd" fill="none" d="M312.4,220.6c-3.8,0-8.1-3.7-7.9-6.7c0.1-2.1,4.6-6,6.9-6
			c3.2,0,6.9,4,6.9,7.4C318.2,217.7,315,220.6,312.4,220.6z"/>
		<path fill-rule="evenodd" clip-rule="evenodd" fill="none" d="M329.3,228.8c3.7,0,6.1,4.1,4.4,7.1c-0.5,0.9-1,1.7-1.6,2.5
			c-2.5,3.1-7.8,3.1-10.1,0c-1.2-1.6,0-6.6,1.7-7.6C325.6,229.7,327.6,229.2,329.3,228.8z"/>
		<path fill-rule="evenodd" clip-rule="evenodd" fill="none" d="M338.1,238.9c0-3.9,2-6.4,5.1-6.2c2.7,0.1,7.5,3.5,7.6,5.4
			c0.1,2.9-3.6,6.2-7,6.1C339.9,244.2,337.8,242.4,338.1,238.9z"/>
		<path fill-rule="evenodd" clip-rule="evenodd" fill="none" d="M333.4,217.3c-3.8,0-8.5-2.7-8.5-4.8c0-3.1,3-7.1,5.3-7.2
			c3.4-0.1,6.8,3.2,6.8,6.6C337,215.4,335.7,217.3,333.4,217.3z"/>
		<path fill-rule="evenodd" clip-rule="evenodd" fill="none" d="M293.4,231c-2.6,0.3-3.8-1.8-4.7-3.8c-0.9-1.8-1.3-3.7,0.7-5.6
			c3.3-3.3,7.4-3.6,10.1-0.4c0.2,0.3,0.5,0.5,0.6,0.9C301,224.9,296.7,231,293.4,231z"/>
		<path fill-rule="evenodd" clip-rule="evenodd" fill="none" d="M281.7,229.4c2.5,0,4.6,2.5,4.6,5.3c0,2-3.6,6.3-5.2,6.2
			c-2.3-0.1-5.9-3.6-5.8-5.9C275.3,232.9,278.9,228.8,281.7,229.4z"/>
		<path fill-rule="evenodd" clip-rule="evenodd" fill="none" d="M310.8,232.1c2.8,0,4.4,1.6,4.7,4.3c0.3,2.5-2.9,5.9-5.6,6.1
			c-2.3,0.2-4.6-2.3-4.8-5.1C304.8,234.1,306.5,232.5,310.8,232.1z"/>
		<path fill-rule="evenodd" clip-rule="evenodd" fill="none" d="M352.7,220c-3.1,0-6.2-2.8-6.3-5.7c-0.1-1.9,1.9-3.6,4.4-3.7
			c3.6-0.1,6.1,2,6.1,5C356.9,218.5,355.4,220,352.7,220z"/>
		<path fill-rule="evenodd" clip-rule="evenodd" fill="none" d="M260.4,239c0.1-2.3,2.4-3.8,5.5-3.6c1.6,0.1,4.9,3,4.8,4.2
			c-0.1,1.8-3.7,4.6-5.7,4.6C263.2,244.2,260.3,240.9,260.4,239z"/>
		<path fill-rule="evenodd" clip-rule="evenodd" fill="none" d="M289,243.9c0.1-1.6-0.4-4.1,2.9-4c2.2,0,4.2,2.3,4.2,4.6
			c0,1.9-2.2,4.8-3.6,4.7C290.6,249.1,289,246.9,289,243.9z"/>
		<path fill-rule="evenodd" clip-rule="evenodd" fill="none" d="M361.2,248.7c-3.9-0.1-5.6-1.8-5.4-4.6c0.1-0.8,3.2-3.4,4-3
			c1.6,0.6,3.9,1.1,3.6,3.4C363.1,246.1,363.2,248.6,361.2,248.7z"/>
		<path fill-rule="evenodd" clip-rule="evenodd" fill="none" d="M247.2,235.9c0-1.9,1.1-2.9,2.7-2.6c1.7,0.4,4.3,0.3,4.2,3
			c-0.1,2.6-2.7,2.5-4.4,2.7C248.1,239.2,247.2,237.6,247.2,235.9z"/>
		<path fill-rule="evenodd" clip-rule="evenodd" fill="none" d="M287.9,377.4c1.2-0.7,1.3,0.3,1.1,0.9c-0.8,2.4-0.4,4.8-0.5,7.1
			c-0.1,0.8,0,2.2-1.6,1.4C287.5,383.7,286.8,380.5,287.9,377.4z"/>
		<path fill-rule="evenodd" clip-rule="evenodd" fill="none" d="M287.9,373.3c0.4,0,0.7,0,1.1,0c0,0.9,0.1,1.8,0,2.7
			c-0.1,0.9-0.6,0.6-1,0.1C287.6,375.2,286.7,374.2,287.9,373.3z"/>
		<path fill-rule="evenodd" clip-rule="evenodd" fill="none" d="M288,376c0.4,0.3,0.4,0.6,0,0.9C287.8,376.6,287.1,376.3,288,376z"
			/>
		<path fill-rule="evenodd" clip-rule="evenodd" fill="none" d="M159.9,75.2c-0.9,0.7-1.8,0.9-2.8,0.9c-1.2,0-1.8,0.8-2.1,1.8
			c-0.3,1.2,0.4,1.8,1.5,2.2c3.9,1.4,7.3,3.6,10.9,5.5c-1.4,1.5-3.2,0.9-4.7,0.9c-1.3,0-2.2,0.5-2.6,1.5c-0.4,0.9-0.1,1.8,1,2.5
			c0.8,0.5,1.2,1.7,2.4,2c1,0.2,1.4,1.1,1.2,1.7c-0.4,1-1.4,1.5-2.5,1.2c-0.5-0.1-0.9-0.6-1.3-1c-5.1-4.6-10.7-8.7-14.8-14.3
			c-4.5-6.3-7.3-13.4-8.4-21.3c-0.9-6-1.4-12-1.5-18.1c-0.1-8.3,2.4-15.8,5.9-23.1c1.2-2.6,3.8-2.7,5.1,0c1.2,2.5,2.3,5.1,3,7.9
			c1.7,6.8,3.5,13.6,5.6,20.2c1.8,5.5,3.1,11.1,4.6,16.7c0.4,1.4-0.5,1.2-1.5,1c-2.8-0.6-5.3-2-8-2.9c-1.3-0.4-2.7-1-3.4,0.4
			c-0.7,1.3,0.7,2,1.5,3C152.4,67.8,156.3,71.4,159.9,75.2z"/>
		<path fill-rule="evenodd" clip-rule="evenodd" fill="none" d="M237.3,91c0.7-2.8,1.1-4.7-1.6-5.6c-1.7-0.6-0.2-1.4,0.2-1.7
			c2-1.5,3.2-3.6,5.1-5.1c1.4-1.2,2.2-2.6,1.6-4.3c-0.6-1.7-2.4-1.6-4.7-1.6c3-2.3,4.5-5.3,7.4-7.1c1.7-1.1,1.6-2.9,1-4.3
			c-0.5-1.1-1.8-1.6-3.3-0.4c-1.3,1-3.2,1.4-5.6,2.3c2.1-2.9,3.7-5.2,5.5-7.4c0.9-1.2,1.3-2.5,0.9-3.8c-0.4-1.4-1.1-2.5-3-1.4
			c-1.5,0.9-3.2,1.5-5.1,2.4c-0.3-3,1.2-5.4,1.9-8c2.7-9.4,7.2-18.1,11.3-26.9c0.8-1.6,1.9-3.3,3.2-4.7c0.4-0.4,0.3-1.9,1.3-1.2
			c0.7,0.5,1.6,0.7,2,2c3.2,12,2.1,24.2,2.1,36.4c-0.1,10.5-4.1,19.8-10.5,28c-2.7,3.5-4.7,7.4-7.8,10.6
			C238.7,89.7,238.3,90.1,237.3,91z"/>
		<path fill-rule="evenodd" clip-rule="evenodd" fill="#42210B" d="M205.4,162.6c4.5-0.2,7.9,1.9,10.8,4.4c1.7,1.4,2.3,4.2,1.4,6.6
			c-0.9,2.5-2.4,4.8-5.5,5c-1,0.1-2,0.2-2.8,0.7c-1,0.6-1.7,1.3-0.8,2.6c1.5,2.3,0.3,4.2-1.5,5.3c-3,1.9-6.6,1.6-8-0.3
			c-0.8-1-0.4-2.1-0.4-3.2c-0.1-3.6-0.6-4-4.1-3.1c-2.9,0.8-6-3.1-5.2-6.5c1.2-5.7,6.3-10.1,12.2-11
			C202.9,162.9,204.3,162.5,205.4,162.6z"/>
		<path fill-rule="evenodd" clip-rule="evenodd" d="M209.6,144.5c0.3-4.2,1.6-7.9,4.9-10.9c1.1-1,2-2.2,3.3-3.1
			c2.7-2.1,7.2-2.9,9.4-1.2c2.5,1.9,2.8,4.9,2.2,7.7c-0.8,3.9-2.3,7.7-4.8,11c-1.7,2.4-2.7,5.2-6.1,6.1c-4,1-6.5-0.2-7.9-4
			C210.1,148.3,209.3,146.5,209.6,144.5z"/>
		<path fill-rule="evenodd" clip-rule="evenodd" d="M192.5,146.2c0,1.2,0.2,2.4,0,3.6c-0.6,3.5-4.2,5.6-7.5,3.8
			c-5.7-3.2-10.8-6.9-11.3-14.5c-0.2-2.8-0.1-5.2,1.3-7.7c1.1-2,2.7-2.1,4.4-1.7C187.8,131.5,192.5,137.5,192.5,146.2z"/>
		<circle fill-rule="evenodd" clip-rule="evenodd" fill="#E5E2D3" cx="187" cy="139.4" r="3.4"/>
		<circle fill-rule="evenodd" clip-rule="evenodd" fill="#E5E2D3" cx="224.7" cy="139.4" r="3.4"/>
		<circle fill-rule="evenodd" clip-rule="evenodd" fill="#E5E2D3" cx="211" cy="168.8" r="3.4"/>
	</g>
</g>
</svg>
