<?xml version="1.0" encoding="utf-8"?>
<!-- Generator: Adobe Illustrator 16.0.0, SVG Export Plug-In . SVG Version: 6.00 Build 0)  -->
<!DOCTYPE svg PUBLIC "-//W3C//DTD SVG 1.1//EN" "http://www.w3.org/Graphics/SVG/1.1/DTD/svg11.dtd">
<svg version="1.1" xmlns="http://www.w3.org/2000/svg" xmlns:xlink="http://www.w3.org/1999/xlink" x="0px" y="0px" width="566.9px"
	 height="566.9px" viewBox="0 0 566.9 566.9" enable-background="new 0 0 566.9 566.9" xml:space="preserve">
<g id="fond" display="none">
	
		<rect x="-10187.9" y="-8861.9" display="inline" fill-rule="evenodd" clip-rule="evenodd" fill="#F2F2F2" width="15942.5" height="15814.7"/>
</g>
<g id="en_cours">
</g>
<g id="fini">
	<g>
		<path fill-rule="evenodd" clip-rule="evenodd" fill="#EF8B46" d="M154.6,22.8c5.4-0.3,11.9,6.9,11.4,12.9
			c-0.7,7.4,2.9,12.7,7.8,17.4c3.9,3.8,7.2,8.1,11.4,11.6c4.1,3.5,3,9.9-1.9,12.4c-3.2,1.6-6.5,2.7-10.1,2.4c-2.4-0.2-4.6,0.8-7,0.9
			c-16.2,2-46,2.2-60.3,1.9c-5.8-0.1-12.1-0.2-17.2-3.4c-8.2-5.2-4.3-14.5-3.5-15.4c2.8-3,6-3.8,10.1-2.3c3,1,6.1,2.9,9.5,1.9
			c7.7-2.2,13.4-8,20.4-11.7c0.4-0.2,0.6-1,0.9-1.4c5.9-6.9,10.1-15.2,17.6-20.7C147,26.7,150.3,24,154.6,22.8z"/>
		<path fill-rule="evenodd" clip-rule="evenodd" fill="#999999" d="M291.3,427.1c-7.8-0.2-15.7-0.5-23.1-3.4
			c-0.7-0.3-1.6-0.1-2.4-0.2c-0.1-2-1.8-2.5-3.2-3.4c-8.6-5.3-17-10.8-24.6-17.5c-2.8-2.5-5.4-5.2-8-8c-2.9-3.1-3.8-6.5-1.9-10.5
			c5.7-0.8,10.7,1.7,15.9,3.1c7,1.9,13.9,3.8,21.1,5.1c6.4,1.1,12.8,3.8,19.1,6.5c6.3,2.7,11.5,7,17.7,9.9c4.3,2,3.5,8-1.2,10.4
			c-3,1.6-5.4,4-8.2,5.8C291.8,425.5,291.3,426.2,291.3,427.1z"/>
		<path fill-rule="evenodd" clip-rule="evenodd" fill="#BFAE76" d="M375.9,517.4c-0.2-0.2-0.4-0.4-0.6-0.6
			C375.8,516.7,376,516.9,375.9,517.4z"/>
		<g>
			<polygon fill="#EF8B46" points="309.3,528.9 309.3,528.9 309.3,528.9 			"/>
			<path fill="#EF8B46" d="M375.9,517.4c-0.2-0.2-0.4-0.4-0.6-0.6c-3.6-2.8-7.7-1.2-11.2-0.4c-8.4,1.8-16.8,1.8-25.3,1.7
				c-0.9,0-1.8-0.4-2.7-0.7c-1.3-0.4-2-1.5-1.5-2.6c2.3-4.9,2.6-10.5,5.4-15.2c1.9-3.3,4.3-6.3,6.5-9.4c5.1-7.2,10.2-14.4,14.9-21.8
				c3.6-5.7,8.6-10.6,11-17.2c1.3-3.5,2.1-6.6,0.1-9.9c-1.4-2.2-2.6-4.6-3.9-6.9c-2.7,2.5-5.1,5.7-8.9,6.4c-5.3,1-10.6,1.9-16,1.6
				c0.5,0.4,1.1,0.7,1.6,1.2c6.3,5.4,7.3,9.1,2.5,15.9c-5.5,8-10.5,16.4-15.6,24.7c-4.2,6.8-9.2,13-12.6,20.3
				c-2.2,4.8-6.5,7.4-12.2,7.3c-13.8-0.1-27.7-0.2-41.5,0c-3.5,0.1-8-0.6-9.9,3c-1.6,3-3.6,5.3-5.8,7.6c-2.2,1.8-6.2,5.4-8.4,7.4
				c-1,0.2-2,0.3-3,0.5c-2.4,0.3-4.8,0.7-4.6,3.5c0.2,2.7,2.3,3.7,5,3.8c1.8,0.1,3.5-0.4,5.2-0.8c3.5-0.9,5.5,2.3,8.3,2.8
				c9.7,1.7,19.1,4.4,28.3,8c3.3,1.3,6.6,2.7,9.9,4l0,0c1.5,1.1,2.9,2.2,3.9,2.9c-1.9,1.5-1.7,3.4-0.2,5.1c1.7,1.9,3.5,1.1,5.1-0.6
				c3.3-3.5,6.6-7,9.4-10.9c2.9-4,7.6-5.9,10.4-9.8c2.7-3.7,7.1-5.7,9.5-9.8c0.5-0.9,2.2-1.6,3.4-1.6c7.8,0.4,15.4-1.9,23.1-2.3
				c6-0.4,12.1-1.2,18.1-2.1C376.8,521.8,377.3,520.5,375.9,517.4z M273,515.2c2.7-0.1,5.8-0.1,9.2,0c1.7,0,3.4,0.1,5.2,0.3
				c0.9,0.1,1.8,0.2,2.7,0.3c0.5,0.1,0.9,0.2,1.4,0.4c0.5,0.2,1,0.3,1.6,0.7c0.2,0.1,0.3,0.2,0.4,0.4c0.1,0.2,0.3,0.4,0.3,0.7
				c0.1,0.6-0.1,1.1-0.3,1.3c-0.3,0.5-0.6,0.6-0.9,0.8c-0.5,0.3-0.9,0.5-1.4,0.7c-0.9,0.4-1.8,0.6-2.6,0.9c-1.7,0.5-3.4,0.9-5.1,1.3
				c-3.3,0.8-6.4,1.4-9,2c-5.3,1.1-8.8,1.7-8.8,1.7s3.5-0.9,8.6-2.4c2.6-0.8,5.6-1.7,8.7-2.8c1.6-0.5,3.2-1.1,4.8-1.8
				c0.8-0.3,1.5-0.7,2.2-1.1l-0.6-0.2c-0.8-0.2-1.6-0.4-2.5-0.6c-1.7-0.4-3.4-0.6-5-0.8c-3.3-0.4-6.4-0.7-9.1-0.9
				c-5.4-0.4-8.9-0.5-8.9-0.5S267.6,515.4,273,515.2z M293.9,553c-0.1-0.2-0.2-0.3-0.3-0.5c0.3,0,0.6,0,0.9,0
				C294.2,552.7,294.1,552.9,293.9,553z M312.9,529.1l-0.1,0.7c-0.1,0.4-0.2,0.8-0.3,1.1c-0.3,0.6-0.5,1.2-0.9,1.7
				c-1.3,2.1-2.7,3.7-4.1,5.4c-1.3,1.6-2.6,3.1-3.8,4.5c-2.4,2.7-4.5,4.9-5.9,6.4c-1.5,1.5-2.3,2.4-2.3,2.4s0.7-0.9,2-2.6
				c1.3-1.7,3.1-4.1,5.1-7c1-1.5,2.1-3.1,3.2-4.8c1-1.8,2-3.7,2.8-5.6c0.2-0.5,0.4-1,0.5-1.4c0-0.1,0.1-0.3,0.1-0.4
				c-0.3-0.1-0.8-0.1-1.2-0.1c-2.2-0.1-4.6-0.1-6.9,0c-4.8,0.2-9.5,0.6-14,1.1c-3,0.3-5.9,0.7-8.6,1.1c0,0.1,0,0.3,0.1,0.5
				c-0.4-0.1-0.9,0-1.2-0.3c-0.8,0.1-1.7,0.2-2.5,0.3c-7.1,1-11.9,1.7-11.9,1.7s4.7-1.1,11.7-2.6c3.5-0.8,7.7-1.6,12.1-2.4
				c4.4-0.8,9.2-1.7,14-2.5c2.4-0.3,4.8-0.6,7.4-0.6c0.7,0,1.3,0.1,2.1,0.2c0.4,0.1,0.8,0.2,1.4,0.5c0.3,0.3,0.6,0.4,1,1.2l0.1,0.2
				c0,0.1,0,0.1,0.1,0.3C312.9,528.4,313,528.8,312.9,529.1z"/>
			<polygon fill="#EF8B46" points="230.6,497 230.6,497 230.6,497 			"/>
			<path fill="#EF8B46" d="M255.4,492.8c2.3-1.4,4.6-2.5,7.1-3.5c3.4-1.3,6.5,0.3,9.7,0.1c6.1-0.4,12.1,0.7,18.3,0.2
				c3.3-0.2,6.8,0.5,10.2,0.5c2.6,0,4.9-0.8,6.6-2.9c-1.6-2.4-3.8-3.1-6.3-3.6c-7.4-1.6-14.8-1.4-22.2-1.3c-2.3,0-4.1-1.1-4.4-2.8
				c-0.7-4.3-1.1-9.2,1-12.8c4.6-7.9,9.7-15.6,15.7-22.5c4.9-5.6,5-6.3,1.7-12.9c-0.7-1.4-1.6-2.6-1.5-4.2
				c-7.8-0.2-15.7-0.5-23.1-3.4c-0.7-0.3-1.6-0.1-2.4-0.2c0.5,4.5,2.8,8.2,5.5,11.8c1.2,1.6,3.5,3.3,2.9,5.3
				c-1.6,4.9-2.6,10.1-5.8,14.3c-3.8,5-7.6,10-11.4,15c-3.3,4.4-6.9,7-13.2,6.8c-11.5-0.3-23-1.1-34.6-1c-2.8,0-4.8,0.8-5.8,3.5
				c-0.9,2.5-2.6,3.7-5.2,4.6c-6,1.9-12,4.1-17.6,7.3c-2.4,1.4-4.8,2.6-7.8,2.7c-2.3,0.1-4.6,1.7-4.4,4.3c0.1,2.7,2.5,3,4.8,2.8
				c0.1,0.2,0.2,0.4,0.3,0.5c0.2-0.2,0.4-0.4,0.6-0.5c1.3-0.4,2.3,0.4,3.4,0.7c3.7,1.2,7.7-0.2,11.2,0.9c6.7,2.2,13.3,4.9,18.7,9.4
				c1.9,1.6,4.9,2.3,5.4,5.6c0.4,2.9,0.6,6.6,4.2,7.6c3.6,1,5.2-2.2,7.2-4.3c7.2-7.7,14.9-14.8,22.4-22.2
				C249.2,496.1,252.4,494.6,255.4,492.8z M199.7,489.8c4.9-0.8,11.4-1.9,17.9-3.4c1.6-0.4,3.2-0.8,4.7-1.2c0.3-0.1,0.7-0.2,1-0.3
				c-1.1-0.7-2.4-1.3-3.7-1.7c-1.3-0.5-2.6-0.8-3.8-1.1c-2.4-0.6-4.4-1-5.9-1.2c-1.4-0.2-2.3-0.4-2.3-0.4s0.8,0,2.3,0
				c1.5,0,3.5,0.1,6,0.4c1.3,0.1,2.6,0.3,4,0.6c1.4,0.3,3,0.6,4.5,1.4c0.4,0.2,0.8,0.4,1.2,0.7l0.1,0.1l0,0l0,0l0.1,0.1l0.1,0.1
				c0.1,0.1,0.1,0.1,0.2,0.2c0.2,0.3,0.4,0.8,0.3,1.3c-0.1,0.4-0.3,0.7-0.5,0.8c-0.2,0.2-0.3,0.3-0.4,0.3c-0.5,0.3-0.9,0.5-1.3,0.6
				c-0.4,0.2-0.8,0.3-1.2,0.4c-1.6,0.4-3.3,0.7-4.9,1c-3.3,0.5-6.6,0.9-9.7,1.2c-3.1,0.3-6,0.6-8.5,0.8c-5,0.4-8.3,0.6-8.3,0.6
				S194.8,490.6,199.7,489.8z M234.2,497.4l-0.1,0.6c-0.1,0.4-0.2,0.7-0.4,1c-0.3,0.6-0.6,1.2-1,1.7c-1.4,2-3,3.6-4.4,5.1
				c-1.4,1.5-2.8,3-4.1,4.2c-2.6,2.6-4.8,4.6-6.3,6c-1.6,1.4-2.4,2.2-2.4,2.2s0.8-0.9,2.2-2.5c1.4-1.6,3.3-3.9,5.5-6.7
				c1.1-1.4,2.3-3,3.5-4.6c1.1-1.7,2.2-3.6,3.1-5.5c0.2-0.5,0.4-0.9,0.6-1.4c0.1-0.1,0.1-0.3,0.1-0.4c-0.3-0.1-0.8-0.2-1.2-0.2
				c-2.2-0.3-4.6-0.4-6.9-0.4c-4.8-0.1-9.6,0-14.1,0.3c-4.5,0.2-8.7,0.5-12.3,0.8c-7.2,0.6-12,1-12,1s4.7-0.8,11.9-1.9
				c3.6-0.5,7.7-1.1,12.2-1.7c4.5-0.6,9.3-1.2,14.1-1.6c2.4-0.2,4.9-0.3,7.4-0.1c0.7,0.1,1.3,0.2,2.1,0.4c0.4,0.1,0.8,0.3,1.4,0.6
				c0.3,0.3,0.6,0.4,0.9,1.3l0.1,0.2c0,0.1,0,0.1,0.1,0.3C234.2,496.7,234.2,497.2,234.2,497.4z"/>
			<path fill="#EF8B46" d="M304.3,528.1c0.3,0,0.6,0,0.9,0c-0.1-0.2-0.2-0.4-0.3-0.5C304.6,527.7,304.5,527.9,304.3,528.1z"/>
			<path fill="#EF8B46" d="M277.1,531.1c0,0.2,0.1,0.3,0.2,0.4c0.4,0,0.8-0.1,1.1-0.2C278.3,530.6,278.1,530.1,277.1,531.1z"/>
		</g>
		<path fill="#999999" d="M479.9,255.7c-3.5-0.4-4-2.5-2.2-5.5c0.9-1.5,1.8-3.6,0-4.8c-1.7-1.1-3.6-0.6-5.4,1
			c-10.3,9.4-21.5,17.3-35.6,19.7c-5.7,1-11.7,1.1-17.4-1c-7.6-2.8-14.1-7.4-20.7-11.8c-10-6.7-19.8-13.6-30.9-18.2
			c-9.7-4-19.3-8.6-29.2-12.1c-11.3-4-22.8-4.2-34.2-4.3c-7.9-0.1-15.9,1.7-23.8,3.1c-13.7,2.3-25.8,8.1-38,14.1
			c-2.2,1.1-4.1,3-6.5,3.9c-6,2.2-12,4.6-18.2,6.2c-7.6,2-15,5.1-23.1,4.8c-3.3-0.2-6.5,0.1-9.7,1.2c-3.8,1.3-11.3-4.1-11.7-8
			c-0.3-4.1-0.4-8.1-0.2-12.2c0.4-9.7,3.4-18.6,6.1-27.6c1.9-6.5,4.4-12.8,7.2-19c3.5-7.7,8-14.9,11.7-22.6
			c4.8-9.8,9.5-19.7,13.9-29.7c1.6-3.6,3.9-6.7,5.1-10.5c2.1-7.1,3.9-14.3,5.8-21.4c2.5-9.6,3.6-19.5,4-29.3
			c0.3-9.1-1.8-18.3-3.3-27.4c-2.4-14.2-8-24.7-20.2-31.6c-5.6-3.1-11.4-5.9-20-6.4c-10.6-0.7-19.7,3.9-23.8,7.2
			c-2.9,2.3-5.2,5.1-4.8,9.2c5.4-0.3,11.9,6.9,11.4,12.9c-0.7,7.4,2.9,12.7,7.8,17.4c3.9,3.8,7.2,8.1,11.4,11.6
			c4.1,3.5,3,9.9-1.9,12.4c-3.2,1.6-6.5,2.7-10.1,2.4c-2.4-0.2-4.6,0.8-7,0.9c1,1,2.1,2.1,2.8,3.2c1.8,2.9,5.5,5.2,3.7,9.5
			c0.2,0.2,0.4,0.4,0.5,0.6c-0.2,0.1-0.4,0.2-0.5,0.3c-0.4,8.6-4.3,16.2-7.8,23.7c-4.7,10.1-9.7,20-15,29.8
			c-5.7,10.6-11,21.5-15.2,32.8c-2.9,7.7-6,15.4-8.6,23.2c-4.1,12.2-6.3,24.8-8.1,37.6c-1.4,9.9-3,19.7-2.8,29.8
			c0.2,8.6,2.8,16.6,5.3,24.7c2,6.6,6.2,12.4,8.2,18.9c3.3,10.6,9,19.2,16.7,26.9c11.1,11.1,24.6,18.4,38.7,24.7
			c10.6,4.8,21.3,9,32.9,10.9c11.7,1.9,22.8,6.3,34.3,9.4c12.9,3.4,26,6,38.5,11.6c14.1,6.4,24.4,16.7,33.9,28
			c5.8,6.9,11.3,13.5,20.2,16.3c5.4,0.3,10.8-0.6,16-1.6c3.9-0.7,6.2-3.9,8.9-6.4c1.5-3.1,1.7-6.6,2.7-9.8
			c2.4-7.4,4.4-14.9,10.2-20.6c3.2-3.2,7.2-5.1,10.7-7.7c8.9-6.7,18.2-13,26.5-20.5c6.1-5.4,12.2-10.6,17.5-16.9
			c5.9-7.1,10.1-15.2,15.6-22.6c2.4-3.2,4.4-7.1,7.4-9.6c2.8-2.4,5.1-5.1,7.4-7.9c1.1-1.3,1.7-3.2,0.4-4.9c-1.4-1.9-3.3-1.5-5.2-0.9
			c-1.4,0.5-2.6,1.7-4.2,0.8c-0.3-1.3,0-2.2,0.9-3.3c7.4-9.4,13.3-19.7,17.9-30.7c2.2-5.1,3.9-10.5,6.9-15.2c0-1.7,0-3.3,0-5
			C482.3,258.3,482.4,256,479.9,255.7z M430.1,328.5c-0.8,0.6-1.8,1.3-3,2.1c-1.2,0.8-2.6,1.8-4.2,2.8c-3.1,2-7.1,4.3-11.7,6.8
			c-4.6,2.4-10,4.9-16,7.2c-6,2.3-12.7,4.3-20,5.9c-7.2,1.6-15,2.7-23.1,3.2c-4,0.2-8.1,0.3-12.3,0.3c-4.2-0.1-8.4-0.3-12.6-0.7
			c-8.5-0.8-17-2.2-25.4-4.1C285,348,268.7,342,254.1,335c-7.3-3.5-14.2-7.2-20.6-11.1c-3.2-1.9-6.2-3.9-9.2-5.9c-1.5-1-2.9-2-4.3-3
			c-1.3-1-2.7-2.1-4-3.2c-5.1-4.4-9.1-9.8-10.9-15.5c-0.9-2.8-1.3-5.6-1.3-8.2c0-2.6,0.4-4.9,1-7c1.1-4.1,2.7-7,3.9-8.8
			c0.6-0.9,1.1-1.6,1.4-2.1c0.3-0.4,0.5-0.6,0.5-0.6c1.1-1.6,3.3-1.9,4.9-0.7c1.6,1.1,1.9,3.3,0.7,4.9c0,0,0,0,0,0.1l0,0
			c0,0-0.2,0.2-0.5,0.6c-0.3,0.3-0.7,0.9-1.2,1.6c-1,1.5-2.3,3.8-3.3,6.9c-0.5,1.6-0.8,3.3-0.9,5.3c-0.1,1.9,0.1,4,0.8,6.2
			c1.2,4.4,4.3,8.9,8.8,13c1.1,1,2.3,2,3.6,3c1.3,1,2.6,2,4,3c2.8,2,5.7,4,8.7,5.9c6.1,3.9,12.8,7.7,19.9,11.3
			c14.2,7.2,30,13.5,46.5,17.7c8.2,2.1,16.6,3.7,24.9,4.7c4.2,0.5,8.3,0.8,12.4,1c4.1,0.2,8.1,0.2,12.1,0.1c8-0.3,15.7-1.1,22.8-2.5
			c7.2-1.4,13.9-3.2,19.9-5.3c6-2.1,11.4-4.4,16.1-6.7c4.7-2.3,8.6-4.5,11.8-6.5c1.6-0.9,3-1.9,4.2-2.7
			C428.3,329.8,429.3,329,430.1,328.5c1.6-1.2,2.5-1.8,2.5-1.8S431.8,327.4,430.1,328.5z"/>
		<circle fill-rule="evenodd" clip-rule="evenodd" fill="#333333" cx="189" cy="36.2" r="5.9"/>
	</g>
</g>
</svg>
