<?xml version="1.0" encoding="utf-8"?>
<!-- Generator: Adobe Illustrator 16.0.0, SVG Export Plug-In . SVG Version: 6.00 Build 0)  -->
<!DOCTYPE svg PUBLIC "-//W3C//DTD SVG 1.1//EN" "http://www.w3.org/Graphics/SVG/1.1/DTD/svg11.dtd">
<svg version="1.1" id="Calque_1" xmlns="http://www.w3.org/2000/svg" xmlns:xlink="http://www.w3.org/1999/xlink" x="0px" y="0px"
	 width="349.92px" height="239.76px" viewBox="0 0 349.92 239.76" enable-background="new 0 0 349.92 239.76" xml:space="preserve">
<g>
	<path fill="#E5E2D3" d="M12.15,2C11.117,2.008,2,2.357,2,12.15v215.459c0.008,1.033,0.357,10.15,10.15,10.15h325.62
		c1.032-0.008,10.15-0.357,10.15-10.15V12.15C347.912,11.117,347.563,2,337.77,2H12.15z"/>
	<path fill="none" stroke="#000000" stroke-width="4" stroke-linejoin="round" stroke-miterlimit="10" d="M12.15,2
		C11.117,2.008,2,2.357,2,12.15v215.459c0.008,1.033,0.357,10.15,10.15,10.15h325.62c1.032-0.008,10.15-0.357,10.15-10.15V12.15
		C347.912,11.117,347.563,2,337.77,2H12.15z"/>
</g>
<g>
	<g>
		<defs>
			<rect id="SVGID_29_" x="81.268" y="44.718" width="187.385" height="150.324"/>
		</defs>
		<clipPath id="SVGID_2_">
			<use xlink:href="#SVGID_29_"  overflow="visible"/>
		</clipPath>
		<path clip-path="url(#SVGID_2_)" fill="#358C5E" d="M125.029,111.353c-0.188,0-0.469-0.02-0.743-0.17
			c-0.357-0.199-0.742-0.289-1.248-0.289c-0.289,0-0.585,0.027-0.898,0.057c-0.331,0.031-0.674,0.064-1.026,0.064
			c-0.107,0-0.213-0.004-0.32-0.01c-0.33-0.021-0.634-0.094-0.928-0.166c-0.281-0.066-0.546-0.129-0.775-0.129
			c-0.818,0-1.678,0.078-2.559,0.229c-0.154,0.025-0.31,0.041-0.461,0.041c-0.877,0-1.553-0.438-2.153-0.906
			c-0.167-0.131-0.27-0.146-0.342-0.146c-0.123,0-0.284,0.055-0.521,0.176c-0.497,0.256-1.043,0.494-1.665,0.494
			c-0.517,0-1.015-0.17-1.48-0.508c-0.029-0.021-0.107-0.045-0.233-0.045c-0.397,0-0.957,0.219-1.463,0.57
			c-0.118,0.082-0.254,0.123-0.391,0.123c-0.128,0-0.256-0.037-0.369-0.109c-0.139-0.088-0.28-0.18-0.422-0.271
			c-0.325-0.213-0.658-0.43-0.996-0.625c-0.134,0.205-0.273,0.455-0.339,0.701c-0.21,0.789-0.739,0.875-0.957,0.875
			c-0.272,0-0.481-0.119-0.607-0.193c-0.199-0.049-0.371-0.184-0.46-0.379l-0.17-0.373c-0.1-0.219-0.188-0.412-0.279-0.605
			c-0.075-0.154-0.152-0.311-0.23-0.469c-0.059-0.119-0.118-0.236-0.176-0.355c-0.128-0.268-0.207-0.373-0.244-0.412
			c-0.049,0.008-0.159,0.041-0.371,0.148c-0.375,0.189-0.682,0.279-0.967,0.279c-0.335,0-0.92-0.131-1.239-0.965
			c-0.677,0.316-1.37,0.615-1.969,0.873c-0.178,0.076-0.356,0.115-0.529,0.115c-0.341,0-0.819-0.148-1.158-0.85
			c-0.072-0.148-0.141-0.295-0.21-0.441c-0.186-0.396-0.362-0.771-0.564-1.133c-0.421,0.041-0.85,0.096-1.265,0.146
			c-0.488,0.063-0.992,0.125-1.499,0.17c-0.02,0.002-0.046,0.004-0.066,0.004c-0.559,0-0.98-0.633-0.984-0.641
			c-0.204-0.318-0.112-0.6-0.063-0.705c0.324-0.705,0.687-1.416,1.077-2.109c0.107-0.188,0.245-0.332,0.355-0.447
			c0.002-0.002,0.005-0.006,0.008-0.008c-0.57-0.215-1.154-0.418-1.722-0.613c-0.391-0.137-0.782-0.271-1.172-0.412
			c-0.221-0.08-0.385-0.217-0.505-0.318c-0.031-0.025-0.063-0.053-0.096-0.076c-0.151-0.109-0.251-0.275-0.277-0.461
			c-0.026-0.186,0.025-0.373,0.141-0.52c0.019-0.023,0.036-0.049,0.053-0.074c0.074-0.109,0.176-0.258,0.344-0.383
			c0.577-0.434,1.196-0.859,1.947-1.066c-1.088-1.16-1.861-2.467-2.301-3.891c-0.074-0.242-0.033-0.506,0.119-0.77
			c0.083-0.145,0.32-0.49,0.714-0.58c0.097-0.021,0.2-0.031,0.307-0.031c0.094,0,0.185,0.008,0.272,0.02
			c-0.079-0.189-0.16-0.379-0.24-0.568c-0.307-0.717-0.623-1.461-0.891-2.217c-0.138-0.393,0.012-0.742,0.111-0.973
			c0.02-0.045,0.049-0.113,0.062-0.152c-0.018-0.074-0.091-0.217-0.187-0.311c-0.184-0.184-0.398-0.354-0.624-0.533
			c-0.259-0.205-0.526-0.418-0.776-0.67c-0.487-0.49-0.534-0.943-0.487-1.238c0.107-0.678,0.757-1.012,0.971-1.123
			c0.45-0.23,0.912-0.445,1.359-0.654c0.302-0.141,0.611-0.285,0.913-0.432c-0.19-0.539-0.389-1.084-0.583-1.611
			c-0.209-0.568-0.418-1.139-0.619-1.711c-0.182-0.518-0.021-0.859,0.091-1.018c0.18-0.254,0.468-0.395,0.811-0.395
			c0.107,0,0.221,0.014,0.339,0.041c0.148,0.035,0.293,0.076,0.438,0.119c-0.151-1.771,0.442-3.332,1.076-4.787
			c0.38-0.873,0.979-1.006,1.302-1.006c0.048,0,0.096,0.004,0.143,0.01c-0.042-0.09-0.086-0.182-0.131-0.273
			c-0.188-0.383-0.385-0.764-0.582-1.145c-0.331-0.643-0.674-1.305-0.977-1.982c-0.219-0.49-0.215-0.955,0.013-1.305
			c0.195-0.303,0.534-0.475,0.929-0.475c0.151,0,0.314,0.025,0.484,0.074c0.575,0.162,1.138,0.367,1.683,0.564
			c0.108,0.039,0.216,0.078,0.323,0.117c0.048-1.182,0.269-2.381,1.137-3.391c0.359-0.42,0.699-0.816,1.254-0.816
			c0.462,0,0.83,0.287,1.229,0.635c0.258,0.225,0.497,0.461,0.728,0.689c0.099,0.098,0.195,0.191,0.291,0.285
			c1.209-1.695,2.961-2.887,5.213-3.547c0.164-0.047,0.312-0.07,0.454-0.07c0.618,0,0.984,0.387,1.089,1.15
			c0.007,0.053,0.017,0.125,0.025,0.152c0.071,0.248,0.13,0.498,0.186,0.756c0.513-0.332,1.002-0.65,1.494-0.963l0.185-0.119
			c0.429-0.275,0.873-0.561,1.351-0.803c0.116-0.057,0.244-0.088,0.381-0.088c0.361,0,0.791,0.213,0.999,0.492
			c0.125,0.168,0.245,0.342,0.364,0.521c0.11-0.23,0.24-0.451,0.411-0.65c0.599-0.691,1.333-1.385,2.244-2.119
			c0.246-0.199,0.525-0.305,0.807-0.305c0.576,0,1.073,0.424,1.298,1.107c0.115,0.35,0.196,0.697,0.274,1.035
			c0.009,0.037,0.017,0.074,0.026,0.109c0.771-0.584,1.7-1.154,2.887-1.252c0.296-0.025,0.589-0.063,0.899-0.102
			c0.301-0.037,0.612-0.076,0.926-0.104c0.038-0.004,0.078-0.006,0.12-0.006c0.247,0,0.845,0.053,1.048,0.543
			c0.157,0.381,0.055,0.775,0.001,0.99c-0.028,0.109-0.056,0.219-0.086,0.328c0.082-0.018,0.169-0.027,0.259-0.027
			c0.043,0,0.085,0.002,0.127,0.008c-0.012-0.404-0.019-0.781-0.012-1.16c0.005-0.307,0.084-0.574,0.154-0.809
			c0.024-0.082,0.049-0.164,0.069-0.248c0.047-0.199,0.18-0.367,0.363-0.457c0.096-0.047,0.199-0.07,0.303-0.07
			c0.096,0,0.191,0.02,0.281,0.061c0.048,0.021,0.099,0.041,0.15,0.059c0.159,0.063,0.358,0.139,0.547,0.279
			c0.631,0.467,1.259,0.951,1.866,1.418l0.067,0.051c0.15-0.488,0.318-0.982,0.588-1.438c0.245-0.412,0.834-0.84,1.397-0.84
			c0.088,0,0.175,0.012,0.258,0.033c0.433,0.109,0.8,0.508,1.154,1.25c0.101,0.211,0.184,0.426,0.263,0.652
			c0.23-0.287,0.458-0.564,0.697-0.83c0.449-0.498,0.99-1.074,1.605-1.559c0.098-0.078,0.271-0.174,0.528-0.174
			c0.372,0,1.016,0.23,1.256,0.662c0.275,0.492,0.514,0.998,0.745,1.49c0.129,0.271,0.261,0.553,0.397,0.826
			c0.479-0.215,0.96-0.443,1.428-0.664c0.691-0.326,1.407-0.664,2.127-0.973c0.245-0.104,0.479-0.156,0.695-0.156
			c0.595,0,1.237,0.402,1.255,1.537c0.001,0.084,0.002,0.17,0.003,0.254c0.073-0.041,0.146-0.082,0.221-0.121
			c0.461-0.236,0.933-0.455,1.39-0.664c0.18-0.084,0.36-0.166,0.54-0.252c0.176-0.082,0.357-0.125,0.535-0.125
			c0.405,0,1.113,0.213,1.358,1.615c1.543-1.127,3.124-1.777,4.829-1.988c0.079-0.008,0.158-0.014,0.234-0.014
			c0.437,0,0.828,0.16,1.102,0.453c0.285,0.305,0.425,0.734,0.395,1.211c-0.026,0.393-0.086,0.77-0.144,1.135
			c-0.014,0.09-0.028,0.176-0.041,0.262c0.091-0.047,0.182-0.094,0.273-0.141c0.662-0.342,1.346-0.695,2.051-0.998
			c0.098-0.043,0.203-0.064,0.313-0.064c0.528,0,1.063,0.539,1.231,0.828c0.088,0.15,0.159,0.305,0.22,0.461
			c0.209-0.186,0.414-0.369,0.62-0.547c0.159-0.139,0.315-0.283,0.47-0.428c0.41-0.381,0.835-0.775,1.338-1.084
			c0.363-0.225,0.662-0.326,0.94-0.326c0.492,0,1.083,0.275,1.105,1.594c0.003,0.172,0.004,0.344,0.004,0.516
			c0.107-0.09,0.215-0.178,0.326-0.264c0.479-0.373,0.922-0.654,1.355-0.861c0.16-0.076,0.339-0.113,0.547-0.113
			c0.119,0,0.23,0.012,0.328,0.021c0.06,0.008,0.119,0.016,0.176,0.016c0.183,0.002,0.356,0.076,0.483,0.207
			c0.128,0.131,0.198,0.305,0.195,0.488c-0.001,0.072,0.002,0.148,0.005,0.223c0.007,0.217,0.016,0.461-0.04,0.721
			c-0.087,0.406-0.189,0.809-0.289,1.199c0.033-0.004,0.066-0.008,0.098-0.012c1.081-0.125,2.101-0.242,3.143-0.34
			c0.031-0.004,0.063-0.004,0.095-0.004c0.358,0,0.86,0.209,1.087,0.6c0.243,0.416,0.038,0.91-0.176,1.252
			c-0.199,0.314-0.403,0.625-0.606,0.936c-0.091,0.137-0.183,0.277-0.275,0.418c1.625,0.277,2.993,0.883,4.165,1.844
			c0.173,0.141,0.295,0.311,0.393,0.445c0.031,0.043,0.062,0.088,0.095,0.129c0.238,0.293,0.192,0.723-0.101,0.961
			c-0.017,0.016-0.033,0.029-0.05,0.043c0.113,0.008,0.227,0.021,0.341,0.035c0.581,0.076,0.794,0.408,0.868,0.598
			c0.096,0.244,0.125,0.639-0.281,1.125c-0.166,0.199-0.338,0.396-0.511,0.592c-0.244,0.275-0.474,0.537-0.687,0.813
			c-0.013,0.016-0.023,0.031-0.031,0.043c0.016,0.014,0.037,0.033,0.065,0.055c0.993,0.768,1.724,1.857,2.302,3.432
			c0.202,0.547,0.084,0.953-0.051,1.197c-0.145,0.262-0.456,0.602-1.119,0.74c-0.427,0.09-0.875,0.221-1.362,0.398
			c0.1,0.273,0.213,0.732-0.002,1.174c-0.15,0.307-0.422,0.533-0.81,0.674c0.087,0.16,0.136,0.328,0.144,0.504
			c0.009,0.178-0.022,0.35-0.094,0.518c0.134,0.111,0.268,0.225,0.402,0.336c0.473,0.395,0.963,0.805,1.413,1.262
			c0.428,0.436,0.635,1.049,0.554,1.639c-0.071,0.523-0.356,0.963-0.783,1.209c-0.298,0.172-0.609,0.238-0.883,0.297
			c-0.097,0.02-0.194,0.041-0.289,0.066c-0.012,0.004-0.024,0.008-0.037,0.012c0.228,0.381,0.458,0.771,0.663,1.176
			c0.168,0.33,0.366,0.836,0.356,1.367c-0.015,0.869-0.582,1.18-1.107,1.18c-0.11,0-0.212-0.014-0.302-0.021
			c-0.05-0.006-0.099-0.012-0.146-0.014c-0.091,0.029-0.183,0.051-0.273,0.07c0.264,0.381,0.538,1.004,0.016,1.646
			c0.051,0.008,0.103,0.018,0.156,0.025c0.199,0.029,0.404,0.063,0.614,0.109c0.479,0.105,0.829,0.377,0.962,0.748
			c0.073,0.201,0.14,0.607-0.219,1.064c-0.592,0.754-1.222,1.48-1.871,2.156c0,0-0.173,0.178-0.203,0.209l0.288,0.32
			c0.446,0.498,0.907,1.012,1.343,1.539c0.111,0.137,0.225,0.373,0.139,0.746c-0.041,0.178-0.178,0.611-0.557,0.785
			c-0.592,0.271-1.185,0.506-1.715,0.705c0.156,0.219,0.32,0.439,0.497,0.678c0.374,0.502,0.321,0.934,0.256,1.146
			c-0.11,0.359-0.397,0.639-0.809,0.783c-0.646,0.227-1.319,0.408-2.002,0.543c-0.024,0.004-0.048,0.008-0.072,0.014
			c0.024,0.348-0.062,0.635-0.257,0.855c-0.208,0.236-0.504,0.355-0.88,0.355c-0.14,0-0.277-0.016-0.38-0.031
			c-0.331-0.047-0.619-0.191-0.849-0.307c-0.096-0.047-0.167-0.082-0.22-0.105c-0.028,0.053-0.065,0.125-0.112,0.225
			c-0.201,0.43-0.478,1.02-1.13,1.02c-0.351,0-0.654-0.189-0.985-0.418c-0.045-0.031-0.077-0.045-0.096-0.053
			c-0.007,0.008-0.018,0.018-0.031,0.033c-0.383,0.463-0.841,0.695-1.361,0.695c-0.288,0-0.584-0.07-0.906-0.219
			c-0.022-0.01-0.074-0.027-0.165-0.027c-0.33,0-0.696,0.221-0.779,0.404c-0.288,0.643-0.729,0.775-1.048,0.775
			c-0.203,0.002-0.413-0.055-0.64-0.17c-0.237-0.119-0.517-0.201-0.832-0.289c-0.017-0.004-0.025-0.004-0.025-0.004
			c-0.036,0.01-0.152,0.104-0.228,0.166c-0.092,0.074-0.196,0.158-0.319,0.238c-0.632,0.408-1.415,0.711-2.203,0.854
			c-1.3,0.232-2.478,0.354-3.604,0.371l-0.209,0.004c-0.188,0.004-0.38,0.008-0.573,0.008c-0.766,0-1.649-0.053-2.385-0.445
			c-0.347-0.184-0.677-0.27-1.039-0.27c-0.425,0-0.871,0.121-1.343,0.248c-0.147,0.039-0.295,0.078-0.446,0.115
			c-0.563,0.141-1.078,0.209-1.574,0.209c-0.586,0-1.139-0.096-1.692-0.285c-0.17-0.061-0.375-0.086-0.646-0.086
			c-0.226,0-0.464,0.018-0.717,0.037c-0.265,0.021-0.54,0.043-0.817,0.043c-0.988,0.002-1.977,0.004-2.968,0.004h-0.43
			c-0.027,0.002-0.06,0.004-0.091,0.004c-0.243,0-0.408-0.096-0.504-0.176c-0.158-0.133-0.312-0.189-0.508-0.189
			c-0.207,0-0.451,0.063-0.71,0.129c-0.257,0.066-0.524,0.135-0.814,0.162c-0.043,0.004-0.087,0.006-0.131,0.006
			c-0.12,0-0.229-0.016-0.317-0.025c-0.054-0.008-0.109-0.016-0.14-0.016c-0.202,0.012-0.399,0.021-0.596,0.033
			c-0.674,0.035-1.372,0.072-2.042,0.148c-0.561,0.063-1.135,0.152-1.69,0.24c-0.372,0.059-0.744,0.115-1.117,0.168
			c-0.126,0.117-0.293,0.186-0.468,0.186c-0.004,0-0.033-0.002-0.033-0.002c-0.099,0-0.21,0.01-0.326,0.02
			C125.304,111.341,125.167,111.353,125.029,111.353"/>
		<path clip-path="url(#SVGID_2_)" d="M133.803,60.104c-0.454,0-0.771,0.176-0.956,0.324c-0.651,0.514-1.218,1.115-1.686,1.635
			c-0.001,0.002-0.003,0.004-0.004,0.006c-0.293-0.529-0.736-1.105-1.433-1.283c-0.136-0.035-0.28-0.053-0.426-0.053
			c-0.846,0-1.64,0.59-1.986,1.174c-0.129,0.219-0.237,0.443-0.331,0.668c-0.393-0.301-0.792-0.604-1.192-0.9
			c-0.265-0.197-0.534-0.299-0.711-0.367c-0.039-0.014-0.078-0.029-0.115-0.045c-0.178-0.08-0.369-0.121-0.56-0.121
			c-0.208,0-0.416,0.047-0.607,0.141c-0.366,0.182-0.633,0.518-0.727,0.914c-0.002,0.008-0.003,0.016-0.005,0.023
			c-0.257-0.113-0.558-0.174-0.888-0.174c-0.06,0-0.119,0.002-0.175,0.006c-0.331,0.027-0.649,0.068-0.956,0.107
			c-0.303,0.037-0.589,0.074-0.871,0.098c-0.948,0.078-1.733,0.406-2.406,0.813c-0.023-0.078-0.047-0.158-0.073-0.236
			c-0.315-0.959-1.08-1.576-1.948-1.576c-0.441,0-0.869,0.156-1.238,0.455c-0.91,0.732-1.652,1.43-2.264,2.129
			c-0.352-0.316-0.858-0.523-1.324-0.523c-0.245,0-0.476,0.053-0.687,0.16c-0.512,0.258-0.971,0.553-1.414,0.838l-0.183,0.117
			c-0.226,0.143-0.45,0.287-0.676,0.432c-0.249-1.473-1.302-1.635-1.751-1.635c-0.207,0-0.418,0.033-0.645,0.098
			c-2.118,0.621-3.824,1.688-5.09,3.178c-0.159-0.154-0.325-0.311-0.501-0.465c-0.467-0.404-0.982-0.801-1.679-0.801
			c-0.869,0-1.392,0.609-1.774,1.055c-0.765,0.891-1.091,1.885-1.225,2.889c-0.393-0.141-0.796-0.277-1.21-0.395
			c-0.232-0.064-0.458-0.1-0.672-0.1c-0.632,0-1.18,0.287-1.503,0.787c-0.353,0.543-0.377,1.258-0.064,1.957
			c0.311,0.695,0.658,1.367,0.994,2.018c0.105,0.203,0.212,0.41,0.317,0.615c-0.376,0.191-0.78,0.547-1.069,1.211
			c-0.563,1.295-1.096,2.67-1.153,4.217c-0.024-0.002-0.048-0.002-0.072-0.002c-0.563,0-1.062,0.25-1.37,0.684
			c-0.188,0.266-0.462,0.834-0.177,1.643c0.202,0.576,0.415,1.156,0.621,1.717c0.124,0.338,0.249,0.682,0.373,1.025
			c-0.114,0.053-0.23,0.105-0.349,0.162c-0.453,0.211-0.921,0.43-1.384,0.668c-0.777,0.4-1.226,0.947-1.333,1.625
			c-0.072,0.449-0.012,1.131,0.677,1.826c0.278,0.279,0.574,0.516,0.836,0.725c0.167,0.133,0.328,0.26,0.466,0.385
			c-0.113,0.301-0.229,0.76-0.048,1.273c0.241,0.682,0.517,1.342,0.79,1.984c-0.499,0.211-0.788,0.633-0.899,0.822
			c-0.246,0.426-0.31,0.893-0.18,1.314c0.379,1.227,0.986,2.369,1.812,3.412c-0.502,0.26-0.907,0.564-1.215,0.795
			c-0.258,0.193-0.409,0.414-0.498,0.545c-0.01,0.014-0.02,0.029-0.03,0.043c-0.231,0.293-0.331,0.664-0.279,1.035
			c0.051,0.369,0.254,0.699,0.556,0.918c0.019,0.014,0.038,0.031,0.058,0.047c0.141,0.119,0.377,0.316,0.715,0.438
			c0.393,0.143,0.791,0.279,1.177,0.414c0.295,0.102,0.583,0.201,0.866,0.303c-0.354,0.641-0.684,1.293-0.983,1.943
			c-0.202,0.439-0.163,0.936,0.109,1.359c0.025,0.039,0.623,0.955,1.561,0.955c0.039,0,0.084-0.002,0.123-0.004
			c0.523-0.047,1.034-0.111,1.528-0.174c0.27-0.033,0.532-0.066,0.79-0.096c0.112,0.223,0.221,0.453,0.333,0.693
			c0.07,0.148,0.141,0.299,0.212,0.447c0.522,1.076,1.337,1.236,1.777,1.236c0.266,0,0.534-0.057,0.798-0.17
			c0.434-0.186,0.916-0.395,1.407-0.615c0.509,0.674,1.199,0.764,1.531,0.764c0.4,0,0.762-0.119,1.044-0.244
			c0.034,0.068,0.067,0.137,0.101,0.205c0.076,0.152,0.152,0.305,0.225,0.459c0.088,0.186,0.175,0.377,0.273,0.594
			c0.054,0.115,0.11,0.24,0.172,0.373c0.162,0.354,0.461,0.613,0.813,0.729c0.179,0.1,0.481,0.242,0.876,0.242
			c0.583,0,1.295-0.338,1.589-1.275c0.11,0.07,0.22,0.143,0.329,0.213c0.144,0.094,0.287,0.188,0.428,0.277
			c0.225,0.145,0.481,0.217,0.737,0.217c0.274,0,0.547-0.082,0.782-0.246c0.467-0.324,0.854-0.432,1.029-0.445
			c0.549,0.365,1.139,0.549,1.756,0.549c0.77,0,1.433-0.287,1.979-0.568c0.07-0.037,0.121-0.061,0.158-0.074
			c0.446,0.348,1.338,1.025,2.544,1.025c0.19,0,0.385-0.016,0.577-0.049c0.843-0.145,1.665-0.219,2.442-0.219
			c0.149,0,0.376,0.053,0.616,0.111c0.308,0.072,0.657,0.156,1.045,0.182c0.118,0.006,0.239,0.01,0.363,0.01
			c0.385,0,0.743-0.033,1.089-0.064c0.298-0.029,0.578-0.055,0.836-0.055c0.387,0,0.661,0.061,0.915,0.201
			c0.309,0.172,0.661,0.256,1.075,0.256c0.168,0,0.325-0.012,0.463-0.023c0.103-0.01,0.199-0.018,0.27-0.018h0.012h0.02
			c0.265,0,0.521-0.076,0.739-0.217c0.321-0.045,0.641-0.096,0.952-0.145c0.573-0.088,1.114-0.174,1.66-0.234
			c0.651-0.074,1.308-0.109,2.002-0.146c0.186-0.01,0.371-0.02,0.556-0.031c0.018,0.002,0.037,0.006,0.055,0.008
			c0.102,0.014,0.242,0.031,0.406,0.031c0.066,0,0.132-0.002,0.196-0.008c0.343-0.031,0.649-0.111,0.92-0.18
			c0.206-0.053,0.419-0.107,0.54-0.107c0.018,0,0.027,0.002,0.028,0.002c0,0,0.016,0.006,0.046,0.031
			c0.184,0.152,0.494,0.33,0.937,0.33c0.041,0,0.084,0,0.127-0.004h0.372c0.999,0,1.996,0,2.991-0.002
			c0.304,0,0.592-0.023,0.87-0.045c0.239-0.02,0.465-0.037,0.663-0.037c0.187,0,0.329,0.018,0.422,0.049
			c0.617,0.215,1.262,0.322,1.917,0.322c0.551,0,1.12-0.074,1.738-0.227c0.155-0.039,0.308-0.08,0.459-0.121
			c0.446-0.119,0.831-0.223,1.165-0.223c0.25,0,0.471,0.059,0.717,0.189c0.87,0.463,1.857,0.525,2.707,0.525
			c0.198,0,0.394-0.004,0.586-0.008l0.207-0.004c1.163-0.018,2.378-0.145,3.714-0.383c0.876-0.156,1.748-0.494,2.455-0.953
			c0.122-0.078,0.226-0.158,0.314-0.229c0.157,0.047,0.296,0.098,0.41,0.154c0.323,0.164,0.634,0.244,0.947,0.244
			c0.336,0,1.158-0.109,1.642-1.111c0.039-0.027,0.104-0.055,0.152-0.064c0.38,0.162,0.743,0.242,1.104,0.242
			c0.404,0,0.956-0.105,1.492-0.545c0.293,0.166,0.606,0.287,0.981,0.287c0.831,0,1.288-0.559,1.554-1.025
			c0.192,0.08,0.413,0.152,0.659,0.188c0.128,0.018,0.295,0.037,0.479,0.037c0.724,0,1.157-0.32,1.394-0.59
			c0.146-0.166,0.302-0.408,0.38-0.74c0.565-0.127,1.123-0.287,1.662-0.477c0.615-0.217,1.066-0.664,1.238-1.229
			c0.101-0.33,0.189-0.986-0.328-1.711c0.301-0.123,0.612-0.256,0.923-0.398c0.653-0.297,0.873-0.975,0.937-1.252
			c0.157-0.678-0.107-1.127-0.278-1.336c-0.4-0.486-0.818-0.953-1.226-1.408c0.581-0.621,1.145-1.277,1.679-1.957
			c0.411-0.523,0.53-1.15,0.325-1.721c-0.209-0.584-0.724-1.01-1.415-1.174c0.024-0.162,0.028-0.326,0.009-0.49
			c0.907-0.115,1.509-0.824,1.526-1.836c0.013-0.672-0.227-1.291-0.43-1.689c-0.073-0.145-0.148-0.283-0.225-0.424
			c0.162-0.055,0.333-0.125,0.501-0.223c0.613-0.354,1.021-0.977,1.121-1.709c0.109-0.799-0.169-1.627-0.744-2.211
			c-0.474-0.484-0.977-0.902-1.463-1.309c-0.024-0.02-0.048-0.041-0.072-0.061c0.012-0.109,0.014-0.211,0.01-0.301
			c-0.002-0.041-0.006-0.084-0.011-0.131c0.314-0.225,0.499-0.49,0.608-0.713c0.153-0.314,0.215-0.656,0.185-1.02
			c0.244-0.074,0.477-0.135,0.704-0.182c0.916-0.193,1.364-0.695,1.578-1.082c0.288-0.521,0.321-1.148,0.094-1.766
			c-0.532-1.445-1.193-2.521-2.056-3.334c0.09-0.104,0.183-0.211,0.278-0.316c0.172-0.195,0.35-0.396,0.525-0.609
			c0.651-0.781,0.525-1.469,0.391-1.809c-0.081-0.209-0.309-0.639-0.861-0.879c0.02-0.328-0.078-0.664-0.301-0.939
			c-0.026-0.033-0.049-0.066-0.073-0.1c-0.115-0.158-0.273-0.377-0.518-0.578c-1.014-0.83-2.162-1.416-3.477-1.768
			c0.114-0.176,0.229-0.354,0.342-0.531c0.446-0.711,0.512-1.408,0.187-1.965c-0.321-0.551-1.011-0.938-1.677-0.938
			c-0.054,0-0.108,0.002-0.16,0.008c-0.761,0.072-1.509,0.152-2.276,0.24c0.02-0.088,0.04-0.176,0.058-0.264
			c0.074-0.342,0.063-0.656,0.054-0.889c-0.002-0.063-0.005-0.125-0.004-0.188c0.005-0.365-0.135-0.715-0.389-0.977
			s-0.602-0.41-0.966-0.414c-0.016,0-0.07-0.006-0.11-0.01c-0.11-0.012-0.246-0.027-0.402-0.027c-0.308,0-0.591,0.061-0.843,0.182
			c-0.259,0.123-0.52,0.27-0.789,0.443c-0.306-1.377-1.351-1.496-1.705-1.496c-0.539,0-0.999,0.244-1.299,0.428
			c-0.56,0.344-1.03,0.781-1.445,1.166c-0.153,0.141-0.297,0.275-0.441,0.4c-0.346-0.422-0.956-0.898-1.634-0.898
			c-0.203,0-0.4,0.041-0.583,0.121c-0.408,0.174-0.807,0.363-1.196,0.559c0.004-0.047,0.007-0.094,0.01-0.143
			c0.044-0.668-0.162-1.281-0.578-1.725c-0.405-0.432-0.973-0.67-1.601-0.67c-0.105,0-0.212,0.006-0.319,0.02
			c-1.533,0.189-2.967,0.709-4.359,1.58c-0.496-1.074-1.342-1.211-1.744-1.211c-0.28,0-0.558,0.063-0.828,0.189
			c-0.176,0.084-0.355,0.166-0.534,0.248c-0.248,0.115-0.501,0.23-0.755,0.352c-0.284-0.975-1.062-1.42-1.827-1.42
			c-0.309,0-0.633,0.07-0.963,0.213c-0.733,0.313-1.454,0.652-2.151,0.982c-0.267,0.125-0.539,0.254-0.811,0.381
			c-0.034-0.07-0.068-0.143-0.102-0.217c-0.236-0.5-0.48-1.02-0.767-1.533C135.247,60.38,134.302,60.104,133.803,60.104
			 M133.803,61.476c0.2,0,0.572,0.156,0.659,0.311c0.462,0.826,0.821,1.707,1.257,2.545c0.05,0.098,0.278,0.184,0.432,0.184
			c0.037,0,0.069-0.004,0.094-0.016c1.27-0.563,2.507-1.193,3.781-1.736c0.161-0.07,0.303-0.104,0.425-0.104
			c0.371,0,0.561,0.307,0.57,0.863c0.007,0.457,0.012,0.914,0.019,1.48c0.46-0.289,0.817-0.549,1.205-0.748
			c0.625-0.322,1.27-0.605,1.906-0.904c0.086-0.041,0.168-0.061,0.244-0.061c0.337,0,0.579,0.387,0.694,1.107
			c0.05,0.314,0.135,0.625,0.226,1.041c0.305-0.244,0.538-0.443,0.784-0.623c1.366-1.008,2.868-1.693,4.568-1.904
			c0.051-0.006,0.101-0.01,0.15-0.01c0.509,0,0.85,0.348,0.812,0.938c-0.042,0.641-0.188,1.268-0.252,1.906
			c-0.02,0.184,0.084,0.389,0.13,0.582c0.159-0.066,0.322-0.127,0.475-0.205c0.911-0.459,1.807-0.953,2.741-1.354
			c0.012-0.006,0.026-0.008,0.042-0.008c0.168,0,0.517,0.277,0.64,0.488c0.221,0.377,0.318,0.828,0.492,1.318
			c0.5-0.445,0.941-0.844,1.39-1.234c0.565-0.492,1.088-1.059,1.716-1.443c0.243-0.15,0.434-0.227,0.581-0.227
			c0.293,0,0.41,0.303,0.42,0.92c0.012,0.652-0.002,1.303-0.005,2.031c0.506-0.441,0.955-0.871,1.441-1.248
			c0.384-0.299,0.794-0.576,1.229-0.785c0.075-0.033,0.161-0.047,0.252-0.047c0.16,0,0.336,0.037,0.497,0.037
			c-0.004,0.271,0.036,0.555-0.019,0.811c-0.147,0.686-0.338,1.357-0.5,2.039c-0.012,0.053,0.017,0.117,0.025,0.117
			c0.002,0,0.002-0.008-0.003-0.025c1.425-0.16,2.794-0.328,4.164-0.457c0.01,0,0.02,0,0.031,0c0.171,0,0.413,0.119,0.494,0.258
			c0.064,0.109-0.064,0.383-0.164,0.543c-0.42,0.666-0.866,1.313-1.281,1.982c-0.03,0.049,0.099,0.309,0.163,0.314
			c1.66,0.174,3.202,0.693,4.548,1.795c0.154,0.125,0.261,0.316,0.39,0.475c-0.135,0.109-0.265,0.227-0.406,0.326
			c-0.246,0.174-0.503,0.328-0.744,0.51c-0.048,0.035-0.085,0.186-0.061,0.211c0.068,0.064,0.167,0.125,0.257,0.131
			c0.529,0.043,1.062,0.043,1.588,0.111c0.476,0.063,0.358,0.354,0.149,0.605c-0.399,0.48-0.832,0.928-1.214,1.422
			c-0.287,0.371-0.297,0.709,0.158,1.061c1.023,0.791,1.634,1.916,2.078,3.125c0.208,0.566-0.1,0.912-0.668,1.031
			c-0.619,0.131-1.228,0.33-1.819,0.563c-0.101,0.039-0.175,0.439-0.105,0.6c0.279,0.633,0.144,0.994-0.501,1.158
			c-0.105,0.025-0.205,0.068-0.31,0.09c-0.445,0.09-0.433,0.303-0.119,0.574c0.36,0.314,0.371,0.619,0.052,0.955
			c-0.031,0.033,0.006,0.199,0.058,0.246c0.697,0.613,1.439,1.172,2.087,1.83c0.545,0.555,0.476,1.451-0.083,1.773
			c-0.299,0.174-0.675,0.201-1.015,0.299c-0.32,0.092-0.64,0.186-0.894,0.26c0.377,0.645,0.768,1.254,1.094,1.895
			c0.161,0.316,0.289,0.701,0.283,1.047c-0.008,0.424-0.194,0.504-0.423,0.504c-0.146,0-0.309-0.031-0.454-0.031
			c-0.06,0-0.117,0.006-0.168,0.021c-0.357,0.113-0.745,0.123-1.112,0.211c-0.05,0.014-0.113,0.238-0.074,0.309
			c0.081,0.143,0.234,0.242,0.343,0.373c0.303,0.355,0.594,0.711,0.133,1.158c-0.122,0.119-0.252,0.285-0.272,0.445
			c-0.017,0.139,0.088,0.41,0.184,0.436c0.439,0.117,0.895,0.152,1.338,0.252c0.388,0.084,0.653,0.336,0.352,0.721
			c-0.575,0.73-1.185,1.436-1.827,2.104c-0.542,0.564-0.571,0.533-0.312,1.037c0.575,0.645,1.159,1.279,1.706,1.941
			c0.054,0.066-0.062,0.422-0.174,0.471c-0.644,0.297-1.308,0.555-1.974,0.801c-0.412,0.152-0.383,0.396-0.176,0.695
			c0.216,0.313,0.441,0.617,0.667,0.92c0.3,0.404,0.18,0.73-0.231,0.875c-0.621,0.217-1.261,0.391-1.906,0.518
			c-0.399,0.076-0.7,0.129-0.631,0.666c0.058,0.445-0.17,0.547-0.446,0.547c-0.093,0-0.191-0.012-0.286-0.025
			c-0.222-0.031-0.439-0.143-0.645-0.246c-0.285-0.143-0.482-0.223-0.639-0.223c-0.248,0-0.392,0.201-0.611,0.668
			c-0.203,0.432-0.321,0.625-0.511,0.625c-0.14,0-0.318-0.105-0.596-0.297c-0.173-0.117-0.341-0.18-0.5-0.18
			c-0.199,0-0.383,0.096-0.543,0.287c-0.256,0.311-0.528,0.449-0.834,0.449c-0.192,0-0.397-0.055-0.62-0.158
			c-0.135-0.061-0.289-0.09-0.45-0.09c-0.556,0-1.193,0.34-1.404,0.809c-0.111,0.246-0.24,0.371-0.424,0.371
			c-0.094,0-0.202-0.031-0.33-0.096c-0.301-0.152-0.633-0.248-0.96-0.338c-0.074-0.02-0.142-0.029-0.207-0.029
			c-0.374,0-0.604,0.313-0.918,0.516c-0.576,0.371-1.271,0.631-1.952,0.754c-1.148,0.205-2.323,0.342-3.494,0.359
			c-0.25,0.006-0.51,0.012-0.772,0.012c-0.731,0-1.477-0.053-2.064-0.363c-0.485-0.258-0.93-0.35-1.36-0.35
			c-0.658,0-1.279,0.215-1.953,0.383c-0.463,0.115-0.931,0.186-1.409,0.186c-0.477,0-0.964-0.07-1.468-0.246
			c-0.273-0.094-0.567-0.125-0.871-0.125c-0.502,0-1.031,0.082-1.535,0.082c-1.13,0.002-2.262,0.002-3.397,0.004
			c-0.028,0-0.061,0.006-0.091,0.006c-0.025,0-0.048-0.006-0.062-0.018c-0.319-0.264-0.635-0.35-0.949-0.35
			c-0.53,0-1.057,0.246-1.588,0.293c-0.022,0.002-0.045,0.004-0.068,0.004c-0.15,0-0.306-0.041-0.457-0.041
			c-0.015,0-0.03,0.002-0.044,0.002c-0.891,0.051-1.786,0.084-2.671,0.184c-0.977,0.111-1.943,0.291-2.919,0.424
			c-0.006,0.002-0.013,0.002-0.02,0.002c-0.105,0-0.231-0.104-0.381-0.17c0.032,0.09,0.053,0.146,0.122,0.332
			c-0.011,0-0.022,0-0.032,0c-0.251,0-0.506,0.043-0.733,0.043c-0.153,0-0.293-0.02-0.409-0.084
			c-0.528-0.293-1.055-0.375-1.581-0.375c-0.642,0-1.283,0.121-1.925,0.121c-0.092,0-0.185-0.004-0.277-0.008
			c-0.583-0.037-1.169-0.297-1.745-0.297h-0.005c-0.894,0.002-1.793,0.09-2.67,0.24c-0.119,0.02-0.235,0.029-0.346,0.029
			c-0.677,0-1.211-0.354-1.73-0.76c-0.268-0.211-0.518-0.293-0.764-0.293c-0.277,0-0.549,0.105-0.836,0.252
			c-0.441,0.229-0.885,0.418-1.351,0.418c-0.345,0-0.702-0.105-1.078-0.377c-0.164-0.119-0.383-0.176-0.635-0.176
			c-0.536,0-1.222,0.254-1.854,0.693c-0.53-0.338-1.077-0.715-1.657-1.033c-0.036-0.021-0.089-0.029-0.147-0.029
			c-0.153,0-0.347,0.063-0.407,0.146c-0.241,0.342-0.469,0.719-0.576,1.121c-0.075,0.281-0.183,0.363-0.296,0.363
			c-0.162,0-0.335-0.172-0.435-0.172c-0.003,0-0.006,0-0.009,0c-0.18-0.391-0.313-0.688-0.453-0.982
			c-0.133-0.279-0.273-0.555-0.408-0.834c-0.265-0.547-0.485-0.803-0.829-0.803c-0.19,0-0.418,0.078-0.713,0.229
			c-0.25,0.127-0.469,0.205-0.657,0.205c-0.291,0-0.508-0.189-0.65-0.676c-0.085-0.293-0.219-0.391-0.38-0.391
			c-0.134,0-0.288,0.068-0.45,0.145c-0.658,0.309-1.328,0.598-1.998,0.887c-0.096,0.041-0.181,0.059-0.258,0.059
			c-0.253,0-0.415-0.199-0.543-0.463c-0.27-0.561-0.521-1.133-0.83-1.68c-0.079-0.137-0.337-0.289-0.5-0.289
			c-0.007,0-0.014,0.002-0.022,0.002c-0.956,0.088-1.901,0.242-2.861,0.326c-0.003,0-0.005,0-0.007,0
			c-0.131,0-0.447-0.324-0.425-0.373c0.322-0.701,0.674-1.389,1.052-2.061c0.145-0.256,0.443-0.434,0.54-0.699
			c0.058-0.16-0.09-0.563-0.228-0.615c-1.056-0.412-2.136-0.76-3.207-1.146c-0.158-0.057-0.288-0.201-0.432-0.305
			c0.089-0.113,0.157-0.25,0.27-0.336c0.729-0.547,1.481-1.055,2.494-1.055h0.006c0.064,0,0.173-0.1,0.168-0.152
			c-0.012-0.125-0.041-0.287-0.128-0.369c-1.246-1.172-2.158-2.537-2.65-4.131c-0.042-0.135,0.173-0.443,0.33-0.477
			c0.05-0.012,0.102-0.018,0.155-0.018c0.213,0,0.45,0.076,0.673,0.102c0.195,0.023,0.39,0.035,0.584,0.055
			c-0.051-0.207-0.078-0.42-0.158-0.617c-0.438-1.07-0.926-2.127-1.312-3.217c-0.091-0.258,0.232-0.604,0.214-0.912
			c-0.013-0.262-0.189-0.582-0.391-0.783c-0.434-0.428-0.966-0.762-1.395-1.195c-0.605-0.611-0.204-1.008,0.31-1.271
			c0.836-0.43,1.708-0.799,2.546-1.223c0.109-0.057,0.194-0.311,0.15-0.438c-0.414-1.197-0.872-2.383-1.293-3.584
			c-0.106-0.301-0.02-0.5,0.255-0.5c0.054,0,0.115,0.006,0.184,0.023c0.347,0.082,0.69,0.211,1.038,0.264
			c0.005,0.002,0.01,0.002,0.015,0.002c0.115,0,0.328-0.162,0.315-0.227c-0.374-1.881,0.235-3.506,0.929-5.102
			c0.174-0.398,0.409-0.594,0.674-0.594c0.246,0,0.518,0.168,0.792,0.494c0.103,0.123,0.273,0.191,0.412,0.285
			c0.035-0.164,0.144-0.35,0.091-0.49c-0.192-0.521-0.42-1.035-0.668-1.541c-0.509-1.035-1.076-2.049-1.548-3.104
			c-0.197-0.441-0.112-0.814,0.316-0.814c0.085,0,0.185,0.014,0.298,0.047c0.795,0.225,1.573,0.535,2.357,0.807
			c0.114,0.041,0.252,0.123,0.346,0.123c0.018,0,0.033-0.002,0.047-0.008c0.083-0.037,0.116-0.23,0.117-0.361
			c0.006-1.277,0.129-2.488,0.982-3.482c0.323-0.375,0.51-0.576,0.734-0.576c0.194,0,0.416,0.15,0.78,0.467
			c0.466,0.404,0.882,0.867,1.343,1.275c0.036,0.031,0.114,0.045,0.193,0.045c0.096,0,0.193-0.021,0.219-0.063
			c1.2-1.906,2.964-3.059,5.119-3.689c0.103-0.031,0.189-0.045,0.261-0.045c0.442,0,0.368,0.504,0.456,0.809
			c0.148,0.516,0.238,1.039,0.381,1.686c0.831-0.539,1.575-1.027,2.326-1.506c0.484-0.309,0.965-0.627,1.477-0.887
			c0.019-0.01,0.043-0.014,0.071-0.014c0.139,0,0.368,0.107,0.449,0.215c0.349,0.467,0.646,0.971,1.042,1.584
			c0.296-0.643,0.441-1.256,0.801-1.672c0.646-0.746,1.388-1.416,2.156-2.035c0.131-0.105,0.259-0.154,0.378-0.154
			c0.288,0,0.527,0.273,0.646,0.639c0.19,0.574,0.284,1.17,0.453,1.75c0.021,0.068,0.237,0.172,0.326,0.172
			c0.014,0,0.024-0.002,0.031-0.008c0.913-0.736,1.829-1.451,3.085-1.555c0.612-0.051,1.216-0.152,1.827-0.205
			c0.019-0.002,0.039-0.002,0.061-0.002c0.161,0,0.384,0.043,0.416,0.119c0.066,0.16,0.015,0.379-0.031,0.559
			c-0.14,0.557-0.302,1.105-0.46,1.672c0.023,0.004,0.047,0.006,0.07,0.006c0.405,0,0.782-0.521,1.227-0.521
			c0.257,0,0.536,0.174,0.857,0.721c-0.027-1.016-0.07-1.783-0.057-2.547c0.005-0.311,0.133-0.607,0.205-0.91
			c0.191,0.086,0.404,0.139,0.57,0.262c0.76,0.564,1.505,1.143,2.252,1.717c0.132,0.102,0.239,0.154,0.329,0.154
			c0.13,0,0.222-0.111,0.293-0.346c0.176-0.582,0.343-1.188,0.644-1.693c0.147-0.248,0.534-0.504,0.807-0.504
			c0.031,0,0.06,0.004,0.088,0.01c0.278,0.072,0.543,0.541,0.706,0.883c0.234,0.492,0.371,1.025,0.63,1.773
			c0.546-0.676,0.978-1.254,1.457-1.789c0.475-0.527,0.97-1.043,1.521-1.479C133.722,61.483,133.758,61.476,133.803,61.476"/>
		<path clip-path="url(#SVGID_2_)" fill="#E5E2D3" d="M150.342,114.55c-0.378,0-0.685-0.309-0.685-0.686V86.472h-6.503v27.393
			c0,0.377-0.306,0.686-0.685,0.686h-6.822c-0.379,0-0.686-0.309-0.686-0.686V86.472h-6.502v27.393c0,0.377-0.307,0.686-0.685,0.686
			h-6.823c-0.378,0-0.685-0.309-0.685-0.686V86.472h-6.503v27.393c0,0.377-0.306,0.686-0.685,0.686h-6.823
			c-0.378,0-0.685-0.309-0.685-0.686V86.472h-9.088c-0.378,0-0.685-0.307-0.685-0.684v-4.17c0-0.379,0.307-0.686,0.685-0.686h9.088
			v-6.172c0-0.182,0.072-0.355,0.201-0.484l3.411-3.412c0.129-0.129,0.303-0.199,0.485-0.199c0.181,0,0.355,0.07,0.484,0.199
			l3.412,3.412c0.128,0.129,0.2,0.303,0.2,0.484v6.172h6.503v-6.172c0-0.182,0.072-0.355,0.201-0.484l3.411-3.412
			c0.128-0.129,0.303-0.199,0.484-0.199c0.182,0,0.356,0.07,0.485,0.199l3.411,3.412c0.129,0.129,0.201,0.303,0.201,0.484v6.172
			h6.502v-6.172c0-0.182,0.073-0.355,0.201-0.484l3.412-3.412c0.128-0.129,0.302-0.199,0.484-0.199c0.182,0,0.356,0.07,0.484,0.199
			l3.412,3.412c0.128,0.129,0.2,0.303,0.2,0.484v6.172h6.503v-6.172c0-0.182,0.072-0.355,0.201-0.484l3.411-3.412
			c0.134-0.133,0.309-0.199,0.485-0.199c0.175,0,0.35,0.066,0.484,0.199l3.411,3.412c0.129,0.129,0.201,0.303,0.201,0.484v6.172
			h9.088c0.378,0,0.685,0.307,0.685,0.686v4.17c0,0.377-0.307,0.684-0.685,0.684h-9.088v27.393c0,0.377-0.307,0.686-0.685,0.686
			H150.342z"/>
		<path clip-path="url(#SVGID_2_)" d="M153.753,69.979c-0.351,0-0.701,0.135-0.969,0.4l-3.411,3.412
			c-0.257,0.258-0.402,0.605-0.402,0.969v5.486h-5.132v-5.486c0-0.363-0.145-0.711-0.401-0.969l-3.412-3.412
			c-0.257-0.256-0.605-0.4-0.969-0.4c-0.363,0-0.711,0.145-0.968,0.4l-3.412,3.412c-0.257,0.258-0.401,0.605-0.401,0.969v5.486
			h-5.133v-5.486c0-0.363-0.144-0.711-0.401-0.969l-3.411-3.412c-0.257-0.256-0.606-0.4-0.969-0.4c-0.364,0-0.712,0.145-0.969,0.4
			l-3.411,3.412c-0.257,0.258-0.402,0.605-0.402,0.969v5.486h-5.132v-5.486c0-0.363-0.145-0.711-0.401-0.969l-3.412-3.412
			c-0.257-0.256-0.606-0.4-0.969-0.4c-0.363,0-0.712,0.145-0.969,0.4l-3.411,3.412c-0.257,0.258-0.401,0.605-0.401,0.969v5.486
			h-8.403c-0.757,0-1.37,0.615-1.37,1.371v4.168c0,0.758,0.613,1.371,1.37,1.371h8.403v26.707c0,0.756,0.613,1.371,1.37,1.371h6.823
			c0.756,0,1.37-0.615,1.37-1.371V87.157h5.132v26.707c0,0.756,0.614,1.371,1.37,1.371h6.823c0.757,0,1.37-0.615,1.37-1.371V87.157
			h5.133v26.707c0,0.756,0.613,1.371,1.37,1.371h6.823c0.756,0,1.37-0.615,1.37-1.371V87.157h5.132v26.707
			c0,0.756,0.614,1.371,1.37,1.371h6.824c0.756,0,1.37-0.615,1.37-1.371V87.157h8.402c0.757,0,1.37-0.613,1.37-1.371v-4.168
			c0-0.756-0.613-1.371-1.37-1.371h-8.402v-5.486c0-0.363-0.145-0.711-0.402-0.969l-3.411-3.412
			C154.454,70.114,154.104,69.979,153.753,69.979 M153.753,71.351l3.412,3.41v6.857h9.772v4.168h-9.772v28.078h-6.824V85.786h-7.872
			v28.078h-6.823V85.786h-7.873v28.078h-6.823V85.786h-7.872v28.078h-6.823V85.786h-9.773v-4.168h9.773v-6.857l3.411-3.41
			l3.412,3.41v6.857h7.872v-6.857l3.412-3.41l3.411,3.41v6.857h7.873v-6.857l3.411-3.41l3.412,3.41v6.857h7.872v-6.857
			L153.753,71.351z"/>
		
			<line clip-path="url(#SVGID_2_)" fill="none" stroke="#000000" stroke-width="1.37" stroke-linecap="round" stroke-linejoin="round" stroke-miterlimit="10" x1="221.362" y1="45.403" x2="221.362" y2="120.913"/>
	</g>
	
		<line fill="none" stroke="#000000" stroke-width="1.37" stroke-linecap="round" stroke-linejoin="round" stroke-miterlimit="10" x1="202.485" y1="50.462" x2="240.239" y2="115.854"/>
	
		<line fill="none" stroke="#000000" stroke-width="1.37" stroke-linecap="round" stroke-linejoin="round" stroke-miterlimit="10" x1="188.666" y1="64.28" x2="254.059" y2="102.034"/>
	
		<line fill="none" stroke="#000000" stroke-width="1.37" stroke-linecap="round" stroke-linejoin="round" stroke-miterlimit="10" x1="183.607" y1="83.159" x2="259.117" y2="83.159"/>
	
		<line fill="none" stroke="#000000" stroke-width="1.37" stroke-linecap="round" stroke-linejoin="round" stroke-miterlimit="10" x1="188.666" y1="102.036" x2="254.059" y2="64.28"/>
	
		<line fill="none" stroke="#000000" stroke-width="1.37" stroke-linecap="round" stroke-linejoin="round" stroke-miterlimit="10" x1="202.485" y1="115.854" x2="240.239" y2="50.462"/>
	
		<path fill="none" stroke="#000000" stroke-width="1.37" stroke-linecap="round" stroke-linejoin="round" stroke-miterlimit="10" d="
		M221.362,114.245l-15.542-4.164l-11.38-11.379l-4.165-15.545l4.166-15.543l11.379-11.379l15.542-4.164l15.544,4.166l11.379,11.377
		l4.164,15.543l-4.164,15.545l-11.379,11.379L221.362,114.245z M221.362,103.882L211,101.106l-7.586-7.586l-2.776-10.363
		l2.777-10.361L211,65.21l10.362-2.775l10.362,2.777l7.587,7.584l2.776,10.361l-2.776,10.363l-7.587,7.586L221.362,103.882z
		 M221.362,96.974l-6.908-1.85l-5.057-5.059l-1.851-6.908l1.851-6.906l5.057-5.059l6.908-1.85l6.908,1.85l5.058,5.059l1.851,6.906
		l-1.851,6.908l-5.058,5.059L221.362,96.974z M221.362,92.37l-4.605-1.234l-3.372-3.371l-1.234-4.607l1.234-4.604l3.372-3.373
		l4.605-1.232l4.605,1.234l3.372,3.371l1.234,4.604l-1.234,4.607l-3.372,3.371L221.362,92.37z M221.362,89.3l-3.07-0.824
		l-2.248-2.246l-0.822-3.072l0.822-3.068l2.248-2.248l3.07-0.822l3.07,0.822l2.248,2.248l0.823,3.068l-0.823,3.072l-2.248,2.246
		L221.362,89.3z"/>
	
		<line fill="none" stroke="#000000" stroke-width="1.37" stroke-linecap="round" stroke-linejoin="round" stroke-miterlimit="10" x1="233.328" y1="90.067" x2="233.328" y2="123.319"/>
	
		<line fill="none" stroke="#000000" stroke-width="1.37" stroke-linecap="round" stroke-linejoin="round" stroke-miterlimit="10" x1="228.202" y1="129.935" x2="238.454" y2="119.683"/>
	
		<line fill="none" stroke="#000000" stroke-width="1.37" stroke-linecap="round" stroke-linejoin="round" stroke-miterlimit="10" x1="238.454" y1="129.935" x2="228.202" y2="119.683"/>
	
		<line fill="none" stroke="#000000" stroke-width="1.37" stroke-linecap="round" stroke-linejoin="round" stroke-miterlimit="10" x1="240.331" y1="126.685" x2="226.325" y2="122.933"/>
	
		<line fill="none" stroke="#000000" stroke-width="1.37" stroke-linecap="round" stroke-linejoin="round" stroke-miterlimit="10" x1="240.331" y1="122.933" x2="226.325" y2="126.685"/>
	<g>
		<defs>
			<rect id="SVGID_31_" x="81.268" y="44.718" width="187.385" height="150.324"/>
		</defs>
		<clipPath id="SVGID_4_">
			<use xlink:href="#SVGID_31_"  overflow="visible"/>
		</clipPath>
		<path clip-path="url(#SVGID_4_)" fill="#AB2E23" d="M232.13,127.317c0-0.662,0.537-1.197,1.198-1.197
			c0.661-0.002,1.198,0.535,1.197,1.197c0.001,0.662-0.536,1.195-1.197,1.197C232.667,128.515,232.13,127.979,232.13,127.317"/>
		
			<circle clip-path="url(#SVGID_4_)" fill="none" stroke="#000000" stroke-width="1.37" stroke-linecap="round" stroke-linejoin="round" stroke-miterlimit="10" cx="233.328" cy="127.317" r="1.198"/>
		<path clip-path="url(#SVGID_4_)" fill="#AB2E23" d="M230.82,123.612c0-1.385,1.123-2.508,2.508-2.508
			c1.384,0,2.507,1.123,2.507,2.508c0,1.383-1.123,2.506-2.507,2.508C231.943,126.118,230.82,124.995,230.82,123.612"/>
		
			<circle clip-path="url(#SVGID_4_)" fill="none" stroke="#000000" stroke-width="1.37" stroke-linecap="round" stroke-linejoin="round" stroke-miterlimit="10" cx="233.328" cy="123.612" r="2.507"/>
		<path clip-path="url(#SVGID_4_)" fill="#4F5666" d="M172,142.792v43.738c0,3.352-10.79,6.07-24.1,6.07
			c-13.311,0-24.101-2.719-24.101-6.07v-43.738"/>
		
			<path clip-path="url(#SVGID_4_)" fill="none" stroke="#000000" stroke-width="1.37" stroke-linejoin="round" stroke-miterlimit="10" d="
			M172,142.792v43.738c0,3.352-10.79,6.07-24.1,6.07c-13.311,0-24.101-2.719-24.101-6.07v-43.738"/>
		<path clip-path="url(#SVGID_4_)" fill="#E5E2D3" d="M170.175,145.112c1.175-0.715,1.826-1.498,1.826-2.318
			c0-3.354-10.79-6.07-24.101-6.07c-13.31,0-24.1,2.717-24.1,6.07c0,0.82,0.65,1.604,1.826,2.318
			c3.618-2.199,12.228-3.748,22.274-3.748C157.947,141.364,166.556,142.913,170.175,145.112"/>
		
			<path clip-path="url(#SVGID_4_)" fill="none" stroke="#000000" stroke-width="1.37" stroke-linejoin="round" stroke-miterlimit="10" d="
			M170.175,145.112c1.175-0.715,1.826-1.498,1.826-2.318c0-3.354-10.79-6.07-24.101-6.07c-13.31,0-24.1,2.717-24.1,6.07
			c0,0.82,0.65,1.604,1.826,2.318c3.618-2.199,12.228-3.748,22.274-3.748C157.947,141.364,166.556,142.913,170.175,145.112z"/>
		<path clip-path="url(#SVGID_4_)" fill="#2268A8" d="M170.175,145.112c-3.619-2.199-12.228-3.748-22.275-3.748
			c-10.046,0-18.656,1.549-22.274,3.748c3.618,2.201,12.228,3.75,22.274,3.75C157.947,148.862,166.556,147.313,170.175,145.112"/>
		
			<path clip-path="url(#SVGID_4_)" fill="none" stroke="#000000" stroke-width="1.37" stroke-linejoin="round" stroke-miterlimit="10" d="
			M170.175,145.112c-3.619-2.199-12.228-3.748-22.275-3.748c-10.046,0-18.656,1.549-22.274,3.748
			c3.618,2.201,12.228,3.75,22.274,3.75C157.947,148.862,166.556,147.313,170.175,145.112z"/>
		<path clip-path="url(#SVGID_4_)" fill="#4F5666" d="M167.415,157.278c0,2.254-1.286,4.082-2.872,4.082
			c-1.585,0-2.871-1.828-2.871-4.082c0-2.256,1.286-4.082,2.871-4.082C166.129,153.196,167.415,155.022,167.415,157.278"/>
		
			<ellipse clip-path="url(#SVGID_4_)" fill="none" stroke="#000000" stroke-width="1.37" stroke-linejoin="round" stroke-miterlimit="10" cx="164.544" cy="157.278" rx="2.871" ry="4.082"/>
		
			<path clip-path="url(#SVGID_4_)" fill="none" stroke="#000000" stroke-width="1.37" stroke-linecap="round" stroke-linejoin="round" stroke-miterlimit="10" d="
			M164.543,157.278c0,0,13.52,6.936,13.52,12.65c0,5.713-6.063,7.947-6.063,7.947"/>
		<path clip-path="url(#SVGID_4_)" fill="#CCAC6C" d="M222.367,180.755c-2.678,0-4.85-2.172-4.85-4.85c0-2.68,2.172-4.85,4.85-4.85
			c2.679,0,4.85,2.17,4.85,4.85C227.217,178.583,225.046,180.755,222.367,180.755 M223.083,135.017
			c-21.15,0.941-36.929,9.742-35.019,20.559c1.025,5.803,13.311,8.756,18.664,12.748c6.679,4.982-2.512,10.488,3.083,15.354
			c7.825,6.803,37.504,1.52,47.265-7.771C278.59,155.425,250.639,133.788,223.083,135.017"/>
		
			<path clip-path="url(#SVGID_4_)" fill="none" stroke="#000000" stroke-width="1.37" stroke-linecap="round" stroke-linejoin="round" stroke-miterlimit="38" d="
			M222.367,180.755c-2.678,0-4.85-2.172-4.85-4.85c0-2.68,2.172-4.85,4.85-4.85c2.679,0,4.85,2.17,4.85,4.85
			C227.217,178.583,225.046,180.755,222.367,180.755z M223.083,135.017c-21.15,0.941-36.929,9.742-35.019,20.559
			c1.025,5.803,13.311,8.756,18.664,12.748c6.679,4.982-2.512,10.488,3.083,15.354c7.825,6.803,37.504,1.52,47.265-7.771
			C278.59,155.425,250.639,133.788,223.083,135.017z"/>
		<path clip-path="url(#SVGID_4_)" fill="#AB2E23" d="M210.325,151.694c0,3.451-2.798,6.25-6.251,6.25
			c-3.452,0-6.25-2.799-6.25-6.25c0-3.453,2.798-6.252,6.25-6.252C207.527,145.442,210.325,148.241,210.325,151.694"/>
		
			<circle clip-path="url(#SVGID_4_)" fill="none" stroke="#000000" stroke-width="1.37" stroke-linecap="round" stroke-linejoin="round" stroke-miterlimit="38" cx="204.074" cy="151.694" r="6.25"/>
		<path clip-path="url(#SVGID_4_)" fill="#2268A8" d="M227.625,147.153c0,3.115-2.526,5.643-5.642,5.643
			c-3.116,0-5.642-2.527-5.642-5.643s2.526-5.643,5.642-5.643C225.099,141.511,227.625,144.038,227.625,147.153"/>
		
			<circle clip-path="url(#SVGID_4_)" fill="none" stroke="#000000" stroke-width="1.37" stroke-linecap="round" stroke-linejoin="round" stroke-miterlimit="38" cx="221.982" cy="147.153" r="5.642"/>
		<path clip-path="url(#SVGID_4_)" fill="#809EAD" d="M243.669,148.519c0,2.596-2.104,4.699-4.7,4.699c-2.596,0-4.7-2.104-4.7-4.699
			c0-2.598,2.104-4.701,4.7-4.701C241.565,143.817,243.669,145.921,243.669,148.519"/>
		
			<circle clip-path="url(#SVGID_4_)" fill="none" stroke="#000000" stroke-width="1.37" stroke-linecap="round" stroke-linejoin="round" stroke-miterlimit="38" cx="238.969" cy="148.519" r="4.7"/>
		<path clip-path="url(#SVGID_4_)" fill="#358C5E" d="M255.914,156.073c0,2.08-1.685,3.764-3.763,3.764
			c-2.079,0-3.764-1.684-3.764-3.764c0-2.078,1.685-3.762,3.764-3.762C254.229,152.312,255.914,153.995,255.914,156.073"/>
		
			<circle clip-path="url(#SVGID_4_)" fill="none" stroke="#000000" stroke-width="1.37" stroke-linecap="round" stroke-linejoin="round" stroke-miterlimit="38" cx="252.15" cy="156.073" r="3.763"/>
		<path clip-path="url(#SVGID_4_)" fill="#CCAC6C" d="M221.649,173.688c-1.553,0.219-3.018,0.445-4.368,0.674
			c-1.351,0.227-2.586,0.451-3.678,0.67c-0.547,0.111-1.058,0.213-1.53,0.309c-0.472,0.104-0.905,0.197-1.296,0.283
			c-0.783,0.174-1.395,0.322-1.813,0.43c-0.416,0.109-0.639,0.166-0.639,0.166c-0.366,0.098-0.636,0.434-0.631,0.828
			c0.006,0.467,0.389,0.842,0.856,0.834c0,0,0.229-0.002,0.661-0.008c0.43-0.008,1.06-0.025,1.86-0.064
			c0.4-0.021,0.843-0.045,1.325-0.07c0.481-0.033,1.001-0.07,1.557-0.109c1.111-0.078,2.363-0.188,3.724-0.328
			c1.363-0.137,2.836-0.307,4.391-0.508c1.556-0.195,3.192-0.436,4.887-0.666c1.695-0.232,3.446-0.475,5.225-0.721
			c1.778-0.254,3.584-0.514,5.391-0.773c1.805-0.264,3.613-0.516,5.389-0.785s3.524-0.531,5.216-0.787
			c1.692-0.252,3.325-0.52,4.874-0.76c1.55-0.24,3.015-0.475,4.365-0.697c1.351-0.223,2.591-0.418,3.687-0.609
			c1.097-0.184,2.053-0.348,2.841-0.482c1.573-0.277,2.472-0.436,2.472-0.436c0.425-0.076,0.731-0.467,0.691-0.904
			c-0.044-0.463-0.453-0.801-0.915-0.758c0,0-0.909,0.086-2.499,0.234c-0.796,0.08-1.76,0.178-2.867,0.287
			c-1.108,0.109-2.355,0.248-3.717,0.393c-1.361,0.141-2.835,0.305-4.394,0.482c-1.558,0.18-3.203,0.354-4.901,0.559
			c-1.699,0.203-3.455,0.412-5.238,0.623c-1.785,0.211-3.594,0.447-5.405,0.672c-1.81,0.229-3.62,0.457-5.402,0.684
			c-1.782,0.232-3.534,0.465-5.23,0.688C224.842,173.265,223.202,173.466,221.649,173.688"/>
		
			<path clip-path="url(#SVGID_4_)" fill="none" stroke="#000000" stroke-width="1.37" stroke-linecap="round" stroke-linejoin="round" stroke-miterlimit="38" d="
			M221.649,173.688c-1.553,0.219-3.018,0.445-4.368,0.674c-1.351,0.227-2.586,0.451-3.678,0.67c-0.547,0.111-1.058,0.213-1.53,0.309
			c-0.472,0.104-0.905,0.197-1.296,0.283c-0.783,0.174-1.395,0.322-1.813,0.43c-0.416,0.109-0.639,0.166-0.639,0.166
			c-0.366,0.098-0.636,0.434-0.631,0.828c0.006,0.467,0.389,0.842,0.856,0.834c0,0,0.229-0.002,0.661-0.008
			c0.43-0.008,1.06-0.025,1.86-0.064c0.4-0.021,0.843-0.045,1.325-0.07c0.481-0.033,1.001-0.07,1.557-0.109
			c1.111-0.078,2.363-0.188,3.724-0.328c1.363-0.137,2.836-0.307,4.391-0.508c1.556-0.195,3.192-0.436,4.887-0.666
			c1.695-0.232,3.446-0.475,5.225-0.721c1.778-0.254,3.584-0.514,5.391-0.773c1.805-0.264,3.613-0.516,5.389-0.785
			s3.524-0.531,5.216-0.787c1.692-0.252,3.325-0.52,4.874-0.76c1.55-0.24,3.015-0.475,4.365-0.697
			c1.351-0.223,2.591-0.418,3.687-0.609c1.097-0.184,2.053-0.348,2.841-0.482c1.573-0.277,2.472-0.436,2.472-0.436
			c0.425-0.076,0.731-0.467,0.691-0.904c-0.044-0.463-0.453-0.801-0.915-0.758c0,0-0.909,0.086-2.499,0.234
			c-0.796,0.08-1.76,0.178-2.867,0.287c-1.108,0.109-2.355,0.248-3.717,0.393c-1.361,0.141-2.835,0.305-4.394,0.482
			c-1.558,0.18-3.203,0.354-4.901,0.559c-1.699,0.203-3.455,0.412-5.238,0.623c-1.785,0.211-3.594,0.447-5.405,0.672
			c-1.81,0.229-3.62,0.457-5.402,0.684c-1.782,0.232-3.534,0.465-5.23,0.688C224.842,173.265,223.202,173.466,221.649,173.688z"/>
		<path clip-path="url(#SVGID_4_)" fill="#564432" d="M203.726,175.116c-0.8,0.182-1.65,0.404-2.493,0.664
			c-0.844,0.266-1.683,0.563-2.463,0.889c-0.391,0.162-0.767,0.328-1.122,0.494c-0.178,0.086-0.35,0.168-0.517,0.248
			c-0.167,0.086-0.327,0.17-0.481,0.25c-0.308,0.162-0.589,0.316-0.837,0.467c-0.248,0.145-0.463,0.283-0.64,0.398
			c-0.353,0.23-0.552,0.389-0.552,0.389s0.233,0.1,0.635,0.229c0.202,0.064,0.445,0.143,0.723,0.215
			c0.279,0.078,0.591,0.154,0.931,0.23c0.17,0.037,0.347,0.074,0.53,0.113c0.182,0.031,0.37,0.066,0.564,0.102
			c0.386,0.066,0.793,0.127,1.213,0.18c0.838,0.105,1.726,0.17,2.61,0.203c0.883,0.027,1.761,0.018,2.58-0.02
			c0.409-0.02,0.805-0.041,1.177-0.08c0.371-0.049,0.715-0.15,1.026-0.293c0.621-0.283,1.11-0.732,1.439-1.143
			c0.165-0.203,0.291-0.391,0.374-0.539c0.085-0.139,0.127-0.229,0.127-0.229c0.25-0.533,0.183-1.188-0.224-1.664
			c0,0-0.065-0.076-0.183-0.188c-0.12-0.121-0.29-0.268-0.504-0.42c-0.426-0.307-1.016-0.611-1.69-0.719
			c-0.338-0.057-0.695-0.063-1.067-0.014C204.513,174.942,204.126,175.026,203.726,175.116"/>
		
			<path clip-path="url(#SVGID_4_)" fill="none" stroke="#000000" stroke-width="1.37" stroke-linecap="round" stroke-linejoin="round" stroke-miterlimit="38" d="
			M203.726,175.116c-0.8,0.182-1.65,0.404-2.493,0.664c-0.844,0.266-1.683,0.563-2.463,0.889c-0.391,0.162-0.767,0.328-1.122,0.494
			c-0.178,0.086-0.35,0.168-0.517,0.248c-0.167,0.086-0.327,0.17-0.481,0.25c-0.308,0.162-0.589,0.316-0.837,0.467
			c-0.248,0.145-0.463,0.283-0.64,0.398c-0.353,0.23-0.552,0.389-0.552,0.389s0.233,0.1,0.635,0.229
			c0.202,0.064,0.445,0.143,0.723,0.215c0.279,0.078,0.591,0.154,0.931,0.23c0.17,0.037,0.347,0.074,0.53,0.113
			c0.182,0.031,0.37,0.066,0.564,0.102c0.386,0.066,0.793,0.127,1.213,0.18c0.838,0.105,1.726,0.17,2.61,0.203
			c0.883,0.027,1.761,0.018,2.58-0.02c0.409-0.02,0.805-0.041,1.177-0.08c0.371-0.049,0.715-0.15,1.026-0.293
			c0.621-0.283,1.11-0.732,1.439-1.143c0.165-0.203,0.291-0.391,0.374-0.539c0.085-0.139,0.127-0.229,0.127-0.229
			c0.25-0.533,0.183-1.188-0.224-1.664c0,0-0.065-0.076-0.183-0.188c-0.12-0.121-0.29-0.268-0.504-0.42
			c-0.426-0.307-1.016-0.611-1.69-0.719c-0.338-0.057-0.695-0.063-1.067-0.014C204.513,174.942,204.126,175.026,203.726,175.116z"/>
	</g>
	
		<rect x="208.771" y="175.066" transform="matrix(-0.1337 -0.991 0.991 -0.1337 62.7633 408.5276)" fill="#4F5666" width="2.341" height="3.53"/>
	
		<rect x="208.771" y="175.066" transform="matrix(-0.1337 -0.991 0.991 -0.1337 62.7633 408.5276)" fill="none" stroke="#000000" stroke-width="1.37" stroke-linecap="round" stroke-linejoin="round" stroke-miterlimit="38" width="2.341" height="3.53"/>
	<g>
		<defs>
			<rect id="SVGID_33_" x="81.268" y="44.718" width="187.385" height="150.324"/>
		</defs>
		<clipPath id="SVGID_6_">
			<use xlink:href="#SVGID_33_"  overflow="visible"/>
		</clipPath>
		<path clip-path="url(#SVGID_6_)" fill="#CCAC6C" d="M223.256,182.353c-1.52,0.387-2.952,0.771-4.269,1.146
			c-1.318,0.371-2.522,0.73-3.584,1.066c-0.531,0.168-1.028,0.326-1.487,0.473c-0.458,0.154-0.878,0.295-1.257,0.422
			c-0.758,0.26-1.351,0.475-1.755,0.625c-0.402,0.154-0.617,0.236-0.617,0.236c-0.354,0.135-0.585,0.498-0.537,0.891
			c0.056,0.463,0.478,0.793,0.941,0.736c0,0,0.228-0.027,0.656-0.08c0.427-0.055,1.051-0.143,1.843-0.268
			c0.395-0.064,0.832-0.137,1.309-0.213c0.474-0.088,0.987-0.18,1.536-0.277c1.096-0.201,2.327-0.445,3.666-0.734
			c1.339-0.283,2.785-0.611,4.309-0.98c1.526-0.365,3.126-0.781,4.786-1.195c1.659-0.416,3.373-0.848,5.115-1.285
			c1.74-0.447,3.508-0.9,5.275-1.355c1.766-0.459,3.535-0.904,5.271-1.367c1.737-0.461,3.446-0.912,5.1-1.352
			c1.654-0.434,3.248-0.877,4.762-1.285c1.515-0.408,2.945-0.801,4.264-1.168c1.318-0.369,2.529-0.699,3.599-1.006
			c1.069-0.305,2.003-0.57,2.771-0.789c1.533-0.447,2.41-0.701,2.41-0.701c0.414-0.123,0.676-0.545,0.587-0.977
			c-0.093-0.453-0.537-0.746-0.991-0.652c0,0-0.894,0.184-2.459,0.506c-0.781,0.164-1.731,0.367-2.819,0.596
			c-1.089,0.229-2.313,0.504-3.651,0.795c-1.339,0.289-2.786,0.611-4.315,0.959c-1.53,0.346-3.146,0.701-4.812,1.088
			c-1.667,0.387-3.389,0.785-5.139,1.191c-1.751,0.4-3.524,0.834-5.3,1.254c-1.774,0.424-3.549,0.848-5.296,1.266
			c-1.745,0.428-3.462,0.85-5.123,1.254C226.384,181.581,224.774,181.962,223.256,182.353"/>
		
			<path clip-path="url(#SVGID_6_)" fill="none" stroke="#000000" stroke-width="1.37" stroke-linecap="round" stroke-linejoin="round" stroke-miterlimit="38" d="
			M223.256,182.353c-1.52,0.387-2.952,0.771-4.269,1.146c-1.318,0.371-2.522,0.73-3.584,1.066c-0.531,0.168-1.028,0.326-1.487,0.473
			c-0.458,0.154-0.878,0.295-1.257,0.422c-0.758,0.26-1.351,0.475-1.755,0.625c-0.402,0.154-0.617,0.236-0.617,0.236
			c-0.354,0.135-0.585,0.498-0.537,0.891c0.056,0.463,0.478,0.793,0.941,0.736c0,0,0.228-0.027,0.656-0.08
			c0.427-0.055,1.051-0.143,1.843-0.268c0.395-0.064,0.832-0.137,1.309-0.213c0.474-0.088,0.987-0.18,1.536-0.277
			c1.096-0.201,2.327-0.445,3.666-0.734c1.339-0.283,2.785-0.611,4.309-0.98c1.526-0.365,3.126-0.781,4.786-1.195
			c1.659-0.416,3.373-0.848,5.115-1.285c1.74-0.447,3.508-0.9,5.275-1.355c1.766-0.459,3.535-0.904,5.271-1.367
			c1.737-0.461,3.446-0.912,5.1-1.352c1.654-0.434,3.248-0.877,4.762-1.285c1.515-0.408,2.945-0.801,4.264-1.168
			c1.318-0.369,2.529-0.699,3.599-1.006c1.069-0.305,2.003-0.57,2.771-0.789c1.533-0.447,2.41-0.701,2.41-0.701
			c0.414-0.123,0.676-0.545,0.587-0.977c-0.093-0.453-0.537-0.746-0.991-0.652c0,0-0.894,0.184-2.459,0.506
			c-0.781,0.164-1.731,0.367-2.819,0.596c-1.089,0.229-2.313,0.504-3.651,0.795c-1.339,0.289-2.786,0.611-4.315,0.959
			c-1.53,0.346-3.146,0.701-4.812,1.088c-1.667,0.387-3.389,0.785-5.139,1.191c-1.751,0.4-3.524,0.834-5.3,1.254
			c-1.774,0.424-3.549,0.848-5.296,1.266c-1.745,0.428-3.462,0.85-5.123,1.254C226.384,181.581,224.774,181.962,223.256,182.353z"/>
		<path clip-path="url(#SVGID_6_)" fill="#564432" d="M196.571,186.448c-0.367,0.105-0.574,0.178-0.574,0.178l1.919,7.73
			c0,0,0.216-0.031,0.589-0.111c0.186-0.041,0.413-0.088,0.67-0.154c0.258-0.064,0.548-0.139,0.862-0.229
			c0.316-0.084,0.654-0.191,1.013-0.301c0.358-0.111,0.732-0.242,1.122-0.369c0.388-0.131,0.79-0.262,1.204-0.377
			c0.412-0.119,0.834-0.227,1.255-0.338c0.844-0.221,1.679-0.471,2.431-0.834c0.377-0.176,0.734-0.379,1.067-0.588
			c0.168-0.104,0.328-0.211,0.483-0.322c0.155-0.107,0.306-0.205,0.443-0.332c0.137-0.125,0.264-0.264,0.379-0.416
			c0.058-0.074,0.113-0.156,0.165-0.24c0.053-0.078,0.104-0.158,0.15-0.25c0.188-0.34,0.336-0.705,0.446-1.055
			c0.053-0.186,0.099-0.35,0.14-0.494c0.035-0.164,0.066-0.303,0.09-0.416c0.042-0.258,0.064-0.395,0.064-0.395
			s-0.084-0.113-0.241-0.322c-0.075-0.088-0.167-0.197-0.275-0.324c-0.103-0.107-0.221-0.232-0.354-0.371
			c-0.26-0.258-0.562-0.514-0.888-0.725c-0.083-0.059-0.165-0.105-0.249-0.152c-0.085-0.049-0.172-0.096-0.258-0.135
			c-0.173-0.08-0.351-0.145-0.53-0.189c-0.18-0.049-0.36-0.064-0.547-0.086c-0.188-0.025-0.38-0.047-0.577-0.061
			c-0.392-0.029-0.802-0.041-1.218-0.021c-0.834,0.031-1.69,0.201-2.538,0.4c-0.425,0.098-0.849,0.199-1.269,0.287
			c-0.419,0.09-0.836,0.164-1.24,0.23c-0.404,0.068-0.796,0.127-1.165,0.197c-0.368,0.072-0.717,0.133-1.035,0.207
			c-0.321,0.066-0.612,0.137-0.869,0.201C196.978,186.335,196.755,186.399,196.571,186.448"/>
		
			<path clip-path="url(#SVGID_6_)" fill="none" stroke="#000000" stroke-width="1.37" stroke-linecap="round" stroke-linejoin="round" stroke-miterlimit="38" d="
			M196.571,186.448c-0.367,0.105-0.574,0.178-0.574,0.178l1.919,7.73c0,0,0.216-0.031,0.589-0.111
			c0.186-0.041,0.413-0.088,0.67-0.154c0.258-0.064,0.548-0.139,0.862-0.229c0.316-0.084,0.654-0.191,1.013-0.301
			c0.358-0.111,0.732-0.242,1.122-0.369c0.388-0.131,0.79-0.262,1.204-0.377c0.412-0.119,0.834-0.227,1.255-0.338
			c0.844-0.221,1.679-0.471,2.431-0.834c0.377-0.176,0.734-0.379,1.067-0.588c0.168-0.104,0.328-0.211,0.483-0.322
			c0.155-0.107,0.306-0.205,0.443-0.332c0.137-0.125,0.264-0.264,0.379-0.416c0.058-0.074,0.113-0.156,0.165-0.24
			c0.053-0.078,0.104-0.158,0.15-0.25c0.188-0.34,0.336-0.705,0.446-1.055c0.053-0.186,0.099-0.35,0.14-0.494
			c0.035-0.164,0.066-0.303,0.09-0.416c0.042-0.258,0.064-0.395,0.064-0.395s-0.084-0.113-0.241-0.322
			c-0.075-0.088-0.167-0.197-0.275-0.324c-0.103-0.107-0.221-0.232-0.354-0.371c-0.26-0.258-0.562-0.514-0.888-0.725
			c-0.083-0.059-0.165-0.105-0.249-0.152c-0.085-0.049-0.172-0.096-0.258-0.135c-0.173-0.08-0.351-0.145-0.53-0.189
			c-0.18-0.049-0.36-0.064-0.547-0.086c-0.188-0.025-0.38-0.047-0.577-0.061c-0.392-0.029-0.802-0.041-1.218-0.021
			c-0.834,0.031-1.69,0.201-2.538,0.4c-0.425,0.098-0.849,0.199-1.269,0.287c-0.419,0.09-0.836,0.164-1.24,0.23
			c-0.404,0.068-0.796,0.127-1.165,0.197c-0.368,0.072-0.717,0.133-1.035,0.207c-0.321,0.066-0.612,0.137-0.869,0.201
			C196.978,186.335,196.755,186.399,196.571,186.448z"/>
	</g>
	
		<rect x="210.793" y="185.005" transform="matrix(-0.2408 -0.9706 0.9706 -0.2408 81.7234 437.4666)" fill="#4F5666" width="2.342" height="3.53"/>
	
		<rect x="210.793" y="185.005" transform="matrix(-0.2408 -0.9706 0.9706 -0.2408 81.7234 437.4666)" fill="none" stroke="#000000" stroke-width="1.37" stroke-linecap="round" stroke-linejoin="round" stroke-miterlimit="38" width="2.342" height="3.53"/>
	<g>
		<defs>
			<rect id="SVGID_35_" x="81.268" y="44.718" width="187.385" height="150.324"/>
		</defs>
		<clipPath id="SVGID_8_">
			<use xlink:href="#SVGID_35_"  overflow="visible"/>
		</clipPath>
		<g clip-path="url(#SVGID_8_)">
			<text transform="matrix(1 0 0 1 79.7417 174.498)" font-family="'Ubuntu'" font-size="29.9243">du</text>
		</g>
	</g>
</g>
</svg>
