<?xml version="1.0" encoding="utf-8"?>
<!-- Generator: Adobe Illustrator 16.0.0, SVG Export Plug-In . SVG Version: 6.00 Build 0)  -->
<!DOCTYPE svg PUBLIC "-//W3C//DTD SVG 1.1//EN" "http://www.w3.org/Graphics/SVG/1.1/DTD/svg11.dtd">
<svg version="1.1" id="Calque_1" xmlns="http://www.w3.org/2000/svg" xmlns:xlink="http://www.w3.org/1999/xlink" x="0px" y="0px"
	 width="349.92px" height="239.76px" viewBox="0 0 349.92 239.76" enable-background="new 0 0 349.92 239.76" xml:space="preserve">
<g>
	<path fill="#E5E2D3" d="M12.15,2C11.117,2.008,2,2.357,2,12.15v215.459c0.008,1.033,0.357,10.15,10.15,10.15h325.62
		c1.032-0.008,10.15-0.357,10.15-10.15V12.15C347.912,11.117,347.563,2,337.77,2H12.15z"/>
	<path fill="none" stroke="#000000" stroke-width="4" stroke-linejoin="round" stroke-miterlimit="10" d="M12.15,2
		C11.117,2.008,2,2.357,2,12.15v215.459c0.008,1.033,0.357,10.15,10.15,10.15h325.62c1.032-0.008,10.15-0.357,10.15-10.15V12.15
		C347.912,11.117,347.563,2,337.77,2H12.15z"/>
</g>
<g>
	<rect x="231.67" y="36.249" fill="#4F5666" width="45.971" height="4.455"/>
	
		<rect x="231.67" y="36.249" fill="none" stroke="#000000" stroke-width="1.257" stroke-linecap="round" stroke-linejoin="round" stroke-miterlimit="10" width="45.971" height="4.455"/>
	<g>
		<defs>
			<rect id="SVGID_15_" x="62.589" y="26.876" width="224.742" height="186.008"/>
		</defs>
		<clipPath id="SVGID_2_">
			<use xlink:href="#SVGID_15_"  overflow="visible"/>
		</clipPath>
		<path clip-path="url(#SVGID_2_)" fill="#E5E2D3" d="M237.287,48.188c-0.087,0-0.174-0.018-0.255-0.055
			c-0.177-0.078-0.308-0.234-0.355-0.422c-0.402-1.619-1.726-1.693-4.226-1.693c-2.501,0-3.825,0.074-4.227,1.693
			c-0.047,0.188-0.178,0.344-0.355,0.422c-0.081,0.037-0.168,0.055-0.255,0.055c-0.102,0-0.204-0.025-0.296-0.074
			c-1.922-1.025-3.48-2.584-4.505-4.506c-0.092-0.17-0.099-0.373-0.02-0.551c0.079-0.178,0.234-0.307,0.422-0.354
			c1.618-0.404,1.693-1.727,1.693-4.227c0-2.502-0.075-3.826-1.693-4.229c-0.188-0.047-0.344-0.178-0.422-0.354
			c-0.079-0.178-0.072-0.381,0.02-0.553c1.025-1.92,2.583-3.479,4.505-4.504c0.092-0.049,0.194-0.074,0.296-0.074
			c0.087,0,0.174,0.018,0.255,0.055c0.177,0.078,0.308,0.234,0.355,0.422c0.402,1.619,1.726,1.693,4.227,1.693
			c2.5,0,3.824-0.074,4.226-1.693c0.047-0.188,0.178-0.344,0.355-0.422c0.081-0.037,0.168-0.055,0.255-0.055
			c0.102,0,0.204,0.025,0.296,0.074c1.921,1.025,3.479,2.582,4.505,4.504c0.092,0.172,0.099,0.375,0.02,0.553
			c-0.078,0.176-0.234,0.307-0.422,0.354c-1.618,0.402-1.693,1.727-1.693,4.229c0,2.5,0.075,3.822,1.693,4.227
			c0.188,0.047,0.344,0.176,0.422,0.354c0.079,0.178,0.072,0.381-0.02,0.553c-1.025,1.92-2.583,3.479-4.505,4.504
			C237.491,48.163,237.389,48.188,237.287,48.188"/>
		<path clip-path="url(#SVGID_2_)" d="M237.287,28.136c-0.174,0-0.348,0.037-0.511,0.109c-0.353,0.156-0.615,0.469-0.709,0.846
			c-0.266,1.072-0.968,1.215-3.616,1.215c-2.649,0-3.351-0.143-3.618-1.215c-0.093-0.377-0.355-0.689-0.709-0.846
			c-0.162-0.072-0.336-0.109-0.51-0.109c-0.204,0-0.407,0.051-0.592,0.148c-2.032,1.084-3.679,2.732-4.764,4.764
			c-0.182,0.342-0.197,0.748-0.039,1.102c0.157,0.355,0.469,0.615,0.844,0.709c1.074,0.268,1.217,0.969,1.217,3.617
			c0,2.65-0.143,3.352-1.216,3.619c-0.376,0.092-0.688,0.354-0.845,0.709c-0.158,0.352-0.143,0.76,0.039,1.102
			c1.084,2.031,2.732,3.68,4.764,4.764c0.185,0.098,0.388,0.148,0.592,0.148c0.174,0,0.348-0.037,0.51-0.109
			c0.354-0.156,0.616-0.469,0.709-0.846c0.267-1.072,0.969-1.215,3.618-1.215c2.648,0,3.35,0.143,3.616,1.215
			c0.094,0.377,0.356,0.689,0.709,0.846c0.163,0.072,0.337,0.109,0.511,0.109c0.204,0,0.407-0.051,0.592-0.148
			c2.032-1.084,3.679-2.732,4.764-4.764c0.182-0.342,0.197-0.75,0.039-1.102c-0.157-0.355-0.469-0.617-0.845-0.709
			c-1.073-0.268-1.216-0.969-1.216-3.619c0-2.648,0.143-3.35,1.217-3.617c0.375-0.094,0.687-0.354,0.844-0.709
			c0.158-0.354,0.143-0.76-0.04-1.102c-1.084-2.031-2.732-3.68-4.763-4.764C237.694,28.187,237.491,28.136,237.287,28.136
			 M237.287,29.394c1.803,0.961,3.285,2.443,4.247,4.246c-2.17,0.541-2.17,2.5-2.17,4.836c0,2.338,0,4.297,2.17,4.838
			c-0.962,1.803-2.444,3.285-4.247,4.246c-0.539-2.17-2.5-2.17-4.836-2.17c-2.337,0-4.298,0-4.837,2.17
			c-1.803-0.961-3.285-2.443-4.247-4.246c2.17-0.541,2.17-2.5,2.17-4.838c0-2.336,0-4.295-2.17-4.836
			c0.962-1.803,2.444-3.285,4.247-4.246c0.539,2.17,2.5,2.17,4.837,2.17C234.787,31.563,236.748,31.563,237.287,29.394"/>
		<path clip-path="url(#SVGID_2_)" fill="#AB2E23" d="M236.157,38.476c0,2.049-1.66,3.707-3.707,3.707
			c-2.047,0-3.707-1.658-3.707-3.707c0-2.047,1.66-3.707,3.707-3.707C234.497,34.769,236.157,36.429,236.157,38.476"/>
		
			<circle clip-path="url(#SVGID_2_)" fill="none" stroke="#000000" stroke-width="1.257" stroke-linecap="round" stroke-linejoin="round" stroke-miterlimit="10" cx="232.45" cy="38.476" r="3.707"/>
		<path clip-path="url(#SVGID_2_)" fill="#E5E2D3" d="M281.699,48.188c-0.087,0-0.174-0.018-0.255-0.055
			c-0.177-0.078-0.308-0.234-0.355-0.422c-0.402-1.619-1.726-1.693-4.227-1.693s-3.824,0.074-4.227,1.693
			c-0.047,0.188-0.177,0.344-0.354,0.422c-0.082,0.037-0.169,0.055-0.255,0.055c-0.102,0-0.204-0.025-0.296-0.074
			c-1.923-1.025-3.48-2.584-4.506-4.506c-0.091-0.17-0.098-0.373-0.02-0.551c0.079-0.178,0.235-0.307,0.423-0.354
			c1.618-0.404,1.693-1.727,1.693-4.227c0-2.502-0.075-3.826-1.693-4.229c-0.188-0.047-0.344-0.178-0.423-0.354
			c-0.078-0.178-0.071-0.381,0.02-0.553c1.026-1.92,2.584-3.479,4.506-4.504c0.092-0.049,0.194-0.074,0.296-0.074
			c0.086,0,0.173,0.018,0.255,0.055c0.177,0.078,0.307,0.234,0.354,0.422c0.403,1.619,1.726,1.693,4.227,1.693
			s3.825-0.074,4.227-1.693c0.047-0.188,0.178-0.344,0.355-0.422c0.081-0.037,0.168-0.055,0.255-0.055
			c0.102,0,0.203,0.025,0.296,0.074c1.922,1.025,3.48,2.584,4.505,4.504c0.091,0.172,0.098,0.375,0.02,0.553
			c-0.079,0.176-0.235,0.307-0.423,0.354c-1.617,0.402-1.693,1.727-1.693,4.229c0,2.5,0.076,3.822,1.693,4.227
			c0.188,0.047,0.344,0.176,0.423,0.354c0.078,0.178,0.071,0.381-0.02,0.551c-1.025,1.922-2.583,3.48-4.505,4.506
			C281.902,48.163,281.801,48.188,281.699,48.188"/>
		<path clip-path="url(#SVGID_2_)" d="M272.025,28.136c-0.204,0-0.408,0.051-0.592,0.148c-2.032,1.084-3.68,2.732-4.764,4.764
			c-0.182,0.342-0.197,0.748-0.04,1.102c0.158,0.355,0.469,0.615,0.845,0.709c1.074,0.268,1.217,0.969,1.217,3.617
			c0,2.65-0.143,3.352-1.217,3.619c-0.376,0.092-0.687,0.354-0.845,0.709c-0.157,0.352-0.143,0.76,0.04,1.102
			c1.084,2.031,2.731,3.68,4.764,4.764c0.184,0.098,0.388,0.148,0.592,0.148c0.173,0,0.347-0.037,0.51-0.109
			c0.354-0.156,0.616-0.469,0.709-0.846c0.267-1.072,0.969-1.215,3.617-1.215c2.648,0,3.35,0.143,3.618,1.217
			c0.093,0.375,0.355,0.688,0.709,0.844c0.162,0.072,0.336,0.109,0.51,0.109c0.204,0,0.407-0.051,0.592-0.148
			c2.032-1.086,3.679-2.732,4.763-4.764c0.183-0.342,0.197-0.75,0.04-1.102c-0.158-0.355-0.469-0.617-0.845-0.709
			c-1.073-0.268-1.216-0.969-1.216-3.619c0-2.648,0.143-3.35,1.216-3.617c0.376-0.094,0.687-0.354,0.845-0.709
			c0.157-0.354,0.143-0.76-0.04-1.102c-1.084-2.031-2.731-3.68-4.763-4.764c-0.185-0.098-0.388-0.148-0.592-0.148
			c-0.174,0-0.348,0.037-0.51,0.109c-0.354,0.156-0.616,0.469-0.709,0.844c-0.268,1.074-0.969,1.217-3.618,1.217
			c-2.648,0-3.35-0.143-3.617-1.215c-0.093-0.377-0.355-0.689-0.709-0.846C272.373,28.173,272.199,28.136,272.025,28.136
			 M281.699,29.394c1.802,0.961,3.285,2.443,4.247,4.246c-2.17,0.541-2.17,2.5-2.17,4.836c0,2.338,0,4.297,2.17,4.838
			c-0.962,1.803-2.445,3.285-4.247,4.246c-0.54-2.17-2.5-2.17-4.837-2.17c-2.336,0-4.297,0-4.836,2.17
			c-1.803-0.961-3.285-2.443-4.248-4.246c2.17-0.541,2.17-2.5,2.17-4.838c0-2.336,0-4.295-2.17-4.836
			c0.963-1.803,2.445-3.285,4.248-4.246c0.539,2.17,2.5,2.17,4.836,2.17C279.199,31.563,281.159,31.563,281.699,29.394"/>
		<path clip-path="url(#SVGID_2_)" fill="#2268A8" d="M280.568,38.476c0,2.049-1.659,3.707-3.707,3.707
			c-2.047,0-3.707-1.658-3.707-3.707c0-2.047,1.66-3.707,3.707-3.707C278.91,34.769,280.568,36.429,280.568,38.476"/>
		
			<circle clip-path="url(#SVGID_2_)" fill="none" stroke="#000000" stroke-width="1.257" stroke-linecap="round" stroke-linejoin="round" stroke-miterlimit="10" cx="276.861" cy="38.476" r="3.707"/>
		<path clip-path="url(#SVGID_2_)" fill="#4F5666" d="M261.871,60.688c0,3.984-14.43,3.984-14.43,0V34.72
			c0-3.986,3.23-7.215,7.215-7.215c3.985,0,7.215,3.229,7.215,7.215V60.688z"/>
		
			<path clip-path="url(#SVGID_2_)" fill="none" stroke="#000000" stroke-width="1.257" stroke-linecap="round" stroke-linejoin="round" stroke-miterlimit="10" d="
			M261.871,60.688c0,3.984-14.43,3.984-14.43,0V34.72c0-3.986,3.23-7.215,7.215-7.215c3.985,0,7.215,3.229,7.215,7.215V60.688z"/>
		<path clip-path="url(#SVGID_2_)" fill="#2268A8" d="M254.656,120.677c6.462,0,11.7-5.535,11.7-11.689
			c0-11.555-11.7-37.605-11.7-37.605s-11.7,26.051-11.7,37.605C242.956,115.142,248.194,120.677,254.656,120.677"/>
		<path clip-path="url(#SVGID_2_)" fill="none" stroke="#000000" stroke-width="1.257" stroke-miterlimit="10" d="M254.656,120.677
			c6.462,0,11.7-5.535,11.7-11.689c0-11.555-11.7-37.605-11.7-37.605s-11.7,26.051-11.7,37.605
			C242.956,115.142,248.194,120.677,254.656,120.677z"/>
		<path clip-path="url(#SVGID_2_)" fill="#FFFFFF" d="M263.868,108.925c0,1.783-1.445,3.229-3.228,3.229
			c-1.783,0-3.228-1.445-3.228-3.229c0-1.781,1.445-3.229,3.228-3.229C262.423,105.696,263.868,107.144,263.868,108.925"/>
	</g>
	<polygon fill="#AB2E23" points="244.921,106.976 231.478,99.212 231.478,102.876 221.18,102.876 221.18,111.071 231.478,111.071 
		231.478,114.737 	"/>
	<polygon fill="none" stroke="#000000" stroke-width="1.257" stroke-linejoin="round" stroke-miterlimit="10" points="
		244.921,106.976 231.478,99.212 231.478,102.876 221.18,102.876 221.18,111.071 231.478,111.071 231.478,114.737 	"/>
	<g>
		<defs>
			<rect id="SVGID_17_" x="62.589" y="26.876" width="224.742" height="186.008"/>
		</defs>
		<clipPath id="SVGID_4_">
			<use xlink:href="#SVGID_17_"  overflow="visible"/>
		</clipPath>
		<path clip-path="url(#SVGID_4_)" fill="#CCAC6C" d="M195.585,41.142c21.691,0,13.095,44.24,12.047,50.955l-13.596,1.025
			l-1.314-28.07L195.585,41.142z"/>
		<path clip-path="url(#SVGID_4_)" fill="#CCAC6C" d="M196.056,86.599c0.75-0.174,1.53-0.268,2.333-0.268
			c5.684,0,10.291,4.607,10.291,10.291s-4.607,10.291-10.291,10.291c-10.396,0.707-19.671-3.221-27.425-3.244
			c-1.44,0.219-2.85,0.375-4.193,0.451h-0.001c-5.857,0.334-10.414-0.863-10.414-5.064c0-15.248,8.537-14.354,15.749-26.531
			c11.216-18.934,19.901-16.182,23.48-31.383"/>
		
			<path clip-path="url(#SVGID_4_)" fill="none" stroke="#000000" stroke-width="1.257" stroke-linecap="round" stroke-linejoin="round" stroke-miterlimit="10" d="
			M196.056,86.599c0.75-0.174,1.53-0.268,2.333-0.268c5.684,0,10.291,4.607,10.291,10.291s-4.607,10.291-10.291,10.291
			c-10.396,0.707-19.671-3.221-27.425-3.244c-1.44,0.219-2.85,0.375-4.193,0.451h-0.001c-5.857,0.334-10.414-0.863-10.414-5.064
			c0-15.248,8.537-14.354,15.749-26.531c11.216-18.934,19.901-16.182,23.48-31.383"/>
		<path clip-path="url(#SVGID_4_)" fill="#826E45" d="M166.77,104.12c16.968-0.008,19.277,3.633,31.619,2.793
			c1.774-0.121,4.288-6.295-6.812-5.639C181.491,101.87,166.77,104.12,166.77,104.12"/>
		
			<path clip-path="url(#SVGID_4_)" fill="none" stroke="#000000" stroke-width="1.257" stroke-linecap="round" stroke-linejoin="round" stroke-miterlimit="10" d="
			M166.77,104.12c16.968-0.008,19.277,3.633,31.619,2.793c1.774-0.121,4.288-6.295-6.812-5.639
			C181.491,101.87,166.77,104.12,166.77,104.12z"/>
		<path clip-path="url(#SVGID_4_)" fill="#FFFFFF" d="M138.129,92.851c-0.081-0.215-0.132-0.422-0.217-0.625
			c-0.099-0.203-0.174-0.402-0.273-0.596c-0.113-0.193-0.219-0.381-0.319-0.564c-0.125-0.182-0.248-0.359-0.37-0.533
			c-0.029-0.043-0.056-0.086-0.087-0.129l-0.106-0.125c-0.069-0.082-0.138-0.162-0.206-0.242c-0.066-0.082-0.132-0.16-0.197-0.238
			c-0.063-0.078-0.148-0.15-0.218-0.225c-0.145-0.148-0.286-0.291-0.424-0.43c-0.298-0.271-0.594-0.521-0.864-0.756
			c-0.296-0.223-0.573-0.432-0.829-0.625c-0.052-0.033-0.099-0.063-0.149-0.094c-2.598,0.77-5.349,1.186-8.197,1.186
			c-15.917,0-28.82-12.904-28.82-28.822c0-15.916,12.903-28.82,28.82-28.82s28.821,12.904,28.821,28.82
			c0,10.053-5.148,18.902-12.949,24.059c0.082,0.123,0.166,0.25,0.249,0.379c0.165,0.283,0.333,0.572,0.506,0.867
			c0.083,0.152,0.175,0.293,0.252,0.455c0.078,0.16,0.156,0.324,0.235,0.488c0.078,0.164,0.156,0.33,0.235,0.498
			c0.039,0.084,0.079,0.168,0.118,0.252c0.035,0.09,0.07,0.178,0.105,0.268c0.138,0.363,0.277,0.729,0.41,1.102
			c0.111,0.393,0.22,0.791,0.325,1.191c0.093,0.41,0.156,0.842,0.227,1.268c0.059,0.432,0.075,0.887,0.104,1.332
			c0.004,0.453-0.016,0.916-0.042,1.375c-0.031,0.23-0.063,0.463-0.094,0.697c-0.035,0.232-0.062,0.465-0.126,0.695
			c-0.114,0.463-0.219,0.926-0.4,1.375c-0.306,0.908-0.791,1.76-1.33,2.559c-0.301,0.377-0.574,0.775-0.919,1.113
			c-0.169,0.172-0.328,0.352-0.505,0.514c-0.182,0.154-0.363,0.311-0.545,0.469c-0.177,0.16-0.378,0.291-0.572,0.43
			c-0.198,0.133-0.384,0.281-0.594,0.396l-0.619,0.348c-0.203,0.121-0.429,0.203-0.641,0.303c-0.425,0.205-0.88,0.338-1.322,0.482
			c-0.224,0.068-0.455,0.111-0.681,0.164c-0.227,0.053-0.453,0.102-0.684,0.125l-0.686,0.086c-0.23,0.016-0.46,0.018-0.689,0.023
			l-0.341,0.01c-0.114-0.002-0.228-0.016-0.341-0.021l-0.676-0.051c-0.89-0.133-1.759-0.326-2.556-0.664
			c-0.2-0.084-0.403-0.152-0.593-0.248c-0.189-0.098-0.377-0.197-0.564-0.295l-0.278-0.146c-0.092-0.051-0.176-0.111-0.264-0.168
			c-0.173-0.113-0.345-0.227-0.517-0.34c-0.586-0.402-1.201-0.824-1.796-1.199c-0.292-0.166-0.589-0.318-0.88-0.479
			c-0.294-0.156-0.582-0.314-0.888-0.439c-0.301-0.133-0.6-0.262-0.895-0.391c-0.146-0.07-0.296-0.123-0.446-0.174
			c-0.148-0.053-0.296-0.107-0.443-0.16c-0.583-0.234-1.165-0.389-1.726-0.568c-0.281-0.086-0.562-0.137-0.837-0.207
			c-0.138-0.031-0.275-0.064-0.411-0.098c-0.136-0.029-0.271-0.041-0.405-0.063c-1.073-0.201-2.077-0.199-2.963-0.133
			c-0.22,0.027-0.439,0.035-0.643,0.074c-0.205,0.041-0.403,0.078-0.593,0.115c-0.191,0.039-0.365,0.102-0.538,0.148
			c-0.087,0.025-0.171,0.049-0.252,0.072c-0.08,0.031-0.158,0.061-0.233,0.088c-0.619,0.211-1.06,0.484-1.363,0.666
			c-0.15,0.096-0.255,0.182-0.331,0.234c-0.075,0.053-0.114,0.082-0.114,0.082s0.032-0.035,0.093-0.104
			c0.063-0.066,0.15-0.178,0.279-0.303c0.067-0.061,0.142-0.129,0.224-0.203c0.082-0.076,0.173-0.156,0.281-0.232
			c0.105-0.08,0.219-0.166,0.341-0.256c0.124-0.086,0.264-0.166,0.409-0.258c0.587-0.348,1.356-0.707,2.293-0.939
			c0.932-0.242,2.033-0.402,3.226-0.355c0.149,0.004,0.302,0,0.454,0.012c0.151,0.012,0.304,0.025,0.458,0.041
			c0.155,0.014,0.312,0.029,0.469,0.043c0.158,0.018,0.32,0.025,0.475,0.061c0.317,0.059,0.638,0.119,0.964,0.178
			c0.164,0.031,0.327,0.068,0.487,0.117c0.161,0.045,0.324,0.092,0.488,0.137c0.163,0.051,0.328,0.098,0.493,0.146
			c0.166,0.049,0.332,0.1,0.493,0.164c0.325,0.123,0.654,0.248,0.987,0.373c0.337,0.115,0.664,0.273,1.001,0.422
			c0.337,0.146,0.675,0.301,1.023,0.445c0.651,0.314,1.286,0.621,1.984,0.92c0.151,0.061,0.303,0.121,0.454,0.182
			c0.076,0.029,0.149,0.066,0.227,0.088l0.233,0.068c0.155,0.045,0.31,0.09,0.465,0.135c0.154,0.043,0.315,0.059,0.471,0.09
			c0.625,0.133,1.262,0.131,1.877,0.102l0.459-0.061c0.076-0.012,0.152-0.018,0.227-0.031l0.224-0.055
			c0.148-0.037,0.297-0.066,0.442-0.105l0.427-0.148c0.071-0.027,0.143-0.043,0.211-0.076l0.203-0.098
			c0.134-0.066,0.271-0.119,0.399-0.191c0.252-0.158,0.511-0.287,0.737-0.475c0.113-0.09,0.238-0.158,0.34-0.262l0.316-0.283
			c0.108-0.09,0.191-0.207,0.287-0.305c0.092-0.105,0.192-0.197,0.268-0.314l0.242-0.326c0.077-0.109,0.138-0.23,0.207-0.342
			c0.069-0.111,0.139-0.221,0.186-0.344l0.162-0.35c0.167-0.482,0.315-0.947,0.343-1.426c0.064-0.465,0.017-0.93-0.03-1.369
			C138.223,93.278,138.183,93.062,138.129,92.851"/>
		
			<path clip-path="url(#SVGID_4_)" fill="none" stroke="#000000" stroke-width="1.257" stroke-linejoin="round" stroke-miterlimit="10" d="
			M138.129,92.851c-0.081-0.215-0.132-0.422-0.217-0.625c-0.099-0.203-0.174-0.402-0.273-0.596
			c-0.113-0.193-0.219-0.381-0.319-0.564c-0.125-0.182-0.248-0.359-0.37-0.533c-0.029-0.043-0.056-0.086-0.087-0.129l-0.106-0.125
			c-0.069-0.082-0.138-0.162-0.206-0.242c-0.066-0.082-0.132-0.16-0.197-0.238c-0.063-0.078-0.148-0.15-0.218-0.225
			c-0.145-0.148-0.286-0.291-0.424-0.43c-0.298-0.271-0.594-0.521-0.864-0.756c-0.296-0.223-0.573-0.432-0.829-0.625
			c-0.052-0.033-0.099-0.063-0.149-0.094c-2.598,0.77-5.349,1.186-8.197,1.186c-15.917,0-28.82-12.904-28.82-28.822
			c0-15.916,12.903-28.82,28.82-28.82s28.821,12.904,28.821,28.82c0,10.053-5.148,18.902-12.949,24.059
			c0.082,0.123,0.166,0.25,0.249,0.379c0.165,0.283,0.333,0.572,0.506,0.867c0.083,0.152,0.175,0.293,0.252,0.455
			c0.078,0.16,0.156,0.324,0.235,0.488c0.078,0.164,0.156,0.33,0.235,0.498c0.039,0.084,0.079,0.168,0.118,0.252
			c0.035,0.09,0.07,0.178,0.105,0.268c0.138,0.363,0.277,0.729,0.41,1.102c0.111,0.393,0.22,0.791,0.325,1.191
			c0.093,0.41,0.156,0.842,0.227,1.268c0.059,0.432,0.075,0.887,0.104,1.332c0.004,0.453-0.016,0.916-0.042,1.375
			c-0.031,0.23-0.063,0.463-0.094,0.697c-0.035,0.232-0.062,0.465-0.126,0.695c-0.114,0.463-0.219,0.926-0.4,1.375
			c-0.306,0.908-0.791,1.76-1.33,2.559c-0.301,0.377-0.574,0.775-0.919,1.113c-0.169,0.172-0.328,0.352-0.505,0.514
			c-0.182,0.154-0.363,0.311-0.545,0.469c-0.177,0.16-0.378,0.291-0.572,0.43c-0.198,0.133-0.384,0.281-0.594,0.396l-0.619,0.348
			c-0.203,0.121-0.429,0.203-0.641,0.303c-0.425,0.205-0.88,0.338-1.322,0.482c-0.224,0.068-0.455,0.111-0.681,0.164
			c-0.227,0.053-0.453,0.102-0.684,0.125l-0.686,0.086c-0.23,0.016-0.46,0.018-0.689,0.023l-0.341,0.01
			c-0.114-0.002-0.228-0.016-0.341-0.021l-0.676-0.051c-0.89-0.133-1.759-0.326-2.556-0.664c-0.2-0.084-0.403-0.152-0.593-0.248
			c-0.189-0.098-0.377-0.197-0.564-0.295l-0.278-0.146c-0.092-0.051-0.176-0.111-0.264-0.168c-0.173-0.113-0.345-0.227-0.517-0.34
			c-0.586-0.402-1.201-0.824-1.796-1.199c-0.292-0.166-0.589-0.318-0.88-0.479c-0.294-0.156-0.582-0.314-0.888-0.439
			c-0.301-0.133-0.6-0.262-0.895-0.391c-0.146-0.07-0.296-0.123-0.446-0.174c-0.148-0.053-0.296-0.107-0.443-0.16
			c-0.583-0.234-1.165-0.389-1.726-0.568c-0.281-0.086-0.562-0.137-0.837-0.207c-0.138-0.031-0.275-0.064-0.411-0.098
			c-0.136-0.029-0.271-0.041-0.405-0.063c-1.073-0.201-2.077-0.199-2.963-0.133c-0.22,0.027-0.439,0.035-0.643,0.074
			c-0.205,0.041-0.403,0.078-0.593,0.115c-0.191,0.039-0.365,0.102-0.538,0.148c-0.087,0.025-0.171,0.049-0.252,0.072
			c-0.08,0.031-0.158,0.061-0.233,0.088c-0.619,0.211-1.06,0.484-1.363,0.666c-0.15,0.096-0.255,0.182-0.331,0.234
			c-0.075,0.053-0.114,0.082-0.114,0.082s0.032-0.035,0.093-0.104c0.063-0.066,0.15-0.178,0.279-0.303
			c0.067-0.061,0.142-0.129,0.224-0.203c0.082-0.076,0.173-0.156,0.281-0.232c0.105-0.08,0.219-0.166,0.341-0.256
			c0.124-0.086,0.264-0.166,0.409-0.258c0.587-0.348,1.356-0.707,2.293-0.939c0.932-0.242,2.033-0.402,3.226-0.355
			c0.149,0.004,0.302,0,0.454,0.012c0.151,0.012,0.304,0.025,0.458,0.041c0.155,0.014,0.312,0.029,0.469,0.043
			c0.158,0.018,0.32,0.025,0.475,0.061c0.317,0.059,0.638,0.119,0.964,0.178c0.164,0.031,0.327,0.068,0.487,0.117
			c0.161,0.045,0.324,0.092,0.488,0.137c0.163,0.051,0.328,0.098,0.493,0.146c0.166,0.049,0.332,0.1,0.493,0.164
			c0.325,0.123,0.654,0.248,0.987,0.373c0.337,0.115,0.664,0.273,1.001,0.422c0.337,0.146,0.675,0.301,1.023,0.445
			c0.651,0.314,1.286,0.621,1.984,0.92c0.151,0.061,0.303,0.121,0.454,0.182c0.076,0.029,0.149,0.066,0.227,0.088l0.233,0.068
			c0.155,0.045,0.31,0.09,0.465,0.135c0.154,0.043,0.315,0.059,0.471,0.09c0.625,0.133,1.262,0.131,1.877,0.102l0.459-0.061
			c0.076-0.012,0.152-0.018,0.227-0.031l0.224-0.055c0.148-0.037,0.297-0.066,0.442-0.105l0.427-0.148
			c0.071-0.027,0.143-0.043,0.211-0.076l0.203-0.098c0.134-0.066,0.271-0.119,0.399-0.191c0.252-0.158,0.511-0.287,0.737-0.475
			c0.113-0.09,0.238-0.158,0.34-0.262l0.316-0.283c0.108-0.09,0.191-0.207,0.287-0.305c0.092-0.105,0.192-0.197,0.268-0.314
			l0.242-0.326c0.077-0.109,0.138-0.23,0.207-0.342c0.069-0.111,0.139-0.221,0.186-0.344l0.162-0.35
			c0.167-0.482,0.315-0.947,0.343-1.426c0.064-0.465,0.017-0.93-0.03-1.369C138.223,93.278,138.183,93.062,138.129,92.851z"/>
		<path clip-path="url(#SVGID_4_)" d="M130.899,60.036c0,1.49,1.208,2.699,2.699,2.699c1.492,0,2.7-1.209,2.7-2.699
			c0-1.492-1.208-2.701-2.7-2.701C132.107,57.335,130.899,58.544,130.899,60.036"/>
		<path clip-path="url(#SVGID_4_)" d="M122.966,60.036c0,1.49,1.209,2.699,2.7,2.699c1.49,0,2.699-1.209,2.699-2.699
			c0-1.492-1.209-2.701-2.699-2.701C124.175,57.335,122.966,58.544,122.966,60.036"/>
		<path clip-path="url(#SVGID_4_)" d="M115.033,60.036c0,1.49,1.209,2.699,2.7,2.699c1.491,0,2.699-1.209,2.699-2.699
			c0-1.492-1.208-2.701-2.699-2.701C116.242,57.335,115.033,58.544,115.033,60.036"/>
		<path clip-path="url(#SVGID_4_)" fill="#CCAC6C" d="M84.681,116.968c-0.476-1.508-0.793-6.186,1.11-8.01
			c1.904-1.824,8.917,2.889,12.489,0.277c2.062-1.506,0.08-4.172,0.238-4.727c0.159-0.555,1.507-0.602,1.507-1.109
			c0-1.291-4.006-1.514-4.006-2.477c0-1.494,4.381-2.576,4.381-3.131c0-0.318-0.81-1.682-0.81-2.236s3.85-0.773,3.807-2.379
			c-0.08-2.934-5.869-7.773-4.996-10.549c1.215-3.863-3.116-12.943-9.199-14.592c-12.293-3.33-33.784,4.045-20.303,28.945
			c1.494,2.76,0.714,9.914-3.41,11.977"/>
		
			<path clip-path="url(#SVGID_4_)" fill="none" stroke="#000000" stroke-width="1.257" stroke-linecap="round" stroke-linejoin="round" stroke-miterlimit="10" d="
			M84.681,116.968c-0.476-1.508-0.793-6.186,1.11-8.01c1.904-1.824,8.917,2.889,12.489,0.277c2.062-1.506,0.08-4.172,0.238-4.727
			c0.159-0.555,1.507-0.602,1.507-1.109c0-1.291-4.006-1.514-4.006-2.477c0-1.494,4.381-2.576,4.381-3.131
			c0-0.318-0.81-1.682-0.81-2.236s3.85-0.773,3.807-2.379c-0.08-2.934-5.869-7.773-4.996-10.549
			c1.215-3.863-3.116-12.943-9.199-14.592c-12.293-3.33-33.784,4.045-20.303,28.945c1.494,2.76,0.714,9.914-3.41,11.977"/>
		<path clip-path="url(#SVGID_4_)" fill="#CCAC6C" d="M81.045,88.767c-2.122-3.879-7.436,0.059-5.705,4.049
			c0.891,2.055,3.093,4.416,3.416,5.498c0.893,2.986,4.745,1.842,4.745-0.057"/>
		
			<path clip-path="url(#SVGID_4_)" fill="none" stroke="#000000" stroke-width="1.257" stroke-linecap="round" stroke-linejoin="round" stroke-miterlimit="10" d="
			M81.045,88.767c-2.122-3.879-7.436,0.059-5.705,4.049c0.891,2.055,3.093,4.416,3.416,5.498c0.893,2.986,4.745,1.842,4.745-0.057"
			/>
		<path clip-path="url(#SVGID_4_)" fill="#CCAC6C" d="M77.166,90.665c1.479-3.49,5.164,2.818,3.21,2.48
			c-0.845-0.146-0.675,1.264,0.335,1.482c2.065,0.447,0.773,2.115,0.251,1.814"/>
		
			<path clip-path="url(#SVGID_4_)" fill="none" stroke="#000000" stroke-width="1.257" stroke-linecap="round" stroke-linejoin="round" stroke-miterlimit="10" d="
			M77.166,90.665c1.479-3.49,5.164,2.818,3.21,2.48c-0.845-0.146-0.675,1.264,0.335,1.482c2.065,0.447,0.773,2.115,0.251,1.814"/>
		<path clip-path="url(#SVGID_4_)" fill="#4F5666" d="M96.214,207.819c-0.108-0.123-0.176-0.283-0.185-0.459
			c-0.019-0.422,0.306-0.781,0.725-0.801l2.536-0.123l0.008-0.115c0.024-0.316,0.045-0.621,0.042-0.912
			c-0.001-0.236-0.014-0.471-0.027-0.717l-0.026-0.479c-0.012-0.229-0.024-0.455-0.041-0.684l-0.049-0.717
			c-0.336,0.031-0.674,0.047-1.01,0.047c-0.945,0-1.866-0.08-2.748-0.238c-0.007,0.074-0.014,0.148-0.02,0.223
			c-0.02,0.205-0.035,0.404-0.051,0.604c-0.009,0.117-0.018,0.236-0.028,0.354l-0.065,0.951c-0.016,0.223-0.028,0.445-0.04,0.668
			l-0.027,0.498c-0.013,0.246-0.026,0.479-0.027,0.711c-0.003,0.295,0.018,0.598,0.042,0.908l0.011,0.164L96.214,207.819z
			 M99.991,208.274l-0.076-0.037l-0.397-0.02L99.991,208.274z M97.475,212.257c-0.179,0-0.353-0.064-0.489-0.182l-3.021-2.592
			c0,0-3.201,0.088-3.207,0.088c-0.385,0-0.711-0.287-0.757-0.67c-0.05-0.418,0.249-0.799,0.666-0.848l2.745-0.332l0.011-0.176
			c0.024-0.316,0.045-0.617,0.043-0.914c-0.001-0.234-0.014-0.467-0.027-0.713l-0.026-0.469c-0.012-0.232-0.024-0.465-0.041-0.695
			l-0.066-0.961l-0.026-0.324c-0.016-0.207-0.032-0.412-0.052-0.619c-0.024-0.277-0.051-0.559-0.082-0.852
			c-6.122-2.285-8.499-8.578-9.403-12.525c-7.171,0.648-16.057,1.395-18.943,1.395c-0.792,0-1.477,0-1.569-0.643
			c-0.027-0.186-0.11-0.754,1.742-3.775c1.222-1.992,2.082-3.094,2.556-3.277c0.115-0.043,0.235-0.059,0.477-0.059
			c1.287,0,6.985,0.482,16.936,1.436c2.432-1.053,8.269-3.324,13.245-3.324c0.131,0,0.263,0.002,0.396,0.008
			c0.455-3.377,3.33-5.938,6.806-5.938c1.295,0,2.539,0.357,3.627,1.035l3.813-2.877c0.112-0.084,0.245-0.127,0.378-0.127
			c0.134,0,0.268,0.043,0.38,0.127c0.224,0.17,0.308,0.471,0.205,0.732l-1.872,4.762l4.991,0.855
			c0.278,0.047,0.49,0.273,0.519,0.555c0.029,0.281-0.133,0.545-0.395,0.648l-4.816,1.896c-0.253,2.373-1.715,4.434-3.859,5.459
			c0.428,1.178,0.644,2.412,0.644,3.682c0,4.836-3.175,9.039-7.777,10.381l-0.012,0.152l-0.066,0.951
			c-0.016,0.223-0.027,0.443-0.039,0.664l-0.027,0.488c-0.014,0.252-0.027,0.49-0.028,0.725c-0.002,0.295,0.019,0.6,0.042,0.91
			l0.007,0.094l4.092,0.154c0.395,0.014,0.716,0.336,0.73,0.73c0.008,0.201-0.065,0.391-0.19,0.531l0.686,0.184
			c0.384,0.104,0.622,0.488,0.544,0.877c-0.07,0.35-0.381,0.604-0.739,0.604c-0.051,0-0.102-0.004-0.152-0.014l-1.057-0.215
			c0.102,0.205,0.109,0.453,0.002,0.668c-0.128,0.258-0.385,0.418-0.672,0.418c-0.116,0-0.231-0.027-0.334-0.08l-3.48-1.723
			c0.121,0.143,0.19,0.33,0.179,0.531c-0.018,0.336-0.252,0.609-0.562,0.693l0.631,0.242c0.374,0.145,0.569,0.555,0.447,0.934
			c-0.099,0.313-0.388,0.523-0.717,0.523c-0.078,0-0.155-0.012-0.229-0.035l-2.652-0.844l0.382,0.393
			c0.273,0.285,0.285,0.719,0.03,1.014C97.902,212.159,97.694,212.257,97.475,212.257"/>
		<path clip-path="url(#SVGID_4_)" d="M95.967,203.845c0.009-0.115,0.018-0.232,0.027-0.348c0.004-0.051,0.008-0.1,0.012-0.15
			c0.709,0.096,1.438,0.143,2.18,0.143c0.142,0,0.284-0.002,0.427-0.008l0.006,0.09c0.016,0.225,0.028,0.443,0.04,0.676l0.014,0.268
			l0.012,0.213c0.013,0.238,0.026,0.465,0.027,0.68c0.001,0.141-0.004,0.283-0.012,0.43l-1.977,0.096
			c-0.354,0.018-0.672,0.166-0.907,0.398c0.005-0.123,0.012-0.25,0.019-0.379l0.012-0.219l0.015-0.279
			c0.012-0.219,0.023-0.438,0.039-0.654L95.967,203.845z M113.207,172.698L113.207,172.698h-0.003h-0.001h-0.002
			c-0.001,0.002-0.002,0.002-0.003,0.002c-0.285,0.002-0.548,0.098-0.758,0.26l-3.469,2.619c-1.095-0.598-2.317-0.912-3.582-0.912
			c-3.604,0-6.615,2.521-7.334,5.93c-4.814,0.037-10.222,2.029-13.214,3.313c-9.872-0.945-15.535-1.424-16.835-1.424
			c-0.272,0-0.485,0.018-0.704,0.102c-0.318,0.123-0.912,0.352-2.865,3.535c-1.971,3.215-1.882,3.828-1.828,4.195
			c0.043,0.305,0.264,1.029,1.363,1.148c0.204,0.021,0.475,0.031,0.828,0.031c2.836,0,11.375-0.711,18.458-1.35
			c1.003,4.01,3.445,9.912,9.301,12.297c0.016,0.154,0.03,0.307,0.043,0.455c0,0.004,0,0.008,0.001,0.01
			c0.019,0.203,0.035,0.406,0.05,0.609c0.009,0.107,0.017,0.217,0.026,0.324l0.065,0.951c0.017,0.23,0.029,0.453,0.041,0.689
			l0.014,0.254l0.012,0.215c0.013,0.24,0.026,0.465,0.027,0.682c0.001,0.17-0.007,0.348-0.018,0.525l-2.229,0.27
			c-0.76,0.092-1.306,0.785-1.214,1.547c0.084,0.699,0.678,1.225,1.381,1.225c0.008,0,0.019,0,0.027,0c0.004,0,0.007,0,0.011,0
			l2.943-0.082l2.838,2.434c0.249,0.215,0.568,0.332,0.898,0.332c0.402,0,0.784-0.176,1.046-0.48
			c0.194-0.225,0.303-0.492,0.329-0.768l1.243,0.395c0.135,0.045,0.276,0.064,0.418,0.064c0.605,0,1.134-0.387,1.317-0.963
			c0.169-0.521,0.005-1.08-0.38-1.434l2.287,1.133c0.188,0.092,0.4,0.143,0.612,0.143c0.527,0,1.001-0.293,1.235-0.766
			c0.029-0.057,0.053-0.117,0.073-0.178l0.297,0.061c0.088,0.018,0.181,0.027,0.275,0.027c0.656,0,1.226-0.467,1.355-1.111
			c0.144-0.707-0.293-1.414-0.994-1.605l-0.035-0.01c0.002-0.039,0.002-0.08,0-0.121c-0.025-0.721-0.612-1.309-1.334-1.334
			l-3.526-0.135c-0.007-0.133-0.011-0.262-0.01-0.389c0.001-0.225,0.014-0.455,0.027-0.697l0.011-0.207l0.016-0.283
			c0.011-0.217,0.023-0.434,0.038-0.65l0.047-0.678c4.642-1.547,7.81-5.887,7.81-10.855c0-1.154-0.17-2.285-0.506-3.373
			c1.958-1.123,3.311-3.072,3.667-5.316l4.472-1.762c0.525-0.205,0.847-0.736,0.789-1.297c-0.057-0.561-0.482-1.014-1.037-1.109
			l-4.23-0.725l1.574-4.006c0.066-0.152,0.103-0.322,0.103-0.498C114.464,173.261,113.902,172.698,113.207,172.698L113.207,172.698z
			 M113.207,173.956l-2.155,5.48l5.753,0.986l-5.182,2.039c-0.12,2.559-1.779,4.715-4.073,5.561c0.531,1.234,0.825,2.594,0.825,4.02
			c0,4.783-3.296,8.795-7.739,9.891c-0.016,0.199-0.031,0.396-0.048,0.594l-0.066,0.959c-0.023,0.318-0.037,0.639-0.055,0.959
			c-0.017,0.318-0.039,0.639-0.04,0.959c-0.003,0.318,0.019,0.639,0.043,0.959l0.032,0.48c0.003,0.059,0.005,0.115,0.008,0.172
			l4.662,0.176c0.068,0.004,0.123,0.057,0.126,0.127c0.002,0.072-0.054,0.133-0.126,0.135l-2.857,0.107l3.944,1.055
			c0.063,0.018,0.104,0.082,0.09,0.146c-0.011,0.061-0.064,0.102-0.122,0.102c-0.008,0-0.017-0.002-0.025-0.002l-4.271-0.865
			l2.479,1.494c0.054,0.033,0.075,0.102,0.047,0.16c-0.021,0.043-0.065,0.068-0.11,0.068c-0.018,0-0.037-0.004-0.054-0.014
			l-4.212-2.086c-0.003,0-0.006-0.002-0.008-0.002l-3.289-0.16c-0.068-0.004-0.124-0.059-0.127-0.127
			c-0.004-0.074,0.053-0.137,0.127-0.141l3.1-0.15c0.002-0.066,0.006-0.131,0.008-0.195l0.032-0.48
			c0.024-0.32,0.047-0.641,0.044-0.959c-0.001-0.32-0.024-0.641-0.04-0.959c-0.018-0.32-0.032-0.641-0.056-0.959l-0.066-0.959
			c-0.011-0.141-0.021-0.279-0.032-0.418c-0.518,0.082-1.048,0.125-1.588,0.125c-1.199,0-2.296-0.133-3.305-0.367
			c-0.032,0.307-0.062,0.615-0.088,0.924c-0.031,0.32-0.053,0.639-0.079,0.959l-0.066,0.959c-0.023,0.32-0.038,0.641-0.056,0.959
			c-0.016,0.32-0.039,0.641-0.04,0.961c-0.003,0.318,0.02,0.639,0.044,0.959l0.032,0.48c0.003,0.064,0.006,0.131,0.009,0.195
			l5.333,0.643c0.068,0.008,0.119,0.066,0.115,0.137c-0.003,0.07-0.061,0.123-0.13,0.123c-0.003,0-0.005,0-0.007,0l-3.632-0.195
			l4.24,1.627c0.062,0.023,0.095,0.092,0.075,0.154c-0.017,0.055-0.066,0.088-0.12,0.088c-0.012,0-0.025-0.002-0.038-0.006
			l-5.04-1.602l2.129,2.188c0.044,0.045,0.047,0.117,0.005,0.166c-0.024,0.029-0.058,0.043-0.092,0.043
			c-0.029,0-0.057-0.01-0.08-0.029l-3.206-2.75l-3.428,0.096h-0.003c-0.067,0-0.126-0.049-0.134-0.119
			c-0.009-0.072,0.044-0.139,0.117-0.148l3.267-0.395c0.003-0.072,0.007-0.145,0.01-0.215l0.032-0.48
			c0.024-0.32,0.046-0.641,0.044-0.959c-0.001-0.32-0.024-0.641-0.04-0.961c-0.018-0.318-0.033-0.639-0.056-0.959l-0.066-0.959
			c-0.026-0.32-0.048-0.639-0.079-0.959c-0.036-0.418-0.079-0.834-0.126-1.252c-6.369-2.148-8.671-8.791-9.489-12.74
			c-7.55,0.686-16.542,1.443-19.438,1.443c-0.599,0-0.937-0.033-0.948-0.105c-0.103-0.711,3.218-6.113,3.902-6.377
			c0.031-0.012,0.116-0.016,0.251-0.016c1.569,0,9.846,0.758,17.038,1.447c2.481-1.082,8.237-3.336,13.143-3.336
			c0.327,0,0.649,0.016,0.968,0.047c0.139-3.324,2.877-5.977,6.235-5.977c1.362,0,2.621,0.438,3.647,1.178L113.207,173.956z
			 M113.207,173.956L113.207,173.956"/>
		<path clip-path="url(#SVGID_4_)" fill="#FFFFFF" d="M140.334,170.065c-0.069-0.18-0.112-0.355-0.183-0.527
			c-0.084-0.172-0.147-0.34-0.231-0.504c-0.095-0.162-0.185-0.322-0.269-0.477c-0.106-0.152-0.211-0.303-0.313-0.449
			c-0.025-0.037-0.048-0.074-0.074-0.111l-0.089-0.104c-0.059-0.07-0.117-0.139-0.175-0.205c-0.056-0.068-0.111-0.135-0.166-0.201
			c-0.054-0.066-0.125-0.129-0.185-0.189c-0.122-0.125-0.241-0.246-0.358-0.365c-0.252-0.229-0.502-0.439-0.73-0.639
			c-0.25-0.188-0.484-0.363-0.701-0.527c-0.043-0.027-0.083-0.053-0.125-0.08c-2.196,0.65-4.521,1.002-6.927,1.002
			c-13.452,0-24.357-10.904-24.357-24.357c0-13.449,10.905-24.355,24.357-24.355c13.451,0,24.356,10.906,24.356,24.355
			c0,8.496-4.351,15.975-10.944,20.332c0.071,0.105,0.141,0.211,0.212,0.322c0.139,0.238,0.281,0.482,0.427,0.732
			c0.07,0.127,0.147,0.246,0.213,0.383c0.065,0.137,0.131,0.273,0.198,0.414c0.066,0.139,0.132,0.279,0.199,0.42
			c0.033,0.072,0.067,0.143,0.1,0.213c0.029,0.076,0.059,0.152,0.089,0.227c0.116,0.307,0.233,0.615,0.346,0.932
			c0.094,0.332,0.186,0.668,0.275,1.006c0.079,0.348,0.131,0.713,0.192,1.072c0.05,0.365,0.063,0.748,0.088,1.125
			c0.003,0.383-0.014,0.773-0.036,1.162c-0.027,0.195-0.053,0.391-0.08,0.59c-0.029,0.195-0.052,0.391-0.106,0.588
			c-0.096,0.389-0.185,0.781-0.338,1.16c-0.259,0.77-0.669,1.488-1.124,2.162c-0.254,0.32-0.485,0.656-0.777,0.941
			c-0.142,0.146-0.277,0.297-0.427,0.434c-0.153,0.133-0.306,0.264-0.46,0.396c-0.149,0.135-0.32,0.246-0.484,0.363
			c-0.167,0.111-0.324,0.238-0.501,0.334l-0.524,0.297c-0.171,0.102-0.362,0.17-0.542,0.254c-0.359,0.174-0.743,0.285-1.117,0.41
			c-0.189,0.055-0.384,0.092-0.575,0.137c-0.192,0.045-0.383,0.086-0.578,0.107l-0.58,0.07c-0.194,0.014-0.389,0.016-0.582,0.021
			l-0.288,0.006c-0.097-0.002-0.193-0.012-0.289-0.016l-0.571-0.045c-0.752-0.111-1.487-0.275-2.16-0.561
			c-0.169-0.07-0.341-0.129-0.501-0.209c-0.16-0.084-0.319-0.166-0.477-0.25l-0.235-0.123c-0.077-0.043-0.149-0.094-0.223-0.141
			c-0.146-0.098-0.291-0.193-0.436-0.287c-0.495-0.344-1.015-0.699-1.518-1.014c-0.247-0.143-0.499-0.271-0.744-0.406
			c-0.248-0.133-0.492-0.266-0.75-0.371c-0.255-0.111-0.508-0.221-0.757-0.332c-0.124-0.057-0.25-0.104-0.377-0.146
			c-0.125-0.045-0.25-0.09-0.374-0.133c-0.493-0.199-0.984-0.33-1.459-0.48c-0.238-0.074-0.475-0.117-0.708-0.176
			c-0.116-0.027-0.232-0.055-0.346-0.082c-0.115-0.025-0.23-0.035-0.343-0.055c-0.907-0.17-1.755-0.168-2.504-0.111
			c-0.186,0.023-0.371,0.029-0.544,0.063c-0.173,0.035-0.34,0.066-0.501,0.098c-0.161,0.033-0.308,0.086-0.455,0.125
			c-0.072,0.021-0.143,0.041-0.213,0.063c-0.067,0.025-0.133,0.051-0.197,0.074c-0.522,0.178-0.895,0.408-1.151,0.563
			c-0.127,0.08-0.215,0.154-0.28,0.197c-0.063,0.045-0.096,0.07-0.096,0.07s0.027-0.029,0.079-0.09
			c0.053-0.055,0.127-0.148,0.236-0.254c0.056-0.051,0.119-0.109,0.189-0.172c0.069-0.064,0.146-0.133,0.237-0.197
			c0.089-0.066,0.185-0.139,0.288-0.217c0.105-0.072,0.224-0.139,0.346-0.217c0.496-0.295,1.146-0.596,1.938-0.793
			c0.788-0.205,1.718-0.34,2.726-0.301c0.126,0.004,0.255,0,0.384,0.008c0.128,0.012,0.257,0.025,0.387,0.037
			c0.131,0.012,0.263,0.023,0.396,0.037c0.134,0.014,0.271,0.02,0.402,0.049c0.267,0.051,0.539,0.1,0.815,0.152
			c0.138,0.025,0.276,0.057,0.411,0.098c0.136,0.039,0.274,0.078,0.412,0.117c0.138,0.041,0.277,0.082,0.417,0.123
			s0.281,0.084,0.417,0.139c0.274,0.104,0.553,0.209,0.834,0.314c0.284,0.098,0.561,0.232,0.845,0.357
			c0.286,0.123,0.571,0.254,0.865,0.375c0.55,0.266,1.087,0.525,1.677,0.777c0.128,0.051,0.255,0.104,0.384,0.154
			c0.064,0.025,0.126,0.055,0.191,0.074l0.198,0.057c0.13,0.039,0.261,0.076,0.392,0.113c0.131,0.037,0.267,0.051,0.399,0.078
			c0.528,0.111,1.066,0.109,1.586,0.086l0.388-0.053c0.064-0.008,0.128-0.014,0.191-0.025l0.189-0.047
			c0.126-0.029,0.251-0.055,0.374-0.088l0.361-0.127c0.06-0.021,0.121-0.037,0.178-0.063l0.172-0.082
			c0.113-0.059,0.229-0.102,0.338-0.162c0.212-0.135,0.431-0.244,0.622-0.402c0.095-0.076,0.201-0.133,0.287-0.221l0.267-0.24
			c0.091-0.076,0.162-0.174,0.243-0.258c0.078-0.088,0.162-0.166,0.226-0.266l0.205-0.275c0.065-0.092,0.116-0.195,0.175-0.289
			s0.117-0.188,0.157-0.291l0.137-0.295c0.141-0.408,0.266-0.801,0.29-1.203c0.054-0.395,0.014-0.789-0.026-1.158
			C140.413,170.429,140.38,170.245,140.334,170.065"/>
		
			<path clip-path="url(#SVGID_4_)" fill="none" stroke="#000000" stroke-width="1.257" stroke-linejoin="round" stroke-miterlimit="10" d="
			M140.334,170.065c-0.069-0.18-0.112-0.355-0.183-0.527c-0.084-0.172-0.147-0.34-0.231-0.504c-0.095-0.162-0.185-0.322-0.269-0.477
			c-0.106-0.152-0.211-0.303-0.313-0.449c-0.025-0.037-0.048-0.074-0.074-0.111l-0.089-0.104c-0.059-0.07-0.117-0.139-0.175-0.205
			c-0.056-0.068-0.111-0.135-0.166-0.201c-0.054-0.066-0.125-0.129-0.185-0.189c-0.122-0.125-0.241-0.246-0.358-0.365
			c-0.252-0.229-0.502-0.439-0.73-0.639c-0.25-0.188-0.484-0.363-0.701-0.527c-0.043-0.027-0.083-0.053-0.125-0.08
			c-2.196,0.65-4.521,1.002-6.927,1.002c-13.452,0-24.357-10.904-24.357-24.357c0-13.449,10.905-24.355,24.357-24.355
			c13.451,0,24.356,10.906,24.356,24.355c0,8.496-4.351,15.975-10.944,20.332c0.071,0.105,0.141,0.211,0.212,0.322
			c0.139,0.238,0.281,0.482,0.427,0.732c0.07,0.127,0.147,0.246,0.213,0.383c0.065,0.137,0.131,0.273,0.198,0.414
			c0.066,0.139,0.132,0.279,0.199,0.42c0.033,0.072,0.067,0.143,0.1,0.213c0.029,0.076,0.059,0.152,0.089,0.227
			c0.116,0.307,0.233,0.615,0.346,0.932c0.094,0.332,0.186,0.668,0.275,1.006c0.079,0.348,0.131,0.713,0.192,1.072
			c0.05,0.365,0.063,0.748,0.088,1.125c0.003,0.383-0.014,0.773-0.036,1.162c-0.027,0.195-0.053,0.391-0.08,0.59
			c-0.029,0.195-0.052,0.391-0.106,0.588c-0.096,0.389-0.185,0.781-0.338,1.16c-0.259,0.77-0.669,1.488-1.124,2.162
			c-0.254,0.32-0.485,0.656-0.777,0.941c-0.142,0.146-0.277,0.297-0.427,0.434c-0.153,0.133-0.306,0.264-0.46,0.396
			c-0.149,0.135-0.32,0.246-0.484,0.363c-0.167,0.111-0.324,0.238-0.501,0.334l-0.524,0.297c-0.171,0.102-0.362,0.17-0.542,0.254
			c-0.359,0.174-0.743,0.285-1.117,0.41c-0.189,0.055-0.384,0.092-0.575,0.137c-0.192,0.045-0.383,0.086-0.578,0.107l-0.58,0.07
			c-0.194,0.014-0.389,0.016-0.582,0.021l-0.288,0.006c-0.097-0.002-0.193-0.012-0.289-0.016l-0.571-0.045
			c-0.752-0.111-1.487-0.275-2.16-0.561c-0.169-0.07-0.341-0.129-0.501-0.209c-0.16-0.084-0.319-0.166-0.477-0.25l-0.235-0.123
			c-0.077-0.043-0.149-0.094-0.223-0.141c-0.146-0.098-0.291-0.193-0.436-0.287c-0.495-0.344-1.015-0.699-1.518-1.014
			c-0.247-0.143-0.499-0.271-0.744-0.406c-0.248-0.133-0.492-0.266-0.75-0.371c-0.255-0.111-0.508-0.221-0.757-0.332
			c-0.124-0.057-0.25-0.104-0.377-0.146c-0.125-0.045-0.25-0.09-0.374-0.133c-0.493-0.199-0.984-0.33-1.459-0.48
			c-0.238-0.074-0.475-0.117-0.708-0.176c-0.116-0.027-0.232-0.055-0.346-0.082c-0.115-0.025-0.23-0.035-0.343-0.055
			c-0.907-0.17-1.755-0.168-2.504-0.111c-0.186,0.023-0.371,0.029-0.544,0.063c-0.173,0.035-0.34,0.066-0.501,0.098
			c-0.161,0.033-0.308,0.086-0.455,0.125c-0.072,0.021-0.143,0.041-0.213,0.063c-0.067,0.025-0.133,0.051-0.197,0.074
			c-0.522,0.178-0.895,0.408-1.151,0.563c-0.127,0.08-0.215,0.154-0.28,0.197c-0.063,0.045-0.096,0.07-0.096,0.07
			s0.027-0.029,0.079-0.09c0.053-0.055,0.127-0.148,0.236-0.254c0.056-0.051,0.119-0.109,0.189-0.172
			c0.069-0.064,0.146-0.133,0.237-0.197c0.089-0.066,0.185-0.139,0.288-0.217c0.105-0.072,0.224-0.139,0.346-0.217
			c0.496-0.295,1.146-0.596,1.938-0.793c0.788-0.205,1.718-0.34,2.726-0.301c0.126,0.004,0.255,0,0.384,0.008
			c0.128,0.012,0.257,0.025,0.387,0.037c0.131,0.012,0.263,0.023,0.396,0.037c0.134,0.014,0.271,0.02,0.402,0.049
			c0.267,0.051,0.539,0.1,0.815,0.152c0.138,0.025,0.276,0.057,0.411,0.098c0.136,0.039,0.274,0.078,0.412,0.117
			c0.138,0.041,0.277,0.082,0.417,0.123s0.281,0.084,0.417,0.139c0.274,0.104,0.553,0.209,0.834,0.314
			c0.284,0.098,0.561,0.232,0.845,0.357c0.286,0.123,0.571,0.254,0.865,0.375c0.55,0.266,1.087,0.525,1.677,0.777
			c0.128,0.051,0.255,0.104,0.384,0.154c0.064,0.025,0.126,0.055,0.191,0.074l0.198,0.057c0.13,0.039,0.261,0.076,0.392,0.113
			c0.131,0.037,0.267,0.051,0.399,0.078c0.528,0.111,1.066,0.109,1.586,0.086l0.388-0.053c0.064-0.008,0.128-0.014,0.191-0.025
			l0.189-0.047c0.126-0.029,0.251-0.055,0.374-0.088l0.361-0.127c0.06-0.021,0.121-0.037,0.178-0.063l0.172-0.082
			c0.113-0.059,0.229-0.102,0.338-0.162c0.212-0.135,0.431-0.244,0.622-0.402c0.095-0.076,0.201-0.133,0.287-0.221l0.267-0.24
			c0.091-0.076,0.162-0.174,0.243-0.258c0.078-0.088,0.162-0.166,0.226-0.266l0.205-0.275c0.065-0.092,0.116-0.195,0.175-0.289
			s0.117-0.188,0.157-0.291l0.137-0.295c0.141-0.408,0.266-0.801,0.29-1.203c0.054-0.395,0.014-0.789-0.026-1.158
			C140.413,170.429,140.38,170.245,140.334,170.065z"/>
		<path clip-path="url(#SVGID_4_)" d="M122.576,129.853v2.885v1.721v11.578c-0.782-0.643-1.781-1.027-2.868-1.027
			c-2.496,0-4.526,2.029-4.526,4.525s2.03,4.525,4.526,4.525c2.495,0,4.526-2.029,4.526-4.525v-15.535l6.573-1.816l6.573-1.816
			v21.576c-0.781-0.641-1.78-1.025-2.867-1.025c-2.496,0-4.527,2.029-4.527,4.525c0,2.494,2.031,4.525,4.527,4.525
			c2.495,0,4.525-2.031,4.525-4.525v-25.535v-5.189L122.576,129.853z"/>
		<path clip-path="url(#SVGID_4_)" fill="#E5E2D3" d="M286.702,137.038c0-2.188-1.772-3.959-3.958-3.959h-25.982
			c13.266,0,10.821,6.402,0.489,6.402c0.002,0,0.003,0,0.004,0c2.124,0.172,3.621,0.756,4.493,1.516h14.296h6.7
			C284.93,140.997,286.702,139.224,286.702,137.038"/>
		
			<path clip-path="url(#SVGID_4_)" fill="none" stroke="#000000" stroke-width="1.257" stroke-linecap="round" stroke-linejoin="round" stroke-miterlimit="10" d="
			M286.702,137.038c0-2.188-1.772-3.959-3.958-3.959h-25.982c13.266,0,10.821,6.402,0.489,6.402c0.002,0,0.003,0,0.004,0
			c2.124,0.172,3.621,0.756,4.493,1.516h14.296h6.7C284.93,140.997,286.702,139.224,286.702,137.038z"/>
		<path clip-path="url(#SVGID_4_)" fill="#E5E2D3" d="M279.577,145.247c0.172-2.148-1.402-4.027-3.532-4.25h-14.296
			c2.667,2.314-0.491,6.25-9.397,4.98c-0.004-0.002-0.007-0.002-0.01-0.002c1.177,0.303,2.018,0.746,2.54,1.258l14.188,1.141
			l6.244,0.502C277.494,149.05,279.402,147.425,279.577,145.247"/>
		
			<path clip-path="url(#SVGID_4_)" fill="none" stroke="#000000" stroke-width="1.257" stroke-linecap="round" stroke-linejoin="round" stroke-miterlimit="10" d="
			M279.577,145.247c0.172-2.148-1.402-4.027-3.532-4.25h-14.296c2.667,2.314-0.491,6.25-9.397,4.98
			c-0.004-0.002-0.007-0.002-0.01-0.002c1.177,0.303,2.018,0.746,2.54,1.258l14.188,1.141l6.244,0.502
			C277.494,149.05,279.402,147.425,279.577,145.247z"/>
		<path clip-path="url(#SVGID_4_)" fill="#E5E2D3" d="M272.304,152.829c0.303-2.123-1.138-4.088-3.235-4.455l-14.188-1.141
			c2.404,2.363-2.066,6.168-12.507,4.01c0.002,0,0.004,0,0.006,0c2.015,0.418,3.307,1.104,3.986,1.877l15.896,2.271l5.563,0.795
			C269.989,156.495,271.994,154.993,272.304,152.829"/>
		
			<path clip-path="url(#SVGID_4_)" fill="none" stroke="#000000" stroke-width="1.257" stroke-linecap="round" stroke-linejoin="round" stroke-miterlimit="10" d="
			M272.304,152.829c0.303-2.123-1.138-4.088-3.235-4.455l-14.188-1.141c2.404,2.363-2.066,6.168-12.507,4.01
			c0.002,0,0.004,0,0.006,0c2.015,0.418,3.307,1.104,3.986,1.877l15.896,2.271l5.563,0.795
			C269.989,156.495,271.994,154.993,272.304,152.829z"/>
		<path clip-path="url(#SVGID_4_)" fill="#E5E2D3" d="M264.851,159.933c0.409-1.973-0.731-3.904-2.589-4.541l-15.896-2.271
			c1.929,2.191-1.098,5.088-6.666,4.566c-1.622-0.15-3.459-0.594-5.452-1.428c0.645,0.402,1.046,0.996,1.168,1.629l18.096,3.742
			l6.661,1.379C262.314,163.452,264.409,162.073,264.851,159.933"/>
		
			<path clip-path="url(#SVGID_4_)" fill="none" stroke="#000000" stroke-width="1.257" stroke-linecap="round" stroke-linejoin="round" stroke-miterlimit="10" d="
			M264.851,159.933c0.409-1.973-0.731-3.904-2.589-4.541l-15.896-2.271c1.929,2.191-1.098,5.088-6.666,4.566
			c-1.622-0.15-3.459-0.594-5.452-1.428c0.645,0.402,1.046,0.996,1.168,1.629l18.096,3.742l6.661,1.379
			C262.314,163.452,264.409,162.073,264.851,159.933z"/>
		<path clip-path="url(#SVGID_4_)" fill="#E5E2D3" d="M257.098,166.771c0.6-2.102-0.618-4.293-2.72-4.893l-0.866-0.248
			l-18.096-3.742c0.418,2.17-2.452,4.803-10.132,1.805c0.407,0.164,0.765,0.354,1.077,0.557c1.023,0.67,1.532,1.516,1.539,2.303
			l18.949,5.41l5.355,1.529C254.307,170.091,256.498,168.872,257.098,166.771"/>
		
			<path clip-path="url(#SVGID_4_)" fill="none" stroke="#000000" stroke-width="1.257" stroke-linecap="round" stroke-linejoin="round" stroke-miterlimit="10" d="
			M257.098,166.771c0.6-2.102-0.618-4.293-2.72-4.893l-0.866-0.248l-18.096-3.742c0.418,2.17-2.452,4.803-10.132,1.805
			c0.407,0.164,0.765,0.354,1.077,0.557c1.023,0.67,1.532,1.516,1.539,2.303l18.949,5.41l5.355,1.529
			C254.307,170.091,256.498,168.872,257.098,166.771z"/>
		<path clip-path="url(#SVGID_4_)" fill="#E5E2D3" d="M249.123,173.044c0.765-2.033-0.253-4.299-2.274-5.084l-18.949-5.408
			c0.019,1.957-3.067,3.541-9.049,1.125c-0.127-0.053-0.255-0.105-0.384-0.16c1.666,0.91,2.791,2.221,3.364,3.486l16.359,6.156
			l5.834,2.197C246.07,176.124,248.353,175.091,249.123,173.044"/>
		
			<path clip-path="url(#SVGID_4_)" fill="none" stroke="#000000" stroke-width="1.257" stroke-linecap="round" stroke-linejoin="round" stroke-miterlimit="10" d="
			M249.123,173.044c0.765-2.033-0.253-4.299-2.274-5.084l-18.949-5.408c0.019,1.957-3.067,3.541-9.049,1.125
			c-0.127-0.053-0.255-0.105-0.384-0.16c1.666,0.91,2.791,2.221,3.364,3.486l16.359,6.156l5.834,2.197
			C246.07,176.124,248.353,175.091,249.123,173.044z"/>
		<path clip-path="url(#SVGID_4_)" fill="#E5E2D3" d="M240.844,178.87c0.962-1.963,0.152-4.334-1.811-5.297l-0.843-0.414
			l-16.359-6.156c1.298,2.869-0.241,5.5-4.764,2.645c-0.002-0.002-0.003-0.002-0.005-0.004c1.276,0.836,2.142,2.037,2.602,3.248
			l11.312,5.549l4.571,2.24C237.51,181.644,239.881,180.833,240.844,178.87"/>
		
			<path clip-path="url(#SVGID_4_)" fill="none" stroke="#000000" stroke-width="1.257" stroke-linecap="round" stroke-linejoin="round" stroke-miterlimit="10" d="
			M240.844,178.87c0.962-1.963,0.152-4.334-1.811-5.297l-0.843-0.414l-16.359-6.156c1.298,2.869-0.241,5.5-4.764,2.645
			c-0.002-0.002-0.003-0.002-0.005-0.004c1.276,0.836,2.142,2.037,2.602,3.248l11.312,5.549l4.571,2.24
			C237.51,181.644,239.881,180.833,240.844,178.87z"/>
		<path clip-path="url(#SVGID_4_)" fill="#E5E2D3" d="M232.369,184.003c1.168-1.848,0.617-4.293-1.23-5.461l-0.163-0.102
			l-11.313-5.549c1.29,3.4-0.628,6.891-5.698,2.674c-0.001,0-0.002,0-0.003-0.002c0.992,0.824,1.527,1.721,1.71,2.568l5.725,3.619
			l5.511,3.484C228.756,186.403,231.201,185.851,232.369,184.003"/>
		
			<path clip-path="url(#SVGID_4_)" fill="none" stroke="#000000" stroke-width="1.257" stroke-linecap="round" stroke-linejoin="round" stroke-miterlimit="10" d="
			M232.369,184.003c1.168-1.848,0.617-4.293-1.23-5.461l-0.163-0.102l-11.313-5.549c1.29,3.4-0.628,6.891-5.698,2.674
			c-0.001,0-0.002,0-0.003-0.002c0.992,0.824,1.527,1.721,1.71,2.568l5.725,3.619l5.511,3.484
			C228.756,186.403,231.201,185.851,232.369,184.003z"/>
		<path clip-path="url(#SVGID_4_)" fill="#E5E2D3" d="M223.518,188.665c1.398-1.68,1.17-4.176-0.511-5.574l-1.61-1.34l-5.725-3.619
			c0.676,3.123-3.441,5.584-7.236,1.418c0.357,0.391,0.616,0.766,0.796,1.121c0.277,0.547,0.357,1.049,0.283,1.49l4.448,3.703
			l3.981,3.313C219.624,190.575,222.12,190.345,223.518,188.665"/>
		
			<path clip-path="url(#SVGID_4_)" fill="none" stroke="#000000" stroke-width="1.257" stroke-linecap="round" stroke-linejoin="round" stroke-miterlimit="10" d="
			M223.518,188.665c1.398-1.68,1.17-4.176-0.511-5.574l-1.61-1.34l-5.725-3.619c0.676,3.123-3.441,5.584-7.236,1.418
			c0.357,0.391,0.616,0.766,0.796,1.121c0.277,0.547,0.357,1.049,0.283,1.49l4.448,3.703l3.981,3.313
			C219.624,190.575,222.12,190.345,223.518,188.665z"/>
		<path clip-path="url(#SVGID_4_)" fill="#E5E2D3" d="M193.495,175.151c-1.385,1.01-2.871,2.027-4.474,3.051
			c0,0,8.197,10.51,11.428,4.584l6.611,7.258l0.171,0.24c1.26,1.787,0.833,4.256-0.954,5.518c-1.786,1.26-4.256,0.832-5.516-0.953
			l-11.74-16.646"/>
		
			<path clip-path="url(#SVGID_4_)" fill="none" stroke="#000000" stroke-width="1.257" stroke-linecap="round" stroke-linejoin="round" stroke-miterlimit="10" d="
			M193.495,175.151c-1.385,1.01-2.871,2.027-4.474,3.051c0,0,8.197,10.51,11.428,4.584l6.611,7.258l0.171,0.24
			c1.26,1.787,0.833,4.256-0.954,5.518c-1.786,1.26-4.256,0.832-5.516-0.953l-11.74-16.646"/>
		<path clip-path="url(#SVGID_4_)" fill="#E5E2D3" d="M214.687,192.536c1.616-1.473,1.732-3.977,0.26-5.592l-0.984-1.08
			l-4.448-3.703c-0.425,2.508-5.843,3.076-8.513-0.709c-0.161,0.516-0.347,0.957-0.553,1.334l6.612,7.258l2.034,2.23
			C210.565,193.892,213.07,194.009,214.687,192.536"/>
		
			<path clip-path="url(#SVGID_4_)" fill="none" stroke="#000000" stroke-width="1.257" stroke-linecap="round" stroke-linejoin="round" stroke-miterlimit="10" d="
			M214.687,192.536c1.616-1.473,1.732-3.977,0.26-5.592l-0.984-1.08l-4.448-3.703c-0.425,2.508-5.843,3.076-8.513-0.709
			c-0.161,0.516-0.347,0.957-0.553,1.334l6.612,7.258l2.034,2.23C210.565,193.892,213.07,194.009,214.687,192.536z"/>
		<path clip-path="url(#SVGID_4_)" fill="#E5E2D3" d="M234.248,156.259c-0.245-0.152-0.524-0.277-0.837-0.367
			C233.693,156.022,233.972,156.144,234.248,156.259"/>
		
			<path clip-path="url(#SVGID_4_)" fill="none" stroke="#000000" stroke-width="1.257" stroke-linecap="round" stroke-linejoin="round" stroke-miterlimit="10" d="
			M234.248,156.259c-0.245-0.152-0.524-0.277-0.837-0.367C233.693,156.022,233.972,156.144,234.248,156.259z"/>
		<path clip-path="url(#SVGID_4_)" fill="#E5E2D3" d="M200.449,182.786c0.205-0.377,0.391-0.818,0.553-1.334
			c2.67,3.785,8.087,3.217,8.513,0.709c0.074-0.441-0.006-0.943-0.283-1.49c-0.18-0.355-0.439-0.73-0.796-1.121
			c3.795,4.166,7.912,1.703,7.236-1.418c-0.184-0.848-0.718-1.742-1.71-2.566h0.003c5.07,4.217,6.988,0.727,5.698-2.674
			c-0.459-1.211-1.325-2.41-2.601-3.248l0.005,0.004c4.522,2.855,6.062,0.225,4.764-2.645c-0.573-1.266-1.698-2.578-3.364-3.486
			c0.129,0.055,0.257,0.107,0.384,0.158c5.982,2.416,9.068,0.832,9.049-1.123c-0.007-0.787-0.516-1.633-1.539-2.303
			c-0.312-0.205-0.67-0.393-1.077-0.557c7.68,2.998,10.55,0.365,10.132-1.803c-0.122-0.635-0.523-1.229-1.168-1.631
			c-0.276-0.115-0.555-0.236-0.837-0.367c0.313,0.09,0.592,0.215,0.837,0.367c1.993,0.834,3.83,1.277,5.452,1.43
			c5.568,0.52,8.595-2.375,6.667-4.568c-0.68-0.773-1.972-1.459-3.987-1.877c-0.002,0-0.004,0-0.006,0
			c10.441,2.158,14.912-1.646,12.508-4.01c-0.522-0.512-1.363-0.955-2.54-1.258c0.003,0.002,0.006,0.002,0.01,0.002
			c8.906,1.27,12.063-2.666,9.397-4.98c-0.873-0.76-2.369-1.344-4.494-1.516c-0.001,0-0.002,0-0.004,0
			c10.332,0,12.778-6.402-0.489-6.402c-14.659,0-23.695,1.432-29.723,3.975l-0.217-0.016c0,0.035,0.004,0.07,0.005,0.107
			c-2.751,1.186-4.867,2.609-6.605,4.238c-0.085,0.08-0.17,0.16-0.253,0.24c-1.341,1.301-2.457,2.729-3.471,4.268
			c-0.522,0.793-1.018,1.615-1.504,2.465c-0.365,0.641-0.727,1.297-1.089,1.967c-0.491,0.908-0.987,1.844-1.503,2.805
			c-0.274,0.512-0.555,1.027-0.844,1.551c-0.497,0.898-1.021,1.818-1.585,2.756c-0.287,0.477-0.585,0.961-0.896,1.447
			c-0.553,0.869-1.146,1.752-1.789,2.648c-0.312,0.438-0.637,0.877-0.975,1.318c-0.629,0.824-1.302,1.658-2.029,2.502
			c-0.355,0.41-0.722,0.824-1.103,1.242c-0.684,0.746-1.411,1.5-2.187,2.26c-0.436,0.426-0.889,0.854-1.357,1.285
			c-0.704,0.646-1.443,1.299-2.224,1.953c-0.614,0.516-1.253,1.033-1.918,1.553c-0.642,0.502-1.308,1.004-2,1.508
			c-1.384,1.01-2.87,2.027-4.474,3.051C189.021,178.202,197.219,188.712,200.449,182.786"/>
		
			<path clip-path="url(#SVGID_4_)" fill="none" stroke="#000000" stroke-width="1.257" stroke-linecap="round" stroke-linejoin="round" stroke-miterlimit="10" d="
			M200.449,182.786c0.205-0.377,0.391-0.818,0.553-1.334c2.67,3.785,8.087,3.217,8.513,0.709c0.074-0.441-0.006-0.943-0.283-1.49
			c-0.18-0.355-0.439-0.73-0.796-1.121c3.795,4.166,7.912,1.703,7.236-1.418c-0.184-0.848-0.718-1.742-1.71-2.566h0.003
			c5.07,4.217,6.988,0.727,5.698-2.674c-0.459-1.211-1.325-2.41-2.601-3.248l0.005,0.004c4.522,2.855,6.062,0.225,4.764-2.645
			c-0.573-1.266-1.698-2.578-3.364-3.486c0.129,0.055,0.257,0.107,0.384,0.158c5.982,2.416,9.068,0.832,9.049-1.123
			c-0.007-0.787-0.516-1.633-1.539-2.303c-0.312-0.205-0.67-0.393-1.077-0.557c7.68,2.998,10.55,0.365,10.132-1.803
			c-0.122-0.635-0.523-1.229-1.168-1.631c-0.276-0.115-0.555-0.236-0.837-0.367c0.313,0.09,0.592,0.215,0.837,0.367
			c1.993,0.834,3.83,1.277,5.452,1.43c5.568,0.52,8.595-2.375,6.667-4.568c-0.68-0.773-1.972-1.459-3.987-1.877
			c-0.002,0-0.004,0-0.006,0c10.441,2.158,14.912-1.646,12.508-4.01c-0.522-0.512-1.363-0.955-2.54-1.258
			c0.003,0.002,0.006,0.002,0.01,0.002c8.906,1.27,12.063-2.666,9.397-4.98c-0.873-0.76-2.369-1.344-4.494-1.516
			c-0.001,0-0.002,0-0.004,0c10.332,0,12.778-6.402-0.489-6.402c-14.659,0-23.695,1.432-29.723,3.975l-0.217-0.016
			c0,0.035,0.004,0.07,0.005,0.107c-2.751,1.186-4.867,2.609-6.605,4.238c-0.085,0.08-0.17,0.16-0.253,0.24
			c-1.341,1.301-2.457,2.729-3.471,4.268c-0.522,0.793-1.018,1.615-1.504,2.465c-0.365,0.641-0.727,1.297-1.089,1.967
			c-0.491,0.908-0.987,1.844-1.503,2.805c-0.274,0.512-0.555,1.027-0.844,1.551c-0.497,0.898-1.021,1.818-1.585,2.756
			c-0.287,0.477-0.585,0.961-0.896,1.447c-0.553,0.869-1.146,1.752-1.789,2.648c-0.312,0.438-0.637,0.877-0.975,1.318
			c-0.629,0.824-1.302,1.658-2.029,2.502c-0.355,0.41-0.722,0.824-1.103,1.242c-0.684,0.746-1.411,1.5-2.187,2.26
			c-0.436,0.426-0.889,0.854-1.357,1.285c-0.704,0.646-1.443,1.299-2.224,1.953c-0.614,0.516-1.253,1.033-1.918,1.553
			c-0.642,0.502-1.308,1.004-2,1.508c-1.384,1.01-2.87,2.027-4.474,3.051C189.021,178.202,197.219,188.712,200.449,182.786z"/>
	</g>
	<text transform="matrix(1 0 0 1 157.3535 186.3926)" font-family="'Ubuntu'" font-size="41.4365">d</text>
</g>
</svg>
