<?xml version="1.0" encoding="utf-8"?>
<!-- Generator: Adobe Illustrator 16.0.0, SVG Export Plug-In . SVG Version: 6.00 Build 0)  -->
<!DOCTYPE svg PUBLIC "-//W3C//DTD SVG 1.1//EN" "http://www.w3.org/Graphics/SVG/1.1/DTD/svg11.dtd">
<svg version="1.1" id="Calque_1" xmlns="http://www.w3.org/2000/svg" xmlns:xlink="http://www.w3.org/1999/xlink" x="0px" y="0px"
	 width="349.92px" height="239.76px" viewBox="0 0 349.92 239.76" enable-background="new 0 0 349.92 239.76" xml:space="preserve">
<g>
	<path fill="#E5E2D3" d="M12.15,2C11.117,2.008,2,2.357,2,12.15v215.458c0.008,1.033,0.357,10.15,10.15,10.15h325.621
		c1.031-0.008,10.149-0.357,10.149-10.15V12.15C347.912,11.117,347.563,2,337.771,2H12.15z"/>
	<path fill="none" stroke="#000000" stroke-width="4" stroke-linejoin="round" stroke-miterlimit="10" d="M12.15,2
		C11.117,2.008,2,2.357,2,12.15v215.458c0.008,1.033,0.357,10.15,10.15,10.15h325.621c1.031-0.008,10.149-0.357,10.149-10.15V12.15
		C347.912,11.117,347.563,2,337.771,2H12.15z"/>
</g>
<g>
	<g>
		<g>
			<defs>
				<rect id="SVGID_1_" x="81.268" y="39.083" width="187.385" height="150.324"/>
			</defs>
			<clipPath id="SVGID_2_">
				<use xlink:href="#SVGID_1_"  overflow="visible"/>
			</clipPath>
			<path clip-path="url(#SVGID_2_)" fill="#358C5E" d="M125.029,105.719c-0.188,0-0.469-0.02-0.743-0.17
				c-0.357-0.199-0.742-0.289-1.248-0.289c-0.289,0-0.585,0.027-0.898,0.057c-0.331,0.031-0.674,0.064-1.026,0.064
				c-0.107,0-0.213-0.004-0.32-0.01c-0.33-0.021-0.634-0.094-0.928-0.166c-0.281-0.066-0.546-0.129-0.775-0.129
				c-0.818,0-1.678,0.078-2.559,0.229c-0.154,0.025-0.31,0.041-0.461,0.041c-0.877,0-1.553-0.438-2.153-0.906
				c-0.167-0.131-0.27-0.146-0.342-0.146c-0.123,0-0.284,0.055-0.521,0.176c-0.497,0.256-1.043,0.494-1.665,0.494
				c-0.517,0-1.015-0.17-1.48-0.508c-0.029-0.021-0.107-0.045-0.233-0.045c-0.397,0-0.957,0.219-1.463,0.57
				c-0.118,0.082-0.254,0.123-0.391,0.123c-0.128,0-0.256-0.037-0.369-0.109c-0.139-0.088-0.28-0.18-0.422-0.271
				c-0.325-0.213-0.658-0.43-0.996-0.625c-0.134,0.205-0.273,0.455-0.339,0.701c-0.21,0.789-0.739,0.875-0.957,0.875
				c-0.272,0-0.481-0.119-0.607-0.193c-0.199-0.049-0.371-0.184-0.46-0.379l-0.17-0.373c-0.1-0.219-0.188-0.412-0.279-0.605
				c-0.075-0.154-0.152-0.311-0.23-0.469c-0.059-0.119-0.118-0.236-0.176-0.355c-0.128-0.268-0.207-0.373-0.244-0.412
				c-0.049,0.008-0.159,0.041-0.371,0.148c-0.375,0.189-0.682,0.279-0.967,0.279c-0.335,0-0.92-0.131-1.239-0.965
				c-0.677,0.316-1.37,0.615-1.969,0.873c-0.178,0.076-0.356,0.115-0.529,0.115c-0.341,0-0.819-0.148-1.158-0.85
				c-0.072-0.148-0.141-0.295-0.21-0.441c-0.186-0.396-0.362-0.771-0.564-1.133c-0.421,0.041-0.85,0.096-1.265,0.146
				c-0.488,0.063-0.992,0.125-1.499,0.17c-0.02,0.002-0.046,0.004-0.066,0.004c-0.559,0-0.98-0.633-0.984-0.641
				c-0.204-0.318-0.112-0.6-0.063-0.705c0.324-0.705,0.687-1.416,1.077-2.109c0.107-0.188,0.245-0.332,0.355-0.447
				c0.002-0.002,0.005-0.006,0.008-0.008c-0.57-0.215-1.154-0.418-1.722-0.613c-0.391-0.137-0.782-0.271-1.172-0.412
				c-0.221-0.08-0.385-0.217-0.505-0.318c-0.031-0.025-0.063-0.053-0.096-0.076c-0.151-0.109-0.251-0.275-0.277-0.461
				s0.025-0.373,0.141-0.52c0.019-0.023,0.036-0.049,0.053-0.074c0.074-0.109,0.176-0.258,0.344-0.383
				c0.577-0.434,1.196-0.859,1.947-1.066c-1.088-1.16-1.861-2.467-2.301-3.891c-0.074-0.242-0.033-0.506,0.119-0.77
				c0.083-0.145,0.32-0.49,0.714-0.58c0.097-0.021,0.2-0.031,0.307-0.031c0.094,0,0.185,0.008,0.272,0.02
				c-0.079-0.189-0.16-0.379-0.24-0.568c-0.307-0.717-0.623-1.461-0.891-2.217c-0.138-0.393,0.012-0.742,0.111-0.973
				c0.02-0.045,0.049-0.113,0.062-0.152c-0.018-0.074-0.091-0.217-0.187-0.311c-0.184-0.184-0.398-0.354-0.624-0.533
				c-0.259-0.205-0.526-0.418-0.776-0.67c-0.487-0.49-0.534-0.943-0.487-1.238c0.107-0.678,0.757-1.012,0.971-1.123
				c0.45-0.23,0.912-0.445,1.359-0.654c0.302-0.141,0.611-0.285,0.913-0.432c-0.19-0.539-0.389-1.084-0.583-1.611
				c-0.209-0.568-0.418-1.139-0.619-1.711c-0.182-0.518-0.021-0.859,0.091-1.018c0.18-0.254,0.468-0.396,0.811-0.396
				c0.107,0,0.221,0.014,0.339,0.041c0.148,0.035,0.293,0.076,0.438,0.119c-0.151-1.771,0.442-3.332,1.076-4.787
				c0.38-0.873,0.979-1.006,1.302-1.006c0.048,0,0.096,0.004,0.143,0.01c-0.042-0.09-0.086-0.182-0.131-0.273
				c-0.188-0.383-0.385-0.764-0.582-1.145c-0.331-0.643-0.674-1.305-0.977-1.982c-0.219-0.49-0.215-0.955,0.013-1.305
				c0.195-0.303,0.534-0.475,0.929-0.475c0.151,0,0.314,0.025,0.484,0.074c0.575,0.162,1.138,0.367,1.683,0.564
				c0.108,0.039,0.216,0.078,0.323,0.117c0.048-1.182,0.269-2.381,1.137-3.391c0.359-0.42,0.699-0.816,1.254-0.816
				c0.462,0,0.83,0.287,1.229,0.635c0.258,0.225,0.497,0.461,0.728,0.689c0.099,0.098,0.195,0.191,0.291,0.285
				c1.209-1.695,2.961-2.887,5.213-3.547c0.164-0.047,0.312-0.07,0.454-0.07c0.618,0,0.984,0.387,1.089,1.15
				c0.007,0.053,0.017,0.125,0.025,0.152c0.071,0.248,0.13,0.498,0.186,0.756c0.513-0.332,1.002-0.65,1.494-0.963l0.185-0.119
				c0.429-0.275,0.873-0.561,1.351-0.803c0.116-0.057,0.244-0.088,0.381-0.088c0.361,0,0.791,0.213,0.999,0.492
				c0.125,0.168,0.245,0.342,0.364,0.521c0.11-0.23,0.24-0.451,0.411-0.65c0.599-0.691,1.333-1.385,2.244-2.119
				c0.246-0.199,0.525-0.305,0.807-0.305c0.576,0,1.073,0.424,1.298,1.107c0.115,0.35,0.196,0.697,0.274,1.035
				c0.009,0.037,0.017,0.074,0.026,0.109c0.771-0.584,1.7-1.154,2.887-1.252c0.296-0.025,0.589-0.063,0.899-0.102
				c0.301-0.037,0.612-0.076,0.926-0.104c0.038-0.004,0.078-0.006,0.12-0.006c0.247,0,0.845,0.053,1.048,0.543
				c0.157,0.381,0.055,0.775,0.001,0.99c-0.028,0.109-0.056,0.219-0.086,0.328c0.082-0.018,0.169-0.027,0.259-0.027
				c0.043,0,0.085,0.002,0.127,0.008c-0.012-0.404-0.019-0.781-0.012-1.16c0.005-0.307,0.084-0.574,0.154-0.809
				c0.024-0.082,0.049-0.164,0.069-0.248c0.047-0.199,0.18-0.367,0.363-0.457c0.096-0.047,0.199-0.07,0.303-0.07
				c0.096,0,0.191,0.02,0.281,0.061c0.048,0.021,0.099,0.041,0.15,0.059c0.159,0.063,0.358,0.139,0.547,0.279
				c0.631,0.467,1.259,0.951,1.866,1.418l0.067,0.051c0.15-0.488,0.318-0.982,0.588-1.438c0.245-0.412,0.834-0.84,1.397-0.84
				c0.088,0,0.175,0.012,0.258,0.033c0.433,0.109,0.8,0.508,1.154,1.25c0.101,0.211,0.184,0.426,0.263,0.652
				c0.23-0.287,0.458-0.564,0.697-0.83c0.449-0.498,0.99-1.074,1.605-1.559c0.098-0.078,0.271-0.174,0.528-0.174
				c0.372,0,1.016,0.23,1.256,0.662c0.275,0.492,0.514,0.998,0.745,1.49c0.129,0.271,0.261,0.553,0.397,0.826
				c0.479-0.215,0.96-0.443,1.428-0.664c0.691-0.326,1.407-0.664,2.127-0.973c0.245-0.104,0.479-0.156,0.695-0.156
				c0.595,0,1.237,0.402,1.255,1.537c0.001,0.084,0.002,0.17,0.003,0.254c0.073-0.041,0.146-0.082,0.221-0.121
				c0.461-0.236,0.933-0.455,1.39-0.664c0.18-0.084,0.36-0.166,0.54-0.252c0.176-0.082,0.357-0.125,0.535-0.125
				c0.405,0,1.113,0.213,1.358,1.615c1.543-1.127,3.124-1.777,4.829-1.988c0.079-0.008,0.158-0.014,0.234-0.014
				c0.437,0,0.828,0.16,1.102,0.453c0.285,0.305,0.425,0.734,0.395,1.211c-0.026,0.393-0.086,0.77-0.144,1.135
				c-0.014,0.09-0.028,0.176-0.041,0.262c0.091-0.047,0.182-0.094,0.273-0.141c0.662-0.342,1.346-0.695,2.051-0.998
				c0.098-0.043,0.203-0.064,0.313-0.064c0.528,0,1.063,0.539,1.231,0.828c0.088,0.15,0.159,0.305,0.22,0.461
				c0.209-0.186,0.414-0.369,0.62-0.547c0.159-0.139,0.315-0.283,0.47-0.428c0.41-0.381,0.835-0.775,1.338-1.084
				c0.363-0.225,0.662-0.326,0.94-0.326c0.492,0,1.083,0.275,1.105,1.594c0.003,0.172,0.004,0.344,0.004,0.516
				c0.107-0.09,0.215-0.178,0.326-0.264c0.479-0.373,0.922-0.654,1.355-0.861c0.16-0.076,0.339-0.113,0.547-0.113
				c0.119,0,0.23,0.012,0.328,0.021c0.06,0.008,0.119,0.016,0.176,0.016c0.183,0.002,0.356,0.076,0.483,0.207
				c0.128,0.131,0.198,0.305,0.195,0.488c-0.001,0.072,0.002,0.148,0.005,0.223c0.007,0.217,0.016,0.461-0.04,0.721
				c-0.087,0.406-0.189,0.809-0.289,1.199c0.033-0.004,0.066-0.008,0.098-0.012c1.081-0.125,2.101-0.242,3.143-0.34
				c0.031-0.004,0.063-0.004,0.095-0.004c0.358,0,0.86,0.209,1.087,0.6c0.243,0.416,0.038,0.91-0.176,1.252
				c-0.199,0.314-0.403,0.625-0.606,0.936c-0.091,0.137-0.183,0.277-0.275,0.418c1.625,0.277,2.993,0.883,4.165,1.844
				c0.173,0.141,0.295,0.311,0.393,0.445c0.031,0.043,0.062,0.088,0.095,0.129c0.238,0.293,0.192,0.723-0.101,0.961
				c-0.017,0.016-0.033,0.029-0.05,0.043c0.113,0.008,0.227,0.021,0.341,0.035c0.581,0.076,0.794,0.408,0.868,0.598
				c0.096,0.244,0.125,0.639-0.281,1.125c-0.166,0.199-0.338,0.396-0.511,0.592c-0.244,0.275-0.474,0.537-0.687,0.813
				c-0.013,0.016-0.023,0.031-0.031,0.043c0.016,0.014,0.037,0.033,0.065,0.055c0.993,0.768,1.724,1.857,2.302,3.432
				c0.202,0.547,0.084,0.953-0.051,1.197c-0.145,0.262-0.456,0.602-1.119,0.74c-0.427,0.09-0.875,0.221-1.362,0.398
				c0.1,0.273,0.213,0.732-0.002,1.174c-0.15,0.307-0.422,0.533-0.81,0.674c0.087,0.16,0.136,0.328,0.144,0.504
				c0.009,0.178-0.022,0.35-0.094,0.518c0.134,0.111,0.268,0.225,0.402,0.336c0.473,0.395,0.963,0.805,1.413,1.262
				c0.428,0.436,0.635,1.049,0.554,1.639c-0.071,0.523-0.356,0.963-0.783,1.209c-0.298,0.172-0.609,0.238-0.883,0.297
				c-0.097,0.02-0.194,0.041-0.289,0.066c-0.012,0.004-0.024,0.008-0.037,0.012c0.228,0.381,0.458,0.771,0.663,1.176
				c0.168,0.33,0.366,0.836,0.356,1.367c-0.015,0.869-0.582,1.18-1.107,1.18c-0.11,0-0.212-0.014-0.302-0.021
				c-0.05-0.006-0.099-0.012-0.146-0.014c-0.091,0.029-0.183,0.051-0.273,0.07c0.264,0.381,0.538,1.004,0.016,1.646
				c0.051,0.008,0.103,0.018,0.156,0.025c0.199,0.029,0.404,0.063,0.614,0.109c0.479,0.105,0.829,0.377,0.962,0.748
				c0.073,0.201,0.14,0.607-0.219,1.064c-0.592,0.754-1.222,1.48-1.871,2.156c0,0-0.173,0.178-0.203,0.209l0.288,0.32
				c0.446,0.498,0.907,1.012,1.343,1.539c0.111,0.137,0.225,0.373,0.139,0.746c-0.041,0.178-0.178,0.611-0.557,0.785
				c-0.592,0.271-1.185,0.506-1.715,0.705c0.156,0.219,0.32,0.439,0.497,0.678c0.374,0.502,0.321,0.934,0.256,1.146
				c-0.11,0.359-0.397,0.639-0.809,0.783c-0.646,0.227-1.319,0.408-2.002,0.543c-0.024,0.004-0.048,0.008-0.072,0.014
				c0.024,0.348-0.062,0.635-0.257,0.855c-0.208,0.236-0.504,0.355-0.88,0.355c-0.14,0-0.277-0.016-0.38-0.031
				c-0.331-0.047-0.619-0.191-0.849-0.307c-0.096-0.047-0.167-0.082-0.22-0.105c-0.028,0.053-0.065,0.125-0.112,0.225
				c-0.201,0.43-0.478,1.02-1.13,1.02c-0.351,0-0.654-0.189-0.985-0.418c-0.045-0.031-0.077-0.045-0.096-0.053
				c-0.007,0.008-0.018,0.018-0.031,0.033c-0.383,0.463-0.841,0.695-1.361,0.695c-0.288,0-0.584-0.07-0.906-0.219
				c-0.022-0.01-0.074-0.027-0.165-0.027c-0.33,0-0.696,0.221-0.779,0.404c-0.288,0.643-0.729,0.775-1.048,0.775
				c-0.203,0.002-0.413-0.055-0.64-0.17c-0.237-0.119-0.517-0.201-0.832-0.289c-0.017-0.004-0.025-0.004-0.025-0.004
				c-0.036,0.01-0.152,0.104-0.228,0.166c-0.092,0.074-0.196,0.158-0.319,0.238c-0.632,0.408-1.415,0.711-2.203,0.854
				c-1.3,0.232-2.478,0.354-3.604,0.371l-0.209,0.004c-0.188,0.004-0.38,0.008-0.573,0.008c-0.766,0-1.649-0.053-2.385-0.445
				c-0.347-0.184-0.677-0.27-1.039-0.27c-0.425,0-0.871,0.121-1.343,0.248c-0.147,0.039-0.295,0.078-0.446,0.115
				c-0.563,0.141-1.078,0.209-1.574,0.209c-0.586,0-1.139-0.096-1.692-0.285c-0.17-0.061-0.375-0.086-0.646-0.086
				c-0.226,0-0.464,0.018-0.717,0.037c-0.265,0.021-0.54,0.043-0.817,0.043c-0.988,0.002-1.977,0.004-2.968,0.004h-0.43
				c-0.027,0.002-0.06,0.004-0.091,0.004c-0.243,0-0.408-0.096-0.504-0.176c-0.158-0.133-0.312-0.189-0.508-0.189
				c-0.207,0-0.451,0.063-0.71,0.129c-0.257,0.066-0.524,0.135-0.814,0.162c-0.043,0.004-0.087,0.006-0.131,0.006
				c-0.12,0-0.229-0.016-0.317-0.025c-0.054-0.008-0.109-0.016-0.14-0.016c-0.202,0.012-0.399,0.021-0.596,0.033
				c-0.674,0.035-1.372,0.072-2.042,0.148c-0.561,0.063-1.135,0.152-1.69,0.24c-0.372,0.059-0.744,0.115-1.117,0.168
				c-0.126,0.117-0.293,0.186-0.468,0.186c-0.004,0-0.033-0.002-0.033-0.002c-0.099,0-0.21,0.01-0.326,0.02
				C125.304,105.707,125.167,105.719,125.029,105.719"/>
		</g>
		<g>
			<defs>
				<rect id="SVGID_3_" x="81.268" y="39.083" width="187.385" height="150.324"/>
			</defs>
			<clipPath id="SVGID_4_">
				<use xlink:href="#SVGID_3_"  overflow="visible"/>
			</clipPath>
			<path clip-path="url(#SVGID_4_)" d="M133.803,54.47c-0.454,0-0.771,0.176-0.956,0.324c-0.651,0.514-1.218,1.115-1.686,1.635
				c-0.001,0.002-0.003,0.004-0.004,0.006c-0.293-0.529-0.736-1.105-1.433-1.283c-0.136-0.035-0.28-0.053-0.426-0.053
				c-0.846,0-1.64,0.59-1.986,1.174c-0.129,0.219-0.237,0.443-0.331,0.668c-0.393-0.301-0.792-0.604-1.192-0.9
				c-0.265-0.197-0.534-0.299-0.711-0.367c-0.039-0.014-0.078-0.029-0.115-0.045c-0.178-0.08-0.369-0.121-0.56-0.121
				c-0.208,0-0.416,0.047-0.607,0.141c-0.366,0.182-0.633,0.518-0.727,0.914c-0.002,0.008-0.003,0.016-0.005,0.022
				c-0.257-0.113-0.558-0.174-0.888-0.174c-0.06,0-0.119,0.002-0.175,0.006c-0.331,0.027-0.649,0.068-0.956,0.107
				c-0.303,0.037-0.589,0.074-0.871,0.098c-0.948,0.078-1.733,0.406-2.406,0.813c-0.023-0.078-0.047-0.158-0.073-0.236
				c-0.315-0.959-1.08-1.576-1.948-1.576c-0.441,0-0.869,0.156-1.238,0.455c-0.91,0.732-1.652,1.43-2.264,2.129
				c-0.352-0.316-0.858-0.523-1.324-0.523c-0.245,0-0.476,0.053-0.687,0.16c-0.512,0.258-0.971,0.553-1.414,0.838l-0.183,0.117
				c-0.226,0.143-0.45,0.287-0.676,0.432c-0.249-1.473-1.302-1.635-1.751-1.635c-0.207,0-0.418,0.033-0.645,0.098
				c-2.118,0.621-3.824,1.688-5.09,3.178c-0.159-0.154-0.325-0.311-0.501-0.465c-0.467-0.404-0.982-0.801-1.679-0.801
				c-0.869,0-1.392,0.609-1.774,1.055c-0.765,0.891-1.091,1.885-1.225,2.889c-0.393-0.141-0.796-0.277-1.21-0.395
				c-0.232-0.064-0.458-0.1-0.672-0.1c-0.632,0-1.18,0.287-1.503,0.787c-0.353,0.543-0.377,1.258-0.064,1.957
				c0.311,0.695,0.658,1.367,0.994,2.018c0.105,0.203,0.212,0.41,0.317,0.615c-0.376,0.191-0.78,0.547-1.069,1.211
				c-0.563,1.295-1.096,2.67-1.153,4.217c-0.024-0.002-0.048-0.002-0.072-0.002c-0.563,0-1.062,0.25-1.37,0.684
				c-0.188,0.266-0.462,0.834-0.177,1.643c0.202,0.576,0.415,1.156,0.621,1.717c0.124,0.338,0.249,0.682,0.373,1.025
				c-0.114,0.053-0.23,0.105-0.349,0.162c-0.453,0.211-0.921,0.43-1.384,0.668c-0.777,0.4-1.226,0.947-1.333,1.625
				c-0.072,0.449-0.012,1.131,0.677,1.826c0.278,0.279,0.574,0.516,0.836,0.725c0.167,0.133,0.328,0.26,0.466,0.385
				c-0.113,0.301-0.229,0.76-0.048,1.273c0.241,0.682,0.517,1.342,0.79,1.984c-0.499,0.211-0.788,0.633-0.899,0.822
				c-0.246,0.426-0.31,0.893-0.18,1.314c0.379,1.227,0.986,2.369,1.812,3.412c-0.502,0.26-0.907,0.564-1.215,0.795
				c-0.258,0.193-0.409,0.414-0.498,0.545c-0.01,0.014-0.02,0.029-0.03,0.043c-0.231,0.293-0.331,0.664-0.279,1.035
				c0.051,0.369,0.254,0.699,0.556,0.918c0.019,0.014,0.038,0.031,0.058,0.047c0.141,0.119,0.377,0.316,0.715,0.438
				c0.393,0.143,0.791,0.279,1.177,0.414c0.295,0.102,0.583,0.201,0.866,0.303c-0.354,0.641-0.684,1.293-0.983,1.943
				c-0.202,0.439-0.163,0.936,0.109,1.359c0.025,0.039,0.623,0.955,1.561,0.955c0.039,0,0.084-0.002,0.123-0.004
				c0.523-0.047,1.034-0.111,1.528-0.174c0.27-0.033,0.532-0.066,0.79-0.096c0.112,0.223,0.221,0.453,0.333,0.693
				c0.07,0.148,0.141,0.299,0.212,0.447c0.522,1.076,1.337,1.236,1.777,1.236c0.266,0,0.534-0.057,0.798-0.17
				c0.434-0.186,0.916-0.395,1.407-0.615c0.509,0.674,1.199,0.764,1.531,0.764c0.4,0,0.762-0.119,1.044-0.244
				c0.034,0.068,0.067,0.137,0.101,0.205c0.076,0.152,0.152,0.305,0.225,0.459c0.088,0.186,0.175,0.377,0.273,0.594
				c0.054,0.115,0.11,0.24,0.172,0.373c0.162,0.354,0.461,0.613,0.813,0.729c0.179,0.1,0.481,0.242,0.876,0.242
				c0.583,0,1.295-0.338,1.589-1.275c0.11,0.07,0.22,0.143,0.329,0.213c0.144,0.094,0.287,0.188,0.428,0.277
				c0.225,0.145,0.481,0.217,0.737,0.217c0.274,0,0.547-0.082,0.782-0.246c0.467-0.324,0.854-0.432,1.029-0.445
				c0.549,0.365,1.139,0.549,1.756,0.549c0.77,0,1.433-0.287,1.979-0.568c0.07-0.037,0.121-0.061,0.158-0.074
				c0.446,0.348,1.338,1.025,2.544,1.025c0.19,0,0.385-0.016,0.577-0.049c0.843-0.145,1.665-0.219,2.442-0.219
				c0.149,0,0.376,0.053,0.616,0.111c0.308,0.072,0.657,0.156,1.045,0.182c0.118,0.006,0.239,0.01,0.363,0.01
				c0.385,0,0.743-0.033,1.089-0.064c0.298-0.029,0.578-0.055,0.836-0.055c0.387,0,0.661,0.061,0.915,0.201
				c0.309,0.172,0.661,0.256,1.075,0.256c0.168,0,0.325-0.012,0.463-0.023c0.103-0.01,0.199-0.018,0.27-0.018h0.012h0.02
				c0.265,0,0.521-0.076,0.739-0.217c0.321-0.045,0.641-0.096,0.952-0.145c0.573-0.088,1.114-0.174,1.66-0.234
				c0.651-0.074,1.308-0.109,2.002-0.146c0.186-0.01,0.371-0.02,0.556-0.031c0.018,0.002,0.037,0.006,0.055,0.008
				c0.102,0.014,0.242,0.031,0.406,0.031c0.066,0,0.132-0.002,0.196-0.008c0.343-0.031,0.649-0.111,0.92-0.18
				c0.206-0.053,0.419-0.107,0.54-0.107c0.018,0,0.027,0.002,0.028,0.002c0,0,0.016,0.006,0.046,0.031
				c0.184,0.152,0.494,0.33,0.937,0.33c0.041,0,0.084,0,0.127-0.004h0.372c0.999,0,1.996,0,2.991-0.002
				c0.304,0,0.592-0.023,0.87-0.045c0.239-0.02,0.465-0.037,0.663-0.037c0.187,0,0.329,0.018,0.422,0.049
				c0.617,0.215,1.262,0.322,1.917,0.322c0.551,0,1.12-0.074,1.738-0.227c0.155-0.039,0.308-0.08,0.459-0.121
				c0.446-0.119,0.831-0.223,1.165-0.223c0.25,0,0.471,0.059,0.717,0.189c0.87,0.463,1.857,0.525,2.707,0.525
				c0.198,0,0.394-0.004,0.586-0.008l0.207-0.004c1.163-0.018,2.378-0.145,3.714-0.383c0.876-0.156,1.748-0.494,2.455-0.953
				c0.122-0.078,0.226-0.158,0.314-0.229c0.157,0.047,0.296,0.098,0.41,0.154c0.323,0.164,0.634,0.244,0.947,0.244
				c0.336,0,1.158-0.109,1.642-1.111c0.039-0.027,0.104-0.055,0.152-0.064c0.38,0.162,0.743,0.242,1.104,0.242
				c0.404,0,0.956-0.105,1.492-0.545c0.293,0.166,0.606,0.287,0.981,0.287c0.831,0,1.288-0.559,1.554-1.025
				c0.192,0.08,0.413,0.152,0.659,0.188c0.128,0.018,0.295,0.037,0.479,0.037c0.724,0,1.157-0.32,1.394-0.59
				c0.146-0.166,0.302-0.408,0.38-0.74c0.565-0.127,1.123-0.287,1.662-0.477c0.615-0.217,1.066-0.664,1.238-1.229
				c0.101-0.33,0.189-0.986-0.328-1.711c0.301-0.123,0.612-0.256,0.923-0.398c0.653-0.297,0.873-0.975,0.937-1.252
				c0.157-0.678-0.107-1.127-0.278-1.336c-0.4-0.486-0.818-0.953-1.226-1.408c0.581-0.621,1.145-1.277,1.679-1.957
				c0.411-0.523,0.53-1.15,0.325-1.721c-0.209-0.584-0.724-1.01-1.415-1.174c0.024-0.162,0.028-0.326,0.009-0.49
				c0.907-0.115,1.509-0.824,1.526-1.836c0.013-0.672-0.227-1.291-0.43-1.689c-0.073-0.145-0.148-0.283-0.225-0.424
				c0.162-0.055,0.333-0.125,0.501-0.223c0.613-0.354,1.021-0.977,1.121-1.709c0.109-0.799-0.169-1.627-0.744-2.211
				c-0.474-0.484-0.977-0.902-1.463-1.309c-0.024-0.02-0.048-0.041-0.072-0.061c0.012-0.109,0.014-0.211,0.01-0.301
				c-0.002-0.041-0.006-0.084-0.011-0.131c0.314-0.225,0.499-0.49,0.608-0.713c0.153-0.314,0.215-0.656,0.185-1.02
				c0.244-0.074,0.477-0.135,0.704-0.182c0.916-0.193,1.364-0.695,1.578-1.082c0.288-0.521,0.321-1.148,0.094-1.766
				c-0.532-1.445-1.193-2.521-2.056-3.334c0.09-0.104,0.183-0.211,0.278-0.316c0.172-0.195,0.35-0.396,0.525-0.609
				c0.651-0.781,0.525-1.469,0.391-1.809c-0.081-0.209-0.309-0.639-0.861-0.879c0.02-0.328-0.078-0.664-0.301-0.939
				c-0.026-0.033-0.049-0.066-0.073-0.1c-0.115-0.158-0.273-0.377-0.518-0.578c-1.014-0.83-2.162-1.416-3.477-1.768
				c0.114-0.176,0.229-0.354,0.342-0.531c0.446-0.711,0.512-1.408,0.187-1.965c-0.321-0.551-1.011-0.938-1.677-0.938
				c-0.054,0-0.108,0.002-0.16,0.008c-0.761,0.072-1.509,0.152-2.276,0.24c0.02-0.088,0.04-0.176,0.058-0.264
				c0.074-0.342,0.063-0.656,0.054-0.889c-0.002-0.063-0.005-0.125-0.004-0.188c0.005-0.365-0.135-0.715-0.389-0.977
				c-0.254-0.262-0.602-0.41-0.966-0.414c-0.016,0-0.07-0.006-0.11-0.01c-0.11-0.012-0.246-0.027-0.402-0.027
				c-0.308,0-0.591,0.061-0.843,0.182c-0.259,0.123-0.52,0.27-0.789,0.443c-0.306-1.377-1.351-1.496-1.705-1.496
				c-0.539,0-0.999,0.244-1.299,0.428c-0.56,0.344-1.03,0.781-1.445,1.166c-0.153,0.141-0.297,0.275-0.441,0.4
				c-0.346-0.422-0.956-0.898-1.634-0.898c-0.203,0-0.4,0.041-0.583,0.121c-0.408,0.174-0.807,0.363-1.196,0.559
				c0.004-0.047,0.007-0.094,0.01-0.143c0.044-0.668-0.162-1.281-0.578-1.725c-0.405-0.432-0.973-0.67-1.601-0.67
				c-0.105,0-0.212,0.006-0.319,0.02c-1.533,0.189-2.967,0.709-4.359,1.58c-0.496-1.074-1.342-1.211-1.744-1.211
				c-0.28,0-0.558,0.063-0.828,0.189c-0.176,0.084-0.355,0.166-0.534,0.248c-0.248,0.115-0.501,0.23-0.755,0.352
				c-0.284-0.975-1.062-1.42-1.827-1.42c-0.309,0-0.633,0.07-0.963,0.213c-0.733,0.313-1.454,0.652-2.151,0.982
				c-0.267,0.125-0.539,0.254-0.811,0.381c-0.034-0.07-0.068-0.143-0.102-0.217c-0.236-0.5-0.48-1.02-0.767-1.533
				C135.247,54.746,134.302,54.47,133.803,54.47 M133.803,55.842c0.2,0,0.572,0.156,0.659,0.311
				c0.462,0.826,0.821,1.707,1.257,2.545c0.05,0.098,0.278,0.184,0.432,0.184c0.037,0,0.069-0.004,0.094-0.016
				c1.27-0.563,2.507-1.193,3.781-1.736c0.161-0.07,0.303-0.104,0.425-0.104c0.371,0,0.561,0.307,0.57,0.863
				c0.007,0.457,0.012,0.914,0.019,1.48c0.46-0.289,0.817-0.549,1.205-0.748c0.625-0.322,1.27-0.605,1.906-0.904
				c0.086-0.041,0.168-0.061,0.244-0.061c0.337,0,0.579,0.387,0.694,1.107c0.05,0.314,0.135,0.625,0.226,1.041
				c0.305-0.244,0.538-0.443,0.784-0.623c1.366-1.008,2.868-1.693,4.568-1.904c0.051-0.006,0.101-0.01,0.15-0.01
				c0.509,0,0.85,0.348,0.812,0.938c-0.042,0.641-0.188,1.268-0.252,1.906c-0.02,0.184,0.084,0.389,0.13,0.582
				c0.159-0.066,0.322-0.127,0.475-0.205c0.911-0.459,1.807-0.953,2.741-1.354c0.012-0.006,0.026-0.008,0.042-0.008
				c0.168,0,0.517,0.277,0.64,0.488c0.221,0.377,0.318,0.828,0.492,1.318c0.5-0.445,0.941-0.844,1.39-1.234
				c0.565-0.492,1.088-1.059,1.716-1.443c0.243-0.15,0.434-0.227,0.581-0.227c0.293,0,0.41,0.303,0.42,0.92
				c0.012,0.652-0.002,1.303-0.005,2.031c0.506-0.441,0.955-0.871,1.441-1.248c0.384-0.299,0.794-0.576,1.229-0.785
				c0.075-0.033,0.161-0.047,0.252-0.047c0.16,0,0.336,0.037,0.497,0.037c-0.004,0.271,0.036,0.555-0.019,0.811
				c-0.147,0.686-0.338,1.357-0.5,2.039c-0.012,0.053,0.017,0.117,0.025,0.117c0.002,0,0.002-0.008-0.003-0.025
				c1.425-0.16,2.794-0.328,4.164-0.457c0.01,0,0.02,0,0.031,0c0.171,0,0.413,0.119,0.494,0.258
				c0.064,0.109-0.064,0.383-0.164,0.543c-0.42,0.666-0.866,1.313-1.281,1.982c-0.03,0.049,0.099,0.309,0.163,0.314
				c1.66,0.174,3.202,0.693,4.548,1.795c0.154,0.125,0.261,0.316,0.39,0.475c-0.135,0.109-0.265,0.227-0.406,0.326
				c-0.246,0.174-0.503,0.328-0.744,0.51c-0.048,0.035-0.085,0.186-0.061,0.211c0.068,0.064,0.167,0.125,0.257,0.131
				c0.529,0.043,1.062,0.043,1.588,0.111c0.476,0.063,0.358,0.354,0.149,0.605c-0.399,0.48-0.832,0.928-1.214,1.422
				c-0.287,0.371-0.297,0.709,0.158,1.061c1.023,0.791,1.634,1.916,2.078,3.125c0.208,0.566-0.1,0.912-0.668,1.031
				c-0.619,0.131-1.228,0.33-1.819,0.563c-0.101,0.039-0.175,0.439-0.105,0.6c0.279,0.633,0.144,0.994-0.501,1.158
				c-0.105,0.025-0.205,0.068-0.31,0.09c-0.445,0.09-0.433,0.303-0.119,0.574c0.36,0.314,0.371,0.619,0.052,0.955
				c-0.031,0.033,0.006,0.199,0.058,0.246c0.697,0.613,1.439,1.172,2.087,1.83c0.545,0.555,0.476,1.451-0.083,1.773
				c-0.299,0.174-0.675,0.201-1.015,0.299c-0.32,0.092-0.64,0.186-0.894,0.26c0.377,0.646,0.768,1.254,1.094,1.896
				c0.161,0.316,0.289,0.701,0.283,1.047c-0.008,0.424-0.194,0.504-0.423,0.504c-0.146,0-0.309-0.031-0.454-0.031
				c-0.06,0-0.117,0.006-0.168,0.021c-0.357,0.113-0.745,0.123-1.112,0.211c-0.05,0.014-0.113,0.238-0.074,0.309
				c0.081,0.143,0.234,0.242,0.343,0.373c0.303,0.355,0.594,0.711,0.133,1.158c-0.122,0.119-0.252,0.285-0.272,0.445
				c-0.017,0.139,0.088,0.41,0.184,0.436c0.439,0.117,0.895,0.152,1.338,0.252c0.388,0.084,0.653,0.336,0.352,0.721
				c-0.575,0.73-1.185,1.436-1.827,2.104c-0.542,0.564-0.571,0.533-0.312,1.037c0.575,0.645,1.159,1.279,1.706,1.941
				c0.054,0.066-0.062,0.422-0.174,0.471c-0.644,0.297-1.308,0.555-1.974,0.801c-0.412,0.152-0.383,0.396-0.176,0.695
				c0.216,0.313,0.441,0.617,0.667,0.92c0.3,0.404,0.18,0.73-0.231,0.875c-0.621,0.217-1.261,0.391-1.906,0.518
				c-0.399,0.076-0.7,0.129-0.631,0.666c0.058,0.445-0.17,0.547-0.446,0.547c-0.093,0-0.191-0.012-0.286-0.025
				c-0.222-0.031-0.439-0.143-0.645-0.246c-0.285-0.143-0.482-0.223-0.639-0.223c-0.248,0-0.392,0.201-0.611,0.668
				c-0.203,0.432-0.321,0.625-0.511,0.625c-0.14,0-0.318-0.105-0.596-0.297c-0.173-0.117-0.341-0.18-0.5-0.18
				c-0.199,0-0.383,0.096-0.543,0.287c-0.256,0.311-0.528,0.449-0.834,0.449c-0.192,0-0.397-0.055-0.62-0.158
				c-0.135-0.061-0.289-0.09-0.45-0.09c-0.556,0-1.193,0.34-1.404,0.809c-0.111,0.246-0.24,0.371-0.424,0.371
				c-0.094,0-0.202-0.031-0.33-0.096c-0.301-0.152-0.633-0.248-0.96-0.338c-0.074-0.02-0.142-0.029-0.207-0.029
				c-0.374,0-0.604,0.313-0.918,0.516c-0.576,0.371-1.271,0.631-1.952,0.754c-1.148,0.205-2.323,0.342-3.494,0.359
				c-0.25,0.006-0.51,0.012-0.772,0.012c-0.731,0-1.477-0.053-2.064-0.363c-0.485-0.258-0.93-0.35-1.36-0.35
				c-0.658,0-1.279,0.215-1.953,0.383c-0.463,0.115-0.931,0.186-1.409,0.186c-0.477,0-0.964-0.07-1.468-0.246
				c-0.273-0.094-0.567-0.125-0.871-0.125c-0.502,0-1.031,0.082-1.535,0.082c-1.13,0.002-2.262,0.002-3.397,0.004
				c-0.028,0-0.061,0.006-0.091,0.006c-0.025,0-0.048-0.006-0.062-0.018c-0.319-0.264-0.635-0.35-0.949-0.35
				c-0.53,0-1.057,0.246-1.588,0.293c-0.022,0.002-0.045,0.004-0.068,0.004c-0.15,0-0.306-0.041-0.457-0.041
				c-0.015,0-0.03,0.002-0.044,0.002c-0.891,0.051-1.786,0.084-2.671,0.184c-0.977,0.111-1.943,0.291-2.919,0.424
				c-0.006,0.002-0.013,0.002-0.02,0.002c-0.105,0-0.231-0.104-0.381-0.17c0.032,0.09,0.053,0.146,0.122,0.332
				c-0.011,0-0.022,0-0.032,0c-0.251,0-0.506,0.043-0.733,0.043c-0.153,0-0.293-0.02-0.409-0.084
				c-0.528-0.293-1.055-0.375-1.581-0.375c-0.642,0-1.283,0.121-1.925,0.121c-0.092,0-0.185-0.004-0.277-0.008
				c-0.583-0.037-1.169-0.297-1.745-0.297h-0.005c-0.894,0.002-1.793,0.09-2.67,0.24c-0.119,0.02-0.235,0.029-0.346,0.029
				c-0.677,0-1.211-0.354-1.73-0.76c-0.268-0.211-0.518-0.293-0.764-0.293c-0.277,0-0.549,0.105-0.836,0.252
				c-0.441,0.229-0.885,0.418-1.351,0.418c-0.345,0-0.702-0.105-1.078-0.377c-0.164-0.119-0.383-0.176-0.635-0.176
				c-0.536,0-1.222,0.254-1.854,0.693c-0.53-0.338-1.077-0.715-1.657-1.033c-0.036-0.021-0.089-0.029-0.147-0.029
				c-0.153,0-0.347,0.063-0.407,0.146c-0.241,0.342-0.469,0.719-0.576,1.121c-0.075,0.281-0.183,0.363-0.296,0.363
				c-0.162,0-0.335-0.172-0.435-0.172c-0.003,0-0.006,0-0.009,0c-0.18-0.391-0.313-0.688-0.453-0.982
				c-0.133-0.279-0.273-0.555-0.408-0.834c-0.265-0.547-0.485-0.803-0.829-0.803c-0.19,0-0.418,0.078-0.713,0.229
				c-0.25,0.127-0.469,0.205-0.657,0.205c-0.291,0-0.508-0.189-0.65-0.676c-0.085-0.293-0.219-0.391-0.38-0.391
				c-0.134,0-0.288,0.068-0.45,0.145c-0.658,0.309-1.328,0.598-1.998,0.887c-0.096,0.041-0.181,0.059-0.258,0.059
				c-0.253,0-0.415-0.199-0.543-0.463c-0.27-0.561-0.521-1.133-0.83-1.68c-0.079-0.137-0.337-0.289-0.5-0.289
				c-0.007,0-0.014,0.002-0.022,0.002c-0.956,0.088-1.901,0.242-2.861,0.326c-0.003,0-0.005,0-0.007,0
				c-0.131,0-0.447-0.324-0.425-0.373c0.322-0.701,0.674-1.389,1.052-2.061c0.145-0.256,0.443-0.434,0.54-0.699
				c0.058-0.16-0.09-0.563-0.228-0.615c-1.056-0.412-2.136-0.76-3.207-1.146c-0.158-0.057-0.288-0.201-0.432-0.305
				c0.089-0.113,0.157-0.25,0.27-0.336c0.729-0.547,1.481-1.055,2.494-1.055h0.006c0.064,0,0.173-0.1,0.168-0.152
				c-0.012-0.125-0.041-0.287-0.128-0.369c-1.246-1.172-2.158-2.537-2.65-4.131c-0.042-0.135,0.173-0.443,0.33-0.477
				c0.05-0.012,0.102-0.018,0.155-0.018c0.213,0,0.45,0.076,0.673,0.102c0.195,0.023,0.39,0.035,0.584,0.055
				c-0.051-0.207-0.078-0.42-0.158-0.617c-0.438-1.07-0.926-2.127-1.312-3.217c-0.091-0.258,0.232-0.604,0.214-0.912
				c-0.013-0.262-0.189-0.582-0.391-0.783c-0.434-0.428-0.966-0.762-1.395-1.195c-0.605-0.611-0.204-1.008,0.31-1.271
				c0.836-0.43,1.708-0.799,2.546-1.223c0.109-0.057,0.194-0.311,0.15-0.438c-0.414-1.197-0.872-2.383-1.293-3.584
				c-0.106-0.301-0.02-0.5,0.255-0.5c0.054,0,0.115,0.006,0.184,0.023c0.347,0.082,0.69,0.211,1.038,0.264
				c0.005,0.002,0.01,0.002,0.015,0.002c0.115,0,0.328-0.162,0.315-0.227c-0.374-1.881,0.235-3.506,0.929-5.102
				c0.174-0.398,0.409-0.594,0.674-0.594c0.246,0,0.518,0.168,0.792,0.494c0.103,0.123,0.273,0.191,0.412,0.285
				c0.035-0.164,0.144-0.35,0.091-0.49c-0.192-0.521-0.42-1.035-0.668-1.541c-0.509-1.035-1.076-2.049-1.548-3.104
				c-0.197-0.441-0.112-0.814,0.316-0.814c0.085,0,0.185,0.014,0.298,0.047c0.795,0.225,1.573,0.535,2.357,0.807
				c0.114,0.041,0.252,0.123,0.346,0.123c0.018,0,0.033-0.002,0.047-0.008c0.083-0.037,0.116-0.23,0.117-0.361
				c0.006-1.277,0.129-2.488,0.982-3.482c0.323-0.375,0.51-0.576,0.734-0.576c0.194,0,0.416,0.15,0.78,0.467
				c0.466,0.404,0.882,0.867,1.343,1.275c0.036,0.031,0.114,0.045,0.193,0.045c0.096,0,0.193-0.021,0.219-0.063
				c1.2-1.906,2.964-3.059,5.119-3.689c0.103-0.031,0.189-0.045,0.261-0.045c0.442,0,0.368,0.504,0.456,0.809
				c0.148,0.516,0.238,1.039,0.381,1.686c0.831-0.539,1.575-1.027,2.326-1.506c0.484-0.309,0.965-0.627,1.477-0.887
				c0.019-0.01,0.043-0.014,0.071-0.014c0.139,0,0.368,0.107,0.449,0.215c0.349,0.467,0.646,0.971,1.042,1.584
				c0.296-0.643,0.441-1.256,0.801-1.672c0.646-0.746,1.388-1.416,2.156-2.035c0.131-0.105,0.259-0.154,0.378-0.154
				c0.288,0,0.527,0.273,0.646,0.639c0.19,0.574,0.284,1.17,0.453,1.75c0.021,0.068,0.237,0.172,0.326,0.172
				c0.014,0,0.024-0.002,0.031-0.008c0.913-0.736,1.829-1.451,3.085-1.555c0.612-0.051,1.216-0.152,1.827-0.205
				c0.019-0.002,0.039-0.002,0.061-0.002c0.161,0,0.384,0.043,0.416,0.119c0.066,0.16,0.015,0.379-0.031,0.559
				c-0.14,0.557-0.302,1.105-0.46,1.672c0.023,0.004,0.047,0.006,0.07,0.006c0.405,0,0.782-0.521,1.227-0.521
				c0.257,0,0.536,0.174,0.857,0.721c-0.027-1.016-0.07-1.783-0.057-2.547c0.005-0.311,0.133-0.607,0.205-0.91
				c0.191,0.086,0.404,0.139,0.57,0.262c0.76,0.564,1.505,1.143,2.252,1.717c0.132,0.102,0.239,0.154,0.329,0.154
				c0.13,0,0.222-0.111,0.293-0.346c0.176-0.582,0.343-1.188,0.644-1.693c0.147-0.248,0.534-0.504,0.807-0.504
				c0.031,0,0.06,0.004,0.088,0.01c0.278,0.072,0.543,0.541,0.706,0.883c0.234,0.492,0.371,1.025,0.63,1.773
				c0.546-0.676,0.978-1.254,1.457-1.789c0.475-0.527,0.97-1.043,1.521-1.479C133.722,55.849,133.758,55.842,133.803,55.842"/>
		</g>
		<g>
			<defs>
				<rect id="SVGID_5_" x="81.268" y="39.083" width="187.385" height="150.324"/>
			</defs>
			<clipPath id="SVGID_6_">
				<use xlink:href="#SVGID_5_"  overflow="visible"/>
			</clipPath>
			<path clip-path="url(#SVGID_6_)" fill="#E5E2D3" d="M150.342,108.916c-0.378,0-0.685-0.309-0.685-0.686V80.838h-6.503v27.393
				c0,0.377-0.306,0.686-0.685,0.686h-6.822c-0.379,0-0.686-0.309-0.686-0.686V80.838h-6.502v27.393
				c0,0.377-0.307,0.686-0.685,0.686h-6.823c-0.378,0-0.685-0.309-0.685-0.686V80.838h-6.503v27.393
				c0,0.377-0.306,0.686-0.685,0.686h-6.823c-0.378,0-0.685-0.309-0.685-0.686V80.838h-9.088c-0.378,0-0.685-0.307-0.685-0.684
				v-4.17c0-0.379,0.307-0.686,0.685-0.686h9.088v-6.172c0-0.182,0.072-0.354,0.201-0.484l3.411-3.412
				c0.129-0.129,0.303-0.199,0.485-0.199c0.181,0,0.355,0.07,0.484,0.199l3.412,3.412c0.128,0.129,0.2,0.303,0.2,0.484v6.172h6.503
				v-6.172c0-0.182,0.072-0.354,0.201-0.484l3.411-3.412c0.128-0.129,0.303-0.199,0.484-0.199c0.182,0,0.356,0.07,0.485,0.199
				l3.411,3.412c0.129,0.129,0.201,0.303,0.201,0.484v6.172h6.502v-6.172c0-0.182,0.073-0.354,0.201-0.484l3.412-3.412
				c0.128-0.129,0.302-0.199,0.484-0.199s0.356,0.07,0.484,0.199l3.412,3.412c0.128,0.129,0.2,0.303,0.2,0.484v6.172h6.503v-6.172
				c0-0.182,0.072-0.354,0.201-0.484l3.411-3.412c0.134-0.133,0.309-0.199,0.485-0.199c0.175,0,0.35,0.066,0.484,0.199l3.411,3.412
				c0.129,0.129,0.201,0.303,0.201,0.484v6.172h9.088c0.378,0,0.685,0.307,0.685,0.686v4.17c0,0.377-0.307,0.684-0.685,0.684h-9.088
				v27.393c0,0.377-0.307,0.686-0.685,0.686L150.342,108.916L150.342,108.916z"/>
		</g>
		<g>
			<defs>
				<rect id="SVGID_7_" x="81.268" y="39.083" width="187.385" height="150.324"/>
			</defs>
			<clipPath id="SVGID_8_">
				<use xlink:href="#SVGID_7_"  overflow="visible"/>
			</clipPath>
			<path clip-path="url(#SVGID_8_)" d="M153.753,64.345c-0.351,0-0.701,0.135-0.969,0.4l-3.411,3.412
				c-0.257,0.258-0.402,0.605-0.402,0.969v5.486h-5.132v-5.486c0-0.363-0.145-0.711-0.401-0.969l-3.412-3.412
				c-0.257-0.256-0.605-0.4-0.969-0.4c-0.363,0-0.711,0.145-0.968,0.4l-3.412,3.412c-0.257,0.258-0.401,0.605-0.401,0.969v5.486
				h-5.133v-5.486c0-0.363-0.144-0.711-0.401-0.969l-3.411-3.412c-0.257-0.256-0.606-0.4-0.969-0.4c-0.364,0-0.712,0.145-0.969,0.4
				l-3.411,3.412c-0.257,0.258-0.402,0.605-0.402,0.969v5.486h-5.132v-5.486c0-0.363-0.145-0.711-0.401-0.969l-3.412-3.412
				c-0.257-0.256-0.606-0.4-0.969-0.4s-0.712,0.145-0.969,0.4l-3.411,3.412c-0.257,0.258-0.401,0.605-0.401,0.969v5.486h-8.403
				c-0.757,0-1.37,0.615-1.37,1.371v4.168c0,0.758,0.613,1.371,1.37,1.371h8.403v26.707c0,0.756,0.613,1.371,1.37,1.371h6.823
				c0.756,0,1.37-0.615,1.37-1.371V81.523h5.132v26.707c0,0.756,0.614,1.371,1.37,1.371h6.823c0.757,0,1.37-0.615,1.37-1.371V81.523
				h5.133v26.707c0,0.756,0.613,1.371,1.37,1.371h6.823c0.756,0,1.37-0.615,1.37-1.371V81.523h5.132v26.707
				c0,0.756,0.614,1.371,1.37,1.371h6.824c0.756,0,1.37-0.615,1.37-1.371V81.523h8.402c0.757,0,1.37-0.613,1.37-1.371v-4.168
				c0-0.756-0.613-1.371-1.37-1.371h-8.402v-5.486c0-0.363-0.145-0.711-0.402-0.969l-3.411-3.412
				C154.454,64.48,154.104,64.345,153.753,64.345 M153.753,65.717l3.412,3.41v6.857h9.772v4.168h-9.772v28.078h-6.824V80.152h-7.872
				v28.078h-6.823V80.152h-7.873v28.078h-6.823V80.152h-7.872v28.078h-6.823V80.152h-9.773v-4.168h9.773v-6.857l3.411-3.41
				l3.412,3.41v6.857h7.872v-6.857l3.412-3.41l3.411,3.41v6.857h7.873v-6.857l3.411-3.41l3.412,3.41v6.857h7.872v-6.857
				L153.753,65.717z"/>
		</g>
		<g>
			<defs>
				<rect id="SVGID_9_" x="81.268" y="39.083" width="187.385" height="150.324"/>
			</defs>
			<clipPath id="SVGID_10_">
				<use xlink:href="#SVGID_9_"  overflow="visible"/>
			</clipPath>
			
				<line clip-path="url(#SVGID_10_)" fill="none" stroke="#000000" stroke-width="1.37" stroke-linecap="round" stroke-linejoin="round" stroke-miterlimit="10" x1="221.362" y1="39.769" x2="221.362" y2="115.279"/>
		</g>
	</g>
	
		<line fill="none" stroke="#000000" stroke-width="1.37" stroke-linecap="round" stroke-linejoin="round" stroke-miterlimit="10" x1="202.485" y1="44.828" x2="240.239" y2="110.22"/>
	
		<line fill="none" stroke="#000000" stroke-width="1.37" stroke-linecap="round" stroke-linejoin="round" stroke-miterlimit="10" x1="188.666" y1="58.646" x2="254.06" y2="96.4"/>
	
		<line fill="none" stroke="#000000" stroke-width="1.37" stroke-linecap="round" stroke-linejoin="round" stroke-miterlimit="10" x1="183.606" y1="77.525" x2="259.117" y2="77.525"/>
	
		<line fill="none" stroke="#000000" stroke-width="1.37" stroke-linecap="round" stroke-linejoin="round" stroke-miterlimit="10" x1="188.666" y1="96.402" x2="254.06" y2="58.646"/>
	
		<line fill="none" stroke="#000000" stroke-width="1.37" stroke-linecap="round" stroke-linejoin="round" stroke-miterlimit="10" x1="202.485" y1="110.22" x2="240.239" y2="44.828"/>
	
		<path fill="none" stroke="#000000" stroke-width="1.37" stroke-linecap="round" stroke-linejoin="round" stroke-miterlimit="10" d="
		M221.362,108.611l-15.543-4.164L194.44,93.068l-4.166-15.545l4.166-15.543l11.379-11.379l15.543-4.164l15.544,4.166l11.379,11.377
		l4.164,15.543l-4.164,15.545l-11.379,11.379L221.362,108.611z M221.362,98.248L211,95.472l-7.586-7.586l-2.776-10.363l2.777-10.361
		L211,59.576l10.362-2.775l10.361,2.777l7.588,7.584l2.775,10.361l-2.775,10.363l-7.588,7.586L221.362,98.248z M221.362,91.34
		l-6.908-1.85l-5.057-5.059l-1.852-6.908l1.852-6.906l5.057-5.059l6.908-1.85l6.908,1.85l5.058,5.059l1.851,6.906l-1.851,6.908
		l-5.058,5.059L221.362,91.34z M221.362,86.736l-4.605-1.234l-3.372-3.371l-1.233-4.607l1.233-4.604l3.372-3.373l4.605-1.232
		l4.604,1.234l3.372,3.371l1.234,4.604l-1.234,4.607l-3.372,3.371L221.362,86.736z M221.362,83.666l-3.07-0.824l-2.248-2.246
		l-0.822-3.072l0.822-3.068l2.248-2.248l3.07-0.822l3.07,0.822l2.248,2.248l0.822,3.068l-0.822,3.072l-2.248,2.246L221.362,83.666z"
		/>
	
		<line fill="none" stroke="#000000" stroke-width="1.37" stroke-linecap="round" stroke-linejoin="round" stroke-miterlimit="10" x1="233.328" y1="84.433" x2="233.328" y2="117.685"/>
	
		<line fill="none" stroke="#000000" stroke-width="1.37" stroke-linecap="round" stroke-linejoin="round" stroke-miterlimit="10" x1="228.202" y1="124.3" x2="238.454" y2="114.049"/>
	
		<line fill="none" stroke="#000000" stroke-width="1.37" stroke-linecap="round" stroke-linejoin="round" stroke-miterlimit="10" x1="238.454" y1="124.3" x2="228.202" y2="114.049"/>
	
		<line fill="none" stroke="#000000" stroke-width="1.37" stroke-linecap="round" stroke-linejoin="round" stroke-miterlimit="10" x1="240.331" y1="121.05" x2="226.325" y2="117.298"/>
	
		<line fill="none" stroke="#000000" stroke-width="1.37" stroke-linecap="round" stroke-linejoin="round" stroke-miterlimit="10" x1="240.331" y1="117.298" x2="226.325" y2="121.05"/>
	<g>
		<g>
			<g>
				
					<path fill="#E5CFAA" stroke="#000000" stroke-width="1.37" stroke-linecap="round" stroke-linejoin="round" stroke-miterlimit="10" d="
					M265.235,156.356c2.823,11.58-3.295,20.934-13.078,23.32c-9.781,2.385-19.521-3.098-22.347-14.678
					c-2.824-11.58,2.367-31.131,10.678-33.158C248.796,129.813,262.408,144.778,265.235,156.356z"/>
				<circle fill="#FFFFFF" cx="247.367" cy="139.117" r="2.624"/>
			</g>
			<g>
				
					<path fill="#E5CFAA" stroke="#000000" stroke-width="1.37" stroke-linecap="round" stroke-linejoin="round" stroke-miterlimit="10" d="
					M293.076,178.417c-3.405,11.424-13.408,16.41-23.057,13.535c-9.65-2.877-15.289-12.523-11.889-23.947
					c3.403-11.422,17.752-25.682,25.949-23.24C292.277,147.208,296.479,166.995,293.076,178.417z"/>
				<circle fill="#FFFFFF" cx="286.349" cy="154.518" r="2.624"/>
			</g>
		</g>
		<g>
			<path fill="#FFFFFF" stroke="#000000" stroke-width="1.37" stroke-miterlimit="10" d="M116.209,148.468L116.209,148.468
				c0.001-0.041-0.001-0.08-0.003-0.123c0-0.045,0-0.094-0.003-0.139c-0.001-0.053-0.006-0.105-0.009-0.158
				c-0.001-0.043-0.005-0.088-0.008-0.127c-0.003-0.033-0.006-0.064-0.01-0.098c-0.109-1.084-0.486-2.109-1.084-2.992
				c-0.542-0.801-1.262-1.482-2.127-1.98l-23.786-13.734c-1.004-0.58-2.125-0.869-3.245-0.869s-2.241,0.289-3.245,0.869
				l-23.322,13.465v-0.01c-0.108,0.063-0.208,0.123-0.306,0.188l-0.158,0.092c-0.866,0.498-1.585,1.18-2.127,1.98
				c-0.601,0.887-0.981,1.92-1.087,3.01c-0.002,0.016-0.003,0.033-0.004,0.051c-0.007,0.063-0.011,0.123-0.015,0.186
				c-0.001,0.039-0.004,0.076-0.006,0.113c-0.003,0.09-0.006,0.182-0.006,0.277l0.001,27.469c0,0.998,0.231,1.963,0.652,2.832
				c0.558,1.148,1.449,2.127,2.593,2.787l23.322,13.467h-0.002c0.026,0.016,0.051,0.027,0.076,0.039l0.39,0.227
				c1.003,0.58,2.124,0.871,3.245,0.871c1.12,0,2.241-0.291,3.245-0.871l0.39-0.227c0.025-0.012,0.05-0.023,0.077-0.039h-0.004
				l23.324-13.467c1.143-0.66,2.034-1.639,2.593-2.787c0.422-0.869,0.652-1.834,0.652-2.832l-0.001-27.467V148.468z M59.367,142.581
				L59.367,142.581L59.367,142.581z"/>
			<ellipse cx="85.933" cy="144.831" rx="4.221" ry="1.92"/>
			<ellipse cx="93.184" cy="166.073" rx="1.921" ry="4.221"/>
			<ellipse cx="110.766" cy="173.829" rx="1.922" ry="4.221"/>
			<path d="M101.976,165.729c1.061,0,1.921,1.889,1.921,4.219c0,2.334-0.86,4.223-1.921,4.223c-1.063,0-1.921-1.889-1.921-4.223
				C100.055,167.618,100.913,165.729,101.976,165.729z"/>
			<ellipse cx="60.463" cy="156.405" rx="1.921" ry="4.221"/>
			<path d="M78.124,179.704c1.061,0,1.922,1.893,1.922,4.221c0,2.332-0.861,4.223-1.922,4.223c-1.061,0-1.921-1.891-1.921-4.223
				C76.203,181.597,77.063,179.704,78.124,179.704z"/>
			<path d="M69.577,165.729c1.062,0,1.921,1.889,1.921,4.219c0,2.334-0.859,4.223-1.921,4.223c-1.062,0-1.922-1.889-1.922-4.223
				C67.654,167.618,68.515,165.729,69.577,165.729z"/>
			<ellipse cx="78.124" cy="166.073" rx="1.922" ry="4.221"/>
			<ellipse cx="60.495" cy="173.829" rx="1.922" ry="4.221"/>
		</g>
		<g>
			<g>
				<g>
					<path fill="#E5E2D3" d="M130.976,201.361c-0.116,0-0.232-0.029-0.336-0.088l-5.245-2.959c-0.105-0.06-0.192-0.145-0.253-0.248
						l-5.87-9.936c-0.176-0.299-0.102-0.683,0.174-0.894l62.644-47.828c0.121-0.092,0.267-0.14,0.416-0.14
						c0.044,0,0.088,0.004,0.131,0.013c0.192,0.037,0.359,0.155,0.459,0.323l10.607,17.955c0.062,0.104,0.094,0.222,0.095,0.342
						l0.061,6.018c0.003,0.244-0.125,0.472-0.336,0.597c-0.107,0.063-0.228,0.095-0.349,0.095c-0.116,0-0.231-0.029-0.336-0.088
						l-4.212-2.373l0.049,4.834c0.003,0.244-0.125,0.472-0.336,0.597c-0.107,0.063-0.229,0.095-0.349,0.095
						c-0.116,0-0.232-0.029-0.337-0.088l-4.209-2.374l0.047,4.831c0.003,0.245-0.126,0.473-0.336,0.597
						c-0.107,0.063-0.229,0.095-0.349,0.095c-0.116,0-0.232-0.029-0.337-0.088l-4.209-2.374l0.047,4.835
						c0.003,0.245-0.126,0.473-0.336,0.597c-0.107,0.063-0.229,0.095-0.349,0.095c-0.116,0-0.232-0.029-0.337-0.088l-4.208-2.376
						l0.048,4.835c0.002,0.245-0.126,0.473-0.337,0.597c-0.107,0.063-0.228,0.095-0.348,0.095c-0.116,0-0.232-0.029-0.337-0.088
						l-4.209-2.376l0.047,4.835c0.002,0.245-0.126,0.473-0.337,0.597c-0.107,0.063-0.228,0.095-0.348,0.095
						c-0.116,0-0.232-0.029-0.336-0.088l-4.209-2.374l0.047,4.833c0.002,0.245-0.126,0.473-0.337,0.597
						c-0.107,0.063-0.228,0.095-0.348,0.095c-0.116,0-0.232-0.029-0.336-0.088l-4.209-2.374l0.05,4.831
						c0.002,0.244-0.126,0.472-0.336,0.597c-0.107,0.063-0.228,0.095-0.349,0.095c-0.116,0-0.232-0.029-0.336-0.088l-4.212-2.374
						l0.049,4.833c0.002,0.245-0.126,0.472-0.336,0.597c-0.107,0.063-0.228,0.095-0.349,0.095c-0.116,0-0.232-0.029-0.336-0.088
						l-4.21-2.374l0.05,4.833c0.002,0.244-0.126,0.472-0.336,0.597c-0.107,0.063-0.228,0.095-0.349,0.095
						c-0.116,0-0.232-0.029-0.336-0.088l-4.212-2.374l0.05,4.833c0.002,0.244-0.126,0.472-0.336,0.597
						c-0.107,0.063-0.228,0.095-0.349,0.095c-0.116,0-0.232-0.029-0.336-0.088l-4.211-2.374l0.049,4.833
						c0.002,0.245-0.126,0.472-0.336,0.597c-0.107,0.063-0.228,0.095-0.349,0.095c-0.116,0-0.232-0.029-0.336-0.088l-4.211-2.374
						l0.049,4.833c0.002,0.245-0.126,0.472-0.336,0.597C131.217,201.33,131.097,201.361,130.976,201.361z"/>
					<path d="M182.506,139.954l10.607,17.955l0.061,6.018l-5.245-2.955l0.062,6.02l-5.242-2.957l0.059,6.018l-5.242-2.957
						l0.059,6.021l-5.242-2.959l0.06,6.021l-5.243-2.959l0.059,6.021l-5.243-2.957l0.059,6.02l-5.243-2.957l0.062,6.018
						l-5.245-2.957l0.061,6.02l-5.244-2.957l0.062,6.02l-5.246-2.957l0.062,6.02l-5.244-2.957l0.061,6.02l-5.244-2.957l0.061,6.02
						l-5.245-2.959l-5.87-9.936L182.506,139.954 M182.506,138.584c-0.298,0-0.591,0.098-0.831,0.281l-62.645,47.828
						c-0.551,0.421-0.701,1.188-0.348,1.786l5.87,9.936c0.123,0.207,0.297,0.378,0.506,0.496l5.245,2.959
						c0.209,0.118,0.441,0.177,0.673,0.177c0.241,0,0.482-0.063,0.697-0.19c0.421-0.249,0.678-0.704,0.673-1.193l-0.037-3.647
						l3.177,1.792c0.209,0.118,0.441,0.177,0.673,0.177c0.241,0,0.482-0.063,0.697-0.19c0.421-0.249,0.678-0.704,0.673-1.193
						l-0.037-3.647l3.178,1.792c0.209,0.118,0.441,0.177,0.673,0.177c0.241,0,0.482-0.063,0.697-0.19
						c0.421-0.249,0.678-0.704,0.673-1.193l-0.038-3.647l3.178,1.792c0.209,0.118,0.441,0.177,0.673,0.177
						c0.241,0,0.482-0.063,0.697-0.19c0.421-0.249,0.678-0.704,0.673-1.193l-0.038-3.646l3.177,1.791
						c0.209,0.118,0.441,0.177,0.673,0.177c0.241,0,0.482-0.063,0.697-0.19c0.421-0.249,0.678-0.704,0.673-1.193l-0.037-3.647
						l3.178,1.792c0.209,0.118,0.441,0.177,0.673,0.177c0.241,0,0.482-0.063,0.697-0.19c0.421-0.249,0.678-0.704,0.673-1.193
						l-0.038-3.645l3.175,1.791c0.209,0.118,0.441,0.177,0.673,0.177c0.241,0,0.482-0.063,0.697-0.19
						c0.421-0.249,0.678-0.704,0.673-1.193l-0.036-3.647l3.177,1.792c0.209,0.118,0.441,0.177,0.673,0.177
						c0.241,0,0.482-0.063,0.697-0.19c0.421-0.249,0.678-0.704,0.673-1.193l-0.036-3.648l3.176,1.793
						c0.209,0.118,0.441,0.177,0.673,0.177c0.241,0,0.482-0.063,0.697-0.19c0.421-0.249,0.678-0.704,0.673-1.193l-0.036-3.648
						l3.174,1.793c0.21,0.118,0.441,0.177,0.674,0.177c0.241,0,0.481-0.063,0.696-0.19c0.422-0.249,0.679-0.703,0.674-1.193
						l-0.036-3.649l3.177,1.792c0.209,0.118,0.44,0.177,0.673,0.177c0.241,0,0.481-0.063,0.696-0.19
						c0.422-0.249,0.679-0.704,0.674-1.193l-0.036-3.646l3.177,1.792c0.209,0.118,0.441,0.177,0.673,0.177
						c0.241,0,0.482-0.063,0.697-0.19c0.421-0.249,0.678-0.704,0.673-1.193l-0.037-3.647l3.178,1.79
						c0.209,0.118,0.441,0.177,0.673,0.177c0.241,0,0.482-0.063,0.697-0.19c0.421-0.249,0.678-0.704,0.673-1.193l-0.061-6.018
						c-0.003-0.24-0.068-0.477-0.19-0.684l-10.607-17.955c-0.199-0.337-0.533-0.572-0.918-0.647
						C182.681,138.593,182.593,138.584,182.506,138.584L182.506,138.584z"/>
				</g>
			</g>
			
				<path fill-rule="evenodd" clip-rule="evenodd" fill="#AB2E23" stroke="#000000" stroke-width="1.37" stroke-linejoin="round" stroke-miterlimit="10" d="
				M190.668,157.411c-1.007,0.834-3.532,2.357-5.188,0.469l-9.972-13.604c-1.421-1.979,0.644-3.613,1.638-4.395
				c4.911-3.857,19.739-14.566,19.739-14.566c2.551-2.055,5.307-2.629,5.49,1.445c0.08,1.76,5.606,2.137,8.414,6.801
				c2.428,4.033,2.289,6.869,2.685,9.406c0.325,2.078,4.44,0.994,2.429,5.564c-1.948,4.422-7.615,6.553-12.13,7.912
				C199.342,157.776,194.758,154.021,190.668,157.411C189.598,158.298,190.887,157.229,190.668,157.411z M209.335,146.579
				c-0.536-4.559-5.118-4.469-8.233-13.01c-1.248-3.424-2.557-3.42-4.665-2.291c0,0-5.1,3.479-6.503,4.535
				c-6.647,5,6.456,5.541,9.406,8.488c1.711,1.713,3.081,3.586,4.444,5.527C205.663,152.507,209.531,148.886,209.335,146.579
				C209.295,146.241,209.459,148.032,209.335,146.579z"/>
			<g>
				<path fill="#4F5666" d="M183.079,145.875c-0.718,0-1.373-0.451-1.63-1.124c-0.167-0.436-0.153-0.91,0.038-1.335
					s0.536-0.75,0.972-0.916c0.198-0.076,0.407-0.115,0.62-0.115c0.717,0,1.372,0.451,1.63,1.123c0.343,0.9-0.11,1.91-1.008,2.252
					C183.501,145.836,183.292,145.875,183.079,145.875z"/>
				<path d="M183.079,143.069c0.426,0,0.828,0.261,0.99,0.684c0.208,0.547-0.064,1.158-0.612,1.367
					c-0.124,0.048-0.252,0.07-0.378,0.07c-0.427,0-0.829-0.261-0.99-0.684c-0.209-0.547,0.066-1.158,0.614-1.367
					C182.827,143.092,182.954,143.069,183.079,143.069 M183.079,141.7c-0.297,0-0.589,0.054-0.866,0.16
					c-0.604,0.23-1.084,0.684-1.351,1.274c-0.267,0.593-0.285,1.254-0.053,1.861c0.357,0.936,1.27,1.563,2.27,1.563
					c0.297,0,0.588-0.054,0.866-0.159c1.25-0.478,1.881-1.883,1.404-3.135C184.989,142.327,184.078,141.7,183.079,141.7
					L183.079,141.7z"/>
			</g>
			<g>
				<path fill="#4F5666" d="M187.415,153.307c-0.719,0-1.374-0.45-1.631-1.121c-0.343-0.9,0.11-1.911,1.01-2.254
					c0.199-0.076,0.408-0.115,0.621-0.115c0.718,0,1.373,0.451,1.629,1.122c0.166,0.438,0.152,0.911-0.037,1.336
					c-0.19,0.427-0.536,0.753-0.973,0.918C187.837,153.268,187.628,153.307,187.415,153.307z"/>
				<path d="M187.415,150.501c0.426,0,0.828,0.261,0.989,0.682c0.208,0.549-0.064,1.162-0.612,1.369
					c-0.124,0.048-0.252,0.07-0.377,0.07c-0.427,0-0.83-0.261-0.991-0.682c-0.209-0.549,0.066-1.16,0.614-1.369
					C187.162,150.523,187.29,150.501,187.415,150.501 M187.415,149.132c-0.297,0-0.589,0.054-0.867,0.16
					c-1.25,0.477-1.881,1.884-1.404,3.136c0.359,0.937,1.271,1.563,2.271,1.563c0.297,0,0.589-0.054,0.867-0.16
					c0.604-0.228,1.085-0.683,1.351-1.277c0.264-0.591,0.282-1.25,0.053-1.856C189.327,149.76,188.415,149.132,187.415,149.132
					L187.415,149.132z"/>
			</g>
		</g>
	</g>
</g>
</svg>
