<?xml version="1.0" encoding="utf-8"?>
<!-- Generator: Adobe Illustrator 16.0.0, SVG Export Plug-In . SVG Version: 6.00 Build 0)  -->
<!DOCTYPE svg PUBLIC "-//W3C//DTD SVG 1.1//EN" "http://www.w3.org/Graphics/SVG/1.1/DTD/svg11.dtd">
<svg version="1.1" id="Calque_1" xmlns="http://www.w3.org/2000/svg" xmlns:xlink="http://www.w3.org/1999/xlink" x="0px" y="0px"
	 width="349.92px" height="239.76px" viewBox="0 0 349.92 239.76" enable-background="new 0 0 349.92 239.76" xml:space="preserve">
<g>
	<path fill="#E5E2D3" d="M12.15,2C11.117,2.008,2,2.357,2,12.15v215.459c0.008,1.033,0.357,10.15,10.15,10.15h325.62
		c1.032-0.008,10.15-0.357,10.15-10.15V12.15C347.912,11.117,347.563,2,337.77,2H12.15z"/>
	<path fill="none" stroke="#000000" stroke-width="4" stroke-linejoin="round" stroke-miterlimit="10" d="M12.15,2
		C11.117,2.008,2,2.357,2,12.15v215.459c0.008,1.033,0.357,10.15,10.15,10.15h325.62c1.032-0.008,10.15-0.357,10.15-10.15V12.15
		C347.912,11.117,347.563,2,337.77,2H12.15z"/>
</g>
<g>
	
		<rect x="36.714" y="88.49" transform="matrix(0.883 -0.4695 0.4695 0.883 -39.6893 31.661)" fill="#4F5666" width="13.871" height="13.87"/>
	<g>
		<defs>
			<rect id="SVGID_99_" x="15.443" y="85.368" width="319.034" height="69.023"/>
		</defs>
		<clipPath id="SVGID_2_">
			<use xlink:href="#SVGID_99_"  overflow="visible"/>
		</clipPath>
		
			<rect x="36.714" y="88.49" transform="matrix(0.883 -0.4695 0.4695 0.883 -39.6893 31.661)" clip-path="url(#SVGID_2_)" fill="none" stroke="#000000" stroke-width="1.077" stroke-linecap="round" stroke-linejoin="round" stroke-miterlimit="10" width="13.871" height="13.87"/>
		<path clip-path="url(#SVGID_2_)" fill="#CCAC6C" d="M73.394,142.663c0.905,1.701-1.091,9.877-2.792,10.781
			c-1.703,0.906-3.816,0.26-4.721-1.443L33.461,91.036c-0.905-1.701-0.259-3.816,1.443-4.721c1.702-0.904,3.816-0.258,4.721,1.443
			c0,0,20.18,38.049,24.161,45.533C67.594,140.454,73.394,142.663,73.394,142.663"/>
		
			<path clip-path="url(#SVGID_2_)" fill="none" stroke="#000000" stroke-width="1.077" stroke-linecap="round" stroke-linejoin="round" stroke-miterlimit="10" d="
			M73.394,142.663c0.905,1.701-1.091,9.877-2.792,10.781c-1.703,0.906-3.816,0.26-4.721-1.443L33.461,91.036
			c-0.905-1.701-0.259-3.816,1.443-4.721c1.702-0.904,3.816-0.258,4.721,1.443c0,0,20.18,38.049,24.161,45.533
			C67.594,140.454,73.394,142.663,73.394,142.663z"/>
		<path clip-path="url(#SVGID_2_)" fill="#4F5666" d="M16.18,92.556c-1.635,10.512,6.936,28.654,20.75,32.766l0.318-6.088
			c0,0-7.291-8.182,3.459-14.57L34.27,92.556c0,0-11.333,7.896-13.58,1.174L16.18,92.556z"/>
		
			<path clip-path="url(#SVGID_2_)" fill="none" stroke="#000000" stroke-width="1.077" stroke-linecap="round" stroke-linejoin="round" stroke-miterlimit="10" d="
			M16.18,92.556c-1.635,10.512,6.936,28.654,20.75,32.766l0.318-6.088c0,0-7.291-8.182,3.459-14.57L34.27,92.556
			c0,0-11.333,7.896-13.58,1.174L16.18,92.556z"/>
		<path clip-path="url(#SVGID_2_)" fill="#4F5666" d="M39.438,95.882c-0.316,0-0.622-0.115-0.86-0.324
			c-0.543-0.473-0.6-1.301-0.126-1.844c0.249-0.285,0.609-0.449,0.987-0.449c0.316,0,0.621,0.115,0.86,0.324
			c0.263,0.229,0.421,0.547,0.445,0.895c0.023,0.35-0.09,0.688-0.32,0.949C40.177,95.718,39.817,95.882,39.438,95.882"/>
		<path clip-path="url(#SVGID_2_)" d="M39.439,92.728L39.439,92.728c-0.533,0-1.04,0.23-1.391,0.631
			c-0.67,0.768-0.59,1.938,0.177,2.605c0.336,0.295,0.767,0.455,1.213,0.455c0.534,0,1.041-0.23,1.392-0.631
			c0.324-0.371,0.485-0.848,0.451-1.34c-0.033-0.492-0.257-0.941-0.628-1.266C40.317,92.888,39.886,92.728,39.439,92.728
			 M39.439,93.804c0.18,0,0.36,0.063,0.506,0.189c0.321,0.279,0.354,0.766,0.074,1.086c-0.152,0.176-0.366,0.264-0.581,0.264
			c-0.179,0-0.36-0.063-0.506-0.189c-0.32-0.279-0.353-0.766-0.073-1.088C39.011,93.892,39.224,93.804,39.439,93.804"/>
		<path clip-path="url(#SVGID_2_)" fill="#4F5666" d="M42.155,100.991c-0.316,0-0.622-0.115-0.86-0.324
			c-0.544-0.475-0.6-1.303-0.125-1.846c0.248-0.283,0.607-0.447,0.985-0.447c0.317,0,0.622,0.115,0.86,0.322
			c0.264,0.23,0.422,0.549,0.446,0.896c0.023,0.35-0.09,0.688-0.32,0.949C42.893,100.827,42.533,100.991,42.155,100.991"/>
		<path clip-path="url(#SVGID_2_)" d="M42.156,97.835L42.156,97.835c-0.534,0.002-1.041,0.23-1.391,0.633
			c-0.669,0.766-0.59,1.934,0.176,2.604c0.337,0.295,0.768,0.457,1.215,0.457c0.533,0,1.04-0.23,1.391-0.631
			c0.325-0.373,0.485-0.848,0.451-1.34c-0.033-0.492-0.256-0.943-0.628-1.266C43.034,97.997,42.602,97.835,42.156,97.835
			 M42.156,98.911c0.18,0,0.36,0.063,0.506,0.191c0.321,0.279,0.354,0.766,0.074,1.086c-0.152,0.174-0.366,0.264-0.58,0.264
			c-0.18,0-0.361-0.063-0.507-0.189c-0.32-0.281-0.353-0.768-0.073-1.088C41.728,99.001,41.942,98.911,42.156,98.911"/>
		<path clip-path="url(#SVGID_2_)" fill="#E5E2D3" d="M284.605,99.819c0-1.58-1.281-2.861-2.86-2.861h-18.774
			c9.586,0,7.819,4.627,0.354,4.627c0.001,0,0.002,0,0.003,0c1.535,0.123,2.616,0.545,3.246,1.094h10.33h4.841
			C283.325,102.679,284.605,101.397,284.605,99.819"/>
		
			<path clip-path="url(#SVGID_2_)" fill="none" stroke="#000000" stroke-width="1.077" stroke-linecap="round" stroke-linejoin="round" stroke-miterlimit="10" d="
			M284.605,99.819c0-1.58-1.281-2.861-2.86-2.861h-18.774c9.586,0,7.819,4.627,0.354,4.627c0.001,0,0.002,0,0.003,0
			c1.535,0.123,2.616,0.545,3.246,1.094h10.33h4.841C283.325,102.679,284.605,101.397,284.605,99.819z"/>
		<path clip-path="url(#SVGID_2_)" fill="#E5E2D3" d="M279.457,105.749c0.124-1.551-1.013-2.91-2.552-3.07h-10.33
			c1.927,1.674-0.355,4.518-6.79,3.6c-0.002,0-0.005,0-0.007-0.002c0.85,0.219,1.459,0.539,1.835,0.91l10.252,0.824l4.512,0.361
			C277.952,108.499,279.33,107.323,279.457,105.749"/>
		
			<path clip-path="url(#SVGID_2_)" fill="none" stroke="#000000" stroke-width="1.077" stroke-linecap="round" stroke-linejoin="round" stroke-miterlimit="10" d="
			M279.457,105.749c0.124-1.551-1.013-2.91-2.552-3.07h-10.33c1.927,1.674-0.355,4.518-6.79,3.6c-0.002,0-0.005,0-0.007-0.002
			c0.85,0.219,1.459,0.539,1.835,0.91l10.252,0.824l4.512,0.361C277.952,108.499,279.33,107.323,279.457,105.749z"/>
		<path clip-path="url(#SVGID_2_)" fill="#E5E2D3" d="M274.202,111.228c0.219-1.531-0.823-2.953-2.337-3.219l-10.252-0.824
			c1.737,1.709-1.494,4.457-9.037,2.898c0.001,0,0.002,0,0.002,0c1.458,0.303,2.391,0.797,2.882,1.355l11.486,1.643l4.02,0.574
			C272.529,113.878,273.978,112.792,274.202,111.228"/>
		
			<path clip-path="url(#SVGID_2_)" fill="none" stroke="#000000" stroke-width="1.077" stroke-linecap="round" stroke-linejoin="round" stroke-miterlimit="10" d="
			M274.202,111.228c0.219-1.531-0.823-2.953-2.337-3.219l-10.252-0.824c1.737,1.709-1.494,4.457-9.037,2.898
			c0.001,0,0.002,0,0.002,0c1.458,0.303,2.391,0.797,2.882,1.355l11.486,1.643l4.02,0.574
			C272.529,113.878,273.978,112.792,274.202,111.228z"/>
		<path clip-path="url(#SVGID_2_)" fill="#E5E2D3" d="M268.817,116.362c0.295-1.426-0.529-2.82-1.871-3.281l-11.486-1.643
			c1.394,1.584-0.793,3.676-4.817,3.301c-1.171-0.109-2.499-0.43-3.939-1.031c0.466,0.291,0.756,0.719,0.844,1.176l13.076,2.705
			l4.813,0.996C266.984,118.903,268.497,117.909,268.817,116.362"/>
		
			<path clip-path="url(#SVGID_2_)" fill="none" stroke="#000000" stroke-width="1.077" stroke-linecap="round" stroke-linejoin="round" stroke-miterlimit="10" d="
			M268.817,116.362c0.295-1.426-0.529-2.82-1.871-3.281l-11.486-1.643c1.394,1.584-0.793,3.676-4.817,3.301
			c-1.171-0.109-2.499-0.43-3.939-1.031c0.466,0.291,0.756,0.719,0.844,1.176l13.076,2.705l4.813,0.996
			C266.984,118.903,268.497,117.909,268.817,116.362z"/>
		<path clip-path="url(#SVGID_2_)" fill="#E5E2D3" d="M263.215,121.302c0.434-1.518-0.446-3.102-1.965-3.535l-0.626-0.178
			l-13.076-2.705c0.302,1.568-1.772,3.471-7.321,1.305c0.294,0.117,0.553,0.254,0.778,0.402c0.74,0.484,1.107,1.096,1.112,1.664
			l13.692,3.908l3.87,1.105C261.198,123.702,262.782,122.821,263.215,121.302"/>
		
			<path clip-path="url(#SVGID_2_)" fill="none" stroke="#000000" stroke-width="1.077" stroke-linecap="round" stroke-linejoin="round" stroke-miterlimit="10" d="
			M263.215,121.302c0.434-1.518-0.446-3.102-1.965-3.535l-0.626-0.178l-13.076-2.705c0.302,1.568-1.772,3.471-7.321,1.305
			c0.294,0.117,0.553,0.254,0.778,0.402c0.74,0.484,1.107,1.096,1.112,1.664l13.692,3.908l3.87,1.105
			C261.198,123.702,262.782,122.821,263.215,121.302z"/>
		<path clip-path="url(#SVGID_2_)" fill="#E5E2D3" d="M257.452,125.835c0.553-1.469-0.182-3.105-1.643-3.672l-13.692-3.91
			c0.014,1.414-2.216,2.559-6.539,0.813c-0.091-0.037-0.183-0.074-0.277-0.113c1.204,0.656,2.017,1.604,2.431,2.52l11.82,4.447
			l4.216,1.586C255.246,128.062,256.896,127.313,257.452,125.835"/>
		
			<path clip-path="url(#SVGID_2_)" fill="none" stroke="#000000" stroke-width="1.077" stroke-linecap="round" stroke-linejoin="round" stroke-miterlimit="10" d="
			M257.452,125.835c0.553-1.469-0.182-3.105-1.643-3.672l-13.692-3.91c0.014,1.414-2.216,2.559-6.539,0.813
			c-0.091-0.037-0.183-0.074-0.277-0.113c1.204,0.656,2.017,1.604,2.431,2.52l11.82,4.447l4.216,1.586
			C255.246,128.062,256.896,127.313,257.452,125.835z"/>
		<path clip-path="url(#SVGID_2_)" fill="#E5E2D3" d="M251.47,130.044c0.695-1.418,0.11-3.131-1.309-3.826l-0.608-0.299
			l-11.821-4.447c0.938,2.072-0.174,3.973-3.443,1.91c-0.001-0.002-0.002-0.004-0.003-0.004c0.922,0.605,1.548,1.473,1.88,2.348
			l8.174,4.008l3.303,1.621C249.061,132.05,250.775,131.464,251.47,130.044"/>
		
			<path clip-path="url(#SVGID_2_)" fill="none" stroke="#000000" stroke-width="1.077" stroke-linecap="round" stroke-linejoin="round" stroke-miterlimit="10" d="
			M251.47,130.044c0.695-1.418,0.11-3.131-1.309-3.826l-0.608-0.299l-11.821-4.447c0.938,2.072-0.174,3.973-3.443,1.91
			c-0.001-0.002-0.002-0.004-0.003-0.004c0.922,0.605,1.548,1.473,1.88,2.348l8.174,4.008l3.303,1.621
			C249.061,132.05,250.775,131.464,251.47,130.044z"/>
		<path clip-path="url(#SVGID_2_)" fill="#E5E2D3" d="M245.346,133.755c0.844-1.336,0.446-3.102-0.889-3.947l-0.118-0.072
			l-8.174-4.01c0.932,2.457-0.454,4.979-4.117,1.932c-0.001,0-0.002,0-0.002,0c0.716,0.596,1.103,1.242,1.235,1.854l4.137,2.615
			l3.982,2.518C242.735,135.487,244.502,135.089,245.346,133.755"/>
		
			<path clip-path="url(#SVGID_2_)" fill="none" stroke="#000000" stroke-width="1.077" stroke-linecap="round" stroke-linejoin="round" stroke-miterlimit="10" d="
			M245.346,133.755c0.844-1.336,0.446-3.102-0.889-3.947l-0.118-0.072l-8.174-4.01c0.932,2.457-0.454,4.979-4.117,1.932
			c-0.001,0-0.002,0-0.002,0c0.716,0.596,1.103,1.242,1.235,1.854l4.137,2.615l3.982,2.518
			C242.735,135.487,244.502,135.089,245.346,133.755z"/>
		<path clip-path="url(#SVGID_2_)" fill="#E5E2D3" d="M238.951,137.122c1.01-1.213,0.846-3.016-0.369-4.027l-1.163-0.969
			l-4.137-2.613c0.488,2.256-2.487,4.033-5.228,1.023c0.257,0.283,0.445,0.553,0.575,0.811c0.2,0.396,0.258,0.758,0.204,1.076
			l3.214,2.676l2.876,2.393C236.137,138.503,237.94,138.337,238.951,137.122"/>
		
			<path clip-path="url(#SVGID_2_)" fill="none" stroke="#000000" stroke-width="1.077" stroke-linecap="round" stroke-linejoin="round" stroke-miterlimit="10" d="
			M238.951,137.122c1.01-1.213,0.846-3.016-0.369-4.027l-1.163-0.969l-4.137-2.613c0.488,2.256-2.487,4.033-5.228,1.023
			c0.257,0.283,0.445,0.553,0.575,0.811c0.2,0.396,0.258,0.758,0.204,1.076l3.214,2.676l2.876,2.393
			C236.137,138.503,237.94,138.337,238.951,137.122z"/>
		<path clip-path="url(#SVGID_2_)" fill="#E5E2D3" d="M217.257,127.358c-1.001,0.73-2.074,1.465-3.233,2.203
			c0,0,5.924,7.596,8.258,3.313l4.777,5.244l0.123,0.176c0.911,1.291,0.602,3.074-0.689,3.986c-1.291,0.91-3.076,0.602-3.986-0.689
			l-8.483-12.029"/>
		
			<path clip-path="url(#SVGID_2_)" fill="none" stroke="#000000" stroke-width="1.077" stroke-linecap="round" stroke-linejoin="round" stroke-miterlimit="10" d="
			M217.257,127.358c-1.001,0.73-2.074,1.465-3.233,2.203c0,0,5.924,7.596,8.258,3.313l4.777,5.244l0.123,0.176
			c0.911,1.291,0.602,3.074-0.689,3.986c-1.291,0.91-3.076,0.602-3.986-0.689l-8.483-12.029"/>
		<path clip-path="url(#SVGID_2_)" fill="#E5E2D3" d="M232.569,139.919c1.168-1.063,1.252-2.873,0.188-4.041l-0.711-0.779
			l-3.214-2.676c-0.307,1.813-4.222,2.225-6.151-0.512c-0.117,0.373-0.251,0.691-0.399,0.963l4.777,5.244l1.469,1.613
			C229.592,140.899,231.401,140.983,232.569,139.919"/>
		
			<path clip-path="url(#SVGID_2_)" fill="none" stroke="#000000" stroke-width="1.077" stroke-linecap="round" stroke-linejoin="round" stroke-miterlimit="10" d="
			M232.569,139.919c1.168-1.063,1.252-2.873,0.188-4.041l-0.711-0.779l-3.214-2.676c-0.307,1.813-4.222,2.225-6.151-0.512
			c-0.117,0.373-0.251,0.691-0.399,0.963l4.777,5.244l1.469,1.613C229.592,140.899,231.401,140.983,232.569,139.919z"/>
		<path clip-path="url(#SVGID_2_)" fill="#E5E2D3" d="M246.704,113.708c-0.177-0.111-0.379-0.201-0.605-0.266
			C246.303,113.536,246.504,113.624,246.704,113.708"/>
		
			<path clip-path="url(#SVGID_2_)" fill="none" stroke="#000000" stroke-width="1.077" stroke-linecap="round" stroke-linejoin="round" stroke-miterlimit="10" d="
			M246.704,113.708c-0.177-0.111-0.379-0.201-0.605-0.266C246.303,113.536,246.504,113.624,246.704,113.708z"/>
		<path clip-path="url(#SVGID_2_)" fill="#E5E2D3" d="M222.282,132.874c0.148-0.271,0.283-0.59,0.399-0.963
			c1.929,2.734,5.844,2.324,6.151,0.512c0.054-0.318-0.004-0.68-0.204-1.076c-0.13-0.258-0.317-0.529-0.575-0.811
			c2.742,3.01,5.717,1.23,5.229-1.025c-0.133-0.611-0.52-1.258-1.236-1.854h0.002c3.663,3.047,5.05,0.525,4.118-1.932
			c-0.332-0.875-0.958-1.742-1.88-2.346l0.003,0.002c3.268,2.063,4.38,0.162,3.443-1.91c-0.414-0.916-1.227-1.863-2.431-2.52
			c0.094,0.039,0.186,0.076,0.277,0.113c4.323,1.746,6.553,0.602,6.539-0.811c-0.005-0.57-0.372-1.18-1.112-1.664
			c-0.225-0.148-0.484-0.283-0.778-0.402c5.549,2.166,7.623,0.264,7.321-1.305c-0.088-0.457-0.378-0.887-0.844-1.176
			c-0.2-0.084-0.401-0.172-0.605-0.266c0.226,0.064,0.428,0.154,0.605,0.266c1.44,0.602,2.768,0.922,3.939,1.031
			c4.024,0.377,6.211-1.717,4.817-3.301c-0.49-0.559-1.424-1.053-2.88-1.355c0,0-0.003,0-0.004,0
			c7.544,1.559,10.774-1.189,9.037-2.896c-0.376-0.371-0.985-0.691-1.835-0.91c0.002,0,0.004,0,0.007,0.002
			c6.435,0.916,8.717-1.926,6.79-3.6c-0.631-0.549-1.712-0.971-3.247-1.094c-0.001,0-0.001,0-0.003,0
			c7.466,0,9.233-4.627-0.353-4.627c-10.593,0-17.121,1.035-21.477,2.873l-0.157-0.014c0,0.027,0.003,0.053,0.004,0.078
			c-1.988,0.857-3.517,1.887-4.773,3.064c-0.061,0.057-0.123,0.115-0.182,0.172c-0.97,0.941-1.776,1.971-2.508,3.084
			c-0.378,0.572-0.736,1.166-1.087,1.781c-0.264,0.463-0.525,0.936-0.787,1.422c-0.355,0.656-0.713,1.332-1.087,2.025
			c-0.198,0.369-0.4,0.742-0.609,1.121c-0.359,0.65-0.738,1.314-1.145,1.99c-0.208,0.346-0.423,0.695-0.647,1.047
			c-0.4,0.627-0.829,1.268-1.293,1.914c-0.226,0.316-0.461,0.633-0.705,0.953c-0.454,0.594-0.941,1.197-1.466,1.807
			c-0.257,0.297-0.521,0.596-0.797,0.896c-0.494,0.541-1.02,1.086-1.581,1.633c-0.315,0.309-0.642,0.619-0.98,0.93
			c-0.508,0.469-1.042,0.939-1.607,1.412c-0.443,0.373-0.905,0.746-1.386,1.121c-0.463,0.361-0.945,0.727-1.445,1.09
			c-1,0.73-2.074,1.465-3.232,2.203C214.025,129.562,219.948,137.157,222.282,132.874"/>
		
			<path clip-path="url(#SVGID_2_)" fill="none" stroke="#000000" stroke-width="1.077" stroke-linecap="round" stroke-linejoin="round" stroke-miterlimit="10" d="
			M222.282,132.874c0.148-0.271,0.283-0.59,0.399-0.963c1.929,2.734,5.844,2.324,6.151,0.512c0.054-0.318-0.004-0.68-0.204-1.076
			c-0.13-0.258-0.317-0.529-0.575-0.811c2.742,3.01,5.717,1.23,5.229-1.025c-0.133-0.611-0.52-1.258-1.236-1.854h0.002
			c3.663,3.047,5.05,0.525,4.118-1.932c-0.332-0.875-0.958-1.742-1.88-2.346l0.003,0.002c3.268,2.063,4.38,0.162,3.443-1.91
			c-0.414-0.916-1.227-1.863-2.431-2.52c0.094,0.039,0.186,0.076,0.277,0.113c4.323,1.746,6.553,0.602,6.539-0.811
			c-0.005-0.57-0.372-1.18-1.112-1.664c-0.225-0.148-0.484-0.283-0.778-0.402c5.549,2.166,7.623,0.264,7.321-1.305
			c-0.088-0.457-0.378-0.887-0.844-1.176c-0.2-0.084-0.401-0.172-0.605-0.266c0.226,0.064,0.428,0.154,0.605,0.266
			c1.44,0.602,2.768,0.922,3.939,1.031c4.024,0.377,6.211-1.717,4.817-3.301c-0.49-0.559-1.424-1.053-2.88-1.355
			c0,0-0.003,0-0.004,0c7.544,1.559,10.774-1.189,9.037-2.896c-0.376-0.371-0.985-0.691-1.835-0.91c0.002,0,0.004,0,0.007,0.002
			c6.435,0.916,8.717-1.926,6.79-3.6c-0.631-0.549-1.712-0.971-3.247-1.094c-0.001,0-0.001,0-0.003,0
			c7.466,0,9.233-4.627-0.353-4.627c-10.593,0-17.121,1.035-21.477,2.873l-0.157-0.014c0,0.027,0.003,0.053,0.004,0.078
			c-1.988,0.857-3.517,1.887-4.773,3.064c-0.061,0.057-0.123,0.115-0.182,0.172c-0.97,0.941-1.776,1.971-2.508,3.084
			c-0.378,0.572-0.736,1.166-1.087,1.781c-0.264,0.463-0.525,0.936-0.787,1.422c-0.355,0.656-0.713,1.332-1.087,2.025
			c-0.198,0.369-0.4,0.742-0.609,1.121c-0.359,0.65-0.738,1.314-1.145,1.99c-0.208,0.346-0.423,0.695-0.647,1.047
			c-0.4,0.627-0.829,1.268-1.293,1.914c-0.226,0.316-0.461,0.633-0.705,0.953c-0.454,0.594-0.941,1.197-1.466,1.807
			c-0.257,0.297-0.521,0.596-0.797,0.896c-0.494,0.541-1.02,1.086-1.581,1.633c-0.315,0.309-0.642,0.619-0.98,0.93
			c-0.508,0.469-1.042,0.939-1.607,1.412c-0.443,0.373-0.905,0.746-1.386,1.121c-0.463,0.361-0.945,0.727-1.445,1.09
			c-1,0.73-2.074,1.465-3.232,2.203C214.025,129.562,219.948,137.157,222.282,132.874z"/>
		<path clip-path="url(#SVGID_2_)" fill="#FFFFFF" d="M301.109,123.362h5.378c0.065,0.629,0.132,1.244,0.191,1.861
			c0.066,0.686,0.107,1.373,0.201,2.055c0.021,0.146,0.196,0.35,0.339,0.389c1.761,0.496,3.528,0.969,5.296,1.438
			c0.14,0.037,0.308,0.025,0.45-0.012c1.736-0.461,3.466-0.939,5.205-1.391c0.37-0.096,0.484-0.27,0.513-0.646
			c0.124-1.637,0.29-3.27,0.438-4.902c0.036-0.404,0.06-0.809,0.098-1.322h-18.374c-0.486-5.445-0.963-10.785-1.444-16.176h26.717
			c-0.021,0.383-0.026,0.766-0.061,1.146c-0.116,1.291-0.247,2.582-0.357,3.873c-0.022,0.252-0.106,0.381-0.369,0.363
			c-0.142-0.008-0.282,0-0.423,0c-6.3-0.006-12.6-0.01-18.898-0.014c-0.199,0-0.399,0-0.675,0c0.046,0.568,0.085,1.078,0.128,1.586
			c0.096,1.139,0.184,2.277,0.305,3.414c0.013,0.121,0.201,0.26,0.339,0.324c0.116,0.055,0.277,0.014,0.418,0.014
			c6.002-0.006,12.002-0.014,18.003-0.021c0.624,0,0.65,0.004,0.6,0.637c-0.133,1.635-0.292,3.268-0.439,4.902
			c-0.104,1.152-0.204,2.305-0.308,3.455c-0.15,1.666-0.302,3.33-0.453,4.996c-0.065,0.717-0.112,1.436-0.208,2.146
			c-0.02,0.148-0.197,0.354-0.341,0.395c-3.442,0.973-6.888,1.932-10.337,2.877c-0.197,0.055-0.439,0.016-0.643-0.041
			c-3.376-0.926-6.75-1.867-10.127-2.793c-0.307-0.084-0.476-0.209-0.505-0.555c-0.208-2.48-0.436-4.959-0.654-7.438
			C301.096,123.755,301.109,123.585,301.109,123.362"/>
		<path clip-path="url(#SVGID_2_)" fill="#F0850F" d="M301.109,123.362c0,0.223-0.013,0.393,0.002,0.561
			c0.218,2.479,0.446,4.957,0.654,7.436c0.029,0.348,0.198,0.473,0.505,0.557c3.377,0.928,6.751,1.865,10.127,2.793
			c0.204,0.057,0.446,0.096,0.643,0.041c3.449-0.945,6.895-1.904,10.337-2.877c0.144-0.041,0.32-0.246,0.341-0.395
			c0.096-0.713,0.143-1.43,0.208-2.146c0.151-1.664,0.303-3.33,0.453-4.994c0.104-1.152,0.204-2.307,0.308-3.457
			c0.147-1.635,0.307-3.268,0.439-4.902c0.051-0.633,0.024-0.637-0.6-0.635c-6.001,0.006-12.002,0.012-18.004,0.02
			c-0.141,0-0.302,0.041-0.418-0.014c-0.138-0.064-0.326-0.203-0.339-0.326c-0.121-1.135-0.209-2.273-0.305-3.412
			c-0.043-0.508-0.082-1.018-0.128-1.586c0.276,0,0.476-0.002,0.675,0c6.299,0.004,12.599,0.008,18.897,0.014
			c0.142,0,0.282-0.01,0.424,0c0.263,0.018,0.347-0.111,0.368-0.361c0.111-1.293,0.242-2.582,0.358-3.875
			c0.034-0.381,0.04-0.762,0.06-1.146h-26.717c0.481,5.391,0.958,10.73,1.444,16.178h18.374c-0.038,0.512-0.063,0.916-0.098,1.318
			c-0.147,1.637-0.313,3.268-0.438,4.904c-0.028,0.377-0.143,0.551-0.513,0.646c-1.738,0.449-3.47,0.93-5.205,1.391
			c-0.142,0.039-0.31,0.049-0.45,0.01c-1.768-0.467-3.535-0.939-5.296-1.436c-0.143-0.039-0.318-0.242-0.339-0.389
			c-0.094-0.682-0.135-1.371-0.201-2.055c-0.059-0.617-0.126-1.232-0.191-1.861H301.109z M291.619,95.806h42.319
			c-0.081,1.076-0.151,2.152-0.245,3.227c-0.17,1.949-0.354,3.895-0.527,5.844c-0.169,1.898-0.329,3.801-0.497,5.703
			c-0.179,2.01-0.362,4.018-0.542,6.027c-0.136,1.512-0.269,3.023-0.405,4.535c-0.175,1.947-0.357,3.895-0.53,5.842
			c-0.169,1.9-0.328,3.803-0.498,5.703c-0.175,1.963-0.373,3.924-0.524,5.891c-0.03,0.391-0.134,0.566-0.524,0.674
			c-4.73,1.297-9.456,2.611-14.181,3.928c-0.868,0.242-1.728,0.516-2.591,0.777h-0.282c-0.167-0.072-0.329-0.162-0.502-0.209
			c-5.415-1.51-10.832-3.016-16.251-4.51c-0.334-0.092-0.421-0.25-0.445-0.584c-0.112-1.545-0.258-3.086-0.396-4.627
			c-0.176-1.979-0.357-3.955-0.534-5.934c-0.17-1.9-0.335-3.801-0.505-5.701c-0.173-1.93-0.354-3.861-0.526-5.793
			c-0.172-1.93-0.335-3.863-0.506-5.795c-0.175-1.977-0.354-3.955-0.533-5.932c-0.146-1.605-0.301-3.207-0.439-4.813
			C291.832,98.642,291.73,97.224,291.619,95.806"/>
		
			<path clip-path="url(#SVGID_2_)" fill="none" stroke="#000000" stroke-width="1.077" stroke-linecap="round" stroke-linejoin="round" stroke-miterlimit="10" d="
			M301.109,123.362c0,0.223-0.013,0.393,0.002,0.561c0.218,2.479,0.446,4.957,0.654,7.436c0.029,0.348,0.198,0.473,0.505,0.557
			c3.377,0.928,6.751,1.865,10.127,2.793c0.204,0.057,0.446,0.096,0.643,0.041c3.449-0.945,6.895-1.904,10.337-2.877
			c0.144-0.041,0.32-0.246,0.341-0.395c0.096-0.713,0.143-1.43,0.208-2.146c0.151-1.664,0.303-3.33,0.453-4.994
			c0.104-1.152,0.204-2.307,0.308-3.457c0.147-1.635,0.307-3.268,0.439-4.902c0.051-0.633,0.024-0.637-0.6-0.635
			c-6.001,0.006-12.002,0.012-18.004,0.02c-0.141,0-0.302,0.041-0.418-0.014c-0.138-0.064-0.326-0.203-0.339-0.326
			c-0.121-1.135-0.209-2.273-0.305-3.412c-0.043-0.508-0.082-1.018-0.128-1.586c0.276,0,0.476-0.002,0.675,0
			c6.299,0.004,12.599,0.008,18.897,0.014c0.142,0,0.282-0.01,0.424,0c0.263,0.018,0.347-0.111,0.368-0.361
			c0.111-1.293,0.242-2.582,0.358-3.875c0.034-0.381,0.04-0.762,0.06-1.146h-26.717c0.481,5.391,0.958,10.73,1.444,16.178h18.374
			c-0.038,0.512-0.063,0.916-0.098,1.318c-0.147,1.637-0.313,3.268-0.438,4.904c-0.028,0.377-0.143,0.551-0.513,0.646
			c-1.738,0.449-3.47,0.93-5.205,1.391c-0.142,0.039-0.31,0.049-0.45,0.01c-1.768-0.467-3.535-0.939-5.296-1.436
			c-0.143-0.039-0.318-0.242-0.339-0.389c-0.094-0.682-0.135-1.371-0.201-2.055c-0.059-0.617-0.126-1.232-0.191-1.861H301.109z
			 M291.619,95.806h42.319c-0.081,1.076-0.151,2.152-0.245,3.227c-0.17,1.949-0.354,3.895-0.527,5.844
			c-0.169,1.898-0.329,3.801-0.497,5.703c-0.179,2.01-0.362,4.018-0.542,6.027c-0.136,1.512-0.269,3.023-0.405,4.535
			c-0.175,1.947-0.357,3.895-0.53,5.842c-0.169,1.9-0.328,3.803-0.498,5.703c-0.175,1.963-0.373,3.924-0.524,5.891
			c-0.03,0.391-0.134,0.566-0.524,0.674c-4.73,1.297-9.456,2.611-14.181,3.928c-0.868,0.242-1.728,0.516-2.591,0.777h-0.282
			c-0.167-0.072-0.329-0.162-0.502-0.209c-5.415-1.51-10.832-3.016-16.251-4.51c-0.334-0.092-0.421-0.25-0.445-0.584
			c-0.112-1.545-0.258-3.086-0.396-4.627c-0.176-1.979-0.357-3.955-0.534-5.934c-0.17-1.9-0.335-3.801-0.505-5.701
			c-0.173-1.93-0.354-3.861-0.526-5.793c-0.172-1.93-0.335-3.863-0.506-5.795c-0.175-1.977-0.354-3.955-0.533-5.932
			c-0.146-1.605-0.301-3.207-0.439-4.813C291.832,98.642,291.73,97.224,291.619,95.806z"/>
		<path clip-path="url(#SVGID_2_)" fill="#E5E2D3" d="M111.194,150.634c-1.288,1.842-30.543-2.096-30.478-3.969
			c0.612-17.332,6.519-39.973,7.691-41.146c1.173-1.172,7.927-5.479,7.927-5.479l14.222,1.553l4.92,8.158
			c0,0-0.864,18.352,2.447,32.318C118.802,145.776,112.621,148.595,111.194,150.634"/>
		
			<path clip-path="url(#SVGID_2_)" fill="none" stroke="#000000" stroke-width="1.077" stroke-linecap="round" stroke-linejoin="round" stroke-miterlimit="10" d="
			M111.194,150.634c-1.288,1.842-30.543-2.096-30.478-3.969c0.612-17.332,6.519-39.973,7.691-41.146
			c1.173-1.172,7.927-5.479,7.927-5.479l14.222,1.553l4.92,8.158c0,0-0.864,18.352,2.447,32.318
			C118.802,145.776,112.621,148.595,111.194,150.634z"/>
	</g>
	<polygon fill="#E5E2D3" points="96.334,100.04 98.552,109.751 110.555,101.593 	"/>
	
		<polygon fill="none" stroke="#000000" stroke-width="1.077" stroke-linecap="round" stroke-linejoin="round" stroke-miterlimit="10" points="
		96.334,100.04 98.552,109.751 110.555,101.593 	"/>
	
		<line fill="none" stroke="#000000" stroke-width="1.077" stroke-linecap="round" stroke-linejoin="round" stroke-miterlimit="10" x1="99.362" y1="103.175" x2="103.14" y2="103.481"/>
	<g>
		<defs>
			<path id="SVGID_101_" d="M88.407,105.519c-1.173,1.174-7.079,23.814-7.691,41.146c-0.065,1.871,29.189,5.811,30.478,3.969
				c1.427-2.039,7.608-4.857,6.729-8.564c-3.311-13.967-2.447-32.318-2.447-32.318l-4.92-8.158l-14.222-1.553
				C96.334,100.04,89.58,104.347,88.407,105.519"/>
		</defs>
		<clipPath id="SVGID_4_">
			<use xlink:href="#SVGID_101_"  overflow="visible"/>
		</clipPath>
		<path clip-path="url(#SVGID_4_)" fill="#564432" d="M104.42,130.968c-0.508,0-0.922-0.396-0.922-0.883s0.414-0.881,0.922-0.881
			c0.508,0,0.922,0.395,0.922,0.881S104.928,130.968,104.42,130.968"/>
		<path clip-path="url(#SVGID_4_)" d="M104.42,128.667c-0.805,0-1.46,0.635-1.46,1.42c0,0.783,0.655,1.418,1.46,1.418
			c0.805,0,1.46-0.635,1.46-1.418C105.88,129.302,105.225,128.667,104.42,128.667 M104.42,129.743c0.212,0,0.384,0.152,0.384,0.344
			c0,0.188-0.172,0.342-0.384,0.342s-0.384-0.154-0.384-0.342C104.036,129.896,104.208,129.743,104.42,129.743"/>
		<path clip-path="url(#SVGID_4_)" fill="#564432" d="M100.038,130.144c-0.448,0-0.798-0.4-0.798-0.912s0.35-0.912,0.798-0.912
			c0.448,0,0.798,0.4,0.798,0.912S100.486,130.144,100.038,130.144"/>
		<path clip-path="url(#SVGID_4_)" d="M100.038,127.78c-0.75,0-1.337,0.637-1.337,1.451c0,0.813,0.587,1.451,1.337,1.451
			c0.749,0,1.336-0.639,1.336-1.451C101.374,128.417,100.787,127.78,100.038,127.78 M100.038,128.856c0.143,0,0.26,0.168,0.26,0.375
			s-0.117,0.375-0.26,0.375c-0.144,0-0.26-0.168-0.26-0.375S99.894,128.856,100.038,128.856"/>
		<path clip-path="url(#SVGID_4_)" fill="#564432" d="M91.871,128.575c-0.897,0-0.967-0.504-0.967-0.658s0.07-0.658,0.967-0.658
			c0.897,0,0.967,0.504,0.967,0.658S92.768,128.575,91.871,128.575"/>
		<path clip-path="url(#SVGID_4_)" d="M91.871,126.72c-1.188,0-1.505,0.752-1.505,1.197s0.317,1.197,1.505,1.197
			s1.505-0.752,1.505-1.197S93.059,126.72,91.871,126.72 M91.871,127.798c0.237,0,0.429,0.053,0.429,0.119s-0.192,0.119-0.429,0.119
			c-0.237,0-0.429-0.053-0.429-0.119S91.634,127.798,91.871,127.798"/>
		<path clip-path="url(#SVGID_4_)" fill="#564432" d="M114.396,126.474c-0.53,0-0.915-0.305-0.915-0.723s0.385-0.721,0.915-0.721
			c0.53,0,0.915,0.303,0.915,0.721S114.925,126.474,114.396,126.474"/>
		<path clip-path="url(#SVGID_4_)" d="M114.396,124.491c-0.828,0-1.453,0.541-1.453,1.26s0.625,1.262,1.453,1.262
			c0.829,0,1.453-0.543,1.453-1.262S115.225,124.491,114.396,124.491 M114.396,125.567c0.208,0,0.377,0.082,0.377,0.184
			s-0.169,0.186-0.377,0.186s-0.377-0.084-0.377-0.186S114.188,125.567,114.396,125.567"/>
		<path clip-path="url(#SVGID_4_)" fill="#564432" d="M85.512,151.651c-0.081-0.002-0.161-0.023-0.233-0.061l-8.522-4.418
			c-0.221-0.115-0.334-0.365-0.275-0.605l5.345-21.889c0.059-0.242,0.275-0.412,0.523-0.412c0.64,0,0.936,0.732,1.016,1.545
			c0.204,0.051,0.395,0.137,0.564,0.256c0.277-0.195,0.617-0.305,0.969-0.305c0.095,0,0.19,0.008,0.283,0.023
			c0.063-0.016,0.128-0.023,0.194-0.023c0.293,0,0.558,0.152,0.744,0.412c0.178-0.264,0.421-0.412,0.708-0.412
			c0.485,0,0.845,0.428,0.977,1.109c0.357-0.428,0.936-0.707,1.588-0.707c1.084,0,1.965,0.77,1.965,1.715
			c0,0.164-0.027,0.326-0.079,0.482c0.014,0.025,0.027,0.051,0.039,0.078c0.042-0.004,0.083-0.004,0.125-0.004
			c0.035,0,0.07,0,0.106,0.004c0.21-0.201,0.475-0.314,0.751-0.314c0.616,0,1.11,0.533,1.198,1.252
			c0.138-0.115,0.297-0.213,0.472-0.293c0.075-0.541,0.561-0.959,1.147-0.959c0.605,0,1.103,0.447,1.153,1.012
			c0.381-0.436,0.953-0.701,1.578-0.701c0.794,0,1.512,0.441,1.849,1.107c0.263,0.08,0.497,0.209,0.685,0.381
			c0.014,0.004,0.029,0.008,0.044,0.012c0.158-0.502,0.669-0.869,1.272-0.869c0.543,0,1.011,0.299,1.215,0.725
			c0.148-0.043,0.306-0.064,0.466-0.064c0.356,0,0.684,0.105,0.936,0.285c0.13-0.066,0.269-0.107,0.413-0.119
			c0.036-0.576,0.463-1.033,0.984-1.033c0.029,0,0.057,0.002,0.086,0.004c0.202-0.451,0.562-0.738,0.99-0.738
			c0.339,0,0.635,0.18,0.844,0.477c0.11-0.055,0.232-0.084,0.367-0.084c0.159,0,0.465,0.051,0.72,0.4
			c0.065-0.078,0.138-0.146,0.219-0.209c-0.056-0.17-0.086-0.354-0.086-0.545c0-0.801,0.512-1.428,1.166-1.428
			c0.654,0,1.167,0.627,1.167,1.428c0,0.133-0.014,0.26-0.04,0.381c0.122-0.018,0.246-0.027,0.372-0.027
			c0.086,0,0.173,0.004,0.26,0.014c0.046-0.018,0.094-0.033,0.144-0.045c-0.087-0.16-0.135-0.334-0.135-0.518
			c0-0.691,0.65-1.232,1.479-1.232c0.183,0,0.356,0.025,0.516,0.074c0.188-0.383,0.593-0.646,1.06-0.646
			c0.412,0,0.775,0.205,0.984,0.514l0.979-0.66c0.09-0.061,0.195-0.092,0.301-0.092c0.061,0,0.123,0.01,0.182,0.033
			c0.162,0.057,0.286,0.189,0.334,0.354l5.204,17.674c0.062,0.211-0.011,0.438-0.183,0.574l-9.779,7.715
			c-0.095,0.074-0.213,0.115-0.333,0.115C112.525,152.392,85.512,151.651,85.512,151.651"/>
		<path clip-path="url(#SVGID_4_)" d="M82.35,123.729c-0.496,0-0.928,0.34-1.046,0.822l-5.345,21.889
			c-0.118,0.482,0.109,0.982,0.55,1.211l8.522,4.416c0.145,0.076,0.304,0.117,0.466,0.121l27.003,0.742c0.01,0,0.02,0,0.03,0
			c0.241,0,0.476-0.082,0.666-0.232l9.779-7.715c0.345-0.271,0.49-0.727,0.366-1.148l-5.204-17.674
			c-0.096-0.328-0.345-0.592-0.668-0.709c-0.118-0.043-0.241-0.063-0.364-0.063c-0.212,0-0.422,0.061-0.602,0.184l-0.607,0.408
			c-0.29-0.221-0.657-0.354-1.055-0.354c-0.521,0-0.989,0.227-1.302,0.586c-0.09-0.01-0.181-0.016-0.274-0.016
			c-0.785,0-1.452,0.375-1.787,0.938c-0.296-0.566-0.834-0.938-1.46-0.938c-0.914,0-1.638,0.789-1.701,1.822
			c-0.133-0.033-0.246-0.041-0.318-0.041c-0.065,0-0.128,0.004-0.19,0.014c-0.281-0.258-0.632-0.406-1.021-0.406
			c-0.541,0-1.008,0.289-1.316,0.756c-0.543,0.092-0.992,0.498-1.184,1.039c-0.273-0.123-0.583-0.193-0.909-0.193
			c-0.072,0-0.143,0.004-0.214,0.01c-0.341-0.406-0.872-0.67-1.467-0.67c-0.589,0-1.114,0.256-1.455,0.656
			c-0.058-0.029-0.117-0.055-0.178-0.08c-0.461-0.732-1.299-1.207-2.217-1.207c-0.493,0-0.961,0.133-1.359,0.369
			c-0.309-0.412-0.809-0.68-1.372-0.68c-0.603,0-1.133,0.307-1.434,0.768c-0.317-0.469-0.815-0.768-1.383-0.768
			c-0.143,0-0.283,0.02-0.417,0.057c-0.132-1.131-1.198-2.016-2.49-2.016c-0.494,0-0.956,0.129-1.344,0.352
			c-0.276-0.477-0.702-0.754-1.221-0.754c-0.267,0-0.509,0.072-0.719,0.209c-0.218-0.135-0.468-0.209-0.733-0.209
			c-0.069,0-0.138,0.004-0.207,0.016c-0.089-0.012-0.18-0.016-0.27-0.016c-0.339,0-0.671,0.076-0.968,0.219
			c-0.025-0.012-0.051-0.023-0.077-0.035C83.666,124.354,83.124,123.729,82.35,123.729 M112.859,129.669v-0.021
			c-0.003,0.002-0.006,0.004-0.009,0.006C112.853,129.659,112.856,129.665,112.859,129.669 M82.35,124.806
			c0.277,0,0.501,0.67,0.501,1.496v0.004c0.035-0.002,0.069-0.004,0.104-0.004c0.359,0,0.677,0.158,0.879,0.402
			c0.011,0,0.021,0,0.032,0c0.054,0,0.107,0.002,0.16,0.004c0.195-0.246,0.513-0.406,0.873-0.406c0.112,0,0.22,0.016,0.321,0.043
			c0.049-0.027,0.101-0.043,0.156-0.043c0.191,0,0.356,0.186,0.432,0.453c0.105,0.15,0.167,0.33,0.167,0.52
			c0,0.076-0.01,0.15-0.028,0.219c0.142,0.018,0.273,0.047,0.389,0.088c-0.001-0.031-0.002-0.064-0.002-0.1
			c0-0.65,0.221-1.18,0.494-1.18c0.272,0,0.493,0.529,0.493,1.18c0,0.293-0.045,0.563-0.118,0.768c0.001,0,0.003,0,0.005,0
			c0.073,0,0.144,0.004,0.214,0.01c0.103-0.133,0.274-0.223,0.469-0.223c0.031,0,0.061,0.006,0.091,0.01
			c-0.009-0.055-0.016-0.109-0.016-0.166c0-0.65,0.639-1.176,1.427-1.176c0.788,0,1.427,0.525,1.427,1.176
			c0,0.191-0.057,0.371-0.155,0.531c0.155,0.186,0.251,0.406,0.269,0.646c0.159-0.053,0.33-0.082,0.508-0.082
			c0.116,0,0.228,0.012,0.337,0.035c0.123-0.211,0.311-0.346,0.521-0.346c0.372,0,0.673,0.42,0.673,0.941
			c0,0.035-0.002,0.072-0.005,0.107c0.271,0.143,0.453,0.41,0.453,0.715c0,0.045-0.005,0.088-0.012,0.131
			c0.005,0,0.01-0.002,0.015-0.002c0.001-0.014,0.002-0.031,0.003-0.045c-0.003-0.02-0.006-0.037-0.006-0.055
			c0-0.059,0.02-0.113,0.056-0.164c0.141-0.398,0.547-0.717,1.07-0.838c-0.032-0.068-0.049-0.145-0.049-0.223
			c0-0.314,0.277-0.568,0.619-0.568c0.342,0,0.619,0.254,0.619,0.568c0,0.094-0.028,0.182-0.072,0.258
			c0.308,0.098,0.565,0.264,0.74,0.473c0.193-0.572,0.767-0.988,1.444-0.988c0.695,0,1.278,0.436,1.457,1.033
			c0.34,0.047,0.629,0.199,0.806,0.41c0.382,0.064,0.717,0.238,0.963,0.482c0.224,0.01,0.436,0.047,0.631,0.107
			c-0.003-0.027-0.007-0.053-0.007-0.082v-0.002c-0.433,0-0.784-0.295-0.784-0.66c0-0.363,0.351-0.658,0.784-0.658
			s0.784,0.295,0.784,0.658c0,0.02-0.002,0.039-0.003,0.057c0.08,0.043,0.149,0.109,0.204,0.189c0.164-0.15,0.415-0.246,0.696-0.246
			c0.434,0,0.795,0.227,0.879,0.529c0.147-0.227,0.337-0.365,0.546-0.365c0.17,0,0.328,0.092,0.46,0.248
			c0.095-0.064,0.201-0.117,0.315-0.158c-0.182-0.072-0.316-0.287-0.316-0.545c0-0.318,0.201-0.576,0.449-0.576
			s0.448,0.258,0.448,0.576c0,0.189-0.073,0.357-0.184,0.461c0.044-0.004,0.089-0.006,0.134-0.006c0.069,0,0.135,0.006,0.201,0.014
			c-0.094-0.188-0.151-0.432-0.151-0.701c0-0.594,0.282-1.076,0.628-1.076c0.347,0,0.628,0.482,0.628,1.076
			c0,0.445-0.157,0.828-0.381,0.992c0.131,0.105,0.233,0.232,0.299,0.373c0.031-0.025,0.063-0.049,0.096-0.072
			c-0.009-0.064-0.014-0.133-0.014-0.201c0-0.047,0.003-0.092,0.007-0.137c-0.004-0.066-0.007-0.135-0.007-0.205
			c0-0.793,0.261-1.436,0.583-1.436c0.23,0,0.428,0.33,0.523,0.805c0.202,0.146,0.352,0.416,0.402,0.74h0.023
			c-0.004-0.027-0.006-0.053-0.006-0.08c0-0.123,0.036-0.24,0.099-0.342c-0.063-0.117-0.099-0.25-0.099-0.391
			c0-0.449,0.362-0.813,0.807-0.813c0.003,0,0.006,0,0.009,0c-0.216-0.141-0.367-0.449-0.367-0.809c0-0.492,0.281-0.893,0.628-0.893
			c0.347,0,0.629,0.4,0.629,0.893c0,0.459-0.245,0.836-0.56,0.885c0.098,0.045,0.185,0.109,0.256,0.188
			c0.087-0.115,0.191-0.184,0.304-0.184c0.083,0,0.162,0.039,0.232,0.105c0.194-0.066,0.41-0.105,0.638-0.105
			c0.117,0,0.23,0.012,0.339,0.031c0.123-0.068,0.287-0.111,0.468-0.111c0.217,0,0.408,0.061,0.535,0.154v-0.535
			c-0.316-0.111-0.535-0.35-0.535-0.625c0-0.383,0.422-0.695,0.941-0.695c0.52,0,0.942,0.313,0.942,0.695
			c0,0.021-0.002,0.045-0.005,0.066h0.005c0-0.158,0.038-0.305,0.102-0.426c-0.064-0.092-0.102-0.201-0.102-0.318
			c0-0.324,0.284-0.588,0.634-0.588c0.351,0,0.635,0.264,0.635,0.588c0,0.141-0.055,0.268-0.143,0.369l1.772-1.195l5.203,17.674
			l-9.778,7.713l-27.003-0.74l-8.523-4.418L82.35,124.806z"/>
	</g>
	<g>
		<defs>
			<rect id="SVGID_103_" x="15.443" y="85.368" width="319.034" height="69.023"/>
		</defs>
		<clipPath id="SVGID_6_">
			<use xlink:href="#SVGID_103_"  overflow="visible"/>
		</clipPath>
		<path clip-path="url(#SVGID_6_)" fill="none" stroke="#000000" stroke-width="1.077" stroke-miterlimit="10" d="M111.194,150.634
			c-1.288,1.842-30.543-2.096-30.478-3.969c0.612-17.332,6.519-39.973,7.691-41.146c1.173-1.172,7.927-5.479,7.927-5.479
			l14.222,1.553l4.92,8.158c0,0-0.864,18.352,2.447,32.318C118.802,145.776,112.621,148.595,111.194,150.634z"/>
		
			<path clip-path="url(#SVGID_6_)" fill="none" stroke="#000000" stroke-width="1.077" stroke-linecap="round" stroke-linejoin="round" stroke-miterlimit="10" d="
			M101.251,103.175c12.405-25.998,36.145-12.082,27.734,2.906c-8.411,14.986-5.875,21.563,2.777,30.818"/>
	</g>
	
		<rect x="125.644" y="130.783" transform="matrix(0.7071 0.7071 -0.7071 0.7071 135.406 -53.0722)" fill="#2268A8" width="12.236" height="12.234"/>
	
		<rect x="125.644" y="130.783" transform="matrix(0.7071 0.7071 -0.7071 0.7071 135.406 -53.0722)" fill="none" stroke="#000000" stroke-width="1.077" stroke-linecap="round" stroke-linejoin="round" stroke-miterlimit="10" width="12.236" height="12.234"/>
	
		<line fill="none" stroke="#000000" stroke-width="1.077" stroke-linecap="round" stroke-linejoin="round" stroke-miterlimit="10" x1="127.727" y1="135.181" x2="130.494" y2="132.593"/>
	<g>
		<defs>
			<rect id="SVGID_105_" x="15.443" y="85.368" width="319.034" height="69.023"/>
		</defs>
		<clipPath id="SVGID_8_">
			<use xlink:href="#SVGID_105_"  overflow="visible"/>
		</clipPath>
		
			<path clip-path="url(#SVGID_8_)" fill="none" stroke="#000000" stroke-width="1.077" stroke-linecap="round" stroke-linejoin="round" stroke-miterlimit="10" d="
			M115.476,109.751c-5.302,23.449-1.529,28.955-1.529,28.955l-2.753,11.93"/>
	</g>
	
		<line fill="none" stroke="#000000" stroke-width="1.077" stroke-linecap="round" stroke-linejoin="round" stroke-miterlimit="10" x1="117.923" y1="142.069" x2="113.947" y2="138.706"/>
	<g>
		<defs>
			<rect id="SVGID_107_" x="15.443" y="85.368" width="319.034" height="69.023"/>
		</defs>
		<clipPath id="SVGID_10_">
			<use xlink:href="#SVGID_107_"  overflow="visible"/>
		</clipPath>
		
			<path clip-path="url(#SVGID_10_)" fill="none" stroke="#000000" stroke-width="1.077" stroke-linecap="round" stroke-linejoin="round" stroke-miterlimit="10" d="
			M115.476,109.751c0,0-7.035,17.332-4.282,40.885"/>
		<path clip-path="url(#SVGID_10_)" fill="#E5E2D3" d="M196.026,111.401l1.481-0.502l3.722-1.262
			c1.866-0.633,3.891,0.367,4.523,2.232l0.012,0.035c0.633,1.867-0.366,3.893-2.232,4.525l-3.576,1.211
			c-0.042,0.271-0.116,0.537-0.219,0.791l5.289-0.959c1.934-0.352,3.769,0.846,4.101,2.67l0.006,0.037
			c0.331,1.826-0.968,3.59-2.901,3.939l-9.763,1.771l8.034-1.248c1.95-0.303,3.751,0.869,4.023,2.619l0.006,0.035
			c0.272,1.75-1.089,3.414-3.039,3.717l-10.005,1.555l6.412-0.344c1.64-0.094,3.044,1.16,3.138,2.799l0.001,0.033
			c0.09,1.586-1.081,2.949-2.642,3.119l0.012,0.004c-6.484,0.867-19.987,2.521-19.987,2.521s-6.215,0.672-10.411-3.504l-19.53,3.811
			v-21.063c0,0,11.273,0.727,14.185-0.006c2.912-0.734,5.072-7.563,7.964-8.293C177.706,110.872,196.026,111.401,196.026,111.401"/>
	</g>
	
		<line fill="none" stroke="#000000" stroke-width="1.077" stroke-linecap="round" stroke-linejoin="round" stroke-miterlimit="10" x1="174.174" y1="136.521" x2="152.481" y2="141.009"/>
	<g>
		<defs>
			<rect id="SVGID_109_" x="15.443" y="85.368" width="319.034" height="69.023"/>
		</defs>
		<clipPath id="SVGID_12_">
			<use xlink:href="#SVGID_109_"  overflow="visible"/>
		</clipPath>
		<path clip-path="url(#SVGID_12_)" fill="#E5E2D3" d="M194.499,126.198c-1.951,0.303-3.311,1.967-3.039,3.717l0.005,0.035
			c0.272,1.75,2.073,2.922,4.023,2.619l10.005-1.555c1.951-0.303,3.311-1.967,3.039-3.717l-0.005-0.035
			c-0.272-1.748-2.074-2.922-4.024-2.619L194.499,126.198z"/>
		
			<path clip-path="url(#SVGID_12_)" fill="none" stroke="#000000" stroke-width="1.077" stroke-linecap="round" stroke-linejoin="round" stroke-miterlimit="10" d="
			M194.499,126.198c-1.951,0.303-3.311,1.967-3.039,3.717l0.005,0.035c0.272,1.75,2.073,2.922,4.023,2.619l10.005-1.555
			c1.951-0.303,3.311-1.967,3.039-3.717l-0.005-0.035c-0.272-1.748-2.074-2.922-4.024-2.619L194.499,126.198z"/>
		<path clip-path="url(#SVGID_12_)" fill="#E5E2D3" d="M195.107,119.272c-1.934,0.352-3.233,2.115-2.901,3.941l0.006,0.035
			c0.331,1.826,2.167,3.021,4.1,2.672l9.92-1.799c1.933-0.352,3.232-2.115,2.901-3.941l-0.006-0.037
			c-0.332-1.826-2.167-3.02-4.101-2.67L195.107,119.272z"/>
		
			<path clip-path="url(#SVGID_12_)" fill="none" stroke="#000000" stroke-width="1.077" stroke-linecap="round" stroke-linejoin="round" stroke-miterlimit="10" d="
			M195.107,119.272c-1.934,0.352-3.233,2.115-2.901,3.941l0.006,0.035c0.331,1.826,2.167,3.021,4.1,2.672l9.92-1.799
			c1.933-0.352,3.232-2.115,2.901-3.941l-0.006-0.037c-0.332-1.826-2.167-3.02-4.101-2.67L195.107,119.272z"/>
		<path clip-path="url(#SVGID_12_)" fill="#E5E2D3" d="M191.66,112.882c-1.865,0.631-2.865,2.656-2.232,4.521l0.011,0.037
			c0.633,1.865,2.658,2.865,4.523,2.232l9.57-3.244c1.866-0.631,2.865-2.656,2.232-4.523l-0.012-0.035
			c-0.632-1.865-2.657-2.865-4.522-2.232L191.66,112.882z"/>
		
			<path clip-path="url(#SVGID_12_)" fill="none" stroke="#000000" stroke-width="1.077" stroke-linecap="round" stroke-linejoin="round" stroke-miterlimit="10" d="
			M191.66,112.882c-1.865,0.631-2.865,2.656-2.232,4.521l0.011,0.037c0.633,1.865,2.658,2.865,4.523,2.232l9.57-3.244
			c1.866-0.631,2.865-2.656,2.232-4.523l-0.012-0.035c-0.632-1.865-2.657-2.865-4.522-2.232L191.66,112.882z"/>
		<path clip-path="url(#SVGID_12_)" fill="#E5E2D3" d="M202.409,138.179c-6.484,0.869-19.987,2.523-19.987,2.523
			s-10.265,1.111-13.316-8.381"/>
		
			<path clip-path="url(#SVGID_12_)" fill="none" stroke="#000000" stroke-width="1.077" stroke-linecap="round" stroke-linejoin="round" stroke-miterlimit="10" d="
			M202.409,138.179c-6.484,0.869-19.987,2.523-19.987,2.523s-10.265,1.111-13.316-8.381"/>
		<path clip-path="url(#SVGID_12_)" fill="#E5E2D3" d="M193.489,132.702c-1.64,0.094-2.894,1.498-2.8,3.137l0.001,0.033
			c0.094,1.639,1.498,2.893,3.138,2.801l8.411-0.479c1.639-0.094,2.893-1.498,2.8-3.137l-0.002-0.033
			c-0.093-1.639-1.498-2.893-3.137-2.801L193.489,132.702z"/>
		
			<path clip-path="url(#SVGID_12_)" fill="none" stroke="#000000" stroke-width="1.077" stroke-linecap="round" stroke-linejoin="round" stroke-miterlimit="10" d="
			M193.489,132.702c-1.64,0.094-2.894,1.498-2.8,3.137l0.001,0.033c0.094,1.639,1.498,2.893,3.138,2.801l8.411-0.479
			c1.639-0.094,2.893-1.498,2.8-3.137l-0.002-0.033c-0.093-1.639-1.498-2.893-3.137-2.801L193.489,132.702z"/>
		<path clip-path="url(#SVGID_12_)" fill="#E5E2D3" d="M152.481,119.948c0,0,11.273,0.725,14.185-0.01
			c2.912-0.732,3.259-6.781,9.184-10.203c1.686-0.973,7.19-7.047,8.365-8.979c1.176-1.93,1.816-5.313,5.174-4.469
			c4.067,1.021,2.525,5.461,1.356,8.002c-4.552,9.898-5.255,13.068-5.255,13.068s-0.185,9.547-4.926,10.742"/>
		
			<path clip-path="url(#SVGID_12_)" fill="none" stroke="#000000" stroke-width="1.077" stroke-linecap="round" stroke-linejoin="round" stroke-miterlimit="10" d="
			M152.481,119.948c0,0,11.273,0.725,14.185-0.01c2.912-0.732,3.259-6.781,9.184-10.203c1.686-0.973,7.19-7.047,8.365-8.979
			c1.176-1.93,1.816-5.313,5.174-4.469c4.067,1.021,2.525,5.461,1.356,8.002c-4.552,9.898-5.255,13.068-5.255,13.068
			s-0.185,9.547-4.926,10.742"/>
	</g>
	
		<line fill="none" stroke="#000000" stroke-width="1.077" stroke-linecap="round" stroke-linejoin="round" stroke-miterlimit="10" x1="187.698" y1="111.245" x2="196.026" y2="111.401"/>
	<g>
		<defs>
			<rect id="SVGID_111_" x="15.443" y="85.368" width="319.034" height="69.023"/>
		</defs>
		<clipPath id="SVGID_14_">
			<use xlink:href="#SVGID_111_"  overflow="visible"/>
		</clipPath>
		<path clip-path="url(#SVGID_14_)" fill="#2268A8" d="M162.816,139.237c0.187,1.867-1.175,3.533-3.042,3.721l-6.279,0.629
			c-1.867,0.188-3.532-1.174-3.72-3.041l-1.929-19.227c-0.187-1.867,1.175-3.531,3.043-3.719l6.278-0.631
			c1.868-0.188,3.533,1.176,3.72,3.043L162.816,139.237z"/>
		
			<path clip-path="url(#SVGID_14_)" fill="none" stroke="#000000" stroke-width="0.959" stroke-linecap="round" stroke-linejoin="round" stroke-miterlimit="10" d="
			M162.816,139.237c0.187,1.867-1.175,3.533-3.042,3.721l-6.279,0.629c-1.867,0.188-3.532-1.174-3.72-3.041l-1.929-19.227
			c-0.187-1.867,1.175-3.531,3.043-3.719l6.278-0.631c1.868-0.188,3.533,1.176,3.72,3.043L162.816,139.237z"/>
	</g>
</g>
</svg>
