<?xml version="1.0" encoding="utf-8"?>
<!-- Generator: Adobe Illustrator 16.0.0, SVG Export Plug-In . SVG Version: 6.00 Build 0)  -->
<!DOCTYPE svg PUBLIC "-//W3C//DTD SVG 1.1//EN" "http://www.w3.org/Graphics/SVG/1.1/DTD/svg11.dtd">
<svg version="1.1" id="Calque_1" xmlns="http://www.w3.org/2000/svg" xmlns:xlink="http://www.w3.org/1999/xlink" x="0px" y="0px"
	 width="349.92px" height="239.76px" viewBox="0 0 349.92 239.76" enable-background="new 0 0 349.92 239.76" xml:space="preserve">
<g>
	<path fill="#E5E2D3" d="M12.15,2C11.117,2.008,2,2.357,2,12.15v215.459c0.008,1.033,0.357,10.15,10.15,10.15h325.62
		c1.032-0.008,10.15-0.357,10.15-10.15V12.15C347.912,11.117,347.563,2,337.77,2H12.15z"/>
	<path fill="none" stroke="#000000" stroke-width="4" stroke-linejoin="round" stroke-miterlimit="10" d="M12.15,2
		C11.117,2.008,2,2.357,2,12.15v215.459c0.008,1.033,0.357,10.15,10.15,10.15h325.62c1.032-0.008,10.15-0.357,10.15-10.15V12.15
		C347.912,11.117,347.563,2,337.77,2H12.15z"/>
</g>
<g>
	<g>
		<defs>
			<rect id="SVGID_113_" x="39.278" y="27.8" width="288.316" height="184.16"/>
		</defs>
		<clipPath id="SVGID_2_">
			<use xlink:href="#SVGID_113_"  overflow="visible"/>
		</clipPath>
		<path clip-path="url(#SVGID_2_)" fill="#E5E2D3" d="M106.085,72.517c0,18.254-14.798,33.051-33.052,33.051
			S39.981,90.771,39.981,72.517s14.798-33.053,33.052-33.053S106.085,54.263,106.085,72.517"/>
		
			<circle clip-path="url(#SVGID_2_)" fill="none" stroke="#000000" stroke-width="1.408" stroke-linecap="round" stroke-linejoin="round" stroke-miterlimit="10" cx="73.033" cy="72.517" r="33.052"/>
	</g>
	
		<line fill="none" stroke="#000000" stroke-width="1.408" stroke-linecap="round" stroke-linejoin="round" stroke-miterlimit="10" x1="73.033" y1="96.392" x2="73.033" y2="101.56"/>
	
		<line fill="none" stroke="#000000" stroke-width="1.408" stroke-linecap="round" stroke-linejoin="round" stroke-miterlimit="10" x1="73.033" y1="43.474" x2="73.033" y2="48.64"/>
	
		<line fill="none" stroke="#000000" stroke-width="1.408" stroke-linecap="round" stroke-linejoin="round" stroke-miterlimit="10" x1="84.974" y1="93.196" x2="87.555" y2="97.669"/>
	
		<line fill="none" stroke="#000000" stroke-width="1.408" stroke-linecap="round" stroke-linejoin="round" stroke-miterlimit="10" x1="58.512" y1="47.364" x2="61.094" y2="51.837"/>
	
		<line fill="none" stroke="#000000" stroke-width="1.408" stroke-linecap="round" stroke-linejoin="round" stroke-miterlimit="10" x1="98.186" y1="87.038" x2="93.713" y2="84.456"/>
	
		<line fill="none" stroke="#000000" stroke-width="1.408" stroke-linecap="round" stroke-linejoin="round" stroke-miterlimit="10" x1="47.881" y1="57.995" x2="52.354" y2="60.577"/>
	
		<line fill="none" stroke="#000000" stroke-width="1.408" stroke-linecap="round" stroke-linejoin="round" stroke-miterlimit="10" x1="102.076" y1="72.517" x2="96.909" y2="72.517"/>
	
		<line fill="none" stroke="#000000" stroke-width="1.408" stroke-linecap="round" stroke-linejoin="round" stroke-miterlimit="10" x1="49.157" y1="72.517" x2="43.99" y2="72.517"/>
	
		<line fill="none" stroke="#000000" stroke-width="1.408" stroke-linecap="round" stroke-linejoin="round" stroke-miterlimit="10" x1="52.353" y1="84.456" x2="47.881" y2="87.038"/>
	
		<line fill="none" stroke="#000000" stroke-width="1.408" stroke-linecap="round" stroke-linejoin="round" stroke-miterlimit="10" x1="98.186" y1="57.995" x2="93.714" y2="60.577"/>
	
		<line fill="none" stroke="#000000" stroke-width="1.408" stroke-linecap="round" stroke-linejoin="round" stroke-miterlimit="10" x1="87.556" y1="47.364" x2="84.974" y2="51.837"/>
	
		<line fill="none" stroke="#000000" stroke-width="1.408" stroke-linecap="round" stroke-linejoin="round" stroke-miterlimit="10" x1="61.093" y1="93.196" x2="58.512" y2="97.669"/>
	<g>
		<defs>
			<rect id="SVGID_115_" x="39.278" y="27.8" width="288.316" height="184.16"/>
		</defs>
		<clipPath id="SVGID_4_">
			<use xlink:href="#SVGID_115_"  overflow="visible"/>
		</clipPath>
		<path clip-path="url(#SVGID_4_)" fill="#AB2E23" d="M77.799,58.802l-5.251,11.1l-15.71-14.533
			c-0.669-0.619-1.715-0.578-2.334,0.092c-0.62,0.67-0.579,1.715,0.091,2.334l17.362,16.063c0.386,0.357,0.92,0.51,1.437,0.41
			s0.953-0.439,1.18-0.916l6.213-13.137c0.39-0.824,0.038-1.811-0.787-2.199C79.174,57.624,78.189,57.976,77.799,58.802"/>
		
			<path clip-path="url(#SVGID_4_)" fill="none" stroke="#000000" stroke-width="1.408" stroke-linecap="round" stroke-linejoin="round" stroke-miterlimit="10" d="
			M77.799,58.802l-5.251,11.1l-15.71-14.533c-0.669-0.619-1.715-0.578-2.334,0.092c-0.62,0.67-0.579,1.715,0.091,2.334
			l17.362,16.063c0.386,0.357,0.92,0.51,1.437,0.41s0.953-0.439,1.18-0.916l6.213-13.137c0.39-0.824,0.038-1.811-0.787-2.199
			C79.174,57.624,78.189,57.976,77.799,58.802z"/>
		<path clip-path="url(#SVGID_4_)" fill="#4F5666" d="M75.88,72.517c0,1.572-1.274,2.846-2.846,2.846
			c-1.572,0-2.848-1.273-2.848-2.846s1.275-2.846,2.848-2.846C74.605,69.671,75.88,70.944,75.88,72.517"/>
		
			<circle clip-path="url(#SVGID_4_)" fill="none" stroke="#000000" stroke-width="1.408" stroke-linecap="round" stroke-linejoin="round" stroke-miterlimit="10" cx="73.033" cy="72.517" r="2.847"/>
	</g>
	<rect x="129.12" y="36.765" fill="#4F5666" width="43.433" height="4.209"/>
	
		<rect x="129.12" y="36.765" fill="none" stroke="#000000" stroke-width="1.408" stroke-linecap="round" stroke-linejoin="round" stroke-miterlimit="10" width="43.433" height="4.209"/>
	<g>
		<defs>
			<rect id="SVGID_117_" x="39.278" y="27.8" width="288.316" height="184.16"/>
		</defs>
		<clipPath id="SVGID_6_">
			<use xlink:href="#SVGID_117_"  overflow="visible"/>
		</clipPath>
		<path clip-path="url(#SVGID_6_)" fill="#E5E2D3" d="M134.427,48.155c-0.097,0-0.194-0.021-0.286-0.063
			c-0.197-0.088-0.345-0.262-0.396-0.473c-0.343-1.379-1.394-1.516-3.886-1.516c-2.495,0-3.544,0.137-3.888,1.516
			c-0.053,0.211-0.198,0.385-0.397,0.473c-0.091,0.041-0.188,0.063-0.285,0.063c-0.115,0-0.229-0.029-0.332-0.084
			c-1.835-0.979-3.323-2.467-4.301-4.301c-0.103-0.191-0.111-0.42-0.022-0.617c0.088-0.199,0.262-0.344,0.474-0.398
			c1.379-0.342,1.516-1.391,1.516-3.885s-0.137-3.545-1.516-3.887c-0.212-0.055-0.386-0.199-0.474-0.398
			c-0.089-0.197-0.08-0.426,0.022-0.617c0.978-1.834,2.466-3.322,4.301-4.301c0.103-0.055,0.217-0.084,0.332-0.084
			c0.097,0,0.194,0.021,0.285,0.061c0.199,0.09,0.345,0.264,0.397,0.475c0.344,1.379,1.394,1.516,3.888,1.516
			c2.492,0,3.543-0.137,3.886-1.516c0.052-0.211,0.199-0.385,0.396-0.475c0.092-0.039,0.189-0.061,0.286-0.061
			c0.114,0,0.229,0.029,0.331,0.084c1.835,0.979,3.323,2.465,4.302,4.301c0.104,0.191,0.111,0.418,0.023,0.617
			c-0.089,0.199-0.263,0.344-0.474,0.398c-1.38,0.342-1.517,1.393-1.517,3.887c0,2.492,0.137,3.543,1.517,3.885
			c0.211,0.055,0.385,0.199,0.474,0.398c0.088,0.197,0.08,0.426-0.023,0.617c-0.979,1.836-2.467,3.322-4.302,4.301
			C134.655,48.126,134.541,48.155,134.427,48.155"/>
		<path clip-path="url(#SVGID_6_)" d="M134.427,28.88c-0.194,0-0.389,0.041-0.572,0.121c-0.396,0.176-0.688,0.525-0.794,0.945
			c-0.204,0.826-0.714,0.982-3.202,0.982c-2.49,0-2.999-0.156-3.204-0.982c-0.105-0.42-0.398-0.77-0.795-0.945
			c-0.183-0.08-0.377-0.121-0.571-0.121c-0.229,0-0.457,0.055-0.663,0.166c-1.959,1.045-3.547,2.633-4.591,4.592
			c-0.204,0.381-0.222,0.838-0.045,1.234c0.177,0.395,0.525,0.688,0.946,0.793c0.826,0.207,0.982,0.715,0.982,3.205
			c0,2.488-0.156,2.998-0.982,3.203c-0.421,0.104-0.77,0.396-0.946,0.793s-0.159,0.852,0.045,1.234
			c1.044,1.959,2.632,3.547,4.591,4.592c0.206,0.111,0.434,0.166,0.663,0.166c0.194,0,0.389-0.041,0.571-0.121
			c0.396-0.176,0.689-0.525,0.795-0.945c0.205-0.826,0.714-0.984,3.204-0.984c2.488,0,2.998,0.156,3.202,0.982
			c0.105,0.422,0.398,0.77,0.794,0.947c0.183,0.08,0.378,0.121,0.572,0.121c0.229,0,0.456-0.055,0.662-0.166
			c1.959-1.045,3.547-2.633,4.592-4.592c0.205-0.381,0.222-0.838,0.045-1.232c-0.177-0.398-0.525-0.691-0.946-0.795
			c-0.826-0.205-0.982-0.715-0.982-3.203c0-2.49,0.156-2.998,0.982-3.205c0.421-0.105,0.77-0.398,0.946-0.793
			c0.177-0.398,0.16-0.854-0.045-1.236c-1.045-1.957-2.633-3.545-4.591-4.59C134.883,28.935,134.655,28.88,134.427,28.88
			 M134.427,30.288c1.703,0.908,3.104,2.309,4.014,4.012c-2.052,0.51-2.052,2.361-2.052,4.57c0,2.207,0,4.059,2.052,4.568
			c-0.909,1.703-2.311,3.104-4.014,4.014c-0.51-2.051-2.361-2.051-4.568-2.051c-2.208,0-4.062,0-4.57,2.051
			c-1.703-0.91-3.104-2.311-4.012-4.014c2.049-0.51,2.049-2.361,2.049-4.568c0-2.209,0-4.061-2.049-4.57
			c0.907-1.703,2.309-3.104,4.012-4.012c0.509,2.049,2.362,2.049,4.57,2.049C132.065,32.337,133.917,32.337,134.427,30.288"/>
		<path clip-path="url(#SVGID_6_)" fill="#AB2E23" d="M133.359,38.87c0,1.934-1.567,3.502-3.502,3.502s-3.502-1.568-3.502-3.502
			c0-1.936,1.567-3.502,3.502-3.502S133.359,36.935,133.359,38.87"/>
		
			<circle clip-path="url(#SVGID_6_)" fill="none" stroke="#000000" stroke-width="1.408" stroke-linecap="round" stroke-linejoin="round" stroke-miterlimit="10" cx="129.857" cy="38.87" r="3.502"/>
		<path clip-path="url(#SVGID_6_)" fill="#E5E2D3" d="M176.387,48.155c-0.098,0-0.195-0.021-0.286-0.063
			c-0.198-0.088-0.345-0.262-0.397-0.473c-0.343-1.379-1.393-1.516-3.886-1.516c-2.494,0-3.544,0.137-3.887,1.516
			c-0.053,0.211-0.199,0.385-0.397,0.473c-0.091,0.041-0.188,0.063-0.286,0.063c-0.113,0-0.228-0.029-0.331-0.084
			c-1.835-0.979-3.322-2.465-4.303-4.301c-0.102-0.191-0.11-0.42-0.021-0.617c0.088-0.199,0.263-0.344,0.473-0.398
			c1.379-0.342,1.517-1.393,1.517-3.885c0-2.494-0.138-3.545-1.517-3.887c-0.21-0.055-0.385-0.199-0.473-0.398
			c-0.089-0.199-0.08-0.426,0.021-0.617c0.98-1.836,2.468-3.322,4.303-4.301c0.104-0.055,0.218-0.084,0.331-0.084
			c0.098,0,0.195,0.021,0.286,0.063c0.198,0.088,0.345,0.262,0.397,0.473c0.343,1.379,1.393,1.516,3.887,1.516
			c2.493,0,3.543-0.137,3.886-1.516c0.053-0.211,0.199-0.385,0.397-0.475c0.091-0.039,0.188-0.061,0.286-0.061
			c0.113,0,0.228,0.029,0.331,0.084c1.836,0.979,3.323,2.467,4.302,4.301c0.102,0.191,0.111,0.42,0.022,0.617
			c-0.089,0.199-0.263,0.344-0.474,0.398c-1.379,0.342-1.516,1.393-1.516,3.887s0.137,3.543,1.516,3.885
			c0.211,0.055,0.385,0.199,0.473,0.398c0.09,0.197,0.08,0.426-0.021,0.617c-0.979,1.834-2.466,3.322-4.302,4.301
			C176.614,48.126,176.5,48.155,176.387,48.155"/>
		<path clip-path="url(#SVGID_6_)" d="M167.247,28.88c-0.228,0-0.456,0.055-0.663,0.166c-1.958,1.045-3.546,2.633-4.592,4.59
			c-0.204,0.383-0.22,0.838-0.044,1.236c0.176,0.395,0.525,0.688,0.946,0.793c0.827,0.207,0.982,0.715,0.982,3.205
			c0,2.488-0.155,2.998-0.982,3.203c-0.42,0.104-0.771,0.396-0.946,0.795c-0.176,0.395-0.16,0.852,0.044,1.232
			c1.046,1.959,2.634,3.547,4.592,4.592c0.207,0.111,0.436,0.166,0.663,0.166c0.195,0,0.391-0.041,0.572-0.121
			c0.396-0.178,0.689-0.525,0.794-0.947c0.205-0.826,0.714-0.982,3.204-0.982c2.489,0,2.998,0.158,3.203,0.984
			c0.104,0.42,0.397,0.77,0.794,0.945c0.183,0.08,0.378,0.121,0.572,0.121c0.228,0,0.456-0.055,0.662-0.166
			c1.96-1.045,3.548-2.633,4.592-4.592c0.204-0.383,0.221-0.838,0.044-1.234c-0.176-0.396-0.525-0.689-0.946-0.793
			c-0.826-0.205-0.981-0.715-0.981-3.203c0-2.49,0.155-2.998,0.981-3.205c0.421-0.105,0.771-0.398,0.946-0.793
			c0.177-0.396,0.16-0.854-0.044-1.234c-1.044-1.959-2.632-3.547-4.591-4.592c-0.207-0.111-0.436-0.166-0.663-0.166
			c-0.194,0-0.39,0.041-0.572,0.121c-0.396,0.176-0.689,0.525-0.794,0.945c-0.205,0.826-0.714,0.982-3.203,0.982
			c-2.49,0-2.999-0.156-3.204-0.982c-0.104-0.42-0.397-0.77-0.794-0.945C167.638,28.921,167.442,28.88,167.247,28.88
			 M176.387,30.288c1.703,0.908,3.104,2.309,4.012,4.012c-2.049,0.51-2.049,2.361-2.049,4.57c0,2.207,0,4.059,2.049,4.568
			c-0.908,1.703-2.309,3.104-4.012,4.014c-0.511-2.051-2.362-2.051-4.569-2.051c-2.208,0-4.061,0-4.57,2.051
			c-1.703-0.91-3.104-2.311-4.013-4.014c2.05-0.51,2.05-2.361,2.05-4.568c0-2.209,0-4.061-2.05-4.57
			c0.909-1.703,2.31-3.104,4.013-4.012c0.51,2.049,2.362,2.049,4.57,2.049C174.024,32.337,175.876,32.337,176.387,30.288"/>
		<path clip-path="url(#SVGID_6_)" fill="#2268A8" d="M175.319,38.87c0,1.934-1.568,3.502-3.502,3.502
			c-1.936,0-3.502-1.568-3.502-3.502c0-1.936,1.566-3.502,3.502-3.502C173.751,35.368,175.319,36.935,175.319,38.87"/>
		
			<circle clip-path="url(#SVGID_6_)" fill="none" stroke="#000000" stroke-width="1.408" stroke-linecap="round" stroke-linejoin="round" stroke-miterlimit="10" cx="171.817" cy="38.87" r="3.502"/>
		<path clip-path="url(#SVGID_6_)" fill="#4F5666" d="M157.654,59.854c0,3.766-13.634,3.766-13.634,0V35.319
			c0-3.766,3.053-6.816,6.816-6.816c3.765,0,6.817,3.051,6.817,6.816V59.854z"/>
		
			<path clip-path="url(#SVGID_6_)" fill="none" stroke="#000000" stroke-width="1.408" stroke-linecap="round" stroke-linejoin="round" stroke-miterlimit="10" d="
			M157.654,59.854c0,3.766-13.634,3.766-13.634,0V35.319c0-3.766,3.053-6.816,6.816-6.816c3.765,0,6.817,3.051,6.817,6.816V59.854z"
			/>
		<path clip-path="url(#SVGID_6_)" fill="#2268A8" d="M150.837,116.53c6.105,0,11.055-5.23,11.055-11.045
			c0-10.914-11.055-35.527-11.055-35.527s-11.054,24.613-11.054,35.527C139.783,111.3,144.732,116.53,150.837,116.53"/>
		<path clip-path="url(#SVGID_6_)" fill="none" stroke="#000000" stroke-width="1.408" stroke-miterlimit="10" d="M150.837,116.53
			c6.105,0,11.055-5.23,11.055-11.045c0-10.914-11.055-35.527-11.055-35.527s-11.054,24.613-11.054,35.527
			C139.783,111.3,144.732,116.53,150.837,116.53z"/>
		<path clip-path="url(#SVGID_6_)" fill="#FFFFFF" d="M159.54,105.429c0,1.684-1.364,3.049-3.05,3.049
			c-1.684,0-3.05-1.365-3.05-3.049c0-1.686,1.366-3.051,3.05-3.051C158.176,102.378,159.54,103.743,159.54,105.429"/>
	</g>
	<polygon fill="#AB2E23" points="141.641,103.585 128.939,96.249 128.939,99.714 119.21,99.714 119.21,107.454 128.939,107.454 
		128.939,110.919 	"/>
	<polygon fill="none" stroke="#000000" stroke-width="1.408" stroke-linejoin="round" stroke-miterlimit="10" points="
		141.641,103.585 128.939,96.249 128.939,99.714 119.21,99.714 119.21,107.454 128.939,107.454 128.939,110.919 	"/>
	<rect x="205.427" y="36.765" fill="#4F5666" width="43.434" height="4.209"/>
	
		<rect x="205.427" y="36.765" fill="none" stroke="#000000" stroke-width="1.408" stroke-linecap="round" stroke-linejoin="round" stroke-miterlimit="10" width="43.434" height="4.209"/>
	<g>
		<defs>
			<rect id="SVGID_119_" x="39.278" y="27.8" width="288.316" height="184.16"/>
		</defs>
		<clipPath id="SVGID_8_">
			<use xlink:href="#SVGID_119_"  overflow="visible"/>
		</clipPath>
		<path clip-path="url(#SVGID_8_)" fill="#E5E2D3" d="M201.594,48.155c-0.114,0-0.228-0.029-0.331-0.084
			c-1.836-0.979-3.323-2.467-4.302-4.301c-0.103-0.191-0.11-0.42-0.022-0.617c0.088-0.199,0.264-0.344,0.474-0.398
			c1.379-0.342,1.516-1.391,1.516-3.885s-0.137-3.545-1.516-3.887c-0.211-0.055-0.386-0.199-0.474-0.398s-0.08-0.426,0.022-0.617
			c0.979-1.834,2.466-3.32,4.302-4.301c0.104-0.055,0.217-0.084,0.331-0.084c0.097,0,0.195,0.021,0.286,0.061
			c0.198,0.09,0.345,0.264,0.396,0.475c0.344,1.379,1.394,1.516,3.888,1.516s3.544-0.137,3.887-1.516
			c0.052-0.211,0.199-0.385,0.397-0.475c0.091-0.039,0.188-0.061,0.285-0.061c0.114,0,0.229,0.029,0.331,0.084
			c1.835,0.979,3.323,2.467,4.303,4.301c0.102,0.191,0.109,0.42,0.021,0.617c-0.088,0.199-0.263,0.344-0.473,0.398
			c-1.379,0.342-1.517,1.393-1.517,3.887s0.138,3.543,1.517,3.885c0.21,0.055,0.385,0.199,0.473,0.398
			c0.088,0.197,0.08,0.426-0.021,0.617c-0.979,1.836-2.468,3.322-4.303,4.301c-0.103,0.055-0.217,0.084-0.331,0.084
			c-0.098,0-0.194-0.021-0.285-0.063c-0.198-0.088-0.346-0.262-0.397-0.473c-0.343-1.379-1.393-1.516-3.887-1.516
			s-3.544,0.137-3.888,1.516c-0.052,0.211-0.198,0.385-0.396,0.473C201.789,48.134,201.69,48.155,201.594,48.155"/>
		<path clip-path="url(#SVGID_8_)" d="M201.594,28.88c-0.229,0-0.456,0.055-0.662,0.166c-1.959,1.045-3.547,2.633-4.592,4.59
			c-0.204,0.383-0.221,0.84-0.045,1.236c0.177,0.395,0.526,0.688,0.946,0.793c0.827,0.207,0.983,0.715,0.983,3.205
			c0,2.488-0.156,2.998-0.982,3.203c-0.421,0.104-0.77,0.396-0.947,0.793c-0.176,0.396-0.159,0.852,0.045,1.234
			c1.045,1.959,2.633,3.547,4.592,4.592c0.206,0.111,0.434,0.166,0.662,0.166c0.194,0,0.39-0.041,0.571-0.121
			c0.397-0.176,0.69-0.525,0.794-0.945c0.206-0.826,0.716-0.984,3.205-0.984s2.998,0.158,3.203,0.984
			c0.105,0.42,0.398,0.768,0.794,0.945c0.183,0.08,0.377,0.121,0.572,0.121c0.228,0,0.456-0.055,0.663-0.166
			c1.959-1.045,3.546-2.633,4.591-4.592c0.204-0.383,0.22-0.838,0.044-1.234s-0.524-0.689-0.946-0.793
			c-0.825-0.205-0.981-0.715-0.981-3.203c0-2.49,0.156-2.998,0.981-3.205c0.422-0.105,0.771-0.398,0.946-0.793
			c0.176-0.396,0.16-0.854-0.044-1.234c-1.045-1.959-2.632-3.547-4.591-4.592c-0.207-0.111-0.436-0.166-0.663-0.166
			c-0.195,0-0.39,0.041-0.572,0.121c-0.396,0.176-0.688,0.525-0.794,0.945c-0.205,0.826-0.714,0.982-3.203,0.982
			s-2.999-0.156-3.205-0.982c-0.104-0.42-0.396-0.77-0.794-0.945C201.983,28.921,201.788,28.88,201.594,28.88 M210.733,30.288
			c1.703,0.908,3.104,2.309,4.012,4.012c-2.05,0.51-2.05,2.361-2.05,4.57c0,2.207,0,4.059,2.05,4.568
			c-0.908,1.703-2.309,3.104-4.012,4.014c-0.51-2.051-2.362-2.051-4.569-2.051c-2.208,0-4.06,0-4.57,2.051
			c-1.702-0.91-3.104-2.311-4.013-4.014c2.051-0.51,2.051-2.361,2.051-4.568c0-2.209,0-4.061-2.051-4.57
			c0.909-1.703,2.311-3.104,4.013-4.012c0.511,2.049,2.362,2.049,4.57,2.049C208.371,32.337,210.224,32.337,210.733,30.288"/>
		<path clip-path="url(#SVGID_8_)" fill="#AB2E23" d="M209.666,38.87c0,1.934-1.568,3.502-3.502,3.502
			c-1.936,0-3.502-1.568-3.502-3.502c0-1.936,1.566-3.502,3.502-3.502C208.098,35.368,209.666,36.935,209.666,38.87"/>
		
			<circle clip-path="url(#SVGID_8_)" fill="none" stroke="#000000" stroke-width="1.408" stroke-linecap="round" stroke-linejoin="round" stroke-miterlimit="10" cx="206.164" cy="38.87" r="3.502"/>
		<path clip-path="url(#SVGID_8_)" fill="#E5E2D3" d="M243.554,48.155c-0.114,0-0.229-0.029-0.331-0.084
			c-1.835-0.979-3.323-2.465-4.303-4.301c-0.103-0.191-0.11-0.42-0.022-0.617c0.088-0.199,0.264-0.344,0.474-0.398
			c1.379-0.342,1.516-1.391,1.516-3.885s-0.137-3.545-1.516-3.887c-0.21-0.055-0.386-0.199-0.474-0.398s-0.08-0.426,0.022-0.617
			c0.979-1.836,2.468-3.322,4.303-4.301c0.103-0.055,0.217-0.084,0.331-0.084c0.097,0,0.195,0.021,0.286,0.063
			c0.198,0.088,0.345,0.262,0.396,0.473c0.344,1.379,1.393,1.516,3.887,1.516c2.493,0,3.544-0.137,3.887-1.516
			c0.052-0.211,0.199-0.385,0.396-0.475c0.092-0.039,0.189-0.061,0.286-0.061c0.114,0,0.229,0.029,0.331,0.084
			c1.835,0.979,3.323,2.465,4.302,4.301c0.104,0.191,0.111,0.418,0.023,0.617s-0.263,0.344-0.474,0.398
			c-1.379,0.342-1.517,1.393-1.517,3.887s0.138,3.543,1.517,3.885c0.211,0.055,0.385,0.199,0.474,0.398
			c0.088,0.197,0.08,0.426-0.023,0.617c-0.979,1.836-2.467,3.322-4.302,4.301c-0.103,0.055-0.217,0.084-0.331,0.084
			c-0.097,0-0.194-0.021-0.286-0.063c-0.197-0.088-0.345-0.262-0.396-0.473c-0.343-1.379-1.394-1.516-3.887-1.516
			c-2.494,0-3.543,0.137-3.887,1.516c-0.052,0.211-0.198,0.385-0.396,0.473C243.749,48.134,243.65,48.155,243.554,48.155"/>
		<path clip-path="url(#SVGID_8_)" d="M243.554,28.88c-0.229,0-0.456,0.055-0.662,0.166c-1.959,1.045-3.547,2.633-4.592,4.59
			c-0.205,0.383-0.222,0.838-0.046,1.236c0.178,0.395,0.526,0.688,0.947,0.793c0.826,0.207,0.982,0.715,0.982,3.205
			c0,2.488-0.156,2.998-0.982,3.203c-0.421,0.104-0.77,0.396-0.947,0.795c-0.176,0.395-0.159,0.852,0.046,1.232
			c1.045,1.959,2.633,3.547,4.592,4.592c0.207,0.111,0.434,0.166,0.662,0.166c0.194,0,0.39-0.041,0.571-0.121
			c0.397-0.178,0.69-0.525,0.794-0.947c0.206-0.826,0.716-0.982,3.204-0.982c2.489,0,2.998,0.158,3.203,0.984
			c0.105,0.42,0.398,0.768,0.794,0.945c0.183,0.08,0.377,0.121,0.572,0.121c0.228,0,0.456-0.055,0.663-0.166
			c1.958-1.045,3.546-2.633,4.592-4.592c0.204-0.381,0.22-0.838,0.044-1.232c-0.176-0.398-0.525-0.691-0.947-0.795
			c-0.825-0.205-0.981-0.715-0.981-3.203c0-2.49,0.156-2.998,0.982-3.205c0.421-0.105,0.771-0.398,0.946-0.793
			c0.176-0.398,0.16-0.854-0.044-1.236c-1.046-1.957-2.634-3.545-4.592-4.59c-0.207-0.111-0.436-0.166-0.663-0.166
			c-0.195,0-0.39,0.041-0.572,0.121c-0.396,0.176-0.688,0.525-0.794,0.945c-0.205,0.826-0.714,0.982-3.203,0.982
			c-2.488,0-2.998-0.156-3.204-0.98c-0.104-0.422-0.396-0.771-0.794-0.947C243.943,28.921,243.748,28.88,243.554,28.88
			 M252.692,30.288c1.703,0.908,3.104,2.309,4.013,4.012c-2.05,0.51-2.05,2.361-2.05,4.57c0,2.207,0,4.059,2.05,4.568
			c-0.909,1.703-2.31,3.104-4.013,4.014c-0.51-2.051-2.362-2.051-4.569-2.051c-2.208,0-4.06,0-4.569,2.051
			c-1.703-0.91-3.104-2.311-4.013-4.014c2.05-0.51,2.05-2.361,2.05-4.568c0-2.209,0-4.061-2.05-4.57
			c0.909-1.703,2.31-3.104,4.013-4.012c0.51,2.049,2.361,2.049,4.569,2.049C250.33,32.337,252.183,32.337,252.692,30.288"/>
		<path clip-path="url(#SVGID_8_)" fill="#2268A8" d="M251.625,38.87c0,1.934-1.568,3.502-3.502,3.502
			c-1.936,0-3.502-1.568-3.502-3.502c0-1.936,1.566-3.502,3.502-3.502C250.057,35.368,251.625,36.935,251.625,38.87"/>
		
			<circle clip-path="url(#SVGID_8_)" fill="none" stroke="#000000" stroke-width="1.408" stroke-linecap="round" stroke-linejoin="round" stroke-miterlimit="10" cx="248.123" cy="38.87" r="3.502"/>
		<path clip-path="url(#SVGID_8_)" fill="#4F5666" d="M233.96,59.854c0,3.766-13.633,3.766-13.633,0V35.319
			c0-3.766,3.052-6.816,6.815-6.816c3.766,0,6.817,3.051,6.817,6.816V59.854z"/>
		
			<path clip-path="url(#SVGID_8_)" fill="none" stroke="#000000" stroke-width="1.408" stroke-linecap="round" stroke-linejoin="round" stroke-miterlimit="10" d="
			M233.96,59.854c0,3.766-13.633,3.766-13.633,0V35.319c0-3.766,3.052-6.816,6.815-6.816c3.766,0,6.817,3.051,6.817,6.816V59.854z"
			/>
		<path clip-path="url(#SVGID_8_)" fill="#2268A8" d="M227.144,116.53c6.104,0,11.054-5.23,11.054-11.045
			c0-10.914-11.054-35.527-11.054-35.527s-11.055,24.613-11.055,35.527C216.089,111.3,221.038,116.53,227.144,116.53"/>
		<path clip-path="url(#SVGID_8_)" fill="none" stroke="#000000" stroke-width="1.408" stroke-miterlimit="10" d="M227.144,116.53
			c6.104,0,11.054-5.23,11.054-11.045c0-10.914-11.054-35.527-11.054-35.527s-11.055,24.613-11.055,35.527
			C216.089,111.3,221.038,116.53,227.144,116.53z"/>
		<path clip-path="url(#SVGID_8_)" fill="#FFFFFF" d="M235.847,105.429c0,1.684-1.365,3.049-3.05,3.049s-3.05-1.365-3.05-3.049
			c0-1.686,1.365-3.051,3.05-3.051S235.847,103.743,235.847,105.429"/>
	</g>
	<polygon fill="#AB2E23" points="217.947,103.585 205.246,96.249 205.246,99.714 195.516,99.714 195.516,107.454 205.246,107.454 
		205.246,110.919 	"/>
	<polygon fill="none" stroke="#000000" stroke-width="1.408" stroke-linejoin="round" stroke-miterlimit="10" points="
		217.947,103.585 205.246,96.249 205.246,99.714 195.516,99.714 195.516,107.454 205.246,107.454 205.246,110.919 	"/>
	<text transform="matrix(1 0 0 1 184.8252 80.5742)" font-family="'Ubuntu'" font-size="24.5095">z’</text>
	<text transform="matrix(1 0 0 1 22.3252 80.5742)" font-family="'Ubuntu'" font-size="24.5095">l’</text>
	<polygon fill="#E5E2D3" points="267.563,45.774 284.083,72.517 326.892,72.517 316.537,45.774 	"/>
	<g>
		<defs>
			<rect id="SVGID_121_" x="39.278" y="27.8" width="288.316" height="184.16"/>
		</defs>
		<clipPath id="SVGID_10_">
			<use xlink:href="#SVGID_121_"  overflow="visible"/>
		</clipPath>
		
			<polygon clip-path="url(#SVGID_10_)" fill="none" stroke="#000000" stroke-width="1.408" stroke-linecap="round" stroke-linejoin="round" stroke-miterlimit="10" points="
			267.563,45.774 284.083,72.517 326.892,72.517 316.537,45.774 		"/>
	</g>
	<polygon fill="#FFFFFF" points="267.563,99.257 284.083,72.517 326.892,72.517 316.537,99.257 	"/>
	<g>
		<defs>
			<rect id="SVGID_123_" x="39.278" y="27.8" width="288.316" height="184.16"/>
		</defs>
		<clipPath id="SVGID_12_">
			<use xlink:href="#SVGID_123_"  overflow="visible"/>
		</clipPath>
		
			<polygon clip-path="url(#SVGID_12_)" fill="none" stroke="#000000" stroke-width="1.408" stroke-linecap="round" stroke-linejoin="round" stroke-miterlimit="10" points="
			267.563,99.257 284.083,72.517 326.892,72.517 316.537,99.257 		"/>
	</g>
	<polygon fill="#AB2E23" points="266.576,83.731 259.241,71.03 262.704,71.03 262.704,61.3 270.446,61.3 270.446,71.03 
		273.91,71.03 	"/>
	<polygon fill="none" stroke="#000000" stroke-width="1.408" stroke-linejoin="round" stroke-miterlimit="10" points="
		266.576,83.731 259.241,71.03 262.704,71.03 262.704,61.3 270.446,61.3 270.446,71.03 273.91,71.03 	"/>
	<g>
		<defs>
			<rect id="SVGID_125_" x="39.278" y="27.8" width="288.316" height="184.16"/>
		</defs>
		<clipPath id="SVGID_14_">
			<use xlink:href="#SVGID_125_"  overflow="visible"/>
		</clipPath>
		<path clip-path="url(#SVGID_14_)" fill="#AB2E23" d="M128.484,143.958c-5.598,0-10.15,4.553-10.15,10.15
			c0,5.596,4.553,10.15,10.15,10.15h17.077c-0.85-3.008-2.493-7.895-5.115-12.096C137.049,146.718,133.025,143.958,128.484,143.958
			 M169.799,164.259c5.597,0,10.15-4.555,10.15-10.15c0-5.598-4.554-10.15-10.15-10.15c-4.541,0-8.564,2.76-11.962,8.205
			c-2.622,4.201-4.266,9.088-5.116,12.096H169.799z M130.152,204.312c-0.47,0-0.938-0.121-1.353-0.35
			c-0.656-0.361-1.132-0.957-1.341-1.676c-0.208-0.721-0.123-1.479,0.239-2.135l16.694-30.283h-15.908
			c-8.69,0-15.761-7.07-15.761-15.76s7.07-15.76,15.761-15.76c5.374,0,10.139,2.445,14.161,7.271
			c2.525,3.027,4.705,6.912,6.496,11.564c1.79-4.652,3.971-8.537,6.495-11.564c4.023-4.826,8.788-7.271,14.162-7.271
			c8.69,0,15.759,7.07,15.759,15.76s-7.068,15.76-15.759,15.76H153.89l16.695,30.283c0.747,1.355,0.252,3.064-1.102,3.811
			c-0.414,0.229-0.882,0.348-1.353,0.348c-1.022,0-1.965-0.555-2.458-1.451l-16.531-29.986l-16.531,29.986
			C132.116,203.755,131.174,204.312,130.152,204.312"/>
		<path clip-path="url(#SVGID_14_)" d="M128.483,163.554c-5.208,0-9.446-4.238-9.446-9.445c0-5.209,4.238-9.447,9.446-9.447
			c4.282,0,8.105,2.65,11.366,7.873c2.332,3.738,3.88,8.037,4.774,11.02H128.483z M153.659,163.554
			c0.896-2.982,2.443-7.281,4.775-11.02c3.259-5.223,7.083-7.873,11.364-7.873c5.208,0,9.446,4.238,9.446,9.447
			c0,5.207-4.238,9.445-9.446,9.445H153.659z M169.799,137.644c-5.593,0-10.54,2.533-14.702,7.525
			c-2.272,2.725-4.268,6.123-5.955,10.131c-1.688-4.008-3.684-7.406-5.955-10.131c-4.163-4.992-9.11-7.525-14.703-7.525
			c-9.077,0-16.463,7.387-16.463,16.465s7.386,16.463,16.463,16.463h14.718l-16.12,29.24c-0.452,0.822-0.558,1.768-0.298,2.67
			c0.261,0.9,0.856,1.645,1.677,2.098c0.521,0.285,1.104,0.436,1.692,0.436c1.279,0,2.456-0.695,3.074-1.816l15.915-28.869
			l15.915,28.869c0.616,1.121,1.795,1.816,3.074,1.816c0.59,0,1.174-0.15,1.691-0.436c1.695-0.934,2.313-3.072,1.379-4.768
			l-16.12-29.24h14.718c9.078,0,16.464-7.385,16.464-16.463S178.877,137.644,169.799,137.644 M128.483,164.962h18.001
			c-1.64-6.18-6.869-21.707-18.001-21.707c-5.984,0-10.854,4.869-10.854,10.854S122.499,164.962,128.483,164.962 M151.798,164.962
			h18.001c5.985,0,10.854-4.869,10.854-10.854s-4.869-10.854-10.854-10.854C158.668,143.255,153.438,158.782,151.798,164.962
			 M169.799,139.052c8.303,0,15.056,6.754,15.056,15.057c0,8.301-6.753,15.055-15.056,15.055h-17.101l17.271,31.328
			c0.561,1.018,0.19,2.295-0.825,2.855c-0.321,0.176-0.669,0.26-1.013,0.26c-0.74,0-1.459-0.391-1.842-1.086l-17.147-31.107
			l-17.148,31.107c-0.383,0.693-1.101,1.086-1.841,1.086c-0.343,0-0.691-0.084-1.013-0.26c-1.017-0.561-1.387-1.838-0.825-2.855
			l17.27-31.328h-17.101c-8.301,0-15.055-6.754-15.055-15.055c0-8.303,6.754-15.057,15.055-15.057
			c11.637,0,17.803,11.99,20.658,20.18C151.996,151.042,158.162,139.052,169.799,139.052"/>
		<path clip-path="url(#SVGID_14_)" fill="#AB2E23" d="M153.357,167.11c0,2.328-1.889,4.215-4.217,4.215
			c-2.327,0-4.215-1.887-4.215-4.215s1.888-4.217,4.215-4.217C151.469,162.894,153.357,164.782,153.357,167.11"/>
		
			<circle clip-path="url(#SVGID_14_)" fill="none" stroke="#000000" stroke-width="1.408" stroke-linecap="round" stroke-linejoin="round" stroke-miterlimit="10" cx="149.142" cy="167.11" r="4.216"/>
	</g>
	<polygon fill="#E5E2D3" points="74.088,188.063 74.088,135.325 102.068,151.481 102.068,204.218 	"/>
	<polygon fill="none" stroke="#000000" stroke-width="1.408" stroke-linejoin="round" stroke-miterlimit="10" points="
		74.088,188.063 74.088,135.325 102.068,151.481 102.068,204.218 	"/>
	<polygon fill="#E5E2D3" points="72.381,189.823 72.381,137.085 100.361,153.241 100.361,205.978 	"/>
	<polygon fill="none" stroke="#000000" stroke-width="1.408" stroke-linejoin="round" stroke-miterlimit="10" points="
		72.381,189.823 72.381,137.085 100.361,153.241 100.361,205.978 	"/>
	<polygon fill="#E5E2D3" points="70.674,191.583 70.674,138.845 98.654,154.999 98.654,207.737 	"/>
	<polygon fill="none" stroke="#000000" stroke-width="1.408" stroke-linejoin="round" stroke-miterlimit="10" points="
		70.674,191.583 70.674,138.845 98.654,154.999 98.654,207.737 	"/>
	<polygon fill="#E5E2D3" points="68.967,193.343 68.967,140.604 96.947,156.759 96.947,209.497 	"/>
	<g>
		<defs>
			<rect id="SVGID_127_" x="39.278" y="27.8" width="288.316" height="184.16"/>
		</defs>
		<clipPath id="SVGID_16_">
			<use xlink:href="#SVGID_127_"  overflow="visible"/>
		</clipPath>
		
			<polygon clip-path="url(#SVGID_16_)" fill="none" stroke="#000000" stroke-width="1.408" stroke-linejoin="round" stroke-miterlimit="10" points="
			68.967,193.343 68.967,140.604 96.947,156.759 96.947,209.497 		"/>
	</g>
	<polygon fill="#E5E2D3" points="67.26,195.103 95.241,211.257 95.241,158.519 67.26,142.364 	"/>
	<g>
		<defs>
			<rect id="SVGID_129_" x="39.278" y="27.8" width="288.316" height="184.16"/>
		</defs>
		<clipPath id="SVGID_18_">
			<use xlink:href="#SVGID_129_"  overflow="visible"/>
		</clipPath>
		
			<polygon clip-path="url(#SVGID_18_)" fill="none" stroke="#000000" stroke-width="1.408" stroke-linejoin="round" stroke-miterlimit="10" points="
			67.261,195.103 67.261,142.364 95.241,158.519 95.241,211.257 		"/>
		<path clip-path="url(#SVGID_18_)" fill="#FFFFFF" d="M46.957,188.948c0,0,9.68-6.982,14.971-22.727
			c3.403-10.127,3.625-22.098,3.625-22.098l27.98,16.154c0,0-0.706,13.414-3.591,21.994c-5.402,16.08-13.246,26.35-13.246,26.35
			L46.957,188.948z"/>
		
			<path clip-path="url(#SVGID_18_)" fill="none" stroke="#000000" stroke-width="1.408" stroke-linejoin="round" stroke-miterlimit="10" d="
			M46.957,188.948c0,0,9.68-6.982,14.971-22.727c3.403-10.127,3.625-22.098,3.625-22.098l27.98,16.154
			c0,0-0.706,13.414-3.591,21.994c-5.402,16.08-13.246,26.35-13.246,26.35L46.957,188.948z"/>
	</g>
	<polygon fill="#AB2E23" points="65.553,136.331 65.553,146.185 92.747,162.792 102.069,157.411 102.069,147.558 92.747,152.94 	"/>
	<polygon fill="none" stroke="#000000" stroke-width="1.408" stroke-linejoin="round" stroke-miterlimit="10" points="
		65.553,136.331 65.553,146.185 92.747,162.792 102.069,157.411 102.069,147.558 92.747,152.94 	"/>
	<polygon fill="#AB2E23" points="74.088,131.403 65.554,136.331 92.747,152.94 102.068,147.558 	"/>
	<polygon fill="none" stroke="#000000" stroke-width="1.408" stroke-linejoin="round" stroke-miterlimit="10" points="
		74.088,131.403 65.554,136.331 92.747,152.94 102.068,147.558 	"/>
	<g>
		<defs>
			<rect id="SVGID_131_" x="39.278" y="27.8" width="288.316" height="184.16"/>
		</defs>
		<clipPath id="SVGID_20_">
			<use xlink:href="#SVGID_131_"  overflow="visible"/>
		</clipPath>
		<path clip-path="url(#SVGID_20_)" d="M70.609,175.386c0.466-1.135,0.863-2.182,1.19-3.143c0.327-0.959,0.572-1.814,0.733-2.561
			c0.16-0.748,0.217-1.367,0.167-1.861c-0.049-0.494-0.222-0.83-0.519-1.01c-0.298-0.182-0.62-0.145-0.969,0.107
			s-0.724,0.678-1.123,1.281s-0.816,1.352-1.25,2.248c-0.434,0.895-0.884,1.91-1.35,3.045s-0.865,2.189-1.197,3.16
			s-0.576,1.83-0.731,2.582c-0.155,0.75-0.211,1.371-0.167,1.861c0.043,0.49,0.214,0.824,0.511,1.006
			c0.297,0.18,0.623,0.145,0.977-0.104s0.728-0.676,1.122-1.283c0.395-0.604,0.812-1.361,1.249-2.268
			C69.691,177.542,70.144,176.522,70.609,175.386 M73.028,176.854c-1.568,3.818-3.123,6.537-4.666,8.148
			c-1.544,1.613-2.937,2.043-4.177,1.289c-1.241-0.752-1.796-2.363-1.664-4.832c0.133-2.469,0.982-5.613,2.55-9.434
			c0.78-1.9,1.562-3.523,2.348-4.873c0.786-1.352,1.561-2.422,2.323-3.213c0.762-0.791,1.494-1.303,2.197-1.529
			c0.703-0.229,1.356-0.158,1.962,0.209c1.241,0.752,1.795,2.363,1.663,4.832C75.433,169.923,74.587,173.054,73.028,176.854"/>
		<path clip-path="url(#SVGID_20_)" d="M77.363,185.372c0.26-0.633,0.421-1.236,0.484-1.811c0.064-0.576-0.007-1.129-0.212-1.662
			c-0.205-0.535-0.559-1.063-1.06-1.584c-0.501-0.523-1.187-1.047-2.057-1.576c0.95-1.959,1.892-3.963,2.826-6.014
			s1.799-3.98,2.594-5.787l5.968,3.621l-1.68,4.092l-3.979-2.414c-0.344,0.773-0.679,1.518-1.005,2.232
			c-0.327,0.715-0.618,1.336-0.874,1.861c1.459,1.158,2.296,2.602,2.509,4.324c0.213,1.725-0.146,3.723-1.078,5.992
			c-0.43,1.047-0.919,1.965-1.466,2.75c-0.548,0.787-1.137,1.396-1.766,1.832c-0.63,0.436-1.295,0.674-1.992,0.713
			c-0.699,0.041-1.414-0.162-2.146-0.607c-0.287-0.172-0.57-0.393-0.852-0.658c-0.282-0.268-0.544-0.549-0.786-0.846
			c-0.243-0.297-0.454-0.582-0.633-0.854c-0.181-0.273-0.308-0.514-0.38-0.723l2.082-3.766c0.167,0.4,0.421,0.848,0.762,1.34
			c0.341,0.494,0.813,0.924,1.418,1.291c0.731,0.443,1.385,0.465,1.961,0.064C76.578,186.784,77.032,186.181,77.363,185.372"/>
		<path clip-path="url(#SVGID_20_)" fill="#141414" d="M281.356,131.538c2.344,1.939,2.501,4.842,1.695,7.451
			c-0.132,0.428-0.305,0.848-0.494,1.256c-0.724,1.559-2.553,1.988-3.747,0.066c-0.912-1.469-1.184-3.063-0.89-4.764
			c0.069-0.393,0.049-0.801,0.121-1.191c0.217-1.172,0.804-2.104,1.846-2.721C280.377,131.603,280.866,131.571,281.356,131.538"/>
		
			<path clip-path="url(#SVGID_20_)" fill="none" stroke="#000000" stroke-width="1.408" stroke-linecap="round" stroke-linejoin="round" stroke-miterlimit="10" d="
			M281.356,131.538c2.344,1.939,2.501,4.842,1.695,7.451c-0.132,0.428-0.305,0.848-0.494,1.256
			c-0.724,1.559-2.553,1.988-3.747,0.066c-0.912-1.469-1.184-3.063-0.89-4.764c0.069-0.393,0.049-0.801,0.121-1.191
			c0.217-1.172,0.804-2.104,1.846-2.721C280.377,131.603,280.866,131.571,281.356,131.538z"/>
		<path clip-path="url(#SVGID_20_)" fill="#141414" d="M265.058,147.683c0.787-1.191,1.68-1.215,2.356,0.035
			c0.277,0.51,0.352,1.189,0.324,1.783c-0.015,0.311-0.448,0.848-0.694,0.848c-0.442,0.002-0.983-0.225-1.3-0.539
			c-0.325-0.322-0.432-0.865-0.633-1.313C265.094,148.226,265.076,147.954,265.058,147.683"/>
		
			<path clip-path="url(#SVGID_20_)" fill="none" stroke="#000000" stroke-width="1.408" stroke-linecap="round" stroke-linejoin="round" stroke-miterlimit="10" d="
			M265.058,147.683c0.787-1.191,1.68-1.215,2.356,0.035c0.277,0.51,0.352,1.189,0.324,1.783c-0.015,0.311-0.448,0.848-0.694,0.848
			c-0.442,0.002-0.983-0.225-1.3-0.539c-0.325-0.322-0.432-0.865-0.633-1.313C265.094,148.226,265.076,147.954,265.058,147.683z"/>
		<path clip-path="url(#SVGID_20_)" fill="#141414" d="M287.395,153.075c0.145,3.049-0.49,5.457-1.79,7.754
			c-1.467,2.596-2.876,5.248-3.606,8.158c-0.343,1.365-0.367,2.826,0.419,4.127c0.753,1.248,1.494,2.506,2.318,3.707
			c1.357,1.977,2.053,4.096,1.69,6.51c-0.044,0.289,0.018,0.598,0.043,0.896c0.201,2.35-0.956,4.162-2.494,5.699
			c-1.081,1.082-2.62,0.932-3.964,0.557c-2.344-0.656-4.189-2.078-5.194-4.336c-0.849-1.902-1.483-3.857-1.278-6.041
			c0.128-1.365-0.185-2.766-0.217-4.152c-0.045-1.875-0.338-3.697-1.077-5.42c-0.888-2.07-1.774-4.145-2.778-6.16
			c-1.928-3.865-2.301-7.807-0.62-11.818c0.403-0.963,1.121-1.852,1.868-2.6c1.244-1.244,2.589-2.396,3.966-3.496
			c1.164-0.93,2.383-1.811,3.667-2.561c2.053-1.201,3.454-0.93,4.98,0.693c1.595,1.697,2.762,3.715,3.574,5.893
			C287.251,151.425,287.288,152.481,287.395,153.075"/>
		
			<path clip-path="url(#SVGID_20_)" fill="none" stroke="#000000" stroke-width="1.408" stroke-linecap="round" stroke-linejoin="round" stroke-miterlimit="10" d="
			M287.395,153.075c0.145,3.049-0.49,5.457-1.79,7.754c-1.467,2.596-2.876,5.248-3.606,8.158c-0.343,1.365-0.367,2.826,0.419,4.127
			c0.753,1.248,1.494,2.506,2.318,3.707c1.357,1.977,2.053,4.096,1.69,6.51c-0.044,0.289,0.018,0.598,0.043,0.896
			c0.201,2.35-0.956,4.162-2.494,5.699c-1.081,1.082-2.62,0.932-3.964,0.557c-2.344-0.656-4.189-2.078-5.194-4.336
			c-0.849-1.902-1.483-3.857-1.278-6.041c0.128-1.365-0.185-2.766-0.217-4.152c-0.045-1.875-0.338-3.697-1.077-5.42
			c-0.888-2.07-1.774-4.145-2.778-6.16c-1.928-3.865-2.301-7.807-0.62-11.818c0.403-0.963,1.121-1.852,1.868-2.6
			c1.244-1.244,2.589-2.396,3.966-3.496c1.164-0.93,2.383-1.811,3.667-2.561c2.053-1.201,3.454-0.93,4.98,0.693
			c1.595,1.697,2.762,3.715,3.574,5.893C287.251,151.425,287.288,152.481,287.395,153.075z"/>
		<path clip-path="url(#SVGID_20_)" fill="#141414" d="M276.794,139.321c-0.204,0.625-0.314,1.322-0.647,1.891
			c-0.425,0.723-1.268,0.777-1.947,0.266c-1.37-1.035-1.928-3.797-0.756-5.375c0.667-0.896,1.914-0.725,2.411,0.396
			C276.238,137.362,276.461,138.3,276.794,139.321"/>
		
			<path clip-path="url(#SVGID_20_)" fill="none" stroke="#000000" stroke-width="1.408" stroke-linecap="round" stroke-linejoin="round" stroke-miterlimit="10" d="
			M276.794,139.321c-0.204,0.625-0.314,1.322-0.647,1.891c-0.425,0.723-1.268,0.777-1.947,0.266
			c-1.37-1.035-1.928-3.797-0.756-5.375c0.667-0.896,1.914-0.725,2.411,0.396C276.238,137.362,276.461,138.3,276.794,139.321z"/>
		<path clip-path="url(#SVGID_20_)" fill="#141414" d="M269.171,141.46c0.041-0.475,0.025-0.965,0.134-1.426
			c0.211-0.898,1.146-1.178,1.854-0.607c1.396,1.131,1.658,2.67,1.474,4.309c-0.122,1.072-1.223,1.424-2.059,0.701
			C269.68,143.665,269.226,142.661,269.171,141.46"/>
		
			<path clip-path="url(#SVGID_20_)" fill="none" stroke="#000000" stroke-width="1.408" stroke-linecap="round" stroke-linejoin="round" stroke-miterlimit="10" d="
			M269.171,141.46c0.041-0.475,0.025-0.965,0.134-1.426c0.211-0.898,1.146-1.178,1.854-0.607c1.396,1.131,1.658,2.67,1.474,4.309
			c-0.122,1.072-1.223,1.424-2.059,0.701C269.68,143.665,269.226,142.661,269.171,141.46z"/>
		<path clip-path="url(#SVGID_20_)" fill="#141414" d="M269.535,146.042c0.049,0.557,0.166,1.205-0.749,1.418
			c-0.815,0.189-1.223-0.291-1.479-0.873c-0.35-0.793-0.673-1.629-0.799-2.479c-0.058-0.385,0.287-0.963,0.624-1.242
			c0.418-0.346,0.85,0.029,1.184,0.373C269.055,143.993,269.518,144.87,269.535,146.042"/>
		
			<path clip-path="url(#SVGID_20_)" fill="none" stroke="#000000" stroke-width="1.408" stroke-linecap="round" stroke-linejoin="round" stroke-miterlimit="10" d="
			M269.535,146.042c0.049,0.557,0.166,1.205-0.749,1.418c-0.815,0.189-1.223-0.291-1.479-0.873c-0.35-0.793-0.673-1.629-0.799-2.479
			c-0.058-0.385,0.287-0.963,0.624-1.242c0.418-0.346,0.85,0.029,1.184,0.373C269.055,143.993,269.518,144.87,269.535,146.042z"/>
		<path clip-path="url(#SVGID_20_)" fill="#141414" d="M301.17,210.917c-2.152-1.623-3.395-3.697-3.235-6.48
			c0.058-0.996,0.093-1.996,0.084-2.992c-0.012-1.541,0.822-2.738,1.582-3.949c1.053-1.68,2.406-3.182,3.013-5.123
			c0.355-1.133,0.224-2.26-0.07-3.389c-0.877-3.361-2.708-6.297-4.111-9.426c-1.092-2.434-1.207-5.043-0.581-7.689
			c0.696-2.941,2.319-5.301,4.433-7.338c1.326-1.279,2.715-1.279,4.207-0.316c2.62,1.693,5.11,3.557,7.314,5.822
			c1.967,2.025,3.198,4.313,3.251,7.086c0.045,2.262-0.061,4.551-1.212,6.654c-1.122,2.047-2.214,4.125-3.108,6.279
			c-0.637,1.533-1.044,3.191-1.335,4.832c-0.292,1.656-0.332,3.357-0.447,5.041c-0.06,0.861,0.068,1.744-0.08,2.582
			c-0.482,2.705-1.34,5.293-3.684,6.965c-1.05,0.75-2.376,1.109-3.577,1.646C302.798,211.052,301.983,210.985,301.17,210.917"/>
		
			<path clip-path="url(#SVGID_20_)" fill="none" stroke="#000000" stroke-width="1.408" stroke-linecap="round" stroke-linejoin="round" stroke-miterlimit="10" d="
			M301.17,210.917c-2.152-1.623-3.395-3.697-3.235-6.48c0.058-0.996,0.093-1.996,0.084-2.992c-0.012-1.541,0.822-2.738,1.582-3.949
			c1.053-1.68,2.406-3.182,3.013-5.123c0.355-1.133,0.224-2.26-0.07-3.389c-0.877-3.361-2.708-6.297-4.111-9.426
			c-1.092-2.434-1.207-5.043-0.581-7.689c0.696-2.941,2.319-5.301,4.433-7.338c1.326-1.279,2.715-1.279,4.207-0.316
			c2.62,1.693,5.11,3.557,7.314,5.822c1.967,2.025,3.198,4.313,3.251,7.086c0.045,2.262-0.061,4.551-1.212,6.654
			c-1.122,2.047-2.214,4.125-3.108,6.279c-0.637,1.533-1.044,3.191-1.335,4.832c-0.292,1.656-0.332,3.357-0.447,5.041
			c-0.06,0.861,0.068,1.744-0.08,2.582c-0.482,2.705-1.34,5.293-3.684,6.965c-1.05,0.75-2.376,1.109-3.577,1.646
			C302.798,211.052,301.983,210.985,301.17,210.917z"/>
		<path clip-path="url(#SVGID_20_)" fill="#141414" d="M307.55,157.763c-0.35,0.941-0.605,1.934-1.074,2.811
			c-0.438,0.822-1.1,1.547-2.212,1.395c-1.081-0.146-1.563-0.957-1.906-1.855c-0.598-1.559-0.734-3.172-0.469-4.818
			c0.195-1.205,0.834-2.197,1.681-3.012c0.729-0.701,2.292-0.209,2.976,0.789c0.701,1.025,0.746,2.195,0.823,3.365
			c0.027,0.426,0.059,0.852,0.089,1.277C307.487,157.731,307.519,157.747,307.55,157.763"/>
		
			<path clip-path="url(#SVGID_20_)" fill="none" stroke="#000000" stroke-width="1.408" stroke-linecap="round" stroke-linejoin="round" stroke-miterlimit="10" d="
			M307.55,157.763c-0.35,0.941-0.605,1.934-1.074,2.811c-0.438,0.822-1.1,1.547-2.212,1.395c-1.081-0.146-1.563-0.957-1.906-1.855
			c-0.598-1.559-0.734-3.172-0.469-4.818c0.195-1.205,0.834-2.197,1.681-3.012c0.729-0.701,2.292-0.209,2.976,0.789
			c0.701,1.025,0.746,2.195,0.823,3.365c0.027,0.426,0.059,0.852,0.089,1.277C307.487,157.731,307.519,157.747,307.55,157.763z"/>
		<path clip-path="url(#SVGID_20_)" fill="#141414" d="M308.437,159.64c0.32-0.893,0.555-1.834,0.999-2.662
			c0.233-0.438,0.83-0.932,1.269-0.936c0.413-0.006,0.94,0.525,1.229,0.947c0.94,1.379,0.386,3.502-0.528,4.619
			c-0.476,0.582-1.152,0.932-1.867,0.607c-0.743-0.334-0.956-1.104-1.014-1.877c-0.017-0.215,0.03-0.434,0.049-0.65
			C308.527,159.673,308.481,159.655,308.437,159.64"/>
		
			<path clip-path="url(#SVGID_20_)" fill="none" stroke="#000000" stroke-width="1.408" stroke-linecap="round" stroke-linejoin="round" stroke-miterlimit="10" d="
			M308.437,159.64c0.32-0.893,0.555-1.834,0.999-2.662c0.233-0.438,0.83-0.932,1.269-0.936c0.413-0.006,0.94,0.525,1.229,0.947
			c0.94,1.379,0.386,3.502-0.528,4.619c-0.476,0.582-1.152,0.932-1.867,0.607c-0.743-0.334-0.956-1.104-1.014-1.877
			c-0.017-0.215,0.03-0.434,0.049-0.65C308.527,159.673,308.481,159.655,308.437,159.64z"/>
		<path clip-path="url(#SVGID_20_)" fill="#141414" d="M315.915,162.034c0,1.229-0.482,2.248-1.417,3.02
			c-0.819,0.674-1.883,0.314-2.011-0.717c-0.197-1.588,0.084-3.059,1.374-4.199c0.408-0.361,0.81-0.525,1.315-0.338
			c0.578,0.213,0.779,0.703,0.81,1.264C316.006,161.386,315.941,161.712,315.915,162.034"/>
		
			<path clip-path="url(#SVGID_20_)" fill="none" stroke="#000000" stroke-width="1.408" stroke-linecap="round" stroke-linejoin="round" stroke-miterlimit="10" d="
			M315.915,162.034c0,1.229-0.482,2.248-1.417,3.02c-0.819,0.674-1.883,0.314-2.011-0.717c-0.197-1.588,0.084-3.059,1.374-4.199
			c0.408-0.361,0.81-0.525,1.315-0.338c0.578,0.213,0.779,0.703,0.81,1.264C316.006,161.386,315.941,161.712,315.915,162.034z"/>
		<path clip-path="url(#SVGID_20_)" fill="#141414" d="M315.536,166.624c0.051-1.232,0.545-2.137,1.384-2.824
			c0.267-0.217,0.799-0.4,1.052-0.275c0.314,0.152,0.648,0.639,0.653,0.984c0.015,1.305-0.461,2.482-1.426,3.365
			c-0.241,0.221-0.865,0.227-1.203,0.08c-0.256-0.113-0.355-0.617-0.48-0.965C315.465,166.849,315.531,166.667,315.536,166.624"/>
		
			<path clip-path="url(#SVGID_20_)" fill="none" stroke="#000000" stroke-width="1.408" stroke-linecap="round" stroke-linejoin="round" stroke-miterlimit="10" d="
			M315.536,166.624c0.051-1.232,0.545-2.137,1.384-2.824c0.267-0.217,0.799-0.4,1.052-0.275c0.314,0.152,0.648,0.639,0.653,0.984
			c0.015,1.305-0.461,2.482-1.426,3.365c-0.241,0.221-0.865,0.227-1.203,0.08c-0.256-0.113-0.355-0.617-0.48-0.965
			C315.465,166.849,315.531,166.667,315.536,166.624z"/>
		<path clip-path="url(#SVGID_20_)" fill="#141414" d="M317.061,169.591c0.337-0.637,0.548-1.215,0.909-1.678
			c0.598-0.766,1.536-0.547,1.882,0.385c0.266,0.717-0.319,2.297-1.024,2.572c-0.331,0.129-0.89,0.219-1.082,0.039
			C317.415,170.606,317.294,170.077,317.061,169.591"/>
		
			<path clip-path="url(#SVGID_20_)" fill="none" stroke="#000000" stroke-width="1.408" stroke-linecap="round" stroke-linejoin="round" stroke-miterlimit="10" d="
			M317.061,169.591c0.337-0.637,0.548-1.215,0.909-1.678c0.598-0.766,1.536-0.547,1.882,0.385c0.266,0.717-0.319,2.297-1.024,2.572
			c-0.331,0.129-0.89,0.219-1.082,0.039C317.415,170.606,317.294,170.077,317.061,169.591z"/>
		
			<path clip-path="url(#SVGID_20_)" fill="none" stroke="#000000" stroke-width="1.408" stroke-linejoin="round" stroke-miterlimit="10" d="
			M254.109,171.329c0,16.74-13.57,30.313-30.31,30.313c-16.74,0-30.312-13.572-30.312-30.313c0-16.738,13.571-30.311,30.312-30.311
			C240.539,141.019,254.109,154.591,254.109,171.329z"/>
	</g>
</g>
</svg>
