<?xml version="1.0" encoding="utf-8"?>
<!-- Generator: Adobe Illustrator 16.0.0, SVG Export Plug-In . SVG Version: 6.00 Build 0)  -->
<!DOCTYPE svg PUBLIC "-//W3C//DTD SVG 1.1//EN" "http://www.w3.org/Graphics/SVG/1.1/DTD/svg11.dtd">
<svg version="1.1" id="Calque_1" xmlns="http://www.w3.org/2000/svg" xmlns:xlink="http://www.w3.org/1999/xlink" x="0px" y="0px"
	 width="349.92px" height="239.76px" viewBox="0 0 349.92 239.76" enable-background="new 0 0 349.92 239.76" xml:space="preserve">
<g>
	<path fill="#E5E2D3" d="M12.15,2C11.117,2.008,2,2.357,2,12.15v215.459c0.008,1.033,0.357,10.15,10.15,10.15h325.62
		c1.032-0.008,10.15-0.357,10.15-10.15V12.15C347.912,11.117,347.563,2,337.77,2H12.15z"/>
	<path fill="none" stroke="#000000" stroke-width="4" stroke-linejoin="round" stroke-miterlimit="10" d="M12.15,2
		C11.117,2.008,2,2.357,2,12.15v215.459c0.008,1.033,0.357,10.15,10.15,10.15h325.62c1.032-0.008,10.15-0.357,10.15-10.15V12.15
		C347.912,11.117,347.563,2,337.77,2H12.15z"/>
</g>
<g>
	<polygon fill="#CCAC6C" points="227.282,76.164 192.271,119.971 190.629,118.488 223.833,73.641 	"/>
	<polygon fill="none" stroke="#000000" stroke-width="1.6" stroke-linejoin="round" stroke-miterlimit="10" points="227.282,76.164 
		192.271,119.971 190.629,118.488 223.833,73.641 	"/>
	<polygon fill="#CCAC6C" points="235.565,83.445 196.391,123.643 194.778,122.127 232.45,80.52 	"/>
	<polygon fill="none" stroke="#000000" stroke-width="1.6" stroke-linejoin="round" stroke-miterlimit="10" points="235.565,83.445 
		196.391,123.643 194.778,122.127 232.45,80.52 	"/>
	<g>
		<defs>
			<rect id="SVGID_7_" x="31.979" y="69.051" width="285.962" height="101.658"/>
		</defs>
		<clipPath id="SVGID_2_">
			<use xlink:href="#SVGID_7_"  overflow="visible"/>
		</clipPath>
		<path clip-path="url(#SVGID_2_)" fill="#FFFFFF" d="M148.802,135.207v-0.801c0-0.064,0.009-5.576,0.032-7.732
			c-2.263-0.184-3.835-1.18-3.835-2.502c0-0.875,0.688-1.623,1.878-2.078c0.056-1.111,1.202-2.166,2.649-2.865
			c-1.189-1.107-1.641-2.326-1.13-3.248c0.198-0.357,0.719-0.957,1.989-0.957c0.624,0,1.332,0.145,2.06,0.414
			c0.019-0.084,0.04-0.168,0.061-0.252c0.5-1.926,1.684-3.871,3.202-3.871c0.043,0,0.085,0.002,0.127,0.006
			c0.39-1.809,1.352-3.523,2.774-3.523c0.069,0,0.139,0.006,0.207,0.014c0.258,0.033,0.635,0.148,0.995,0.504
			c0.713-0.922,1.529-1.445,2.305-1.445c0.206,0,0.405,0.037,0.593,0.109c0.112,0.045,0.217,0.1,0.315,0.164
			c0.507-1.109,1.264-1.771,2.124-1.771c0.04,0,0.081,0,0.121,0.004c0.416,0.031,0.788,0.213,1.104,0.525
			c0.083-0.09,0.166-0.16,0.241-0.215c0.285-0.205,0.637-0.314,1.017-0.314c0.046,0,0.091,0.002,0.137,0.004
			c0.028-0.109,0.064-0.209,0.104-0.295c0.191-0.414,0.735-1.109,2.232-1.109c0.906,0,1.975,0.264,3.009,0.742
			c0.137,0.063,0.274,0.131,0.411,0.201c0.454-0.373,0.982-0.715,1.552-1.004c1.043-0.527,2.115-0.828,3.035-0.85
			c0.035-0.871,0.442-1.32,0.736-1.531c0.285-0.207,0.638-0.316,1.02-0.316c1.006,0,2.215,0.74,3.264,1.969
			c0.254-0.143,0.548-0.215,0.863-0.215c0.77,0,1.659,0.43,2.52,1.205c0.892-1.432,2.034-2.316,3.055-2.316
			c0.253,0,0.493,0.053,0.714,0.158c0.735,0.35,1.109,1.176,1.086,2.287c0.813-0.35,1.617-0.539,2.305-0.539
			c0.727,0,1.201,0.211,1.504,0.449c0.623-0.488,1.249-0.75,1.819-0.75c0.306,0,0.59,0.072,0.842,0.219
			c0.481,0.275,0.778,0.762,0.883,1.393c0.054-0.004,0.108-0.008,0.163-0.008c1.07,0,2.224,1.008,3.053,2.623
			c0.197-0.045,0.388-0.068,0.571-0.068c0.432,0,0.82,0.131,1.123,0.379c0.031,0.025,0.06,0.051,0.089,0.078
			c0.548-0.666,1.179-1.037,1.811-1.037c0.125,0,0.249,0.014,0.37,0.043c0.906,0.211,1.489,1.16,1.618,2.535
			c0.388-0.139,0.804-0.232,1.217-0.232c0.728,0,1.16,0.301,1.394,0.555c0.217,0.234,0.492,0.676,0.447,1.387
			c0.846,0.309,1.45,1.316,1.668,2.742c0.228-0.076,0.451-0.115,0.667-0.115c0.283,0,0.549,0.066,0.788,0.193
			c0.663,0.352,1.002,1.09,0.991,2.08c0.445-0.145,0.868-0.219,1.25-0.219c0.852,0,1.318,0.361,1.559,0.668
			c0.444,0.559,0.473,1.34,0.113,2.205c0.338,0.135,0.562,0.336,0.706,0.518c0.486,0.613,0.478,1.48,0.01,2.434
			c1.682,0.373,2.742,1.242,2.742,2.34c0,1.477-1.825,2.328-3.836,2.5c0.023,2.154,0.032,7.67,0.032,7.734v0.801H148.802z"/>
		<path clip-path="url(#SVGID_2_)" d="M179.868,100.412L179.868,100.412c-0.551,0-1.066,0.162-1.489,0.469
			c-0.274,0.197-0.746,0.639-0.959,1.436c-0.864,0.119-1.799,0.422-2.704,0.879c-0.457,0.232-0.889,0.496-1.285,0.781
			c-1.129-0.518-2.311-0.805-3.327-0.805c-1.348,0-2.39,0.518-2.886,1.432c-0.305,0.047-0.593,0.146-0.854,0.293
			c-0.316-0.182-0.663-0.291-1.033-0.32c-0.06-0.004-0.121-0.006-0.181-0.006c-0.973,0-1.837,0.574-2.474,1.563
			c-0.182-0.041-0.369-0.063-0.559-0.063c-0.831-0.002-1.675,0.42-2.43,1.18c-0.24-0.119-0.496-0.197-0.766-0.232
			c-0.103-0.014-0.208-0.021-0.311-0.021c-1.709,0-2.865,1.637-3.411,3.568c-1.618,0.32-2.741,2.127-3.304,3.865
			c-0.527-0.135-1.037-0.205-1.509-0.205c-1.68,0-2.406,0.857-2.689,1.367c-0.564,1.021-0.33,2.258,0.559,3.422
			c-1.12,0.715-1.856,1.6-2.095,2.518c-1.248,0.6-1.962,1.535-1.962,2.641c0,1.619,1.513,2.836,3.83,3.211
			c-0.02,2.49-0.026,6.965-0.026,7.023v1.602h1.6h66.866h1.6v-1.602c0-0.059-0.007-4.533-0.026-7.023
			c2.317-0.375,3.829-1.592,3.829-3.211c0-1.268-0.944-2.297-2.495-2.863c0.232-0.91,0.094-1.746-0.43-2.406
			c-0.111-0.141-0.237-0.268-0.376-0.381c0.209-0.887,0.066-1.703-0.442-2.344c-0.495-0.625-1.271-0.971-2.186-0.971
			c-0.185,0-0.368,0.014-0.55,0.037c-0.186-0.814-0.631-1.441-1.317-1.805c-0.354-0.189-0.746-0.285-1.163-0.285
			c-0.015,0-0.031,0-0.047,0c-0.295-1.061-0.817-1.871-1.506-2.322c-0.086-0.734-0.43-1.209-0.641-1.438
			c-0.483-0.523-1.187-0.811-1.982-0.811c-0.191,0-0.382,0.016-0.57,0.045c-0.318-1.244-1.042-2.082-2.083-2.326
			c-0.178-0.043-0.364-0.064-0.551-0.064c-0.688,0-1.347,0.281-1.936,0.807c-0.33-0.148-0.698-0.227-1.087-0.227
			c-0.046,0-0.093,0.002-0.14,0.004c-0.738-1.234-1.784-2.303-3.028-2.518c-0.215-0.568-0.585-1.021-1.104-1.32
			c-0.375-0.215-0.792-0.324-1.24-0.324c-0.679,0-1.307,0.246-1.855,0.596c-0.378-0.174-0.858-0.295-1.468-0.295
			c-0.506,0-1.051,0.084-1.613,0.242c-0.202-0.887-0.688-1.557-1.435-1.91c-0.328-0.158-0.684-0.236-1.058-0.236
			c-1.248,0-2.367,0.861-3.222,1.963c-0.797-0.553-1.609-0.854-2.352-0.854c-0.222,0-0.437,0.025-0.643,0.076
			C182.375,101.24,181.123,100.412,179.868,100.412 M179.868,102.014c0.853,0,2.095,0.865,3.082,2.229
			c0.052,0.074,0.101,0.146,0.15,0.221c0.064-0.229,0.175-0.412,0.343-0.533c0.154-0.111,0.341-0.164,0.551-0.164
			c0.717,0,1.708,0.611,2.592,1.617c0.056,0.004,0.113,0.008,0.169,0.012c0.783-1.629,1.956-2.738,2.814-2.738
			c0.132,0,0.257,0.025,0.371,0.08c0.69,0.328,0.808,1.584,0.371,3.043c0.005,0,0.011,0,0.016,0.002
			c0.13-0.09,0.265-0.176,0.405-0.26c1.058-0.629,2.134-0.961,2.943-0.961c0.571,0,1.009,0.166,1.212,0.506
			c0.072,0.121,0.107,0.26,0.114,0.41c0.687-0.76,1.422-1.217,1.997-1.217c0.162,0,0.311,0.037,0.443,0.111
			c0.66,0.381,0.682,1.639,0.137,3.053c0.088,0.027,0.175,0.057,0.262,0.084c0.024-0.807,0.272-1.404,0.738-1.586
			c0.097-0.037,0.2-0.057,0.307-0.057c0.846,0,1.946,1.156,2.633,2.818c0.361-0.172,0.699-0.264,0.992-0.264
			c0.242,0,0.452,0.063,0.617,0.197c0.29,0.236,0.391,0.658,0.331,1.18c0.043,0.021,0.087,0.043,0.13,0.064
			c0.521-1.215,1.271-2.021,1.945-2.021c0.063,0,0.125,0.006,0.187,0.02c0.768,0.182,1.151,1.461,0.993,3.049
			c0.744-0.467,1.466-0.725,2.024-0.725c0.341,0,0.621,0.096,0.807,0.297c0.33,0.357,0.305,0.979,0,1.689
			c0.155-0.094,0.315-0.143,0.477-0.143c0.02,0,0.041,0.002,0.062,0.004c0.87,0.068,1.476,1.535,1.452,3.379
			c0.486-0.418,0.971-0.656,1.378-0.656c0.149,0,0.288,0.031,0.413,0.098c0.623,0.332,0.722,1.434,0.338,2.732
			c0.835-0.504,1.653-0.777,2.279-0.777c0.409,0,0.736,0.117,0.931,0.365c0.406,0.512,0.137,1.449-0.598,2.406
			c0.171-0.031,0.333-0.047,0.484-0.047c0.41,0,0.738,0.117,0.933,0.363c0.427,0.539,0.104,1.549-0.72,2.559
			c1.862,0.113,3.299,0.838,3.299,1.719c0,0.957-1.702,1.732-3.803,1.732c-0.015,0-0.03,0-0.045,0
			c0.029,0.377,0.045,8.119,0.045,8.502h-66.866c0-0.383,0.015-8.125,0.045-8.502c-0.015,0-0.03,0-0.045,0
			c-2.101,0-3.803-0.775-3.803-1.732c0-0.664,0.814-1.238,2.011-1.531c-0.035-0.055-0.064-0.111-0.086-0.172
			c-0.312-0.906,1.044-2.197,3.029-2.881c0.131-0.045,0.261-0.086,0.39-0.125c-1.569-1-2.472-2.326-2.047-3.096
			c0.202-0.365,0.671-0.543,1.289-0.543c0.746,0,1.71,0.26,2.679,0.764c0.039-0.385,0.11-0.789,0.217-1.201
			c0.489-1.885,1.538-3.271,2.427-3.271c0.07,0,0.139,0.008,0.206,0.025c0.217,0.057,0.399,0.203,0.546,0.416
			c0.011-0.133,0.025-0.27,0.043-0.404c0.26-2.008,1.189-3.555,2.106-3.555c0.035,0,0.069,0.002,0.104,0.006
			c0.473,0.063,0.846,0.537,1.069,1.254c0.678-1.316,1.6-2.188,2.334-2.188c0.105,0,0.207,0.018,0.304,0.055
			c0.506,0.197,0.76,0.885,0.746,1.799c0.019-0.01,0.039-0.018,0.059-0.027c0.22-1.887,1.042-3.326,1.923-3.324
			c0.02,0,0.04,0,0.061,0.002c0.622,0.047,1.112,0.813,1.334,1.918c0.07-0.025,0.14-0.051,0.21-0.076
			c-0.166-0.77-0.07-1.395,0.329-1.682c0.153-0.109,0.339-0.162,0.549-0.162c0.332,0,0.723,0.131,1.135,0.373
			c-0.243-0.414-0.316-0.809-0.169-1.127c0.199-0.432,0.76-0.646,1.506-0.646c0.76,0,1.713,0.223,2.674,0.666
			c0.304,0.141,0.587,0.295,0.852,0.459c0.462-0.459,1.081-0.904,1.809-1.271c1.001-0.508,2-0.766,2.78-0.766
			c0.303,0,0.574,0.039,0.798,0.117c-0.203-0.822-0.12-1.498,0.299-1.799C179.47,102.066,179.657,102.014,179.868,102.014"/>
		<path clip-path="url(#SVGID_2_)" fill="#2268A8" d="M199.965,159.076c0,3.891-7.579,7.043-16.929,7.043
			c-9.35,0-16.93-3.152-16.93-7.043v-15.293h33.859V159.076z"/>
		
			<path clip-path="url(#SVGID_2_)" fill="none" stroke="#000000" stroke-width="1.6" stroke-linejoin="round" stroke-miterlimit="10" d="
			M199.965,159.076c0,3.891-7.579,7.043-16.929,7.043c-9.35,0-16.93-3.152-16.93-7.043v-15.293h33.859V159.076z"/>
		<path clip-path="url(#SVGID_2_)" fill="#2268A8" d="M143.341,125.482c3.05,19.104,19.66,33.705,39.694,33.705
			c20.035,0,36.644-14.602,39.694-33.705c0,0-18.72,3.865-40.982,3.865C159.485,129.348,143.341,125.482,143.341,125.482"/>
		
			<path clip-path="url(#SVGID_2_)" fill="none" stroke="#000000" stroke-width="1.6" stroke-linejoin="round" stroke-miterlimit="10" d="
			M143.341,125.482c3.05,19.104,19.66,33.705,39.694,33.705c20.035,0,36.644-14.602,39.694-33.705c0,0-18.72,3.865-40.982,3.865
			C159.485,129.348,143.341,125.482,143.341,125.482z"/>
	</g>
	<polygon fill="#AB2E23" points="169.841,110.969 178.178,96.529 174.242,96.529 174.242,85.471 165.442,85.471 165.442,96.529 
		161.504,96.529 	"/>
	<polygon fill="none" stroke="#000000" stroke-width="1.6" stroke-linejoin="round" stroke-miterlimit="10" points="
		169.841,110.969 178.178,96.529 174.242,96.529 174.242,85.471 165.442,85.471 165.442,96.529 161.504,96.529 	"/>
	<rect x="258.054" y="79.242" fill="#4F5666" width="49.37" height="4.785"/>
	
		<rect x="258.054" y="79.242" fill="none" stroke="#000000" stroke-width="1.6" stroke-linecap="round" stroke-linejoin="round" stroke-miterlimit="10" width="49.37" height="4.785"/>
	<g>
		<defs>
			<rect id="SVGID_9_" x="31.979" y="69.051" width="285.962" height="101.658"/>
		</defs>
		<clipPath id="SVGID_4_">
			<use xlink:href="#SVGID_9_"  overflow="visible"/>
		</clipPath>
		<path clip-path="url(#SVGID_4_)" fill="#E5E2D3" d="M253.697,92.189c-0.13,0-0.259-0.033-0.377-0.094
			c-2.086-1.115-3.777-2.807-4.89-4.891c-0.116-0.219-0.125-0.477-0.025-0.701c0.1-0.227,0.299-0.393,0.538-0.451
			c1.568-0.391,1.723-1.584,1.723-4.418c0-2.836-0.155-4.029-1.723-4.418c-0.239-0.061-0.438-0.227-0.538-0.451
			c-0.1-0.227-0.091-0.484,0.025-0.703c1.113-2.086,2.804-3.775,4.89-4.889c0.118-0.064,0.247-0.096,0.377-0.096
			c0.11,0,0.221,0.023,0.325,0.07c0.225,0.1,0.392,0.299,0.451,0.537c0.39,1.568,1.583,1.723,4.418,1.723s4.028-0.154,4.418-1.723
			c0.06-0.238,0.226-0.438,0.451-0.537c0.104-0.047,0.215-0.07,0.325-0.07c0.13,0,0.26,0.031,0.377,0.096
			c2.086,1.111,3.777,2.803,4.89,4.889c0.116,0.217,0.126,0.477,0.025,0.703c-0.1,0.225-0.298,0.391-0.537,0.451
			c-1.568,0.389-1.724,1.582-1.724,4.418c0,2.834,0.156,4.027,1.724,4.418c0.239,0.059,0.437,0.225,0.537,0.451
			c0.101,0.225,0.091,0.482-0.025,0.701c-1.113,2.086-2.804,3.775-4.89,4.891c-0.117,0.061-0.247,0.094-0.377,0.094
			c-0.11,0-0.221-0.023-0.325-0.07c-0.225-0.1-0.391-0.299-0.451-0.537c-0.39-1.566-1.583-1.723-4.418-1.723
			s-4.028,0.156-4.418,1.723c-0.059,0.238-0.226,0.438-0.451,0.537C253.918,92.166,253.807,92.189,253.697,92.189"/>
		<path clip-path="url(#SVGID_4_)" d="M253.698,70.279c-0.26,0-0.519,0.063-0.754,0.188c-2.226,1.189-4.031,2.994-5.219,5.221
			c-0.232,0.434-0.251,0.951-0.05,1.402c0.2,0.449,0.597,0.783,1.075,0.902c0.94,0.234,1.117,0.813,1.117,3.641
			c0,2.83-0.177,3.408-1.117,3.643c-0.478,0.119-0.875,0.453-1.075,0.902c-0.201,0.451-0.182,0.969,0.05,1.404
			c1.188,2.227,2.993,4.029,5.219,5.219c0.235,0.125,0.494,0.188,0.754,0.188c0.221,0,0.442-0.045,0.649-0.137
			c0.451-0.201,0.784-0.598,0.903-1.076c0.234-0.939,0.812-1.117,3.642-1.117c2.829,0,3.408,0.178,3.641,1.117
			c0.119,0.479,0.452,0.875,0.903,1.076c0.207,0.092,0.429,0.137,0.65,0.137c0.259,0,0.518-0.063,0.753-0.188
			c2.227-1.189,4.031-2.992,5.219-5.219c0.233-0.436,0.251-0.953,0.051-1.404c-0.2-0.449-0.597-0.783-1.076-0.902
			c-0.939-0.234-1.116-0.813-1.116-3.643c0-2.828,0.177-3.406,1.116-3.641c0.479-0.119,0.876-0.453,1.076-0.902
			c0.2-0.451,0.182-0.969-0.051-1.404c-1.188-2.227-2.992-4.029-5.219-5.219c-0.235-0.125-0.494-0.188-0.753-0.188
			c-0.221,0-0.443,0.045-0.65,0.137c-0.451,0.201-0.784,0.598-0.903,1.076c-0.233,0.939-0.812,1.117-3.641,1.117
			c-2.83,0-3.408-0.178-3.642-1.117c-0.119-0.479-0.452-0.875-0.903-1.076C254.14,70.324,253.918,70.279,253.698,70.279
			 M264.085,71.879c1.936,1.033,3.528,2.625,4.561,4.561c-2.33,0.58-2.33,2.684-2.33,5.193s0,4.615,2.33,5.195
			c-1.033,1.936-2.625,3.527-4.561,4.561c-0.579-2.33-2.685-2.33-5.194-2.33s-4.615,0-5.194,2.33
			c-1.936-1.033-3.528-2.625-4.561-4.561c2.33-0.58,2.33-2.686,2.33-5.195s0-4.613-2.33-5.193c1.033-1.936,2.625-3.527,4.561-4.561
			c0.579,2.33,2.685,2.33,5.194,2.33S263.506,74.209,264.085,71.879"/>
		<path clip-path="url(#SVGID_4_)" fill="#AB2E23" d="M262.873,81.635c0,2.197-1.782,3.98-3.981,3.98
			c-2.199,0-3.981-1.783-3.981-3.98c0-2.199,1.782-3.982,3.981-3.982C261.09,77.652,262.873,79.436,262.873,81.635"/>
		
			<circle clip-path="url(#SVGID_4_)" fill="none" stroke="#000000" stroke-width="1.6" stroke-linecap="round" stroke-linejoin="round" stroke-miterlimit="10" cx="258.892" cy="81.635" r="3.981"/>
		<path clip-path="url(#SVGID_4_)" fill="#E5E2D3" d="M311.78,92.189c-0.11,0-0.221-0.023-0.325-0.07
			c-0.225-0.1-0.392-0.299-0.451-0.537c-0.39-1.566-1.583-1.723-4.418-1.723s-4.028,0.156-4.418,1.723
			c-0.06,0.238-0.226,0.438-0.451,0.537c-0.104,0.047-0.215,0.07-0.325,0.07c-0.13,0-0.26-0.033-0.377-0.094
			c-2.086-1.115-3.777-2.805-4.89-4.891c-0.116-0.219-0.126-0.477-0.025-0.701c0.1-0.227,0.298-0.393,0.537-0.451
			c1.568-0.391,1.724-1.584,1.724-4.418c0-2.836-0.156-4.029-1.724-4.418c-0.239-0.061-0.437-0.227-0.537-0.451
			c-0.101-0.227-0.091-0.486,0.025-0.703c1.113-2.086,2.804-3.777,4.89-4.889c0.117-0.064,0.247-0.096,0.377-0.096
			c0.11,0,0.221,0.023,0.325,0.07c0.225,0.1,0.391,0.299,0.451,0.537c0.39,1.568,1.583,1.723,4.418,1.723s4.028-0.154,4.418-1.723
			c0.059-0.24,0.226-0.438,0.451-0.537c0.104-0.047,0.215-0.07,0.325-0.07c0.13,0,0.259,0.031,0.377,0.096
			c2.086,1.113,3.777,2.803,4.89,4.889c0.116,0.219,0.125,0.477,0.025,0.703c-0.1,0.225-0.299,0.391-0.538,0.451
			c-1.567,0.389-1.723,1.582-1.723,4.418c0,2.834,0.156,4.027,1.723,4.418c0.239,0.059,0.438,0.225,0.538,0.451
			c0.1,0.225,0.091,0.482-0.025,0.701c-1.113,2.084-2.804,3.775-4.89,4.891C312.039,92.156,311.91,92.189,311.78,92.189"/>
		<path clip-path="url(#SVGID_4_)" d="M301.392,70.279c-0.26,0-0.519,0.063-0.754,0.188c-2.226,1.189-4.031,2.992-5.219,5.219
			c-0.232,0.436-0.251,0.953-0.05,1.404c0.2,0.449,0.597,0.783,1.075,0.902c0.939,0.234,1.117,0.813,1.117,3.641
			c0,2.83-0.178,3.408-1.117,3.643c-0.478,0.119-0.875,0.453-1.075,0.902c-0.201,0.451-0.182,0.969,0.05,1.404
			c1.188,2.227,2.993,4.029,5.219,5.219c0.235,0.125,0.494,0.188,0.754,0.188c0.221,0,0.442-0.045,0.65-0.137
			c0.45-0.201,0.783-0.598,0.902-1.076c0.234-0.939,0.812-1.117,3.642-1.117c2.829,0,3.408,0.178,3.642,1.117
			c0.118,0.479,0.451,0.875,0.902,1.076c0.207,0.092,0.429,0.137,0.65,0.137c0.26,0,0.519-0.063,0.753-0.188
			c2.227-1.189,4.032-2.992,5.22-5.219c0.231-0.436,0.25-0.953,0.05-1.404c-0.2-0.449-0.597-0.783-1.076-0.902
			c-0.939-0.234-1.116-0.813-1.116-3.643c0-2.828,0.177-3.406,1.116-3.641c0.479-0.119,0.876-0.453,1.076-0.902
			c0.2-0.451,0.181-0.969-0.05-1.402c-1.188-2.227-2.993-4.031-5.22-5.221c-0.234-0.125-0.493-0.188-0.753-0.188
			c-0.221,0-0.443,0.045-0.65,0.137c-0.451,0.201-0.784,0.598-0.902,1.076c-0.234,0.939-0.813,1.117-3.642,1.117
			c-2.83,0-3.408-0.178-3.642-1.117c-0.119-0.479-0.452-0.875-0.902-1.076C301.835,70.324,301.613,70.279,301.392,70.279
			 M311.78,71.879c1.936,1.033,3.528,2.625,4.561,4.561c-2.33,0.58-2.33,2.684-2.33,5.193s0,4.615,2.33,5.195
			c-1.033,1.936-2.625,3.527-4.561,4.561c-0.58-2.33-2.685-2.33-5.194-2.33c-2.509,0-4.615,0-5.194,2.33
			c-1.936-1.033-3.528-2.625-4.561-4.561c2.33-0.58,2.33-2.686,2.33-5.195s0-4.613-2.33-5.193c1.033-1.936,2.625-3.527,4.561-4.561
			c0.579,2.33,2.685,2.33,5.194,2.33C309.095,74.209,311.2,74.209,311.78,71.879"/>
		<path clip-path="url(#SVGID_4_)" fill="#2268A8" d="M310.567,81.635c0,2.197-1.782,3.98-3.981,3.98
			c-2.198,0-3.981-1.783-3.981-3.98c0-2.199,1.783-3.982,3.981-3.982C308.785,77.652,310.567,79.436,310.567,81.635"/>
		
			<circle clip-path="url(#SVGID_4_)" fill="none" stroke="#000000" stroke-width="1.6" stroke-linecap="round" stroke-linejoin="round" stroke-miterlimit="10" cx="306.586" cy="81.635" r="3.981"/>
		<path clip-path="url(#SVGID_4_)" fill="#4F5666" d="M290.487,105.488c0,4.277-15.497,4.277-15.497,0V77.598
			c0-4.277,3.469-7.748,7.748-7.748c4.28,0,7.749,3.471,7.749,7.748V105.488z"/>
		
			<path clip-path="url(#SVGID_4_)" fill="none" stroke="#000000" stroke-width="1.6" stroke-linecap="round" stroke-linejoin="round" stroke-miterlimit="10" d="
			M290.487,105.488c0,4.277-15.497,4.277-15.497,0V77.598c0-4.277,3.469-7.748,7.748-7.748c4.28,0,7.749,3.471,7.749,7.748V105.488z
			"/>
		<path clip-path="url(#SVGID_4_)" fill="#2268A8" d="M282.739,169.91c6.939,0,12.565-5.945,12.565-12.553
			c0-12.408-12.565-40.387-12.565-40.387s-12.565,27.979-12.565,40.387C270.174,163.965,275.8,169.91,282.739,169.91"/>
		<path clip-path="url(#SVGID_4_)" fill="none" stroke="#000000" stroke-width="1.6" stroke-miterlimit="10" d="M282.739,169.91
			c6.939,0,12.565-5.945,12.565-12.553c0-12.408-12.565-40.387-12.565-40.387s-12.565,27.979-12.565,40.387
			C270.174,163.965,275.8,169.91,282.739,169.91z"/>
		<path clip-path="url(#SVGID_4_)" fill="#FFFFFF" d="M292.632,157.291c0,1.914-1.552,3.467-3.467,3.467
			c-1.914,0-3.466-1.553-3.466-3.467s1.552-3.469,3.466-3.469C291.08,153.822,292.632,155.377,292.632,157.291"/>
	</g>
	<polygon fill="#AB2E23" points="272.285,155.195 257.848,146.857 257.848,150.795 246.788,150.795 246.788,159.594 
		257.848,159.594 257.848,163.531 	"/>
	<polygon fill="none" stroke="#000000" stroke-width="1.6" stroke-linejoin="round" stroke-miterlimit="10" points="
		272.285,155.195 257.848,146.857 257.848,150.795 246.788,150.795 246.788,159.594 257.848,159.594 257.848,163.531 	"/>
	<g>
		<defs>
			<rect id="SVGID_11_" x="31.979" y="69.051" width="285.962" height="101.658"/>
		</defs>
		<clipPath id="SVGID_6_">
			<use xlink:href="#SVGID_11_"  overflow="visible"/>
		</clipPath>
		<path clip-path="url(#SVGID_6_)" fill="#564432" d="M124.582,159.016c0,2.82-2.287,5.107-5.108,5.107h-30.14
			c-2.821,0-5.107-2.287-5.107-5.107v-9.846c0-2.82,2.286-5.107,5.107-5.107h30.14c2.821,0,5.108,2.287,5.108,5.107V159.016z"/>
		
			<path clip-path="url(#SVGID_6_)" fill="none" stroke="#000000" stroke-width="1.6" stroke-linecap="round" stroke-linejoin="round" stroke-miterlimit="10" d="
			M124.582,159.016c0,2.82-2.287,5.107-5.108,5.107h-30.14c-2.821,0-5.107-2.287-5.107-5.107v-9.846c0-2.82,2.286-5.107,5.107-5.107
			h30.14c2.821,0,5.108,2.287,5.108,5.107V159.016z"/>
	</g>
	<polygon fill="#CCAC6C" points="75.76,153.291 79.009,75.637 82.071,75.637 85.297,153.291 	"/>
	<polygon fill="none" stroke="#000000" stroke-width="1.6" stroke-linejoin="round" stroke-miterlimit="10" points="75.76,153.291 
		79.009,75.637 82.071,75.637 85.297,153.291 	"/>
	<g>
		<defs>
			<rect id="SVGID_13_" x="31.979" y="69.051" width="285.962" height="101.658"/>
		</defs>
		<clipPath id="SVGID_8_">
			<use xlink:href="#SVGID_13_"  overflow="visible"/>
		</clipPath>
		<path clip-path="url(#SVGID_8_)" fill="#564432" d="M128.279,139.023c0,31.613-66.943,22.053-85.037,12.543
			c-7.19-3.781-10.463-8.652-10.463-12.543H128.279z"/>
		
			<path clip-path="url(#SVGID_8_)" fill="none" stroke="#000000" stroke-width="1.6" stroke-linecap="round" stroke-linejoin="round" stroke-miterlimit="10" d="
			M128.279,139.023c0,31.613-66.943,22.053-85.037,12.543c-7.19-3.781-10.463-8.652-10.463-12.543H128.279z"/>
		<path clip-path="url(#SVGID_8_)" fill="#E5E2D3" d="M37.194,136.279c-0.297,0-0.57-0.164-0.708-0.428
			c-0.138-0.262-0.12-0.58,0.049-0.826l38.921-56.559c0.152-0.221,0.401-0.346,0.659-0.346c0.089,0,0.18,0.016,0.268,0.045
			c0.342,0.123,0.559,0.459,0.529,0.82l-4.685,56.561c-0.034,0.414-0.381,0.732-0.797,0.732H37.194z"/>
		<path clip-path="url(#SVGID_8_)" d="M76.114,77.32c-0.515,0-1.013,0.25-1.318,0.693l-38.921,56.559
			c-0.337,0.49-0.374,1.127-0.098,1.652c0.277,0.525,0.822,0.855,1.416,0.855h34.236c0.833,0,1.526-0.639,1.595-1.469l4.685-56.559
			c0.06-0.723-0.374-1.395-1.057-1.639C76.475,77.352,76.294,77.32,76.114,77.32 M76.114,78.922l-4.685,56.559H37.193L76.114,78.922
			z"/>
		<path clip-path="url(#SVGID_8_)" fill="#E5E2D3" d="M89.628,136.279c-0.416,0-0.763-0.318-0.797-0.732l-4.685-56.561
			c-0.03-0.361,0.187-0.697,0.528-0.82c0.088-0.029,0.179-0.045,0.269-0.045c0.258,0,0.506,0.125,0.659,0.346l38.921,56.559
			c0.168,0.246,0.187,0.564,0.049,0.826c-0.139,0.264-0.411,0.428-0.708,0.428H89.628z"/>
		<path clip-path="url(#SVGID_8_)" d="M84.944,77.32c-0.18,0-0.361,0.031-0.538,0.094c-0.683,0.244-1.117,0.916-1.057,1.639
			l4.685,56.559c0.069,0.83,0.763,1.469,1.595,1.469h34.236c0.594,0,1.139-0.33,1.416-0.855c0.276-0.525,0.239-1.162-0.098-1.652
			L86.262,78.014C85.957,77.57,85.458,77.32,84.944,77.32 M84.944,78.922l38.921,56.559H89.629L84.944,78.922z"/>
		
			<path clip-path="url(#SVGID_8_)" fill="none" stroke="#000000" stroke-width="1.6" stroke-linecap="round" stroke-linejoin="round" stroke-miterlimit="10" d="
			M119.096,139.023c0,6.066-1.261,12.764-38.567,12.764c-24.169,0-28.062-0.965-31.331,2.305"/>
	</g>
	<polygon fill="#AB2E23" points="81.704,97 96.141,88.664 96.141,92.6 107.2,92.6 107.2,101.4 96.141,101.4 96.141,105.336 	"/>
	<polygon fill="none" stroke="#000000" stroke-width="1.6" stroke-linejoin="round" stroke-miterlimit="10" points="81.704,97 
		96.141,88.664 96.141,92.6 107.2,92.6 107.2,101.4 96.141,101.4 96.141,105.336 	"/>
</g>
</svg>
