<?xml version="1.0" encoding="utf-8"?>
<!-- Generator: Adobe Illustrator 16.0.0, SVG Export Plug-In . SVG Version: 6.00 Build 0)  -->
<!DOCTYPE svg PUBLIC "-//W3C//DTD SVG 1.1//EN" "http://www.w3.org/Graphics/SVG/1.1/DTD/svg11.dtd">
<svg version="1.1" id="Calque_1" xmlns="http://www.w3.org/2000/svg" xmlns:xlink="http://www.w3.org/1999/xlink" x="0px" y="0px"
	 width="349.92px" height="239.76px" viewBox="0 0 349.92 239.76" enable-background="new 0 0 349.92 239.76" xml:space="preserve">
<g>
	<path fill="#E5E2D3" d="M12.15,2C11.117,2.008,2,2.357,2,12.15v215.459c0.008,1.033,0.357,10.15,10.15,10.15h325.62
		c1.032-0.008,10.15-0.357,10.15-10.15V12.15C347.912,11.117,347.563,2,337.77,2H12.15z"/>
	<path fill="none" stroke="#000000" stroke-width="4" stroke-linejoin="round" stroke-miterlimit="10" d="M12.15,2
		C11.117,2.008,2,2.357,2,12.15v215.459c0.008,1.033,0.357,10.15,10.15,10.15h325.62c1.032-0.008,10.15-0.357,10.15-10.15V12.15
		C347.912,11.117,347.563,2,337.77,2H12.15z"/>
</g>
<g>
	<g>
		<defs>
			<rect id="SVGID_23_" x="15.92" y="65.451" width="318.08" height="108.857"/>
		</defs>
		<clipPath id="SVGID_2_">
			<use xlink:href="#SVGID_23_"  overflow="visible"/>
		</clipPath>
		<path clip-path="url(#SVGID_2_)" fill="#358C5E" d="M172.048,169.871c-0.214,0-0.535-0.02-0.848-0.193
			c-0.408-0.227-0.849-0.328-1.426-0.328c-0.331,0-0.669,0.031-1.027,0.064c-0.378,0.035-0.769,0.072-1.172,0.072
			c-0.122,0-0.244-0.004-0.366-0.012c-0.377-0.023-0.725-0.107-1.062-0.188c-0.321-0.078-0.624-0.15-0.885-0.15
			c-0.935,0.004-1.918,0.092-2.924,0.264c-0.177,0.029-0.354,0.045-0.528,0.045c-1.002,0-1.775-0.498-2.46-1.035
			c-0.191-0.15-0.309-0.168-0.391-0.168c-0.141,0-0.325,0.061-0.596,0.201c-0.568,0.293-1.192,0.564-1.903,0.564
			c-0.591,0-1.16-0.195-1.691-0.58c-0.033-0.023-0.122-0.051-0.267-0.051c-0.452,0-1.093,0.25-1.672,0.652
			c-0.134,0.092-0.29,0.139-0.447,0.139c-0.146,0-0.292-0.041-0.421-0.123c-0.16-0.102-0.322-0.207-0.485-0.313
			c-0.37-0.242-0.75-0.49-1.136-0.713c-0.153,0.234-0.312,0.521-0.387,0.801c-0.24,0.902-0.845,1-1.094,1
			c-0.312,0-0.55-0.137-0.694-0.219c-0.228-0.057-0.424-0.213-0.526-0.436l-0.194-0.424c-0.115-0.252-0.215-0.473-0.319-0.691
			c-0.084-0.178-0.172-0.354-0.26-0.531c-0.068-0.139-0.137-0.275-0.204-0.414c-0.146-0.305-0.236-0.424-0.278-0.471
			c-0.056,0.012-0.183,0.047-0.424,0.17c-0.429,0.219-0.78,0.32-1.106,0.32c-0.383,0-1.052-0.15-1.417-1.104
			c-0.772,0.361-1.565,0.705-2.25,0.998c-0.203,0.088-0.406,0.131-0.604,0.131c-0.39,0-0.936-0.168-1.324-0.971
			c-0.081-0.168-0.159-0.334-0.238-0.502c-0.213-0.451-0.415-0.883-0.646-1.297c-0.483,0.047-0.973,0.109-1.448,0.168
			c-0.557,0.07-1.133,0.145-1.711,0.193c-0.023,0.002-0.053,0.004-0.075,0.004c-0.639,0-1.121-0.723-1.125-0.73
			c-0.233-0.363-0.129-0.686-0.073-0.807c0.373-0.811,0.787-1.621,1.232-2.41c0.122-0.217,0.279-0.381,0.405-0.512
			c0.003-0.002,0.006-0.006,0.009-0.008c-0.65-0.246-1.318-0.479-1.966-0.703c-0.447-0.154-0.895-0.309-1.341-0.471
			c-0.253-0.09-0.44-0.248-0.576-0.361c-0.037-0.031-0.073-0.063-0.11-0.09c-0.173-0.125-0.288-0.314-0.317-0.525
			c-0.03-0.213,0.028-0.426,0.16-0.594c0.022-0.027,0.041-0.057,0.061-0.086c0.085-0.123,0.201-0.293,0.392-0.438
			c0.66-0.494,1.368-0.98,2.227-1.217c-1.244-1.328-2.127-2.82-2.63-4.449c-0.085-0.275-0.038-0.578,0.136-0.881
			c0.095-0.164,0.366-0.559,0.817-0.66c0.11-0.025,0.227-0.037,0.349-0.037c0.108,0,0.212,0.01,0.312,0.023
			c-0.091-0.215-0.183-0.432-0.275-0.646c-0.35-0.822-0.712-1.672-1.018-2.535c-0.159-0.449,0.013-0.85,0.127-1.113
			c0.023-0.053,0.056-0.129,0.07-0.174c-0.02-0.084-0.104-0.248-0.213-0.357c-0.21-0.207-0.455-0.4-0.714-0.607
			c-0.295-0.234-0.601-0.479-0.886-0.766c-0.556-0.561-0.61-1.08-0.557-1.414c0.123-0.775,0.865-1.158,1.11-1.283
			c0.515-0.268,1.045-0.514,1.557-0.752c0.343-0.16,0.695-0.324,1.039-0.492c-0.217-0.617-0.446-1.242-0.669-1.848
			c-0.233-0.637-0.475-1.295-0.704-1.947c-0.208-0.594-0.024-0.984,0.104-1.164c0.206-0.291,0.535-0.451,0.927-0.451
			c0.122,0,0.252,0.016,0.387,0.047c0.176,0.041,0.341,0.09,0.501,0.137c-0.173-2.023,0.505-3.807,1.23-5.471
			c0.434-1,1.118-1.15,1.487-1.15c0.055,0,0.11,0.004,0.164,0.01c-0.048-0.102-0.098-0.205-0.15-0.311
			c-0.214-0.436-0.443-0.881-0.665-1.311c-0.379-0.732-0.77-1.49-1.116-2.264c-0.251-0.561-0.246-1.092,0.014-1.492
			c0.223-0.344,0.61-0.541,1.061-0.541c0.173,0,0.36,0.027,0.555,0.084c0.657,0.186,1.3,0.42,1.922,0.645
			c0.124,0.045,0.247,0.09,0.371,0.135c0.054-1.352,0.307-2.721,1.299-3.875c0.41-0.48,0.799-0.932,1.432-0.932
			c0.528,0,0.949,0.328,1.406,0.725c0.294,0.256,0.567,0.525,0.832,0.785c0.113,0.113,0.223,0.223,0.332,0.326
			c1.383-1.936,3.385-3.299,5.958-4.051c0.188-0.055,0.357-0.082,0.519-0.082c0.707,0,1.125,0.443,1.245,1.316
			c0.008,0.061,0.019,0.143,0.028,0.174c0.082,0.283,0.149,0.57,0.213,0.863c0.586-0.381,1.145-0.744,1.708-1.102l0.206-0.133
			c0.492-0.316,1.002-0.643,1.55-0.918c0.131-0.068,0.277-0.102,0.434-0.102c0.413,0,0.904,0.242,1.141,0.563
			c0.145,0.191,0.282,0.391,0.417,0.594c0.126-0.262,0.275-0.516,0.47-0.742c0.683-0.789,1.522-1.582,2.564-2.422
			c0.282-0.229,0.601-0.348,0.923-0.348c0.658,0,1.227,0.484,1.483,1.264c0.132,0.4,0.225,0.799,0.314,1.186
			c0.01,0.041,0.02,0.084,0.029,0.125c0.882-0.67,1.943-1.32,3.3-1.434c0.339-0.027,0.673-0.07,1.027-0.115
			c0.344-0.043,0.7-0.088,1.06-0.117c0.042-0.004,0.088-0.006,0.137-0.006c0.284,0,0.968,0.061,1.198,0.621
			c0.178,0.432,0.062,0.885,0,1.129c-0.032,0.125-0.064,0.25-0.098,0.375c0.094-0.018,0.193-0.029,0.296-0.029
			c0.049,0,0.098,0.002,0.145,0.008c-0.014-0.461-0.022-0.893-0.014-1.326c0.006-0.348,0.096-0.654,0.176-0.924
			c0.028-0.094,0.056-0.188,0.078-0.283c0.054-0.227,0.206-0.418,0.416-0.521c0.109-0.055,0.228-0.082,0.346-0.082
			c0.11,0,0.219,0.023,0.321,0.068c0.055,0.025,0.113,0.047,0.171,0.07c0.183,0.07,0.411,0.156,0.627,0.316
			c0.719,0.533,1.436,1.086,2.129,1.619l0.08,0.063c0.171-0.559,0.363-1.123,0.672-1.645c0.279-0.471,0.953-0.959,1.595-0.959
			c0.102,0,0.201,0.012,0.296,0.035c0.495,0.127,0.915,0.582,1.319,1.43c0.115,0.242,0.211,0.486,0.301,0.744
			c0.263-0.326,0.523-0.643,0.796-0.945c0.512-0.57,1.131-1.227,1.834-1.783c0.113-0.09,0.31-0.199,0.604-0.199
			c0.425,0,1.16,0.264,1.436,0.756c0.314,0.563,0.586,1.143,0.85,1.703c0.147,0.313,0.299,0.633,0.455,0.945
			c0.546-0.246,1.097-0.506,1.631-0.758c0.791-0.373,1.608-0.76,2.432-1.111c0.28-0.119,0.547-0.18,0.794-0.18
			c0.68,0,1.414,0.461,1.434,1.758c0.001,0.096,0.003,0.191,0.004,0.291c0.083-0.049,0.167-0.094,0.253-0.139
			c0.526-0.271,1.065-0.52,1.586-0.76c0.207-0.096,0.413-0.191,0.619-0.289c0.202-0.094,0.408-0.143,0.612-0.143
			c0.463,0,1.272,0.242,1.552,1.846c1.763-1.287,3.57-2.029,5.52-2.271c0.089-0.012,0.18-0.016,0.267-0.016
			c0.499,0,0.946,0.184,1.259,0.518c0.326,0.348,0.486,0.84,0.451,1.385c-0.029,0.449-0.098,0.881-0.164,1.297
			c-0.016,0.104-0.031,0.201-0.047,0.299c0.104-0.053,0.208-0.105,0.312-0.16c0.756-0.391,1.539-0.797,2.345-1.143
			c0.111-0.047,0.231-0.072,0.357-0.072c0.604,0,1.215,0.615,1.408,0.945c0.1,0.172,0.18,0.35,0.25,0.527
			c0.24-0.213,0.474-0.42,0.709-0.625c0.182-0.158,0.359-0.324,0.536-0.488c0.47-0.436,0.955-0.885,1.53-1.24
			c0.415-0.254,0.757-0.373,1.075-0.373c0.562,0,1.237,0.316,1.263,1.822c0.003,0.197,0.005,0.393,0.005,0.59
			c0.122-0.102,0.245-0.203,0.372-0.301c0.547-0.426,1.054-0.748,1.548-0.984c0.184-0.088,0.388-0.131,0.625-0.131
			c0.136,0,0.264,0.014,0.376,0.027c0.077,0.008,0.15,0.016,0.201,0.016c0.208,0.002,0.407,0.088,0.552,0.236
			c0.146,0.148,0.226,0.35,0.223,0.557c-0.001,0.086,0.002,0.17,0.005,0.256c0.009,0.248,0.019,0.527-0.045,0.824
			c-0.099,0.465-0.216,0.924-0.33,1.371c0.032-0.004,0.065-0.008,0.098-0.012c1.239-0.143,2.41-0.277,3.606-0.391
			c0.035-0.004,0.072-0.006,0.109-0.006c0.408,0,0.982,0.242,1.241,0.688c0.278,0.475,0.044,1.039-0.201,1.43
			c-0.227,0.359-0.46,0.715-0.693,1.068c-0.103,0.158-0.208,0.318-0.313,0.479c1.858,0.318,3.421,1.01,4.76,2.109
			c0.199,0.162,0.338,0.354,0.45,0.51c0.036,0.049,0.071,0.1,0.109,0.146c0.27,0.336,0.218,0.826-0.116,1.098
			c-0.019,0.016-0.039,0.031-0.058,0.047c0.129,0.012,0.259,0.025,0.39,0.043c0.664,0.086,0.907,0.465,0.992,0.682
			c0.109,0.279,0.142,0.729-0.321,1.285c-0.192,0.232-0.39,0.457-0.582,0.674c-0.28,0.316-0.544,0.615-0.787,0.932
			c-0.015,0.02-0.027,0.035-0.036,0.049c0.018,0.018,0.042,0.039,0.074,0.063c1.135,0.879,1.971,2.125,2.632,3.924
			c0.23,0.625,0.095,1.088-0.059,1.365c-0.165,0.301-0.521,0.689-1.278,0.85c-0.489,0.102-1.001,0.252-1.558,0.455
			c0.115,0.311,0.244,0.838-0.002,1.342c-0.171,0.35-0.482,0.607-0.925,0.768c0.099,0.184,0.155,0.375,0.165,0.578
			c0.01,0.201-0.026,0.398-0.108,0.59c0.153,0.129,0.307,0.258,0.457,0.385c0.542,0.451,1.102,0.92,1.618,1.443
			c0.488,0.496,0.724,1.197,0.632,1.873c-0.081,0.596-0.407,1.1-0.895,1.381c-0.34,0.195-0.696,0.271-1.009,0.338
			c-0.111,0.023-0.222,0.047-0.33,0.078c-0.014,0.004-0.028,0.008-0.042,0.012c0.26,0.436,0.523,0.883,0.757,1.344
			c0.192,0.377,0.418,0.955,0.407,1.564c-0.014,0.83-0.499,1.346-1.266,1.346c-0.125,0-0.241-0.014-0.344-0.023
			c-0.062-0.008-0.126-0.014-0.167-0.014c-0.105,0.029-0.209,0.057-0.312,0.078c0.302,0.438,0.614,1.148,0.018,1.883
			c0.058,0.008,0.117,0.018,0.177,0.027c0.227,0.035,0.463,0.072,0.703,0.125c0.547,0.121,0.948,0.432,1.1,0.855
			c0.083,0.23,0.16,0.695-0.25,1.217c-0.679,0.865-1.399,1.693-2.139,2.465c0,0-0.198,0.203-0.232,0.238
			c0.108,0.121,0.216,0.242,0.324,0.361c0.511,0.57,1.04,1.16,1.54,1.764c0.126,0.154,0.257,0.426,0.16,0.852
			c-0.047,0.203-0.203,0.699-0.637,0.898c-0.676,0.311-1.354,0.578-1.96,0.805c0.182,0.258,0.373,0.516,0.568,0.777
			c0.426,0.572,0.366,1.066,0.291,1.311c-0.125,0.41-0.453,0.729-0.924,0.895c-0.737,0.258-1.507,0.467-2.288,0.619
			c-0.027,0.006-0.055,0.01-0.082,0.016c0.027,0.398-0.071,0.727-0.294,0.979c-0.237,0.27-0.576,0.406-1.005,0.406
			c-0.161,0-0.318-0.018-0.436-0.035c-0.376-0.055-0.704-0.219-0.967-0.35c-0.111-0.055-0.193-0.094-0.254-0.121
			c-0.032,0.061-0.074,0.143-0.127,0.256c-0.231,0.492-0.547,1.164-1.293,1.166c-0.4,0-0.747-0.217-1.126-0.479
			c-0.051-0.035-0.087-0.051-0.108-0.059c-0.01,0.008-0.022,0.02-0.036,0.037c-0.438,0.527-0.961,0.797-1.556,0.797
			c-0.328,0-0.667-0.082-1.035-0.252c-0.026-0.012-0.085-0.031-0.188-0.031c-0.379,0-0.797,0.252-0.891,0.461
			c-0.33,0.732-0.834,0.887-1.199,0.887c-0.232,0-0.471-0.063-0.731-0.195c-0.271-0.137-0.59-0.229-0.95-0.328
			c-0.02-0.006-0.029-0.006-0.029-0.006c-0.041,0.012-0.173,0.119-0.261,0.189c-0.104,0.086-0.224,0.182-0.364,0.271
			c-0.722,0.469-1.617,0.814-2.519,0.977c-1.485,0.266-2.832,0.404-4.118,0.426l-0.237,0.004c-0.216,0.004-0.435,0.008-0.656,0.008
			c-0.876,0-1.885-0.061-2.727-0.508c-0.396-0.211-0.773-0.309-1.187-0.309c-0.485,0-0.995,0.137-1.535,0.281
			c-0.168,0.045-0.338,0.092-0.51,0.135c-0.644,0.158-1.232,0.236-1.799,0.236c-0.67,0-1.302-0.107-1.934-0.324
			c-0.194-0.068-0.429-0.1-0.738-0.1c-0.258,0-0.531,0.021-0.82,0.043c-0.303,0.025-0.617,0.051-0.933,0.051
			c-1.031,0.002-2.064,0.002-3.097,0.002h-0.774c-0.047,0.004-0.083,0.006-0.117,0.006c-0.275,0-0.463-0.107-0.572-0.197
			c-0.185-0.154-0.361-0.221-0.584-0.221c-0.238,0-0.517,0.072-0.812,0.148c-0.294,0.074-0.599,0.152-0.931,0.184
			c-0.049,0.004-0.099,0.008-0.149,0.008c-0.137,0-0.262-0.018-0.362-0.031c-0.062-0.008-0.125-0.016-0.161-0.016
			c-0.229,0.014-0.453,0.025-0.677,0.037c-0.773,0.041-1.571,0.084-2.338,0.17c-0.639,0.072-1.294,0.176-1.926,0.273
			c-0.419,0.066-0.851,0.133-1.283,0.193c-0.143,0.135-0.334,0.211-0.534,0.211c-0.005,0-0.038,0-0.038,0
			c-0.113,0-0.239,0.01-0.373,0.021C172.362,169.859,172.207,169.871,172.048,169.871"/>
		<path clip-path="url(#SVGID_2_)" d="M182.077,111.301c-0.519,0-0.881,0.201-1.093,0.369c-0.745,0.59-1.392,1.275-1.926,1.869
			c-0.002,0.002-0.004,0.004-0.005,0.006c-0.335-0.604-0.841-1.264-1.637-1.467c-0.156-0.041-0.321-0.061-0.488-0.061
			c-0.968,0-1.874,0.676-2.269,1.344c-0.148,0.248-0.272,0.504-0.379,0.762c-0.449-0.344-0.905-0.689-1.363-1.029
			c-0.302-0.225-0.609-0.342-0.812-0.42c-0.044-0.018-0.089-0.033-0.132-0.053c-0.203-0.09-0.422-0.137-0.64-0.137
			c-0.238,0-0.475,0.055-0.694,0.162c-0.418,0.207-0.723,0.59-0.83,1.045c-0.002,0.008-0.004,0.016-0.006,0.025
			c-0.294-0.129-0.637-0.199-1.013-0.199c-0.07,0-0.139,0.002-0.204,0.008c-0.376,0.033-0.739,0.078-1.091,0.123
			c-0.346,0.043-0.672,0.084-0.995,0.111c-1.083,0.09-1.98,0.465-2.749,0.93c-0.027-0.09-0.055-0.182-0.085-0.271
			c-0.36-1.096-1.234-1.803-2.226-1.803c-0.504,0-0.993,0.18-1.415,0.521c-1.04,0.84-1.888,1.635-2.587,2.432
			c-0.403-0.361-0.981-0.598-1.514-0.598c-0.28,0-0.545,0.063-0.786,0.184c-0.585,0.297-1.111,0.633-1.62,0.961l-0.205,0.131
			c-0.257,0.164-0.513,0.328-0.771,0.494c-0.285-1.684-1.488-1.869-2.002-1.869c-0.237,0-0.478,0.037-0.737,0.113
			c-2.421,0.707-4.371,1.926-5.817,3.631c-0.182-0.178-0.371-0.355-0.573-0.529c-0.534-0.467-1.122-0.92-1.919-0.92
			c-0.994,0-1.591,0.697-2.028,1.207c-0.874,1.02-1.247,2.154-1.4,3.301c-0.449-0.158-0.909-0.314-1.383-0.449
			c-0.265-0.074-0.523-0.113-0.768-0.113c-0.722,0-1.348,0.328-1.718,0.898c-0.404,0.623-0.43,1.438-0.073,2.236
			c0.356,0.795,0.752,1.563,1.135,2.305c0.121,0.232,0.243,0.469,0.363,0.707c-0.43,0.215-0.891,0.623-1.221,1.383
			c-0.644,1.479-1.253,3.051-1.318,4.818c-0.028-0.002-0.055-0.002-0.082-0.002c-0.643,0-1.213,0.285-1.565,0.781
			c-0.216,0.303-0.529,0.951-0.204,1.875c0.231,0.66,0.473,1.32,0.708,1.959c0.142,0.389,0.287,0.781,0.429,1.176
			c-0.13,0.063-0.262,0.123-0.395,0.186c-0.519,0.242-1.056,0.492-1.586,0.764c-0.889,0.459-1.401,1.084-1.524,1.857
			c-0.081,0.514-0.013,1.295,0.775,2.09c0.316,0.32,0.656,0.588,0.955,0.826c0.191,0.152,0.375,0.299,0.532,0.439
			c-0.129,0.346-0.262,0.869-0.054,1.457c0.275,0.777,0.59,1.533,0.902,2.27c-0.569,0.236-0.9,0.719-1.026,0.938
			c-0.282,0.486-0.356,1.021-0.207,1.502c0.433,1.402,1.127,2.707,2.071,3.9c-0.573,0.297-1.036,0.645-1.389,0.91
			c-0.295,0.221-0.466,0.471-0.569,0.621c-0.011,0.016-0.022,0.033-0.034,0.049c-0.264,0.336-0.378,0.76-0.319,1.184
			c0.059,0.422,0.291,0.799,0.637,1.049c0.021,0.018,0.043,0.035,0.065,0.055c0.161,0.135,0.431,0.359,0.816,0.5
			c0.45,0.162,0.907,0.318,1.348,0.473c0.337,0.117,0.665,0.23,0.989,0.344c-0.404,0.732-0.781,1.477-1.124,2.223
			c-0.231,0.504-0.186,1.07,0.125,1.555c0.028,0.045,0.711,1.092,1.784,1.092c0.045,0,0.096-0.002,0.14-0.006
			c0.597-0.053,1.18-0.127,1.744-0.197c0.31-0.039,0.609-0.076,0.906-0.109c0.128,0.254,0.253,0.52,0.382,0.795
			c0.079,0.17,0.159,0.338,0.24,0.506c0.596,1.232,1.528,1.416,2.031,1.416c0.304,0,0.611-0.066,0.913-0.195
			c0.495-0.213,1.047-0.451,1.607-0.703c0.583,0.77,1.37,0.871,1.751,0.871c0.456,0,0.87-0.135,1.193-0.275
			c0.039,0.078,0.078,0.156,0.117,0.236c0.086,0.172,0.172,0.346,0.255,0.52c0.101,0.215,0.2,0.432,0.313,0.68
			c0.061,0.133,0.125,0.273,0.195,0.428c0.186,0.402,0.527,0.697,0.929,0.832c0.204,0.113,0.551,0.277,1.002,0.277
			c0.667,0,1.48-0.387,1.816-1.459c0.125,0.08,0.25,0.162,0.374,0.242c0.165,0.107,0.329,0.215,0.492,0.318
			c0.257,0.164,0.55,0.246,0.842,0.246c0.313,0,0.625-0.094,0.893-0.279c0.534-0.371,0.976-0.492,1.177-0.51
			c0.627,0.416,1.301,0.629,2.007,0.629c0.88,0,1.637-0.328,2.262-0.652c0.079-0.039,0.138-0.066,0.18-0.084
			c0.509,0.398,1.529,1.174,2.907,1.174c0.218,0,0.44-0.02,0.66-0.057c0.964-0.164,1.903-0.25,2.791-0.252
			c0.17,0,0.429,0.063,0.704,0.129c0.352,0.084,0.751,0.18,1.195,0.207c0.134,0.008,0.273,0.012,0.415,0.012
			c0.44,0,0.849-0.037,1.245-0.074c0.34-0.033,0.66-0.061,0.954-0.061c0.443,0,0.756,0.066,1.046,0.229
			c0.354,0.197,0.756,0.293,1.229,0.293c0.192,0,0.371-0.014,0.529-0.027c0.117-0.012,0.227-0.02,0.307-0.02h0.013
			c0.008,0,0.017,0,0.025,0c0.303,0,0.595-0.088,0.844-0.248c0.37-0.053,0.737-0.109,1.094-0.166
			c0.653-0.102,1.27-0.199,1.892-0.268c0.746-0.084,1.497-0.125,2.292-0.168c0.211-0.012,0.422-0.021,0.632-0.033
			c0.021,0.002,0.042,0.004,0.063,0.008c0.117,0.014,0.277,0.035,0.465,0.035c0.075,0,0.149-0.002,0.221-0.01
			c0.394-0.035,0.744-0.125,1.053-0.205c0.235-0.061,0.479-0.123,0.617-0.123c0.021,0,0.031,0.002,0.032,0.002
			c0,0,0.019,0.008,0.054,0.039c0.207,0.172,0.562,0.377,1.07,0.377c0.047,0,0.096-0.002,0.145-0.006h0.728
			c1.041,0,2.079,0,3.116-0.002c0.347-0.002,0.676-0.027,0.994-0.053c0.273-0.021,0.531-0.041,0.758-0.041
			c0.214,0,0.376,0.018,0.482,0.055c0.705,0.244,1.442,0.369,2.191,0.369c0.631,0,1.281-0.086,1.987-0.262
			c0.177-0.043,0.352-0.09,0.524-0.137c0.51-0.137,0.95-0.254,1.333-0.254c0.284,0,0.537,0.066,0.819,0.217
			c0.993,0.527,2.122,0.598,3.095,0.598c0.225,0,0.449-0.002,0.669-0.008l0.236-0.004c1.329-0.02,2.717-0.164,4.244-0.436
			c1.001-0.18,1.998-0.566,2.807-1.09c0.139-0.09,0.257-0.182,0.358-0.262c0.179,0.055,0.338,0.111,0.468,0.178
			c0.37,0.186,0.725,0.277,1.083,0.277c0.384,0,1.323-0.125,1.877-1.271c0.044-0.029,0.118-0.061,0.173-0.072
			c0.435,0.186,0.85,0.277,1.262,0.277c0.462,0,1.093-0.119,1.706-0.623c0.334,0.189,0.692,0.328,1.121,0.328
			c0.949,0,1.472-0.639,1.776-1.172c0.22,0.092,0.472,0.174,0.754,0.213c0.145,0.02,0.336,0.045,0.546,0.045
			c0.828,0,1.323-0.367,1.594-0.676c0.167-0.188,0.345-0.467,0.434-0.846c0.647-0.146,1.284-0.33,1.9-0.545
			c0.703-0.248,1.218-0.76,1.415-1.404c0.115-0.377,0.215-1.127-0.376-1.957c0.345-0.139,0.7-0.291,1.056-0.453
			c0.748-0.342,0.999-1.117,1.071-1.436c0.178-0.773-0.124-1.287-0.32-1.523c-0.456-0.555-0.933-1.09-1.399-1.609
			c0.663-0.707,1.307-1.457,1.919-2.236c0.47-0.598,0.605-1.314,0.371-1.965c-0.239-0.668-0.827-1.156-1.617-1.344
			c0.028-0.186,0.031-0.371,0.01-0.561c1.036-0.131,1.725-0.941,1.745-2.098c0.014-0.768-0.26-1.473-0.492-1.93
			c-0.084-0.164-0.17-0.326-0.257-0.484c0.185-0.063,0.38-0.143,0.572-0.254c0.701-0.406,1.167-1.117,1.281-1.955
			c0.125-0.914-0.193-1.859-0.849-2.527c-0.543-0.553-1.118-1.031-1.674-1.496c-0.028-0.023-0.055-0.047-0.082-0.068
			c0.015-0.125,0.017-0.242,0.012-0.344c-0.002-0.049-0.006-0.098-0.013-0.148c0.359-0.258,0.571-0.561,0.695-0.816
			c0.175-0.357,0.246-0.748,0.211-1.166c0.279-0.084,0.546-0.152,0.805-0.207c1.048-0.221,1.559-0.793,1.804-1.234
			c0.329-0.598,0.368-1.313,0.108-2.02c-0.608-1.652-1.364-2.883-2.35-3.811c0.103-0.119,0.21-0.24,0.319-0.365
			c0.196-0.221,0.398-0.451,0.598-0.691c0.744-0.895,0.6-1.682,0.447-2.07c-0.093-0.236-0.354-0.729-0.984-1.002
			c0.022-0.375-0.089-0.758-0.343-1.074c-0.029-0.035-0.056-0.074-0.083-0.111c-0.132-0.184-0.312-0.434-0.593-0.662
			c-1.159-0.949-2.471-1.619-3.974-2.021c0.13-0.201,0.261-0.404,0.39-0.609c0.51-0.809,0.586-1.605,0.214-2.242
			c-0.368-0.631-1.156-1.072-1.917-1.072c-0.061,0-0.122,0.002-0.182,0.008c-0.87,0.082-1.725,0.176-2.601,0.275
			c0.022-0.1,0.045-0.199,0.066-0.301c0.084-0.391,0.071-0.752,0.062-1.016c-0.003-0.082-0.006-0.158-0.005-0.217
			c0.006-0.416-0.154-0.818-0.445-1.115s-0.688-0.467-1.104-0.473c-0.019,0-0.081-0.008-0.126-0.012
			c-0.125-0.014-0.281-0.031-0.459-0.031c-0.352,0-0.676,0.07-0.963,0.207c-0.297,0.143-0.595,0.311-0.902,0.51
			c-0.35-1.574-1.545-1.713-1.949-1.713c-0.616,0-1.142,0.279-1.484,0.49c-0.641,0.395-1.179,0.893-1.653,1.332
			c-0.174,0.162-0.339,0.316-0.503,0.459c-0.395-0.482-1.092-1.027-1.867-1.027c-0.233,0-0.459,0.047-0.669,0.137
			c-0.466,0.201-0.92,0.418-1.365,0.641c0.004-0.055,0.008-0.109,0.012-0.164c0.049-0.764-0.185-1.465-0.661-1.971
			c-0.463-0.494-1.112-0.766-1.83-0.766c-0.12,0-0.243,0.008-0.365,0.021c-1.752,0.219-3.391,0.811-4.982,1.805
			c-0.567-1.227-1.533-1.385-1.993-1.385c-0.32,0-0.637,0.074-0.945,0.219c-0.203,0.096-0.408,0.189-0.613,0.285
			c-0.283,0.131-0.571,0.264-0.861,0.4c-0.325-1.115-1.214-1.623-2.088-1.623c-0.354,0-0.724,0.082-1.102,0.242
			c-0.837,0.359-1.662,0.748-2.459,1.123c-0.305,0.145-0.615,0.291-0.926,0.436c-0.039-0.082-0.078-0.164-0.117-0.248
			c-0.269-0.572-0.548-1.166-0.876-1.75C183.725,111.613,182.647,111.301,182.077,111.301 M182.077,112.865
			c0.228,0,0.654,0.18,0.753,0.355c0.528,0.945,0.938,1.951,1.437,2.91c0.058,0.109,0.318,0.211,0.494,0.211
			c0.042,0,0.079-0.006,0.108-0.02c1.45-0.643,2.864-1.363,4.32-1.984c0.185-0.08,0.347-0.117,0.487-0.117
			c0.423,0,0.641,0.35,0.651,0.986c0.008,0.521,0.013,1.043,0.021,1.689c0.526-0.33,0.935-0.625,1.377-0.854
			c0.715-0.367,1.452-0.691,2.179-1.033c0.099-0.047,0.192-0.07,0.279-0.07c0.385,0,0.662,0.441,0.793,1.266
			c0.058,0.361,0.154,0.717,0.259,1.191c0.348-0.279,0.615-0.506,0.895-0.713c1.561-1.152,3.278-1.936,5.221-2.176
			c0.059-0.006,0.116-0.012,0.172-0.012c0.582,0,0.972,0.396,0.928,1.07c-0.047,0.734-0.214,1.451-0.288,2.18
			c-0.023,0.211,0.096,0.445,0.149,0.666c0.181-0.076,0.367-0.145,0.543-0.234c1.041-0.525,2.064-1.09,3.132-1.547
			c0.014-0.008,0.031-0.01,0.049-0.01c0.191,0,0.591,0.316,0.731,0.559c0.252,0.432,0.364,0.947,0.562,1.506
			c0.572-0.508,1.076-0.963,1.588-1.41c0.646-0.563,1.244-1.209,1.962-1.65c0.278-0.172,0.497-0.258,0.664-0.258
			c0.335,0,0.468,0.346,0.48,1.053c0.013,0.744-0.002,1.486-0.005,2.32c0.577-0.506,1.091-0.996,1.646-1.428
			c0.439-0.342,0.908-0.658,1.405-0.896c0.086-0.039,0.184-0.053,0.288-0.053c0.183,0,0.385,0.041,0.568,0.043
			c-0.004,0.309,0.041,0.633-0.022,0.926c-0.168,0.783-0.386,1.553-0.571,2.328c-0.014,0.061,0.019,0.135,0.027,0.135
			c0.003,0,0.003-0.008-0.003-0.027c1.63-0.186,3.194-0.375,4.76-0.523c0.012-0.002,0.023-0.002,0.035-0.002
			c0.196,0,0.473,0.139,0.566,0.297c0.072,0.125-0.074,0.439-0.188,0.619c-0.48,0.764-0.99,1.502-1.464,2.266
			c-0.035,0.057,0.113,0.354,0.186,0.361c1.898,0.199,3.66,0.791,5.199,2.053c0.175,0.143,0.298,0.359,0.444,0.541
			c-0.154,0.125-0.302,0.26-0.463,0.373c-0.281,0.197-0.575,0.375-0.85,0.58c-0.055,0.041-0.097,0.215-0.071,0.242
			c0.078,0.074,0.192,0.143,0.294,0.152c0.605,0.047,1.214,0.047,1.815,0.125c0.544,0.072,0.409,0.404,0.17,0.693
			c-0.455,0.549-0.951,1.061-1.387,1.625c-0.327,0.424-0.339,0.811,0.18,1.211c1.169,0.904,1.868,2.189,2.375,3.572
			c0.239,0.648-0.114,1.041-0.763,1.18c-0.708,0.146-1.404,0.375-2.079,0.641c-0.116,0.047-0.199,0.502-0.119,0.686
			c0.318,0.725,0.164,1.137-0.574,1.324c-0.119,0.029-0.234,0.076-0.354,0.102c-0.508,0.105-0.495,0.348-0.136,0.658
			c0.411,0.357,0.425,0.705,0.06,1.092c-0.035,0.037,0.006,0.227,0.066,0.279c0.797,0.701,1.645,1.34,2.385,2.094
			c0.623,0.633,0.545,1.658-0.095,2.025c-0.341,0.197-0.771,0.232-1.16,0.342c-0.365,0.104-0.731,0.213-1.022,0.297
			c0.432,0.736,0.878,1.432,1.251,2.166c0.184,0.361,0.33,0.801,0.323,1.195c-0.008,0.484-0.221,0.578-0.483,0.578
			c-0.167,0-0.353-0.039-0.519-0.039c-0.068,0-0.133,0.008-0.192,0.027c-0.408,0.129-0.851,0.141-1.271,0.242
			c-0.057,0.012-0.129,0.27-0.084,0.35c0.092,0.166,0.267,0.277,0.392,0.426c0.346,0.406,0.678,0.813,0.151,1.326
			c-0.139,0.135-0.288,0.324-0.31,0.508c-0.02,0.16,0.101,0.469,0.21,0.498c0.501,0.137,1.023,0.176,1.529,0.287
			c0.443,0.096,0.747,0.385,0.403,0.824c-0.657,0.836-1.355,1.641-2.088,2.404c-0.62,0.645-0.653,0.609-0.357,1.186
			c0.657,0.736,1.324,1.461,1.949,2.219c0.063,0.076-0.071,0.482-0.198,0.539c-0.737,0.338-1.495,0.633-2.256,0.914
			c-0.471,0.174-0.438,0.455-0.201,0.797c0.246,0.355,0.504,0.703,0.761,1.051c0.344,0.461,0.207,0.834-0.264,1
			c-0.709,0.248-1.441,0.445-2.178,0.59c-0.456,0.09-0.799,0.146-0.72,0.762c0.065,0.51-0.195,0.625-0.511,0.625
			c-0.106,0-0.218-0.014-0.326-0.029c-0.254-0.037-0.502-0.162-0.738-0.279c-0.325-0.164-0.551-0.256-0.73-0.256
			c-0.284,0-0.448,0.229-0.699,0.764c-0.231,0.494-0.367,0.715-0.583,0.715c-0.16,0-0.363-0.121-0.682-0.34
			c-0.197-0.135-0.389-0.205-0.571-0.205c-0.227,0-0.437,0.107-0.621,0.328c-0.292,0.354-0.603,0.512-0.953,0.512
			c-0.219,0-0.454-0.061-0.708-0.178c-0.155-0.072-0.331-0.104-0.515-0.104c-0.636,0-1.363,0.387-1.604,0.922
			c-0.128,0.283-0.274,0.428-0.485,0.428c-0.107,0-0.231-0.037-0.377-0.111c-0.344-0.174-0.723-0.283-1.097-0.387
			c-0.084-0.023-0.163-0.033-0.236-0.033c-0.429,0-0.692,0.355-1.05,0.588c-0.659,0.426-1.453,0.723-2.232,0.861
			c-1.311,0.234-2.654,0.393-3.993,0.414c-0.285,0.004-0.582,0.012-0.88,0.012c-0.837,0-1.69-0.061-2.36-0.416
			c-0.555-0.295-1.063-0.4-1.554-0.4c-0.753,0-1.463,0.246-2.234,0.438c-0.528,0.131-1.063,0.215-1.61,0.215
			c-0.545,0-1.102-0.082-1.678-0.281c-0.312-0.109-0.648-0.143-0.995-0.143c-0.574,0-1.179,0.092-1.754,0.094
			c-1.292,0.002-2.586,0.002-3.883,0.002c-0.032,0-0.07,0.006-0.104,0.006c-0.029,0-0.054-0.004-0.072-0.018
			c-0.364-0.301-0.725-0.4-1.084-0.4c-0.606,0-1.208,0.279-1.814,0.336c-0.026,0.002-0.051,0.002-0.077,0.002
			c-0.172,0-0.35-0.045-0.523-0.045c-0.017,0-0.034,0-0.051,0.002c-1.018,0.059-2.041,0.098-3.053,0.211
			c-1.116,0.125-2.22,0.332-3.336,0.482c-0.007,0.002-0.015,0.002-0.023,0.002c-0.12,0-0.264-0.117-0.436-0.193
			c0.038,0.104,0.062,0.168,0.14,0.381c-0.012,0-0.025,0-0.037,0c-0.286,0-0.579,0.049-0.837,0.049
			c-0.176,0-0.336-0.023-0.468-0.098c-0.603-0.334-1.205-0.426-1.807-0.426c-0.733,0-1.466,0.135-2.199,0.135
			c-0.106,0-0.212-0.002-0.317-0.008c-0.666-0.041-1.336-0.338-1.995-0.338h-0.005c-1.022,0.002-2.05,0.102-3.052,0.273
			c-0.136,0.021-0.268,0.033-0.396,0.033c-0.773,0-1.384-0.402-1.977-0.867c-0.306-0.24-0.592-0.336-0.874-0.336
			c-0.316,0-0.626,0.119-0.954,0.289c-0.504,0.26-1.012,0.477-1.544,0.477c-0.395,0-0.803-0.119-1.232-0.43
			c-0.188-0.137-0.438-0.201-0.726-0.201c-0.613,0-1.396,0.291-2.119,0.793c-0.606-0.389-1.231-0.82-1.894-1.184
			c-0.042-0.021-0.102-0.031-0.168-0.031c-0.175,0-0.396,0.07-0.465,0.168c-0.276,0.389-0.536,0.82-0.659,1.279
			c-0.086,0.322-0.209,0.418-0.338,0.418c-0.186,0-0.383-0.197-0.497-0.197c-0.004,0-0.008,0-0.011,0
			c-0.205-0.447-0.357-0.787-0.517-1.125c-0.152-0.318-0.313-0.633-0.467-0.951c-0.302-0.625-0.554-0.916-0.947-0.916
			c-0.217,0-0.478,0.088-0.815,0.26c-0.286,0.145-0.536,0.234-0.75,0.234c-0.334,0-0.582-0.215-0.744-0.773
			c-0.097-0.336-0.25-0.447-0.434-0.447c-0.153,0-0.329,0.078-0.515,0.164c-0.752,0.354-1.517,0.686-2.283,1.016
			c-0.109,0.047-0.207,0.066-0.295,0.066c-0.288,0-0.474-0.227-0.62-0.527c-0.309-0.643-0.596-1.297-0.949-1.92
			c-0.091-0.158-0.385-0.33-0.571-0.33c-0.009,0-0.017,0-0.025,0.002c-1.093,0.1-2.174,0.275-3.271,0.371
			c-0.002,0-0.005,0.002-0.007,0.002c-0.151,0-0.512-0.373-0.486-0.43c0.368-0.799,0.77-1.584,1.203-2.352
			c0.165-0.293,0.505-0.498,0.616-0.801c0.066-0.184-0.103-0.643-0.261-0.703c-1.206-0.473-2.441-0.869-3.665-1.311
			c-0.18-0.064-0.329-0.23-0.494-0.35c0.102-0.129,0.18-0.285,0.309-0.381c0.833-0.627,1.693-1.207,2.851-1.207h0.006
			c0.073,0,0.198-0.115,0.193-0.172c-0.014-0.145-0.048-0.33-0.147-0.424c-1.424-1.34-2.466-2.9-3.029-4.721
			c-0.047-0.154,0.198-0.506,0.378-0.547c0.057-0.012,0.116-0.018,0.177-0.018c0.244,0,0.514,0.086,0.768,0.115
			c0.223,0.025,0.446,0.041,0.669,0.061c-0.059-0.234-0.09-0.479-0.181-0.703c-0.501-1.223-1.059-2.432-1.5-3.676
			c-0.104-0.297,0.265-0.689,0.245-1.043c-0.015-0.299-0.217-0.666-0.447-0.896c-0.496-0.488-1.104-0.871-1.595-1.367
			c-0.691-0.697-0.232-1.148,0.355-1.451c0.955-0.492,1.952-0.914,2.91-1.398c0.124-0.063,0.222-0.354,0.171-0.5
			c-0.473-1.367-0.996-2.723-1.478-4.096c-0.121-0.346-0.022-0.572,0.292-0.572c0.062,0,0.132,0.008,0.21,0.027
			c0.397,0.094,0.789,0.242,1.186,0.303c0.006,0,0.012,0.002,0.018,0.002c0.131,0,0.374-0.186,0.36-0.26
			c-0.428-2.15,0.268-4.006,1.062-5.83c0.198-0.457,0.467-0.678,0.77-0.678c0.281,0,0.592,0.189,0.905,0.564
			c0.118,0.139,0.312,0.217,0.471,0.324c0.04-0.188,0.164-0.398,0.104-0.561c-0.22-0.594-0.48-1.184-0.764-1.76
			c-0.581-1.184-1.23-2.344-1.769-3.549c-0.225-0.504-0.128-0.93,0.361-0.93c0.097,0,0.211,0.016,0.34,0.053
			c0.91,0.258,1.799,0.613,2.695,0.924c0.13,0.045,0.287,0.141,0.396,0.141c0.019,0,0.037-0.004,0.053-0.012
			c0.095-0.041,0.132-0.264,0.133-0.412c0.007-1.461,0.148-2.844,1.123-3.979c0.369-0.43,0.583-0.66,0.839-0.66
			c0.222,0,0.476,0.172,0.892,0.535c0.532,0.461,1.007,0.99,1.535,1.455c0.041,0.037,0.13,0.053,0.22,0.053
			c0.109,0,0.221-0.023,0.25-0.07c1.372-2.18,3.388-3.498,5.851-4.219c0.117-0.035,0.216-0.049,0.298-0.049
			c0.505,0,0.421,0.574,0.521,0.922c0.169,0.588,0.273,1.189,0.436,1.926c0.949-0.613,1.8-1.172,2.658-1.719
			c0.554-0.354,1.103-0.717,1.689-1.014c0.021-0.012,0.049-0.016,0.08-0.016c0.159,0,0.421,0.121,0.513,0.246
			c0.4,0.533,0.739,1.109,1.192,1.809c0.338-0.734,0.504-1.436,0.916-1.91c0.738-0.854,1.586-1.619,2.464-2.326
			c0.149-0.121,0.295-0.174,0.431-0.174c0.329,0,0.602,0.311,0.739,0.727c0.217,0.656,0.324,1.338,0.518,2
			c0.024,0.08,0.271,0.197,0.372,0.197c0.016,0,0.028-0.002,0.035-0.008c1.044-0.842,2.091-1.66,3.527-1.777
			c0.699-0.059,1.389-0.174,2.088-0.234c0.022-0.002,0.046-0.004,0.071-0.004c0.184,0,0.438,0.051,0.474,0.139
			c0.075,0.182,0.017,0.432-0.035,0.637c-0.161,0.637-0.346,1.264-0.527,1.912c0.027,0.004,0.054,0.006,0.081,0.006
			c0.463,0,0.893-0.596,1.402-0.596c0.293,0,0.613,0.197,0.98,0.822c-0.031-1.158-0.081-2.037-0.066-2.91
			c0.006-0.354,0.152-0.693,0.234-1.041c0.219,0.098,0.462,0.16,0.652,0.301c0.869,0.643,1.721,1.305,2.575,1.963
			c0.15,0.115,0.273,0.174,0.375,0.174c0.148,0,0.254-0.125,0.335-0.395c0.201-0.664,0.392-1.355,0.736-1.936
			c0.168-0.281,0.611-0.574,0.922-0.574c0.035,0,0.069,0.004,0.101,0.012c0.317,0.08,0.621,0.617,0.807,1.008
			c0.268,0.561,0.424,1.172,0.719,2.027c0.625-0.773,1.119-1.436,1.667-2.043c0.542-0.604,1.107-1.195,1.737-1.693
			C181.984,112.875,182.026,112.865,182.077,112.865"/>
		<path clip-path="url(#SVGID_2_)" fill="#E5E2D3" d="M200.98,173.525c-0.432,0-0.783-0.35-0.783-0.783v-31.307h-7.432v31.307
			c0,0.434-0.351,0.783-0.783,0.783h-7.798c-0.433,0-0.783-0.35-0.783-0.783v-31.307h-7.432v31.307c0,0.434-0.351,0.783-0.783,0.783
			h-7.798c-0.433,0-0.783-0.35-0.783-0.783v-31.307h-7.432v31.307c0,0.434-0.351,0.783-0.783,0.783h-7.798
			c-0.433,0-0.783-0.35-0.783-0.783v-31.307h-10.387c-0.433,0-0.783-0.35-0.783-0.783v-4.764c0-0.434,0.35-0.783,0.783-0.783h10.387
			v-7.055c0-0.207,0.082-0.406,0.229-0.553l3.899-3.9c0.153-0.152,0.353-0.229,0.553-0.229c0.201,0,0.401,0.076,0.554,0.229
			l3.899,3.9c0.147,0.146,0.23,0.346,0.23,0.553v7.055h7.432v-7.055c0-0.207,0.082-0.406,0.229-0.553l3.899-3.9
			c0.147-0.146,0.346-0.229,0.554-0.229c0.207,0,0.406,0.082,0.553,0.229l3.899,3.9c0.147,0.146,0.23,0.346,0.23,0.553v7.055h7.432
			v-7.055c0-0.207,0.082-0.406,0.229-0.553l3.899-3.9c0.147-0.146,0.346-0.229,0.554-0.229c0.207,0,0.406,0.082,0.553,0.229
			l3.899,3.9c0.147,0.146,0.23,0.346,0.23,0.553v7.055h7.432v-7.055c0-0.207,0.082-0.406,0.229-0.553l3.899-3.9
			c0.147-0.146,0.346-0.229,0.553-0.229c0.208,0,0.407,0.082,0.554,0.229l3.899,3.9c0.147,0.146,0.23,0.346,0.23,0.553v7.055h10.387
			c0.432,0,0.782,0.35,0.782,0.783v4.764c0,0.434-0.35,0.783-0.782,0.783h-10.387v31.307c0,0.434-0.351,0.783-0.783,0.783H200.98z"
			/>
		<path clip-path="url(#SVGID_2_)" d="M204.878,122.586L204.878,122.586c-0.415,0-0.814,0.166-1.107,0.459l-3.899,3.898
			c-0.293,0.295-0.458,0.693-0.458,1.107v6.271h-5.867v-6.271c0-0.414-0.165-0.813-0.459-1.107l-3.899-3.898
			c-0.293-0.293-0.691-0.459-1.107-0.459c-0.415,0-0.813,0.166-1.107,0.459l-3.899,3.898c-0.294,0.295-0.459,0.693-0.459,1.107
			v6.271h-5.866v-6.271c0-0.414-0.165-0.813-0.459-1.107l-3.899-3.898c-0.293-0.293-0.692-0.459-1.107-0.459
			s-0.814,0.166-1.107,0.459l-3.899,3.898c-0.294,0.295-0.459,0.693-0.459,1.107v6.271h-5.866v-6.271
			c0-0.414-0.165-0.814-0.458-1.107l-3.9-3.898c-0.293-0.293-0.692-0.459-1.107-0.459c-0.415,0-0.814,0.166-1.107,0.459
			l-3.899,3.898c-0.294,0.295-0.459,0.693-0.459,1.107v6.271h-9.604c-0.865,0-1.566,0.701-1.566,1.566v4.764
			c0,0.865,0.701,1.566,1.566,1.566h9.604v30.523c0,0.865,0.701,1.566,1.566,1.566h7.798c0.865,0,1.566-0.701,1.566-1.566v-30.523
			h5.866v30.523c0,0.865,0.701,1.566,1.566,1.566h7.798c0.865,0,1.566-0.701,1.566-1.566v-30.523h5.866v30.523
			c0,0.865,0.701,1.566,1.566,1.566h7.798c0.865,0,1.566-0.701,1.566-1.566v-30.523h5.867v30.523c0,0.865,0.701,1.566,1.566,1.566
			h7.797c0.865,0,1.566-0.701,1.566-1.566v-30.523h9.604c0.865,0,1.566-0.701,1.566-1.566v-4.764c0-0.865-0.701-1.566-1.566-1.566
			h-9.604v-6.271c0-0.414-0.165-0.814-0.459-1.107l-3.899-3.898C205.692,122.752,205.293,122.586,204.878,122.586 M204.878,124.152
			l3.899,3.898v7.838h11.17v4.764h-11.17v32.09h-7.797v-32.09h-8.999v32.09h-7.798v-32.09h-8.998v32.09h-7.798v-32.09h-8.998v32.09
			h-7.798v-32.09h-11.17v-4.764h11.17v-7.838l3.899-3.898l3.899,3.898v7.838h8.998v-7.838l3.899-3.898l3.899,3.898v7.838h8.998
			v-7.838l3.899-3.898l3.899,3.898v7.838h8.999v-7.838L204.878,124.152z"/>
		<path clip-path="url(#SVGID_2_)" fill="#E5E2D3" d="M284.829,140.52c-4.205,0.109-8.516-1.377-12.245-3.195
			c-1.656-0.809-7.883-6.275-3.582-8.033c3.138-1.863,7.142,0.625,9.664,2.346C279.322,132.088,289.047,140.391,284.829,140.52"/>
		
			<path clip-path="url(#SVGID_2_)" fill="none" stroke="#000000" stroke-width="1.6" stroke-linecap="round" stroke-linejoin="round" stroke-miterlimit="10" d="
			M284.829,140.52c-4.205,0.109-8.516-1.377-12.245-3.195c-1.656-0.809-7.883-6.275-3.582-8.033
			c3.138-1.863,7.142,0.625,9.664,2.346C279.322,132.088,289.047,140.391,284.829,140.52z"/>
		<path clip-path="url(#SVGID_2_)" fill="#E5E2D3" d="M269.776,168.715c-0.253,0-0.499-0.123-0.649-0.346
			c-0.221-0.326-0.164-0.766,0.131-1.025c0.623-0.551,2.042-2.002,1.742-3.59c-0.104-0.508-0.289-1.029-0.485-1.584
			c-0.423-1.189-0.896-2.525-0.474-3.91c-0.531-0.801-0.819-1.748-0.819-2.713c0-2.705,2.201-4.906,4.906-4.906
			s4.907,2.201,4.907,4.906c0,2.205-1.479,4.129-3.569,4.721c-0.043,0.09-0.081,0.174-0.105,0.242
			c-0.474,1.32-0.501,2.502-0.079,3.508l0.057,0.133c0.247,0.572,0.425,0.984,0.153,1.4c-0.15,0.227-0.402,0.361-0.674,0.361
			c-0.435,0-0.713-0.33-0.937-0.594c-0.089-0.105-0.174-0.211-0.254-0.318c-0.601,1.512-1.841,2.797-3.5,3.631
			C270.016,168.688,269.896,168.715,269.776,168.715"/>
		<path clip-path="url(#SVGID_2_)" d="M274.129,149.857c-3.137,0-5.689,2.553-5.689,5.689c0,0.998,0.266,1.98,0.759,2.838
			c-0.327,1.496,0.168,2.891,0.579,4.047c0.185,0.523,0.36,1.016,0.455,1.479c0.223,1.223-1.086,2.488-1.493,2.846
			c-0.59,0.521-0.702,1.4-0.261,2.051c0.3,0.445,0.792,0.689,1.298,0.689c0.237,0,0.478-0.053,0.702-0.166
			c1.434-0.721,2.587-1.754,3.34-2.975c0.255,0.189,0.581,0.34,1,0.34c0.536,0,1.033-0.268,1.327-0.715
			c0.505-0.768,0.177-1.529-0.087-2.141c-0.02-0.045-0.039-0.088-0.054-0.125c-0.336-0.801-0.32-1.723,0.049-2.814
			c2.224-0.799,3.764-2.93,3.764-5.354C279.818,152.41,277.266,149.857,274.129,149.857 M274.129,151.424
			c2.277,0,4.123,1.846,4.123,4.123c0,2.004-1.431,3.674-3.328,4.045c-0.109,0.232-0.229,0.455-0.3,0.654
			c-0.478,1.332-0.622,2.742-0.063,4.074c0.114,0.271,0.365,0.809,0.258,0.809c-0.044,0-0.146-0.088-0.34-0.316
			c-0.503-0.594-0.918-1.305-1.083-2.074c-0.248-1.049-0.234-2.102-0.085-3.15c-0.087-0.016-0.172-0.037-0.256-0.061
			c-0.357,0.477-0.051,1.801-0.006,2.225c0.102,0.961,0.206,2.008-0.139,2.934c-0.561,1.443-1.764,2.557-3.134,3.244
			c1.2-1.057,2.31-2.646,1.994-4.32c-0.381-1.871-1.657-3.66-0.848-5.473c-0.573-0.707-0.916-1.607-0.916-2.59
			C270.006,153.27,271.852,151.424,274.129,151.424"/>
		<path clip-path="url(#SVGID_2_)" fill="#CCAC6C" d="M263.984,130.168c-1.106-2.51-2.12-5.41-4.16-7.352
			c-4.734-4.244-9.844-0.934-14.399,1.568c-0.567,0.313-2.321,0.904-2.656,1.469c-1.14,0.641,0.273,1.326,1.012,1.074
			c2.49-0.846,4.963-1.74,7.431-2.648c2.822-1.039,5.835-0.154,7.04,2.729c-0.083-0.172-0.022-0.043-0.039-0.08
			c0.633,1.553,1.27,3.107,1.96,4.635C261.298,134.07,265.127,132.711,263.984,130.168"/>
		
			<path clip-path="url(#SVGID_2_)" fill="none" stroke="#000000" stroke-width="1.6" stroke-linecap="round" stroke-linejoin="round" stroke-miterlimit="10" d="
			M263.984,130.168c-1.106-2.51-2.12-5.41-4.16-7.352c-4.734-4.244-9.844-0.934-14.399,1.568c-0.567,0.313-2.321,0.904-2.656,1.469
			c-1.14,0.641,0.273,1.326,1.012,1.074c2.49-0.846,4.963-1.74,7.431-2.648c2.822-1.039,5.835-0.154,7.04,2.729
			c-0.083-0.172-0.022-0.043-0.039-0.08c0.633,1.553,1.27,3.107,1.96,4.635C261.298,134.07,265.127,132.711,263.984,130.168z"/>
		<path clip-path="url(#SVGID_2_)" fill="#CCAC6C" d="M272.554,130.621c0.25-2.414,0.743-5.09,0.027-7.477
			c-1.778-5.338-7.157-5.027-11.754-5.098c-0.573-0.008-2.18-0.32-2.685-0.033c-1.157-0.006-0.372,1.141,0.306,1.271
			c2.285,0.438,4.578,0.834,6.873,1.213c2.624,0.438,4.551,2.438,4.213,5.184c0.012-0.17,0.003-0.043,0.005-0.08
			c-0.194,1.473-0.386,2.947-0.526,4.426C268.778,132.449,272.315,133.078,272.554,130.621"/>
		
			<path clip-path="url(#SVGID_2_)" fill="none" stroke="#000000" stroke-width="1.6" stroke-linecap="round" stroke-linejoin="round" stroke-miterlimit="10" d="
			M272.554,130.621c0.25-2.414,0.743-5.09,0.027-7.477c-1.778-5.338-7.157-5.027-11.754-5.098c-0.573-0.008-2.18-0.32-2.685-0.033
			c-1.157-0.006-0.372,1.141,0.306,1.271c2.285,0.438,4.578,0.834,6.873,1.213c2.624,0.438,4.551,2.438,4.213,5.184
			c0.012-0.17,0.003-0.043,0.005-0.08c-0.194,1.473-0.386,2.947-0.526,4.426C268.778,132.449,272.315,133.078,272.554,130.621z"/>
		<path clip-path="url(#SVGID_2_)" fill="#AB2E23" d="M280.153,153.201c0-2.268-1.054-3.465-3.323-3.465
			c-2.268,0-5.462,0.57-5.462,2.838c0,2.266,2.181,4.789,4.45,4.789C278.086,157.363,280.153,155.467,280.153,153.201"/>
		
			<path clip-path="url(#SVGID_2_)" fill="none" stroke="#000000" stroke-width="1.6" stroke-linecap="round" stroke-linejoin="round" stroke-miterlimit="10" d="
			M280.153,153.201c0-2.268-1.054-3.465-3.323-3.465c-2.268,0-5.462,0.57-5.462,2.838c0,2.266,2.181,4.789,4.45,4.789
			C278.086,157.363,280.153,155.467,280.153,153.201z"/>
		<path clip-path="url(#SVGID_2_)" fill="#E5E2D3" d="M234.631,162.865c5.322-3.262,8.927-10.758,16.481-22.086
			c1.785-2.678,2.866-2.564,4.855-5.092c2.21-2.811,4.343-7.041,7.885-8.217c2.592-0.861,5.527-0.174,7.472,1.742
			c1.616,1.59,2.317,3.977,3.352,5.961c1.811,3.471,3.579,7.354,6.064,10.385c1.776,2.186,4.393,3.172,4.212,6.475
			c-0.163,2.982-2.789,5.348-5.776,5.184c-3.009-0.164-3.844-2.553-5.884-4.211c-0.976-0.799-2.082-1.418-3.164-2.057
			c-0.418-0.248-2.097-1.594-2.645-1.533c-0.499-0.279-9.984,19.607-10.419,19.973"/>
		
			<path clip-path="url(#SVGID_2_)" fill="none" stroke="#000000" stroke-width="1.6" stroke-linecap="round" stroke-linejoin="round" stroke-miterlimit="10" d="
			M234.631,162.865c5.322-3.262,8.927-10.758,16.481-22.086c1.785-2.678,2.866-2.564,4.855-5.092
			c2.21-2.811,4.343-7.041,7.885-8.217c2.592-0.861,5.527-0.174,7.472,1.742c1.616,1.59,2.317,3.977,3.352,5.961
			c1.811,3.471,3.579,7.354,6.064,10.385c1.776,2.186,4.393,3.172,4.212,6.475c-0.163,2.982-2.789,5.348-5.776,5.184
			c-3.009-0.164-3.844-2.553-5.884-4.211c-0.976-0.799-2.082-1.418-3.164-2.057c-0.418-0.248-2.097-1.594-2.645-1.533
			c-0.499-0.279-9.984,19.607-10.419,19.973"/>
	</g>
	
		<line fill="none" stroke="#000000" stroke-width="1.6" stroke-linecap="round" stroke-linejoin="round" stroke-miterlimit="10" x1="269.287" y1="154.857" x2="264.124" y2="152.242"/>
	<polygon fill="#E5E2D3" points="270.206,154.559 261.659,150.191 264.193,147.959 270.335,151.824 270.707,153.328 	"/>
	<g>
		<defs>
			<rect id="SVGID_25_" x="15.92" y="65.451" width="318.08" height="108.857"/>
		</defs>
		<clipPath id="SVGID_4_">
			<use xlink:href="#SVGID_25_"  overflow="visible"/>
		</clipPath>
		<path clip-path="url(#SVGID_4_)" fill="#E5E2D3" d="M262.06,129.645c-3.138-1.863-7.142,0.623-9.663,2.346
			c-0.656,0.449-10.379,8.754-6.162,8.883c4.205,0.107,8.515-1.377,12.243-3.195c0.674-0.33,2.106-1.432,3.277-2.74"/>
		
			<path clip-path="url(#SVGID_4_)" fill="none" stroke="#000000" stroke-width="1.6" stroke-linecap="round" stroke-linejoin="round" stroke-miterlimit="10" d="
			M262.06,129.645c-3.138-1.863-7.142,0.623-9.663,2.346c-0.656,0.449-10.379,8.754-6.162,8.883
			c4.205,0.107,8.515-1.377,12.243-3.195c0.674-0.33,2.106-1.432,3.277-2.74"/>
		
			<path clip-path="url(#SVGID_4_)" fill="none" stroke="#000000" stroke-width="1.6" stroke-linecap="round" stroke-linejoin="round" stroke-miterlimit="10" d="
			M279.123,153.396c0-0.693-0.569-1.254-1.271-1.254c-0.703,0-1.272,0.561-1.272,1.254"/>
		<path clip-path="url(#SVGID_4_)" d="M265.109,138.754c0,0.711,0.577,1.287,1.289,1.287c0.711,0,1.288-0.576,1.288-1.287
			c0-0.713-0.577-1.289-1.288-1.289C265.686,137.465,265.109,138.041,265.109,138.754"/>
		<path clip-path="url(#SVGID_4_)" d="M272.897,137.436c0,0.713,0.577,1.289,1.289,1.289c0.711,0,1.288-0.576,1.288-1.289
			c0-0.711-0.577-1.287-1.288-1.287C273.475,136.148,272.897,136.725,272.897,137.436"/>
		
			<path clip-path="url(#SVGID_4_)" fill="none" stroke="#000000" stroke-width="1.6" stroke-linecap="round" stroke-linejoin="round" stroke-miterlimit="10" d="
			M284.835,152.752c0-0.691-0.569-1.254-1.271-1.254c-0.703,0-1.272,0.563-1.272,1.254"/>
		<path clip-path="url(#SVGID_4_)" fill="#FFFFFF" d="M316.01,137.148c-0.085-0.225-0.139-0.441-0.228-0.656
			c-0.104-0.215-0.182-0.422-0.286-0.627c-0.119-0.201-0.23-0.398-0.335-0.592c-0.132-0.189-0.262-0.377-0.389-0.559
			c-0.031-0.047-0.061-0.092-0.092-0.137l-0.111-0.131c-0.073-0.086-0.146-0.172-0.217-0.256c-0.069-0.084-0.14-0.168-0.207-0.25
			c-0.066-0.082-0.155-0.156-0.229-0.236c-0.152-0.154-0.3-0.305-0.445-0.451c-0.313-0.285-0.624-0.547-0.908-0.793
			c-0.311-0.234-0.601-0.453-0.871-0.656c-0.054-0.035-0.103-0.066-0.155-0.1c-2.73,0.809-5.619,1.244-8.611,1.244
			c-16.719,0-30.272-13.555-30.272-30.275s13.553-30.277,30.272-30.277c16.72,0,30.273,13.557,30.273,30.277
			c0,10.559-5.407,19.855-13.602,25.273c0.088,0.131,0.175,0.264,0.263,0.398c0.173,0.297,0.35,0.6,0.531,0.912
			c0.088,0.158,0.183,0.305,0.265,0.477c0.081,0.168,0.163,0.34,0.247,0.514c0.081,0.172,0.163,0.346,0.246,0.521
			c0.041,0.088,0.083,0.176,0.125,0.266c0.036,0.094,0.073,0.188,0.109,0.281c0.146,0.379,0.29,0.766,0.431,1.156
			c0.117,0.412,0.231,0.83,0.342,1.252c0.098,0.432,0.163,0.885,0.239,1.332c0.062,0.453,0.078,0.93,0.108,1.398
			c0.003,0.477-0.017,0.963-0.045,1.445c-0.032,0.242-0.064,0.486-0.099,0.732c-0.036,0.244-0.065,0.488-0.132,0.73
			c-0.12,0.486-0.23,0.973-0.42,1.443c-0.321,0.957-0.831,1.85-1.397,2.688c-0.315,0.396-0.603,0.814-0.966,1.17
			c-0.176,0.182-0.344,0.369-0.53,0.539c-0.189,0.164-0.381,0.328-0.572,0.492c-0.186,0.17-0.396,0.309-0.601,0.453
			c-0.208,0.139-0.404,0.295-0.624,0.416l-0.651,0.367c-0.213,0.125-0.448,0.211-0.673,0.316c-0.445,0.215-0.924,0.354-1.388,0.508
			c-0.235,0.07-0.479,0.115-0.716,0.172c-0.238,0.055-0.475,0.107-0.718,0.131l-0.721,0.09c-0.241,0.018-0.483,0.02-0.723,0.027
			l-0.358,0.006c-0.12-0.002-0.24-0.014-0.358-0.02l-0.71-0.055c-0.936-0.139-1.849-0.342-2.686-0.697
			c-0.209-0.088-0.423-0.16-0.623-0.262c-0.198-0.102-0.395-0.205-0.592-0.309l-0.292-0.154c-0.096-0.051-0.185-0.117-0.277-0.174
			c-0.182-0.121-0.362-0.24-0.543-0.359c-0.615-0.424-1.261-0.865-1.886-1.26c-0.307-0.174-0.62-0.336-0.925-0.504
			c-0.308-0.164-0.611-0.33-0.933-0.461c-0.317-0.137-0.63-0.275-0.94-0.41c-0.154-0.074-0.311-0.129-0.468-0.182
			c-0.156-0.059-0.311-0.113-0.466-0.168c-0.612-0.246-1.223-0.41-1.813-0.598c-0.295-0.092-0.59-0.145-0.879-0.217
			c-0.145-0.035-0.289-0.068-0.431-0.102c-0.143-0.031-0.286-0.045-0.426-0.068c-1.128-0.211-2.181-0.209-3.113-0.139
			c-0.231,0.027-0.461,0.037-0.675,0.078c-0.215,0.043-0.423,0.082-0.623,0.121c-0.2,0.041-0.383,0.107-0.565,0.156
			c-0.091,0.025-0.179,0.051-0.265,0.076c-0.084,0.031-0.165,0.063-0.245,0.092c-0.649,0.223-1.112,0.51-1.431,0.699
			c-0.157,0.1-0.267,0.191-0.348,0.246c-0.079,0.057-0.119,0.086-0.119,0.086s0.033-0.037,0.098-0.109
			c0.066-0.07,0.157-0.186,0.293-0.316c0.07-0.064,0.148-0.135,0.235-0.213c0.086-0.08,0.181-0.166,0.294-0.246
			c0.112-0.084,0.231-0.172,0.359-0.27c0.131-0.09,0.278-0.174,0.43-0.27c0.616-0.365,1.424-0.742,2.409-0.986
			c0.979-0.254,2.134-0.422,3.388-0.373c0.157,0.004,0.317,0,0.477,0.012c0.159,0.014,0.319,0.027,0.481,0.043
			c0.163,0.016,0.327,0.029,0.493,0.047c0.165,0.016,0.335,0.023,0.499,0.061c0.332,0.063,0.67,0.125,1.012,0.189
			c0.173,0.031,0.344,0.07,0.512,0.123c0.169,0.047,0.34,0.096,0.512,0.145s0.344,0.102,0.518,0.152
			c0.174,0.051,0.349,0.104,0.518,0.172c0.341,0.129,0.687,0.26,1.037,0.393c0.353,0.121,0.697,0.287,1.05,0.443
			c0.355,0.152,0.71,0.316,1.076,0.467c0.683,0.33,1.35,0.652,2.084,0.965c0.158,0.064,0.317,0.129,0.477,0.193
			c0.079,0.029,0.156,0.068,0.238,0.092l0.245,0.07c0.162,0.047,0.325,0.094,0.488,0.141c0.162,0.047,0.331,0.064,0.495,0.098
			c0.656,0.139,1.325,0.135,1.971,0.105l0.483-0.064c0.079-0.012,0.159-0.018,0.238-0.031l0.235-0.059
			c0.156-0.037,0.311-0.068,0.464-0.109l0.449-0.158c0.074-0.027,0.15-0.045,0.221-0.08l0.214-0.1
			c0.14-0.07,0.285-0.125,0.419-0.203c0.265-0.166,0.537-0.301,0.774-0.498c0.119-0.094,0.25-0.166,0.357-0.275l0.332-0.299
			c0.113-0.092,0.201-0.217,0.302-0.32c0.097-0.107,0.202-0.207,0.281-0.33l0.254-0.342c0.082-0.113,0.146-0.242,0.218-0.357
			c0.073-0.119,0.146-0.234,0.196-0.363l0.169-0.365c0.176-0.508,0.331-0.996,0.36-1.498c0.067-0.488,0.019-0.979-0.031-1.439
			C316.108,137.6,316.067,137.371,316.01,137.148"/>
		
			<path clip-path="url(#SVGID_4_)" fill="none" stroke="#000000" stroke-width="1.6" stroke-linejoin="round" stroke-miterlimit="10" d="
			M316.01,137.148c-0.085-0.225-0.139-0.441-0.228-0.656c-0.104-0.215-0.182-0.422-0.286-0.627c-0.119-0.201-0.23-0.398-0.335-0.592
			c-0.132-0.189-0.262-0.377-0.389-0.559c-0.031-0.047-0.061-0.092-0.092-0.137l-0.111-0.131c-0.073-0.086-0.146-0.172-0.217-0.256
			c-0.069-0.084-0.14-0.168-0.207-0.25c-0.066-0.082-0.155-0.156-0.229-0.236c-0.152-0.154-0.3-0.305-0.445-0.451
			c-0.313-0.285-0.624-0.547-0.908-0.793c-0.311-0.234-0.601-0.453-0.871-0.656c-0.054-0.035-0.103-0.066-0.155-0.1
			c-2.73,0.809-5.619,1.244-8.611,1.244c-16.719,0-30.272-13.555-30.272-30.275s13.553-30.277,30.272-30.277
			c16.72,0,30.273,13.557,30.273,30.277c0,10.559-5.407,19.855-13.602,25.273c0.088,0.131,0.175,0.264,0.263,0.398
			c0.173,0.297,0.35,0.6,0.531,0.912c0.088,0.158,0.183,0.305,0.265,0.477c0.081,0.168,0.163,0.34,0.247,0.514
			c0.081,0.172,0.163,0.346,0.246,0.521c0.041,0.088,0.083,0.176,0.125,0.266c0.036,0.094,0.073,0.188,0.109,0.281
			c0.146,0.379,0.29,0.766,0.431,1.156c0.117,0.412,0.231,0.83,0.342,1.252c0.098,0.432,0.163,0.885,0.239,1.332
			c0.062,0.453,0.078,0.93,0.108,1.398c0.003,0.477-0.017,0.963-0.045,1.445c-0.032,0.242-0.064,0.486-0.099,0.732
			c-0.036,0.244-0.065,0.488-0.132,0.73c-0.12,0.486-0.23,0.973-0.42,1.443c-0.321,0.957-0.831,1.85-1.397,2.688
			c-0.315,0.396-0.603,0.814-0.966,1.17c-0.176,0.182-0.344,0.369-0.53,0.539c-0.189,0.164-0.381,0.328-0.572,0.492
			c-0.186,0.17-0.396,0.309-0.601,0.453c-0.208,0.139-0.404,0.295-0.624,0.416l-0.651,0.367c-0.213,0.125-0.448,0.211-0.673,0.316
			c-0.445,0.215-0.924,0.354-1.388,0.508c-0.235,0.07-0.479,0.115-0.716,0.172c-0.238,0.055-0.475,0.107-0.718,0.131l-0.721,0.09
			c-0.241,0.018-0.483,0.02-0.723,0.027l-0.358,0.006c-0.12-0.002-0.24-0.014-0.358-0.02l-0.71-0.055
			c-0.936-0.139-1.849-0.342-2.686-0.697c-0.209-0.088-0.423-0.16-0.623-0.262c-0.198-0.102-0.395-0.205-0.592-0.309l-0.292-0.154
			c-0.096-0.051-0.185-0.117-0.277-0.174c-0.182-0.121-0.362-0.24-0.543-0.359c-0.615-0.424-1.261-0.865-1.886-1.26
			c-0.307-0.174-0.62-0.336-0.925-0.504c-0.308-0.164-0.611-0.33-0.933-0.461c-0.317-0.137-0.63-0.275-0.94-0.41
			c-0.154-0.074-0.311-0.129-0.468-0.182c-0.156-0.059-0.311-0.113-0.466-0.168c-0.612-0.246-1.223-0.41-1.813-0.598
			c-0.295-0.092-0.59-0.145-0.879-0.217c-0.145-0.035-0.289-0.068-0.431-0.102c-0.143-0.031-0.286-0.045-0.426-0.068
			c-1.128-0.211-2.181-0.209-3.113-0.139c-0.231,0.027-0.461,0.037-0.675,0.078c-0.215,0.043-0.423,0.082-0.623,0.121
			c-0.2,0.041-0.383,0.107-0.565,0.156c-0.091,0.025-0.179,0.051-0.265,0.076c-0.084,0.031-0.165,0.063-0.245,0.092
			c-0.649,0.223-1.112,0.51-1.431,0.699c-0.157,0.1-0.267,0.191-0.348,0.246c-0.079,0.057-0.119,0.086-0.119,0.086
			s0.033-0.037,0.098-0.109c0.066-0.07,0.157-0.186,0.293-0.316c0.07-0.064,0.148-0.135,0.235-0.213
			c0.086-0.08,0.181-0.166,0.294-0.246c0.112-0.084,0.231-0.172,0.359-0.27c0.131-0.09,0.278-0.174,0.43-0.27
			c0.616-0.365,1.424-0.742,2.409-0.986c0.979-0.254,2.134-0.422,3.388-0.373c0.157,0.004,0.317,0,0.477,0.012
			c0.159,0.014,0.319,0.027,0.481,0.043c0.163,0.016,0.327,0.029,0.493,0.047c0.165,0.016,0.335,0.023,0.499,0.061
			c0.332,0.063,0.67,0.125,1.012,0.189c0.173,0.031,0.344,0.07,0.512,0.123c0.169,0.047,0.34,0.096,0.512,0.145
			s0.344,0.102,0.518,0.152c0.174,0.051,0.349,0.104,0.518,0.172c0.341,0.129,0.687,0.26,1.037,0.393
			c0.353,0.121,0.697,0.287,1.05,0.443c0.355,0.152,0.71,0.316,1.076,0.467c0.683,0.33,1.35,0.652,2.084,0.965
			c0.158,0.064,0.317,0.129,0.477,0.193c0.079,0.029,0.156,0.068,0.238,0.092l0.245,0.07c0.162,0.047,0.325,0.094,0.488,0.141
			c0.162,0.047,0.331,0.064,0.495,0.098c0.656,0.139,1.325,0.135,1.971,0.105l0.483-0.064c0.079-0.012,0.159-0.018,0.238-0.031
			l0.235-0.059c0.156-0.037,0.311-0.068,0.464-0.109l0.449-0.158c0.074-0.027,0.15-0.045,0.221-0.08l0.214-0.1
			c0.14-0.07,0.285-0.125,0.419-0.203c0.265-0.166,0.537-0.301,0.774-0.498c0.119-0.094,0.25-0.166,0.357-0.275l0.332-0.299
			c0.113-0.092,0.201-0.217,0.302-0.32c0.097-0.107,0.202-0.207,0.281-0.33l0.254-0.342c0.082-0.113,0.146-0.242,0.218-0.357
			c0.073-0.119,0.146-0.234,0.196-0.363l0.169-0.365c0.176-0.508,0.331-0.996,0.36-1.498c0.067-0.488,0.019-0.979-0.031-1.439
			C316.108,137.6,316.067,137.371,316.01,137.148z"/>
		<path clip-path="url(#SVGID_4_)" d="M308.418,102.672c0,1.568,1.27,2.838,2.837,2.838c1.567,0,2.837-1.27,2.837-2.838
			c0-1.566-1.27-2.836-2.837-2.836C309.688,99.836,308.418,101.105,308.418,102.672"/>
		<path clip-path="url(#SVGID_4_)" d="M300.081,102.672c0,1.568,1.27,2.838,2.837,2.838c1.567,0,2.837-1.27,2.837-2.838
			c0-1.566-1.27-2.836-2.837-2.836C301.351,99.836,300.081,101.105,300.081,102.672"/>
		<path clip-path="url(#SVGID_4_)" d="M291.743,102.672c0,1.568,1.27,2.838,2.837,2.838s2.838-1.27,2.838-2.838
			c0-1.566-1.271-2.836-2.838-2.836S291.743,101.105,291.743,102.672"/>
		<path clip-path="url(#SVGID_4_)" fill="#F0850F" d="M60.349,146.42c-0.454-14.059-3.033-31.377-8.897-44.256
			c-1.345-2.998-4.595-6.457-10.264-6.457c-8.406,0-9.123-9.391-3.472-12.613c4.794-2.732,12.067,0.721,15.266,4.309
			c5.118,5.746,6.897,14.09,8.02,21.488c1.194,7.861,1.544,15.828,1.603,23.771c0.025,3.342-0.014,6.688-0.106,10.027
			c-0.032,1.18-0.072,2.359-0.11,3.539C62.346,147.561,60.407,147.848,60.349,146.42"/>
		
			<path clip-path="url(#SVGID_4_)" fill="none" stroke="#000000" stroke-width="1.6" stroke-linecap="round" stroke-linejoin="round" stroke-miterlimit="10" d="
			M60.349,146.42c-0.454-14.059-3.033-31.377-8.897-44.256c-1.345-2.998-4.595-6.457-10.264-6.457
			c-8.406,0-9.123-9.391-3.472-12.613c4.794-2.732,12.067,0.721,15.266,4.309c5.118,5.746,6.897,14.09,8.02,21.488
			c1.194,7.861,1.544,15.828,1.603,23.771c0.025,3.342-0.014,6.688-0.106,10.027c-0.032,1.18-0.072,2.359-0.11,3.539
			C62.346,147.561,60.407,147.848,60.349,146.42z"/>
		<path clip-path="url(#SVGID_4_)" fill="#F0850F" d="M63.492,146.414c1.228-16.771-1.231-33.797,1.698-50.459
			c1.362-7.748,4.194-14.777,9.003-21.027c4.227-5.498,10.756-11.654,17.994-7.076c3.736,2.365,5.57,6.979,4.481,11.264
			c-1.222,4.805-5.031,6.781-9.472,7.855c-7.203,1.738-11.941,8.139-14.745,14.635c-2.975,6.889-4.736,14.238-5.797,21.654
			c-0.695,5.076-1.145,10.174-1.263,15.301c-0.054,2.344-0.038,4.691,0.085,7.035C65.565,147.295,63.349,148.289,63.492,146.414"/>
		
			<path clip-path="url(#SVGID_4_)" fill="none" stroke="#000000" stroke-width="1.6" stroke-linecap="round" stroke-linejoin="round" stroke-miterlimit="10" d="
			M63.492,146.414c1.228-16.771-1.231-33.797,1.698-50.459c1.362-7.748,4.194-14.777,9.003-21.027
			c4.227-5.498,10.756-11.654,17.994-7.076c3.736,2.365,5.57,6.979,4.481,11.264c-1.222,4.805-5.031,6.781-9.472,7.855
			c-7.203,1.738-11.941,8.139-14.745,14.635c-2.975,6.889-4.736,14.238-5.797,21.654c-0.695,5.076-1.145,10.174-1.263,15.301
			c-0.054,2.344-0.038,4.691,0.085,7.035C65.565,147.295,63.349,148.289,63.492,146.414z"/>
		<path clip-path="url(#SVGID_4_)" fill="#F0850F" d="M66.139,145.467c-0.849-8.479,1.286-16.666,8.496-21.859
			c4.151-2.992,20.68-10.316,21.629-0.213c0.452,4.809-4.24,6.91-8.219,5.596c-3.239-0.975-6.612-0.914-9.841,0.082
			c-4.254,1.232-7.645,5.016-8.933,9.188c-0.481,1.59-0.826,3.184-0.989,4.842c-0.059,0.602,0.183,1.838-0.11,2.311
			C68.136,146.67,66.24,146.701,66.139,145.467"/>
		
			<path clip-path="url(#SVGID_4_)" fill="none" stroke="#000000" stroke-width="1.6" stroke-linecap="round" stroke-linejoin="round" stroke-miterlimit="10" d="
			M66.139,145.467c-0.849-8.479,1.286-16.666,8.496-21.859c4.151-2.992,20.68-10.316,21.629-0.213
			c0.452,4.809-4.24,6.91-8.219,5.596c-3.239-0.975-6.612-0.914-9.841,0.082c-4.254,1.232-7.645,5.016-8.933,9.188
			c-0.481,1.59-0.826,3.184-0.989,4.842c-0.059,0.602,0.183,1.838-0.11,2.311C68.136,146.67,66.24,146.701,66.139,145.467z"/>
		<path clip-path="url(#SVGID_4_)" fill="#F0850F" d="M57.023,145.449c0.327-7.211-0.959-15.773-5.562-21.633
			c-1.894-2.41-4.432-4.049-7.564-3.506c-3.76,1.018-7.814-2.633-5.123-6.369c2.067-2.865,6.224-1.494,8.843-0.32
			c4.225,2.025,6.893,5.873,8.441,10.193c1.544,4.201,2.07,8.777,2.382,13.219c0.195,2.277,0.25,4.572,0.342,6.857
			c0.012,0.441,0.243,1.744-0.156,2.205C58.059,146.748,56.987,146.289,57.023,145.449"/>
		
			<path clip-path="url(#SVGID_4_)" fill="none" stroke="#000000" stroke-width="1.6" stroke-linecap="round" stroke-linejoin="round" stroke-miterlimit="10" d="
			M57.023,145.449c0.327-7.211-0.959-15.773-5.562-21.633c-1.894-2.41-4.432-4.049-7.564-3.506c-3.76,1.018-7.814-2.633-5.123-6.369
			c2.067-2.865,6.224-1.494,8.843-0.32c4.225,2.025,6.893,5.873,8.441,10.193c1.544,4.201,2.07,8.777,2.382,13.219
			c0.195,2.277,0.25,4.572,0.342,6.857c0.012,0.441,0.243,1.744-0.156,2.205C58.059,146.748,56.987,146.289,57.023,145.449z"/>
		<path clip-path="url(#SVGID_4_)" fill="#F0850F" d="M77.302,110.816c1.706-6.59,7.84-11.172,14.329-12.42
			c2.428-0.441,4.817-0.59,7.282-0.52c3.265,0.092,5.373,3.955,2.762,6.42c-1.718,1.623-3.652,0.781-5.596,0.34
			c-2.594-0.586-5.145-0.678-7.782-0.297c-3.211,0.59-6.137,2.313-8.255,4.789C79.647,109.59,77.682,113.143,77.302,110.816"/>
		
			<path clip-path="url(#SVGID_4_)" fill="none" stroke="#000000" stroke-width="1.6" stroke-linecap="round" stroke-linejoin="round" stroke-miterlimit="10" d="
			M77.302,110.816c1.706-6.59,7.84-11.172,14.329-12.42c2.428-0.441,4.817-0.59,7.282-0.52c3.265,0.092,5.373,3.955,2.762,6.42
			c-1.718,1.623-3.652,0.781-5.596,0.34c-2.594-0.586-5.145-0.678-7.782-0.297c-3.211,0.59-6.137,2.313-8.255,4.789
			C79.647,109.59,77.682,113.143,77.302,110.816z"/>
		<path clip-path="url(#SVGID_4_)" fill="#564432" d="M99.128,160.465l-25.822-26.039c-2.179,2.854-5.618,4.697-9.489,4.697
			s-7.309-1.844-9.489-4.699l-26.061,26.041"/>
		
			<path clip-path="url(#SVGID_4_)" fill="none" stroke="#000000" stroke-width="1.6" stroke-linecap="round" stroke-linejoin="round" stroke-miterlimit="10" d="
			M99.128,160.465l-25.822-26.039c-2.179,2.854-5.618,4.697-9.489,4.697s-7.309-1.844-9.489-4.699l-26.061,26.041"/>
		<path clip-path="url(#SVGID_4_)" fill="#FFFFFF" d="M92.323,82.557c-0.355,1.199-1.617,1.885-2.817,1.529
			c-1.201-0.355-1.886-1.617-1.531-2.816c0.356-1.201,1.617-1.887,2.817-1.531C91.993,80.094,92.678,81.355,92.323,82.557"/>
		<path clip-path="url(#SVGID_4_)" fill="#FFFFFF" d="M46.652,92.342c-0.355,1.201-1.617,1.887-2.817,1.531
			c-1.201-0.355-1.886-1.617-1.531-2.818c0.356-1.201,1.617-1.885,2.818-1.531C46.323,89.881,47.007,91.141,46.652,92.342"/>
		<path clip-path="url(#SVGID_4_)" fill="#FFFFFF" d="M90.617,127.111c-0.209,0.705-0.949,1.107-1.654,0.898
			c-0.705-0.209-1.107-0.949-0.899-1.654c0.209-0.705,0.95-1.107,1.654-0.898C90.424,125.666,90.826,126.406,90.617,127.111"/>
		<path clip-path="url(#SVGID_4_)" fill="#FFFFFF" d="M45.252,118.236c-0.196,0.664-0.894,1.043-1.558,0.846
			c-0.664-0.195-1.042-0.893-0.846-1.557c0.196-0.664,0.894-1.043,1.558-0.848C45.07,116.875,45.449,117.572,45.252,118.236"/>
		<path clip-path="url(#SVGID_4_)" fill="#FFFFFF" d="M98.547,103.076c-0.16,0.541-0.728,0.85-1.269,0.689s-0.849-0.729-0.69-1.27
			c0.161-0.539,0.729-0.848,1.27-0.689C98.399,101.967,98.707,102.535,98.547,103.076"/>
	</g>
	<polygon fill="#AB2E23" points="27.529,86 16.72,86 16.72,94.594 27.529,94.594 27.529,98.438 41.638,90.297 27.529,82.154 	"/>
	<g>
		<defs>
			<rect id="SVGID_27_" x="15.92" y="65.451" width="318.08" height="108.857"/>
		</defs>
		<clipPath id="SVGID_6_">
			<use xlink:href="#SVGID_27_"  overflow="visible"/>
		</clipPath>
		
			<polygon clip-path="url(#SVGID_6_)" fill="none" stroke="#000000" stroke-width="1.6" stroke-linejoin="round" stroke-miterlimit="10" points="
			41.639,90.297 27.529,82.154 27.529,85.998 16.72,85.998 16.72,94.594 27.529,94.594 27.529,98.438 		"/>
	</g>
	<text transform="matrix(1 0 0 1 108.9756 160.3086)" font-family="'Ubuntu'" font-size="34.2014">i</text>
</g>
</svg>
