<?xml version="1.0" encoding="utf-8"?>
<!-- Generator: Adobe Illustrator 16.0.0, SVG Export Plug-In . SVG Version: 6.00 Build 0)  -->
<!DOCTYPE svg PUBLIC "-//W3C//DTD SVG 1.1//EN" "http://www.w3.org/Graphics/SVG/1.1/DTD/svg11.dtd">
<svg version="1.1" id="Calque_1" xmlns="http://www.w3.org/2000/svg" xmlns:xlink="http://www.w3.org/1999/xlink" x="0px" y="0px"
	 width="349.92px" height="239.76px" viewBox="0 0 349.92 239.76" enable-background="new 0 0 349.92 239.76" xml:space="preserve">
<g>
	<path fill="#E5E2D3" d="M12.15,2C11.117,2.008,2,2.357,2,12.15v215.459c0.008,1.033,0.357,10.15,10.15,10.15h325.62
		c1.032-0.008,10.15-0.357,10.15-10.15V12.15C347.912,11.117,347.563,2,337.77,2H12.15z"/>
	<path fill="none" stroke="#000000" stroke-width="4" stroke-linejoin="round" stroke-miterlimit="10" d="M12.15,2
		C11.117,2.008,2,2.357,2,12.15v215.459c0.008,1.033,0.357,10.15,10.15,10.15h325.62c1.032-0.008,10.15-0.357,10.15-10.15V12.15
		C347.912,11.117,347.563,2,337.77,2H12.15z"/>
</g>
<g>
	<g>
		<defs>
			<rect id="SVGID_89_" x="63.081" y="41.402" width="223.759" height="156.955"/>
		</defs>
		<clipPath id="SVGID_2_">
			<use xlink:href="#SVGID_89_"  overflow="visible"/>
		</clipPath>
		<path clip-path="url(#SVGID_2_)" fill="#141414" d="M129.075,42.068c2.222,1.84,2.372,4.592,1.608,7.064
			c-0.125,0.408-0.289,0.805-0.469,1.191c-0.686,1.479-2.42,1.885-3.553,0.063c-0.864-1.391-1.121-2.904-0.842-4.516
			c0.064-0.371,0.046-0.758,0.114-1.129c0.205-1.111,0.762-1.994,1.75-2.58C128.146,42.131,128.61,42.1,129.075,42.068"/>
		
			<path clip-path="url(#SVGID_2_)" fill="none" stroke="#000000" stroke-width="1.335" stroke-linecap="round" stroke-linejoin="round" stroke-miterlimit="10" d="
			M129.075,42.068c2.222,1.84,2.372,4.592,1.608,7.064c-0.125,0.408-0.289,0.805-0.469,1.191c-0.686,1.479-2.42,1.885-3.553,0.063
			c-0.864-1.391-1.121-2.904-0.842-4.516c0.064-0.371,0.046-0.758,0.114-1.129c0.205-1.111,0.762-1.994,1.75-2.58
			C128.146,42.131,128.61,42.1,129.075,42.068z"/>
		<path clip-path="url(#SVGID_2_)" fill="#141414" d="M113.622,57.375c0.747-1.129,1.592-1.15,2.234,0.035
			c0.263,0.484,0.334,1.127,0.307,1.691c-0.013,0.295-0.425,0.803-0.658,0.803c-0.419,0.002-0.932-0.213-1.232-0.512
			c-0.308-0.305-0.409-0.82-0.6-1.244C113.655,57.891,113.639,57.635,113.622,57.375"/>
		
			<path clip-path="url(#SVGID_2_)" fill="none" stroke="#000000" stroke-width="1.335" stroke-linecap="round" stroke-linejoin="round" stroke-miterlimit="10" d="
			M113.622,57.375c0.747-1.129,1.592-1.15,2.234,0.035c0.263,0.484,0.334,1.127,0.307,1.691c-0.013,0.295-0.425,0.803-0.658,0.803
			c-0.419,0.002-0.932-0.213-1.232-0.512c-0.308-0.305-0.409-0.82-0.6-1.244C113.655,57.891,113.639,57.635,113.622,57.375z"/>
		<path clip-path="url(#SVGID_2_)" fill="#141414" d="M134.8,62.49c0.137,2.891-0.466,5.174-1.697,7.352
			c-1.391,2.459-2.726,4.975-3.42,7.734c-0.326,1.295-0.348,2.68,0.397,3.912c0.714,1.184,1.416,2.377,2.198,3.516
			c1.287,1.875,1.946,3.883,1.603,6.172c-0.041,0.275,0.017,0.566,0.041,0.85c0.19,2.229-0.906,3.947-2.364,5.404
			c-1.026,1.027-2.485,0.883-3.759,0.527c-2.222-0.621-3.973-1.969-4.926-4.111c-0.803-1.803-1.406-3.658-1.211-5.727
			c0.121-1.293-0.175-2.623-0.206-3.938c-0.043-1.779-0.321-3.506-1.021-5.139c-0.842-1.963-1.682-3.93-2.634-5.84
			c-1.828-3.666-2.182-7.402-0.589-11.205c0.383-0.914,1.063-1.756,1.772-2.465c1.179-1.182,2.455-2.273,3.76-3.316
			c1.104-0.879,2.26-1.715,3.477-2.428c1.946-1.139,3.275-0.881,4.722,0.656c1.512,1.611,2.618,3.523,3.388,5.59
			C134.665,60.926,134.699,61.928,134.8,62.49"/>
		
			<path clip-path="url(#SVGID_2_)" fill="none" stroke="#000000" stroke-width="1.335" stroke-linecap="round" stroke-linejoin="round" stroke-miterlimit="10" d="
			M134.8,62.49c0.137,2.891-0.466,5.174-1.697,7.352c-1.391,2.459-2.726,4.975-3.42,7.734c-0.326,1.295-0.348,2.68,0.397,3.912
			c0.714,1.184,1.416,2.377,2.198,3.516c1.287,1.875,1.946,3.883,1.603,6.172c-0.041,0.275,0.017,0.566,0.041,0.85
			c0.19,2.229-0.906,3.947-2.364,5.404c-1.026,1.027-2.485,0.883-3.759,0.527c-2.222-0.621-3.973-1.969-4.926-4.111
			c-0.803-1.803-1.406-3.658-1.211-5.727c0.121-1.293-0.175-2.623-0.206-3.938c-0.043-1.779-0.321-3.506-1.021-5.139
			c-0.842-1.963-1.682-3.93-2.634-5.84c-1.828-3.666-2.182-7.402-0.589-11.205c0.383-0.914,1.063-1.756,1.772-2.465
			c1.179-1.182,2.455-2.273,3.76-3.316c1.104-0.879,2.26-1.715,3.477-2.428c1.946-1.139,3.275-0.881,4.722,0.656
			c1.512,1.611,2.618,3.523,3.388,5.59C134.665,60.926,134.699,61.928,134.8,62.49z"/>
		<path clip-path="url(#SVGID_2_)" fill="#141414" d="M124.749,49.449c-0.193,0.592-0.298,1.252-0.613,1.791
			c-0.403,0.686-1.203,0.738-1.846,0.252c-1.3-0.98-1.829-3.598-0.717-5.096c0.632-0.85,1.814-0.686,2.286,0.375
			C124.223,47.592,124.434,48.48,124.749,49.449"/>
		
			<path clip-path="url(#SVGID_2_)" fill="none" stroke="#000000" stroke-width="1.335" stroke-linecap="round" stroke-linejoin="round" stroke-miterlimit="10" d="
			M124.749,49.449c-0.193,0.592-0.298,1.252-0.613,1.791c-0.403,0.686-1.203,0.738-1.846,0.252c-1.3-0.98-1.829-3.598-0.717-5.096
			c0.632-0.85,1.814-0.686,2.286,0.375C124.223,47.592,124.434,48.48,124.749,49.449z"/>
		<path clip-path="url(#SVGID_2_)" fill="#141414" d="M117.521,51.477c0.039-0.451,0.025-0.914,0.128-1.352
			c0.199-0.852,1.086-1.117,1.756-0.576c1.324,1.07,1.572,2.533,1.397,4.086c-0.115,1.014-1.159,1.35-1.951,0.664
			C118.004,53.566,117.573,52.615,117.521,51.477"/>
		
			<path clip-path="url(#SVGID_2_)" fill="none" stroke="#000000" stroke-width="1.335" stroke-linecap="round" stroke-linejoin="round" stroke-miterlimit="10" d="
			M117.521,51.477c0.039-0.451,0.025-0.914,0.128-1.352c0.199-0.852,1.086-1.117,1.756-0.576c1.324,1.07,1.572,2.533,1.397,4.086
			c-0.115,1.014-1.159,1.35-1.951,0.664C118.004,53.566,117.573,52.615,117.521,51.477z"/>
		<path clip-path="url(#SVGID_2_)" fill="#141414" d="M117.866,55.82c0.046,0.529,0.157,1.143-0.711,1.346
			c-0.772,0.18-1.158-0.277-1.402-0.828c-0.332-0.752-0.638-1.545-0.757-2.35c-0.055-0.365,0.272-0.912,0.591-1.178
			c0.397-0.328,0.806,0.027,1.124,0.354C117.411,53.877,117.851,54.709,117.866,55.82"/>
		
			<path clip-path="url(#SVGID_2_)" fill="none" stroke="#000000" stroke-width="1.335" stroke-linecap="round" stroke-linejoin="round" stroke-miterlimit="10" d="
			M117.866,55.82c0.046,0.529,0.157,1.143-0.711,1.346c-0.772,0.18-1.158-0.277-1.402-0.828c-0.332-0.752-0.638-1.545-0.757-2.35
			c-0.055-0.365,0.272-0.912,0.591-1.178c0.397-0.328,0.806,0.027,1.124,0.354C117.411,53.877,117.851,54.709,117.866,55.82z"/>
		<path clip-path="url(#SVGID_2_)" fill="#141414" d="M147.861,117.332c-2.041-1.539-3.218-3.506-3.067-6.145
			c0.054-0.943,0.087-1.893,0.079-2.838c-0.012-1.461,0.78-2.596,1.5-3.744c0.999-1.594,2.282-3.018,2.857-4.855
			c0.336-1.074,0.212-2.145-0.067-3.215c-0.831-3.188-2.568-5.971-3.898-8.938c-1.036-2.307-1.144-4.781-0.55-7.291
			c0.659-2.787,2.198-5.025,4.201-6.957c1.258-1.211,2.575-1.213,3.989-0.299c2.485,1.604,4.846,3.373,6.935,5.52
			c1.865,1.92,3.033,4.092,3.083,6.719c0.043,2.145-0.057,4.314-1.149,6.309c-1.064,1.941-2.1,3.912-2.947,5.955
			c-0.604,1.453-0.99,3.025-1.265,4.582c-0.278,1.57-0.316,3.182-0.425,4.779c-0.056,0.814,0.065,1.652-0.076,2.447
			c-0.457,2.566-1.27,5.02-3.493,6.605c-0.994,0.709-2.252,1.049-3.391,1.559C149.405,117.461,148.633,117.396,147.861,117.332"/>
		
			<path clip-path="url(#SVGID_2_)" fill="none" stroke="#000000" stroke-width="1.335" stroke-linecap="round" stroke-linejoin="round" stroke-miterlimit="10" d="
			M147.861,117.332c-2.041-1.539-3.218-3.506-3.067-6.145c0.054-0.943,0.087-1.893,0.079-2.838c-0.012-1.461,0.78-2.596,1.5-3.744
			c0.999-1.594,2.282-3.018,2.857-4.855c0.336-1.074,0.212-2.145-0.067-3.215c-0.831-3.188-2.568-5.971-3.898-8.938
			c-1.036-2.307-1.144-4.781-0.55-7.291c0.659-2.787,2.198-5.025,4.201-6.957c1.258-1.211,2.575-1.213,3.989-0.299
			c2.485,1.604,4.846,3.373,6.935,5.52c1.865,1.92,3.033,4.092,3.083,6.719c0.043,2.145-0.057,4.314-1.149,6.309
			c-1.064,1.941-2.1,3.912-2.947,5.955c-0.604,1.453-0.99,3.025-1.265,4.582c-0.278,1.57-0.316,3.182-0.425,4.779
			c-0.056,0.814,0.065,1.652-0.076,2.447c-0.457,2.566-1.27,5.02-3.493,6.605c-0.994,0.709-2.252,1.049-3.391,1.559
			C149.405,117.461,148.633,117.396,147.861,117.332z"/>
		<path clip-path="url(#SVGID_2_)" fill="#141414" d="M153.91,66.934c-0.331,0.893-0.573,1.834-1.018,2.666
			c-0.417,0.777-1.044,1.465-2.098,1.32c-1.025-0.139-1.481-0.908-1.807-1.758c-0.566-1.479-0.697-3.01-0.445-4.57
			c0.185-1.141,0.791-2.082,1.595-2.854c0.689-0.664,2.172-0.199,2.819,0.746c0.666,0.975,0.708,2.082,0.781,3.191
			c0.026,0.404,0.056,0.809,0.085,1.211C153.851,66.902,153.88,66.918,153.91,66.934"/>
		
			<path clip-path="url(#SVGID_2_)" fill="none" stroke="#000000" stroke-width="1.335" stroke-linecap="round" stroke-linejoin="round" stroke-miterlimit="10" d="
			M153.91,66.934c-0.331,0.893-0.573,1.834-1.018,2.666c-0.417,0.777-1.044,1.465-2.098,1.32c-1.025-0.139-1.481-0.908-1.807-1.758
			c-0.566-1.479-0.697-3.01-0.445-4.57c0.185-1.141,0.791-2.082,1.595-2.854c0.689-0.664,2.172-0.199,2.819,0.746
			c0.666,0.975,0.708,2.082,0.781,3.191c0.026,0.404,0.056,0.809,0.085,1.211C153.851,66.902,153.88,66.918,153.91,66.934z"/>
		<path clip-path="url(#SVGID_2_)" fill="#141414" d="M154.75,68.715c0.304-0.85,0.527-1.74,0.947-2.525
			c0.222-0.416,0.788-0.883,1.204-0.889c0.391-0.004,0.891,0.5,1.165,0.9c0.891,1.307,0.365,3.318-0.501,4.379
			c-0.451,0.553-1.093,0.883-1.771,0.576c-0.704-0.316-0.907-1.047-0.961-1.781c-0.016-0.203,0.029-0.41,0.046-0.615
			C154.836,68.744,154.793,68.729,154.75,68.715"/>
		
			<path clip-path="url(#SVGID_2_)" fill="none" stroke="#000000" stroke-width="1.335" stroke-linecap="round" stroke-linejoin="round" stroke-miterlimit="10" d="
			M154.75,68.715c0.304-0.85,0.527-1.74,0.947-2.525c0.222-0.416,0.788-0.883,1.204-0.889c0.391-0.004,0.891,0.5,1.165,0.9
			c0.891,1.307,0.365,3.318-0.501,4.379c-0.451,0.553-1.093,0.883-1.771,0.576c-0.704-0.316-0.907-1.047-0.961-1.781
			c-0.016-0.203,0.029-0.41,0.046-0.615C154.836,68.744,154.793,68.729,154.75,68.715z"/>
		<path clip-path="url(#SVGID_2_)" fill="#141414" d="M161.841,70.984c0,1.164-0.457,2.131-1.343,2.861
			c-0.777,0.641-1.785,0.301-1.907-0.678c-0.187-1.506,0.08-2.902,1.304-3.982c0.387-0.342,0.767-0.496,1.246-0.32
			c0.548,0.201,0.739,0.666,0.769,1.197C161.927,70.369,161.866,70.678,161.841,70.984"/>
		
			<path clip-path="url(#SVGID_2_)" fill="none" stroke="#000000" stroke-width="1.335" stroke-linecap="round" stroke-linejoin="round" stroke-miterlimit="10" d="
			M161.841,70.984c0,1.164-0.457,2.131-1.343,2.861c-0.777,0.641-1.785,0.301-1.907-0.678c-0.187-1.506,0.08-2.902,1.304-3.982
			c0.387-0.342,0.767-0.496,1.246-0.32c0.548,0.201,0.739,0.666,0.769,1.197C161.927,70.369,161.866,70.678,161.841,70.984z"/>
		<path clip-path="url(#SVGID_2_)" fill="#141414" d="M161.481,75.336c0.049-1.168,0.517-2.027,1.312-2.678
			c0.254-0.207,0.758-0.381,0.998-0.262c0.298,0.145,0.615,0.605,0.619,0.936c0.014,1.234-0.437,2.352-1.351,3.189
			c-0.229,0.209-0.821,0.215-1.142,0.074c-0.241-0.105-0.336-0.586-0.455-0.914C161.415,75.551,161.479,75.377,161.481,75.336"/>
		
			<path clip-path="url(#SVGID_2_)" fill="none" stroke="#000000" stroke-width="1.335" stroke-linecap="round" stroke-linejoin="round" stroke-miterlimit="10" d="
			M161.481,75.336c0.049-1.168,0.517-2.027,1.312-2.678c0.254-0.207,0.758-0.381,0.998-0.262c0.298,0.145,0.615,0.605,0.619,0.936
			c0.014,1.234-0.437,2.352-1.351,3.189c-0.229,0.209-0.821,0.215-1.142,0.074c-0.241-0.105-0.336-0.586-0.455-0.914
			C161.415,75.551,161.479,75.377,161.481,75.336z"/>
		<path clip-path="url(#SVGID_2_)" fill="#141414" d="M162.927,78.148c0.319-0.604,0.52-1.152,0.863-1.592
			c0.566-0.725,1.456-0.516,1.783,0.365c0.252,0.68-0.303,2.178-0.971,2.439c-0.313,0.123-0.844,0.207-1.026,0.039
			C163.264,79.111,163.149,78.609,162.927,78.148"/>
		
			<path clip-path="url(#SVGID_2_)" fill="none" stroke="#000000" stroke-width="1.335" stroke-linecap="round" stroke-linejoin="round" stroke-miterlimit="10" d="
			M162.927,78.148c0.319-0.604,0.52-1.152,0.863-1.592c0.566-0.725,1.456-0.516,1.783,0.365c0.252,0.68-0.303,2.178-0.971,2.439
			c-0.313,0.123-0.844,0.207-1.026,0.039C163.264,79.111,163.149,78.609,162.927,78.148z"/>
		<path clip-path="url(#SVGID_2_)" fill="#CCAC6C" d="M235.125,50.051c-0.732,15.514-3.845,32.186-1.587,37.178
			c3.714,8.215,2.661,14.611-0.463,16.605c-7.532,4.811-15.541-0.414-21.561-0.414c-6.021,0-12.418,5.193-16.934,5.945
			c-4.516,0.754-14.155-1.082-15.278-1.73c-1.122-0.648-2.483,0.979-4.44,0.979s-8.128-1.881-8.128-4.441
			c0-2.557,5.851-2.811,7.564-3.801c1.713-0.988,9.445-3.348,15.466-6.885c3.236-1.902,13.892-11.631,19.684-13.549
			c1.614-0.535,0.54-29.887,0.54-29.887"/>
		
			<path clip-path="url(#SVGID_2_)" fill="none" stroke="#000000" stroke-width="1.335" stroke-linecap="round" stroke-linejoin="round" stroke-miterlimit="10" d="
			M235.125,50.051c-0.732,15.514-3.845,32.186-1.587,37.178c3.714,8.215,2.661,14.611-0.463,16.605
			c-7.532,4.811-15.541-0.414-21.561-0.414c-6.021,0-12.418,5.193-16.934,5.945c-4.516,0.754-14.155-1.082-15.278-1.73
			c-1.122-0.648-2.483,0.979-4.44,0.979s-8.128-1.881-8.128-4.441c0-2.557,5.851-2.811,7.564-3.801
			c1.713-0.988,9.445-3.348,15.466-6.885c3.236-1.902,13.892-11.631,19.684-13.549c1.614-0.535,0.54-29.887,0.54-29.887"/>
		<path clip-path="url(#SVGID_2_)" fill="#CCAC6C" d="M223.829,62.906c0,0-0.218,6.531,0.762,9.471
			c0.98,2.938,1.088,4.135,1.088,5.225c0,3.373-2.939,5.66-2.939,5.66"/>
		
			<path clip-path="url(#SVGID_2_)" fill="none" stroke="#000000" stroke-width="1.335" stroke-linecap="round" stroke-linejoin="round" stroke-miterlimit="10" d="
			M223.829,62.906c0,0-0.218,6.531,0.762,9.471c0.98,2.938,1.088,4.135,1.088,5.225c0,3.373-2.939,5.66-2.939,5.66"/>
	</g>
	<polygon fill="#CCAC6C" points="133.765,122.656 104.562,159.195 103.192,157.959 130.888,120.551 	"/>
	<polygon fill="none" stroke="#000000" stroke-width="1.335" stroke-linejoin="round" stroke-miterlimit="10" points="
		133.765,122.656 104.562,159.195 103.192,157.959 130.888,120.551 	"/>
	<polygon fill="#CCAC6C" points="140.674,128.729 107.997,162.258 106.652,160.994 138.076,126.289 	"/>
	<polygon fill="none" stroke="#000000" stroke-width="1.335" stroke-linejoin="round" stroke-miterlimit="10" points="
		140.674,128.729 107.997,162.258 106.652,160.994 138.076,126.289 	"/>
	<g>
		<defs>
			<rect id="SVGID_91_" x="63.081" y="41.402" width="223.759" height="156.955"/>
		</defs>
		<clipPath id="SVGID_4_">
			<use xlink:href="#SVGID_91_"  overflow="visible"/>
		</clipPath>
		<path clip-path="url(#SVGID_4_)" fill="#FFFFFF" d="M68.303,171.904v-0.666c0-0.055,0.008-4.65,0.027-6.451
			c-1.888-0.152-3.199-0.984-3.199-2.088c0-0.73,0.574-1.354,1.566-1.732c0.045-0.924,1.002-1.807,2.21-2.391
			c-0.992-0.924-1.369-1.939-0.942-2.709c0.164-0.299,0.599-0.799,1.658-0.799c0.521,0,1.112,0.121,1.719,0.346
			c0.016-0.068,0.033-0.139,0.051-0.209c0.417-1.607,1.405-3.229,2.671-3.229c0.035,0,0.071,0,0.106,0.004
			c0.325-1.51,1.127-2.938,2.313-2.938c0.058,0,0.116,0.002,0.173,0.01c0.215,0.027,0.53,0.125,0.83,0.42
			c0.595-0.77,1.276-1.205,1.922-1.205c0.172,0,0.339,0.031,0.495,0.092c0.093,0.035,0.181,0.082,0.263,0.137
			c0.423-0.926,1.054-1.479,1.772-1.479c0.033,0,0.067,0.002,0.101,0.004c0.346,0.027,0.657,0.176,0.921,0.438
			c0.069-0.074,0.138-0.135,0.201-0.18c0.237-0.17,0.53-0.262,0.848-0.262c0.038,0,0.076,0.002,0.114,0.004
			c0.023-0.092,0.053-0.174,0.086-0.246c0.16-0.344,0.614-0.926,1.862-0.926c0.757,0,1.648,0.219,2.51,0.619
			c0.114,0.051,0.229,0.107,0.343,0.168c0.38-0.313,0.82-0.598,1.296-0.838c0.868-0.439,1.763-0.689,2.53-0.707
			c0.029-0.727,0.369-1.102,0.614-1.279c0.238-0.172,0.533-0.262,0.851-0.262c0.839,0,1.848,0.617,2.723,1.641
			c0.211-0.117,0.457-0.18,0.719-0.18c0.643,0,1.385,0.359,2.103,1.006c0.744-1.195,1.696-1.932,2.548-1.932
			c0.211,0,0.412,0.045,0.596,0.133c0.613,0.291,0.925,0.979,0.906,1.906c0.677-0.289,1.348-0.449,1.922-0.449
			c0.606,0,1.001,0.174,1.255,0.375c0.519-0.408,1.041-0.627,1.517-0.627c0.255,0,0.492,0.063,0.702,0.184
			c0.402,0.23,0.649,0.635,0.737,1.162c0.045-0.004,0.09-0.006,0.135-0.006c0.894,0,1.856,0.84,2.547,2.186
			c0.165-0.037,0.324-0.057,0.476-0.057c0.361,0,0.684,0.109,0.937,0.316c0.023,0.02,0.048,0.041,0.074,0.064
			c0.458-0.555,0.984-0.865,1.511-0.865c0.104,0,0.208,0.014,0.308,0.035c0.757,0.178,1.243,0.969,1.351,2.117
			c0.323-0.117,0.67-0.195,1.014-0.195c0.608,0,0.969,0.252,1.164,0.463c0.18,0.195,0.409,0.564,0.372,1.158
			c0.706,0.256,1.21,1.096,1.392,2.285c0.19-0.063,0.376-0.094,0.555-0.094c0.237,0,0.458,0.053,0.658,0.16
			c0.553,0.293,0.836,0.91,0.827,1.734c0.371-0.121,0.724-0.182,1.042-0.182c0.712,0,1.1,0.303,1.301,0.557
			c0.37,0.465,0.395,1.117,0.094,1.84c0.282,0.111,0.469,0.279,0.589,0.432c0.405,0.512,0.399,1.234,0.008,2.029
			c1.403,0.313,2.287,1.037,2.287,1.951c0,1.232-1.522,1.943-3.199,2.086c0.019,1.799,0.027,6.398,0.027,6.453v0.666H68.303z"/>
		<path clip-path="url(#SVGID_4_)" d="M94.215,142.883L94.215,142.883c-0.46,0-0.889,0.135-1.242,0.389
			c-0.228,0.166-0.622,0.535-0.8,1.199c-0.72,0.1-1.5,0.352-2.255,0.732c-0.381,0.193-0.742,0.412-1.072,0.652
			c-0.942-0.434-1.928-0.672-2.775-0.672c-1.125,0-1.993,0.432-2.407,1.193c-0.255,0.039-0.495,0.121-0.713,0.246
			c-0.264-0.152-0.553-0.242-0.862-0.268c-0.051-0.004-0.101-0.006-0.151-0.006c-0.812,0-1.532,0.48-2.063,1.305
			c-0.152-0.037-0.308-0.053-0.466-0.053c-0.693-0.002-1.397,0.35-2.027,0.984c-0.2-0.1-0.414-0.164-0.639-0.195
			c-0.087-0.01-0.174-0.018-0.26-0.018c-1.425,0-2.389,1.365-2.845,2.977c-1.35,0.268-2.286,1.773-2.756,3.223
			c-0.439-0.111-0.865-0.17-1.259-0.17c-1.401,0-2.006,0.715-2.242,1.141c-0.472,0.852-0.276,1.885,0.466,2.855
			c-0.934,0.596-1.548,1.334-1.747,2.1c-1.042,0.498-1.637,1.279-1.637,2.201c0,1.352,1.262,2.367,3.194,2.68
			c-0.016,2.076-0.021,5.809-0.021,5.859v1.334h1.334h55.775h1.335v-1.334c0-0.051-0.006-3.783-0.022-5.859
			c1.932-0.313,3.194-1.328,3.194-2.68c0-1.055-0.788-1.916-2.081-2.387c0.193-0.758,0.078-1.457-0.358-2.008
			c-0.094-0.117-0.199-0.225-0.314-0.316c0.174-0.74,0.055-1.422-0.37-1.957c-0.411-0.521-1.059-0.809-1.823-0.809
			c-0.154,0-0.307,0.01-0.458,0.029c-0.155-0.678-0.526-1.199-1.099-1.504c-0.296-0.158-0.622-0.238-0.97-0.238
			c-0.013,0-0.026,0-0.04,0c-0.245-0.885-0.681-1.561-1.255-1.938c-0.072-0.611-0.359-1.008-0.535-1.197
			c-0.403-0.438-0.99-0.678-1.653-0.678c-0.16,0-0.319,0.014-0.475,0.037c-0.266-1.037-0.869-1.736-1.738-1.939
			c-0.15-0.035-0.305-0.053-0.46-0.053c-0.573,0-1.123,0.234-1.614,0.67c-0.276-0.123-0.583-0.186-0.908-0.186
			c-0.038,0-0.077,0-0.116,0.002c-0.616-1.029-1.488-1.922-2.526-2.1c-0.179-0.475-0.488-0.852-0.92-1.102
			c-0.313-0.18-0.661-0.27-1.035-0.27c-0.5,0-1.025,0.172-1.544,0.498c-0.315-0.146-0.717-0.248-1.228-0.248
			c-0.422,0-0.877,0.068-1.345,0.201c-0.169-0.738-0.574-1.299-1.197-1.594c-0.274-0.131-0.571-0.197-0.882-0.197
			c-1.041,0-1.975,0.719-2.689,1.639c-0.664-0.461-1.341-0.711-1.962-0.711c-0.184,0-0.364,0.02-0.535,0.063
			C96.308,143.574,95.263,142.883,94.215,142.883 M94.215,144.217c0.712,0,1.748,0.723,2.571,1.861
			c0.043,0.061,0.084,0.119,0.125,0.182c0.053-0.189,0.146-0.344,0.286-0.443c0.128-0.094,0.284-0.137,0.46-0.137
			c0.598,0,1.425,0.51,2.162,1.348c0.047,0.002,0.094,0.006,0.141,0.01c0.653-1.357,1.631-2.285,2.348-2.285
			c0.11,0,0.214,0.023,0.309,0.068c0.575,0.273,0.674,1.322,0.309,2.537c0.005,0,0.009,0.002,0.013,0.002
			c0.109-0.074,0.221-0.145,0.338-0.215c0.882-0.527,1.78-0.801,2.455-0.801c0.477,0,0.842,0.137,1.011,0.42
			c0.06,0.102,0.089,0.217,0.095,0.342c0.573-0.633,1.186-1.014,1.666-1.014c0.135,0,0.259,0.029,0.369,0.094
			c0.551,0.316,0.569,1.365,0.115,2.545c0.073,0.021,0.145,0.047,0.218,0.07c0.02-0.672,0.227-1.17,0.616-1.322
			c0.081-0.033,0.167-0.049,0.256-0.049c0.706,0,1.623,0.965,2.196,2.352c0.301-0.143,0.583-0.221,0.827-0.221
			c0.202,0,0.378,0.053,0.515,0.166c0.242,0.197,0.326,0.549,0.276,0.982c0.037,0.02,0.073,0.037,0.109,0.055
			c0.435-1.014,1.06-1.688,1.622-1.688c0.053,0,0.105,0.006,0.156,0.018c0.641,0.15,0.96,1.219,0.829,2.543
			c0.619-0.391,1.222-0.605,1.688-0.605c0.284,0,0.518,0.08,0.673,0.25c0.275,0.297,0.254,0.814,0,1.406
			c0.129-0.076,0.262-0.117,0.397-0.117c0.018,0,0.035,0.002,0.053,0.002c0.725,0.059,1.23,1.281,1.211,2.82
			c0.405-0.35,0.809-0.547,1.149-0.547c0.125,0,0.24,0.025,0.344,0.082c0.52,0.275,0.603,1.193,0.282,2.275
			c0.697-0.418,1.379-0.646,1.901-0.646c0.342,0,0.615,0.098,0.777,0.305c0.339,0.426,0.114,1.209-0.499,2.008
			c0.143-0.025,0.278-0.039,0.404-0.039c0.342,0,0.615,0.098,0.778,0.303c0.356,0.449,0.087,1.293-0.6,2.135
			c1.553,0.094,2.752,0.699,2.752,1.432c0,0.799-1.42,1.447-3.173,1.447c-0.013,0-0.025-0.002-0.038-0.002
			c0.025,0.316,0.038,6.773,0.038,7.094H68.97c0-0.32,0.013-6.777,0.038-7.094c-0.013,0-0.025,0.002-0.038,0.002
			c-1.752,0-3.172-0.648-3.172-1.447c0-0.553,0.679-1.033,1.678-1.275c-0.03-0.047-0.054-0.094-0.072-0.145
			c-0.261-0.756,0.87-1.832,2.526-2.404c0.11-0.037,0.218-0.07,0.326-0.102c-1.309-0.834-2.063-1.943-1.708-2.584
			c0.169-0.305,0.56-0.453,1.075-0.453c0.623,0,1.426,0.217,2.235,0.637c0.033-0.32,0.091-0.656,0.181-1
			c0.408-1.572,1.283-2.73,2.025-2.73c0.058,0,0.116,0.008,0.172,0.021c0.18,0.047,0.332,0.17,0.455,0.348
			c0.009-0.111,0.021-0.225,0.035-0.338c0.218-1.674,0.992-2.965,1.757-2.965c0.029,0,0.058,0.002,0.087,0.006
			c0.394,0.051,0.706,0.447,0.892,1.045c0.565-1.098,1.334-1.824,1.946-1.824c0.089,0,0.173,0.014,0.254,0.045
			c0.422,0.166,0.634,0.738,0.623,1.502c0.016-0.008,0.032-0.016,0.049-0.025c0.183-1.57,0.869-2.771,1.604-2.771
			c0.016,0,0.033,0,0.05,0.002c0.52,0.039,0.928,0.678,1.113,1.6c0.059-0.021,0.117-0.043,0.175-0.064
			c-0.137-0.641-0.058-1.162,0.275-1.402c0.128-0.092,0.283-0.135,0.458-0.135c0.277,0,0.603,0.109,0.947,0.311
			c-0.203-0.346-0.264-0.674-0.141-0.939c0.166-0.359,0.633-0.539,1.256-0.539c0.634,0,1.429,0.186,2.23,0.557
			c0.254,0.115,0.49,0.246,0.711,0.381c0.386-0.381,0.902-0.754,1.509-1.061c0.834-0.422,1.668-0.637,2.318-0.637
			c0.254,0,0.479,0.031,0.667,0.098c-0.17-0.688-0.1-1.25,0.249-1.502C93.883,144.262,94.039,144.217,94.215,144.217"/>
		<path clip-path="url(#SVGID_4_)" fill="#2268A8" d="M110.979,191.814c0,3.246-6.322,5.877-14.121,5.877
			s-14.122-2.631-14.122-5.877v-12.756h28.243V191.814z"/>
		
			<path clip-path="url(#SVGID_4_)" fill="none" stroke="#000000" stroke-width="1.335" stroke-linejoin="round" stroke-miterlimit="10" d="
			M110.979,191.814c0,3.246-6.322,5.877-14.121,5.877s-14.122-2.631-14.122-5.877v-12.756h28.243V191.814z"/>
		<path clip-path="url(#SVGID_4_)" fill="#2268A8" d="M63.748,163.793c2.544,15.936,16.399,28.115,33.11,28.115
			c16.712,0,30.566-12.18,33.11-28.115c0,0-15.616,3.225-34.185,3.225C77.214,167.018,63.748,163.793,63.748,163.793"/>
		
			<path clip-path="url(#SVGID_4_)" fill="none" stroke="#000000" stroke-width="1.335" stroke-linejoin="round" stroke-miterlimit="10" d="
			M63.748,163.793c2.544,15.936,16.399,28.115,33.11,28.115c16.712,0,30.566-12.18,33.11-28.115c0,0-15.616,3.225-34.185,3.225
			C77.214,167.018,63.748,163.793,63.748,163.793z"/>
	</g>
	<polygon fill="#AB2E23" points="85.852,151.688 92.806,139.645 89.523,139.645 89.523,130.418 82.182,130.418 82.182,139.645 
		78.898,139.645 	"/>
	<polygon fill="none" stroke="#000000" stroke-width="1.335" stroke-linejoin="round" stroke-miterlimit="10" points="
		85.852,151.688 92.806,139.645 89.523,139.645 89.523,130.418 82.182,130.418 82.182,139.645 78.898,139.645 	"/>
	<g>
		<defs>
			<rect id="SVGID_93_" x="63.081" y="41.402" width="223.759" height="156.955"/>
		</defs>
		<clipPath id="SVGID_6_">
			<use xlink:href="#SVGID_93_"  overflow="visible"/>
		</clipPath>
		<path clip-path="url(#SVGID_6_)" fill="#CCAC6C" d="M153.194,190.906c-0.369,0-0.667-0.299-0.667-0.666v-62.238
			c0-0.369,0.298-0.668,0.667-0.668h62.238c0.369,0,0.667,0.299,0.667,0.668v62.238c0,0.367-0.298,0.666-0.667,0.666H153.194z"/>
		<path clip-path="url(#SVGID_6_)" d="M215.433,126.666h-62.238c-0.737,0-1.335,0.598-1.335,1.336v62.236
			c0,0.738,0.598,1.336,1.335,1.336h62.238c0.737,0,1.335-0.598,1.335-1.336v-62.236
			C216.768,127.264,216.169,126.666,215.433,126.666 M215.433,190.238h-62.238V128h62.238V190.238z"/>
	</g>
	
		<line fill="none" stroke="#000000" stroke-width="1.335" stroke-linecap="round" stroke-linejoin="round" stroke-miterlimit="10" x1="161.723" y1="132.406" x2="161.723" y2="185.834"/>
	
		<line fill="none" stroke="#000000" stroke-width="1.335" stroke-linecap="round" stroke-linejoin="round" stroke-miterlimit="10" x1="173.019" y1="132.406" x2="173.019" y2="185.834"/>
	
		<line fill="none" stroke="#000000" stroke-width="1.335" stroke-linecap="round" stroke-linejoin="round" stroke-miterlimit="10" x1="184.313" y1="132.406" x2="184.313" y2="185.834"/>
	
		<line fill="none" stroke="#000000" stroke-width="1.335" stroke-linecap="round" stroke-linejoin="round" stroke-miterlimit="10" x1="195.608" y1="132.406" x2="195.608" y2="185.834"/>
	
		<line fill="none" stroke="#000000" stroke-width="1.335" stroke-linecap="round" stroke-linejoin="round" stroke-miterlimit="10" x1="206.904" y1="132.406" x2="206.904" y2="185.834"/>
	
		<line fill="none" stroke="#000000" stroke-width="1.335" stroke-linecap="round" stroke-linejoin="round" stroke-miterlimit="10" x1="157.6" y1="181.711" x2="211.026" y2="181.711"/>
	
		<line fill="none" stroke="#000000" stroke-width="1.335" stroke-linecap="round" stroke-linejoin="round" stroke-miterlimit="10" x1="157.6" y1="170.416" x2="211.026" y2="170.416"/>
	
		<line fill="none" stroke="#000000" stroke-width="1.335" stroke-linecap="round" stroke-linejoin="round" stroke-miterlimit="10" x1="157.6" y1="159.121" x2="211.026" y2="159.121"/>
	
		<line fill="none" stroke="#000000" stroke-width="1.335" stroke-linecap="round" stroke-linejoin="round" stroke-miterlimit="10" x1="157.6" y1="147.826" x2="211.026" y2="147.826"/>
	
		<line fill="none" stroke="#000000" stroke-width="1.335" stroke-linecap="round" stroke-linejoin="round" stroke-miterlimit="10" x1="157.6" y1="136.531" x2="211.026" y2="136.531"/>
	<g>
		<defs>
			<rect id="SVGID_95_" x="63.081" y="41.402" width="223.759" height="156.955"/>
		</defs>
		<clipPath id="SVGID_8_">
			<use xlink:href="#SVGID_95_"  overflow="visible"/>
		</clipPath>
		<path clip-path="url(#SVGID_8_)" fill="#141414" d="M199.152,147.824c0,1.957-1.587,3.545-3.544,3.545
			c-1.958,0-3.544-1.588-3.544-3.545s1.586-3.543,3.544-3.543C197.565,144.281,199.152,145.867,199.152,147.824"/>
		
			<circle clip-path="url(#SVGID_8_)" fill="none" stroke="#000000" stroke-width="1.335" stroke-linecap="round" stroke-linejoin="round" stroke-miterlimit="10" cx="195.608" cy="147.824" r="3.544"/>
		<path clip-path="url(#SVGID_8_)" fill="#141414" d="M210.448,181.711c0,1.957-1.587,3.543-3.544,3.543
			c-1.958,0-3.545-1.586-3.545-3.543s1.587-3.545,3.545-3.545C208.861,178.166,210.448,179.754,210.448,181.711"/>
		
			<circle clip-path="url(#SVGID_8_)" fill="none" stroke="#000000" stroke-width="1.335" stroke-linecap="round" stroke-linejoin="round" stroke-miterlimit="10" cx="206.903" cy="181.711" r="3.544"/>
		<path clip-path="url(#SVGID_8_)" fill="#141414" d="M187.857,147.824c0,1.957-1.587,3.545-3.544,3.545
			c-1.958,0-3.544-1.588-3.544-3.545s1.586-3.543,3.544-3.543C186.271,144.281,187.857,145.867,187.857,147.824"/>
		
			<circle clip-path="url(#SVGID_8_)" fill="none" stroke="#000000" stroke-width="1.335" stroke-linecap="round" stroke-linejoin="round" stroke-miterlimit="10" cx="184.313" cy="147.824" r="3.544"/>
		<path clip-path="url(#SVGID_8_)" fill="#141414" d="M176.563,159.119c0,1.959-1.587,3.545-3.544,3.545
			c-1.958,0-3.544-1.586-3.544-3.545c0-1.957,1.586-3.543,3.544-3.543C174.976,155.576,176.563,157.162,176.563,159.119"/>
		
			<circle clip-path="url(#SVGID_8_)" fill="none" stroke="#000000" stroke-width="1.335" stroke-linecap="round" stroke-linejoin="round" stroke-miterlimit="10" cx="173.019" cy="159.119" r="3.544"/>
		<path clip-path="url(#SVGID_8_)" fill="#141414" d="M176.563,170.416c0,1.957-1.587,3.543-3.544,3.543
			c-1.958,0-3.544-1.586-3.544-3.543s1.586-3.545,3.544-3.545C174.976,166.871,176.563,168.459,176.563,170.416"/>
		
			<circle clip-path="url(#SVGID_8_)" fill="none" stroke="#000000" stroke-width="1.335" stroke-linecap="round" stroke-linejoin="round" stroke-miterlimit="10" cx="173.019" cy="170.416" r="3.544"/>
		<path clip-path="url(#SVGID_8_)" fill="#E5E2D3" d="M199.152,136.531c0,1.957-1.587,3.543-3.544,3.543
			c-1.958,0-3.544-1.586-3.544-3.543s1.586-3.545,3.544-3.545C197.565,132.986,199.152,134.574,199.152,136.531"/>
		
			<circle clip-path="url(#SVGID_8_)" fill="none" stroke="#000000" stroke-width="1.335" stroke-linecap="round" stroke-linejoin="round" stroke-miterlimit="10" cx="195.608" cy="136.531" r="3.544"/>
		<path clip-path="url(#SVGID_8_)" fill="#E5E2D3" d="M165.268,136.531c0,1.957-1.587,3.543-3.545,3.543
			c-1.957,0-3.543-1.586-3.543-3.543s1.586-3.545,3.543-3.545C163.681,132.986,165.268,134.574,165.268,136.531"/>
		
			<circle clip-path="url(#SVGID_8_)" fill="none" stroke="#000000" stroke-width="1.335" stroke-linecap="round" stroke-linejoin="round" stroke-miterlimit="10" cx="161.724" cy="136.531" r="3.544"/>
		<path clip-path="url(#SVGID_8_)" fill="#E5E2D3" d="M187.857,159.121c0,1.957-1.587,3.543-3.544,3.543
			c-1.958,0-3.544-1.586-3.544-3.543s1.586-3.545,3.544-3.545C186.271,155.576,187.857,157.164,187.857,159.121"/>
		
			<circle clip-path="url(#SVGID_8_)" fill="none" stroke="#000000" stroke-width="1.335" stroke-linecap="round" stroke-linejoin="round" stroke-miterlimit="10" cx="184.313" cy="159.121" r="3.544"/>
		<path clip-path="url(#SVGID_8_)" fill="#E5E2D3" d="M187.857,170.416c0,1.957-1.587,3.543-3.544,3.543
			c-1.958,0-3.544-1.586-3.544-3.543s1.586-3.545,3.544-3.545C186.271,166.871,187.857,168.459,187.857,170.416"/>
		
			<circle clip-path="url(#SVGID_8_)" fill="none" stroke="#000000" stroke-width="1.335" stroke-linecap="round" stroke-linejoin="round" stroke-miterlimit="10" cx="184.313" cy="170.416" r="3.544"/>
		<path clip-path="url(#SVGID_8_)" fill="#E5E2D3" d="M165.268,170.416c0,1.957-1.587,3.543-3.545,3.543
			c-1.957,0-3.543-1.586-3.543-3.543s1.586-3.545,3.543-3.545C163.681,166.871,165.268,168.459,165.268,170.416"/>
		
			<circle clip-path="url(#SVGID_8_)" fill="none" stroke="#000000" stroke-width="1.335" stroke-linecap="round" stroke-linejoin="round" stroke-miterlimit="10" cx="161.724" cy="170.416" r="3.544"/>
		<path clip-path="url(#SVGID_8_)" fill="#E5E2D3" d="M176.563,181.711c0,1.957-1.587,3.543-3.544,3.543
			c-1.958,0-3.544-1.586-3.544-3.543s1.586-3.545,3.544-3.545C174.976,178.166,176.563,179.754,176.563,181.711"/>
		
			<circle clip-path="url(#SVGID_8_)" fill="none" stroke="#000000" stroke-width="1.335" stroke-linecap="round" stroke-linejoin="round" stroke-miterlimit="10" cx="173.019" cy="181.711" r="3.544"/>
	</g>
	<rect x="247.018" y="132.098" fill="#4F5666" width="32.828" height="3.182"/>
	
		<rect x="247.018" y="132.098" fill="none" stroke="#000000" stroke-width="1.064" stroke-linecap="round" stroke-linejoin="round" stroke-miterlimit="10" width="32.828" height="3.182"/>
	<g>
		<defs>
			<rect id="SVGID_97_" x="63.081" y="41.402" width="223.759" height="156.955"/>
		</defs>
		<clipPath id="SVGID_10_">
			<use xlink:href="#SVGID_97_"  overflow="visible"/>
		</clipPath>
		<path clip-path="url(#SVGID_10_)" fill="#E5E2D3" d="M244.12,140.707c-0.086,0-0.172-0.021-0.25-0.063
			c-1.387-0.74-2.512-1.865-3.252-3.252c-0.077-0.145-0.084-0.316-0.017-0.467s0.199-0.262,0.358-0.299
			c1.042-0.26,1.145-1.055,1.145-2.939s-0.103-2.678-1.145-2.936c-0.159-0.041-0.291-0.152-0.358-0.301
			c-0.067-0.15-0.06-0.322,0.017-0.467c0.741-1.389,1.865-2.512,3.252-3.252c0.078-0.041,0.164-0.063,0.25-0.063
			c0.074,0,0.147,0.016,0.216,0.045c0.15,0.066,0.261,0.199,0.3,0.357c0.259,1.043,1.053,1.146,2.938,1.146
			c1.885,0,2.678-0.104,2.938-1.146c0.039-0.158,0.15-0.291,0.3-0.357c0.069-0.029,0.142-0.045,0.216-0.045
			c0.086,0,0.172,0.021,0.25,0.063c1.387,0.74,2.511,1.863,3.252,3.252c0.077,0.145,0.084,0.316,0.017,0.465
			c-0.066,0.15-0.198,0.262-0.358,0.303c-1.042,0.258-1.146,1.051-1.146,2.936s0.104,2.68,1.146,2.939
			c0.16,0.037,0.292,0.148,0.358,0.299c0.067,0.15,0.06,0.322-0.017,0.467c-0.74,1.387-1.865,2.512-3.252,3.252
			c-0.078,0.041-0.164,0.063-0.25,0.063c-0.074,0-0.147-0.016-0.216-0.047c-0.15-0.064-0.261-0.197-0.3-0.357
			c-0.26-1.041-1.053-1.146-2.938-1.146c-1.885,0-2.679,0.105-2.938,1.146c-0.039,0.16-0.15,0.293-0.3,0.357
			C244.267,140.691,244.194,140.707,244.12,140.707"/>
		<path clip-path="url(#SVGID_10_)" d="M251.028,126.137c-0.147,0-0.295,0.031-0.432,0.094c-0.3,0.133-0.521,0.396-0.6,0.715
			c-0.156,0.625-0.54,0.742-2.422,0.742c-1.881,0-2.266-0.117-2.421-0.742c-0.079-0.318-0.301-0.582-0.6-0.715
			c-0.138-0.063-0.286-0.094-0.433-0.094c-0.172,0-0.344,0.043-0.501,0.125c-1.479,0.791-2.68,1.99-3.47,3.473
			c-0.155,0.289-0.167,0.633-0.034,0.932c0.134,0.301,0.397,0.521,0.716,0.6c0.624,0.156,0.742,0.541,0.742,2.424
			c0,1.881-0.118,2.266-0.742,2.42c-0.319,0.08-0.582,0.301-0.716,0.6c-0.133,0.301-0.121,0.645,0.034,0.934
			c0.79,1.48,1.99,2.682,3.47,3.471c0.156,0.084,0.329,0.127,0.501,0.127c0.147,0,0.295-0.031,0.433-0.092
			c0.299-0.135,0.521-0.398,0.6-0.717c0.155-0.625,0.54-0.742,2.421-0.742c1.882,0,2.266,0.117,2.422,0.742
			c0.079,0.318,0.3,0.582,0.6,0.717c0.138,0.061,0.285,0.092,0.432,0.092c0.173,0,0.345-0.043,0.501-0.127
			c1.48-0.789,2.68-1.99,3.471-3.471c0.154-0.287,0.167-0.633,0.033-0.932c-0.133-0.301-0.397-0.521-0.715-0.602
			c-0.625-0.154-0.743-0.539-0.743-2.42c0-1.883,0.118-2.268,0.743-2.424c0.318-0.078,0.582-0.299,0.715-0.6
			c0.134-0.299,0.121-0.643-0.033-0.932c-0.791-1.482-1.991-2.682-3.471-3.473C251.373,126.18,251.2,126.137,251.028,126.137
			 M251.028,127.201c1.287,0.688,2.346,1.746,3.033,3.033c-1.55,0.385-1.55,1.785-1.55,3.455c0,1.668,0,3.066,1.55,3.453
			c-0.687,1.287-1.746,2.346-3.033,3.031c-0.385-1.549-1.786-1.549-3.454-1.549c-1.669,0-3.069,0-3.454,1.549
			c-1.287-0.686-2.346-1.744-3.033-3.031c1.55-0.387,1.55-1.785,1.55-3.453c0-1.67,0-3.07-1.55-3.455
			c0.687-1.287,1.746-2.346,3.033-3.033c0.385,1.549,1.785,1.551,3.454,1.551C249.242,128.752,250.643,128.75,251.028,127.201"/>
		<path clip-path="url(#SVGID_10_)" fill="#AB2E23" d="M250.221,133.688c0,1.463-1.186,2.648-2.647,2.648
			c-1.463,0-2.648-1.186-2.648-2.648c0-1.461,1.185-2.646,2.648-2.646C249.035,131.041,250.221,132.227,250.221,133.688"/>
		
			<circle clip-path="url(#SVGID_10_)" fill="none" stroke="#000000" stroke-width="1.064" stroke-linecap="round" stroke-linejoin="round" stroke-miterlimit="10" cx="247.574" cy="133.688" r="2.647"/>
		<path clip-path="url(#SVGID_10_)" fill="#E5E2D3" d="M275.834,140.707c-0.086,0-0.172-0.021-0.251-0.063
			c-1.387-0.74-2.511-1.865-3.251-3.252c-0.077-0.145-0.084-0.316-0.017-0.467s0.199-0.262,0.358-0.299
			c1.042-0.26,1.146-1.055,1.146-2.939s-0.104-2.678-1.146-2.936c-0.159-0.041-0.291-0.152-0.358-0.301
			c-0.067-0.15-0.06-0.322,0.017-0.467c0.74-1.389,1.865-2.512,3.252-3.252c0.078-0.041,0.164-0.063,0.25-0.063
			c0.073,0,0.147,0.016,0.216,0.045c0.15,0.066,0.261,0.199,0.3,0.357c0.26,1.043,1.053,1.146,2.938,1.146
			c1.885,0,2.679-0.104,2.938-1.146c0.039-0.158,0.15-0.291,0.3-0.357c0.069-0.029,0.143-0.045,0.216-0.045
			c0.087,0,0.172,0.021,0.251,0.063c1.386,0.74,2.511,1.863,3.251,3.252c0.077,0.145,0.084,0.316,0.017,0.467
			c-0.066,0.148-0.198,0.26-0.358,0.301c-1.042,0.258-1.146,1.051-1.146,2.936s0.104,2.68,1.146,2.939
			c0.16,0.037,0.292,0.148,0.358,0.299c0.067,0.15,0.06,0.322-0.017,0.467c-0.74,1.387-1.864,2.512-3.251,3.252
			c-0.078,0.041-0.164,0.063-0.251,0.063c-0.073,0-0.147-0.016-0.216-0.047c-0.15-0.064-0.261-0.197-0.3-0.357
			c-0.259-1.041-1.053-1.146-2.938-1.146c-1.885,0-2.678,0.105-2.938,1.146c-0.039,0.16-0.15,0.293-0.3,0.357
			C275.981,140.691,275.908,140.707,275.834,140.707"/>
		<path clip-path="url(#SVGID_10_)" d="M275.834,126.137c-0.173,0-0.345,0.043-0.501,0.125c-1.48,0.791-2.68,1.99-3.471,3.473
			c-0.154,0.289-0.166,0.633-0.033,0.932c0.133,0.301,0.397,0.521,0.715,0.6c0.625,0.156,0.743,0.541,0.743,2.424
			c0,1.881-0.118,2.266-0.743,2.42c-0.318,0.08-0.582,0.301-0.715,0.6c-0.133,0.301-0.121,0.645,0.033,0.934
			c0.79,1.48,1.99,2.682,3.471,3.471c0.156,0.084,0.328,0.127,0.501,0.127c0.147,0,0.294-0.031,0.432-0.092
			c0.299-0.135,0.521-0.398,0.6-0.717c0.156-0.625,0.541-0.742,2.422-0.742c1.882,0,2.266,0.117,2.421,0.742
			c0.08,0.318,0.301,0.582,0.601,0.717c0.138,0.061,0.285,0.092,0.432,0.092c0.173,0,0.345-0.043,0.501-0.127
			c1.48-0.789,2.68-1.99,3.47-3.471c0.155-0.289,0.167-0.633,0.034-0.934c-0.133-0.299-0.397-0.52-0.715-0.6
			c-0.625-0.154-0.743-0.539-0.743-2.42c0-1.883,0.118-2.268,0.743-2.424c0.318-0.078,0.582-0.299,0.715-0.6
			c0.133-0.299,0.121-0.643-0.034-0.932c-0.79-1.482-1.99-2.682-3.47-3.473c-0.156-0.082-0.329-0.125-0.501-0.125
			c-0.147,0-0.295,0.031-0.432,0.094c-0.3,0.133-0.521,0.396-0.601,0.715c-0.155,0.625-0.539,0.742-2.421,0.742
			c-1.881,0-2.266-0.117-2.422-0.742c-0.079-0.318-0.301-0.582-0.6-0.715C276.128,126.168,275.981,126.137,275.834,126.137
			 M282.743,127.201c1.287,0.688,2.346,1.746,3.033,3.033c-1.55,0.385-1.55,1.785-1.55,3.455c0,1.668,0,3.066,1.55,3.453
			c-0.687,1.287-1.746,2.346-3.033,3.031c-0.385-1.549-1.786-1.549-3.454-1.549c-1.669,0-3.068,0-3.454,1.549
			c-1.287-0.686-2.346-1.744-3.033-3.031c1.55-0.387,1.55-1.785,1.55-3.453c0-1.67,0-3.07-1.55-3.455
			c0.687-1.287,1.746-2.346,3.033-3.033c0.386,1.549,1.785,1.551,3.454,1.551C280.957,128.752,282.357,128.75,282.743,127.201"/>
		<path clip-path="url(#SVGID_10_)" fill="#2268A8" d="M281.936,133.688c0,1.463-1.185,2.648-2.647,2.648s-2.647-1.186-2.647-2.648
			c0-1.461,1.185-2.646,2.647-2.646S281.936,132.227,281.936,133.688"/>
		
			<circle clip-path="url(#SVGID_10_)" fill="none" stroke="#000000" stroke-width="1.064" stroke-linecap="round" stroke-linejoin="round" stroke-miterlimit="10" cx="279.289" cy="133.688" r="2.647"/>
		<path clip-path="url(#SVGID_10_)" fill="#4F5666" d="M268.583,149.549c0,2.848-10.304,2.848-10.304,0v-18.545
			c0-2.844,2.307-5.15,5.152-5.15c2.845,0,5.152,2.307,5.152,5.15V149.549z"/>
		
			<path clip-path="url(#SVGID_10_)" fill="none" stroke="#000000" stroke-width="1.064" stroke-linecap="round" stroke-linejoin="round" stroke-miterlimit="10" d="
			M268.583,149.549c0,2.848-10.304,2.848-10.304,0v-18.545c0-2.844,2.307-5.15,5.152-5.15c2.845,0,5.152,2.307,5.152,5.15V149.549z"
			/>
		<path clip-path="url(#SVGID_10_)" fill="#2268A8" d="M263.431,192.389c4.614,0,8.355-3.953,8.355-8.35
			c0-8.25-8.355-26.854-8.355-26.854s-8.355,18.604-8.355,26.854C255.076,188.436,258.817,192.389,263.431,192.389"/>
		<path clip-path="url(#SVGID_10_)" fill="none" stroke="#000000" stroke-width="1.064" stroke-miterlimit="10" d="M263.431,192.389
			c4.614,0,8.355-3.953,8.355-8.35c0-8.25-8.355-26.854-8.355-26.854s-8.355,18.604-8.355,26.854
			C255.076,188.436,258.817,192.389,263.431,192.389z"/>
		<path clip-path="url(#SVGID_10_)" fill="#FFFFFF" d="M270.009,183.996c0,1.273-1.032,2.305-2.305,2.305s-2.305-1.031-2.305-2.305
			s1.032-2.305,2.305-2.305S270.009,182.723,270.009,183.996"/>
	</g>
	<polygon fill="#AB2E23" points="256.48,182.604 246.88,177.061 246.88,179.676 239.526,179.676 239.526,185.529 246.88,185.529 
		246.88,188.146 	"/>
	<polygon fill="none" stroke="#000000" stroke-width="1.064" stroke-linejoin="round" stroke-miterlimit="10" points="
		256.48,182.604 246.88,177.061 246.88,179.676 239.526,179.676 239.526,185.529 246.88,185.529 246.88,188.146 	"/>
	<text transform="matrix(1 0 0 1 232.8506 166.7598)" font-family="'Ubuntu'" font-size="23.2386">l’</text>
</g>
</svg>
