<?xml version="1.0" encoding="utf-8"?>
<!-- Generator: Adobe Illustrator 16.0.0, SVG Export Plug-In . SVG Version: 6.00 Build 0)  -->
<!DOCTYPE svg PUBLIC "-//W3C//DTD SVG 1.1//EN" "http://www.w3.org/Graphics/SVG/1.1/DTD/svg11.dtd">
<svg version="1.1" id="Calque_1" xmlns="http://www.w3.org/2000/svg" xmlns:xlink="http://www.w3.org/1999/xlink" x="0px" y="0px"
	 width="349.92px" height="239.76px" viewBox="0 0 349.92 239.76" enable-background="new 0 0 349.92 239.76" xml:space="preserve">
<g>
	<path fill="#E5E2D3" d="M12.15,2C11.117,2.008,2,2.357,2,12.15v215.459c0.008,1.033,0.357,10.15,10.15,10.15h325.62
		c1.032-0.008,10.15-0.357,10.15-10.15V12.15C347.912,11.117,347.563,2,337.77,2H12.15z"/>
	<path fill="none" stroke="#000000" stroke-width="4" stroke-linejoin="round" stroke-miterlimit="10" d="M12.15,2
		C11.117,2.008,2,2.357,2,12.15v215.459c0.008,1.033,0.357,10.15,10.15,10.15h325.62c1.032-0.008,10.15-0.357,10.15-10.15V12.15
		C347.912,11.117,347.563,2,337.77,2H12.15z"/>
</g>
<g>
	<g>
		<path d="M134,113.695c0,0,0.268-0.184,0.769-0.527c0.231-0.166,0.514-0.357,0.853-0.605c0.34-0.246,0.724-0.537,1.151-0.863
			c0.847-0.664,1.846-1.502,2.909-2.531c1.055-1.031,2.168-2.268,3.149-3.723c0.968-1.449,1.804-3.162,2.001-4.957
			c0.1-0.896,0.036-1.801-0.252-2.666c-0.287-0.865-0.802-1.689-1.512-2.424c-0.709-0.734-1.598-1.385-2.6-1.92
			c-0.499-0.27-1.024-0.518-1.57-0.736c-0.27-0.117-0.552-0.213-0.83-0.318c-0.284-0.094-0.566-0.195-0.857-0.279
			c-1.155-0.352-2.361-0.621-3.592-0.824c-0.615-0.105-1.237-0.188-1.862-0.262c-0.634-0.076-1.307-0.164-1.961-0.264
			c-2.621-0.41-5.245-0.975-7.716-1.99c-1.231-0.508-2.424-1.135-3.497-1.963c-0.533-0.418-1.033-0.893-1.457-1.443
			c-0.423-0.547-0.767-1.178-0.957-1.861c-0.196-0.684-0.221-1.41-0.101-2.084c0.123-0.678,0.37-1.303,0.689-1.859
			c0.645-1.115,1.522-1.977,2.425-2.699c1.83-1.432,3.784-2.375,5.62-3.098c1.839-0.725,3.574-1.232,5.124-1.615
			c1.549-0.391,2.917-0.645,4.044-0.848c0.563-0.1,1.068-0.178,1.508-0.244c0.439-0.068,0.814-0.123,1.117-0.164
			c0.608-0.08,0.933-0.123,0.933-0.123c0.302-0.041,0.579,0.172,0.619,0.475c0.039,0.303-0.173,0.578-0.475,0.619
			c-0.007,0-0.013,0.002-0.02,0.002h-0.01c0,0-0.321,0.029-0.921,0.084c-0.6,0.059-1.48,0.154-2.593,0.324
			c-1.113,0.164-2.457,0.416-3.978,0.781c-1.518,0.375-3.216,0.873-4.99,1.598c-0.885,0.365-1.789,0.787-2.684,1.285
			s-1.784,1.076-2.598,1.771c-0.81,0.689-1.563,1.5-2.061,2.436c-0.245,0.469-0.425,0.965-0.488,1.471
			c-0.064,0.506-0.02,1.014,0.144,1.494c0.319,0.969,1.095,1.807,2.031,2.463c0.94,0.666,2.047,1.16,3.199,1.557
			c1.156,0.395,2.368,0.689,3.601,0.916c1.234,0.225,2.49,0.385,3.754,0.482c0.635,0.053,1.254,0.08,1.911,0.121
			c0.665,0.045,1.33,0.1,1.994,0.178c1.329,0.152,2.654,0.379,3.961,0.707c0.653,0.162,1.301,0.352,1.943,0.572
			c0.642,0.215,1.274,0.469,1.894,0.76c1.239,0.574,2.427,1.32,3.467,2.277c1.039,0.951,1.91,2.148,2.446,3.479
			c0.548,1.326,0.742,2.752,0.682,4.076c-0.029,0.664-0.113,1.311-0.242,1.928c-0.132,0.615-0.3,1.205-0.494,1.77
			c-0.399,1.123-0.884,2.15-1.413,3.08c-1.061,1.861-2.254,3.373-3.36,4.643c-1.113,1.268-2.154,2.289-3.03,3.104
			c-0.438,0.404-0.834,0.762-1.184,1.066c-0.346,0.307-0.662,0.564-0.909,0.775c-0.47,0.389-0.721,0.594-0.721,0.594
			c-1.066,0.881-2.643,0.729-3.522-0.338s-0.727-2.645,0.34-3.521C133.877,113.783,133.939,113.734,134,113.695"/>
		<path fill="#4F5666" d="M78.136,143.35c0.856,1.951,3.29,1.941,4.047,3.273c1.166,2.051-1.595,2.33-2.773,1.432
			c-1.179-0.896-3.116,0.113-2.35,1.512c1.332,2.436,5.809,1.746,8.928,1.838c15.644,1.945,24.916,24.434,62.055,14.02
			c6.18-1.734,0.779-6.162-7.397-14.145c-7.162-6.992-8.566-14.209-8.736-20.43c-0.277-10.111,15.925-23.059,13.458-24.816
			l0.37-1.936c-1.034,1.533-12.57,15.463-25.373,12.27c-5.783-1.441-12.243-7.668-12.83-15.898
			c-0.777-10.877,1.715-15.063-7.129-10.428C88.649,96.201,82.133,108.334,81,116.498c-1.464,10.539-0.111,12.871-5.362,17.691
			c-1.62,1.486-3.695,3.061-3.095,5.631c0.848,1.576,2.028,1.002,2.264-0.635c0.236-1.635,2.536-2.035,2.99-0.406
			C78.118,139.643,76.783,141.184,78.136,143.35"/>
		<path fill="none" stroke="#000000" stroke-width="1.6" stroke-linejoin="round" stroke-miterlimit="10" d="M78.136,143.35
			c0.856,1.951,3.29,1.941,4.047,3.273c1.166,2.051-1.595,2.33-2.773,1.432c-1.179-0.896-3.116,0.113-2.35,1.512
			c1.332,2.436,5.809,1.746,8.928,1.838c15.644,1.945,24.916,24.434,62.055,14.02c6.18-1.734,0.779-6.162-7.397-14.145
			c-7.162-6.992-8.566-14.209-8.736-20.43c-0.277-10.111,15.925-23.059,13.458-24.816l0.37-1.936
			c-1.034,1.533-12.57,15.463-25.373,12.27c-5.783-1.441-12.243-7.668-12.83-15.898c-0.777-10.877,1.715-15.063-7.129-10.428
			C88.649,96.201,82.133,108.334,81,116.498c-1.464,10.539-0.111,12.871-5.362,17.691c-1.62,1.486-3.695,3.061-3.095,5.631
			c0.848,1.576,2.028,1.002,2.264-0.635c0.236-1.635,2.536-2.035,2.99-0.406C78.118,139.643,76.783,141.184,78.136,143.35z"/>
		<path d="M81.801,133.539c0.443,0.443,0.443,1.16,0,1.604c-0.443,0.441-1.16,0.441-1.603,0c-0.443-0.443-0.443-1.16,0-1.604
			S81.358,133.096,81.801,133.539"/>
		<path d="M87.601,145.338c0.443,0.443,0.443,1.16,0,1.604c-0.443,0.443-1.16,0.443-1.603,0c-0.443-0.443-0.443-1.16,0-1.604
			C86.441,144.896,87.158,144.896,87.601,145.338"/>
		
			<path fill="none" stroke="#000000" stroke-width="1.6" stroke-linecap="round" stroke-linejoin="round" stroke-miterlimit="10" d="
			M92.693,126.26c-1.402-1.777-4.869-2.682-4.869-2.682 M91.083,128.283c-1.402-1.777-4.869-2.684-4.869-2.684 M89.472,130.307
			c-1.402-1.777-4.868-2.684-4.868-2.684 M102.631,140.078c1.237,2.385,0.792,6.545,0.792,6.545 M99.971,140.793
			c1.237,2.385,0.792,6.547,0.792,6.547 M97.312,141.51c1.237,2.385,0.792,6.545,0.792,6.545"/>
		<path fill="#4F5666" d="M179.102,142.979c0-3.904,3.384-7.068,7.558-7.068c4.174,0,7.558,3.164,7.558,7.068
			c0,3.902-3.384,7.066-7.558,7.066C182.485,150.045,179.102,146.881,179.102,142.979"/>
		
			<ellipse fill="none" stroke="#000000" stroke-width="1.6" stroke-linecap="round" stroke-linejoin="round" stroke-miterlimit="10" cx="186.659" cy="142.979" rx="7.558" ry="7.068"/>
		<path fill="#4F5666" d="M203.327,147.166c0-3.904,3.384-7.068,7.558-7.068c4.174,0,7.558,3.164,7.558,7.068
			s-3.384,7.068-7.558,7.068C206.711,154.234,203.327,151.07,203.327,147.166"/>
		
			<ellipse fill="none" stroke="#000000" stroke-width="1.6" stroke-linecap="round" stroke-linejoin="round" stroke-miterlimit="10" cx="210.885" cy="147.166" rx="7.558" ry="7.068"/>
		<path fill="#4F5666" d="M254.271,126.502c0-3.904,3.384-7.068,7.558-7.068c4.174,0,7.558,3.164,7.558,7.068
			s-3.384,7.068-7.558,7.068C257.655,133.57,254.271,130.406,254.271,126.502"/>
		
			<ellipse fill="none" stroke="#000000" stroke-width="1.6" stroke-linecap="round" stroke-linejoin="round" stroke-miterlimit="10" cx="261.829" cy="126.502" rx="7.558" ry="7.068"/>
		<path fill="#4F5666" d="M197.677,137.904c0,4.713-3.289,9.828-7.39,11.445c-4.147,1.635-7.544-0.924-7.544-5.732
			s3.397-9.967,7.544-11.504C194.388,130.596,197.677,133.195,197.677,137.904"/>
		
			<path fill="none" stroke="#000000" stroke-width="1.6" stroke-linecap="round" stroke-linejoin="round" stroke-miterlimit="10" d="
			M197.677,137.904c0,4.713-3.289,9.828-7.39,11.445c-4.147,1.635-7.544-0.924-7.544-5.732s3.397-9.967,7.544-11.504
			C194.388,130.596,197.677,133.195,197.677,137.904z"/>
		<path fill="#AB2E23" d="M200.927,149.795c-0.087,0-0.173-0.014-0.257-0.041l-23.844-8.086c-0.324-0.109-0.543-0.414-0.543-0.756
			v-32.273c0-0.352,0.23-0.662,0.566-0.766l76.463-23.359c0.076-0.023,0.154-0.035,0.233-0.035c0.041,0,0.082,0.004,0.123,0.01
			l23.138,3.578c0.39,0.061,0.677,0.396,0.677,0.791v29.631c0,0.326-0.198,0.621-0.501,0.742l-75.756,30.508
			C201.13,149.777,201.029,149.795,200.927,149.795"/>
		<path d="M253.545,83.68c-0.158,0-0.316,0.021-0.468,0.068l-76.462,23.361c-0.673,0.205-1.132,0.826-1.132,1.529v32.271
			c0,0.688,0.437,1.295,1.086,1.518l23.844,8.084c0.167,0.057,0.34,0.084,0.514,0.084c0.203,0,0.406-0.039,0.597-0.115
			l75.757-30.508c0.605-0.244,1.002-0.832,1.002-1.484V88.857c0-0.789-0.576-1.461-1.356-1.582l-23.137-3.578
			C253.708,83.686,253.627,83.68,253.545,83.68 M253.545,85.279l23.138,3.578v29.631l-75.756,30.508l-23.844-8.086v-32.271
			L253.545,85.279z"/>
		<path fill="#4F5666" d="M212.946,154.225c-3.247,0-5.515-2.785-5.515-6.77c0-4.924,3.365-10.244,7.501-11.859
			c0.824-0.322,1.641-0.486,2.428-0.486c3.25,0,5.52,2.783,5.52,6.768c0,4.908-3.229,10.09-7.35,11.799
			C214.653,154.039,213.783,154.225,212.946,154.225"/>
		<path d="M217.36,134.309L217.36,134.309c-0.887,0-1.802,0.182-2.719,0.541c-2.178,0.852-4.206,2.635-5.71,5.021
			c-1.484,2.355-2.3,5.049-2.3,7.584c0,4.455,2.597,7.568,6.315,7.568c0.943,0,1.915-0.205,2.89-0.609
			c4.398-1.822,7.844-7.33,7.844-12.537C223.68,137.422,221.081,134.309,217.36,134.309 M217.36,135.908
			c2.748,0,4.72,2.322,4.72,5.969c0,4.537-3.053,9.482-6.857,11.061c-0.796,0.33-1.563,0.486-2.277,0.486
			c-2.737,0-4.715-2.299-4.715-5.969c0-4.629,3.147-9.613,6.992-11.115C215.97,136.049,216.688,135.908,217.36,135.908"/>
		<path fill="#4F5666" d="M262.973,133.57c-2.939,0-4.992-2.662-4.992-6.473c0-4.592,2.934-9.475,6.54-10.885
			c0.682-0.266,1.361-0.4,2.018-0.4c2.941,0,4.995,2.66,4.995,6.471c0,4.584-2.818,9.342-6.415,10.834
			C264.394,133.418,263.671,133.57,262.973,133.57"/>
		<path d="M266.539,115.012v1.6V115.012c-0.757,0-1.534,0.154-2.31,0.457c-3.953,1.545-7.049,6.652-7.049,11.629
			c0,4.283,2.382,7.271,5.793,7.271c0.804,0,1.629-0.172,2.452-0.514c3.874-1.605,6.909-6.689,6.909-11.572
			C272.334,118.002,269.951,115.012,266.539,115.012 M266.539,116.611c2.435,0,4.195,2.227,4.195,5.672
			c0,4.221-2.638,8.734-5.922,10.096c-0.641,0.266-1.259,0.391-1.839,0.391c-2.425,0-4.193-2.205-4.193-5.672
			c0-4.297,2.715-8.842,6.032-10.139C265.413,116.725,265.993,116.611,266.539,116.611"/>
		<path fill="#AB2E23" d="M218.34,143.383c0,2.063-1.392,4.305-3.118,5.008c-1.733,0.709-3.144-0.404-3.144-2.486
			s1.411-4.33,3.144-5.02C216.948,140.199,218.34,141.32,218.34,143.383"/>
		
			<path fill="none" stroke="#000000" stroke-width="1.6" stroke-linecap="round" stroke-linejoin="round" stroke-miterlimit="10" d="
			M218.34,143.383c0,2.063-1.392,4.305-3.118,5.008c-1.733,0.709-3.144-0.404-3.144-2.486s1.411-4.33,3.144-5.02
			C216.948,140.199,218.34,141.32,218.34,143.383z"/>
		<path fill="#AB2E23" d="M267.632,123.533c0,1.916-1.202,3.961-2.69,4.57c-1.496,0.609-2.713-0.461-2.713-2.395
			s1.217-3.984,2.713-4.578C266.43,120.539,267.632,121.615,267.632,123.533"/>
		
			<path fill="none" stroke="#000000" stroke-width="1.6" stroke-linecap="round" stroke-linejoin="round" stroke-miterlimit="10" d="
			M267.632,123.533c0,1.916-1.202,3.961-2.69,4.57c-1.496,0.609-2.713-0.461-2.713-2.395s1.217-3.984,2.713-4.578
			C266.43,120.539,267.632,121.615,267.632,123.533z"/>
	</g>
	<polygon fill="#809EAD" points="226.249,127.619 215.223,131.816 215.223,113.328 226.249,109.422 	"/>
	
		<polygon fill="none" stroke="#000000" stroke-width="1.6" stroke-linecap="round" stroke-linejoin="round" stroke-miterlimit="10" points="
		226.249,127.619 215.223,131.816 215.223,113.328 226.249,109.422 	"/>
	<polygon fill="#809EAD" points="238.972,122.773 228.354,126.816 228.354,108.676 238.972,104.914 	"/>
	
		<polygon fill="none" stroke="#000000" stroke-width="1.6" stroke-linecap="round" stroke-linejoin="round" stroke-miterlimit="10" points="
		238.972,122.773 228.354,126.816 228.354,108.676 238.972,104.914 	"/>
	<polygon fill="#809EAD" points="251.233,129.484 241,133.639 241,104.273 251.233,100.568 	"/>
	
		<polygon fill="none" stroke="#000000" stroke-width="1.6" stroke-linecap="round" stroke-linejoin="round" stroke-miterlimit="10" points="
		251.233,129.484 241,133.639 241,104.273 251.233,100.568 	"/>
	<polygon fill="#809EAD" points="263.056,113.602 253.188,117.359 253.188,99.875 263.056,96.379 	"/>
	
		<polygon fill="none" stroke="#000000" stroke-width="1.6" stroke-linecap="round" stroke-linejoin="round" stroke-miterlimit="10" points="
		263.056,113.602 253.188,117.359 253.188,99.875 263.056,96.379 	"/>
	<polygon fill="#809EAD" points="274.465,109.256 264.942,112.883 264.942,95.711 274.465,92.336 	"/>
	
		<polygon fill="none" stroke="#000000" stroke-width="1.6" stroke-linecap="round" stroke-linejoin="round" stroke-miterlimit="10" points="
		274.465,109.256 264.942,112.883 264.942,95.711 274.465,92.336 	"/>
	<polygon fill="#809EAD" points="201.648,136.811 212.404,132.891 212.404,114.328 201.648,117.963 176.43,110.27 176.43,129.174 	
		"/>
	
		<polygon fill="none" stroke="#000000" stroke-width="1.6" stroke-linecap="round" stroke-linejoin="round" stroke-miterlimit="10" points="
		201.648,136.811 212.404,132.891 212.404,114.328 201.648,117.963 176.43,110.27 176.43,129.174 	"/>
	
		<line fill="none" stroke="#000000" stroke-width="1.6" stroke-linecap="round" stroke-linejoin="round" stroke-miterlimit="10" x1="203.994" y1="114.369" x2="274.465" y2="89.637"/>
	<g>
		<path fill="#CCAC6C" d="M201.578,144.338c0,1.527-0.946,2.445-2.114,2.049c-1.167-0.396-2.114-1.955-2.114-3.484
			c0-1.527,0.947-2.445,2.114-2.049C200.632,141.25,201.578,142.809,201.578,144.338"/>
		
			<path fill="none" stroke="#000000" stroke-width="1.6" stroke-linecap="round" stroke-linejoin="round" stroke-miterlimit="10" d="
			M201.578,144.338c0,1.527-0.946,2.445-2.114,2.049c-1.167-0.396-2.114-1.955-2.114-3.484c0-1.527,0.947-2.445,2.114-2.049
			C200.632,141.25,201.578,142.809,201.578,144.338z"/>
		<path fill="#CCAC6C" d="M180.578,137.129c0,1.527-0.946,2.445-2.114,2.049c-1.167-0.396-2.114-1.955-2.114-3.484
			c0-1.527,0.947-2.445,2.114-2.049C179.632,134.039,180.578,135.6,180.578,137.129"/>
		
			<path fill="none" stroke="#000000" stroke-width="1.6" stroke-linecap="round" stroke-linejoin="round" stroke-miterlimit="10" d="
			M180.578,137.129c0,1.527-0.946,2.445-2.114,2.049c-1.167-0.396-2.114-1.955-2.114-3.484c0-1.527,0.947-2.445,2.114-2.049
			C179.632,134.039,180.578,135.6,180.578,137.129z"/>
	</g>
</g>
</svg>
