<?xml version="1.0" encoding="utf-8"?>
<!-- Generator: Adobe Illustrator 16.0.0, SVG Export Plug-In . SVG Version: 6.00 Build 0)  -->
<!DOCTYPE svg PUBLIC "-//W3C//DTD SVG 1.1//EN" "http://www.w3.org/Graphics/SVG/1.1/DTD/svg11.dtd">
<svg version="1.1" id="Calque_1" xmlns="http://www.w3.org/2000/svg" xmlns:xlink="http://www.w3.org/1999/xlink" x="0px" y="0px"
	 width="349.92px" height="239.76px" viewBox="0 0 349.92 239.76" enable-background="new 0 0 349.92 239.76" xml:space="preserve">
<g>
	<path fill="#E5E2D3" d="M12.15,2C11.117,2.008,2,2.357,2,12.15v215.459c0.008,1.033,0.357,10.15,10.15,10.15h325.62
		c1.032-0.008,10.15-0.357,10.15-10.15V12.15C347.912,11.117,347.563,2,337.77,2H12.15z"/>
	<path fill="none" stroke="#000000" stroke-width="4" stroke-linejoin="round" stroke-miterlimit="10" d="M12.15,2
		C11.117,2.008,2,2.357,2,12.15v215.459c0.008,1.033,0.357,10.15,10.15,10.15h325.62c1.032-0.008,10.15-0.357,10.15-10.15V12.15
		C347.912,11.117,347.563,2,337.77,2H12.15z"/>
</g>
<g>
	<polygon fill="#CCAB6B" points="81.529,92.928 91.65,93.598 99.663,96.447 107.396,100.047 113.71,105.535 119.583,112.754 
		120.862,123.746 118.973,133.15 112.597,139.514 105.792,143.379 97.26,146.99 88.19,148.625 79.33,150.383 69.831,149.143 
		56.17,147.191 51.319,144.447 41.281,138.291 36.53,130.314 34.022,122.324 36.331,113.168 41.281,105.514 48.255,100.848 
		56.539,96.713 65.143,92.928 74.318,92.633 	"/>
	<g>
		<defs>
			<rect id="SVGID_19_" x="27.172" y="73.85" width="295.575" height="92.061"/>
		</defs>
		<clipPath id="SVGID_2_">
			<use xlink:href="#SVGID_19_"  overflow="visible"/>
		</clipPath>
		<path clip-path="url(#SVGID_2_)" fill="#CCAB6B" d="M78.572,93.063c5.233-6.602,11.533-9.949,11.533-9.949
			s-0.667,5.662-4.065,10.375"/>
		<path clip-path="url(#SVGID_2_)" d="M79.199,93.559c2.56-3.23,5.392-5.674,7.58-7.305c1.094-0.816,2.026-1.428,2.682-1.834
			c0.327-0.203,0.586-0.355,0.761-0.455c0.087-0.051,0.154-0.088,0.197-0.111c0.022-0.012,0.038-0.021,0.049-0.027l0.011-0.006
			h0.002l-0.049-0.092l0.049,0.092l-0.049-0.092l0.049,0.092l-0.376-0.707l-0.794-0.094l0.273,0.033l-0.273-0.033l0.273,0.033
			l-0.273-0.033c-0.001,0.01-0.168,1.395-0.745,3.334c-0.575,1.939-1.562,4.432-3.174,6.666c-0.259,0.357-0.178,0.857,0.18,1.117
			c0.359,0.258,0.859,0.178,1.117-0.182c1.773-2.459,2.816-5.133,3.425-7.195s0.782-3.52,0.786-3.553
			c0.035-0.297-0.097-0.586-0.343-0.754c-0.247-0.168-0.564-0.186-0.827-0.047c-0.028,0.016-1.636,0.871-3.907,2.564
			s-5.205,4.223-7.878,7.594c-0.275,0.346-0.216,0.85,0.13,1.125C78.421,93.963,78.924,93.904,79.199,93.559"/>
		<path clip-path="url(#SVGID_2_)" fill="#CCAB6B" d="M86.041,93.488c6.129-5.779,11.22-4.617,11.22-4.617s-2.057,3.475-2.627,6.42"
			/>
		<path clip-path="url(#SVGID_2_)" d="M86.589,94.07c2.115-1.994,4.074-3.111,5.713-3.736c1.638-0.625,2.959-0.758,3.796-0.76
			c0.337,0,0.595,0.023,0.763,0.043c0.084,0.01,0.145,0.021,0.183,0.027c0.018,0.002,0.031,0.006,0.037,0.006h0.001l0.178-0.779
			l-0.689-0.408c-0.008,0.016-0.533,0.902-1.134,2.17c-0.3,0.637-0.62,1.367-0.904,2.135c-0.283,0.77-0.531,1.574-0.685,2.371
			c-0.084,0.434,0.199,0.854,0.633,0.938s0.854-0.201,0.938-0.633c0.13-0.678,0.353-1.41,0.616-2.121
			c0.393-1.068,0.875-2.086,1.256-2.832c0.191-0.373,0.357-0.68,0.474-0.891c0.059-0.105,0.105-0.188,0.137-0.242
			c0.016-0.027,0.028-0.047,0.035-0.061l0.009-0.016l0.002-0.002c0.131-0.221,0.148-0.488,0.047-0.725
			c-0.102-0.236-0.307-0.406-0.557-0.465c-0.05-0.01-0.528-0.115-1.34-0.115c-1.007,0-2.53,0.164-4.367,0.863
			c-1.837,0.701-3.984,1.939-6.24,4.068c-0.321,0.303-0.336,0.809-0.033,1.131C85.762,94.357,86.269,94.373,86.589,94.07"/>
		<path clip-path="url(#SVGID_2_)" fill="#CCAB6B" d="M94.634,95.291c6.996-4.691,12.173-2.627,12.173-2.627
			s-2.287,3.775-3.334,6.586"/>
		<path clip-path="url(#SVGID_2_)" d="M95.079,95.955c3.593-2.406,6.624-2.941,8.668-2.943c0.9,0,1.608,0.105,2.083,0.209
			c0.237,0.051,0.416,0.1,0.532,0.137c0.057,0.018,0.099,0.031,0.124,0.041l0.025,0.008l0.003,0.002l0.15-0.387l-0.154,0.385
			l0.004,0.002l0.15-0.387l-0.154,0.385l0.297-0.742l-0.685-0.416c-0.004,0.01-0.582,0.961-1.293,2.273
			c-0.712,1.313-1.558,2.977-2.106,4.449c-0.155,0.414,0.056,0.873,0.47,1.027s0.874-0.057,1.029-0.471
			c0.498-1.338,1.32-2.967,2.013-4.244c0.347-0.639,0.662-1.191,0.89-1.584c0.114-0.195,0.206-0.352,0.269-0.459
			c0.032-0.053,0.056-0.094,0.073-0.121l0.018-0.031l0.006-0.01c0.121-0.199,0.149-0.445,0.074-0.668
			c-0.075-0.223-0.244-0.402-0.462-0.488c-0.072-0.029-1.305-0.51-3.356-0.512c-2.328-0.002-5.71,0.631-9.559,3.215
			c-0.367,0.246-0.465,0.744-0.219,1.111S94.712,96.201,95.079,95.955"/>
		<path clip-path="url(#SVGID_2_)" fill="#CCAB6B" d="M103.472,99.25c7.785-3.219,11.3-5.762,11.3-5.762
			c-1.062,5.33-3.256,5.516-5.445,9.041"/>
		<path clip-path="url(#SVGID_2_)" d="M103.778,99.988c7.844-3.242,11.415-5.816,11.464-5.854l-0.469-0.646l-0.785-0.156
			c-0.256,1.283-0.573,2.227-0.93,2.979c-0.268,0.566-0.558,1.027-0.875,1.451c-0.474,0.635-1.019,1.193-1.625,1.859
			c-0.604,0.666-1.261,1.441-1.91,2.486c-0.233,0.377-0.117,0.869,0.258,1.104c0.376,0.232,0.869,0.117,1.102-0.258
			c0.517-0.834,1.029-1.465,1.543-2.043c0.384-0.434,0.771-0.836,1.156-1.27c0.575-0.648,1.145-1.369,1.636-2.318
			c0.493-0.951,0.904-2.121,1.214-3.678c0.064-0.322-0.076-0.652-0.352-0.83c-0.277-0.178-0.635-0.168-0.901,0.025h-0.001
			c-0.06,0.043-3.531,2.527-11.136,5.67c-0.409,0.168-0.603,0.637-0.434,1.045S103.37,100.158,103.778,99.988z"/>
		<path clip-path="url(#SVGID_2_)" fill="#CCAB6B" d="M109.328,102.531c8.346-1.143,14.47,4.842,14.47,4.842
			s-4.975,0.381-7.15,2.447"/>
		<path clip-path="url(#SVGID_2_)" d="M109.436,103.322c0.69-0.094,1.364-0.137,2.02-0.137c1.717,0,3.312,0.295,4.743,0.742
			c2.146,0.67,3.92,1.684,5.15,2.525c0.615,0.422,1.093,0.803,1.415,1.072c0.161,0.135,0.283,0.242,0.363,0.316
			c0.04,0.035,0.069,0.063,0.088,0.08l0.02,0.02l0.004,0.004l0.295-0.303l-0.296,0.303h0.001l0.295-0.303l-0.296,0.303l0.56-0.572
			l-0.062-0.799c-0.026,0.002-1.302,0.102-2.88,0.469c-0.789,0.184-1.655,0.436-2.485,0.785c-0.83,0.354-1.628,0.801-2.274,1.41
			c-0.321,0.305-0.334,0.813-0.03,1.131c0.305,0.322,0.811,0.334,1.131,0.031c0.441-0.422,1.081-0.797,1.796-1.098
			c1.072-0.453,2.303-0.744,3.255-0.912c0.476-0.086,0.884-0.141,1.169-0.174c0.143-0.018,0.256-0.029,0.331-0.037
			c0.038-0.002,0.067-0.006,0.085-0.008h0.02l0.005-0.002c0.312-0.023,0.583-0.229,0.691-0.523c0.107-0.295,0.031-0.627-0.193-0.846
			c-0.035-0.033-1.356-1.322-3.619-2.615c-1.132-0.648-2.499-1.297-4.062-1.785c-1.561-0.488-3.319-0.816-5.22-0.816
			c-0.726,0-1.473,0.049-2.237,0.154c-0.438,0.061-0.744,0.463-0.684,0.9S108.998,103.383,109.436,103.322z"/>
		<path clip-path="url(#SVGID_2_)" fill="#CCAB6B" d="M116.648,109.82c8.205,0.799,12.124,10.359,12.124,10.359
			s-5.304-4.148-9.19-4.113"/>
		<path clip-path="url(#SVGID_2_)" d="M116.57,110.615c1.903,0.186,3.557,0.877,4.991,1.828c2.15,1.422,3.785,3.441,4.868,5.105
			c0.541,0.832,0.946,1.574,1.213,2.104c0.133,0.266,0.233,0.477,0.297,0.621c0.033,0.07,0.057,0.127,0.072,0.162l0.017,0.039
			l0.003,0.008l0.001,0.002l0.275-0.113l-0.275,0.113l0,0l0.275-0.113l-0.275,0.113l0.74-0.305l0.493-0.629
			c-0.02-0.016-1.358-1.063-3.21-2.123c-0.928-0.527-1.983-1.061-3.079-1.469c-1.096-0.406-2.232-0.689-3.343-0.691
			c-0.019,0-0.039,0-0.06,0c-0.442,0.004-0.796,0.367-0.791,0.809c0.005,0.441,0.368,0.795,0.809,0.791h0.042
			c0.828-0.002,1.805,0.227,2.786,0.592c1.474,0.547,2.955,1.389,4.053,2.094c0.55,0.352,1.005,0.668,1.321,0.896
			c0.158,0.115,0.282,0.205,0.364,0.268c0.042,0.031,0.073,0.057,0.093,0.072l0.023,0.016l0.005,0.006h0.001
			c0.285,0.223,0.687,0.227,0.976,0.008s0.395-0.607,0.257-0.941c-0.019-0.043-1.022-2.492-3.102-5.08
			c-1.042-1.291-2.355-2.621-3.964-3.688c-1.608-1.068-3.521-1.873-5.721-2.086c-0.439-0.043-0.831,0.277-0.874,0.719
			C115.809,110.182,116.13,110.572,116.57,110.615z"/>
		<path clip-path="url(#SVGID_2_)" fill="#CCAB6B" d="M119.582,116.066c6.514,5.342,6.703,16.916,6.703,16.916
			s-3.71-4.705-6.703-5.648"/>
		<path clip-path="url(#SVGID_2_)" d="M119.075,116.686c1.52,1.244,2.693,2.875,3.59,4.641c1.346,2.643,2.06,5.578,2.427,7.84
			c0.184,1.133,0.283,2.098,0.335,2.775c0.027,0.338,0.041,0.605,0.049,0.785c0.004,0.092,0.006,0.16,0.008,0.205
			c0.001,0.023,0.001,0.039,0.001,0.051v0.012v0.002l0.8-0.014l0.629-0.494c-0.013-0.018-0.956-1.213-2.294-2.543
			c-0.669-0.666-1.438-1.365-2.249-1.973c-0.814-0.604-1.665-1.121-2.548-1.4c-0.422-0.135-0.871,0.1-1.004,0.521
			c-0.133,0.42,0.101,0.871,0.523,1.002c0.613,0.191,1.348,0.617,2.072,1.16c1.09,0.813,2.163,1.877,2.952,2.732
			c0.395,0.426,0.72,0.803,0.945,1.068c0.113,0.135,0.201,0.24,0.26,0.314c0.029,0.035,0.051,0.063,0.066,0.082l0.016,0.02
			l0.004,0.006c0.213,0.27,0.574,0.373,0.897,0.258c0.323-0.115,0.537-0.424,0.531-0.768c-0.001-0.037-0.049-2.979-0.931-6.629
			c-0.442-1.826-1.092-3.83-2.063-5.74c-0.971-1.908-2.264-3.727-4.002-5.15c-0.341-0.281-0.845-0.232-1.126,0.109
			C118.683,115.902,118.733,116.406,119.075,116.686"/>
		<path clip-path="url(#SVGID_2_)" fill="#CCAB6B" d="M119.582,127.334c5.323,7.607,2.523,13.287,2.523,13.287
			s-4.295-3.854-6.922-5.301"/>
		<path clip-path="url(#SVGID_2_)" d="M118.927,127.793c1.253,1.789,2.029,3.453,2.494,4.943c0.466,1.49,0.62,2.809,0.621,3.912
			c0,1.16-0.172,2.084-0.341,2.709c-0.084,0.311-0.167,0.549-0.226,0.703c-0.03,0.078-0.054,0.135-0.069,0.168l-0.017,0.037
			l-0.002,0.004l0.3,0.145l-0.299-0.146l-0.001,0.002l0.3,0.145l-0.299-0.146l0.718,0.354l0.534-0.596
			c-0.006-0.006-1.087-0.975-2.505-2.133c-0.708-0.578-1.501-1.203-2.29-1.779s-1.57-1.105-2.276-1.494
			c-0.387-0.213-0.873-0.072-1.087,0.314c-0.213,0.387-0.072,0.873,0.315,1.086c0.607,0.334,1.349,0.832,2.104,1.385
			c1.134,0.83,2.307,1.787,3.191,2.531c0.443,0.375,0.814,0.695,1.074,0.924c0.129,0.111,0.231,0.201,0.301,0.264
			c0.035,0.031,0.061,0.055,0.079,0.07l0.026,0.023c0.187,0.168,0.439,0.238,0.685,0.189c0.247-0.047,0.455-0.205,0.566-0.432
			c0.038-0.078,0.818-1.686,0.819-4.326c0-1.254-0.178-2.738-0.694-4.389c-0.515-1.65-1.368-3.467-2.71-5.385
			c-0.253-0.361-0.752-0.449-1.114-0.197C118.762,126.932,118.674,127.43,118.927,127.793"/>
		<path clip-path="url(#SVGID_2_)" fill="#CCAB6B" d="M115.183,135.32c0.975,8.367,3.789,10.484,3.789,10.484
			s-6.9,0.443-10.524-5.141"/>
		<path clip-path="url(#SVGID_2_)" d="M114.389,135.412c0.497,4.264,1.468,6.982,2.346,8.66c0.878,1.676,1.664,2.303,1.757,2.371
			l0.481-0.639l-0.051-0.799h-0.001c-0.014,0-0.124,0.006-0.311,0.006c-0.674,0.002-2.351-0.078-4.196-0.723
			c-0.922-0.32-1.887-0.781-2.798-1.438c-0.911-0.656-1.771-1.506-2.497-2.623c-0.24-0.371-0.736-0.475-1.106-0.234
			c-0.371,0.24-0.476,0.736-0.236,1.105c0.839,1.293,1.847,2.291,2.905,3.051c1.587,1.143,3.278,1.754,4.713,2.082
			c1.435,0.33,2.619,0.381,3.215,0.381c0.252,0,0.399-0.01,0.414-0.012c0.335-0.02,0.619-0.246,0.715-0.568
			c0.097-0.322-0.017-0.666-0.285-0.869l-0.254,0.338l0.263-0.33l-0.009-0.008l-0.254,0.338l0.263-0.33c0,0-0.009-0.006-0.027-0.023
			c-0.136-0.121-0.777-0.734-1.5-2.254c-0.722-1.518-1.524-3.939-1.958-7.668c-0.051-0.438-0.448-0.752-0.887-0.701
			S114.337,134.973,114.389,135.412"/>
		<path clip-path="url(#SVGID_2_)" fill="#CCAB6B" d="M108.445,140.58c-0.984,8.367-5.506,12.416-5.506,12.416
			s-0.584-5.09-2.039-7.713"/>
		<path clip-path="url(#SVGID_2_)" d="M107.651,140.488c-0.477,4.055-1.808,7.045-3.011,9.021c-0.601,0.986-1.171,1.719-1.585,2.201
			c-0.207,0.24-0.375,0.418-0.488,0.531c-0.057,0.059-0.1,0.1-0.128,0.127l-0.029,0.025l-0.005,0.006h-0.001l0.332,0.367
			l-0.33-0.369l-0.002,0.002l0.332,0.367l-0.33-0.369l0.533,0.598l0.795-0.092c-0.002-0.016-0.15-1.307-0.485-2.941
			c-0.167-0.818-0.382-1.723-0.651-2.602c-0.27-0.881-0.593-1.734-0.997-2.465c-0.215-0.387-0.702-0.525-1.088-0.313
			c-0.386,0.215-0.526,0.701-0.312,1.088c0.323,0.58,0.619,1.346,0.867,2.158c0.374,1.219,0.646,2.543,0.822,3.555
			c0.088,0.506,0.152,0.934,0.193,1.234c0.022,0.15,0.037,0.268,0.047,0.348c0.005,0.041,0.009,0.072,0.011,0.092l0.003,0.021v0.006
			c0.034,0.297,0.232,0.551,0.511,0.658c0.279,0.105,0.595,0.047,0.818-0.152c0.045-0.041,1.229-1.109,2.534-3.25
			c1.304-2.141,2.726-5.357,3.233-9.668c0.052-0.439-0.262-0.836-0.701-0.887C108.1,139.734,107.703,140.049,107.651,140.488"/>
		<path clip-path="url(#SVGID_2_)" fill="#CCAB6B" d="M100.901,145.285c-4.729,6.91-7.25,9.395-7.25,9.395s0.048-5.246-0.864-8.102"
			/>
		<path clip-path="url(#SVGID_2_)" d="M100.241,144.832c-2.352,3.438-4.151,5.768-5.356,7.234c-0.603,0.732-1.057,1.248-1.358,1.578
			c-0.15,0.166-0.262,0.285-0.336,0.361c-0.036,0.039-0.063,0.066-0.08,0.082l-0.018,0.02l-0.004,0.004l0.04,0.039l-0.04-0.039
			l0.04,0.039l-0.04-0.039l0.562,0.568l0.8,0.006c0-0.002,0-0.051,0-0.145c0-0.436-0.01-1.797-0.125-3.389
			c-0.057-0.797-0.141-1.648-0.265-2.479s-0.286-1.631-0.511-2.34c-0.135-0.42-0.585-0.654-1.005-0.518
			c-0.421,0.133-0.654,0.584-0.519,1.004c0.186,0.584,0.338,1.316,0.453,2.09c0.173,1.162,0.268,2.418,0.317,3.459
			c0.05,1.039,0.055,1.865,0.055,2.172c0,0.045,0,0.078,0,0.1c0,0.023,0,0.033,0,0.033c-0.003,0.324,0.19,0.617,0.488,0.744
			c0.298,0.125,0.643,0.059,0.873-0.168c0.043-0.043,2.597-2.568,7.349-9.514c0.25-0.365,0.157-0.863-0.208-1.111
			C100.988,144.375,100.491,144.467,100.241,144.832z"/>
		<path clip-path="url(#SVGID_2_)" fill="#CCAB6B" d="M92.787,146.578c-3.796,7.52-9.84,9.672-9.84,9.672s1.299-4.492,0.834-7.455"
			/>
		<path clip-path="url(#SVGID_2_)" d="M92.073,146.217c-1.834,3.635-4.202,5.955-6.107,7.375c-0.952,0.709-1.787,1.189-2.378,1.49
			c-0.296,0.152-0.53,0.256-0.687,0.324c-0.078,0.033-0.137,0.057-0.175,0.072c-0.019,0.006-0.032,0.012-0.04,0.014l-0.008,0.004
			h-0.001l0.161,0.445l-0.159-0.445h-0.002l0.161,0.445l-0.159-0.445l0.268,0.752l0.769,0.223c0.004-0.014,0.243-0.84,0.483-2.027
			c0.239-1.188,0.482-2.73,0.483-4.213c0-0.531-0.032-1.057-0.111-1.561c-0.068-0.436-0.477-0.732-0.914-0.666
			c-0.437,0.07-0.735,0.479-0.666,0.916c0.062,0.396,0.091,0.842,0.091,1.311c0.001,1.307-0.224,2.771-0.452,3.896
			c-0.113,0.563-0.227,1.041-0.312,1.377c-0.043,0.168-0.078,0.301-0.102,0.391c-0.013,0.045-0.022,0.08-0.028,0.102l-0.007,0.025
			l-0.002,0.006c-0.084,0.289,0.001,0.598,0.22,0.805c0.219,0.205,0.533,0.271,0.817,0.17c0.056-0.02,1.638-0.588,3.706-2.127
			c2.066-1.537,4.618-4.051,6.579-7.938c0.2-0.395,0.041-0.875-0.353-1.074C92.753,145.664,92.272,145.822,92.073,146.217z"/>
		<path clip-path="url(#SVGID_2_)" fill="#CCAB6B" d="M83.781,148.795c-3.444,5.68-12.209,7.852-12.209,7.852
			s2.504-4.602,3.644-8.021"/>
		<path clip-path="url(#SVGID_2_)" d="M83.097,148.381c-0.794,1.311-1.915,2.445-3.164,3.404c-1.871,1.436-4.023,2.469-5.7,3.131
			c-0.839,0.332-1.558,0.572-2.065,0.729c-0.253,0.078-0.454,0.137-0.589,0.172c-0.068,0.02-0.119,0.033-0.153,0.041l-0.037,0.012
			l-0.008,0.002H71.38l0.192,0.775l0.703,0.383c0.004-0.008,0.635-1.166,1.411-2.762c0.776-1.594,1.697-3.617,2.289-5.389
			c0.14-0.42-0.087-0.873-0.506-1.012c-0.419-0.141-0.872,0.086-1.012,0.506c-0.548,1.646-1.449,3.635-2.21,5.195
			c-0.38,0.781-0.725,1.457-0.975,1.938c-0.125,0.24-0.226,0.43-0.296,0.561c-0.035,0.064-0.062,0.115-0.08,0.148l-0.02,0.037
			l-0.007,0.012c-0.151,0.279-0.123,0.623,0.07,0.873s0.519,0.363,0.826,0.287c0.034-0.01,2.269-0.563,4.965-1.85
			c1.349-0.646,2.814-1.475,4.178-2.521c1.363-1.047,2.629-2.313,3.557-3.844c0.229-0.377,0.109-0.869-0.269-1.098
			S83.326,148.002,83.097,148.381z"/>
		<path clip-path="url(#SVGID_2_)" fill="#CCAB6B" d="M75.216,148.625c-10.266,6.584-16.645,6.225-16.645,6.225
			s3.988-4.889,4.4-7.859"/>
		<path clip-path="url(#SVGID_2_)" d="M74.784,147.953c-9.128,5.852-15.056,6.098-16.029,6.1c-0.053,0-0.092,0-0.115-0.002h-0.024
			h-0.003l-0.018,0.367l0.021-0.367h-0.003l-0.018,0.367l0.021-0.367l-0.045,0.799l0.62,0.506c0.011-0.014,1.021-1.252,2.094-2.883
			c0.537-0.814,1.089-1.729,1.543-2.646c0.226-0.459,0.428-0.922,0.59-1.377c0.162-0.455,0.284-0.904,0.346-1.348
			c0.061-0.438-0.245-0.842-0.683-0.902c-0.437-0.061-0.841,0.244-0.902,0.682c-0.041,0.299-0.133,0.652-0.269,1.033
			c-0.236,0.666-0.602,1.414-1.02,2.148c-0.626,1.104-1.365,2.182-1.945,2.979c-0.29,0.396-0.54,0.725-0.717,0.953
			c-0.088,0.113-0.158,0.201-0.206,0.262c-0.024,0.029-0.042,0.051-0.054,0.066l-0.013,0.018l-0.004,0.004
			c-0.19,0.232-0.233,0.553-0.112,0.828c0.122,0.275,0.387,0.459,0.688,0.477c0.014,0,0.091,0.004,0.228,0.004
			c1.253,0.002,7.517-0.338,16.893-6.354c0.372-0.238,0.48-0.734,0.241-1.105C75.651,147.822,75.156,147.715,74.784,147.953z"/>
		<path clip-path="url(#SVGID_2_)" fill="#CCAB6B" d="M62.971,146.99c-4.685,3.133-12.866,5.492-12.866,5.492
			s1.865-4.094,3.943-6.678"/>
		<path clip-path="url(#SVGID_2_)" d="M62.527,146.326c-1.121,0.748-2.479,1.469-3.879,2.119c-2.102,0.975-4.3,1.795-5.967,2.369
			c-0.834,0.287-1.536,0.512-2.028,0.666c-0.246,0.076-0.439,0.135-0.571,0.174c-0.066,0.021-0.116,0.035-0.149,0.045l-0.038,0.01
			l-0.011,0.004l0.222,0.77l0.727,0.332l0.005-0.01c0.05-0.111,0.525-1.137,1.232-2.438c0.704-1.299,1.647-2.877,2.602-4.063
			c0.276-0.344,0.222-0.848-0.123-1.123c-0.344-0.277-0.848-0.223-1.124,0.121c-1.093,1.361-2.091,3.059-2.831,4.43
			c-0.739,1.369-1.211,2.406-1.217,2.418c-0.129,0.283-0.08,0.619,0.123,0.854c0.203,0.236,0.528,0.332,0.827,0.246
			c0.013-0.004,2.075-0.598,4.734-1.59c1.33-0.496,2.81-1.092,4.26-1.764c1.451-0.674,2.873-1.424,4.095-2.24
			c0.367-0.246,0.466-0.742,0.221-1.111C63.391,146.18,62.894,146.08,62.527,146.326"/>
		<path clip-path="url(#SVGID_2_)" fill="#CCAB6B" d="M54.048,145.805c-7.996,3.338-11.585,3.338-11.585,3.338
			s3.959-4.473,5.33-7.141"/>
		<path clip-path="url(#SVGID_2_)" d="M53.74,145.066c-3.959,1.652-6.81,2.473-8.655,2.879c-0.922,0.203-1.593,0.301-2.026,0.35
			c-0.216,0.025-0.373,0.037-0.472,0.043c-0.049,0.004-0.084,0.004-0.105,0.006h-0.02h-0.002l0.003,0.439v-0.439h-0.003l0.003,0.439
			v-0.439v0.799l0.599,0.529c0.006-0.006,1.002-1.131,2.177-2.6c0.587-0.734,1.219-1.555,1.796-2.367
			c0.576-0.813,1.097-1.613,1.47-2.338c0.202-0.393,0.047-0.875-0.346-1.076c-0.393-0.203-0.875-0.047-1.077,0.346
			c-0.313,0.609-0.801,1.367-1.352,2.143c-0.827,1.166-1.798,2.379-2.558,3.297c-0.38,0.459-0.708,0.844-0.941,1.115
			c-0.116,0.135-0.208,0.24-0.271,0.313c-0.032,0.035-0.056,0.064-0.072,0.082s-0.024,0.027-0.024,0.027
			c-0.208,0.234-0.259,0.572-0.13,0.859c0.128,0.285,0.415,0.471,0.729,0.471c0.125,0,3.82-0.029,11.893-3.4
			c0.408-0.172,0.601-0.639,0.43-1.047C54.616,145.088,54.147,144.896,53.74,145.066"/>
		<path clip-path="url(#SVGID_2_)" fill="#CCAB6B" d="M47.793,142.002c-7.921,0-14.221-1.955-14.221-1.955s3.646-3.191,5.6-5.467"/>
		<path clip-path="url(#SVGID_2_)" d="M47.793,141.203c-3.895,0-7.403-0.482-9.931-0.965c-1.264-0.24-2.283-0.48-2.983-0.66
			c-0.35-0.092-0.62-0.164-0.801-0.217c-0.091-0.025-0.16-0.047-0.205-0.059c-0.022-0.008-0.039-0.012-0.05-0.016l-0.011-0.004
			h-0.003l-0.237,0.764l0.527,0.602c0.005-0.004,0.922-0.807,2.087-1.898c0.583-0.545,1.228-1.164,1.854-1.791
			c0.625-0.629,1.231-1.266,1.739-1.857c0.288-0.336,0.25-0.84-0.085-1.129c-0.336-0.287-0.841-0.248-1.129,0.086
			c-0.469,0.547-1.051,1.16-1.659,1.771c-0.911,0.916-1.879,1.82-2.617,2.498c-0.369,0.336-0.681,0.617-0.9,0.813
			c-0.109,0.098-0.196,0.174-0.255,0.227c-0.029,0.025-0.052,0.045-0.066,0.059l-0.023,0.02c-0.219,0.191-0.316,0.482-0.255,0.768
			c0.06,0.285,0.267,0.512,0.545,0.598c0.047,0.014,6.407,1.99,14.458,1.992c0.442,0,0.8-0.359,0.8-0.801
			S48.235,141.203,47.793,141.203"/>
		<path clip-path="url(#SVGID_2_)" fill="#CCAB6B" d="M39.172,134.58c-8.4-0.643-11.2-4.383-11.2-4.383s5.596-0.359,8.158-1.918"/>
		<path clip-path="url(#SVGID_2_)" d="M39.233,133.783c-4.089-0.314-6.763-1.373-8.409-2.328c-0.823-0.477-1.389-0.93-1.743-1.254
			c-0.177-0.162-0.301-0.291-0.377-0.377c-0.038-0.043-0.064-0.074-0.079-0.092l-0.015-0.018l-0.001-0.002l-0.381,0.293l0.384-0.289
			l-0.003-0.004l-0.381,0.293l0.384-0.289l-0.64,0.48l0.051,0.799c0.017-0.002,1.437-0.092,3.198-0.385
			c0.881-0.146,1.847-0.342,2.774-0.607c0.926-0.266,1.812-0.594,2.551-1.043c0.377-0.229,0.497-0.723,0.267-1.1
			s-0.722-0.496-1.099-0.268c-0.542,0.332-1.317,0.633-2.159,0.873c-1.266,0.363-2.686,0.6-3.78,0.74
			c-0.548,0.072-1.014,0.119-1.342,0.15c-0.165,0.014-0.294,0.025-0.382,0.031c-0.044,0.004-0.077,0.008-0.099,0.008l-0.024,0.002
			h-0.007c-0.293,0.02-0.552,0.197-0.675,0.463c-0.123,0.268-0.09,0.58,0.086,0.814c0.053,0.072,0.833,1.088,2.689,2.164
			c1.854,1.076,4.779,2.209,9.09,2.537c0.441,0.035,0.825-0.295,0.859-0.734C40.003,134.201,39.674,133.816,39.233,133.783"/>
		<path clip-path="url(#SVGID_2_)" fill="#CCAB6B" d="M36.13,128.277c-7.33-4.15-8.158-8.098-8.158-8.098s4.192-0.643,7.173-0.965"
			/>
		<path clip-path="url(#SVGID_2_)" d="M36.524,127.582c-3.582-2.029-5.53-3.98-6.581-5.389c-0.525-0.705-0.827-1.275-0.996-1.656
			c-0.084-0.189-0.135-0.334-0.163-0.422c-0.014-0.045-0.023-0.076-0.027-0.092l-0.004-0.016l-0.092,0.021l0.092-0.02v-0.002
			l-0.092,0.021l0.092-0.02l-0.55,0.123l0.552-0.117l-0.002-0.006l-0.55,0.123l0.552-0.117l-0.783,0.164l0.121,0.791
			c0,0,0.065-0.01,0.185-0.027c0.837-0.127,4.371-0.654,6.953-0.934c0.439-0.047,0.757-0.443,0.709-0.881
			c-0.047-0.439-0.442-0.758-0.881-0.711c-3.011,0.326-7.203,0.971-7.209,0.973c-0.217,0.033-0.411,0.152-0.536,0.334
			c-0.125,0.18-0.17,0.406-0.125,0.621c0.021,0.102,0.276,1.203,1.472,2.805c1.195,1.604,3.326,3.701,7.074,5.824
			c0.385,0.217,0.873,0.082,1.091-0.303C37.044,128.287,36.909,127.801,36.524,127.582"/>
		<path clip-path="url(#SVGID_2_)" fill="#CCAB6B" d="M35.083,119.156c-3.482-4.275-4.911-11.975-4.911-11.975
			s6.893,0.346,9.7,1.398"/>
		<path clip-path="url(#SVGID_2_)" d="M35.704,118.65c-0.814-0.998-1.529-2.229-2.133-3.512c-0.907-1.922-1.565-3.959-1.991-5.51
			c-0.213-0.775-0.369-1.428-0.472-1.885c-0.051-0.229-0.088-0.408-0.113-0.529c-0.012-0.061-0.021-0.105-0.027-0.137l-0.007-0.035
			l-0.002-0.008l-0.786,0.145l-0.04,0.799c0,0,0.025,0.002,0.074,0.006c0.375,0.02,2.111,0.121,4.067,0.338
			c0.978,0.109,2.011,0.248,2.951,0.416c0.939,0.168,1.789,0.373,2.367,0.592c0.413,0.154,0.875-0.055,1.03-0.469
			c0.155-0.414-0.054-0.875-0.468-1.029c-0.394-0.148-0.837-0.277-1.316-0.393c-0.838-0.201-1.789-0.365-2.751-0.502
			c-2.881-0.406-5.861-0.555-5.874-0.557c-0.245-0.012-0.48,0.088-0.642,0.273c-0.162,0.184-0.229,0.43-0.185,0.672
			c0.005,0.021,0.367,1.975,1.175,4.484c0.405,1.254,0.92,2.646,1.563,4.012c0.643,1.363,1.412,2.699,2.339,3.838
			c0.279,0.344,0.783,0.395,1.126,0.117C35.932,119.498,35.982,118.994,35.704,118.65z"/>
		<path clip-path="url(#SVGID_2_)" fill="#CCAB6B" d="M39.873,108.58c-1.873-8.213-1.616-11.467-1.616-11.467
			s3.813,4.686,6.061,6.67"/>
		<path clip-path="url(#SVGID_2_)" d="M40.652,108.402c-1.459-6.396-1.608-9.73-1.608-10.818c0-0.15,0.003-0.258,0.005-0.324
			c0.002-0.033,0.003-0.057,0.004-0.07l0.001-0.014v-0.002l-0.46-0.033l0.46,0.037v-0.004l-0.46-0.033l0.46,0.037l-0.798-0.064
			l-0.62,0.506c0.003,0.004,0.961,1.18,2.204,2.609c0.622,0.715,1.315,1.492,1.998,2.223c0.684,0.729,1.356,1.406,1.95,1.932
			c0.331,0.291,0.837,0.26,1.129-0.072c0.292-0.33,0.261-0.836-0.07-1.129c-0.531-0.467-1.179-1.119-1.842-1.826
			c-0.996-1.061-2.031-2.252-2.814-3.174c-0.392-0.461-0.721-0.854-0.952-1.133c-0.116-0.139-0.207-0.25-0.268-0.326
			c-0.031-0.037-0.055-0.064-0.071-0.086c-0.016-0.018-0.023-0.027-0.024-0.027c-0.205-0.254-0.546-0.357-0.858-0.26
			c-0.311,0.098-0.534,0.375-0.559,0.701c-0.002,0.021-0.015,0.193-0.015,0.533c0,1.234,0.168,4.682,1.648,11.174
			c0.098,0.432,0.527,0.701,0.958,0.604C40.481,109.262,40.75,108.834,40.652,108.402z"/>
		<path clip-path="url(#SVGID_2_)" fill="#CCAB6B" d="M44.317,103.783c0.404-8.414,5.536-11.746,5.536-11.746
			s0.48,4.266,2.112,6.781"/>
		<path clip-path="url(#SVGID_2_)" d="M45.117,103.82c0.196-4.047,1.516-6.824,2.773-8.604c0.629-0.889,1.244-1.525,1.694-1.936
			c0.225-0.205,0.409-0.354,0.533-0.449c0.062-0.047,0.109-0.08,0.139-0.1l0.031-0.023l0.004-0.002l-0.16-0.244l0.158,0.244h0.002
			l-0.16-0.244l0.158,0.244l-0.435-0.67l-0.795,0.09c0.002,0.021,0.125,1.113,0.46,2.541c0.168,0.713,0.388,1.51,0.677,2.303
			c0.289,0.793,0.645,1.582,1.099,2.283c0.24,0.371,0.735,0.477,1.106,0.236c0.371-0.24,0.477-0.736,0.236-1.107
			c-0.362-0.557-0.678-1.244-0.938-1.959c-0.391-1.07-0.657-2.201-0.822-3.057c-0.082-0.426-0.14-0.785-0.177-1.035
			c-0.018-0.125-0.031-0.223-0.04-0.289c-0.004-0.033-0.007-0.059-0.009-0.074l-0.002-0.018v-0.004
			c-0.031-0.275-0.202-0.516-0.453-0.633c-0.252-0.119-0.545-0.1-0.778,0.051c-0.062,0.041-1.424,0.936-2.834,2.928
			c-1.41,1.988-2.857,5.086-3.065,9.451c-0.021,0.441,0.319,0.816,0.761,0.838C44.721,104.604,45.096,104.262,45.117,103.82"/>
		<path clip-path="url(#SVGID_2_)" fill="#CCAB6B" d="M51.965,98.818c4.245-6.785,5.207-11.783,5.207-11.783
			s2.189,5.664,3.282,8.457"/>
		<path clip-path="url(#SVGID_2_)" d="M52.644,99.244c4.31-6.891,5.3-11.984,5.314-12.059l-0.785-0.15l-0.746,0.289
			c0,0,2.188,5.664,3.283,8.461c0.161,0.41,0.625,0.613,1.036,0.451c0.412-0.16,0.615-0.625,0.454-1.035
			c-0.546-1.395-1.367-3.51-2.05-5.273c-0.342-0.883-0.65-1.678-0.872-2.252c-0.111-0.289-0.201-0.521-0.263-0.68
			c-0.062-0.16-0.096-0.25-0.096-0.25c-0.129-0.332-0.461-0.539-0.817-0.508s-0.647,0.295-0.715,0.645
			c-0.015,0.08-0.985,4.934-5.099,11.512c-0.235,0.375-0.121,0.869,0.254,1.104C51.916,99.73,52.41,99.619,52.644,99.244z"/>
		<path clip-path="url(#SVGID_2_)" fill="#CCAB6B" d="M60.454,95.492c3.391-7.711,9.376-8.984,9.376-8.984s-1.08,4.156-0.458,7.09"
			/>
		<path clip-path="url(#SVGID_2_)" d="M61.187,95.814c1.633-3.709,3.861-5.828,5.672-7.039c0.905-0.605,1.707-0.98,2.275-1.201
			c0.283-0.111,0.508-0.184,0.658-0.229c0.074-0.021,0.13-0.037,0.165-0.045l0.037-0.008L70,87.291l-0.063-0.283l0.06,0.283H70
			l-0.063-0.283l0.06,0.283l-0.166-0.783l-0.774-0.201c-0.005,0.018-0.172,0.662-0.34,1.629c-0.167,0.969-0.337,2.256-0.337,3.57
			c0,0.758,0.056,1.527,0.21,2.258c0.092,0.432,0.517,0.707,0.949,0.617c0.432-0.092,0.708-0.518,0.617-0.949
			c-0.124-0.582-0.177-1.248-0.176-1.926c-0.001-1.178,0.155-2.389,0.313-3.297c0.079-0.453,0.158-0.832,0.217-1.096
			c0.029-0.131,0.054-0.234,0.07-0.303c0.009-0.035,0.015-0.061,0.019-0.078l0.005-0.018l0.001-0.004
			c0.07-0.27-0.004-0.555-0.196-0.754c-0.192-0.203-0.473-0.289-0.745-0.23c-0.072,0.016-1.664,0.361-3.694,1.717
			c-2.029,1.352-4.49,3.725-6.247,7.727c-0.178,0.404,0.005,0.877,0.41,1.055C60.537,96.402,61.008,96.219,61.187,95.814"/>
		<path clip-path="url(#SVGID_2_)" fill="#CCAB6B" d="M69.373,93.598c4.514-7.113,9.686-9.438,9.686-9.438s-0.659,5.908-0.486,8.902
			"/>
		<path clip-path="url(#SVGID_2_)" d="M70.048,94.025c2.204-3.473,4.561-5.764,6.357-7.186c0.898-0.711,1.656-1.205,2.183-1.516
			c0.263-0.156,0.47-0.27,0.606-0.34c0.069-0.033,0.12-0.059,0.153-0.074l0.034-0.018l0.007-0.004l-0.196-0.432l0.195,0.434
			l0.001-0.002l-0.196-0.432l0.195,0.434l-0.328-0.73l-0.795-0.09c-0.001,0.006-0.13,1.166-0.26,2.725
			c-0.13,1.557-0.26,3.508-0.261,5.119c0,0.424,0.009,0.826,0.031,1.193c0.026,0.441,0.404,0.779,0.845,0.752
			c0.441-0.023,0.778-0.402,0.752-0.844c-0.019-0.328-0.028-0.701-0.028-1.102c0-1.527,0.127-3.453,0.255-4.986
			c0.064-0.768,0.128-1.439,0.176-1.918c0.024-0.238,0.044-0.43,0.058-0.561c0.007-0.064,0.013-0.115,0.016-0.148
			c0.004-0.035,0.006-0.051,0.006-0.051c0.032-0.287-0.091-0.566-0.324-0.736s-0.536-0.201-0.799-0.084
			c-0.05,0.023-1.4,0.635-3.319,2.154c-1.918,1.518-4.405,3.943-6.715,7.586c-0.237,0.373-0.126,0.867,0.247,1.104
			S69.811,94.398,70.048,94.025"/>
	</g>
	<polygon fill="#807361" points="85.191,116.98 66.333,119.156 60.862,120.18 66.333,126.047 70.596,132.982 75.019,126.82 
		80.15,133.148 86.867,125.064 89.392,131.41 95.424,122.426 	"/>
	<g>
		<defs>
			<rect id="SVGID_21_" x="27.172" y="73.85" width="295.575" height="92.061"/>
		</defs>
		<clipPath id="SVGID_4_">
			<use xlink:href="#SVGID_21_"  overflow="visible"/>
		</clipPath>
		<path clip-path="url(#SVGID_4_)" fill="#E6CFAB" d="M86.549,118.135c-2.02,5.398-7.01,7.475-11.571,5.77
			c-4.561-1.707-6.965-6.549-4.946-11.947S79.445,100.15,83.32,101.6C87.194,103.049,88.568,112.734,86.549,118.135"/>
		<path clip-path="url(#SVGID_4_)" d="M86.549,118.135l-0.749-0.281c-0.731,1.951-1.857,3.402-3.189,4.371
			c-1.333,0.969-2.877,1.461-4.478,1.461c-0.949,0-1.919-0.174-2.875-0.531c-1.582-0.592-2.862-1.586-3.753-2.854
			c-0.889-1.268-1.393-2.813-1.394-4.537c0-1.109,0.21-2.295,0.67-3.527c0.421-1.127,1.114-2.34,1.98-3.51
			c1.297-1.758,2.984-3.422,4.683-4.623c0.849-0.602,1.701-1.088,2.497-1.416s1.536-0.498,2.152-0.496
			c0.356,0,0.67,0.053,0.946,0.156c0.245,0.092,0.485,0.23,0.724,0.424c0.416,0.336,0.822,0.838,1.183,1.475
			c0.543,0.957,0.983,2.209,1.278,3.596c0.296,1.387,0.451,2.908,0.451,4.404c0.002,2.051-0.294,4.059-0.875,5.607L86.549,118.135
			l0.749,0.279c0.671-1.801,0.976-3.967,0.977-6.168c-0.001-2.447-0.379-4.934-1.123-6.994c-0.374-1.029-0.84-1.955-1.419-2.717
			c-0.291-0.381-0.61-0.721-0.965-1.008c-0.354-0.287-0.744-0.52-1.168-0.678c-0.48-0.18-0.989-0.258-1.507-0.258
			c-1.199,0.002-2.447,0.408-3.7,1.055c-1.878,0.975-3.773,2.512-5.399,4.285c-1.624,1.777-2.975,3.783-3.711,5.746
			c-0.523,1.396-0.772,2.773-0.772,4.086c-0.001,2.039,0.604,3.92,1.685,5.457c1.08,1.539,2.632,2.734,4.501,3.432
			c1.13,0.422,2.291,0.633,3.436,0.633c1.932,0.002,3.817-0.6,5.419-1.766c1.603-1.166,2.919-2.891,3.746-5.105L86.549,118.135z"/>
		<path clip-path="url(#SVGID_4_)" fill="#E6CFAB" d="M97.427,127.203c-3.379,4.67-8.742,5.348-12.687,2.494s-4.979-8.16-1.6-12.83
			c3.378-4.67,12.206-8.889,15.558-6.463C102.049,112.828,100.806,122.533,97.427,127.203"/>
		<path clip-path="url(#SVGID_4_)" d="M97.427,127.203l-0.648-0.469c-0.96,1.326-2.074,2.289-3.255,2.922
			c-1.18,0.635-2.428,0.941-3.67,0.941c-1.614-0.002-3.22-0.518-4.645-1.549c-1.064-0.77-1.888-1.727-2.447-2.799
			c-0.56-1.072-0.856-2.262-0.857-3.508c0.001-1.744,0.58-3.605,1.883-5.406c0.623-0.863,1.47-1.734,2.45-2.547
			c1.47-1.219,3.241-2.305,4.996-3.076c0.877-0.385,1.75-0.689,2.576-0.898c0.825-0.209,1.603-0.318,2.285-0.318
			c0.459,0,0.873,0.049,1.23,0.143c0.357,0.096,0.657,0.234,0.904,0.412c0.25,0.182,0.479,0.43,0.683,0.746
			c0.307,0.475,0.553,1.111,0.715,1.863c0.164,0.752,0.245,1.615,0.245,2.541c0.001,1.777-0.3,3.773-0.843,5.643
			c-0.54,1.871-1.326,3.615-2.25,4.891L97.427,127.203l0.648,0.469c1.071-1.482,1.907-3.373,2.491-5.383
			c0.581-2.008,0.905-4.133,0.906-6.088c-0.001-1.357-0.155-2.633-0.511-3.742c-0.178-0.555-0.408-1.07-0.703-1.529
			c-0.294-0.455-0.656-0.859-1.092-1.174c-0.428-0.311-0.915-0.525-1.432-0.662c-0.518-0.137-1.067-0.197-1.639-0.197
			c-1.133,0.002-2.356,0.234-3.611,0.633c-1.88,0.6-3.829,1.576-5.586,2.768c-1.756,1.193-3.318,2.6-4.407,4.102
			c-1.479,2.043-2.186,4.242-2.186,6.344c0,1.502,0.36,2.951,1.038,4.248c0.677,1.299,1.671,2.447,2.928,3.355
			c1.682,1.219,3.624,1.854,5.583,1.852c1.506,0,3.021-0.375,4.428-1.131c1.407-0.756,2.705-1.891,3.793-3.395L97.427,127.203z"/>
		<path clip-path="url(#SVGID_4_)" fill="#E6CFAB" d="M72.201,115.102c2.282,5.293,0.119,10.248-4.353,12.176
			c-4.471,1.928-9.558,0.1-11.84-5.193c-2.282-5.293-1.386-15.037,2.413-16.674C62.219,103.771,69.918,109.809,72.201,115.102"/>
		<path clip-path="url(#SVGID_4_)" d="M72.201,115.102l-0.735,0.316c0.588,1.363,0.853,2.684,0.853,3.916
			c0,1.625-0.461,3.1-1.284,4.336c-0.825,1.236-2.017,2.232-3.503,2.873c-1.063,0.457-2.155,0.682-3.225,0.682
			c-1.53-0.002-3.018-0.455-4.328-1.359c-1.309-0.904-2.444-2.264-3.237-4.1c-0.385-0.893-0.682-1.947-0.879-3.084
			c-0.198-1.135-0.297-2.348-0.297-3.557c-0.002-2.105,0.304-4.201,0.878-5.84c0.285-0.82,0.638-1.523,1.032-2.059
			c0.196-0.266,0.403-0.49,0.614-0.672c0.212-0.18,0.427-0.314,0.648-0.41c0.315-0.137,0.686-0.209,1.117-0.209
			c0.838-0.002,1.891,0.285,3.007,0.82c1.677,0.799,3.489,2.139,5.045,3.697c1.557,1.555,2.859,3.336,3.559,4.965L72.201,115.102
			l0.735-0.316c-0.545-1.26-1.355-2.523-2.327-3.725c-1.46-1.797-3.286-3.451-5.166-4.678c-0.941-0.613-1.896-1.119-2.835-1.477
			s-1.863-0.568-2.753-0.57c-0.608,0-1.202,0.102-1.751,0.34c-0.382,0.164-0.734,0.391-1.052,0.662
			c-0.558,0.477-1.017,1.088-1.403,1.787c-0.577,1.051-0.991,2.309-1.269,3.676c-0.276,1.367-0.414,2.842-0.414,4.324
			c0,1.297,0.105,2.596,0.32,3.832c0.216,1.236,0.54,2.406,0.987,3.443c0.898,2.084,2.223,3.695,3.796,4.781
			c1.572,1.086,3.389,1.643,5.238,1.643c1.293,0,2.603-0.271,3.858-0.813c1.756-0.756,3.2-1.955,4.2-3.453
			c1.001-1.498,1.555-3.295,1.554-5.225c0.001-1.463-0.316-3.002-0.983-4.549L72.201,115.102z"/>
		<path clip-path="url(#SVGID_4_)" fill="#CCAB6B" d="M51.326,114.98c-0.19,4.293,3.8,9.822,3.8,9.822s0.35-2.09,3.533-6.248
			c-0.279,2.02,3.791,10.025,3.791,10.025s-0.324-2.902,3.276-7.268c1.667,4.365,5.577,9.602,5.577,9.602s1.417-3.143,3.756-7
			c0.317,2.012,5.092,7.234,5.092,7.234s4.523-6.385,6.508-9.236c1.867,2.211,2.734,7.498,2.734,7.498s5.94-6.877,7.661-13.064
			c0.988,1.783,2.063,9.691,2.063,9.691s5.061-3.643,6.676-7.725l6.137,9.201l-25.889,11.107l-27.178-1.822l-12.133-12.885v-8.934
			H51.326z"/>
		<path clip-path="url(#SVGID_4_)" d="M105.048,118.02c-0.365,0.924-0.945,1.861-1.615,2.736c-1.005,1.311-2.209,2.48-3.158,3.313
			c-0.474,0.416-0.885,0.75-1.175,0.977c-0.145,0.113-0.259,0.201-0.337,0.26c-0.039,0.029-0.069,0.051-0.088,0.064l-0.021,0.016
			l-0.005,0.004l0.467,0.65l0.793-0.109c-0.001-0.006-0.271-1.99-0.666-4.209c-0.198-1.111-0.427-2.279-0.673-3.297
			c-0.123-0.508-0.25-0.98-0.383-1.395c-0.134-0.414-0.268-0.768-0.435-1.07c-0.157-0.283-0.472-0.445-0.793-0.406
			c-0.321,0.037-0.59,0.268-0.677,0.58c-0.408,1.469-1.079,3.012-1.86,4.492c-1.17,2.219-2.584,4.295-3.703,5.807
			c-0.559,0.756-1.045,1.373-1.39,1.799c-0.172,0.213-0.309,0.379-0.402,0.49c-0.047,0.055-0.082,0.098-0.106,0.125l-0.027,0.031
			l-0.008,0.01l0.606,0.523l0.789-0.131c-0.003-0.018-0.223-1.363-0.686-3.006c-0.231-0.822-0.523-1.719-0.886-2.57
			c-0.364-0.852-0.793-1.656-1.339-2.307c-0.16-0.189-0.4-0.295-0.648-0.283c-0.249,0.012-0.478,0.139-0.62,0.342
			c-0.99,1.422-2.617,3.73-3.996,5.684c-0.689,0.977-1.316,1.863-1.771,2.506c-0.228,0.322-0.412,0.582-0.54,0.764
			c-0.127,0.18-0.198,0.279-0.198,0.279l0.653,0.461l0.591-0.539l-0.013-0.014c-0.132-0.145-1.316-1.453-2.492-2.951
			c-0.587-0.746-1.172-1.543-1.617-2.25c-0.222-0.352-0.409-0.684-0.542-0.965c-0.134-0.281-0.21-0.518-0.228-0.641
			c-0.052-0.332-0.306-0.596-0.636-0.66c-0.329-0.064-0.664,0.082-0.838,0.369c-2.365,3.9-3.793,7.066-3.802,7.086l0.729,0.33
			l0.641-0.479l-0.01-0.014c-0.107-0.145-1.085-1.471-2.231-3.275c-1.145-1.803-2.458-4.094-3.229-6.119
			c-0.102-0.266-0.336-0.457-0.618-0.504c-0.282-0.045-0.565,0.061-0.747,0.281c-1.578,1.914-2.449,3.582-2.921,4.887
			c-0.472,1.307-0.545,2.244-0.545,2.691c0,0.162,0.009,0.258,0.013,0.287l0.795-0.09l0.713-0.361l-0.011-0.021
			c-0.107-0.213-1.051-2.086-1.961-4.172c-0.455-1.043-0.901-2.139-1.228-3.094c-0.163-0.477-0.297-0.918-0.386-1.293
			c-0.091-0.375-0.133-0.686-0.132-0.863c0-0.049,0.003-0.088,0.006-0.109c0.05-0.359-0.149-0.709-0.483-0.85
			c-0.335-0.139-0.724-0.035-0.944,0.252c-3.244,4.236-3.662,6.447-3.688,6.604l0.789,0.131l0.649-0.467l-0.001-0.002
			c-0.043-0.061-0.975-1.367-1.883-3.15c-0.454-0.891-0.902-1.898-1.232-2.92c-0.331-1.021-0.54-2.055-0.539-2.982
			c0-0.09,0.002-0.178,0.006-0.266c0.019-0.439-0.322-0.814-0.764-0.834c-0.441-0.02-0.815,0.322-0.835,0.762
			c-0.005,0.113-0.007,0.227-0.007,0.338c0.001,1.182,0.26,2.381,0.634,3.527c0.563,1.719,1.389,3.32,2.076,4.502
			c0.687,1.184,1.236,1.945,1.248,1.961c0.189,0.262,0.515,0.383,0.83,0.311c0.315-0.074,0.554-0.328,0.607-0.646l-0.449-0.076
			l0.448,0.084l0.001-0.008l-0.449-0.076l0.448,0.084l0.001-0.004c0.02-0.1,0.45-2.07,3.38-5.896l-0.635-0.488l-0.793-0.109
			c-0.015,0.111-0.021,0.221-0.021,0.33c0.001,0.398,0.074,0.814,0.186,1.277c0.197,0.807,0.526,1.748,0.909,2.725
			c0.574,1.465,1.271,3,1.826,4.176c0.555,1.174,0.968,1.984,0.97,1.99c0.175,0.344,0.573,0.514,0.943,0.404
			c0.37-0.113,0.609-0.473,0.565-0.855l-0.329,0.035l0.33-0.027l-0.001-0.008l-0.329,0.035l0.33-0.027
			c0-0.004-0.003-0.043-0.003-0.117c0-0.275,0.043-1.021,0.45-2.146c0.407-1.125,1.179-2.629,2.651-4.414l-0.618-0.51l-0.747,0.287
			c0.87,2.273,2.285,4.701,3.487,6.582c1.201,1.877,2.188,3.199,2.196,3.211c0.169,0.227,0.446,0.346,0.728,0.316
			c0.281-0.031,0.526-0.209,0.642-0.467l0.003-0.008c0.077-0.168,1.467-3.209,3.709-6.906l-0.684-0.414l-0.791,0.125
			c0.062,0.375,0.199,0.73,0.379,1.109c0.316,0.656,0.775,1.371,1.291,2.1c0.774,1.088,1.675,2.191,2.386,3.029
			s1.231,1.406,1.236,1.412c0.164,0.18,0.397,0.273,0.64,0.26c0.242-0.016,0.462-0.139,0.603-0.338c0.001,0,4.523-6.385,6.512-9.242
			l-0.656-0.457l-0.612,0.516c0.388,0.457,0.767,1.141,1.09,1.902c0.489,1.143,0.861,2.459,1.104,3.477
			c0.123,0.51,0.213,0.947,0.273,1.254c0.03,0.154,0.053,0.275,0.067,0.357c0.008,0.041,0.013,0.07,0.017,0.092l0.004,0.023
			l0.001,0.006c0.05,0.307,0.272,0.555,0.572,0.641c0.299,0.084,0.619-0.012,0.822-0.248c0.014-0.016,1.515-1.754,3.241-4.283
			c0.863-1.266,1.782-2.729,2.599-4.277c0.818-1.551,1.534-3.186,1.987-4.811l-0.771-0.213l-0.7,0.387
			c0.08,0.143,0.197,0.426,0.31,0.785c0.203,0.629,0.414,1.498,0.61,2.432c0.294,1.4,0.558,2.953,0.747,4.152
			c0.094,0.6,0.17,1.111,0.223,1.473c0.026,0.18,0.046,0.322,0.06,0.422c0.013,0.096,0.02,0.146,0.02,0.146
			c0.038,0.279,0.22,0.518,0.477,0.629c0.258,0.109,0.556,0.078,0.784-0.086c0.02-0.016,1.312-0.945,2.821-2.408
			c0.755-0.73,1.565-1.594,2.298-2.551s1.391-2.006,1.833-3.121c0.162-0.41-0.039-0.875-0.45-1.037
			C105.675,117.408,105.21,117.607,105.048,118.02"/>
		<path clip-path="url(#SVGID_4_)" fill="#141414" d="M278.117,74.65c2.664,2.205,2.844,5.502,1.928,8.467
			c-0.15,0.488-0.347,0.965-0.562,1.43c-0.823,1.773-2.902,2.26-4.259,0.074c-1.037-1.668-1.345-3.48-1.011-5.414
			c0.078-0.445,0.055-0.908,0.137-1.354c0.246-1.332,0.914-2.391,2.098-3.094C277.004,74.723,277.561,74.688,278.117,74.65"/>
		<path clip-path="url(#SVGID_4_)" d="M278.117,74.65l-0.51,0.615c0.779,0.646,1.303,1.377,1.644,2.174
			c0.34,0.795,0.493,1.662,0.494,2.564c0,0.943-0.17,1.926-0.465,2.879c-0.135,0.439-0.317,0.885-0.523,1.326
			c-0.168,0.363-0.397,0.637-0.637,0.811c-0.242,0.176-0.488,0.256-0.734,0.256c-0.214,0-0.44-0.059-0.692-0.219
			c-0.25-0.16-0.526-0.432-0.791-0.857c-0.696-1.123-1.017-2.281-1.019-3.531c0-0.432,0.039-0.871,0.118-1.324H275
			c0.049-0.281,0.063-0.537,0.078-0.764c0.013-0.227,0.028-0.422,0.058-0.58c0.107-0.578,0.298-1.068,0.576-1.486
			c0.28-0.418,0.647-0.77,1.143-1.066l-0.408-0.688l0.053,0.799c0.556-0.037,1.112-0.074,1.669-0.111L278.117,74.65l-0.51,0.615
			L278.117,74.65l-0.053-0.799c-0.556,0.037-1.112,0.074-1.668,0.111c-0.126,0.008-0.247,0.045-0.356,0.109
			c-0.687,0.406-1.246,0.936-1.658,1.557c-0.414,0.619-0.679,1.324-0.819,2.08c-0.051,0.283-0.066,0.543-0.081,0.77
			c-0.014,0.23-0.028,0.428-0.057,0.592l0,0c-0.093,0.537-0.141,1.07-0.141,1.598c-0.002,1.531,0.412,3.016,1.26,4.377
			c0.367,0.59,0.8,1.047,1.286,1.357c0.485,0.314,1.026,0.475,1.556,0.475c0.611,0,1.193-0.211,1.676-0.564
			c0.484-0.352,0.875-0.844,1.147-1.43c0.224-0.484,0.436-0.994,0.6-1.529c0.334-1.082,0.535-2.215,0.536-3.35
			c0-1.084-0.186-2.17-0.622-3.193s-1.126-1.975-2.096-2.777c-0.157-0.131-0.359-0.195-0.563-0.182L278.117,74.65z"/>
		<path clip-path="url(#SVGID_4_)" fill="#141414" d="M259.591,93c0.895-1.354,1.908-1.379,2.678,0.041
			c0.316,0.58,0.4,1.352,0.369,2.027c-0.017,0.354-0.51,0.963-0.79,0.963c-0.502,0.002-1.117-0.254-1.477-0.613
			c-0.369-0.367-0.49-0.984-0.719-1.49C259.632,93.619,259.611,93.309,259.591,93"/>
		<path clip-path="url(#SVGID_4_)" d="M259.591,93l0.667,0.441c0.185-0.281,0.363-0.465,0.493-0.559
			c0.064-0.049,0.116-0.074,0.152-0.088c0.036-0.012,0.056-0.014,0.071-0.014c0.015,0,0.027,0.002,0.054,0.01
			c0.038,0.016,0.111,0.057,0.208,0.156c0.096,0.1,0.212,0.258,0.33,0.475c0.089,0.162,0.162,0.377,0.209,0.619
			c0.047,0.24,0.069,0.506,0.069,0.766c0,0.074-0.002,0.15-0.006,0.227l0.001-0.002l0.222,0.01l-0.215-0.066
			c0,0-0.005,0.014-0.007,0.057l0.222,0.01l-0.215-0.066c0,0.002-0.018,0.047-0.048,0.096c-0.044,0.072-0.118,0.158-0.162,0.197
			l-0.022,0.018l-0.001,0.002l0.13,0.197l-0.085-0.221c-0.033,0.014-0.044,0.023-0.045,0.023l0.13,0.197l-0.085-0.221l0.189,0.492
			l-0.002-0.525c-0.095,0.002-0.154,0.021-0.187,0.033l0.189,0.492l-0.002-0.525h0.003v0.436l0.003-0.436h-0.003v0.436l0.003-0.436
			h-0.008c-0.115,0.004-0.305-0.035-0.481-0.109c-0.177-0.072-0.342-0.184-0.427-0.27V94.85c-0.028-0.027-0.065-0.072-0.105-0.143
			c-0.061-0.107-0.126-0.266-0.196-0.457c-0.071-0.191-0.146-0.414-0.253-0.652l-0.729,0.33l0.798-0.053
			c-0.02-0.309-0.04-0.619-0.061-0.928L259.591,93l0.667,0.441L259.591,93l-0.798,0.053c0.02,0.311,0.041,0.619,0.061,0.926
			c0.006,0.096,0.03,0.191,0.069,0.277c0.088,0.191,0.173,0.463,0.293,0.766c0.06,0.152,0.13,0.313,0.224,0.477
			c0.093,0.164,0.211,0.332,0.368,0.488h-0.001c0.273,0.27,0.595,0.467,0.938,0.611c0.345,0.143,0.711,0.232,1.098,0.234v-0.436
			l-0.003,0.436h0.003v-0.436l-0.003,0.436h0.008h0.003c0.181-0.002,0.318-0.047,0.429-0.094c0.193-0.084,0.324-0.189,0.446-0.299
			c0.179-0.168,0.327-0.354,0.453-0.563c0.062-0.105,0.118-0.215,0.165-0.338c0.045-0.125,0.084-0.26,0.093-0.434v-0.002
			c0.004-0.096,0.007-0.195,0.007-0.297c0-0.346-0.028-0.711-0.099-1.074c-0.072-0.363-0.186-0.729-0.373-1.074l0.001,0.002
			c-0.23-0.422-0.491-0.771-0.82-1.039c-0.164-0.133-0.347-0.244-0.547-0.32c-0.2-0.078-0.416-0.121-0.632-0.121
			c-0.216,0-0.428,0.041-0.625,0.115c-0.295,0.109-0.555,0.283-0.788,0.498c-0.233,0.215-0.441,0.471-0.637,0.766
			c-0.097,0.146-0.143,0.32-0.131,0.494L259.591,93z"/>
		<path clip-path="url(#SVGID_4_)" fill="#141414" d="M284.981,99.131c0.164,3.467-0.558,6.203-2.035,8.814
			c-1.667,2.949-3.268,5.965-4.1,9.271c-0.39,1.553-0.417,3.213,0.476,4.693c0.856,1.418,1.698,2.848,2.636,4.213
			c1.543,2.246,2.333,4.654,1.922,7.398c-0.05,0.33,0.019,0.68,0.048,1.018c0.228,2.672-1.086,4.734-2.834,6.48
			c-1.229,1.23-2.978,1.059-4.506,0.633c-2.664-0.746-4.763-2.361-5.906-4.93c-0.963-2.162-1.685-4.385-1.452-6.865
			c0.146-1.551-0.209-3.145-0.247-4.721c-0.051-2.133-0.384-4.203-1.223-6.16c-1.01-2.354-2.017-4.711-3.159-7
			c-2.191-4.396-2.615-8.875-0.705-13.436c0.458-1.096,1.274-2.104,2.124-2.955c1.414-1.414,2.943-2.725,4.508-3.975
			c1.323-1.055,2.709-2.057,4.169-2.91c2.332-1.365,3.926-1.057,5.66,0.787c1.813,1.93,3.139,4.223,4.062,6.699
			C284.818,97.256,284.86,98.457,284.981,99.131"/>
		<path clip-path="url(#SVGID_4_)" d="M284.981,99.131l-0.799,0.039c0.015,0.311,0.022,0.613,0.022,0.91
			c0,1.449-0.172,2.75-0.5,3.971c-0.328,1.223-0.813,2.365-1.454,3.5c-1.673,2.963-3.315,6.039-4.18,9.473
			c-0.172,0.684-0.282,1.4-0.282,2.133c-0.002,1.055,0.236,2.152,0.85,3.166c0.853,1.414,1.702,2.859,2.661,4.254
			c0.602,0.877,1.074,1.766,1.395,2.68c0.321,0.914,0.493,1.852,0.493,2.84c0,0.426-0.032,0.859-0.099,1.309l0.001-0.002
			c-0.02,0.131-0.027,0.256-0.027,0.371c0.002,0.346,0.053,0.625,0.069,0.836c0.015,0.18,0.023,0.355,0.023,0.531
			c-0.001,1.051-0.27,1.979-0.732,2.854c-0.461,0.875-1.123,1.689-1.894,2.461c-0.268,0.268-0.552,0.438-0.869,0.549
			c-0.317,0.113-0.67,0.166-1.052,0.166c-0.568,0-1.194-0.119-1.804-0.289c-1.24-0.348-2.327-0.889-3.232-1.629
			c-0.905-0.74-1.634-1.68-2.158-2.854c-0.41-0.922-0.768-1.838-1.022-2.766s-0.405-1.863-0.405-2.834
			c0-0.285,0.013-0.574,0.041-0.865v-0.002c0.027-0.291,0.038-0.578,0.038-0.863c0-0.701-0.067-1.383-0.133-2.043
			c-0.067-0.66-0.135-1.297-0.149-1.908c-0.053-2.201-0.398-4.379-1.288-6.457c-1.009-2.352-2.022-4.725-3.178-7.041
			c-1.2-2.41-1.835-4.809-1.836-7.217c0.001-1.83,0.367-3.674,1.153-5.553c0.393-0.945,1.144-1.893,1.952-2.697
			c1.384-1.387,2.891-2.678,4.441-3.916c1.303-1.039,2.659-2.018,4.074-2.846c0.446-0.262,0.848-0.447,1.209-0.564
			c0.361-0.119,0.679-0.17,0.971-0.17c0.411,0.002,0.781,0.096,1.187,0.314c0.404,0.219,0.838,0.568,1.306,1.066
			c1.729,1.84,3.003,4.037,3.895,6.43c0.169,0.451,0.273,0.965,0.344,1.455c0.035,0.246,0.064,0.486,0.091,0.711
			c0.028,0.227,0.054,0.439,0.09,0.641L284.981,99.131l-0.799,0.039L284.981,99.131l0.788-0.141
			c-0.025-0.137-0.05-0.328-0.077-0.549c-0.04-0.334-0.087-0.738-0.164-1.172c-0.078-0.434-0.187-0.898-0.36-1.363
			c-0.953-2.557-2.331-4.947-4.228-6.965c-0.548-0.582-1.104-1.049-1.711-1.377c-0.604-0.33-1.265-0.51-1.948-0.508
			c-0.484,0-0.975,0.086-1.469,0.25c-0.496,0.16-0.998,0.398-1.519,0.703c-1.504,0.881-2.921,1.904-4.264,2.977
			c-1.58,1.26-3.132,2.59-4.575,4.035c-0.891,0.893-1.772,1.967-2.296,3.211c-0.863,2.059-1.277,4.125-1.277,6.17
			c0,2.693,0.715,5.344,2.004,7.93c1.128,2.262,2.13,4.605,3.139,6.959c0.789,1.84,1.11,3.803,1.159,5.865
			c0.017,0.699,0.091,1.377,0.157,2.031c0.066,0.652,0.125,1.283,0.125,1.881c0,0.244-0.009,0.48-0.031,0.715v-0.002
			c-0.033,0.344-0.048,0.684-0.048,1.018c0,1.139,0.178,2.221,0.462,3.258c0.284,1.035,0.674,2.027,1.103,2.99
			c0.62,1.395,1.511,2.549,2.607,3.443c1.096,0.896,2.391,1.533,3.814,1.932c0.695,0.193,1.453,0.348,2.235,0.348
			c0.525,0,1.063-0.07,1.587-0.256c0.524-0.186,1.029-0.49,1.466-0.928c0.844-0.844,1.612-1.777,2.177-2.844
			c0.564-1.064,0.918-2.27,0.917-3.602c0-0.221-0.01-0.443-0.029-0.668c-0.027-0.301-0.065-0.539-0.063-0.699
			c0-0.053,0.003-0.098,0.008-0.131l0.001-0.002c0.078-0.523,0.117-1.039,0.117-1.545c0-1.178-0.208-2.303-0.584-3.371
			c-0.377-1.068-0.919-2.082-1.587-3.055c-0.916-1.334-1.751-2.75-2.61-4.174c-0.443-0.736-0.618-1.514-0.619-2.34
			c0-0.57,0.087-1.158,0.234-1.744c0.799-3.182,2.359-6.137,4.021-9.074c0.697-1.234,1.241-2.51,1.607-3.871
			c0.366-1.363,0.554-2.811,0.554-4.387c0-0.322-0.008-0.65-0.024-0.986c-0.002-0.033-0.006-0.07-0.011-0.104L284.981,99.131z"/>
		<path clip-path="url(#SVGID_4_)" fill="#141414" d="M272.931,83.498c-0.232,0.709-0.357,1.502-0.736,2.146
			c-0.483,0.822-1.441,0.887-2.212,0.303c-1.558-1.176-2.192-4.314-0.86-6.107c0.758-1.021,2.176-0.826,2.741,0.449
			C272.299,81.271,272.552,82.336,272.931,83.498"/>
		<path clip-path="url(#SVGID_4_)" d="M272.931,83.498l-0.76-0.248c-0.13,0.396-0.22,0.779-0.32,1.121
			c-0.1,0.34-0.209,0.637-0.345,0.869c-0.074,0.123-0.147,0.188-0.219,0.229c-0.071,0.041-0.148,0.063-0.248,0.063
			c-0.151,0.002-0.359-0.059-0.574-0.223c-0.342-0.256-0.672-0.699-0.902-1.246c-0.232-0.545-0.365-1.188-0.364-1.805
			c-0.001-0.371,0.047-0.734,0.142-1.064c0.095-0.33,0.237-0.625,0.424-0.877c0.096-0.129,0.195-0.207,0.292-0.258
			c0.096-0.051,0.192-0.072,0.29-0.072c0.129,0,0.265,0.039,0.403,0.135c0.136,0.096,0.275,0.25,0.383,0.492
			c0.197,0.445,0.361,0.926,0.522,1.449c0.161,0.521,0.32,1.084,0.515,1.684L272.931,83.498l-0.76-0.248L272.931,83.498l0.761-0.248
			c-0.183-0.563-0.34-1.113-0.508-1.66c-0.169-0.547-0.351-1.088-0.589-1.627c-0.214-0.482-0.537-0.881-0.929-1.154
			s-0.853-0.424-1.319-0.422c-0.352-0.002-0.706,0.084-1.027,0.25c-0.321,0.168-0.609,0.414-0.839,0.725
			c-0.315,0.424-0.536,0.898-0.677,1.389c-0.142,0.492-0.205,1.002-0.206,1.508c0.001,0.842,0.174,1.678,0.491,2.43
			c0.32,0.748,0.782,1.42,1.411,1.898c0.455,0.342,0.987,0.545,1.539,0.545c0.358,0.002,0.723-0.088,1.046-0.275
			c0.324-0.186,0.601-0.465,0.8-0.807c0.242-0.414,0.385-0.836,0.501-1.229c0.115-0.395,0.203-0.764,0.305-1.074
			c0.053-0.162,0.053-0.334,0.001-0.496L272.931,83.498z"/>
		<path clip-path="url(#SVGID_4_)" fill="#141414" d="M264.266,85.928c0.047-0.541,0.03-1.096,0.153-1.621
			c0.239-1.02,1.302-1.34,2.106-0.689c1.586,1.283,1.885,3.035,1.674,4.896c-0.137,1.219-1.389,1.619-2.339,0.799
			C264.845,88.434,264.328,87.293,264.266,85.928"/>
		<path clip-path="url(#SVGID_4_)" d="M264.266,85.928l0.797,0.07c0.026-0.303,0.033-0.582,0.049-0.836
			c0.016-0.254,0.04-0.48,0.086-0.672c0.042-0.176,0.112-0.268,0.181-0.324c0.071-0.057,0.148-0.086,0.247-0.086
			c0.107,0,0.241,0.035,0.396,0.16c0.55,0.447,0.893,0.93,1.117,1.469c0.222,0.539,0.32,1.141,0.32,1.805
			c0,0.293-0.019,0.6-0.055,0.912c-0.027,0.225-0.102,0.336-0.177,0.406c-0.077,0.07-0.168,0.109-0.298,0.111
			c-0.143-0.002-0.334-0.057-0.546-0.236c-0.428-0.371-0.736-0.781-0.952-1.242c-0.215-0.461-0.339-0.98-0.366-1.572L264.266,85.928
			l0.797,0.07L264.266,85.928l-0.799,0.037c0.035,0.773,0.201,1.506,0.514,2.176c0.311,0.67,0.769,1.27,1.356,1.775
			c0.467,0.406,1.031,0.627,1.592,0.627c0.503,0,1.003-0.184,1.381-0.533c0.38-0.346,0.623-0.848,0.684-1.404
			c0.041-0.363,0.065-0.729,0.065-1.092c0-0.818-0.12-1.639-0.441-2.416c-0.318-0.775-0.842-1.5-1.59-2.102
			c-0.412-0.336-0.908-0.518-1.402-0.516c-0.453-0.002-0.902,0.152-1.259,0.445c-0.358,0.291-0.615,0.715-0.727,1.199
			c-0.077,0.332-0.106,0.646-0.125,0.938c-0.018,0.291-0.025,0.559-0.046,0.797c-0.003,0.033-0.004,0.072-0.002,0.105
			L264.266,85.928z"/>
		<path clip-path="url(#SVGID_4_)" fill="#141414" d="M264.68,91.137c0.055,0.633,0.188,1.367-0.852,1.611
			c-0.926,0.215-1.388-0.332-1.681-0.994c-0.398-0.9-0.765-1.85-0.908-2.814c-0.066-0.439,0.326-1.096,0.709-1.412
			c0.475-0.395,0.966,0.033,1.347,0.422C264.134,88.807,264.661,89.803,264.68,91.137"/>
		<path clip-path="url(#SVGID_4_)" d="M264.68,91.137l-0.797,0.07c0.018,0.193,0.035,0.357,0.034,0.475
			c0,0.074-0.006,0.129-0.013,0.156c-0.005,0.023-0.009,0.029-0.01,0.031c-0.001,0-0.009,0.01-0.045,0.029
			c-0.035,0.02-0.1,0.047-0.203,0.07c-0.087,0.021-0.155,0.027-0.207,0.027c-0.074,0-0.115-0.012-0.152-0.027
			c-0.053-0.02-0.108-0.057-0.182-0.146c-0.072-0.086-0.153-0.223-0.226-0.391c-0.388-0.877-0.725-1.768-0.849-2.609l-0.115,0.016
			h0.116l-0.001-0.018l-0.115,0.018h0.116l0.001-0.006c0.001-0.016,0.01-0.064,0.034-0.125c0.034-0.094,0.099-0.213,0.174-0.32
			c0.074-0.105,0.161-0.197,0.219-0.244h0.001l-0.082-0.117l0.044,0.133c0.022-0.006,0.037-0.016,0.038-0.016l-0.082-0.117
			l0.044,0.133l-0.073-0.223v0.234c0.022,0,0.051-0.004,0.073-0.012l-0.073-0.223v0.234v-0.172l-0.035,0.17l0.035,0.002v-0.172
			l-0.035,0.17l0.014-0.068l-0.019,0.066l0.005,0.002l0.014-0.068l-0.019,0.066h0.001c0.009,0.002,0.07,0.033,0.147,0.096
			c0.078,0.063,0.171,0.15,0.266,0.248c0.37,0.377,0.651,0.766,0.844,1.188c0.193,0.424,0.304,0.887,0.313,1.451l0.003,0.059
			L264.68,91.137l0.8-0.012c-0.01-0.768-0.172-1.471-0.458-2.094c-0.284-0.623-0.687-1.162-1.156-1.643
			c-0.15-0.15-0.331-0.33-0.565-0.492c-0.118-0.08-0.251-0.158-0.408-0.221c-0.157-0.061-0.341-0.105-0.544-0.105
			c-0.158,0-0.325,0.029-0.482,0.088c-0.158,0.059-0.302,0.146-0.429,0.252c-0.272,0.229-0.494,0.508-0.677,0.824
			c-0.09,0.16-0.168,0.328-0.228,0.508c-0.059,0.182-0.101,0.377-0.102,0.596c0,0.07,0.005,0.145,0.016,0.221
			c0.163,1.084,0.561,2.094,0.968,3.02c0.151,0.336,0.349,0.693,0.679,0.998c0.164,0.15,0.365,0.285,0.595,0.377
			c0.23,0.094,0.487,0.143,0.75,0.143c0.187,0,0.378-0.023,0.571-0.068c0.252-0.061,0.482-0.146,0.688-0.271
			c0.154-0.094,0.293-0.209,0.408-0.342c0.172-0.199,0.282-0.43,0.339-0.643c0.058-0.217,0.072-0.414,0.072-0.59
			c0-0.244-0.026-0.451-0.04-0.615L264.68,91.137l0.8-0.012L264.68,91.137z"/>
		<path clip-path="url(#SVGID_4_)" fill="#141414" d="M300.639,164.879c-2.446-1.846-3.857-4.203-3.677-7.367
			c0.065-1.131,0.105-2.268,0.096-3.4c-0.015-1.752,0.934-3.113,1.797-4.49c1.197-1.908,2.736-3.617,3.425-5.82
			c0.404-1.289,0.255-2.572-0.08-3.855c-0.997-3.818-3.078-7.156-4.673-10.713c-1.242-2.768-1.372-5.732-0.66-8.74
			c0.79-3.344,2.636-6.025,5.037-8.342c1.508-1.451,3.087-1.455,4.782-0.357c2.979,1.922,5.81,4.043,8.315,6.619
			c2.236,2.299,3.635,4.9,3.696,8.053c0.05,2.572-0.069,5.172-1.378,7.563c-1.276,2.328-2.517,4.689-3.533,7.139
			c-0.725,1.744-1.187,3.627-1.517,5.494c-0.333,1.881-0.378,3.814-0.51,5.73c-0.067,0.977,0.079,1.98-0.091,2.936
			c-0.547,3.072-1.522,6.014-4.186,7.916c-1.193,0.852-2.701,1.26-4.066,1.867C302.49,165.033,301.564,164.955,300.639,164.879"/>
		<path clip-path="url(#SVGID_4_)" d="M300.639,164.879l0.482-0.641c-1.086-0.818-1.927-1.723-2.496-2.734
			c-0.568-1.012-0.877-2.135-0.878-3.455c0-0.162,0.004-0.324,0.014-0.49l0,0c0.059-1.033,0.098-2.074,0.098-3.119
			c0-0.111-0.001-0.223-0.001-0.334v-0.004l-0.001-0.031c0.001-0.719,0.192-1.361,0.501-2.02c0.309-0.656,0.739-1.311,1.175-2.004
			c0.573-0.916,1.253-1.816,1.893-2.785c0.639-0.969,1.239-2.014,1.618-3.223c0.198-0.631,0.28-1.264,0.279-1.879
			c0-0.834-0.147-1.639-0.349-2.416c-0.519-1.986-1.312-3.824-2.165-5.602c-0.855-1.775-1.77-3.492-2.552-5.238
			c-0.7-1.561-1.023-3.182-1.023-4.855c0-1.105,0.141-2.232,0.411-3.373c0.375-1.582,0.996-3.004,1.815-4.316
			c0.819-1.311,1.836-2.512,2.999-3.633c0.35-0.336,0.685-0.564,1.002-0.709c0.318-0.143,0.619-0.207,0.934-0.207
			c0.272,0,0.558,0.049,0.868,0.156c0.308,0.107,0.64,0.271,0.989,0.498c2.949,1.902,5.728,3.986,8.175,6.504
			c1.072,1.102,1.925,2.258,2.516,3.494c0.591,1.238,0.925,2.555,0.954,4.016c0.006,0.283,0.009,0.563,0.009,0.842
			c0,1.119-0.055,2.217-0.245,3.273c-0.189,1.059-0.511,2.074-1.044,3.049c-1.28,2.336-2.535,4.725-3.57,7.215
			c-0.756,1.822-1.23,3.762-1.566,5.662c-0.346,1.963-0.389,3.926-0.52,5.816c-0.016,0.234-0.021,0.465-0.021,0.688
			c0,0.391,0.014,0.764,0.014,1.111c0,0.381-0.017,0.732-0.073,1.051c-0.267,1.5-0.635,2.936-1.235,4.193
			c-0.601,1.262-1.421,2.348-2.629,3.211c-0.515,0.369-1.133,0.662-1.806,0.936c-0.673,0.275-1.399,0.533-2.121,0.855l0.326,0.729
			l0.067-0.797c-0.926-0.076-1.852-0.154-2.777-0.23L300.639,164.879l0.482-0.641L300.639,164.879l-0.067,0.797
			c0.926,0.078,1.851,0.154,2.777,0.232c0.135,0.012,0.27-0.012,0.393-0.066c0.643-0.289,1.354-0.541,2.074-0.834
			c0.72-0.295,1.453-0.633,2.13-1.115c1.456-1.037,2.456-2.373,3.145-3.826c0.691-1.455,1.084-3.027,1.365-4.602
			c0.081-0.461,0.098-0.906,0.098-1.33c0-0.389-0.014-0.76-0.014-1.111c0-0.199,0.005-0.393,0.017-0.578
			c0.133-1.939,0.18-3.846,0.499-5.646c0.324-1.83,0.776-3.66,1.468-5.326c0.998-2.404,2.225-4.742,3.496-7.061
			c0.63-1.15,1.003-2.344,1.216-3.535c0.213-1.193,0.27-2.385,0.27-3.557c0-0.293-0.004-0.584-0.009-0.871
			c-0.032-1.689-0.428-3.25-1.111-4.676c-0.682-1.428-1.647-2.723-2.812-3.92c-2.562-2.635-5.444-4.791-8.454-6.732
			c-0.437-0.283-0.881-0.51-1.336-0.666c-0.454-0.158-0.92-0.244-1.389-0.244c-0.541,0-1.082,0.117-1.594,0.35
			c-0.512,0.232-0.995,0.574-1.452,1.016c-1.238,1.193-2.344,2.492-3.246,3.936c-0.902,1.445-1.599,3.035-2.015,4.795
			c-0.295,1.25-0.454,2.502-0.454,3.742c-0.001,1.881,0.367,3.738,1.163,5.512c0.813,1.811,1.735,3.539,2.57,5.277
			c0.835,1.736,1.581,3.477,2.059,5.309c0.182,0.699,0.298,1.369,0.297,2.014c0,0.477-0.062,0.938-0.206,1.4
			c-0.311,0.996-0.825,1.908-1.427,2.82c-0.601,0.912-1.289,1.822-1.913,2.814c-0.42,0.674-0.889,1.379-1.266,2.172
			c-0.375,0.793-0.654,1.689-0.654,2.703l0.001,0.049v-0.002c0,0.107,0.001,0.215,0.001,0.322c0,1.004-0.038,2.016-0.096,3.027
			h0.001c-0.012,0.197-0.017,0.391-0.017,0.582c-0.002,1.576,0.382,2.998,1.084,4.24c0.7,1.246,1.706,2.309,2.926,3.229
			c0.122,0.09,0.264,0.146,0.415,0.158L300.639,164.879z"/>
		<path clip-path="url(#SVGID_4_)" fill="#141414" d="M307.891,104.459c-0.397,1.07-0.687,2.197-1.221,3.195
			c-0.499,0.934-1.25,1.756-2.514,1.584c-1.229-0.166-1.776-1.088-2.167-2.109c-0.679-1.77-0.835-3.605-0.533-5.477
			c0.221-1.367,0.948-2.496,1.911-3.422c0.827-0.797,2.605-0.238,3.381,0.895c0.798,1.168,0.848,2.496,0.935,3.826
			c0.032,0.484,0.068,0.969,0.102,1.453C307.82,104.422,307.856,104.439,307.891,104.459"/>
		<path clip-path="url(#SVGID_4_)" d="M307.891,104.459l-0.75-0.279c-0.208,0.563-0.381,1.117-0.564,1.641s-0.376,1.016-0.612,1.457
			c-0.197,0.371-0.428,0.686-0.669,0.885c-0.12,0.098-0.241,0.172-0.37,0.221c-0.13,0.051-0.269,0.078-0.442,0.078
			c-0.068,0-0.141-0.004-0.221-0.014c-0.218-0.031-0.383-0.088-0.526-0.166c-0.212-0.117-0.387-0.287-0.554-0.529
			c-0.165-0.242-0.313-0.557-0.447-0.908c-0.425-1.109-0.627-2.236-0.627-3.395c0-0.549,0.046-1.107,0.137-1.67
			c0.094-0.58,0.294-1.109,0.58-1.604c0.285-0.492,0.659-0.949,1.096-1.371c0.045-0.043,0.098-0.074,0.177-0.104
			c0.078-0.027,0.182-0.045,0.306-0.045c0.258-0.002,0.6,0.084,0.912,0.252c0.314,0.168,0.595,0.41,0.771,0.668h-0.001
			c0.322,0.473,0.499,0.979,0.609,1.551s0.146,1.203,0.189,1.877c0.032,0.488,0.068,0.975,0.102,1.457
			c0.02,0.277,0.181,0.523,0.428,0.652c0.038,0.02,0.073,0.037,0.104,0.053L307.891,104.459l-0.75-0.279L307.891,104.459
			l0.372-0.709c-0.04-0.02-0.076-0.039-0.108-0.055l-0.37,0.709l0.798-0.059c-0.034-0.484-0.07-0.967-0.101-1.447
			c-0.044-0.658-0.078-1.355-0.214-2.072c-0.136-0.715-0.384-1.457-0.86-2.152v-0.002c-0.349-0.506-0.821-0.898-1.338-1.176
			c-0.519-0.275-1.087-0.438-1.665-0.441c-0.278,0-0.559,0.041-0.832,0.137c-0.273,0.094-0.538,0.246-0.761,0.463
			c-0.525,0.504-0.997,1.076-1.371,1.719c-0.373,0.645-0.648,1.365-0.775,2.152c-0.104,0.643-0.157,1.285-0.157,1.924
			c-0.001,1.344,0.237,2.676,0.733,3.967c0.212,0.549,0.477,1.125,0.92,1.623c0.221,0.246,0.49,0.473,0.808,0.646
			c0.317,0.174,0.681,0.293,1.078,0.346c0.148,0.02,0.293,0.031,0.436,0.031c0.362,0,0.706-0.066,1.016-0.186
			c0.465-0.18,0.844-0.471,1.146-0.797c0.304-0.326,0.537-0.688,0.73-1.049c0.297-0.555,0.516-1.127,0.711-1.684
			c0.195-0.557,0.365-1.102,0.554-1.611c0.14-0.377-0.021-0.799-0.378-0.986L307.891,104.459z"/>
		<path clip-path="url(#SVGID_4_)" fill="#141414" d="M308.898,106.594c0.365-1.018,0.631-2.086,1.136-3.027
			c0.266-0.498,0.944-1.059,1.442-1.064c0.47-0.006,1.069,0.598,1.397,1.078c1.069,1.566,0.437,3.98-0.601,5.25
			c-0.54,0.662-1.31,1.059-2.123,0.691c-0.844-0.381-1.086-1.254-1.152-2.135c-0.018-0.244,0.035-0.492,0.056-0.738
			C309.001,106.629,308.95,106.611,308.898,106.594"/>
		<path clip-path="url(#SVGID_4_)" d="M308.898,106.594l0.753,0.27c0.191-0.533,0.35-1.059,0.519-1.553s0.348-0.955,0.569-1.367
			c0.029-0.055,0.087-0.139,0.161-0.221c0.11-0.127,0.26-0.252,0.387-0.33c0.064-0.039,0.122-0.066,0.16-0.078
			c0.019-0.008,0.033-0.012,0.04-0.012l0.005-0.002l-0.007-0.07v0.072l0.007-0.002l-0.007-0.07v0.072h0.001l0.006-0.002l-0.01-0.613
			v0.613h0.01l-0.01-0.613v0.613v-0.195l-0.029,0.195h0.029v-0.195l-0.029,0.195l0.008-0.059l-0.015,0.057l0.007,0.002l0.008-0.059
			l-0.015,0.057c0.004,0,0.051,0.018,0.113,0.057c0.094,0.061,0.222,0.168,0.34,0.291c0.119,0.125,0.232,0.266,0.314,0.385h-0.001
			c0.141,0.207,0.243,0.436,0.312,0.689c0.069,0.252,0.103,0.529,0.103,0.816c0,0.5-0.104,1.037-0.283,1.529
			c-0.177,0.492-0.429,0.938-0.691,1.258l0,0c-0.149,0.184-0.313,0.326-0.465,0.414c-0.153,0.088-0.285,0.123-0.41,0.123
			c-0.09,0-0.183-0.016-0.3-0.068c-0.119-0.055-0.203-0.117-0.277-0.193c-0.109-0.115-0.201-0.275-0.271-0.494
			c-0.07-0.217-0.114-0.488-0.135-0.779v-0.002l-0.002-0.043c0-0.051,0.006-0.127,0.018-0.221c0.011-0.096,0.027-0.211,0.039-0.346
			c0.03-0.361-0.185-0.697-0.526-0.82c-0.057-0.02-0.109-0.039-0.158-0.055L308.898,106.594l0.753,0.27L308.898,106.594
			l-0.268,0.754c0.055,0.018,0.105,0.037,0.152,0.053l0.271-0.752l-0.798-0.068c-0.006,0.076-0.019,0.174-0.033,0.289
			c-0.014,0.117-0.028,0.254-0.029,0.412c0,0.055,0.002,0.109,0.007,0.164h-0.001c0.038,0.492,0.121,1.021,0.357,1.533
			c0.117,0.254,0.276,0.504,0.488,0.725c0.21,0.223,0.474,0.412,0.776,0.549c0.311,0.139,0.639,0.211,0.958,0.211
			c0.449,0,0.864-0.139,1.215-0.344c0.354-0.205,0.649-0.477,0.899-0.781c0.396-0.488,0.722-1.078,0.957-1.729
			c0.234-0.646,0.377-1.354,0.378-2.072c0-0.412-0.048-0.828-0.159-1.236c-0.11-0.406-0.284-0.805-0.534-1.17
			c-0.204-0.297-0.468-0.609-0.787-0.879c-0.16-0.137-0.334-0.262-0.537-0.363c-0.202-0.102-0.438-0.186-0.728-0.188h-0.015h-0.001
			h0.001c-0.273,0.004-0.505,0.076-0.714,0.168c-0.312,0.141-0.582,0.336-0.823,0.559c-0.239,0.223-0.446,0.473-0.602,0.762
			c-0.284,0.529-0.49,1.074-0.671,1.604c-0.181,0.529-0.338,1.047-0.512,1.529c-0.072,0.201-0.062,0.42,0.03,0.613
			c0.091,0.193,0.253,0.34,0.455,0.412L308.898,106.594z"/>
		<path clip-path="url(#SVGID_4_)" fill="#141414" d="M317.399,109.314c0,1.396-0.548,2.555-1.611,3.432
			c-0.931,0.766-2.139,0.359-2.285-0.814c-0.224-1.803,0.096-3.477,1.563-4.773c0.464-0.41,0.92-0.596,1.494-0.385
			c0.657,0.242,0.886,0.799,0.922,1.438C317.503,108.576,317.429,108.947,317.399,109.314"/>
		<path clip-path="url(#SVGID_4_)" d="M317.399,109.314h-0.8c-0.001,0.594-0.115,1.109-0.331,1.57
			c-0.217,0.461-0.538,0.871-0.988,1.244c-0.196,0.16-0.372,0.207-0.507,0.207c-0.128,0-0.22-0.039-0.298-0.107
			c-0.076-0.072-0.149-0.18-0.178-0.395c-0.039-0.309-0.059-0.607-0.059-0.896c0-0.629,0.096-1.203,0.308-1.727
			c0.213-0.521,0.54-1,1.049-1.453h0.001c0.129-0.115,0.237-0.188,0.317-0.225c0.081-0.037,0.128-0.047,0.184-0.047
			c0.044,0,0.1,0.006,0.187,0.037c0.085,0.033,0.137,0.066,0.177,0.1c0.059,0.051,0.1,0.107,0.142,0.209
			c0.04,0.1,0.07,0.244,0.08,0.424c0.001,0.027,0.002,0.057,0.002,0.088c0.003,0.225-0.05,0.529-0.083,0.906l-0.003,0.064H317.399
			l0.797,0.066c0.02-0.27,0.087-0.615,0.089-1.037c0-0.057-0.001-0.117-0.005-0.178c-0.023-0.398-0.104-0.822-0.333-1.223
			c-0.114-0.197-0.267-0.387-0.456-0.545c-0.188-0.158-0.411-0.287-0.654-0.375c-0.24-0.088-0.491-0.139-0.74-0.137
			c-0.315-0.002-0.618,0.078-0.876,0.205c-0.26,0.125-0.482,0.289-0.685,0.467c-0.684,0.604-1.17,1.303-1.473,2.051
			c-0.303,0.748-0.425,1.537-0.425,2.328c0,0.363,0.026,0.729,0.071,1.094c0.066,0.549,0.314,1.043,0.693,1.383
			c0.376,0.344,0.871,0.523,1.371,0.521c0.534,0.002,1.073-0.199,1.524-0.574c0.613-0.504,1.097-1.107,1.419-1.795
			c0.324-0.688,0.484-1.449,0.483-2.252H317.399l0.797,0.066L317.399,109.314z"/>
		<path clip-path="url(#SVGID_4_)" fill="#141414" d="M316.968,114.531c0.058-1.4,0.62-2.43,1.573-3.209
			c0.305-0.248,0.909-0.457,1.196-0.314c0.358,0.174,0.737,0.727,0.742,1.121c0.017,1.48-0.524,2.818-1.619,3.822
			c-0.275,0.254-0.984,0.26-1.369,0.092c-0.289-0.127-0.404-0.701-0.546-1.096C316.888,114.787,316.964,114.58,316.968,114.531"/>
		<path clip-path="url(#SVGID_4_)" d="M316.968,114.531l0.799,0.033c0.026-0.602,0.155-1.09,0.366-1.51
			c0.213-0.422,0.512-0.783,0.914-1.113c0.029-0.025,0.132-0.088,0.235-0.125c0.051-0.02,0.103-0.035,0.144-0.045
			c0.041-0.008,0.072-0.01,0.077-0.01l0.013-0.303l-0.131,0.266c0.078,0.037,0.116,0.035,0.118,0.037l0.013-0.303l-0.131,0.266
			l0.002,0.002c0.009,0.006,0.046,0.033,0.085,0.074c0.06,0.061,0.126,0.154,0.164,0.232c0.02,0.039,0.033,0.074,0.039,0.096
			l0.004,0.02l0.099-0.012l-0.099,0.002v0.01l0.099-0.012l-0.099,0.002v-0.002c0,0.02,0,0.039,0,0.059
			c0,0.629-0.116,1.211-0.341,1.74c-0.226,0.529-0.561,1.006-1.019,1.428l0.153,0.166l-0.099-0.205c-0.003,0-0.022,0.01-0.053,0.039
			l0.152,0.166l-0.099-0.205l0.002,0.004l-0.002-0.004l0.002,0.004l-0.002-0.004c-0.004,0.002-0.035,0.014-0.081,0.02
			c-0.045,0.008-0.104,0.014-0.166,0.014c-0.069,0-0.141-0.006-0.2-0.018c-0.058-0.01-0.104-0.025-0.114-0.029l-0.001-0.002
			l-0.173,0.396l0.294-0.318c-0.023-0.021-0.063-0.053-0.121-0.078l-0.173,0.396l0.294-0.318l-0.15,0.162l0.18-0.131
			c-0.002-0.002-0.01-0.014-0.03-0.031l-0.15,0.162l0.18-0.131l-0.01,0.01l0.01-0.01l-0.01,0.01l0.01-0.01
			c-0.006-0.004-0.057-0.107-0.102-0.246c-0.048-0.141-0.097-0.313-0.163-0.496l-0.375,0.135h0.402
			c-0.001-0.02-0.001-0.064-0.026-0.135l-0.376,0.135h0.402h-0.179l0.178,0.014l0.001-0.014h-0.179l0.178,0.014l-0.04-0.004
			l0.04,0.006v-0.002l-0.04-0.004l0.04,0.006c0-0.002,0.003-0.016,0.008-0.041c0.003-0.012,0.007-0.025,0.012-0.049
			c0.003-0.012,0.006-0.027,0.01-0.047c0.003-0.021,0.008-0.047,0.012-0.092l0.002-0.033L316.968,114.531l-0.797-0.066l0.646,0.053
			l-0.636-0.127c-0.002,0.008-0.006,0.023-0.01,0.074l0.646,0.053l-0.636-0.127l0.265,0.053l-0.264-0.059l-0.001,0.006l0.265,0.053
			l-0.264-0.059c0,0.002-0.015,0.059-0.029,0.133c-0.014,0.074-0.029,0.17-0.029,0.293c0,0.113,0.013,0.25,0.069,0.408
			c0.026,0.072,0.058,0.174,0.094,0.289c0.056,0.174,0.118,0.375,0.226,0.594c0.055,0.107,0.122,0.225,0.222,0.344
			c0.1,0.117,0.241,0.244,0.436,0.33c0.159,0.07,0.315,0.111,0.474,0.139c0.158,0.029,0.319,0.043,0.481,0.043
			c0.205,0,0.411-0.021,0.622-0.076c0.106-0.027,0.213-0.064,0.323-0.117c0.109-0.055,0.221-0.123,0.33-0.223
			c0.62-0.566,1.095-1.24,1.409-1.979c0.315-0.738,0.47-1.541,0.469-2.367c0-0.023,0-0.049,0-0.076l0,0
			c-0.004-0.225-0.054-0.416-0.12-0.592c-0.101-0.264-0.243-0.496-0.416-0.705c-0.087-0.104-0.182-0.201-0.288-0.293
			c-0.108-0.09-0.226-0.172-0.367-0.242l0.001,0.002c-0.218-0.105-0.414-0.127-0.586-0.129c-0.15,0.002-0.286,0.021-0.418,0.049
			c-0.196,0.043-0.38,0.107-0.555,0.189c-0.175,0.082-0.339,0.178-0.495,0.305c-0.55,0.449-1.009,0.992-1.33,1.631
			c-0.323,0.639-0.504,1.365-0.536,2.164L316.968,114.531l-0.797-0.066L316.968,114.531z"/>
		<path clip-path="url(#SVGID_4_)" fill="#141414" d="M318.701,117.904c0.383-0.723,0.623-1.381,1.035-1.908
			c0.678-0.869,1.745-0.621,2.137,0.438c0.303,0.816-0.363,2.609-1.163,2.924c-0.376,0.146-1.013,0.248-1.231,0.047
			C319.105,119.059,318.967,118.457,318.701,117.904"/>
		<path clip-path="url(#SVGID_4_)" d="M318.701,117.904l0.707,0.373c0.206-0.387,0.366-0.744,0.516-1.045
			c0.15-0.303,0.29-0.549,0.442-0.744c0.08-0.102,0.151-0.154,0.205-0.184c0.054-0.027,0.092-0.035,0.127-0.035
			c0.049,0.002,0.104,0.014,0.183,0.074c0.076,0.061,0.171,0.176,0.242,0.367c0.007,0.018,0.025,0.094,0.025,0.207
			c0,0.139-0.025,0.326-0.075,0.523c-0.075,0.295-0.209,0.609-0.354,0.836c-0.072,0.113-0.146,0.203-0.205,0.26
			c-0.029,0.029-0.054,0.049-0.072,0.061l-0.019,0.012l-0.005,0.004c-0.062,0.023-0.161,0.053-0.258,0.074
			c-0.098,0.02-0.198,0.029-0.259,0.029c-0.021,0-0.037-0.002-0.046-0.002h-0.007l-0.001-0.002l-0.045,0.229l0.093-0.211
			c-0.031-0.014-0.045-0.016-0.048-0.018l-0.045,0.229l0.093-0.211l-0.191,0.432l0.319-0.346c-0.052-0.047-0.099-0.072-0.128-0.086
			l-0.191,0.432l0.319-0.346c-0.027-0.025-0.062-0.066-0.104-0.133c-0.063-0.102-0.134-0.26-0.212-0.453
			c-0.079-0.195-0.167-0.426-0.285-0.674L318.701,117.904l0.707,0.373L318.701,117.904l-0.721,0.346
			c0.108,0.225,0.206,0.5,0.336,0.801c0.066,0.15,0.141,0.309,0.239,0.469s0.22,0.322,0.381,0.471
			c0.181,0.166,0.366,0.236,0.524,0.277c0.16,0.039,0.303,0.049,0.441,0.049c0.204,0,0.396-0.025,0.58-0.063
			c0.184-0.039,0.358-0.088,0.521-0.15c0.338-0.137,0.583-0.354,0.788-0.59c0.305-0.357,0.528-0.779,0.693-1.225
			c0.161-0.447,0.263-0.91,0.265-1.371c-0.001-0.25-0.03-0.504-0.125-0.762c-0.159-0.43-0.412-0.797-0.745-1.064
			c-0.331-0.266-0.748-0.424-1.18-0.422c-0.302-0.002-0.606,0.076-0.878,0.223c-0.273,0.145-0.515,0.354-0.715,0.611
			c-0.258,0.332-0.445,0.678-0.614,1.018c-0.168,0.338-0.32,0.674-0.497,1.008c-0.119,0.225-0.124,0.492-0.014,0.721
			L318.701,117.904z"/>
		<path clip-path="url(#SVGID_4_)" fill="#CCAB6B" d="M179.123,163.043c-0.827-2.617-1.378-10.748,1.929-13.918
			c3.307-3.168,16.251,2.609,22.459-1.928c3.583-2.619,0.138-8.543,0.414-9.508c0.276-0.965,2.067-1.516,2.618-2.205
			c0.551-0.689-2.067-3.031-2.067-3.031s2.756-1.377,2.756-1.928c0-0.553-2.205-3.721-2.205-4.686s6.689-1.346,6.614-4.135
			c-0.138-5.098-10.196-13.502-8.68-18.326c2.11-6.713-5.414-22.488-15.984-25.352c-21.357-5.789-58.699,7.027-35.274,50.293
			c2.595,4.793,1.24,17.223-5.925,20.805"/>
		<path clip-path="url(#SVGID_4_)" d="M179.885,162.803c-0.148-0.467-0.302-1.199-0.412-2.072c-0.111-0.875-0.182-1.895-0.182-2.959
			c-0.001-1.535,0.149-3.17,0.522-4.611c0.186-0.721,0.428-1.391,0.727-1.977s0.654-1.086,1.065-1.48
			c0.131-0.125,0.291-0.236,0.49-0.336c0.298-0.146,0.684-0.262,1.146-0.336c0.463-0.074,1-0.107,1.592-0.107
			c1.504-0.002,3.357,0.217,5.333,0.441c1.979,0.223,4.085,0.451,6.138,0.451c1.402,0,2.781-0.107,4.083-0.404
			c1.301-0.297,2.528-0.789,3.595-1.568c0.738-0.537,1.249-1.223,1.553-1.955c0.306-0.736,0.415-1.51,0.415-2.266
			c-0.002-1.34-0.337-2.645-0.654-3.719c-0.159-0.537-0.316-1.014-0.427-1.391c-0.055-0.188-0.099-0.35-0.127-0.475
			c-0.028-0.121-0.035-0.209-0.034-0.213h-0.315l0.299,0.086c0.018-0.063,0.015-0.086,0.015-0.086h-0.314l0.299,0.086l0.001-0.004
			c0.006-0.018,0.02-0.053,0.055-0.102c0.059-0.088,0.188-0.215,0.366-0.348c0.268-0.203,0.636-0.416,1.002-0.641
			c0.183-0.113,0.367-0.23,0.545-0.361c0.177-0.133,0.349-0.277,0.506-0.473c0.09-0.111,0.156-0.242,0.196-0.369
			c0.041-0.129,0.055-0.254,0.055-0.369c-0.002-0.271-0.073-0.488-0.157-0.688c-0.15-0.346-0.363-0.652-0.597-0.955
			c-0.352-0.451-0.759-0.879-1.084-1.203c-0.324-0.322-0.564-0.537-0.571-0.543l-0.534,0.596l0.358,0.715
			c0.01-0.004,0.71-0.354,1.432-0.785c0.362-0.219,0.727-0.453,1.035-0.699c0.155-0.125,0.296-0.25,0.427-0.406
			c0.066-0.078,0.13-0.166,0.189-0.283c0.057-0.115,0.114-0.266,0.115-0.469c0-0.084-0.009-0.15-0.02-0.207
			c-0.022-0.113-0.05-0.199-0.082-0.287c-0.06-0.16-0.136-0.32-0.225-0.496c-0.155-0.307-0.353-0.66-0.565-1.037
			c-0.318-0.561-0.666-1.172-0.926-1.693c-0.13-0.26-0.237-0.496-0.304-0.68c-0.034-0.092-0.057-0.168-0.07-0.223
			c-0.006-0.025-0.01-0.045-0.012-0.057l-0.001-0.012l-0.069,0.006h0.069v-0.006l-0.069,0.006h0.069h-0.576l0.53,0.229
			c0.026-0.059,0.047-0.143,0.046-0.229h-0.576l0.53,0.229l-0.428-0.184l0.356,0.303c0.018-0.023,0.046-0.061,0.072-0.119
			l-0.428-0.184l0.356,0.303l-0.153-0.131l0.127,0.156c0,0,0.008-0.006,0.026-0.025l-0.153-0.131l0.127,0.156
			c0,0,0.037-0.025,0.099-0.059c0.117-0.059,0.32-0.141,0.569-0.225c0.437-0.15,1.017-0.316,1.637-0.51
			c0.465-0.146,0.954-0.309,1.434-0.498c0.718-0.287,1.417-0.631,1.99-1.119c0.286-0.246,0.541-0.533,0.729-0.877
			c0.189-0.346,0.302-0.75,0.301-1.174c0-0.025-0.001-0.045-0.001-0.061v-0.008c-0.02-0.711-0.196-1.43-0.467-2.158
			c-0.476-1.273-1.25-2.59-2.136-3.938c-1.329-2.018-2.918-4.104-4.155-6.059c-0.619-0.977-1.148-1.918-1.514-2.785
			c-0.368-0.865-0.566-1.648-0.564-2.301c0-0.299,0.04-0.572,0.119-0.824c0.271-0.863,0.392-1.824,0.392-2.855
			c-0.001-2.004-0.458-4.283-1.281-6.635c-1.235-3.527-3.297-7.219-5.968-10.301c-1.336-1.541-2.825-2.93-4.446-4.061
			c-1.621-1.133-3.375-2.008-5.235-2.514c-3.249-0.879-6.84-1.336-10.532-1.336c-3.896,0-7.903,0.51-11.735,1.574
			c-5.744,1.602-11.103,4.459-15.045,8.775c-1.97,2.158-3.581,4.68-4.695,7.576c-1.116,2.895-1.734,6.158-1.733,9.797
			c0.001,6.955,2.248,15.26,7.553,25.061c0.348,0.641,0.634,1.482,0.827,2.455c0.194,0.975,0.296,2.078,0.296,3.246
			c0.002,2.643-0.528,5.611-1.642,8.172c-0.556,1.283-1.257,2.463-2.1,3.459c-0.844,0.998-1.827,1.811-2.96,2.377
			c-0.395,0.197-0.555,0.678-0.358,1.074c0.198,0.395,0.678,0.555,1.074,0.357c1.351-0.676,2.504-1.637,3.465-2.775
			c1.444-1.707,2.467-3.809,3.137-6.012c0.669-2.205,0.984-4.512,0.984-6.652c0-1.26-0.109-2.463-0.327-3.557
			c-0.218-1.094-0.541-2.078-0.989-2.906c-5.217-9.635-7.361-17.693-7.36-24.299c0.001-4.609,1.038-8.518,2.815-11.809
			c1.334-2.469,3.088-4.594,5.15-6.396c3.093-2.707,6.885-4.689,10.967-5.992c4.081-1.303,8.45-1.926,12.676-1.926
			c3.56,0,7.018,0.441,10.114,1.281c2.202,0.596,4.296,1.801,6.197,3.404c2.852,2.404,5.258,5.705,6.934,9.084
			c0.839,1.689,1.496,3.396,1.941,5.014c0.445,1.615,0.677,3.145,0.676,4.463c0.001,0.904-0.109,1.711-0.319,2.377
			c-0.133,0.424-0.192,0.861-0.192,1.303c0.001,0.734,0.16,1.475,0.419,2.221c0.454,1.309,1.215,2.65,2.094,4.014
			c1.318,2.039,2.91,4.129,4.165,6.068c0.627,0.967,1.168,1.898,1.549,2.746c0.382,0.85,0.595,1.615,0.609,2.236v-0.008l0.001,0.031
			c0,0.092-0.013,0.17-0.038,0.248c-0.045,0.145-0.136,0.295-0.298,0.461c-0.141,0.145-0.333,0.293-0.566,0.438
			c-0.408,0.25-0.937,0.48-1.498,0.684c-0.421,0.152-0.86,0.289-1.284,0.42c-0.318,0.098-0.628,0.189-0.919,0.281
			c-0.217,0.068-0.424,0.135-0.618,0.207c-0.145,0.053-0.282,0.107-0.414,0.166c-0.197,0.092-0.379,0.186-0.564,0.342
			c-0.092,0.078-0.187,0.178-0.27,0.316c-0.082,0.137-0.147,0.326-0.146,0.525c0.001,0.137,0.018,0.256,0.042,0.371
			c0.047,0.215,0.118,0.42,0.205,0.635c0.152,0.375,0.356,0.777,0.576,1.189c0.331,0.617,0.702,1.252,0.984,1.764
			c0.14,0.256,0.258,0.479,0.331,0.639c0.037,0.078,0.062,0.143,0.072,0.172l0.005,0.014v0.002l0.383-0.1h-0.393
			c0.001,0.078,0.011,0.098,0.01,0.1l0.383-0.1h-0.393h0.544l-0.49-0.246c-0.017,0.035-0.053,0.111-0.054,0.246h0.544l-0.49-0.246
			l0.239,0.119l-0.222-0.148l-0.017,0.029l0.239,0.119l-0.222-0.148l0.045,0.031l-0.044-0.033l-0.001,0.002l0.045,0.031
			l-0.044-0.033c-0.002,0.004-0.051,0.059-0.128,0.125c-0.137,0.117-0.357,0.275-0.599,0.43c-0.365,0.234-0.785,0.473-1.109,0.646
			c-0.163,0.088-0.301,0.162-0.399,0.211c-0.048,0.025-0.087,0.045-0.113,0.059l-0.029,0.016l-0.009,0.004
			c-0.236,0.119-0.4,0.346-0.435,0.609c-0.035,0.262,0.062,0.525,0.26,0.703c0.021,0.018,0.542,0.488,1.037,1.035
			c0.246,0.271,0.486,0.566,0.645,0.809c0.08,0.121,0.139,0.229,0.169,0.301c0.015,0.035,0.023,0.063,0.026,0.072l0.001,0.006
			l0.052-0.012l-0.053,0.006l0.001,0.006l0.052-0.012l-0.053,0.006l0.202-0.021h-0.203l0.001,0.021l0.202-0.021h-0.203h0.369
			l-0.351-0.109c-0.015,0.049-0.018,0.088-0.018,0.109h0.369l-0.351-0.109l0.445,0.139l-0.364-0.291
			c-0.037,0.047-0.066,0.104-0.081,0.152l0.445,0.139l-0.364-0.291c-0.019,0.025-0.066,0.074-0.138,0.131
			c-0.126,0.105-0.323,0.232-0.55,0.371c-0.342,0.211-0.749,0.441-1.131,0.734c-0.191,0.148-0.377,0.313-0.544,0.516
			c-0.166,0.199-0.316,0.443-0.399,0.734l0.001-0.004c-0.04,0.139-0.048,0.254-0.048,0.359c0.001,0.201,0.032,0.373,0.072,0.559
			c0.071,0.32,0.18,0.672,0.304,1.068c0.185,0.594,0.404,1.281,0.575,2.002s0.292,1.471,0.291,2.168
			c0.001,0.604-0.088,1.162-0.292,1.648c-0.205,0.486-0.514,0.908-1.019,1.279c-0.853,0.623-1.867,1.041-3.009,1.303
			c-1.141,0.262-2.405,0.363-3.726,0.363c-1.934,0-3.987-0.219-5.958-0.441c-1.973-0.223-3.862-0.451-5.513-0.451
			c-0.87,0-1.676,0.063-2.408,0.24c-0.366,0.09-0.714,0.209-1.038,0.369c-0.325,0.16-0.627,0.363-0.889,0.615
			c-0.566,0.543-1.019,1.193-1.384,1.908c-0.545,1.07-0.896,2.285-1.116,3.539c-0.219,1.254-0.307,2.547-0.307,3.775
			c0,1.137,0.075,2.217,0.195,3.16c0.121,0.943,0.282,1.746,0.473,2.352c0.133,0.422,0.583,0.656,1.004,0.523
			C179.785,163.672,180.019,163.225,179.885,162.803"/>
		<path clip-path="url(#SVGID_4_)" fill="#574533" d="M195.951,104.32c0,12.746-10.333,23.08-23.08,23.08
			c-12.746,0-23.08-10.334-23.08-23.08c0-12.748,10.334-23.08,23.08-23.08C185.618,81.24,195.951,91.572,195.951,104.32"/>
		<path clip-path="url(#SVGID_4_)" d="M195.951,104.32h-0.8c0,6.154-2.493,11.721-6.526,15.754
			c-4.034,4.033-9.599,6.525-15.754,6.525c-6.155,0-11.72-2.492-15.754-6.525c-4.033-4.033-6.525-9.6-6.526-15.754
			c0.001-6.154,2.493-11.721,6.526-15.754c4.034-4.033,9.599-6.525,15.754-6.525c6.155,0,11.72,2.492,15.754,6.525
			c4.033,4.033,6.526,9.6,6.526,15.754H195.951h0.8c0-6.592-2.674-12.566-6.994-16.887c-4.319-4.32-10.294-6.994-16.886-6.994
			c-6.591,0-12.566,2.674-16.885,6.994c-4.321,4.32-6.995,10.295-6.995,16.887s2.674,12.566,6.995,16.887
			c4.319,4.318,10.294,6.992,16.885,6.992c6.592,0,12.567-2.674,16.886-6.992c4.32-4.32,6.994-10.295,6.994-16.887H195.951z"/>
		<path clip-path="url(#SVGID_4_)" fill="#368C5E" d="M175.151,104.32c0,1.26-1.021,2.279-2.28,2.279c-1.259,0-2.28-1.02-2.28-2.279
			s1.021-2.279,2.28-2.279C174.13,102.041,175.151,103.061,175.151,104.32"/>
		<path clip-path="url(#SVGID_4_)" d="M175.151,104.32h-0.8c0,0.41-0.164,0.775-0.433,1.045c-0.271,0.27-0.636,0.434-1.047,0.436
			c-0.411-0.002-0.776-0.166-1.046-0.436s-0.433-0.635-0.434-1.045c0.001-0.412,0.164-0.775,0.434-1.047
			c0.27-0.268,0.635-0.432,1.046-0.434c0.411,0.002,0.776,0.166,1.047,0.434c0.269,0.271,0.433,0.635,0.433,1.047H175.151h0.8
			c0-0.848-0.346-1.623-0.902-2.178c-0.555-0.557-1.33-0.902-2.178-0.902c-0.848,0-1.623,0.346-2.178,0.902
			c-0.556,0.555-0.902,1.33-0.902,2.178s0.346,1.623,0.902,2.178c0.555,0.557,1.33,0.902,2.178,0.902
			c0.848,0,1.623-0.346,2.178-0.902c0.556-0.555,0.902-1.33,0.902-2.178H175.151z"/>
	</g>
	<text transform="matrix(1 0 0 1 227.8779 131.3691)" font-family="'Ubuntu'" font-size="34.9476">t</text>
</g>
</svg>
