<?xml version="1.0" encoding="utf-8"?>
<!-- Generator: Adobe Illustrator 16.0.0, SVG Export Plug-In . SVG Version: 6.00 Build 0)  -->
<!DOCTYPE svg PUBLIC "-//W3C//DTD SVG 1.1//EN" "http://www.w3.org/Graphics/SVG/1.1/DTD/svg11.dtd">
<svg version="1.1" id="Calque_1" xmlns="http://www.w3.org/2000/svg" xmlns:xlink="http://www.w3.org/1999/xlink" x="0px" y="0px"
	 width="349.92px" height="239.76px" viewBox="0 0 349.92 239.76" enable-background="new 0 0 349.92 239.76" xml:space="preserve">
<g>
	<path fill="#E5E2D3" d="M12.15,2C11.117,2.008,2,2.357,2,12.15v215.459c0.008,1.033,0.357,10.15,10.15,10.15h325.62
		c1.032-0.008,10.15-0.357,10.15-10.15V12.15C347.912,11.117,347.563,2,337.77,2H12.15z"/>
	<path fill="none" stroke="#000000" stroke-width="4" stroke-linejoin="round" stroke-miterlimit="10" d="M12.15,2
		C11.117,2.008,2,2.357,2,12.15v215.459c0.008,1.033,0.357,10.15,10.15,10.15h325.62c1.032-0.008,10.15-0.357,10.15-10.15V12.15
		C347.912,11.117,347.563,2,337.77,2H12.15z"/>
</g>
<g>
	<g>
		<defs>
			<rect id="SVGID_5_" x="72.826" y="70.798" width="204.268" height="98.164"/>
		</defs>
		<clipPath id="SVGID_2_">
			<use xlink:href="#SVGID_5_"  overflow="visible"/>
		</clipPath>
		<path clip-path="url(#SVGID_2_)" d="M135.189,113.694c0,0,0.268-0.184,0.769-0.527c0.231-0.166,0.514-0.355,0.854-0.605
			c0.34-0.246,0.724-0.535,1.15-0.863c0.848-0.664,1.847-1.502,2.909-2.531c1.055-1.031,2.169-2.268,3.149-3.723
			c0.968-1.449,1.804-3.162,2.001-4.957c0.1-0.895,0.035-1.801-0.252-2.666s-0.803-1.689-1.513-2.424
			c-0.709-0.734-1.598-1.383-2.6-1.92c-0.499-0.27-1.024-0.518-1.57-0.736c-0.27-0.117-0.552-0.213-0.83-0.318
			c-0.284-0.094-0.565-0.195-0.856-0.277c-1.155-0.354-2.361-0.623-3.592-0.826c-0.615-0.105-1.237-0.188-1.862-0.26
			c-0.634-0.076-1.308-0.164-1.961-0.266c-2.621-0.41-5.245-0.975-7.716-1.988c-1.231-0.51-2.425-1.137-3.497-1.965
			c-0.534-0.418-1.033-0.893-1.457-1.441c-0.423-0.549-0.768-1.18-0.957-1.863c-0.196-0.682-0.222-1.41-0.101-2.084
			c0.122-0.676,0.369-1.303,0.688-1.857c0.645-1.115,1.521-1.979,2.425-2.701c1.83-1.432,3.784-2.373,5.62-3.098
			c1.839-0.725,3.574-1.23,5.124-1.613c1.549-0.393,2.917-0.646,4.044-0.85c0.563-0.098,1.068-0.178,1.508-0.244
			c0.439-0.068,0.814-0.121,1.117-0.164c0.608-0.08,0.933-0.123,0.933-0.123c0.302-0.039,0.579,0.174,0.618,0.475
			c0.04,0.303-0.172,0.58-0.474,0.619c-0.007,0.002-0.014,0.002-0.021,0.002l-0.01,0.002c0,0-0.321,0.029-0.921,0.084
			c-0.601,0.057-1.48,0.152-2.593,0.324c-1.113,0.162-2.457,0.416-3.979,0.779c-1.517,0.375-3.215,0.873-4.989,1.598
			c-0.885,0.367-1.788,0.787-2.684,1.287c-0.895,0.498-1.784,1.074-2.598,1.77c-0.811,0.691-1.563,1.5-2.062,2.438
			c-0.246,0.467-0.425,0.963-0.487,1.469c-0.064,0.506-0.021,1.014,0.144,1.494c0.319,0.969,1.095,1.805,2.031,2.465
			c0.939,0.664,2.047,1.16,3.199,1.555c1.155,0.396,2.366,0.689,3.601,0.916c1.233,0.225,2.49,0.385,3.754,0.482
			c0.635,0.053,1.254,0.08,1.911,0.121c0.665,0.045,1.33,0.1,1.994,0.18c1.329,0.152,2.653,0.377,3.96,0.705
			c0.653,0.164,1.303,0.352,1.943,0.572c0.642,0.215,1.274,0.471,1.894,0.76c1.24,0.574,2.428,1.32,3.468,2.277
			c1.039,0.951,1.91,2.148,2.446,3.479c0.548,1.326,0.742,2.752,0.682,4.076c-0.029,0.666-0.113,1.311-0.242,1.928
			c-0.132,0.615-0.3,1.205-0.493,1.771c-0.399,1.123-0.885,2.148-1.413,3.078c-1.062,1.861-2.254,3.373-3.36,4.645
			c-1.113,1.266-2.154,2.287-3.03,3.102c-0.438,0.404-0.834,0.764-1.184,1.066c-0.346,0.307-0.663,0.566-0.909,0.777
			c-0.47,0.387-0.721,0.594-0.721,0.594c-1.066,0.879-2.644,0.727-3.522-0.34s-0.727-2.645,0.34-3.521
			C135.067,113.782,135.129,113.735,135.189,113.694"/>
		<path clip-path="url(#SVGID_2_)" fill="#4F5666" d="M79.325,143.349c0.856,1.951,3.29,1.941,4.047,3.273
			c1.166,2.051-1.595,2.33-2.772,1.432c-1.18-0.896-3.116,0.113-2.351,1.514c1.332,2.434,5.81,1.744,8.928,1.838
			c15.645,1.943,24.916,24.432,62.056,14.018c6.181-1.734,0.778-6.162-7.397-14.145c-7.162-6.992-8.565-14.207-8.735-20.43
			c-0.277-10.111,15.925-23.059,13.458-24.814l0.369-1.938c-1.033,1.533-12.569,15.463-25.372,12.27
			c-5.783-1.441-12.243-7.668-12.83-15.898c-0.777-10.877,1.715-15.063-7.128-10.428c-11.759,6.16-18.274,18.293-19.407,26.457
			c-1.464,10.541-0.111,12.873-5.362,17.691c-1.62,1.486-3.695,3.061-3.095,5.631c0.848,1.578,2.027,1.004,2.264-0.633
			s2.536-2.037,2.99-0.406C79.308,139.642,77.973,141.183,79.325,143.349"/>
		
			<path clip-path="url(#SVGID_2_)" fill="none" stroke="#000000" stroke-width="1.6" stroke-linejoin="round" stroke-miterlimit="10" d="
			M79.325,143.349c0.856,1.951,3.29,1.941,4.047,3.273c1.166,2.051-1.595,2.33-2.772,1.432c-1.18-0.896-3.116,0.113-2.351,1.514
			c1.332,2.434,5.81,1.744,8.928,1.838c15.645,1.943,24.916,24.432,62.056,14.018c6.181-1.734,0.778-6.162-7.397-14.145
			c-7.162-6.992-8.565-14.207-8.735-20.43c-0.277-10.111,15.925-23.059,13.458-24.814l0.369-1.938
			c-1.033,1.533-12.569,15.463-25.372,12.27c-5.783-1.441-12.243-7.668-12.83-15.898c-0.777-10.877,1.715-15.063-7.128-10.428
			c-11.759,6.16-18.274,18.293-19.407,26.457c-1.464,10.541-0.111,12.873-5.362,17.691c-1.62,1.486-3.695,3.061-3.095,5.631
			c0.848,1.578,2.027,1.004,2.264-0.633s2.536-2.037,2.99-0.406C79.308,139.642,77.973,141.183,79.325,143.349z"/>
		<path clip-path="url(#SVGID_2_)" d="M82.99,133.538c0.443,0.443,0.443,1.16,0,1.604c-0.443,0.441-1.16,0.443-1.603,0
			c-0.443-0.443-0.443-1.16,0-1.604C81.83,133.095,82.547,133.095,82.99,133.538"/>
		<path clip-path="url(#SVGID_2_)" d="M88.79,145.339c0.443,0.443,0.443,1.16,0,1.604c-0.442,0.441-1.16,0.441-1.603,0
			c-0.442-0.443-0.442-1.16,0-1.604S88.348,144.896,88.79,145.339"/>
		
			<path clip-path="url(#SVGID_2_)" fill="none" stroke="#000000" stroke-width="1.6" stroke-linecap="round" stroke-linejoin="round" stroke-miterlimit="10" d="
			M93.883,126.261c-1.402-1.779-4.869-2.684-4.869-2.684 M92.271,128.282c-1.4-1.777-4.867-2.682-4.867-2.682 M90.662,130.306
			c-1.402-1.777-4.868-2.684-4.868-2.684 M103.821,140.077c1.236,2.385,0.792,6.545,0.792,6.545 M101.161,140.794
			c1.236,2.385,0.792,6.545,0.792,6.545 M98.501,141.509c1.237,2.385,0.792,6.547,0.792,6.547"/>
		<path clip-path="url(#SVGID_2_)" fill="#E5E2D3" d="M276.293,89.94c0-2.35-1.903-4.252-4.251-4.252H244.14
			c14.247,0,11.621,6.877,0.525,6.877c0.002,0,0.003,0,0.003,0c2.283,0.184,3.889,0.811,4.827,1.625h15.353h7.194
			C274.39,94.19,276.293,92.288,276.293,89.94"/>
		
			<path clip-path="url(#SVGID_2_)" fill="none" stroke="#000000" stroke-width="1.6" stroke-linecap="round" stroke-linejoin="round" stroke-miterlimit="10" d="
			M276.293,89.94c0-2.35-1.903-4.252-4.251-4.252H244.14c14.247,0,11.621,6.877,0.525,6.877c0.002,0,0.003,0,0.003,0
			c2.283,0.184,3.889,0.811,4.827,1.625h15.353h7.194C274.39,94.19,276.293,92.288,276.293,89.94z"/>
		<path clip-path="url(#SVGID_2_)" fill="#E5E2D3" d="M268.641,98.755c0.186-2.305-1.506-4.324-3.793-4.564h-15.353
			c2.864,2.486-0.527,6.713-10.092,5.35c-0.003,0-0.007,0-0.011,0c1.264,0.322,2.167,0.801,2.728,1.35l15.237,1.223l6.706,0.539
			C266.404,102.841,268.453,101.095,268.641,98.755"/>
		
			<path clip-path="url(#SVGID_2_)" fill="none" stroke="#000000" stroke-width="1.6" stroke-linecap="round" stroke-linejoin="round" stroke-miterlimit="10" d="
			M268.641,98.755c0.186-2.305-1.506-4.324-3.793-4.564h-15.353c2.864,2.486-0.527,6.713-10.092,5.35c-0.003,0-0.007,0-0.011,0
			c1.264,0.322,2.167,0.801,2.728,1.35l15.237,1.223l6.706,0.539C266.404,102.841,268.453,101.095,268.641,98.755z"/>
		<path clip-path="url(#SVGID_2_)" fill="#E5E2D3" d="M260.831,106.897c0.325-2.279-1.224-4.389-3.475-4.783l-15.236-1.225
			c2.582,2.537-2.219,6.623-13.433,4.305c0.003,0,0.005,0,0.007,0.002c2.165,0.447,3.552,1.186,4.281,2.014l17.071,2.441
			l5.974,0.854C258.345,110.835,260.498,109.222,260.831,106.897"/>
		
			<path clip-path="url(#SVGID_2_)" fill="none" stroke="#000000" stroke-width="1.6" stroke-linecap="round" stroke-linejoin="round" stroke-miterlimit="10" d="
			M260.831,106.897c0.325-2.279-1.224-4.389-3.475-4.783l-15.236-1.225c2.582,2.537-2.219,6.623-13.433,4.305
			c0.003,0,0.005,0,0.007,0.002c2.165,0.447,3.552,1.186,4.281,2.014l17.071,2.441l5.974,0.854
			C258.345,110.835,260.498,109.222,260.831,106.897z"/>
		<path clip-path="url(#SVGID_2_)" fill="#E5E2D3" d="M252.827,114.528c0.438-2.121-0.786-4.193-2.78-4.877l-17.071-2.441
			c2.071,2.355-1.18,5.465-7.16,4.906c-1.74-0.164-3.714-0.639-5.854-1.535c0.692,0.434,1.123,1.07,1.254,1.75l19.435,4.02
			l7.152,1.479C250.102,118.306,252.352,116.827,252.827,114.528"/>
		
			<path clip-path="url(#SVGID_2_)" fill="none" stroke="#000000" stroke-width="1.6" stroke-linecap="round" stroke-linejoin="round" stroke-miterlimit="10" d="
			M252.827,114.528c0.438-2.121-0.786-4.193-2.78-4.877l-17.071-2.441c2.071,2.355-1.18,5.465-7.16,4.906
			c-1.74-0.164-3.714-0.639-5.854-1.535c0.692,0.434,1.123,1.07,1.254,1.75l19.435,4.02l7.152,1.479
			C250.102,118.306,252.352,116.827,252.827,114.528z"/>
		<path clip-path="url(#SVGID_2_)" fill="#E5E2D3" d="M244.501,121.87c0.645-2.258-0.664-4.609-2.921-5.254l-0.931-0.266
			l-19.434-4.02c0.449,2.33-2.633,5.158-10.881,1.939c0.437,0.176,0.822,0.377,1.156,0.596c1.1,0.721,1.646,1.629,1.652,2.473
			l20.351,5.811l5.752,1.643C241.504,125.437,243.855,124.128,244.501,121.87"/>
		
			<path clip-path="url(#SVGID_2_)" fill="none" stroke="#000000" stroke-width="1.6" stroke-linecap="round" stroke-linejoin="round" stroke-miterlimit="10" d="
			M244.501,121.87c0.645-2.258-0.664-4.609-2.921-5.254l-0.931-0.266l-19.434-4.02c0.449,2.33-2.633,5.158-10.881,1.939
			c0.437,0.176,0.822,0.377,1.156,0.596c1.1,0.721,1.646,1.629,1.652,2.473l20.351,5.811l5.752,1.643
			C241.504,125.437,243.855,124.128,244.501,121.87z"/>
		<path clip-path="url(#SVGID_2_)" fill="#E5E2D3" d="M235.936,128.608c0.822-2.184-0.271-4.617-2.441-5.459l-20.351-5.809
			c0.021,2.1-3.293,3.801-9.718,1.207c-0.136-0.057-0.272-0.113-0.412-0.172c1.789,0.977,2.997,2.385,3.612,3.746l17.569,6.609
			l6.265,2.359C232.657,131.917,235.109,130.806,235.936,128.608"/>
		
			<path clip-path="url(#SVGID_2_)" fill="none" stroke="#000000" stroke-width="1.6" stroke-linecap="round" stroke-linejoin="round" stroke-miterlimit="10" d="
			M235.936,128.608c0.822-2.184-0.271-4.617-2.441-5.459l-20.351-5.809c0.021,2.1-3.293,3.801-9.718,1.207
			c-0.136-0.057-0.272-0.113-0.412-0.172c1.789,0.977,2.997,2.385,3.612,3.746l17.569,6.609l6.265,2.359
			C232.657,131.917,235.109,130.806,235.936,128.608z"/>
		<path clip-path="url(#SVGID_2_)" fill="#E5E2D3" d="M227.045,134.864c1.034-2.107,0.163-4.654-1.945-5.689l-0.905-0.443
			l-17.568-6.609c1.394,3.08-0.259,5.904-5.116,2.838c-0.002-0.002-0.003-0.002-0.005-0.004c1.37,0.898,2.301,2.188,2.794,3.488
			l12.148,5.957l4.908,2.408C223.464,137.843,226.011,136.972,227.045,134.864"/>
		
			<path clip-path="url(#SVGID_2_)" fill="none" stroke="#000000" stroke-width="1.6" stroke-linecap="round" stroke-linejoin="round" stroke-miterlimit="10" d="
			M227.045,134.864c1.034-2.107,0.163-4.654-1.945-5.689l-0.905-0.443l-17.568-6.609c1.394,3.08-0.259,5.904-5.116,2.838
			c-0.002-0.002-0.003-0.002-0.005-0.004c1.37,0.898,2.301,2.188,2.794,3.488l12.148,5.957l4.908,2.408
			C223.464,137.843,226.011,136.972,227.045,134.864z"/>
		<path clip-path="url(#SVGID_2_)" fill="#E5E2D3" d="M217.943,140.378c1.254-1.986,0.663-4.611-1.322-5.865l-0.174-0.111
			l-12.149-5.957c1.386,3.652-0.675,7.4-6.119,2.871c-0.001-0.002-0.002-0.002-0.003-0.002c1.064,0.887,1.64,1.848,1.837,2.758
			l6.147,3.887l5.918,3.742C214.063,142.954,216.688,142.36,217.943,140.378"/>
		
			<path clip-path="url(#SVGID_2_)" fill="none" stroke="#000000" stroke-width="1.6" stroke-linecap="round" stroke-linejoin="round" stroke-miterlimit="10" d="
			M217.943,140.378c1.254-1.986,0.663-4.611-1.322-5.865l-0.174-0.111l-12.149-5.957c1.386,3.652-0.675,7.4-6.119,2.871
			c-0.001-0.002-0.002-0.002-0.003-0.002c1.064,0.887,1.64,1.848,1.837,2.758l6.147,3.887l5.918,3.742
			C214.063,142.954,216.688,142.36,217.943,140.378z"/>
		<path clip-path="url(#SVGID_2_)" fill="#E5E2D3" d="M208.438,145.384c1.502-1.805,1.256-4.484-0.549-5.986l-1.729-1.439
			l-6.148-3.887c0.727,3.352-3.694,5.998-7.771,1.523c0.383,0.42,0.662,0.82,0.854,1.203c0.299,0.59,0.385,1.129,0.304,1.602
			l4.777,3.975l4.275,3.559C204.256,147.435,206.937,147.188,208.438,145.384"/>
		
			<path clip-path="url(#SVGID_2_)" fill="none" stroke="#000000" stroke-width="1.6" stroke-linecap="round" stroke-linejoin="round" stroke-miterlimit="10" d="
			M208.438,145.384c1.502-1.805,1.256-4.484-0.549-5.986l-1.729-1.439l-6.148-3.887c0.727,3.352-3.694,5.998-7.771,1.523
			c0.383,0.42,0.662,0.82,0.854,1.203c0.299,0.59,0.385,1.129,0.304,1.602l4.777,3.975l4.275,3.559
			C204.256,147.435,206.937,147.188,208.438,145.384z"/>
		<path clip-path="url(#SVGID_2_)" fill="#E5E2D3" d="M176.196,130.872c-1.487,1.084-3.083,2.176-4.805,3.275
			c0,0,8.803,11.287,12.272,4.922l7.101,7.795l0.183,0.26c1.354,1.918,0.896,4.57-1.024,5.924c-1.918,1.352-4.57,0.895-5.924-1.025
			l-12.607-17.875"/>
		
			<path clip-path="url(#SVGID_2_)" fill="none" stroke="#000000" stroke-width="1.6" stroke-linecap="round" stroke-linejoin="round" stroke-miterlimit="10" d="
			M176.196,130.872c-1.487,1.084-3.083,2.176-4.805,3.275c0,0,8.803,11.287,12.272,4.922l7.101,7.795l0.183,0.26
			c1.354,1.918,0.896,4.57-1.024,5.924c-1.918,1.352-4.57,0.895-5.924-1.025l-12.607-17.875"/>
		<path clip-path="url(#SVGID_2_)" fill="#E5E2D3" d="M198.954,149.54c1.735-1.58,1.86-4.27,0.278-6.006l-1.056-1.16l-4.777-3.975
			c-0.457,2.693-6.274,3.303-9.142-0.762c-0.174,0.555-0.373,1.027-0.594,1.432l7.101,7.795l2.183,2.396
			C194.528,150.995,197.218,151.12,198.954,149.54"/>
		
			<path clip-path="url(#SVGID_2_)" fill="none" stroke="#000000" stroke-width="1.6" stroke-linecap="round" stroke-linejoin="round" stroke-miterlimit="10" d="
			M198.954,149.54c1.735-1.58,1.86-4.27,0.278-6.006l-1.056-1.16l-4.777-3.975c-0.457,2.693-6.274,3.303-9.142-0.762
			c-0.174,0.555-0.373,1.027-0.594,1.432l7.101,7.795l2.183,2.396C194.528,150.995,197.218,151.12,198.954,149.54z"/>
		<path clip-path="url(#SVGID_2_)" fill="#E5E2D3" d="M219.962,110.583c-0.264-0.164-0.563-0.301-0.899-0.396
			C219.365,110.327,219.664,110.458,219.962,110.583"/>
		
			<path clip-path="url(#SVGID_2_)" fill="none" stroke="#000000" stroke-width="1.6" stroke-linecap="round" stroke-linejoin="round" stroke-miterlimit="10" d="
			M219.962,110.583c-0.264-0.164-0.563-0.301-0.899-0.396C219.365,110.327,219.664,110.458,219.962,110.583z"/>
		<path clip-path="url(#SVGID_2_)" fill="#E5E2D3" d="M183.664,139.069c0.221-0.404,0.42-0.877,0.594-1.432
			c2.867,4.064,8.686,3.455,9.143,0.762c0.079-0.475-0.007-1.012-0.305-1.602c-0.192-0.381-0.472-0.783-0.854-1.203
			c4.075,4.473,8.496,1.83,7.77-1.523c-0.197-0.91-0.771-1.871-1.836-2.758l0.003,0.002c5.445,4.529,7.505,0.781,6.12-2.871
			c-0.494-1.301-1.424-2.59-2.794-3.488l0.005,0.004c4.857,3.066,6.51,0.242,5.116-2.838c-0.615-1.361-1.823-2.77-3.612-3.746
			c0.14,0.059,0.276,0.115,0.412,0.172c6.425,2.594,9.738,0.893,9.718-1.207c-0.007-0.846-0.553-1.754-1.652-2.475
			c-0.334-0.219-0.72-0.42-1.156-0.598c8.248,3.221,11.33,0.391,10.881-1.938c-0.131-0.68-0.562-1.316-1.254-1.748
			c-0.297-0.125-0.596-0.256-0.899-0.396c0.336,0.096,0.637,0.232,0.899,0.396c2.14,0.895,4.113,1.369,5.855,1.533
			c5.979,0.559,9.229-2.551,7.158-4.906c-0.729-0.83-2.116-1.566-4.281-2.016c-0.002,0-0.004,0-0.007,0
			c11.214,2.318,16.015-1.768,13.433-4.305c-0.561-0.549-1.464-1.027-2.728-1.35c0.003,0,0.008,0,0.011,0
			c9.564,1.363,12.956-2.863,10.092-5.35c-0.938-0.814-2.544-1.441-4.825-1.625c0,0-0.003-0.002-0.005-0.002
			c11.096,0,13.722-6.875-0.525-6.875c-15.743,0-25.446,1.537-31.921,4.27l-0.232-0.02c0,0.039,0.005,0.078,0.006,0.115
			c-2.954,1.275-5.228,2.805-7.095,4.555c-0.091,0.084-0.182,0.17-0.271,0.256c-1.441,1.398-2.638,2.932-3.727,4.584
			c-0.562,0.852-1.095,1.734-1.616,2.646c-0.393,0.688-0.78,1.393-1.169,2.113c-0.528,0.975-1.061,1.98-1.615,3.012
			c-0.294,0.549-0.595,1.102-0.906,1.666c-0.534,0.965-1.096,1.951-1.701,2.959c-0.309,0.512-0.629,1.031-0.963,1.555
			c-0.595,0.934-1.23,1.881-1.921,2.844c-0.336,0.469-0.685,0.941-1.047,1.416c-0.676,0.885-1.399,1.779-2.18,2.686
			c-0.381,0.441-0.774,0.887-1.185,1.334c-0.733,0.803-1.516,1.611-2.349,2.428c-0.468,0.457-0.955,0.918-1.457,1.379
			c-0.756,0.697-1.55,1.396-2.388,2.1c-0.66,0.553-1.347,1.109-2.061,1.668c-0.688,0.537-1.405,1.076-2.147,1.619
			c-1.487,1.084-3.082,2.176-4.805,3.275C171.392,134.147,180.195,145.435,183.664,139.069"/>
		
			<path clip-path="url(#SVGID_2_)" fill="none" stroke="#000000" stroke-width="1.6" stroke-linecap="round" stroke-linejoin="round" stroke-miterlimit="10" d="
			M183.664,139.069c0.221-0.404,0.42-0.877,0.594-1.432c2.867,4.064,8.686,3.455,9.143,0.762c0.079-0.475-0.007-1.012-0.305-1.602
			c-0.192-0.381-0.472-0.783-0.854-1.203c4.075,4.473,8.496,1.83,7.77-1.523c-0.197-0.91-0.771-1.871-1.836-2.758l0.003,0.002
			c5.445,4.529,7.505,0.781,6.12-2.871c-0.494-1.301-1.424-2.59-2.794-3.488l0.005,0.004c4.857,3.066,6.51,0.242,5.116-2.838
			c-0.615-1.361-1.823-2.77-3.612-3.746c0.14,0.059,0.276,0.115,0.412,0.172c6.425,2.594,9.738,0.893,9.718-1.207
			c-0.007-0.846-0.553-1.754-1.652-2.475c-0.334-0.219-0.72-0.42-1.156-0.598c8.248,3.221,11.33,0.391,10.881-1.938
			c-0.131-0.68-0.562-1.316-1.254-1.748c-0.297-0.125-0.596-0.256-0.899-0.396c0.336,0.096,0.637,0.232,0.899,0.396
			c2.14,0.895,4.113,1.369,5.855,1.533c5.979,0.559,9.229-2.551,7.158-4.906c-0.729-0.83-2.116-1.566-4.281-2.016
			c-0.002,0-0.004,0-0.007,0c11.214,2.318,16.015-1.768,13.433-4.305c-0.561-0.549-1.464-1.027-2.728-1.35c0.003,0,0.008,0,0.011,0
			c9.564,1.363,12.956-2.863,10.092-5.35c-0.938-0.814-2.544-1.441-4.825-1.625c0,0-0.003-0.002-0.005-0.002
			c11.096,0,13.722-6.875-0.525-6.875c-15.743,0-25.446,1.537-31.921,4.27l-0.232-0.02c0,0.039,0.005,0.078,0.006,0.115
			c-2.954,1.275-5.228,2.805-7.095,4.555c-0.091,0.084-0.182,0.17-0.271,0.256c-1.441,1.398-2.638,2.932-3.727,4.584
			c-0.562,0.852-1.095,1.734-1.616,2.646c-0.393,0.688-0.78,1.393-1.169,2.113c-0.528,0.975-1.061,1.98-1.615,3.012
			c-0.294,0.549-0.595,1.102-0.906,1.666c-0.534,0.965-1.096,1.951-1.701,2.959c-0.309,0.512-0.629,1.031-0.963,1.555
			c-0.595,0.934-1.23,1.881-1.921,2.844c-0.336,0.469-0.685,0.941-1.047,1.416c-0.676,0.885-1.399,1.779-2.18,2.686
			c-0.381,0.441-0.774,0.887-1.185,1.334c-0.733,0.803-1.516,1.611-2.349,2.428c-0.468,0.457-0.955,0.918-1.457,1.379
			c-0.756,0.697-1.55,1.396-2.388,2.1c-0.66,0.553-1.347,1.109-2.061,1.668c-0.688,0.537-1.405,1.076-2.147,1.619
			c-1.487,1.084-3.082,2.176-4.805,3.275C171.392,134.147,180.195,145.435,183.664,139.069z"/>
	</g>
</g>
</svg>
