<?xml version="1.0" encoding="utf-8"?>
<!-- Generator: Adobe Illustrator 16.0.0, SVG Export Plug-In . SVG Version: 6.00 Build 0)  -->
<!DOCTYPE svg PUBLIC "-//W3C//DTD SVG 1.1//EN" "http://www.w3.org/Graphics/SVG/1.1/DTD/svg11.dtd">
<svg version="1.1" xmlns="http://www.w3.org/2000/svg" xmlns:xlink="http://www.w3.org/1999/xlink" x="0px" y="0px"
	 width="566.93px" height="566.93px" viewBox="0 0 566.93 566.93" enable-background="new 0 0 566.93 566.93" xml:space="preserve">
<g id="fond" display="none">
	
		<rect x="-10187.873" y="-8228.754" display="inline" fill-rule="evenodd" clip-rule="evenodd" fill="#58595B" width="15942.492" height="15814.695"/>
</g>
<g id="en_cours">
</g>
<g id="fini">
	<g>
		<g>
			<g>
				<path fill-rule="evenodd" clip-rule="evenodd" fill="#29251B" d="M219.398,276.128c13.098-27.451,33.637-50.377,59.397-66.299
					c1.048-0.648,2.111-1.264,3.172-1.887c0.083-1.775,0.13-3.563,0.13-5.359c0-62.254-50.467-112.721-112.721-112.721
					S56.656,140.329,56.656,202.583s50.467,112.721,112.721,112.721c13.578,0,26.596-2.402,38.65-6.803
					C210.609,297.458,214.396,286.61,219.398,276.128z"/>
			</g>
			<path fill-rule="evenodd" clip-rule="evenodd" fill="#BFAE76" d="M162.516,114.087c2.086,1.408,4.375,2.594,6.221,4.266
				c5.945,5.383,12.027,10.668,17.461,16.541c3.494,3.777,5.77,8.648,8.902,12.797c3.371,4.465,3.938,9.713,4.686,14.891
				c0.508,3.521,0.82,7.17,0.471,10.686c-0.355,3.59-1.409,7.16-2.545,10.611c-1.995,6.059-4.814,11.656-9.646,16.102
				c-5.145,4.738-10.09,9.689-15.12,14.551c-4.554,4.4-7.946,9.518-10.706,15.266c-2.677,5.582-4.229,11.207-3.723,17.322
				c0.193,2.313,0.994,4.576,1.519,6.863c0.349,2.174,0.802,4.338,1.025,6.525c0.43,4.195,0.687,8.406,1.108,12.604
				c0.116,1.15,0.434,2.324,0.885,3.393c1.195,2.84,2.662,5.572,3.752,8.449c2.043,5.389,5.417,9.574,10.432,12.424
				c-2.878,1.086-5.239-0.691-7.485-1.775c-6.929-3.348-12.293-8.684-16.993-14.684c-2.708-3.457-5.425-6.924-7.85-10.576
				c-0.844-1.27-0.826-3.111-1.196-4.693c-1.583-6.758-1.636-13.619-0.223-20.318c0.786-3.734,2.955-7.174,4.477-10.758
				c3-7.074,8.919-11.596,14.577-16.211c7.563-6.166,14.83-12.572,20.713-20.406c2.215-2.947,4.313-5.982,6.464-8.977
				c-0.271-0.211-0.539-0.42-0.81-0.629c-1.936,2.084-3.784,4.256-5.826,6.229c-2.961,2.863-6.038,5.609-9.138,8.324
				c-0.364,0.318-1.173,0.131-1.776,0.178c0.146-1.611,0.338-3.221,0.428-4.836c0.207-3.703,0.148-7.436,0.584-11.113
				c1.074-9.066,2.145-18.133,1.482-27.275c-0.282-3.9-0.885-7.787-1.533-11.646c-0.557-3.326-1.301-6.627-2.114-9.9
				c-1.237-4.977-2.37-9.998-3.999-14.85C165.922,120.198,164.043,117.202,162.516,114.087z"/>
			<path fill-rule="evenodd" clip-rule="evenodd" fill="#E5E2D3" d="M162.516,114.087c1.527,3.115,3.406,6.111,4.502,9.371
				c1.629,4.852,2.762,9.873,3.999,14.85c0.813,3.273,1.558,6.574,2.114,9.9c0.648,3.859,1.251,7.746,1.533,11.646
				c0.662,9.143-0.408,18.209-1.482,27.275c-0.436,3.678-0.377,7.41-0.584,11.113c-0.09,1.615-0.281,3.225-0.428,4.836
				c-1.87,4.252-5.731,6.762-8.811,9.941c-1.112,1.15-2.249,1.676-3.646-0.402c-2.55-3.797-6.152-6.939-8.384-10.881
				c-2.089-3.693-3.77-7.984-4.213-12.164c-0.836-7.898,0.104-15.711,3.642-23.129c3.536-7.412,6.455-15.119,9.875-22.592
				c2.72-5.941,1.332-12.008,1.067-18.049c-0.102-2.309-0.311-4.652-0.844-6.891c-0.635-2.664-1.672-5.23-2.645-8.176
				c1.228,0.975,2.354,1.865,3.479,2.76c0.313,0.199,0.628,0.396,0.94,0.598L162.516,114.087z"/>
			<path fill-rule="evenodd" clip-rule="evenodd" fill="#FFFFFF" d="M122.648,113.638c9.797-0.131,13.061,11.055,9.946,17.211
				c-3.394,6.709-8.769,11.482-14.24,16.264c-1.64,1.434-3.353,2.787-4.956,4.262c-4.821,4.428-9.726,8.801-15.722,11.547
				c-2.706,1.238-5.747,1.977-8.712,2.359c-4.14,0.535-6.615-2.486-5.475-6.482c1.276-4.48,2.423-9.066,4.35-13.275
				c3.116-6.807,7.313-12.943,12.578-18.414c3.274-3.404,6.406-6.877,10.514-9.252c1.793-1.035,3.742-1.846,5.696-2.543
				C118.585,114.616,120.638,114.187,122.648,113.638z"/>
			<path fill-rule="evenodd" clip-rule="evenodd" fill="#E5E2D3" d="M177.236,297.376c-5.015-2.85-8.389-7.035-10.432-12.424
				c-1.09-2.877-2.557-5.609-3.752-8.449c-0.451-1.068-0.769-2.242-0.885-3.393c-0.422-4.197-0.679-8.408-1.108-12.604
				c-0.224-2.188-0.677-4.352-1.025-6.525c0.349-1.453,1.051-2.92,0.991-4.355c-0.434-10.514,4.222-18.836,10.984-26.32
				c1.423-1.576,2.734-3.252,4.531-5.398c0.926,3.115,1.523,5.219,2.177,7.305c0.402,1.279,0.66,2.682,1.375,3.771
				c4.911,7.479,2.983,15.006,0.282,22.535c-2.324,6.479-5.16,12.813-6.943,19.434c-0.937,3.48-0.563,7.512,0.042,11.158
				C174.328,287.265,175.944,292.294,177.236,297.376z"/>
			<path fill-rule="evenodd" clip-rule="evenodd" fill="#00FE00" d="M162.633,114.095c-0.313-0.201-0.627-0.398-0.94-0.598
				C162.006,113.696,162.32,113.894,162.633,114.095z"/>
		</g>
		<g>
			<g>
				<circle fill-rule="evenodd" clip-rule="evenodd" fill="#29251B" cx="361.999" cy="344.168" r="151.001"/>
			</g>
			<path fill-rule="evenodd" clip-rule="evenodd" fill="#E5E2D3" d="M404.752,233.216c1.71,2.906,3.795,5.658,5.061,8.746
				c4.083,9.938,8.389,19.836,11.57,30.07c2.045,6.582,1.985,13.787,3.38,20.607c1.501,7.342-0.842,14.014-2.925,20.707
				c-1.418,4.549-3.144,9.139-5.596,13.189c-2.5,4.135-5.834,7.844-9.198,11.361c-5.908,6.174-12.544,11.314-20.95,13.904
				c-8.953,2.758-17.788,5.893-26.674,8.869c-8.043,2.691-15.099,6.922-21.751,12.281c-6.456,5.201-11.577,11.109-14.492,18.793
				c-1.103,2.91-1.439,6.109-2.124,9.176c-0.834,2.828-1.533,5.705-2.525,8.48c-1.9,5.318-4.019,10.561-5.93,15.877
				c-0.524,1.459-0.816,3.059-0.888,4.611c-0.193,4.123,0.005,8.273-0.337,12.381c-0.639,7.691,1.025,14.699,5.444,21.039
				c-4.106-0.35-5.937-3.859-8.024-6.467c-6.447-8.043-9.854-17.588-12.077-27.557c-1.278-5.74-2.563-11.498-3.389-17.314
				c-0.287-2.02,0.798-4.238,1.263-6.363c1.984-9.082,5.878-17.41,11.451-24.693c3.105-4.063,7.711-6.971,11.618-10.426
				c7.707-6.82,17.472-8.873,26.976-11.189c12.7-3.092,25.183-6.645,36.813-12.723c4.38-2.285,8.666-4.744,12.995-7.125
				c-0.206-0.408-0.41-0.818-0.616-1.227c-3.543,1.402-7.03,2.963-10.637,4.17c-5.233,1.752-10.536,3.297-15.851,4.793
				c-0.624,0.176-1.493-0.518-2.249-0.811c1.104-1.863,2.265-3.699,3.307-5.6c2.386-4.357,4.469-8.906,7.116-13.098
				c6.527-10.344,13.052-20.688,17.525-32.125c1.909-4.877,3.421-9.922,4.865-14.965c1.245-4.342,2.249-8.762,3.154-13.189
				c1.374-6.729,2.905-13.453,3.731-20.258C405.345,242.569,404.802,237.862,404.752,233.216z"/>
			<path fill-rule="evenodd" clip-rule="evenodd" fill="#BFAE76" d="M404.752,233.216c0.05,4.646,0.593,9.354,0.037,13.928
				c-0.826,6.805-2.357,13.529-3.731,20.258c-0.905,4.428-1.909,8.848-3.154,13.189c-1.444,5.043-2.956,10.088-4.865,14.965
				c-4.474,11.438-10.998,21.781-17.525,32.125c-2.647,4.191-4.73,8.74-7.116,13.098c-1.042,1.9-2.202,3.736-3.307,5.6
				c-4.716,4.063-10.832,4.869-16.389,6.938c-2.007,0.748-3.686,0.729-4.175-2.59c-0.893-6.061-3.437-11.938-3.859-17.992
				c-0.396-5.67,0.049-11.828,1.924-17.135c3.544-10.033,9.189-18.938,17.744-25.863c8.552-6.924,16.526-14.557,24.972-21.619
				c6.715-5.611,8.537-13.748,11.703-21.205c1.207-2.852,2.307-5.805,2.954-8.818c0.769-3.586,0.997-7.289,1.519-11.41
				c0.923,1.887,1.771,3.615,2.615,5.344c0.265,0.424,0.529,0.842,0.793,1.266L404.752,233.216z"/>
			<path fill-rule="evenodd" clip-rule="evenodd" fill="#FFFFFF" d="M299.4,225.017c13.123-0.176,17.494,14.809,13.324,23.057
				c-4.546,8.986-11.746,15.381-19.075,21.785c-2.197,1.922-4.493,3.736-6.64,5.709c-6.459,5.932-13.028,11.791-21.063,15.467
				c-3.624,1.66-7.699,2.65-11.67,3.164c-5.545,0.717-8.86-3.334-7.333-8.684c1.71-6.004,3.246-12.148,5.827-17.787
				c4.174-9.117,9.797-17.336,16.85-24.666c4.386-4.561,8.581-9.211,14.084-12.393c2.401-1.389,5.014-2.473,7.63-3.406
				C293.957,226.327,296.708,225.751,299.4,225.017z"/>
			<path fill-rule="evenodd" clip-rule="evenodd" fill="#BFAE76" d="M316.817,463.31c-4.419-6.34-6.083-13.348-5.444-21.039
				c0.342-4.107,0.144-8.258,0.337-12.381c0.071-1.553,0.363-3.152,0.888-4.611c1.911-5.316,4.029-10.559,5.93-15.877
				c0.992-2.775,1.691-5.652,2.525-8.48c1.26-1.555,2.955-2.926,3.711-4.695c5.539-12.963,15.971-20.338,28.463-25.486
				c2.631-1.084,5.182-2.354,8.593-3.912c-0.678,4.303-1.169,7.189-1.581,10.088c-0.254,1.779-0.75,3.621-0.514,5.354
				c1.623,11.875-5.049,19.861-12.658,27.406c-6.549,6.494-13.631,12.516-19.605,19.492c-3.141,3.666-5.015,8.756-6.387,13.516
				C319.134,449.407,318.188,456.419,316.817,463.31z"/>
			<path fill-rule="evenodd" clip-rule="evenodd" fill="#00FE00" d="M404.891,233.292c-0.264-0.424-0.528-0.842-0.793-1.266
				C404.362,232.45,404.627,232.868,404.891,233.292z"/>
		</g>
	</g>
</g>
</svg>
