<?xml version="1.0" encoding="utf-8"?>
<!-- Generator: Adobe Illustrator 16.0.0, SVG Export Plug-In . SVG Version: 6.00 Build 0)  -->
<!DOCTYPE svg PUBLIC "-//W3C//DTD SVG 1.1//EN" "http://www.w3.org/Graphics/SVG/1.1/DTD/svg11.dtd">
<svg version="1.1" xmlns="http://www.w3.org/2000/svg" xmlns:xlink="http://www.w3.org/1999/xlink" x="0px" y="0px"
	 width="566.93px" height="566.93px" viewBox="0 0 566.93 566.93" enable-background="new 0 0 566.93 566.93" xml:space="preserve">
<g id="fond" display="none">
	
		<rect x="-8249.873" y="-7591.898" display="inline" fill-rule="evenodd" clip-rule="evenodd" fill="#58595B" width="15942.492" height="15814.695"/>
</g>
<g id="en_cours">
</g>
<g id="fini">
	<g>
		<path fill-rule="evenodd" clip-rule="evenodd" fill="#BFAE76" d="M352.313,541.269c-1.527-0.077-2.55,0.222-3.315,1.939
			c-1.021,2.289-3.565,3.218-5.559,4.604c-2.088,1.451-4.145,2.956-6.292,4.316c-2.249,1.425-4.565,2.749-6.896,4.038
			c-1.81,0.999-3.688,1.875-5.536,2.807c-1.391,0-2.782,0-4.173,0c-1.255-0.531-2.518-1.044-3.764-1.598
			c-3.837-1.702-6.047-4.83-7.584-8.587c-1.136-2.777-2.285-5.564-1.779-8.636c0.562-3.406,0.972-6.822,2.491-10.046
			c1.729-3.666,2.847-7.622,4.617-11.266c1.171-2.411,3.022-4.491,4.569-6.72c0.801-1.153,1.581-2.319,2.412-3.451
			c0.377-0.511,0.854-0.948,1.284-1.418c0.265,0.005,0.548,0.075,0.792,0.005c4.464-1.291,8.951-0.659,13.307,0.275
			c5.587,1.2,9.059,5.377,11.834,10.002c2.269,3.781,3.701,7.898,3.983,12.425C352.941,533.764,353.258,537.525,352.313,541.269z"/>
		<path fill-rule="evenodd" clip-rule="evenodd" fill="#BFAE76" d="M403.981,7.957c2.034,1.197,2.084,3.118,1.872,5.135
			c-2.464,2.633-5.832,2.47-8.996,2.838c-1.914,0.223-3.873,0.065-5.788,0.282c-3.289,0.374-6.562,0.908-9.84,1.372
			c-2.697,0.382-5.409,0.682-8.09,1.158c-3.442,0.612-6.85,1.425-10.293,2.035c-2.631,0.466-5.352,0.517-7.928,1.168
			c-4.329,1.095-8.569,2.533-12.856,3.801c-1.435,0.423-2.905,0.724-4.337,1.153c-1.522,0.457-2.994,1.108-4.534,1.478
			c-1.699,0.408-3.502,0.425-5.169,0.917c-2.207,0.653-4.318,1.625-6.486,2.418c-3.26,1.192-6.53,2.357-9.803,3.517
			c-3.032,1.074-6.049,2.205-9.118,3.162c-2.331,0.727-4.756,1.151-7.103,1.832c-4.813,1.396-9.563,3.023-14.411,4.269
			c-3.733,0.959-7.606,1.365-11.37,2.228c-6.254,1.433-12.499,2.929-18.691,4.606c-3.913,1.061-7.723,2.501-11.58,3.767
			c-2.067,0.678-4.139,1.345-6.207,2.017c-2.308-0.854-3.31-2.418-2.49-4.566c0.352-0.923,1.421-1.823,2.377-2.224
			c4.323-1.811,8.693-3.528,13.108-5.105c2.994-1.07,6.079-1.903,9.15-2.746c1.747-0.479,3.541-0.8,5.326-1.128
			c2.145-0.395,4.316-0.654,6.452-1.09c4.318-0.881,8.639-1.77,12.924-2.796c2.547-0.61,5.033-1.473,7.539-2.25
			c2.313-0.717,4.604-1.511,6.925-2.198c4.849-1.436,9.706-2.837,14.566-4.228c4.058-1.161,7.907-2.851,11.826-4.388
			c3.677-1.442,7.627-2.18,11.438-3.29c1.919-0.559,3.765-1.638,5.701-1.807c3.172-0.278,6.086-1.382,8.956-2.446
			c3.438-1.275,7.001-1.49,10.513-2.145c2.709-0.505,5.433-0.932,8.146-1.41c3.993-0.702,7.959-1.689,11.981-2.061
			c5.562-0.515,11.083-1.353,16.63-1.864c2.862-0.263,5.633-0.642,8.375-1.412C403.125,7.957,403.554,7.957,403.981,7.957z"/>
		<path fill-rule="evenodd" clip-rule="evenodd" fill="#BFAE76" d="M95.312,509.872c-2.471,2.271-5.499,3.48-8.597,4.589
			c-3.047,1.09-6.306,1.378-9.335,2.317c-2.264,0.703-4.516,0.869-6.61,0.647c-2.621-0.276-5.389-0.833-7.571-2.809
			c-1.392-1.261-3.313-1.987-4.084-3.855c-0.834-2.023-1.502-4.114-2.271-6.166c-0.19-0.508-0.489-0.976-0.737-1.463
			c0-0.428,0-0.856,0-1.284c0.107-0.529,0.257-1.054,0.313-1.589c0.233-2.184-0.08-4.603,0.772-6.502
			c1.313-2.921,2.898-5.793,5.439-8.043c1.907-1.69,3.354-3.894,5.087-5.795c0.649-0.714,1.482-1.295,2.315-1.798
			c1.396-0.844,2.858-1.579,4.298-2.352c0.224-0.12,0.472-0.194,0.709-0.29c2.813,0.572,5.081,2.016,6.91,4.224
			c1.866,2.254,3.888,4.386,5.663,6.707c0.997,1.306,1.7,2.857,2.4,4.359c0.307,0.658,0.168,1.512,0.415,2.21
			c1.115,3.14,2.959,6,3.497,9.366C94.33,504.864,94.846,507.364,95.312,509.872z"/>
		<path fill-rule="evenodd" clip-rule="evenodd" fill="#E5E2D3" d="M95.312,509.872c-0.466-2.508-0.981-5.008-1.385-7.525
			c-0.538-3.366-2.382-6.227-3.497-9.366c-0.247-0.698-0.108-1.552-0.415-2.21c-0.7-1.502-1.403-3.054-2.4-4.359
			c-1.775-2.321-3.797-4.453-5.663-6.707c-1.829-2.208-4.097-3.651-6.91-4.224c1.804-1.162,3.141-2.96,5.398-3.551
			c1.069-0.28,1.885-1.411,2.92-1.961c2.483-1.317,5.112-2.379,7.523-3.812c1.804-1.07,3.361-2.555,5.024-3.862
			c0.363-0.284,0.663-0.682,1.065-0.877c3.378-1.646,5.968-4.292,8.727-6.736c1.652-1.463,3.448-2.764,5.094-4.233
			c0.896-0.8,1.704-1.732,2.394-2.718c1.345-1.923,2.665-3.769,4.711-5.125c0.915-0.605,1.148-2.205,1.756-3.317
			c2.51-4.591,4.436-9.412,6.151-14.356c1.437-4.139,3.258-8.135,5.202-12.094c2.739-5.574,5.736-10.956,9.186-16.107
			c2.387-3.567,4.569-7.279,7.095-10.744c2.863-3.928,5.998-7.658,9.032-11.461c1.858-2.33,3.74-4.643,5.636-6.943
			c0.413-0.502,0.942-0.907,1.394-1.38c2.07-2.17,4.05-4.432,6.22-6.496c2.089-1.986,4.195-4.043,6.602-5.59
			c5.175-3.327,10.056-7.014,14.734-10.984c3.895-3.306,7.623-6.82,11.654-9.947c2.993-2.321,5.095-5.321,7.136-8.339
			c1.819-2.69,2.959-5.832,4.624-8.642c2.798-4.72,3.916-9.948,4.768-15.228c0.719-4.453,1.024-8.962,1.891-13.413
			c0.572-2.942,0.344-6.035,0.542-9.056c0.236-3.61,0.775-7.215,0.765-10.822c-0.013-4.556-0.489-9.108-0.679-13.666
			c-0.073-1.733,0.077-3.479,0.161-5.215c0.127-2.624,0.255-5.249,0.438-7.869c0.23-3.291,0.396-6.592,0.815-9.86
			c0.4-3.111,1.059-6.193,1.667-9.275c0.901-4.57,1.692-9.171,2.835-13.681c1.312-5.18,2.824-10.318,4.492-15.394
			c1.829-5.561,4.148-10.955,5.121-16.789c0.721-4.329,1.605-8.635,2.57-12.917c0.665-2.951,1.647-5.829,2.385-8.765
			c0.755-3.005,1.559-6.014,2.012-9.071c0.316-2.132,0-4.351,0.108-6.523c0.089-1.763,0.463-3.51,0.575-5.273
			c0.103-1.589,0.022-3.19,0.021-4.787c-0.003-1.92,0.014-3.84-0.017-5.759c-0.027-1.826-0.153-3.651-0.149-5.476
			c0.003-2.146,0.188-4.293,0.135-6.435c-0.053-2.141-0.294-4.278-0.472-6.415c-0.112-1.346-0.221-2.694-0.405-4.031
			c-0.185-1.329-0.476-2.644-0.701-3.968c-0.538-3.163-1.137-6.317-1.581-9.494c-0.553-3.952-1.445-7.773-2.887-11.526
			c-1.817-4.735-3.282-9.608-4.81-14.45c-0.396-1.257-0.453-2.622-0.666-3.938c2.068-0.672,4.14-1.339,6.207-2.017
			c3.857-1.266,7.667-2.707,11.58-3.767c6.192-1.677,12.438-3.173,18.691-4.606c3.764-0.863,7.637-1.269,11.37-2.228
			c4.849-1.246,9.599-2.873,14.411-4.269c2.347-0.681,4.771-1.105,7.103-1.832c3.069-0.957,6.086-2.088,9.118-3.162
			c3.272-1.16,6.543-2.324,9.803-3.517c2.168-0.793,4.279-1.765,6.486-2.418c1.667-0.493,3.47-0.509,5.169-0.917
			c1.54-0.37,3.012-1.021,4.534-1.478c1.432-0.43,2.902-0.73,4.337-1.153c4.287-1.268,8.527-2.706,12.856-3.801
			c2.576-0.651,5.297-0.702,7.928-1.168c3.443-0.609,6.851-1.423,10.293-2.035c2.681-0.476,5.393-0.776,8.09-1.158
			c3.278-0.464,6.551-0.998,9.84-1.372c1.915-0.217,3.874-0.059,5.788-0.282c3.164-0.368,6.532-0.205,8.996-2.838
			c3.551,3.223,5.382,7.605,7.593,11.678c1.32,2.429,1.838,5.292,2.727,7.956c0.244,0.728,0.573,1.429,0.779,2.167
			c0.413,1.479,0.777,2.973,1.143,4.465c0.075,0.306,0.03,0.64,0.1,0.947c0.501,2.191,0.98,4.389,1.547,6.563
			c0.189,0.728,0.752,1.364,0.903,2.092c0.399,1.925,0.94,3.879,0.925,5.817c-0.025,3.215,1.095,6.191,1.49,9.306
			c0.165,1.295,0.33,2.591,0.498,3.886c0.208,1.599,0.441,3.194,0.625,4.796c0.143,1.242,0.262,2.489,0.33,3.737
			c0.131,2.435,0.221,4.873,0.322,7.309c0.112,2.641,0.118,5.292,0.356,7.921c0.21,2.325,0.726,4.62,1.022,6.938
			c0.691,5.395,1.248,10.783,0.605,16.249c-0.284,2.42,0.101,4.913-0.098,7.351c-0.254,3.119,0.633,6.221-0.197,9.372
			c-0.426,1.618,0.046,3.451-0.104,5.167c-0.35,4.001-0.802,7.996-1.292,11.982c-0.07,0.574-0.592,1.093-1.071,1.929
			c1.049,2.098,0.565,4.575-0.308,7.109c-0.476,1.378-0.338,2.99-0.909,4.309c-1.382,3.188-0.765,6.642-1.675,9.928
			c-1.371,4.953-2.039,10.098-3.099,15.143c-0.202,0.965-0.976,1.803-1.229,2.767c-0.72,2.74-1.259,5.528-1.958,8.274
			c-0.913,3.587-1.961,7.142-2.857,10.733c-0.624,2.498-1.04,5.047-1.643,7.551c-0.755,3.135-1.584,6.254-2.432,9.367
			c-0.209,0.766-0.629,1.472-0.923,2.218c-0.093,0.233-0.219,0.593-0.112,0.742c0.953,1.349,0.176,2.657-0.048,3.97
			c-0.629,3.687-0.866,7.508-2.04,11.015c-1.124,3.356,0.049,6.846-1.345,10.121c-0.497,1.168-0.065,2.716-0.132,4.087
			c-0.055,1.145-0.399,2.302-0.291,3.422c0.211,2.199-0.377,4.381,0.204,6.617c0.39,1.495,0.067,3.173,0.079,4.769
			c0.017,2.086,0.645,3.993,1.311,5.971c0.581,1.721,1.112,3.38,2.23,4.801c0.597,0.756,1.264,1.474,1.983,2.115
			c2.124,1.891,4.528,3.527,6.378,5.649c2.326,2.668,4.885,5.385,4.51,9.453c-0.051,0.561,0.39,1.335,0.843,1.742
			c1.878,1.687,3.888,3.229,5.771,4.909c0.907,0.81,1.809,1.713,2.423,2.746c1.755,2.945,3.604,5.877,4.941,9.018
			c0.891,2.09,0.886,4.547,1.435,6.802c0.697,2.87,1.539,5.705,2.337,8.55c0.513,1.823,1.132,3.619,1.571,5.458
			c0.566,2.371,0.865,4.813,1.537,7.151c0.529,1.846,1.591,3.536,2.161,5.374c0.975,3.139,1.743,6.342,2.61,9.514
			c0.189,0.691,0.437,1.366,0.645,2.053c0.305,1.013,0.635,2.021,0.887,3.047c0.393,1.597,0.685,3.22,1.099,4.812
			c0.9,3.452,1.96,6.867,2.745,10.344c0.617,2.725,0.886,5.524,1.376,8.279c0.243,1.365,0.618,2.709,0.962,4.056
			c0.727,2.854,1.74,5.667,2.119,8.563c0.259,1.983,1.49,3.831,0.822,5.996c-0.199,0.646,0.412,1.516,0.567,2.301
			c0.451,2.279,0.884,4.563,1.275,6.854c0.422,2.465,0.904,4.928,1.153,7.412c0.277,2.777,0.384,5.577,0.45,8.369
			c0.073,3.031-0.06,6.068,0.04,9.097c0.09,2.762,0.401,5.503-0.298,8.251c-0.206,0.811,0.132,1.76,0.219,2.646
			c0.021,0.208,0.067,0.42,0.052,0.627c-0.191,2.451-0.389,4.901-0.59,7.352c-0.229,2.795-0.401,5.598-0.712,8.385
			c-0.253,2.268-0.677,4.518-1.016,6.775c-0.193,1.283-0.297,2.584-0.573,3.847c-0.193,0.886-0.719,1.699-0.895,2.585
			c-0.172,0.867-0.086,1.785-0.114,2.682c-0.618-0.527-1.173-1.383-1.866-1.516c-1.645-0.314-3.404-0.603-5.027-0.337
			c-5.037,0.823-10.029,1.91-15.04,2.892c-1.023,0.201-2.053,0.367-3.07,0.59c-3.343,0.73-6.653,1.678-10.031,2.152
			c-2.224,0.313-5.421,2.159-5.07,5.106c0.182,1.522,0.035,3.117-0.184,4.647c-0.611,4.275-1.429,8.522-1.985,12.805
			c-0.336,2.588-0.223,5.233-0.523,7.828c-0.207,1.775,0.368,3.008,1.773,3.968c-3.232-0.09-6.476-0.378-9.696-0.224
			c-5.56,0.268-11.128,0.629-16.646,1.316c-2.804,0.35-5.51,1.487-8.256,2.282c-2.058,0.596-4.114,1.191-6.16,1.824
			c-2.682,0.831-5.381,1.62-8.012,2.593c-0.892,0.33-1.645,1.022-2.69,0.962c-0.116-0.006-0.348,0.187-0.352,0.292
			c-0.043,1.68-1.741,1.655-2.61,2.454c-1.532,1.408-3.285,2.588-5.015,3.765c-0.863,0.587-1.875,0.956-2.82,1.423
			c0.944-3.743,0.628-7.505,0.392-11.31c-0.282-4.526-1.715-8.644-3.983-12.425c-2.775-4.625-6.247-8.802-11.834-10.002
			c-4.355-0.935-8.843-1.566-13.307-0.275c-0.244,0.07-0.527,0-0.792-0.005c0.986-1.45,1.84-3.018,2.993-4.319
			c1.382-1.558,3.124-2.792,4.519-4.339c1.997-2.216,3.585-4.847,5.771-6.834c3.637-3.311,7.405-6.481,11.824-8.845
			c2.945-1.577,5.542-3.801,8.34-5.667c2.269-1.513,4.63-2.887,6.902-4.395c2.287-1.519,4.488-3.166,6.776-4.685
			c2.329-1.547,4.903-2.784,7.046-4.551c4.267-3.52,8.423-7.241,10.918-12.322c1.004-2.043,1.549-4.306,2.341-6.454
			c0.405-1.1,0.926-2.157,1.341-3.254c1.796-4.729,3.848-9.387,5.236-14.234c0.68-2.371,0.108-5.1,0.117-7.666
			c0.01-2.497,0.012-4.994,0.067-7.489c0.022-1.092,0.35-2.199,0.226-3.265c-0.436-3.77-1.017-7.522-1.524-11.284
			c-0.154-1.143-0.199-2.302-0.374-3.441c-0.495-3.232-0.953-6.475-1.576-9.683c-0.541-2.778-1.092-5.583-1.998-8.254
			c-1.045-3.085-2.275-6.146-3.799-9.02c-2.29-4.321-4.555-8.732-7.476-12.62c-3.043-4.048-5.761-8.446-9.917-11.615
			c-1.505-1.147-2.652-2.769-3.944-4.192c-1.515-1.671-2.934-3.417-4.603-4.959c-1.932-1.783-3.696-3.749-5.509-5.658
			c-2.4-2.528-4.873-4.995-7.138-7.642c-2.231-2.607-4.241-5.405-6.349-8.12c-1.213-1.563-2.491-3.081-3.62-4.703
			c-1.201-1.724-2.438-3.461-3.323-5.351c-0.723-1.541-1.057-3.294-1.37-4.988c-0.603-3.258-1.386-6.534-1.46-9.816
			c-0.04-1.733-0.226-3.485-0.22-5.233c0.007-2.613-0.483-5.229-0.48-7.842c0.002-2.276,0.408-4.551,0.611-6.829
			c0.107-1.206,0.243-2.418,0.227-3.625c-0.066-5.008,0.259-9.949,1.576-14.827c0.928-3.434,1.533-6.956,2.255-10.444
			c0.597-2.885,1.255-5.764,1.709-8.673c1.042-6.69,2.912-13.172,4.729-19.673c0.939-3.368,2.193-6.72,2.562-10.16
			c0.455-4.244,2.359-7.992,3.243-12.057c0.915-4.217,1.761-8.417,2.07-12.764c0.174-2.453,0.202-4.812-0.172-7.198
			c-0.309-1.966-1.467-3.575-3.069-4.544c-1.726-1.043-3.777-2.256-5.639-2.181c-2.166,0.086-4.44,0.427-6.684,1.376
			c-3.979,1.684-6.487,5.149-10.112,7.18c-1.906,1.068-3.734,2.436-5.248,4.004c-1.628,1.689-2.781,3.826-4.271,5.662
			c-0.795,0.979-1.998,1.626-2.781,2.61c-1.975,2.479-3.817,5.063-5.711,7.607c-1.855,2.493-3.776,4.943-5.54,7.5
			c-1.193,1.731-2.211,3.592-3.228,5.438c-1.087,1.977-2.147,3.976-3.099,6.021c-1.072,2.306-2.049,4.658-2.992,7.02
			c-0.814,2.04-1.457,4.148-2.297,6.176c-1.201,2.904-2.178,5.821-2.273,9.025c-0.034,1.167-0.753,2.306-1.126,3.469
			c-0.375,1.172-0.759,2.344-1.049,3.539c-0.373,1.537-0.619,3.104-1.004,4.637c-0.107,0.423-0.513,0.771-0.627,0.932
			c0,1.563,0.017,2.924-0.005,4.286c-0.021,1.392-0.024,2.788-0.14,4.174c-0.067,0.796-0.525,1.583-0.487,2.359
			c0.146,3.047,0.495,6.085,0.615,9.132c0.064,1.666-0.214,3.342-0.277,5.017c-0.052,1.38,0.039,2.767-0.022,4.146
			c-0.189,4.212-0.535,8.42-0.598,12.633c-0.044,2.946-0.304,5.91,0.292,8.856c0.223,1.102,0.607,2.142,0.135,3.465
			c-0.391,1.093,0.444,2.569,0.496,3.886c0.079,2.07-0.041,4.148-0.083,6.223c-0.003,0.138-0.1,0.283-0.073,0.409
			c0.458,2.308-0.228,4.465-0.733,6.677c-0.345,1.514-0.199,3.131-0.409,4.683c-0.233,1.725-0.667,3.42-0.926,5.142
			c-0.187,1.244-0.141,2.524-0.355,3.763c-0.539,3.101-1.15,6.189-1.767,9.275c-0.252,1.265-0.444,2.571-0.916,3.758
			c-1.628,4.089-3.358,8.137-5.073,12.19c-0.439,1.038-0.76,2.23-1.491,3.021c-1.396,1.507-3.105,2.718-4.581,4.159
			c-1.748,1.707-3.362,3.55-5.082,5.288c-0.708,0.716-1.486,1.389-2.321,1.948c-3.042,2.037-6.182,3.934-9.166,6.051
			c-2.311,1.638-4.386,3.606-6.672,5.283c-2.621,1.92-5.315,3.748-8.06,5.487c-2.455,1.554-5.038,2.903-7.528,4.402
			c-0.756,0.456-1.353,1.172-2.097,1.651c-1.202,0.777-2.39,1.802-3.724,2.104c-2.456,0.556-3.724,2.472-5.456,3.891
			c-0.923,0.756-2.271,0.986-3.209,1.729c-2.805,2.227-5.527,4.561-8.231,6.909c-1.979,1.72-3.94,3.47-5.788,5.326
			c-0.891,0.895-1.448,2.11-2.257,3.1c-0.791,0.969-1.258,2.158-2.324,2.955c-1.056,0.79-1.692,1.789-1.707,3.344
			c-0.013,1.21-0.869,2.436-1.437,3.612c-2.217,4.6-2.873,9.642-4.172,14.501c-0.471,1.766-1.06,3.499-1.594,5.247
			c-0.784,0.055-1.595,0-2.346,0.186c-2.017,0.501-3.976,1.378-6.014,1.614c-5.403,0.627-10.165,3.251-15.315,4.665
			c-3.648,1.002-7.237,2.059-11.028,2.3c-1.353,0.086-3.358,2.112-3.272,3.51c0.108,1.787,0.509,3.556,0.741,5.338
			c0.344,2.65,0.679,5.301,0.962,7.957c0.207,1.952,0.5,3.92,0.44,5.872c-0.095,3.092-0.453,6.174-0.699,9.262
			c-2.866,0.856-5.741,1.682-8.594,2.578c-4.58,1.441-9.176,2.826-13.473,5.057c-2.705,1.405-5.555,2.53-8.288,3.885
			c-2.343,1.16-4.503,2.787-6.944,3.609c-1.978,0.665-3.489,1.91-5.212,2.874c-3.466,1.938-6.853,4.015-10.288,6.004
			C97.157,509.032,96.22,509.426,95.312,509.872z"/>
		<path fill-rule="evenodd" clip-rule="evenodd" fill="#BFAE76" d="M150.831,484.52c0.246-3.088,0.604-6.17,0.699-9.262
			c0.06-1.952-0.233-3.92-0.44-5.872c-0.283-2.656-0.618-5.307-0.962-7.957c-0.232-1.782-0.633-3.551-0.741-5.338
			c-0.086-1.397,1.92-3.424,3.272-3.51c3.791-0.241,7.38-1.298,11.028-2.3c5.15-1.414,9.912-4.038,15.315-4.665
			c2.038-0.236,3.997-1.113,6.014-1.614c0.751-0.186,1.562-0.131,2.346-0.186c0.001,2.302-0.265,4.555-0.823,6.805
			c-0.283,1.144-0.076,2.413-0.061,3.625c0.047,3.795,0.781,7.59-0.06,11.384c-0.187,0.842-0.373,1.725-0.314,2.571
			c0.188,2.684-0.612,5.072-1.478,7.594c-0.94,2.739-2.464,4.722-4.676,6.363c-0.042,0.031-0.077,0.093-0.122,0.101
			c-1.968,0.333-3.929,0.732-5.908,0.969c-1.879,0.226-3.774,0.31-5.666,0.396c-1.073,0.05-2.151-0.02-3.226-0.038
			c-0.267-0.005-0.537-0.056-0.798-0.021c-2.369,0.311-4.731,0.689-7.108,0.932c-1.024,0.104-2.146,0.143-3.099-0.169
			C152.862,483.948,151.877,484.189,150.831,484.52z"/>
		<path fill-rule="evenodd" clip-rule="evenodd" fill="#BFAE76" d="M414.571,524.581c-1.405-0.96-1.98-2.192-1.773-3.968
			c0.301-2.595,0.188-5.24,0.523-7.828c0.557-4.282,1.374-8.529,1.985-12.805c0.219-1.53,0.365-3.125,0.184-4.647
			c-0.351-2.947,2.847-4.794,5.07-5.106c3.378-0.475,6.688-1.422,10.031-2.152c1.018-0.223,2.047-0.389,3.07-0.59
			c5.011-0.981,10.003-2.068,15.04-2.892c1.623-0.266,3.383,0.022,5.027,0.337c0.693,0.133,1.248,0.988,1.866,1.516
			c0.53,1.283,0.582,2.518-0.216,3.746c-0.238,0.37-0.349,0.882-0.358,1.331c-0.063,3.225-1.421,5.835-3.483,8.258
			c-1.195,1.402-2.677,2.646-2.75,4.912c-0.043,1.295-1.064,2.685-1.941,3.8c-2.229,2.841-4.418,5.77-7.023,8.24
			c-1.916,1.819-3.974,3.67-6.729,4.457c-1.41,0.401-2.594,1.543-3.983,2.085c-1.146,0.446-2.444,0.501-3.877,0.768
			C424.781,525.018,416.854,525.656,414.571,524.581z"/>
	</g>
</g>
</svg>
