<?xml version="1.0" encoding="utf-8"?>
<!-- Generator: Adobe Illustrator 16.0.0, SVG Export Plug-In . SVG Version: 6.00 Build 0)  -->
<!DOCTYPE svg PUBLIC "-//W3C//DTD SVG 1.1//EN" "http://www.w3.org/Graphics/SVG/1.1/DTD/svg11.dtd">
<svg version="1.1" xmlns="http://www.w3.org/2000/svg" xmlns:xlink="http://www.w3.org/1999/xlink" x="0px" y="0px"
	 width="566.93px" height="566.93px" viewBox="0 0 566.93 566.93" enable-background="new 0 0 566.93 566.93" xml:space="preserve">
<g id="fond" display="none">
	
		<rect x="-7607.873" y="-8228.754" display="inline" fill-rule="evenodd" clip-rule="evenodd" fill="#58595B" width="15942.492" height="15814.695"/>
</g>
<g id="en_cours">
</g>
<g id="fini">
	<g>
		<path fill-rule="evenodd" clip-rule="evenodd" fill="#BFAE76" d="M294,485.311c-1.492-3.37-3.119-6.691-4.369-10.149
			c-0.271-0.753,0.547-2.579,1.305-2.915c4.737-2.099,9.521-4.152,14.442-5.758c5.221-1.703,10.569-3.075,15.935-4.27
			c14.401-3.207,28.819-6.354,43.277-9.293c6.053-1.23,12.227-1.862,18.342-2.789c1.116-0.169,2.399-0.161,3.291-0.729
			c4.412-2.809,6.466-0.589,6.543,3.524c0.105,5.729-0.583,11.474-0.932,17.212c-7.16,0-14.329,0.235-21.477-0.051
			c-13.552-0.541-26.549,2.935-39.698,5.2c-9.208,1.586-18.335,3.717-27.409,5.967C300.03,482.06,297.076,483.93,294,485.311z"/>
		<path fill-rule="evenodd" clip-rule="evenodd" fill="#BFAE76" d="M283,413.311c0.665-4.782,2.223-9.646,1.797-14.33
			c-0.764-8.416,2.934-15.091,6.742-21.81c5.771-10.18,12.499-19.514,22.802-25.844c6.565-4.034,13.501-5.829,21.025-5.127
			c7.854,0.733,15.273,2.445,21.506,8.138c8.162,7.456,13.646,16.395,17.124,26.732c0.671,1.991,0.918,4.269,2.065,5.925
			c2.259,3.257,0.791,4.908-2.146,5.664c-16.501,4.248-33.058,8.278-49.558,12.528c-4.858,1.252-9.509,3.416-14.408,4.389
			c-8.923,1.772-17.96,2.967-26.951,4.402C283,413.756,283,413.533,283,413.311z"/>
		<path fill-rule="evenodd" clip-rule="evenodd" fill="#E5E2D3" d="M396.494,430.145c-6.638-0.002-12.446-5.759-12.494-12.381
			c-0.05-6.852,5.882-12.72,12.756-12.619c6.592,0.097,12.297,5.981,12.244,12.631C408.948,424.396,403.134,430.146,396.494,430.145
			z"/>
		<path fill-rule="evenodd" clip-rule="evenodd" fill="#E5E2D3" d="M260,448.77c-0.05-6.648,5.657-12.53,12.25-12.625
			c6.668-0.096,12.609,5.554,12.75,12.126c0.147,6.887-5.666,12.874-12.5,12.874C265.862,461.145,260.05,455.391,260,448.77z"/>
		<path fill-rule="evenodd" clip-rule="evenodd" fill="#29251B" d="M527.422,292.577c-5.091-8.188-12.198-15.122-18.432-22.599
			c-0.274-0.275-0.549-0.55-0.823-0.824c-7.599-5.657-14.958-11.682-22.878-16.848c-5.561-3.627-11.96-5.944-17.84-9.116
			c-3.905-2.106-7.27-5.546-11.367-6.903c-13.314-4.41-26.771-8.459-40.358-11.924c-3.922-1.001-5.524-2.465-5.767-6.105
			c0-0.408,0-0.817,0-1.227c0.273-3.416-0.053-7.016,0.932-10.213c2.991-9.713,6.753-19.188,9.722-28.906
			c3.603-11.792,7.954-23.146,13.885-34.047c6.452-11.859,11.693-24.377,17.462-36.607c0-0.408,0-0.817,0-1.227
			c0.667-2.591,1.333-5.182,2-7.773c0-0.408,0-0.817,0-1.227c0.014-4.304,0.834-8.807-0.162-12.861
			c-1.261-5.137-3.402-10.285-6.223-14.763c-6.264-9.944-26.959-9.884-34.521-0.853c-6.002,7.168-12.893,13.771-17.829,21.607
			c-6.271,9.957-11.101,20.842-16.303,31.448c-4.569,9.317-8.496,18.958-13.239,28.181c-8.693,16.904-17.674,33.664-26.775,50.354
			c-2.301,4.219-5.417,8.016-8.41,11.808c-0.407,0.517-3.303-0.007-3.333-0.256c-0.52-4.301-0.103-8.432,2.784-12.022
			c2.127-2.645,4.307-5.307,6.004-8.227c3.188-5.484,6.022-11.172,9.042-16.754c3.65-6.748,7.422-13.433,10.995-20.221
			c5.129-9.743,10.126-19.555,15.18-29.338c0.274-0.274,0.549-0.549,0.823-0.824c3.434-6.963,6.44-14.181,10.398-20.832
			c6.537-10.988,13.455-21.709,18.768-33.416c2.429-5.352,2.023-10.518,1.35-15.826c-0.289-2.27-1.055-5.107-2.645-6.48
			c-11.01-9.508-21.794-10.027-35.028-2.602c-0.274,0.274-0.549,0.549-0.823,0.824c-10.853,4.309-19.782,11.207-27.177,20.176
			c-0.274,0.274-0.549,0.549-0.823,0.824c-6.078,7.418-11.433,15.291-15.177,24.176c-0.274,0.274-0.549,0.549-0.823,0.824
			c-1.003,1.047-2.264,1.947-2.967,3.168c-3.66,6.35-6.47,13.326-10.889,19.074c-10.656,13.863-18.025,29.414-24.829,45.289
			c-5.075,11.839-8.892,24.271-14.676,35.73c-2.917,5.78-8.341,10.863-13.752,14.666c-5.947,4.178-13.604-0.219-14.91-7.383
			c-1.303-7.141-3.729-13.946-3.192-21.564c0.793-11.255-1.137-22.838,0.732-33.832c1.18-6.941,0.652-13.697,1.487-20.477
			c0.466-3.785,1.263-7.537,1.575-11.332c0.502-6.113-0.278-12.523,1.303-18.311c2.43-8.893,6.316-17.396,9.746-26.001
			c2.584-6.483,5.575-12.857,4.33-20.115c-0.455-2.65-0.999-5.352-2.008-7.823c-1.245-3.049-2.272-7.268-4.69-8.566
			c-10.251-5.506-21.083-6.958-32.389-2.414c-10.943,4.398-18.167,12.85-23.64,22.47c-4.256,7.48-6.727,16.048-9.443,24.312
			c-2.149,6.539-3.771,13.291-5.078,20.055c-1.839,9.523-3.292,19.127-4.67,28.731c-0.72,5.019-1.025,10.104-1.343,15.17
			c-0.637,10.166-1.135,20.341-1.756,30.508c-0.056,0.915-0.594,1.8-0.908,2.698c0,0.408,0,0.817,0,1.227
			c0.327,6.889,0.4,13.801,1.035,20.661c1.127,12.169,2.651,24.3,3.905,36.456c1.088,10.545,1.422,21.209,3.208,31.627
			c1.904,11.109,2.506,22.066,0.813,33.18c-1.66,10.895-10.034,18.062-21.042,17.963c-10.219-0.091-18.907-3.738-25.971-11.167
			c-0.275-0.274-0.549-0.549-0.824-0.823c-3.17-3.938-6.222-7.979-9.538-11.792c-5.741-6.6-10.834-14.122-17.67-19.327
			c-10.541-8.026-22.443-13.347-36.662-10.989c-20.384,3.38-25.194,22.058-15.907,35.441c5.709,8.228,13.037,15.681,20.812,22.05
			c14.221,11.65,24.207,26.234,32.818,42.092c7.252,13.355,14.25,26.878,22.148,39.846c9.414,15.455,23.28,26.805,37.342,37.843
			c4.498,3.53,8.773,7.344,13.169,11.004c7.823,6.513,12.829,15.23,17.152,24.056c5.737,11.711,10.282,24.018,15.13,36.152
			c4.113,10.295,10.151,19.673,20.692,23.102c11.104,3.612,23.053,5.589,34.735,6.152c9.189,0.444,18.583-2.093,27.772-3.893
			c2.102-0.412,5.082-3.063,5.331-4.983c0.854-6.59,1.204-13.35,0.757-19.978c-0.601-8.905-2.121-17.749-3.248-26.619
			c-1.492-3.37-3.119-6.691-4.369-10.149c-0.271-0.753,0.547-2.579,1.305-2.915c4.737-2.099,9.521-4.152,14.442-5.758
			c5.221-1.703,10.569-3.075,15.935-4.27c14.401-3.207,28.819-6.354,43.277-9.293c6.053-1.23,12.227-1.862,18.342-2.789
			c1.116-0.169,2.399-0.161,3.291-0.729c4.412-2.809,6.466-0.589,6.543,3.524c0.105,5.729-0.583,11.474-0.932,17.212
			c0.389,1.391,0.906,2.76,1.146,4.176c1.38,8.124,2.546,16.286,4.077,24.38c1.205,6.37,3.94,7.817,10.135,5.803
			c5.317-1.729,10.641-3.452,15.893-5.366c7.251-2.644,12.014-9.425,11.868-17.166c-0.117-6.241-0.648-12.475-0.996-18.712
			c0-0.409,0-0.818,0-1.228c-0.333-1.591-0.667-3.182-1-4.772c0-0.409,0-0.818,0-1.228c-0.333-4.591-0.666-9.182-1-13.772
			c0-0.409,0-0.818,0-1.228c1.104-6.521,1.429-13.299,3.483-19.505c3.643-11.007,6.196-22.018,4.5-33.595
			c-1.167-7.96-2.701-15.88-4.434-23.737c-1.583-7.18-3.741-14.229-5.485-21.375c-2.736-11.206-5.159-22.491-8.063-33.652
			c-1.79-6.882,0.156-9.663,6.884-7.929c14.23,3.668,28.334,7.823,42.533,11.617c9.606,2.567,19.177,5.937,28.97,6.947
			c8.559,0.883,18.049,3.143,25.821-3.668c0.274-0.274,0.549-0.549,0.823-0.823C533.453,307.868,531.727,299.5,527.422,292.577z
			 M272.5,461.145c-6.638,0-12.45-5.754-12.5-12.375c-0.05-6.648,5.657-12.53,12.25-12.625c6.668-0.096,12.609,5.554,12.75,12.126
			C285.147,455.157,279.334,461.145,272.5,461.145z M373.916,392.659c-16.501,4.248-33.058,8.278-49.558,12.528
			c-4.858,1.252-9.509,3.416-14.408,4.389c-8.923,1.772-17.96,2.967-26.951,4.402c0-0.223,0-0.445,0-0.668
			c0.665-4.782,2.223-9.646,1.797-14.33c-0.764-8.416,2.934-15.091,6.742-21.81c5.771-10.18,12.499-19.514,22.802-25.844
			c6.565-4.034,13.501-5.829,21.025-5.127c7.854,0.733,15.273,2.445,21.506,8.138c8.162,7.456,13.646,16.395,17.124,26.732
			c0.671,1.991,0.918,4.269,2.065,5.925C378.32,390.252,376.853,391.903,373.916,392.659z M396.494,430.145
			c-6.638-0.002-12.446-5.759-12.494-12.381c-0.05-6.852,5.882-12.72,12.756-12.619c6.592,0.097,12.297,5.981,12.244,12.631
			C408.948,424.396,403.134,430.146,396.494,430.145z"/>
		<g>
			<path fill="#E5E2D3" d="M377.162,392.129c0,0,0.42-0.094,1.206-0.27c0.785-0.186,1.94-0.434,3.423-0.701
				c2.959-0.549,7.229-1.212,12.429-1.225c2.598,0.008,5.421,0.247,8.366,0.842c1.477,0.282,2.965,0.715,4.48,1.2
				c1.498,0.532,3.009,1.161,4.491,1.936c2.941,1.575,5.771,3.728,8.087,6.438c2.322,2.699,4.164,5.876,5.445,9.227l0.242,0.629
				l0.229,0.66c0.137,0.414,0.274,0.798,0.396,1.243c0.247,0.909,0.473,1.815,0.627,2.704c0.335,1.79,0.46,3.611,0.42,5.412
				c-0.131,3.602-1.012,7.107-2.535,10.139c-0.74,1.523-1.623,2.938-2.609,4.215c-0.973,1.288-2.029,2.457-3.144,3.493
				c-1.094,1.061-2.281,1.943-3.435,2.769c-1.188,0.778-2.354,1.494-3.519,2.092c-4.665,2.414-8.968,3.293-11.935,3.751
				c-1.492,0.217-2.669,0.352-3.475,0.399c-0.804,0.062-1.232,0.095-1.232,0.095s0.427-0.052,1.228-0.148
				c0.801-0.083,1.97-0.268,3.443-0.548c2.923-0.618,7.132-1.75,11.521-4.355c2.199-1.277,4.363-3.017,6.287-5.148
				c0.968-1.06,1.868-2.229,2.634-3.514c0.788-1.267,1.459-2.637,1.985-4.077c1.09-2.868,1.585-6.017,1.535-9.183
				c-0.023-1.586-0.241-3.174-0.534-4.749c-0.149-0.8-0.354-1.554-0.561-2.302c-0.109-0.383-0.266-0.808-0.387-1.213
				c-0.059-0.182-0.143-0.463-0.182-0.563l-0.213-0.578c-1.159-3.075-2.64-6.013-4.536-8.614c-1.877-2.616-4.208-4.842-6.783-6.597
				c-2.59-1.736-5.426-2.957-8.233-3.72c-2.803-0.799-5.569-1.136-8.125-1.297c-2.561-0.151-4.921-0.07-7.007,0.072
				c-2.084,0.169-3.899,0.376-5.382,0.623c-1.485,0.232-2.647,0.454-3.437,0.621C377.584,392.045,377.162,392.129,377.162,392.129z"
				/>
		</g>
		<g>
			<path fill="#E5E2D3" d="M281.368,415.132c0,0-0.423,0.078-1.215,0.225c-0.794,0.137-1.956,0.361-3.421,0.695
				c-1.469,0.319-3.232,0.8-5.23,1.415c-1.99,0.64-4.212,1.438-6.535,2.528c-2.314,1.096-4.759,2.434-7.067,4.214
				c-2.325,1.748-4.507,3.932-6.269,6.505c-1.742,2.583-3.083,5.515-3.857,8.64c-0.797,3.119-1.085,6.396-1.022,9.682l0.017,0.616
				c0,0.106,0.027,0.399,0.039,0.589c0.038,0.422,0.049,0.875,0.09,1.27c0.084,0.771,0.175,1.549,0.332,2.346
				c0.311,1.572,0.697,3.127,1.263,4.61c1.125,2.958,2.751,5.7,4.827,7.96c1.022,1.144,2.153,2.167,3.354,3.052
				c1.186,0.909,2.456,1.663,3.747,2.288c2.577,1.269,5.231,2.082,7.747,2.454c5.042,0.795,9.37,0.288,12.313-0.221
				c1.474-0.286,2.627-0.546,3.402-0.767c0.779-0.206,1.195-0.316,1.195-0.316s-0.41,0.128-1.18,0.369
				c-0.766,0.253-1.908,0.564-3.375,0.915c-2.925,0.674-7.248,1.451-12.475,0.936c-1.303-0.124-2.65-0.357-4.043-0.64
				c-1.377-0.34-2.807-0.72-4.215-1.3c-1.419-0.55-2.833-1.244-4.214-2.08c-1.389-0.821-2.733-1.808-3.985-2.949
				c-2.538-2.251-4.654-5.181-6.109-8.479c-0.704-1.657-1.263-3.396-1.614-5.183c-0.186-0.882-0.312-1.808-0.419-2.744
				c-0.053-0.458-0.067-0.865-0.093-1.301l-0.033-0.698l-0.007-0.673c-0.052-3.587,0.483-7.22,1.639-10.588
				c1.147-3.375,2.979-6.423,5.126-8.976c1.09-1.268,2.261-2.411,3.455-3.461c1.228-1.013,2.449-1.966,3.717-2.774
				c2.516-1.644,5.049-2.912,7.459-3.881c4.834-1.914,9.046-2.88,11.998-3.466c1.476-0.301,2.641-0.498,3.439-0.616
				C280.944,415.2,281.368,415.132,281.368,415.132z"/>
		</g>
	</g>
</g>
</svg>
