<?xml version="1.0" encoding="utf-8"?>
<!-- Generator: Adobe Illustrator 16.0.0, SVG Export Plug-In . SVG Version: 6.00 Build 0)  -->
<!DOCTYPE svg PUBLIC "-//W3C//DTD SVG 1.1//EN" "http://www.w3.org/Graphics/SVG/1.1/DTD/svg11.dtd">
<svg version="1.1" xmlns="http://www.w3.org/2000/svg" xmlns:xlink="http://www.w3.org/1999/xlink" x="0px" y="0px"
	 width="566.93px" height="566.93px" viewBox="0 0 566.93 566.93" enable-background="new 0 0 566.93 566.93" xml:space="preserve">
<g id="fond" display="none">
	
		<rect x="-9532.873" y="-7591.898" display="inline" fill-rule="evenodd" clip-rule="evenodd" fill="#58595B" width="15942.492" height="15814.695"/>
</g>
<g id="en_cours">
</g>
<g id="fini">
	<g>
		<path fill-rule="evenodd" clip-rule="evenodd" fill="#BFAE76" d="M354.383,392.442c-0.27,0.184-0.535,0.523-0.808,0.529
			c-11.787,0.236-23.573,0.442-35.36,0.653c0.938-8.752,1.906-17.499,2.801-26.255c0.544-5.315,0.918-10.649,1.467-15.965
			c0.893-8.644,1.953-17.27,2.773-25.919c0.626-6.61,0.937-13.249,1.48-19.867c0.896-10.889,1.887-21.77,2.795-32.658
			c0.311-3.72,0.45-7.453,0.748-11.174c0.919-11.477,1.846-22.953,2.83-34.424c0.655-7.633,1.324-15.267,2.148-22.883
			c1.084-10.01,2.383-19.996,3.477-30.005c0.607-5.546,0.924-11.123,1.479-16.675c0.887-8.88,1.896-17.748,2.789-26.628
			c0.547-5.435,0.914-10.887,1.466-16.321c0.89-8.761,1.94-17.507,2.771-26.273c0.396-4.166,0.441-8.365,0.645-12.549
			c0.299-3.835,0.563-7.673,0.901-11.504c0.622-7.041,1.288-14.079,1.936-21.118c1.288-2.865,1.95-6.137,5.082-7.801
			c0.945,0,1.892,0,2.837,0c2.607,1.708,3.707,3.969,3.609,7.227c-0.391,12.941-0.427,25.892-0.809,38.833
			c-0.297,10.061-0.951,20.11-1.374,30.168c-0.516,12.299-0.993,24.6-1.417,36.902c-0.516,14.965-0.918,29.933-1.441,44.897
			c-0.411,11.724-0.95,23.443-1.401,35.167c-0.493,12.837-1.183,25.673-1.374,38.517c-0.396,26.598-0.54,53.201-0.746,79.801
			c-0.07,8.862-0.091,17.728,0.02,26.589c0.06,4.794,0.404,9.585,0.694,14.373c0.14,2.33-0.216,4.1-3.19,4.036
			C352.267,392.223,353.325,392.332,354.383,392.442z"/>
		<path fill-rule="evenodd" clip-rule="evenodd" fill="#BFAE76" d="M228.148,391.497c-8.4-1.191-16.805-2.365-25.196-3.618
			c-0.438-0.066-0.776-0.804-1.161-1.229c0.275-0.977,0.77-1.948,0.794-2.931c0.297-11.997,0.526-23.996,0.772-35.995
			c0.174-0.104,0.348-0.208,0.521-0.313c-0.174-0.186-0.348-0.37-0.521-0.557c0.227-2.952,0.535-5.901,0.655-8.858
			c0.118-2.899,0.044-5.807,0.054-8.711c0.174-0.104,0.348-0.208,0.521-0.313c-0.174-0.186-0.348-0.371-0.521-0.557
			c0.227-1.813,0.604-3.62,0.654-5.438c0.288-10.285,0.467-20.573,0.745-30.857c0.189-6.998,0.481-13.993,0.729-20.989
			c0.173-0.104,0.347-0.208,0.521-0.313c-0.174-0.186-0.348-0.371-0.521-0.556c0.227-0.76,0.627-1.513,0.652-2.279
			c0.279-8.335,0.457-16.673,0.746-25.008c0.436-12.537,0.931-25.073,1.413-37.609c0.229-5.974,0.489-11.945,0.735-17.918
			c0.174-0.105,0.347-0.209,0.521-0.313c-0.174-0.186-0.348-0.371-0.521-0.556c0.226-0.874,0.624-1.741,0.652-2.621
			c0.289-9,0.52-18.003,0.766-27.005c0.174-0.104,0.348-0.209,0.521-0.313c-0.174-0.185-0.348-0.371-0.521-0.556
			c0.188-4.229,0.374-8.457,0.562-12.685c0.275-3.245,0.521-6.493,0.834-9.734c0.485-5.032,1.017-10.059,1.528-15.088
			c1.577-0.379,3.294-1.295,4.676-0.934c0.807,0.21,1.402,2.435,1.534,3.807c0.595,6.198,1.06,12.411,1.41,18.628
			c0.089,1.576-0.629,3.188-0.613,4.779c0.187,18.44,0.407,36.881,0.69,55.32c0.165,10.762,0.469,21.523,0.693,32.284
			c0.248,11.877,0.46,23.755,0.717,35.633c0.213,9.87,0.395,19.741,0.724,29.607c0.392,11.773,0.913,23.542,1.403,35.313
			c0.454,10.879,0.979,21.756,1.401,32.637c0.301,7.74,0.466,15.485,0.749,23.228C227.5,389.758,227.912,390.624,228.148,391.497z"
			/>
		<path fill-rule="evenodd" clip-rule="evenodd" fill="#29251B" d="M560.772,322.931c-0.097-2.702-1.678-3.329-3.911-2.911
			c-2.805,0.523-5.546,1.448-8.364,1.815c-5.868,0.768-11.763,1.349-17.658,1.883c-6.573,0.596-13.187,0.827-19.73,1.639
			c-6.004,0.744-11.914,2.225-17.911,3.054c-5.256,0.727-10.61,0.769-15.856,1.548c-3.774,0.562-7.393,2.245-11.169,2.704
			c-6.569,0.798-13.202,1.296-19.816,1.412c-3.994,0.069-5.374,2.438-5.44,5.924c-0.035,1.862-0.032,3.771-0.436,5.571
			c-1.431,6.394-3.838,12.396-8.081,17.483c-2.95,3.536-5.781,7.26-9.215,10.275c-2.67,2.346-6.112,3.877-9.346,5.502
			c-4.951,2.488-9.813,5.496-15.081,6.932c-8.46,2.305-17.221,3.507-25.854,5.175c-0.186,0.178-0.371,0.356-0.558,0.535
			c-0.104-0.179-0.208-0.356-0.313-0.535c-5.883,0.502-11.766,1.004-17.649,1.506c-0.27,0.184-0.535,0.523-0.808,0.529
			c-11.787,0.236-23.573,0.442-35.36,0.653c-2.574,0.049-5.147,0.098-7.72,0.147c-0.187,0.179-0.372,0.357-0.559,0.536
			c-0.104-0.179-0.208-0.357-0.313-0.536c-4.125-0.014-8.256,0.109-12.374-0.069c-8.728-0.376-17.445-0.98-26.173-1.348
			c-4.206-0.178-8.425,0.048-12.636-0.047c-10.099-0.227-20.195-0.536-30.293-0.812c-8.4-1.191-16.805-2.365-25.196-3.618
			c-0.438-0.066-0.776-0.804-1.161-1.229c-10.405-0.127-19.413-4.482-28.256-9.338c-0.195-0.194-0.39-0.389-0.585-0.584
			c-0.987-0.987-1.974-1.974-2.962-2.962c-0.194-0.194-0.389-0.389-0.584-0.584c-0.385-0.697-0.646-1.51-1.173-2.076
			c-7.938-8.526-12.996-18.589-15.995-29.764c-0.18-0.186-0.357-0.371-0.536-0.558c0.179-0.104,0.356-0.207,0.535-0.312
			c-1.172-5.088-2.703-10.125-3.423-15.275c-0.865-6.198-0.847-12.517-1.637-18.729c-0.221-1.735-1.593-4.12-3.053-4.729
			c-2.679-1.116-5.816-1.125-8.761-1.61c-11.435-1.884-22.962-3.329-34.278-5.76c-18.691-4.015-37.598-7.274-55.593-14.088
			c-11.322-4.287-23.333-6.831-33.731-13.459c-1.502-0.958-3.04-0.644-4.06,1.023c-0.509,0.833-1.018,1.666-1.526,2.498
			c0,0.946,0,1.892,0,2.837c8.04,4.019,16.05,8.098,24.126,12.043c15.567,7.608,31.021,15.481,46.843,22.523
			c5.76,2.564,7.785,6.464,8.449,11.95c0.973,8.025,1.954,16.052,2.84,24.088c1.002,9.091,2.06,18.181,2.805,27.294
			c0.883,10.801,1.927,21.623,1.979,32.441c0.028,5.804-1.087,11.887-5.31,16.622c-0.51,0.572-1.299,1.036-2.042,1.234
			c-4.976,1.327-6.188,5.495-2.997,9.736c3.271,4.348,6.63,8.641,9.935,12.971c51.205,98.414,138.201,88.657,184.696,90.863
			c25.661,1.218,75.563-1.5,120.319-8.196c0.191-0.02,0.383-0.035,0.573-0.056c5.603-0.595,11.204-1.32,16.746-2.321
			c5.638-1.017,11.199-2.456,16.799-3.685c6.565-1.44,13.18-2.688,19.687-4.357c2.189-0.562,4.19-1.813,6.283-2.78
			c11.072-3.707,19.761-7.893,24.848-12.559h-0.001c3.251-2.476,6.282-5.321,9.027-8.667c5.795-7.062,10.581-14.709,14.576-22.763
			c3.36-6.771,5.572-14.14,7.978-21.349c2.332-6.989,4.226-14.124,6.407-21.165c0.387-1.245,0.978-3.042,1.923-3.4
			c5.609-2.126,11.409-3.75,17.021-5.873c2.181-0.826,5.043-2.066,5.851-3.891c2.462-5.56,4.362-11.419,5.947-17.306
			c2.104-7.808,4.134-15.683,5.417-23.654c1.884-11.704,3.318-23.496,4.452-35.299C561.813,332.793,560.947,327.835,560.772,322.931
			z"/>
		<polygon fill="#AB2E23" points="471.085,152.557 424.831,152.557 433.184,132.895 371.036,159.112 433.184,185.33 
			424.831,165.667 471.085,165.667 		"/>
		
			<path fill-rule="evenodd" clip-rule="evenodd" fill="none" stroke="#E5E2D3" stroke-width="23" stroke-miterlimit="10" stroke-dasharray="22,19" d="
			M132.803,424.424c80.179,29.306,232.197,39.278,346.679,7.28"/>
		
			<path fill-rule="evenodd" clip-rule="evenodd" fill="none" stroke="#E5E2D3" stroke-width="23" stroke-miterlimit="10" stroke-dasharray="22,10" d="
			M455.741,367.385c35.5,2.549,58.259,0,89.259-5.885"/>
		<path fill="#29251B" d="M326.479,74.634c0.028,0.011,0.055,0.021,0.083,0.033C326.535,74.656,326.508,74.645,326.479,74.634
			L326.479,74.634z"/>
		<path fill="#29251B" d="M342.918,45.618c-5.875,2.837-11.668,3.036-17.618,0.507c-0.194-0.195-0.39-0.39-0.584-0.584
			c-1.29-1.134-2.544-2.313-3.881-3.39c-1.321-1.064-2.593-2.359-4.119-2.973c-5.665-2.276-10.17,0.817-14.577,3.674
			c-4.395,2.849-8.813,3.491-13.546,1.03c-0.882-0.458-1.789-0.868-2.684-1.3c-0.237,0.253-0.474,0.506-0.711,0.759
			c0.94,1.898,1.64,3.971,2.866,5.661c3.32,4.574,8.045,6.398,13.613,6.497c2.406,0.042,4.805,0.493,8.044,0.851
			c-6.353,5.887-11.391,11.997-20.791,8.428c0.592,2.091,1.113,4.14,2.432,5.152c5.804,4.459,12.278,5.281,19.224,2.839
			c2.112-0.743,4.606-1.918,6.525-1.403c3.186,0.856,6.283,2.042,9.369,3.268c0.027,0.011,0.055,0.022,0.082,0.033
			c9.135,3.673,14.391,4.879,21.32,1.362c0.299-3.835,0.563-7.673,0.901-11.504c0.622-7.041,1.288-14.079,1.936-21.118
			C348.107,44.118,345.315,44.46,342.918,45.618z"/>
		<path fill="#E5E2D3" d="M347.697,76.116c-0.02-0.001-0.045-0.001-0.064-0.002c-0.805-0.125-11.982-1.558-26.557,12.975
			c-3.281,3.272-8.197,9.156-12.317,13.718c-3.901,4.318-8.146,8.359-11.747,12.911c-5.32,6.725-9.156,14.277-12.414,22.294
			c-4.188,10.302-6.479,20.792-4.505,31.625c1.621,8.896,3.934,17.875,7.47,26.164c4.996,11.708,12.253,22.146,22.625,30.049
			c2.521,1.92,2.109,3.813-0.828,5.568c-2.64,1.577-5.168,3.353-7.874,4.8c-7.637,4.083-14.82,8.78-21.093,14.799
			c-3.849,3.692-7.874,7.213-11.573,11.047c-4.581,4.749-9.989,9.152-13.071,14.781c-3.859,7.05-6.659,15.01-8.202,22.912
			c-1.886,9.649-2.305,19.562-1.14,29.562c0.881,7.57,3.67,14.126,7.611,20.273c2.129,3.318,5.553,5.779,7.939,8.966
			c3.702,4.94,8.385,8.721,13.123,12.545c5.59,4.509,12.352,6.202,18.892,8.444c8.866,3.038,15.828-2.175,14.919-11.483
			c-0.461-4.725-1.833-9.394-3.145-13.987c-0.639-2.236-2.084-4.241-3.164-6.35c-0.178-0.187-0.356-0.372-0.535-0.559
			c0.179-0.104,0.356-0.207,0.535-0.313c-2.086-4.375-4.727-8.581-6.127-13.166c-2.137-6.992-4.16-14.038-3.871-21.611
			c0.391-10.233-0.58-20.57,2.325-30.574c2.848-9.803,5.412-19.709,11.055-28.487c4.548-7.074,9.58-13.592,16.764-18.164
			c5.163-3.286,5.618-5.482,2.208-10.645c-1.555-2.352-3.566-4.652-4.264-7.271c-2.285-8.574-4.062-17.284-6.033-25.941
			c-0.178-0.186-0.357-0.372-0.535-0.558c0.178-0.104,0.356-0.208,0.535-0.312c-0.709-5.621-1.419-11.24-2.128-16.86
			c-0.178-0.186-0.356-0.372-0.535-0.558c0.179-0.104,0.356-0.208,0.535-0.312c0-0.656,0-1.311,0-1.967
			c-0.178-0.186-0.356-0.372-0.535-0.558c0.179-0.104,0.356-0.208,0.535-0.312c0-5.147,0-10.294,0-15.441
			c-0.178-0.186-0.356-0.372-0.535-0.558c0.179-0.104,0.356-0.208,0.535-0.312c0-0.419,0-0.838,0-1.257
			c-0.178-0.186-0.356-0.372-0.535-0.558c0.179-0.104,0.356-0.208,0.535-0.312c-0.925-9.804,3-18.749,5.724-27.704
			c4.871-16.015,13.063-30.487,24.211-43.141c0.195-0.195,0.39-0.39,0.584-0.584c1.618-1.221,3.235-2.442,4.854-3.664
			C347.82,76.06,347.76,76.085,347.697,76.116z"/>
		<path fill-rule="evenodd" clip-rule="evenodd" fill="#29251B" d="M326.479,74.634"/>
		<path fill-rule="evenodd" clip-rule="evenodd" fill="#29251B" d="M184.475,124.166c3.735-0.483,5.893,1.6,7.404,4.199
			c2.406,4.137,5.829,5.995,10.398,5.766c2.396-0.12,4.775-0.662,7.221-1.075l0.001-0.006c1.233-0.363,2.335-0.676,3.208-0.919
			c0.443-4.519,0.915-9.035,1.375-13.553c-3.771-2.338-7.23-2.125-10.668,0.875c-1.404,1.225-2.688,1.989-4.678-0.518
			c-4.482-5.645-9.004-7.784-14.732-1.21c-1.789,2.052-3.672,3.517-6.604,3.039c-0.479-0.078-1.071,0.539-1.733,0.901
			C178.17,124.69,181.444,124.558,184.475,124.166z"/>
		<path fill-rule="evenodd" clip-rule="evenodd" fill="#E5E2D3" d="M209.618,137.293c-0.166,0.241-0.346,0.477-0.53,0.711
			c-0.006,0.009-0.012,0.017-0.019,0.025v-0.001c-0.549,0.698-1.138,1.381-1.56,2.109c-3.19,5.51-6.555,10.918-9.856,16.363
			c-4.963,8.183-9.969,16.339-14.869,24.559c-1.085,1.821-1.701,3.916-2.714,5.788c-2.595,4.798-5.461,9.458-7.896,14.334
			c-2.256,4.519-4.149,9.224-6.1,13.89c-2.294,5.489-5.028,10.875-6.572,16.575c-1.993,7.361-2.872,15.017-4.456,22.498
			c-2.211,10.447-4.275,20.883-3.511,31.658c0.2,2.816-0.473,5.838,0.316,8.444c4.028,13.291,8.79,26.279,17.484,37.437
			c4.763,6.111,10.626,10.951,16.986,15.209c3.312,2.219,7.652,2.371,9.473-0.253c1.264-1.82,1.269-5.178,0.628-7.519
			c-1.284-4.689-3.969-8.883-6.106-13.229c-4.225-8.592-6.512-18.13-9.702-27.24c-2.48-7.086-2.858-14.561-4.268-21.844
			c-0.179-0.186-0.356-0.372-0.535-0.558c0.179-0.104,0.356-0.208,0.535-0.313c-0.709-5.383-1.418-10.767-2.127-16.15
			c-0.179-0.186-0.357-0.371-0.535-0.558c0.178-0.104,0.356-0.208,0.534-0.313c0.035-0.183,0.035-0.365,0.001-0.548
			c-0.179-0.186-0.357-0.371-0.535-0.558c0.178-0.104,0.356-0.208,0.534-0.312c0.237-1.365,0.474-2.729,0.71-4.095
			c-0.179-0.186-0.357-0.371-0.535-0.558c0.178-0.104,0.356-0.208,0.535-0.312c0.177-7.047-0.148-14.055,2.036-21.01
			c2.241-7.134,3.133-14.691,5.354-21.834c2.306-7.414,5.446-14.571,8.317-21.804c1.78-4.487,3.641-8.948,5.651-13.335
			c1.222-2.665,2.938-5.101,4.191-7.754c3.694-7.824,6.179-16.228,11.24-23.397c0.275-3.245,0.521-6.493,0.834-9.734
			c0.003-0.029,0.006-0.057,0.009-0.086C211.843,134.414,210.885,135.604,209.618,137.293z"/>
	</g>
</g>
</svg>
