<?xml version="1.0" encoding="utf-8"?>
<!-- Generator: Adobe Illustrator 16.0.0, SVG Export Plug-In . SVG Version: 6.00 Build 0)  -->
<!DOCTYPE svg PUBLIC "-//W3C//DTD SVG 1.1//EN" "http://www.w3.org/Graphics/SVG/1.1/DTD/svg11.dtd">
<svg version="1.1" xmlns="http://www.w3.org/2000/svg" xmlns:xlink="http://www.w3.org/1999/xlink" x="0px" y="0px"
	 width="566.93px" height="566.93px" viewBox="0 0 566.93 566.93" enable-background="new 0 0 566.93 566.93" xml:space="preserve">
<g id="fond" display="none">
	
		<rect x="-8889.913" y="-8861.898" display="inline" fill-rule="evenodd" clip-rule="evenodd" fill="#58595B" width="15942.492" height="15814.695"/>
</g>
<g id="en_cours">
</g>
<g id="fini">
	<g>
		<g>
			<path fill="#BFAE76" d="M446.071,366.104c0,0,0.703-0.089,2.066-0.26c0.682-0.086,1.528-0.192,2.534-0.318
				c1.153-0.117,2.686-0.232,4.311-0.358c1.69-0.162,3.383-0.153,5.306-0.194c1.905-0.078,4.021,0.072,6.286,0.142
				c4.546,0.31,9.797,0.915,15.581,2.358c5.769,1.456,12.072,3.724,18.403,7.27c6.314,3.538,12.709,8.268,18.336,14.462
				c1.448,1.508,2.75,3.188,4.106,4.855c1.26,1.745,2.576,3.488,3.718,5.385c2.359,3.738,4.469,7.786,6.133,12.133
				c3.378,8.656,5.275,18.439,4.843,28.605c-0.386,10.141-3.039,20.642-8.105,30.2c-5.045,9.557-12.333,18.147-21.051,24.936
				c-4.358,3.394-9.017,6.429-13.905,9.049c-4.908,2.561-9.99,4.84-15.23,6.693c-10.476,3.734-21.448,6.05-32.566,7.428
				c-22.275,2.594-45.113,1.383-67.713-1.962c-11.373-1.604-22.781-4.055-33.914-7.158c-11.142-3.083-22.095-6.688-32.887-10.576
				c-21.584-7.781-42.575-16.592-63.217-25.021c-20.629-8.441-40.946-16.513-60.97-22.813c-10.01-3.127-19.946-5.825-29.765-7.702
				c-9.81-1.882-19.511-2.989-28.872-2.849c-9.352,0.133-18.362,1.571-26.467,4.599c-0.999,0.407-2.025,0.746-2.994,1.201
				l-1.46,0.656l-0.729,0.326c-0.014,0.004-0.226,0.108-0.076,0.028l-0.188,0.098l-0.375,0.195c-1,0.521-1.994,1.039-2.984,1.555
				l-1.482,0.771c-0.481,0.26-0.899,0.537-1.352,0.804c-1.773,1.08-3.553,2.09-5.241,3.334c-0.854,0.594-1.703,1.185-2.548,1.772
				c-0.805,0.64-1.604,1.276-2.401,1.909c-1.635,1.22-3.071,2.632-4.563,3.954c-0.761,0.646-1.417,1.389-2.111,2.086
				c-0.686,0.708-1.366,1.411-2.044,2.11c-2.557,2.933-4.978,5.884-6.983,9.013c-4.104,6.19-7.129,12.652-9.114,19.005
				c-4.029,12.72-4.422,24.681-3.149,34.139c1.268,9.517,4.271,16.522,6.931,20.687c0.316,0.537,0.688,0.979,0.994,1.429
				c0.325,0.431,0.589,0.878,0.911,1.207c0.621,0.681,1.097,1.317,1.555,1.728c0.904,0.84,1.371,1.272,1.371,1.272l0.192,0.179
				c0.887,0.822,0.938,2.208,0.116,3.094c-0.809,0.871-2.163,0.935-3.051,0.155c0,0-0.587-0.516-1.723-1.516
				c-0.573-0.498-1.152-1.214-1.91-2.018c-0.393-0.395-0.708-0.885-1.1-1.38c-0.368-0.508-0.812-1.025-1.187-1.623
				c-3.163-4.691-6.588-12.294-8.196-22.463c-1.607-10.118-1.514-22.854,2.483-36.652c1.973-6.888,5.064-13.961,9.361-20.802
				c2.104-3.452,4.651-6.736,7.368-9.999c0.719-0.781,1.442-1.566,2.169-2.357c0.738-0.779,1.441-1.604,2.248-2.331
				c1.584-1.483,3.126-3.058,4.867-4.433c0.852-0.71,1.708-1.425,2.568-2.143c0.902-0.662,1.81-1.328,2.721-1.997
				c1.778-1.377,3.78-2.591,5.757-3.858c0.493-0.309,0.997-0.649,1.486-0.932l1.46-0.813c0.976-0.544,1.955-1.09,2.939-1.638
				l0.369-0.206l0.186-0.103l0.305-0.153l0.808-0.392l1.621-0.783c1.078-0.539,2.211-0.957,3.323-1.442
				c8.999-3.655,18.943-5.501,29.057-5.928c10.134-0.436,20.463,0.469,30.795,2.15c10.344,1.68,20.696,4.187,31.066,7.109
				c20.744,5.871,41.51,13.543,62.472,21.329c20.953,7.807,42.08,15.901,63.412,22.846c10.662,3.471,21.378,6.626,32.103,9.236
				c10.723,2.63,21.432,4.579,32.216,5.757c21.626,2.512,43.09,2.943,63.021-0.092c9.924-1.597,19.452-4,28.146-7.461
				c4.355-1.718,8.452-3.757,12.337-5.953c3.85-2.249,7.398-4.77,10.637-7.478c6.474-5.43,11.416-11.862,14.7-18.644
				c3.29-6.795,4.693-14.003,4.675-20.846c0.003-6.862-1.581-13.366-4.081-19.031c-1.226-2.851-2.755-5.468-4.421-7.864
				c-0.795-1.226-1.735-2.319-2.596-3.439c-0.956-1.044-1.834-2.123-2.837-3.057c-3.836-3.907-8.17-6.719-12.376-8.824
				c-4.224-2.103-8.426-3.382-12.317-4.158c-3.902-0.765-7.506-0.991-10.651-1.059c-1.588,0.047-3.04-0.012-4.398,0.139
				c-1.341,0.108-2.619,0.158-3.569,0.325c-1.015,0.132-1.912,0.248-2.687,0.349c-0.997,0.18-1.837,0.332-2.513,0.454
				c-1.352,0.244-2.05,0.37-2.05,0.37c-7.647,1.382-14.967-3.696-16.35-11.344c-1.382-7.647,3.697-14.968,11.345-16.35
				c0.233-0.042,0.467-0.078,0.7-0.108L446.071,366.104z"/>
		</g>
		<g>
			<path fill-rule="evenodd" clip-rule="evenodd" fill="#29251B" d="M282.208,61.167c2.442-0.464,9.461-1.54,18.541-0.713
				c0.378-1.528,0.696-3.032,0.943-4.505c0.013-0.08,0.03-0.154,0.043-0.235c0.004-0.027,0.007-0.054,0.011-0.081
				c0.515-3.184,0.723-6.229,0.66-9.123c0-0.017-0.001-0.032-0.001-0.049c-0.013-0.536-0.031-1.068-0.063-1.595
				c-0.42-8.412-3.146-16.269-9.236-23.209c-1.332-1.519-3.246-2.579-5.007-3.662c-2.435-1.497-5.108-2.583-7.896-3.31
				c-0.167-0.046-0.334-0.09-0.502-0.133c-0.247-0.061-0.491-0.126-0.74-0.181c-2.165-0.499-4.411-0.752-6.706-0.743
				c-7.481-0.074-15.063,2.304-20.84,7.012c-1.8,1.467-3.625,2.929-5.241,4.586c-0.423,0.433-0.76,0.871-1.029,1.313
				c-0.999,1.04-1.979,2.16-2.944,3.339C266.401,43.477,279.362,57.812,282.208,61.167z"/>
			<path fill-rule="evenodd" clip-rule="evenodd" fill="#29251B" d="M450.098,322.475c-1.634-4.903-3.763-9.639-5.547-14.494
				c-1.524-4.15-2.677-8.445-4.344-12.533c-3.797-9.306-7.823-18.518-11.729-27.779c-5.138-12.182-12.618-23.007-19.841-33.957
				c-5.577-8.454-11.143-16.987-17.535-24.815c-6.546-8.017-14.119-15.193-21.193-22.782c-8.061-8.646-16.674-16.74-26.649-23.059
				c-7.015-4.443-14.779-7.686-22.089-11.684c-4.048-2.213-6.841-5.631-8.274-10.704c2.124,0,3.759,0.002,5.393-0.001
				c2.743-0.005,4.468-0.647,5.456-2.127c-0.6-0.984-0.951-2.137-0.951-3.373c0-3.59,2.91-6.5,6.5-6.5s6.5,2.91,6.5,6.5
				c0,0.358-0.037,0.708-0.093,1.051c0.971,0.537,2.042,0.562,3.366,0.021c6.416-2.624,10.998-7.069,13.374-13.565
				c4.932-13.479,1.316-25.604-6.538-36.75c-6.74-9.563-16.402-15.141-27.326-18.867c-5.322-1.816-10.743-2.88-16.229-3.438
				c-0.062,0.001-0.122,0.005-0.186-0.002c-0.444-0.052-0.875-0.09-1.311-0.131c-0.301-0.026-0.601-0.058-0.902-0.08
				c0.001-0.003,0.001-0.005,0.002-0.008c-10.364-0.862-17.903,0.863-17.982,0.883l-0.935,0.219l-0.591-0.758
				c-0.153-0.197-12.951-16.312-40.109-31.476c-0.016,0.021-0.032,0.041-0.048,0.063c-0.257-0.141-0.523-0.267-0.774-0.418
				c-0.806-0.485-1.617-0.957-2.433-1.419c-4.103-2.185-8.5-4.336-13.215-6.402c-7.856-3.271-15.984-5.857-24.181-8.247
				c-8.396-2.448-16.93-4.435-25.446-6.444c-2.759-0.65-5.66-0.687-8.488-1.062c-1.007-0.133-1.99-0.435-2.984-0.66
				c-3.601,0-7.2,0-10.801,0c-1.109,0.226-2.21,0.535-3.33,0.657c-2.26,0.248-4.53,0.394-6.797,0.581
				c-6.189,2.3-7.964,4.976-6.016,9.428c0.584,1.337,1.744,2.423,2.641,3.623c5.024,4.47,9.984,9.015,15.088,13.393
				c7.403,6.352,15.67,11.63,20.439,20.81c4.604,8.857,8.279,17.871,9.689,27.752c0.641,4.493,1.03,9.023,1.691,13.514
				c1.882,12.764,3.461,25.523,3.129,38.491c-0.206,8.032,0.034,16.113,0.701,24.12c0.7,8.406,2.025,16.77,3.311,25.116
				c0.899,5.842,2.004,11.666,3.367,17.415c0.982,4.143,1.164,4.236-2.734,5.488c4.734,0.286,6.214,1.924,8.249,6.235
				c2.523,5.345,5.793,10.336,8.74,15.479c1.156,1.297,2.329,2.579,3.466,3.894c2.819,3.259,5.322,6.864,8.492,9.735
				c7.858,7.117,16.189,13.715,24.004,20.878c6.276,5.753,10.896,12.841,14.059,20.775c0.533,1.34,0.411,3.021,0.302,4.522
				c-0.178,2.432-1.076,4.439-2.355,6.231c-0.2,0.226-0.408,0.451-0.621,0.676c-3.125,3.287-8.435,6.512-8.435,6.511
				c0,0,1.969,1.671,5.084,2.984c0.461,0.276,1.008,0.51,1.655,0.68c0.22,0.058,0.446,0.095,0.669,0.147
				c1.049,0.303,2.178,0.536,3.37,0.647l-0.002-0.012c1.884,0.271,3.789,0.448,5.68,0.598c3.065,0.242,3.994,1.219,2.783,4.18
				c-0.368,0.899-0.815,1.767-1.289,2.623c-3.501,6.446-7.617,4.736-7.617,4.736s2.416,3.333,7.992,5.6l0,0
				c0.214,0.094,0.438,0.187,0.67,0.277c1.187,0.465,2.484,0.899,2.514,1.424c0.105,1.85-0.793,3.756-1.292,5.641
				c-0.252-0.093-0.504-0.185-0.756-0.276c-0.206-1.062,0.667-3.824,0.455-4.915c-0.99,0-2.807-1.374-3.083-1
				c-1.886,2.551-4.219,3.999-6.502,3.739c-4.998-2.072-5.165-2.406-5.165-2.406s-0.508,4.541,1.246,6.563
				c0.767,1.534,1.765,2.952,2.633,4.368c-2.19,2.904-5.032,1.857-7.627,1.81l0,0c-4.419-0.323-9.335,2.344-9.335,2.344
				s6.139,1.852,8.819,3.801c0.284,0.206,0.548,0.406,0.805,0.603c1.623,1.372,1.982,2.914,1.284,5.504
				c-1.609,5.966-2.927,12.109-3.407,18.256c-0.662,8.457-0.206,16.777,3.773,24.814c3.313,6.692,6.755,12.919,12.944,17.371
				c2.621,1.886,4.907,4.236,7.346,6.377c7.581,2.52,15.046,5.524,22.785,7.392c5.309,1.28,10.997,1.013,16.52,1.365
				c1.791,0.114,3.423,0.132,1.987,2.606c0.45,0.075,0.9,0.15,1.35,0.225c4.314-0.261,8.628-0.563,12.946-0.748
				c0.825-0.035,1.67,0.394,2.506,0.607c0.275,0,0.551,0,0.826,0c3.039,0.011,6.081-0.075,9.116,0.05
				c5.74,0.238,11.479,0.53,17.21,0.933c3.269,0.229,6.513,0.793,9.779,1.075c3.435,0.296,6.883,0.436,10.324,0.644
				c0.275,0,0.551,0,0.826,0c3.101,0,6.2,0,9.301,0c0.274,0,0.55,0,0.825,0c5.664-0.814,11.361-1.449,16.981-2.501
				c4.216-0.788,8.277-2.432,12.679-0.909c0.99,0.343,2.223-0.015,3.344-0.049c-1.202-0.745-2.406-1.49-3.957-2.451
				c3.596-3.799,6.707-7.289,10.042-10.551c3.72-3.641,6.766-7.646,9.106-12.35c1.4-2.812,3.863-5.095,5.849-7.615
				c-0.029-1.319-0.443-2.779-0.021-3.934c2.04-5.588,4.461-11.04,6.43-16.65c1.106-3.154,1.599-6.523,2.367-9.796
				c0.639-5.884,1.871-11.778,1.775-17.651C453.44,340.188,452.978,331.119,450.098,322.475z M275.392,231.391
				c-0.498,1.96-2.284,3.775-3.896,5.175c-0.591,0.513-2.742,0.013-3.573-0.716c-1.363-1.195-2.23-2.956-3.937-5.369
				c-1.053,2.743-1.735,4.903-2.718,6.917c-0.474,0.971-1.57,2.378-2.278,2.318c-1.065-0.09-2.314-1.102-2.98-2.069
				c-0.976-1.418-1.506-3.144-2.226-4.738c-0.307,0.09-0.613,0.179-0.92,0.268c-0.317,1.287-0.533,2.609-0.975,3.853
				c-0.666,1.876-2.237,3.022-3.663,1.292c-3.038-3.688-6.014-7.535-8.3-11.709c-2.665-4.863,0.289-11.813,4.201-15.844
				c3.831-3.945,8.871-3.867,13.448-5.074c2.267-0.598,5.429,0.213,7.563,1.456C274.068,212.35,278.01,221.091,275.392,231.391z"/>
		</g>
		<path fill-rule="evenodd" clip-rule="evenodd" fill="#BFAE76" d="M315.333,431.064c4.314-0.261,8.628-0.563,12.946-0.748
			c0.825-0.035,1.67,0.394,2.506,0.607c0.276,0,0.551,0,0.826,0c3.039,0.011,6.081-0.075,9.116,0.05
			c5.74,0.238,11.479,0.53,17.21,0.933c3.269,0.229,6.513,0.793,9.779,1.075c3.435,0.296,6.883,0.436,10.324,0.644
			c0.276,0,0.551,0,0.826,0c3.101,0,6.2,0,9.301,0c0.275,0,0.55,0,0.825,0c5.664-0.814,11.361-1.449,16.981-2.501
			c4.216-0.788,8.277-2.432,12.679-0.909c0.99,0.343,2.223-0.015,3.344-0.049c3.574,1.228,6.098,3.314,6.104,7.461
			c0,0.276,0,0.552,0,0.828c-0.237,3.627-2.374,5.928-6.378,6.652c-8.787,1.591-17.532,3.341-26.584,2.792
			c-6.049-0.367-12.143-0.227-18.207-0.034c-10.124,0.321-20.24,0.933-30.363,1.288c-4.832,0.168-9.684-0.162-14.508,0.088
			c-3.945,0.204-7.972,0.535-11.76,1.559c-3.027,0.817-4.496,3.665-4.964,6.801c-0.592,3.974-2.103,4.685-5.504,2.685
			c-2.729-1.604-5.306-3.081-7.679,0.909c-1.497,2.519-4.093,1.428-5.551-0.197c-2.229-2.483-3.584-1.597-5.382,0.35
			c-0.537,0.581-1.913,0.386-2.903,0.547c-0.184-0.185-0.368-0.369-0.551-0.554c-3.265-5.558-3.224-11.715-1.068-17.22
			c1.855-4.738,6.563-7.68,11.632-9.065C303.943,433.521,309.661,432.378,315.333,431.064z"/>
		<path fill-rule="evenodd" clip-rule="evenodd" fill="#BFAE76" d="M272.691,419.477c7.581,2.52,15.046,5.524,22.785,7.392
			c5.309,1.28,10.997,1.013,16.52,1.365c1.791,0.114,3.423,0.132,1.987,2.606c-9.683,0.914-19.336,1.891-28.752,4.621
			c-2.448,0.711-5.259,0.265-7.899,0.2c-6.661-0.164-13.319-0.414-19.979-0.629c-0.275,0-0.551,0-0.827,0c-1.3,0-2.599,0-3.897,0
			c-0.276,0-0.553,0-0.828,0c-1.731,2.095-3.674,4.054-5.14,6.321c-1.839,2.843-3.68,3.445-5.447,0.702
			c-2.155-3.346-4.053-3.903-6.858-1.028c-0.225,0.23-0.859,0.063-1.305,0.08c-0.276,0-0.552,0-0.828,0
			c-0.652-0.352-1.353-0.638-1.951-1.066c-2.328-1.666-4.373-3.352-7.442-0.802c-1.792,1.49-4.969-1.126-5.33-4.476
			c-0.776-7.214,2.054-12.119,10.426-12.67c7.555-0.497,15.048-1.893,22.598-2.516c4.777-0.395,9.611-0.104,14.419-0.113
			C267.524,419.461,270.107,419.472,272.691,419.477z"/>
		<path fill-rule="evenodd" clip-rule="evenodd" fill="#BFAE76" d="M193.144,208.063c4.734,0.286,6.214,1.924,8.249,6.235
			c2.523,5.345,5.793,10.336,8.74,15.479c0.13,0.729,0.04,1.615,0.429,2.157c1.57,2.19,1.148,4.44-0.452,6.027
			c-1.779,1.764-4.149,1.411-6.322,0.122c-0.947-0.563-2.027-0.901-3.048-1.342c-0.281,1.02-0.505,2.061-0.861,3.053
			c-0.343,0.95-0.645,2.423-1.291,2.627c-0.781,0.246-2.037-0.423-2.857-1.014c-1.764-1.272-3.381-2.75-5.244-4.297
			c-0.502,1.063-0.664,1.257-0.679,1.462c-0.142,2.046,0.03,4.763-2.38,5.035c-1.284,0.146-3.467-1.785-4.146-3.278
			c-1.961-4.306-4.344-8.781-4.732-13.347c-0.46-5.405,2.801-10.226,6.643-13.994C187.362,210.859,190.462,209.674,193.144,208.063z
			"/>
		<path fill-rule="evenodd" clip-rule="evenodd" fill="#BFAE76" d="M251.8,435.032c0.275,0,0.552,0,0.828,0
			c-0.177,0.165-0.354,0.33-0.53,0.496C251.999,435.362,251.899,435.197,251.8,435.032z"/>
		<path fill-rule="evenodd" clip-rule="evenodd" fill="#BFAE76" d="M256.525,435.032c0.276,0,0.552,0,0.827,0
			c-0.176,0.165-0.353,0.33-0.529,0.496C256.724,435.362,256.624,435.197,256.525,435.032z"/>
		<path fill-rule="evenodd" clip-rule="evenodd" fill="#BFAE76" d="M428.102,438.455c0-0.276,0-0.552,0-0.828
			c0.165,0.177,0.331,0.354,0.496,0.529C428.433,438.256,428.267,438.355,428.102,438.455z"/>
		<path fill-rule="evenodd" clip-rule="evenodd" fill="#BFAE76" d="M232.222,441.107c0.276,0,0.552,0,0.828,0
			c-0.177,0.165-0.353,0.331-0.529,0.496C232.421,441.438,232.321,441.272,232.222,441.107z"/>
		<path fill-rule="evenodd" clip-rule="evenodd" fill="#BFAE76" d="M287.769,461.34c0.183,0.185,0.367,0.369,0.551,0.554
			C288.136,461.709,287.951,461.524,287.769,461.34z"/>
		<path fill-rule="evenodd" clip-rule="evenodd" fill="#BFAE76" d="M263.986,230.48c-1.053,2.743-1.735,4.903-2.718,6.917
			c-0.474,0.971-1.57,2.378-2.278,2.318c-1.065-0.09-2.314-1.102-2.98-2.069c-0.976-1.418-1.506-3.144-2.226-4.738
			c-0.307,0.09-0.613,0.179-0.92,0.268c-0.317,1.287-0.533,2.609-0.975,3.853c-0.666,1.876-2.237,3.022-3.663,1.292
			c-3.038-3.688-6.014-7.535-8.3-11.709c-2.665-4.863,0.289-11.813,4.201-15.844c3.831-3.945,8.871-3.867,13.448-5.074
			c2.267-0.598,5.429,0.213,7.563,1.456c8.93,5.2,12.871,13.941,10.253,24.241c-0.498,1.96-2.284,3.775-3.896,5.175
			c-0.591,0.513-2.742,0.013-3.573-0.716C266.56,234.654,265.692,232.894,263.986,230.48z"/>
		<path fill-rule="evenodd" clip-rule="evenodd" fill="#BFAE76" d="M331.611,430.924c-0.275,0-0.55,0-0.826,0
			C331.061,430.924,331.336,430.924,331.611,430.924z"/>
		<path fill-rule="evenodd" clip-rule="evenodd" fill="#BFAE76" d="M378.867,433.625c-0.275,0-0.55,0-0.826,0
			C378.316,433.625,378.592,433.625,378.867,433.625z"/>
		<path fill-rule="evenodd" clip-rule="evenodd" fill="#BFAE76" d="M388.993,433.625c-0.275,0-0.55,0-0.825,0
			C388.442,433.625,388.718,433.625,388.993,433.625z"/>
		<g>
			<path fill="#E5E2D3" d="M348.563,311.673l2.831,7.218l0.32,0.815l-0.878-0.301l0,0c-1.647-0.564-3.371-1.007-5.089-1.359
				c-0.862-0.169-1.726-0.325-2.594-0.445c-0.866-0.125-1.735-0.226-2.604-0.291c-0.869-0.076-1.737-0.109-2.604-0.121
				c-0.434-0.022-0.865,0.009-1.297,0.015c-0.431,0.015-0.862,0.01-1.29,0.058c-0.857,0.061-1.709,0.142-2.548,0.287
				c-0.848,0.095-1.661,0.339-2.486,0.503h-0.001l0.92-2.109l2.812,4.457c0.475,0.74,0.92,1.5,1.439,2.213l1.514,2.17v0.001
				l1.228,1.612l-2.072,0.289c-0.614,0.085-1.321,0.209-1.984,0.366c-0.674,0.142-1.341,0.335-2.009,0.516
				c-1.33,0.396-2.64,0.859-3.919,1.394c-0.631,0.287-1.275,0.545-1.895,0.854l-1.846,0.951l-1.778,1.064
				c-0.596,0.35-1.14,0.778-1.712,1.162c-0.28,0.199-0.568,0.389-0.844,0.596l-0.8,0.653c-0.522,0.446-1.087,0.845-1.576,1.327
				l-1.486,1.427c-0.512,0.457-0.922,1.017-1.388,1.518c-0.438,0.527-0.938,1-1.32,1.574l-1.216,1.656
				c-0.43,0.534-0.749,1.146-1.111,1.728l-1.062,1.758l-0.001,0.001l-1.865-2.799l1.934-0.048l0.962-0.021
				c0.32,0,0.639,0.041,0.957,0.061l1.904,0.148c0.628,0.092,1.252,0.202,1.875,0.303c0.311,0.059,0.626,0.088,0.931,0.172
				l0.919,0.221c0.613,0.143,1.223,0.294,1.819,0.492c0.602,0.181,1.2,0.369,1.788,0.599c0.6,0.214,1.159,0.447,1.784,0.732
				l0.002,0.001l1.049,0.369l-0.468,1.236c-0.698,1.849-1.342,3.87-1.817,5.866c-0.496,2.007-0.881,4.037-1.203,6.074
				c-0.267,2.045-0.512,4.093-0.584,6.151c-0.104,2.057-0.07,4.116,0.028,6.171c0.045,1.028,0.185,2.049,0.266,3.075
				c0.111,1.022,0.284,2.038,0.422,3.06c0.175,1.015,0.406,2.019,0.605,3.031c0.228,1.005,0.528,1.993,0.788,2.992
				c0.605,1.973,1.267,3.936,2.1,5.832c0.203,0.476,0.388,0.961,0.604,1.431l0.69,1.394c0.466,0.927,0.894,1.874,1.442,2.758
				c0.528,0.896,1.03,1.807,1.578,2.69l1.743,2.594c0.553,0.887,1.253,1.667,1.866,2.512c0.635,0.83,1.241,1.684,1.948,2.457
				l2.053,2.38c0.696,0.783,1.456,1.51,2.182,2.269c1.43,1.543,3.031,2.911,4.584,4.337c1.561,1.416,3.256,2.677,4.882,4.026
				c1.69,1.265,3.396,2.519,5.112,3.76c1.771,1.158,3.531,2.343,5.32,3.484l5.472,3.271l-5.711-2.855
				c-1.864-1.026-3.706-2.101-5.564-3.151c-1.804-1.137-3.608-2.283-5.396-3.459c-1.708-1.284-3.49-2.48-5.146-3.842
				c-1.647-1.371-3.348-2.689-4.886-4.194c-0.78-0.739-1.594-1.446-2.348-2.215l-2.229-2.344c-0.765-0.763-1.435-1.611-2.132-2.438
				c-0.675-0.844-1.415-1.638-2.021-2.537l-1.896-2.64c-0.6-0.902-1.155-1.836-1.735-2.755c-0.602-0.906-1.083-1.883-1.602-2.839
				l-0.77-1.44c-0.243-0.486-0.454-0.989-0.684-1.483c-0.938-1.969-1.704-4.017-2.408-6.084c-0.31-1.047-0.66-2.086-0.935-3.144
				c-0.247-1.065-0.524-2.126-0.744-3.198c-0.183-1.079-0.398-2.155-0.551-3.24c-0.111-1.09-0.264-2.177-0.327-3.271
				c-0.141-2.188-0.195-4.384-0.044-6.57c0.084-2.19,0.402-4.363,0.768-6.519c0.407-2.149,0.938-4.274,1.616-6.353
				c0.711-2.081,1.458-4.091,2.554-6.097l0.581,1.605l-0.001-0.001c-0.49-0.165-1.062-0.345-1.613-0.479
				c-0.552-0.157-1.116-0.275-1.683-0.386c-0.561-0.129-1.131-0.212-1.701-0.286l-0.853-0.119c-0.282-0.051-0.571-0.046-0.856-0.072
				l-1.708-0.108l-1.702,0.036c-0.282,0.011-0.565-0.002-0.846,0.027l-0.838,0.104l-1.665,0.2l-3.704,0.446l1.838-3.245l0.001-0.002
				l1.241-1.884c0.422-0.622,0.802-1.271,1.295-1.844l1.406-1.762c0.445-0.605,1.012-1.111,1.516-1.667
				c0.531-0.53,1.007-1.115,1.585-1.597l1.686-1.491c0.556-0.503,1.186-0.917,1.774-1.378l0.898-0.673
				c0.307-0.212,0.627-0.406,0.94-0.61c0.636-0.393,1.245-0.829,1.902-1.182l1.965-1.07l2.025-0.942
				c0.679-0.305,1.381-0.556,2.069-0.834c1.394-0.517,2.814-0.956,4.255-1.322c0.726-0.167,1.447-0.343,2.185-0.468
				c0.742-0.142,1.456-0.243,2.269-0.32l-0.845,1.901l-0.001-0.001l-1.64-2.15c-0.562-0.706-1.054-1.466-1.572-2.205l-3.087-4.467
				l-1.175-1.701l2.096-0.408l0.001-0.001c0.936-0.103,1.861-0.279,2.794-0.3c0.931-0.071,1.857-0.074,2.781-0.053
				c0.463-0.006,0.922,0.04,1.381,0.067c0.458,0.036,0.918,0.049,1.372,0.113c0.912,0.099,1.817,0.218,2.714,0.382
				c0.898,0.152,1.789,0.341,2.67,0.554c0.884,0.207,1.756,0.451,2.623,0.707c1.732,0.528,3.422,1.132,5.085,1.883h0.001
				l-0.558,0.515L348.563,311.673z"/>
		</g>
		<circle fill-rule="evenodd" clip-rule="evenodd" fill="#AB2E23" cx="243.96" cy="68.5" r="10.25"/>
		<circle fill-rule="evenodd" clip-rule="evenodd" fill="#BFAE76" cx="142.155" cy="16.413" r="7.087"/>
		<g>
			<path fill="#E5E2D3" d="M268.126,355.333c0,0-0.033,0.311-0.095,0.894c-0.066,0.582-0.156,1.441-0.218,2.521
				c-0.04,0.54-0.084,1.135-0.086,1.791c-0.01,0.654-0.068,1.354-0.044,2.109c0.01,1.506,0.047,3.201,0.185,5.044
				c0.061,0.921,0.155,1.878,0.266,2.866c0.086,0.99,0.238,2.008,0.383,3.053c0.324,2.087,0.701,4.28,1.216,6.523
				c0.495,2.246,1.134,4.537,1.81,6.852c0.718,2.305,1.541,4.612,2.43,6.895c0.924,2.267,1.904,4.514,3.026,6.644
				c1.085,2.149,2.255,4.214,3.522,6.122c1.23,1.934,2.554,3.711,3.884,5.337c1.364,1.591,2.679,3.093,4.044,4.319
				c1.338,1.258,2.646,2.326,3.858,3.207c1.228,0.854,2.316,1.597,3.274,2.101c0.933,0.556,1.708,0.914,2.235,1.166
				c0.528,0.254,0.81,0.39,0.81,0.39s-0.298-0.092-0.857-0.265c-0.559-0.177-1.398-0.397-2.404-0.844
				c-1.027-0.397-2.237-0.98-3.578-1.739c-1.326-0.781-2.809-1.713-4.285-2.914c-0.371-0.3-0.749-0.605-1.135-0.916
				c-0.368-0.332-0.743-0.669-1.124-1.013c-0.782-0.671-1.505-1.448-2.267-2.231c-1.471-1.61-2.979-3.362-4.337-5.317
				c-1.386-1.937-2.675-4.035-3.878-6.223c-1.21-2.187-2.237-4.507-3.225-6.84c-0.972-2.341-1.776-4.745-2.484-7.134
				c-0.682-2.396-1.289-4.773-1.684-7.114c-0.236-1.161-0.379-2.32-0.563-3.445c-0.14-1.133-0.266-2.242-0.346-3.325
				c-0.17-2.165-0.26-4.218-0.197-6.112c0.025-1.894,0.158-3.626,0.345-5.149c0.186-1.525,0.397-2.843,0.649-3.92
				c0.209-1.084,0.46-1.903,0.622-2.467C268.04,355.634,268.126,355.333,268.126,355.333z"/>
		</g>
	</g>
</g>
</svg>
