<?xml version="1.0" encoding="utf-8"?>
<!-- Generator: Adobe Illustrator 16.0.0, SVG Export Plug-In . SVG Version: 6.00 Build 0)  -->
<!DOCTYPE svg PUBLIC "-//W3C//DTD SVG 1.1//EN" "http://www.w3.org/Graphics/SVG/1.1/DTD/svg11.dtd">
<svg version="1.1" xmlns="http://www.w3.org/2000/svg" xmlns:xlink="http://www.w3.org/1999/xlink" x="0px" y="0px"
	 width="566.93px" height="566.93px" viewBox="0 0 566.93 566.93" enable-background="new 0 0 566.93 566.93" xml:space="preserve">
<g id="fond" display="none">
	
		<rect x="-10187.873" y="-7591.898" display="inline" fill-rule="evenodd" clip-rule="evenodd" fill="#58595B" width="15942.492" height="15814.695"/>
</g>
<g id="en_cours">
</g>
<g id="fini">
	<g>
		<path fill-rule="evenodd" clip-rule="evenodd" fill="#BFAE76" d="M5.731,192.899c0.726-2.531,1.786-5.02,2.114-7.602
			c0.92-7.23,1.274-14.539,2.34-21.744c1.377-9.317,3.047-18.592,8.14-26.852c1.709-2.772,2.692-5.984,4.282-8.842
			c0.814-1.463,2.234-2.589,3.436-3.929c4.284,2.98,2.274,6.603,1.896,9.719c-0.301,2.475-1.836,4.773-2.416,7.246
			c-1.266,5.391-2.464,10.812-3.339,16.276c-1.26,7.866-2.96,15.772-3.069,23.681c-0.102,7.311,1.379,14.693,2.644,21.96
			c1.456,8.368,2.846,16.833,5.412,24.89c1.611,5.057,5.147,9.564,8.151,14.1c5.714,8.628,13.467,15.29,22.195,20.581
			c5.473,3.318,11.646,5.513,17.582,8.028c5.932,2.512,11.955,4.807,17.955,7.157c0.533,0.208,1.184,0.118,1.779,0.167
			c1.523,3.922-1.578,4.814-4.692,6.487c4.337,6.677,4.81,13.822,1.535,21.426c-3.579,0-7.099,0-10.617,0
			c-8.806-1.725-17.455-3.842-24.893-9.272c-6.152-4.49-12.789-8.43-18.417-13.496c-5.177-4.659-9.916-10.089-13.72-15.916
			c-4.528-6.934-8.445-14.417-11.513-22.107c-2.409-6.035-3.091-12.753-4.608-19.151c-0.634-2.669-1.446-5.295-2.178-7.94
			c0-0.975,0-1.95,0-2.925c0.244-3.709,0.642-7.417,0.679-11.128c0.026-2.626-0.435-5.258-0.679-7.887
			C5.731,194.85,5.731,193.875,5.731,192.899z"/>
		<path fill-rule="evenodd" clip-rule="evenodd" fill="#BFAE76" d="M5.731,195.825c0.244,2.629,0.705,5.261,0.679,7.887
			c-0.037,3.711-0.435,7.418-0.679,11.128C5.731,208.501,5.731,202.163,5.731,195.825z"/>
		<path fill-rule="evenodd" clip-rule="evenodd" fill="#BFAE76" d="M316.186,123.39c4.033,4.192,5.862,9.322,6.918,14.741
			c1.798,9.241,4.006,18.46,4.92,27.798c0.725,7.415-0.18,14.995-0.459,22.498c-0.148,3.976-0.372,7.958-0.801,11.912
			c-0.801,7.377-1.662,14.751-2.716,22.095c-0.88,6.135-1.624,12.349-3.288,18.287c-1.021,3.643-3.879,6.73-5.533,10.245
			c-4.024,8.546-11.43,13.827-18.651,19.086c-6.606,4.811-13.532,9.423-20.895,12.899c-10.702,5.053-21.935,8.953-33.729,10.885
			c-8.59,1.407-17.161,2.92-25.741,4.383c-0.238,0.04-0.486,0.03-0.722,0.084c-6.701,1.526-6.777,1.481-8.804-5.996
			c1.781-0.723,3.711-1.387,5.531-2.276c1.916-0.938,3.726-2.093,6.516-3.686c-2.768-3.235-5.36-6.188-7.853-9.225
			c-0.737-0.9-1.19-2.033-1.774-3.06c0.984-0.481,1.928-1.257,2.959-1.399c12.91-1.775,25.901-3.068,38.715-5.366
			c4.868-0.873,9.29-4.104,13.996-6.068c3.05-1.272,6.389-1.905,9.336-3.355c3.187-1.568,6.375-3.406,9.031-5.732
			c9.984-8.746,17.617-19.138,21.973-31.876c2.231-6.528,2.941-13.154,3.51-19.955c0.715-8.553,2.325-17.028,3.446-25.55
			c0.626-4.758,1.247-9.532,1.507-14.319c0.418-7.74,0.686-15.496,0.7-23.245c0.005-2.68-0.555-5.51-1.532-8.008
			C311.401,125.75,312.894,124.385,316.186,123.39z"/>
		<path fill-rule="evenodd" clip-rule="evenodd" fill="#E5E2D3" d="M387.41,223.766c2.056,4.136,4.11,8.271,6.388,12.856
			c4.938-6.187,4.067-13.632,6.714-20.356c4.201,14.095,2.328,27.731-0.455,41.045c-1.764-4.236-3.364-8.649-5.513-12.777
			c-0.445-0.854-2.933-0.645-4.672-0.961c-4.112,21.859-8.094,43.027-12.074,64.196c-0.521,0.032-1.042,0.063-1.563,0.096
			c-5.462-19.357-10.138-39.015-20.741-56.947c-2.214,4.927-4.241,9.442-6.27,13.957c0.188-8.595-4.528-15.08-6.749-22.335
			c-0.462-0.085-0.925-0.17-1.388-0.255c-0.856,1.277-1.923,2.463-2.53,3.849c-1.929,4.405-3.686,8.885-5.51,13.335
			c-0.565-0.164-1.132-0.328-1.698-0.491c1.221-8.031,2.442-16.063,3.705-24.374c1.043,0.386,2.066,0.765,3.641,1.348
			c1.261-2.096,2.631-4.373,4.094-6.804c4.648,3.296,5.114,9.474,8.186,15.282c1.911-3.973,3.419-7.109,5.099-10.598
			c6.157,13.287,12.271,26.476,18.384,39.664c0.317-0.014,0.635-0.028,0.952-0.042c3.659-16.542,7.317-33.084,10.976-49.627
			C386.727,223.806,387.068,223.786,387.41,223.766z"/>
		<path fill-rule="evenodd" clip-rule="evenodd" fill="#E5E2D3" d="M181.39,312.392c-3.418,1.604-6.81,3.274-10.28,4.755
			c-0.628,0.269-1.749,0.002-2.365-0.422c-6.295-4.328-11.752-3.784-13.44,6.34c-0.11,0.662-0.188,1.329-0.306,2.159
			c-2.984-4.297-5.754-8.284-8.626-12.42c-4.86,1.629-4.163,6.761-6.323,10.625c-1.93-2.288-3.65-4.328-5.457-6.471
			c-6.514,7.41-8.83,15.667-9.01,24.902c-5.262-10.371-5.26-21.62-6.532-33.308c-4.83,5.289-6.418,11.318-8.476,17.984
			c-0.987-8.253-2.168-15.646,0.972-23.887c0.187,2.329,0.293,3.66,0.399,4.992c0.279,0.141,0.558,0.282,0.836,0.423
			c2.771-3.6,5.544-7.199,7.991-10.377c1.962,5.527,4.101,11.554,6.536,18.414c2.002-2.687,3.323-4.459,4.706-6.314
			c1.798,1.894,3.478,3.663,5.493,5.785c2.805-3.786,5.386-7.272,8.156-11.013c2.268,2.979,1.474,8.537,6.241,7.984
			c2.233-0.259,4.118-3.532,6.371-5.634C164.664,310.998,171.837,315.863,181.39,312.392z"/>
		<path fill-rule="evenodd" clip-rule="evenodd" fill="#E5E2D3" d="M467.493,243.177c-2.543-3.167-4.948-6.461-7.696-9.439
			c-1.096-1.187-2.952-1.673-4.819-2.669c-0.431,5.779-0.796,10.681-1.163,15.605c-7.167-10.046-15.733-18.446-27.39-22.903
			c-0.43,0.273-0.859,0.547-1.29,0.821c0,10.809,0,21.617,0,32.426c-0.307,0.036-0.614,0.071-0.922,0.106
			c-3.354-8.181-6.709-16.363-10.219-24.925c2.063,1.287,3.867,2.411,6.215,3.875c1.045-6.957,1.974-13.135,2.926-19.471
			c7.724,4.73,15.716,9.626,24.214,14.831c2.053-2.468,0.146-6.032,1.083-9.271c4.677,2.03,9.344,4.056,14.643,6.355
			c-0.365-5.587-0.679-10.38-1.048-16.033c3.735,4.385,7.019,8.237,10.653,12.502c-2.278-0.833-4.066-1.487-7.065-2.584
			c0.854,7.228,1.621,13.7,2.387,20.173C467.832,242.777,467.662,242.977,467.493,243.177z"/>
		<path fill-rule="evenodd" clip-rule="evenodd" fill="#BFAE76" d="M177.169,412.08c-1.474,5.06-4.939,8.751-8.501,12.328
			c-0.33,0.331-1.851-0.043-2.447-0.537c-2.684-2.225-3.79-7.588-2.35-10.577c0.975-2.021,5.895-3.236,9.599-2.338
			C174.484,411.202,175.472,411.56,177.169,412.08z"/>
		<path fill-rule="evenodd" clip-rule="evenodd" fill="#BFAE76" d="M133.664,418.488c0.855,1.842,1.71,3.684,2.564,5.526
			c-0.427,0.261-0.854,0.521-1.281,0.782c-1.074-1.729-2.148-3.457-3.223-5.186C132.371,419.237,133.018,418.862,133.664,418.488z"
			/>
		<path fill-rule="evenodd" clip-rule="evenodd" fill="#E5E2D3" d="M461.495,213.051c-0.264-0.549-0.527-1.099-0.792-1.648
			c0.247-0.104,0.494-0.209,0.742-0.314c0.209,0.572,0.418,1.145,0.627,1.717C461.881,212.888,461.688,212.97,461.495,213.051z"/>
		<path fill-rule="evenodd" clip-rule="evenodd" fill="#E5E2D3" d="M468.001,242.576c0.278,0.617,0.558,1.233,0.836,1.85
			c-0.173,0.083-0.345,0.167-0.516,0.25c-0.276-0.5-0.552-0.999-0.828-1.499C467.662,242.977,467.832,242.777,468.001,242.576z"/>
		<path fill-rule="evenodd" clip-rule="evenodd" fill="#E5E2D3" d="M181.262,388.778c0.201-0.199,0.401-0.398,0.603-0.598
			C181.663,388.38,181.463,388.579,181.262,388.778z"/>
		<path fill-rule="evenodd" clip-rule="evenodd" fill="#E5E2D3" d="M171.777,395.567c0.229-0.068,0.458-0.138,0.687-0.207
			C172.241,395.45,172.013,395.52,171.777,395.567z"/>
		<path fill-rule="evenodd" clip-rule="evenodd" fill="#E5E2D3" d="M235.367,416.082c-0.201,0.199-0.401,0.398-0.602,0.598
			C234.966,416.48,235.166,416.281,235.367,416.082z"/>
		<path fill-rule="evenodd" clip-rule="evenodd" fill="#E5E2D3" d="M187.83,424.858c-0.201,0.199-0.402,0.398-0.604,0.598
			C187.428,425.257,187.629,425.058,187.83,424.858z"/>
		<path fill-rule="evenodd" clip-rule="evenodd" fill="#E5E2D3" d="M169.546,432.903c-0.2,0.199-0.401,0.398-0.603,0.598
			C169.145,433.302,169.346,433.103,169.546,432.903z"/>
		<path fill-rule="evenodd" clip-rule="evenodd" fill="#E5E2D3" d="M215.621,401.455c-0.201,0.199-0.401,0.398-0.603,0.598
			C215.22,401.854,215.42,401.654,215.621,401.455z"/>
		<path fill-rule="evenodd" clip-rule="evenodd" fill="#E5E2D3" d="M452.462,456.177c-0.199-0.2-0.398-0.401-0.598-0.602
			C452.063,455.775,452.263,455.977,452.462,456.177z"/>
		<path fill-rule="evenodd" clip-rule="evenodd" fill="#E5E2D3" d="M172.448,393.203c-0.229,0.069-0.458,0.139-0.687,0.207
			C171.984,393.32,172.213,393.251,172.448,393.203z"/>
		<path fill-rule="evenodd" clip-rule="evenodd" fill="#E5E2D3" d="M443.801,474.59c-0.2,0.199-0.401,0.398-0.602,0.598
			C443.399,474.988,443.601,474.789,443.801,474.59z"/>
		<g>
			<path fill-rule="evenodd" clip-rule="evenodd" fill="#29251B" d="M462.042,212.723c0.002,0.031,0.004,0.062,0.006,0.093
				c0.009-0.003,0.017-0.007,0.024-0.01C462.063,212.778,462.052,212.75,462.042,212.723z"/>
			<path fill-rule="evenodd" clip-rule="evenodd" fill="#29251B" d="M517.717,416.584c0.03-2.15,0.387-4.296,1.38-6.446
				c0.931,2.989,1.859,5.979,2.789,8.969c0.577,0.001,1.154,0.001,1.731,0.001c0.561-1.999,1.268-3.972,1.654-6.004
				c1.19-6.266,3.234-12.567,3.149-18.831c-0.136-9.975-1.737-19.929-2.688-29.894c-0.523-5.479-0.776-10.99-1.529-16.436
				c-0.928-6.702-2.343-13.336-3.368-20.027c-0.722-4.71-0.966-9.495-1.742-14.193c-0.999-6.048-2.347-12.037-3.489-18.063
				c-2.128-11.208-6.696-21.85-7.494-33.382c-0.411-5.927-0.873-11.944-2.283-17.682c-1.589-6.467-4.373-12.504-9.359-17.423
				c-2.88-2.842-4.708-6.718-7.337-9.856c-3.873-4.626-7.896-9.146-12.117-13.456c-4.416-4.511-9.251-8.61-13.704-13.089
				c-6.6-6.641-12.94-13.538-19.546-20.171c-5.08-5.102-10.528-9.838-15.569-14.976c-3.967-4.043-7.166-8.907-11.409-12.599
				c-8.172-7.111-15.659-14.839-26.646-18.606c-10.836-3.715-20.921-9.773-31.068-15.295c-7.928-4.314-15.164-9.953-23.23-13.949
				c-7.83-3.88-16.311-6.459-24.542-9.507c-1.57-0.581-3.317-0.684-4.983-1.008c-0.73,0-1.462,0-2.193,0
				c-3.213,0.487-6.418,1.036-9.639,1.45c-7.011,0.903-13.848,2.25-20.321,5.364c-4.157,2-8.948,2.766-12.942,5.002
				c-9.187,5.145-18.492,10.042-26.08,17.792c-5.751,5.875-12.715,10.558-19.105,15.813c-3.439,2.829-6.777,5.785-10.218,8.614
				c-4.957,4.073-10.765,3.235-16.486,2.678c-2.091-0.203-4.163-0.606-6.483-0.955c1.557,5.182,4.53,7.471,13.906,10.982
				c-2.664,2.736-5.279,5.212-7.647,7.906c-2.974,3.383-5.847,6.866-8.576,10.448c-3.439,4.517-6.962,9.011-9.92,13.839
				c-1.765,2.882-2.516,6.385-3.946,10.207c3.99-1.438,7.016-2.53,10.363-3.736c-5.052,8.389-9.339,16.845-14.924,24.333
				c-4.024,5.395-9.771,9.509-14.772,14.167c-0.505,0.471-1.27,0.668-1.761,1.148c-7.173,7.013-15.696,7.714-24.86,5.324
				c-3.134-0.817-6.228-1.791-9.677-2.791c1.379,6.058,7.158,7.636,9.83,11.031c-7.026,8.993-13.918,17.812-21.271,27.222
				c-1.09,0-3.139,0-5.087,0c0.116,2.545,0.224,4.891,0.331,7.235c1.523,3.922-1.578,4.814-4.692,6.487
				c4.337,6.677,4.81,13.822,1.535,21.426c-3.579,0-7.099,0-10.617,0c2.552,0.689,5.069,1.724,7.663,1.969
				c2.49,0.235,2.606,1.507,2.594,3.383c-0.045,6.939-0.098,13.879,0.001,20.816c0.159,11.229,0.549,22.466,3.676,33.345
				c2.632,9.159,7.489,16.996,15.007,23.021c0.682,0.546,1.559,0.845,2.248,1.208c0.337-4.512,0.659-8.819,0.993-13.289
				c0.353,0.062,0.726,0.01,0.888,0.172c5.218,5.183,10.51,10.297,15.545,15.651c1.203,1.279,1.234,3.62,2.363,5.021
				c1.263,1.567,3.161,2.622,5.386,4.375c1.233-5.601,2.287-10.381,3.496-15.867c4.806,4.688,5.901,10.809,8.188,17.569
				c4.966-6.139,9.562-11.821,14.469-17.889c1.819,4.125,0.229,8.238,1.081,12.285c2.321-1.311,4.713-2.66,7.105-4.01
				c0.223-0.09,0.451-0.159,0.687-0.207c7.188-7.331,14.845-14.278,19.731-24.293c0,2.073,0,3.563,0,6.068
				c2.563-1.145,4.545-2.031,6.529-2.918c0.952-1.551,1.906-3.103,2.859-4.653c0.358-0.698,1.495-2.006,1.854-2.704
				c0.282-0.601,1.103-2.119,1.385-2.721c3.373-7.516,6.718-15.037,5.395-23.616c3.092,0.771,2.682,7.915,7.978,4.257
				c0.381-1.297,0.805-2.741,1.228-4.186c0.533-5.672,1.066-11.343,1.599-17.015c1.886,5.678,1.47,11.362-0.172,17.044
				c-1.242,4.579-2.483,9.158-3.888,14.334c-1.833-2.245-2.996-3.669-4.064-4.978c-2.267,5.117-4.383,9.898-6.5,14.68
				c-0.404,0.649-1.618,2.174-2.021,2.823c-0.324,0.585-1.343,2.002-1.667,2.588c-0.909,1.82-1.819,3.64-2.729,5.459
				c-1.989,3.04-4.618,5.086-8.386,5.28c-2.236,0.116-3.757,0.569-4.747,3.183c-0.91,2.397-3.255,4.251-4.967,6.345
				c-0.201,0.199-0.401,0.398-0.603,0.598c-2.933,2.194-5.865,4.388-8.798,6.582c-0.223,0.09-0.451,0.159-0.687,0.207
				c-2.697,1.992-5.395,3.984-8.188,6.047c-0.888-2.517-1.65-4.68-2.604-7.386c-4.66,4.129-9.152,8.11-14.142,12.532
				c-0.311-3.299,0.022-5.776-0.886-7.653c-0.859-1.778-0.316-5.128-2.956-5.116c-2.297,3.748-4.29,7.002-6.191,10.104
				c-2.505-2.089-4.769-3.978-7.446-6.211c-0.767,1.438-2.674,3.384-2.706,5.361c-0.117,6.975-2.104,13.866,0.113,21.003
				c1.628,5.245,5.626,7.409,9.688,9.001c5.404,2.117,11.3,3.016,17.018,4.288c5.801,1.29,10.811-0.772,15.466-4.037
				c0.201-0.199,0.402-0.398,0.603-0.598c1.691-0.394,3.501-0.525,5.051-1.231c4.269-1.943,8.428-4.127,12.63-6.216
				c0.201-0.199,0.402-0.398,0.604-0.598c4.626-4.458,5.93-10.438,7.282-16.325c1.624-7.073,2.931-14.218,4.463-21.313
				c0.185-0.856,0.872-1.626,1.401-2.382c2.65-3.787,5.324-7.557,7.99-11.332c0.458-0.856,0.917-1.713,1.376-2.57
				c0.333,0.128,0.665,0.255,0.999,0.383c-0.379,1.171-0.758,2.341-1.137,3.513c-1.299,2.332-3.071,4.535-3.751,7.035
				c-0.551,2.028-0.015,4.46,0.433,6.632c1.551,7.543-0.105,14.402-4.018,20.865c-0.365,0.601-0.615,1.271-1.028,2.14
				c7.263,0.637,9.099-5.992,13.178-9.451c0.201-0.199,0.401-0.398,0.603-0.598c1.431-2.032,2.863-4.064,4.885-6.936
				c2.595,10.336,1.227,18.819-5.966,26.395c7.683,0.755,14.034-1.36,20.226-4.234c0.2-0.199,0.4-0.398,0.602-0.598
				c2.049-2.198,4.097-4.396,5.979-6.415c12.663,19.59,17.062,39.921,4.526,61.597c0.329,0.296,0.658,0.593,0.987,0.889
				c5.384-2.144,10.768-4.286,16.709-6.652c-0.336,6.512-0.975,13.389-0.862,20.253c0.03,1.862,1.943,4.359,3.685,5.354
				c2.064,1.18,4.877,1.048,7.369,1.484c0.412-2.903,0.703-4.959,0.994-7.014c0.271-0.032,0.543-0.064,0.814-0.097
				c0.816,2.127,1.632,4.256,2.698,7.038c4.172-0.404,8.479-0.597,12.685-1.358c1.357-0.245,2.98-1.75,3.566-3.082
				c3.69-8.4,2.349-16.801-0.138-25.278c-0.681-2.317-0.519-4.882-0.542-7.392c-0.453,1.682-0.91,2.892-0.91,2.892
				c-3.112-0.481-6.857-3.355-9.144-6.218c-2.75-2.496-4.661-6.587-4.661-6.587c-3.236-5.582-6.499-11.211-9.994-17.24
				c-1.761,2.565-3.49,5.085-5.275,7.686c-3.035-2.467-3.438-6.245-2.619-10.238c0.7-3.415,2.181-6.717,2.513-10.146
				c0.233-2.419-0.875-4.97-1.394-7.505c2.416,0.905,4.169,5.835,3.417,8.691c-1.226,4.655-2.095,9.403-3.115,14.113
				c0.658,0.502,1.315,1.004,1.973,1.506c2.16-2.344,4.319-4.686,5.944-6.449c3.037,5.936,6.766,13.225,10.523,20.568
				c0.756,1.478,2.693,3.715,2.693,3.715v0.001c1.488,1.318,3.047,2.702,4.678,4.147c0.123,0.104,3.414,2.898,3.747,2.449
				c1.329-1.792,2.078-13.001,2.078-13.001s0.202,1.497,0.417,5.372c0.172,1.608,0.343,3.218,0.514,4.826
				c0.611,2.62,1.208,5.244,1.838,7.86c0.877,3.648,1.674,7.321,2.695,10.93c1.969,6.964-0.94,12.903-3.563,19.001
				c-0.607,1.413-0.777,4.065,0.042,4.777c1.058,0.918,3.356,0.761,5.038,0.51c1.686-0.251,3.271-1.185,5.007-1.86
				c0,1.518,0,2.962,0,5.301c5.571-0.675,10.987-1.123,16.301-2.118c1.325-0.249,2.914-2.072,3.368-3.496
				c2.633-8.256,6.534-16.014,6.235-25.271c-0.247-7.667-0.096-15.656,3.065-23.134c1.339-3.167,1.455-6.837,2.665-10.078
				c0.468-1.253,2.497-2.83,3.694-2.735c3.899,0.306,4.618-1.529,4.215-4.734c-0.075-0.593,0.049-1.21,0.102-2.202
				c2.44,0.557,4.775,1.091,7.111,1.623c0-5.504,0-11.008,0-16.811c1.322,0.351,2.957,0.877,4.631,1.186
				c0.712,0.131,1.787,0.063,2.188-0.378c0.408-0.449,0.344-1.493,0.217-2.231c-0.346-2.005-0.833-3.986-1.414-6.666
				c4.792,4.66,5.928,9.339,3.764,14.773c-0.999-4.064-3.846-3.93-6.636-3.662c-0.378,4.686-0.747,9.268-1.116,13.85
				c0,1.334,0,2.668,0,4.563c-2.022-0.901-3.657-1.63-6.133-2.733c-0.275,2.842-0.524,5.415-0.766,7.905
				c-3.18-3.724-6.402-3.223-8.334,1.422c-0.72,1.728-1.376,3.482-2.138,5.418c3.718,10.35,24.577,25.224,34.206,24.024
				c-3.223-6.959-7.984-13.486-5.352-22.565c4.095,4.473,8.08,8.825,12.689,13.859c3.765-4.336,7.459-8.592,11.699-13.475
				c0.63,8.851,1.213,17.042,1.827,25.66c1.768-1.152,3.843-1.968,5.157-3.455c5.229-5.924,10.244-12.037,15.271-18.137
				c0.564-0.684,0.538-1.838,1.068-2.57c0.822-1.134,2.1-3.069,2.804-2.916c1.38,0.299,3.047,1.56,3.626,2.854
				c2.144,4.803,0.155,9.542-0.856,14.258c-0.294,1.366-0.789,2.695-1.26,4.017c-2.052,5.762-2.061,5.759,3.32,9.66
				c1.336-2.083,2.659-4.147,4.51-7.034c0,2.95,0,4.933,0,7.804c4.744,0.141,9.237,0.431,13.72,0.302
				c1.175-0.033,2.313-1.362,3.469-2.097c0.2-0.199,0.401-0.398,0.602-0.598c1.818-3.725,3.924-7.343,5.35-11.211
				c0.906-2.46,0.805-5.292,1.155-7.957c0.3,0,0.601,0,0.899,0c0.232,0,0.451,0.051,0.659,0.153c0.199,0.2,0.398,0.401,0.598,0.602
				c1.343,3.046,2.685,6.092,4.104,9.315c2.141,0.954,2.813-0.474,3.352-2.396c0.861-3.067,1.873-6.093,2.821-9.136
				c0.405,0.009,0.809,0.018,1.213,0.025l-0.401-1.71l-0.388-1.65l-0.193-0.825c-0.053-0.279-0.165-0.537-0.246-0.806l-1.05-3.169
				c-0.079-0.266-0.215-0.509-0.318-0.764l-0.333-0.754l-0.331-0.751l-0.037-0.067c-0.055,0.036-0.109,0.069-0.163,0.102
				c-0.206,0.116-0.37,0.333-0.556,0.478c-0.154,0.204-0.296,0.416-0.445,0.61c-0.072,0.1-0.112,0.238-0.17,0.353l-0.162,0.354
				c-0.047,0.123-0.126,0.216-0.146,0.361l-0.098,0.399l-0.195,0.781l-0.14,1.683l-0.253,3.051l-2.435-2.116l-0.001-0.001
				l-1.02-1.187c-0.321-0.402-0.605-0.818-0.908-1.227c-0.312-0.404-0.553-0.836-0.83-1.252c-0.274-0.417-0.532-0.841-0.771-1.271
				c-1.001-1.702-1.858-3.452-2.665-5.216c-1.508-3.305-2.788-6.67-3.929-10.096c-0.481,0.422-0.967,0.845-1.427,1.287
				c-0.629,0.6-1.225,1.225-1.799,1.859c-0.299,0.31-0.544,0.653-0.816,0.975c-0.274,0.322-0.53,0.652-0.743,0.997
				c-0.212,0.341-0.486,0.667-0.643,1.011l-0.481,1.002l-0.001,0.001l-1.662,2.232l-1.011-2.15l-1.055-2.244l-0.524-1.119
				c-0.186-0.367-0.317-0.76-0.473-1.141l-0.901-2.295c-0.296-0.765-0.523-1.556-0.787-2.331c-0.268-0.773-0.504-1.557-0.705-2.351
				c-0.21-0.791-0.446-1.571-0.609-2.374c-0.177-0.798-0.368-1.59-0.501-2.397c-0.097-0.509-0.162-1.025-0.236-1.539l-5.307,4.607
				h-0.001l-1.575,1.081l-0.136-1.818l-0.729-9.74c-0.174-0.932-0.35-1.867-0.526-2.814c-3.195,2.486-6.1,4.747-8.507,6.621
				c1.614-10.978-6.432-20.348-8.854-30.645c-5.8-1.004-11.148-1.929-16.371-2.832c4.44-6.467,8.809-12.827,13.62-19.836
				c-2.21-1.301-3.911-2.303-5.612-3.305c0.021-0.182,0.042-0.363,0.062-0.545c3.465,0.532,6.93,1.065,11.586,1.782
				c-4.616,6.902-8.814,13.179-12.989,19.422c3.72,0.354,7.608,0.724,11.001,1.047c3.31,10.055,6.572,19.969,10.09,30.657
				c2.721-2.979,4.941-5.41,7.219-7.904c0.371,3.754,0.74,7.493,1.109,11.236l0.775,4.944l5.202-3.329l0.723-0.462l0.072,0.79v0.001
				c0.171,0.756,0.376,1.533,0.606,2.292c0.209,0.766,0.479,1.517,0.73,2.27c0.237,0.757,0.549,1.492,0.831,2.233
				c0.274,0.744,0.583,1.475,0.92,2.193c0.333,0.72,0.629,1.453,0.991,2.156l1.094,2.103c0.188,0.347,0.35,0.706,0.564,1.038
				l0.612,1.01l0.1,0.165c0.123-0.12,0.247-0.238,0.365-0.364c0.33-0.351,0.683-0.657,1.043-0.947s0.701-0.607,1.074-0.87
				c0.731-0.549,1.472-1.072,2.23-1.559c0.759-0.489,1.521-0.95,2.315-1.392l0.596-0.331l0.151,0.576
				c1.515,3.48,3.201,6.913,5.089,10.184c0.944,1.634,1.933,3.239,3.021,4.741c0.263,0.384,0.539,0.754,0.827,1.109
				c0.288,0.354,0.552,0.738,0.86,1.064c0.038,0.042,0.075,0.083,0.112,0.125l0.157-0.32l0.247-0.486
				c0.067-0.164,0.212-0.312,0.316-0.466l0.343-0.451c0.121-0.146,0.215-0.302,0.357-0.435c0.291-0.262,0.576-0.521,0.874-0.757
				c0.35-0.192,0.657-0.424,1.038-0.552c0.19-0.064,0.366-0.14,0.565-0.187c0.216-0.038,0.371-0.087,0.66-0.1h0.001l0.554-0.049
				l0.183,0.438c0.121,0.288,0.252,0.578,0.356,0.861l0.26,0.835l0.258,0.831c0.078,0.279,0.188,0.549,0.239,0.834l0.699,3.37
				c0.051,0.279,0.133,0.556,0.153,0.838l0.098,0.842l0.195,1.685l0.207,1.783c0.007,0,0.015,0,0.015,0
				c0.061,0.515,0.112,1.029,0.164,1.545l0.005,0.04l-0.001-0.005c0.226,2.236,0.447,4.472,0.701,6.705
				c0.213,1.885,0.141,4.047,3.039,3.814c1.268-0.9,2.535-1.802,3.804-2.702c-1.269,0.9-2.536,1.802-3.804,2.703
				c0.72,0.122,1.438,0.242,2.156,0.363c0.592,6.882-2.905,12.806-4.452,19.187c-0.337,1.389-0.153,2.903-0.209,4.36
				c1.333-0.056,2.675-0.036,3.995-0.193c0.801-0.096,1.63-0.35,2.339-0.731c3.198-1.717,5.679-2.086,6.397,2.59
				c0.107,0.695,1.628,1.481,2.606,1.685c5.641,1.167,16.669-4.177,15.631-12.313c-0.202-1.582,0.262-3.303,0.663-4.897
				c0.999-3.971,1.697-8.101,3.332-11.806c2.203-4.991,1.166-9.146-1.587-13.395c-2.562-3.951-3.075-8.087,0.02-13.367
				c4.22,8.927,12.509,14.768,12.263,25.212c3.579-0.579,3.885-3.476,4.183-5.838c0.942-7.453,1.763-14.937,2.204-22.433
				C517.956,428.557,517.63,422.561,517.717,416.584z M134.947,424.797c-1.074-1.729-2.148-3.457-3.223-5.186
				c0.646-0.374,1.293-0.749,1.939-1.123c0.855,1.842,1.71,3.684,2.564,5.526C135.802,424.275,135.375,424.536,134.947,424.797z
				 M168.668,424.408c-0.33,0.331-1.851-0.043-2.447-0.537c-2.684-2.225-3.79-7.588-2.35-10.577
				c0.975-2.021,5.895-3.236,9.599-2.338c1.015,0.246,2.002,0.604,3.699,1.124C175.695,417.14,172.229,420.831,168.668,424.408z
				 M171.109,317.146c-0.628,0.269-1.749,0.002-2.365-0.422c-6.295-4.328-11.752-3.784-13.44,6.34
				c-0.11,0.662-0.188,1.329-0.306,2.159c-2.984-4.297-5.754-8.284-8.626-12.42c-4.86,1.629-4.163,6.761-6.323,10.625
				c-1.93-2.288-3.65-4.328-5.457-6.471c-6.514,7.41-8.83,15.667-9.01,24.902c-5.262-10.371-5.26-21.62-6.532-33.308
				c-4.83,5.289-6.418,11.318-8.476,17.984c-0.987-8.253-2.168-15.646,0.972-23.887c0.187,2.329,0.293,3.66,0.399,4.992
				c0.279,0.141,0.558,0.282,0.836,0.423c2.771-3.6,5.544-7.199,7.991-10.377c1.962,5.527,4.101,11.554,6.536,18.414
				c2.002-2.687,3.323-4.459,4.706-6.314c1.798,1.894,3.478,3.663,5.493,5.785c2.805-3.786,5.386-7.272,8.156-11.013
				c2.268,2.979,1.474,8.537,6.241,7.984c2.233-0.259,4.118-3.532,6.371-5.634c6.388,4.087,13.561,8.952,23.113,5.48
				C177.972,313.996,174.58,315.666,171.109,317.146z M204.994,261.882c-1.26-0.63-3.077-0.924-3.691-1.943
				c-4.646-7.71-10.403-14.458-16.973-20.558c-0.444-0.098-0.889-0.196-1.333-0.293c0.28-0.307,0.56-0.614,0.839-0.921
				c0.376,0.25,0.752,0.499,1.128,0.748c2.606,1.558,5.778,2.612,7.708,4.774c4.768,5.341,8.966,11.19,13.394,16.835
				C205.708,260.977,205.352,261.429,204.994,261.882z M327.564,188.427c-0.148,3.976-0.372,7.958-0.801,11.912
				c-0.801,7.377-1.662,14.751-2.716,22.095c-0.88,6.135-1.624,12.349-3.288,18.287c-1.021,3.643-3.879,6.73-5.533,10.245
				c-4.024,8.546-11.43,13.827-18.651,19.086c-6.606,4.811-13.532,9.423-20.895,12.899c-10.702,5.053-21.935,8.953-33.729,10.885
				c-8.59,1.407-17.161,2.92-25.741,4.383c-0.238,0.04-0.486,0.03-0.722,0.084c-6.701,1.526-6.777,1.481-8.804-5.996
				c1.781-0.723,3.711-1.387,5.531-2.276c1.916-0.938,3.726-2.093,6.516-3.686c-2.768-3.235-5.36-6.188-7.853-9.225
				c-0.737-0.9-1.19-2.033-1.774-3.06c0.984-0.481,1.928-1.257,2.959-1.399c12.91-1.775,25.901-3.068,38.715-5.366
				c4.868-0.873,9.29-4.104,13.996-6.068c3.05-1.272,6.389-1.905,9.336-3.355c3.187-1.568,6.375-3.406,9.031-5.732
				c9.984-8.746,17.617-19.138,21.973-31.876c2.231-6.528,2.941-13.154,3.51-19.955c0.715-8.553,2.325-17.028,3.446-25.55
				c0.626-4.758,1.247-9.532,1.507-14.319c0.418-7.74,0.686-15.496,0.7-23.245c0.005-2.68-0.555-5.51-1.532-8.008
				c-1.345-3.438,0.147-4.803,3.439-5.798c4.033,4.192,5.862,9.322,6.918,14.741c1.798,9.241,4.006,18.46,4.92,27.798
				C328.748,173.344,327.844,180.924,327.564,188.427z M400.057,257.311c-1.764-4.236-3.364-8.649-5.513-12.777
				c-0.445-0.854-2.933-0.645-4.672-0.961c-4.112,21.859-8.094,43.027-12.074,64.196c-0.521,0.032-1.042,0.063-1.563,0.096
				c-5.462-19.357-10.138-39.015-20.741-56.947c-2.214,4.927-4.241,9.442-6.27,13.957c0.188-8.595-4.528-15.08-6.749-22.335
				c-0.462-0.085-0.925-0.17-1.388-0.255c-0.856,1.277-1.923,2.463-2.53,3.849c-1.929,4.405-3.686,8.885-5.51,13.335
				c-0.565-0.164-1.132-0.328-1.698-0.491c1.221-8.031,2.442-16.063,3.705-24.374c1.043,0.386,2.066,0.765,3.641,1.348
				c1.261-2.096,2.631-4.373,4.094-6.804c4.648,3.296,5.114,9.474,8.186,15.282c1.911-3.973,3.419-7.109,5.099-10.598
				c6.157,13.287,12.271,26.476,18.384,39.664c0.317-0.014,0.635-0.028,0.952-0.042c3.659-16.542,7.317-33.084,10.976-49.627
				c0.342-0.02,0.684-0.04,1.025-0.06c2.056,4.136,4.11,8.271,6.388,12.856c4.938-6.187,4.067-13.632,6.714-20.356
				C404.713,230.36,402.84,243.997,400.057,257.311z M465.614,222.403c0.854,7.228,1.621,13.7,2.387,20.173
				c0.278,0.617,0.558,1.233,0.836,1.85c-0.173,0.083-0.345,0.167-0.516,0.25c-0.276-0.5-0.552-0.999-0.828-1.499
				c-2.543-3.167-4.948-6.461-7.696-9.439c-1.096-1.187-2.952-1.673-4.819-2.669c-0.431,5.779-0.796,10.681-1.163,15.605
				c-7.167-10.046-15.733-18.446-27.39-22.903c-0.43,0.273-0.859,0.547-1.29,0.821c0,10.809,0,21.617,0,32.426
				c-0.307,0.036-0.614,0.071-0.922,0.106c-3.354-8.181-6.709-16.363-10.219-24.925c2.063,1.287,3.867,2.411,6.215,3.875
				c1.045-6.957,1.974-13.135,2.926-19.471c7.724,4.73,15.716,9.626,24.214,14.831c2.053-2.468,0.146-6.032,1.083-9.271
				c4.677,2.03,9.344,4.056,14.643,6.355c-0.357-5.476-0.666-10.194-1.026-15.702c-0.184,0.078-0.368,0.157-0.553,0.235
				c-0.264-0.549-0.527-1.099-0.792-1.648c0.247-0.104,0.494-0.209,0.742-0.314c0.199,0.544,0.397,1.089,0.597,1.634
				c-0.005-0.081-0.011-0.157-0.016-0.238c3.735,4.385,7.019,8.237,10.653,12.502C470.401,224.154,468.613,223.5,465.614,222.403z"
				/>
			<path fill-rule="evenodd" clip-rule="evenodd" fill="#29251B" d="M544.324,394.236c0.598,3.301,1.195,6.602,1.793,9.903
				c0.307,0.054,0.613,0.107,0.92,0.161c1.181-2.615,3.23-5.183,3.381-7.856c0.451-8,0.953-16.14-0.034-24.043
				c-1.342-10.739-3.903-21.34-6.211-31.94c-1.516-6.966-3.669-13.791-5.249-20.745c-2.86-12.593-4.945-25.444-13.947-35.63
				c-2.518-2.85-5.117-5.388-10.238-4.66c0,1.468,0,2.923,0,4.378c0.001,0.243-0.037,0.497,0.017,0.729
				c1.46,6.26,2.969,12.509,4.386,18.778c1.035,4.58,2.18,9.153,2.871,13.79c1.168,7.836,1.867,15.741,3.039,23.575
				c1.278,8.546,3.195,17.005,4.233,25.574c1.064,8.777,1.613,17.636,1.962,26.476c0.156,3.969-0.535,8.01-1.182,11.963
				c-1.097,6.696-2.463,13.348-3.822,20.583c-1.709-1.403-2.613-2.146-3.281-2.694c-3.124,0.864-3.753,2.907-3.865,5.547
				c-0.346,8.195-0.875,16.384-1.356,24.981c1.03,0.451,2.845,1.247,5.147,2.258c0.75-2.629,1.266-4.437,1.66-5.817
				c4.941,6.127,9.961,12.351,15.012,18.612c0.931-9.423,1.873-18.966,2.816-28.517c1.262,0.809,2.734,1.769,4.223,2.702
				c5.623,3.525,11.694,3.328,17.883,2.137c0-0.243,0-0.487,0-0.731C551.426,433.937,540.785,409.156,544.324,394.236z"/>
			<path fill-rule="evenodd" clip-rule="evenodd" fill="#29251B" d="M464.142,453.99c-0.063-0.002-0.126-0.003-0.189-0.005
				l0.372,1.585c-0.001-0.012-0.002-0.023-0.004-0.035L464.142,453.99z"/>
		</g>
	</g>
</g>
</svg>
