<?xml version="1.0" encoding="utf-8"?>
<!-- Generator: Adobe Illustrator 16.0.0, SVG Export Plug-In . SVG Version: 6.00 Build 0)  -->
<!DOCTYPE svg PUBLIC "-//W3C//DTD SVG 1.1//EN" "http://www.w3.org/Graphics/SVG/1.1/DTD/svg11.dtd">
<svg version="1.1" xmlns="http://www.w3.org/2000/svg" xmlns:xlink="http://www.w3.org/1999/xlink" x="0px" y="0px"
	 width="566.93px" height="566.93px" viewBox="0 0 566.93 566.93" enable-background="new 0 0 566.93 566.93" xml:space="preserve">
<g id="fond" display="none">
	
		<rect x="-8249.873" y="-8861.898" display="inline" fill-rule="evenodd" clip-rule="evenodd" fill="#58595B" width="15942.492" height="15814.695"/>
</g>
<g id="en_cours">
</g>
<g id="fini">
	<g>
		<g>
			<path fill-rule="evenodd" clip-rule="evenodd" fill="#29251B" d="M199.53,9c13.836,11.449,14.768,28.577,10.012,43.976
				c-0.78,2.531-1.801,5.007-2.917,7.412c-4.273,9.213-15.07,11.742-22.12,0.396c-5.385-8.666-6.983-18.08-5.247-28.119
				c0.402-2.315,0.286-4.722,0.712-7.027c1.277-6.918,4.745-12.419,10.896-16.066C193.754,9.381,196.642,9.19,199.53,9z"/>
			<path fill-rule="evenodd" clip-rule="evenodd" fill="#29251B" d="M103.324,104.294c4.648-7.029,9.911-7.166,13.909,0.209
				c1.637,3.015,2.075,7.025,1.912,10.529c-0.086,1.834-2.646,4.998-4.1,5.004c-2.606,0.011-5.802-1.326-7.671-3.185
				c-1.919-1.904-2.543-5.109-3.733-7.744C103.536,107.503,103.43,105.897,103.324,104.294z"/>
			<path fill-rule="evenodd" clip-rule="evenodd" fill="#29251B" d="M235.178,136.135c0.851,17.994-2.9,32.204-10.567,45.767
				c-8.656,15.315-16.972,30.975-21.292,48.156c-2.024,8.056-2.165,16.678,2.474,24.362c4.445,7.365,8.818,14.797,13.687,21.882
				c8.013,11.666,12.115,24.174,9.979,38.424c-0.259,1.711,0.102,3.526,0.252,5.287c1.186,13.874-5.641,24.574-14.717,33.651
				c-6.385,6.385-15.468,5.498-23.401,3.278c-13.835-3.867-24.732-12.259-30.669-25.596c-5-11.228-8.752-22.769-7.54-35.654
				c0.757-8.057-1.087-16.328-1.283-24.515c-0.267-11.069-1.995-21.822-6.354-31.989c-5.24-12.22-10.474-24.468-16.4-36.357
				c-11.381-22.827-13.582-46.084-3.662-69.767c2.379-5.684,6.617-10.926,11.03-15.343c7.341-7.347,15.281-14.155,23.408-20.64
				c6.871-5.482,14.071-10.687,21.649-15.118c12.112-7.089,20.388-5.488,29.393,4.093c9.418,10.02,16.304,21.93,21.097,34.785
				C234.331,126.39,234.55,132.628,235.178,136.135z"/>
			<path fill-rule="evenodd" clip-rule="evenodd" fill="#29251B" d="M172.599,54.944c-1.204,3.682-1.854,7.802-3.82,11.148
				c-2.51,4.271-7.486,4.6-11.491,1.575c-8.091-6.11-11.384-22.409-4.465-31.721c3.939-5.3,11.299-4.283,14.234,2.331
				C169.321,43.384,170.635,48.912,172.599,54.944z"/>
			<path fill-rule="evenodd" clip-rule="evenodd" fill="#29251B" d="M127.604,67.569c0.24-2.811,0.156-5.697,0.792-8.417
				c1.241-5.301,6.765-6.961,10.938-3.587c8.239,6.666,9.789,15.764,8.696,25.434c-0.714,6.321-7.214,8.403-12.147,4.14
				C130.609,80.581,127.926,74.657,127.604,67.569z"/>
			<path fill-rule="evenodd" clip-rule="evenodd" fill="#29251B" d="M129.752,94.614c0.288,3.286,0.979,7.106-4.424,8.368
				c-4.808,1.122-7.211-1.722-8.729-5.157c-2.066-4.682-3.972-9.614-4.718-14.621c-0.34-2.277,1.694-5.688,3.686-7.335
				c2.466-2.041,5.015,0.177,6.991,2.196C126.917,82.516,129.651,87.689,129.752,94.614z"/>
		</g>
		<g>
			<path fill-rule="evenodd" clip-rule="evenodd" fill="#29251B" d="M359.336,559.913c-12.704-9.583-20.031-21.822-19.094-38.249
				c0.335-5.881,0.544-11.78,0.495-17.667c-0.074-9.095,4.852-16.162,9.336-23.314c6.216-9.916,14.205-18.781,17.786-30.229
				c2.095-6.688,1.32-13.353-0.418-20.017c-5.174-19.836-15.984-37.167-24.267-55.631c-6.448-14.371-7.124-29.769-3.428-45.396
				c4.104-17.354,13.688-31.292,26.156-43.309c7.834-7.552,16.031-7.557,24.839-1.87c15.468,9.99,30.167,20.996,43.176,34.374
				c11.612,11.942,18.88,25.459,19.196,41.819c0.259,13.357-0.361,26.863-7.16,39.279c-6.623,12.086-13.07,24.356-18.347,37.066
				c-3.761,9.055-6.163,18.843-7.878,28.531c-1.727,9.771-1.962,19.817-2.646,29.759c-0.35,5.071,0.408,10.291-0.473,15.241
				c-2.843,15.965-7.907,31.237-21.741,41.113c-6.192,4.421-14.023,6.54-21.112,9.705
				C368.949,560.718,364.144,560.315,359.336,559.913z"/>
			<path fill-rule="evenodd" clip-rule="evenodd" fill="#29251B" d="M396.997,246.15c-2.061,5.56-3.569,11.415-6.34,16.596
				c-2.594,4.847-6.495,9.123-13.058,8.229c-6.38-0.866-9.224-5.654-11.254-10.952c-3.525-9.196-4.336-18.732-2.767-28.447
				c1.149-7.104,4.926-12.964,9.926-17.774c4.295-4.135,13.527-1.235,17.555,4.651c4.145,6.062,4.406,12.962,4.859,19.866
				c0.165,2.517,0.35,5.03,0.528,7.545C396.63,245.96,396.813,246.055,396.997,246.15z"/>
			<path fill-rule="evenodd" clip-rule="evenodd" fill="#29251B" d="M402.228,257.234c1.896-5.277,3.277-10.828,5.896-15.717
				c1.383-2.584,4.904-5.5,7.493-5.529c2.437-0.027,5.548,3.104,7.255,5.604c5.549,8.135,2.27,20.662-3.121,27.263
				c-2.806,3.433-6.803,5.493-11.026,3.587c-4.382-1.975-5.642-6.514-5.982-11.092c-0.095-1.263,0.184-2.555,0.289-3.832
				C402.764,257.423,402.495,257.329,402.228,257.234z"/>
			<path fill-rule="evenodd" clip-rule="evenodd" fill="#29251B" d="M446.372,271.371c0,7.247-2.844,13.266-8.363,17.813
				c-4.836,3.983-11.111,1.867-11.869-4.224c-1.164-9.367,0.5-18.057,8.116-24.788c2.41-2.132,4.776-3.098,7.762-1.999
				c3.411,1.256,4.598,4.152,4.784,7.459C446.91,267.532,446.53,269.46,446.372,271.371z"/>
			<path fill-rule="evenodd" clip-rule="evenodd" fill="#29251B" d="M444.136,298.456c0.303-7.27,3.219-12.616,8.17-16.661
				c1.58-1.291,4.719-2.369,6.211-1.639c1.854,0.904,3.826,3.777,3.852,5.823c0.088,7.692-2.72,14.643-8.407,19.857
				c-1.429,1.311-5.112,1.342-7.108,0.469c-1.505-0.655-2.098-3.645-2.836-5.689C443.719,299.792,444.114,298.717,444.136,298.456z"
				/>
			<path fill-rule="evenodd" clip-rule="evenodd" fill="#29251B" d="M453.136,315.972c1.987-3.752,3.238-7.174,5.374-9.905
				c3.523-4.517,9.065-3.222,11.101,2.271c1.57,4.236-1.885,13.555-6.042,15.184c-1.954,0.766-5.258,1.289-6.391,0.24
				C455.234,321.962,454.517,318.841,453.136,315.972z"/>
		</g>
	</g>
</g>
</svg>
