<?xml version="1.0" encoding="utf-8"?>
<!-- Generator: Adobe Illustrator 16.0.0, SVG Export Plug-In . SVG Version: 6.00 Build 0)  -->
<!DOCTYPE svg PUBLIC "-//W3C//DTD SVG 1.1//EN" "http://www.w3.org/Graphics/SVG/1.1/DTD/svg11.dtd">
<svg version="1.1" xmlns="http://www.w3.org/2000/svg" xmlns:xlink="http://www.w3.org/1999/xlink" x="0px" y="0px"
	 width="566.93px" height="566.93px" viewBox="0 0 566.93 566.93" enable-background="new 0 0 566.93 566.93" xml:space="preserve">
<g id="fond" display="none">
	
		<rect x="-9532.873" y="-8861.898" display="inline" fill-rule="evenodd" clip-rule="evenodd" fill="#58595B" width="15942.492" height="15814.695"/>
</g>
<g id="en_cours">
</g>
<g id="fini">
	<g>
		<g>
			<path fill-rule="evenodd" clip-rule="evenodd" fill="#AB2E23" d="M228.859,150.557c-6.674,80.053-47.909,157.252-43.484,207.387
				c2.104,23.828,14.733,45.973,45.977,44.987c25.491-0.804,35.51-22.585,37.294-44.917
				C272.705,307.228,237.426,240.612,228.859,150.557z"/>
			
				<ellipse transform="matrix(0.9613 -0.2756 0.2756 0.9613 -81.2333 83.0508)" fill-rule="evenodd" clip-rule="evenodd" fill="#E5E2D3" cx="254.879" cy="330.555" rx="7.086" ry="15.223"/>
		</g>
		<g>
			<path fill-rule="evenodd" clip-rule="evenodd" fill="#AB2E23" d="M291.391,23.911c-4.341,52.09-31.174,102.324-28.294,134.946
				c1.369,15.505,9.587,29.915,29.917,29.273c16.588-0.521,23.106-14.694,24.268-29.228
				C319.922,125.857,296.967,82.511,291.391,23.911z"/>
			
				<ellipse transform="matrix(0.9613 -0.2756 0.2756 0.9613 -25.1421 89.3493)" fill-rule="evenodd" clip-rule="evenodd" fill="#E5E2D3" cx="305.331" cy="134.129" rx="5.692" ry="13.152"/>
		</g>
		<g>
			<path fill-rule="evenodd" clip-rule="evenodd" fill="#AB2E23" d="M362.063,177.699c-9.487,113.822-68.118,223.59-61.825,294.872
				c2.992,33.881,20.947,65.368,65.37,63.965c36.247-1.141,50.491-32.109,53.027-63.865
				C424.406,400.463,374.246,305.746,362.063,177.699z"/>
			
				<ellipse transform="matrix(0.9613 -0.2757 0.2757 0.9613 -101.977 125.3338)" fill-rule="evenodd" clip-rule="evenodd" fill="#E5E2D3" cx="394.862" cy="425.43" rx="10.784" ry="23.165"/>
		</g>
	</g>
</g>
</svg>
