<?xml version="1.0" encoding="utf-8"?>
<!-- Generator: Adobe Illustrator 16.0.0, SVG Export Plug-In . SVG Version: 6.00 Build 0)  -->
<!DOCTYPE svg PUBLIC "-//W3C//DTD SVG 1.1//EN" "http://www.w3.org/Graphics/SVG/1.1/DTD/svg11.dtd">
<svg version="1.1" xmlns="http://www.w3.org/2000/svg" xmlns:xlink="http://www.w3.org/1999/xlink" x="0px" y="0px"
	 width="566.93px" height="566.93px" viewBox="0 0 566.93 566.93" enable-background="new 0 0 566.93 566.93" xml:space="preserve">
<g id="fond" display="none">
	
		<rect x="-10187.873" y="-8861.898" display="inline" fill-rule="evenodd" clip-rule="evenodd" fill="#58595B" width="15942.492" height="15814.695"/>
</g>
<g id="en_cours">
</g>
<g id="fini">
	<g>
		<path fill-rule="evenodd" clip-rule="evenodd" fill="#BFAE76" d="M182.462,22.225c5.412-0.334,11.948,6.852,11.381,12.879
			c-0.696,7.411,2.886,12.723,7.755,17.378c3.928,3.755,7.209,8.095,11.391,11.631c4.14,3.5,2.979,9.942-1.932,12.37
			c-3.174,1.569-6.537,2.702-10.135,2.435c-2.425-0.181-4.639,0.806-6.994,0.874c-16.178,1.972-45.951,2.201-60.286,1.934
			c-5.851-0.109-12.086-0.17-17.241-3.429c-8.15-5.151-4.294-14.526-3.453-15.41c2.813-2.958,5.963-3.752,10.053-2.333
			c3.01,1.044,6.103,2.866,9.527,1.906c7.749-2.172,13.422-8.033,20.357-11.668c0.441-0.23,0.576-0.985,0.948-1.414
			c5.935-6.858,10.104-15.206,17.632-20.729C174.916,26.115,178.218,23.379,182.462,22.225z"/>
		<path fill-rule="evenodd" clip-rule="evenodd" fill="#BFAE76" d="M403.773,516.793c-0.195-0.196-0.391-0.393-0.585-0.588
			c-3.587-2.836-7.685-1.186-11.167-0.447c-8.418,1.785-16.842,1.795-25.318,1.728c-0.888-0.007-1.78-0.424-2.655-0.698
			c-1.297-0.405-1.962-1.523-1.456-2.608c2.284-4.901,2.611-10.452,5.391-15.216c1.944-3.333,4.302-6.32,6.504-9.447
			c5.07-7.2,10.178-14.388,14.892-21.819c3.642-5.739,8.562-10.621,11.026-17.177c1.298-3.453,2.138-6.561,0.063-9.931
			c-1.383-2.245-2.579-4.604-3.859-6.913c-2.735,2.472-5.059,5.67-8.923,6.384c-5.288,0.978-10.612,1.887-16.039,1.617
			c0.545,0.39,1.123,0.739,1.63,1.172c6.271,5.353,7.271,9.075,2.542,15.938c-5.536,8.031-10.505,16.382-15.628,24.655
			c-4.193,6.771-9.221,12.971-12.604,20.319c-2.193,4.761-6.503,7.396-12.201,7.347c-13.844-0.118-27.691-0.161-41.532,0.047
			c-3.483,0.053-7.997-0.58-9.906,3.019c-1.574,2.969-3.592,5.332-5.822,7.603c-2.198,1.755-6.231,5.379-8.443,7.386
			c-0.995,0.182-1.987,0.35-2.986,0.468c-2.45,0.29-4.763,0.684-4.558,3.505c0.194,2.661,2.334,3.703,5.046,3.793
			c1.828,0.06,3.516-0.407,5.188-0.829c3.502-0.886,5.533,2.303,8.337,2.789c9.726,1.688,19.123,4.373,28.269,8.02
			c3.317,1.322,6.622,2.675,9.93,4.023c0.001,0.001,0.004,0.002,0.005,0.003c1.485,1.142,2.904,2.181,3.887,2.89
			c-1.894,1.465-1.738,3.356-0.247,5.068c1.655,1.898,3.515,1.08,5.126-0.603c3.336-3.482,6.619-7.021,9.43-10.936
			c2.854-3.975,7.621-5.9,10.416-9.772c2.7-3.744,7.089-5.728,9.451-9.789c0.525-0.901,2.241-1.638,3.363-1.578
			c7.83,0.418,15.364-1.87,23.101-2.319c6.04-0.351,12.063-1.228,18.052-2.144C404.713,521.257,405.164,519.916,403.773,516.793z"/>
		<path fill-rule="evenodd" clip-rule="evenodd" fill="#BFAE76" d="M328.892,483.038c-7.358-1.644-14.786-1.397-22.209-1.296
			c-2.295,0.031-4.082-1.091-4.352-2.827c-0.664-4.277-1.063-9.211,0.985-12.757c4.566-7.908,9.665-15.592,15.735-22.517
			c4.868-5.554,4.985-6.267,1.703-12.91c-0.669-1.354-1.578-2.613-1.541-4.222c-7.841-0.178-15.653-0.528-23.111-3.378
			c-0.735-0.28-1.628-0.146-2.447-0.206c0.512,4.529,2.767,8.213,5.466,11.752c1.235,1.62,3.505,3.343,2.86,5.349
			c-1.576,4.904-2.601,10.103-5.85,14.349c-3.82,4.994-7.648,9.982-11.441,14.996c-3.31,4.375-6.894,6.988-13.168,6.824
			c-11.516-0.302-23.025-1.133-34.558-1.002c-2.772,0.032-4.774,0.808-5.758,3.512c-0.905,2.491-2.61,3.72-5.227,4.556
			c-6.035,1.929-12.044,4.067-17.551,7.297c-2.43,1.425-4.785,2.582-7.75,2.715c-2.342,0.105-4.581,1.672-4.447,4.29
			c0.138,2.694,2.498,3.006,4.78,2.788c0.293,0,0.585,0,0.879,0c1.257-0.425,2.29,0.397,3.355,0.734
			c3.708,1.173,7.7-0.221,11.211,0.919c6.682,2.169,13.27,4.924,18.745,9.417c1.9,1.56,4.889,2.308,5.39,5.62
			c0.443,2.93,0.583,6.576,4.213,7.576c3.571,0.986,5.204-2.232,7.175-4.341c7.188-7.698,14.918-14.839,22.448-22.187
			c2.682-2.615,5.847-4.023,8.871-5.888c2.275-1.403,4.577-2.524,7.096-3.479c3.405-1.291,6.493,0.33,9.696,0.097
			c6.098-0.444,12.145,0.659,18.281,0.239c3.274-0.223,6.776,0.536,10.193,0.494c2.592-0.032,4.908-0.804,6.639-2.887
			C333.582,484.293,331.424,483.604,328.892,483.038z"/>
		<path fill-rule="evenodd" clip-rule="evenodd" fill="#29251B" d="M319.214,426.51c-7.841-0.178-15.653-0.528-23.111-3.378
			c-0.735-0.28-1.628-0.146-2.447-0.206c-0.119-2.02-1.825-2.544-3.194-3.381c-8.605-5.262-17.029-10.771-24.623-17.468
			c-2.829-2.497-5.42-5.199-7.966-7.973c-2.878-3.136-3.792-6.522-1.917-10.485c5.651-0.771,10.725,1.659,15.929,3.086
			c6.981,1.914,13.881,3.813,21.074,5.083c6.419,1.133,12.829,3.784,19.067,6.491c6.303,2.734,11.543,7.042,17.714,9.877
			c4.284,1.969,3.518,7.961-1.179,10.42c-3.033,1.589-5.357,4.05-8.192,5.849C319.637,424.889,319.217,425.604,319.214,426.51z"/>
		<path fill-rule="evenodd" clip-rule="evenodd" fill="#BFAE76" d="M201.013,500.351c0.293,0,0.585,0,0.879,0
			c-0.188,0.175-0.375,0.351-0.563,0.526C201.224,500.701,201.118,500.525,201.013,500.351z"/>
		<path fill-rule="evenodd" clip-rule="evenodd" fill="#BFAE76" d="M403.773,516.793c-0.195-0.196-0.391-0.393-0.585-0.588
			C403.68,516.105,403.875,516.301,403.773,516.793z"/>
		<path fill-rule="evenodd" clip-rule="evenodd" fill="#BFAE76" d="M333.03,527.52c-0.294,0-0.586,0-0.879,0
			c0.188-0.175,0.375-0.351,0.562-0.526C332.818,527.169,332.925,527.345,333.03,527.52z"/>
		<path fill-rule="evenodd" clip-rule="evenodd" fill="#BFAE76" d="M321.401,551.946c0.302-0.012,0.604-0.022,0.907-0.033
			c-0.189,0.185-0.381,0.368-0.572,0.552C321.625,552.292,321.514,552.119,321.401,551.946z"/>
		<path fill-rule="evenodd" clip-rule="evenodd" fill="#29251B" d="M507.82,255.139c-3.478-0.427-3.985-2.513-2.23-5.461
			c0.896-1.505,1.767-3.607-0.043-4.762c-1.711-1.091-3.627-0.569-5.389,1.044c-10.263,9.405-21.52,17.316-35.568,19.668
			c-5.701,0.954-11.663,1.129-17.426-0.982c-7.564-2.771-14.105-7.38-20.67-11.75c-9.994-6.654-19.829-13.619-30.93-18.192
			c-9.746-4.016-19.25-8.569-29.243-12.121c-11.271-4.007-22.775-4.227-34.211-4.308c-7.876-0.055-15.896,1.735-23.827,3.066
			c-13.677,2.294-25.83,8.139-38.031,14.051c-2.233,1.082-4.139,3.05-6.506,3.926c-6.022,2.227-12.046,4.557-18.244,6.168
			c-7.586,1.972-14.957,5.143-23.057,4.763c-3.277-0.154-6.465,0.123-9.688,1.241c-3.83,1.329-11.345-4.118-11.666-7.994
			c-0.336-4.059-0.381-8.072-0.219-12.183c0.381-9.658,3.372-18.606,6.063-27.637c1.927-6.465,4.439-12.799,7.217-18.954
			c3.485-7.724,8.01-14.935,11.713-22.579c4.762-9.829,9.512-19.66,13.917-29.652c1.573-3.568,3.924-6.734,5.069-10.528
			c2.14-7.089,3.906-14.27,5.761-21.434c2.495-9.636,3.632-19.506,4.003-29.318c0.346-9.144-1.781-18.27-3.296-27.358
			c-2.358-14.158-7.96-24.72-20.194-31.582c-5.593-3.137-11.426-5.875-19.999-6.407c-10.626-0.718-19.714,3.894-23.851,7.188
			c-2.947,2.348-5.172,5.087-4.813,9.175c5.412-0.334,11.948,6.852,11.381,12.879c-0.696,7.411,2.886,12.723,7.755,17.378
			c3.928,3.755,7.209,8.095,11.391,11.631c4.14,3.5,2.979,9.942-1.932,12.37c-3.174,1.569-6.537,2.702-10.135,2.435
			c-2.425-0.181-4.639,0.806-6.994,0.874c0.971,1.038,2.105,2.146,2.755,3.219c1.749,2.889,5.515,5.171,3.725,9.48
			c0.181,0.188,0.361,0.375,0.541,0.563c-0.18,0.104-0.36,0.21-0.54,0.315c-0.373,8.637-4.255,16.151-7.763,23.745
			c-4.663,10.097-9.708,19.991-14.979,29.807c-5.682,10.577-10.952,21.47-15.23,32.757c-2.926,7.723-5.979,15.406-8.605,23.231
			c-4.094,12.201-6.252,24.811-8.103,37.553c-1.443,9.937-3.042,19.743-2.757,29.841c0.242,8.607,2.835,16.623,5.258,24.688
			c1.986,6.61,6.195,12.427,8.202,18.909c3.271,10.563,9.044,19.234,16.658,26.866c11.061,11.084,24.644,18.385,38.712,24.746
			c10.563,4.777,21.339,9.032,32.949,10.875c11.732,1.863,22.807,6.342,34.258,9.365c12.946,3.418,26.046,5.969,38.503,11.604
			c14.092,6.376,24.401,16.695,33.913,27.982c5.812,6.896,11.318,13.544,20.222,16.338c5.427,0.27,10.751-0.64,16.039-1.617
			c3.864-0.714,6.188-3.912,8.923-6.384c1.461-3.131,1.674-6.608,2.711-9.85c2.363-7.382,4.389-14.864,10.211-20.647
			c3.218-3.195,7.221-5.063,10.74-7.71c8.927-6.718,18.176-12.991,26.525-20.486c6.053-5.433,12.243-10.647,17.483-16.946
			c5.88-7.067,10.089-15.241,15.575-22.552c2.436-3.247,4.395-7.059,7.422-9.597c2.844-2.384,5.103-5.139,7.4-7.9
			c1.08-1.299,1.682-3.182,0.387-4.882c-1.416-1.857-3.346-1.526-5.163-0.883c-1.39,0.492-2.604,1.653-4.202,0.755
			c-0.274-1.265,0.026-2.208,0.854-3.261c7.377-9.391,13.26-19.659,17.943-30.65c2.183-5.122,3.933-10.451,6.89-15.227
			c0-1.672,0-3.345,0-5.016C510.138,257.679,510.309,255.443,507.82,255.139z"/>
		<path fill-rule="evenodd" clip-rule="evenodd" fill="#BFAE76" d="M306.404,531.216c-0.52-0.155-1.229,0.07-1.434-0.717
			C306.167,529.303,306.28,530.27,306.404,531.216z"/>
		<g>
			<path fill="#E5E2D3" d="M290.833,532.978c0,0,4.684-1.1,11.747-2.603c3.531-0.75,7.658-1.601,12.1-2.443
				c4.445-0.821,9.182-1.723,14-2.459c2.425-0.313,4.831-0.641,7.4-0.562c0.654,0.029,1.305,0.077,2.075,0.247
				c0.376,0.087,0.82,0.201,1.396,0.547c0.316,0.251,0.629,0.359,1.023,1.219l0.07,0.207c0.022,0.072,0.043,0.1,0.086,0.329
				c0.069,0.343,0.105,0.801,0.079,1.064l-0.094,0.651c-0.085,0.388-0.198,0.751-0.326,1.07c-0.251,0.644-0.538,1.212-0.856,1.736
				c-1.257,2.095-2.748,3.743-4.082,5.368c-1.346,1.608-2.607,3.116-3.818,4.468c-2.408,2.713-4.496,4.887-5.949,6.414
				c-1.465,1.515-2.302,2.381-2.302,2.381s0.742-0.947,2.041-2.604c1.281-1.669,3.07-4.089,5.122-7.044
				c1.016-1.484,2.122-3.086,3.17-4.846c1.041-1.751,2.016-3.715,2.801-5.642c0.19-0.48,0.365-0.953,0.493-1.39
				c0.065-0.218,0.091-0.415,0.134-0.587c0.003-0.07,0.011-0.138,0.022-0.206c-0.005-0.024-0.013,0.144,0.048,0.198
				c0.052,0.08,0.01-0.025-0.016-0.091l-0.076-0.203l-0.01-0.026c-0.119-0.258,0.149,0.316,0.133,0.279l0.047,0.083
				c0.035,0.053,0.077,0.103,0.125,0.145c0.078,0.071,0.081,0.085,0.137,0.115c0.075,0.051-0.041-0.031-0.238-0.065
				c-0.373-0.092-0.901-0.144-1.428-0.181c-2.162-0.129-4.564-0.082-6.926,0.021c-4.758,0.154-9.548,0.597-14.015,1.12
				c-4.472,0.514-8.643,1.061-12.216,1.551C295.586,532.223,290.833,532.978,290.833,532.978z"/>
		</g>
		<g>
			<path fill="#E5E2D3" d="M211.919,498.299c0,0,4.741-0.815,11.882-1.892c3.57-0.536,7.741-1.137,12.225-1.711
				c4.487-0.553,9.269-1.167,14.122-1.612c2.44-0.166,4.861-0.349,7.421-0.115c0.651,0.068,1.298,0.156,2.057,0.372
				c0.37,0.108,0.807,0.25,1.36,0.629c0.3,0.27,0.604,0.396,0.949,1.278l0.057,0.21c0.019,0.074,0.037,0.103,0.066,0.333
				c0.049,0.348,0.057,0.807,0.015,1.068l-0.132,0.645c-0.108,0.382-0.243,0.738-0.39,1.049c-0.29,0.628-0.611,1.178-0.96,1.682
				c-1.381,2.016-2.968,3.571-4.397,5.113c-1.439,1.524-2.79,2.953-4.08,4.23c-2.566,2.563-4.782,4.607-6.324,6.044
				c-1.553,1.425-2.44,2.238-2.44,2.238s0.798-0.9,2.193-2.477c1.38-1.589,3.312-3.897,5.538-6.724
				c1.102-1.421,2.303-2.952,3.454-4.646c1.145-1.686,2.235-3.587,3.136-5.464c0.219-0.468,0.421-0.93,0.575-1.356
				c0.079-0.214,0.116-0.41,0.169-0.579c0.007-0.069,0.019-0.137,0.035-0.204c-0.004-0.023-0.021,0.144,0.035,0.201
				c0.048,0.084,0.012-0.025-0.01-0.091l-0.064-0.209l-0.008-0.025c-0.104-0.266,0.131,0.325,0.115,0.287l0.042,0.085
				c0.032,0.056,0.071,0.107,0.116,0.152c0.073,0.075,0.076,0.089,0.131,0.123c0.07,0.055-0.041-0.034-0.235-0.08
				c-0.366-0.114-0.892-0.197-1.414-0.267c-2.151-0.258-4.552-0.356-6.914-0.396c-4.759-0.132-9.567,0.021-14.058,0.275
				c-4.494,0.244-8.69,0.539-12.286,0.813C216.708,497.831,211.919,498.299,211.919,498.299z"/>
		</g>
		<g>
			<path fill="#E5E2D3" d="M291.875,515.02c0,0,3.578-0.222,8.965-0.354c2.693-0.06,5.838-0.101,9.223-0.012
				c1.693,0.049,3.443,0.13,5.246,0.271c0.901,0.074,1.817,0.176,2.749,0.346c0.47,0.084,0.941,0.195,1.423,0.353
				c0.499,0.172,0.954,0.319,1.578,0.715c0.166,0.125,0.287,0.235,0.422,0.413c0.128,0.162,0.266,0.432,0.318,0.716
				c0.108,0.613-0.134,1.09-0.288,1.313c-0.341,0.479-0.606,0.627-0.859,0.808c-0.497,0.325-0.946,0.516-1.398,0.698
				c-0.895,0.36-1.772,0.617-2.644,0.859c-1.735,0.489-3.428,0.925-5.07,1.325c-3.285,0.79-6.361,1.431-9.001,1.962
				c-5.28,1.055-8.813,1.658-8.813,1.658s3.466-0.923,8.617-2.449c2.573-0.767,5.571-1.682,8.737-2.757
				c1.581-0.537,3.211-1.111,4.8-1.798c0.789-0.35,1.575-0.721,2.301-1.108c0.354-0.196,0.708-0.407,0.949-0.588
				c0.111-0.076,0.209-0.205,0.121-0.099c-0.027,0.041-0.19,0.291-0.119,0.682c0.025,0.177,0.122,0.338,0.178,0.415
				c0.067,0.087,0.104,0.122,0.182,0.179c-0.135-0.081-0.517-0.27-0.864-0.383l-1.159-0.359c-0.81-0.219-1.646-0.425-2.489-0.6
				c-1.688-0.361-3.396-0.595-5.049-0.806c-3.313-0.413-6.435-0.679-9.111-0.88C295.461,515.147,291.875,515.02,291.875,515.02z"/>
		</g>
		<g>
			<path fill="#E5E2D3" d="M235.479,479.877c0,0,0.83-0.01,2.285,0.029c1.455,0.043,3.534,0.124,6.034,0.383
				c1.251,0.132,2.605,0.306,4.042,0.584c1.433,0.3,2.967,0.606,4.539,1.375c0.389,0.196,0.775,0.447,1.159,0.744l0.072,0.055
				l0.036,0.027l0.018,0.014l0.066,0.06l0.053,0.052c0.065,0.066,0.132,0.144,0.189,0.222c0.209,0.25,0.392,0.807,0.268,1.265
				c-0.111,0.443-0.318,0.668-0.468,0.831c-0.159,0.162-0.291,0.254-0.424,0.347c-0.503,0.324-0.919,0.48-1.343,0.642
				c-0.419,0.156-0.833,0.279-1.246,0.39c-1.645,0.446-3.296,0.724-4.949,0.99c-3.304,0.521-6.605,0.895-9.702,1.226
				c-3.097,0.325-5.987,0.589-8.466,0.801c-4.957,0.418-8.268,0.608-8.268,0.608s3.273-0.52,8.182-1.3
				c4.898-0.807,11.447-1.899,17.859-3.363c1.596-0.371,3.188-0.777,4.677-1.237c0.709-0.232,1.517-0.506,1.896-0.765
				c0.029-0.022,0.061-0.048,0.039-0.03c-0.014,0.02-0.099,0.078-0.164,0.327c-0.072,0.263,0.048,0.612,0.138,0.705
				c0.026,0.04,0.062,0.079,0.096,0.106l-0.054-0.05c0.018,0.017-0.062-0.056,0.038,0.034l-0.012-0.009l-0.022-0.019l-0.045-0.035
				c-0.23-0.195-0.499-0.381-0.792-0.554c-1.155-0.727-2.515-1.317-3.823-1.763c-1.313-0.455-2.599-0.813-3.794-1.114
				c-2.395-0.601-4.434-0.976-5.861-1.224C236.302,479.985,235.479,479.877,235.479,479.877z"/>
		</g>
		<g>
			<path fill="#E5E2D3" d="M244.121,273.262c0,0-0.163,0.209-0.479,0.614c-0.25,0.339-0.666,0.883-1.158,1.641
				c-0.974,1.498-2.335,3.8-3.283,6.938c-0.475,1.565-0.819,3.338-0.88,5.274c-0.078,1.935,0.145,4.034,0.793,6.205
				c1.221,4.365,4.326,8.923,8.769,13.018c1.124,1.034,2.271,2.008,3.588,3.04c1.249,0.985,2.605,1.996,3.977,2.987
				c2.755,1.992,5.682,3.969,8.745,5.923c6.125,3.91,12.796,7.738,19.882,11.343c14.168,7.203,30.032,13.523,46.491,17.725
				c8.221,2.119,16.586,3.682,24.891,4.658c4.152,0.473,8.289,0.812,12.385,0.99c4.096,0.155,8.148,0.186,12.133,0.054
				c7.963-0.297,15.65-1.142,22.832-2.545c7.185-1.384,13.886-3.202,19.922-5.318c6.04-2.107,11.449-4.417,16.117-6.722
				c4.658-2.321,8.641-4.516,11.824-6.482c1.619-0.94,3-1.882,4.229-2.659c1.232-0.774,2.246-1.482,3.07-2.054
				c1.652-1.14,2.533-1.747,2.533-1.747s-0.865,0.63-2.488,1.811c-0.811,0.592-1.808,1.326-3.021,2.131
				c-1.21,0.809-2.569,1.787-4.167,2.77c-3.14,2.05-7.075,4.349-11.695,6.797c-4.629,2.432-10.007,4.891-16.037,7.166
				c-6.027,2.284-12.741,4.289-19.969,5.869c-7.224,1.601-14.983,2.653-23.05,3.156c-4.034,0.234-8.146,0.308-12.307,0.254
				c-4.161-0.077-8.369-0.316-12.6-0.69c-8.458-0.78-17.001-2.155-25.413-4.1c-16.842-3.853-33.138-9.874-47.757-16.851
				c-7.313-3.491-14.214-7.224-20.59-11.072c-3.188-1.924-6.245-3.878-9.151-5.87c-1.459-1.001-2.858-1.988-4.259-3.036
				c-1.336-0.995-2.727-2.102-3.994-3.207c-5.102-4.442-9.116-9.791-10.899-15.469c-0.926-2.808-1.31-5.616-1.28-8.193
				c0.009-2.581,0.402-4.926,0.954-6.959c1.112-4.082,2.723-6.956,3.871-8.843c0.575-0.941,1.072-1.638,1.428-2.14
				c0.309-0.421,0.469-0.639,0.469-0.639c1.146-1.557,3.336-1.892,4.894-0.746s1.892,3.336,0.747,4.894
				c-0.017,0.022-0.033,0.044-0.049,0.065L244.121,273.262z"/>
		</g>
		<circle fill-rule="evenodd" clip-rule="evenodd" fill="#E5E2D3" cx="216.875" cy="35.645" r="5.875"/>
	</g>
</g>
</svg>
