<?xml version="1.0" encoding="utf-8"?>
<!-- Generator: Adobe Illustrator 16.0.0, SVG Export Plug-In . SVG Version: 6.00 Build 0)  -->
<!DOCTYPE svg PUBLIC "-//W3C//DTD SVG 1.1//EN" "http://www.w3.org/Graphics/SVG/1.1/DTD/svg11.dtd">
<svg version="1.1" xmlns="http://www.w3.org/2000/svg" xmlns:xlink="http://www.w3.org/1999/xlink" x="0px" y="0px"
	 width="566.93px" height="566.93px" viewBox="0 0 566.93 566.93" enable-background="new 0 0 566.93 566.93" xml:space="preserve">
<g id="fond" display="none">
	
		<rect x="-8889.913" y="-8228.754" display="inline" fill-rule="evenodd" clip-rule="evenodd" fill="#58595B" width="15942.492" height="15814.695"/>
</g>
<g id="en_cours">
</g>
<g id="fini">
	<g>
		<g>
			<path fill-rule="evenodd" clip-rule="evenodd" fill="#29251B" d="M221.112,179.978c-0.389-0.247-0.776-0.494-1.165-0.742
				c3.317-5.513,6.634-11.025,9.951-16.538c-6.566-8.932-13.065-17.912-19.718-26.777c-5.666-7.552-11.459-15.01-17.312-22.419
				c-1.336-1.69-3.144-3.008-4.733-4.498c-3.51-1.144-2.624,2.521-4.014,3.601c-4.32,3.357-8.473,6.828-12.494,10.582
				c-5.064,4.729-11.199,8.312-16.873,12.389c-0.233,0.234-0.468,0.468-0.701,0.702c-11.691,7.665-23.666,14.588-38.265,14.667
				c-0.349,0-0.696,0-1.045,0c-4.002-0.296-8.229,0.124-11.952-1.053c-5.888-1.862-11.724-4.301-17.053-7.404
				c-6.153-3.584-11.852-8-17.52-12.35c-3.715-2.851-7.467-5.859-10.432-9.437c-6.812-8.219-13.151-16.827-20.214-25.965
				c-0.453,2.719-0.78,4.681-1.108,6.643c0.001,0.349,0.001,0.697,0.001,1.045c0,0.504,0,1.008-0.001,1.512
				c0.001,0.349,0.001,0.697,0.001,1.046c0.28,3.401,0.381,6.83,0.886,10.197c0.662,4.41,1.619,8.775,2.462,13.157
				c0.02,0.119,0.041,0.239,0.062,0.359c0,0.335,0,0.668,0,1.002c0.052-0.03,0.104-0.061,0.156-0.091l0,0
				c-0.052,0.03-0.104,0.061-0.156,0.091c0.148,0.523,0.295,1.048,0.441,1.572c13.787,77.802,76.855,180.339,178.085,235.866
				c4.976,3.667,9.974,7.344,16.465,8.458c0.54-8.004,1.076-15.94,1.612-23.873c0.766-11.05,1.56-22.212,2.195-31.071
				c0.193-1.762,0.359-3.525,0.477-5.293c0.07-1.051,0.118-2.118,0.135-3.189c0.414-5.723,0.674-9.271,0.674-9.271
				s-11.145-10.405-18.206-26.646c-0.995-2.366-1.917-4.77-2.78-7.202c-1.298-3.662-2.84-7.364-3.295-11.165
				c-0.524-4.392-0.252-8.938,0.18-13.368c0.607-6.238,0.824-12.71,2.747-18.578c3.134-9.563,7.064-18.842,13.11-27.212
				c3.949-5.469,7.714-10.97,12.671-15.57c-3.362-4.783-6.724-9.564-10.085-14.348C229.905,172.529,225.509,176.254,221.112,179.978
				z"/>
			<path fill-rule="evenodd" clip-rule="evenodd" fill="#29251B" d="M292.867,136.564c-0.501-5.187-1.827-10.29-2.411-15.474
				c-1.405-12.471-2.428-24.985-3.881-37.45c-1.381-11.839-2.88-23.675-4.772-35.44c-1.175-7.298-3.178-14.463-4.989-22.483
				c-4.064,4.497-7.275,8.313-10.771,11.846c-3.604,3.642-7.541,6.949-11.23,10.508c-5.798,5.594-11.491,11.296-17.266,16.914
				c-3.559,3.463-7.121,6.926-10.799,10.26c-3.173,2.875-6.511,5.567-9.775,8.341c-0.234,0.234-0.468,0.468-0.702,0.702
				c-1.423,0.947-2.846,1.895-4.269,2.841c7.508,10.146,14.926,20.358,22.554,30.413c5.113,6.74,10.522,13.256,15.798,19.871
				c5.059-4.965,10.367-9.711,15.021-15.03c1.349-1.542,1.371-4.797,1.062-7.142c-1.16-8.771-3.146-17.449-3.997-26.242
				c-0.941-9.717-0.621-19.555-1.542-29.274c-0.571-6.026,0.808-10.469,5.528-14.42c3.108-2.603,5.3-6.301,8.053-9.694
				c0.773,8.581,2.24,16.585,2.054,24.549c-0.359,15.392,2.519,30.442,3.817,45.646c0.69,8.075,2.41,16.115,4.359,23.999
				c0.695,2.812-0.16,3.636-1.995,4.943c-7.468,5.325-14.856,10.763-22.274,16.159c2.889,3.741,5.776,7.481,8.664,11.223
				c1.645-1.266,3.369-2.438,4.915-3.813c5.806-5.163,11.705-10.238,17.209-15.709C292.53,141.311,293.06,138.549,292.867,136.564z"
				/>
			<path fill-rule="evenodd" clip-rule="evenodd" fill="#29251B" d="M243.593,150.066c-2.911-0.056-7.674,3.245-7.634,5.289
				c0.088,4.445,3.459,8.352,7.191,8.333c3.944-0.021,6.413-2.991,6.235-7.503C249.277,153.441,246.128,150.114,243.593,150.066z"/>
			<path fill-rule="evenodd" clip-rule="evenodd" fill="#29251B" d="M216.603,126.764c2.283,0.175,5.919-3.349,6.166-5.977
				c0.24-2.569-4.032-7.276-6.695-7.376c-3.355-0.124-6.622,3.026-6.89,6.646C209.021,122.275,213.742,126.544,216.603,126.764z"/>
		</g>
		<path fill-rule="evenodd" clip-rule="evenodd" fill="#BFAE76" d="M527.77,462.684c-7.993-3.554-15.665-8.02-22.987-12.831
			c-5.479-3.599-10.385-8.166-15.167-12.701c-5.374-5.096-10.35-10.613-15.442-16c-2.538-2.686-4.831-5.608-7.449-8.208
			c-3.148-3.126-6.777-5.793-9.757-9.062c-9.18-10.073-18.181-20.312-27.181-30.548c-1.915-2.179-3.422-4.714-5.305-6.926
			c-5.681-6.673-11.867-12.959-17.109-19.954c-13.385-17.862-26.48-35.92-41.508-52.496c-5.865-6.47-11.146-13.5-16.36-20.521
			c-15.08-20.303-29.995-40.729-44.968-61.111c-7.839-10.67-15.765-21.278-23.454-32.056c-4.205-5.896-7.999-12.085-11.979-18.141
			c-2.888-3.741-5.775-7.481-8.664-11.223c-3.361-4.498-6.724-8.995-10.086-13.494c-5.275-6.615-10.685-13.131-15.798-19.871
			c-7.628-10.055-15.046-20.268-22.554-30.413c-0.934-0.911-1.845-1.846-2.803-2.729c-5.427-5.005-17.604-3.633-22.057,3.449
			c-0.232,0.233-0.466,0.467-0.698,0.7c-2.849,4.433-2.954,9.265-1.587,14.088c0.638,2.251,2.158,4.252,3.279,6.366
			c1.59,1.49,3.397,2.808,4.733,4.498c5.853,7.409,11.646,14.867,17.312,22.419c6.652,8.865,13.151,17.846,19.718,26.777
			c1.468,2.035,2.936,4.072,4.403,6.107c3.361,4.783,6.723,9.564,10.085,14.348c1.06,1.733,1.954,3.598,3.206,5.179
			c7.165,9.051,14.502,17.967,21.605,27.064c5.49,7.029,10.868,14.156,16.041,21.421c7.734,10.863,15.175,21.935,22.877,32.82
			c4.65,6.572,9.613,12.923,14.336,19.445c4.439,6.131,8.691,12.397,13.134,18.525c3.252,4.484,6.891,8.699,9.972,13.292
			c3.047,4.545,5.205,9.718,8.461,14.085c10.893,14.604,21.935,29.031,31.896,44.367c10.389,15.996,22.854,30.639,34.372,45.902
			c11.009,14.592,21.937,29.242,32.956,43.825c4.895,6.476,9.657,13.078,14.968,19.201c5.939,6.847,12.917,12.826,18.571,19.882
			c8.825,11.014,18.912,20.683,29.413,29.982c3.328,2.947,6.738,5.957,10.57,8.128c3.362,1.904,6.344-0.184,6.12-3.997
			c-0.503-8.569,1.899-16.627,3.798-24.791c0-0.349,0-0.696,0-1.044c0.285-1.073,0.568-2.146,0.853-3.217c0-0.349,0-0.697,0-1.045
			c0.284-2.493,0.568-4.985,0.853-7.479c0-0.349,0-0.696,0-1.044c0.869-5.644,1.531-11.328,2.656-16.92
			C542.919,477.415,536.445,466.539,527.77,462.684z M216.603,126.764c-2.86-0.22-7.582-4.488-7.419-6.706
			c0.268-3.62,3.534-6.771,6.89-6.646c2.663,0.1,6.936,4.807,6.695,7.376C222.521,123.415,218.886,126.938,216.603,126.764z
			 M243.15,163.688c-3.732,0.019-7.104-3.888-7.191-8.333c-0.04-2.044,4.723-5.345,7.634-5.289c2.535,0.048,5.685,3.375,5.793,6.119
			C249.563,160.697,247.095,163.668,243.15,163.688z"/>
		<path fill-rule="evenodd" clip-rule="evenodd" fill="#E5E2D3" d="M45.481,118.125c5.486,5.93,10.016,11.175,14.94,16.017
			c2.854,2.806,6.243,5.117,9.577,7.375c3.879,2.628,7.001,5.325,8.161,10.423c1.269,5.576,3.777,10.907,6.069,16.205
			c3.227,7.455,6.537,14.89,10.217,22.128c2.746,5.401,6.084,10.507,9.247,15.691c4.514,7.399,9.062,14.778,13.694,22.103
			c1.544,2.44,3.419,4.671,5.102,7.025c7.569,10.596,14.611,21.621,22.837,31.68c7.438,9.097,16.198,17.106,24.285,25.68
			c1.411,1.497,2.376,3.414,3.547,5.138c-0.377,0.334-0.754,0.669-1.13,1.004c-4.938-4.544-9.821-9.15-14.835-13.609
			c-3.033-2.698-6.304-5.129-9.401-7.757c-2.513-2.131-5.009-4.295-7.368-6.592c-4.553-4.431-8.856-9.127-13.528-13.427
			c-11.018-10.141-19.637-22.292-28.732-34.026c-5.268-6.797-9.881-14.098-14.873-21.111c-2.799-3.934-5.989-7.603-8.604-11.649
			c-3.011-4.659-5.823-9.484-8.275-14.458c-2.546-5.166-4.47-10.635-6.825-15.899c-2.661-5.951-5.95-11.661-8.131-17.774
			c-2.145-6.01-3.252-12.391-4.789-18.615C46.278,122.108,45.989,120.52,45.481,118.125z"/>
		<path fill-rule="evenodd" clip-rule="evenodd" fill="#E5E2D3" d="M179.472,320.503c3.745,2.323,7.49,4.646,11.234,6.969
			c0.232,0.233,0.465,0.468,0.697,0.702c3.865,2.016,7.732,4.027,11.595,6.049c6.626,3.468,13.123,7.22,19.921,10.313
			c4.162,1.895,6.492,4.295,6.158,9.019c-0.201,2.843,0.071,5.723-0.204,8.554c-0.044,0.457-2.204,1.352-2.771,1.013
			c-4.73-2.825-9.427-5.737-13.912-8.935c-3.555-2.534-6.827-5.472-10.173-8.292c-6.356-5.359-12.675-10.764-19.009-16.149
			c-0.231-0.234-0.464-0.468-0.696-0.702c-3.753-3.663-7.507-7.327-11.259-10.992c0.097-0.576-10.066-8.703-9.969-9.28
			c2.477,1.16,15.213,9.871,17.689,11.031C179.007,320.035,179.239,320.269,179.472,320.503z"/>
		<path fill-rule="evenodd" clip-rule="evenodd" fill="#E5E2D3" d="M229.898,162.697c1.468,2.035,2.936,4.072,4.403,6.107
			c-4.396,3.725-8.793,7.449-13.189,11.173c-0.389-0.247-0.776-0.494-1.165-0.742C223.265,173.723,226.581,168.21,229.898,162.697z"
			/>
		<path fill-rule="evenodd" clip-rule="evenodd" fill="#E5E2D3" d="M250.353,137.412c5.059-4.965,10.367-9.711,15.021-15.03
			c1.349-1.542,1.371-4.797,1.062-7.142c-1.16-8.771-3.146-17.449-3.997-26.242c-0.941-9.717-0.621-19.555-1.542-29.274
			c-0.571-6.026,0.808-10.469,5.528-14.42c3.108-2.603,5.3-6.301,8.053-9.694c0.773,8.581,2.24,16.585,2.054,24.549
			c-0.359,15.392,2.519,30.442,3.817,45.646c0.69,8.075,2.41,16.115,4.359,23.999c0.695,2.812-0.16,3.636-1.995,4.943
			c-7.468,5.325-14.856,10.763-22.274,16.159C257.077,146.408,253.715,141.911,250.353,137.412z"/>
	</g>
</g>
</svg>
