<?xml version="1.0" encoding="utf-8"?>
<!-- Generator: Adobe Illustrator 16.0.0, SVG Export Plug-In . SVG Version: 6.00 Build 0)  -->
<!DOCTYPE svg PUBLIC "-//W3C//DTD SVG 1.1//EN" "http://www.w3.org/Graphics/SVG/1.1/DTD/svg11.dtd">
<svg version="1.1" xmlns="http://www.w3.org/2000/svg" xmlns:xlink="http://www.w3.org/1999/xlink" x="0px" y="0px"
	 width="566.93px" height="566.93px" viewBox="0 0 566.93 566.93" enable-background="new 0 0 566.93 566.93" xml:space="preserve">
<g id="fond" display="none">
	
		<rect x="-9532.873" y="-8228.754" display="inline" fill-rule="evenodd" clip-rule="evenodd" fill="#58595B" width="15942.492" height="15814.695"/>
</g>
<g id="en_cours">
</g>
<g id="fini">
	<g>
		<circle fill-rule="evenodd" clip-rule="evenodd" fill="#29251B" cx="275.834" cy="286.199" r="215.166"/>
		<path fill-rule="evenodd" clip-rule="evenodd" fill="#BFAE76" d="M262.736,117.273c3.982,2.688,8.352,4.949,11.877,8.143
			c11.346,10.275,22.957,20.363,33.328,31.574c6.668,7.209,11.015,16.51,16.992,24.428c6.436,8.521,7.518,18.537,8.944,28.424
			c0.97,6.72,1.565,13.684,0.899,20.396c-0.68,6.853-2.689,13.669-4.859,20.257c-3.808,11.564-9.189,22.248-18.411,30.736
			c-9.821,9.041-19.261,18.495-28.863,27.773c-8.691,8.398-15.169,18.166-20.436,29.141c-5.111,10.652-8.071,21.393-7.104,33.063
			c0.365,4.417,1.896,8.737,2.896,13.102c0.666,4.15,1.531,8.28,1.957,12.455c0.82,8.008,1.312,16.049,2.117,24.059
			c0.221,2.198,0.828,4.437,1.688,6.476c2.283,5.422,5.082,10.638,7.163,16.13c3.897,10.283,10.339,18.274,19.911,23.716
			c-5.494,2.071-10.001-1.319-14.287-3.39c-13.227-6.39-23.465-16.576-32.438-28.03c-5.169-6.599-10.355-13.215-14.985-20.188
			c-1.609-2.423-1.575-5.94-2.282-8.96c-3.022-12.897-3.122-25.996-0.426-38.785c1.502-7.128,5.643-13.693,8.545-20.534
			c5.728-13.502,17.025-22.134,27.828-30.944c14.435-11.771,28.307-23.997,39.537-38.95c4.227-5.627,8.231-11.42,12.338-17.137
			c-0.516-0.4-1.029-0.801-1.545-1.2c-3.694,3.978-7.225,8.124-11.121,11.891c-5.654,5.464-11.528,10.706-17.443,15.89
			c-0.695,0.608-2.239,0.248-3.391,0.337c0.278-3.075,0.645-6.146,0.816-9.228c0.395-7.072,0.283-14.197,1.115-21.213
			c2.049-17.309,4.092-34.613,2.828-52.068c-0.538-7.443-1.689-14.861-2.926-22.23c-1.064-6.348-2.484-12.648-4.037-18.898
			c-2.361-9.498-4.522-19.084-7.634-28.344C269.238,128.939,265.652,123.219,262.736,117.273z"/>
		<path fill-rule="evenodd" clip-rule="evenodd" fill="#E5E2D3" d="M262.736,117.273c2.916,5.945,6.502,11.666,8.593,17.889
			c3.111,9.26,5.272,18.846,7.634,28.344c1.553,6.25,2.973,12.551,4.037,18.898c1.236,7.369,2.388,14.787,2.926,22.23
			c1.264,17.455-0.779,34.76-2.828,52.068c-0.832,7.016-0.721,14.141-1.115,21.213c-0.172,3.081-0.538,6.152-0.816,9.228
			c-3.57,8.118-10.941,12.907-16.818,18.979c-2.123,2.193-4.293,3.197-6.958-0.77c-4.868-7.246-11.745-13.244-16.003-20.77
			c-3.988-7.049-7.195-15.241-8.041-23.217c-1.599-15.08,0.197-29.994,6.949-44.15c6.751-14.151,12.321-28.861,18.85-43.125
			c5.191-11.34,2.543-22.921,2.037-34.455c-0.193-4.406-0.593-8.88-1.611-13.152c-1.211-5.084-3.188-9.984-5.046-15.605
			c2.343,1.859,4.492,3.563,6.642,5.268c0.598,0.38,1.197,0.76,1.796,1.14L262.736,117.273z"/>
		<path fill-rule="evenodd" clip-rule="evenodd" fill="#FFFFFF" d="M186.637,116.417c18.701-0.253,24.929,21.101,18.985,32.852
			c-6.477,12.806-16.737,21.918-27.181,31.045c-3.131,2.737-6.4,5.321-9.461,8.134c-9.203,8.454-18.564,16.801-30.012,22.041
			c-5.164,2.363-10.971,3.774-16.629,4.506c-7.902,1.021-12.627-4.748-10.451-12.375c2.438-8.551,4.627-17.307,8.305-25.342
			c5.947-12.993,13.959-24.705,24.008-35.148c6.252-6.499,12.229-13.125,20.071-17.66c3.421-1.978,7.142-3.522,10.872-4.854
			C178.881,118.282,182.799,117.462,186.637,116.417z"/>
		<path fill-rule="evenodd" clip-rule="evenodd" fill="#E5E2D3" d="M290.836,467.145c-9.572-5.441-16.014-13.433-19.911-23.716
			c-2.081-5.492-4.88-10.708-7.163-16.13c-0.859-2.039-1.467-4.277-1.688-6.476c-0.806-8.01-1.297-16.051-2.117-24.059
			c-0.426-4.175-1.291-8.305-1.957-12.455c0.666-2.772,2.006-5.574,1.893-8.315c-0.828-20.068,8.059-35.955,20.967-50.241
			c2.717-3.007,5.221-6.205,8.65-10.305c1.766,5.95,2.908,9.965,4.156,13.945c0.767,2.441,1.258,5.119,2.623,7.198
			c9.376,14.277,5.694,28.643,0.539,43.015c-4.438,12.369-9.851,24.461-13.255,37.1c-1.788,6.641-1.075,14.338,0.08,21.297
			C285.285,447.844,288.371,457.442,290.836,467.145z"/>
		<path fill-rule="evenodd" clip-rule="evenodd" fill="#00FE00" d="M262.962,117.286c-0.599-0.38-1.198-0.76-1.796-1.14
			C261.765,116.526,262.363,116.906,262.962,117.286z"/>
	</g>
</g>
</svg>
