<?xml version="1.0" encoding="utf-8"?>
<!-- Generator: Adobe Illustrator 16.0.0, SVG Export Plug-In . SVG Version: 6.00 Build 0)  -->
<!DOCTYPE svg PUBLIC "-//W3C//DTD SVG 1.1//EN" "http://www.w3.org/Graphics/SVG/1.1/DTD/svg11.dtd">
<svg version="1.1" xmlns="http://www.w3.org/2000/svg" xmlns:xlink="http://www.w3.org/1999/xlink" x="0px" y="0px"
	 width="566.93px" height="566.93px" viewBox="0 0 566.93 566.93" enable-background="new 0 0 566.93 566.93" xml:space="preserve">
<g id="fond" display="none">
	
		<rect x="-7607.873" y="-7591.898" display="inline" fill-rule="evenodd" clip-rule="evenodd" fill="#58595B" width="15942.492" height="15814.695"/>
</g>
<g id="en_cours">
</g>
<g id="fini">
	<g>
		<path fill-rule="evenodd" clip-rule="evenodd" fill="#29251B" d="M505.302,390.882c-0.111-11.459-2.895-22.599-4.027-33.934
			c-1.443-14.433-5.517-28.342-8.299-42.508c-4.533-23.081-13.52-44.286-26.073-64.045c-4.516-7.108-10.461-12.983-16.742-18.578
			c-16.125-14.361-35.449-22.309-55.771-28.396c-9.739-2.917-19.545-2.875-29.311-0.675c-10.941,2.465-21.294,6.588-30.924,12.417
			c-2.602,1.574-5.178,3.186-8.117,4.117c-4.556,1.444-6.117,0.803-7.098-3.84c-0.879-4.166-1.688-8.347-2.313-12.565
			c-0.285-1.925-0.544-3.855-0.733-5.799c-0.084-0.859-0.063-1.611,0.061-2.275c-1.857-32.544-0.095-117.991,1.628-140.294
			c0.029-0.498,0.073-0.996,0.122-1.493c0.041-0.406,0.084-0.812,0.127-1.216c1.281-12.181,0.597-24.287-1.205-36.36
			c-0.188-1.26-0.565-2.477-1.172-3.601c-1.525-2.823-4.012-3.406-6.661-1.581c-0.953,0.656-1.661,1.56-2.384,2.44
			c-10.208,12.447-20.384,24.917-29.621,38.121c-2.686,3.84-5.268,7.764-8.347,11.318c-1.666,1.923-3.521,2.786-6.289,2.644
			c-8.991-0.462-17.899-1.994-26.844-2.379c-8.294-0.358-8.829-0.668-10.354-10.042c-0.081-0.5-0.082-1.012-0.156-1.513
			c-1.859-12.533-2.965-25.167-5.033-37.672c-0.49-2.966-1.266-5.732-4.42-7.01c-1.268,0-2.536,0-3.804,0
			c-2.923,1.217-4.383,3.849-5.729,6.389c-6.511,12.296-13.875,24.18-18.89,37.208c-0.732,1.901-1.415,3.826-2.037,5.781
			c-0.393,1.234-0.815,2.409-1.545,3.332c-1.315,3.561-2.811,7.942-4.349,13.227c-0.09,0.95-0.345,1.863-0.771,2.717
			c-1.854,6.693-3.733,14.703-5.401,24.198c-0.037,0.485-0.059,0.969-0.111,1.455c-0.762,7.168-2,14.265-3.068,21.388
			c-1.219,11.503-2.067,24.542-2.318,39.267c0.133,0.425,0.138,0.892-0.022,1.408c-0.184,12.795,0.08,26.844,0.94,42.25
			c0,0.001,0,0.002,0,0.003c0.181,1.96,0.339,3.919,0.321,5.885c-0.129,13.944,0.473,27.854,1.564,41.75
			c0.397,5.052,1.63,10.025,1.501,15.119c-0.207,8.146,0.806,16.184,1.937,24.22c0.723,5.144,1.904,10.282,1.804,15.467
			c-0.25,13.1,2.589,25.694,5.81,38.222c4.511,17.546,8.765,35.158,14.645,52.337c3.734,10.908,7.414,21.841,11.056,32.783
			c4.585,13.772,12.132,26.207,18.469,39.183c3.756,7.691,8.547,14.732,13.561,21.628c0.005,0.007,0.009,0.015,0.015,0.022
			c1.223,1.755,2.452,3.416,3.671,4.991c0.561,0.757,1.121,1.515,1.682,2.271c0.842,1.139,1.738,2.154,2.681,3.061
			c1.008,1.165,1.992,2.255,2.946,3.281c5.98,0.038,14.284-0.117,24.138-0.763c5.171-0.371,10.772-0.806,16.679-1.444
			c5.912-0.591,12.118-1.464,18.531-2.394c6.399-1.019,13.008-2.121,19.663-3.539c6.669-1.349,13.396-2.947,20.088-4.672
			c0.146-0.039,0.289-0.08,0.435-0.119c-58.747-128.282-32.207-201.391,8.686-225.076c22.509-13.039,47.843-9.752,60.238,7.809
			c0.797,1.128,0.527,2.688-0.6,3.485c-1.128,0.796-2.688,0.527-3.484-0.601c-10.869-15.398-33.432-18.075-53.648-6.366
			c-39.155,22.679-64.102,93.715-6.307,219.407c1.555-0.436,3.105-0.876,4.655-1.313c3.283-1.03,6.575-1.995,9.808-3.053
			c6.465-2.117,12.774-4.366,18.803-6.744c1.502-0.606,2.992-1.208,4.468-1.804c1.478-0.592,2.942-1.177,4.36-1.825
			c1.426-0.63,2.838-1.252,4.231-1.868c1.391-0.623,2.796-1.173,4.13-1.826c2.688-1.27,5.301-2.505,7.828-3.7
			c2.504-1.25,4.922-2.458,7.243-3.618c2.335-1.141,4.513-2.344,6.605-3.454c2.085-1.124,4.085-2.158,5.93-3.189
			c1.839-1.047,3.56-2.026,5.149-2.932c1.592-0.91,3.1-1.678,4.381-2.495c2.604-1.574,4.667-2.797,6.086-3.616
			c1.42-0.82,2.177-1.258,2.177-1.258s-0.673,0.556-1.936,1.598c-1.263,1.043-3.134,2.551-5.536,4.452
			c-2.41,1.891-5.473,3.994-8.95,6.477c-1.739,1.242-3.692,2.398-5.698,3.71c-2.021,1.285-4.123,2.686-6.428,3.95
			c-2.283,1.306-4.663,2.666-7.125,4.074c-2.521,1.298-5.129,2.641-7.811,4.021c-5.406,2.67-11.205,5.288-17.281,7.816
			c-6.074,2.528-12.438,4.932-18.964,7.204c-3.259,1.146-6.594,2.153-9.918,3.238c-3.353,0.988-6.718,1.99-10.099,2.932
			c-6.779,1.813-13.582,3.559-20.352,4.939c-6.754,1.465-13.457,2.61-19.95,3.668c-6.505,0.98-12.813,1.801-18.815,2.394
			c-5.996,0.646-11.686,1.041-16.941,1.327c-0.267,0.014-0.541,0.027-0.818,0.04c-7,0.345-13.21,0.471-18.354,0.459
			c0,0-0.005,0-0.005,0l0,0c-2.312-0.005-4.412-0.037-6.27-0.09c-1.55-0.043-2.932-0.098-4.135-0.154
			c-1.313-0.023-2.627-0.047-3.941-0.07c-7.936-0.139-15.963-0.909-23.708-3.026c-12.582-3.44-23.855-9.813-35.199-16.005
			c-4.116-2.246-8.091-4.754-12.349-6.734c-11.614-5.403-21.832-12.939-31.173-21.515c-16.058-14.739-26.01-33.484-33.438-53.674
			c-5.374-14.607-8.008-29.689-9.03-45.285c-0.643-9.817,0.701-18.971,3.805-27.964c3.821-11.072,11.201-18.225,23.564-18.997
			c2.524-0.157,5.042-0.578,7.526-1.067c6.802-1.337,9.714-5.536,8.457-12.388c-1.137-6.197-4.312-11.393-8.83-15.646
			c-6.084-5.729-13.43-8.246-21.691-6.568c-15.745,3.2-27.352,12.213-34.951,26.274c-6.618,12.246-10.139,25.336-9.903,39.352
			c0.031,1.857,0.479,3.826-0.738,5.541c0,0.508,0,1.015,0,1.521c0.608,2.282,0.608,4.565,0,6.848c0,7.1,0,14.201,0,21.302
			c0.604,1.014,0.604,2.028,0,3.043c0,0.507,0,1.014,0,1.521c1.28,2.435,0.829,5.188,1.438,7.757
			c5.422,22.858,11.923,45.276,24.141,65.674c8.164,13.63,13.873,28.722,25.625,40.163c9.313,9.065,17.655,18.895,29.451,25.357
			c16.756,9.182,32.919,19.104,51.591,24.542c18.59,5.417,37.135,9.938,56.582,9.968c1.262,0.002,2.521,0.077,3.648,0.756
			c0.254,0,0.507,0,0.761,0c1.239-0.833,2.688-0.6,4.042-0.718c9.073-0.793,18.205-0.326,27.274-1.262
			c11.334-1.169,22.702-2.222,33.833-4.699c16.807-3.74,33.704-7.121,50.182-12.251c10.737-3.343,22.187-4.197,32.427-9.339
			c8.627-4.331,17.688-7.586,26.896-10.443c2.433-0.755,4.67-1.917,6.903-3.137c9.91-5.415,19.289-11.664,28.698-17.885
			c15.52-10.261,26.14-24.407,33.541-41.255c2.82-6.421,4.38-13.157,5.738-19.975c0-0.507,0-1.014,0-1.521
			c0-13.187,0-26.374,0-39.561c0-1.774,0-3.55,0-5.325C505.317,392.672,505.311,391.754,505.302,390.882z"/>
		<path fill-rule="evenodd" clip-rule="evenodd" fill="#E5E2D3" d="M239.661,195.985c1.497,0.806,3.891,0.512,4.631,2.885
			c-4.418,0.968-7.238-0.222-9.766-4.155c-2.809,1.789-5.21,4.959-9.247,3.548c0.027-1.202,0.725-1.153,1.332-1.135
			c3.909,0.114,4.988-1.992,5.336-5.205c0.53-4.89,0.316-9.928-2.424-14.342c-0.559-0.901-0.108-2.061-1.029-2.74
			c3.297-3.852,10.178-3.766,14.19,0.177C237.123,180.42,233.556,186.738,239.661,195.985z"/>
		<g>
			<polygon fill="#29251B" points="303.179,148.983 399.652,118.699 304.794,153.715 			"/>
		</g>
		<g>
			<polygon fill="#29251B" points="303.537,158.89 411.652,141.7 304.436,163.809 			"/>
		</g>
		<g>
			<polygon fill="#29251B" points="306.829,67.43 334.225,58.819 308.737,72.051 			"/>
		</g>
		<g>
			<polygon fill="#29251B" points="306.398,72.116 334.744,70.589 307.105,77.065 			"/>
		</g>
		<g>
			<polygon fill="#29251B" points="188.726,65.191 166.136,47.461 191.458,61.004 			"/>
		</g>
		<g>
			<polygon fill="#29251B" points="189.4,70.421 163.441,58.93 191.013,65.688 			"/>
		</g>
		<g>
			<polygon fill="#29251B" points="303.943,169.851 399.652,170.702 304.029,174.85 			"/>
		</g>
		<g>
			<polygon fill="#29251B" points="188.369,149.945 92.007,119.303 189.765,145.145 			"/>
		</g>
		<g>
			<polygon fill="#29251B" points="189.188,160.013 81.072,142.829 189.86,155.058 			"/>
		</g>
		<g>
			<polygon fill="#29251B" points="190.098,171.022 94.385,171.251 189.956,166.024 			"/>
		</g>
		<g>
			<path fill="#E5E2D3" d="M228.299,235.842l1.13,11.417l0.12,1.208l-1.434-0.094h0l-10.123-1.47l1.175-2.233l0,0l8.269,8.728
				l0.762,0.804l-0.698,0.843l0,0c-1.038,1.33-2.062,2.722-3.049,4.114c-0.99,1.396-1.949,2.813-2.876,4.245
				c-1.84,2.869-3.559,5.819-4.905,8.855l-1.658-2.264h0l3.475-0.419c1.161-0.129,2.313-0.304,3.482-0.391l3.5-0.31
				c1.193-0.06,2.323-0.161,3.572-0.183l3.23-0.058l-1.751,2.806l0,0c-0.45,0.718-0.926,1.551-1.363,2.354
				c-0.441,0.813-0.868,1.638-1.28,2.471c-0.823,1.666-1.586,3.367-2.295,5.088c-1.422,3.443-2.613,6.98-3.575,10.572
				c-0.96,3.594-1.675,7.245-2.133,10.923c-0.215,1.84-0.394,3.685-0.471,5.532c-0.056,0.923-0.068,1.847-0.083,2.771
				c-0.021,0.924,0.016,1.847,0.02,2.77l-3.24-1.853h0l2.043-0.968l2.021-0.86c0.673-0.293,1.347-0.543,2.02-0.815
				c0.673-0.268,1.346-0.534,2.021-0.786c2.696-1.032,5.392-2.003,8.117-2.951l2.252-0.783l-0.215,2.26l0,0.001
				c-0.077,1.067-0.115,2.219-0.135,3.338c-0.018,1.127-0.016,2.258,0.001,3.39c0.038,2.264,0.146,4.529,0.313,6.794
				c0.331,4.528,0.914,9.045,1.733,13.524c0.82,4.479,1.891,8.918,3.217,13.287c0.675,2.181,1.39,4.353,2.201,6.49
				c0.39,1.075,0.82,2.135,1.25,3.194c0.423,1.063,0.902,2.104,1.352,3.157c-0.505-1.027-1.042-2.041-1.522-3.081
				c-0.489-1.037-0.978-2.075-1.427-3.13c-0.93-2.099-1.766-4.238-2.564-6.393c-1.572-4.319-2.896-8.734-3.972-13.215
				c-1.075-4.481-1.915-9.024-2.502-13.608c-0.295-2.292-0.531-4.594-0.696-6.905c-0.081-1.156-0.146-2.314-0.19-3.476
				c-0.042-1.171-0.069-2.31-0.048-3.53l0,0l2.037,1.477c-2.596,1.141-5.199,2.317-7.756,3.537c-0.644,0.3-1.278,0.612-1.911,0.924
				c-0.63,0.314-1.276,0.614-1.891,0.943l-1.855,0.969l-1.761,1.01l0,0l-3.281,1.658l0.041-3.511c0.011-0.98-0.009-1.961,0.03-2.939
				c0.033-0.979,0.064-1.957,0.14-2.933c0.117-1.953,0.338-3.897,0.6-5.832c0.551-3.868,1.37-7.688,2.441-11.432
				c1.073-3.742,2.382-7.411,3.929-10.977c0.772-1.784,1.6-3.544,2.493-5.274c0.447-0.865,0.911-1.723,1.392-2.574
				c0.49-0.86,0.969-1.674,1.546-2.558l0-0.001l1.479,2.748c-1.065-0.007-2.245,0.065-3.364,0.094l-3.421,0.221
				c-1.141,0.056-2.282,0.203-3.424,0.302l-3.426,0.33h0l-2.887,0.261l1.229-2.525c1.577-3.238,3.465-6.216,5.46-9.101
				c1.004-1.437,2.036-2.85,3.096-4.24c1.064-1.392,2.138-2.751,3.277-4.109l0-0.001l0.064,1.647l-8.396-8.605l0,0l-2.735-2.958
				l3.91,0.725l10.058,1.863v0l-1.314,1.115L228.299,235.842z"/>
		</g>
		<path fill-rule="evenodd" clip-rule="evenodd" fill="#FFFFFF" d="M248.089,151.349c-3.437-36.268,42.897-47.101,53.958-40.782
			C304.986,138.858,271.819,155.248,248.089,151.349z"/>
		<path fill-rule="evenodd" clip-rule="evenodd" fill="#FFFFFF" d="M222.88,151.107c7.772-37.941-25.12-49.995-36.181-43.676
			C183.152,137.748,199.151,155.006,222.88,151.107z"/>
		<g>
			<defs>
				<path id="SVGID_1_" d="M222.88,151.107c7.772-37.941-25.12-49.995-36.181-43.676
					C183.152,137.748,199.151,155.006,222.88,151.107z"/>
			</defs>
			<clipPath id="SVGID_2_">
				<use xlink:href="#SVGID_1_"  overflow="visible"/>
			</clipPath>
			
				<circle clip-path="url(#SVGID_2_)" fill-rule="evenodd" clip-rule="evenodd" fill="#BFAE76" cx="219.057" cy="136.19" r="15.729"/>
			<path clip-path="url(#SVGID_2_)" fill-rule="evenodd" clip-rule="evenodd" fill="#29251B" d="M219.284,147.167
				c-4.624-7.656-3.295-14.788-0.586-21.953C222.584,128.378,223.062,140.184,219.284,147.167z"/>
		</g>
		<g>
			<defs>
				<path id="SVGID_3_" d="M248.089,151.349c-3.437-36.268,42.897-47.101,53.958-40.782
					C304.986,138.858,271.819,155.248,248.089,151.349z"/>
			</defs>
			<clipPath id="SVGID_4_">
				<use xlink:href="#SVGID_3_"  overflow="visible"/>
			</clipPath>
			
				<circle clip-path="url(#SVGID_4_)" fill-rule="evenodd" clip-rule="evenodd" fill="#BFAE76" cx="282.726" cy="133.424" r="15.729"/>
			<path clip-path="url(#SVGID_4_)" fill-rule="evenodd" clip-rule="evenodd" fill="#29251B" d="M282.954,144.401
				c-4.624-7.656-3.295-14.788-0.586-21.953C286.254,125.613,286.731,137.418,282.954,144.401z"/>
		</g>
	</g>
</g>
</svg>
