<?xml version="1.0" encoding="utf-8"?>
<!-- Generator: Adobe Illustrator 16.0.0, SVG Export Plug-In . SVG Version: 6.00 Build 0)  -->
<!DOCTYPE svg PUBLIC "-//W3C//DTD SVG 1.1//EN" "http://www.w3.org/Graphics/SVG/1.1/DTD/svg11.dtd">
<svg version="1.1" xmlns="http://www.w3.org/2000/svg" xmlns:xlink="http://www.w3.org/1999/xlink" x="0px" y="0px"
	 width="566.93px" height="566.93px" viewBox="0 0 566.93 566.93" enable-background="new 0 0 566.93 566.93" xml:space="preserve">
<g id="fond" display="none">
	
		<rect x="-8249.873" y="-8228.754" display="inline" fill-rule="evenodd" clip-rule="evenodd" fill="#58595B" width="15942.492" height="15814.695"/>
</g>
<g id="en_cours">
</g>
<g id="fini">
	<g>
		<path fill-rule="evenodd" clip-rule="evenodd" fill="#E5E2D3" d="M361.113,172.415c4.137,0.479,14.387,7.229,16.961,19.427
			c3.432-2.71,4.26-8.697,4.26-8.697s7.833,8.167,2,22c4.367-2.356,7.667-7.333,7.667-7.333s1.333,20.798-12.605,27.947
			c-8.021,4.114-7.967-1.173-5.262-8.195S372,211.048,372,211.048l-9.75-19.403L361.113,172.415z"/>
		<polygon fill-rule="evenodd" clip-rule="evenodd" fill="#E5E2D3" points="178.167,94.978 152.333,24.215 148.667,26.478 
			146,29.978 141.623,40.145 139.333,56.978 143.333,81.312 150.833,93.978 168.667,106.75 		"/>
		<path fill-rule="evenodd" clip-rule="evenodd" fill="#E5E2D3" d="M224.5,86.478c0.167-1,27-66.333,27-66.333l6.104,5.833l3.396,15
			l-1.167,25.667l-3.833,13l-6,9.333l-11.333,12.5L224.5,86.478z"/>
		<polygon fill-rule="evenodd" clip-rule="evenodd" fill="#E5E2D3" points="238.5,227.407 263.459,233.185 283.465,223.152 
			298.061,213.681 312.716,206.145 324.56,206.145 337,208.545 358.429,213.681 375.5,246.344 367.064,265.145 327.456,261.645 
			260.084,267.645 230.771,250.512 		"/>
		<path fill-rule="evenodd" clip-rule="evenodd" fill="none" d="M98.511,277.099c0-91.401,0.008-182.803-0.05-274.204
			c-0.001-1.973,0.444-2.418,2.418-2.417c125.26,0.054,250.521,0.054,375.78,0c1.974-0.001,2.418,0.443,2.417,2.417
			c-0.052,182.803-0.052,365.605,0,548.408c0.001,1.973-0.443,2.418-2.417,2.418c-125.26-0.055-250.521-0.056-375.78,0
			c-1.973,0-2.419-0.444-2.418-2.418C98.519,459.901,98.511,368.5,98.511,277.099z M288.04,364.224
			c-0.393-0.014-0.784-0.027-1.177-0.041c-0.357-6.534,2.308-12.62,2.828-19.06c0.288-3.57,1.926-7.051,3.104-10.521
			c0.496-1.461,0.613-2.78,0.09-4.238c-1.655-4.61-4.096-8.884-4.727-13.944c-0.348-2.792,0.669-4.994,1.16-7.443
			c0.075-0.372,0.789-0.898,1.152-0.857c0.458,0.052,0.753,0.659,0.667,1.258c-0.084,0.583-0.189,1.185-0.263,1.74
			c-0.32,2.459-0.952,5.058,0.596,7.317c1.923,2.808,7.379,2.671,10.395,0.081c3.658-3.141,7.953-5.319,12.239-7.465
			c4.379-2.191,9.369-3.054,13.262-6.362c1.184-1.007,2.796-0.778,4.287,0.224c4.29,2.882,6.99,7.298,10.604,10.834
			c2.15,2.104,4.294,4.313,6.189,6.683c3.979,4.977,8.747,9.102,14.217,12.219c6.99,3.983,14.839,5.747,22.641,7.41
			c4.218,0.898,8.271,2.297,11.466,5.067c2.481,2.152,4.593,4.82,6.861,7.266c1.086,1.172,2.13,2.538,2.699,4.008
			c1.998,5.156,4.631,10.008,6.933,15.017c1.876,4.08,3.847,8.214,4.595,12.591c1.254,7.329,3.914,14.242,5.874,21.338
			c1.523,5.519,2.964,11.105,4.662,16.602c2.009,6.496,2.902,13.338,4.941,19.822c1.911,6.076,2.98,12.469,6.137,18.131
			c0.079,0.142,0.052,0.341,0.079,0.513c0.726,4.62,1.961,9.123,1.944,13.906c-0.015,4.463-0.472,8.805-1.326,13.145
			c-1.619,3.414-3.189,6.853-4.886,10.228c-0.558,1.11-0.803,2.102,0.002,3.093c0.864,1.063,2.038,1.672,3.414,1.362
			c1.885-0.425,3.746-0.968,5.591-1.547c3.637-1.143,3.688-1.194,5.241,2.083c1.152,2.431,3.641,3.442,6.472,1.736
			c4.146-2.499,6.864-6.243,8.729-10.57c0.816-1.893,1.386-4.095-0.441-5.946c-0.533-1.598-1.006-3.219-1.613-4.788
			c-1.289-3.326-1.694-6.623-1.185-10.26c0.53-3.782,1.068-6.004-3.627-7.53c-0.309-0.101-0.533-0.438-0.823-0.625
			c-4.8-3.096-6.707-8.002-7.98-13.176c-1.682-6.834-3.047-13.742-5.305-20.43c-2.993-8.865-4.777-18.041-6.863-27.142
			c-1.629-7.106-3.986-14.008-5.369-21.214c-2.461-12.828-4.327-25.685-5.264-38.719c-0.27-3.754-1.405-7.902-5.531-9.777
			c-1.94-0.883-3.648-2.188-5.613-2.951c-5.727-2.227-10.538-5.612-14.194-10.6c-3.09-4.215-5.718-8.688-7.112-13.738
			c-0.994-3.603-1.497-7.338-2.378-10.975c-2.116-8.739-5.561-17.086-6.248-26.263c-0.692-9.241-4.136-18.066-5.54-27.25
			c-0.931-6.083-3.395-11.641-5.609-17.339c-2.349-6.044-6.439-10.3-11.26-14.181c-3.252-2.618-6.919-4.593-10.384-6.875
			c-2.534-1.669-4.959-2.875-8-3.596c-9.015-2.138-18.11-2.691-27.276-2.398c-2.824,0.09-5.693,0.296-8.487,1.52
			c-4.464,1.956-8.651,4.39-12.771,6.894c-6.114,3.714-12.512,7.043-17.753,12.096c-1.849,1.781-4.04,3.247-6.21,4.648
			c-3.972,2.564-8.717,2.579-13.122,3.716c-1.051,0.271-1.94,0.548-3.19,0.167c-3.198-0.974-6.193-2.415-8.951-4.136
			c-1.467-0.916-3.487-1.468-4.262-3.476c-1.732-4.489-3.397-8.999-4.66-13.645c-1.546-5.685-2.771-11.485-3.283-17.314
			c-0.498-5.664-1.465-11.275-1.78-16.953c-0.01-0.161-0.315-0.306-0.59-0.556c-0.452,0.839-1.027,1.53-1.212,2.313
			c-1.053,4.458-3.481,8.281-5.572,12.253c-1.862,3.537-4.262,6.564-8.278,7.881c-1.772,0.581-3.489,1.348-5.285,1.832
			c-2.376,0.641-4.848,1.671-7.199,1.494c-4.59-0.346-8.574-2.836-11.41-6.241c-4.78-5.741-8.318-12.4-12.075-18.849
			c-1.553-2.663-2.145-5.863-3.521-8.69c-0.279-0.573-0.447-1.33-1.061-1.252c-1.054,0.136-0.673,1.242-0.505,1.688
			c0.734,1.957,0.461,3.955,0.444,5.932c-0.02,2.352,0.383,4.679,0.669,6.969c0.877,7.019,1.479,14.066,1.882,21.106
			c0.297,5.189,0.123,10.428-0.274,15.671c-0.402,5.288-0.423,10.643-0.705,15.962c-0.202,3.811-0.531,7.614-0.745,11.429
			c-0.431,7.676-1.438,15.321-1.804,22.999c-0.568,11.904,0.441,23.63,4.065,35.128c2.573,8.165,5.649,15.832,12.466,21.453
			c4.489,3.703,9.122,7.263,14.914,8.515c4.693,1.015,9.568,0.891,14.355,1.342c5.148,0.484,10.384,0.285,15.568,0.069
			c3.381-0.142,6.82-0.476,9.952-2.023c2.045-1.011,2.588-3.051,0.827-4.249c-1.834-1.249-2.224-3.076-3.104-4.765
			c-0.294-0.565-0.79-0.912,0.003-1.38c0.648-0.382,0.994,0.126,1.267,0.534c2.174,3.257,4.778,6.325,6.365,9.851
			c2.435,5.408,3.835,11.104,4.552,17.154c0.915,7.727,1.138,15.557,2.868,23.21c1.428,6.312,2.348,12.738,3.486,19.114
			c0.964,5.398,2.226,10.769,2.319,16.271c0.064,3.771-1.821,7.254-2.04,11.016c0,0.215,0,0.431,0,0.646
			c-0.2,1.662,0.019,3.29,0.852,4.722c1.878,3.225,4.107,6.269,5.736,9.608c1.579,3.236,3.55,6.441,3.411,10.287
			c0,0.215,0,0.43,0,0.646c0.351,1.696,0.656,3.397,0.526,5.144c0,0.215,0,0.431,0,0.646c0.81,1.901,0.126,3.982,0.607,5.873
			c1.424,5.589,1.62,11.346,2.427,17.01c1.013,7.106,2.805,14.069,3.545,21.221c0.408,3.935,0.776,7.86-0.127,11.71
			c-1.088,4.638-1.886,9.127-1.405,14.037c0.454,4.63,1.557,9.145,1.86,13.772c1.199,3.757,2.386,7.517,3.603,11.267
			c0.419,1.291,0.905,2.551,1.909,3.547c1.683,1.669,3.377,1.433,4.195-0.721c0.688-1.807,1.254-3.664,1.768-5.528
			c0.541-1.963,1.517-2.346,3.052-1.065c1.119,0.935,2.144,2.014,3.36,2.797c1.145,0.736,2.403,1.18,3.86,0.349
			c1.302-0.742,1.448-1.842,1.294-3.019c-0.243-1.849-0.534-3.713-1.058-5.495c-0.766-2.604-0.131-5.482-1.633-7.921
			c-0.454-1.534-0.24-3.147-0.493-4.685c-1.403-8.54-1.533-17.211-2.801-25.776c-0.733-4.958-0.888-10.018-1.869-14.967
			c-0.824-4.158-1.154-8.379-1.636-12.584c-0.477-4.162-0.948-8.402-1.904-12.422c-1.304-5.48-1.679-11.123-3.281-16.527
			c-0.189-0.642-0.146-1.428,0.021-2.088c1.071-4.236,0.386-8.58,0.728-12.865c0.25-3.124-0.283-6.397-1.185-9.609
			c-1.21-4.314-2.675-8.547-3.919-12.847c-0.919-3.174-1.283-6.211-0.454-9.441c0.875-3.404,0.732-6.946,1.083-10.424
			c1.789,0.381,1.191,1.887,0.919,2.708c-0.634,1.909-0.197,3.807-0.392,5.692c-0.111,1.074,0.633,1.758,1.34,2.038
			c0.834,0.33,1.381-0.621,1.723-1.277c0.3-0.577,0.492-1.256,0.695-1.895c0.594-1.872,0.664-3.887,1.354-5.674
			c1.213-3.142,2.707-6.168,4.631-8.99c2.177-3.194,3.001-7.067,4.946-10.425c2.3-3.971,4.354-8.093,6.355-12.226
			c2.088-4.31,2.462-8.527-0.507-12.811c-2.716-3.919-5.368-8.016-3.729-13.275c0.266-0.853-0.221-1.837-0.376-2.747
			c-0.317-1.871-1.59-1.892-2.688-1.531c-1.409,0.462-2.843,1.045-3.768,2.49c-1.211,1.891-1.552,3.964-1.514,6.071
			c0.076,4.251-0.173,8.326-2.013,12.344c-1.141,2.487-1.385,5.405-1.771,8.208C289.926,355.283,288.897,359.741,288.04,364.224z
			 M236.49,488.409c1.81-1.328,3.132-3.029,4.252-4.986c0.985-1.723,1.895-3.964,3.946-4.381c2.602-0.528,4.994-1.624,7.554-2.178
			c1.432-0.31,1.995-1.064,2.083-2.506c0.141-2.315,0.323-4.646,0.735-6.926c1.103-6.098,3.695-11.779,5.141-17.78
			c1.328-5.512,3.111-10.833,5.354-16.053c1.009-2.351,0.63-5.143-1.053-7.32c-3.207-4.147-4.555-8.479-2.385-13.599
			c0.793-1.871,0.984-3.991,1.541-5.972c0.308-1.09-0.115-2.08-0.893-2.406c-1.049-0.441-1.823,0.551-2.106,1.462
			c-1.312,4.22-3.536,8.067-5.271,12.086c-4.091,9.48-6.813,19.487-11.476,28.737c-2.697,5.35-5.454,10.574-9.742,14.857
			c-4.929,4.923-9.801,9.903-14.698,14.859c-2.202,2.14-4.424,4.26-6.596,6.43c-0.874,0.873-1.625,2.019-1.092,3.221
			c0.535,1.207,1.717,1.892,3.135,1.926c0.525,0.013,1.052,0.002,1.577,0.002c3.282,0.005,3.37,0.143,2.138,3.334
			c-1.127,2.921,0.344,5.012,3.467,4.516C227.646,494.851,232.857,493.133,236.49,488.409z M145.439,516.304
			c1.407-2.402,3.043-4.704,4.161-7.233c1.22-2.759,3.209-3.461,5.922-3.313c2.047,0.112,3.235-1.056,3.493-3.013
			c0.734-5.572,1.675-11.063,3.035-16.558c2.317-9.357,5.691-18.254,9.547-27.028c2.645-6.017,5.434-11.991,7.65-18.166
			c1.959-5.461,4.501-10.553,7.727-15.309c2.37-3.493,3.826-7.037,3.73-11.439c-0.166-7.645,1.682-14.932,4.696-22.017
			c2.013-4.73,4.813-8.94,7.281-13.378c2.969-5.337,6.157-10.545,9.076-15.916c2.456-4.519,5.966-8.398,9.159-12.449
			c1.386-1.758,2.033-3.42,0.278-5.526c-1.699-2.037-2.512-4.423-0.882-7.087c0.996-1.629,0.09-3.304-1.87-3.628
			c-1.025-0.169-2.104,0.028-3.151-0.052c-7.157-0.547-14.097-1.659-19.476-7.134c-1.412-1.438-3.085-1.022-3.861,0.804
			c-0.501,1.179-0.692,2.427-0.877,3.712c-0.389,2.708-0.081,5.544-1.11,8.126c-3.389,8.502-6.504,17.082-8.555,26.03
			c-1.173,5.116-2.941,10.113-3.844,15.27c-0.91,5.204-3.636,9.198-6.668,13.278c-3.865,5.202-6.873,10.645-5.22,17.802
			c0.879,3.809,0.722,8.153-0.139,11.993c-1.101,4.905-3.348,9.572-5.248,14.263c-2.8,6.911-5.657,13.772-7.556,21
			c-1.771,6.741-4.264,13.238-7.139,19.565c-2.914,6.413-5.973,12.771-9.26,18.998c-1.91,3.621-5.219,6.243-7.832,9.37
			c-1.685,0.216-2.908,1.41-4.207,2.267c-2.117,1.396-4.604,2.313-6.266,4.361c-1.634,2.013-1.045,4.271,1.262,4.465
			c2.08,0.176,4.268,0.324,6.266-0.135c1.835-0.422,1.813,0.35,1.912,1.594c0.069,0.857-0.455,1.449-0.729,2.149
			c-0.998,2.541,0.436,4.806,3.021,4.265c4.026-0.844,8.166-1.678,11.707-3.85C143.578,521.096,145.457,519.198,145.439,516.304z
			 M261.354,34.339c0.337-1.803-0.426-2.785-0.724-3.873c-1.182-4.319-2.522-8.512-6.118-11.596
			c-2.438-2.092-3.813-2.034-6.003,0.251c-1.272,1.328-2.071,2.962-3.234,4.31c-4.71,5.457-7.008,12.188-9.886,18.585
			c-2.984,6.637-5.2,13.617-8.112,20.268c-2.857,6.524-5.837,12.982-7.879,19.802c-0.786,2.627-2.562,2.915-4.6,2.801
			c-1.03-0.058-2.073-0.1-3.109-0.14c-1.877-0.072-3.1-0.475-2.309-2.84c0.361-1.081-0.512-2.238-1.274-2.828
			c-0.787-0.608-1.767,0.052-2.453,0.867c-0.553,0.656-1.076,1.318-1.584,2.012c-0.858,1.173-1.962,2.399-2.643-0.291
			c-0.237-0.936-0.795-2.003-1.992-2.162c-1.044-0.139-1.676,0.693-1.929,1.475c-1.075,3.326-2.603,6.136-6.468,6.769
			c-0.141,0.023-0.24,0.326-0.378,0.344c-1.756,0.218-3.573,1.924-5.262,0.089c-2.202-2.393-4.46-4.941-5.603-7.911
			c-1.981-5.148-4.61-9.969-6.87-14.968c-2.156-4.771-4.17-9.608-5.885-14.521c-1.668-4.78-2.513-9.823-4.814-14.438
			c-2.066-4.145-3.911-8.418-5.54-12.752c-0.815-2.169-2.435-3.241-4.259-3.451c-1.522-0.176-3.016,0.752-4.211,2.318
			c-1.398,1.831-1.825,4.071-3.093,5.82c-5.003,6.906-6.184,14.883-6.546,23.022c-0.208,4.679-0.035,9.378,0.348,14.09
			c0.567,6.984,2.046,13.708,4.961,19.975c2.717,5.843,6.838,10.64,11.984,14.83c3.543,2.884,6.568,6.479,10.494,9.015
			c1.042,0.673,0.479,1.365-0.293,1.786c-0.965,0.526-2.4,0.658-1.911,2.291c0.472,1.572,1.732,2.252,3.275,2.501
			c0.987,0.16,2.518-0.551,2.827,0.601c0.281,1.046-1.268,1.664-1.986,2.487c-0.262,0.3-0.736,0.402-1.083,0.641
			c-1.011,0.695-1.631,1.635-1.286,2.884c0.294,1.063,1.259,1.277,2.215,1.268c1.081-0.011,1.948,0.166,1.963,1.498
			c0.082,7.423,2.774,14.387,3.817,21.66c1.26,8.781,4.93,16.92,8.757,24.844c3.01,6.233,6.58,12.21,10.776,17.8
			c4.986,6.642,9.517,7.709,16.91,5.886c6.408-1.582,11.041-5.29,13.852-11.075c1.297-2.668,3.448-4.993,4.117-7.785
			c1.164-4.857,3.394-9.344,4.188-14.39c0.455-2.892,2.039-5.827,2.624-8.948c1.059-5.651,2.317-11.328,2.205-17.05
			c-0.103-5.218-0.424-10.445-0.371-15.673c0.011-1.078-0.07-2.285-0.629-2.954c-1.907-2.28-0.938-3.242,1.308-4.252
			c2.305-1.035,2.575-2.988,0.817-4.782c-0.392-0.398-0.588-0.652-0.244-1.006c1.019-1.047,1.272-2.521,2.39-3.6
			c2.031-1.962,3.944-4.139,5.471-6.508c1.813-2.813,3.655-5.608,5.731-8.214c6.494-8.148,9.96-17.4,10.359-27.777
			c0.162-4.217,0.148-8.45-0.005-12.669C261.979,43.7,263.035,38.653,261.354,34.339z M377.449,207.982
			c-0.302-1.034-0.203-2.804-2.138-2.678c-2.673,0.175-3.03-1.833-3.031-3.443c-0.001-3.073-0.732-6.082-1.396-8.918
			c-1.593-6.812-3.064-13.854-8.157-19.266c-0.486-0.517-0.639-1.445-1.614-1.263c-0.98,0.183-1.479,1.031-1.498,1.832
			c-0.089,3.682-0.369,7.404,0.04,11.042c0.742,6.597,0.572,12.96-2.511,19.015c-0.93,1.827-0.465,3.389,1.381,4.378
			c4.457,2.39,8.79,4.905,12.169,8.823c0.866,1.005,2.71,1.852,3.439,0.059C375.372,214.521,376.817,211.514,377.449,207.982z"/>
		<path fill-rule="evenodd" clip-rule="evenodd" fill="#BFAE76" d="M280.699,532.093c-0.304-4.628-1.406-9.143-1.86-13.772
			c-0.48-4.91,0.317-9.399,1.405-14.037c0.903-3.85,0.535-7.775,0.127-11.71c-0.74-7.151-2.532-14.114-3.545-21.221
			c-0.807-5.664-1.003-11.421-2.427-17.01c-0.481-1.891,0.202-3.972-0.607-5.873c0.129-0.078,0.258-0.155,0.387-0.232
			c-0.129-0.138-0.258-0.275-0.387-0.413c0.13-1.746-0.176-3.447-0.526-5.145c0.129-0.077,0.258-0.154,0.387-0.232
			c-0.129-0.138-0.258-0.274-0.387-0.412c0.139-3.846-1.832-7.051-3.411-10.287c-1.629-3.34-3.858-6.384-5.736-9.608
			c-0.833-1.432-1.052-3.06-0.852-4.722c0.129-0.078,0.257-0.155,0.386-0.232c-0.129-0.139-0.258-0.275-0.386-0.413
			c0.219-3.762,2.104-7.245,2.04-11.016c-0.094-5.503-1.355-10.873-2.319-16.271c-1.139-6.376-2.059-12.803-3.486-19.114
			c-1.73-7.653-1.953-15.483-2.868-23.21c-0.717-6.051-2.117-11.746-4.552-17.154c-1.587-3.525-4.191-6.594-6.365-9.851
			c-0.272-0.408-0.618-0.916-1.267-0.534c-0.793,0.468-0.297,0.814-0.003,1.38c0.881,1.688,1.271,3.516,3.104,4.765
			c1.761,1.198,1.218,3.238-0.827,4.249c-3.132,1.548-6.571,1.882-9.952,2.023c-5.185,0.216-10.42,0.415-15.568-0.069
			c-4.787-0.451-9.662-0.327-14.355-1.342c-5.792-1.252-10.425-4.812-14.914-8.515c-6.816-5.621-9.893-13.288-12.466-21.453
			c-3.624-11.498-4.634-23.224-4.065-35.128c0.366-7.678,1.373-15.323,1.804-22.999c0.214-3.814,0.543-7.618,0.745-11.429
			c0.282-5.319,0.303-10.674,0.705-15.962c0.397-5.243,0.571-10.481,0.274-15.671c-0.402-7.04-1.005-14.088-1.882-21.106
			c-0.286-2.29-0.688-4.617-0.669-6.969c0.017-1.977,0.29-3.975-0.444-5.932c-0.168-0.445-0.549-1.552,0.505-1.688
			c0.613-0.078,0.781,0.679,1.061,1.252c1.377,2.827,1.969,6.027,3.521,8.69c3.757,6.448,7.295,13.107,12.075,18.849
			c2.836,3.405,6.82,5.896,11.41,6.241c2.352,0.177,4.823-0.854,7.199-1.494c1.796-0.484,3.513-1.251,5.285-1.832
			c4.017-1.316,6.416-4.344,8.278-7.881c2.091-3.972,4.52-7.795,5.572-12.253c0.185-0.783,0.76-1.475,1.212-2.313
			c0.274,0.25,0.58,0.395,0.59,0.556c0.315,5.678,1.282,11.289,1.78,16.953c0.512,5.829,1.737,11.63,3.283,17.314
			c1.263,4.646,2.928,9.155,4.66,13.645c0.774,2.008,2.795,2.56,4.262,3.476c2.758,1.721,5.753,3.162,8.951,4.136
			c1.25,0.381,2.14,0.104,3.19-0.167c4.405-1.137,9.15-1.151,13.122-3.716c2.17-1.401,4.361-2.867,6.21-4.648
			c5.241-5.053,11.639-8.382,17.753-12.096c4.12-2.504,8.308-4.938,12.771-6.894c2.794-1.224,5.663-1.43,8.487-1.52
			c9.166-0.293,18.262,0.261,27.276,2.398c3.041,0.721,5.466,1.927,8,3.596c3.465,2.282,7.132,4.257,10.384,6.875
			c4.82,3.881,8.911,8.137,11.26,14.181c2.215,5.698,4.679,11.256,5.609,17.339c1.404,9.184,4.848,18.009,5.54,27.25
			c0.688,9.177,4.132,17.523,6.248,26.263c0.881,3.637,1.384,7.372,2.378,10.975c1.395,5.05,4.022,9.523,7.112,13.738
			c3.656,4.987,8.468,8.373,14.194,10.6c1.965,0.764,3.673,2.068,5.613,2.951c4.126,1.875,5.262,6.023,5.531,9.777
			c0.937,13.034,2.803,25.891,5.264,38.719c1.383,7.206,3.74,14.107,5.369,21.214c2.086,9.101,3.87,18.276,6.863,27.142
			c2.258,6.688,3.623,13.596,5.305,20.43c1.273,5.174,3.181,10.08,7.98,13.176c0.29,0.187,0.515,0.524,0.823,0.625
			c4.695,1.526,4.157,3.748,3.627,7.53c-0.51,3.637-0.104,6.934,1.185,10.26c0.607,1.569,1.08,3.19,1.613,4.788
			c-0.96-0.532-2.008-0.475-3.046-0.436c-7.025,0.264-14.051-0.479-21.076-0.003c0.854-4.34,1.312-8.682,1.326-13.145
			c0.017-4.783-1.219-9.286-1.944-13.906c-0.027-0.172,0-0.371-0.079-0.513c-3.156-5.662-4.226-12.055-6.137-18.131
			c-2.039-6.484-2.933-13.326-4.941-19.822c-1.698-5.496-3.139-11.083-4.662-16.602c-1.96-7.096-4.62-14.009-5.874-21.338
			c-0.748-4.377-2.719-8.511-4.595-12.591c-2.302-5.009-4.935-9.86-6.933-15.017c-0.569-1.47-1.613-2.836-2.699-4.008
			c-2.269-2.445-4.38-5.113-6.861-7.266c-3.195-2.771-7.248-4.169-11.466-5.067c-7.802-1.663-15.65-3.427-22.641-7.41
			c-5.47-3.117-10.237-7.242-14.217-12.219c-1.896-2.37-4.039-4.579-6.189-6.683c-3.613-3.536-6.313-7.952-10.604-10.834
			c-1.491-1.002-3.104-1.23-4.287-0.224c-3.893,3.309-8.883,4.171-13.262,6.362c-4.286,2.146-8.581,4.324-12.239,7.465
			c-3.016,2.59-8.472,2.727-10.395-0.081c-1.548-2.26-0.916-4.858-0.596-7.317c0.073-0.556,0.179-1.157,0.263-1.74
			c0.086-0.599-0.209-1.206-0.667-1.258c-0.363-0.041-1.077,0.485-1.152,0.857c-0.491,2.449-1.508,4.651-1.16,7.443
			c0.631,5.061,3.071,9.334,4.727,13.944c0.523,1.458,0.406,2.777-0.09,4.238c-1.178,3.47-2.815,6.95-3.104,10.521
			c-0.521,6.439-3.186,12.525-2.828,19.06c-1.059,1.48-0.119,3.183-0.525,4.735c-1.078,0.904-0.273,1.78,0.039,2.664l0.036-0.051
			c-0.813,0.277-0.142,0.578-0.014,0.87c-0.001,0.157-0.004,0.314-0.009,0.471c-1.037,2.91-0.446,6.014-1.068,8.973
			c0.022,0.119,0.028,0.193,0.018,0.223c-0.351,3.478-0.208,7.02-1.083,10.424c-0.829,3.23-0.465,6.268,0.454,9.441
			c1.244,4.3,2.709,8.532,3.919,12.847c0.901,3.212,1.435,6.485,1.185,9.609c-0.342,4.285,0.344,8.629-0.728,12.865
			c-0.167,0.66-0.211,1.446-0.021,2.088c1.603,5.404,1.978,11.047,3.281,16.527c0.956,4.02,1.428,8.26,1.904,12.422
			c0.481,4.205,0.812,8.426,1.636,12.584c0.981,4.949,1.136,10.009,1.869,14.967c1.268,8.565,1.397,17.236,2.801,25.776
			c0.253,1.537,0.039,3.15,0.493,4.685c-2.512-1.229-4.603,0.048-6.833,1.001C289.817,529.184,284.693,529.038,280.699,532.093z
			 M309.727,223.152c2.541,0.029,5.593-2.702,5.614-5.025c0.03-3.252-3.489-7.059-6.544-7.079c-2.191-0.015-6.5,3.706-6.604,5.702
			C302.04,219.637,306.129,223.111,309.727,223.152z M325.884,231.047c-1.681,0.317-3.538,0.857-5.27,1.832
			c-1.659,0.935-2.8,5.771-1.663,7.267c2.227,2.932,7.268,2.958,9.627,0.015c0.581-0.725,1.05-1.548,1.51-2.36
			C331.719,234.914,329.454,231.053,325.884,231.047z M334.295,240.698c-0.306,3.327,1.665,4.998,5.423,5.079
			c3.26,0.07,6.765-3.038,6.65-5.845c-0.075-1.831-4.63-5.108-7.227-5.199C336.239,234.633,334.305,237.014,334.295,240.698z
			 M329.77,219.995c2.236,0.011,3.42-1.75,3.473-5.171c0.049-3.206-3.227-6.381-6.478-6.276c-2.28,0.073-5.099,3.874-5.096,6.87
			C321.672,217.435,326.171,219.977,329.77,219.995z M291.569,233.157c3.166-0.075,7.324-5.858,6.346-8.547
			c-0.111-0.306-0.388-0.558-0.605-0.819c-2.578-3.089-6.468-2.774-9.644,0.35c-1.854,1.822-1.456,3.658-0.63,5.387
			C287.934,231.403,289.077,233.444,291.569,233.157z M280.436,231.573c-2.706-0.564-6.1,3.361-6.121,5.351
			c-0.023,2.244,3.346,5.603,5.571,5.662c1.496,0.04,4.906-4.068,4.936-5.946C284.863,233.987,282.795,231.598,280.436,231.573z
			 M308.188,234.202c-4.073,0.334-5.695,1.85-5.471,5.109c0.189,2.734,2.371,5.056,4.6,4.893c2.577-0.188,5.657-3.476,5.382-5.856
			C312.398,235.75,310.89,234.245,308.188,234.202z M348.225,222.626c2.585,0.004,3.963-1.461,3.964-4.213
			c0.001-2.854-2.386-4.79-5.835-4.731c-2.297,0.039-4.231,1.678-4.154,3.518C342.317,219.987,345.242,222.621,348.225,222.626z
			 M260.086,240.783c-0.09,1.814,2.702,4.941,4.455,4.992c1.917,0.056,5.297-2.676,5.42-4.38c0.082-1.148-3.067-3.915-4.591-4.032
			C262.411,237.137,260.195,238.57,260.086,240.783z M287.453,245.438c0,2.873,1.502,4.995,3.34,5.073
			c1.311,0.056,3.396-2.731,3.391-4.531c-0.007-2.243-1.932-4.371-3.998-4.405C287.031,241.522,287.58,243.877,287.453,245.438z
			 M356.289,250.011c1.976-0.07,1.847-2.524,2.103-4.107c0.35-2.164-1.859-2.608-3.4-3.197c-0.833-0.317-3.792,2.081-3.847,2.888
			C350.961,248.274,352.599,249.93,356.289,250.011z M247.509,237.825c0.009,1.615,0.891,3.097,2.438,2.942
			c1.594-0.159,4.103-0.131,4.21-2.586c0.112-2.562-2.414-2.459-4.028-2.818C248.586,235.021,247.525,236.031,247.509,237.825z"/>
		<path fill-rule="evenodd" clip-rule="evenodd" fill="#BFAE76" d="M261.354,34.339c1.682,4.314,0.625,9.361,0.806,14.333
			c0.153,4.219,0.167,8.452,0.005,12.669c-0.399,10.377-3.865,19.629-10.359,27.777c-2.076,2.605-3.918,5.4-5.731,8.214
			c-1.526,2.369-3.439,4.546-5.471,6.508c-1.117,1.079-1.371,2.553-2.39,3.6c-0.344,0.354-0.147,0.607,0.244,1.006
			c1.758,1.794,1.487,3.747-0.817,4.782c-2.246,1.01-3.215,1.972-1.308,4.252c0.559,0.669,0.64,1.876,0.629,2.954
			c-0.053,5.228,0.269,10.455,0.371,15.673c0.112,5.722-1.146,11.398-2.205,17.05c-0.585,3.121-2.169,6.057-2.624,8.948
			c-0.795,5.046-3.024,9.532-4.188,14.39c-0.669,2.792-2.82,5.117-4.117,7.785c-2.811,5.785-7.443,9.493-13.852,11.075
			c-7.394,1.823-11.924,0.756-16.91-5.886c-4.196-5.59-7.767-11.566-10.776-17.8c-3.827-7.924-7.497-16.063-8.757-24.844
			c-1.043-7.273-3.735-14.237-3.817-21.66c-0.015-1.332-0.882-1.509-1.963-1.498c-0.956,0.01-1.921-0.204-2.215-1.268
			c-0.345-1.249,0.275-2.188,1.286-2.884c0.347-0.238,0.821-0.341,1.083-0.641c0.719-0.823,2.268-1.441,1.986-2.487
			c-0.31-1.151-1.84-0.44-2.827-0.601c-1.543-0.249-2.804-0.929-3.275-2.501c-0.489-1.633,0.946-1.765,1.911-2.291
			c0.772-0.421,1.335-1.113,0.293-1.786c-3.926-2.536-6.951-6.131-10.494-9.015c-5.146-4.19-9.268-8.987-11.984-14.83
			c-2.915-6.267-4.394-12.99-4.961-19.975c-0.383-4.712-0.556-9.411-0.348-14.09c0.362-8.14,1.543-16.116,6.546-23.022
			c1.268-1.749,1.694-3.989,3.093-5.82c1.195-1.566,2.688-2.494,4.211-2.318c1.824,0.21,3.443,1.282,4.259,3.451
			c1.629,4.334,3.474,8.607,5.54,12.752c2.302,4.614,3.146,9.657,4.814,14.438c1.715,4.913,3.729,9.751,5.885,14.521
			c2.26,4.999,4.889,9.819,6.87,14.968c1.143,2.97,3.4,5.519,5.603,7.911c1.688,1.835,3.506,0.129,5.262-0.089
			c0.138-0.018,0.237-0.32,0.378-0.344c3.865-0.633,5.393-3.442,6.468-6.769c0.253-0.781,0.885-1.613,1.929-1.475
			c1.197,0.159,1.755,1.227,1.992,2.162c0.681,2.69,1.784,1.464,2.643,0.291c0.508-0.693,1.031-1.355,1.584-2.012
			c0.687-0.815,1.666-1.476,2.453-0.867c0.763,0.59,1.636,1.747,1.274,2.828c-0.791,2.365,0.432,2.768,2.309,2.84
			c1.036,0.04,2.079,0.082,3.109,0.14c2.038,0.114,3.813-0.174,4.6-2.801c2.042-6.819,5.021-13.277,7.879-19.802
			c2.912-6.65,5.128-13.631,8.112-20.268c2.878-6.397,5.176-13.128,9.886-18.585c1.163-1.348,1.962-2.981,3.234-4.31
			c2.189-2.285,3.564-2.343,6.003-0.251c3.596,3.084,4.937,7.276,6.118,11.596C260.928,31.554,261.69,32.536,261.354,34.339z
			 M164.215,84.417c-3.49-3.622-7.131-7.036-10.38-10.831c-0.771-0.901-2.09-1.599-1.45-2.817c0.672-1.282,1.968-0.789,3.212-0.371
			c2.564,0.863,4.933,2.234,7.612,2.806c1.006,0.215,1.802,0.371,1.456-0.96c-1.383-5.315-2.669-10.669-4.353-15.892
			c-2.053-6.37-3.768-12.836-5.357-19.315c-0.662-2.697-1.665-5.169-2.831-7.574c-1.238-2.553-3.703-2.485-4.889-0.021
			c-3.352,6.971-5.74,14.171-5.606,22.071c0.099,5.805,0.602,11.509,1.436,17.28c1.088,7.538,3.67,14.267,8.011,20.307
			c3.841,5.345,9.218,9.246,14.079,13.615c0.382,0.344,0.768,0.781,1.229,0.92c1.061,0.319,2.018-0.174,2.361-1.117
			c0.213-0.58-0.145-1.404-1.099-1.604c-1.068-0.224-1.451-1.431-2.251-1.88c-1.105-0.621-1.343-1.452-1.002-2.35
			c0.384-1.01,1.283-1.468,2.511-1.466c1.514,0.003,3.202,0.601,4.528-0.849c-3.447-1.842-6.741-3.923-10.418-5.241
			c-1.021-0.366-1.689-0.942-1.429-2.101c0.229-1.012,0.861-1.759,1.959-1.738C162.518,85.307,163.342,85.072,164.215,84.417z
			 M238.025,99.525c0.968-0.882,1.424-1.259,1.835-1.68c2.954-3.022,4.897-6.792,7.464-10.104
			c6.099-7.873,9.989-16.707,10.054-26.737c0.074-11.6,1.107-23.288-1.974-34.737c-0.314-1.17-1.211-1.414-1.874-1.874
			c-0.964-0.669-0.86,0.731-1.271,1.133c-1.305,1.28-2.366,2.938-3.093,4.476c-3.967,8.401-8.231,16.708-10.797,25.689
			c-0.688,2.407-2.101,4.722-1.822,7.606c1.823-0.85,3.429-1.438,4.863-2.307c1.749-1.06,2.471,0.003,2.823,1.311
			c0.339,1.256-0.011,2.524-0.871,3.644c-1.628,2.117-3.164,4.306-5.204,7.104c2.284-0.896,4.08-1.201,5.328-2.194
			c1.454-1.156,2.671-0.728,3.18,0.353c0.613,1.3,0.718,3.043-0.951,4.074c-2.73,1.686-4.154,4.598-7.059,6.784
			c2.164,0.024,3.877-0.067,4.492,1.548c0.605,1.59-0.15,2.979-1.52,4.079c-1.8,1.446-3.001,3.505-4.876,4.912
			c-0.368,0.276-1.851,1.005-0.223,1.587C239.042,95.087,238.722,96.867,238.025,99.525z M207.658,167.88
			c-1.087-0.144-2.415,0.286-3.783,0.491c-5.675,0.853-10.482,5.116-11.646,10.516c-0.714,3.316,2.196,6.965,4.982,6.246
			c3.326-0.859,3.809-0.468,3.946,2.996c0.04,1.013-0.341,2.076,0.381,3.039c1.346,1.798,4.797,2.131,7.619,0.274
			c1.694-1.113,2.828-2.935,1.44-5.101c-0.808-1.261-0.16-1.928,0.771-2.52c0.813-0.518,1.736-0.628,2.718-0.707
			c2.924-0.237,4.342-2.431,5.219-4.807c0.822-2.226,0.29-4.896-1.348-6.258C215.169,169.732,211.966,167.672,207.658,167.88z
			 M211.619,150.575c-0.24,1.916,0.474,3.592,1.07,5.309c1.275,3.666,3.732,4.778,7.51,3.819c3.212-0.816,4.13-3.536,5.785-5.781
			c2.349-3.185,3.75-6.749,4.539-10.507c0.56-2.666,0.3-5.54-2.129-7.383c-2.092-1.587-6.371-0.813-8.955,1.149
			c-1.174,0.892-2.058,2.064-3.112,2.996C213.127,143.008,211.948,146.567,211.619,150.575z M195.336,152.16
			c0.015-8.291-4.492-13.984-12.639-15.779c-1.578-0.348-3.104-0.31-4.156,1.632c-1.3,2.397-1.373,4.663-1.203,7.342
			c0.456,7.237,5.357,10.828,10.799,13.844c3.154,1.748,6.644-0.292,7.171-3.627C195.483,154.461,195.336,153.298,195.336,152.16z"
			/>
		<path fill-rule="evenodd" clip-rule="evenodd" fill="#BFAE76" d="M128.51,507.269c2.613-3.127,5.922-5.749,7.832-9.37
			c3.287-6.228,6.346-12.585,9.26-18.998c2.875-6.327,5.368-12.824,7.139-19.565c1.898-7.228,4.756-14.089,7.556-21
			c1.9-4.69,4.147-9.357,5.248-14.263c0.86-3.84,1.018-8.185,0.139-11.993c-1.653-7.157,1.354-12.6,5.22-17.802
			c3.032-4.08,5.758-8.074,6.668-13.278c0.902-5.156,2.671-10.153,3.844-15.27c2.051-8.948,5.166-17.528,8.555-26.03
			c1.029-2.582,0.722-5.418,1.11-8.126c0.185-1.285,0.376-2.533,0.877-3.712c0.776-1.826,2.449-2.242,3.861-0.804
			c5.379,5.475,12.318,6.587,19.476,7.134c1.047,0.08,2.126-0.117,3.151,0.052c1.96,0.324,2.866,1.999,1.87,3.628
			c-1.63,2.664-0.817,5.05,0.882,7.087c1.755,2.106,1.107,3.769-0.278,5.526c-3.193,4.051-6.703,7.931-9.159,12.449
			c-2.919,5.371-6.107,10.579-9.076,15.916c-2.468,4.438-5.269,8.647-7.281,13.378c-3.015,7.085-4.862,14.372-4.696,22.017
			c0.096,4.402-1.36,7.946-3.73,11.439c-3.226,4.756-5.768,9.848-7.727,15.309c-2.217,6.175-5.006,12.149-7.65,18.166
			c-3.855,8.774-7.229,17.671-9.547,27.028c-1.36,5.494-2.301,10.985-3.035,16.558c-0.258,1.957-1.446,3.125-3.493,3.013
			c-2.713-0.147-4.702,0.555-5.922,3.313c-1.118,2.529-2.754,4.831-4.161,7.233C140.145,512.639,134.082,510.412,128.51,507.269z"/>
		<path fill-rule="evenodd" clip-rule="evenodd" fill="#BFAE76" d="M219.473,476.305c4.897-4.956,9.77-9.937,14.698-14.859
			c4.288-4.283,7.045-9.508,9.742-14.857c4.663-9.25,7.385-19.257,11.476-28.737c1.734-4.019,3.959-7.866,5.271-12.086
			c0.283-0.911,1.058-1.903,2.106-1.462c0.777,0.326,1.2,1.316,0.893,2.406c-0.557,1.98-0.748,4.101-1.541,5.972
			c-2.17,5.119-0.822,9.451,2.385,13.599c1.683,2.178,2.062,4.97,1.053,7.32c-2.242,5.22-4.025,10.541-5.354,16.053
			c-1.445,6.001-4.038,11.683-5.141,17.78c-0.412,2.279-0.595,4.61-0.735,6.926c-0.088,1.441-0.651,2.196-2.083,2.506
			c-2.56,0.554-4.952,1.649-7.554,2.178c-2.052,0.417-2.961,2.658-3.946,4.381c-1.12,1.957-2.442,3.658-4.252,4.986
			c-0.172-1.727-0.924-2.943-2.519-3.878c-2.931-1.72-5.852-3.461-8.776-5.188C223.323,478.236,221.101,477.826,219.473,476.305z"/>
		<path fill-rule="evenodd" clip-rule="evenodd" fill="#BFAE76" d="M285.34,382.067c0.011-0.029,0.005-0.104-0.018-0.223
			c1.556,0.842,1.509-0.48,1.573-1.29c0.182-2.265-0.242-4.563,0.517-6.808c0.192-0.57,0.129-1.53-1.021-0.875
			c0.005-0.156,0.008-0.313,0.009-0.471c0.361-0.284,0.366-0.574,0.014-0.87l-0.036,0.051c0.376,0.502,0.854,0.737,0.988-0.075
			c0.14-0.833,0.012-1.711,0-2.568c1.175-1.437,0.336-3.159,0.675-4.715c0.857-4.482,1.886-8.94,2.508-13.455
			c0.386-2.803,0.63-5.721,1.771-8.208c1.84-4.018,2.089-8.093,2.013-12.344c-0.038-2.107,0.303-4.181,1.514-6.071
			c0.925-1.445,2.358-2.028,3.768-2.49c1.098-0.36,2.37-0.34,2.688,1.531c0.155,0.91,0.642,1.895,0.376,2.747
			c-1.639,5.26,1.014,9.356,3.729,13.275c2.969,4.283,2.595,8.501,0.507,12.811c-2.002,4.133-4.056,8.255-6.355,12.226
			c-1.945,3.357-2.77,7.23-4.946,10.425c-1.924,2.822-3.418,5.849-4.631,8.99c-0.69,1.787-0.761,3.802-1.354,5.674
			c-0.203,0.639-0.396,1.317-0.695,1.895c-0.342,0.656-0.889,1.607-1.723,1.277c-0.707-0.28-1.451-0.964-1.34-2.038
			c0.194-1.886-0.242-3.783,0.392-5.692C286.531,383.954,287.129,382.448,285.34,382.067z"/>
		<path fill-rule="evenodd" clip-rule="evenodd" fill="#BFAE76" d="M377.449,207.982c-0.632,3.531-2.077,6.538-3.315,9.581
			c-0.729,1.793-2.573,0.946-3.439-0.059c-3.379-3.918-7.712-6.434-12.169-8.823c-1.846-0.989-2.311-2.551-1.381-4.378
			c3.083-6.055,3.253-12.418,2.511-19.015c-0.409-3.638-0.129-7.36-0.04-11.042c0.02-0.801,0.518-1.649,1.498-1.832
			c0.976-0.183,1.128,0.746,1.614,1.263c5.093,5.411,6.564,12.454,8.157,19.266c0.663,2.836,1.395,5.845,1.396,8.918
			c0.001,1.61,0.358,3.618,3.031,3.443C377.246,205.179,377.147,206.948,377.449,207.982z"/>
		<path fill-rule="evenodd" clip-rule="evenodd" fill="#29251B" d="M440.169,489.462c7.025-0.476,14.051,0.267,21.076,0.003
			c1.038-0.039,2.086-0.097,3.046,0.436c1.827,1.852,1.258,4.054,0.441,5.946c-1.865,4.327-4.584,8.071-8.729,10.57
			c-2.831,1.706-5.319,0.694-6.472-1.736c-1.554-3.277-1.604-3.226-5.241-2.083c-1.845,0.579-3.706,1.122-5.591,1.547
			c-1.376,0.31-2.55-0.299-3.414-1.362c-0.805-0.991-0.56-1.982-0.002-3.093C436.979,496.314,438.55,492.876,440.169,489.462z"/>
		<path fill-rule="evenodd" clip-rule="evenodd" fill="#29251B" d="M280.699,532.093c3.994-3.055,9.118-2.909,13.518-4.789
			c2.23-0.953,4.321-2.229,6.833-1.001c1.502,2.438,0.867,5.317,1.633,7.921c0.523,1.782,0.814,3.646,1.058,5.495
			c0.154,1.177,0.008,2.276-1.294,3.019c-1.457,0.831-2.716,0.388-3.86-0.349c-1.217-0.783-2.241-1.862-3.36-2.797
			c-1.535-1.28-2.511-0.897-3.052,1.065c-0.514,1.864-1.08,3.722-1.768,5.528c-0.818,2.153-2.513,2.39-4.195,0.721
			c-1.004-0.996-1.49-2.256-1.909-3.547C283.085,539.609,281.898,535.85,280.699,532.093z"/>
		<path fill-rule="evenodd" clip-rule="evenodd" fill="#29251B" d="M128.51,507.269c5.572,3.144,11.635,5.37,16.93,9.035
			c0.018,2.895-1.861,4.792-3.964,6.081c-3.541,2.172-7.681,3.006-11.707,3.85c-2.586,0.541-4.02-1.724-3.021-4.265
			c0.274-0.7,0.799-1.292,0.729-2.149c-0.1-1.244-0.077-2.016-1.912-1.594c-1.998,0.459-4.186,0.311-6.266,0.135
			c-2.307-0.193-2.896-2.452-1.262-4.465c1.661-2.048,4.148-2.965,6.266-4.361C125.602,508.679,126.825,507.484,128.51,507.269z"/>
		<path fill-rule="evenodd" clip-rule="evenodd" fill="#29251B" d="M219.473,476.305c1.628,1.521,3.851,1.932,5.723,3.038
			c2.925,1.728,5.846,3.469,8.776,5.188c1.595,0.935,2.347,2.151,2.519,3.878c-3.633,4.724-8.845,6.441-14.389,7.323
			c-3.123,0.496-4.594-1.595-3.467-4.516c1.232-3.191,1.145-3.329-2.138-3.334c-0.525,0-1.052,0.011-1.577-0.002
			c-1.418-0.034-2.6-0.719-3.135-1.926c-0.533-1.202,0.218-2.348,1.092-3.221C215.049,480.564,217.271,478.444,219.473,476.305z"/>
		<path fill-rule="evenodd" clip-rule="evenodd" fill="none" d="M288.04,364.224c-0.339,1.556,0.5,3.278-0.675,4.715
			c-0.342-0.007-0.685-0.014-1.027-0.021c0.406-1.553-0.533-3.255,0.525-4.735C287.256,364.196,287.647,364.21,288.04,364.224z"/>
		<path fill-rule="evenodd" clip-rule="evenodd" fill="none" d="M263.267,416.772c0.128,0.138,0.257,0.274,0.386,0.413
			c-0.129,0.077-0.257,0.154-0.386,0.232C263.267,417.203,263.267,416.987,263.267,416.772z"/>
		<path fill-rule="evenodd" clip-rule="evenodd" fill="none" d="M273.266,442.035c0.129,0.138,0.258,0.274,0.387,0.412
			c-0.129,0.078-0.258,0.155-0.387,0.232C273.266,442.465,273.266,442.25,273.266,442.035z"/>
		<path fill-rule="evenodd" clip-rule="evenodd" fill="none" d="M273.792,447.824c0.129,0.138,0.258,0.275,0.387,0.413
			c-0.129,0.077-0.258,0.154-0.387,0.232C273.792,448.255,273.792,448.039,273.792,447.824z"/>
		<path fill-rule="evenodd" clip-rule="evenodd" fill="none" d="M309.727,223.152c-3.598-0.041-7.687-3.516-7.534-6.402
			c0.104-1.996,4.413-5.717,6.604-5.702c3.055,0.021,6.574,3.827,6.544,7.079C315.319,220.45,312.268,223.182,309.727,223.152z"/>
		<path fill-rule="evenodd" clip-rule="evenodd" fill="none" d="M325.884,231.047c3.57,0.006,5.835,3.867,4.204,6.753
			c-0.46,0.813-0.929,1.636-1.51,2.36c-2.359,2.943-7.4,2.917-9.627-0.015c-1.137-1.496,0.004-6.332,1.663-7.267
			C322.346,231.904,324.203,231.364,325.884,231.047z"/>
		<path fill-rule="evenodd" clip-rule="evenodd" fill="none" d="M334.295,240.698c0.01-3.685,1.944-6.065,4.847-5.965
			c2.597,0.091,7.151,3.368,7.227,5.199c0.114,2.807-3.391,5.915-6.65,5.845C335.96,245.696,333.989,244.025,334.295,240.698z"/>
		<path fill-rule="evenodd" clip-rule="evenodd" fill="none" d="M329.77,219.995c-3.599-0.019-8.098-2.561-8.101-4.577
			c-0.003-2.996,2.815-6.797,5.096-6.87c3.251-0.104,6.526,3.07,6.478,6.276C333.189,218.245,332.006,220.006,329.77,219.995z"/>
		<path fill-rule="evenodd" clip-rule="evenodd" fill="none" d="M291.569,233.157c-2.492,0.287-3.636-1.754-4.533-3.63
			c-0.826-1.729-1.224-3.564,0.63-5.387c3.176-3.124,7.065-3.438,9.644-0.35c0.218,0.262,0.494,0.514,0.605,0.819
			C298.894,227.299,294.735,233.082,291.569,233.157z"/>
		<path fill-rule="evenodd" clip-rule="evenodd" fill="none" d="M280.436,231.573c2.359,0.024,4.428,2.414,4.386,5.066
			c-0.029,1.878-3.439,5.986-4.936,5.946c-2.226-0.06-5.595-3.418-5.571-5.662C274.336,234.935,277.729,231.009,280.436,231.573z"/>
		<path fill-rule="evenodd" clip-rule="evenodd" fill="none" d="M308.188,234.202c2.702,0.043,4.211,1.548,4.511,4.146
			c0.275,2.381-2.805,5.668-5.382,5.856c-2.229,0.163-4.41-2.158-4.6-4.893C302.492,236.052,304.114,234.536,308.188,234.202z"/>
		<path fill-rule="evenodd" clip-rule="evenodd" fill="none" d="M348.225,222.626c-2.982-0.005-5.907-2.639-6.025-5.427
			c-0.077-1.84,1.857-3.479,4.154-3.518c3.449-0.059,5.836,1.877,5.835,4.731C352.188,221.165,350.81,222.63,348.225,222.626z"/>
		<path fill-rule="evenodd" clip-rule="evenodd" fill="none" d="M260.086,240.783c0.109-2.213,2.325-3.646,5.284-3.42
			c1.523,0.117,4.673,2.884,4.591,4.032c-0.123,1.704-3.503,4.436-5.42,4.38C262.788,245.725,259.996,242.598,260.086,240.783z"/>
		<path fill-rule="evenodd" clip-rule="evenodd" fill="none" d="M287.453,245.438c0.127-1.561-0.422-3.915,2.732-3.863
			c2.066,0.034,3.991,2.162,3.998,4.405c0.006,1.8-2.08,4.587-3.391,4.531C288.955,250.433,287.453,248.311,287.453,245.438z"/>
		<path fill-rule="evenodd" clip-rule="evenodd" fill="none" d="M356.289,250.011c-3.69-0.081-5.328-1.736-5.145-4.417
			c0.055-0.807,3.014-3.205,3.847-2.888c1.541,0.589,3.75,1.033,3.4,3.197C358.136,247.486,358.265,249.94,356.289,250.011z"/>
		<path fill-rule="evenodd" clip-rule="evenodd" fill="none" d="M247.509,237.825c0.017-1.794,1.077-2.805,2.619-2.462
			c1.614,0.359,4.141,0.257,4.028,2.818c-0.107,2.455-2.616,2.427-4.21,2.586C248.399,240.922,247.518,239.44,247.509,237.825z"/>
		<path fill-rule="evenodd" clip-rule="evenodd" fill="none" d="M286.391,372.872c1.15-0.655,1.214,0.305,1.021,0.875
			c-0.759,2.244-0.335,4.543-0.517,6.808c-0.064,0.81-0.018,2.132-1.573,1.29C285.944,378.886,285.354,375.782,286.391,372.872z"/>
		<path fill-rule="evenodd" clip-rule="evenodd" fill="none" d="M286.338,368.918c0.343,0.007,0.686,0.014,1.027,0.021
			c0.012,0.857,0.14,1.735,0,2.568c-0.135,0.813-0.612,0.577-0.988,0.075C286.064,370.698,285.26,369.822,286.338,368.918z"/>
		<path fill-rule="evenodd" clip-rule="evenodd" fill="none" d="M286.413,371.531c0.353,0.296,0.348,0.586-0.014,0.87
			C286.271,372.109,285.6,371.809,286.413,371.531z"/>
		<path fill-rule="evenodd" clip-rule="evenodd" fill="none" d="M164.215,84.417c-0.873,0.655-1.697,0.89-2.671,0.872
			c-1.098-0.021-1.73,0.727-1.959,1.738c-0.261,1.158,0.407,1.734,1.429,2.101c3.677,1.318,6.971,3.399,10.418,5.241
			c-1.326,1.449-3.015,0.852-4.528,0.849c-1.228-0.002-2.127,0.456-2.511,1.466c-0.341,0.897-0.104,1.729,1.002,2.35
			c0.8,0.449,1.183,1.656,2.251,1.88c0.954,0.2,1.312,1.024,1.099,1.604c-0.344,0.943-1.301,1.437-2.361,1.117
			c-0.461-0.139-0.847-0.576-1.229-0.92c-4.861-4.369-10.238-8.271-14.079-13.615c-4.341-6.04-6.923-12.769-8.011-20.307
			c-0.834-5.771-1.337-11.476-1.436-17.28c-0.134-7.9,2.255-15.101,5.606-22.071c1.186-2.465,3.65-2.532,4.889,0.021
			c1.166,2.405,2.169,4.877,2.831,7.574c1.59,6.479,3.305,12.945,5.357,19.315c1.684,5.223,2.97,10.576,4.353,15.892
			c0.346,1.331-0.45,1.175-1.456,0.96c-2.68-0.571-5.048-1.942-7.612-2.806c-1.244-0.418-2.54-0.911-3.212,0.371
			c-0.64,1.219,0.679,1.916,1.45,2.817C157.084,77.381,160.725,80.795,164.215,84.417z"/>
		<path fill-rule="evenodd" clip-rule="evenodd" fill="none" d="M238.025,99.525c0.696-2.658,1.017-4.438-1.494-5.335
			c-1.628-0.582-0.146-1.311,0.223-1.587c1.875-1.407,3.076-3.466,4.876-4.912c1.369-1.1,2.125-2.489,1.52-4.079
			c-0.615-1.615-2.328-1.523-4.492-1.548c2.904-2.187,4.328-5.099,7.059-6.784c1.669-1.031,1.564-2.774,0.951-4.074
			c-0.509-1.08-1.726-1.509-3.18-0.353c-1.248,0.993-3.044,1.299-5.328,2.194c2.04-2.798,3.576-4.986,5.204-7.104
			c0.86-1.119,1.21-2.388,0.871-3.644c-0.353-1.308-1.074-2.37-2.823-1.311c-1.435,0.869-3.04,1.457-4.863,2.307
			c-0.278-2.885,1.134-5.199,1.822-7.606c2.565-8.981,6.83-17.288,10.797-25.689c0.727-1.538,1.788-3.195,3.093-4.476
			c0.41-0.401,0.307-1.802,1.271-1.133c0.663,0.46,1.56,0.704,1.874,1.874c3.081,11.449,2.048,23.138,1.974,34.737
			c-0.064,10.03-3.955,18.864-10.054,26.737c-2.566,3.313-4.51,7.082-7.464,10.104C239.449,98.267,238.993,98.644,238.025,99.525z"
			/>
		<path fill-rule="evenodd" clip-rule="evenodd" fill="#29251B" d="M207.658,167.88c4.308-0.208,7.511,1.853,10.3,4.171
			c1.638,1.362,2.17,4.032,1.348,6.258c-0.877,2.376-2.295,4.569-5.219,4.807c-0.981,0.079-1.905,0.189-2.718,0.707
			c-0.932,0.592-1.579,1.259-0.771,2.52c1.388,2.166,0.254,3.987-1.44,5.101c-2.822,1.856-6.273,1.523-7.619-0.274
			c-0.722-0.963-0.341-2.026-0.381-3.039c-0.138-3.464-0.62-3.855-3.946-2.996c-2.786,0.719-5.696-2.93-4.982-6.246
			c1.164-5.399,5.972-9.663,11.646-10.516C205.243,168.166,206.571,167.736,207.658,167.88z"/>
		<path fill-rule="evenodd" clip-rule="evenodd" fill="#29251B" d="M211.619,150.575c0.329-4.008,1.508-7.567,4.708-10.397
			c1.055-0.932,1.938-2.104,3.112-2.996c2.584-1.963,6.863-2.736,8.955-1.149c2.429,1.843,2.688,4.717,2.129,7.383
			c-0.789,3.758-2.19,7.322-4.539,10.507c-1.655,2.245-2.573,4.965-5.785,5.781c-3.777,0.959-6.234-0.153-7.51-3.819
			C212.093,154.167,211.379,152.491,211.619,150.575z"/>
		<path fill-rule="evenodd" clip-rule="evenodd" fill="#29251B" d="M195.336,152.16c0,1.138,0.147,2.301-0.028,3.411
			c-0.527,3.335-4.017,5.375-7.171,3.627c-5.441-3.016-10.343-6.606-10.799-13.844c-0.17-2.679-0.097-4.944,1.203-7.342
			c1.053-1.941,2.578-1.979,4.156-1.632C190.844,138.176,195.351,143.869,195.336,152.16z"/>
		<circle fill-rule="evenodd" clip-rule="evenodd" fill="#E5E2D3" cx="190.036" cy="145.728" r="3.25"/>
		<circle fill-rule="evenodd" clip-rule="evenodd" fill="#E5E2D3" cx="226" cy="145.728" r="3.25"/>
		<circle fill-rule="evenodd" clip-rule="evenodd" fill="#E5E2D3" cx="213" cy="173.728" r="3.25"/>
	</g>
</g>
</svg>
