<?xml version="1.0" encoding="utf-8"?>
<!-- Generator: Adobe Illustrator 16.0.0, SVG Export Plug-In . SVG Version: 6.00 Build 0)  -->
<!DOCTYPE svg PUBLIC "-//W3C//DTD SVG 1.1//EN" "http://www.w3.org/Graphics/SVG/1.1/DTD/svg11.dtd">
<svg version="1.1" xmlns="http://www.w3.org/2000/svg" xmlns:xlink="http://www.w3.org/1999/xlink" x="0px" y="0px"
	 width="566.93px" height="566.93px" viewBox="0 0 566.93 566.93" enable-background="new 0 0 566.93 566.93" xml:space="preserve">
<g id="fond" display="none">
	
		<rect x="-8889.913" y="-7591.898" display="inline" fill-rule="evenodd" clip-rule="evenodd" fill="#58595B" width="15942.492" height="15814.695"/>
</g>
<g id="en_cours">
</g>
<g id="fini">
	<g>
		<path fill-rule="evenodd" clip-rule="evenodd" fill="#BFAE76" d="M498.052,357.177c-0.717,4.522-1.341,9.063-2.175,13.564
			c-1.097,5.925-2.929,11.773-3.401,17.738c-0.578,7.257-2.165,14.869-7.271,19.124c-7.235,6.029-6.739,15.139-11.704,21.723
			c-0.382,0.508-0.878,0.932-2.786,1.354c-0.047-2.764-0.192-5.53-0.109-8.289c0.066-2.221,0.952-4.772-2.83-4.497
			c1.346-5.929,2.899-11.82,3.981-17.798c1.19-6.571,2.106-13.204,2.823-19.845c0.34-3.148,0.588-5.625,4.504-6.385
			c1.723-0.334,3.187-2.262,4.656-3.59C488.538,365.941,493.285,361.548,498.052,357.177z"/>
		<path fill-rule="evenodd" clip-rule="evenodd" fill="#29251B" d="M509.655,299.593c-2.575-10.429-7.857-19.524-14.549-27.846
			c-0.387-0.288-0.766-0.585-1.16-0.861c-3.097-2.164-6.84-4.793-10.082-2.417c-2.021,1.482-2.323,5.662-2.864,8.725
			c-0.68,3.843-0.94,7.774-1.138,11.68c-0.128,2.508,0.184,5.037,0.287,7.307c-1.174,1.321-2.335,2.627-3.495,3.934
			c0,0.399,0,0.801,0,1.2c-1.993,5.724-3.988,11.448-6.183,17.75c-1.043-21.43,2.536-42.21-0.34-63.138
			c-5.284,0.457-6.21,4.349-8.187,7.078c-0.733,1.013-0.959,2.581-1.885,3.227c-1.97,1.376-4.245,2.316-6.395,3.434
			c-0.518-2.236-1.611-4.515-1.452-6.702c0.741-10.132,2.231-20.222,2.695-30.361c0.602-13.126-5.961-24.369-10.61-36.077
			c-1.277-3.215-3.229-3.11-5.038-0.769c-3.624,4.69-6.856,9.686-10.532,14.332c-1.011,1.278-3.017,1.768-4.566,2.619
			c-0.521-1.434-1.231-2.829-1.526-4.307c-1.519-7.634-2.948-15.287-4.372-22.94c-0.607-3.26-1.124-6.537-1.967-11.474
			c-9.426,7.779-17.923,14.793-27.302,22.533c-5.896-12.776-11.307-24.502-17.001-36.843c-7.825,9.029-15.917,18.367-24.51,28.282
			c-3.878-5.521-7.463-10.401-10.806-15.441c-3.89-5.867-7.47-11.941-11.386-17.79c-1.604-2.396-3.132-3.376-5.031,0.407
			c-6.168,12.283-12.808,24.329-19.154,36.524c-1.893,3.638-3.419,7.467-5.23,11.468c-15.172-13.534-27.628-28.623-37.097-47.376
			c-4.778,5.609-9.021,10.504-13.17,15.477c-6.455,7.738-12.922,15.469-19.232,23.325c-2.585,3.218-4.929,2.868-7.721,0.43
			c-6.984-6.101-14.036-12.125-21.632-18.673c-2.691,4.689-5.15,9.677-8.262,14.218c-4.079,5.954-8.47,11.727-13.114,17.252
			c-3.332,3.964-6.761,3.064-9.325-1.672c-0.827-1.529-2.297-2.709-3.473-4.049c-1.127,1.255-2.668,2.328-3.312,3.795
			c-3.339,7.608-6.229,15.418-9.697,22.963c-3.612,7.859-3.822,7.763-12.005,6.82c0,3.619,0.112,7.199-0.025,10.769
			c-0.236,6.158-0.888,12.309-0.884,18.463c0.003,6.317,0.781,12.633,0.799,18.951c0.007,2.166-1.259,4.336-1.943,6.503
			c-2.062-1.218-4.124-2.436-6.185-3.655c-0.396-0.233-0.783-0.478-1.703-1.041c-0.814,14.175-1.605,27.954-2.48,43.185
			c-1.789-1.877-3.523-2.971-4.148-4.514c-1.064-2.629-1.226-5.613-2.184-8.299c-0.442-1.239-1.869-2.126-2.85-3.173
			c-3.56,3.426-7.12,6.851-10.422,10.028c-0.454-4.84,4.769-13.203,10.259-15.757c0.055-4.572,0.593-9.212-0.028-13.691
			c-0.343-2.469-2.15-5.46-4.211-6.71c-1.396-0.846-4.461,0.729-6.63,1.598c-1.681,0.674-3.128,1.932-4.68,2.93
			c-7.32,8.994-11.603,19.349-13.852,30.647c-0.146,0.733-0.46,3.981-0.46,4.964c0,1.637-0.167,5.363-0.167,7
			c0,3.602,1.372,14.307,1.605,17.238c1.281,16.122,7.688,30.222,17.694,42.45c4.062,4.965,10.464,8.013,15.801,11.934
			c2.965-0.561,5.914-1.368,8.901-1.555c1.124-0.07,2.941,1.023,3.411,2.056c2.528,5.556,4.374,11.442,7.151,16.857
			c2.605,5.081,6.105,9.701,9.148,14.563c0.867,1.386,1.614,2.868,2.238,4.381c1.187,2.873,2.243,5.8,3.354,8.704
			c3.793,6.522,7.207,13.307,11.482,19.497c4.616,6.686,9.859,12.967,15.149,19.151c7.65,8.943,15.305,17.917,23.47,26.383
			c12.832,13.306,28.47,22.89,44.526,31.734c2.658,1.465,6.128,1.397,9.16,2.257c6.479,1.837,12.84,4.153,19.394,5.637
			c5.556,1.258,11.316,1.604,16.977,2.416c0.504,0.073,0.939,0.616,1.407,0.94c9.492,0,18.984,0,28.477,0
			c3.552-0.971,7.098-1.961,10.655-2.91c9.87-2.632,20.105-4.355,29.512-8.14c8.216-3.304,15.855-8.428,23.102-13.647
			c8.168-5.884,16.321-12.102,23.224-19.367c14.271-15.021,26.67-31.593,36.518-49.931c4.231-7.881,8.86-15.607,12.327-23.818
			c2.788-6.606,4.089-13.838,6.083-20.783c0.201-0.697,0.637-1.326,0.964-1.987c1.346-5.929,1.909-6.888,2.991-12.865
			c1.19-6.571,1.821-4.004,2.538-10.645c0.34-3.148,0.588-5.625,4.504-6.385c1.723-0.334,5.016-1.172,6.485-2.5
			c4.798-4.336,7.833-8.167,12.833-15.167c3.996-6.915,10.987-26.346,12.603-34.005C511.96,325.75,510.407,302.64,509.655,299.593z
			 M162.046,255.033c-1.566,0.064-3.144-0.126-6.383-0.277c1.681-1.923,2.269-3.238,3.164-3.5c3.053-0.896,6.196-1.532,9.34-2.065
			c9.918-1.681,19.85-3.277,29.779-4.878c0.799-0.129,1.633-0.03,2.449-0.063c15.892-0.652,31.785-1.275,47.673-2.023
			c1.319-0.063,2.574-1.323,3.903-1.419c1.644-0.119,3.541,0.025,4.919,0.792c0.718,0.399,0.814,2.397,0.734,3.644
			c-0.134,2.061-0.448,4.156-1.039,6.13c-0.617,2.058-1.727,3.232-4.47,3.196c-23.22-0.308-46.442-0.445-69.664-0.446
			C175.65,254.122,168.85,254.753,162.046,255.033z M238.935,353.371c-7.12,3.442-14.394,5.072-22.076,4.52
			c-5.143-0.371-10.183-1.997-15.32-2.663c-10.852-1.408-20.552-5.633-29.6-11.558c-1.775-1.162-3.356-2.622-5.026-3.944
			c0.347-0.637,0.693-1.274,1.041-1.912c2.587,0.92,5.238,1.694,7.749,2.793c4.1,1.794,8.229,5.498,12.121,5.224
			c3.707-0.263,5.834,1.194,8.578,2.357c2.519,1.066,5.046,2.232,7.688,2.836c1.577,0.359,3.395-0.515,5.085-0.435
			c16.828,0.795,32.107-3.403,45.678-13.615c2.982-2.245,6.32-4.096,9.691-5.717c2.23-1.073,3.336,0.069,2.297,2.456
			c-0.677,1.554-1.424,3.175-2.522,4.431C257.499,345.941,247.897,349.039,238.935,353.371z M419.438,343.018
			c-19.474,18.967-41.798,19.204-65.478,9.808c-10.357-4.109-19.473-12.667-19.514-19.05c1.954,1.364,3.674,2.072,4.685,3.344
			c9.396,11.827,22.455,16.354,36.681,17.99c11.322,1.303,22.168-1.274,32.286-6.525c3.605-1.871,7.01-4.133,10.505-6.215
			c0.577-0.229,1.155-0.457,1.733-0.685C420.037,342.129,419.737,342.573,419.438,343.018z M412.896,257.058c-0.4,0-0.801,0-1.201,0
			c-1.555-0.015-3.11-0.029-4.666-0.044c-0.409,0.015-0.818,0.03-1.228,0.045c-4.931-0.204-9.86-0.505-14.794-0.589
			c-7.078-0.121-14.159-0.145-21.238-0.096c-5.496,0.038-10.992,0.167-16.482,0.411c-3.442,0.153-6.893,0.457-10.301,0.954
			c-2.618,0.381-5.176,1.172-8.145,1.871c-0.939-3.495-2.165-6.343-2.281-9.235c-0.054-1.34,2.084-3.984,3.176-3.957
			c7.199,0.179,14.379,0.973,21.572,1.463c3.266,0.222,6.547,0.179,9.819,0.301c8.428,0.314,16.868,0.451,25.278,1.03
			c11.546,0.795,23.075,1.857,34.592,2.999c1.894,0.188,3.688,1.369,6.835,2.605C426.209,259.016,419.604,258.508,412.896,257.058z"
			/>
		<path fill-rule="evenodd" clip-rule="evenodd" fill="#BFAE76" d="M155.663,254.756c1.681-1.923,2.269-3.238,3.164-3.5
			c3.053-0.896,6.196-1.532,9.34-2.065c9.918-1.681,19.85-3.277,29.779-4.878c0.799-0.129,1.633-0.03,2.449-0.063
			c15.892-0.652,31.785-1.275,47.673-2.023c1.319-0.063,2.574-1.323,3.903-1.419c1.644-0.119,3.541,0.025,4.919,0.792
			c0.718,0.399,0.814,2.397,0.734,3.644c-0.134,2.061-0.448,4.156-1.039,6.13c-0.617,2.058-1.727,3.232-4.47,3.196
			c-23.22-0.308-46.442-0.445-69.664-0.446c-6.802,0-13.603,0.631-20.406,0.912C160.479,255.097,158.902,254.907,155.663,254.756z"
			/>
		<path fill-rule="evenodd" clip-rule="evenodd" fill="#BFAE76" d="M411.694,257.058c-1.555-0.015-3.11-0.029-4.667-0.044
			c-0.409,0.015-0.817,0.03-1.227,0.045c-4.931-0.204-9.86-0.505-14.794-0.589c-7.078-0.121-14.159-0.145-21.238-0.096
			c-5.496,0.038-10.992,0.167-16.482,0.411c-3.442,0.153-6.893,0.457-10.301,0.954c-2.618,0.381-5.176,1.172-8.145,1.871
			c-0.939-3.495-2.165-6.343-2.281-9.235c-0.054-1.34,2.084-3.984,3.176-3.957c7.199,0.179,14.379,0.973,21.572,1.463
			c3.266,0.222,6.547,0.179,9.819,0.301c8.428,0.314,16.868,0.451,25.278,1.03c11.546,0.795,23.075,1.857,34.592,2.999
			c1.894,0.188,3.688,1.369,6.835,2.605c-7.623,4.202-14.228,3.694-20.937,2.244C412.494,257.058,412.095,257.058,411.694,257.058z"
			/>
		<path fill-rule="evenodd" clip-rule="evenodd" fill="#E5E2D3" d="M167.953,337.813c2.587,0.92,5.238,1.694,7.749,2.793
			c4.1,1.794,8.229,5.498,12.121,5.224c3.707-0.263,5.834,1.194,8.578,2.357c2.519,1.066,5.046,2.232,7.688,2.836
			c1.577,0.359,3.395-0.515,5.085-0.435c16.828,0.795,32.107-3.403,45.678-13.615c2.982-2.245,6.32-4.096,9.691-5.717
			c2.23-1.073,3.336,0.069,2.297,2.456c-0.677,1.554-1.424,3.175-2.522,4.431c-6.819,7.798-16.421,10.896-25.384,15.228
			c-7.12,3.442-14.394,5.072-22.076,4.52c-5.143-0.371-10.183-1.997-15.32-2.663c-10.852-1.408-20.552-5.633-29.6-11.558
			c-1.775-1.162-3.356-2.622-5.026-3.944C167.259,339.089,167.605,338.451,167.953,337.813z"/>
		<path fill-rule="evenodd" clip-rule="evenodd" fill="#BFAE76" d="M155.35,450.463c-3.958-3.075-3.442,2.496-6.36,3.063
			c-2.842-5.486-6.164-11.002-8.615-16.881c-2.479-5.944-5.34-6.454-9.698-2.458c-3.147-9.485-6.34-19.107-9.531-28.73
			c2.965-0.561,5.914-1.368,8.901-1.555c1.124-0.07,2.941,1.023,3.411,2.056c2.528,5.556,4.374,11.442,7.151,16.857
			c2.605,5.081,6.105,9.701,9.148,14.563c0.867,1.386,1.614,2.868,2.238,4.381C153.182,444.632,154.238,447.559,155.35,450.463z"/>
		<path fill-rule="evenodd" clip-rule="evenodd" fill="#E5E2D3" d="M302.788,488.878c10.362,0,20.725-0.031,31.086,0.065
			c0.75,0.008,1.491,0.955,2.235,1.465c-1.078,1.411-1.947,3.754-3.276,4.054c-3.726,0.842-7.64,1.097-11.482,1.126
			c-15.036,0.111-30.074,0.058-45.11,0.03c-2.171-0.004-4.914,0.714-4.883-2.964c0.03-3.685,2.804-2.885,4.948-2.895
			c8.825-0.045,17.651-0.019,26.478-0.019C302.785,489.453,302.786,489.166,302.788,488.878z"/>
		<path fill-rule="evenodd" clip-rule="evenodd" fill="#E5E2D3" d="M419.438,343.018c-19.474,18.967-41.798,19.204-65.478,9.808
			c-10.357-4.109-19.473-12.667-19.514-19.05c1.954,1.364,3.674,2.072,4.685,3.344c9.396,11.827,22.455,16.354,36.681,17.99
			c11.322,1.303,22.168-1.274,32.286-6.525c3.605-1.871,7.01-4.133,10.505-6.215C418.882,342.586,419.16,342.801,419.438,343.018z"
			/>
		<path fill-rule="evenodd" clip-rule="evenodd" fill="#E5E2D3" d="M292.905,446.434c-5.731,0.544-10.622-1.337-14.624-4.695
			c-1.813-1.52-2.343-4.638-3.236-7.108c-0.139-0.384,0.811-1.608,1.394-1.72c1.418-0.268,2.916-0.121,4.381-0.121
			C293.615,432.783,293.615,432.784,292.905,446.434z"/>
		<path fill-rule="evenodd" clip-rule="evenodd" fill="#E5E2D3" d="M308.279,446.434c5.731,0.544,10.622-1.337,14.624-4.695
			c1.813-1.52,2.343-4.638,3.236-7.108c0.139-0.384-0.811-1.608-1.394-1.72c-1.418-0.268-2.916-0.121-4.381-0.121
			C307.569,432.783,307.569,432.784,308.279,446.434z"/>
		<path fill-rule="evenodd" clip-rule="evenodd" fill="#E5E2D3" d="M116.071,307.097c0.055,1.909,0.108,3.819,0.163,5.729
			c-3.56,3.426-7.12,6.851-10.422,10.028C105.358,318.014,110.581,309.65,116.071,307.097z"/>
		<path fill-rule="evenodd" clip-rule="evenodd" fill="#E5E2D3" d="M477.984,291.096c-0.055,1.909-0.108,3.819-0.163,5.728
			c3.56,3.426,7.12,6.851,10.422,10.028C488.697,302.012,483.475,293.649,477.984,291.096z"/>
		<path fill-rule="evenodd" clip-rule="evenodd" fill="#E5E2D3" d="M418.604,342.369c0.577-0.229,1.155-0.457,1.733-0.685
			c-0.3,0.444-0.6,0.889-0.898,1.333C419.16,342.801,418.882,342.586,418.604,342.369z"/>
		<path fill-rule="evenodd" clip-rule="evenodd" fill="#BFAE76" d="M405.801,257.059c0.409-0.015,0.817-0.03,1.227-0.045
			C406.619,257.029,406.21,257.044,405.801,257.059z"/>
		<path fill-rule="evenodd" clip-rule="evenodd" fill="#BFAE76" d="M411.694,257.058c0.4,0,0.8,0,1.201,0
			C412.495,257.058,412.095,257.058,411.694,257.058z"/>
		<path fill-rule="evenodd" clip-rule="evenodd" fill="#BFAE76" d="M476.654,301.314c0-0.399,0-0.8,0-1.2
			C476.654,300.514,476.654,300.915,476.654,301.314z"/>
		<g>
			<path fill-rule="evenodd" clip-rule="evenodd" fill="#FFFFFF" d="M336.774,293.607c0,22.184,17.984,40.168,40.169,40.168
				c22.184,0,40.168-17.984,40.168-40.168H336.774z"/>
			<path fill-rule="evenodd" clip-rule="evenodd" fill="#BFAE76" d="M352.235,293.607c0,13.645,11.063,24.707,24.708,24.707
				c13.646,0,24.707-11.063,24.707-24.707H352.235z"/>
			<path fill-rule="evenodd" clip-rule="evenodd" fill="#29251B" d="M367.945,293.607c0,4.969,4.028,8.997,8.997,8.997
				s8.998-4.028,8.998-8.997H367.945z"/>
		</g>
		<g>
			<path fill-rule="evenodd" clip-rule="evenodd" fill="#FFFFFF" d="M178.905,295.607c0,22.184,17.984,40.168,40.169,40.168
				c22.184,0,40.168-17.984,40.168-40.168H178.905z"/>
			<path fill-rule="evenodd" clip-rule="evenodd" fill="#BFAE76" d="M194.366,295.607c0,13.645,11.063,24.707,24.708,24.707
				c13.646,0,24.707-11.063,24.707-24.707H194.366z"/>
			<path fill-rule="evenodd" clip-rule="evenodd" fill="#29251B" d="M210.076,295.607c0,4.969,4.028,8.997,8.997,8.997
				s8.998-4.028,8.998-8.997H210.076z"/>
		</g>
		<path fill-rule="evenodd" clip-rule="evenodd" fill="#BFAE76" d="M100.522,291.223c0.001-7.24-0.455-14.517,0.113-21.711
			c0.756-9.556,2.3-19.05,3.526-28.567c1.063-8.246,1.846-16.543,3.31-24.718c1.983-11.078,3.779-22.273,6.964-33.031
			c4.17-14.086,8.915-28.102,14.804-41.538c3.07-7.006,9.098-12.725,13.833-18.993c13.796-18.262,31.229-32.677,48.799-47.097
			c15.075-12.374,32.952-18.799,50.357-26.394c0.992-0.434,2.192-0.39,3.526-0.605c-2.3-5.703-4.56-11.305-7.253-17.981
			c15.124,3.221,29.416,9.087,44.892,2.667c-3.338-7.67-6.768-15.551-10.795-24.803c17.717,8.52,34.76,16.347,47.521,31.508
			c2.834-4.831,1.896-10.873,7.047-12.151c8.939,9.926,16.095,20.426,30.006,24.361c26.677,7.546,48.318,23.603,66.833,43.848
			c9.688,10.595,19.121,21.492,27.808,32.909c5.316,6.987,9.055,15.186,13.393,22.902c3.631,6.458,7.633,12.781,10.507,19.571
			c3.164,7.478,5.425,15.363,7.724,23.176c2.912,9.884,5.839,19.791,8.067,29.841c2.197,9.91,5.315,19.764,3.908,30.215
			c-0.333,2.483,0.56,5.107,0.508,7.66c-0.063,3.156-0.524,6.303-0.813,9.454c-0.387-0.288-0.766-0.585-1.16-0.861
			c-3.097-2.164-6.84-4.793-10.082-2.417c-2.021,1.482-2.323,5.662-2.864,8.725c-0.68,3.843-0.94,7.774-1.138,11.68
			c-0.128,2.508,0.184,5.037,0.287,7.307c-1.174,1.321-2.335,2.627-3.495,3.934c0,0.4,0,0.801,0,1.2
			c-1.993,5.724-3.988,11.448-6.183,17.75c-1.043-21.43,2.536-42.21-0.34-63.138c-5.284,0.457-6.21,4.349-8.187,7.078
			c-0.733,1.013-0.959,2.581-1.885,3.227c-1.97,1.376-4.245,2.316-6.395,3.434c-0.518-2.236-1.611-4.515-1.452-6.702
			c0.741-10.132,2.231-20.222,2.695-30.361c0.602-13.126-5.961-24.369-10.61-36.077c-1.277-3.215-3.229-3.11-5.038-0.769
			c-3.624,4.69-6.856,9.686-10.532,14.332c-1.011,1.278-3.017,1.768-4.566,2.619c-0.521-1.434-1.231-2.829-1.526-4.307
			c-1.519-7.634-2.948-15.287-4.372-22.94c-0.607-3.26-1.124-6.537-1.967-11.474c-9.426,7.779-17.923,14.793-27.302,22.533
			c-5.896-12.776-11.307-24.502-17.001-36.843c-7.825,9.029-15.917,18.367-24.51,28.282c-3.878-5.521-7.463-10.401-10.806-15.441
			c-3.89-5.867-7.47-11.941-11.386-17.79c-1.604-2.396-3.132-3.376-5.031,0.407c-6.168,12.283-12.808,24.329-19.154,36.524
			c-1.893,3.638-3.419,7.467-5.23,11.468c-15.172-13.534-27.628-28.623-37.097-47.376c-4.778,5.609-9.021,10.504-13.17,15.477
			c-6.455,7.738-12.922,15.469-19.232,23.325c-2.585,3.218-4.929,2.868-7.721,0.43c-6.984-6.101-14.036-12.125-21.632-18.673
			c-2.691,4.689-5.15,9.677-8.262,14.218c-4.079,5.954-8.47,11.727-13.114,17.252c-3.332,3.964-6.761,3.064-9.325-1.672
			c-0.827-1.529-2.297-2.709-3.473-4.049c-1.127,1.255-2.668,2.328-3.312,3.795c-3.339,7.608-6.229,15.418-9.697,22.963
			c-3.612,7.859-3.822,7.763-12.005,6.82c0,3.619,0.112,7.199-0.025,10.769c-0.236,6.158-0.888,12.309-0.884,18.463
			c0.003,6.317,0.781,12.633,0.799,18.951c0.007,2.166-1.259,4.336-1.943,6.503c-2.062-1.218-4.124-2.436-6.185-3.655
			c-0.396-0.233-0.783-0.478-1.703-1.041c-0.814,14.175-1.605,27.954-2.48,43.185c-1.789-1.877-3.523-2.971-4.148-4.514
			c-1.064-2.629-1.226-5.613-2.184-8.299c-0.442-1.239-1.869-2.126-2.85-3.173c-0.055-1.909-0.108-3.819-0.163-5.729
			c0.055-4.572,0.593-9.212-0.028-13.691c-0.343-2.469-2.15-5.46-4.211-6.71c-1.396-0.846-4.461,0.729-6.63,1.598
			C103.521,288.967,102.074,290.225,100.522,291.223z"/>
	</g>
</g>
</svg>
