<?xml version="1.0" encoding="utf-8"?>
<!-- Generator: Adobe Illustrator 16.0.0, SVG Export Plug-In . SVG Version: 6.00 Build 0)  -->
<!DOCTYPE svg PUBLIC "-//W3C//DTD SVG 1.1//EN" "http://www.w3.org/Graphics/SVG/1.1/DTD/svg11.dtd">
<svg version="1.1" xmlns="http://www.w3.org/2000/svg" xmlns:xlink="http://www.w3.org/1999/xlink" x="0px" y="0px"
	 width="566.93px" height="566.93px" viewBox="0 0 566.93 566.93" enable-background="new 0 0 566.93 566.93" xml:space="preserve">
<g id="fond" display="none">
	
		<rect x="-7607.873" y="-8861.898" display="inline" fill-rule="evenodd" clip-rule="evenodd" fill="#58595B" width="15942.492" height="15814.695"/>
</g>
<g id="en_cours">
	<path fill-rule="evenodd" clip-rule="evenodd" fill="none" d="M190.913,8.045c-4.556,1.471-9.032,3.299-13.684,4.347
		c-14.107,3.18-24.676,10.949-32.038,23.357c-4.537,7.647-10.295,14.714-13.829,22.776c-4.169,9.516-6.521,19.825-9.699,29.779
		c-0.142,0.441-0.659,0.764-1.001,1.142c0-27.034,0-54.069,0-81.401C144.079,8.045,167.496,8.045,190.913,8.045z"/>
</g>
<g id="fini">
	<g>
		<g>
			<path fill-rule="evenodd" clip-rule="evenodd" fill="#29251B" d="M169.393,8.045c4.719,1.523,10.261,1.975,13.968,4.817
				c6.103,4.682,11.967,10.271,16.244,16.617c10.504,15.586,17.354,32.924,21.501,51.306c1.276,5.656,4.358,11.288,4.118,16.824
				c-0.573,13.215-2.661,26.36-4.079,39.54c-0.681,6.324-1.421,12.65-1.793,18.996c-0.612,10.439-1.673,20.929-1.178,31.333
				c0.433,9.074,2.413,18.134,4.382,27.051c1.02,4.624,0.495,6.453-4.345,8.529c-12.987,5.569-25.579,12.09-38.179,18.526
				c-9.52,4.861-18.737,10.316-28.235,15.223c-4.313,2.229-8.954,3.843-13.498,5.599c-3.857,1.489-7.193-0.493-8.504-5.393
				c-5.065-18.931-9.914-37.923-14.994-56.851c-1.971-7.35-4.595-14.527-6.474-21.897c-2.529-9.924-4.602-19.963-6.913-29.942
				c-1.495-6.455-3.066-12.893-4.603-19.338c-0.749-11.498-1.497-22.997-2.246-34.495c0.317-0.399,0.812-0.753,0.924-1.204
				c2.524-10.14,4.202-20.58,7.744-30.347c3.002-8.275,8.289-15.701,12.319-23.626c6.54-12.861,16.581-21.301,30.453-25.39
				c4.574-1.349,8.921-3.464,13.372-5.227C162.716,8.479,166.054,8.262,169.393,8.045z"/>
			<path fill-rule="evenodd" clip-rule="evenodd" fill="#29251B" d="M242.263,287.103c0.52,7.989,1.81,14.023,1.129,19.825
				c-2.42,20.622-19.974,39.357-39.407,44.198c-10.753,2.68-19.637-2.086-26.848-8.742c-13.522-12.488-23.167-27.948-30.216-44.976
				c-1.314-3.175-2.431-6.451-4.002-9.494c-2.739-5.309-0.961-9.532,3.497-12.277c10.677-6.575,21.568-12.816,32.525-18.92
				c7.125-3.97,14.334-7.898,21.844-11.035c6.48-2.706,13.354-4.625,20.208-6.238c8.08-1.901,9.77-0.874,12.328,6.828
				C237.952,260.214,243.313,274.036,242.263,287.103z"/>
		</g>
		<g>
			<path fill-rule="evenodd" clip-rule="evenodd" fill="#29251B" d="M479.045,337.572c-1.469,5.901-2.99,11.79-4.395,17.708
				c-3.583,15.094-7.091,30.207-10.675,45.303c-2.896,12.2-5.666,24.438-8.855,36.563c-2.628,9.999-5.607,19.916-8.787,29.755
				c-1.598,4.945-4.75,5.698-9.602,3.373c-23.353-11.188-46.738-22.31-70.113-33.45c-3.591-1.714-7.461-3.028-10.681-5.273
				c-1.561-1.09-3.053-4.183-2.638-5.899c3.224-13.274,5.366-26.623,4.441-40.32c-0.638-9.445-1.243-18.9-2.22-28.316
				c-1.667-16.085-4.758-32.126-5.014-48.221c-0.152-9.526,3.336-19.334,6.367-28.634c3.465-10.636,7.54-21.201,12.638-31.138
				c5.112-9.962,10.986-19.859,20.714-26.283c10.385-6.86,21.434-6.708,32.947-2.672c10.027,3.518,19.772,7.307,27.243,15.236
				c2.358,2.504,4.921,4.979,6.613,7.913c5.448,9.455,11.485,18.74,15.477,28.812c3.755,9.471,5.189,19.86,7.683,29.836
				c0.113,0.45,0.612,0.803,0.933,1.203C480.43,314.568,479.737,326.069,479.045,337.572z"/>
			<path fill-rule="evenodd" clip-rule="evenodd" fill="#29251B" d="M333.918,498.341c-0.388-16.407,5.183-31.386,10.829-46.372
				c1.443-3.828,4.557-5.103,7.604-4.098c11.819,3.895,23.794,7.604,35.067,12.784c12.531,5.759,24.379,13.012,36.479,19.695
				c2.533,1.399,5.104,2.894,7.246,4.804c3.337,2.977,4.594,6.174,2.773,11.178c-6.798,18.662-16.103,35.999-29.368,50.578
				c-12.712,13.971-28.181,20.122-47.344,6.033c-12.315-9.055-21.216-19.979-23.394-35.259
				C332.914,511.369,333.828,504.796,333.918,498.341z"/>
		</g>
	</g>
</g>
</svg>
