<?xml version="1.0" encoding="utf-8"?>
<!-- Generator: Adobe Illustrator 16.0.0, SVG Export Plug-In . SVG Version: 6.00 Build 0)  -->
<!DOCTYPE svg PUBLIC "-//W3C//DTD SVG 1.1//EN" "http://www.w3.org/Graphics/SVG/1.1/DTD/svg11.dtd">
<svg version="1.1" xmlns="http://www.w3.org/2000/svg" xmlns:xlink="http://www.w3.org/1999/xlink" x="0px" y="0px"
	 width="566.93px" height="566.93px" viewBox="0 0 566.93 566.93" enable-background="new 0 0 566.93 566.93" xml:space="preserve">
<g id="fond" display="none">
	
		<rect x="-8643.873" y="-10462.046" display="inline" fill-rule="evenodd" clip-rule="evenodd" fill="#58595B" width="16654.492" height="16572.797"/>
</g>
<g id="en_cours">
</g>
<g id="fini">
	<g>
		<g>
			
				<path fill="#E5E2D3" stroke="#000000" stroke-width="8" stroke-linecap="round" stroke-linejoin="round" stroke-miterlimit="10" d="
				M210.137,400.354c-1.87,0.729-3.749,1.46-5.626,2.188c1.428-7.127,3.38-15.645,6.034-25.781
				c8.923-34.066-1.777-72.721-16.581-108.884L85.709,308.054c2.447,5.849,11.5,13.521,13.457,19.096
				c7.378,21.017,12.762,23.011,12.638,24.035c-8.224,31.438-14.631,63.035-12.638,90.633l92.231-9.098l7.838,79.459
				c15.998-4.349,32.182-10.648,47.924-16.78c13.372-5.209,26.003-10.129,37.163-13.364c4.559-1.322,8.05-2.11,10.68-2.584
				l-10.027-101.661C259.973,380.95,234.783,390.754,210.137,400.354z"/>
			
				<path fill="#564432" stroke="#000000" stroke-width="8" stroke-linecap="round" stroke-linejoin="round" stroke-miterlimit="10" d="
				M176.048,216.759L62.209,262.638c0.692,1.469,1.388,2.939,2.09,4.425c5.633,11.913,16.104,28.31,21.41,40.991l108.255-40.177
				C187.986,253.276,182.343,230.081,176.048,216.759z"/>
			
				<path fill="#564432" stroke="#000000" stroke-width="8" stroke-linecap="round" stroke-linejoin="round" stroke-miterlimit="10" d="
				M301.508,478.771c3.933,0.928,7.863,1.373,11.74,1.372c22.872-0.002,43.681-15.501,49.452-38.698
				c6.801-27.333-9.845-55.004-37.178-61.805c-13.381-3.331-26.937-3.572-40.548-1.852l10.027,101.661
				C298.897,478.749,300.886,478.744,301.508,478.771z"/>
			
				<path fill="#564432" stroke="#000000" stroke-width="8" stroke-linecap="round" stroke-linejoin="round" stroke-miterlimit="10" d="
				M99.166,441.817c1.5,20.767,7.754,39.271,21.581,53.734c13.16,13.768,30.989,21.063,50.551,21.063
				c5.74,0,11.634-0.629,17.597-1.906c3.434-0.736,6.883-1.589,10.341-2.529l-7.838-79.459L99.166,441.817z"/>
			
				<path fill="#E5E2D3" stroke="#000000" stroke-width="8" stroke-linecap="round" stroke-linejoin="round" stroke-miterlimit="10" d="
				M189.209,402.554c14.333-11,23.435-24.264,29.667-20.666c2.328,1.344-3.631,20.852-5.965,28.852"/>
			
				<path fill="#E5E2D3" stroke="#000000" stroke-width="8" stroke-linecap="round" stroke-linejoin="round" stroke-miterlimit="10" d="
				M118.955,364.809c-4.695-7.586-16.92-11.118-16.964-17.892c-0.018-2.688,5.034-5.013,12.701-12.68"/>
			
				<path fill="#E5E2D3" stroke="#000000" stroke-width="8" stroke-linecap="round" stroke-linejoin="round" stroke-miterlimit="10" d="
				M313.21,390.028c0,0,7.541-21.299,14.333-25.22"/>
			
				<path fill="#E5E2D3" stroke="#000000" stroke-width="8" stroke-linecap="round" stroke-linejoin="round" stroke-miterlimit="10" d="
				M323.21,392.555c0,0,14-14.203,24-11.269"/>
			
				<path fill="#E5E2D3" stroke="#000000" stroke-width="8" stroke-linecap="round" stroke-linejoin="round" stroke-miterlimit="10" d="
				M91.543,470.222c3,3,21.334,5.891,31.667,4.445"/>
			
				<path fill="#E5E2D3" stroke="#000000" stroke-width="8" stroke-linecap="round" stroke-linejoin="round" stroke-miterlimit="10" d="
				M104.543,498.888c2.5-2.5,13.001-11.333,18.667-11.333"/>
			
				<line fill="#E5E2D3" stroke="#000000" stroke-width="8" stroke-linecap="round" stroke-linejoin="round" stroke-miterlimit="10" x1="172.21" y1="267.877" x2="177.543" y2="284.887"/>
			
				<line fill="#E5E2D3" stroke="#000000" stroke-width="8" stroke-linecap="round" stroke-linejoin="round" stroke-miterlimit="10" x1="159.279" y1="272.083" x2="164.612" y2="289.093"/>
		</g>
		<g>
			
				<path fill="#358C5E" stroke="#000000" stroke-width="8" stroke-linecap="round" stroke-linejoin="round" stroke-miterlimit="10" d="
				M494.18,196.174c4.563-7.786,7.191-16.845,7.191-26.521c0-20.714-11.991-38.622-29.406-47.179
				c2.559-7.299,3.965-15.141,3.965-23.314c0-38.93-31.561-70.49-70.491-70.49c-32.148,0-59.251,21.529-67.727,50.949
				c-6.717-3.117-14.195-4.867-22.087-4.867c-29.02,0-52.542,23.522-52.542,52.542c0,9.559,2.564,18.514,7.025,26.235
				c-28.182,9.228-48.546,35.724-48.546,66.988c0,38.934,31.562,70.492,70.493,70.492c9.104,0,17.795-1.745,25.782-4.887
				c17.104,10.852,37.389,17.139,59.145,17.139c10.925,0,21.477-1.592,31.444-4.544c0.191,0.122,0.371,0.236,0.568,0.362
				c0.983,0.74,2.045,1.54,3.181,2.396c1.037,0.899,2.172,1.859,3.315,2.897c0.528,0.536,1.069,1.086,1.624,1.649
				c0.271,0.285,0.596,0.563,0.837,0.863c0.251,0.3,0.503,0.604,0.757,0.911c0.261,0.309,0.525,0.62,0.791,0.935l0.405,0.478
				c0.119,0.162,0.223,0.329,0.337,0.495c0.465,0.668,0.938,1.348,1.419,2.041c0.381,0.706,0.79,1.428,1.224,2.167
				c0.38,0.743,0.666,1.504,1.047,2.284c0.325,0.782,0.52,1.575,0.831,2.397c0.208,0.814,0.36,1.645,0.556,2.504
				c0.183,1.684,0.36,3.47,0.115,5.258c-0.107,1.83-0.675,3.614-1.314,5.466l-0.62,1.338c-0.184,0.47-0.448,0.892-0.714,1.321
				c-0.271,0.426-0.499,0.893-0.795,1.313l-0.93,1.248c-0.289,0.449-0.674,0.806-1.027,1.204c-0.37,0.377-0.688,0.83-1.103,1.169
				l-1.212,1.093c-0.39,0.395-0.87,0.657-1.305,1.005c-0.863,0.714-1.857,1.213-2.824,1.818c-0.492,0.279-1.02,0.48-1.533,0.736
				l-0.779,0.37c-0.259,0.127-0.537,0.19-0.806,0.291l-1.641,0.572c-0.558,0.149-1.126,0.263-1.696,0.405l-0.858,0.207
				c-0.287,0.057-0.578,0.078-0.87,0.119l-1.761,0.236c-2.36,0.107-4.804,0.118-7.2-0.389c-0.597-0.122-1.217-0.186-1.809-0.35
				c-0.594-0.174-1.188-0.346-1.78-0.518l-0.896-0.256c-0.299-0.091-0.579-0.229-0.871-0.338c-0.581-0.234-1.162-0.468-1.739-0.701
				c-2.679-1.147-5.117-2.324-7.613-3.527c-1.336-0.552-2.63-1.146-3.926-1.705c-1.29-0.568-2.547-1.178-3.838-1.62
				c-1.276-0.482-2.539-0.959-3.787-1.431c-0.616-0.249-1.253-0.445-1.89-0.629c-0.635-0.188-1.267-0.373-1.893-0.559
				c-0.628-0.178-1.251-0.354-1.871-0.529c-0.612-0.189-1.238-0.333-1.866-0.444c-1.252-0.232-2.486-0.463-3.698-0.688
				c-0.597-0.137-1.219-0.166-1.822-0.229c-0.605-0.057-1.205-0.113-1.8-0.169c-0.592-0.054-1.178-0.108-1.759-0.161
				c-0.582-0.041-1.167-0.023-1.74-0.037c-4.578-0.179-8.8,0.436-12.374,1.359c-3.597,0.896-6.545,2.269-8.797,3.604
				c-0.556,0.351-1.094,0.657-1.57,0.988c-0.467,0.349-0.903,0.676-1.31,0.98c-0.412,0.291-0.763,0.603-1.076,0.895
				c-0.315,0.287-0.603,0.546-0.858,0.778c-0.496,0.483-0.827,0.903-1.069,1.16c-0.236,0.265-0.357,0.4-0.357,0.4
				s0.147-0.108,0.435-0.317c0.295-0.201,0.696-0.532,1.272-0.895c1.162-0.699,2.855-1.748,5.227-2.555
				c0.289-0.109,0.588-0.222,0.893-0.337c0.314-0.092,0.638-0.185,0.968-0.28c0.664-0.178,1.332-0.418,2.063-0.568
				c0.729-0.141,1.489-0.289,2.276-0.441c0.781-0.152,1.622-0.184,2.466-0.285c3.4-0.258,7.25-0.267,11.367,0.504
				c0.514,0.084,1.033,0.137,1.556,0.247c0.519,0.122,1.044,0.247,1.574,0.372c1.055,0.268,2.132,0.463,3.212,0.797
				c2.152,0.683,4.385,1.28,6.62,2.18c0.563,0.201,1.131,0.404,1.701,0.609c0.573,0.195,1.147,0.401,1.709,0.667
				c1.131,0.494,2.276,0.995,3.435,1.501c1.173,0.479,2.279,1.084,3.404,1.683c1.115,0.613,2.256,1.2,3.378,1.841
				c2.282,1.434,4.643,3.049,6.891,4.601c0.657,0.434,1.317,0.869,1.98,1.306c0.336,0.212,0.66,0.449,1.012,0.641l1.066,0.563
				c0.72,0.376,1.44,0.751,2.163,1.128c0.73,0.366,1.511,0.633,2.275,0.953c3.057,1.298,6.392,2.039,9.807,2.543l2.594,0.198
				c0.434,0.024,0.87,0.069,1.307,0.077l1.311-0.027c0.875-0.027,1.758-0.036,2.64-0.094l2.632-0.328
				c0.889-0.09,1.755-0.279,2.624-0.48c0.867-0.206,1.755-0.37,2.612-0.628c1.697-0.56,3.44-1.067,5.07-1.854
				c0.815-0.383,1.681-0.695,2.459-1.158l2.377-1.34c0.805-0.438,1.518-1.009,2.276-1.518c0.745-0.531,1.517-1.035,2.196-1.65
				c0.697-0.602,1.394-1.201,2.089-1.8c0.68-0.62,1.292-1.308,1.937-1.968c1.324-1.297,2.373-2.822,3.527-4.273
				c2.065-3.055,3.928-6.322,5.102-9.813c0.694-1.72,1.096-3.497,1.535-5.271c0.245-0.888,0.35-1.778,0.481-2.668
				c0.122-0.897,0.242-1.788,0.361-2.675c0.103-1.764,0.177-3.536,0.164-5.276c-0.113-1.709-0.174-3.448-0.399-5.104
				c-0.274-1.634-0.515-3.289-0.871-4.862c-0.404-1.542-0.82-3.066-1.249-4.571c-0.512-1.435-1.042-2.837-1.57-4.224
				c-0.135-0.345-0.27-0.688-0.402-1.03c-0.153-0.322-0.305-0.645-0.456-0.965c-0.303-0.643-0.604-1.279-0.9-1.911
				c-0.303-0.632-0.604-1.256-0.9-1.875c-0.299-0.621-0.648-1.163-0.967-1.74c-0.663-1.136-1.31-2.246-1.941-3.329
				c-0.319-0.494-0.639-0.979-0.958-1.455c2.475-1.636,4.872-3.378,7.202-5.201c2.327,0.314,4.699,0.492,7.111,0.492
				c29.019,0,52.543-23.526,52.543-52.545C504.721,215.892,500.796,204.963,494.18,196.174z"/>
			<g>
				
					<path fill="#E5E2D3" stroke="#000000" stroke-width="8" stroke-linecap="round" stroke-linejoin="round" stroke-miterlimit="10" d="
					M433.149,174.837c0-33.485-27.145-60.629-60.629-60.629c-33.485,0-60.629,27.144-60.629,60.629
					c0,15.807,6.054,41.348,15.963,52.14l7.061,27.664h75.209l7.062-27.663C427.095,216.185,433.149,190.645,433.149,174.837z"/>
				<g>
					
						<path fill="#141414" stroke="#000000" stroke-width="8" stroke-linecap="round" stroke-linejoin="round" stroke-miterlimit="10" d="
						M423.663,179.054c2.211,19.747-25.514,23.508-35.348,19.031c-4.176-1.902-6.195-5.438-6.272-8.662
						c-0.076-3.184,1.697-7.496,5.551-11.196C396.329,169.837,421.623,160.812,423.663,179.054z"/>
					
						<path fill="#141414" stroke="#000000" stroke-width="8" stroke-linecap="round" stroke-linejoin="round" stroke-miterlimit="10" d="
						M321.378,179.054c-2.21,19.747,25.515,23.508,35.348,19.031c4.177-1.902,6.195-5.438,6.272-8.662
						c0.077-3.184-1.696-7.496-5.551-11.196C348.713,169.837,323.418,160.812,321.378,179.054z"/>
				</g>
				<g>
					<path fill="#141414" d="M364.967,226.74c-1.429-0.02-2.739-0.799-3.438-2.046s-0.678-2.771,0.053-3.999l7.585-12.749
						c0.722-1.213,2.028-1.955,3.438-1.955c0.018,0,0.035,0,0.053,0c1.429,0.02,2.739,0.799,3.438,2.046l7.249,12.944
						c0.698,1.246,0.678,2.771-0.053,3.999c-0.722,1.213-2.028,1.955-3.438,1.955C379.836,226.936,364.967,226.74,364.967,226.74z"
						/>
					<path d="M372.604,209.991l7.249,12.944l-14.834-0.195L372.604,209.991 M372.604,201.991c-2.818,0-5.432,1.483-6.875,3.91
						l-7.585,12.748c-1.462,2.457-1.502,5.506-0.105,8c1.396,2.493,4.018,4.053,6.875,4.09l14.834,0.195
						c0.035,0.001,0.07,0.001,0.105,0.001c2.818,0,5.432-1.483,6.875-3.909c1.462-2.457,1.502-5.506,0.105-8l-7.25-12.944
						c-1.396-2.493-4.017-4.053-6.875-4.09C372.674,201.991,372.639,201.991,372.604,201.991L372.604,201.991z"/>
				</g>
				<g>
					
						<line fill="#E5E2D3" stroke="#000000" stroke-width="8" stroke-linecap="round" stroke-linejoin="round" stroke-miterlimit="10" x1="344.024" y1="236.705" x2="344.024" y2="254.641"/>
					
						<line fill="#E5E2D3" stroke="#000000" stroke-width="8" stroke-linecap="round" stroke-linejoin="round" stroke-miterlimit="10" x1="358.272" y1="236.705" x2="358.272" y2="254.641"/>
					
						<line fill="#E5E2D3" stroke="#000000" stroke-width="8" stroke-linecap="round" stroke-linejoin="round" stroke-miterlimit="10" x1="372.521" y1="236.705" x2="372.521" y2="254.641"/>
					
						<line fill="#E5E2D3" stroke="#000000" stroke-width="8" stroke-linecap="round" stroke-linejoin="round" stroke-miterlimit="10" x1="386.769" y1="236.705" x2="386.769" y2="254.641"/>
					
						<line fill="#E5E2D3" stroke="#000000" stroke-width="8" stroke-linecap="round" stroke-linejoin="round" stroke-miterlimit="10" x1="401.017" y1="236.705" x2="401.017" y2="254.641"/>
				</g>
			</g>
		</g>
	</g>
</g>
</svg>
