<?xml version="1.0" encoding="utf-8"?>
<!-- Generator: Adobe Illustrator 16.0.0, SVG Export Plug-In . SVG Version: 6.00 Build 0)  -->
<!DOCTYPE svg PUBLIC "-//W3C//DTD SVG 1.1//EN" "http://www.w3.org/Graphics/SVG/1.1/DTD/svg11.dtd">
<svg version="1.1" xmlns="http://www.w3.org/2000/svg" xmlns:xlink="http://www.w3.org/1999/xlink" x="0px" y="0px"
	 width="566.93px" height="566.93px" viewBox="0 0 566.93 566.93" enable-background="new 0 0 566.93 566.93" xml:space="preserve">
<g id="fond" display="none">
	
		<rect x="-8001.873" y="-10462.046" display="inline" fill-rule="evenodd" clip-rule="evenodd" fill="#58595B" width="16654.492" height="16572.797"/>
</g>
<g id="en_cours">
</g>
<g id="fini">
	<g>
		<g>
			
				<line fill="#E5E2D3" stroke="#000000" stroke-width="8" stroke-linecap="round" stroke-linejoin="round" stroke-miterlimit="10" x1="273.459" y1="341.696" x2="273.459" y2="503.906"/>
			
				<line fill="#E5E2D3" stroke="#000000" stroke-width="8" stroke-linecap="round" stroke-linejoin="round" stroke-miterlimit="10" x1="222.715" y1="346.587" x2="324.208" y2="499.015"/>
			
				<line fill="#E5E2D3" stroke="#000000" stroke-width="8" stroke-linecap="round" stroke-linejoin="round" stroke-miterlimit="10" x1="178.093" y1="360.67" x2="368.837" y2="484.929"/>
			
				<line fill="#E5E2D3" stroke="#000000" stroke-width="8" stroke-linecap="round" stroke-linejoin="round" stroke-miterlimit="10" x1="144.972" y1="382.246" x2="401.956" y2="463.352"/>
			
				<line fill="#E5E2D3" stroke="#000000" stroke-width="8" stroke-linecap="round" stroke-linejoin="round" stroke-miterlimit="10" x1="127.348" y1="408.713" x2="419.584" y2="436.882"/>
			
				<line fill="#E5E2D3" stroke="#000000" stroke-width="8" stroke-linecap="round" stroke-linejoin="round" stroke-miterlimit="10" x1="127.346" y1="436.879" x2="419.584" y2="408.713"/>
			
				<line fill="#E5E2D3" stroke="#000000" stroke-width="8" stroke-linecap="round" stroke-linejoin="round" stroke-miterlimit="10" x1="144.966" y1="463.347" x2="401.956" y2="382.241"/>
			
				<line fill="#E5E2D3" stroke="#000000" stroke-width="8" stroke-linecap="round" stroke-linejoin="round" stroke-miterlimit="10" x1="178.087" y1="484.925" x2="368.83" y2="360.663"/>
			
				<line fill="#E5E2D3" stroke="#000000" stroke-width="8" stroke-linecap="round" stroke-linejoin="round" stroke-miterlimit="10" x1="222.71" y1="499.007" x2="324.203" y2="346.578"/>
		</g>
		<g>
			
				<path fill="#E5E2D3" stroke="#000000" stroke-width="8" stroke-linecap="round" stroke-linejoin="round" stroke-miterlimit="10" d="
				M265.965,120.626c0,85.462-175.166,109.101-175.166,241.537c0,33.141,26.865,60.006,60.005,60.006
				c33.139,0,60.005-26.865,60.005-60.006h110.312c0,33.141,26.864,60.006,60.005,60.006c33.14,0,60.005-26.865,60.005-60.006
				C441.131,229.727,265.965,206.088,265.965,120.626z"/>
			
				<path fill="#E5E2D3" stroke="#000000" stroke-width="8" stroke-linecap="round" stroke-linejoin="round" stroke-miterlimit="10" d="
				M265.764,120.626c-9.06,119.405-124.07,197.594-98.245,301.541c7.843,24.011,30.499,45.156,57.13,45.156
				c33.14,0,62.732-23.229,62.732-56.368c0-3.097-0.235-6.139-0.688-9.109l5.014-1.195l-9.699-114.556L265.764,120.626"/>
			
				<path fill="#E5E2D3" stroke="#000000" stroke-width="8" stroke-linecap="round" stroke-linejoin="round" stroke-miterlimit="10" d="
				M364.007,414.974c0.088-1.33,0.149-2.668,0.149-4.019c0-0.471-0.025-0.935-0.035-1.403
				c1.646-128.641-77.05-141.365-98.357-288.926c10.791,181.532-49.429,269.721-11.556,323.597l0.004-0.001
				c10.758,16.117,29.106,26.738,49.939,26.738c31.695,0,57.632-24.578,59.835-55.713l0.016-0.004
				C364.004,415.151,364.004,415.064,364.007,414.974z"/>
			<path fill="none" stroke="#000000" stroke-width="8" stroke-linecap="round" stroke-linejoin="round" stroke-miterlimit="10" d="
				M265.764,120.626c-17.697,96.373-108.917,128.496-135.586,188.199"/>
			<path fill="none" stroke="#000000" stroke-width="8" stroke-linecap="round" stroke-linejoin="round" stroke-miterlimit="10" d="
				M265.763,120.626c17.698,96.373,108.917,128.496,135.586,188.199"/>
			<path fill="none" stroke="#000000" stroke-width="8" stroke-linecap="round" stroke-linejoin="round" stroke-miterlimit="10" d="
				M265.965,120.626c0,137.588-70.175,164.771-70.175,247.052"/>
			<path fill="none" stroke="#000000" stroke-width="8" stroke-linecap="round" stroke-linejoin="round" stroke-miterlimit="10" d="
				M265.965,120.626c0,137.588,70.175,164.771,70.175,247.052"/>
		</g>
		
			<path fill="#E5E2D3" stroke="#000000" stroke-width="8" stroke-linecap="round" stroke-linejoin="round" stroke-miterlimit="10" d="
			M250.804,113.454c0,0,17.529,26.5,1.836,51.711c-6.136,9.857-41.016,33.687-41.016,33.687S250.804,172.787,250.804,113.454z"/>
		
			<path fill="#E5E2D3" stroke="#000000" stroke-width="8" stroke-linecap="round" stroke-linejoin="round" stroke-miterlimit="10" d="
			M288.121,122.863c0,0-21.056,23.795-9.034,50.948c4.7,10.616,35.913,39.081,35.913,39.081S279.841,181.615,288.121,122.863z"/>
	</g>
</g>
</svg>
