<?xml version="1.0" encoding="utf-8"?>
<!-- Generator: Adobe Illustrator 16.0.0, SVG Export Plug-In . SVG Version: 6.00 Build 0)  -->
<!DOCTYPE svg PUBLIC "-//W3C//DTD SVG 1.1//EN" "http://www.w3.org/Graphics/SVG/1.1/DTD/svg11.dtd">
<svg version="1.1" xmlns="http://www.w3.org/2000/svg" xmlns:xlink="http://www.w3.org/1999/xlink" x="0px" y="0px"
	 width="283.465px" height="566.93px" viewBox="0 0 283.465 566.93" enable-background="new 0 0 283.465 566.93"
	 xml:space="preserve">
<g id="fond" display="none">
	
		<rect x="-6843.605" y="-7908" display="inline" fill-rule="evenodd" clip-rule="evenodd" fill="#58595B" width="16654.492" height="16572.797"/>
</g>
<g id="en_cours">
</g>
<g id="fini">
	<g>
		<path d="M141.622,292.964c-3.709,0-6.863-1.224-9.456-3.671c-2.597-2.447-3.894-5.746-3.894-9.901c0-4.15,1.296-7.453,3.894-9.9
			c2.593-2.448,5.747-3.672,9.456-3.672c3.706,0,6.859,1.224,9.456,3.672c2.594,2.447,3.894,5.75,3.894,9.9
			c0,4.155-1.3,7.454-3.894,9.901C148.481,291.74,145.328,292.964,141.622,292.964z M152.08,429.578h-20.692V313.879h20.692V429.578
			z"/>
	</g>
</g>
</svg>
