<?xml version="1.0" encoding="utf-8"?>
<!-- Generator: Adobe Illustrator 16.0.0, SVG Export Plug-In . SVG Version: 6.00 Build 0)  -->
<!DOCTYPE svg PUBLIC "-//W3C//DTD SVG 1.1//EN" "http://www.w3.org/Graphics/SVG/1.1/DTD/svg11.dtd">
<svg version="1.1" xmlns="http://www.w3.org/2000/svg" xmlns:xlink="http://www.w3.org/1999/xlink" x="0px" y="0px"
	 width="566.93px" height="566.93px" viewBox="0 0 566.93 566.93" enable-background="new 0 0 566.93 566.93" xml:space="preserve">
<g id="fond" display="none">
	
		<rect x="-8249.873" y="-10145.944" display="inline" fill-rule="evenodd" clip-rule="evenodd" fill="#58595B" width="15942.492" height="15814.695"/>
</g>
<g id="en_cours">
</g>
<g id="fini">
	<g>
		<path fill="#CCAC6C" d="M286.428,215.141l-19.335-4.531l0.818-10.214l2.055-25.677c1.029-12.865-8.563-24.131-21.432-25.163
			l-0.249-0.018c-12.868-1.033-24.136,8.563-25.169,21.431l-1.972,24.661c-1.66,0.706-3.228,1.602-4.677,2.663l-2.377-35.146
			c-0.869-12.849-11.408-22.598-23.539-21.779l-0.237,0.019c-12.134,0.817-21.264,11.897-20.397,24.747l4.387,64.873l-4.937-53.052
			c-1.198-12.877-11.538-22.444-23.089-21.37l-0.229,0.021c-11.555,1.074-19.951,12.385-18.753,25.265l6.146,66.063l-8.079-41.296
			c-2.034-10.567-12.251-17.484-22.818-15.452l-0.208,0.042c-10.224,1.967-17.006,11.597-15.598,21.79l-0.032-0.076
			c4.872,42.592,15.979,131.047,15.979,131.047s5.692,40.57,38.94,60.544l-7.919,139.419l142.069-1.048
			c0,0-15.914-112.37-15.914-132.05s39.934-44.344,39.934-63.886C299.796,326.179,326.041,222.662,286.428,215.141z"/>
		
			<line fill="#CCAC6C" stroke="#000000" stroke-width="8" stroke-linecap="round" stroke-linejoin="round" stroke-miterlimit="10" x1="142.468" y1="389.704" x2="133.707" y2="543.951"/>
		
			<path fill="#CCAC6C" stroke="#000000" stroke-width="8" stroke-linecap="round" stroke-linejoin="round" stroke-miterlimit="10" d="
			M175.515,244.016c1.197,12.881-7.199,24.189-18.755,25.263l-0.229,0.022c-11.554,1.075-21.893-8.492-23.09-21.367l-6.146-66.063
			c-1.198-12.88,7.198-24.19,18.753-25.265l0.229-0.021c11.551-1.074,21.891,8.493,23.089,21.37L175.515,244.016z"/>
		
			<path fill="#CCAC6C" stroke="#000000" stroke-width="8" stroke-linecap="round" stroke-linejoin="round" stroke-miterlimit="10" d="
			M218.549,229.058c0.868,12.85-8.264,23.929-20.396,24.749l-0.241,0.019c-12.129,0.82-22.67-8.931-23.538-21.776l-4.457-65.916
			c-0.866-12.85,8.264-23.93,20.397-24.747l0.237-0.019c12.131-0.818,22.67,8.931,23.539,21.779L218.549,229.058z"/>
		
			<path fill="#CCAC6C" stroke="#000000" stroke-width="8" stroke-linecap="round" stroke-linejoin="round" stroke-miterlimit="10" d="
			M264.682,240.724c-1.03,12.868-12.296,22.463-25.165,21.432l-0.252-0.018c-12.865-1.031-22.461-12.297-21.429-25.161l5.28-66.008
			c1.033-12.868,12.301-22.464,25.169-21.431l0.249,0.018c12.868,1.032,22.461,12.298,21.432,25.163L264.682,240.724z"/>
		
			<path fill="#CCAC6C" stroke="#000000" stroke-width="8" stroke-linecap="round" stroke-linejoin="round" stroke-miterlimit="10" d="
			M86.706,212.941c4.872,42.592,15.979,131.047,15.979,131.047s9.392,67.003,74.593,71.19"/>
		
			<path fill="#CCAC6C" stroke="#000000" stroke-width="8" stroke-linecap="round" stroke-linejoin="round" stroke-miterlimit="10" d="
			M135.799,260.85c2.036,10.568-4.883,20.786-15.45,22.818l-0.207,0.043c-10.568,2.033-20.785-4.884-22.819-15.452l-10.438-54.212
			c-2.035-10.568,4.883-20.786,15.451-22.819l0.208-0.042c10.567-2.032,20.784,4.885,22.818,15.452L135.799,260.85z"/>
		
			<path fill="#CCAC6C" stroke="#000000" stroke-width="8" stroke-linecap="round" stroke-linejoin="round" stroke-miterlimit="10" d="
			M275.776,542.903c0,0-15.914-112.37-15.914-132.05s41.896-36.951,48.458-81.309c11.476-77.584,22.585-106.883-21.893-114.404
			l-51.864-12.155c-12.688-2.367-24.894,5.997-27.267,18.685l-0.043,0.248c-2.372,12.689,5.993,24.897,18.684,27.269l41.376,11.252
			l-21.199,26.666c0,0-60.373,16.471-60.373,48.508"/>
		
			<line fill="#CCAC6C" stroke="#000000" stroke-width="8" stroke-linecap="round" stroke-linejoin="round" stroke-miterlimit="10" x1="185.741" y1="441.701" x2="185.741" y2="487.767"/>
	</g>
	<g>
		<g>
			<path fill="#FFFFFF" d="M373.229,552.896c-2.005,0-3.7-1.484-3.965-3.472l-1.088-8.161c-0.144-1.077,0.157-2.166,0.833-3.017
				c0.677-0.852,1.67-1.391,2.751-1.493c18.355-1.754,34.677-8.121,48.512-18.925c13.606-10.648,20.223-23.265,20.223-38.567
				c0-4.235-0.636-5.916-0.909-6.442c-0.145-0.273-0.269-0.394-0.3-0.413l0,0c-0.001,0-0.064-0.024-0.231-0.024
				c-1.13,0-4.062,0.421-11.007,3.242c-6.242,2.541-12.058,3.83-17.281,3.83c-12.951,0-24.845-4.906-35.352-14.581
				c-10.603-9.767-15.979-21.861-15.979-35.949c0-15.766,5.213-29.337,15.495-40.336c10.35-11.073,23.87-16.688,40.187-16.688
				c20.353,0,37.213,7.729,50.111,22.973c12.722,15.055,19.171,33.274,19.171,54.155c0,29.767-10.87,54.813-32.308,74.445
				C430.752,542.997,404.219,552.896,373.229,552.896z"/>
			<path d="M415.118,375.899c19.219,0,34.902,7.191,47.058,21.557c12.146,14.374,18.225,31.562,18.225,51.571
				c0,28.739-10.337,52.564-31.009,71.495c-20.673,18.913-46.063,28.374-76.162,28.374l-1.088-8.161
				c19.219-1.836,36.083-8.423,50.593-19.754c14.501-11.348,21.761-25.254,21.761-41.72c0-3.799-0.459-6.553-1.36-8.287
				c-0.909-1.726-2.27-2.593-4.08-2.593c-2.541,0-6.715,1.182-12.512,3.536c-5.806,2.363-11.067,3.536-15.776,3.536
				c-11.969,0-22.849-4.505-32.642-13.523c-9.792-9.02-14.688-20.019-14.688-33.007c0-14.79,4.803-27.319,14.417-37.604
				C387.459,381.042,399.886,375.899,415.118,375.899 M415.118,367.899c-17.469,0-31.973,6.042-43.109,17.957
				c-10.996,11.764-16.572,26.254-16.572,43.067c0,15.251,5.81,28.337,17.269,38.892c11.269,10.377,24.074,15.639,38.062,15.639
				c5.743,0,12.065-1.389,18.793-4.127c3.179-1.291,5.376-2.017,6.851-2.424c0.051,0.625,0.085,1.402,0.085,2.358
				c0,13.991-6.114,25.577-18.69,35.419c-13.219,10.323-28.84,16.411-46.424,18.091c-2.164,0.207-4.15,1.285-5.502,2.986
				c-1.353,1.702-1.954,3.88-1.667,6.034l1.088,8.162c0.529,3.975,3.92,6.942,7.93,6.942c32.02,0,59.462-10.252,81.563-30.472
				c22.302-20.424,33.608-46.463,33.608-77.397c0-21.853-6.768-40.94-20.114-56.735
				C454.589,376.104,436.702,367.899,415.118,367.899L415.118,367.899z"/>
		</g>
	</g>
</g>
</svg>
