<?xml version="1.0" encoding="utf-8"?>
<!-- Generator: Adobe Illustrator 16.0.0, SVG Export Plug-In . SVG Version: 6.00 Build 0)  -->
<!DOCTYPE svg PUBLIC "-//W3C//DTD SVG 1.1//EN" "http://www.w3.org/Graphics/SVG/1.1/DTD/svg11.dtd">
<svg version="1.1" xmlns="http://www.w3.org/2000/svg" xmlns:xlink="http://www.w3.org/1999/xlink" x="0px" y="0px"
	 width="566.93px" height="566.93px" viewBox="0 0 566.93 566.93" enable-background="new 0 0 566.93 566.93" xml:space="preserve">
<g id="fond" display="none">
	
		<rect x="-12155.873" y="-7591.898" display="inline" fill-rule="evenodd" clip-rule="evenodd" fill="#58595B" width="15942.492" height="15814.695"/>
</g>
<g id="en_cours">
</g>
<g id="fini">
	<g>
		<g>
			<path fill="#FFFFFF" stroke="#000000" stroke-width="8" stroke-linejoin="round" stroke-miterlimit="10" d="M436.922,378.971
				c-0.436-1.15-0.709-2.262-1.164-3.355c-0.533-1.092-0.934-2.158-1.465-3.197c-0.607-1.035-1.178-2.045-1.713-3.033
				c-0.674-0.971-1.336-1.922-1.986-2.857c-0.16-0.232-0.305-0.465-0.473-0.693l-0.566-0.668c-0.373-0.441-0.742-0.877-1.107-1.309
				c-0.355-0.43-0.709-0.854-1.059-1.275c-0.338-0.42-0.793-0.809-1.172-1.209c-0.775-0.787-1.533-1.557-2.273-2.309
				c-1.602-1.453-3.189-2.795-4.641-4.055c-1.59-1.197-3.076-2.318-4.453-3.354c-0.275-0.176-0.527-0.336-0.795-0.506
				c-13.953,4.131-28.723,6.361-44.016,6.361c-85.467,0-154.754-69.287-154.754-154.754c0-85.468,69.287-154.753,154.754-154.753
				c85.469,0,154.754,69.285,154.754,154.753c0,53.976-27.641,101.489-69.531,129.182c0.445,0.666,0.893,1.344,1.34,2.037
				c0.885,1.516,1.789,3.068,2.717,4.658c0.447,0.809,0.938,1.566,1.354,2.438c0.416,0.865,0.836,1.74,1.262,2.625
				c0.416,0.883,0.836,1.773,1.26,2.674c0.211,0.449,0.424,0.898,0.637,1.352c0.188,0.479,0.375,0.959,0.564,1.441
				c0.74,1.941,1.484,3.904,2.197,5.912c0.6,2.105,1.184,4.24,1.748,6.398c0.5,2.201,0.836,4.52,1.221,6.807
				c0.316,2.318,0.4,4.754,0.559,7.145c0.018,2.436-0.086,4.918-0.229,7.387c-0.168,1.24-0.336,2.488-0.506,3.742
				c-0.186,1.248-0.332,2.494-0.676,3.736c-0.613,2.482-1.176,4.971-2.148,7.379c-1.643,4.887-4.248,9.459-7.141,13.736
				c-1.615,2.031-3.084,4.168-4.938,5.982c-0.902,0.924-1.76,1.887-2.711,2.756c-0.973,0.838-1.947,1.676-2.924,2.518
				c-0.949,0.861-2.031,1.566-3.072,2.311c-1.064,0.713-2.063,1.512-3.188,2.125l-3.328,1.875c-1.09,0.648-2.299,1.084-3.441,1.621
				c-2.281,1.102-4.723,1.813-7.098,2.596c-1.199,0.361-2.441,0.592-3.656,0.879c-1.217,0.281-2.43,0.547-3.672,0.672l-3.686,0.461
				c-1.232,0.08-2.471,0.092-3.695,0.131l-1.834,0.039c-0.611-0.012-1.223-0.074-1.83-0.109l-3.629-0.277
				c-4.781-0.705-9.449-1.744-13.729-3.561c-1.07-0.447-2.162-0.82-3.184-1.334c-1.014-0.527-2.021-1.053-3.027-1.578l-1.494-0.789
				c-0.492-0.268-0.945-0.6-1.416-0.896c-0.928-0.611-1.852-1.221-2.773-1.826c-3.146-2.174-6.449-4.434-9.645-6.441
				c-1.568-0.896-3.166-1.719-4.729-2.576c-1.574-0.84-3.123-1.686-4.766-2.355c-1.619-0.709-3.225-1.41-4.807-2.102
				c-0.785-0.371-1.59-0.66-2.393-0.934c-0.799-0.287-1.592-0.572-2.381-0.854c-3.129-1.258-6.254-2.094-9.268-3.051
				c-1.51-0.469-3.02-0.74-4.496-1.113c-0.742-0.176-1.477-0.352-2.203-0.523c-0.73-0.154-1.459-0.227-2.178-0.346
				c-5.764-1.078-11.15-1.064-15.91-0.705c-1.182,0.143-2.357,0.188-3.453,0.4c-1.102,0.213-2.164,0.42-3.186,0.617
				c-1.021,0.209-1.959,0.547-2.889,0.795c-0.463,0.135-0.914,0.266-1.354,0.393c-0.428,0.162-0.846,0.318-1.25,0.473
				c-3.32,1.129-5.689,2.596-7.316,3.576c-0.807,0.506-1.369,0.971-1.779,1.252c-0.404,0.291-0.611,0.443-0.611,0.443
				s0.17-0.191,0.502-0.561c0.338-0.359,0.803-0.945,1.496-1.623c0.359-0.326,0.762-0.689,1.203-1.09
				c0.438-0.41,0.928-0.846,1.506-1.252c0.568-0.426,1.18-0.885,1.832-1.373c0.668-0.463,1.42-0.893,2.199-1.383
				c3.15-1.869,7.279-3.789,12.313-5.043c5.004-1.295,10.914-2.154,17.32-1.904c0.803,0.02,1.621-0.004,2.438,0.053
				c0.813,0.072,1.633,0.148,2.461,0.225c0.832,0.078,1.672,0.156,2.52,0.236c0.846,0.088,1.715,0.129,2.551,0.318
				c1.697,0.318,3.424,0.639,5.176,0.965c0.881,0.156,1.756,0.357,2.615,0.623c0.865,0.244,1.738,0.492,2.617,0.74
				c0.877,0.26,1.76,0.52,2.648,0.783c0.893,0.256,1.783,0.529,2.646,0.879c1.746,0.66,3.514,1.328,5.301,2.004
				c1.807,0.617,3.566,1.471,5.373,2.268c1.813,0.781,3.625,1.613,5.494,2.387c3.494,1.684,6.906,3.33,10.656,4.938
				c0.811,0.326,1.623,0.652,2.436,0.98c0.408,0.154,0.801,0.348,1.219,0.473l1.254,0.359c0.828,0.24,1.66,0.48,2.492,0.723
				c0.83,0.23,1.695,0.32,2.531,0.49c3.355,0.709,6.775,0.695,10.078,0.543l2.465-0.33c0.408-0.057,0.816-0.088,1.221-0.164
				l1.199-0.291c0.799-0.199,1.594-0.359,2.375-0.568l2.295-0.801c0.379-0.141,0.766-0.23,1.131-0.406l1.09-0.52
				c0.719-0.357,1.455-0.639,2.145-1.031c1.354-0.848,2.744-1.545,3.953-2.545c0.609-0.486,1.281-0.854,1.828-1.406l1.695-1.529
				c0.58-0.475,1.025-1.109,1.545-1.637c0.492-0.559,1.031-1.057,1.436-1.686l1.301-1.746c0.416-0.588,0.738-1.242,1.113-1.838
				c0.371-0.602,0.742-1.191,1-1.85l0.869-1.873c0.895-2.592,1.689-5.09,1.84-7.65c0.342-2.502,0.094-5.004-0.162-7.361
				C437.426,381.273,437.213,380.111,436.922,378.971z"/>
			<g>
				<circle cx="412.595" cy="202.77" r="14.495"/>
				<circle cx="369.996" cy="202.77" r="14.496"/>
				<circle cx="327.398" cy="202.77" r="14.496"/>
			</g>
		</g>
		<g>
			
				<path fill="#CCAC6C" stroke="#000000" stroke-width="8" stroke-linecap="round" stroke-linejoin="round" stroke-miterlimit="10" d="
				M149.924,508.473c-2.555-8.091-4.258-33.216,5.961-43.01c10.221-9.794,47.877,15.516,67.063,1.495
				c11.072-8.092,0.426-22.401,1.277-25.382s8.092-3.229,8.092-5.957c0-6.932-21.512-8.131-21.512-13.3
				c0-8.024,23.523-13.827,23.523-16.811c0-1.704-4.348-9.03-4.348-12.011c0-2.981,20.674-4.156,20.439-12.776
				c-0.426-15.755-31.512-41.731-26.826-56.636c6.523-20.751-16.732-69.502-49.396-78.354
				C108.191,227.847-7.209,267.45,65.182,401.162c8.021,14.814,3.834,53.229-18.311,64.301"/>
			
				<path fill="#CCAC6C" stroke="#000000" stroke-width="8" stroke-linecap="round" stroke-linejoin="round" stroke-miterlimit="10" d="
				M130.404,357.047c-11.393-20.833-39.926,0.312-30.633,21.744c4.781,11.029,16.605,23.712,18.342,29.514
				c4.793,16.037,25.479,9.892,25.479-0.3"/>
			
				<path fill="#CCAC6C" stroke="#000000" stroke-width="8" stroke-linecap="round" stroke-linejoin="round" stroke-miterlimit="10" d="
				M109.57,367.239c7.943-18.743,27.727,15.138,17.234,13.316c-4.533-0.786-3.621,6.793,1.799,7.966
				c11.092,2.397,4.152,11.359,1.35,9.742"/>
		</g>
	</g>
</g>
</svg>
