<?xml version="1.0" encoding="utf-8"?>
<!-- Generator: Adobe Illustrator 16.0.0, SVG Export Plug-In . SVG Version: 6.00 Build 0)  -->
<!DOCTYPE svg PUBLIC "-//W3C//DTD SVG 1.1//EN" "http://www.w3.org/Graphics/SVG/1.1/DTD/svg11.dtd">
<svg version="1.1" xmlns="http://www.w3.org/2000/svg" xmlns:xlink="http://www.w3.org/1999/xlink" x="0px" y="0px"
	 width="566.93px" height="566.93px" viewBox="0 0 566.93 566.93" enable-background="new 0 0 566.93 566.93" xml:space="preserve">
<g id="fond" display="none">
	
		<rect x="-6701.873" y="-9178" display="inline" fill-rule="evenodd" clip-rule="evenodd" fill="#58595B" width="16654.492" height="16572.797"/>
</g>
<g id="en_cours">
</g>
<g id="fini">
	<g>
		<path d="M303.491,259.994c6.081,0,11.309,0.444,15.686,1.335c4.374,0.89,7.454,1.707,9.234,2.447l-3.782,17.8
			c-1.78-0.89-4.304-1.742-7.565-2.559c-3.265-0.813-7.27-1.224-12.015-1.224c-9.644,0-16.392,2.635-20.247,7.898
			c-3.859,5.267-5.785,12.349-5.785,21.249v10.012h44.5v17.355h-44.5v98.344h-20.692V306.496c0-14.831,3.633-26.29,10.902-34.376
			C276.493,264.037,287.917,259.994,303.491,259.994z"/>
	</g>
</g>
</svg>
