<?xml version="1.0" encoding="utf-8"?>
<!-- Generator: Adobe Illustrator 16.0.0, SVG Export Plug-In . SVG Version: 6.00 Build 0)  -->
<!DOCTYPE svg PUBLIC "-//W3C//DTD SVG 1.1//EN" "http://www.w3.org/Graphics/SVG/1.1/DTD/svg11.dtd">
<svg version="1.1" xmlns="http://www.w3.org/2000/svg" xmlns:xlink="http://www.w3.org/1999/xlink" x="0px" y="0px" width="566.9px"
	 height="566.9px" viewBox="0 0 566.9 566.9" enable-background="new 0 0 566.9 566.9" xml:space="preserve">
<g id="fond" display="none">
	
		<rect x="-7607.9" y="-8228.8" display="inline" fill-rule="evenodd" clip-rule="evenodd" fill="#F2F2F2" width="15942.5" height="15814.7"/>
</g>
<g id="en_cours">
</g>
<g id="fini">
	<g>
		<path fill-rule="evenodd" clip-rule="evenodd" fill="#14100D" d="M289.6,491.1c-1.5-3.5-3.2-6.9-4.5-10.5c-0.3-0.8,0.6-2.7,1.4-3
			c4.9-2.2,9.9-4.3,15-6c5.4-1.8,11-3.2,16.5-4.4c14.9-3.3,29.9-6.6,44.9-9.6c6.3-1.3,12.7-1.9,19-2.9c1.2-0.2,2.5-0.2,3.4-0.8
			c4.6-2.9,6.7-0.6,6.8,3.7c0.1,5.9-0.6,11.9-1,17.8c-7.4,0-14.9,0.2-22.3-0.1c-14.1-0.6-27.5,3-41.2,5.4c-9.5,1.6-19,3.9-28.4,6.2
			C295.9,487.7,292.8,489.6,289.6,491.1z"/>
		<path fill-rule="evenodd" clip-rule="evenodd" fill="#14100D" d="M278.2,416.4c0.7-5,2.3-10,1.9-14.9c-0.8-8.7,3-15.6,7-22.6
			c6-10.6,13-20.2,23.6-26.8c6.8-4.2,14-6,21.8-5.3c8.1,0.8,15.8,2.5,22.3,8.4c8.5,7.7,14.2,17,17.8,27.7c0.7,2.1,1,4.4,2.1,6.1
			c2.3,3.4,0.8,5.1-2.2,5.9c-17.1,4.4-34.3,8.6-51.4,13c-5,1.3-9.9,3.5-14.9,4.6c-9.3,1.8-18.6,3.1-27.9,4.6
			C278.2,416.9,278.2,416.6,278.2,416.4z"/>
		<path fill-rule="evenodd" clip-rule="evenodd" fill="#AA962E" d="M395.9,433.9c-6.9,0-12.9-6-13-12.8c-0.1-7.1,6.1-13.2,13.2-13.1
			c6.8,0.1,12.8,6.2,12.7,13.1C408.8,427.9,402.8,433.9,395.9,433.9z"/>
		<path fill-rule="evenodd" clip-rule="evenodd" fill="#AA962E" d="M254.4,453.2c-0.1-6.9,5.9-13,12.7-13.1
			c6.9-0.1,13.1,5.8,13.2,12.6c0.2,7.1-5.9,13.4-13,13.4C260.4,466,254.4,460,254.4,453.2z"/>
		<path fill-rule="evenodd" clip-rule="evenodd" fill="#3F2819" d="M531.7,291.2c-5.3-8.5-12.7-15.7-19.1-23.4
			c-0.3-0.3-0.6-0.6-0.9-0.9c-7.9-5.9-15.5-12.1-23.7-17.5c-5.8-3.8-12.4-6.2-18.5-9.5c-4-2.2-7.5-5.8-11.8-7.2
			c-13.8-4.6-27.8-8.8-41.9-12.4c-4.1-1-5.7-2.6-6-6.3c0-0.4,0-0.8,0-1.3c0.3-3.5-0.1-7.3,1-10.6c3.1-10.1,7-19.9,10.1-30
			c3.7-12.2,8.2-24,14.4-35.3c6.7-12.3,12.1-25.3,18.1-38c0-0.4,0-0.8,0-1.3c0.7-2.7,1.4-5.4,2.1-8.1c0-0.4,0-0.8,0-1.3
			c0-4.5,0.9-9.1-0.2-13.3c-1.3-5.3-3.5-10.7-6.5-15.3c-6.5-10.3-28-10.3-35.8-0.9c-6.2,7.4-13.4,14.3-18.5,22.4
			c-6.5,10.3-11.5,21.6-16.9,32.6c-4.7,9.7-8.8,19.7-13.7,29.2c-9,17.5-18.3,34.9-27.8,52.2c-2.4,4.4-5.6,8.3-8.7,12.2
			c-0.4,0.5-3.4,0-3.5-0.3c-0.5-4.5-0.1-8.7,2.9-12.5c2.2-2.7,4.5-5.5,6.2-8.5c3.3-5.7,6.2-11.6,9.4-17.4c3.8-7,7.7-13.9,11.4-21
			c5.3-10.1,10.5-20.3,15.7-30.4c0.3-0.3,0.6-0.6,0.9-0.9c3.6-7.2,6.7-14.7,10.8-21.6c6.8-11.4,14-22.5,19.5-34.7
			c2.5-5.5,2.1-10.9,1.4-16.4c-0.3-2.4-1.1-5.3-2.7-6.7c-11.4-9.9-22.6-10.4-36.3-2.7c-0.3,0.3-0.6,0.6-0.9,0.9
			C351,40,341.7,47.1,334,56.4c-0.3,0.3-0.6,0.6-0.9,0.9c-6.3,7.7-11.9,15.9-15.7,25.1c-0.3,0.3-0.6,0.6-0.9,0.9
			c-1,1.1-2.3,2-3.1,3.3c-3.8,6.6-6.7,13.8-11.3,19.8c-11.1,14.4-18.7,30.5-25.7,47c-5.3,12.3-9.2,25.2-15.2,37.1
			c-3,6-8.6,11.3-14.3,15.2c-6.2,4.3-14.1-0.2-15.5-7.7c-1.4-7.4-3.9-14.5-3.3-22.4c0.8-11.7-1.2-23.7,0.8-35.1
			c1.2-7.2,0.7-14.2,1.5-21.2c0.5-3.9,1.3-7.8,1.6-11.8c0.5-6.3-0.3-13,1.4-19c2.5-9.2,6.5-18,10.1-27c2.7-6.7,5.8-13.3,4.5-20.9
			c-0.5-2.7-1-5.5-2.1-8.1c-1.3-3.2-2.4-7.5-4.9-8.9c-10.6-5.7-21.9-7.2-33.6-2.5c-11.3,4.6-18.8,13.3-24.5,23.3
			c-4.4,7.8-7,16.6-9.8,25.2c-2.2,6.8-3.9,13.8-5.3,20.8c-1.9,9.9-3.4,19.8-4.8,29.8c-0.7,5.2-1.1,10.5-1.4,15.7
			c-0.7,10.5-1.2,21.1-1.8,31.6c-0.1,0.9-0.6,1.9-0.9,2.8c0,0.4,0,0.8,0,1.3c0.3,7.1,0.4,14.3,1.1,21.4c1.2,12.6,2.7,25.2,4,37.8
			c1.1,10.9,1.5,22,3.3,32.8c2,11.5,2.6,22.9,0.8,34.4c-1.7,11.3-10.4,18.7-21.8,18.6c-10.6-0.1-19.6-3.9-26.9-11.6
			c-0.3-0.3-0.6-0.6-0.9-0.9c-3.3-4.1-6.5-8.3-9.9-12.2c-6-6.8-11.2-14.6-18.3-20c-10.9-8.3-23.3-13.8-38-11.4
			c-21.1,3.5-26.1,22.9-16.5,36.8c5.9,8.5,13.5,16.3,21.6,22.9c14.7,12.1,25.1,27.2,34,43.6c7.5,13.8,14.8,27.9,23,41.3
			c9.8,16,24.1,27.8,38.7,39.2c4.7,3.7,9.1,7.6,13.7,11.4c8.1,6.8,13.3,15.8,17.8,24.9c5.9,12.1,10.7,24.9,15.7,37.5
			c4.3,10.7,10.5,20.4,21.5,24c11.5,3.7,23.9,5.8,36,6.4c9.5,0.5,19.3-2.2,28.8-4c2.2-0.4,5.3-3.2,5.5-5.2
			c0.9-6.8,1.2-13.8,0.8-20.7c-0.6-9.2-2.2-18.4-3.4-27.6c-1.5-3.5-3.2-6.9-4.5-10.5c-0.3-0.8,0.6-2.7,1.4-3c4.9-2.2,9.9-4.3,15-6
			c5.4-1.8,11-3.2,16.5-4.4c14.9-3.3,29.9-6.6,44.9-9.6c6.3-1.3,12.7-1.9,19-2.9c1.2-0.2,2.5-0.2,3.4-0.8c4.6-2.9,6.7-0.6,6.8,3.7
			c0.1,5.9-0.6,11.9-1,17.8c0.4,1.4,0.9,2.9,1.2,4.3c1.4,8.4,2.6,16.9,4.2,25.3c1.2,6.6,4.1,8.1,10.5,6c5.5-1.8,11-3.6,16.5-5.6
			c7.5-2.7,12.5-9.8,12.3-17.8c-0.1-6.5-0.7-12.9-1-19.4c0-0.4,0-0.8,0-1.3c-0.3-1.7-0.7-3.3-1-4.9c0-0.4,0-0.8,0-1.3
			c-0.3-4.8-0.7-9.5-1-14.3c0-0.4,0-0.8,0-1.3c1.1-6.8,1.5-13.8,3.6-20.2c3.8-11.4,6.4-22.8,4.7-34.8c-1.2-8.3-2.8-16.5-4.6-24.6
			c-1.6-7.4-3.9-14.8-5.7-22.2c-2.8-11.6-5.4-23.3-8.4-34.9c-1.9-7.1,0.2-10,7.1-8.2c14.8,3.8,29.4,8.1,44.1,12
			c10,2.7,19.9,6.2,30,7.2c8.9,0.9,18.7,3.3,26.8-3.8c0.3-0.3,0.6-0.6,0.9-0.9C537.9,307.1,536.2,298.4,531.7,291.2z M267.3,466
			c-6.9,0-12.9-6-13-12.8c-0.1-6.9,5.9-13,12.7-13.1c6.9-0.1,13.1,5.8,13.2,12.6C280.4,459.8,274.4,466,267.3,466z M372.5,395
			c-17.1,4.4-34.3,8.6-51.4,13c-5,1.3-9.9,3.5-14.9,4.6c-9.3,1.8-18.6,3.1-27.9,4.6c0-0.2,0-0.5,0-0.7c0.7-5,2.3-10,1.9-14.9
			c-0.8-8.7,3-15.6,7-22.6c6-10.6,13-20.2,23.6-26.8c6.8-4.2,14-6,21.8-5.3c8.1,0.8,15.8,2.5,22.3,8.4c8.5,7.7,14.2,17,17.8,27.7
			c0.7,2.1,1,4.4,2.1,6.1C377.1,392.5,375.5,394.2,372.5,395z M395.9,433.9c-6.9,0-12.9-6-13-12.8c-0.1-7.1,6.1-13.2,13.2-13.1
			c6.8,0.1,12.8,6.2,12.7,13.1C408.8,427.9,402.8,433.9,395.9,433.9z"/>
		<path fill="#14100D" d="M375.9,394.4c0,0,0.4-0.1,1.3-0.3c0.8-0.2,2-0.5,3.5-0.7c3.1-0.6,7.5-1.3,12.9-1.3c2.7,0,5.6,0.3,8.7,0.9
			c1.5,0.3,3.1,0.7,4.6,1.2c1.6,0.6,3.1,1.2,4.7,2c3,1.6,6,3.9,8.4,6.7c2.4,2.8,4.3,6.1,5.6,9.6l0.3,0.7l0.2,0.7
			c0.1,0.4,0.3,0.8,0.4,1.3c0.3,0.9,0.5,1.9,0.6,2.8c0.3,1.9,0.5,3.7,0.4,5.6c-0.1,3.7-1,7.4-2.6,10.5c-0.8,1.6-1.7,3-2.7,4.4
			c-1,1.3-2.1,2.5-3.3,3.6c-1.1,1.1-2.4,2-3.6,2.9c-1.2,0.8-2.4,1.5-3.6,2.2c-4.8,2.5-9.3,3.4-12.4,3.9c-1.5,0.2-2.8,0.4-3.6,0.4
			c-0.8,0.1-1.3,0.1-1.3,0.1s0.4-0.1,1.3-0.2c0.8-0.1,2-0.3,3.6-0.6c3-0.6,7.4-1.8,11.9-4.5c2.3-1.3,4.5-3.1,6.5-5.3
			c1-1.1,1.9-2.3,2.7-3.6c0.8-1.3,1.5-2.7,2.1-4.2c1.1-3,1.6-6.2,1.6-9.5c0-1.6-0.3-3.3-0.6-4.9c-0.2-0.8-0.4-1.6-0.6-2.4
			c-0.1-0.4-0.3-0.8-0.4-1.3c-0.1-0.2-0.1-0.5-0.2-0.6l-0.2-0.6c-1.2-3.2-2.7-6.2-4.7-8.9c-1.9-2.7-4.4-5-7-6.8
			c-2.7-1.8-5.6-3.1-8.5-3.9c-2.9-0.8-5.8-1.2-8.4-1.3c-2.7-0.2-5.1-0.1-7.3,0.1c-2.2,0.2-4,0.4-5.6,0.6c-1.5,0.2-2.7,0.5-3.6,0.6
			C376.3,394.4,375.9,394.4,375.9,394.4z"/>
		<path fill="#14100D" d="M276.5,418.3c0,0-0.4,0.1-1.3,0.2c-0.8,0.1-2,0.4-3.5,0.7c-1.5,0.3-3.4,0.8-5.4,1.5
			c-2.1,0.7-4.4,1.5-6.8,2.6c-2.4,1.1-4.9,2.5-7.3,4.4c-2.4,1.8-4.7,4.1-6.5,6.7c-1.8,2.7-3.2,5.7-4,9c-0.8,3.2-1.1,6.6-1.1,10
			l0,0.6c0,0.1,0,0.4,0,0.6c0,0.4,0.1,0.9,0.1,1.3c0.1,0.8,0.2,1.6,0.3,2.4c0.3,1.6,0.7,3.2,1.3,4.8c1.2,3.1,2.9,5.9,5,8.3
			c1.1,1.2,2.2,2.2,3.5,3.2c1.2,0.9,2.5,1.7,3.9,2.4c2.7,1.3,5.4,2.2,8,2.5c5.2,0.8,9.7,0.3,12.8-0.2c1.5-0.3,2.7-0.6,3.5-0.8
			c0.8-0.2,1.2-0.3,1.2-0.3s-0.4,0.1-1.2,0.4c-0.8,0.3-2,0.6-3.5,0.9c-3,0.7-7.5,1.5-12.9,1c-1.4-0.1-2.7-0.4-4.2-0.7
			c-1.4-0.4-2.9-0.7-4.4-1.3c-1.5-0.6-2.9-1.3-4.4-2.2c-1.4-0.9-2.8-1.9-4.1-3.1c-2.6-2.3-4.8-5.4-6.3-8.8c-0.7-1.7-1.3-3.5-1.7-5.4
			c-0.2-0.9-0.3-1.9-0.4-2.8c-0.1-0.5-0.1-0.9-0.1-1.3l0-0.7l0-0.7c-0.1-3.7,0.5-7.5,1.7-11c1.2-3.5,3.1-6.7,5.3-9.3
			c1.1-1.3,2.3-2.5,3.6-3.6c1.3-1.1,2.5-2,3.9-2.9c2.6-1.7,5.2-3,7.7-4c5-2,9.4-3,12.4-3.6c1.5-0.3,2.7-0.5,3.6-0.6
			C276.1,418.4,276.5,418.3,276.5,418.3z"/>
		<path fill-rule="evenodd" clip-rule="evenodd" fill="#FFFFFF" d="M399.8,417.8c-2.1,0-3.9-1.8-3.9-3.9c0-2.1,1.8-4,4-3.9
			c2.1,0,3.8,1.9,3.8,3.9C403.7,416,401.9,417.8,399.8,417.8z"/>
		<path fill-rule="evenodd" clip-rule="evenodd" fill="#FFFFFF" d="M270.7,450.5c-2.1,0-3.9-1.8-3.9-3.9c0-2.1,1.8-4,4-3.9
			c2.1,0,3.8,1.9,3.8,3.9C274.6,448.7,272.8,450.5,270.7,450.5z"/>
	</g>
</g>
</svg>
