<?xml version="1.0" encoding="utf-8"?>
<!-- Generator: Adobe Illustrator 16.0.0, SVG Export Plug-In . SVG Version: 6.00 Build 0)  -->
<!DOCTYPE svg PUBLIC "-//W3C//DTD SVG 1.1//EN" "http://www.w3.org/Graphics/SVG/1.1/DTD/svg11.dtd">
<svg version="1.1" xmlns="http://www.w3.org/2000/svg" xmlns:xlink="http://www.w3.org/1999/xlink" x="0px" y="0px"
	 width="566.93px" height="566.93px" viewBox="0 0 566.93 566.93" enable-background="new 0 0 566.93 566.93" xml:space="preserve">
<g id="fond" display="none">
	
		<rect x="-5393.873" y="-7908" display="inline" fill-rule="evenodd" clip-rule="evenodd" fill="#58595B" width="16654.492" height="16572.797"/>
</g>
<g id="en_cours">
</g>
<g id="fini">
	<g>
		<path fill="#E5E2D3" d="M396.373,269.956l11.005-3.73l27.664-9.377c13.861-4.699,28.908,2.729,33.609,16.591l0.089,0.271
			c4.703,13.862-2.726,28.912-16.589,33.614l-26.57,9.005c-0.317,2.021-0.867,3.992-1.633,5.88l39.306-7.129
			c14.37-2.605,28.011,6.281,30.473,19.849l0.046,0.266c2.463,13.568-7.189,26.68-21.559,29.289l-72.552,13.156l59.705-9.276
			c14.492-2.25,27.878,6.466,29.899,19.467l0.039,0.257c2.022,13.004-8.088,25.372-22.583,27.624l-74.348,11.553l47.648-2.562
			c12.184-0.691,22.621,8.625,23.315,20.808l0.012,0.24c0.671,11.787-8.037,21.915-19.637,23.19l0.093,0.016
			c-48.184,6.447-148.529,18.751-148.529,18.751s-46.188,4.984-77.367-26.039L72.773,489.976V333.465
			c0,0,83.774,5.397,105.413-0.057c21.641-5.455,37.693-56.203,59.182-61.619C260.228,266.027,396.373,269.956,396.373,269.956z"/>
		
			<line fill="#E5E2D3" stroke="#000000" stroke-width="8" stroke-linecap="round" stroke-linejoin="round" stroke-miterlimit="10" x1="233.981" y1="456.632" x2="72.773" y2="489.976"/>
		
			<path fill="#E5E2D3" stroke="#000000" stroke-width="8" stroke-linecap="round" stroke-linejoin="round" stroke-miterlimit="10" d="
			M385.022,379.915c-14.496,2.253-24.604,14.62-22.581,27.624l0.038,0.258c2.02,13.002,15.406,21.719,29.896,19.467l74.348-11.553
			c14.495-2.252,24.604-14.62,22.583-27.624l-0.039-0.257c-2.021-13.001-15.407-21.717-29.899-19.467L385.022,379.915z"/>
		
			<path fill="#E5E2D3" stroke="#000000" stroke-width="8" stroke-linecap="round" stroke-linejoin="round" stroke-miterlimit="10" d="
			M389.542,328.448c-14.37,2.606-24.022,15.718-21.561,29.287l0.046,0.27c2.46,13.564,16.104,22.452,30.47,19.846l73.717-13.367
			c14.369-2.609,24.022-15.721,21.559-29.289l-0.046-0.266c-2.462-13.567-16.104-22.454-30.473-19.849L389.542,328.448z"/>
		
			<path fill="#E5E2D3" stroke="#000000" stroke-width="8" stroke-linecap="round" stroke-linejoin="round" stroke-miterlimit="10" d="
			M363.927,280.954c-13.864,4.698-21.292,19.746-16.591,33.61l0.089,0.273c4.7,13.861,19.747,21.288,33.607,16.59l71.119-24.104
			c13.863-4.702,21.292-19.752,16.589-33.614l-0.089-0.271c-4.701-13.862-19.749-21.29-33.609-16.591L363.927,280.954z"/>
		
			<path fill="#E5E2D3" stroke="#000000" stroke-width="8" stroke-linecap="round" stroke-linejoin="round" stroke-miterlimit="10" d="
			M443.806,468.956c-48.184,6.447-148.529,18.751-148.529,18.751s-76.28,8.243-98.956-62.291"/>
		
			<path fill="#E5E2D3" stroke="#000000" stroke-width="8" stroke-linecap="round" stroke-linejoin="round" stroke-miterlimit="10" d="
			M377.519,428.251c-12.186,0.69-21.503,11.13-20.809,23.314l0.011,0.239c0.694,12.186,11.131,21.502,23.316,20.811l62.505-3.55
			c12.185-0.69,21.503-11.131,20.809-23.315l-0.012-0.24c-0.694-12.183-11.132-21.499-23.315-20.808L377.519,428.251z"/>
		
			<path fill="#E5E2D3" stroke="#000000" stroke-width="8" stroke-linecap="round" stroke-linejoin="round" stroke-miterlimit="10" d="
			M72.773,333.465c0,0,83.774,5.397,105.413-0.057c21.641-5.455,24.218-50.398,68.253-75.821
			c12.526-7.232,53.428-52.382,62.164-66.726s13.487-39.484,38.444-33.212c30.228,7.597,18.763,40.572,10.077,59.461
			c-33.823,73.56-39.052,97.115-39.052,97.115s-1.377,70.952-36.606,79.832"/>
		
			<line fill="#E5E2D3" stroke="#000000" stroke-width="8" stroke-linecap="round" stroke-linejoin="round" stroke-miterlimit="10" x1="334.485" y1="268.79" x2="396.373" y2="269.956"/>
	</g>
	
		<path fill="#2268A8" stroke="#000000" stroke-width="7.1267" stroke-linecap="round" stroke-linejoin="round" stroke-miterlimit="10" d="
		M149.582,476.813c1.392,13.877-8.729,26.254-22.605,27.646l-46.659,4.681c-13.877,1.394-26.255-8.728-27.647-22.604L38.337,343.671
		c-1.392-13.877,8.729-26.255,22.606-27.646l46.659-4.682c13.877-1.393,26.254,8.729,27.646,22.605L149.582,476.813z"/>
</g>
</svg>
