<?xml version="1.0" encoding="utf-8"?>
<!-- Generator: Adobe Illustrator 16.0.0, SVG Export Plug-In . SVG Version: 6.00 Build 0)  -->
<!DOCTYPE svg PUBLIC "-//W3C//DTD SVG 1.1//EN" "http://www.w3.org/Graphics/SVG/1.1/DTD/svg11.dtd">
<svg version="1.1" xmlns="http://www.w3.org/2000/svg" xmlns:xlink="http://www.w3.org/1999/xlink" x="0px" y="0px"
	 width="566.93px" height="566.93px" viewBox="0 0 566.93 566.93" enable-background="new 0 0 566.93 566.93" xml:space="preserve">
<g id="fond" display="none">
	
		<rect x="-5393.873" y="-9178" display="inline" fill-rule="evenodd" clip-rule="evenodd" fill="#58595B" width="16654.492" height="16572.797"/>
</g>
<g id="en_cours">
</g>
<g id="fini">
	<g>
		
			<path fill="#CCAC6C" stroke="#000000" stroke-width="8" stroke-linecap="round" stroke-linejoin="round" stroke-miterlimit="10" d="
			M469.802,155.323c-4.391,92.996-23.047,192.925-9.515,222.851c22.267,49.242,15.951,87.588-2.771,99.543
			c-45.152,28.832-93.158-2.481-129.248-2.481c-36.09,0-74.436,31.128-101.503,35.639c-27.067,4.512-84.851-6.492-91.579-10.376
			c-6.728-3.884-14.887,5.865-26.616,5.865s-48.722-11.278-48.722-26.616s35.069-16.854,45.338-22.782
			c10.268-5.928,56.616-20.075,92.707-41.278c19.399-11.396,83.275-69.72,117.994-81.221c9.676-3.205,3.234-179.143,3.234-179.143"
			/>
		
			<path fill="#CCAC6C" stroke="#000000" stroke-width="8" stroke-linecap="round" stroke-linejoin="round" stroke-miterlimit="10" d="
			M402.091,232.385c0,0-1.305,39.148,4.567,56.766s6.525,24.795,6.525,31.318c0,20.228-17.617,33.934-17.617,33.934"/>
	</g>
</g>
</svg>
