<?xml version="1.0" encoding="utf-8"?>
<!-- Generator: Adobe Illustrator 16.0.0, SVG Export Plug-In . SVG Version: 6.00 Build 0)  -->
<!DOCTYPE svg PUBLIC "-//W3C//DTD SVG 1.1//EN" "http://www.w3.org/Graphics/SVG/1.1/DTD/svg11.dtd">
<svg version="1.1" xmlns="http://www.w3.org/2000/svg" xmlns:xlink="http://www.w3.org/1999/xlink" x="0px" y="0px"
	 width="283.465px" height="566.93px" viewBox="0 0 283.465 566.93" enable-background="new 0 0 283.465 566.93"
	 xml:space="preserve">
<g id="fond" display="none">
	
		<rect x="-6843.605" y="-9178" display="inline" fill-rule="evenodd" clip-rule="evenodd" fill="#58595B" width="16654.492" height="16572.797"/>
</g>
<g id="en_cours">
</g>
<g id="fini">
	<g>
		<path d="M161.759,259.994c6.081,0,11.309,0.444,15.686,1.335c4.374,0.89,7.454,1.707,9.234,2.447l-3.782,17.8
			c-1.78-0.89-4.304-1.742-7.565-2.559c-3.265-0.813-7.27-1.224-12.015-1.224c-9.644,0-16.392,2.635-20.247,7.898
			c-3.859,5.267-5.785,12.349-5.785,21.249v10.012h44.5v17.355h-44.5v98.344h-20.692V306.496c0-14.831,3.633-26.29,10.902-34.376
			C134.76,264.037,146.184,259.994,161.759,259.994z"/>
	</g>
	<g>
		<path d="M242.515,262.705c0,1.634,0,3.226,0,4.783s-0.076,3.08-0.222,4.562c-0.595,7.714-2.302,15.317-5.118,22.806
			c-2.819,7.492-6.23,14.573-10.235,21.249l-16.02-5.118c3.115-6.675,5.451-13.312,7.009-19.913
			c1.558-6.599,2.336-12.794,2.336-18.579c0-1.48-0.039-3.076-0.111-4.783c-0.077-1.704-0.188-3.372-0.334-5.006H242.515z"/>
	</g>
</g>
</svg>
