<?xml version="1.0" encoding="utf-8"?>
<!-- Generator: Adobe Illustrator 16.0.0, SVG Export Plug-In . SVG Version: 6.00 Build 0)  -->
<!DOCTYPE svg PUBLIC "-//W3C//DTD SVG 1.1//EN" "http://www.w3.org/Graphics/SVG/1.1/DTD/svg11.dtd">
<svg version="1.1" xmlns="http://www.w3.org/2000/svg" xmlns:xlink="http://www.w3.org/1999/xlink" x="0px" y="0px"
	 width="566.93px" height="566.93px" viewBox="0 0 566.93 566.93" enable-background="new 0 0 566.93 566.93" xml:space="preserve">
<g id="fond" display="none">
	
		<rect x="-8001.873" y="-11116" display="inline" fill-rule="evenodd" clip-rule="evenodd" fill="#58595B" width="16654.492" height="16572.797"/>
</g>
<g id="en_cours">
</g>
<g id="fini">
	<g>
		<g>
			<g>
				<path fill="#AB2E23" d="M153.513,81.622c-0.793,0-1.575-0.138-2.323-0.407c-0.282-0.101-0.585-0.235-0.889-0.395l-13.565-7.353
					l-15.773,4.977c-0.452,0.141-0.901,0.208-1.354,0.208c-1.969,0-3.693-1.261-4.29-3.137c-0.693-2.183,0.359-4.533,2.446-5.47
					l12.578-5.653l-4.148-13.153c-0.74-2.364,0.574-4.892,2.926-5.642c0.455-0.143,0.909-0.213,1.367-0.213
					c1.767,0,3.377,1.041,4.104,2.651l6.78,15.092l14.463,5.217c1.719,0.62,3.094,1.872,3.871,3.527
					c0.777,1.654,0.863,3.513,0.243,5.231C158.971,79.806,156.385,81.622,153.513,81.622
					C153.513,81.622,153.514,81.622,153.513,81.622z"/>
				<path d="M130.487,49.385c0.194,0,0.375,0.114,0.457,0.296l7.474,16.635l16.059,5.792c1.476,0.532,2.241,2.162,1.708,3.637
					c-0.418,1.157-1.508,1.878-2.672,1.878c-0.32,0-0.646-0.055-0.965-0.17c-0.131-0.047-0.27-0.111-0.389-0.174l-15.009-8.136
					l-17.391,5.487c-0.05,0.016-0.101,0.023-0.15,0.023c-0.213,0-0.41-0.137-0.478-0.35c-0.078-0.246,0.043-0.506,0.271-0.608
					l15.826-7.112l-5.218-16.547c-0.083-0.264,0.063-0.544,0.327-0.628C130.386,49.393,130.437,49.385,130.487,49.385
					 M130.487,41.385c-0.865,0-1.722,0.132-2.548,0.391c-4.477,1.429-6.957,6.201-5.564,10.65l3.083,9.777l-9.335,4.195
					c-3.938,1.767-5.925,6.207-4.617,10.326c1.127,3.547,4.384,5.929,8.103,5.929c0.855,0,1.702-0.129,2.519-0.382l14.193-4.479
					l12.026,6.519c0.032,0.018,0.064,0.034,0.096,0.051c0.469,0.246,0.945,0.456,1.417,0.625c1.157,0.418,2.396,0.635,3.654,0.635
					c4.552,0,8.65-2.878,10.196-7.161c0.984-2.723,0.847-5.667-0.384-8.29c-1.231-2.621-3.411-4.606-6.135-5.589l-12.866-4.641
					l-6.083-13.539C136.865,43.351,133.823,41.385,130.487,41.385L130.487,41.385z"/>
			</g>
			
				<path fill="#358C5E" stroke="#000000" stroke-width="8" stroke-linecap="round" stroke-linejoin="round" stroke-miterlimit="10" d="
				M331.597,189.666c-1.674-11.909-5.918-22.587-10.985-31.758c-5.111-9.187-11.173-16.89-17.35-23.554
				c-6.185-6.666-12.518-12.31-18.724-17.164c-12.429-9.686-24.118-16.559-34.083-21.551c-5.196-2.697-9.775-5.127-13.768-7.295
				c-5.308-29.396-65.444-25.006-75.359-20.374c-5.532,2.591-6.772,5.765-7.315,7.157c-0.542,1.395-1.775,4.571,0.547,10.221
				c4.368,10.601,49.503,58.28,72.552,32.959c2.999,0.971,6.262,2.271,9.693,4.02c4.238,2.143,8.792,4.805,13.576,7.916
				c4.777,3.117,9.812,6.68,14.773,10.885c4.964,4.19,9.94,8.926,14.497,14.297c4.515,5.385,8.725,11.343,11.865,17.828
				c0.712,1.641,1.556,3.26,2.125,4.951c0.307,0.84,0.662,1.674,0.945,2.521c0.257,0.851,0.516,1.705,0.775,2.563
				c0.297,0.851,0.479,1.72,0.669,2.588c0.184,0.869,0.428,1.733,0.582,2.608c0.229,1.755,0.597,3.51,0.633,5.288
				c0.34,3.544,0.078,7.127-0.382,10.728c-0.155,0.897-0.312,1.799-0.468,2.704c-0.056,0.453-0.17,0.904-0.299,1.354l-0.354,1.355
				l-0.341,1.359l-0.058,0.233l-0.271,0.854c-0.38,1.201-0.762,2.405-1.145,3.614c-0.094,0.279-0.196,0.658-0.283,0.855l-0.26,0.605
				l-0.505,1.214l-0.487,1.221c-0.14,0.396-0.408,0.872-0.604,1.305c-0.419,0.884-0.84,1.771-1.262,2.661
				c-0.473,0.834-0.946,1.67-1.421,2.508c-1.973,3.258-4.208,6.192-6.728,8.712c-5.021,5.063-11.297,8.34-18.82,10.276
				c-3.763,0.952-7.841,1.514-12.137,1.703c-4.3,0.184-8.837-0.076-13.464-0.619c-2.307-0.242-4.669-0.668-7.028-1.024
				c-2.377-0.47-4.756-0.903-7.163-1.51c-4.802-1.145-9.652-2.541-14.522-4.187c-2.437-0.767-4.865-1.729-7.303-2.598
				c-2.426-0.988-4.864-1.898-7.288-2.967c-1.214-0.518-2.436-1.007-3.648-1.546l-3.634-1.643l-0.91-0.409l-1.65-0.718l-2.023-0.866
				l-2.024-0.866c-0.706-0.295-1.233-0.554-2.278-0.919c-1.863-0.682-3.735-1.35-5.613-2.001l-1.41-0.485
				c-0.465-0.156-0.888-0.258-1.335-0.387l-2.651-0.728c-3.507-1.042-7.161-1.705-10.786-2.429
				c-7.335-1.175-14.848-1.797-22.435-1.491c-7.588,0.392-15.203,1.559-22.66,3.609c-7.475,1.983-14.7,5.167-21.491,9.093
				c-6.781,3.959-13.127,8.788-18.688,14.448c-5.508,5.712-10.225,12.182-13.955,19.11c-1.922,3.443-3.403,7.075-4.836,10.694
				c-0.617,1.84-1.217,3.683-1.8,5.525c-0.317,0.917-0.521,1.853-0.749,2.784l-0.661,2.797c-0.206,0.933-0.452,1.861-0.614,2.796
				l-0.429,2.806c-0.244,1.869-0.609,3.74-0.682,5.597c-0.116,1.857-0.231,3.712-0.346,5.563c-0.024,1.838,0.024,3.664,0.05,5.489
				c0.028,0.909,0.012,1.827,0.084,2.725l0.237,2.683c0.184,1.778,0.29,3.58,0.563,5.321c0.587,3.468,1.081,6.964,1.979,10.266
				c0.42,1.663,0.789,3.35,1.268,4.974c0.501,1.609,1.036,3.206,1.558,4.799l0.792,2.382l0.915,2.297
				c0.617,1.523,1.233,3.044,1.847,4.561c1.082,2.506,2.16,5.001,3.232,7.485c1.076,2.501,2.24,5.089,3.121,7.371
				c0.949,2.346,1.872,4.691,2.849,7.01c0.97,2.318,1.822,4.753,2.734,7.107c1.872,4.732,3.382,9.472,5.013,14.146
				c0.731,2.35,1.459,4.684,2.181,7.004c0.364,1.161,0.727,2.318,1.089,3.472c0.322,1.158,0.642,2.313,0.961,3.464
				c2.661,9.206,4.596,18.26,6.104,27.043c1.469,8.79,2.372,17.343,2.59,25.526c0.139,2.063,0.029,4.063,0.047,6.073
				c-0.014,1,0.009,2.006-0.032,2.992c-0.055,0.984-0.109,1.964-0.163,2.938c-0.044,0.979-0.088,1.952-0.131,2.92
				c-0.04,0.971-0.173,1.912-0.253,2.863c-0.211,1.889-0.298,3.801-0.625,5.62c-1.004,7.375-2.566,14.304-4.698,20.627
				c-4.219,12.661-10.272,23.074-16.493,30.817c-6.122,7.873-12.223,13.178-16.474,16.674c-1.086,0.858-2.045,1.616-2.873,2.271
				c-0.854,0.626-1.574,1.153-2.152,1.577c-1.168,0.851-1.771,1.29-1.771,1.29s0.705-0.243,2.07-0.713
				c0.687-0.238,1.54-0.535,2.553-0.887c0.994-0.406,2.146-0.876,3.451-1.409c5.175-2.224,12.749-5.929,21.292-12.638
				c8.543-6.637,17.928-16.527,25.656-30.059c0.918-1.705,1.907-3.428,2.81-5.221c0.863-1.815,1.74-3.659,2.629-5.528
				c0.808-1.9,1.582-3.852,2.374-5.836c0.779-1.987,1.409-4.041,2.133-6.113c0.754-2.069,1.26-4.208,1.897-6.365
				c0.292-1.081,0.639-2.168,0.889-3.27c0.253-1.104,0.507-2.214,0.763-3.331c0.246-1.122,0.493-2.251,0.741-3.386
				c0.232-1.137,0.399-2.282,0.602-3.436c0.361-2.307,0.849-4.652,1.083-7.016c0.271-2.366,0.6-4.77,0.825-7.192
				c0.177-2.419,0.37-4.868,0.517-7.347c0.153-4.931,0.317-9.988,0.131-15.078c-0.029-1.278-0.058-2.562-0.087-3.851
				c-0.025-1.291-0.143-2.565-0.211-3.858c-0.167-2.578-0.3-5.198-0.564-7.805c-0.286-2.604-0.575-5.227-0.865-7.869
				c-0.28-2.651-0.741-5.264-1.111-7.932c-0.197-1.331-0.395-2.667-0.594-4.007c-0.239-1.327-0.478-2.657-0.718-3.993
				c-0.486-2.668-0.995-5.359-1.549-8.049c-1.23-5.327-2.367-10.785-3.847-16.162c-0.727-2.708-1.368-5.416-2.183-8.173
				c-0.799-2.76-1.66-5.518-2.503-8.3c-0.846-2.869-1.713-5.35-2.578-7.977c-0.875-2.641-1.753-5.294-2.635-7.958
				c-0.326-1.083-0.652-2.169-0.979-3.257l-0.497-1.625l-0.365-1.631c-0.25-1.086-0.488-2.174-0.762-3.252
				c-0.238-1.08-0.364-2.158-0.563-3.233c-0.458-2.158-0.526-4.283-0.77-6.409c-0.099-1.061-0.041-2.1-0.084-3.147l-0.04-1.567
				c-0.011-0.521,0.062-1.025,0.084-1.539c0.07-4.135,0.912-8.037,1.923-11.768l0.416-1.386c0.138-0.462,0.247-0.935,0.452-1.366
				c0.364-0.882,0.712-1.767,1.044-2.657l1.254-2.537l0.302-0.638l0.373-0.598l0.725-1.204c1.951-3.192,4.313-6.108,7.054-8.691
				c2.752-2.577,5.903-4.793,9.332-6.632c3.44-1.818,7.135-3.315,11.074-4.3c3.929-1.001,8.037-1.577,12.235-1.754
				c4.214-0.069,8.504,0.194,12.81,0.859c2.146,0.461,4.309,0.781,6.445,1.439l1.609,0.425c0.26,0.072,0.556,0.134,0.789,0.208
				l0.678,0.228c0.904,0.3,1.814,0.582,2.731,0.851c0.36,0.069,1.17,0.425,1.824,0.682l2.042,0.822l2.042,0.821l0.51,0.205
				c0.56,0.24-0.213-0.097-0.395-0.176l0.259,0.111l1.105,0.471l4.418,1.879c1.478,0.617,2.983,1.189,4.472,1.784
				c2.966,1.203,6.045,2.215,9.063,3.306c3.087,0.984,6.122,2.034,9.259,2.903c3.095,0.934,6.259,1.747,9.417,2.527
				c1.582,0.384,3.198,0.704,4.792,1.054l2.399,0.508l2.432,0.438c6.457,1.187,13.053,2.062,19.777,2.357
				c6.716,0.318,13.529,0.238,20.427-0.54c6.893-0.787,13.848-2.21,20.664-4.481c6.814-2.255,13.472-5.418,19.564-9.461
				c6.099-4.024,11.613-8.928,16.169-14.357c4.581-5.418,8.258-11.277,11.18-17.193c0.687-1.489,1.37-2.974,2.052-4.453
				c0.61-1.488,1.167-2.979,1.738-4.463c0.276-0.76,0.576-1.44,0.827-2.265l0.76-2.404l0.738-2.399l0.36-1.196
				c0.121-0.402,0.161-0.644,0.246-0.973c0.296-1.233,0.591-2.462,0.885-3.687l0.22-0.918c-0.011,0.044,0.292-1.145,0.189-0.782
				l0.054-0.29l0.106-0.582l0.416-2.318l0.401-2.311c0.141-0.766,0.264-1.534,0.324-2.318c0.149-1.558,0.298-3.109,0.446-4.655
				C332.691,201.762,332.564,195.582,331.597,189.666z"/>
			<circle cx="208.974" cy="80.501" r="5.5"/>
			<circle cx="194.808" cy="107.501" r="5.5"/>
		</g>
		<g>
			
				<path fill="#7D9E81" stroke="#000000" stroke-width="8" stroke-linecap="round" stroke-linejoin="round" stroke-miterlimit="10" d="
				M521.64,221.188c-1.795-8.502-4.028-16.472-6.432-23.907c-2.385-7.442-4.983-14.344-7.623-20.712
				c-5.236-12.756-10.6-23.397-15.127-32.044c-1.038-2.049-1.987-3.998-2.864-5.859c19.14-19.463-16.856-60.756-25.578-65.4
				c-4.835-2.57-7.777-1.749-9.067-1.388c-1.292,0.361-4.231,1.189-7.029,5.896c-5.206,8.774-14.964,66.024,14.789,69.672
				c1.927,2.729,3.945,5.906,5.929,9.552c2.155,4.005,4.318,8.549,6.587,13.502c2.247,4.964,4.59,10.355,6.79,16.199
				c2.199,5.845,4.32,12.113,6.213,18.773c1.872,6.664,3.473,13.729,4.696,21.112c1.186,7.388,1.879,15.106,2.044,23.038
				c0.006,3.964-0.045,7.986-0.372,12.038c-0.1,2.03-0.37,4.057-0.548,6.104c-0.135,1.018-0.268,2.04-0.402,3.064l-0.2,1.539
				l-0.254,1.535c-0.156,0.945-0.314,1.894-0.473,2.846l-0.334,1.72c-0.055,0.265-0.114,0.628-0.165,0.812l-0.148,0.592
				c-0.105,0.406-0.179,0.765-0.302,1.214l-0.362,1.341c-0.264,0.882-0.515,1.769-0.817,2.627c-1.163,3.458-2.653,6.717-4.495,9.671
				c-3.65,5.94-8.637,10.707-14.906,14.227c-6.242,3.543-13.792,5.851-22.046,6.825c-4.119,0.511-8.41,0.649-12.783,0.576
				c-4.379-0.084-8.847-0.447-13.354-1.082c-4.505-0.635-9.057-1.469-13.602-2.565c-4.544-1.1-9.087-2.42-13.614-3.897l-3.813-1.282
				l-1.914-0.629l-0.238-0.08l-0.334-0.099l-0.668-0.197l-1.337-0.39l-1.34-0.382l-1.249-0.32l-2.475-0.613
				c-1.673-0.349-3.332-0.741-5.036-1.003c-3.384-0.586-6.836-0.965-10.317-1.161c-3.479-0.211-7-0.197-10.524,0.02
				c-14.105,0.79-28.254,5.388-40.267,13.168c-12.001,7.813-21.792,18.751-28.196,31.141c-6.44,12.392-9.508,26.123-9.512,39.326
				c0.006,13.232,2.908,25.874,7.53,37.094c1.153,2.816,2.46,5.52,3.809,8.166c0.673,1.325,1.401,2.604,2.103,3.9
				c0.586,1.033,1.171,2.064,1.754,3.096c2.13,3.798,4.17,7.775,5.946,11.695c3.637,7.795,6.326,15.553,7.539,22.759
				c2.621,14.564-1.097,25.591-11.286,33.782c-4.97,4.087-11.095,7.172-17.305,9.62c-6.238,2.431-12.633,4.128-18.765,5.49
				c-12.317,2.595-23.61,3.77-32.937,4.443c-4.673,0.357-8.873,0.572-12.538,0.722c-3.667,0.177-6.796,0.247-9.341,0.326
				c-5.101,0.125-7.821,0.19-7.821,0.19s0.654,0.19,1.922,0.56c1.268,0.377,3.153,0.924,5.629,1.567
				c4.952,1.303,12.251,3.105,21.745,4.741c4.749,0.779,10.045,1.606,15.885,2.139c5.838,0.555,12.219,0.956,19.133,0.86
				c3.457-0.045,7.055-0.188,10.778-0.507c3.724-0.343,7.579-0.857,11.563-1.608c7.959-1.491,16.477-4.054,25.052-8.847
				c4.286-2.376,8.488-5.495,12.371-9.301c1.917-1.929,3.786-4,5.453-6.292c0.87-1.118,1.631-2.324,2.424-3.523
				c0.729-1.23,1.502-2.463,2.144-3.759c2.715-5.141,4.505-10.793,5.563-16.48c1.067-5.704,1.319-11.436,1.102-17.064
				c-0.566-11.26-3.167-21.981-6.614-32.272c-1.783-5.132-3.784-10.126-6.061-15.222c-0.537-1.184-1.074-2.371-1.614-3.563
				c-0.397-0.943-0.834-1.876-1.21-2.825c-0.757-1.896-1.486-3.8-2.071-5.729c-5.159-15.302-4.154-31.657,3.221-44.272
				c3.688-6.262,8.763-11.646,14.931-15.316c3.034-1.902,6.332-3.377,9.776-4.462c1.725-0.538,3.497-0.945,5.294-1.271
				c1.794-0.332,3.623-0.569,5.48-0.681c1.853-0.123,3.732-0.147,5.632-0.034c1.897,0.099,3.811,0.289,5.732,0.621
				c0.96,0.131,1.927,0.344,2.893,0.511l1.45,0.329l0.71,0.161l0.602,0.159l0.605,0.153l0.304,0.073l0.151,0.036l0.241,0.074
				l1.927,0.59l0.482,0.146c-0.072-0.024,0.502,0.161-0.102-0.036l0.267,0.085l1.067,0.339l2.137,0.672
				c2.855,0.873,5.734,1.69,8.635,2.434c2.91,0.719,5.83,1.396,8.78,1.984c5.894,1.174,11.86,2.109,17.903,2.638
				c12.068,1.068,24.434,0.839,36.733-1.521c12.254-2.316,24.566-6.729,35.428-14.017c10.857-7.222,19.883-17.445,25.498-28.61
				c2.861-5.563,4.918-11.315,6.387-16.984c0.378-1.418,0.684-2.835,0.985-4.244l0.412-2.112c0.136-0.699,0.254-1.502,0.378-2.245
				l0.181-1.134c0.063-0.394,0.08-0.61,0.121-0.924l0.216-1.738c0.001-0.017,0.087-0.617,0.062-0.478l0.024-0.241l0.046-0.479
				l0.094-0.958l0.184-1.913c0.975-10.183,0.858-20.116,0.201-29.596C524.813,238.723,523.418,229.692,521.64,221.188z"/>
			<g>
				<path fill="#AB2E23" d="M318.23,479.999c-0.013-5.949-0.862-12.214-2.597-19.151c-3.404-13.51-9.343-26.253-14.137-35.846
					c-1.384-2.746-2.89-5.624-4.482-8.566l-1.146-2.134l-1.144-2.238c-0.8-1.687-1.452-3.113-2.028-4.573
					c-2.63-6.516-4.138-13.147-4.494-19.738c-0.403-6.874,0.373-13.686,2.308-20.266c1.888-6.492,4.824-12.709,8.73-18.488
					c7.441-11.025,18.095-20.085,30.81-26.202c6.095-2.941,12.588-5.152,19.302-6.575c3.414-0.726,6.812-1.248,10.1-1.556
					c2.596-0.228,5.289-0.344,7.983-0.344c0.738,0,1.477,0.008,2.216,0.025c6.567,0.135,13.361,1.037,20.203,2.682
					c0.588,0.13,1.123,0.277,1.657,0.422c0.309,0.084,2.138,0.579,2.138,0.579l1.11,0.342l4.62,1.452
					c3.064,0.95,6.132,1.807,9.133,2.551c6.354,1.595,12.591,2.767,18.528,3.483c5.369,0.656,10.568,0.99,15.446,0.99
					c1.091,0,2.18-0.017,3.268-0.05c3.076-0.087,6.206-0.328,9.291-0.717c3.335-0.411,6.322-0.94,9.121-1.617
					c6.225-1.479,11.946-3.703,16.99-6.605c5.465-3.14,10.05-7.119,13.624-11.826c1.726-2.232,3.322-4.843,4.725-7.73
					c0.625-1.353,1.243-2.745,1.773-4.252c0.216-0.565,0.404-1.144,0.59-1.723l0.137-0.424c0.17-0.527,0.303-0.99,0.439-1.472
					c0,0,0.202-0.701,0.215-0.755c2.807-11.305,3.944-24.1,3.382-38.03c-0.538-12.27-2.345-25.151-5.371-38.301
					c-2.836-12.463-6.667-24.959-11.386-37.13c-2.367-6.059-4.976-12.053-7.759-17.826c-1.257-2.635-2.74-5.459-4.527-8.619
					c-0.895-1.572-1.712-2.928-2.502-4.155c-0.494-0.763-0.965-1.442-1.405-2.03c-0.23-0.316-0.512-0.679-0.764-0.982
					c-0.324-0.391-0.719-0.716-1.164-0.959c-0.339-0.189-0.626-0.371-0.901-0.555c-0.552-0.377-1.077-0.781-1.521-1.175
					c-0.909-0.793-1.755-1.675-2.602-2.71c1.035,0.943,2.034,1.714,3.013,2.332c0.611,0.397,1.237,0.712,1.651,0.912
					c0.038,0.019,0.076,0.036,0.114,0.053c0.304,0.135,0.597,0.256,0.869,0.352l0.938,0.568c0.455,0.53,0.777,0.993,1.165,1.552
					l0.061,0.087c0.38,0.548,0.717,1.089,1.052,1.625l0.297,0.474c0.748,1.214,1.523,2.56,2.417,4.202
					c1.556,2.849,3.001,5.81,4.398,8.673c2.576,5.32,5.127,11.162,7.827,17.915c4.971,12.413,9.137,24.861,12.382,37
					c3.632,13.763,5.925,26.35,7.005,38.466c1.312,14.438,0.819,27.295-1.505,39.313l-0.093,0.411
					c-0.158,0.706-0.325,1.453-0.506,2.128l-0.106,0.394c-0.184,0.68-0.365,1.36-0.586,2.033c-0.452,1.501-0.993,2.99-1.783,4.922
					c-1.394,3.271-3.061,6.319-4.933,9.005c-3.789,5.52-8.942,10.442-14.918,14.259c-5.32,3.443-11.634,6.185-18.784,8.161
					c-6.24,1.715-12.966,2.769-19.984,3.131c-2.104,0.112-4.251,0.169-6.386,0.169c-10.622,0-21.861-1.406-33.405-4.182
					c-3.171-0.774-6.41-1.665-9.613-2.644l-4.627-1.434c0,0-1.261-0.381-1.303-0.392l-1.017-0.272
					c-0.256-0.067-0.483-0.133-0.712-0.197c-0.481-0.137-0.964-0.271-1.488-0.392c-6.125-1.534-12.272-2.411-18.19-2.588
					c-0.91-0.029-1.832-0.044-2.751-0.044c-11.679,0-23.14,2.412-33.142,6.975c-11.638,5.251-21.455,13.168-28.375,22.89
					c-3.648,5.109-6.431,10.605-8.267,16.332c-1.892,5.929-2.791,12.014-2.672,18.091c0.134,6.091,1.237,12.197,3.281,18.16
					c0.493,1.471,1.065,2.888,1.656,4.327c0.017,0.04,0.958,2.138,0.958,2.138l1.05,2.253c1.433,3.092,2.741,6.021,3.996,8.945
					c2.859,6.669,5.141,12.652,6.974,18.29c2.228,6.829,3.822,13.036,4.877,18.981c1.251,7.105,1.662,13.46,1.257,19.423
					C318.23,480,318.23,480,318.23,479.999z"/>
				<path d="M367.435,318.321c0.708,0,1.415,0.008,2.144,0.024c6.271,0.129,12.777,0.994,19.341,2.572
					c0.052,0.013,0.104,0.024,0.156,0.036c0.379,0.083,0.87,0.216,1.39,0.357c0.305,0.082,0.609,0.165,0.91,0.243l1.16,0.317
					l1.001,0.308l4.674,1.47c3.122,0.968,6.264,1.845,9.318,2.603c6.527,1.638,12.931,2.841,19.019,3.574
					c5.537,0.678,10.899,1.021,15.938,1.021c1.138,0,2.279-0.018,3.372-0.051c3.215-0.091,6.475-0.343,9.667-0.745
					c1.546-0.19,3.02-0.405,4.437-0.646c-4.484,0.927-9.188,1.521-14.051,1.771c-2.027,0.108-4.103,0.163-6.166,0.163
					c-10.31,0-21.233-1.369-32.442-4.063c-3.112-0.761-6.278-1.631-9.38-2.578l-4.688-1.452l-1.154-0.35
					c-0.083-0.025-0.165-0.049-0.248-0.071l-1.06-0.283c-0.208-0.055-0.41-0.113-0.613-0.17c-0.439-0.125-0.981-0.279-1.6-0.423
					c-6.46-1.612-12.869-2.522-19.035-2.707c-0.958-0.03-1.929-0.046-2.887-0.046c-12.247,0-24.281,2.537-34.771,7.322
					c-1.747,0.788-3.456,1.634-5.122,2.533c1.641-0.939,3.324-1.826,5.049-2.655c5.802-2.8,11.989-4.907,18.393-6.264
					c3.262-0.692,6.504-1.192,9.594-1.481C362.28,318.433,364.856,318.321,367.435,318.321 M454.343,84.699l-0.403,3.891
					c-0.139,1.296-0.212,2.603-0.321,3.908c-0.117,1.308-0.157,2.615-0.229,3.925c-0.08,1.31-0.095,2.622-0.123,3.937
					c-0.043,1.315-0.018,2.632-0.005,3.952c-0.007,1.32,0.079,2.64,0.126,3.964c0.049,1.324,0.186,2.647,0.274,3.977
					c0.152,1.323,0.265,2.655,0.467,3.981l0.296,1.993l0.368,1.991c0.115,0.666,0.264,1.329,0.42,1.991
					c0.158,0.66,0.288,1.33,0.48,1.987l0.551,1.983l0.634,1.975l0.723,1.961c0.257,0.652,0.544,1.297,0.817,1.947
					c0.293,0.645,0.611,1.283,0.921,1.926c0.349,0.629,0.672,1.271,1.049,1.894c0.735,1.252,1.569,2.475,2.498,3.661
					c0.945,1.175,1.993,2.312,3.202,3.365c0.598,0.529,1.254,1.03,1.957,1.511c0.356,0.237,0.729,0.471,1.13,0.696
					c0.024,0.013,0.048,0.026,0.072,0.04c-0.182-0.22-0.345-0.401-0.459-0.507l1.954,1.186c-0.54-0.187-0.652-0.261-0.924-0.383
					c-0.2-0.099-0.389-0.196-0.571-0.296c0.204,0.246,0.432,0.539,0.643,0.828c0.414,0.553,0.838,1.172,1.244,1.799
					c0.815,1.266,1.611,2.603,2.383,3.958c1.54,2.723,3.038,5.52,4.405,8.387c2.759,5.723,5.309,11.585,7.633,17.534
					c4.618,11.913,8.392,24.165,11.217,36.582c2.855,12.404,4.723,25.009,5.272,37.564c0.507,12.542-0.33,25.077-3.267,36.905
					c-0.199,0.68-0.356,1.27-0.575,1.95c-0.22,0.674-0.426,1.353-0.68,2.01c-0.466,1.333-1.031,2.614-1.615,3.881
					c-1.217,2.505-2.633,4.886-4.313,7.06c-3.322,4.375-7.577,7.988-12.434,10.778c-4.853,2.792-10.262,4.836-15.935,6.185
					c-2.834,0.685-5.744,1.174-8.682,1.536c-2.939,0.37-5.915,0.603-8.914,0.688c-1.047,0.032-2.095,0.048-3.145,0.048
					c-4.969,0-9.975-0.351-14.968-0.962c-6.05-0.729-12.08-1.897-18.044-3.394c-2.984-0.74-5.95-1.571-8.896-2.484l-4.644-1.46
					l-1.171-0.36l-1.33-0.363c-0.878-0.228-1.795-0.498-2.646-0.685c-6.871-1.652-13.937-2.646-21.047-2.792
					c-0.77-0.018-1.538-0.026-2.308-0.026c-2.786,0-5.574,0.117-8.355,0.361c-3.547,0.331-7.072,0.885-10.557,1.625
					c-6.974,1.478-13.777,3.781-20.207,6.884c-12.85,6.182-24.294,15.572-32.389,27.566c-4.044,5.982-7.221,12.605-9.255,19.601
					c-2.054,6.987-2.89,14.353-2.464,21.609c0.393,7.263,2.101,14.383,4.768,20.991c0.655,1.66,1.4,3.271,2.16,4.873l1.209,2.362
					l1.152,2.146c1.507,2.784,2.994,5.617,4.422,8.45c5.672,11.351,10.797,22.975,13.834,35.028
					c1.504,6.013,2.465,12.127,2.478,18.191c0.016,6.055-1.032,12.033-3.375,17.513c-2.369,5.463-6.147,10.328-10.896,14.239
					c-4.746,3.922-10.338,6.958-16.238,9.294c-11.845,4.71-24.752,6.874-37.64,8.154c0.171,0,0.342,0.001,0.513,0.001
					c6.32,0,12.656-0.301,18.974-1.022c6.488-0.728,12.967-1.917,19.31-3.838c6.323-1.942,12.532-4.66,18.134-8.577
					c5.593-3.896,10.467-9.155,13.77-15.374c3.302-6.222,4.955-13.206,5.437-20.091c0.474-6.91-0.134-13.767-1.307-20.429
					c-1.183-6.67-2.939-13.169-5.012-19.52c-2.065-6.354-4.493-12.548-7.102-18.631c-1.307-3.045-2.65-6.045-4.047-9.059
					l-1.026-2.201l-0.906-2.018c-0.559-1.361-1.108-2.722-1.572-4.105c-1.894-5.523-2.941-11.241-3.066-16.941
					c-0.111-5.701,0.754-11.377,2.482-16.792c1.736-5.417,4.377-10.558,7.716-15.233c6.677-9.38,16.165-16.782,26.776-21.569
					c9.828-4.483,20.658-6.614,31.481-6.614c0.877,0,1.756,0.014,2.632,0.042c5.856,0.175,11.699,1.058,17.418,2.489
					c0.73,0.167,1.367,0.372,2.057,0.553l1.017,0.272l1.154,0.35l4.642,1.438c3.251,0.993,6.534,1.898,9.848,2.708
					c11.155,2.682,22.666,4.292,34.341,4.292c2.19,0,4.39-0.057,6.591-0.174c6.958-0.359,13.96-1.379,20.844-3.271
					c6.868-1.898,13.673-4.634,19.872-8.646c6.205-3.963,11.808-9.168,16.046-15.343c2.14-3.069,3.905-6.376,5.354-9.778
					c0.699-1.711,1.354-3.435,1.881-5.189c0.286-0.873,0.516-1.756,0.755-2.636c0.235-0.877,0.449-1.866,0.65-2.756
					c2.625-13.534,2.783-27.183,1.574-40.489c-1.188-13.328-3.757-26.381-7.125-39.144c-3.411-12.76-7.641-25.237-12.532-37.451
					c-2.442-6.11-5.031-12.165-7.913-18.117c-1.451-2.973-2.904-5.952-4.513-8.898c-0.804-1.477-1.635-2.944-2.547-4.423
					c-0.466-0.739-0.918-1.484-1.448-2.249c-0.539-0.775-1.047-1.519-1.927-2.466v-0.002l-1.882-1.14
					c-0.022-0.005-0.049-0.011-0.058-0.012l-0.241-0.073c-0.183-0.063-0.379-0.146-0.583-0.237
					c-0.406-0.196-0.834-0.419-1.257-0.693c-0.85-0.536-1.689-1.202-2.497-1.945c-0.799-0.76-1.572-1.587-2.297-2.486
					c-0.369-0.442-0.703-0.925-1.062-1.388l-0.991-1.474c-0.308-0.512-0.631-1.017-0.931-1.541l-0.872-1.597l-0.81-1.648
					l-0.749-1.695c-0.262-0.561-0.464-1.151-0.697-1.729c-0.23-0.579-0.454-1.164-0.649-1.761l-0.609-1.786l-0.547-1.815
					c-0.371-1.209-0.659-2.449-0.988-3.681c-0.268-1.246-0.583-2.487-0.814-3.749c-0.231-1.26-0.5-2.52-0.681-3.795
					c-0.197-1.271-0.411-2.546-0.557-3.829c-0.159-1.282-0.333-2.567-0.44-3.857c-0.117-1.29-0.267-2.583-0.341-3.876
					c-0.079-1.295-0.195-2.589-0.247-3.894L454.343,84.699L454.343,84.699z M473.353,137.125l0.072,0.044
					c0.016,0.003,0.03,0.006,0.037,0.006C473.476,137.175,473.457,137.164,473.353,137.125L473.353,137.125z"/>
			</g>
		</g>
		<path fill="#AB2E23" stroke="#000000" stroke-width="8" stroke-linejoin="round" stroke-miterlimit="10" d="M369.314,192.029
			v-15.772l-52.304,30.204l52.304,30.201v-15.604c21.233,1.446,38.07,19.172,38.07,40.767h28.982
			C436.367,224.245,406.538,193.506,369.314,192.029z"/>
	</g>
</g>
</svg>
