<?xml version="1.0" encoding="utf-8"?>
<!-- Generator: Adobe Illustrator 16.0.0, SVG Export Plug-In . SVG Version: 6.00 Build 0)  -->
<!DOCTYPE svg PUBLIC "-//W3C//DTD SVG 1.1//EN" "http://www.w3.org/Graphics/SVG/1.1/DTD/svg11.dtd">
<svg version="1.1" xmlns="http://www.w3.org/2000/svg" xmlns:xlink="http://www.w3.org/1999/xlink" x="0px" y="0px"
	 width="283.465px" height="566.93px" viewBox="0 0 283.465 566.93" enable-background="new 0 0 283.465 566.93"
	 xml:space="preserve">
<g id="fond" display="none">
	
		<rect x="-8042.283" y="-9178" display="inline" fill-rule="evenodd" clip-rule="evenodd" fill="#58595B" width="16654.492" height="16572.797"/>
</g>
<g id="en_cours">
</g>
<g id="fini">
	<g>
		<path d="M158.198,432.916c-10.83,0-20.692-1.78-29.592-5.341c-8.9-3.56-16.542-8.75-22.917-15.574
			c-6.379-6.821-11.313-15.241-14.796-25.254c-3.487-10.013-5.229-21.471-5.229-34.376c0-12.904,1.964-24.363,5.896-34.376
			c3.928-10.012,9.233-18.429,15.908-25.253c6.675-6.821,14.462-12.016,23.362-15.575s18.391-5.34,28.48-5.34
			c6.376,0,12.126,0.445,17.244,1.335c5.117,0.89,9.567,1.93,13.35,3.115c3.783,1.188,6.859,2.374,9.234,3.56
			c2.371,1.189,4.005,2.079,4.895,2.67l-6.23,17.8c-1.335-0.89-3.265-1.853-5.785-2.893c-2.524-1.036-5.378-2.075-8.566-3.115
			c-3.191-1.035-6.675-1.891-10.458-2.559c-3.782-0.667-7.603-1.001-11.458-1.001c-8.16,0-15.502,1.411-22.027,4.228
			c-6.529,2.819-12.091,6.897-16.688,12.237c-4.6,5.34-8.121,11.831-10.569,19.469c-2.447,7.642-3.671,16.208-3.671,25.698
			c0,9.199,1.074,17.577,3.226,25.143c2.148,7.564,5.375,14.056,9.679,19.469c4.3,5.416,9.679,9.605,16.131,12.571
			c6.452,2.969,13.979,4.449,22.583,4.449c9.936,0,18.168-1.036,24.697-3.114c6.525-2.076,11.42-3.929,14.685-5.563l5.563,17.8
			c-1.04,0.744-2.893,1.668-5.563,2.781c-2.67,1.112-6.007,2.189-10.012,3.226s-8.677,1.927-14.018,2.67
			C170.213,432.544,164.428,432.916,158.198,432.916z"/>
	</g>
</g>
</svg>
