<?xml version="1.0" encoding="utf-8"?>
<!-- Generator: Adobe Illustrator 16.0.0, SVG Export Plug-In . SVG Version: 6.00 Build 0)  -->
<!DOCTYPE svg PUBLIC "-//W3C//DTD SVG 1.1//EN" "http://www.w3.org/Graphics/SVG/1.1/DTD/svg11.dtd">
<svg version="1.1" xmlns="http://www.w3.org/2000/svg" xmlns:xlink="http://www.w3.org/1999/xlink" x="0px" y="0px" width="566.9px"
	 height="566.9px" viewBox="0 0 566.9 566.9" enable-background="new 0 0 566.9 566.9" xml:space="preserve">
<g id="fond" display="none">
	
		<rect x="-7607.9" y="-7591.9" display="inline" fill-rule="evenodd" clip-rule="evenodd" fill="#F2F2F2" width="15942.5" height="15814.7"/>
</g>
<g id="en_cours">
</g>
<g id="fini">
	<g>
		<path fill="#808285" d="M505.3,390.9c-0.1-11.5-2.9-22.6-4-33.9c-1.4-14.4-5.5-28.3-8.3-42.5c-4.5-23.1-13.5-44.3-26.1-64
			c-4.5-7.1-10.5-13-16.7-18.6c-16.1-14.4-35.4-22.3-55.8-28.4c-9.7-2.9-19.5-2.9-29.3-0.7c-10.9,2.5-21.3,6.6-30.9,12.4
			c-2.6,1.6-5.2,3.2-8.1,4.1c-4.6,1.4-6.1,0.8-7.1-3.8c-0.9-4.2-1.7-8.3-2.3-12.6c-0.3-1.9-0.5-3.9-0.7-5.8
			c-0.1-0.9-0.1-1.6,0.1-2.3c-1.9-32.5-0.1-118,1.6-140.3c0-0.5,0.1-1,0.1-1.5c0-0.4,0.1-0.8,0.1-1.2c1.3-12.2,0.6-24.3-1.2-36.4
			c-0.2-1.3-0.6-2.5-1.2-3.6c-1.5-2.8-4-3.4-6.7-1.6c-1,0.7-1.7,1.6-2.4,2.4c-10.2,12.4-20.4,24.9-29.6,38.1
			c-2.7,3.8-5.3,7.8-8.3,11.3c-1.7,1.9-3.5,2.8-6.3,2.6c-9-0.5-17.9-2-26.8-2.4c-8.3-0.4-8.8-0.7-10.4-10c-0.1-0.5-0.1-1-0.2-1.5
			c-1.9-12.5-3-25.2-5-37.7c-0.5-3-1.3-5.7-4.4-7c-1.3,0-2.5,0-3.8,0c-2.9,1.2-4.4,3.8-5.7,6.4c-6.5,12.3-13.9,24.2-18.9,37.2
			c-0.7,1.9-1.4,3.8-2,5.8c-0.4,1.2-0.8,2.4-1.5,3.3c-1.3,3.6-2.8,7.9-4.3,13.2c-0.1,0.9-0.3,1.9-0.8,2.7
			c-1.9,6.7-3.7,14.7-5.4,24.2c0,0.5-0.1,1-0.1,1.5c-0.8,7.2-2,14.3-3.1,21.4c-1.2,11.5-2.1,24.5-2.3,39.3c0.1,0.4,0.1,0.9,0,1.4
			c-0.2,12.8,0.1,26.8,0.9,42.2c0,0,0,0,0,0c0.2,2,0.3,3.9,0.3,5.9c-0.1,13.9,0.5,27.9,1.6,41.7c0.4,5.1,1.6,10,1.5,15.1
			c-0.2,8.1,0.8,16.2,1.9,24.2c0.7,5.1,1.9,10.3,1.8,15.5c-0.3,13.1,2.6,25.7,5.8,38.2c4.5,17.5,8.8,35.2,14.6,52.3
			c3.7,10.9,7.4,21.8,11.1,32.8c4.6,13.8,12.1,26.2,18.5,39.2c3.8,7.7,8.5,14.7,13.6,21.6c0,0,0,0,0,0c1.2,1.8,2.5,3.4,3.7,5
			c0.6,0.8,1.1,1.5,1.7,2.3c0.8,1.1,1.7,2.2,2.7,3.1c1,1.2,2,2.3,2.9,3.3c6,0,14.3-0.1,24.1-0.8c5.2-0.4,10.8-0.8,16.7-1.4
			c5.9-0.6,12.1-1.5,18.5-2.4c6.4-1,13-2.1,19.7-3.5c6.7-1.3,13.4-2.9,20.1-4.7c0.1,0,0.3-0.1,0.4-0.1
			c-58.7-128.3-32.2-201.4,8.7-225.1c22.5-13,47.8-9.8,60.2,7.8c0.8,1.1,0.5,2.7-0.6,3.5c-1.1,0.8-2.7,0.5-3.5-0.6
			c-10.9-15.4-33.4-18.1-53.6-6.4c-39.2,22.7-64.1,93.7-6.3,219.4c1.6-0.4,3.1-0.9,4.7-1.3c3.3-1,6.6-2,9.8-3.1
			c6.5-2.1,12.8-4.4,18.8-6.7c1.5-0.6,3-1.2,4.5-1.8c1.5-0.6,2.9-1.2,4.4-1.8c1.4-0.6,2.8-1.3,4.2-1.9c1.4-0.6,2.8-1.2,4.1-1.8
			c2.7-1.3,5.3-2.5,7.8-3.7c2.5-1.3,4.9-2.5,7.2-3.6c2.3-1.1,4.5-2.3,6.6-3.5c2.1-1.1,4.1-2.2,5.9-3.2c1.8-1,3.6-2,5.1-2.9
			c1.6-0.9,3.1-1.7,4.4-2.5c2.6-1.6,4.7-2.8,6.1-3.6c1.4-0.8,2.2-1.3,2.2-1.3s-0.7,0.6-1.9,1.6c-1.3,1-3.1,2.6-5.5,4.5
			c-2.4,1.9-5.5,4-9,6.5c-1.7,1.2-3.7,2.4-5.7,3.7c-2,1.3-4.1,2.7-6.4,4c-2.3,1.3-4.7,2.7-7.1,4.1c-2.5,1.3-5.1,2.6-7.8,4
			c-5.4,2.7-11.2,5.3-17.3,7.8c-6.1,2.5-12.4,4.9-19,7.2c-3.3,1.1-6.6,2.2-9.9,3.2c-3.4,1-6.7,2-10.1,2.9
			c-6.8,1.8-13.6,3.6-20.4,4.9c-6.8,1.5-13.5,2.6-20,3.7c-6.5,1-12.8,1.8-18.8,2.4c-6,0.6-11.7,1-16.9,1.3c-0.3,0-0.5,0-0.8,0
			c-7,0.3-13.2,0.5-18.4,0.5c0,0,0,0,0,0c-2.3,0-4.4,0-6.3-0.1c-1.5,0-2.9-0.1-4.1-0.2c-1.3,0-2.6,0-3.9-0.1c-7.9-0.1-16-0.9-23.7-3
			c-12.6-3.4-23.9-9.8-35.2-16c-4.1-2.2-8.1-4.8-12.3-6.7c-11.6-5.4-21.8-12.9-31.2-21.5c-16.1-14.7-26-33.5-33.4-53.7
			c-5.4-14.6-8-29.7-9-45.3c-0.6-9.8,0.7-19,3.8-28c3.8-11.1,11.2-18.2,23.6-19c2.5-0.2,5-0.6,7.5-1.1c6.8-1.3,9.7-5.5,8.5-12.4
			c-1.1-6.2-4.3-11.4-8.8-15.6c-6.1-5.7-13.4-8.2-21.7-6.6c-15.7,3.2-27.4,12.2-35,26.3c-6.6,12.2-10.1,25.3-9.9,39.4
			c0,1.9,0.5,3.8-0.7,5.5c0,0.5,0,1,0,1.5c0.6,2.3,0.6,4.6,0,6.8c0,7.1,0,14.2,0,21.3c0.6,1,0.6,2,0,3c0,0.5,0,1,0,1.5
			c1.3,2.4,0.8,5.2,1.4,7.8c5.4,22.9,11.9,45.3,24.1,65.7c8.2,13.6,13.9,28.7,25.6,40.2c9.3,9.1,17.7,18.9,29.5,25.4
			c16.8,9.2,32.9,19.1,51.6,24.5c18.6,5.4,37.1,9.9,56.6,10c1.3,0,2.5,0.1,3.6,0.8c0.3,0,0.5,0,0.8,0c1.2-0.8,2.7-0.6,4-0.7
			c9.1-0.8,18.2-0.3,27.3-1.3c11.3-1.2,22.7-2.2,33.8-4.7c16.8-3.7,33.7-7.1,50.2-12.3c10.7-3.3,22.2-4.2,32.4-9.3
			c8.6-4.3,17.7-7.6,26.9-10.4c2.4-0.8,4.7-1.9,6.9-3.1c9.9-5.4,19.3-11.7,28.7-17.9c15.5-10.3,26.1-24.4,33.5-41.3
			c2.8-6.4,4.4-13.2,5.7-20c0-0.5,0-1,0-1.5c0-13.2,0-26.4,0-39.6c0-1.8,0-3.5,0-5.3C505.3,392.7,505.3,391.8,505.3,390.9z
			 M242.8,357.3c-0.5-1-1-2.1-1.4-3.1c-0.9-2.1-1.8-4.2-2.6-6.4c-1.6-4.3-2.9-8.7-4-13.2c-1.1-4.5-1.9-9-2.5-13.6
			c-0.3-2.3-0.5-4.6-0.7-6.9c-0.1-1.2-0.1-2.3-0.2-3.5c0-0.4,0-0.8,0-1.2c-1.9,0.9-3.8,1.7-5.7,2.6c-0.6,0.3-1.3,0.6-1.9,0.9
			c-0.6,0.3-1.3,0.6-1.9,0.9l-1.9,1l-1.8,1l-3.3,1.7l0-3.5c0-1,0-2,0-2.9c0-1,0.1-2,0.1-2.9c0.1-2,0.3-3.9,0.6-5.8
			c0.6-3.9,1.4-7.7,2.4-11.4c1.1-3.7,2.4-7.4,3.9-11c0.8-1.8,1.6-3.5,2.5-5.3c0.4-0.8,0.8-1.5,1.2-2.3c-0.1,0-0.1,0-0.2,0l-3.4,0.2
			c-1.1,0.1-2.3,0.2-3.4,0.3l-3.4,0.3h0l-2.9,0.3l1.2-2.5c1.6-3.2,3.5-6.2,5.5-9.1c1-1.4,2-2.9,3.1-4.2c0.8-1.1,1.7-2.2,2.6-3.2
			l-7.6-7.8l0,0l-2.7-3l3.9,0.7l8.9,1.6l1-10.1l1.1,11.4l0.1,1.2l-1.4-0.1h0l-6.3-0.9l5.6,5.9l0.8,0.8l-0.7,0.8l0,0
			c-1,1.3-2.1,2.7-3,4.1c-1,1.4-1.9,2.8-2.9,4.2c-1.3,2-2.5,4.1-3.6,6.2l0.6-0.1c1.2-0.1,2.3-0.3,3.5-0.4l3.5-0.3
			c1.2-0.1,2.3-0.2,3.6-0.2l3.2-0.1l-1.8,2.8l0,0c-0.5,0.7-0.9,1.6-1.4,2.4c-0.4,0.8-0.9,1.6-1.3,2.5c-0.8,1.7-1.6,3.4-2.3,5.1
			c-1.4,3.4-2.6,7-3.6,10.6c-1,3.6-1.7,7.2-2.1,10.9c-0.2,1.8-0.4,3.7-0.5,5.5c0,0.7-0.1,1.5-0.1,2.2l0.8-0.4c0.7-0.3,1.3-0.5,2-0.8
			c0.7-0.3,1.3-0.5,2-0.8c2.7-1,5.4-2,8.1-3l2.3-0.8l-0.2,2.3l0,0c-0.1,1.1-0.1,2.2-0.1,3.3c0,1.1,0,2.3,0,3.4
			c0,2.3,0.1,4.5,0.3,6.8c0.3,4.5,0.9,9,1.7,13.5c0.8,4.5,1.9,8.9,3.2,13.3c0.7,2.2,1.4,4.4,2.2,6.5c0.4,1.1,0.8,2.1,1.3,3.2
			c0.4,1.1,0.9,2.1,1.4,3.2C243.8,359.3,243.3,358.3,242.8,357.3z"/>
		<path fill-rule="evenodd" clip-rule="evenodd" fill="#946562" d="M239.7,196c1.5,0.8,3.9,0.5,4.6,2.9c-4.4,1-7.2-0.2-9.8-4.2
			c-2.8,1.8-5.2,5-9.2,3.5c0-1.2,0.7-1.2,1.3-1.1c3.9,0.1,5-2,5.3-5.2c0.5-4.9,0.3-9.9-2.4-14.3c-0.6-0.9-0.1-2.1-1-2.7
			c3.3-3.9,10.2-3.8,14.2,0.2C237.1,180.4,233.6,186.7,239.7,196z"/>
		<polygon fill="#808285" points="303.2,149 399.7,118.7 304.8,153.7 		"/>
		<polygon fill="#808285" points="303.5,158.9 411.7,141.7 304.4,163.8 		"/>
		<polygon fill="#808285" points="306.8,67.4 334.2,58.8 308.7,72.1 		"/>
		<polygon fill="#808285" points="306.4,72.1 334.7,70.6 307.1,77.1 		"/>
		<polygon fill="#808285" points="188.7,65.2 166.1,47.5 191.5,61 		"/>
		<polygon fill="#808285" points="189.4,70.4 163.4,58.9 191,65.7 		"/>
		<polygon fill="#808285" points="303.9,169.9 399.7,170.7 304,174.8 		"/>
		<polygon fill="#808285" points="188.4,149.9 92,119.3 189.8,145.1 		"/>
		<polygon fill="#808285" points="189.2,160 81.1,142.8 189.9,155.1 		"/>
		<polygon fill="#808285" points="190.1,171 94.4,171.3 190,166 		"/>
		<path fill-rule="evenodd" clip-rule="evenodd" fill="#FFFFFF" d="M248.1,151.3c-3.4-36.3,42.9-47.1,54-40.8
			C305,138.9,271.8,155.2,248.1,151.3z"/>
		<path fill-rule="evenodd" clip-rule="evenodd" fill="#FFFFFF" d="M222.9,151.1c7.8-37.9-25.1-50-36.2-43.7
			C183.2,137.7,199.2,155,222.9,151.1z"/>
		<g>
			<defs>
				<path id="SVGID_1_" d="M222.9,151.1c7.8-37.9-25.1-50-36.2-43.7C183.2,137.7,199.2,155,222.9,151.1z"/>
			</defs>
			<clipPath id="SVGID_2_">
				<use xlink:href="#SVGID_1_"  overflow="visible"/>
			</clipPath>
			<circle clip-path="url(#SVGID_2_)" fill-rule="evenodd" clip-rule="evenodd" fill="#9FBC2E" cx="219.1" cy="136.2" r="15.7"/>
			<path clip-path="url(#SVGID_2_)" fill-rule="evenodd" clip-rule="evenodd" d="M219.3,147.2c-4.6-7.7-3.3-14.8-0.6-22
				C222.6,128.4,223.1,140.2,219.3,147.2z"/>
		</g>
		<g>
			<defs>
				<path id="SVGID_3_" d="M248.1,151.3c-3.4-36.3,42.9-47.1,54-40.8C305,138.9,271.8,155.2,248.1,151.3z"/>
			</defs>
			<clipPath id="SVGID_4_">
				<use xlink:href="#SVGID_3_"  overflow="visible"/>
			</clipPath>
			<circle clip-path="url(#SVGID_4_)" fill-rule="evenodd" clip-rule="evenodd" fill="#9FBC2E" cx="282.7" cy="133.4" r="15.7"/>
			<path clip-path="url(#SVGID_4_)" fill-rule="evenodd" clip-rule="evenodd" d="M283,144.4c-4.6-7.7-3.3-14.8-0.6-22
				C286.3,125.6,286.7,137.4,283,144.4z"/>
		</g>
	</g>
</g>
</svg>
