<?xml version="1.0" encoding="utf-8"?>
<!-- Generator: Adobe Illustrator 16.0.0, SVG Export Plug-In . SVG Version: 6.00 Build 0)  -->
<!DOCTYPE svg PUBLIC "-//W3C//DTD SVG 1.1//EN" "http://www.w3.org/Graphics/SVG/1.1/DTD/svg11.dtd">
<svg version="1.1" xmlns="http://www.w3.org/2000/svg" xmlns:xlink="http://www.w3.org/1999/xlink" x="0px" y="0px"
	 width="566.93px" height="566.93px" viewBox="0 0 566.93 566.93" enable-background="new 0 0 566.93 566.93" xml:space="preserve">
<g id="fond" display="none">
	
		<rect x="-12793.873" y="-10799.898" display="inline" fill-rule="evenodd" clip-rule="evenodd" fill="#58595B" width="15942.492" height="15814.695"/>
</g>
<g id="en_cours">
</g>
<g id="fini">
	<g>
		<g>
			
				<path fill="#CCAC6C" stroke="#000000" stroke-width="8" stroke-linecap="round" stroke-linejoin="round" stroke-miterlimit="38" d="
				M255.117,180.353c-123.5,5.5-215.64,56.891-204.485,120.049c5.985,33.89,77.724,51.134,108.985,74.451
				c39,29.089-14.668,61.237,18,89.643c45.692,39.73,219,8.882,276-45.38C579.239,299.527,416.029,173.187,255.117,180.353z
				 M250.938,447.437c-15.642,0-28.321-12.68-28.321-28.321s12.68-28.321,28.321-28.321s28.321,12.68,28.321,28.321
				S266.58,447.437,250.938,447.437z"/>
			
				<circle fill="#AB2E23" stroke="#000000" stroke-width="8" stroke-linecap="round" stroke-linejoin="round" stroke-miterlimit="38" cx="144.117" cy="277.744" r="36.5"/>
			
				<circle fill="#2268A8" stroke="#000000" stroke-width="8" stroke-linecap="round" stroke-linejoin="round" stroke-miterlimit="38" cx="248.689" cy="251.228" r="32.945"/>
			
				<circle fill="#809EAD" stroke="#000000" stroke-width="8" stroke-linecap="round" stroke-linejoin="round" stroke-miterlimit="38" cx="347.879" cy="259.194" r="27.446"/>
			
				<circle fill="#358C5E" stroke="#000000" stroke-width="8" stroke-linecap="round" stroke-linejoin="round" stroke-miterlimit="38" cx="424.85" cy="303.317" r="21.977"/>
		</g>
		<g>
			<g>
				
					<path fill="#CCAC6C" stroke="#000000" stroke-width="8" stroke-linecap="round" stroke-linejoin="round" stroke-miterlimit="38" d="
					M246.746,406.177c-9.068,1.276-17.624,2.6-25.509,3.933c-7.886,1.32-15.098,2.638-21.478,3.913
					c-3.189,0.643-6.174,1.243-8.932,1.801c-2.755,0.601-5.285,1.155-7.569,1.653c-4.567,1.022-8.146,1.886-10.582,2.509
					c-2.433,0.636-3.732,0.976-3.732,0.976c-2.14,0.56-3.714,2.521-3.685,4.837c0.033,2.723,2.271,4.904,4.995,4.869
					c0,0,1.342-0.017,3.857-0.047c2.515-0.047,6.193-0.159,10.866-0.385c2.336-0.123,4.922-0.259,7.737-0.409
					c2.809-0.192,5.846-0.404,9.089-0.629c6.491-0.463,13.797-1.104,21.748-1.921c7.957-0.802,16.558-1.794,25.64-2.964
					c9.084-1.149,18.64-2.547,28.538-3.89c9.896-1.364,20.119-2.777,30.511-4.211c10.382-1.487,20.929-3,31.476-4.517
					c10.544-1.539,21.1-3.007,31.469-4.59c10.372-1.564,20.58-3.104,30.459-4.595c9.883-1.476,19.415-3.026,28.463-4.432
					c9.052-1.405,17.602-2.773,25.49-4.079c7.888-1.296,15.125-2.44,21.529-3.546c6.402-1.087,11.987-2.034,16.588-2.82
					c9.187-1.618,14.436-2.545,14.436-2.545c2.482-0.444,4.271-2.729,4.031-5.281c-0.254-2.698-2.644-4.678-5.339-4.425
					c0,0-5.309,0.501-14.597,1.371c-4.645,0.464-10.277,1.03-16.741,1.676c-6.468,0.634-13.748,1.446-21.699,2.285
					c-7.951,0.832-16.56,1.781-25.66,2.822c-9.097,1.043-18.703,2.069-28.621,3.268c-9.918,1.179-20.171,2.399-30.586,3.637
					c-10.421,1.224-20.985,2.605-31.56,3.913c-10.571,1.338-21.142,2.674-31.548,3.988c-10.4,1.369-20.633,2.717-30.536,4.02
					C265.394,403.693,255.808,404.875,246.746,406.177z"/>
				
					<path fill="#564432" stroke="#000000" stroke-width="8" stroke-linecap="round" stroke-linejoin="round" stroke-miterlimit="38" d="
					M142.084,414.519c-4.673,1.052-9.633,2.352-14.56,3.879c-4.927,1.545-9.827,3.282-14.384,5.176
					c-2.281,0.949-4.475,1.926-6.549,2.891c-1.037,0.498-2.046,0.984-3.021,1.448c-0.972,0.503-1.907,0.986-2.808,1.453
					c-1.795,0.962-3.44,1.86-4.887,2.736c-1.45,0.841-2.705,1.652-3.737,2.328c-2.063,1.344-3.224,2.268-3.224,2.268
					s1.36,0.585,3.711,1.337c1.174,0.373,2.599,0.825,4.22,1.253c1.627,0.46,3.451,0.892,5.435,1.344
					c0.993,0.211,2.026,0.429,3.096,0.655c1.062,0.192,2.162,0.393,3.291,0.596c2.26,0.385,4.633,0.741,7.084,1.052
					c4.896,0.62,10.082,0.997,15.239,1.182c5.158,0.168,10.285,0.107,15.068-0.114c2.392-0.112,4.702-0.236,6.876-0.459
					c2.166-0.297,4.175-0.881,5.986-1.718c3.629-1.65,6.482-4.277,8.406-6.671c0.965-1.183,1.698-2.275,2.184-3.139
					c0.493-0.815,0.743-1.348,0.743-1.348c1.455-3.111,1.065-6.922-1.311-9.706c0,0-0.381-0.445-1.07-1.101
					c-0.698-0.706-1.694-1.563-2.938-2.448c-2.488-1.797-5.938-3.573-9.874-4.203c-1.969-0.329-4.058-0.359-6.228-0.073
					C146.68,413.5,144.418,413.993,142.084,414.519z"/>
				
					<rect x="171.546" y="414.221" transform="matrix(-0.1338 -0.991 0.991 -0.1338 -218.4651 658.098)" fill="#4F5666" stroke="#000000" stroke-width="8" stroke-linecap="round" stroke-linejoin="round" stroke-miterlimit="38" width="13.673" height="20.611"/>
			</g>
			<g>
				
					<path fill="#CCAC6C" stroke="#000000" stroke-width="8" stroke-linecap="round" stroke-linejoin="round" stroke-miterlimit="38" d="
					M256.127,456.77c-8.875,2.255-17.237,4.502-24.928,6.688c-7.694,2.171-14.724,4.266-20.927,6.228
					c-3.101,0.984-6.003,1.907-8.685,2.762c-2.672,0.897-5.126,1.725-7.342,2.471c-4.428,1.51-7.89,2.762-10.244,3.644
					c-2.352,0.898-3.606,1.378-3.606,1.378c-2.066,0.789-3.417,2.91-3.138,5.209c0.332,2.702,2.794,4.628,5.496,4.297
					c0,0,1.335-0.162,3.832-0.467c2.492-0.322,6.138-0.834,10.761-1.566c2.308-0.379,4.862-0.795,7.644-1.248
					c2.771-0.5,5.768-1.039,8.971-1.616c6.398-1.168,13.591-2.599,21.408-4.278c7.82-1.661,16.264-3.582,25.162-5.736
					c8.907-2.132,18.252-4.56,27.946-6.972c9.688-2.436,19.698-4.952,29.87-7.51c10.158-2.609,20.479-5.263,30.799-7.915
					c10.313-2.679,20.644-5.285,30.78-7.989c10.142-2.684,20.121-5.323,29.778-7.883c9.66-2.54,18.969-5.124,27.813-7.506
					s17.194-4.672,24.893-6.829c7.7-2.146,14.771-4.073,21.017-5.866c6.245-1.778,11.695-3.33,16.181-4.608
					c8.956-2.61,14.076-4.103,14.076-4.103c2.418-0.712,3.946-3.178,3.428-5.69c-0.545-2.65-3.136-4.359-5.786-3.815
					c0,0-5.224,1.073-14.361,2.952c-4.563,0.966-10.105,2.142-16.459,3.487c-6.359,1.333-13.509,2.936-21.321,4.636
					c-7.816,1.691-16.27,3.569-25.198,5.599c-8.933,2.026-18.368,4.093-28.097,6.361c-9.732,2.252-19.791,4.581-30.01,6.946
					c-10.222,2.35-20.576,4.874-30.946,7.326c-10.361,2.477-20.724,4.955-30.925,7.396c-10.189,2.493-20.215,4.947-29.917,7.322
					C274.394,452.27,264.993,454.492,256.127,456.77z"/>
				
					<path fill="#564432" stroke="#000000" stroke-width="8" stroke-linecap="round" stroke-linejoin="round" stroke-miterlimit="38" d="
					M100.307,480.684c-2.144,0.613-3.351,1.034-3.351,1.034l11.2,45.15c0,0,1.267-0.192,3.444-0.65
					c1.084-0.246,2.411-0.52,3.911-0.905c1.506-0.372,3.2-0.807,5.035-1.333c1.844-0.49,3.817-1.124,5.914-1.757
					c2.091-0.647,4.276-1.411,6.551-2.155c2.266-0.767,4.615-1.528,7.029-2.201c2.409-0.694,4.872-1.329,7.332-1.981
					c4.924-1.285,9.802-2.747,14.193-4.861c2.199-1.032,4.285-2.214,6.233-3.434c0.977-0.608,1.914-1.239,2.815-1.881
					c0.905-0.633,1.787-1.202,2.586-1.942c0.804-0.724,1.543-1.54,2.219-2.424c0.34-0.439,0.657-0.917,0.961-1.404
					c0.309-0.464,0.606-0.93,0.876-1.46c1.1-1.989,1.964-4.128,2.606-6.164c0.305-1.08,0.577-2.044,0.815-2.883
					c0.206-0.955,0.386-1.766,0.528-2.424c0.24-1.512,0.369-2.315,0.369-2.315s-0.49-0.652-1.408-1.874
					c-0.436-0.516-0.971-1.15-1.602-1.899c-0.602-0.628-1.293-1.355-2.068-2.166c-1.519-1.5-3.281-2.989-5.186-4.232
					c-0.484-0.341-0.963-0.613-1.456-0.881c-0.496-0.29-1-0.563-1.507-0.791c-1.01-0.467-2.047-0.843-3.094-1.104
					c-1.051-0.284-2.099-0.373-3.192-0.511c-1.097-0.146-2.223-0.267-3.368-0.348c-2.293-0.166-4.686-0.237-7.116-0.124
					c-4.868,0.185-9.866,1.175-14.819,2.338c-2.479,0.572-4.954,1.163-7.408,1.677c-2.449,0.53-4.883,0.956-7.243,1.339
					c-2.359,0.403-4.647,0.752-6.8,1.156c-2.148,0.42-4.189,0.781-6.048,1.211c-1.868,0.392-3.57,0.799-5.072,1.173
					C102.68,480.02,101.379,480.396,100.307,480.684z"/>
				
					<rect x="183.353" y="472.251" transform="matrix(-0.2407 -0.9706 0.9706 -0.2407 -232.4039 783.2982)" fill="#4F5666" stroke="#000000" stroke-width="8" stroke-linecap="round" stroke-linejoin="round" stroke-miterlimit="38" width="13.673" height="20.608"/>
			</g>
		</g>
	</g>
</g>
</svg>
