<?xml version="1.0" encoding="utf-8"?>
<!-- Generator: Adobe Illustrator 16.0.0, SVG Export Plug-In . SVG Version: 6.00 Build 0)  -->
<!DOCTYPE svg PUBLIC "-//W3C//DTD SVG 1.1//EN" "http://www.w3.org/Graphics/SVG/1.1/DTD/svg11.dtd">
<svg version="1.1" xmlns="http://www.w3.org/2000/svg" xmlns:xlink="http://www.w3.org/1999/xlink" x="0px" y="0px"
	 width="566.93px" height="566.93px" viewBox="0 0 566.93 566.93" enable-background="new 0 0 566.93 566.93" xml:space="preserve">
<g id="fond" display="none">
	
		<rect x="-10187.873" y="-9494.906" display="inline" fill-rule="evenodd" clip-rule="evenodd" fill="#58595B" width="15942.492" height="15814.695"/>
</g>
<g id="en_cours">
</g>
<g id="fini">
	<g>
		
			<path fill="#AB2E23" stroke="#000000" stroke-width="8" stroke-linecap="round" stroke-linejoin="round" stroke-miterlimit="10" d="
			M435.506,220.018c31.578-14.578,46.56-41.771,55.06-54.521c4.106-6.159,9.078-13.723,10.791-22.232
			c-25.918-27.372-56.857-55.046-64.791-53.517c-31.019,5.979-66.234,54.419-144.674,114.561
			C344.386,199.473,372.695,249.015,435.506,220.018z"/>
		
			<path fill="#AB2E23" stroke="#000000" stroke-width="8" stroke-linecap="round" stroke-linejoin="round" stroke-miterlimit="10" d="
			M118.988,318.896c-31.908,25.394-50.973,49.45-65.423,78.352c-2.62,5.24-4.59,10.299-5.994,15.188
			C79.241,391.613,108.522,362.924,118.988,318.896z"/>
		
			<path fill="#CCAC6C" stroke="#000000" stroke-width="8" stroke-linecap="round" stroke-linejoin="round" stroke-miterlimit="10" d="
			M452.065,226.434c-88.467,48.177-165.81,64.834-228.06,105.584c-61.349,40.16-60.44,66.23-94.44,100.23
			c-6.25,6.25-37,40.5-27.5,50s49.589-42.733,69.44-69.288c38.5-51.5,79.709-72.233,142.973-101.415
			c30.287-13.971,131.599-53.547,149.527-61.527c14.106-6.279,48.623-35.601,69.82-68.367c-3.242-4.726-7.695-10.418-12.928-16.626
			C508.307,184.185,485.915,208,452.065,226.434z"/>
		
			<path fill="#E5E2D3" stroke="#000000" stroke-width="8" stroke-linecap="round" stroke-linejoin="round" stroke-miterlimit="10" d="
			M464.006,250.018c-17.929,7.98-119.24,47.557-149.527,61.527c-63.264,29.182-104.473,49.915-142.973,101.415
			c-19.852,26.555-59.94,78.788-69.44,69.288s21.25-43.75,27.5-50c34-34,33.092-60.07,94.44-100.23
			c62.25-40.75,139.593-57.407,228.06-105.584c33.85-18.434,56.241-42.249,68.833-61.409c-5.76-6.831-12.461-14.282-19.542-21.76
			c-1.713,8.51-6.685,16.073-10.791,22.232c-8.5,12.749-23.481,39.942-55.06,54.521c-62.811,28.997-91.12-20.545-143.614-15.709
			c-26.506,20.324-57.94,41.981-95.826,63.791c-32.083,18.469-57.097,34.895-77.077,50.797
			c-10.466,44.027-39.747,72.717-71.417,93.539c-3.079,10.721-3.42,20.62-1.834,29.803c18.949-20.496,50.542-40.272,63.769-61.721
			c34.906-56.605,41.513-76.071,73.487-57.013c19.117,11.395-4.047,20.513-63.19,89.579c-23.514,27.459-44.762,34.665-55.986,66.859
			c6.126,7.894,13.063,15.118,19.749,21.805c25,25,44.785-8.543,82.25-57.75c31.987-42.013,157.919-129.929,235.75-150.75
			c78.5-21,138-65.5,138-100c0-2.236-2.116-6.315-5.739-11.598C512.629,214.417,478.112,243.738,464.006,250.018z M187.565,299.959
			c-2.06-15.441,55.003-29.707,93.178-61.941c32.15-27.147,81.263,0,81.263,8s-46.5,14.5-108.605,48.895
			C208.039,320.034,189.078,311.298,187.565,299.959z"/>
		
			<path fill="#AB2E23" stroke="#000000" stroke-width="8" stroke-linecap="round" stroke-linejoin="round" stroke-miterlimit="10" d="
			M119.803,413.084c59.144-69.066,82.308-78.185,63.19-89.579c-31.975-19.059-38.581,0.407-73.487,57.013
			c-13.227,21.448-44.819,41.225-63.769,61.721c2.442,14.146,9.455,26.591,18.079,37.705
			C75.041,447.749,96.289,440.543,119.803,413.084z"/>
		
			<path fill="#AB2E23" stroke="#000000" stroke-width="8" stroke-linecap="round" stroke-linejoin="round" stroke-miterlimit="10" d="
			M253.4,294.912c62.105-34.395,108.605-40.895,108.605-48.895s-49.112-35.147-81.263-8c-38.175,32.234-95.237,46.5-93.178,61.941
			C189.078,311.298,208.039,320.034,253.4,294.912z"/>
	</g>
</g>
</svg>
