<?xml version="1.0" encoding="utf-8"?>
<!-- Generator: Adobe Illustrator 16.0.0, SVG Export Plug-In . SVG Version: 6.00 Build 0)  -->
<!DOCTYPE svg PUBLIC "-//W3C//DTD SVG 1.1//EN" "http://www.w3.org/Graphics/SVG/1.1/DTD/svg11.dtd">
<svg version="1.1" xmlns="http://www.w3.org/2000/svg" xmlns:xlink="http://www.w3.org/1999/xlink" x="0px" y="0px"
	 width="566.93px" height="566.93px" viewBox="0 0 566.93 566.93" enable-background="new 0 0 566.93 566.93" xml:space="preserve">
<g id="fond" display="none">
	
		<rect x="-6701.873" y="-11126.046" display="inline" fill-rule="evenodd" clip-rule="evenodd" fill="#58595B" width="16654.492" height="16572.797"/>
</g>
<g id="en_cours">
</g>
<g id="fini">
	<g>
		<path d="M313.615,432.652c-1.634-3.261-3.636-6.897-6.007-10.902c-2.375-4.005-4.971-8.121-7.788-12.349
			c-2.819-4.228-5.712-8.417-8.677-12.571c-2.969-4.151-5.861-8.083-8.677-11.792c-2.82,3.709-5.712,7.676-8.678,11.903
			c-2.969,4.228-5.823,8.455-8.566,12.683c-2.747,4.228-5.305,8.344-7.676,12.349c-2.375,4.005-4.377,7.564-6.007,10.68h-21.36
			c5.19-10.085,11.382-20.358,18.579-30.816c7.193-10.457,14.351-20.432,21.471-29.926l-38.27-54.957h23.362l27.59,40.495
			l27.813-40.495h22.027l-37.379,53.622c7.12,9.645,14.424,19.841,21.916,30.594c7.488,10.756,13.83,21.248,19.023,31.483H313.615z"
			/>
	</g>
</g>
</svg>
