<?xml version="1.0" encoding="utf-8"?>
<!-- Generator: Adobe Illustrator 16.0.0, SVG Export Plug-In . SVG Version: 6.00 Build 0)  -->
<!DOCTYPE svg PUBLIC "-//W3C//DTD SVG 1.1//EN" "http://www.w3.org/Graphics/SVG/1.1/DTD/svg11.dtd">
<svg version="1.1" xmlns="http://www.w3.org/2000/svg" xmlns:xlink="http://www.w3.org/1999/xlink" x="0px" y="0px"
	 width="566.93px" height="566.93px" viewBox="0 0 566.93 566.93" enable-background="new 0 0 566.93 566.93" xml:space="preserve">
<g id="fond" display="none">
	
		<rect x="-9532.873" y="-8861.898" display="inline" fill-rule="evenodd" clip-rule="evenodd" fill="#58595B" width="15942.492" height="15814.695"/>
</g>
<g id="en_cours">
</g>
<g id="fini">
	<g>
		<path fill="#CCAC6C" stroke="#000000" stroke-width="8" stroke-miterlimit="10" d="M275.436,504.71
			c4.043,16.223,20.372,25.978,36.527,21.883l-14.329-59.163C281.278,471.634,271.365,488.364,275.436,504.71z"/>
		<path fill="#CCAC6C" stroke="#000000" stroke-width="8" stroke-miterlimit="10" d="M133.773,456.55
			c-16.204,4.202-25.517,22.233-20.855,38.579c4.626,16.223,21.307,25.978,37.314,21.883l-12.598-61.665L133.773,456.55z"/>
		<path fill="#E5E2D3" stroke="#000000" stroke-width="8" stroke-linejoin="round" stroke-miterlimit="10" d="M406.452,477.034
			c-0.013-0.281-0.021-0.561-0.041-0.839L393.916,46.188L202.214,46.06l-19.508,395.253l-45.071,14.034l12.598,61.665l60.18-14.927
			v-34.632h33.001l29.279-257.465c0.043-15.519,10.714-28.172,25.048-28.172c14.332,0,24.605,12.653,24.404,28.172l21.728,245.913
			l-46.238,11.528l14.329,59.163l60.12-14.781v-34.777H406.452z"/>
		
			<path fill="#CCAC6C" stroke="#000000" stroke-width="8" stroke-linecap="round" stroke-linejoin="round" stroke-miterlimit="10" d="
			M406.483,479.851c0.001-0.063,0.005-0.124,0.008-0.185c0.004-0.125,0.003-0.247,0.004-0.369
			c0.018-0.753-0.257-13.612-0.296-14.369l-34.116,12.106v34.777l7.767-1.91C394.697,507.64,405.944,494.818,406.483,479.851z"/>
		<path fill="#CCAC6C" stroke="#000000" stroke-width="8" stroke-linejoin="round" stroke-miterlimit="10" d="M210.412,502.085
			l9.422-2.337c1.171-0.278,2.318-0.622,3.434-1.032c0.096-0.036,0.188-0.072,0.281-0.106c0.349-0.135,0.694-0.268,1.037-0.413
			c0.209-0.089,0.415-0.183,0.62-0.274c0.22-0.097,0.439-0.195,0.656-0.299c0.295-0.14,0.582-0.287,0.872-0.438
			c0.123-0.063,0.247-0.126,0.37-0.193c0.351-0.187,0.694-0.382,1.034-0.581c0.06-0.032,0.121-0.069,0.181-0.105
			c0.383-0.227,0.756-0.464,1.124-0.706c0.025-0.016,0.049-0.032,0.071-0.047c0.386-0.258,0.765-0.521,1.14-0.796
			c0.013-0.009,0.026-0.021,0.041-0.03c0.372-0.271,0.736-0.556,1.094-0.842c0.021-0.02,0.045-0.036,0.067-0.057
			c0.34-0.275,0.671-0.558,0.999-0.85c0.047-0.041,0.094-0.084,0.14-0.126c0.295-0.264,0.582-0.536,0.866-0.811
			c0.082-0.081,0.164-0.159,0.246-0.239c0.237-0.242,0.473-0.487,0.705-0.731c0.123-0.129,0.244-0.261,0.363-0.393
			c0.182-0.202,0.361-0.405,0.538-0.613c0.161-0.188,0.323-0.379,0.48-0.572c0.128-0.155,0.253-0.313,0.376-0.472
			c0.196-0.252,0.39-0.502,0.576-0.758c0.08-0.111,0.159-0.221,0.24-0.334c0.215-0.305,0.43-0.614,0.635-0.926
			c0.05-0.072,0.096-0.145,0.143-0.217c0.225-0.35,0.447-0.705,0.657-1.067c0.027-0.041,0.051-0.086,0.078-0.128
			c0.223-0.384,0.437-0.771,0.646-1.164c0.015-0.033,0.032-0.066,0.051-0.099c0.205-0.396,0.403-0.798,0.593-1.204
			c0.02-0.044,0.04-0.09,0.062-0.132c0.18-0.39,0.351-0.781,0.514-1.177c0.033-0.084,0.067-0.168,0.098-0.251
			c0.142-0.355,0.28-0.71,0.409-1.07c0.052-0.151,0.102-0.304,0.154-0.455c0.099-0.295,0.2-0.591,0.289-0.888
			c0.076-0.249,0.146-0.498,0.215-0.748c0.058-0.206,0.116-0.411,0.169-0.622c0.098-0.374,0.185-0.757,0.269-1.14
			c0.018-0.086,0.038-0.173,0.058-0.26c0.275-1.324,0.46-2.672,0.56-4.037l1.494-16.999l-34.065,12.106V502.085z"/>
	</g>
</g>
</svg>
