<?xml version="1.0" encoding="utf-8"?>
<!-- Generator: Adobe Illustrator 16.0.0, SVG Export Plug-In . SVG Version: 6.00 Build 0)  -->
<!DOCTYPE svg PUBLIC "-//W3C//DTD SVG 1.1//EN" "http://www.w3.org/Graphics/SVG/1.1/DTD/svg11.dtd">
<svg version="1.1" xmlns="http://www.w3.org/2000/svg" xmlns:xlink="http://www.w3.org/1999/xlink" x="0px" y="0px"
	 width="566.93px" height="566.93px" viewBox="0 0 566.93 566.93" enable-background="new 0 0 566.93 566.93" xml:space="preserve">
<g id="fond" display="none">
	
		<rect x="-6056.873" y="-10462.046" display="inline" fill-rule="evenodd" clip-rule="evenodd" fill="#58595B" width="16654.492" height="16572.797"/>
</g>
<g id="en_cours">
</g>
<g id="fini">
	<g>
		<g>
			<g>
				
					<path fill="#E5CFAA" stroke="#000000" stroke-width="8" stroke-linecap="round" stroke-linejoin="round" stroke-miterlimit="10" d="
					M461.556,416.635c-18.404,61.66-72.411,88.569-124.503,73.031c-52.088-15.545-82.526-67.645-64.135-129.308
					c18.397-61.656,95.888-138.625,140.136-125.422C457.302,248.137,479.95,354.979,461.556,416.635z"/>
				<circle fill="#FFFFFF" cx="425.28" cy="287.594" r="14.163"/>
			</g>
		</g>
		<g>
			<path d="M116.753,317.217c4.746-1.186,11.048-2.447,18.913-3.782c7.86-1.335,16.91-2.003,27.145-2.003
				c9.195,0,16.833,1.3,22.917,3.894c6.08,2.597,10.937,6.23,14.573,10.902c3.633,4.673,6.192,10.273,7.676,16.799
				c1.481,6.529,2.225,13.722,2.225,21.582v64.97H189.51v-60.52c0-7.12-0.483-13.2-1.446-18.245
				c-0.966-5.041-2.559-9.122-4.784-12.237c-2.225-3.114-5.194-5.374-8.9-6.786c-3.709-1.408-8.309-2.113-13.795-2.113
				c-2.225,0-4.526,0.076-6.897,0.223c-2.375,0.149-4.638,0.333-6.786,0.556c-2.152,0.223-4.082,0.483-5.785,0.779
				c-1.707,0.299-2.931,0.521-3.671,0.667v97.677h-20.692V317.217z"/>
			<path d="M259.82,262.705c0,1.634,0,3.226,0,4.783s-0.076,3.08-0.222,4.562c-0.595,7.714-2.302,15.317-5.118,22.806
				c-2.819,7.492-6.23,14.573-10.235,21.249l-16.02-5.118c3.115-6.675,5.451-13.312,7.009-19.913
				c1.558-6.599,2.336-12.794,2.336-18.579c0-1.48-0.039-3.076-0.111-4.783c-0.077-1.704-0.188-3.372-0.334-5.006H259.82z"/>
		</g>
	</g>
</g>
</svg>
