<?xml version="1.0" encoding="utf-8"?>
<!-- Generator: Adobe Illustrator 16.0.0, SVG Export Plug-In . SVG Version: 6.00 Build 0)  -->
<!DOCTYPE svg PUBLIC "-//W3C//DTD SVG 1.1//EN" "http://www.w3.org/Graphics/SVG/1.1/DTD/svg11.dtd">
<svg version="1.1" xmlns="http://www.w3.org/2000/svg" xmlns:xlink="http://www.w3.org/1999/xlink" x="0px" y="0px" width="566.9px"
	 height="566.9px" viewBox="0 0 566.9 566.9" enable-background="new 0 0 566.9 566.9" xml:space="preserve">
<g id="fond" display="none">
	
		<rect x="-8249.9" y="-8861.9" display="inline" fill-rule="evenodd" clip-rule="evenodd" fill="#F2F2F2" width="15942.5" height="15814.7"/>
</g>
<g id="en_cours">
</g>
<g id="fini">
	<g>
		<g>
			<path fill-rule="evenodd" clip-rule="evenodd" fill="#333333" d="M196.3,7.4c13.8,11.4,14.8,28.6,10,44c-0.8,2.5-1.8,5-2.9,7.4
				c-4.3,9.2-15.1,11.7-22.1,0.4c-5.4-8.7-7-18.1-5.2-28.1c0.4-2.3,0.3-4.7,0.7-7c1.3-6.9,4.7-12.4,10.9-16.1
				C190.6,7.8,193.4,7.6,196.3,7.4z"/>
			<path fill-rule="evenodd" clip-rule="evenodd" fill="#333333" d="M100.1,102.7c4.6-7,9.9-7.2,13.9,0.2c1.6,3,2.1,7,1.9,10.5
				c-0.1,1.8-2.6,5-4.1,5c-2.6,0-5.8-1.3-7.7-3.2c-1.9-1.9-2.5-5.1-3.7-7.7C100.3,105.9,100.2,104.3,100.1,102.7z"/>
			<path fill-rule="evenodd" clip-rule="evenodd" fill="#333333" d="M232,134.5c0.9,18-2.9,32.2-10.6,45.8
				c-8.7,15.3-17,31-21.3,48.2c-2,8.1-2.2,16.7,2.5,24.4c4.4,7.4,8.8,14.8,13.7,21.9c8,11.7,12.1,24.2,10,38.4
				c-0.3,1.7,0.1,3.5,0.3,5.3c1.2,13.9-5.6,24.6-14.7,33.7c-6.4,6.4-15.5,5.5-23.4,3.3c-13.8-3.9-24.7-12.3-30.7-25.6
				c-5-11.2-8.8-22.8-7.5-35.7c0.8-8.1-1.1-16.3-1.3-24.5c-0.3-11.1-2-21.8-6.4-32c-5.2-12.2-10.5-24.5-16.4-36.4
				c-11.4-22.8-13.6-46.1-3.7-69.8c2.4-5.7,6.6-10.9,11-15.3c7.3-7.3,15.3-14.2,23.4-20.6c6.9-5.5,14.1-10.7,21.6-15.1
				c12.1-7.1,20.4-5.5,29.4,4.1c9.4,10,16.3,21.9,21.1,34.8C231.1,124.8,231.4,131,232,134.5z"/>
			<path fill-rule="evenodd" clip-rule="evenodd" fill="#333333" d="M169.4,53.3c-1.2,3.7-1.9,7.8-3.8,11.1
				c-2.5,4.3-7.5,4.6-11.5,1.6c-8.1-6.1-11.4-22.4-4.5-31.7c3.9-5.3,11.3-4.3,14.2,2.3C166.1,41.8,167.4,47.3,169.4,53.3z"/>
			<path fill-rule="evenodd" clip-rule="evenodd" fill="#333333" d="M124.4,66c0.2-2.8,0.2-5.7,0.8-8.4c1.2-5.3,6.8-7,10.9-3.6
				c8.2,6.7,9.8,15.8,8.7,25.4c-0.7,6.3-7.2,8.4-12.1,4.1C127.4,79,124.7,73.1,124.4,66z"/>
			<path fill-rule="evenodd" clip-rule="evenodd" fill="#333333" d="M126.6,93c0.3,3.3,1,7.1-4.4,8.4c-4.8,1.1-7.2-1.7-8.7-5.2
				c-2.1-4.7-4-9.6-4.7-14.6c-0.3-2.3,1.7-5.7,3.7-7.3c2.5-2,5,0.2,7,2.2C123.7,80.9,126.5,86.1,126.6,93z"/>
		</g>
		<g>
			<path fill-rule="evenodd" clip-rule="evenodd" fill="#333333" d="M356.1,558.3c-12.7-9.6-20-21.8-19.1-38.3
				c0.3-5.9,0.5-11.8,0.5-17.7c-0.1-9.1,4.9-16.2,9.3-23.3c6.2-9.9,14.2-18.8,17.8-30.2c2.1-6.7,1.3-13.4-0.4-20
				c-5.2-19.8-16-37.2-24.3-55.6c-6.4-14.4-7.1-29.8-3.4-45.4c4.1-17.4,13.7-31.3,26.2-43.3c7.8-7.6,16-7.6,24.8-1.9
				c15.5,10,30.2,21,43.2,34.4c11.6,11.9,18.9,25.5,19.2,41.8c0.3,13.4-0.4,26.9-7.2,39.3c-6.6,12.1-13.1,24.4-18.3,37.1
				c-3.8,9.1-6.2,18.8-7.9,28.5c-1.7,9.8-2,19.8-2.6,29.8c-0.3,5.1,0.4,10.3-0.5,15.2c-2.8,16-7.9,31.2-21.7,41.1
				c-6.2,4.4-14,6.5-21.1,9.7C365.8,559.1,360.9,558.7,356.1,558.3z"/>
			<path fill-rule="evenodd" clip-rule="evenodd" fill="#333333" d="M393.8,244.6c-2.1,5.6-3.6,11.4-6.3,16.6
				c-2.6,4.8-6.5,9.1-13.1,8.2c-6.4-0.9-9.2-5.7-11.3-11c-3.5-9.2-4.3-18.7-2.8-28.4c1.1-7.1,4.9-13,9.9-17.8
				c4.3-4.1,13.5-1.2,17.6,4.7c4.1,6.1,4.4,13,4.9,19.9c0.2,2.5,0.3,5,0.5,7.5C393.4,244.4,393.6,244.5,393.8,244.6z"/>
			<path fill-rule="evenodd" clip-rule="evenodd" fill="#333333" d="M399,255.6c1.9-5.3,3.3-10.8,5.9-15.7c1.4-2.6,4.9-5.5,7.5-5.5
				c2.4,0,5.5,3.1,7.3,5.6c5.5,8.1,2.3,20.7-3.1,27.3c-2.8,3.4-6.8,5.5-11,3.6c-4.4-2-5.6-6.5-6-11.1c-0.1-1.3,0.2-2.6,0.3-3.8
				C399.6,255.8,399.3,255.7,399,255.6z"/>
			<path fill-rule="evenodd" clip-rule="evenodd" fill="#333333" d="M443.2,269.8c0,7.2-2.8,13.3-8.4,17.8c-4.8,4-11.1,1.9-11.9-4.2
				c-1.2-9.4,0.5-18.1,8.1-24.8c2.4-2.1,4.8-3.1,7.8-2c3.4,1.3,4.6,4.2,4.8,7.5C443.7,265.9,443.3,267.9,443.2,269.8z"/>
			<path fill-rule="evenodd" clip-rule="evenodd" fill="#333333" d="M440.9,296.9c0.3-7.3,3.2-12.6,8.2-16.7
				c1.6-1.3,4.7-2.4,6.2-1.6c1.9,0.9,3.8,3.8,3.9,5.8c0.1,7.7-2.7,14.6-8.4,19.9c-1.4,1.3-5.1,1.3-7.1,0.5c-1.5-0.7-2.1-3.6-2.8-5.7
				C440.5,298.2,440.9,297.1,440.9,296.9z"/>
			<path fill-rule="evenodd" clip-rule="evenodd" fill="#333333" d="M449.9,314.4c2-3.8,3.2-7.2,5.4-9.9c3.5-4.5,9.1-3.2,11.1,2.3
				c1.6,4.2-1.9,13.6-6,15.2c-2,0.8-5.3,1.3-6.4,0.2C452,320.4,451.3,317.2,449.9,314.4z"/>
		</g>
	</g>
</g>
</svg>
