<?xml version="1.0" encoding="utf-8"?>
<!-- Generator: Adobe Illustrator 16.0.0, SVG Export Plug-In . SVG Version: 6.00 Build 0)  -->
<!DOCTYPE svg PUBLIC "-//W3C//DTD SVG 1.1//EN" "http://www.w3.org/Graphics/SVG/1.1/DTD/svg11.dtd">
<svg version="1.1" xmlns="http://www.w3.org/2000/svg" xmlns:xlink="http://www.w3.org/1999/xlink" x="0px" y="0px" width="566.9px"
	 height="566.9px" viewBox="0 0 566.9 566.9" enable-background="new 0 0 566.9 566.9" xml:space="preserve">
<g id="fond" display="none">
	
		<rect x="-8889.9" y="-8228.8" display="inline" fill-rule="evenodd" clip-rule="evenodd" fill="#F2F2F2" width="15942.5" height="15814.7"/>
</g>
<g id="en_cours">
</g>
<g id="fini">
	<g>
		<g>
			<path fill-rule="evenodd" clip-rule="evenodd" fill="#58595B" d="M212.2,171.7c-0.4-0.3-0.8-0.5-1.2-0.8
				c3.5-5.8,7-11.6,10.5-17.4c-6.9-9.4-13.7-18.8-20.7-28.1c-6-7.9-12-15.8-18.2-23.6c-1.4-1.8-3.3-3.2-5-4.7
				c-3.7-1.2-2.8,2.6-4.2,3.8c-4.5,3.5-8.9,7.2-13.1,11.1c-5.3,5-11.8,8.7-17.7,13c-0.2,0.2-0.5,0.5-0.7,0.7
				c-12.3,8.1-24.9,15.3-40.2,15.4c-0.4,0-0.7,0-1.1,0c-4.2-0.3-8.6,0.1-12.6-1.1c-6.2-2-12.3-4.5-17.9-7.8
				c-6.5-3.8-12.5-8.4-18.4-13c-3.9-3-7.8-6.2-11-9.9c-7.2-8.6-13.8-17.7-21.2-27.3c-0.5,2.9-0.8,4.9-1.2,7c0,0.4,0,0.7,0,1.1
				c0,0.5,0,1.1,0,1.6c0,0.4,0,0.7,0,1.1c0.3,3.6,0.4,7.2,0.9,10.7c0.7,4.6,1.7,9.2,2.6,13.8c0,0.1,0,0.3,0.1,0.4c0,0.4,0,0.7,0,1.1
				c0.1,0,0.1-0.1,0.2-0.1l0,0c-0.1,0-0.1,0.1-0.2,0.1c0.2,0.6,0.3,1.1,0.5,1.7C36.7,202.3,103,310,209.4,368.4
				c5.2,3.9,10.5,7.7,17.3,8.9c0.6-8.4,1.1-16.8,1.7-25.1c0.8-11.6,1.6-23.3,2.3-32.7c0.2-1.9,0.4-3.7,0.5-5.6
				c0.1-1.1,0.1-2.2,0.1-3.4c0.4-6,0.7-9.7,0.7-9.7s-11.7-10.9-19.1-28c-1-2.5-2-5-2.9-7.6c-1.4-3.8-3-7.7-3.5-11.7
				c-0.6-4.6-0.3-9.4,0.2-14c0.6-6.6,0.9-13.4,2.9-19.5c3.3-10,7.4-19.8,13.8-28.6c4.2-5.7,8.1-11.5,13.3-16.4
				c-3.5-5-7.1-10.1-10.6-15.1C221.5,163.8,216.8,167.8,212.2,171.7z"/>
			<path fill-rule="evenodd" clip-rule="evenodd" fill="#58595B" d="M287.6,126.1c-0.5-5.5-1.9-10.8-2.5-16.3
				c-1.5-13.1-2.6-26.3-4.1-39.4c-1.5-12.4-3-24.9-5-37.2c-1.2-7.7-3.3-15.2-5.2-23.6c-4.3,4.7-7.6,8.7-11.3,12.4
				c-3.8,3.8-7.9,7.3-11.8,11c-6.1,5.9-12.1,11.9-18.1,17.8c-3.7,3.6-7.5,7.3-11.3,10.8c-3.3,3-6.8,5.8-10.3,8.8
				c-0.2,0.2-0.5,0.5-0.7,0.7c-1.5,1-3,2-4.5,3c7.9,10.7,15.7,21.4,23.7,32c5.4,7.1,11.1,13.9,16.6,20.9
				c5.3-5.2,10.9-10.2,15.8-15.8c1.4-1.6,1.4-5,1.1-7.5c-1.2-9.2-3.3-18.3-4.2-27.6c-1-10.2-0.7-20.5-1.6-30.8
				c-0.6-6.3,0.8-11,5.8-15.2c3.3-2.7,5.6-6.6,8.5-10.2c0.8,9,2.4,17.4,2.2,25.8c-0.4,16.2,2.6,32,4,48c0.7,8.5,2.5,16.9,4.6,25.2
				c0.7,3-0.2,3.8-2.1,5.2c-7.8,5.6-15.6,11.3-23.4,17c3,3.9,6.1,7.9,9.1,11.8c1.7-1.3,3.5-2.6,5.2-4c6.1-5.4,12.3-10.8,18.1-16.5
				C287.3,131,287.8,128.1,287.6,126.1z"/>
			<path fill-rule="evenodd" clip-rule="evenodd" fill="#58595B" d="M235.8,140.2c-3.1-0.1-8.1,3.4-8,5.6c0.1,4.7,3.6,8.8,7.6,8.8
				c4.1,0,6.7-3.1,6.6-7.9C241.8,143.8,238.5,140.3,235.8,140.2z"/>
			<path fill-rule="evenodd" clip-rule="evenodd" fill="#58595B" d="M207.5,115.8c2.4,0.2,6.2-3.5,6.5-6.3c0.3-2.7-4.2-7.6-7-7.8
				c-3.5-0.1-7,3.2-7.2,7C199.5,111,204.5,115.5,207.5,115.8z"/>
		</g>
		<path fill-rule="evenodd" clip-rule="evenodd" fill="#9C8156" d="M534.5,468.8c-8.4-3.7-16.5-8.4-24.2-13.5
			c-5.8-3.8-10.9-8.6-15.9-13.3c-5.6-5.4-10.9-11.2-16.2-16.8c-2.7-2.8-5.1-5.9-7.8-8.6c-3.3-3.3-7.1-6.1-10.3-9.5
			c-9.6-10.6-19.1-21.3-28.6-32.1c-2-2.3-3.6-5-5.6-7.3c-6-7-12.5-13.6-18-21c-14.1-18.8-27.8-37.7-43.6-55.2
			c-6.2-6.8-11.7-14.2-17.2-21.6c-15.8-21.3-31.5-42.8-47.3-64.2c-8.2-11.2-16.6-22.4-24.6-33.7c-4.4-6.2-8.4-12.7-12.6-19.1
			c-3-3.9-6.1-7.9-9.1-11.8c-3.5-4.7-7.1-9.5-10.6-14.2c-5.5-7-11.2-13.8-16.6-20.9c-8-10.6-15.8-21.3-23.7-32c-1-1-1.9-1.9-2.9-2.9
			c-5.7-5.3-18.5-3.8-23.2,3.6c-0.2,0.2-0.5,0.5-0.7,0.7c-3,4.7-3.1,9.7-1.7,14.8c0.7,2.4,2.3,4.5,3.4,6.7c1.7,1.6,3.6,2.9,5,4.7
			c6.2,7.8,12.2,15.6,18.2,23.6c7,9.3,13.8,18.8,20.7,28.1c1.5,2.1,3.1,4.3,4.6,6.4c3.5,5,7.1,10.1,10.6,15.1
			c1.1,1.8,2.1,3.8,3.4,5.4c7.5,9.5,15.2,18.9,22.7,28.4c5.8,7.4,11.4,14.9,16.9,22.5c8.1,11.4,15.9,23.1,24,34.5
			c4.9,6.9,10.1,13.6,15.1,20.4c4.7,6.4,9.1,13,13.8,19.5c3.4,4.7,7.2,9.1,10.5,14c3.2,4.8,5.5,10.2,8.9,14.8
			c11.4,15.3,23.1,30.5,33.5,46.6c10.9,16.8,24,32.2,36.1,48.2c11.6,15.3,23.1,30.7,34.6,46.1c5.1,6.8,10.2,13.7,15.7,20.2
			c6.2,7.2,13.6,13.5,19.5,20.9c9.3,11.6,19.9,21.7,30.9,31.5c3.5,3.1,7.1,6.3,11.1,8.5c3.5,2,6.7-0.2,6.4-4.2c-0.5-9,2-17.5,4-26.1
			c0-0.4,0-0.7,0-1.1c0.3-1.1,0.6-2.3,0.9-3.4c0-0.4,0-0.7,0-1.1c0.3-2.6,0.6-5.2,0.9-7.9c0-0.4,0-0.7,0-1.1
			c0.9-5.9,1.6-11.9,2.8-17.8C550.4,484.3,543.6,472.8,534.5,468.8z M207.5,115.8c-3-0.2-8-4.7-7.8-7c0.3-3.8,3.7-7.1,7.2-7
			c2.8,0.1,7.3,5.1,7,7.8C213.7,112.2,209.9,115.9,207.5,115.8z M235.4,154.6c-3.9,0-7.5-4.1-7.6-8.8c0-2.1,5-5.6,8-5.6
			c2.7,0.1,6,3.5,6.1,6.4C242.1,151.4,239.5,154.5,235.4,154.6z"/>
		<path fill-rule="evenodd" clip-rule="evenodd" fill="#E3E2D5" d="M27.6,106.7c5.8,6.2,10.5,11.7,15.7,16.8c3,2.9,6.6,5.4,10.1,7.8
			c4.1,2.8,7.4,5.6,8.6,11c1.3,5.9,4,11.5,6.4,17c3.4,7.8,6.9,15.6,10.7,23.3c2.9,5.7,6.4,11,9.7,16.5c4.7,7.8,9.5,15.5,14.4,23.2
			c1.6,2.6,3.6,4.9,5.4,7.4c8,11.1,15.4,22.7,24,33.3c7.8,9.6,17,18,25.5,27c1.5,1.6,2.5,3.6,3.7,5.4c-0.4,0.3-0.8,0.7-1.2,1.1
			c-5.2-4.8-10.3-9.6-15.6-14.3c-3.2-2.8-6.6-5.4-9.9-8.2c-2.6-2.2-5.3-4.5-7.7-6.9c-4.8-4.7-9.3-9.6-14.2-14.1
			c-11.6-10.7-20.6-23.4-30.2-35.8c-5.5-7.1-10.4-14.8-15.6-22.2c-2.9-4.1-6.3-8-9-12.2c-3.2-4.9-6.1-10-8.7-15.2
			c-2.7-5.4-4.7-11.2-7.2-16.7c-2.8-6.3-6.3-12.3-8.5-18.7c-2.3-6.3-3.4-13-5-19.6C28.5,110.9,28.2,109.2,27.6,106.7z"/>
		<path fill-rule="evenodd" clip-rule="evenodd" fill="#E3E2D5" d="M168.5,319.4c3.9,2.4,7.9,4.9,11.8,7.3c0.2,0.2,0.5,0.5,0.7,0.7
			c4.1,2.1,8.1,4.2,12.2,6.4c7,3.6,13.8,7.6,20.9,10.8c4.4,2,6.8,4.5,6.5,9.5c-0.2,3,0.1,6-0.2,9c0,0.5-2.3,1.4-2.9,1.1
			c-5-3-9.9-6-14.6-9.4c-3.7-2.7-7.2-5.8-10.7-8.7c-6.7-5.6-13.3-11.3-20-17c-0.2-0.2-0.5-0.5-0.7-0.7c-3.9-3.8-7.9-7.7-11.8-11.6
			c0.1-0.6-10.6-9.1-10.5-9.8c2.6,1.2,16,10.4,18.6,11.6C168,318.9,168.2,319.1,168.5,319.4z"/>
		<path fill-rule="evenodd" clip-rule="evenodd" fill="#E3E2D5" d="M221.4,153.5c1.5,2.1,3.1,4.3,4.6,6.4
			c-4.6,3.9-9.2,7.8-13.9,11.7c-0.4-0.3-0.8-0.5-1.2-0.8C214.5,165.1,218,159.3,221.4,153.5z"/>
		<path fill-rule="evenodd" clip-rule="evenodd" fill="#E3E2D5" d="M242.9,126.9c5.3-5.2,10.9-10.2,15.8-15.8c1.4-1.6,1.4-5,1.1-7.5
			c-1.2-9.2-3.3-18.3-4.2-27.6c-1-10.2-0.7-20.5-1.6-30.8c-0.6-6.3,0.8-11,5.8-15.2c3.3-2.7,5.6-6.6,8.5-10.2
			c0.8,9,2.4,17.4,2.2,25.8c-0.4,16.2,2.6,32,4,48c0.7,8.5,2.5,16.9,4.6,25.2c0.7,3-0.2,3.8-2.1,5.2c-7.8,5.6-15.6,11.3-23.4,17
			C250,136.4,246.5,131.7,242.9,126.9z"/>
	</g>
</g>
</svg>
