<?xml version="1.0" encoding="utf-8"?>
<!-- Generator: Adobe Illustrator 16.0.0, SVG Export Plug-In . SVG Version: 6.00 Build 0)  -->
<!DOCTYPE svg PUBLIC "-//W3C//DTD SVG 1.1//EN" "http://www.w3.org/Graphics/SVG/1.1/DTD/svg11.dtd">
<svg version="1.1" xmlns="http://www.w3.org/2000/svg" xmlns:xlink="http://www.w3.org/1999/xlink" x="0px" y="0px"
	 width="566.93px" height="566.93px" viewBox="0 0 566.93 566.93" enable-background="new 0 0 566.93 566.93" xml:space="preserve">
<g id="fond" display="none">
	
		<rect x="-10849.873" y="-7591.898" display="inline" fill-rule="evenodd" clip-rule="evenodd" fill="#58595B" width="15942.492" height="15814.695"/>
</g>
<g id="en_cours">
</g>
<g id="fini">
	<g>
		<path fill="#CCAC6C" d="M235.428,206.246l-19.335-4.531l0.818-10.214l2.055-25.677c1.029-12.865-8.563-24.131-21.432-25.163
			l-0.249-0.018c-12.868-1.033-24.136,8.563-25.169,21.431l-1.972,24.661c-1.66,0.706-3.228,1.602-4.677,2.663l-2.377-35.146
			c-0.869-12.849-11.408-22.598-23.539-21.779l-0.237,0.019c-12.134,0.817-21.264,11.897-20.397,24.747l4.387,64.873l-4.937-53.052
			c-1.198-12.877-11.538-22.444-23.089-21.37l-0.229,0.021c-11.555,1.074-19.951,12.385-18.753,25.265l6.146,66.063l-8.079-41.296
			c-2.034-10.567-12.251-17.484-22.818-15.452l-0.208,0.042c-10.224,1.967-17.006,11.597-15.598,21.79l-0.032-0.076
			c4.872,42.592,15.979,131.047,15.979,131.047s5.692,40.57,38.94,60.544l-7.919,139.419l142.069-1.048
			c0,0-15.914-112.37-15.914-132.05s39.934-44.344,39.934-63.886C248.796,317.284,275.041,213.768,235.428,206.246z"/>
		
			<line fill="#CCAC6C" stroke="#000000" stroke-width="8" stroke-linecap="round" stroke-linejoin="round" stroke-miterlimit="10" x1="91.468" y1="380.81" x2="82.707" y2="535.057"/>
		
			<path fill="#CCAC6C" stroke="#000000" stroke-width="8" stroke-linecap="round" stroke-linejoin="round" stroke-miterlimit="10" d="
			M124.515,235.121c1.197,12.881-7.199,24.189-18.755,25.263l-0.229,0.022c-11.554,1.075-21.893-8.492-23.09-21.367l-6.146-66.063
			c-1.198-12.88,7.198-24.19,18.753-25.265l0.229-0.021c11.551-1.074,21.891,8.493,23.089,21.37L124.515,235.121z"/>
		
			<path fill="#CCAC6C" stroke="#000000" stroke-width="8" stroke-linecap="round" stroke-linejoin="round" stroke-miterlimit="10" d="
			M167.549,220.163c0.868,12.85-8.264,23.929-20.396,24.749l-0.241,0.019c-12.129,0.82-22.67-8.931-23.538-21.776l-4.457-65.916
			c-0.866-12.85,8.264-23.93,20.397-24.747l0.237-0.019c12.131-0.818,22.67,8.931,23.539,21.779L167.549,220.163z"/>
		
			<path fill="#CCAC6C" stroke="#000000" stroke-width="8" stroke-linecap="round" stroke-linejoin="round" stroke-miterlimit="10" d="
			M213.682,231.829c-1.03,12.868-12.296,22.463-25.165,21.432l-0.252-0.018c-12.865-1.031-22.461-12.297-21.429-25.161l5.28-66.008
			c1.033-12.868,12.301-22.464,25.169-21.431l0.249,0.018c12.868,1.032,22.461,12.298,21.432,25.163L213.682,231.829z"/>
		
			<path fill="#CCAC6C" stroke="#000000" stroke-width="8" stroke-linecap="round" stroke-linejoin="round" stroke-miterlimit="10" d="
			M35.706,204.047c4.872,42.592,15.979,131.047,15.979,131.047s9.392,67.003,74.593,71.19"/>
		
			<path fill="#CCAC6C" stroke="#000000" stroke-width="8" stroke-linecap="round" stroke-linejoin="round" stroke-miterlimit="10" d="
			M84.799,251.955c2.036,10.568-4.883,20.786-15.45,22.818l-0.207,0.043c-10.568,2.033-20.785-4.884-22.819-15.452l-10.438-54.212
			c-2.035-10.568,4.883-20.786,15.451-22.819l0.208-0.042c10.567-2.032,20.784,4.885,22.818,15.452L84.799,251.955z"/>
		
			<path fill="#CCAC6C" stroke="#000000" stroke-width="8" stroke-linecap="round" stroke-linejoin="round" stroke-miterlimit="10" d="
			M224.776,534.009c0,0-15.914-112.37-15.914-132.05s41.896-36.951,48.458-81.309c11.476-77.584,22.585-106.883-21.893-114.404
			l-51.864-12.155c-12.688-2.367-24.894,5.997-27.267,18.685l-0.043,0.248c-2.372,12.689,5.993,24.897,18.684,27.269l41.376,11.252
			l-21.199,26.666c0,0-60.373,16.471-60.373,48.508"/>
		
			<line fill="#CCAC6C" stroke="#000000" stroke-width="8" stroke-linecap="round" stroke-linejoin="round" stroke-miterlimit="10" x1="134.741" y1="432.807" x2="134.741" y2="478.872"/>
	</g>
	
		<path fill="#FFFFFF" stroke="#000000" stroke-width="8" stroke-linecap="round" stroke-linejoin="round" stroke-miterlimit="10" d="
		M412.465,30.041c-73.454,0-133,59.546-133,133c0,42.454,19.892,80.263,50.863,104.613l-42.863,59.708l83.385-37.971
		c13.093,4.31,27.08,6.649,41.615,6.649c73.454,0,133-59.546,133-133S485.919,30.041,412.465,30.041z"/>
	<text transform="matrix(1 0 0 1 372.8467 260.625)" font-family="'UbuntuCondensed-Regular'" font-size="272.627">?</text>
</g>
</svg>
