<?xml version="1.0" encoding="utf-8"?>
<!-- Generator: Adobe Illustrator 16.0.0, SVG Export Plug-In . SVG Version: 6.00 Build 0)  -->
<!DOCTYPE svg PUBLIC "-//W3C//DTD SVG 1.1//EN" "http://www.w3.org/Graphics/SVG/1.1/DTD/svg11.dtd">
<svg version="1.1" xmlns="http://www.w3.org/2000/svg" xmlns:xlink="http://www.w3.org/1999/xlink" x="0px" y="0px"
	 width="566.93px" height="566.93px" viewBox="0 0 566.93 566.93" enable-background="new 0 0 566.93 566.93" xml:space="preserve">
<g id="fond" display="none">
	
		<rect x="-5393.873" y="-9811.008" display="inline" fill-rule="evenodd" clip-rule="evenodd" fill="#58595B" width="16654.492" height="16572.797"/>
</g>
<g id="en_cours">
</g>
<g id="fini">
	<g>
		
			<circle fill="#E5E2D3" stroke="#000000" stroke-width="8" stroke-linecap="round" stroke-linejoin="round" stroke-miterlimit="10" cx="283.465" cy="283.465" r="187.848"/>
		<g>
			
				<line fill="#EF840F" stroke="#000000" stroke-width="8" stroke-linecap="round" stroke-linejoin="round" stroke-miterlimit="10" x1="283.464" y1="419.165" x2="283.464" y2="448.529"/>
			
				<line fill="#EF840F" stroke="#000000" stroke-width="8" stroke-linecap="round" stroke-linejoin="round" stroke-miterlimit="10" x1="283.464" y1="118.4" x2="283.464" y2="147.768"/>
			
				<line fill="#EF840F" stroke="#000000" stroke-width="8" stroke-linecap="round" stroke-linejoin="round" stroke-miterlimit="10" x1="351.323" y1="401.001" x2="365.997" y2="426.416"/>
			
				<line fill="#EF840F" stroke="#000000" stroke-width="8" stroke-linecap="round" stroke-linejoin="round" stroke-miterlimit="10" x1="200.933" y1="140.515" x2="215.606" y2="165.93"/>
			
				<line fill="#EF840F" stroke="#000000" stroke-width="8" stroke-linecap="round" stroke-linejoin="round" stroke-miterlimit="10" x1="426.415" y1="365.998" x2="400.999" y2="351.324"/>
			
				<line fill="#EF840F" stroke="#000000" stroke-width="8" stroke-linecap="round" stroke-linejoin="round" stroke-miterlimit="10" x1="140.514" y1="200.933" x2="165.929" y2="215.607"/>
			
				<line fill="#EF840F" stroke="#000000" stroke-width="8" stroke-linecap="round" stroke-linejoin="round" stroke-miterlimit="10" x1="448.53" y1="283.467" x2="419.162" y2="283.467"/>
			
				<line fill="#EF840F" stroke="#000000" stroke-width="8" stroke-linecap="round" stroke-linejoin="round" stroke-miterlimit="10" x1="147.765" y1="283.465" x2="118.399" y2="283.465"/>
			
				<line fill="#EF840F" stroke="#000000" stroke-width="8" stroke-linecap="round" stroke-linejoin="round" stroke-miterlimit="10" x1="165.928" y1="351.324" x2="140.514" y2="365.997"/>
			
				<line fill="#EF840F" stroke="#000000" stroke-width="8" stroke-linecap="round" stroke-linejoin="round" stroke-miterlimit="10" x1="426.416" y1="200.934" x2="400.999" y2="215.607"/>
			
				<line fill="#EF840F" stroke="#000000" stroke-width="8" stroke-linecap="round" stroke-linejoin="round" stroke-miterlimit="10" x1="365.998" y1="140.515" x2="351.323" y2="165.933"/>
			
				<line fill="#EF840F" stroke="#000000" stroke-width="8" stroke-linecap="round" stroke-linejoin="round" stroke-miterlimit="10" x1="215.604" y1="401.001" x2="200.932" y2="426.416"/>
		</g>
		
			<path fill="#AB2E23" stroke="#000000" stroke-width="8" stroke-linecap="round" stroke-linejoin="round" stroke-miterlimit="10" d="
			M310.549,205.518l-29.842,63.09l-89.284-82.6c-3.806-3.522-9.748-3.291-13.271,0.516c-3.521,3.806-3.291,9.749,0.516,13.271
			l98.679,91.289c2.195,2.031,5.227,2.896,8.163,2.328c2.935-0.569,5.425-2.502,6.704-5.205l35.314-74.658
			c2.218-4.688,0.214-10.286-4.474-12.504C318.366,198.827,312.767,200.83,310.549,205.518z"/>
		
			<circle fill="#4F5666" stroke="#000000" stroke-width="8" stroke-linecap="round" stroke-linejoin="round" stroke-miterlimit="10" cx="283.464" cy="283.465" r="16.177"/>
	</g>
</g>
</svg>
