<?xml version="1.0" encoding="utf-8"?>
<!-- Generator: Adobe Illustrator 16.0.0, SVG Export Plug-In . SVG Version: 6.00 Build 0)  -->
<!DOCTYPE svg PUBLIC "-//W3C//DTD SVG 1.1//EN" "http://www.w3.org/Graphics/SVG/1.1/DTD/svg11.dtd">
<svg version="1.1" xmlns="http://www.w3.org/2000/svg" xmlns:xlink="http://www.w3.org/1999/xlink" x="0px" y="0px"
	 width="566.93px" height="566.93px" viewBox="0 0 566.93 566.93" enable-background="new 0 0 566.93 566.93" xml:space="preserve">
<g id="fond" display="none">
	
		<rect x="-9532.873" y="-7591.898" display="inline" fill-rule="evenodd" clip-rule="evenodd" fill="#58595B" width="15942.492" height="15814.695"/>
</g>
<g id="en_cours">
</g>
<g id="fini">
	<g>
		<polygon fill="#CCAC6C" stroke="#000000" stroke-width="8" stroke-linejoin="round" stroke-miterlimit="10" points="
			484.848,51.958 309.799,270.986 301.583,263.576 467.603,39.338 		"/>
		<polygon fill="#CCAC6C" stroke="#000000" stroke-width="8" stroke-linejoin="round" stroke-miterlimit="10" points="
			526.264,88.362 330.392,289.351 322.328,281.776 510.688,73.733 		"/>
		<g>
			<g>
				<path fill="#FFFFFF" d="M92.451,347.174v-4c0-0.329,0.046-27.896,0.159-38.674c-10.051-0.863-19.176-5.122-19.176-12.508
					c0-4.374,3.442-8.111,9.39-10.386c0.277-5.549,6.011-10.829,13.247-14.325c-5.947-5.541-8.204-11.627-5.649-16.244
					c0.988-1.786,3.595-4.78,9.944-4.78c3.12,0,6.663,0.721,10.3,2.071c0.096-0.421,0.198-0.841,0.308-1.259
					c2.499-9.634,8.419-19.356,16.011-19.356c0.212,0,0.423,0.008,0.634,0.024c1.95-9.047,6.759-17.613,13.867-17.613
					c0.346,0,0.695,0.022,1.038,0.067c1.287,0.167,3.175,0.744,4.976,2.516c3.564-4.607,7.645-7.221,11.521-7.221
					c1.03,0,2.027,0.184,2.966,0.547c0.56,0.218,1.086,0.492,1.577,0.821c2.536-5.547,6.319-8.863,10.618-8.863
					c0.201,0,0.404,0.008,0.606,0.023c2.077,0.158,3.94,1.061,5.52,2.621c0.413-0.448,0.83-0.799,1.205-1.07
					c1.423-1.027,3.183-1.571,5.086-1.571c0.227,0,0.455,0.007,0.686,0.022c0.136-0.55,0.317-1.042,0.517-1.472
					c0.956-2.071,3.679-5.551,11.159-5.551c4.535,0,9.878,1.315,15.047,3.703c0.685,0.316,1.371,0.655,2.056,1.017
					c2.272-1.87,4.91-3.58,7.764-5.024c5.209-2.639,10.571-4.137,15.17-4.245c0.174-4.354,2.213-6.602,3.681-7.663
					c1.428-1.032,3.191-1.577,5.101-1.577c5.027,0,11.076,3.698,16.32,9.841c1.268-0.706,2.741-1.076,4.313-1.076
					c3.854,0,8.301,2.154,12.603,6.026c4.459-7.158,10.169-11.576,15.272-11.576c1.268,0,2.47,0.266,3.573,0.792
					c3.674,1.746,5.547,5.873,5.43,11.428c4.063-1.738,8.083-2.693,11.526-2.693c3.633,0,6.001,1.051,7.521,2.25
					c3.111-2.446,6.241-3.754,9.091-3.754c1.533,0,2.95,0.368,4.211,1.094c2.406,1.383,3.891,3.809,4.416,6.968
					c0.269-0.025,0.539-0.039,0.813-0.039c5.354,0,11.124,5.04,15.268,13.112c0.985-0.227,1.938-0.341,2.853-0.341
					c2.159,0,4.102,0.654,5.616,1.891c0.153,0.125,0.301,0.254,0.443,0.389c2.742-3.33,5.896-5.184,9.059-5.184
					c0.623,0,1.245,0.072,1.847,0.213c4.534,1.06,7.446,5.807,8.095,12.682c1.939-0.698,4.017-1.17,6.079-1.17
					c3.646,0,5.806,1.51,6.976,2.776c1.082,1.171,2.455,3.384,2.232,6.94c4.229,1.54,7.252,6.571,8.341,13.703
					c1.14-0.376,2.256-0.568,3.333-0.568c1.418,0,2.744,0.323,3.94,0.96c3.313,1.761,5.012,5.457,4.956,10.402
					c2.224-0.721,4.341-1.099,6.25-1.099c4.262,0,6.592,1.817,7.797,3.341c2.216,2.797,2.363,6.704,0.562,11.031
					c1.691,0.668,2.812,1.681,3.529,2.588c2.429,3.068,2.391,7.398,0.052,12.171c8.41,1.862,13.708,6.21,13.708,11.689
					c0,7.386-9.125,11.645-19.176,12.508c0.113,10.776,0.159,38.345,0.159,38.674v4H92.451z"/>
				<path d="M247.776,181.204c4.267,0,10.475,4.327,15.409,11.152c0.261,0.36,0.505,0.726,0.751,1.091
					c0.319-1.133,0.874-2.051,1.715-2.658c0.769-0.556,1.704-0.82,2.758-0.82c3.585,0,8.54,3.055,12.958,8.081
					c0.282,0.019,0.563,0.042,0.847,0.063c3.915-8.144,9.776-13.694,14.07-13.694c0.659,0,1.282,0.131,1.854,0.403
					c3.448,1.639,4.04,7.924,1.854,15.21c0.026,0.003,0.053,0.007,0.077,0.011c0.654-0.442,1.324-0.877,2.024-1.294
					c5.289-3.15,10.674-4.804,14.718-4.804c2.855,0,5.044,0.825,6.058,2.528c0.361,0.607,0.535,1.3,0.57,2.044
					c3.437-3.798,7.111-6.076,9.984-6.076c0.81,0,1.557,0.181,2.216,0.561c3.302,1.897,3.412,8.182,0.688,15.254
					c0.439,0.139,0.872,0.284,1.309,0.424c0.121-4.03,1.361-7.02,3.689-7.931c0.488-0.192,1.002-0.284,1.538-0.284
					c4.229,0.001,9.726,5.78,13.163,14.091c1.803-0.859,3.496-1.32,4.957-1.32c1.212,0,2.264,0.317,3.086,0.989
					c1.45,1.183,1.958,3.293,1.658,5.898c0.216,0.109,0.435,0.216,0.65,0.326c2.604-6.079,6.354-10.117,9.723-10.117
					c0.315,0,0.627,0.035,0.934,0.107c3.844,0.898,5.757,7.299,4.969,15.244c3.716-2.339,7.326-3.627,10.119-3.627
					c1.703,0,3.103,0.479,4.036,1.49c1.648,1.783,1.522,4.883-0.004,8.435c0.774-0.456,1.574-0.701,2.383-0.701
					c0.104,0,0.21,0.004,0.314,0.012c4.348,0.342,7.379,7.68,7.26,16.896c2.433-2.089,4.854-3.281,6.893-3.281
					c0.744,0,1.437,0.159,2.06,0.491c3.114,1.655,3.613,7.163,1.692,13.653c4.176-2.513,8.267-3.88,11.394-3.88
					c2.048,0,3.684,0.586,4.659,1.821c2.027,2.56,0.681,7.249-2.992,12.038c0.854-0.155,1.666-0.235,2.422-0.235
					c2.049,0,3.687,0.584,4.663,1.818c2.133,2.694,0.521,7.746-3.599,12.791c9.309,0.564,16.495,4.189,16.495,8.587
					c0,4.79-8.514,8.672-19.017,8.672c-0.077,0-0.15-0.004-0.228-0.006c0.148,1.892,0.228,40.602,0.228,42.516H96.451
					c0-1.914,0.078-40.624,0.228-42.516c-0.077,0.002-0.15,0.006-0.229,0.006c-10.503,0-19.016-3.882-19.016-8.672
					c0-3.313,4.073-6.188,10.058-7.648c-0.175-0.273-0.322-0.559-0.429-0.867c-1.563-4.525,5.217-10.975,15.144-14.404
					c0.654-0.225,1.305-0.43,1.952-0.618c-7.848-5-12.364-11.637-10.237-15.479c1.012-1.828,3.357-2.717,6.444-2.717
					c3.732,0,8.549,1.302,13.396,3.819c0.195-1.924,0.547-3.941,1.082-6.002c2.446-9.429,7.692-16.362,12.14-16.361
					c0.35,0,0.693,0.042,1.03,0.13c1.082,0.28,1.992,1.014,2.729,2.076c0.054-0.665,0.123-1.339,0.211-2.021
					c1.304-10.033,5.944-17.774,10.53-17.774c0.174,0,0.348,0.011,0.521,0.034c2.364,0.308,4.232,2.68,5.347,6.268
					c3.389-6.583,7.997-10.94,11.666-10.939c0.528,0,1.038,0.09,1.521,0.277c2.533,0.983,3.801,4.42,3.732,8.994
					c0.097-0.047,0.195-0.092,0.295-0.141c1.1-9.429,5.211-16.625,9.613-16.625c0.102,0,0.203,0.004,0.305,0.012
					c3.113,0.236,5.56,4.063,6.672,9.594c0.349-0.13,0.699-0.256,1.05-0.383c-0.827-3.845-0.349-6.967,1.645-8.404
					c0.766-0.553,1.697-0.815,2.746-0.815c1.66,0,3.615,0.658,5.674,1.861c-1.216-2.068-1.58-4.036-0.842-5.632
					c0.995-2.155,3.796-3.23,7.529-3.23c3.799,0,8.562,1.113,13.369,3.334c1.517,0.699,2.935,1.475,4.258,2.288
					c2.313-2.286,5.408-4.517,9.046-6.358c5.003-2.535,9.998-3.821,13.897-3.821c1.519,0,2.871,0.195,3.993,0.587
					c-1.015-4.114-0.599-7.487,1.496-9.001C245.787,181.468,246.723,181.204,247.776,181.204 M247.777,173.204L247.777,173.204
					c-2.756,0-5.331,0.807-7.445,2.336c-1.369,0.989-3.732,3.199-4.795,7.183c-4.32,0.595-8.994,2.106-13.521,4.399
					c-2.282,1.155-4.444,2.472-6.422,3.903c-5.652-2.599-11.559-4.031-16.636-4.031c-6.742,0-11.949,2.597-14.432,7.158
					c-1.525,0.235-2.967,0.731-4.271,1.473c-1.581-0.912-3.313-1.458-5.166-1.598c-0.301-0.023-0.604-0.034-0.905-0.035
					c-4.863,0-9.186,2.873-12.367,7.814c-0.91-0.213-1.846-0.32-2.798-0.32c-4.151,0-8.372,2.106-12.149,5.905
					c-1.197-0.596-2.48-0.991-3.832-1.167c-0.512-0.066-1.033-0.101-1.551-0.101c-8.547,0-14.324,8.175-17.057,17.837
					c-8.092,1.598-13.702,10.631-16.519,19.32c-2.635-0.673-5.187-1.024-7.547-1.024c-8.401,0-12.028,4.287-13.443,6.843
					c-2.824,5.102-1.653,11.286,2.795,17.104c-5.601,3.583-9.277,8.008-10.475,12.592c-6.242,2.993-9.809,7.675-9.809,13.196
					c0,8.1,7.564,14.184,19.146,16.063c-0.097,12.451-0.129,34.821-0.129,35.118v8h8h334.331h8v-8c0-0.297-0.034-22.67-0.13-35.117
					c11.581-1.881,19.146-7.965,19.146-16.064c0-6.325-4.723-11.485-12.478-14.313c1.159-4.544,0.472-8.724-2.146-12.031
					c-0.559-0.707-1.189-1.341-1.884-1.9c1.046-4.436,0.332-8.513-2.21-11.723c-2.472-3.127-6.355-4.853-10.93-4.854
					c-0.922,0-1.841,0.066-2.749,0.187c-0.93-4.069-3.154-7.201-6.583-9.023c-1.774-0.945-3.733-1.427-5.813-1.427
					c-0.08,0-0.16,0-0.24,0.002c-1.473-5.308-4.085-9.357-7.526-11.615c-0.435-3.669-2.152-6.041-3.206-7.18
					c-2.415-2.616-5.936-4.059-9.909-4.06c-0.958,0-1.911,0.08-2.851,0.224c-1.592-6.223-5.21-10.414-10.417-11.631
					c-0.894-0.21-1.823-0.317-2.755-0.317c-3.438,0-6.732,1.403-9.677,4.027c-1.652-0.74-3.491-1.123-5.44-1.123
					c-0.23,0-0.463,0.005-0.695,0.016c-3.693-6.174-8.921-11.516-15.143-12.591c-1.076-2.842-2.926-5.105-5.52-6.595
					c-1.872-1.077-3.96-1.625-6.202-1.625c-2.992,0-6.142,1.031-9.248,2.984c-1.891-0.878-4.304-1.48-7.363-1.48
					c-2.533,0-5.257,0.415-8.065,1.209c-1.01-4.432-3.442-7.784-7.176-9.558c-1.641-0.781-3.422-1.178-5.288-1.178
					c-6.241,0-11.836,4.306-16.114,9.819c-3.982-2.767-8.041-4.269-11.76-4.269c-1.105,0-2.183,0.13-3.212,0.384
					C260.322,177.35,254.057,173.205,247.777,173.204L247.777,173.204L247.777,173.204z"/>
			</g>
			<g>
				<path fill="#2268A8" stroke="#000000" stroke-width="8" stroke-linejoin="round" stroke-miterlimit="10" d="M348.263,466.52
					c0,19.449-37.896,35.22-84.646,35.22c-46.75,0-84.648-15.771-84.648-35.22v-76.467h169.295V466.52z"/>
				<path fill="#2268A8" stroke="#000000" stroke-width="8" stroke-linejoin="round" stroke-miterlimit="10" d="M65.146,298.549
					c15.251,95.519,98.298,168.531,198.471,168.531c100.174,0,183.218-73.013,198.47-168.531c0,0-93.603,19.323-204.912,19.323
					C145.866,317.872,65.146,298.549,65.146,298.549z"/>
			</g>
		</g>
	</g>
	<polygon fill="#AB2E23" stroke="#000000" stroke-width="8" stroke-linejoin="round" stroke-miterlimit="10" points="
		409.345,371.394 481.53,329.708 481.53,349.39 536.829,349.39 536.829,393.39 481.53,393.39 481.53,413.075 	"/>
</g>
</svg>
