<?xml version="1.0" encoding="utf-8"?>
<!-- Generator: Adobe Illustrator 16.0.0, SVG Export Plug-In . SVG Version: 6.00 Build 0)  -->
<!DOCTYPE svg PUBLIC "-//W3C//DTD SVG 1.1//EN" "http://www.w3.org/Graphics/SVG/1.1/DTD/svg11.dtd">
<svg version="1.1" xmlns="http://www.w3.org/2000/svg" xmlns:xlink="http://www.w3.org/1999/xlink" x="0px" y="0px"
	 width="283.465px" height="283.465px" viewBox="0 0 283.465 566.93" enable-background="new 0 0 283.465 566.93"
	 xml:space="preserve">
<g id="fond" display="none">
	
		<rect x="-8042.283" y="-10462.046" display="inline" fill-rule="evenodd" clip-rule="evenodd" fill="#58595B" width="16654.492" height="16572.797"/>
</g>
<g id="en_cours">
</g>
<g id="fini">
	<g>
		<path d="M166.318,365.054c2.371,2.969,5.375,6.862,9.011,11.681c3.633,4.822,7.377,10.162,11.236,16.021
			c3.855,5.861,7.676,11.979,11.458,18.355c3.783,6.38,7.009,12.537,9.679,18.468h-23.585c-2.969-5.636-6.195-11.348-9.679-17.133
			c-3.487-5.784-7.008-11.309-10.568-16.575c-3.56-5.264-7.085-10.197-10.569-14.797c-3.487-4.596-6.64-8.601-9.456-12.015
			c-1.93,0.149-3.894,0.223-5.896,0.223s-4.043,0-6.119,0h-19.357v60.297H90.892V277.612c6.081-1.481,12.867-2.482,20.358-3.004
			c7.489-0.519,14.352-0.779,20.582-0.779c21.655,0,38.158,4.082,49.505,12.237c11.348,8.16,17.021,20.324,17.021,36.49
			c0,10.234-2.708,18.988-8.122,26.255C184.821,356.081,176.849,361.494,166.318,365.054z M133.611,292.742
			c-9.199,0-16.242,0.222-21.137,0.667v58.072h15.352c7.416,0,14.09-0.368,20.025-1.112c5.931-0.741,10.938-2.148,15.019-4.228
			c4.078-2.076,7.231-5.007,9.457-8.789c2.225-3.782,3.337-8.788,3.337-15.019c0-5.785-1.113-10.604-3.337-14.462
			c-2.225-3.855-5.229-6.897-9.011-9.123c-3.783-2.225-8.232-3.782-13.35-4.672C144.848,293.187,139.396,292.742,133.611,292.742z"
			/>
	</g>
</g>
</svg>
