<?xml version="1.0" encoding="utf-8"?>
<!-- Generator: Adobe Illustrator 16.0.0, SVG Export Plug-In . SVG Version: 6.00 Build 0)  -->
<!DOCTYPE svg PUBLIC "-//W3C//DTD SVG 1.1//EN" "http://www.w3.org/Graphics/SVG/1.1/DTD/svg11.dtd">
<svg version="1.1" xmlns="http://www.w3.org/2000/svg" xmlns:xlink="http://www.w3.org/1999/xlink" x="0px" y="0px"
	 width="283.465px" height="283.465px" viewBox="0 0 283.465 566.93" enable-background="new 0 0 283.465 566.93"
	 xml:space="preserve">
<g id="fond" display="none">
	
		<rect x="-7500.152" y="-7908" display="inline" fill-rule="evenodd" clip-rule="evenodd" fill="#58595B" width="16654.492" height="16572.797"/>
</g>
<g id="en_cours">
</g>
<g id="fini">
	<g>
		<path d="M187.791,426.24c-4.749,1.189-11.014,2.448-18.801,3.783c-7.787,1.335-16.798,2.002-27.033,2.002
			c-8.9,0-16.392-1.3-22.473-3.894c-6.083-2.594-10.979-6.265-14.685-11.014c-3.709-4.745-6.379-10.346-8.01-16.799
			c-1.634-6.452-2.447-13.606-2.447-21.471v-64.97h20.692v60.52c0,14.094,2.225,24.18,6.675,30.26
			c4.45,6.084,11.938,9.123,22.472,9.123c2.225,0,4.523-0.073,6.897-0.223c2.371-0.146,4.596-0.334,6.675-0.557
			c2.075-0.223,3.967-0.445,5.673-0.667c1.704-0.223,2.927-0.48,3.671-0.779v-97.677h20.692V426.24z"/>
	</g>
</g>
</svg>
