<?xml version="1.0" encoding="utf-8"?>
<!-- Generator: Adobe Illustrator 16.0.0, SVG Export Plug-In . SVG Version: 6.00 Build 0)  -->
<!DOCTYPE svg PUBLIC "-//W3C//DTD SVG 1.1//EN" "http://www.w3.org/Graphics/SVG/1.1/DTD/svg11.dtd">
<svg version="1.1" xmlns="http://www.w3.org/2000/svg" xmlns:xlink="http://www.w3.org/1999/xlink" x="0px" y="0px"
	 width="566.93px" height="566.93px" viewBox="0 0 566.93 566.93" enable-background="new 0 0 566.93 566.93" xml:space="preserve">
<g id="fond" display="none">
	
		<rect x="-11243.873" y="-9178" display="inline" fill-rule="evenodd" clip-rule="evenodd" fill="#58595B" width="16654.492" height="16572.797"/>
</g>
<g id="en_cours">
</g>
<g id="fini">
	<g>
		<g>
			<g>
				
					<path fill="#4F5666" stroke="#000000" stroke-width="8" stroke-linecap="round" stroke-linejoin="round" stroke-miterlimit="10" d="
					M261.94,380.212L150.401,381.5l-25.724-99.613c-6.416-5.258,22.638-64.216,13.697-64.216c-20.543,0-37.196,16.652-37.196,37.195
					c0,6.786,1.826,13.142,5.002,18.62c-25.033,5.587-43.749,27.919-43.749,54.637c0,28.393,21.139,51.832,48.532,55.485
					c-2.141,5.935-3.314,12.332-3.314,19.004c0,30.926,25.07,55.996,55.996,55.996c30.924,0,55.996-25.07,55.996-55.996
					c0-2.222-0.145-4.411-0.396-6.565L261.94,380.212z"/>
				
					<path fill="#4F5666" stroke="#000000" stroke-width="8" stroke-linecap="round" stroke-linejoin="round" stroke-miterlimit="10" d="
					M304.989,380.212l111.539,1.288l25.724-99.613c6.416-5.258-22.638-64.216-13.697-64.216c20.543,0,37.196,16.652,37.196,37.195
					c0,6.786-1.826,13.142-5.002,18.62c25.033,5.587,43.749,27.919,43.749,54.637c0,28.393-21.139,51.832-48.532,55.485
					c2.141,5.935,3.314,12.332,3.314,19.004c0,30.926-25.07,55.996-55.996,55.996c-30.924,0-55.996-25.07-55.996-55.996
					c0-2.222,0.145-4.411,0.396-6.565L304.989,380.212z"/>
			</g>
			
				<path fill="#CCAC6C" stroke="#000000" stroke-width="8" stroke-linecap="round" stroke-linejoin="round" stroke-miterlimit="10" d="
				M390.746,153.353c62.514,64.91,30.441,302.699-54.914,347.219C316.234,510.793,318.366,498,283.466,498
				c-34.896,0-32.768,12.794-52.363,2.575c-85.354-44.517-117.433-282.309-54.92-347.223
				c28.089-29.163,79.556-71.882,107.282-71.882S362.656,124.189,390.746,153.353z"/>
			
				<path fill="#4F5666" stroke="#000000" stroke-width="8" stroke-linecap="round" stroke-linejoin="round" stroke-miterlimit="10" d="
				M145.095,351.303c1.4,2.982,2.867,5.911,4.397,8.784c-0.707-2.283-1.371-4.598-2.011-6.928
				C146.674,352.589,145.879,351.967,145.095,351.303z"/>
			
				<path fill="#4F5666" stroke="#000000" stroke-width="8" stroke-linecap="round" stroke-linejoin="round" stroke-miterlimit="10" d="
				M417.438,360.086c1.53-2.873,2.997-5.801,4.396-8.782c-0.783,0.663-1.578,1.285-2.386,1.855
				C418.809,355.489,418.145,357.803,417.438,360.086z"/>
			
				<path fill="#CCAC6C" stroke="#000000" stroke-width="8" stroke-linecap="round" stroke-linejoin="round" stroke-miterlimit="10" d="
				M142.04,327.542v-0.002c-0.206-1.354-0.399-2.714-0.582-4.079c-0.007-0.05-0.013-0.1-0.019-0.149
				c-0.501-3.778-0.909-7.604-1.222-11.476c-0.034-0.419-0.072-0.836-0.104-1.255c-0.067-0.893-0.124-1.79-0.181-2.687
				c-0.05-0.782-0.098-1.565-0.139-2.352c-0.041-0.763-0.078-1.526-0.11-2.293c-0.044-1.003-0.077-2.01-0.107-3.019
				c-0.019-0.604-0.04-1.208-0.053-1.815c-0.036-1.644-0.059-3.293-0.059-4.951c0-15.547,1.05-30.697,3.052-45.293
				c-7.633,4.172-13.505,13.268-16.664,25.079c-2.54,9.501-3.331,20.747-1.863,32.593c2.471,19.938,10.723,36.674,21.104,45.459
				c0.784,0.664,1.579,1.286,2.387,1.856C145.212,344.899,143.378,336.354,142.04,327.542z"/>
			
				<path fill="#CCAC6C" stroke="#000000" stroke-width="8" stroke-linecap="round" stroke-linejoin="round" stroke-miterlimit="10" d="
				M441.076,273.25c-3.158-11.809-9.027-20.901-16.658-25.074c0.076,0.552,0.149,1.104,0.223,1.658
				c0.102,0.768,0.197,1.537,0.293,2.308c0.112,0.905,0.223,1.812,0.328,2.721c0.089,0.771,0.175,1.544,0.259,2.317
				c0.1,0.918,0.195,1.839,0.287,2.762c0.077,0.77,0.151,1.539,0.224,2.313c0.086,0.936,0.168,1.874,0.246,2.814
				c0.064,0.767,0.129,1.533,0.188,2.302c0.074,0.958,0.141,1.918,0.206,2.88c0.052,0.755,0.104,1.51,0.15,2.268
				c0.062,0.992,0.113,1.987,0.166,2.983c0.038,0.735,0.079,1.469,0.113,2.206c0.048,1.043,0.086,2.09,0.124,3.138
				c0.025,0.694,0.055,1.387,0.076,2.083c0.035,1.164,0.06,2.334,0.083,3.504c0.012,0.583,0.029,1.164,0.038,1.748
				c0.027,1.757,0.042,3.519,0.042,5.285c0,1.979-0.03,3.946-0.081,5.904c-0.015,0.6-0.043,1.192-0.063,1.789
				c-0.047,1.369-0.098,2.735-0.168,4.094c-0.034,0.668-0.078,1.332-0.118,1.998c-0.078,1.299-0.164,2.596-0.265,3.885
				c-0.05,0.645-0.104,1.287-0.16,1.93c-0.115,1.338-0.242,2.67-0.38,3.997c-0.059,0.563-0.117,1.128-0.18,1.69
				c-0.165,1.479-0.347,2.948-0.54,4.412c-0.052,0.395-0.1,0.791-0.154,1.184c-1.363,9.943-3.365,19.557-5.907,28.812
				c0.808-0.57,1.603-1.192,2.386-1.855c10.383-8.785,18.635-25.522,21.105-45.46C444.407,293.998,443.616,282.752,441.076,273.25z"
				/>
			
				<path fill="#CCAC6C" stroke="#000000" stroke-width="8" stroke-linecap="round" stroke-linejoin="round" stroke-miterlimit="10" d="
				M415.102,204.549c0.242,0.819,0.485,1.639,0.722,2.463C415.587,206.188,415.344,205.368,415.102,204.549z"/>
			
				<path fill="#CCAC6C" stroke="#000000" stroke-width="8" stroke-linecap="round" stroke-linejoin="round" stroke-miterlimit="10" d="
				M405.862,178.531c0.37,0.884,0.733,1.777,1.095,2.67C406.596,180.309,406.232,179.415,405.862,178.531z"/>
			
				<path fill="#CCAC6C" stroke="#000000" stroke-width="8" stroke-linecap="round" stroke-linejoin="round" stroke-miterlimit="10" d="
				M396.725,159.299c2.488,4.641,4.838,9.45,7.049,14.408C401.563,168.748,399.213,163.94,396.725,159.299z"/>
			
				<path fill="#CCAC6C" stroke="#000000" stroke-width="8" stroke-linecap="round" stroke-linejoin="round" stroke-miterlimit="10" d="
				M392.953,152.576c0.557,0.951,1.109,1.905,1.654,2.871C394.063,154.481,393.51,153.527,392.953,152.576z"/>
			
				<path fill="#CCAC6C" stroke="#000000" stroke-width="8" stroke-linecap="round" stroke-linejoin="round" stroke-miterlimit="10" d="
				M394.945,156.058c0.576,1.029,1.148,2.063,1.71,3.108C396.094,158.12,395.521,157.087,394.945,156.058z"/>
			
				<path fill="#CCAC6C" stroke="#000000" stroke-width="8" stroke-linecap="round" stroke-linejoin="round" stroke-miterlimit="10" d="
				M390.85,149.066c0.557,0.907,1.109,1.818,1.654,2.74C391.959,150.885,391.406,149.974,390.85,149.066z"/>
			
				<path fill="#CCAC6C" stroke="#000000" stroke-width="8" stroke-linecap="round" stroke-linejoin="round" stroke-miterlimit="10" d="
				M413.728,200.058c0.259,0.82,0.517,1.643,0.769,2.469C414.244,201.7,413.986,200.879,413.728,200.058z"/>
			
				<path fill="#CCAC6C" stroke="#000000" stroke-width="8" stroke-linecap="round" stroke-linejoin="round" stroke-miterlimit="10" d="
				M407.567,182.711c0.339,0.853,0.671,1.713,1.001,2.574C408.238,184.424,407.906,183.564,407.567,182.711z"/>
			
				<path fill="#CCAC6C" stroke="#000000" stroke-width="8" stroke-linecap="round" stroke-linejoin="round" stroke-miterlimit="10" d="
				M412.286,195.625c0.276,0.824,0.55,1.65,0.818,2.48C412.836,197.275,412.563,196.449,412.286,195.625z"/>
			
				<path fill="#CCAC6C" stroke="#000000" stroke-width="8" stroke-linecap="round" stroke-linejoin="round" stroke-miterlimit="10" d="
				M409.205,186.95c0.315,0.839,0.625,1.683,0.933,2.528C409.83,188.633,409.521,187.789,409.205,186.95z"/>
			
				<path fill="#CCAC6C" stroke="#000000" stroke-width="8" stroke-linecap="round" stroke-linejoin="round" stroke-miterlimit="10" d="
				M410.777,191.255c0.295,0.83,0.586,1.663,0.874,2.5C411.363,192.918,411.072,192.085,410.777,191.255z"/>
			
				<path fill="#CCAC6C" stroke="#000000" stroke-width="8" stroke-linecap="round" stroke-linejoin="round" stroke-miterlimit="10" d="
				M404.095,174.421c0.419,0.948,0.828,1.907,1.236,2.866C404.923,176.328,404.514,175.369,404.095,174.421z"/>
			
				<path fill="#CCAC6C" stroke="#000000" stroke-width="8" stroke-linecap="round" stroke-linejoin="round" stroke-miterlimit="10" d="
				M346.959,101.462c0.955,0.653,1.903,1.322,2.846,2.005C348.862,102.783,347.914,102.115,346.959,101.462z"/>
			
				<path fill="#CCAC6C" stroke="#000000" stroke-width="8" stroke-linecap="round" stroke-linejoin="round" stroke-miterlimit="10" d="
				M304.809,83.548c15.121,2.973,29.218,9.088,42.07,17.859C334.026,92.635,319.931,86.521,304.809,83.548z"/>
			
				<path fill="#CCAC6C" stroke="#000000" stroke-width="8" stroke-linecap="round" stroke-linejoin="round" stroke-miterlimit="10" d="
				M349.942,103.566c0.933,0.678,1.858,1.37,2.778,2.076C351.801,104.936,350.875,104.244,349.942,103.566z"/>
			
				<path fill="#CCAC6C" stroke="#000000" stroke-width="8" stroke-linecap="round" stroke-linejoin="round" stroke-miterlimit="10" d="
				M386.41,142.162c0.584,0.866,1.162,1.739,1.735,2.62C387.572,143.901,386.994,143.028,386.41,142.162z"/>
			
				<path fill="#CCAC6C" stroke="#000000" stroke-width="8" stroke-linecap="round" stroke-linejoin="round" stroke-miterlimit="10" d="
				M352.854,105.745c0.928,0.716,1.85,1.443,2.763,2.187C354.703,107.188,353.781,106.461,352.854,105.745z"/>
			
				<path fill="#CCAC6C" stroke="#000000" stroke-width="8" stroke-linecap="round" stroke-linejoin="round" stroke-miterlimit="10" d="
				M388.666,145.59c0.566,0.88,1.128,1.766,1.684,2.66C389.794,147.355,389.232,146.47,388.666,145.59z"/>
			
				<path fill="#CCAC6C" stroke="#000000" stroke-width="8" stroke-linecap="round" stroke-linejoin="round" stroke-miterlimit="10" d="
				M384.091,138.805c0.608,0.86,1.212,1.729,1.81,2.606C385.303,140.534,384.699,139.665,384.091,138.805z"/>
			
				<path fill="#CCAC6C" stroke="#000000" stroke-width="8" stroke-linecap="round" stroke-linejoin="round" stroke-miterlimit="10" d="
				M381.707,135.515c0.645,0.866,1.281,1.744,1.912,2.628C382.988,137.259,382.352,136.382,381.707,135.515z"/>
			
				<path fill="#CCAC6C" stroke="#000000" stroke-width="8" stroke-linecap="round" stroke-linejoin="round" stroke-miterlimit="10" d="
				M379.268,132.305c0.692,0.888,1.376,1.789,2.055,2.696C380.644,134.094,379.959,133.192,379.268,132.305z"/>
			
				<path fill="#CCAC6C" stroke="#000000" stroke-width="8" stroke-linecap="round" stroke-linejoin="round" stroke-miterlimit="10" d="
				M418.839,218.484c0.188,0.779,0.38,1.555,0.563,2.338C419.219,220.039,419.027,219.264,418.839,218.484z"/>
			
				<path fill="#CCAC6C" stroke="#000000" stroke-width="8" stroke-linecap="round" stroke-linejoin="round" stroke-miterlimit="10" d="
				M421.416,230.197c0.139,0.7,0.268,1.406,0.402,2.108C421.684,231.604,421.555,230.897,421.416,230.197z"/>
			
				<path fill="#CCAC6C" stroke="#000000" stroke-width="8" stroke-linecap="round" stroke-linejoin="round" stroke-miterlimit="10" d="
				M420.028,223.623c0.257,1.154,0.507,2.314,0.75,3.479C420.535,225.938,420.285,224.777,420.028,223.623z"/>
			
				<path fill="#CCAC6C" stroke="#000000" stroke-width="8" stroke-linecap="round" stroke-linejoin="round" stroke-miterlimit="10" d="
				M423.944,244.85c0.112,0.764,0.22,1.53,0.327,2.297C424.164,246.38,424.057,245.613,423.944,244.85z"/>
			
				<path fill="#CCAC6C" stroke="#000000" stroke-width="8" stroke-linecap="round" stroke-linejoin="round" stroke-miterlimit="10" d="
				M422.331,235.029c0.134,0.736,0.258,1.477,0.386,2.216C422.59,236.506,422.465,235.766,422.331,235.029z"/>
			
				<path fill="#CCAC6C" stroke="#000000" stroke-width="8" stroke-linecap="round" stroke-linejoin="round" stroke-miterlimit="10" d="
				M379.037,132.013c-7.13-9.109-14.943-17.174-23.369-24.038C364.094,114.838,371.907,122.904,379.037,132.013z"/>
			
				<path fill="#CCAC6C" stroke="#000000" stroke-width="8" stroke-linecap="round" stroke-linejoin="round" stroke-miterlimit="10" d="
				M423.176,239.92c0.123,0.75,0.238,1.506,0.357,2.259C423.414,241.426,423.299,240.67,423.176,239.92z"/>
			
				<path fill="#CCAC6C" stroke="#000000" stroke-width="8" stroke-linecap="round" stroke-linejoin="round" stroke-miterlimit="10" d="
				M417.656,213.753c0.207,0.801,0.418,1.6,0.619,2.405C418.074,215.353,417.863,214.554,417.656,213.753z"/>
			
				<path fill="#CCAC6C" stroke="#000000" stroke-width="8" stroke-linecap="round" stroke-linejoin="round" stroke-miterlimit="10" d="
				M416.41,209.11c0.227,0.813,0.453,1.626,0.673,2.444C416.863,210.736,416.637,209.924,416.41,209.11z"/>
			
				<path fill="#CCAC6C" stroke="#000000" stroke-width="8" stroke-linecap="round" stroke-linejoin="round" stroke-miterlimit="10" d="
				M140.114,310.581c-0.067-0.893-0.124-1.79-0.181-2.687C139.99,308.791,140.047,309.688,140.114,310.581z"/>
			
				<path fill="#CCAC6C" stroke="#000000" stroke-width="8" stroke-linecap="round" stroke-linejoin="round" stroke-miterlimit="10" d="
				M141.439,323.312c-0.502-3.778-0.907-7.606-1.222-11.476C140.53,315.707,140.938,319.533,141.439,323.312z"/>
			
				<path fill="#CCAC6C" stroke="#000000" stroke-width="8" stroke-linecap="round" stroke-linejoin="round" stroke-miterlimit="10" d="
				M139.795,305.543c-0.041-0.762-0.078-1.526-0.11-2.293C139.717,304.017,139.754,304.78,139.795,305.543z"/>
			
				<path fill="#CCAC6C" stroke="#000000" stroke-width="8" stroke-linecap="round" stroke-linejoin="round" stroke-miterlimit="10" d="
				M139.577,300.231c-0.019-0.604-0.04-1.208-0.053-1.815C139.537,299.023,139.559,299.627,139.577,300.231z"/>
			
				<path fill="#CCAC6C" stroke="#000000" stroke-width="8" stroke-linecap="round" stroke-linejoin="round" stroke-miterlimit="10" d="
				M142.04,327.54c-0.206-1.354-0.399-2.714-0.582-4.079C141.641,324.826,141.834,326.187,142.04,327.54z"/>
			
				<path fill="#CCAC6C" stroke="#000000" stroke-width="8" stroke-linecap="round" stroke-linejoin="round" stroke-miterlimit="10" d="
				M426.987,275.501c0.038,0.735,0.079,1.469,0.113,2.206C427.066,276.97,427.025,276.236,426.987,275.501z"/>
			
				<path fill="#CCAC6C" stroke="#000000" stroke-width="8" stroke-linecap="round" stroke-linejoin="round" stroke-miterlimit="10" d="
				M425.262,254.862c0.089,0.771,0.175,1.544,0.259,2.317C425.437,256.406,425.351,255.633,425.262,254.862z"/>
			
				<path fill="#CCAC6C" stroke="#000000" stroke-width="8" stroke-linecap="round" stroke-linejoin="round" stroke-miterlimit="10" d="
				M424.641,249.834c0.101,0.768,0.197,1.537,0.293,2.308C424.838,251.371,424.742,250.602,424.641,249.834z"/>
			
				<path fill="#CCAC6C" stroke="#000000" stroke-width="8" stroke-linecap="round" stroke-linejoin="round" stroke-miterlimit="10" d="
				M427.464,293.465c0,1.979-0.03,3.946-0.081,5.904C427.434,297.411,427.464,295.444,427.464,293.465z"/>
			
				<path fill="#CCAC6C" stroke="#000000" stroke-width="8" stroke-linecap="round" stroke-linejoin="round" stroke-miterlimit="10" d="
				M427.32,301.158c-0.047,1.369-0.098,2.735-0.168,4.094C427.223,303.894,427.273,302.527,427.32,301.158z"/>
			
				<path fill="#CCAC6C" stroke="#000000" stroke-width="8" stroke-linecap="round" stroke-linejoin="round" stroke-miterlimit="10" d="
				M427.384,286.432c0.012,0.583,0.029,1.164,0.038,1.748C427.413,287.596,427.396,287.015,427.384,286.432z"/>
			
				<path fill="#CCAC6C" stroke="#000000" stroke-width="8" stroke-linecap="round" stroke-linejoin="round" stroke-miterlimit="10" d="
				M427.034,307.25c-0.079,1.299-0.164,2.596-0.265,3.885C426.87,309.846,426.956,308.549,427.034,307.25z"/>
			
				<path fill="#CCAC6C" stroke="#000000" stroke-width="8" stroke-linecap="round" stroke-linejoin="round" stroke-miterlimit="10" d="
				M427.225,280.845c0.025,0.694,0.055,1.387,0.076,2.083C427.279,282.231,427.25,281.539,427.225,280.845z"/>
			
				<path fill="#CCAC6C" stroke="#000000" stroke-width="8" stroke-linecap="round" stroke-linejoin="round" stroke-miterlimit="10" d="
				M426.277,265.068c0.064,0.767,0.129,1.533,0.188,2.302C426.406,266.602,426.342,265.835,426.277,265.068z"/>
			
				<path fill="#CCAC6C" stroke="#000000" stroke-width="8" stroke-linecap="round" stroke-linejoin="round" stroke-miterlimit="10" d="
				M426.05,318.752c-0.166,1.478-0.347,2.948-0.54,4.412C425.703,321.7,425.885,320.23,426.05,318.752z"/>
			
				<path fill="#CCAC6C" stroke="#000000" stroke-width="8" stroke-linecap="round" stroke-linejoin="round" stroke-miterlimit="10" d="
				M426.671,270.25c0.052,0.755,0.104,1.51,0.15,2.268C426.775,271.76,426.723,271.005,426.671,270.25z"/>
			
				<path fill="#CCAC6C" stroke="#000000" stroke-width="8" stroke-linecap="round" stroke-linejoin="round" stroke-miterlimit="10" d="
				M426.609,313.064c-0.115,1.338-0.241,2.67-0.38,3.997C426.367,315.734,426.494,314.402,426.609,313.064z"/>
			
				<path fill="#CCAC6C" stroke="#000000" stroke-width="8" stroke-linecap="round" stroke-linejoin="round" stroke-miterlimit="10" d="
				M425.808,259.941c0.077,0.77,0.151,1.54,0.224,2.313C425.959,261.48,425.885,260.711,425.808,259.941z"/>
			
				<path fill="#4F5666" stroke="#000000" stroke-width="8" stroke-linecap="round" stroke-linejoin="round" stroke-miterlimit="10" d="
				M139.524,298.416c-0.035-1.644-0.059-3.293-0.059-4.951C139.466,295.123,139.488,296.772,139.524,298.416z"/>
			
				<path fill="#4F5666" stroke="#000000" stroke-width="8" stroke-linecap="round" stroke-linejoin="round" stroke-miterlimit="10" d="
				M141.458,323.461c-0.007-0.05-0.013-0.1-0.019-0.149C141.445,323.361,141.451,323.411,141.458,323.461z"/>
			
				<polygon fill="#4F5666" stroke="#000000" stroke-width="8" stroke-linecap="round" stroke-linejoin="round" stroke-miterlimit="10" points="
				142.04,327.542 142.04,327.542 142.04,327.54 			"/>
			
				<path fill="#4F5666" stroke="#000000" stroke-width="8" stroke-linecap="round" stroke-linejoin="round" stroke-miterlimit="10" d="
				M140.218,311.836c-0.034-0.419-0.072-0.836-0.104-1.255C140.146,311,140.184,311.417,140.218,311.836z"/>
			
				<path fill="#4F5666" stroke="#000000" stroke-width="8" stroke-linecap="round" stroke-linejoin="round" stroke-miterlimit="10" d="
				M139.685,303.25c-0.043-1.003-0.078-2.01-0.107-3.019C139.607,301.24,139.641,302.247,139.685,303.25z"/>
			
				<path fill="#4F5666" stroke="#000000" stroke-width="8" stroke-linecap="round" stroke-linejoin="round" stroke-miterlimit="10" d="
				M139.934,307.895c-0.049-0.783-0.098-1.565-0.139-2.352C139.836,306.329,139.884,307.112,139.934,307.895z"/>
			
				<path fill="#4F5666" stroke="#000000" stroke-width="8" stroke-linecap="round" stroke-linejoin="round" stroke-miterlimit="10" d="
				M424.412,248.172l0.006,0.004c-0.047-0.344-0.098-0.686-0.146-1.029C424.32,247.488,424.365,247.83,424.412,248.172z"/>
			
				<path fill="#4F5666" stroke="#000000" stroke-width="8" stroke-linecap="round" stroke-linejoin="round" stroke-miterlimit="10" d="
				M423.533,242.179c0.139,0.889,0.279,1.777,0.411,2.671C423.813,243.956,423.672,243.067,423.533,242.179z"/>
			
				<path fill="#4F5666" stroke="#000000" stroke-width="8" stroke-linecap="round" stroke-linejoin="round" stroke-miterlimit="10" d="
				M403.773,173.707c0.105,0.238,0.216,0.475,0.321,0.714C403.989,174.182,403.879,173.945,403.773,173.707z"/>
			
				<path fill="#4F5666" stroke="#000000" stroke-width="8" stroke-linecap="round" stroke-linejoin="round" stroke-miterlimit="10" d="
				M406.957,181.201c0.203,0.503,0.409,1.004,0.61,1.51C407.366,182.205,407.16,181.704,406.957,181.201z"/>
			
				<path fill="#4F5666" stroke="#000000" stroke-width="8" stroke-linecap="round" stroke-linejoin="round" stroke-miterlimit="10" d="
				M405.331,177.287c0.177,0.415,0.356,0.826,0.531,1.244C405.688,178.113,405.508,177.702,405.331,177.287z"/>
			
				<path fill="#4F5666" stroke="#000000" stroke-width="8" stroke-linecap="round" stroke-linejoin="round" stroke-miterlimit="10" d="
				M396.655,159.166c0.023,0.044,0.046,0.089,0.069,0.133C396.701,159.255,396.679,159.21,396.655,159.166z"/>
			
				<path fill="#4F5666" stroke="#000000" stroke-width="8" stroke-linecap="round" stroke-linejoin="round" stroke-miterlimit="10" d="
				M419.401,220.822c0.216,0.929,0.42,1.865,0.627,2.801C419.821,222.688,419.617,221.751,419.401,220.822z"/>
			
				<path fill="#4F5666" stroke="#000000" stroke-width="8" stroke-linecap="round" stroke-linejoin="round" stroke-miterlimit="10" d="
				M392.504,151.807c0.15,0.255,0.299,0.514,0.449,0.77C392.803,152.32,392.654,152.062,392.504,151.807z"/>
			
				<path fill="#4F5666" stroke="#000000" stroke-width="8" stroke-linecap="round" stroke-linejoin="round" stroke-miterlimit="10" d="
				M394.607,155.447c0.113,0.202,0.225,0.407,0.338,0.61C394.832,155.854,394.721,155.649,394.607,155.447z"/>
			
				<path fill="#4F5666" stroke="#000000" stroke-width="8" stroke-linecap="round" stroke-linejoin="round" stroke-miterlimit="10" d="
				M420.778,227.102c0.216,1.03,0.433,2.059,0.638,3.096C421.211,229.16,420.994,228.132,420.778,227.102z"/>
			
				<path fill="#4F5666" stroke="#000000" stroke-width="8" stroke-linecap="round" stroke-linejoin="round" stroke-miterlimit="10" d="
				M411.651,193.755c0.214,0.622,0.425,1.245,0.635,1.87C412.076,195,411.865,194.377,411.651,193.755z"/>
			
				<path fill="#4F5666" stroke="#000000" stroke-width="8" stroke-linecap="round" stroke-linejoin="round" stroke-miterlimit="10" d="
				M413.104,198.105c0.21,0.648,0.417,1.3,0.623,1.952C413.521,199.405,413.314,198.754,413.104,198.105z"/>
			
				<path fill="#4F5666" stroke="#000000" stroke-width="8" stroke-linecap="round" stroke-linejoin="round" stroke-miterlimit="10" d="
				M418.275,216.158c0.193,0.771,0.377,1.55,0.563,2.326C418.652,217.708,418.469,216.93,418.275,216.158z"/>
			
				<path fill="#4F5666" stroke="#000000" stroke-width="8" stroke-linecap="round" stroke-linejoin="round" stroke-miterlimit="10" d="
				M415.823,207.012c0.199,0.697,0.393,1.398,0.587,2.099C416.216,208.41,416.022,207.709,415.823,207.012z"/>
			
				<path fill="#4F5666" stroke="#000000" stroke-width="8" stroke-linecap="round" stroke-linejoin="round" stroke-miterlimit="10" d="
				M421.818,232.306c0.172,0.907,0.348,1.813,0.513,2.724C422.166,234.118,421.99,233.213,421.818,232.306z"/>
			
				<path fill="#4F5666" stroke="#000000" stroke-width="8" stroke-linecap="round" stroke-linejoin="round" stroke-miterlimit="10" d="
				M408.568,185.285c0.213,0.555,0.427,1.107,0.637,1.665C408.995,186.393,408.781,185.84,408.568,185.285z"/>
			
				<path fill="#4F5666" stroke="#000000" stroke-width="8" stroke-linecap="round" stroke-linejoin="round" stroke-miterlimit="10" d="
				M410.138,189.479c0.215,0.591,0.429,1.182,0.64,1.776C410.566,190.661,410.353,190.069,410.138,189.479z"/>
			
				<path fill="#4F5666" stroke="#000000" stroke-width="8" stroke-linecap="round" stroke-linejoin="round" stroke-miterlimit="10" d="
				M417.083,211.555c0.195,0.729,0.384,1.465,0.573,2.198C417.466,213.02,417.278,212.284,417.083,211.555z"/>
			
				<path fill="#4F5666" stroke="#000000" stroke-width="8" stroke-linecap="round" stroke-linejoin="round" stroke-miterlimit="10" d="
				M346.879,101.407c0.026,0.019,0.053,0.036,0.08,0.055C346.932,101.443,346.905,101.426,346.879,101.407z"/>
			
				<path fill="#4F5666" stroke="#000000" stroke-width="8" stroke-linecap="round" stroke-linejoin="round" stroke-miterlimit="10" d="
				M381.322,135.001c0.129,0.172,0.258,0.342,0.385,0.514C381.58,135.343,381.451,135.173,381.322,135.001z"/>
			
				<path fill="#4F5666" stroke="#000000" stroke-width="8" stroke-linecap="round" stroke-linejoin="round" stroke-miterlimit="10" d="
				M349.805,103.467c0.046,0.033,0.092,0.066,0.138,0.1C349.896,103.533,349.851,103.5,349.805,103.467z"/>
			
				<path fill="#4F5666" stroke="#000000" stroke-width="8" stroke-linecap="round" stroke-linejoin="round" stroke-miterlimit="10" d="
				M414.496,202.526c0.205,0.672,0.405,1.347,0.605,2.022C414.901,203.873,414.701,203.198,414.496,202.526z"/>
			
				<path fill="#4F5666" stroke="#000000" stroke-width="8" stroke-linecap="round" stroke-linejoin="round" stroke-miterlimit="10" d="
				M355.616,107.932c0.018,0.015,0.034,0.029,0.052,0.043C355.65,107.961,355.634,107.946,355.616,107.932z"/>
			
				<path fill="#4F5666" stroke="#000000" stroke-width="8" stroke-linecap="round" stroke-linejoin="round" stroke-miterlimit="10" d="
				M379.037,132.013c0.077,0.098,0.154,0.194,0.23,0.292C379.191,132.207,379.114,132.11,379.037,132.013z"/>
			
				<path fill="#4F5666" stroke="#000000" stroke-width="8" stroke-linecap="round" stroke-linejoin="round" stroke-miterlimit="10" d="
				M352.721,105.643c0.044,0.034,0.088,0.068,0.133,0.103C352.809,105.711,352.765,105.677,352.721,105.643z"/>
			
				<path fill="#4F5666" stroke="#000000" stroke-width="8" stroke-linecap="round" stroke-linejoin="round" stroke-miterlimit="10" d="
				M383.619,138.143c0.157,0.221,0.314,0.44,0.472,0.662C383.934,138.583,383.776,138.363,383.619,138.143z"/>
			
				<path fill="#4F5666" stroke="#000000" stroke-width="8" stroke-linecap="round" stroke-linejoin="round" stroke-miterlimit="10" d="
				M422.717,237.245c0.155,0.891,0.311,1.78,0.459,2.675C423.027,239.025,422.872,238.136,422.717,237.245z"/>
			
				<path fill="#4F5666" stroke="#000000" stroke-width="8" stroke-linecap="round" stroke-linejoin="round" stroke-miterlimit="10" d="
				M390.35,148.25c0.168,0.271,0.333,0.545,0.5,0.816C390.683,148.795,390.518,148.521,390.35,148.25z"/>
			
				<path fill="#4F5666" stroke="#000000" stroke-width="8" stroke-linecap="round" stroke-linejoin="round" stroke-miterlimit="10" d="
				M385.9,141.411c0.17,0.25,0.34,0.501,0.51,0.751C386.24,141.912,386.07,141.661,385.9,141.411z"/>
			
				<path fill="#4F5666" stroke="#000000" stroke-width="8" stroke-linecap="round" stroke-linejoin="round" stroke-miterlimit="10" d="
				M388.146,144.782c0.175,0.269,0.348,0.538,0.521,0.808C388.493,145.32,388.32,145.051,388.146,144.782z"/>
			
				<path fill="#4F5666" stroke="#000000" stroke-width="8" stroke-linecap="round" stroke-linejoin="round" stroke-miterlimit="10" d="
				M426.821,272.518c0.062,0.992,0.113,1.987,0.166,2.983C426.935,274.505,426.883,273.51,426.821,272.518z"/>
			
				<path fill="#4F5666" stroke="#000000" stroke-width="8" stroke-linecap="round" stroke-linejoin="round" stroke-miterlimit="10" d="
				M426.465,267.37c0.074,0.958,0.141,1.918,0.206,2.88C426.605,269.288,426.539,268.328,426.465,267.37z"/>
			
				<path fill="#4F5666" stroke="#000000" stroke-width="8" stroke-linecap="round" stroke-linejoin="round" stroke-miterlimit="10" d="
				M424.934,252.142c0.112,0.905,0.223,1.812,0.328,2.721C425.156,253.953,425.046,253.047,424.934,252.142z"/>
			
				<path fill="#4F5666" stroke="#000000" stroke-width="8" stroke-linecap="round" stroke-linejoin="round" stroke-miterlimit="10" d="
				M426.031,262.254c0.086,0.936,0.168,1.874,0.246,2.814C426.199,264.128,426.117,263.189,426.031,262.254z"/>
			
				<path fill="#4F5666" stroke="#000000" stroke-width="8" stroke-linecap="round" stroke-linejoin="round" stroke-miterlimit="10" d="
				M424.641,249.834c-0.073-0.554-0.146-1.106-0.223-1.658l-0.006-0.004C424.488,248.727,424.567,249.278,424.641,249.834z"/>
			
				<path fill="#4F5666" stroke="#000000" stroke-width="8" stroke-linecap="round" stroke-linejoin="round" stroke-miterlimit="10" d="
				M425.521,257.18c0.1,0.918,0.195,1.839,0.287,2.762C425.716,259.019,425.62,258.098,425.521,257.18z"/>
			
				<path fill="#4F5666" stroke="#000000" stroke-width="8" stroke-linecap="round" stroke-linejoin="round" stroke-miterlimit="10" d="
				M426.77,311.135c-0.05,0.645-0.104,1.287-0.16,1.93C426.666,312.422,426.72,311.779,426.77,311.135z"/>
			
				<path fill="#4F5666" stroke="#000000" stroke-width="8" stroke-linecap="round" stroke-linejoin="round" stroke-miterlimit="10" d="
				M427.152,305.252c-0.034,0.668-0.078,1.332-0.118,1.998C427.074,306.584,427.118,305.92,427.152,305.252z"/>
			
				<path fill="#4F5666" stroke="#000000" stroke-width="8" stroke-linecap="round" stroke-linejoin="round" stroke-miterlimit="10" d="
				M427.383,299.369c-0.015,0.6-0.043,1.192-0.063,1.789C427.34,300.562,427.368,299.969,427.383,299.369z"/>
			
				<path fill="#4F5666" stroke="#000000" stroke-width="8" stroke-linecap="round" stroke-linejoin="round" stroke-miterlimit="10" d="
				M425.51,323.164c-0.052,0.395-0.1,0.791-0.154,1.184C425.41,323.955,425.458,323.559,425.51,323.164z"/>
			
				<path fill="#4F5666" stroke="#000000" stroke-width="8" stroke-linecap="round" stroke-linejoin="round" stroke-miterlimit="10" d="
				M427.101,277.707c0.048,1.043,0.086,2.09,0.124,3.138C427.187,279.797,427.148,278.75,427.101,277.707z"/>
			
				<path fill="#4F5666" stroke="#000000" stroke-width="8" stroke-linecap="round" stroke-linejoin="round" stroke-miterlimit="10" d="
				M427.422,288.18c0.027,1.757,0.042,3.519,0.042,5.285C427.464,291.698,427.449,289.937,427.422,288.18z"/>
			
				<path fill="#4F5666" stroke="#000000" stroke-width="8" stroke-linecap="round" stroke-linejoin="round" stroke-miterlimit="10" d="
				M426.229,317.062c-0.059,0.563-0.117,1.128-0.18,1.69C426.112,318.189,426.171,317.625,426.229,317.062z"/>
			
				<path fill="#4F5666" stroke="#000000" stroke-width="8" stroke-linecap="round" stroke-linejoin="round" stroke-miterlimit="10" d="
				M427.301,282.928c0.035,1.164,0.06,2.334,0.083,3.504C427.36,285.262,427.336,284.092,427.301,282.928z"/>
			
				<path fill="#4F5666" stroke="#000000" stroke-width="8" stroke-linecap="round" stroke-linejoin="round" stroke-miterlimit="10" d="
				M283.465,75.471c-95.788,0-163.196,93.963-157.611,197.78c3.159-11.812,9.031-20.907,16.664-25.079
				c-2.002,14.596-3.052,29.746-3.052,45.293c0,1.658,0.023,3.308,0.059,4.951c0.013,0.607,0.034,1.211,0.053,1.815
				c0.029,1.009,0.064,2.016,0.107,3.019c0.032,0.767,0.069,1.531,0.11,2.293c0.041,0.786,0.09,1.568,0.139,2.352
				c0.057,0.896,0.113,1.794,0.181,2.687c0.031,0.419,0.069,0.836,0.104,1.255c0.314,3.869,0.72,7.697,1.222,11.476
				c0.006,0.05,0.012,0.1,0.019,0.149c0.183,1.365,0.376,2.726,0.582,4.079v0.002l1.948-3.738
				c-1.266-33.891,3.189-59.171,10.26-78.013c18.201-48.512,53.752-54.32,53.752-54.32c-5,20,5,44,5,44
				c23-71,114.498-77.868,114.498-77.868l-41.116-76.081l51.952,76.449c0,0,53.665,14.122,75.707,87.712
				c7.389,24.663,11.227,56.001,8.299,95.73c1.21-5.572,2.219-11.265,3.016-17.065c0.055-0.393,0.103-0.789,0.154-1.184
				c0.193-1.464,0.374-2.935,0.54-4.412c0.063-0.563,0.121-1.127,0.18-1.69c0.139-1.327,0.265-2.659,0.38-3.997
				c0.056-0.643,0.11-1.285,0.16-1.93c0.101-1.289,0.186-2.586,0.265-3.885c0.04-0.666,0.084-1.33,0.118-1.998
				c0.07-1.358,0.121-2.725,0.168-4.094c0.02-0.597,0.048-1.189,0.063-1.789c0.051-1.958,0.081-3.925,0.081-5.904
				c0-1.767-0.015-3.528-0.042-5.285c-0.009-0.584-0.026-1.165-0.038-1.748c-0.023-1.17-0.048-2.34-0.083-3.504
				c-0.021-0.696-0.051-1.389-0.076-2.083c-0.038-1.048-0.076-2.095-0.124-3.138c-0.034-0.737-0.075-1.471-0.113-2.206
				c-0.053-0.996-0.104-1.991-0.166-2.983c-0.046-0.758-0.099-1.513-0.15-2.268c-0.065-0.962-0.132-1.922-0.206-2.88
				c-0.059-0.769-0.123-1.535-0.188-2.302c-0.078-0.94-0.16-1.879-0.246-2.814c-0.072-0.772-0.146-1.543-0.224-2.313
				c-0.092-0.923-0.188-1.844-0.287-2.762c-0.084-0.773-0.17-1.547-0.259-2.317c-0.105-0.909-0.216-1.815-0.328-2.721
				c-0.096-0.771-0.192-1.54-0.293-2.308c-0.073-0.556-0.152-1.107-0.229-1.662c-0.047-0.342-0.092-0.684-0.141-1.025
				c0.049,0.344,0.1,0.686,0.146,1.029c7.631,4.173,13.5,13.266,16.658,25.074C446.658,169.434,379.252,75.471,283.465,75.471z"/>
			<g>
				<g>
					
						<path fill="#FFFFFF" stroke="#000000" stroke-width="8" stroke-linecap="round" stroke-linejoin="round" stroke-miterlimit="10" d="
						M222.909,277.718c15.135,1.219,20.188,3.92,23.143,16.063c-4.861,11.513-18.309,19.16-33.445,17.939
						c-15.137-1.219-27.189-10.92-30.145-23.063C187.323,277.145,207.772,276.497,222.909,277.718z"/>
					<g>
						<defs>
							<path id="SVGID_15_" d="M222.909,277.718c15.135,1.219,20.188,3.92,23.143,16.063c-4.861,11.513-18.309,19.16-33.445,17.939
								c-15.137-1.219-27.189-10.92-30.145-23.063C187.323,277.145,207.772,276.497,222.909,277.718z"/>
						</defs>
						<clipPath id="SVGID_2_">
							<use xlink:href="#SVGID_15_"  overflow="visible"/>
						</clipPath>
						<g clip-path="url(#SVGID_2_)">
							<g>
								<path fill="#809EAD" d="M214.285,307.788c-0.449,0-0.905-0.019-1.354-0.055c-4.414-0.354-8.424-2.406-11.292-5.776
									c-2.867-3.371-4.251-7.656-3.895-12.067c0.687-8.546,7.93-15.239,16.489-15.239c0.448,0,0.904,0.019,1.354,0.055
									c4.411,0.354,8.42,2.406,11.287,5.777c2.868,3.371,4.252,7.656,3.896,12.067
									C230.083,301.095,222.842,307.788,214.285,307.788C214.285,307.788,214.286,307.788,214.285,307.788z"/>
								<path d="M214.233,278.65c0.342,0,0.689,0.014,1.034,0.042c3.346,0.269,6.386,1.825,8.562,4.382
									c2.175,2.558,3.226,5.809,2.956,9.154c-0.522,6.482-6.014,11.56-12.5,11.56c-0.342,0-0.689-0.014-1.036-0.042
									c-3.347-0.269-6.388-1.825-8.563-4.382c-2.176-2.556-3.225-5.807-2.954-9.156
									C202.252,283.728,207.744,278.65,214.233,278.65 M214.233,270.65c-10.612,0-19.611,8.156-20.477,18.917
									c-0.914,11.323,7.525,21.243,18.852,22.153c0.563,0.045,1.122,0.067,1.677,0.067c10.607,0,19.607-8.157,20.474-18.917
									c0.912-11.322-7.527-21.242-18.85-22.153C215.348,270.673,214.787,270.65,214.233,270.65L214.233,270.65z"/>
							</g>
							<circle cx="214.259" cy="291.219" r="6.737"/>
						</g>
					</g>
				</g>
				<g>
					
						<path fill="#FFFFFF" stroke="#000000" stroke-width="8" stroke-linecap="round" stroke-linejoin="round" stroke-miterlimit="10" d="
						M344.021,277.718c-15.135,1.219-20.188,3.92-23.143,16.063c4.861,11.513,18.309,19.16,33.445,17.939
						c15.137-1.219,27.189-10.92,30.145-23.063C379.607,277.145,359.158,276.497,344.021,277.718z"/>
					<g>
						<defs>
							<path id="SVGID_17_" d="M344.021,277.718c-15.135,1.219-20.188,3.92-23.143,16.063c4.861,11.513,18.309,19.16,33.445,17.939
								c15.137-1.219,27.189-10.92,30.145-23.063C379.607,277.145,359.158,276.497,344.021,277.718z"/>
						</defs>
						<clipPath id="SVGID_4_">
							<use xlink:href="#SVGID_17_"  overflow="visible"/>
						</clipPath>
						<g clip-path="url(#SVGID_4_)">
							<g>
								<path fill="#809EAD" d="M352.646,307.788c-8.557,0-15.798-6.693-16.486-15.238c-0.355-4.411,1.028-8.696,3.896-12.067
									c2.867-3.371,6.876-5.423,11.287-5.777c0.45-0.036,0.906-0.055,1.354-0.055c8.56,0,15.803,6.693,16.489,15.237
									c0.356,4.413-1.027,8.698-3.895,12.069c-2.868,3.37-6.878,5.422-11.29,5.776C353.55,307.77,353.095,307.788,352.646,307.788
									z"/>
								<path d="M352.699,270.65v8c6.488,0,11.979,5.077,12.5,11.561c0.271,3.347-0.778,6.598-2.954,9.153
									c-2.175,2.557-5.217,4.113-8.567,4.383c-0.343,0.027-0.69,0.041-1.032,0.041c-6.487,0-11.978-5.077-12.499-11.56
									c-0.27-3.346,0.779-6.597,2.955-9.154c2.176-2.557,5.216-4.113,8.563-4.383c0.344-0.027,0.691-0.041,1.033-0.041
									L352.699,270.65 M352.697,270.65c-0.554,0-1.113,0.022-1.676,0.067c-11.322,0.911-19.762,10.831-18.85,22.153
									c0.867,10.76,9.866,18.917,20.474,18.917c0.555,0,1.114-0.022,1.677-0.067c11.326-0.91,19.766-10.83,18.852-22.153
									C372.309,278.807,363.31,270.649,352.697,270.65L352.697,270.65z"/>
							</g>
							<circle cx="352.672" cy="291.219" r="6.737"/>
						</g>
					</g>
				</g>
			</g>
			<path fill="none" stroke="#000000" stroke-width="8" stroke-linecap="round" stroke-linejoin="round" stroke-miterlimit="10" d="
				M256.333,265.016c2.631,1.519,20,21.456,20,41.456s-10,66.667-10,66.667"/>
			<g>
				<path d="M272.876,403.137c-2.647,5.386-5.36,3.613-8.923,1.862c-3.561-1.75-6.621-2.816-3.974-8.202
					c2.646-5.385,9.304-11.636,12.864-9.885C276.406,388.662,275.523,397.751,272.876,403.137z"/>
				<path d="M294.054,403.137c2.647,5.386,5.36,3.613,8.923,1.862c3.561-1.75,6.621-2.816,3.974-8.202
					c-2.646-5.385-9.304-11.636-12.864-9.885C290.523,388.662,291.406,397.751,294.054,403.137z"/>
			</g>
			<path fill="none" stroke="#000000" stroke-width="8" stroke-linecap="round" stroke-linejoin="round" stroke-miterlimit="10" d="
				M157.248,188.215c-11.471,31.013-17.782,66.943-17.782,105.25c0,11.74,0.908,23.109,2.574,34.077"/>
			<path fill="none" stroke="#000000" stroke-width="8" stroke-linecap="round" stroke-linejoin="round" stroke-miterlimit="10" d="
				M422.34,341.413c3.291-15.155,5.124-31.179,5.124-47.948c0-38.311-6.319-74.238-17.792-105.25"/>
			<g>
				
					<path fill="#CCAC6C" stroke="#000000" stroke-width="8" stroke-linecap="round" stroke-linejoin="round" stroke-miterlimit="10" d="
					M324.782,319.312c11.224,13.348,57.418,11.166,65.787-8.249"/>
				
					<path fill="#CCAC6C" stroke="#000000" stroke-width="8" stroke-linecap="round" stroke-linejoin="round" stroke-miterlimit="10" d="
					M242.147,319.312c-11.224,13.348-57.418,11.166-65.787-8.249"/>
			</g>
			<g>
				<g>
					
						<path fill="none" stroke="#000000" stroke-width="8" stroke-linecap="round" stroke-linejoin="round" stroke-miterlimit="10" d="
						M246.395,255.348c-14.346-20.855-57.013-22.355-85.846,6.478"/>
				</g>
				<g>
					
						<path fill="none" stroke="#000000" stroke-width="8" stroke-linecap="round" stroke-linejoin="round" stroke-miterlimit="10" d="
						M320.535,255.348c14.346-20.855,57.013-22.355,85.846,6.478"/>
				</g>
			</g>
			<path fill="none" stroke="#000000" stroke-width="8" stroke-linecap="round" stroke-linejoin="round" stroke-miterlimit="10" d="
				M256.817,444.523c8.546,2.063,15.338,2.601,26.64,2.601c11.304,0,18.109-0.538,26.655-2.601"/>
		</g>
		<g>
			<path fill="none" stroke="#000000" stroke-width="8" stroke-linecap="round" stroke-linejoin="round" stroke-miterlimit="10" d="
				M236.925,266.219c-7.838-7.658-27.496-9.039-37.688-3.965"/>
			<path fill="none" stroke="#000000" stroke-width="8" stroke-linecap="round" stroke-linejoin="round" stroke-miterlimit="10" d="
				M330.005,266.219c7.838-7.658,27.496-9.039,37.688-3.965"/>
		</g>
		<g>
			
				<path fill="#CCAC6C" stroke="#000000" stroke-width="8" stroke-linecap="round" stroke-linejoin="round" stroke-miterlimit="10" d="
				M244.271,377.001c0,11-7.348,14.098-13.148,19.898s-25.527,18.602-25.527,54.102"/>
			
				<path fill="#CCAC6C" stroke="#000000" stroke-width="8" stroke-linecap="round" stroke-linejoin="round" stroke-miterlimit="10" d="
				M322.658,377.001c0,11,7.348,14.098,13.148,19.898s25.527,18.602,25.527,54.102"/>
		</g>
	</g>
</g>
</svg>
