<?xml version="1.0" encoding="utf-8"?>
<!-- Generator: Adobe Illustrator 16.0.0, SVG Export Plug-In . SVG Version: 6.00 Build 0)  -->
<!DOCTYPE svg PUBLIC "-//W3C//DTD SVG 1.1//EN" "http://www.w3.org/Graphics/SVG/1.1/DTD/svg11.dtd">
<svg version="1.1" xmlns="http://www.w3.org/2000/svg" xmlns:xlink="http://www.w3.org/1999/xlink" x="0px" y="0px"
	 width="566.93px" height="566.93px" viewBox="0 0 566.93 566.93" enable-background="new 0 0 566.93 566.93" xml:space="preserve">
<g id="fond" display="none">
	
		<rect x="-8643.873" y="-11116" display="inline" fill-rule="evenodd" clip-rule="evenodd" fill="#58595B" width="16654.492" height="16572.797"/>
</g>
<g id="en_cours">
</g>
<g id="fini">
	<g>
		
			<path fill="#CCAC6C" stroke="#000000" stroke-width="8" stroke-linecap="round" stroke-linejoin="round" stroke-miterlimit="10" d="
			M339.302,353.014l16.982,7.72c0,0-12.383,0.919-12.383,7.149s7.369,23.634,36.055,40.195c-39.225,0-62.729-38.83-78.451-41.286"/>
		<g>
			<defs>
				<path id="SVGID_19_" d="M339.302,353.014l16.982,7.72c0,0-12.383,0.919-12.383,7.149s7.369,23.634,36.055,40.195
					c-39.225,0-62.729-38.83-78.451-41.286"/>
			</defs>
			<clipPath id="SVGID_2_">
				<use xlink:href="#SVGID_19_"  overflow="visible"/>
			</clipPath>
			<g clip-path="url(#SVGID_2_)">
				
					<path fill="none" stroke="#000000" stroke-width="8" stroke-linecap="round" stroke-linejoin="round" stroke-miterlimit="10" d="
					M385.563,398.938c-39.203,1.32-64-36.696-79.797-38.622"/>
				
					<path fill="none" stroke="#000000" stroke-width="8" stroke-linecap="round" stroke-linejoin="round" stroke-miterlimit="10" d="
					M387.237,388.449c-39.186,1.787-64.432-35.932-80.25-37.67"/>
			</g>
		</g>
		
			<path fill="#CCAC6C" stroke="#000000" stroke-width="8" stroke-linecap="round" stroke-linejoin="round" stroke-miterlimit="10" d="
			M155.581,374.113c0,0,3.602,34.994,27.791,54.035c0,0-3.01-25.357,5.66-30.363c0,0-27.275-12.865-27.275-23.672"/>
		<g>
			<defs>
				<path id="SVGID_21_" d="M155.581,374.113c0,0,3.602,34.994,27.791,54.035c0,0-3.01-25.357,5.66-30.363
					c0,0-27.275-12.865-27.275-23.672"/>
			</defs>
			<clipPath id="SVGID_4_">
				<use xlink:href="#SVGID_21_"  overflow="visible"/>
			</clipPath>
			
				<path clip-path="url(#SVGID_4_)" fill="none" stroke="#000000" stroke-width="8" stroke-linecap="round" stroke-linejoin="round" stroke-miterlimit="10" d="
				M158.44,374.375c0,0,10.389,33.611,37.836,47.546"/>
		</g>
		
			<path fill="#CCAC6C" stroke="#000000" stroke-width="8" stroke-linecap="round" stroke-linejoin="round" stroke-miterlimit="10" d="
			M286.554,255.235c0,0,33.578-37.824,62.912-47.474c0,0-28.176,30.105-28.176,38.211s15.053,11.578,15.053,11.578l-23.158,8.492"/>
		<g>
			<defs>
				<path id="SVGID_23_" d="M286.554,255.235c0,0,33.578-37.824,62.912-47.474c0,0-28.176,30.105-28.176,38.211
					s15.053,11.578,15.053,11.578l-23.158,8.492"/>
			</defs>
			<clipPath id="SVGID_6_">
				<use xlink:href="#SVGID_23_"  overflow="visible"/>
			</clipPath>
			<g clip-path="url(#SVGID_6_)">
				
					<path fill="none" stroke="#000000" stroke-width="8" stroke-linecap="round" stroke-linejoin="round" stroke-miterlimit="10" d="
					M291.185,263.727c0,0,33.578-37.824,62.912-47.474"/>
				
					<path fill="none" stroke="#000000" stroke-width="8" stroke-linecap="round" stroke-linejoin="round" stroke-miterlimit="10" d="
					M298.317,271.446c0,0,33.578-37.825,62.912-47.474"/>
			</g>
		</g>
		
			<path fill="#CCAC6C" stroke="#000000" stroke-width="8" stroke-linecap="round" stroke-linejoin="round" stroke-miterlimit="10" d="
			M161.757,249.446l14.41-63.685c0,0,8.822,22.771,36.639,35.895s40.939,4.632,61.01,20.843v12.736"/>
		<g>
			<defs>
				<path id="SVGID_25_" d="M161.757,249.446l14.41-63.685c0,0,8.822,22.771,36.639,35.895s40.939,4.632,61.01,20.843v12.736"/>
			</defs>
			<clipPath id="SVGID_8_">
				<use xlink:href="#SVGID_25_"  overflow="visible"/>
			</clipPath>
			<g clip-path="url(#SVGID_8_)">
				
					<line fill="#CCAC6C" stroke="#000000" stroke-width="8" stroke-linecap="round" stroke-linejoin="round" stroke-miterlimit="10" x1="172.308" y1="247.191" x2="186.716" y2="183.507"/>
				
					<line fill="#CCAC6C" stroke="#000000" stroke-width="8" stroke-linecap="round" stroke-linejoin="round" stroke-miterlimit="10" x1="181.827" y1="249.446" x2="196.237" y2="185.762"/>
				
					<line fill="#CCAC6C" stroke="#000000" stroke-width="8" stroke-linecap="round" stroke-linejoin="round" stroke-miterlimit="10" x1="191.349" y1="251.701" x2="205.759" y2="188.017"/>
				
					<line fill="#CCAC6C" stroke="#000000" stroke-width="8" stroke-linecap="round" stroke-linejoin="round" stroke-miterlimit="10" x1="200.87" y1="253.955" x2="215.28" y2="190.271"/>
				
					<line fill="#CCAC6C" stroke="#000000" stroke-width="8" stroke-linecap="round" stroke-linejoin="round" stroke-miterlimit="10" x1="210.392" y1="256.21" x2="224.8" y2="192.525"/>
				
					<line fill="#CCAC6C" stroke="#000000" stroke-width="8" stroke-linecap="round" stroke-linejoin="round" stroke-miterlimit="10" x1="219.911" y1="258.465" x2="234.321" y2="194.781"/>
				
					<line fill="#CCAC6C" stroke="#000000" stroke-width="8" stroke-linecap="round" stroke-linejoin="round" stroke-miterlimit="10" x1="229.433" y1="260.72" x2="243.843" y2="197.035"/>
				
					<line fill="#CCAC6C" stroke="#000000" stroke-width="8" stroke-linecap="round" stroke-linejoin="round" stroke-miterlimit="10" x1="238.954" y1="262.975" x2="253.364" y2="199.29"/>
				
					<line fill="#CCAC6C" stroke="#000000" stroke-width="8" stroke-linecap="round" stroke-linejoin="round" stroke-miterlimit="10" x1="248.476" y1="265.229" x2="262.884" y2="201.545"/>
				
					<line fill="#CCAC6C" stroke="#000000" stroke-width="8" stroke-linecap="round" stroke-linejoin="round" stroke-miterlimit="10" x1="257.995" y1="267.484" x2="272.405" y2="203.8"/>
			</g>
		</g>
		<g>
			
				<rect x="334.568" y="264.104" transform="matrix(0.9263 -0.3768 0.3768 0.9263 -77.0828 148.8516)" fill="#CCAC6C" stroke="#000000" stroke-width="8" stroke-linecap="round" stroke-linejoin="round" stroke-miterlimit="10" width="14.665" height="14.666"/>
			
				<rect x="350.272" y="269.233" transform="matrix(0.9017 -0.4324 0.4324 0.9017 -84.4048 181.7961)" fill="#CCAC6C" stroke="#000000" stroke-width="8" stroke-linecap="round" stroke-linejoin="round" stroke-miterlimit="10" width="14.498" height="14.499"/>
			
				<rect x="365.95" y="274.337" transform="matrix(0.8731 -0.4875 0.4875 0.8731 -89.8998 217.6134)" fill="#CCAC6C" stroke="#000000" stroke-width="8" stroke-linecap="round" stroke-linejoin="round" stroke-miterlimit="10" width="14.388" height="14.383"/>
			
				<rect x="381.6" y="279.41" transform="matrix(0.8408 -0.5413 0.5413 0.8408 -93.244 256.0648)" fill="#CCAC6C" stroke="#000000" stroke-width="8" stroke-linecap="round" stroke-linejoin="round" stroke-miterlimit="10" width="14.328" height="14.328"/>
			
				<rect x="397.221" y="284.456" transform="matrix(0.8051 -0.5932 0.5932 0.8051 -94.1561 296.702)" fill="#CCAC6C" stroke="#000000" stroke-width="8" stroke-linecap="round" stroke-linejoin="round" stroke-miterlimit="10" width="14.33" height="14.328"/>
			
				<rect x="412.814" y="289.473" transform="matrix(0.7662 -0.6426 0.6426 0.7662 -92.4427 339.2283)" fill="#CCAC6C" stroke="#000000" stroke-width="8" stroke-linecap="round" stroke-linejoin="round" stroke-miterlimit="10" width="14.386" height="14.386"/>
			
				<rect x="428.377" y="294.462" transform="matrix(0.725 -0.6888 0.6888 0.725 -88.0012 383.0393)" fill="#CCAC6C" stroke="#000000" stroke-width="8" stroke-linecap="round" stroke-linejoin="round" stroke-miterlimit="10" width="14.5" height="14.499"/>
			
				<rect x="443.915" y="299.423" transform="matrix(0.6817 -0.7316 0.7316 0.6817 -80.7999 427.7906)" fill="#CCAC6C" stroke="#000000" stroke-width="8" stroke-linecap="round" stroke-linejoin="round" stroke-miterlimit="10" width="14.666" height="14.667"/>
		</g>
		<g>
			
				<path fill="#4F5666" stroke="#000000" stroke-width="8" stroke-linecap="round" stroke-linejoin="round" stroke-miterlimit="10" d="
				M44.214,318.406l0.031,0.024c5.486,3.485,9.471,7.108,12.498,9.887l0.004,0.003h-0.002c3.453,3.169,5.672,5.24,7.492,4.752
				c3.107-0.834,3.475-6.69,2.959-9.649c-0.516-2.96-9.016-5.165-12.994-7.462c-3.137-1.81-19.904-11.89-28.602-18.907
				c-3.115,2.286-4.85,3.888-4.85,4.498c0,4.116,4.633,7.204,4.633,7.204l5.889,3.248c5.068,1.888,9.324,4.111,12.93,6.398
				L44.214,318.406z"/>
			
				<path fill="#4F5666" stroke="#000000" stroke-width="8" stroke-linecap="round" stroke-linejoin="round" stroke-miterlimit="10" d="
				M507.53,316.43c0-56.563,32.473-87.955,32.473-87.955c-22.129,9.264-67.158,63.042-78.223,74.105
				c-11.063,11.064-95.203-22.643-149.238-42.198S212.19,242.37,155.581,245.457c-48.211,2.631-112.088,38.476-129.98,51.597
				c8.697,7.018,25.465,17.098,28.602,18.907c3.979,2.297,12.479,4.502,12.994,7.462c0.516,2.959,0.148,8.815-2.959,9.649
				c-1.82,0.488-4.039-1.583-7.492-4.752H28.606c17.035,13.342,59.133,38.072,99.701,46.821
				c52.49,11.322,124.537,21.614,183.203-2.572c58.668-24.188,123.51-51.977,147.184-51.977c11.426,0,18.914,16.425,33.449,33.419
				c15.578,18.215,38.328,37.084,54.035,37.084C546.179,391.096,507.53,361.201,507.53,316.43z"/>
			
				<path fill="#4F5666" stroke="#000000" stroke-width="8" stroke-linecap="round" stroke-linejoin="round" stroke-miterlimit="10" d="
				M56.743,328.317l-12.498-9.887c-0.014-0.009-0.027-0.019-0.043-0.028l-2.324-0.55l0.488,0.269H24.353c0,0-3.602-3.46-3.602,2.079
				c0,1.258,2.85,4.198,7.855,8.12h28.139C56.745,328.319,56.745,328.318,56.743,328.317z"/>
		</g>
		
			<path fill="#CCAC6C" stroke="#000000" stroke-width="8" stroke-linecap="round" stroke-linejoin="round" stroke-miterlimit="10" d="
			M161.757,300.008c62.27-15.439,121.451-3.603,117.848,0c-3.602,3.603-78.48,14.336-91.086,21.613
			C188.519,321.621,176.165,300.008,161.757,300.008z"/>
		<path fill="none" stroke="#000000" stroke-width="8" stroke-linecap="round" stroke-linejoin="round" stroke-miterlimit="10" d="
			M128.821,269.646c10.496,6.06,14.926,24.186,20.07,40.14c5.146,15.953,20.791,62.195-17.137,66.092"/>
		<path fill="none" stroke="#000000" stroke-width="8" stroke-linecap="round" stroke-linejoin="round" stroke-miterlimit="10" d="
			M104.634,273.762c6.691,0,7.719,10.792,15.953,33.186s12.865,40.92-11.32,44.008"/>
		
			<polygon fill="none" stroke="#000000" stroke-width="8" stroke-linecap="round" stroke-linejoin="round" stroke-miterlimit="10" points="
			56.743,328.317 56.745,328.32 56.747,328.32 		"/>
		<path fill="none" stroke="#000000" stroke-width="8" stroke-linecap="round" stroke-linejoin="round" stroke-miterlimit="10" d="
			M44.202,318.402c0.016,0.01,0.029,0.02,0.043,0.028l-0.031-0.024L44.202,318.402z"/>
		<path fill="none" stroke="#000000" stroke-width="8" stroke-linecap="round" stroke-linejoin="round" stroke-miterlimit="10" d="
			M56.743,328.317c-3.027-2.778-7.012-6.401-12.498-9.887L56.743,328.317z"/>
		
			<circle fill="#CCAC6C" stroke="#000000" stroke-width="8" stroke-linecap="round" stroke-linejoin="round" stroke-miterlimit="10" cx="75.43" cy="296.534" r="13.251"/>
		<circle cx="75.43" cy="296.534" r="5.017"/>
		<circle fill="#FFFFFF" cx="79.096" cy="292.273" r="3.667"/>
		<g>
			<defs>
				<path id="SVGID_27_" d="M161.757,300.008c62.27-15.439,121.451-3.603,117.848,0c-3.602,3.603-78.48,14.336-91.086,21.613
					C188.519,321.621,176.165,300.008,161.757,300.008z"/>
			</defs>
			<clipPath id="SVGID_10_">
				<use xlink:href="#SVGID_27_"  overflow="visible"/>
			</clipPath>
			<g clip-path="url(#SVGID_10_)">
				
					<path fill="none" stroke="#000000" stroke-width="8" stroke-linecap="round" stroke-linejoin="round" stroke-miterlimit="10" d="
					M161.712,307.516c62.59-14.088,121.5-0.973,117.82,2.551"/>
				
					<path fill="none" stroke="#000000" stroke-width="8" stroke-linecap="round" stroke-linejoin="round" stroke-miterlimit="10" d="
					M161.591,315.311c63-12.116,121.471,2.839,117.684,6.246"/>
			</g>
		</g>
		<g>
			<defs>
				<path id="SVGID_29_" d="M311.511,372.569c58.668-24.188,123.51-51.977,147.184-51.977c11.426,0,18.914,16.425,33.449,33.419
					c15.578,18.215,38.328,37.084,54.035,37.084c0,0-38.648-29.895-38.648-74.666c0-56.563,32.473-87.955,32.473-87.955
					c-22.129,9.264-67.158,63.042-78.223,74.105c-11.063,11.064-95.203-22.643-149.238-42.198"/>
			</defs>
			<clipPath id="SVGID_11_">
				<use xlink:href="#SVGID_29_"  overflow="visible"/>
			</clipPath>
			<g clip-path="url(#SVGID_11_)">
				
					<path fill="none" stroke="#000000" stroke-width="8" stroke-linecap="round" stroke-linejoin="round" stroke-miterlimit="10" d="
					M548.526,246.383c-23.1,6.471-74.404,54.299-86.746,63.918"/>
				
					<path fill="none" stroke="#000000" stroke-width="8" stroke-linecap="round" stroke-linejoin="round" stroke-miterlimit="10" d="
					M461.364,310.549c6.441-3.866,19.477-11.986,34.854-20.738c18.334-10.434,39.645-21.699,52.676-24.881"/>
				
					<path fill="none" stroke="#000000" stroke-width="8" stroke-linecap="round" stroke-linejoin="round" stroke-miterlimit="10" d="
					M460.95,310.796c7.266-3.355,19.588-7.308,34.996-12.116c18.109-5.652,39.844-12.366,53.314-15.202"/>
				
					<path fill="none" stroke="#000000" stroke-width="8" stroke-linecap="round" stroke-linejoin="round" stroke-miterlimit="10" d="
					M460.534,311.044c8.094-2.845,19.621-2.681,35.141-3.497c17.793-0.934,40.043-3.033,53.953-5.521"/>
				
					<path fill="none" stroke="#000000" stroke-width="8" stroke-linecap="round" stroke-linejoin="round" stroke-miterlimit="10" d="
					M460.118,311.291c8.92-2.334,19.627,1.842,35.285,5.125c17.445,3.658,40.24,6.3,54.59,4.156"/>
				
					<path fill="none" stroke="#000000" stroke-width="8" stroke-linecap="round" stroke-linejoin="round" stroke-miterlimit="10" d="
					M459.702,311.539c9.746-1.824,19.684,6.266,35.43,13.744c17.154,8.148,40.439,15.634,55.229,13.837"/>
				
					<path fill="none" stroke="#000000" stroke-width="8" stroke-linecap="round" stroke-linejoin="round" stroke-miterlimit="10" d="
					M459.286,311.787c10.574-1.314,19.822,10.654,35.572,22.365c16.953,12.604,40.641,24.965,55.869,23.515"/>
				
					<path fill="none" stroke="#000000" stroke-width="8" stroke-linecap="round" stroke-linejoin="round" stroke-miterlimit="10" d="
					M458.872,312.034c11.398-0.804,20.023,15.056,35.715,30.985c16.82,17.076,40.84,34.3,56.508,33.195"/>
			</g>
		</g>
		<g>
			
				<path fill="#4F5666" stroke="#000000" stroke-width="8" stroke-linecap="round" stroke-linejoin="round" stroke-miterlimit="10" d="
				M456.716,304.572c0.781-0.101,1.498-0.239,2.141-0.423C458.112,304.197,457.396,304.341,456.716,304.572z"/>
			
				<path fill="#4F5666" stroke="#000000" stroke-width="8" stroke-linecap="round" stroke-linejoin="round" stroke-miterlimit="10" d="
				M382.931,343.4c32.598-12.796,60.746-22.474,75.037-22.795c0.465,0.08,0.939,0.131,1.428,0.131c0.262,0,0.521-0.015,0.779-0.039
				c4.221-0.394,7.527-3.943,7.527-8.268c0-4.588-3.719-8.308-8.307-8.308c-0.182,0-0.359,0.016-0.539,0.027
				c-0.643,0.184-1.359,0.322-2.141,0.423c-12.438,1.588-41.791-7.298-73.785-18.506"/>
		</g>
	</g>
</g>
</svg>
