<?xml version="1.0" encoding="utf-8"?>
<!-- Generator: Adobe Illustrator 16.0.0, SVG Export Plug-In . SVG Version: 6.00 Build 0)  -->
<!DOCTYPE svg PUBLIC "-//W3C//DTD SVG 1.1//EN" "http://www.w3.org/Graphics/SVG/1.1/DTD/svg11.dtd">
<svg version="1.1" xmlns="http://www.w3.org/2000/svg" xmlns:xlink="http://www.w3.org/1999/xlink" x="0px" y="0px"
	 width="283.465px" height="283.465px" viewBox="0 0 283.465 566.93" enable-background="new 0 0 283.465 566.93"
	 xml:space="preserve">
<g id="fond" display="none">
	
		<rect x="-5535.605" y="-11126.046" display="inline" fill-rule="evenodd" clip-rule="evenodd" fill="#58595B" width="16654.492" height="16572.797"/>
</g>
<g id="en_cours">
</g>
<g id="fini">
	<g>
		<path d="M134.168,316.953H178v17.355h-43.832v53.399c0,5.785,0.445,10.568,1.335,14.351c0.89,3.783,2.225,6.752,4.005,8.9
			c1.78,2.151,4.005,3.671,6.675,4.561c2.67,0.891,5.785,1.336,9.345,1.336c6.23,0,11.236-0.703,15.019-2.114
			c3.782-1.408,6.414-2.409,7.898-3.004l4.005,17.133c-2.079,1.039-5.712,2.336-10.903,3.894c-5.194,1.558-11.125,2.336-17.8,2.336
			c-7.864,0-14.351-1.001-19.468-3.004c-5.118-2.002-9.234-5.006-12.349-9.011c-3.115-4.005-5.305-8.935-6.564-14.796
			c-1.262-5.858-1.891-12.645-1.891-20.358V284.691l20.692-3.561V316.953z"/>
	</g>
	<g>
		<path d="M242.515,262.705c0,1.634,0,3.226,0,4.783s-0.076,3.08-0.222,4.562c-0.595,7.714-2.302,15.317-5.118,22.806
			c-2.819,7.492-6.23,14.573-10.235,21.249l-16.02-5.118c3.115-6.675,5.451-13.312,7.009-19.913
			c1.558-6.599,2.336-12.794,2.336-18.579c0-1.48-0.039-3.076-0.111-4.783c-0.077-1.704-0.188-3.372-0.334-5.006H242.515z"/>
	</g>
</g>
</svg>
