<?xml version="1.0" encoding="utf-8"?>
<!-- Generator: Adobe Illustrator 16.0.0, SVG Export Plug-In . SVG Version: 6.00 Build 0)  -->
<!DOCTYPE svg PUBLIC "-//W3C//DTD SVG 1.1//EN" "http://www.w3.org/Graphics/SVG/1.1/DTD/svg11.dtd">
<svg version="1.1" xmlns="http://www.w3.org/2000/svg" xmlns:xlink="http://www.w3.org/1999/xlink" x="0px" y="0px"
	 width="566.93px" height="566.93px" viewBox="0 0 566.93 566.93" enable-background="new 0 0 566.93 566.93" xml:space="preserve">
<g id="fond" display="none">
	
		<rect x="-6964.42" y="-7591.898" display="inline" fill-rule="evenodd" clip-rule="evenodd" fill="#58595B" width="15942.492" height="15814.695"/>
</g>
<g id="en_cours">
</g>
<g id="fini">
	<g>
		<g>
			<g>
				<path fill="#E5E2D3" d="M82.728,537.161c-0.677,0-1.354-0.172-1.965-0.516l-28.31-15.966c-0.612-0.345-1.122-0.845-1.479-1.449
					l-31.695-53.645c-1.031-1.745-0.594-3.984,1.017-5.215L358.5,202.163c0.703-0.537,1.557-0.821,2.427-0.821
					c0.255,0,0.511,0.024,0.766,0.074c1.122,0.219,2.097,0.907,2.678,1.892l57.266,96.924c0.357,0.604,0.549,1.293,0.556,1.995
					l0.327,32.499c0.014,1.429-0.735,2.757-1.965,3.483c-0.627,0.371-1.331,0.557-2.035,0.557c-0.677,0-1.355-0.172-1.965-0.516
					l-22.275-12.564l0.257,25.574c0.014,1.429-0.735,2.757-1.965,3.484c-0.627,0.37-1.331,0.556-2.035,0.556
					c-0.677,0-1.355-0.172-1.965-0.516l-22.274-12.565l0.257,25.574c0.014,1.429-0.735,2.757-1.965,3.484
					c-0.627,0.37-1.331,0.556-2.035,0.556c-0.677,0-1.355-0.172-1.965-0.516l-22.275-12.565l0.257,25.572
					c0.014,1.429-0.735,2.757-1.965,3.483c-0.627,0.371-1.331,0.557-2.035,0.557c-0.677,0-1.354-0.172-1.965-0.516l-22.274-12.563
					l0.257,25.573c0.014,1.429-0.735,2.757-1.965,3.483c-0.627,0.371-1.331,0.557-2.035,0.557c-0.677,0-1.355-0.172-1.965-0.516
					l-22.275-12.564l0.258,25.571c0.014,1.429-0.735,2.757-1.965,3.483c-0.627,0.371-1.331,0.557-2.035,0.557
					c-0.677,0-1.354-0.172-1.965-0.516l-22.275-12.563l0.258,25.572c0.014,1.429-0.735,2.757-1.965,3.483
					c-0.627,0.371-1.331,0.557-2.035,0.557c-0.677,0-1.354-0.172-1.965-0.516l-22.276-12.563l0.258,25.573
					c0.014,1.429-0.735,2.757-1.965,3.484c-0.627,0.37-1.331,0.556-2.035,0.556c-0.677,0-1.355-0.172-1.965-0.516l-22.274-12.565
					l0.257,25.572c0.014,1.429-0.735,2.757-1.965,3.483c-0.627,0.371-1.331,0.557-2.035,0.557c-0.677,0-1.355-0.172-1.965-0.516
					l-22.275-12.563l0.258,25.573c0.014,1.429-0.735,2.757-1.965,3.483c-0.627,0.371-1.331,0.557-2.035,0.557
					c-0.677,0-1.354-0.172-1.965-0.516l-22.276-12.563l0.258,25.571c0.014,1.429-0.735,2.757-1.965,3.483
					c-0.627,0.371-1.331,0.557-2.035,0.557c-0.677,0-1.355-0.172-1.965-0.516l-22.274-12.563l0.257,25.571
					c0.014,1.429-0.735,2.757-1.965,3.483c-0.627,0.371-1.331,0.557-2.035,0.557c-0.677,0-1.354-0.172-1.965-0.516L86.47,507.55
					l0.258,25.571c0.014,1.429-0.735,2.757-1.965,3.483C84.135,536.976,83.432,537.161,82.728,537.161z"/>
				<path d="M360.928,205.342l57.266,96.925l0.327,32.499l-28.31-15.968l0.326,32.502l-28.309-15.969l0.327,32.502l-28.31-15.969
					l0.327,32.5l-28.309-15.966l0.327,32.501l-28.31-15.968l0.327,32.499l-28.31-15.967l0.328,32.5l-28.311-15.967l0.327,32.501
					l-28.309-15.969l0.326,32.5l-28.31-15.967l0.327,32.501l-28.311-15.967l0.327,32.499l-28.309-15.967l0.326,32.499L82.4,500.662
					l0.327,32.499l-28.31-15.966l-31.695-53.645L360.928,205.342 M360.928,197.342c-1.74,0-3.449,0.568-4.854,1.642L17.868,457.192
					c-3.221,2.459-4.095,6.938-2.033,10.428l31.695,53.645c0.714,1.209,1.734,2.209,2.958,2.898l28.31,15.966
					c1.22,0.688,2.575,1.032,3.93,1.032c1.408,0,2.815-0.371,4.07-1.112c2.46-1.454,3.958-4.11,3.93-6.968l-0.188-18.645
					l16.241,9.159c1.22,0.688,2.575,1.032,3.93,1.032c1.408,0,2.815-0.371,4.069-1.112c2.461-1.454,3.959-4.11,3.93-6.968
					l-0.187-18.644l16.24,9.159c1.22,0.688,2.576,1.032,3.93,1.032c1.408,0,2.815-0.371,4.069-1.112
					c2.461-1.454,3.959-4.11,3.93-6.968l-0.188-18.644l16.241,9.159c1.221,0.688,2.576,1.032,3.93,1.032
					c1.408,0,2.815-0.371,4.069-1.112c2.461-1.454,3.959-4.11,3.93-6.968l-0.188-18.646l16.24,9.159
					c1.221,0.688,2.576,1.032,3.93,1.032c1.408,0,2.815-0.371,4.069-1.112c2.461-1.454,3.959-4.11,3.93-6.968l-0.187-18.645
					l16.24,9.161c1.221,0.688,2.576,1.032,3.931,1.032c1.408,0,2.815-0.371,4.069-1.112c2.461-1.454,3.959-4.11,3.93-6.968
					l-0.188-18.646l16.241,9.16c1.221,0.688,2.576,1.032,3.93,1.032c1.408,0,2.815-0.371,4.07-1.112
					c2.46-1.454,3.958-4.11,3.93-6.969l-0.188-18.644l16.241,9.159c1.221,0.688,2.576,1.032,3.93,1.032
					c1.408,0,2.815-0.371,4.07-1.112c2.46-1.454,3.958-4.11,3.93-6.969l-0.188-18.643l16.241,9.16
					c1.22,0.688,2.576,1.032,3.93,1.032c1.408,0,2.815-0.371,4.069-1.112c2.461-1.454,3.959-4.11,3.93-6.968l-0.188-18.646
					l16.24,9.159c1.221,0.688,2.576,1.032,3.93,1.032c1.408,0,2.815-0.371,4.069-1.112c2.461-1.454,3.959-4.11,3.93-6.968
					l-0.188-18.645l16.241,9.161c1.22,0.688,2.576,1.032,3.93,1.032c1.408,0,2.815-0.371,4.069-1.112
					c2.461-1.454,3.959-4.11,3.93-6.968l-0.188-18.646l16.24,9.16c1.221,0.688,2.576,1.032,3.931,1.032
					c1.408,0,2.815-0.371,4.069-1.112c2.46-1.454,3.959-4.11,3.93-6.968l-0.187-18.646l16.241,9.16
					c1.22,0.688,2.576,1.032,3.93,1.032c1.408,0,2.815-0.371,4.069-1.112c2.461-1.454,3.959-4.11,3.93-6.968l-0.327-32.499
					c-0.014-1.404-0.397-2.78-1.112-3.989l-57.266-96.925c-1.163-1.968-3.113-3.345-5.357-3.783
					C361.95,197.391,361.438,197.342,360.928,197.342L360.928,197.342z"/>
			</g>
		</g>
		
			<path fill-rule="evenodd" clip-rule="evenodd" fill="#AB2E23" stroke="#000000" stroke-width="8" stroke-linejoin="round" stroke-miterlimit="10" d="
			M404.985,299.59c-5.427,4.497-19.063,12.718-28.005,2.521l-53.842-73.436c-7.667-10.689,3.485-19.515,8.853-23.733
			c26.504-20.828,106.57-78.637,106.57-78.637c13.769-11.088,28.643-14.193,29.636,7.807c0.429,9.494,30.274,11.528,45.425,36.712
			c13.1,21.775,12.363,37.085,14.501,50.786c1.75,11.217,23.97,5.364,13.104,30.03c-10.52,23.882-41.109,35.388-65.48,42.72
			C451.816,301.561,427.074,281.285,404.985,299.59C399.217,304.37,406.177,298.603,404.985,299.59z M505.778,241.107
			c-2.906-24.619-27.64-24.134-44.45-70.234c-6.743-18.492-13.813-18.478-25.19-12.379c0,0-27.538,18.784-35.11,24.48
			c-35.89,26.999,34.861,29.914,50.783,45.836c9.239,9.239,16.638,19.356,23.996,29.842
			C485.951,273.107,506.828,253.551,505.778,241.107C505.563,239.279,506.439,248.944,505.778,241.107z"/>
		<g>
			<path fill="#4F5666" d="M364.027,237.604c-4.006,0-7.658-2.515-9.086-6.259c-1.909-5.01,0.613-10.639,5.62-12.548
				c1.112-0.425,2.277-0.64,3.463-0.64c4.005,0,7.656,2.515,9.084,6.258c0.926,2.426,0.852,5.068-0.209,7.438
				c-1.061,2.371-2.982,4.187-5.409,5.112C366.376,237.389,365.211,237.604,364.027,237.604z"/>
			<path d="M364.023,222.157c2.305,0,4.477,1.403,5.347,3.684c1.127,2.953-0.352,6.26-3.306,7.386
				c-0.671,0.256-1.36,0.377-2.038,0.377c-2.306,0-4.478-1.403-5.349-3.685c-1.125-2.954,0.355-6.259,3.308-7.385
				C362.656,222.278,363.346,222.157,364.023,222.157 M364.024,214.157C364.024,214.157,364.023,214.157,364.024,214.157
				c-1.676,0-3.321,0.304-4.891,0.903c-7.065,2.694-10.624,10.638-7.931,17.707c2.017,5.287,7.17,8.836,12.824,8.836
				c1.674,0,3.318-0.303,4.888-0.902c3.426-1.306,6.138-3.869,7.636-7.215c1.497-3.345,1.602-7.073,0.294-10.498
				C374.829,217.706,369.677,214.157,364.024,214.157L364.024,214.157z"/>
		</g>
		<g>
			<path fill="#4F5666" d="M387.434,277.726c-4.006,0-7.658-2.515-9.086-6.259c-1.909-5.01,0.613-10.639,5.62-12.548
				c1.112-0.425,2.277-0.64,3.463-0.64c4.005,0,7.656,2.515,9.084,6.258c0.926,2.426,0.852,5.068-0.209,7.438
				c-1.061,2.371-2.982,4.187-5.409,5.112C389.784,277.511,388.619,277.726,387.434,277.726z"/>
			<path d="M387.431,262.279c2.305,0,4.477,1.403,5.347,3.684c1.127,2.953-0.352,6.26-3.306,7.386
				c-0.671,0.256-1.36,0.377-2.038,0.377c-2.306,0-4.478-1.403-5.349-3.685c-1.125-2.954,0.355-6.259,3.308-7.385
				C386.063,262.4,386.753,262.279,387.431,262.279 M387.431,254.279C387.431,254.279,387.431,254.279,387.431,254.279
				c-1.676,0-3.321,0.304-4.891,0.903c-7.065,2.694-10.624,10.638-7.931,17.707c2.017,5.287,7.17,8.836,12.824,8.836
				c1.674,0,3.318-0.303,4.888-0.902c3.426-1.306,6.138-3.869,7.636-7.215c1.497-3.345,1.602-7.073,0.294-10.498
				C398.236,257.828,393.084,254.279,387.431,254.279L387.431,254.279z"/>
		</g>
	</g>
</g>
</svg>
