<?xml version="1.0" encoding="utf-8"?>
<!-- Generator: Adobe Illustrator 16.0.0, SVG Export Plug-In . SVG Version: 6.00 Build 0)  -->
<!DOCTYPE svg PUBLIC "-//W3C//DTD SVG 1.1//EN" "http://www.w3.org/Graphics/SVG/1.1/DTD/svg11.dtd">
<svg version="1.1" xmlns="http://www.w3.org/2000/svg" xmlns:xlink="http://www.w3.org/1999/xlink" x="0px" y="0px"
	 width="283.465px" height="566.93px" viewBox="0 0 283.465 566.93" enable-background="new 0 0 283.465 566.93"
	 xml:space="preserve">
<g id="fond" display="none">
	
		<rect x="-6843.605" y="-8544.855" display="inline" fill-rule="evenodd" clip-rule="evenodd" fill="#58595B" width="16654.492" height="16572.797"/>
</g>
<g id="en_cours">
</g>
<g id="fini">
	<g>
		<path d="M114.7,322.071c2.521-1.631,6.341-3.338,11.458-5.118c5.118-1.779,11.014-2.67,17.689-2.67
			c8.305,0,15.686,1.484,22.138,4.45c6.453,2.969,11.904,7.12,16.354,12.46c4.45,5.34,7.822,11.72,10.124,19.135
			c2.298,7.419,3.449,15.575,3.449,24.475c0,9.345-1.374,17.766-4.116,25.254c-2.747,7.491-6.64,13.833-11.681,19.023
			c-5.044,5.193-11.125,9.199-18.245,12.015c-7.12,2.816-15.13,4.228-24.03,4.228c-9.644,0-18.172-0.667-25.587-2.002
			c-7.419-1.336-13.5-2.671-18.245-4.006V263.554l20.692-3.56V322.071z M114.7,414.63c2.076,0.595,5.006,1.15,8.789,1.669
			c3.783,0.521,8.49,0.778,14.129,0.778c11.125,0,20.024-3.671,26.7-11.014c6.675-7.342,10.012-17.762,10.012-31.261
			c0-5.931-0.594-11.493-1.78-16.688c-1.189-5.19-3.115-9.679-5.785-13.461s-6.119-6.748-10.346-8.899
			c-4.228-2.149-9.31-3.227-15.241-3.227c-5.639,0-10.829,0.967-15.575,2.893c-4.749,1.93-8.382,3.932-10.902,6.007V414.63z"/>
	</g>
	<g>
		<path d="M242.515,262.705c0,1.634,0,3.226,0,4.783s-0.076,3.08-0.222,4.562c-0.595,7.714-2.302,15.317-5.118,22.806
			c-2.819,7.492-6.23,14.573-10.235,21.249l-16.02-5.118c3.115-6.675,5.451-13.312,7.009-19.913
			c1.558-6.599,2.336-12.794,2.336-18.579c0-1.48-0.039-3.076-0.111-4.783c-0.077-1.704-0.188-3.372-0.334-5.006H242.515z"/>
	</g>
</g>
</svg>
