<?xml version="1.0" encoding="utf-8"?>
<!-- Generator: Adobe Illustrator 16.0.0, SVG Export Plug-In . SVG Version: 6.00 Build 0)  -->
<!DOCTYPE svg PUBLIC "-//W3C//DTD SVG 1.1//EN" "http://www.w3.org/Graphics/SVG/1.1/DTD/svg11.dtd">
<svg version="1.1" xmlns="http://www.w3.org/2000/svg" xmlns:xlink="http://www.w3.org/1999/xlink" x="0px" y="0px"
	 width="283.465px" height="283.465px" viewBox="0 0 283.465 566.93" enable-background="new 0 0 283.465 566.93"
	 xml:space="preserve">
<g id="fond" display="none">
	
		<rect x="-7500.152" y="-9178" display="inline" fill-rule="evenodd" clip-rule="evenodd" fill="#58595B" width="16654.492" height="16572.797"/>
</g>
<g id="en_cours">
</g>
<g id="fini">
	<g>
		<path d="M167.766,421.082c-1.78,1.189-5.229,2.709-10.346,4.562c-5.118,1.856-11.09,2.781-17.911,2.781
			c-6.974,0-13.538-1.112-19.691-3.337c-6.157-2.226-11.535-5.674-16.131-10.347c-4.6-4.673-8.232-10.492-10.902-17.466
			c-2.67-6.971-4.005-15.276-4.005-24.92c0-8.455,1.259-16.204,3.783-23.251c2.521-7.044,6.192-13.128,11.014-18.245
			c4.818-5.117,10.715-9.122,17.688-12.015c6.971-2.893,14.831-4.339,23.585-4.339c9.64,0,18.057,0.706,25.253,2.113
			c7.193,1.412,13.239,2.709,18.134,3.895v103.238c0,17.801-4.6,30.705-13.795,38.715c-9.199,8.01-23.14,12.016-41.83,12.016
			c-7.27,0-14.129-0.595-20.581-1.78c-6.453-1.189-12.053-2.597-16.799-4.228l3.783-18.022c4.151,1.631,9.233,3.077,15.241,4.339
			c6.008,1.259,12.272,1.892,18.801,1.892c12.311,0,21.172-2.448,26.588-7.343c5.413-4.896,8.121-12.683,8.121-23.362V421.082z
			 M167.543,335.198c-2.079-0.591-4.86-1.147-8.344-1.669c-3.487-0.518-8.198-0.778-14.128-0.778
			c-11.125,0-19.691,3.636-25.699,10.902c-6.007,7.27-9.011,16.909-9.011,28.925c0,6.675,0.852,12.387,2.559,17.132
			c1.704,4.749,4.005,8.678,6.897,11.793c2.893,3.114,6.23,5.416,10.013,6.897c3.782,1.484,7.676,2.225,11.681,2.225
			c5.486,0,10.53-0.778,15.13-2.336c4.596-1.558,8.232-3.372,10.902-5.451V335.198z"/>
	</g>
	<g>
		<path d="M242.515,262.705c0,1.634,0,3.226,0,4.783s-0.076,3.08-0.222,4.562c-0.595,7.714-2.302,15.317-5.118,22.806
			c-2.819,7.492-6.23,14.573-10.235,21.249l-16.02-5.118c3.115-6.675,5.451-13.312,7.009-19.913
			c1.558-6.599,2.336-12.794,2.336-18.579c0-1.48-0.039-3.076-0.111-4.783c-0.077-1.704-0.188-3.372-0.334-5.006H242.515z"/>
	</g>
</g>
</svg>
