<?xml version="1.0" encoding="utf-8"?>
<!-- Generator: Adobe Illustrator 16.0.0, SVG Export Plug-In . SVG Version: 6.00 Build 0)  -->
<!DOCTYPE svg PUBLIC "-//W3C//DTD SVG 1.1//EN" "http://www.w3.org/Graphics/SVG/1.1/DTD/svg11.dtd">
<svg version="1.1" xmlns="http://www.w3.org/2000/svg" xmlns:xlink="http://www.w3.org/1999/xlink" x="0px" y="0px"
	 width="566.93px" height="566.93px" viewBox="0 0 566.93 566.93" enable-background="new 0 0 566.93 566.93" xml:space="preserve">
<g id="fond" display="none">
	
		<rect x="-6307.873" y="-10145.944" display="inline" fill-rule="evenodd" clip-rule="evenodd" fill="#58595B" width="15942.492" height="15814.695"/>
</g>
<g id="en_cours">
</g>
<g id="fini">
	<g>
		<g>
			<path fill="#CCAC6C" stroke="#000000" stroke-width="8" stroke-miterlimit="10" d="M163.168,518.599
				c7.231,15.073,25.192,21.336,40.19,14.067l-25.967-55.059C162.22,485.023,155.884,503.41,163.168,518.599z"/>
			<path fill="#CCAC6C" stroke="#000000" stroke-width="8" stroke-linejoin="round" stroke-miterlimit="10" d="M319.152,467.719
				c0.021,0.278-34.328,0.839-34.328,0.839v34.777l-81.466,29.331l-25.967-55.059l71.275-48.319c0,0-36.754-188.811-36.754-218.752
				c0-29.334,71.552-173.246,71.552-173.246l96.26,69.607c0,0-89.948,105.632-84.233,120.576
				c41.302,108-0.825,139.814,23.701,241.084l-30.293-1.446"/>
			
				<path fill="#CCAC6C" stroke="#000000" stroke-width="8" stroke-linecap="round" stroke-linejoin="round" stroke-miterlimit="10" d="
				M319.225,471.374c0.001-0.063,0.005-0.124,0.008-0.185c0.004-0.125,0.003-0.247,0.004-0.369c0.018-0.753-3.171-14.313-3.21-15.07
				l-31.202,12.808v34.777l7.767-1.91C307.438,499.163,318.686,486.342,319.225,471.374z"/>
		</g>
		
			<polygon fill="#CCAC6C" stroke="#000000" stroke-width="8" stroke-linecap="round" stroke-linejoin="round" stroke-miterlimit="10" points="
			356.467,135.023 379.725,106.897 283.465,37.29 266.539,72.261 		"/>
	</g>
</g>
</svg>
