<?xml version="1.0" encoding="utf-8"?>
<!-- Generator: Adobe Illustrator 16.0.0, SVG Export Plug-In . SVG Version: 6.00 Build 0)  -->
<!DOCTYPE svg PUBLIC "-//W3C//DTD SVG 1.1//EN" "http://www.w3.org/Graphics/SVG/1.1/DTD/svg11.dtd">
<svg version="1.1" xmlns="http://www.w3.org/2000/svg" xmlns:xlink="http://www.w3.org/1999/xlink" x="0px" y="0px"
	 width="566.93px" height="566.93px" viewBox="0 0 566.93 566.93" enable-background="new 0 0 566.93 566.93" xml:space="preserve">
<g id="fond" display="none">
	
		<rect x="-6964.42" y="-8228.754" display="inline" fill-rule="evenodd" clip-rule="evenodd" fill="#58595B" width="15942.492" height="15814.695"/>
</g>
<g id="en_cours">
</g>
<g id="fini">
	<g>
		
			<path fill="#CCAC6C" stroke="#000000" stroke-width="8" stroke-linecap="round" stroke-linejoin="round" stroke-miterlimit="10" d="
			M351.425,297.211c-0.633,13.875-12.396,24.611-26.272,23.979l0,0c-13.877-0.632-24.613-12.396-23.981-26.271l7.266-159.312
			c0.633-13.877,12.396-24.613,26.272-23.98l0,0c13.876,0.633,24.613,12.396,23.98,26.273L351.425,297.211z"/>
		<path fill="#CCAC6C" d="M376.805,278.055l-21.515-5.041c0,0-37.994-6.039-51.957-8.931c-0.522-0.108-0.983-0.336-1.396-0.63
			l-11.793-138.498c-1.162-13.843-13.328-24.123-27.169-22.959c-13.844,1.162-24.122,13.326-22.959,27.17l14.019,164.998
			l-1.991,1.545l-5.493-59.033c-1.335-14.328-12.839-24.975-25.693-23.779l-0.253,0.025c-12.858,1.195-22.202,13.781-20.868,28.111
			l6.839,73.511l-8.99-45.95c-2.265-11.758-13.632-19.455-25.391-17.193l-0.231,0.046c-11.375,2.188-18.924,12.903-17.355,24.246
			l-0.037-0.085C159.991,323,172.35,421.427,172.35,421.427s6.335,45.143,43.331,67.369l-2.835,49.914l138.399,1.063l-4.001-43.943
			c0-21.898,44.436-49.342,44.436-71.089C391.68,401.61,420.882,286.425,376.805,278.055z"/>
		
			<line fill="#CCAC6C" stroke="#000000" stroke-width="8" stroke-linecap="round" stroke-linejoin="round" stroke-miterlimit="10" x1="216.618" y1="472.295" x2="212.846" y2="538.71"/>
		
			<path fill="#CCAC6C" stroke="#000000" stroke-width="8" stroke-linecap="round" stroke-linejoin="round" stroke-miterlimit="10" d="
			M253.388,310.184c1.333,14.334-8.01,26.916-20.869,28.112l-0.254,0.023c-12.855,1.197-24.36-9.449-25.692-23.775l-6.839-73.511
			c-1.334-14.33,8.01-26.916,20.868-28.111l0.253-0.025c12.854-1.195,24.358,9.451,25.693,23.779L253.388,310.184z"/>
		
			<path fill="#CCAC6C" stroke="#000000" stroke-width="8" stroke-linecap="round" stroke-linejoin="round" stroke-miterlimit="10" d="
			M154.569,275.607C159.991,323,172.35,421.427,172.35,421.427s10.452,74.556,83.001,79.215"/>
		
			<path fill="#CCAC6C" stroke="#000000" stroke-width="8" stroke-linecap="round" stroke-linejoin="round" stroke-miterlimit="10" d="
			M209.197,328.916c2.266,11.761-5.433,23.129-17.192,25.391l-0.23,0.048c-11.76,2.262-23.128-5.435-25.392-17.193l-11.614-60.324
			c-2.265-11.759,5.434-23.129,17.193-25.391l0.231-0.046c11.759-2.262,23.126,5.436,25.391,17.193L209.197,328.916z"/>
		
			<path fill="#CCAC6C" stroke="#000000" stroke-width="8" stroke-linecap="round" stroke-linejoin="round" stroke-miterlimit="10" d="
			M351.245,538.711c-2.323-19.63-4.001-36.141-4.001-42.881c0-21.898,46.619-41.118,53.92-90.475
			c12.771-86.329,25.131-118.931-24.359-127.301l-57.71-13.525c-14.118-2.634-27.699,6.672-30.34,20.789l-0.048,0.276
			c-2.639,14.122,6.668,27.705,20.79,30.344l46.038,12.521l-23.586,29.672c0,0-67.179,18.327-67.179,53.977"/>
		
			<path fill="#CCAC6C" stroke="#000000" stroke-width="8" stroke-linecap="round" stroke-linejoin="round" stroke-miterlimit="10" d="
			M351.245,538.711"/>
		<path fill="none" stroke="#000000" stroke-width="8" stroke-linecap="round" stroke-linejoin="round" stroke-miterlimit="10" d="
			M252.262,298.082l-12.248-168.916c-1.163-13.844,9.115-26.008,22.959-27.17l0,0c13.841-1.164,26.007,9.116,27.169,22.959
			l11.003,142.727"/>
	</g>
</g>
</svg>
