<?xml version="1.0" encoding="utf-8"?>
<!-- Generator: Adobe Illustrator 16.0.0, SVG Export Plug-In . SVG Version: 6.00 Build 0)  -->
<!DOCTYPE svg PUBLIC "-//W3C//DTD SVG 1.1//EN" "http://www.w3.org/Graphics/SVG/1.1/DTD/svg11.dtd">
<svg version="1.1" xmlns="http://www.w3.org/2000/svg" xmlns:xlink="http://www.w3.org/1999/xlink" x="0px" y="0px"
	 width="566.93px" height="566.93px" viewBox="0 0 566.93 566.93" enable-background="new 0 0 566.93 566.93" xml:space="preserve">
<g id="fond" display="none">
	
		<rect x="-11509.055" y="-7591.898" display="inline" fill-rule="evenodd" clip-rule="evenodd" fill="#58595B" width="15942.492" height="15814.695"/>
</g>
<g id="en_cours">
</g>
<g id="fini">
	<g>
		
			<path fill="#CCAC6C" stroke="#000000" stroke-width="8" stroke-linecap="round" stroke-linejoin="round" stroke-miterlimit="10" d="
			M289.361,518.5c-4.135-13.09-6.891-53.738,9.645-69.584s81.258,13.039,112.298-9.645c17.913-13.091,0.688-42.716,2.067-47.538
			c1.378-4.822,10.334-7.578,13.09-11.023c2.756-3.444-10.334-15.156-10.334-15.156s13.779-6.89,13.779-9.646
			s-11.023-18.602-11.023-23.424c0-4.823,33.445-6.723,33.068-20.669c-0.688-25.491-50.98-67.517-43.402-91.63
			c10.553-33.572-27.068-112.445-79.918-126.766C221.844,64.483,35.139,128.555,152.26,344.885
			c12.978,23.968,6.2,86.119-29.625,104.031"/>
		
			<circle fill="#564432" stroke="#000000" stroke-width="8" stroke-linecap="round" stroke-linejoin="round" stroke-miterlimit="10" cx="258.103" cy="224.887" r="115.399"/>
		
			<circle fill="#358C5E" stroke="#000000" stroke-width="8" stroke-linecap="round" stroke-linejoin="round" stroke-miterlimit="10" cx="258.103" cy="224.887" r="11.399"/>
	</g>
</g>
</svg>
