<?xml version="1.0" encoding="utf-8"?>
<!-- Generator: Adobe Illustrator 16.0.0, SVG Export Plug-In . SVG Version: 6.00 Build 0)  -->
<!DOCTYPE svg PUBLIC "-//W3C//DTD SVG 1.1//EN" "http://www.w3.org/Graphics/SVG/1.1/DTD/svg11.dtd">
<svg version="1.1" xmlns="http://www.w3.org/2000/svg" xmlns:xlink="http://www.w3.org/1999/xlink" x="0px" y="0px"
	 width="566.93px" height="566.93px" viewBox="0 0 566.93 566.93" enable-background="new 0 0 566.93 566.93" xml:space="preserve">
<g id="fond" display="none">
	
		<rect x="-6056.873" y="-11126.046" display="inline" fill-rule="evenodd" clip-rule="evenodd" fill="#58595B" width="16654.492" height="16572.797"/>
</g>
<g id="en_cours">
</g>
<g id="fini">
	<g>
		<path d="M325.752,316.953c-5.785,21.659-12.571,42.425-20.359,62.3c-7.787,19.879-15.317,37.679-22.583,53.399h-18.69
			c-7.27-15.721-14.796-33.521-22.583-53.399c-7.787-19.875-14.574-40.641-20.358-62.3h22.25c1.78,7.27,3.894,15.019,6.341,23.251
			c2.448,8.232,5.041,16.393,7.788,24.475c2.743,8.087,5.524,15.909,8.344,23.474c2.816,7.565,5.486,14.316,8.01,20.248
			c2.521-5.932,5.19-12.683,8.01-20.248c2.816-7.564,5.597-15.387,8.344-23.474c2.743-8.082,5.34-16.242,7.788-24.475
			c2.447-8.232,4.561-15.981,6.341-23.251H325.752z"/>
	</g>
</g>
</svg>
