<?xml version="1.0" encoding="utf-8"?>
<!-- Generator: Adobe Illustrator 16.0.0, SVG Export Plug-In . SVG Version: 6.00 Build 0)  -->
<!DOCTYPE svg PUBLIC "-//W3C//DTD SVG 1.1//EN" "http://www.w3.org/Graphics/SVG/1.1/DTD/svg11.dtd">
<svg version="1.1" xmlns="http://www.w3.org/2000/svg" xmlns:xlink="http://www.w3.org/1999/xlink" x="0px" y="0px"
	 width="566.93px" height="566.93px" viewBox="0 0 566.93 566.93" enable-background="new 0 0 566.93 566.93" xml:space="preserve">
<g id="fond" display="none">
	
		<rect x="-8001.873" y="-8544.855" display="inline" fill-rule="evenodd" clip-rule="evenodd" fill="#58595B" width="16654.492" height="16572.797"/>
</g>
<g id="en_cours">
</g>
<g id="fini">
	<g>
		
			<path fill="#564432" stroke="#000000" stroke-width="8" stroke-linecap="round" stroke-linejoin="round" stroke-miterlimit="10" d="
			M351.021,285.679c5.466,4.728,11.518,10.359,17.728,16.571c19.83,19.829,33.77,38.042,31.133,40.679s-20.85-11.302-40.68-31.132
			c-10.551-10.552-19.433-20.644-25.039-28.177c-16.751-1.762-34.523-2.824-53.267-3.068c6.876,5.521,15.217,13.049,23.866,21.698
			c19.83,19.829,33.768,38.042,31.131,40.679c-2.635,2.637-20.848-11.302-40.678-31.132c-12.086-12.085-21.973-23.563-27.265-31.286
			c-17.338,0.059-33.892,0.452-49.674,1.149c6.601,5.402,14.414,12.506,22.497,20.59c19.83,19.829,33.769,38.042,31.132,40.679
			s-20.85-11.302-40.679-31.132c-11.174-11.175-20.476-21.834-25.997-29.483c-16.11,0.907-31.392,2.134-45.84,3.652
			c-4.804,0.506-9.502,1.048-14.125,1.615c-8.849,1.087-17.368,2.284-25.566,3.583c8.328,0.001,20.208,1.682,33.061,5.284
			c9.712,2.725,19.976,6.548,29.689,11.584c24.269,12.584,45.072,32.729,45.072,62.157c0,56.797-13.208,73.16-73.967,73.16h188.971
			c98.109,0,177.644-16.204,177.644-61.176C520.169,345.352,459.075,300.667,351.021,285.679z"/>
		
			<path fill="#564432" stroke="#000000" stroke-width="8" stroke-linecap="round" stroke-linejoin="round" stroke-miterlimit="10" d="
			M271.906,342.929c2.637-2.637-11.303-20.85-31.132-40.679c-8.083-8.084-15.896-15.188-22.497-20.59
			c-4.408,0.195-8.759,0.412-13.047,0.653c5.521,7.649,14.823,18.309,25.997,29.483C251.057,331.627,269.27,345.565,271.906,342.929
			z"/>
		
			<path fill="#564432" stroke="#000000" stroke-width="8" stroke-linecap="round" stroke-linejoin="round" stroke-miterlimit="10" d="
			M335.894,342.929c2.637-2.637-11.301-20.85-31.131-40.679c-8.649-8.649-16.99-16.178-23.866-21.698
			c-2.765-0.036-5.544-0.06-8.349-0.06c-1.546,0-3.063,0.014-4.597,0.019c5.292,7.724,15.179,19.201,27.265,31.286
			C315.046,331.627,333.259,345.565,335.894,342.929z"/>
		
			<path fill="#564432" stroke="#000000" stroke-width="8" stroke-linecap="round" stroke-linejoin="round" stroke-miterlimit="10" d="
			M399.882,342.929c2.637-2.637-11.303-20.85-31.133-40.679c-6.21-6.212-12.262-11.844-17.728-16.571
			c-5.5-0.763-11.115-1.455-16.858-2.059c5.606,7.533,14.488,17.625,25.039,28.177C379.032,331.627,397.245,345.565,399.882,342.929
			z"/>
		
			<path fill="#CCAC6C" stroke="#000000" stroke-width="8" stroke-linecap="round" stroke-linejoin="round" stroke-miterlimit="10" d="
			M182.449,308.032c-9.714-5.036-19.978-8.859-29.689-11.584c-12.853-3.603-24.733-5.283-33.061-5.284c-0.003,0-0.006,0-0.01,0
			c-18.248,0-68.866,17.827-72.242,52.085C40.099,417.817,92.796,443.35,153.554,443.35s73.967-16.363,73.967-73.16
			C227.521,340.762,206.718,320.616,182.449,308.032z"/>
		
			<circle fill="#CCAC6C" stroke="#000000" stroke-width="8" stroke-linecap="round" stroke-linejoin="round" stroke-miterlimit="10" cx="104.22" cy="338.095" r="10.81"/>
		
			<circle fill="#CCAC6C" stroke="#000000" stroke-width="8" stroke-linecap="round" stroke-linejoin="round" stroke-miterlimit="10" cx="153.721" cy="368.262" r="6.331"/>
		
			<circle fill="#CCAC6C" stroke="#000000" stroke-width="8" stroke-linecap="round" stroke-linejoin="round" stroke-miterlimit="10" cx="115.03" cy="392.424" r="2.422"/>
		
			<circle fill="#CCAC6C" stroke="#000000" stroke-width="8" stroke-linecap="round" stroke-linejoin="round" stroke-miterlimit="10" cx="174.247" cy="409.375" r="6.604"/>
		
			<circle fill="#CCAC6C" stroke="#000000" stroke-width="8" stroke-linecap="round" stroke-linejoin="round" stroke-miterlimit="10" cx="69.681" cy="358.082" r="1.981"/>
		<polygon fill="#AB2E23" stroke="#000000" stroke-width="8" stroke-linejoin="round" stroke-miterlimit="10" points="
			137.719,318.285 179.404,246.1 159.723,246.1 159.723,190.801 115.723,190.801 115.723,246.1 96.037,246.1 		"/>
	</g>
</g>
</svg>
