<?xml version="1.0" encoding="utf-8"?>
<!-- Generator: Adobe Illustrator 16.0.0, SVG Export Plug-In . SVG Version: 6.00 Build 0)  -->
<!DOCTYPE svg PUBLIC "-//W3C//DTD SVG 1.1//EN" "http://www.w3.org/Graphics/SVG/1.1/DTD/svg11.dtd">
<svg version="1.1" xmlns="http://www.w3.org/2000/svg" xmlns:xlink="http://www.w3.org/1999/xlink" x="0px" y="0px"
	 width="566.93px" height="566.93px" viewBox="0 0 566.93 566.93" enable-background="new 0 0 566.93 566.93" xml:space="preserve">
<g id="fond" display="none">
	
		<rect x="-8001.873" y="-9178" display="inline" fill-rule="evenodd" clip-rule="evenodd" fill="#58595B" width="16654.492" height="16572.797"/>
</g>
<g id="en_cours">
</g>
<g id="fini">
	<g>
		<g>
			
				<rect x="345.039" y="252.813" fill="#564432" stroke="#000000" stroke-width="8" stroke-linecap="round" stroke-linejoin="round" stroke-miterlimit="10" width="15.838" height="277.819"/>
			
				<line fill="none" stroke="#000000" stroke-width="8" stroke-linecap="round" stroke-linejoin="round" stroke-miterlimit="10" x1="360.877" y1="281.387" x2="345.039" y2="281.387"/>
			<g>
				
					<polyline fill="none" stroke="#000000" stroke-width="8" stroke-linecap="round" stroke-linejoin="round" stroke-miterlimit="10" points="
					384.132,308.125 360.877,281.387 394.736,270.937 				"/>
				<g>
					
						<polygon fill="#AB2E23" stroke="#000000" stroke-width="8" stroke-linecap="round" stroke-linejoin="round" stroke-miterlimit="10" points="
						412.545,269.256 395.23,262.598 379.699,317.063 397.923,320.535 					"/>
					
						<polygon fill="#FFFFFF" stroke="#000000" stroke-width="8" stroke-linecap="round" stroke-linejoin="round" stroke-miterlimit="10" points="
						416.146,324.009 429.859,275.918 412.545,269.256 397.923,320.535 					"/>
					
						<polygon fill="#AB2E23" stroke="#000000" stroke-width="8" stroke-linecap="round" stroke-linejoin="round" stroke-miterlimit="10" points="
						434.37,327.483 447.174,282.577 429.859,275.918 416.146,324.009 					"/>
					
						<polygon fill="#FFFFFF" stroke="#000000" stroke-width="8" stroke-linecap="round" stroke-linejoin="round" stroke-miterlimit="10" points="
						452.593,330.956 464.488,289.238 447.174,282.577 434.37,327.483 					"/>
					
						<polygon fill="#AB2E23" stroke="#000000" stroke-width="8" stroke-linecap="round" stroke-linejoin="round" stroke-miterlimit="10" points="
						470.816,334.431 481.805,295.897 464.488,289.238 452.593,330.956 					"/>
					
						<polygon fill="#FFFFFF" stroke="#000000" stroke-width="8" stroke-linecap="round" stroke-linejoin="round" stroke-miterlimit="10" points="
						489.04,337.903 499.118,302.56 481.805,295.897 470.816,334.431 					"/>
					
						<polygon fill="#AB2E23" stroke="#000000" stroke-width="8" stroke-linecap="round" stroke-linejoin="round" stroke-miterlimit="10" points="
						507.264,341.378 516.433,309.22 499.118,302.56 489.04,337.903 					"/>
					
						<polygon fill="#FFFFFF" stroke="#000000" stroke-width="8" stroke-linecap="round" stroke-linejoin="round" stroke-miterlimit="10" points="
						507.264,341.378 525.486,344.851 533.747,315.879 516.433,309.22 					"/>
				</g>
			</g>
		</g>
		<g>
			<g>
				<path fill="#809EAD" d="M38.374,174.985c-5.068,0-9.191-4.123-9.191-9.19s4.123-9.189,9.191-9.189h222.312
					c16.292,0,29.546-13.255,29.546-29.547s-13.254-29.546-29.546-29.546c-5.067,0-9.19-4.122-9.19-9.189
					c0-5.068,4.123-9.191,9.19-9.191c26.427,0,47.926,21.5,47.926,47.927s-21.499,47.927-47.926,47.927H38.374z"/>
				<path d="M260.686,83.132c24.221,0,43.926,19.705,43.926,43.927s-19.705,43.927-43.926,43.927H38.374
					c-2.868,0-5.191-2.323-5.191-5.19c0-2.865,2.323-5.189,5.191-5.189h222.312c18.497,0,33.546-15.05,33.546-33.547
					c0-18.499-15.049-33.546-33.546-33.546c-2.866,0-5.19-2.324-5.19-5.189C255.495,85.457,257.819,83.132,260.686,83.132
					 M260.686,75.132c-7.273,0-13.19,5.918-13.19,13.191c0,7.272,5.917,13.189,13.19,13.189c14.086,0,25.546,11.46,25.546,25.546
					c0,14.087-11.46,25.547-25.546,25.547H38.374c-7.274,0-13.191,5.917-13.191,13.189c0,7.273,5.917,13.19,13.191,13.19h222.312
					c28.632,0,51.926-23.294,51.926-51.927S289.317,75.132,260.686,75.132L260.686,75.132z"/>
			</g>
			<g>
				<path fill="#809EAD" d="M173.812,352.327c-5.068,0-9.19-4.122-9.19-9.189s4.123-9.19,9.19-9.19
					c13.43,0,24.355-10.926,24.355-24.356s-10.926-24.356-24.355-24.356H38.374c-5.068,0-9.191-4.123-9.191-9.19
					s4.123-9.19,9.191-9.19h135.438c23.564,0,42.735,19.172,42.735,42.737C216.547,333.155,197.376,352.327,173.812,352.327z"/>
				<path d="M173.812,270.854c21.359,0,38.735,17.379,38.735,38.737s-17.376,38.736-38.735,38.736c-2.866,0-5.19-2.324-5.19-5.189
					c0-2.868,2.324-5.19,5.19-5.19c15.636,0,28.355-12.72,28.355-28.356c0-15.636-12.72-28.356-28.355-28.356H38.374
					c-2.868,0-5.191-2.324-5.191-5.19s2.323-5.19,5.191-5.19H173.812 M173.812,262.854H38.374c-7.274,0-13.191,5.917-13.191,13.19
					s5.917,13.19,13.191,13.19h135.438c11.224,0,20.355,9.132,20.355,20.356s-9.131,20.356-20.355,20.356
					c-7.273,0-13.19,5.917-13.19,13.19c0,7.272,5.917,13.189,13.19,13.189c25.77,0,46.735-20.966,46.735-46.736
					S199.582,262.854,173.812,262.854L173.812,262.854z"/>
			</g>
			<g>
				<path fill="#809EAD" d="M38.374,211.764c-5.068,0-9.191-4.123-9.191-9.19s4.123-9.19,9.191-9.19h295.775
					c27.461,0,49.802-22.339,49.802-49.798c0-27.462-22.341-49.804-49.802-49.804c-5.067,0-9.189-4.122-9.189-9.188
					c0-5.067,4.122-9.189,9.189-9.189c37.595,0,68.181,30.586,68.181,68.182c0,37.594-30.586,68.179-68.181,68.179H38.374z"/>
				<path d="M334.149,79.403c35.391,0,64.181,28.791,64.181,64.182c0,35.388-28.79,64.179-64.181,64.179H38.374
					c-2.868,0-5.191-2.322-5.191-5.19c0-2.866,2.323-5.19,5.191-5.19h295.775c29.667,0,53.802-24.135,53.802-53.798
					c0-29.667-24.135-53.804-53.802-53.804c-2.865,0-5.189-2.322-5.189-5.188S331.284,79.403,334.149,79.403 M334.149,71.403
					c-7.272,0-13.189,5.917-13.189,13.189s5.917,13.188,13.189,13.188c25.255,0,45.802,20.548,45.802,45.804
					c0,25.253-20.547,45.798-45.802,45.798H38.374c-7.274,0-13.191,5.917-13.191,13.19s5.917,13.19,13.191,13.19h295.775
					c39.801,0,72.181-32.379,72.181-72.179C406.33,103.784,373.95,71.403,334.149,71.403L334.149,71.403z"/>
			</g>
			<g>
				<path fill="#809EAD" d="M252.641,366.373c-5.067,0-9.189-4.122-9.189-9.189c0-5.068,4.123-9.191,9.189-9.191
					c27.46,0,49.801-22.34,49.801-49.799c0-27.46-22.34-49.8-49.801-49.8H38.374c-5.068,0-9.191-4.123-9.191-9.19
					s4.123-9.19,9.191-9.19h214.267c37.596,0,68.182,30.586,68.182,68.181S290.236,366.373,252.641,366.373z"/>
				<path d="M252.641,234.013c35.391,0,64.182,28.792,64.182,64.181c0,35.39-28.791,64.18-64.182,64.18
					c-2.866,0-5.189-2.324-5.189-5.189c0-2.866,2.323-5.191,5.189-5.191c29.666,0,53.801-24.134,53.801-53.799
					s-24.135-53.8-53.801-53.8H38.374c-2.868,0-5.191-2.325-5.191-5.19c0-2.867,2.323-5.19,5.191-5.19H252.641 M252.641,226.013
					H38.374c-7.274,0-13.191,5.917-13.191,13.19s5.917,13.19,13.191,13.19h214.267c25.254,0,45.801,20.546,45.801,45.8
					s-20.546,45.799-45.801,45.799c-7.272,0-13.189,5.918-13.189,13.191c0,7.272,5.917,13.189,13.189,13.189
					c39.801,0,72.182-32.38,72.182-72.18C324.822,258.393,292.441,226.013,252.641,226.013L252.641,226.013z"/>
			</g>
		</g>
	</g>
</g>
</svg>
