<?xml version="1.0" encoding="utf-8"?>
<!-- Generator: Adobe Illustrator 16.0.0, SVG Export Plug-In . SVG Version: 6.00 Build 0)  -->
<!DOCTYPE svg PUBLIC "-//W3C//DTD SVG 1.1//EN" "http://www.w3.org/Graphics/SVG/1.1/DTD/svg11.dtd">
<svg version="1.1" xmlns="http://www.w3.org/2000/svg" xmlns:xlink="http://www.w3.org/1999/xlink" x="0px" y="0px"
	 width="566.93px" height="566.93px" viewBox="0 0 566.93 566.93" enable-background="new 0 0 566.93 566.93" xml:space="preserve">
<g id="fond" display="none">
	
		<rect x="-11509.055" y="-9494.906" display="inline" fill-rule="evenodd" clip-rule="evenodd" fill="#58595B" width="15942.492" height="15814.695"/>
</g>
<g id="en_cours">
</g>
<g id="fini">
	<g>
		<g>
			
				<path fill-rule="evenodd" clip-rule="evenodd" fill="#564432" stroke="#000000" stroke-width="8" stroke-linecap="round" stroke-linejoin="round" stroke-miterlimit="10" d="
				M220.201,67.745c13.321,11.023,14.219,27.516,9.64,42.342c-0.751,2.438-1.734,4.819-2.809,7.137
				c-4.114,8.87-14.51,11.306-21.298,0.382c-5.186-8.344-6.724-17.408-5.052-27.074c0.388-2.229,0.275-4.547,0.685-6.766
				c1.23-6.661,4.569-11.958,10.491-15.47C214.64,68.112,217.42,67.93,220.201,67.745z"/>
			
				<path fill-rule="evenodd" clip-rule="evenodd" fill="#564432" stroke="#000000" stroke-width="8" stroke-linecap="round" stroke-linejoin="round" stroke-miterlimit="10" d="
				M127.572,159.497c4.476-6.768,9.542-6.899,13.392,0.201c1.576,2.902,1.998,6.765,1.842,10.138
				c-0.083,1.767-2.549,4.813-3.947,4.818c-2.51,0.009-5.586-1.277-7.386-3.067c-1.848-1.833-2.448-4.919-3.595-7.456
				C127.776,162.587,127.674,161.041,127.572,159.497z"/>
			
				<path fill-rule="evenodd" clip-rule="evenodd" fill="#564432" stroke="#000000" stroke-width="8" stroke-linecap="round" stroke-linejoin="round" stroke-miterlimit="10" d="
				M254.523,190.153c0.819,17.325-2.792,31.008-10.175,44.066c-8.334,14.744-16.34,29.822-20.5,46.365
				c-1.949,7.756-2.084,16.058,2.382,23.456c4.28,7.091,8.49,14.246,13.178,21.069c7.715,11.231,11.665,23.274,9.608,36.995
				c-0.249,1.647,0.098,3.394,0.242,5.09c1.142,13.357-5.431,23.661-14.17,32.399c-6.146,6.147-14.893,5.294-22.531,3.157
				c-13.321-3.724-23.813-11.804-29.528-24.644c-4.813-10.812-8.427-21.923-7.26-34.329c0.729-7.757-1.046-15.721-1.235-23.604
				c-0.257-10.657-1.921-21.011-6.118-30.8c-5.046-11.766-10.084-23.559-15.791-35.005c-10.958-21.979-13.077-44.371-3.525-67.174
				c2.29-5.473,6.371-10.52,10.62-14.771c7.067-7.074,14.713-13.63,22.537-19.873c6.616-5.278,13.549-10.288,20.845-14.556
				c11.662-6.826,19.63-5.284,28.3,3.94c9.067,9.646,15.697,21.114,20.313,33.491C253.708,180.771,253.919,186.778,254.523,190.153z
				"/>
			
				<path fill-rule="evenodd" clip-rule="evenodd" fill="#564432" stroke="#000000" stroke-width="8" stroke-linecap="round" stroke-linejoin="round" stroke-miterlimit="10" d="
				M194.271,111.982c-1.158,3.545-1.784,7.511-3.678,10.734c-2.416,4.11-7.208,4.429-11.064,1.516
				c-7.789-5.883-10.96-21.575-4.299-30.542c3.793-5.102,10.879-4.124,13.705,2.246C191.115,100.852,192.38,106.174,194.271,111.982
				z"/>
			
				<path fill-rule="evenodd" clip-rule="evenodd" fill="#564432" stroke="#000000" stroke-width="8" stroke-linecap="round" stroke-linejoin="round" stroke-miterlimit="10" d="
				M150.948,124.138c0.232-2.706,0.151-5.485,0.764-8.104c1.194-5.104,6.513-6.702,10.53-3.453
				c7.933,6.419,9.425,15.178,8.373,24.488c-0.688,6.085-6.946,8.09-11.696,3.985C153.843,136.666,151.259,130.962,150.948,124.138z
				"/>
			
				<path fill-rule="evenodd" clip-rule="evenodd" fill="#564432" stroke="#000000" stroke-width="8" stroke-linecap="round" stroke-linejoin="round" stroke-miterlimit="10" d="
				M153.018,150.178c0.277,3.163,0.942,6.841-4.26,8.056c-4.629,1.081-6.942-1.656-8.405-4.965
				c-1.989-4.507-3.823-9.258-4.542-14.077c-0.327-2.192,1.632-5.476,3.549-7.063c2.374-1.965,4.828,0.172,6.731,2.116
				C150.288,138.527,152.921,143.509,153.018,150.178z"/>
		</g>
		<g>
			
				<path fill-rule="evenodd" clip-rule="evenodd" fill="#564432" stroke="#000000" stroke-width="8" stroke-linecap="round" stroke-linejoin="round" stroke-miterlimit="10" d="
				M332.812,518.886c-12.231-9.228-19.286-21.011-18.384-36.828c0.322-5.662,0.523-11.342,0.477-17.009
				c-0.072-8.758,4.671-15.562,8.989-22.448c5.984-9.547,13.677-18.083,17.124-29.106c2.018-6.438,1.271-12.854-0.401-19.271
				c-4.983-19.099-15.391-35.786-23.365-53.563c-6.208-13.837-6.859-28.662-3.3-43.708c3.952-16.709,13.18-30.128,25.184-41.699
				c7.543-7.27,15.435-7.275,23.914-1.799c14.894,9.618,29.047,20.215,41.57,33.095c11.182,11.499,18.18,24.513,18.482,40.266
				c0.251,12.86-0.347,25.864-6.892,37.818c-6.378,11.637-12.585,23.45-17.665,35.688c-3.621,8.719-5.935,18.142-7.585,27.471
				c-1.662,9.408-1.889,19.08-2.547,28.651c-0.337,4.884,0.393,9.908-0.455,14.676c-2.738,15.371-7.613,30.075-20.934,39.584
				c-5.962,4.256-13.502,6.296-20.327,9.345C342.067,519.66,337.44,519.272,332.812,518.886z"/>
			
				<path fill-rule="evenodd" clip-rule="evenodd" fill="#564432" stroke="#000000" stroke-width="8" stroke-linecap="round" stroke-linejoin="round" stroke-miterlimit="10" d="
				M369.072,216.788c-1.983,5.354-3.437,10.991-6.104,15.979c-2.496,4.667-6.253,8.783-12.572,7.924
				c-6.144-0.835-8.88-5.443-10.835-10.546c-3.394-8.853-4.176-18.036-2.663-27.39c1.106-6.839,4.742-12.48,9.556-17.112
				c4.136-3.981,13.024-1.19,16.903,4.478c3.99,5.837,4.242,12.48,4.678,19.129c0.159,2.422,0.337,4.842,0.509,7.264
				C368.719,216.604,368.896,216.695,369.072,216.788z"/>
			
				<path fill-rule="evenodd" clip-rule="evenodd" fill="#564432" stroke="#000000" stroke-width="8" stroke-linecap="round" stroke-linejoin="round" stroke-miterlimit="10" d="
				M374.108,227.46c1.825-5.082,3.156-10.426,5.678-15.133c1.331-2.488,4.722-5.296,7.214-5.324c2.347-0.025,5.342,2.99,6.985,5.397
				c5.343,7.832,2.185,19.894-3.005,26.248c-2.702,3.306-6.55,5.29-10.616,3.454c-4.219-1.9-5.432-6.271-5.76-10.679
				c-0.092-1.217,0.176-2.46,0.277-3.689C374.624,227.642,374.366,227.552,374.108,227.46z"/>
			
				<path fill-rule="evenodd" clip-rule="evenodd" fill="#564432" stroke="#000000" stroke-width="8" stroke-linecap="round" stroke-linejoin="round" stroke-miterlimit="10" d="
				M416.612,241.07c0,6.979-2.738,12.772-8.053,17.15c-4.656,3.837-10.698,1.798-11.428-4.065c-1.121-9.02,0.48-17.386,7.814-23.867
				c2.319-2.052,4.599-2.982,7.473-1.924c3.284,1.209,4.427,3.998,4.606,7.182C417.13,237.376,416.765,239.231,416.612,241.07z"/>
			
				<path fill-rule="evenodd" clip-rule="evenodd" fill="#564432" stroke="#000000" stroke-width="8" stroke-linecap="round" stroke-linejoin="round" stroke-miterlimit="10" d="
				M414.458,267.149c0.292-6.999,3.1-12.148,7.867-16.043c1.521-1.242,4.542-2.281,5.979-1.577c1.786,0.87,3.685,3.637,3.708,5.607
				c0.085,7.405-2.618,14.099-8.094,19.119c-1.376,1.262-4.923,1.292-6.845,0.451c-1.448-0.632-2.02-3.509-2.73-5.478
				C414.058,268.436,414.438,267.399,414.458,267.149z"/>
			
				<path fill-rule="evenodd" clip-rule="evenodd" fill="#564432" stroke="#000000" stroke-width="8" stroke-linecap="round" stroke-linejoin="round" stroke-miterlimit="10" d="
				M423.124,284.014c1.913-3.612,3.117-6.907,5.174-9.538c3.393-4.348,8.729-3.101,10.688,2.188
				c1.513,4.078-1.815,13.051-5.817,14.619c-1.881,0.737-5.062,1.241-6.152,0.231C425.145,289.781,424.453,286.776,423.124,284.014z
				"/>
		</g>
	</g>
</g>
</svg>
