<?xml version="1.0" encoding="utf-8"?>
<!-- Generator: Adobe Illustrator 16.0.0, SVG Export Plug-In . SVG Version: 6.00 Build 0)  -->
<!DOCTYPE svg PUBLIC "-//W3C//DTD SVG 1.1//EN" "http://www.w3.org/Graphics/SVG/1.1/DTD/svg11.dtd">
<svg version="1.1" xmlns="http://www.w3.org/2000/svg" xmlns:xlink="http://www.w3.org/1999/xlink" x="0px" y="0px"
	 width="566.93px" height="566.93px" viewBox="0 0 566.93 566.93" enable-background="new 0 0 566.93 566.93" xml:space="preserve">
<g id="fond" display="none">
	
		<rect x="-6056.873" y="-9811.008" display="inline" fill-rule="evenodd" clip-rule="evenodd" fill="#58595B" width="16654.492" height="16572.797"/>
</g>
<g id="en_cours">
</g>
<g id="fini">
	<g>
		<path fill-rule="evenodd" clip-rule="evenodd" fill="#FFFFFF" d="M196.747,327.337c13.487,0,26.492,0,39.967,0
			c0.48,4.667,0.977,9.242,1.417,13.825c0.489,5.093,0.798,10.208,1.496,15.271c0.15,1.089,1.458,2.595,2.518,2.892
			c13.084,3.682,26.217,7.194,39.356,10.674c1.041,0.275,2.29,0.2,3.345-0.08c12.899-3.425,25.759-6.99,38.678-10.337
			c2.751-0.713,3.601-2.003,3.813-4.804c0.92-12.156,2.151-24.289,3.244-36.436c0.271-2.994,0.449-5.996,0.729-9.813
			c-45.48,0-90.877,0-136.54,0c-3.613-40.474-7.155-80.157-10.731-120.215c66.281,0,132.226,0,198.541,0
			c-0.144,2.851-0.192,5.696-0.446,8.524c-0.86,9.599-1.832,19.188-2.663,28.788c-0.161,1.862-0.785,2.815-2.742,2.692
			c-1.043-0.068-2.095-0.005-3.143-0.005c-46.811-0.035-93.623-0.07-140.433-0.104c-1.481-0.001-2.962,0-5.015,0
			c0.339,4.232,0.628,8.012,0.947,11.787c0.713,8.462,1.369,16.926,2.267,25.367c0.097,0.911,1.497,1.938,2.523,2.42
			c0.861,0.404,2.058,0.098,3.106,0.097c44.598-0.049,89.196-0.102,133.794-0.148c4.63-0.005,4.826,0.023,4.445,4.718
			c-0.986,12.152-2.168,24.289-3.262,36.436c-0.77,8.559-1.515,17.121-2.287,25.681c-1.114,12.376-2.243,24.75-3.363,37.126
			c-0.482,5.319-0.832,10.656-1.545,15.944c-0.149,1.102-1.468,2.632-2.539,2.935c-25.575,7.235-51.183,14.355-76.815,21.384
			c-1.462,0.4-3.259,0.11-4.777-0.306c-25.094-6.888-50.162-13.871-75.257-20.757c-2.279-0.628-3.535-1.551-3.752-4.132
			c-1.551-18.426-3.241-36.841-4.861-55.26C196.652,330.253,196.747,328.987,196.747,327.337z"/>
		
			<path fill-rule="evenodd" clip-rule="evenodd" fill="#EF840F" stroke="#000000" stroke-width="8" stroke-linecap="round" stroke-linejoin="round" stroke-miterlimit="10" d="
			M126.222,122.548c104.828,0,209.657,0,314.485,0c-0.602,7.996-1.13,15.996-1.822,23.985c-1.258,14.476-2.635,28.94-3.922,43.413
			c-1.255,14.125-2.444,28.258-3.694,42.385c-1.323,14.935-2.688,29.868-4.026,44.803c-1.007,11.231-1.992,22.466-3.007,33.695
			c-1.307,14.472-2.656,28.94-3.944,43.413c-1.257,14.125-2.434,28.259-3.695,42.385c-1.302,14.591-2.772,29.166-3.907,43.769
			c-0.225,2.902-0.986,4.21-3.896,5.009c-35.151,9.641-70.268,19.404-105.379,29.191c-6.452,1.8-12.836,3.839-19.252,5.767
			c-0.699,0-1.397,0-2.097,0c-1.241-0.524-2.444-1.193-3.733-1.553c-40.245-11.201-80.492-22.395-120.764-33.5
			c-2.48-0.685-3.135-1.863-3.313-4.343c-0.829-11.475-1.917-22.93-2.938-34.39c-1.311-14.698-2.656-29.392-3.969-44.092
			c-1.262-14.119-2.487-28.242-3.754-42.363c-1.288-14.35-2.63-28.695-3.909-43.048c-1.278-14.352-2.491-28.71-3.762-43.065
			c-1.301-14.696-2.628-29.393-3.96-44.086c-1.08-11.921-2.237-23.833-3.258-35.758
			C127.804,143.632,127.044,133.087,126.222,122.548z M196.747,327.337c0,1.65-0.095,2.916,0.015,4.164
			c1.62,18.419,3.311,36.834,4.861,55.26c0.217,2.581,1.473,3.504,3.752,4.132c25.095,6.886,50.163,13.869,75.257,20.757
			c1.518,0.416,3.314,0.706,4.777,0.306c25.632-7.028,51.24-14.148,76.815-21.384c1.071-0.303,2.39-1.833,2.539-2.935
			c0.714-5.288,1.063-10.625,1.545-15.944c1.121-12.376,2.25-24.75,3.363-37.126c0.772-8.56,1.517-17.122,2.287-25.681
			c1.094-12.146,2.276-24.283,3.262-36.436c0.381-4.694,0.185-4.723-4.445-4.718c-44.598,0.047-89.196,0.1-133.794,0.148
			c-1.048,0.001-2.245,0.308-3.106-0.097c-1.026-0.482-2.427-1.509-2.523-2.42c-0.897-8.441-1.554-16.905-2.267-25.367
			c-0.319-3.775-0.608-7.555-0.947-11.787c2.052,0,3.533-0.001,5.015,0c46.811,0.034,93.623,0.069,140.433,0.104
			c1.048,0,2.1-0.063,3.143,0.005c1.957,0.123,2.581-0.83,2.742-2.692c0.831-9.601,1.803-19.189,2.663-28.788
			c0.253-2.828,0.302-5.674,0.446-8.524c-66.315,0-132.259,0-198.541,0c3.576,40.058,7.118,79.741,10.731,120.215
			c45.662,0,91.06,0,136.54,0c-0.28,3.817-0.458,6.819-0.729,9.813c-1.093,12.146-2.324,24.279-3.244,36.436
			c-0.211,2.801-1.061,4.091-3.813,4.804c-12.919,3.347-25.779,6.912-38.678,10.337c-1.055,0.28-2.305,0.355-3.345,0.08
			c-13.139-3.479-26.272-6.992-39.356-10.674c-1.06-0.297-2.368-1.803-2.518-2.892c-0.698-5.063-1.007-10.179-1.496-15.271
			c-0.44-4.583-0.937-9.158-1.417-13.825C223.238,327.337,210.234,327.337,196.747,327.337z"/>
	</g>
</g>
</svg>
