<?xml version="1.0" encoding="utf-8"?>
<!-- Generator: Adobe Illustrator 16.0.0, SVG Export Plug-In . SVG Version: 6.00 Build 0)  -->
<!DOCTYPE svg PUBLIC "-//W3C//DTD SVG 1.1//EN" "http://www.w3.org/Graphics/SVG/1.1/DTD/svg11.dtd">
<svg version="1.1" xmlns="http://www.w3.org/2000/svg" xmlns:xlink="http://www.w3.org/1999/xlink" x="0px" y="0px"
	 width="566.93px" height="566.93px" viewBox="0 0 566.93 566.93" enable-background="new 0 0 566.93 566.93" xml:space="preserve">
<g id="fond" display="none">
	
		<rect x="-9926.873" y="-11116" display="inline" fill-rule="evenodd" clip-rule="evenodd" fill="#58595B" width="16654.492" height="16572.797"/>
</g>
<g id="en_cours">
</g>
<g id="fini">
	<path fill="none" d="M283.465,28C142.376,28,28,142.376,28,283.465S142.376,538.93,283.465,538.93S538.93,424.554,538.93,283.465
		S424.554,28,283.465,28z M283.465,438.731c-85.752,0-155.267-69.515-155.267-155.267s69.515-155.267,155.267-155.267
		s155.267,69.515,155.267,155.267S369.217,438.731,283.465,438.731z"/>
	<g>
		
			<path fill="#141414" stroke="#000000" stroke-width="8" stroke-linecap="round" stroke-linejoin="round" stroke-miterlimit="10" d="
			M283.465,60.465c-123.159,0-223,99.841-223,223s99.841,223,223,223s223-99.841,223-223S406.624,60.465,283.465,60.465z
			 M283.465,419c-74.854,0-135.535-60.681-135.535-135.535S208.61,147.93,283.465,147.93S419,208.61,419,283.465
			S358.319,419,283.465,419z"/>
		
			<path fill="#4F5666" stroke="#000000" stroke-width="8" stroke-linecap="round" stroke-linejoin="round" stroke-miterlimit="10" d="
			M283.465,145.465c-76.215,0-138,61.785-138,138s61.785,138,138,138s138-61.785,138-138S359.68,145.465,283.465,145.465z
			 M371.817,301.613h-44.539l31.494,31.494c7.088,7.088,7.088,18.578,0,25.665c-7.088,7.088-18.578,7.088-25.666,0l-31.493-31.493
			v44.538c0,10.023-8.125,18.148-18.148,18.148s-18.148-8.125-18.148-18.148v-44.538l-31.493,31.493
			c-7.086,7.089-18.578,7.088-25.666,0c-7.088-7.087-7.088-18.578,0.002-25.665l31.493-31.494h-44.54
			c-10.023,0.002-18.148-8.125-18.148-18.148s8.125-18.148,18.149-18.147h44.538l-31.494-31.494c-7.088-7.087-7.088-18.578,0-25.666
			c7.088-7.087,18.578-7.087,25.666,0.001l31.493,31.493v-44.539c0-10.023,8.125-18.148,18.148-18.148s18.148,8.125,18.148,18.148
			v44.539l31.493-31.494c7.09-7.087,18.578-7.087,25.666,0c7.088,7.089,7.088,18.579,0,25.666l-31.493,31.493h44.538
			c10.024,0.001,18.148,8.125,18.148,18.148C389.966,293.489,381.841,301.613,371.817,301.613z"/>
		
			<circle fill="none" stroke="#000000" stroke-width="8" stroke-linecap="round" stroke-linejoin="round" stroke-miterlimit="10" cx="283.465" cy="283.465" r="113"/>
		
			<circle fill="#4F5666" stroke="#000000" stroke-width="8" stroke-linecap="round" stroke-linejoin="round" stroke-miterlimit="10" cx="283.465" cy="283.465" r="73.4"/>
		
			<circle fill="#4F5666" stroke="#000000" stroke-width="8" stroke-linecap="round" stroke-linejoin="round" stroke-miterlimit="10" cx="283.465" cy="283.465" r="42.628"/>
		<circle fill="#FFFFFF" cx="297.5" cy="268.5" r="11"/>
		<g>
			<defs>
				<path id="SVGID_31_" d="M283.465,60.465c-123.159,0-223,99.841-223,223s99.841,223,223,223s223-99.841,223-223
					S406.624,60.465,283.465,60.465z M283.465,479.482c-108.258,0-196.018-87.76-196.018-196.018s87.76-196.018,196.018-196.018
					s196.018,87.76,196.018,196.018S391.723,479.482,283.465,479.482z"/>
			</defs>
			<clipPath id="SVGID_2_">
				<use xlink:href="#SVGID_31_"  overflow="visible"/>
			</clipPath>
			<g clip-path="url(#SVGID_2_)">
				
					<line fill="#141414" stroke="#000000" stroke-width="8" stroke-linecap="round" stroke-linejoin="round" stroke-miterlimit="10" x1="283.465" y1="26.465" x2="283.465" y2="540.465"/>
				
					<line fill="#141414" stroke="#000000" stroke-width="8" stroke-linecap="round" stroke-linejoin="round" stroke-miterlimit="10" x1="267.328" y1="26.972" x2="299.602" y2="539.958"/>
				
					<line fill="#141414" stroke="#000000" stroke-width="8" stroke-linecap="round" stroke-linejoin="round" stroke-miterlimit="10" x1="251.255" y1="28.49" x2="315.676" y2="538.438"/>
				
					<line fill="#141414" stroke="#000000" stroke-width="8" stroke-linecap="round" stroke-linejoin="round" stroke-miterlimit="10" x1="235.309" y1="31.016" x2="331.622" y2="535.913"/>
				
					<line fill="#141414" stroke="#000000" stroke-width="8" stroke-linecap="round" stroke-linejoin="round" stroke-miterlimit="10" x1="219.553" y1="34.537" x2="347.379" y2="532.391"/>
				
					<line fill="#141414" stroke="#000000" stroke-width="8" stroke-linecap="round" stroke-linejoin="round" stroke-miterlimit="10" x1="204.05" y1="39.041" x2="362.883" y2="527.886"/>
				
					<line fill="#141414" stroke="#000000" stroke-width="8" stroke-linecap="round" stroke-linejoin="round" stroke-miterlimit="10" x1="188.859" y1="44.51" x2="378.074" y2="522.416"/>
				
					<line fill="#141414" stroke="#000000" stroke-width="8" stroke-linecap="round" stroke-linejoin="round" stroke-miterlimit="10" x1="174.043" y1="50.922" x2="392.892" y2="516.003"/>
				
					<line fill="#141414" stroke="#000000" stroke-width="8" stroke-linecap="round" stroke-linejoin="round" stroke-miterlimit="10" x1="159.657" y1="58.251" x2="407.277" y2="508.673"/>
				
					<line fill="#141414" stroke="#000000" stroke-width="8" stroke-linecap="round" stroke-linejoin="round" stroke-miterlimit="10" x1="145.761" y1="66.469" x2="421.174" y2="500.454"/>
				
					<line fill="#141414" stroke="#000000" stroke-width="8" stroke-linecap="round" stroke-linejoin="round" stroke-miterlimit="10" x1="132.408" y1="75.543" x2="434.527" y2="491.378"/>
				
					<line fill="#141414" stroke="#000000" stroke-width="8" stroke-linecap="round" stroke-linejoin="round" stroke-miterlimit="10" x1="119.651" y1="85.438" x2="447.284" y2="481.482"/>
				
					<line fill="#141414" stroke="#000000" stroke-width="8" stroke-linecap="round" stroke-linejoin="round" stroke-miterlimit="10" x1="107.54" y1="96.113" x2="459.395" y2="470.806"/>
				
					<line fill="#141414" stroke="#000000" stroke-width="8" stroke-linecap="round" stroke-linejoin="round" stroke-miterlimit="10" x1="96.124" y1="107.528" x2="470.812" y2="459.389"/>
				
					<line fill="#141414" stroke="#000000" stroke-width="8" stroke-linecap="round" stroke-linejoin="round" stroke-miterlimit="10" x1="85.447" y1="119.638" x2="481.489" y2="447.277"/>
				
					<line fill="#141414" stroke="#000000" stroke-width="8" stroke-linecap="round" stroke-linejoin="round" stroke-miterlimit="10" x1="75.551" y1="132.395" x2="491.385" y2="434.52"/>
				
					<line fill="#141414" stroke="#000000" stroke-width="8" stroke-linecap="round" stroke-linejoin="round" stroke-miterlimit="10" x1="66.476" y1="145.747" x2="500.459" y2="421.166"/>
				
					<line fill="#141414" stroke="#000000" stroke-width="8" stroke-linecap="round" stroke-linejoin="round" stroke-miterlimit="10" x1="58.257" y1="159.644" x2="508.678" y2="407.269"/>
				
					<line fill="#141414" stroke="#000000" stroke-width="8" stroke-linecap="round" stroke-linejoin="round" stroke-miterlimit="10" x1="50.927" y1="174.028" x2="516.007" y2="392.883"/>
				
					<line fill="#141414" stroke="#000000" stroke-width="8" stroke-linecap="round" stroke-linejoin="round" stroke-miterlimit="10" x1="44.515" y1="188.845" x2="522.418" y2="378.065"/>
				
					<line fill="#141414" stroke="#000000" stroke-width="8" stroke-linecap="round" stroke-linejoin="round" stroke-miterlimit="10" x1="39.045" y1="204.035" x2="527.888" y2="362.875"/>
				
					<line fill="#141414" stroke="#000000" stroke-width="8" stroke-linecap="round" stroke-linejoin="round" stroke-miterlimit="10" x1="34.54" y1="219.538" x2="532.392" y2="347.37"/>
				
					<line fill="#141414" stroke="#000000" stroke-width="8" stroke-linecap="round" stroke-linejoin="round" stroke-miterlimit="10" x1="31.018" y1="235.294" x2="535.913" y2="331.613"/>
				
					<line fill="#141414" stroke="#000000" stroke-width="8" stroke-linecap="round" stroke-linejoin="round" stroke-miterlimit="10" x1="28.491" y1="251.239" x2="538.438" y2="315.667"/>
				
					<line fill="#141414" stroke="#000000" stroke-width="8" stroke-linecap="round" stroke-linejoin="round" stroke-miterlimit="10" x1="26.972" y1="267.313" x2="539.958" y2="299.593"/>
				
					<line fill="#141414" stroke="#000000" stroke-width="8" stroke-linecap="round" stroke-linejoin="round" stroke-miterlimit="10" x1="26.464" y1="283.45" x2="540.465" y2="283.455"/>
				
					<line fill="#141414" stroke="#000000" stroke-width="8" stroke-linecap="round" stroke-linejoin="round" stroke-miterlimit="10" x1="26.971" y1="299.587" x2="539.957" y2="267.317"/>
				
					<line fill="#141414" stroke="#000000" stroke-width="8" stroke-linecap="round" stroke-linejoin="round" stroke-miterlimit="10" x1="28.49" y1="315.66" x2="538.438" y2="251.244"/>
				
					<line fill="#141414" stroke="#000000" stroke-width="8" stroke-linecap="round" stroke-linejoin="round" stroke-miterlimit="10" x1="31.016" y1="331.606" x2="535.911" y2="235.298"/>
				
					<line fill="#141414" stroke="#000000" stroke-width="8" stroke-linecap="round" stroke-linejoin="round" stroke-miterlimit="10" x1="34.536" y1="347.362" x2="532.389" y2="219.541"/>
				
					<line fill="#141414" stroke="#000000" stroke-width="8" stroke-linecap="round" stroke-linejoin="round" stroke-miterlimit="10" x1="39.039" y1="362.866" x2="527.884" y2="204.036"/>
				
					<line fill="#141414" stroke="#000000" stroke-width="8" stroke-linecap="round" stroke-linejoin="round" stroke-miterlimit="10" x1="44.507" y1="378.057" x2="522.414" y2="188.845"/>
				
					<line fill="#141414" stroke="#000000" stroke-width="8" stroke-linecap="round" stroke-linejoin="round" stroke-miterlimit="10" x1="50.918" y1="392.874" x2="516.002" y2="174.027"/>
				
					<line fill="#141414" stroke="#000000" stroke-width="8" stroke-linecap="round" stroke-linejoin="round" stroke-miterlimit="10" x1="58.247" y1="407.26" x2="508.671" y2="159.642"/>
				
					<line fill="#141414" stroke="#000000" stroke-width="8" stroke-linecap="round" stroke-linejoin="round" stroke-miterlimit="10" x1="66.465" y1="421.157" x2="500.452" y2="145.745"/>
				
					<line fill="#141414" stroke="#000000" stroke-width="8" stroke-linecap="round" stroke-linejoin="round" stroke-miterlimit="10" x1="75.539" y1="434.511" x2="491.377" y2="132.392"/>
				
					<line fill="#141414" stroke="#000000" stroke-width="8" stroke-linecap="round" stroke-linejoin="round" stroke-miterlimit="10" x1="85.435" y1="447.269" x2="481.48" y2="119.634"/>
				
					<line fill="#141414" stroke="#000000" stroke-width="8" stroke-linecap="round" stroke-linejoin="round" stroke-miterlimit="10" x1="96.111" y1="459.38" x2="470.803" y2="107.523"/>
				
					<line fill="#141414" stroke="#000000" stroke-width="8" stroke-linecap="round" stroke-linejoin="round" stroke-miterlimit="10" x1="107.527" y1="470.796" x2="459.386" y2="96.106"/>
				
					<line fill="#141414" stroke="#000000" stroke-width="8" stroke-linecap="round" stroke-linejoin="round" stroke-miterlimit="10" x1="119.638" y1="481.473" x2="447.274" y2="85.429"/>
				
					<line fill="#141414" stroke="#000000" stroke-width="8" stroke-linecap="round" stroke-linejoin="round" stroke-miterlimit="10" x1="132.394" y1="491.368" x2="434.517" y2="75.533"/>
				
					<line fill="#141414" stroke="#000000" stroke-width="8" stroke-linecap="round" stroke-linejoin="round" stroke-miterlimit="10" x1="145.747" y1="500.443" x2="421.163" y2="66.458"/>
				
					<line fill="#141414" stroke="#000000" stroke-width="8" stroke-linecap="round" stroke-linejoin="round" stroke-miterlimit="10" x1="159.644" y1="508.662" x2="407.266" y2="58.239"/>
				
					<line fill="#141414" stroke="#000000" stroke-width="8" stroke-linecap="round" stroke-linejoin="round" stroke-miterlimit="10" x1="174.029" y1="515.992" x2="392.88" y2="50.91"/>
				
					<line fill="#141414" stroke="#000000" stroke-width="8" stroke-linecap="round" stroke-linejoin="round" stroke-miterlimit="10" x1="188.846" y1="522.404" x2="378.062" y2="44.499"/>
				
					<line fill="#141414" stroke="#000000" stroke-width="8" stroke-linecap="round" stroke-linejoin="round" stroke-miterlimit="10" x1="204.036" y1="527.873" x2="362.87" y2="39.03"/>
				
					<line fill="#141414" stroke="#000000" stroke-width="8" stroke-linecap="round" stroke-linejoin="round" stroke-miterlimit="10" x1="219.54" y1="532.378" x2="347.366" y2="34.526"/>
				
					<line fill="#141414" stroke="#000000" stroke-width="8" stroke-linecap="round" stroke-linejoin="round" stroke-miterlimit="10" x1="235.296" y1="535.9" x2="331.609" y2="31.005"/>
				
					<line fill="#141414" stroke="#000000" stroke-width="8" stroke-linecap="round" stroke-linejoin="round" stroke-miterlimit="10" x1="251.242" y1="538.427" x2="315.662" y2="28.479"/>
				
					<line fill="#141414" stroke="#000000" stroke-width="8" stroke-linecap="round" stroke-linejoin="round" stroke-miterlimit="10" x1="267.314" y1="539.946" x2="299.588" y2="26.96"/>
			</g>
		</g>
	</g>
</g>
</svg>
