<?xml version="1.0" encoding="utf-8"?>
<!-- Generator: Adobe Illustrator 16.0.0, SVG Export Plug-In . SVG Version: 6.00 Build 0)  -->
<!DOCTYPE svg PUBLIC "-//W3C//DTD SVG 1.1//EN" "http://www.w3.org/Graphics/SVG/1.1/DTD/svg11.dtd">
<svg version="1.1" xmlns="http://www.w3.org/2000/svg" xmlns:xlink="http://www.w3.org/1999/xlink" x="0px" y="0px"
	 width="566.93px" height="566.93px" viewBox="0 0 566.93 566.93" enable-background="new 0 0 566.93 566.93" xml:space="preserve">
<g id="fond" display="none">
	
		<rect x="-9926.873" y="-9178" display="inline" fill-rule="evenodd" clip-rule="evenodd" fill="#58595B" width="16654.492" height="16572.797"/>
</g>
<g id="en_cours">
</g>
<g id="fini">
	<g>
		<g>
			
				<path fill="#358C5E" stroke="#000000" stroke-width="8" stroke-linecap="round" stroke-linejoin="round" stroke-miterlimit="10" d="
				M47.813,517.102c34.368,37.736,176.699-16.295,305.844-133.917S549.861,128.887,515.49,91.15
				c-34.369-37.736-104.949,93.277-234.094,210.899S13.44,479.363,47.813,517.102z"/>
			<g>
				<path fill="#564432" d="M46.015,506.979c-1.661,0-3.197-1.042-3.771-2.674c-0.684-1.941,0.219-4.085,2.085-4.954
					c1.041-0.484,105.789-49.98,248.444-179.906c142.775-130.036,204.78-232.431,205.39-233.45c0.744-1.244,2.067-1.947,3.435-1.947
					c0.577,0,1.161,0.125,1.713,0.388c1.862,0.883,2.748,3.037,2.047,4.975c-0.134,0.368-13.649,37.376-42.665,88.111
					c-26.767,46.802-72.62,115.294-139.062,175.806C257.184,413.847,185.55,452.354,137.158,474
					c-52.468,23.47-89.815,32.771-90.187,32.863C46.651,506.941,46.331,506.979,46.015,506.979z"/>
				<path d="M501.596,88.049c0,0-52.783,145.857-180.658,262.321C193.064,466.836,46.017,502.979,46.017,502.979
					s104.587-48.639,249.45-180.576S501.596,88.049,501.596,88.049 M501.601,80.048c-2.735,0-5.382,1.406-6.87,3.894
					c-0.223,0.371-15.669,25.97-48.405,67.166c-30.279,38.105-81.966,97.729-156.245,165.381
					c-74.255,67.629-137.577,112.76-177.622,138.712c-43.392,28.12-69.559,40.405-69.817,40.525
					c-3.731,1.739-5.535,6.026-4.169,9.909c1.148,3.262,4.219,5.345,7.542,5.345c0.632,0,1.273-0.075,1.912-0.232
					c1.53-0.376,38.068-9.479,90.865-33.096c30.955-13.846,61.057-29.831,89.47-47.51c35.545-22.116,68.538-46.965,98.063-73.856
					c29.522-26.889,57.498-57.566,83.148-91.183c20.501-26.868,39.574-55.666,56.691-85.596
					c29.188-51.035,42.406-87.221,42.954-88.735c1.402-3.876-0.369-8.183-4.092-9.95C503.922,80.298,502.753,80.048,501.601,80.048
					L501.601,80.048z"/>
			</g>
			<g>
				<defs>
					<path id="SVGID_5_" d="M157.107,358.145C12.243,490.084,46.017,502.979,46.017,502.979s147.048-36.143,274.921-152.608l0,0
						C448.813,233.906,501.596,88.049,501.596,88.049s47.896-93.022-96.967,38.915L157.107,358.145z"/>
				</defs>
				<clipPath id="SVGID_2_">
					<use xlink:href="#SVGID_5_"  overflow="visible"/>
				</clipPath>
				<g clip-path="url(#SVGID_2_)">
					
						<circle fill="#358C5E" stroke="#000000" stroke-width="8" stroke-linecap="round" stroke-linejoin="round" stroke-miterlimit="10" cx="140.244" cy="466.805" r="31.413"/>
					
						<path fill="#358C5E" stroke="#000000" stroke-width="8" stroke-linecap="round" stroke-linejoin="round" stroke-miterlimit="10" d="
						M186.785,437.383c-11.68-12.826-10.75-32.694,2.074-44.376s32.693-10.753,44.377,2.071
						c11.682,12.828,10.752,32.696-2.074,44.377C218.338,451.137,198.469,450.21,186.785,437.383z"/>
					
						<circle fill="#358C5E" stroke="#000000" stroke-width="8" stroke-linecap="round" stroke-linejoin="round" stroke-miterlimit="10" cx="279.07" cy="364.88" r="31.412"/>
					
						<circle fill="#358C5E" stroke="#000000" stroke-width="8" stroke-linecap="round" stroke-linejoin="round" stroke-miterlimit="10" cx="342.38" cy="307.217" r="31.412"/>
					
						<path fill="#358C5E" stroke="#000000" stroke-width="8" stroke-linecap="round" stroke-linejoin="round" stroke-miterlimit="10" d="
						M373.746,261.132c-11.68-12.825-10.752-32.693,2.072-44.374c12.828-11.684,32.695-10.755,44.379,2.069
						c11.68,12.827,10.752,32.697-2.074,44.378C405.299,274.886,385.43,273.96,373.746,261.132z"/>
					
						<circle fill="#358C5E" stroke="#000000" stroke-width="8" stroke-linecap="round" stroke-linejoin="round" stroke-miterlimit="10" cx="447.069" cy="167.809" r="31.412"/>
				</g>
			</g>
		</g>
		<polygon fill="#AB2E23" stroke="#000000" stroke-width="8" stroke-linejoin="round" stroke-miterlimit="10" points="
			382.893,237.409 310.707,279.095 310.707,259.413 255.408,259.413 255.408,215.413 310.707,215.413 310.707,195.728 		"/>
	</g>
</g>
</svg>
