<?xml version="1.0" encoding="utf-8"?>
<!-- Generator: Adobe Illustrator 16.0.0, SVG Export Plug-In . SVG Version: 6.00 Build 0)  -->
<!DOCTYPE svg PUBLIC "-//W3C//DTD SVG 1.1//EN" "http://www.w3.org/Graphics/SVG/1.1/DTD/svg11.dtd">
<svg version="1.1" xmlns="http://www.w3.org/2000/svg" xmlns:xlink="http://www.w3.org/1999/xlink" x="0px" y="0px"
	 width="566.93px" height="566.93px" viewBox="0 0 566.93 566.93" enable-background="new 0 0 566.93 566.93" xml:space="preserve">
<g id="fond" display="none">
	
		<rect x="-6964.42" y="-9494.906" display="inline" fill-rule="evenodd" clip-rule="evenodd" fill="#58595B" width="15942.492" height="15814.695"/>
</g>
<g id="en_cours">
</g>
<g id="fini">
	<g>
		
			<path fill="#E5E2D3" stroke="#000000" stroke-width="8" stroke-linecap="round" stroke-linejoin="round" stroke-miterlimit="10" d="
			M458.914,224.318c-12.547-5.182-26.979,0.211-32.233,12.051c0,0-10.701,21.87-25.802,52.731
			c-15.101,30.861-39.644,10.226-35.956-6.31l27.954-153.738c2.616-12.668-6.101-24.943-19.467-27.422
			c-13.367-2.479-26.322,5.779-28.937,18.445l-30.37,136.096c-1.389-0.123-2.8-0.224-4.23-0.307l1.831-168.641
			c0.086-12.908-10.884-23.436-24.503-23.519c-13.62-0.084-24.731,10.312-24.817,23.218l-1.725,172.539
			c-1.166,0.215-2.333,0.436-3.498,0.667L233.3,97.552c-1.763-12.797-14.141-21.817-27.646-20.147
			c-13.506,1.671-23.024,13.398-21.262,26.195l21.059,175.391c-1.957,0.875-5.653,3.554-7.521,4.479l-48.688-120.396
			c-5.033-11.188-18.724-16.25-30.581-11.307c-11.856,4.938-17.388,18.014-12.355,29.202l50.023,157.023
			c0,0,0.474,59.803,23.086,96.994c8.471,13.932,27.606,37.04,27.606,37.04l-0.056,0.592l-6.104,64.813l37.168-0.257V406.217
			c0-24.438,19.812-44.25,44.25-44.25h5.163c24.438,0,44.25,19.812,44.25,44.25v130.311l36.738-0.254c0,0-7.259-35.474-7.259-57.251
			c0-9.764,26.313-31.776,50.916-79.564c30.279-58.813,60.034-144.319,60.034-144.319
			C477.377,243.299,471.463,229.504,458.914,224.318z"/>
		
			<path fill="#4F5666" stroke="#000000" stroke-width="8" stroke-linecap="round" stroke-linejoin="round" stroke-miterlimit="10" d="
			M287.443,361.967h-5.163c-24.438,0-44.25,19.812-44.25,44.25v130.958l93.663-0.647V406.217
			C331.693,381.778,311.881,361.967,287.443,361.967z"/>
		
			<path fill="#E5E2D3" stroke="#000000" stroke-width="8" stroke-linecap="round" stroke-linejoin="round" stroke-miterlimit="10" d="
			M352.923,459.521c0,13.974-11.329,25.303-25.302,25.303h-85.518c-13.974,0-25.302-11.329-25.302-25.303v-3.02
			c0-13.974,11.329-25.301,25.302-25.301h85.518c13.974,0,25.302,11.327,25.302,25.301V459.521z"/>
		
			<circle fill="#CCAC6C" stroke="#000000" stroke-width="8" stroke-linecap="round" stroke-linejoin="round" stroke-miterlimit="10" cx="330.162" cy="457.219" r="10.265"/>
		<g>
			
				<circle fill="#CCAC6C" stroke="#000000" stroke-width="8" stroke-linecap="round" stroke-linejoin="round" stroke-miterlimit="10" cx="239.562" cy="457.219" r="10.265"/>
		</g>
	</g>
</g>
</svg>
