<?xml version="1.0" encoding="utf-8"?>
<!-- Generator: Adobe Illustrator 16.0.0, SVG Export Plug-In . SVG Version: 6.00 Build 0)  -->
<!DOCTYPE svg PUBLIC "-//W3C//DTD SVG 1.1//EN" "http://www.w3.org/Graphics/SVG/1.1/DTD/svg11.dtd">
<svg version="1.1" xmlns="http://www.w3.org/2000/svg" xmlns:xlink="http://www.w3.org/1999/xlink" x="0px" y="0px" width="566.9px"
	 height="566.9px" viewBox="0 0 566.9 566.9" enable-background="new 0 0 566.9 566.9" xml:space="preserve">
<g id="fond" display="none">
	
		<rect x="-8249.9" y="-10127.9" display="inline" fill-rule="evenodd" clip-rule="evenodd" fill="#F2F2F2" width="15942.5" height="15814.7"/>
</g>
<g id="en_cours">
</g>
<g id="fini">
	<g>
		<circle fill-rule="evenodd" clip-rule="evenodd" cx="510.3" cy="160.5" r="17.7"/>
		<circle fill-rule="evenodd" clip-rule="evenodd" cx="412.8" cy="253.3" r="17.7"/>
		<circle fill-rule="evenodd" clip-rule="evenodd" fill="#B77474" cx="438.1" cy="304.7" r="13.7"/>
		<circle fill-rule="evenodd" clip-rule="evenodd" fill="#B77474" cx="536.3" cy="208.2" r="13.7"/>
		<g>
			<path fill="none" d="M433.1,283.9c-1.1,1.3-2.8,2-4.1,3.1c-1.4,1.1-2.5,2.5-3.8,3.7c-1,0.9-2.1,1.7-3.3,2.4
				c-0.4,0.2-1.3,0.1-1.6-0.2c-0.3-0.3-0.3-1.2-0.1-1.6c3.3-8,3.7-16.6,5.6-24.9c1.2-5.3,2.6-10.6,6-15.1c0.6-0.7,0.7-1.8,1.2-3.2
				c-4.2,2.8-6.3,6.4-7.2,10.5c-1.4,6.7-2.5,13.5-3.8,20.3c-2.1,11.6-6.2,22.4-12.8,32.2c-0.3,0.4-0.5,0.9-0.7,1.3
				c1.4-0.1,2.7-0.1,4.1-0.2c0.1,0,0.2,0,0.2,0c0,0,0.1,0,0.1,0c0.1,0,0.1,0,0.2,0c0.1,0,0.2,0,0.2,0c0.1,0,0.1,0,0.2,0
				c0.1,0,0.1,0,0.2,0.1c0,0,0.1,0,0.1,0c0.1,0,0.1,0.1,0.2,0.1c0,0,0.1,0,0.1,0.1c0.1,0,0.1,0.1,0.1,0.1c0,0,0.1,0.1,0.1,0.1
				c0,0,0.1,0.1,0.1,0.1c0,0,0.1,0.1,0.1,0.1c0,0.1,0.1,0.1,0.1,0.2c0,0,0,0.1,0.1,0.1c0.1,0.1,0.1,0.2,0.2,0.3
				c1.3,2.3,2.7,4.5,4.1,6.8c0.2,0.3,0.3,0.5,0.5,0.8c0.1,0.1,0.1,0.1,0.2,0.2c0,0,0.1,0.1,0.1,0.1c-0.1-0.9-0.4-1.9-0.9-2.6
				c-2.7-3.8-2.2-8.1-2.2-12.3c0-1.6,0.3-3.2,0.4-4.8c0.1-1.9,0.8-3.2,2.6-4.2c4.5-2.6,9.1-5.1,11.9-9.8c0.4-0.7,1.2-1.2,1.7-1.8
				c4-5.3,8.2-10.6,12-16.1c1.3-1.8,2.5-3.8,3.5-5.8c-0.1-0.4-0.3-0.8-0.5-1.2c-0.3-0.8-0.7-1.6-1-2.3c-1.8,4.7-4,9.3-7,13.4
				C438,277.3,435.7,280.8,433.1,283.9z"/>
			<path fill="none" d="M122.6,236c-0.1-0.2-0.2-0.5-0.3-0.7c0,0-0.2,0.1-0.4,0.1c0.1,0.2,0.2,0.5,0.3,0.7
				C122.3,236.1,122.5,236.1,122.6,236z"/>
			<path fill="none" d="M179.2,234.1c0.1,3,2.1,5.7,1.4,8.8c-0.1,0.3,0.3,0.7,0.5,1c0.5,0,1,0,1.6,0c-0.3-1.4-0.6-2.7-0.8-4.1
				c-1.1-7.1-2.4-14.1-6.5-20.3c-0.5-0.8-1.1-1.5-1.7-2.2c-0.3,0.1-0.5,0.3-0.8,0.4c0.7,1.5,1.3,3.1,2,4.6
				C176.5,226.2,179.1,229.8,179.2,234.1z"/>
			<path fill="none" d="M272.8,316.9c0-1.6,0-3.1,0-5.1C270.7,314.9,270.8,315.7,272.8,316.9z"/>
			<path fill="none" d="M363.3,229.3c-0.5,1.9-0.2,4.9,0.6,6.1c1,1.4,2,2.8,2.9,4.2c0.5,0.7,1.1,1.4,1.6,2.1
				c-1.1-4.5-4.3-8.3-2.9-13.7c-0.1,0-0.2,0.1-0.3,0.1C364.6,228.5,363.9,228.8,363.3,229.3z"/>
			<path fill="none" d="M353.7,276.9c-0.4-4.3-1.5-8.5-2.3-12.7c-0.1-0.3-0.4-0.6-0.6-1c-0.2,0-0.4,0.1-0.7,0.1
				c0.5,4.5,0.9,9,1.5,13.5c0.4,2.7,0.8,5.4,1.6,8c0.8,2.6,2.1,5.1,3.1,7.7c0.3,0.7,0.4,1.7,0,2.2c-0.4,0.5-1.5,0.8-2.1,0.7
				c-6.3-1.6-12.3-0.3-18.4,1.4c-5.7,1.7-11.5,2.7-17.4,3.8c-3.4,0.6-6.9,1-10.4,1.2c-1.4,0.1-2.9-0.4-4.3-0.5
				c-5.8-0.4-11.7-0.4-17.4,1.1c-3.9,1-5.3,3-5.9,7.8c-0.3,2.6-1,5.1-1.6,7.6c-0.3,0-0.6,0-0.9,0c-0.1-2.1-0.2-4.2-0.3-6.3
				c-0.5,8.7-2.4,17-6.2,25.1c-0.1-1.9-0.2-3.8-0.2-5.7c0-2,0.3-3.9,0.5-6.6c-1,1.5-1.7,2.4-2.3,3.4c-0.1-0.1-0.2-0.1-0.4-0.2
				c0.2-0.5,0.3-1.1,0.6-1.6c1.1-2.3,1.1-4.7-0.3-6.6c-2.3-3.1-1.5-5.8-0.1-8.7c1.1-2.3,0.6-5.1-1.7-6.4c-3-1.7-6.1-3.1-9.2-4.6
				c-6.4-3.2-12.9-6.4-19.3-9.6c-5.3-2.7-10.5-5.7-15.9-8.4c-3.9-2-7.9-1.2-11.8,0.4c-1.7,0.7-3.4,1.6-5.1,2.1c-0.9,0.2-2.1,0-3-0.5
				c-2-1.2-2.1-2.1-0.2-3.7c4-3.3,8-6.5,12-9.7c3.5-2.7,6.7-5.8,8.6-9.7c1.3-2.6,1.6-5.6,2.4-8.4c-0.3-0.1-0.6-0.3-0.9-0.4
				c-0.5,1-1.4,1.9-1.5,2.9c-0.8,4.6-3.2,8.3-6.4,11.3c-4.9,4.6-10.3,8.7-15.2,13.2c-1.8,1.7-3.2,3.8-4.6,5.9c-3,4.5-5.6,9.5-9,13.7
				c-6,7.3-12.4,14.2-18.8,21.2c-2.6,2.7-5.5,5.2-8.5,7.5c-2.6,2.1-2.9,4.9-3.2,7.8c-0.5,4.4-0.9,8.8-1.3,13.2
				c-0.4,4.1-0.8,8.1-1,12.2c-0.1,1,0.6,2,0.9,3c0.9,3.1,1.7,6.3,2.8,9.3c0.9,2.4,2.1,4.7,3.1,7c2.2,2.2,4.4,4.3,6.6,6.5
				c1.2,1.2,2.3,2.7,3.5,3.9c1.5,1.5,1.4,2.9-0.1,4.4c-2.7-0.9-5.5-1.8-8.6-2.8c1,2.3,1.9,4,2.6,5.8c0.1,0.4,0.3,0.8,0.3,1.3
				c1,0.5,1.9,1,2.8,1.5c2.3,1.3,2.8,4.1,1.7,6.4c-1.4,2.9-2.3,5.7,0.1,8.7c1.4,1.9,1.4,4.3,0.3,6.6c-0.2,0.5-0.4,1.1-0.6,1.6
				c0.1,0.1,0.2,0.1,0.4,0.2c0.7-1,1.3-1.9,2.3-3.4c-0.2,2.7-0.5,4.6-0.5,6.6c0,1.9,0.1,3.8,0.2,5.7c3.7-8.1,5.6-16.5,6.2-25.1
				c0.1,2.1,0.2,4.2,0.3,6.3c0.3,0,0.6,0,0.9,0c0.5-2.5,1.2-5,1.6-7.6c0.6-4.8,2-6.8,5.9-7.8c0.6-0.2,1.3-0.3,1.9-0.4
				c0.2,0,0.3-0.1,0.5-0.1c0.6-0.1,1.3-0.2,1.9-0.3c0,0,0.1,0,0.1,0c0.6-0.1,1.2-0.2,1.8-0.2c0.2,0,0.3,0,0.5,0
				c0.6-0.1,1.3-0.1,1.9-0.1c0.1,0,0.1,0,0.2,0c0.6,0,1.2,0,1.8-0.1c0.2,0,0.3,0,0.5,0c0.1,0,0.3,0,0.4,0c0.2,0,0.3,0,0.5,0
				c0.7,0,1.3,0,2,0c0.3,0,0.5,0,0.8,0c0.9,0,1.8,0.1,2.6,0.2c0.3,0,0.6,0.1,0.9,0.1c0,0,0.1,0,0.1,0c0.3,0.1,0.6,0.1,0.9,0.2
				c0.3,0.1,0.6,0.1,0.9,0.1c0,0,0.1,0,0.1,0c0.3,0,0.6,0.1,0.9,0.1c0.1,0,0.3,0,0.4,0c3.5-0.3,7-0.6,10.4-1.2
				c5.8-1.1,11.7-2.1,17.4-3.8c0.5-0.1,0.9-0.3,1.4-0.4c0.1,0,0.3-0.1,0.4-0.1c0.4-0.1,0.7-0.2,1.1-0.3c0.1,0,0.2-0.1,0.4-0.1
				c0.5-0.1,0.9-0.2,1.4-0.3c0,0,0.1,0,0.1,0c0.4-0.1,0.8-0.2,1.3-0.3c0.1,0,0.3,0,0.4-0.1c0.4-0.1,0.7-0.1,1.1-0.2
				c0.1,0,0.2,0,0.3,0c0.5-0.1,0.9-0.1,1.4-0.2c0.1,0,0.1,0,0.2,0c0.4,0,0.8-0.1,1.2-0.1c0.1,0,0.3,0,0.4,0c0.4,0,0.8,0,1.1,0
				c0.1,0,0.1,0,0.2,0c0,0,0,0,0.1,0c0.5,0,0.9,0,1.4,0c0.1,0,0.2,0,0.3,0c0.4,0,0.7,0.1,1.1,0.1c0.1,0,0.3,0,0.4,0.1
				c0.3,0,0.7,0.1,1,0.2c0.1,0,0.3,0,0.4,0.1c0.5,0.1,0.9,0.2,1.4,0.3c0.1,0,0.2,0,0.3,0c0,0,0.1,0,0.1,0c0.1,0,0.3,0,0.4,0
				c0,0,0,0,0,0c0.1,0,0.3-0.1,0.4-0.1c0,0,0.1,0,0.1,0c0.1-0.1,0.3-0.1,0.4-0.2c0,0,0,0,0.1,0c0.1-0.1,0.2-0.2,0.3-0.3
				c0.4-0.5,0.2-1.5,0-2.2c-1-2.6-2.3-5.1-3.1-7.7c-0.8-2.6-1.2-5.3-1.6-8c-0.6-4.5-1-9-1.5-13.5c0.2,0,0.4-0.1,0.7-0.1
				c0.2,0.3,0.5,0.6,0.6,1c0.8,4.2,1.9,8.4,2.3,12.7c0.6,6.3,2.5,12.3,5.1,18c2.6,5.8,5.8,11.2,8.6,16.9c2.4,4.6,5.2,9.1,5,14.6
				c-0.1,2.5-0.1,4.9-0.1,7.4c-0.1,4.3,1.4,7.8,4.3,10.9c2.1,2.3,4.2,4.6,4.7,7.9c0.2,1.6,0.2,3.2,0.3,4.8
				c0.5,5.5,1.2,11.1-1.2,16.4c-0.6,1.3-0.2,2.2,1,2.9c1.2,0.7,3,1.2,3.4,2.3c1,2.9,3,4.6,5.6,5.7c0,1.3-0.2,2.7,0,4
				c0.1,0.6,0.6,1.4,1.2,1.7c3.8,2.1,7.5,4.2,11.4,6.2c3.5,1.8,7.1,3.6,10.7,5.2c0.1,0.1,0.3,0.1,0.4,0.1c0,0,0.1,0,0.2,0
				c0.1,0,0.2,0.1,0.3,0.1c0.1,0,0.1,0,0.2,0c0.1,0,0.2,0,0.3,0c0.1,0,0.1,0,0.2,0c0.1,0,0.2,0,0.3,0c0.1,0,0.1,0,0.2,0
				c0.1,0,0.1,0,0.2,0c0.1,0,0.1,0,0.2,0c0,0,0.1,0,0.1,0c0.1,0,0.1,0,0.2-0.1c0,0,0.1,0,0.1,0c0.1,0,0.1-0.1,0.2-0.1
				c0.6-0.8,0.4-2.2,0.3-3.4c-0.1-1.1-0.5-2.2-0.8-3.5c2.2,0,4.2,0,6.2,0c0.1,0,0.2,0,0.3,0c0.7,0,1.3,0,2,0c0.8,0,1.7-0.1,2.5-0.2
				c-0.1-0.9,0.1-1.9-0.3-2.5c-3.4-5.5-8.5-9.4-13.2-13.6c1.1-2.4,0.5-4.7-0.3-7c-1.4-3.8-3-7.4-4.4-11.2c-1.4-3.9-2.6-7.9-3.6-12
				c-0.3-1.3,0.1-2.9,0.7-4.1c2.2-4.3,4.1-8.8,2.6-13.6c-1.3-4.2-1.4-8.5-1.2-12.7c0.1-2.3,0.1-4.8,1.5-7c1.7-2.5,3.2-5.1,4.5-7.7
				c0,0,0,0,0,0c0.1-0.6,0.2-1.2,0.2-1.8c0.2-2.8,1.3-4.9,3.5-6.4c2-5.2,3.5-10.7,4.5-16.3c1.2-6.8,2.3-13.5,3.8-20.3
				c0.9-4.2,3-7.8,7.2-10.5c-0.5,1.4-0.6,2.5-1.2,3.2c-3.4,4.5-4.8,9.8-6,15.1c-1.9,8.3-2.3,16.9-5.6,24.9c-0.2,0.5-0.2,1.3,0.1,1.6
				c0,0,0.1,0.1,0.2,0.1c0,0,0,0,0.1,0c0,0,0.1,0,0.2,0.1c0,0,0,0,0,0c3.3-2,6.3-4,8.3-7.1c0.5-0.8,1.1-1.4,1.6-1.8
				c0.1-0.1,0.3-0.3,0.4-0.3c1-1.3,2-2.7,3.1-4c3-3.9,6-7.9,8.8-11.9c2.2-3.1,3.8-6.2,5-9.1c0.7-1.8,1.1-3.9,1.5-6
				c0.2-1.2,0.5-2.4,0.8-3.6l0.1-0.5c0.3-1.5,0.7-3.1,1.6-4.7c0.4-0.9,1.1-1.5,1.8-2c0.6-2.1,1.3-4.2,1.9-6.3
				c0.8-2.5,2.2-4.8,2.5-7.3c0.4-4.5,3.2-7.6,5.8-10.7c1-1.2,1.6-2.1,1.5-2.9c-0.3-0.6-0.6-1.1-0.9-1.6c-0.3-0.3-0.6-0.6-1-0.9
				c-3.5-2.9-7-5.7-10.4-8.6c-0.9-0.7-1.5-1.8-2.6-3c0.9,0.2,1.1,0.1,1.3,0.3c3.5,2.6,6.9,5.5,10.4,8.1c-1.9-3.5-3.7-7-5.3-10.6
				C356.2,289.2,354.2,283.2,353.7,276.9z M174.7,413.2c-2-1.2-2-2,0-5.1C174.7,410.1,174.7,411.6,174.7,413.2z M235.6,368.4
				c-0.4,2-2,1.2-3.2,1.3c-2.3,0.2-4.6,0.3-7.1,0.5c0.6,1.5,1.2,2.6,1.5,3.7c0.6,2-0.8,4.4-2.9,4.3c-2.8-0.1-5.5-0.8-8.3-1.1
				c-1.8-0.2-3.7-0.1-5.6-0.3c-3.3-0.3-6.5-0.7-9.8-1.1c-1.8-0.2-3.4-0.9-3.7-3.1c-0.1-0.8-0.7-1.5-1.2-2.2
				c-1.1-1.3-1.3-2.7-0.4-4.2c-1.5-3.3-4.2-4-7.5-3.6c-1.9,0.2-2.8-0.8-2.3-2.6c0.4-1.5,1.4-2.8,1.7-4.3c0.6-2.5,1.1-5,1.4-7.6
				c0.3-4,0.4-8.1,0.6-12.2c0.1-2.8,0.3-5.6,0.4-8.4c0.3-4.6-0.9-9-2.8-13c-1.2-2.6-0.5-4.7,0.5-6.9c2.4-5,5.1-9.9,7.4-14.9
				c1.4-3.2,3.6-5.5,6.7-6.7c2.1-0.8,4.4-1,6.6-1.4c0.8-0.1,1.6-0.2,2.4-0.3c0.4-0.1,0.8-0.1,1.2-0.2c1.4-0.1,2.9-0.2,4.3-0.3
				c0.3-0.1,0.5-0.1,0.8-0.2c0.6-0.1,1.2-0.2,1.8-0.3c0.1-0.1,0.3-0.1,0.4-0.2c0.4-0.1,0.8-0.2,1.1-0.3c0.2,0,0.4,0,0.6,0
				c0.4,0.1,0.7,0.2,1.1,0.3c3.7,1.7,7.4,3.2,11,5.1c1.8,1,1.9,3.9,0.6,5.7c-3.5,4.9-7,9.8-10.6,14.6c-0.7,1-1.7,1.8-2.5,2.7
				c-2.3,2.5-2.2,5.7-2.9,8.7c-0.7,3.2-1.5,6.3-2.1,9.5c-0.2,1.1-0.2,2.3-0.2,3.5c0,2.2,0,4.5,0,6.7c0,2.4,0.2,4.7,1.2,7
				c1.1,2.5,1.1,5.6,1.6,8.4c0.2,1.1,0.3,2.1,0.5,3.2c3.5,3.7,8.5,4.2,12.7,6.5c0.8,0.4,1.7,0.7,2.5,1.1
				C234.5,366.3,236,366.5,235.6,368.4z M268.9,335.8c-1-1.4-1.9-2.8-2.9-4.2c-1.1-1.5-1.2-5.8-0.2-7.2c0.2-0.3,0.8-0.4,2-0.9
				c-1.9,5.7,1.5,9.7,2.7,14.4C269.9,337.2,269.4,336.5,268.9,335.8z"/>
			<path fill="none" d="M29.7,399.8c-0.2-1.9-0.6-3.9-0.9-5.8c-0.6-5-1.3-10-1.7-15c-0.2-2.2,0.3-4.4-0.1-6.5
				c-1.4-6.8-0.7-13.6-1.2-20.4c-0.1-0.8,0.3-1.6,0.4-2.4c0.2-0.7,0.5-1.4,0.5-2.1c0.1-2.2-0.1-4.3,0.2-6.5c0.8-5.9,2-11.7,2.8-17.6
				c0.6-4.8,0.8-9.7,1.2-14.6c0.1-1.2,0.3-2.4,0.4-3.6c0.1-1.5,0.1-3.1,0.3-4.6c0.4-3.6,1.4-7.2,1.4-10.8c0-2.8-0.3-5.7-0.6-8.5
				c-0.2-2.4-0.5-4.8-0.4-7.3c0.1-4.7,1-9.5,1.7-14.2c0.5-3.2,1.5-6.3,2.3-9.5c0.6-2.5,1.3-5,1.9-7.5c0.5-2.4,0.8-4.8,1.5-7.1
				c0.3-0.9,1.4-1.5,1.9-2.1c-0.2-0.6-0.7-1.6-0.5-2.2c2-5.2,4.7-9.7,10.2-12c0.6-0.2,0.8-1.4,1.2-2.2c-0.4,0-0.8,0-1.2,0
				c-1.3,0-2.6,0-3.8,0.1c-6,3.9-9.2,9.7-10.9,16.5c-0.6,2.3-2.3,4.6-2,6.7c0.4,3.1-0.8,5.5-1.3,8.2c-0.4,2.3-1.5,4.5-2.1,6.9
				c-1,4.1-1.9,8.1-2.5,12.2c-0.9,5.6-1.4,11.3-2.1,17c-0.2,1.9-0.7,3.7-1,5.5c-0.7,3.3-1.6,6.6-2.2,9.9c-0.4,2.1-0.2,4.3-0.6,6.4
				c-1.4,6.7-1.4,13.4-1.2,20.1c-0.3,3.4-1,6.8-0.9,10.2c0.1,8.4-0.5,16.7-1.9,25c-1.1,6.3-2.1,12.7-3.3,19.1
				c-0.7,3.8-1.2,7.7-2.4,11.3c0,0-2.1,8.9-2.1,19.1c0.8-3.5,2.8-12.2,2.8-12.2s-1.2,17.8,1.7,33.5c0.9-2.9,1.2-20.2,1.2-20.2
				s1.6,14.3,4.2,30.1c0.9-2.3,0.9-30.4,0.9-30.4s2.5,10.8,2.8,21.8c0.8-3,1.5-9.5,1.9-16c0.1-1.1,0.2-2.3,0.2-3.4
				c0.5-7.7,0.7-14.6,0.7-14.6l1.5,9l0.3,1.5c0,0,0.3-1.2,0.6-2.9C29.6,405.3,30,402.1,29.7,399.8z M24.2,332.5
				c-0.1-0.2-0.2-0.5-0.3-0.7c0,0,0.1,0,0.1,0c0,0,0.1,0,0.1,0c0,0,0,0,0,0c0,0,0,0,0.1,0c0,0,0,0,0,0c0,0,0,0,0,0c0,0,0,0,0,0
				c0.1,0.2,0.2,0.5,0.3,0.7C24.5,332.3,24.3,332.4,24.2,332.5z"/>
			<path fill="none" d="M129,387.2c-2.5,0.7-3.8-1-3.5-3.5c0.1-1.1,0.4-2.1,0.8-3c-0.9-0.4-1.9-0.8-2.8-1.3
				c-0.4-0.1-0.7-0.2-1.1-0.3c-0.2,0-0.4,0-0.6,0c-0.4,0.1-0.8,0.2-1.1,0.3c-0.1,0.1-0.3,0.1-0.4,0.2c-0.6,0.1-1.2,0.2-1.8,0.3
				c-0.3,0.1-0.6,0.1-0.8,0.2c-1.4,0.1-2.9,0.2-4.3,0.3c-0.4,0.1-0.8,0.1-1.2,0.2c-0.8,0.1-1.6,0.2-2.4,0.3
				c-2.2,0.5-4.5,0.6-6.6,1.4c0,0-0.1,0-0.1,0c-0.1,0.1-0.3,0.1-0.4,0.2c-2.9,1.3-4.9,3.5-6.2,6.5c-1.5,3.3-3.2,6.6-4.8,9.9
				c-0.9,1.7-1.7,3.4-2.6,5.1c-1.1,2.2-1.8,4.3-0.5,6.9c1.9,4.1,3.1,8.4,2.8,13c-0.2,2.8-0.3,5.6-0.4,8.4c-0.2,4.1-0.2,8.1-0.6,12.2
				c-0.2,2.5-0.7,5.1-1.4,7.6c-0.4,1.5-1.3,2.8-1.7,4.3c-0.1,0.2-0.1,0.4-0.1,0.6c0,0.1,0,0.1,0,0.2c0,0.1,0,0.2,0,0.4
				c0,0.1,0,0.1,0,0.2c0,0.1,0,0.2,0.1,0.3c0,0.1,0.1,0.1,0.1,0.2c0,0.1,0.1,0.2,0.1,0.2c0,0.1,0.1,0.1,0.1,0.1
				c0.1,0.1,0.1,0.1,0.2,0.2c0.1,0,0.1,0.1,0.2,0.1c0.1,0,0.2,0.1,0.2,0.1c0.1,0,0.1,0,0.2,0.1c0.1,0,0.2,0,0.3,0c0.1,0,0.2,0,0.3,0
				c0.2,0,0.4,0,0.6,0c0.5-0.1,1-0.1,1.4-0.1c0,0,0,0,0.1,0c0,0,0,0,0.1,0c0.3,0,0.6,0,0.9,0c0,0,0.1,0,0.1,0c0.3,0,0.5,0.1,0.8,0.1
				c0,0,0.1,0,0.1,0c0.3,0.1,0.5,0.1,0.8,0.2c0,0,0.1,0,0.1,0.1c0.2,0.1,0.5,0.2,0.7,0.3c0,0,0.1,0,0.1,0.1c0.2,0.1,0.4,0.3,0.6,0.4
				c0,0,0,0,0,0c0.2,0.2,0.4,0.4,0.6,0.6c0,0,0.1,0.1,0.1,0.1c0.2,0.2,0.4,0.4,0.5,0.7c0,0,0.1,0.1,0.1,0.1c0.2,0.3,0.3,0.6,0.5,0.9
				c-0.9,1.5-0.7,2.9,0.4,4.2c0.5,0.6,1.1,1.4,1.2,2.2c0.3,2.2,1.8,2.9,3.7,3.1c3.3,0.4,6.5,0.8,9.8,1.1c1.9,0.2,3.7,0.1,5.6,0.3
				c2.8,0.3,5.5,0.9,8.3,1.1c0.1,0,0.2,0,0.3,0c0.1,0,0.1,0,0.2,0c0.1,0,0.1,0,0.2,0c0.1,0,0.1,0,0.2,0c0.1,0,0.1,0,0.2-0.1
				c0,0,0.1,0,0.1-0.1c0.1,0,0.1-0.1,0.2-0.1c0,0,0.1,0,0.1-0.1c0.1,0,0.1-0.1,0.2-0.1c0,0,0.1-0.1,0.1-0.1c0.1,0,0.1-0.1,0.2-0.1
				c0,0,0.1-0.1,0.1-0.1c0.1,0,0.1-0.1,0.1-0.2c0,0,0.1-0.1,0.1-0.1c0-0.1,0.1-0.1,0.1-0.2c0,0,0.1-0.1,0.1-0.1
				c0-0.1,0.1-0.1,0.1-0.2c0,0,0-0.1,0.1-0.1c0-0.1,0.1-0.1,0.1-0.2c0,0,0-0.1,0.1-0.1c0-0.1,0.1-0.2,0.1-0.2c0,0,0-0.1,0-0.1
				c0-0.1,0-0.2,0.1-0.2c0,0,0-0.1,0-0.1c0-0.1,0-0.2,0-0.2c0,0,0-0.1,0-0.1c0-0.1,0-0.2,0-0.3c0,0,0-0.1,0-0.1c0-0.1,0-0.2,0-0.3
				c0,0,0-0.1,0-0.1c0-0.1-0.1-0.3-0.1-0.4c-0.3-1.1-0.9-2.2-1.5-3.7c2.5-0.2,4.8-0.3,7.1-0.5c0.1,0,0.2,0,0.2,0c0,0,0,0,0,0
				c0,0,0,0,0,0c0.2,0,0.4,0,0.6,0c0.2,0,0.4,0,0.6,0c0,0,0,0,0.1,0c0.1,0,0.1,0,0.2,0c0,0,0.1,0,0.1,0c0.1,0,0.2,0,0.2,0
				c0,0,0,0,0,0c0.1,0,0.2,0,0.2-0.1c0,0,0,0,0.1,0c0,0,0.1,0,0.1-0.1c0,0,0,0,0.1-0.1c0,0,0.1-0.1,0.1-0.1c0,0,0-0.1,0.1-0.1
				c0,0,0.1-0.1,0.1-0.1c0,0,0-0.1,0.1-0.1c0-0.1,0.1-0.1,0.1-0.2c0,0,0-0.1,0-0.1c0-0.1,0.1-0.2,0.1-0.4c0.4-1.9-1.1-2.1-2.3-2.6
				c-0.8-0.4-1.7-0.6-2.5-1.1c-4.2-2.3-9.2-2.8-12.7-6.5c-0.2-1.1-0.3-2.1-0.5-3.2c-0.5-2.8-0.4-5.9-1.6-8.4c-1.1-2.4-1.2-4.6-1.2-7
				c0-2.2,0-4.5,0-6.7c0-1.2,0-2.4,0.2-3.5c0.6-3.2,1.4-6.3,2.1-9.5c0.7-3,0.6-6.2,2.9-8.7c0.8-0.9,1.8-1.7,2.5-2.7
				c3.6-4.9,7.1-9.8,10.6-14.6c0.5-0.7,0.8-1.6,0.8-2.4C133.7,387,131.4,386.5,129,387.2z"/>
			<path fill="none" d="M447.4,294.6c-1.3,3.8,0.2,7.4,0.7,11c0.6,4,0.4,7.9-1.2,11.3c1-0.7,2-1.4,2.9-2.1c2.7-2.1,5-4.8,7.1-7.4
				c0.9-1.2,1.7-3,1.6-4.4c-0.2-2.3-1.1-4.5-1.9-6.7c-0.7-2-2.3-3.8-2.5-5.8c-0.6-4.5-0.9-9.1-1.7-13.5c-1.1,4.3-2.1,8.6-3.3,12.9
				C448.7,291.6,447.9,293.1,447.4,294.6z"/>
			<path fill="none" d="M486.7,138.9c-1.5,2.4-2.8,5.1-4.7,7.2c-3.6,4.1-8.1,7.1-12.7,9.8c-4.2,2.4-8.9,3.9-13.4,5.8
				c-6.2,2.7-11.8,1.5-17.4-1.7c-2.7-1.6-2.1-4.1,0-5.4c1-0.7,2.2-1,3.3-1.5c4.5-2.2,6.8-6.5,9.7-10.2c3.4-4.2,6.6-8.6,11.7-11
				c1.8-0.8,3.4-2,5.1-3c-1.4-0.1-3-0.3-4,0.3c-3.1,2-6.2,4-8.9,6.5c-3.6,3.4-7,7-10.1,10.9c-1.5,1.8-3.1,3.1-5,4.4
				c-2.2,1.5-4.1,3.3-5.9,5.3c-1.8,2-1,4.5,1.5,5.6c2.3,0.9,4.5,1.9,6.7,2.9c0.6,0.1,1.2,0.2,1.8,0.3c0.8,0.1,1.5,0.1,2.3,0.2
				c0.6,0.1,1.3,0.2,1.9,0.3c0.9,0,1.8,0.1,2.7,0.1c0.8-0.2,1.5-0.3,2.3-0.5c1.2-0.3,2.3-0.7,3.5-1c0.5-0.1,1-0.2,1.6-0.3
				c3-1.4,6-2.9,9-4.3c0.4-0.2,0.8-0.4,1.3-0.5c8.9-4.8,15.3-11.9,18.9-21.3C487.4,138,487.1,138.4,486.7,138.9z"/>
			<path fill="none" d="M268.5,190.3c3.3-4,3.8-8.9,5.2-13.5c0.1-0.3-0.6-0.7-1.2-1.5C271.1,180.7,269.8,185.5,268.5,190.3z"/>
			<path fill="none" d="M279.8,181.9c-0.1,1.3,0.3,2.6,0.4,3.8c0.1,3.6,0,7.2,0,10.8c0,0,0.1-0.1,0.1-0.1c0.5-5,1.1-10,1.6-15
				c0.1-0.7-0.7-1.4-1.1-2.1C280.5,180.3,279.9,181.1,279.8,181.9z"/>
			<path fill="none" d="M262,174.8c-3.6,6.3-4.8,13.5-6.7,20.4C259,188.9,261.3,182.1,262,174.8z"/>
			<path fill="none" d="M321,415.1c0.7,1,1,2.6,0.9,3.9c-0.2,7.9-0.5,15.7-1,23.6c-0.1,1.3-0.7,2.8-1.5,3.8c-2,2.3-2.2,4.3,0.6,5.4
				c3.2,1.2,5.6,2.9,7.5,5.6c0.1,0.8,0.3,1.6,0.4,2.4c0.4,2.1,1.3,3.4,3.7,3.5c1.6,0.1,3.3,0.5,4.8,1.2c4.4,1.8,8.6,3.9,13,5.7
				c0.1,0,0.2,0.1,0.4,0.1c0,0,0.1,0,0.1,0c0.1,0,0.2,0,0.4,0c0,0,0.1,0,0.1,0c0.1,0,0.3,0,0.4,0c0,0,0.1,0,0.1,0
				c0.1,0,0.2,0,0.3-0.1c0,0,0.1,0,0.1,0c0.1,0,0.2-0.1,0.3-0.1c0,0,0.1,0,0.1,0c0.1-0.1,0.2-0.1,0.3-0.2c1.3-1.2,2-2.7,1-4.6
				c-0.4-0.8-0.7-1.8-0.6-2.6c0.1-0.6,0.7-1.6,1.2-1.7c0.4,0,0.9-0.1,1.3-0.1c0.1,0,0.2,0,0.3,0c0.1,0,0.1,0,0.2,0
				c0.4,0,0.8,0,1.2,0c0.4,0,0.8,0,1.2,0c0.1,0,0.2,0,0.3,0c0.4,0,0.9,0,1.3-0.1c1.1-0.1,2.3-0.7,3.1-1.5c0.3-0.3-0.1-2-0.7-2.6
				c-1.6-1.4-3.5-2.5-5.2-3.7c-2.9-2.1-5.8-4.2-8.7-6.2c-0.6-0.4-1.5-0.3-2.3-0.4c-0.2-0.7-0.5-1.5-0.5-2.2c-0.1-4.5,0-9-0.1-13.5
				c0-0.8-0.3-1.5-0.3-2.3c-0.1-4.2-1-8.4,2-12.3c3.3-4.2,3.9-9.2,3.2-14.5c-0.5-3.6-2-7.3-0.7-11c0.6-1.6,1.4-3,1.8-4.6
				c1.3-4.9,2.4-10,3.8-14.9c1.1-4,3.1-7.6,3-12.1c-0.1-4.6,1.1-9.2,1.6-13.7c0.1-1.1-0.1-2.3-0.6-3.3c-0.1-0.2-0.1-0.3-0.2-0.4
				c0,0-0.1-0.1-0.1-0.1c-0.1-0.1-0.1-0.2-0.2-0.2c0,0-0.1-0.1-0.1-0.1c-0.1,0-0.1-0.1-0.2-0.1c0,0,0,0-0.1,0c0,0,0,0-0.1,0
				c-0.1,0-0.1,0-0.2,0c-0.1,0-0.1,0-0.2,0c0,0-0.1,0-0.1,0c-0.1,0-0.1,0-0.2,0.1c0,0-0.1,0-0.1,0.1c-0.1,0-0.1,0.1-0.2,0.2
				c0,0-0.1,0.1-0.1,0.1c-0.1,0.1-0.2,0.2-0.3,0.4c-0.7,1.3-1,2.9-1.4,4.4c-0.8,3.4-1.2,6.9-2.4,10.1c-1.3,3.4-3.2,6.7-5.3,9.8
				c-3.8,5.5-8,10.8-12,16.1c-0.5,0.7-1.3,1.1-1.7,1.8c-2.5,4.1-6.4,6.5-10.3,8.8c-0.5,0.3-0.9,0.5-1.4,0.8c-0.1,0-0.2,0.1-0.2,0.1
				c-1.8,1-2.5,2.3-2.6,4.2c0,0.9-0.2,1.7-0.3,2.6c-0.1,0.7-0.2,1.5-0.2,2.2C318.7,407,318.3,411.3,321,415.1z"/>
			<path fill="none" d="M507.7,152.4c-1.5-0.5-2.7-0.8-4,0.4c-1.4,1.4-3.1,2.7-2.6,5c0.7,2.9,1.5,5.9,4.6,7.4c0.5,0.1,1,0.2,1.4,0.3
				c0.3,0.1,0.6,0.1,0.9,0.2c0.7,0.1,1.4,0.3,2.2,0.4l0.1,0c0.4,0.1,0.7,0.2,1.1,0.3c2.2,0.9,4.3,1.8,6.5,2.6c0.5,0,1.1-0.1,1.6-0.1
				c0-0.6,0.2-1.3,0.1-1.8C517.7,160.5,514.7,154.9,507.7,152.4z"/>
			<path fill="none" d="M534.3,203.5c-1.5,0.7-1.8,1.6-0.7,2.8c2.1,2.5,2.6,5.6,2.6,8.7c0,1.3,0.2,2.5,0.3,4.2
				c2.1-1.2,3.8-1.9,5.2-3.1c3.7-3.1,3.8-6.1,1.4-10.7C541.7,202.7,537.6,201.9,534.3,203.5z"/>
			<path fill="none" d="M133.3,210.9c-0.7-0.1-1.3-0.2-2-0.3c-0.3-0.1-0.6-0.1-0.9-0.2c-0.5,0-0.9,0-1.4,0c-0.1,0.7-0.2,1.5-0.3,2.2
				c-0.4,4.9-0.6,9.8-1.2,14.6c-0.8,5.9-2,11.7-2.8,17.6c-0.3,2.1-0.1,4.3-0.2,6.5c0,0.7-0.3,1.4-0.5,2.1c-0.1,0.8-0.5,1.6-0.4,2.4
				c0.5,6.8-0.2,13.7,1.2,20.4c0.2,1.1,0.2,2.3,0.1,3.5c0.4,1.1,0.9,2.1,1.4,3.2c0.6,1.1,1.3,2,2,3c-0.3,0.3-0.7,0.7-1,1
				c-0.7-1-1.4-2-2.1-3.1c-0.1-0.1-0.2-0.3-0.3-0.4c0.5,4.8,1.1,9.5,1.7,14.3c0.2,2,0.6,3.9,0.9,5.8c0.5,4.1-1.1,10.7-1.1,10.7
				l-1.8-10.5c0,0-0.8,27.1-2.8,34.1c-0.3-10.9-2.8-21.8-2.8-21.8s0.1,28.1-0.9,30.4c-2.7-15.8-4.2-30.1-4.2-30.1
				s-0.2,17.3-1.2,20.2c-2.9-15.7-1.7-33.5-1.7-33.5s-2,8.7-2.8,12.2c0-10.2,2.1-19.1,2.1-19.1c1.1-3.7,1.7-7.5,2.4-11.3
				c1.1-6.3,2.1-12.7,3.3-19.1c0.5-3,0.9-6,1.3-9c-0.3-0.4-0.7-0.8-1.1-1.2c-0.4-0.4-0.8-0.7-1.2-1.1c-0.6-0.8-1.8-1.6-0.6-2.7
				c0.1-0.1,0.2-0.1,0.2-0.2c0,0,0.1,0,0.1-0.1c0.1,0,0.1-0.1,0.2-0.1c0,0,0.1,0,0.1-0.1c0.1,0,0.1-0.1,0.2-0.1c0,0,0.1,0,0.1-0.1
				c0.1,0,0.2-0.1,0.2-0.1c0,0,0,0,0,0c0.1,0,0.2-0.1,0.3-0.1c0,0,0,0,0.1,0c0.1,0,0.1-0.1,0.2-0.1c0,0,0.1,0,0.1,0
				c0.1,0,0.1,0,0.2,0c0,0,0.1,0,0.1,0c0.1,0,0.1,0,0.2,0c0,0,0,0,0.1,0c0,0,0,0,0,0c0.1,0,0.2,0,0.3,0c0,0,0.1,0,0.1,0
				c0.1,0,0.2,0.1,0.3,0.1c0,0,0,0,0,0c0.1,0,0.1,0.1,0.2,0.1c0.2-3.3,0.3-6.6,0.2-10c0-3.4,0.6-6.8,0.9-10.2
				c-0.3-6.7-0.2-13.5,1.2-20.1c0.1-0.3,0.1-0.6,0.2-1c-0.2,0-0.3,0-0.5,0c-1-0.1-2-0.2-3-0.3c-0.7-0.1-1.5-0.1-2.2-0.2
				c-0.6-0.1-1.3-0.2-1.9-0.3c-0.5-0.1-0.9-0.1-1.4-0.2c-0.8-0.1-1.6-0.2-2.4-0.3c-0.4-0.1-0.8-0.1-1.2-0.2c-0.5-0.1-1-0.2-1.5-0.3
				c-0.3-0.1-0.5-0.1-0.8-0.2c-1-0.1-1.9-0.2-2.9-0.3c-0.5,0-1,0-1.5,0c-0.4,0.1-0.7,0.2-1.1,0.3c-0.3,0.1-0.5,0.1-0.8,0.2
				c-0.5,0.1-1,0.2-1.5,0.3c-0.3,0.1-0.6,0.1-0.9,0.2c-0.5,0.1-1,0.2-1.5,0.4c-1.7,0.7-3.5,1.3-5.2,2c-0.4,0.1-0.8,0.2-1.2,0.3
				c-5.8,2.6-11.1,6.4-17.5,7.7c-2,0.1-4.1,0.1-6.1,0.2c-3.5,0.4-7.1,0.6-10.6,1.1c-0.4,0.9-1,2.2-2.5,2.8c-3.6,1.5-6,4.2-8,9.3
				c0.1,0.3,0.2,0.6,0.3,0.9c0.3,1.1,0,2.3-0.8,3.1c-0.3,0.3-0.6,0.6-0.9,0.8c-0.1,0.1-0.3,0.2-0.4,0.3c-0.3,1.2-0.6,2.5-0.8,3.8
				c-0.2,0.9-0.3,1.8-0.6,2.7c-0.4,1.8-0.9,3.6-1.3,5.3c-0.2,0.8-0.4,1.5-0.6,2.3c-0.2,1-0.5,2-0.8,3c-0.6,2.2-1.1,4.2-1.5,6.2
				l-0.2,1.4c-0.7,4-1.4,8.2-1.4,12.2c0,2.2,0.2,4.4,0.4,6.7c0.2,1.1,0.5,2.3,0.7,3.4c0.4,2.1,1.2,4.2,1.4,6.4
				c0.3,2.7,0.3,5.5,0.3,8.2c0,5.8,0.1,11.6-0.1,17.4c-0.1,2.3-0.5,4.7-0.8,7c-0.5,3.4-1.1,6.8-1.5,10.2c-0.3,2.7,0,5.5-0.7,8.1
				c-1,3.4-1,6.5-0.1,9.8c0.1,0.5,0.3,1,0.4,1.5c1.1,6.3,0.8,12.7,2.6,19c2.3,7.6,2,15.6,2.2,23.5c0,1.2,0,2.6-0.6,3.5
				c-2.1,3.3-4.5,6.3-6.7,9.5c-0.1,0.2-0.2,0.3-0.3,0.5c-0.2,1.2-0.4,2.1-0.5,2.4c-0.3,1.1-1,1.9-2,2.3c-0.2,0.5-0.3,0.9-0.4,1.4
				c-0.1,1-0.1,2.1-0.2,3.2c0.1,0.6,0.1,1.2,0.3,1.9c1.5,6.1,2.6,12.3,2.4,18.6c-0.1,3.8,0.1,7.6,0.1,11.3c0,5.1,0,10.2-0.2,15.3
				c-0.1,2.3-0.4,4.8-1.4,6.9c-1.2,2.5-2.6,4.9-3,7.7c0,0.2,0,0.5,0,0.7c0,0,0,0.1,0,0.1c0,0.2,0,0.4,0,0.6c0,0,0,0.1,0,0.1
				c0,0.2,0.1,0.4,0.1,0.6c0,0,0,0,0,0c0.1,0.2,0.1,0.3,0.2,0.5c0,0,0,0.1,0,0.1c0.1,0.1,0.2,0.3,0.3,0.4c0,0,0,0,0.1,0.1
				c0.1,0.1,0.3,0.2,0.4,0.3c0,0,0,0,0.1,0c0.1,0.1,0.3,0.1,0.5,0.2c0,0,0.1,0,0.1,0c0.2,0,0.4,0.1,0.5,0.1c0,0,0.1,0,0.1,0
				c0.1,0,0.2,0,0.3,0c0.1,0,0.1,0,0.2,0c0.2,0,0.3-0.1,0.5-0.1c0.3-0.1,0.7-0.2,1-0.2c0,0,0.1,0,0.1,0c0.3,0,0.6-0.1,0.9-0.1
				c0.1,0,0.1,0,0.2,0c0.1,0,0.1,0,0.2,0c0.2,0,0.5,0,0.7,0h0c0.3,0,0.6,0.1,0.9,0.1c0.1,0,0.2,0,0.2,0c0.2,0,0.5,0.1,0.7,0.1
				c0.1,0,0.1,0,0.2,0c0.3,0.1,0.6,0.1,0.9,0.2c0.1,0,0.1,0,0.2,0.1c0.2,0.1,0.5,0.1,0.7,0.2c0.1,0,0.2,0.1,0.3,0.1
				c0.3,0.1,0.5,0.2,0.8,0.3c0,0.5-0.1,0.9,0,1.4c0.6,3,1.1,6,2,8.8c0.3,0.9,1.7,1.5,2.8,1.9c0.1,0,0.2,0,0.3,0c0,0,0,0,0.1,0
				c0.1,0,0.2,0,0.4-0.1c0,0,0,0,0,0c0.1,0,0.3-0.1,0.5-0.1c0.2,0,0.3-0.1,0.5-0.1c0,0,0,0,0.1,0c0.1,0,0.3-0.1,0.4-0.1c0,0,0,0,0,0
				c0,0,0,0,0,0c6.9,0.2,13.7,0.4,20.6,0.6c0.1,0,0.1,0,0.2,0c0,0,0.1,0,0.1,0c0.1,0,0.1,0,0.2,0c0,0,0.1,0,0.1,0c0.1,0,0.1,0,0.2,0
				c0,0,0.1,0,0.1,0c0.1,0,0.1,0,0.2,0c0,0,0.1,0,0.1,0c0.1,0,0.1,0,0.2-0.1c0,0,0.1,0,0.1,0c0.1,0,0.1,0,0.2-0.1c0,0,0.1,0,0.1,0
				c0.1,0,0.1-0.1,0.1-0.1c0,0,0,0,0.1,0c0.1-0.1,0.1-0.1,0.2-0.2c0.3-0.4,0.1-1.5-0.1-2.1c-0.7-1.8-1.5-3.5-2.6-5.8
				c3.1,1,5.9,1.9,8.6,2.8c1.5-1.5,1.6-2.9,0.1-4.4c-1.2-1.2-2.3-2.6-3.5-3.9c-2.2-2.2-4.4-4.4-6.6-6.5c-1.1-2.3-2.3-4.6-3.1-7
				c-1.1-3-1.9-6.2-2.8-9.3c-0.3-1-0.9-2-0.9-3c0.2-4.1,0.6-8.1,1-12.2c0.4-4.4,0.8-8.8,1.3-13.2c0.3-2.9,0.6-5.7,3.2-7.8
				c2.9-2.3,5.9-4.7,8.5-7.5c5.8-6.3,11.7-12.6,17.2-19.2c1.6-3,3.2-6.2,4.6-9.3c1.6-3.6,4-6.2,7-7.8c1.1-1.6,2.3-3.2,3.7-4.5
				c5-4.5,10.3-8.6,15.2-13.2c3.2-3,5.7-6.7,6.4-11.3c0.2-1,1-2,1.5-2.9c0.3,0.1,0.6,0.3,0.9,0.4c-0.8,2.8-1.1,5.8-2.4,8.4
				c-1.9,3.9-5.2,7-8.6,9.7c-4,3.2-8,6.4-12,9.7c-1.2,1-1.6,1.7-1.3,2.3c1.1-0.3,2.1-0.5,3.2-0.6c0.7-0.1,1.3-0.2,1.9-0.3
				c0.1,0,0.2,0,0.3,0l2.4-0.3l0.5-0.1l0.6-0.1c0.1,0,0.2,0,0.3,0l4.1-0.3l0.4-0.1l0.3-0.1c0,0,0.1,0,0.1,0l0.9-0.1l0.6-0.1l0.2-0.1
				c0.1,0,0.2-0.1,0.2-0.1l0.6-0.2l0.6-0.2c0.3-0.1,0.6-0.1,0.9-0.1l0.6,0c0.3,0,0.6,0,0.9,0.1l0.5,0.1l0.6,0.2
				c0.2,0,0.3,0.1,0.5,0.2c0.9,0.4,1.9,0.8,2.8,1.3c0.3-0.5,0.5-1.1,0.8-1.7c1-2.1,1.3-4.6,1.4-6.9c0.2-5.1,0.2-10.2,0.2-15.3
				c0-3.8-0.2-7.6-0.1-11.3c0.2-6.4-0.9-12.5-2.4-18.6c-1.2-4.6,0.7-8.2,3.1-11.7c2.2-3.2,4.6-6.3,6.7-9.5c0.6-0.9,0.7-2.3,0.6-3.5
				c-0.2-7.9,0-15.9-2.2-23.5c-1.9-6.3-1.5-12.7-2.6-19c-0.1-0.5-0.3-1-0.4-1.5c-0.9-3.3-0.9-6.5,0.1-9.8c0.7-2.5,0.4-5.4,0.7-8.1
				c0.4-3.4,1-6.8,1.5-10.2c0.3-2.3,0.8-4.7,0.8-7c0.1-2.9,0.1-5.8,0.1-8.7c-0.7-0.1-1.4-0.2-2.1-0.3
				C133.7,211,133.5,210.9,133.3,210.9z M83.1,340.2c-0.2-0.3-0.5-0.7-0.5-1c0.6-3.1-1.4-5.8-1.4-8.8c-0.1-4.3-2.7-7.8-4.2-11.7
				c-0.6-1.5-1.3-3.1-2-4.6c0.3-0.1,0.5-0.3,0.8-0.4c0.6,0.7,1.2,1.5,1.7,2.2c4,6.2,5.4,13.2,6.5,20.3c0.2,1.4,0.5,2.7,0.8,4.1
				C84.1,340.2,83.6,340.2,83.1,340.2z"/>
			<path fill="none" d="M220.4,172c-0.4-3.6,0-7.4-0.7-10.9c-0.4-2.2-2-4.2-3.4-6c-1.1-1.4-2.8-0.6-3.9,0.4c-1.1,1.1,0,1.9,0.6,2.7
				c0.3,0.4,0.8,0.7,1.2,1.1c1.8,1.9,3.3,3.9,2.9,6.6c-0.3,2.3-0.4,4.6-1.1,6.7c-0.7,2.2,0,3.9,1.1,5.6c2,3.2,4.1,6.2,6.2,9.3
				c0.7,1,1.4,2,2.1,3.1c0.3-0.3,0.7-0.7,1-1c-0.7-1-1.5-2-2-3C222.1,182,221,177,220.4,172z"/>
			<path fill="#685234" d="M556.5,206.8c-0.2-2.3-1.1-4.5-1.9-6.7c-0.7-2-2.3-3.8-2.5-5.8c-0.8-6.9-1.2-13.9-3.3-20.6
				c-0.7-2.4-1.3-4.8-2.3-7c-1.5-3.6-3.4-7.1-4.9-10.7c-3-7.3-7.8-13.3-12.8-19.3c-0.9-1.1-1.8-2.3-2.2-3.6c-1-3.4-1.6-7-2.4-10.5
				c0.3-0.1,0.8-0.4,1.3-0.6c-1.6,0.2-2.4-0.6-3.3-1.9c-3-4.4-6.6-8.2-11.5-10.5c-1.1-0.5-2.2-1-3.3-1.5c-0.4-0.1-0.8-0.2-1.2-0.3
				c-0.2-0.1-0.3-0.2-0.5-0.3c-4.3-0.4-10.1,3.5-12,9c-0.6,1.7,0.5,5.6,1.8,6.6c0.4,0.3,1.2,0.4,1.5,0.1c0.4-0.4,0.8-1.3,0.7-1.7
				c-1.2-3.3,0.3-5.6,2.5-7.7c2.3-2.2,5.3-2,7.2,0.7c2,2.8,0.6,5.6-0.6,8.2c-1,2.2-2.3,4.5-4.2,5.9c-2.2,1.6-5,2.7-7.7,3.1
				c-6.5,0.9-12.1-1.8-17.2-5.5c-2.8-2-4.6-5.3-5.3-8.7c-0.4-2,0.8-4.4,1.2-6.6c0.1-0.8,0-1.7,0.1-2.6c-0.6-0.4-1.2-0.7-1.7-1.1
				c-2,0-3.9-0.1-5.9-0.1c-0.4,0.1-0.9,0.1-1.3,0.2c-0.7,0.1-1.4,0.2-2.1,0.3c-0.2,0.1-0.5,0.2-0.7,0.3c-1.1,0.1-2.2,0.1-3.3,0.2
				c-2.6,0.5-5.3,1-7.9,1.5c-0.6,0.1-1.2,0.2-1.8,0.3c-0.4,0.1-0.9,0.1-1.3,0.2c-1.3,0-2.7,0-4,0c-1.6,0.2-3.2,0.3-4.7,0.5
				c-1.1,0.1-2.2,0.2-3.2,0.4c-1.4,0.2-2.8,0.3-4.1,0.5c-1,0.1-2,0.2-3,0.4c-0.3,0.1-0.6,0.1-0.9,0.2c-0.4,0.1-0.9,0.2-1.3,0.3
				c-0.8,0.1-1.6,0.1-2.3,0.2c-0.5,0.1-1.1,0.2-1.6,0.3l-0.2,0.1c-1,0.1-2,0.2-3,0.3c-0.2,0.1-0.5,0.1-0.7,0.2
				c-0.6,0.1-1.1,0.2-1.7,0.3c-0.4,0.1-0.7,0.1-1.1,0.2c-0.6,0.1-1.1,0.1-1.7,0.2c-0.4-0.1-0.8-0.1-1.2-0.2
				c-0.8,0.1-1.6,0.2-2.4,0.3c-0.4,0-0.7,0-1.1,0c-0.7,0-1.4,0-2.1,0c-1.3-0.3-2.6-0.6-3.9-0.9c-0.4-0.1-0.7-0.2-1.1-0.3
				c-0.6-0.2-1.1-0.4-1.7-0.6c-0.3-0.1-0.7-0.2-1-0.3c-0.6-0.2-1.2-0.4-1.7-0.6c-0.4-0.1-0.8-0.2-1.1-0.3c-0.3-0.1-0.5-0.1-0.8-0.2
				c-1.3-0.1-2.6-0.2-3.8-0.3c-0.2,0-0.5,0-0.7,0c-0.4,0.1-0.9,0.2-1.3,0.3c-0.3,0.1-0.6,0.1-0.9,0.2c-1.1,0.1-2.2,0.2-3.3,0.3
				c-1.4,0.3-2.7,0.7-4.1,1c-0.4,0.1-0.7,0.2-1.1,0.4c-0.3,0.1-0.7,0.3-1,0.4c-4.4,2.2-8.8,4.4-13.3,6.7c-0.7,0.1-1.3,0.2-2,0.3
				c-0.6,0.1-1.2,0.1-1.7,0.2c-0.5,0.1-1,0.2-1.5,0.3c-0.8,0.1-1.5,0.1-2.3,0.2c-1.1,0.1-2.3,0.2-3.4,0.3c-0.5,0-1,0-1.5,0
				c-2-0.1-4-0.2-6-0.3c-2.4,0-4.8,0-7.1,0c-1.7,0.1-3.5,0.2-5.2,0.3c-1.4,0-2.9,0-4.3,0c-0.3,0-0.5,0-0.8,0c-1,0-2,0-3,0
				c-1.6,0-3.3,0-4.9,0c-1.7,0.1-3.5,0.3-5.2,0.4c-0.5-0.1-1-0.2-1.5-0.3c-1.9,0-3.7,0-5.6,0c-1.4,0-2.8,0-4.1,0c-0.3,0-0.6,0-1,0
				c-0.4,0-0.9,0-1.3,0c-1.1-0.1-2.1-0.1-3.2-0.2c-0.9,0-1.7,0-2.6,0c-1,0-2,0-3,0c-1.2,0-2.4,0-3.6,0c-3.1-0.2-6.2-0.3-9.3-0.5
				c-1.1-0.1-2.3-0.2-3.4-0.3c-0.4-0.1-0.8-0.1-1.2-0.2c-0.3,0-0.6,0-0.9,0c-0.3,0.1-0.5,0.1-0.8,0.2c-0.9,0-1.7,0-2.6,0
				c-1-0.2-2.1-0.4-3.1-0.6c-0.5-0.1-1-0.2-1.6-0.3c-2-0.2-4-0.4-5.9-0.6c-0.8-0.1-1.6-0.1-2.3-0.2c-0.3-0.1-0.6-0.2-0.9-0.3
				c-1.1-0.1-2.2-0.2-3.3-0.3c-0.3-0.1-0.5-0.1-0.8-0.2c-0.3-0.1-0.7-0.2-1-0.3c-0.7,0-1.3-0.1-2-0.1l-0.1,0l-0.1-0.1
				c-0.3,0-0.6,0-0.9,0c-0.7-0.1-1.3-0.2-2-0.3c-0.8,0-1.6-0.1-2.4-0.1c-0.6-0.1-1.2-0.2-1.7-0.4c-0.4-0.1-0.8-0.1-1.2-0.2
				c-0.5-0.1-1-0.2-1.5-0.3c-0.5-0.1-1.1-0.1-1.6-0.2c-0.3,0-0.6,0-1,0c-0.9-0.2-1.8-0.3-2.8-0.5c-0.7-0.1-1.3-0.2-2-0.3
				c-0.3-0.1-0.6-0.1-0.9-0.2c-0.8-0.1-1.6-0.2-2.4-0.3c-0.2-0.1-0.5-0.1-0.7-0.2c-0.7-0.1-1.3-0.2-2-0.3c-0.3-0.1-0.6-0.1-0.9-0.2
				c-0.9,0-1.7,0-2.6,0c-1.1-0.2-2.3-0.3-3.4-0.5c-0.7-0.1-1.3-0.2-2-0.3c-0.8-0.1-1.7-0.1-2.5-0.2c-1-0.1-2-0.2-3-0.3
				c-0.7-0.1-1.5-0.1-2.2-0.2c-0.6-0.1-1.3-0.2-1.9-0.3c-0.5-0.1-0.9-0.1-1.4-0.2c-0.8-0.1-1.6-0.2-2.4-0.3
				c-0.4-0.1-0.8-0.1-1.2-0.2c-0.5-0.1-1-0.2-1.5-0.3c-0.3-0.1-0.5-0.1-0.8-0.2c-1-0.1-1.9-0.2-2.9-0.3c-0.5,0-1,0-1.5,0
				c-0.4,0.1-0.7,0.2-1.1,0.3c-0.3,0.1-0.5,0.1-0.8,0.2c-0.5,0.1-1,0.2-1.5,0.3c-0.3,0.1-0.6,0.1-0.9,0.2c-0.5,0.1-1,0.2-1.5,0.4
				c-1.7,0.7-3.5,1.3-5.2,2c-0.4,0.1-0.8,0.2-1.2,0.3c-5.8,2.6-11.1,6.4-17.5,7.7c-2,0.1-4.1,0.1-6.1,0.2c-3.6,0.4-7.2,0.6-10.8,1.1
				c-5.3,0.8-10.5,5.6-10.4,11.4c0,0.6-0.2,1.2-0.5,1.7c-1.9,3.8-3.6,7.7-3.7,12c0,1.6-0.2,3.2-0.6,4.7c-0.8,3.2-1.8,6.3-2.6,9.5
				c-0.6,2.6-1,5.2-1.2,7.9c-0.3,3.2-0.6,6.4-0.5,9.6c0.1,2.5,0.8,5.1,1.3,7.6c0.4,2.1,1.2,4.2,1.4,6.4c0.3,2.7,0.3,5.5,0.3,8.2
				c0,1.8,0,3.6,0,5.4l0.5,0.1l0.3,0c0,0,0.1,0,0.1,0l0.9,0.2l1.9,0.3c0,0,0,0,0.1,0l2.5,0.4l0.2,0l0.5,0c0.1,0,0.2,0,0.3,0l0,0
				l1.6,0.2c0.1,0,0.2,0,0.3,0l0.6,0.1l0.8,0.2l1.1,0.1l0.1,0c0.1,0,0.1,0,0.2,0l0.9,0.2l0.6,0.1l1,0l1.2,0.1c0.1,0,0.2,0,0.3,0
				l1.8,0.3l0.6,0h0.1c0.2,0,0.4,0,0.7,0.1l1.6,0.1c0.3,0,0.5,0.1,0.8,0.1l0.7,0.2l0.2,0.1l0.5,0.1l3.1,0.3c0.2,0,0.5,0.1,0.7,0.1
				l0.6,0.2l2,0.1c0,0,0.1,0,0.1,0l5.9,0.6c0.1,0,0.2,0,0.3,0l1.6,0.3c0,0,0.1,0,0.1,0l2.8,0.6l1.9,0l0.4-0.1l0.1,0
				c0.2,0,0.4-0.1,0.7-0.1c0,0,0,0,0,0l0.9,0c0.2,0,0.3,0,0.5,0l1.1,0.2l0.4,0l2.9,0.3l4.6,0.2l4.6,0.2l1.8,0l1.8,0l2.9,0h2.6
				c0.1,0,0.1,0,0.2,0l3.1,0.2l1.2,0l0.3,0l0.6,0c0,0,0,0,0.1,0c0,0,0,0,0,0l2.1,0l2.1,0l5.6,0c0,0,0,0,0,0c0.2,0,0.4,0,0.6,0.1
				l1.1,0.2l4.4-0.4l0.4,0c0.1,0,0.2,0,0.3,0c0,0,0,0,0,0l2.5,0l2.4,0l1.5,0h1.5h0.8h4h0.2l2.4-0.1l2.7-0.2c0.1,0,0.1,0,0.2,0l3.6,0
				l3.6,0h0c0,0,0.1,0,0.2,0l5.9,0.3l0.7,0l0.6,0l3.2-0.3c0,0,0,0,0.1,0l1.1-0.1l0.9-0.1l0.5-0.1l0.7-0.1c0.1,0,0.3,0,0.4-0.1
				l0.9-0.1l0.8-0.1l0.4-0.1l0.9-0.1l2.5-1.3c3.4-1.7,6.8-3.4,10.2-5.2c0.4-0.2,0.7-0.3,1-0.4c0.1,0,0.2-0.1,0.3-0.1
				c0.1,0,0.1-0.1,0.2-0.1l0.5-0.2l0.5-0.2c0.1,0,0.2,0,0.2-0.1l2.2-0.5l1.9-0.5c0.2,0,0.4-0.1,0.5-0.1l3.1-0.3l0.6-0.1l0,0l0.6-0.1
				l0.7-0.1c0.2-0.1,0.5-0.1,0.7-0.1l0.7,0c0,0,0,0,0,0c0.1,0,0.2,0,0.3,0l2,0.1l1.8,0.1c0.2,0,0.4,0,0.5,0.1l0.4,0.1l0.4,0.1
				c0,0,0.1,0,0.1,0l0.6,0.2l0.6,0.2c0.1,0,0.1,0,0.2,0.1l0.8,0.3l0.8,0.3l0.9,0.3c0.1,0,0.1,0,0.2,0l0.1,0l1.5,0.5l0.9,0.3l0.1,0
				l1.6,0.4l1.7,0.4l1,0l0.6,0l0.9,0l1.1-0.1l1.1-0.1c0.1,0,0.3,0,0.4,0c0.2,0,0.4,0,0.5,0l0.6,0.1l0.1,0l1.1-0.1l1-0.2l1.5-0.3l0,0
				l0.6-0.2c0.1,0,0.3-0.1,0.4-0.1l2.5-0.3c0.1,0,0.2-0.1,0.3-0.1l0.3-0.1l1.3-0.3c0.1,0,0.3,0,0.4-0.1l1.2-0.1l0.9-0.1l1.1-0.2
				l0.8-0.2c0.1,0,0.2,0,0.3,0l1.9-0.2l1.1-0.1l2.1-0.3l2.1-0.3l1.6-0.2l1.6-0.2c0,0,0,0,0,0l4.7-0.5c0.1,0,0.2,0,0.3,0h3.8l1-0.1
				l0.1,0l1.5-0.2l0.2,0l7.8-1.5c0.1,0,0.3,0,0.4-0.1l2.1-0.1l0.7,0l0.3-0.1c0.2-0.1,0.5-0.1,0.7-0.2l1.1-0.1l1.1-0.1l0.1,0l1.2-0.1
				c0.1,0,0.3,0,0.4,0c0,0,0.1,0,0.1,0l5.9,0.1c0.4,0,0.8,0.1,1.2,0.3c0.9-0.8,1.8-1.6,3.1-2.1c2.4-1,4.9-1.9,7.3-2.8
				c2.1-0.8,4.4-1.6,6.5-2.4c6.6-2.7,9.9-6.7,10.1-12.6c0.1-2.5,0-5-0.1-7.7c-0.1-1.7-0.2-3.5-0.2-5.2c0-1.3,0.4-2.4,0.7-3.2
				c0.1-0.2,0.2-0.5,0.2-0.7c0.3-0.9,0.9-1.7,1.8-2.1c0.5-0.2,0.9-0.3,1.4-0.3c0.4,0,0.9,0.1,1.3,0.3c0.1,0.1,0.4,0.1,0.7,0.2
				c1,0.3,2.6,0.8,3.7,2.2c0.8,1.1,1.6,2.2,2.3,3.4c-0.2-0.9-0.1-1.7,0-2.4c0.4-2.4,3.1-3.6,4.9-3.6c0.2,0,0.4,0,0.5,0
				c4.3,0.6,7.9,2.9,10.6,7c1.4,2.1,2.7,4.4,3.9,6.5l0.5,1c4.1,7.3,6.3,14.5,6.7,22c0.5,9.1-3.2,16.4-11.2,22.5
				c0,0.2,0.1,0.4,0.1,0.6c0.5,2.5,1,4.9,1.7,7.3c0.2,0.8,1.1,1.9,1.5,2.3c5,5.9,10.1,12.3,13.3,20.1c0.7,1.7,1.5,3.4,2.3,5.2
				c0.5-1.6,1-3.2,1.5-4.8c1.6-5.2,3.1-10.3,4.7-15.4c0.8-2.5,2.2-4.8,2.5-7.3c0.4-4.5,3.2-7.6,5.8-10.7c2-2.4,2.2-3.3-0.3-5.4
				c-3.5-2.9-7-5.7-10.4-8.6c-0.9-0.7-1.5-1.8-2.6-3c0.9,0.2,1.1,0.1,1.3,0.3c4.7,3.5,9.1,7.5,14.1,10.5c3.4,2.1,7.5,3.5,11.5,4.4
				c3.3,0.8,6.8,0.7,10.2,0.6c7.7-0.1,15.4-0.4,23.1-0.7c1.4-0.1,1.9,0.4,2.5,1.4c1.3,2.3,2.7,4.5,4.1,6.8c1.4,2.3,3.3,3.2,6,3
				c2.8-0.2,5.7,0.2,8.5,0.1c1.3-0.1,2.5-1.1,3.8-1.5c0.7-0.2,1.6,0,2.2-0.4c3.5-2.2,7-4.2,10.2-6.7c2.7-2.1,5-4.8,7.1-7.4
				C555.9,210,556.6,208.2,556.5,206.8z M225.5,190.6c-0.7-1-1.4-2-2.1-3.1c-2.1-3.1-4.2-6.2-6.2-9.3c-1.1-1.7-1.8-3.4-1.1-5.6
				c0.7-2.2,0.8-4.5,1.1-6.7c0.4-2.8-1.1-4.8-2.9-6.6c-0.4-0.4-0.8-0.7-1.2-1.1c-0.6-0.8-1.8-1.6-0.6-2.7c1.1-1,2.7-1.8,3.9-0.4
				c1.4,1.8,3,3.9,3.4,6c0.7,3.6,0.3,7.3,0.7,10.9c0.5,5.1,1.7,10,4.1,14.6c0.6,1.1,1.3,2,2,3C226.2,189.9,225.9,190.3,225.5,190.6z
				 M255.3,195.3c1.9-6.9,3-14.1,6.7-20.4C261.3,182.1,259,188.9,255.3,195.3z M268.5,190.3c1.3-4.8,2.6-9.6,4.1-15
				c0.6,0.7,1.2,1.2,1.2,1.5C272.3,181.4,271.8,186.3,268.5,190.3z M280.3,196.5c0,0-0.1,0.1-0.1,0.1c0-3.6,0-7.2,0-10.8
				c0-1.3-0.4-2.6-0.4-3.8c0.1-0.8,0.7-1.7,1-2.5c0.4,0.7,1.1,1.4,1.1,2.1C281.5,186.5,280.9,191.5,280.3,196.5z M469.1,159
				c-0.4,0.2-0.8,0.4-1.3,0.5c-3,1.4-6,2.9-9,4.3c-0.5,0.1-1,0.2-1.6,0.3c-1.1,0.3-2.3,0.7-3.5,1c-0.8,0.2-1.5,0.3-2.3,0.5
				c-0.9,0-1.8-0.1-2.7-0.1c-0.6-0.1-1.3-0.2-1.9-0.3c-0.8-0.1-1.5-0.1-2.3-0.2c-0.6-0.1-1.2-0.2-1.8-0.3c-2.2-1-4.5-2-6.7-2.9
				c-2.5-1-3.3-3.6-1.5-5.6c1.8-2,3.7-3.8,5.9-5.3c1.9-1.3,3.5-2.5,5-4.4c3.1-3.9,6.5-7.5,10.1-10.9c2.7-2.5,5.8-4.5,8.9-6.5
				c1-0.6,2.5-0.5,4-0.3c-1.7,1-3.4,2.2-5.1,3c-5.1,2.4-8.4,6.7-11.7,11c-2.9,3.7-5.2,8-9.7,10.2c-1.1,0.5-2.3,0.8-3.3,1.5
				c-2.1,1.4-2.7,3.8,0,5.4c5.6,3.3,11.3,4.4,17.4,1.7c4.5-1.9,9.2-3.4,13.4-5.8c4.6-2.7,9.1-5.7,12.7-9.8c1.9-2.1,3.1-4.8,4.7-7.2
				c0.3-0.5,0.7-1,1.3-1.2C484.4,147.1,478,154.2,469.1,159z M519.4,169c-0.5,0-1.1,0.1-1.6,0.1c-2.2-0.9-4.3-1.8-6.5-2.6
				c-0.4-0.1-0.7-0.2-1.1-0.3l-0.1,0c-0.7-0.1-1.4-0.3-2.2-0.4c-0.3-0.1-0.6-0.1-0.9-0.2c-0.5-0.1-1-0.2-1.4-0.3
				c-3.2-1.4-3.9-4.5-4.6-7.4c-0.6-2.3,1.1-3.6,2.6-5c1.3-1.2,2.5-0.9,4-0.4c7,2.5,10.1,8.1,11.9,14.7
				C519.7,167.7,519.5,168.4,519.4,169z M541.7,216.2c-1.4,1.1-3.1,1.9-5.2,3.1c-0.1-1.7-0.3-2.9-0.3-4.2c0-3.2-0.5-6.2-2.6-8.7
				c-1-1.2-0.7-2.1,0.7-2.8c3.3-1.6,7.3-0.8,8.8,2C545.5,210.1,545.4,213.1,541.7,216.2z"/>
			<path fill="#7C5F32" d="M134.5,384.5c-2.6-1.4-5.4-2.6-8.2-3.8c-0.4,1-0.7,2-0.8,3c-0.4,2.6,1,4.2,3.5,3.5c2.5-0.7,4.7-0.2,7,0.5
				c0-0.1,0-0.3,0-0.4C135.9,386.1,135.5,385,134.5,384.5z"/>
			<path fill="#7C5F32" d="M135.2,227c-0.5,3.4-1.1,6.8-1.5,10.2c-0.3,2.7,0,5.5-0.7,8.1c-1,3.4-1,6.5-0.1,9.8
				c0.1,0.5,0.3,1,0.4,1.5c1.1,6.3,0.8,12.7,2.6,19c2.3,7.6,2,15.6,2.2,23.5c0,1.2,0,2.6-0.6,3.5c-2.1,3.3-4.5,6.3-6.7,9.5
				c-2.5,3.5-4.3,7.1-3.1,11.7c1.5,6.1,2.6,12.3,2.4,18.6c-0.1,3.8,0.1,7.6,0.1,11.3c0,5.1,0,10.2-0.2,15.3
				c-0.1,2.3-0.4,4.8-1.4,6.9c-0.3,0.6-0.5,1.1-0.8,1.7c0.1,0.1,0.2,0.1,0.4,0.2c2.6,1.1,5.4,2.3,8,3.7c1.4,0.7,2.4,2,2.9,3.6
				c0.7,0.4,1.4,0.7,2.1,1.1c1.2,0.6,2.5,1.2,3.7,1.9c4.8-1.4,9.6-2.8,14.3-4.3c1.3-0.4,2.4-1.6,3.4-2.5c0.2-0.2,0-0.9-0.1-1.4
				c-1.1-2.3-2.3-4.6-3.1-7c-1.1-3-1.9-6.2-2.8-9.3c-0.3-1-0.9-2-0.9-3c0.2-4.1,0.6-8.1,1-12.2c0.4-4.4,0.9-8.8,1.3-13.2
				c0.3-2.9,0.6-5.7,3.2-7.8c2.9-2.3,5.9-4.7,8.5-7.5c6.4-6.9,12.8-13.9,18.8-21.2c3.4-4.2,5.9-9.1,9-13.7c1.4-2.1,2.8-4.2,4.6-5.9
				c5-4.5,10.3-8.6,15.2-13.2c3.2-3,5.7-6.7,6.4-11.3c0.2-1,1-2,1.5-2.9c0.3,0.1,0.6,0.3,0.9,0.4c-0.8,2.8-1.1,5.8-2.4,8.4
				c-1.9,3.9-5.2,7-8.6,9.7c-4,3.2-8,6.4-12,9.7c-1.9,1.6-1.8,2.5,0.2,3.7c0.8,0.5,2.1,0.7,3,0.5c1.8-0.5,3.4-1.3,5.1-2.1
				c3.9-1.6,7.9-2.4,11.8-0.4c5.3,2.7,10.5,5.6,15.9,8.4c6.4,3.3,12.9,6.4,19.3,9.6c3.1,1.5,6.2,2.9,9.2,4.6
				c2.3,1.3,2.8,4.1,1.7,6.4c-1.4,2.9-2.3,5.7,0.1,8.7c1.4,1.9,1.4,4.3,0.3,6.6c-0.2,0.5-0.4,1.1-0.6,1.6c0.1,0.1,0.2,0.1,0.4,0.2
				c0.7-1,1.3-1.9,2.3-3.4c-0.2,2.7-0.5,4.6-0.5,6.6c0,1.9,0.1,3.8,0.2,5.7c3.7-8.1,5.6-16.5,6.2-25.1c0.1,2.1,0.2,4.2,0.3,6.3
				c0.3,0,0.6,0,0.9,0c0.5-2.5,1.2-5,1.6-7.6c0.6-4.8,2-6.8,5.9-7.8c5.7-1.5,11.5-1.5,17.4-1.1c1.4,0.1,2.9,0.6,4.3,0.5
				c3.5-0.3,7-0.6,10.4-1.2c5.8-1.1,11.7-2.1,17.4-3.8c6.1-1.8,12.1-3,18.4-1.4c0.6,0.2,1.7-0.2,2.1-0.7c0.4-0.5,0.2-1.5,0-2.2
				c-1-2.6-2.3-5.1-3.1-7.7c-0.8-2.6-1.2-5.3-1.6-8c-0.6-4.5-1-9-1.5-13.5c0.2,0,0.4-0.1,0.7-0.1c0.2,0.3,0.5,0.6,0.6,1
				c0.8,4.2,1.9,8.4,2.3,12.7c0.6,6.3,2.5,12.3,5.1,18c1.6,3.6,3.5,7.1,5.3,10.6c1.2,0.9,2.4,1.7,3.7,2.5c3.4,2.1,7.5,3.5,11.5,4.4
				c0.5,0.1,1.1,0.2,1.6,0.3c0.1,0,0.3,0,0.4,0.1c0.4,0.1,0.9,0.1,1.3,0.2c0.1,0,0.2,0,0.3,0c0.5,0,1.1,0.1,1.6,0.1
				c0.1,0,0.3,0,0.4,0c0.4,0,0.9,0,1.3,0c0.1,0,0.2,0,0.4,0c0.9,0,1.9,0,2.8,0c6.3-0.1,12.7-0.3,19-0.6c0.2-0.4,0.4-0.9,0.7-1.3
				c6.6-9.8,10.6-20.6,12.8-32.2c1.2-6.8,2.3-13.6,3.8-20.3c0.9-4.2,3-7.8,7.2-10.5c-0.5,1.4-0.6,2.5-1.2,3.2
				c-3.4,4.5-4.8,9.8-6,15.1c-1.9,8.3-2.3,16.9-5.6,24.9c-0.2,0.5-0.2,1.3,0.1,1.6c0.3,0.3,1.2,0.4,1.6,0.2c1.2-0.7,2.3-1.5,3.3-2.4
				c1.3-1.2,2.5-2.5,3.8-3.7c1.3-1.1,3.1-1.8,4.1-3.1c2.6-3.2,4.9-6.6,7.3-9.9c3-4.2,5.2-8.7,7-13.4c-1.3-2.8-2.7-5.6-3.9-8.4
				c-3-7.3-7.8-13.3-12.8-19.3c-0.9-1.1-1.8-2.3-2.2-3.6c-1-3.4-1.6-7-2.4-10.5c0.3-0.1,0.8-0.4,1.3-0.6c6.8-5,10.9-11,10.4-20
				c-0.4-7.5-2.7-14.2-6.3-20.6c-1.4-2.4-2.7-4.9-4.3-7.3c-2-2.9-4.6-5-8.3-5.5c-0.1,0-0.1,0-0.2,0c0,0-0.1,0-0.1,0c0,0-0.1,0-0.1,0
				c0,0-0.1,0-0.1,0c0,0-0.1,0-0.2,0c0,0-0.1,0-0.1,0c-0.1,0-0.1,0-0.1,0.1c0,0-0.1,0-0.1,0c0,0-0.1,0.1-0.1,0.1c0,0-0.1,0-0.1,0.1
				c0,0-0.1,0.1-0.1,0.1c0,0-0.1,0-0.1,0.1c0,0-0.1,0.1-0.1,0.1c0,0,0,0,0,0.1c0,0.1-0.1,0.1-0.1,0.1c-0.1,0.7,0,1.8,0.5,2.3
				c2.8,3.5,6,6.7,6.8,11.3c0.6,3.2,1,6.6,1.1,9.9c0.1,2.8-0.1,5.6-0.6,8.4c-0.5,2.5-1.7,4.9-4.1,6.3c-2.5,1.5-5.3,2-8.2,2
				c-1.1-0.5-2.2-1-3.3-1.5c-0.4-0.1-0.8-0.2-1.2-0.3c-0.2-0.1-0.3-0.2-0.5-0.3c-0.7-0.2-1.5-0.4-2.2-0.6c2-3.1,4.1-6.1,5.8-9.2
				c1.5-2.8,3.2-5.6,2.8-9c-0.5-4.5-1-8.9-2-13.3c-0.4-2-1.8-4-3.1-5.7c-0.5-0.8-1.9-0.9-2.9-1.3c-0.3,0.9-0.8,1.9-0.8,2.8
				c0,4.4,0.5,8.8,0.3,13.1c-0.4,8-5.3,12.7-12.2,15.5c-4.5,1.9-9.2,3.3-13.7,5.2c-1.5,0.6-2.6,2.1-4,3.2c-0.6-0.4-1.2-0.7-1.7-1.1
				c-2,0-3.9-0.1-5.9-0.1c-0.4,0.1-0.9,0.1-1.3,0.2c-0.7,0.1-1.4,0.2-2.1,0.3c-0.2,0.1-0.5,0.2-0.7,0.3c-1.1,0.1-2.2,0.1-3.3,0.2
				c-2.6,0.5-5.3,1-7.9,1.5c-0.6,0.1-1.2,0.2-1.8,0.3c-0.4,0.1-0.9,0.1-1.3,0.2c-1.3,0-2.7,0-4,0c-1.6,0.2-3.2,0.3-4.7,0.5
				c-1.1,0.1-2.2,0.2-3.2,0.4c-1.4,0.2-2.8,0.3-4.1,0.5c-1,0.1-2,0.2-3,0.4c-0.3,0.1-0.6,0.1-0.9,0.2c-0.4,0.1-0.9,0.2-1.3,0.3
				c-0.8,0.1-1.6,0.1-2.3,0.2c-0.5,0.1-1.1,0.2-1.6,0.3l-0.2,0.1c-1,0.1-2,0.2-3,0.3c-0.2,0.1-0.5,0.1-0.7,0.2
				c-0.6,0.1-1.1,0.2-1.7,0.3c-0.4,0.1-0.7,0.1-1.1,0.2c-0.6,0.1-1.1,0.1-1.7,0.2c-0.4-0.1-0.8-0.1-1.2-0.2
				c-0.8,0.1-1.6,0.2-2.4,0.3c-0.4,0-0.7,0-1.1,0c-0.7,0-1.4,0-2.1,0c-1.3-0.3-2.6-0.6-3.9-0.9c-0.4-0.1-0.7-0.2-1.1-0.3
				c-0.6-0.2-1.1-0.4-1.7-0.6c-0.3-0.1-0.7-0.2-1-0.3c-0.6-0.2-1.2-0.4-1.7-0.6c-0.4-0.1-0.8-0.2-1.1-0.3c-0.3-0.1-0.5-0.1-0.8-0.2
				c-1.3-0.1-2.6-0.2-3.8-0.3c-0.2,0-0.5,0-0.7,0c-0.4,0.1-0.9,0.2-1.3,0.3c-0.3,0.1-0.6,0.1-0.9,0.2c-1.1,0.1-2.2,0.2-3.3,0.3
				c-1.4,0.3-2.7,0.7-4.1,1c-0.4,0.1-0.7,0.2-1.1,0.4c-0.3,0.1-0.7,0.3-1,0.4c-4.4,2.2-8.8,4.4-13.3,6.7c-0.7,0.1-1.3,0.2-2,0.3
				c-0.6,0.1-1.2,0.1-1.7,0.2c-0.5,0.1-1,0.2-1.5,0.3c-0.8,0.1-1.5,0.1-2.3,0.2c-1.1,0.1-2.3,0.2-3.4,0.3c-0.5,0-1,0-1.5,0
				c-2-0.1-4-0.2-6-0.3c-2.4,0-4.8,0-7.1,0c-1.7,0.1-3.5,0.2-5.2,0.3c-1.4,0-2.9,0-4.3,0c-0.3,0-0.5,0-0.8,0c-1,0-2,0-3,0
				c-1.6,0-3.3,0-4.9,0c-1.8,0.1-3.5,0.3-5.2,0.4c-0.5-0.1-1-0.2-1.5-0.3c-1.9,0-3.7,0-5.6,0c-1.4,0-2.8,0-4.1,0c-0.3,0-0.6,0-1,0
				c-0.4,0-0.9,0-1.3,0c-1.1-0.1-2.1-0.1-3.2-0.2c-0.9,0-1.7,0-2.6,0c-1,0-2,0-3,0c-1.2,0-2.4,0-3.6,0c-3.1-0.2-6.2-0.3-9.3-0.5
				c-1.1-0.1-2.3-0.2-3.4-0.3c-0.4-0.1-0.8-0.1-1.2-0.2c-0.3,0-0.6,0-0.9,0c-0.3,0.1-0.5,0.1-0.8,0.2c-0.9,0-1.7,0-2.6,0
				c-1-0.2-2.1-0.4-3.1-0.6c-0.5-0.1-1-0.2-1.6-0.3c-2-0.2-4-0.4-5.9-0.6c-0.8-0.1-1.6-0.1-2.3-0.2c-0.3-0.1-0.6-0.2-0.9-0.3
				c-1.1-0.1-2.2-0.2-3.3-0.3c-0.3-0.1-0.5-0.1-0.8-0.2c-0.3-0.1-0.7-0.2-1-0.3c-0.7,0-1.3-0.1-2-0.1l-0.1,0l-0.1-0.1
				c-0.3,0-0.6,0-0.9,0c-0.7-0.1-1.3-0.2-2-0.3c-0.8,0-1.6-0.1-2.4-0.1c-0.6-0.1-1.2-0.2-1.7-0.4c-0.4-0.1-0.8-0.1-1.2-0.2
				c-0.5-0.1-1-0.2-1.5-0.3c-0.5-0.1-1.1-0.1-1.6-0.2c-0.3,0-0.6,0-1,0c-0.9-0.2-1.8-0.3-2.8-0.5c-0.7-0.1-1.3-0.2-2-0.3
				c-0.3-0.1-0.6-0.1-0.9-0.2c-0.1,0-0.2,0-0.3,0c0,2.9,0,5.8-0.1,8.7C135.9,222.3,135.5,224.6,135.2,227z M405.7,249.1
				c0.2-0.2,0.3-0.3,0.5-0.4c0.1,0,0.1-0.1,0.2-0.1c0.1-0.1,0.2-0.1,0.3-0.2c0.1,0,0.1,0,0.2-0.1c0.1,0,0.2-0.1,0.3-0.1
				c0.1,0,0.1,0,0.2,0c0.1,0,0.2,0,0.3,0c0,0,0,0,0,0c0.1,0,0.2,0,0.2,0c0.1,0,0.1,0,0.2,0c0.1,0,0.2,0,0.3,0.1c0.1,0,0.1,0,0.2,0
				c0.1,0,0.3,0.1,0.4,0.1c0,0,0.1,0,0.1,0c0.2,0.1,0.4,0.1,0.5,0.2c7,2.5,10.1,8.1,11.9,14.7c0.1,0.6,0,1.2-0.1,1.8
				c-0.5,0-1.1,0.1-1.6,0.1c-2.2-0.9-4.3-1.8-6.5-2.6c-0.4-0.1-0.7-0.2-1.1-0.3l-0.1,0c-0.7-0.1-1.4-0.3-2.2-0.4
				c-0.3-0.1-0.6-0.1-0.9-0.2c-0.5-0.1-1-0.2-1.4-0.3c-3.2-1.4-3.9-4.5-4.6-7.4C402.5,251.8,404.2,250.5,405.7,249.1z M336.6,252.5
				c1.8-2,3.7-3.8,5.9-5.3c1.9-1.3,3.5-2.5,5-4.4c3.1-3.9,6.5-7.5,10.1-10.9c2.7-2.5,5.8-4.5,8.9-6.5c0.1-0.1,0.3-0.2,0.4-0.2
				c0,0,0.1,0,0.2,0c0.1,0,0.2-0.1,0.3-0.1c0.1,0,0.1,0,0.2,0c0.1,0,0.2,0,0.3,0c0.1,0,0.1,0,0.2,0c0.1,0,0.2,0,0.3,0
				c0,0,0.1,0,0.1,0c0,0,0.1,0,0.1,0c0.3,0,0.6,0,0.8,0c0.1,0,0.1,0,0.2,0c0.3,0,0.5,0,0.8,0.1c-1.6,1-3.2,2-4.9,2.8
				c-1.4,5.4,1.8,9.2,2.9,13.7c-0.5-0.7-1.1-1.4-1.6-2.1c-1-1.4-1.9-2.8-2.9-4.2c-0.9-1.2-1.1-4.2-0.6-6.1c-4,2.5-6.8,6.2-9.7,9.9
				c-2.9,3.7-5.2,8-9.7,10.2c-1.1,0.5-2.3,0.8-3.3,1.5c-2.1,1.4-2.7,3.8,0,5.4c0.4,0.2,0.8,0.4,1.2,0.7c0.1,0.1,0.2,0.1,0.4,0.2
				c0.3,0.1,0.6,0.3,0.8,0.4c0.1,0.1,0.3,0.1,0.4,0.2c0.3,0.1,0.6,0.2,0.8,0.4c0.1,0.1,0.3,0.1,0.4,0.2c0.4,0.1,0.7,0.3,1.1,0.4
				c0.1,0,0.1,0,0.2,0.1c0.4,0.1,0.8,0.2,1.2,0.3c0.1,0,0.2,0,0.3,0.1c0.3,0.1,0.6,0.1,0.9,0.2c0.1,0,0.3,0,0.4,0.1
				c0.3,0,0.6,0.1,0.9,0.1c0.1,0,0.3,0,0.4,0c0.3,0,0.7,0,1,0c0.1,0,0.2,0,0.3,0c0.1,0,0.2,0,0.3,0c0.2,0,0.5,0,0.7,0
				c0.1,0,0.2,0,0.3,0c0.2,0,0.5,0,0.7-0.1c0.1,0,0.2,0,0.3,0c0.3-0.1,0.7-0.1,1-0.2c0.1,0,0.1,0,0.2,0c0.3-0.1,0.6-0.1,0.8-0.2
				c0.1,0,0.2-0.1,0.3-0.1c0.2-0.1,0.5-0.2,0.7-0.2c0.1,0,0.2-0.1,0.3-0.1c0.3-0.1,0.7-0.3,1-0.4c4.5-1.9,9.2-3.4,13.4-5.8
				c4.6-2.7,9.1-5.7,12.7-9.8c1.9-2.1,3.1-4.8,4.7-7.2c0.3-0.5,0.7-1,1.3-1.2c-3.6,9.4-10,16.5-18.9,21.3c-0.4,0.2-0.8,0.4-1.3,0.5
				c-3,1.4-6,2.9-9,4.3c-0.5,0.1-1,0.2-1.6,0.3c-1.2,0.3-2.3,0.7-3.5,1c-0.8,0.2-1.5,0.3-2.3,0.5c-0.9,0-1.8-0.1-2.7-0.1
				c-0.6-0.1-1.3-0.2-1.9-0.3c-0.8-0.1-1.5-0.1-2.3-0.2c-0.6-0.1-1.2-0.2-1.8-0.3c-2.2-1-4.5-2-6.7-2.9
				C335.7,257.1,334.8,254.5,336.6,252.5z M272.8,311.8c0,2,0,3.5,0,5.1C270.8,315.7,270.7,314.9,272.8,311.8z M183.9,277.8
				c-0.4,5-1,10-1.6,15c0,0-0.1,0.1-0.1,0.1c0-3.6,0-7.2,0-10.8c0-1.3-0.4-2.6-0.4-3.8c0.1-0.8,0.7-1.7,1-2.5
				C183.2,276.4,183.9,277.1,183.9,277.8z M173.8,217.4c0.6,0.7,1.2,1.5,1.7,2.2c4,6.2,5.4,13.2,6.5,20.3c0.2,1.4,0.5,2.7,0.8,4.1
				c-0.5,0-1,0-1.6,0c-0.2-0.3-0.5-0.7-0.5-1c0.6-3.1-1.4-5.8-1.4-8.8c-0.1-4.3-2.7-7.8-4.2-11.7c-0.6-1.5-1.3-3.1-2-4.6
				C173.2,217.6,173.5,217.5,173.8,217.4z M174.6,271.6c0.6,0.7,1.2,1.2,1.2,1.5c-1.4,4.6-2,9.6-5.2,13.5
				C171.8,281.8,173.1,276.9,174.6,271.6z M164,271.1c-0.7,7.3-3,14.1-6.7,20.4C159.2,284.6,160.4,277.4,164,271.1z"/>
			<path fill="#7C5F32" d="M415.3,170.2C415.3,170.2,415.2,170.2,415.3,170.2c0,0.2,0.1,0.5,0.2,0.8c0.9,4.3,1.4,8.6,1.9,12.8
				l0.1,0.9c0.5,4.2-1.4,7.7-3,10.6l-0.2,0.4c-1.1,2-2.3,3.9-3.5,5.7c0,0,0,0,0,0l2.6,1.2c2.4-0.1,4.3-0.6,5.9-1.5
				c1.3-0.8,2.1-2.1,2.5-4.1c0.5-2.3,0.7-4.9,0.6-7.6c-0.1-3-0.4-6.2-1-9.4c-0.6-3.2-2.7-5.8-5.1-8.5
				C416,171.1,415.6,170.6,415.3,170.2z"/>
			<path fill="#685234" d="M388.9,316.3c-0.8,0-1.6,0-2.5,0c-2.4,0-5.3-0.1-8.1-0.8c-3.1-0.7-5.8-1.6-8.2-2.6
				c-0.2,0.7-0.6,1.4-1.1,2.1c1.8,3.5,3.5,7.1,3.3,11.3c-0.1,2.5-0.1,4.9-0.1,7.4c-0.1,4.3,1.4,7.8,4.3,10.9
				c2.1,2.3,4.2,4.6,4.7,7.9c0.2,1.6,0.2,3.2,0.3,4.8c0.5,5.5,1.2,11.1-1.2,16.4c-0.6,1.3-0.2,2.2,1,2.9c1.2,0.7,3,1.2,3.4,2.3
				c1,2.9,3,4.6,5.6,5.7c1.8,0,3.6,0.2,5.4,0c4.5-0.8,8.9-1.8,13.4-2.6c2.1-0.4,3.2-1.9,4.5-3.4c1.1-2.4,0.5-4.7-0.3-7
				c-1.4-3.8-3-7.4-4.4-11.2c-1.4-3.9-2.6-7.9-3.6-12c-0.3-1.3,0.1-2.9,0.7-4.1c2.2-4.3,4.1-8.8,2.6-13.6c-1.3-4.2-1.4-8.5-1.2-12.7
				c0-0.7,0.1-1.5,0.1-2.2c-6.2,0.3-12.3,0.4-18.2,0.5L388.9,316.3z"/>
			<path fill="#7C5F32" d="M366.3,309.6c0.3,0.5,0.6,1.1,0.9,1.6C367.1,310.7,366.8,310.2,366.3,309.6z"/>
			<path fill="#7C5F32" d="M201.7,366.1c3.5-0.7,6.8-1.9,10.2-3.1c1.9-0.6,3.7-1.5,5.4-2.5c0.5-0.3,0.6-1.4,0.8-2.2
				c-0.2-1.1-0.3-2.1-0.5-3.2c-0.5-2.8-0.4-5.9-1.6-8.4c-1.1-2.4-1.2-4.6-1.2-7c0-2.2,0-4.5,0-6.7c0-1.2,0-2.4,0.2-3.5
				c0.6-3.2,1.4-6.3,2.1-9.5c0.7-3,0.6-6.2,2.9-8.7c0.8-0.9,1.8-1.7,2.5-2.7c3.6-4.9,7.1-9.7,10.6-14.6c1.3-1.8,1.2-4.7-0.6-5.7
				c-3.5-1.9-7.3-3.4-11-5.1c-0.4-0.1-0.7-0.2-1.1-0.3c-0.2,0-0.4,0-0.6,0c-0.4,0.1-0.8,0.2-1.1,0.3c-0.1,0.1-0.3,0.1-0.4,0.2
				c-0.6,0.1-1.2,0.2-1.8,0.3c-0.3,0.1-0.5,0.1-0.8,0.2c-1.4,0.1-2.9,0.2-4.3,0.3c-0.4,0.1-0.8,0.1-1.2,0.2
				c-0.8,0.1-1.6,0.2-2.4,0.3c-2.2,0.5-4.5,0.6-6.6,1.4c-3.1,1.2-5.3,3.5-6.7,6.7c-2.3,5.1-5,10-7.4,14.9c-1.1,2.2-1.8,4.3-0.5,6.9
				c1.9,4.1,3.1,8.4,2.8,13c-0.2,2.8-0.3,5.6-0.4,8.4c-0.2,4.1-0.2,8.1-0.6,12.2c-0.2,2.5-0.7,5.1-1.4,7.6c-0.4,1.5-1.3,2.8-1.7,4.3
				c-0.5,1.8,0.4,2.8,2.3,2.6c3.3-0.4,6,0.3,7.5,3.6C197.3,366.2,199.6,366.5,201.7,366.1z"/>
			<path fill="#7C5F32" d="M433.5,286c-0.5,0.7-1.3,1.1-1.7,1.8c-2.8,4.6-7.5,7.2-11.9,9.8c-1.8,1-2.5,2.3-2.6,4.2
				c-0.1,1.6-0.4,3.2-0.4,4.8c0,4.2-0.4,8.5,2.2,12.3c0.5,0.7,0.7,1.6,0.9,2.6c0.1,0.1,0.2,0.2,0.3,0.3c0.1,0.1,0.2,0.1,0.2,0.2
				c0.1,0.1,0.3,0.2,0.4,0.3c0.1,0.1,0.2,0.1,0.3,0.2c0.1,0.1,0.3,0.2,0.4,0.2c0.1,0.1,0.2,0.1,0.3,0.1c0.1,0.1,0.3,0.1,0.4,0.2
				c0.1,0,0.2,0.1,0.3,0.1c0.2,0,0.3,0.1,0.5,0.1c0.1,0,0.2,0,0.4,0.1c0.2,0,0.3,0,0.5,0c0.1,0,0.3,0,0.4,0c0.3,0,0.5,0,0.8,0
				c0.5,0,0.9,0,1.4,0c0,0,0.1,0,0.1,0c0.1,0,0.2,0,0.3,0c0.3,0,0.6,0,0.8,0c0.1,0,0.3,0,0.4,0c0.4,0,0.7,0,1.1,0c0.4,0,0.8,0,1.3,0
				c0.1,0,0.2,0,0.4,0c0.3,0,0.6,0,0.9,0c0.1,0,0.3,0,0.4,0c0.5,0,1,0,1.5,0c1.3-0.1,2.5-1.1,3.8-1.5c0.7-0.2,1.6,0,2.2-0.4
				c2.4-1.5,4.9-3,7.3-4.6c1.6-3.5,1.8-7.3,1.2-11.3c-0.5-3.6-2-7.3-0.7-11c0.6-1.6,1.4-3,1.8-4.6c1.2-4.3,2.1-8.6,3.3-12.9
				c-0.4-2.4-0.9-4.8-1.7-7.1c-0.6-1.9-1.1-3.9-1.8-5.8c-1,2-2.2,3.9-3.5,5.8C441.7,275.4,437.5,280.7,433.5,286z M443.7,312.5
				c-1.4,1.1-3.1,1.9-5.2,3.1c-0.1-1.7-0.3-2.9-0.3-4.2c0-3.2-0.5-6.2-2.6-8.7c-1-1.2-0.7-2.1,0.7-2.8c0.3-0.1,0.5-0.2,0.8-0.3
				c0.1,0,0.2-0.1,0.2-0.1c0.2-0.1,0.4-0.1,0.6-0.2c0.1,0,0.1,0,0.2-0.1c0.3-0.1,0.5-0.1,0.8-0.1c0.1,0,0.1,0,0.2,0
				c0.2,0,0.4,0,0.6,0c0,0,0.1,0,0.1,0c0,0,0.1,0,0.1,0c0.2,0,0.4,0,0.5,0c0.1,0,0.1,0,0.2,0c0.2,0,0.5,0.1,0.7,0.1
				c0.1,0,0.1,0,0.2,0c0.2,0,0.4,0.1,0.5,0.2c0.1,0,0.1,0.1,0.2,0.1c0.2,0.1,0.3,0.1,0.5,0.2c0.1,0,0.1,0.1,0.2,0.1
				c0.2,0.1,0.4,0.2,0.6,0.4c0,0,0,0,0.1,0.1c0.2,0.1,0.3,0.2,0.5,0.4c0.1,0,0.1,0.1,0.1,0.1c0.1,0.1,0.2,0.2,0.3,0.4
				c0,0.1,0.1,0.1,0.1,0.2c0.1,0.2,0.3,0.4,0.4,0.6C447.5,306.4,447.4,309.4,443.7,312.5z"/>
			<path fill="#544533" d="M453.3,266.8c0.2,0.7,0.4,1.4,0.6,2.2c0.2,0.6,0.3,1.1,0.5,1.7c0.8-2.4,1.6-4.9,1.5-7.6
				c-0.1-4.6,1.1-9.1,1.6-13.7c0.1-1.1-0.1-2.3-0.6-3.3c-0.5-1.2-1.7-1.6-2.4-0.2c-0.7,1.3-1,2.9-1.4,4.4c-0.8,3.3-1.2,6.8-2.3,9.9
				c0.2,0.6,0.5,1.1,0.7,1.7C452.3,263.3,452.8,265.1,453.3,266.8z"/>
			<path fill="#544533" d="M438.5,325.2c-0.1,0-0.1,0-0.2,0c-0.3,0.1-0.6,0.3-0.9,0.4c-1,0.5-2.2,1.1-3.7,1.2
				c-0.6,0-1.2,0.1-1.9,0.1c-1,0-1.9,0-2.8-0.1c-0.9,0-1.7-0.1-2.5-0.1c-0.5,0-0.9,0-1.3,0c-0.3,0-0.6,0-0.8,0
				c-1.8,0-3.3-0.4-4.6-1.1c-0.2,6.9-0.5,13.8-0.9,20.7c-0.1,1.3-0.7,2.8-1.5,3.8c-2,2.3-2.2,4.3,0.6,5.4c3.2,1.2,5.6,2.9,7.5,5.6
				c4.8-0.2,9.2-1.6,13.1-4.4c2.3-1.7,4.7-3.1,5-6.3c-0.2-0.7-0.5-1.5-0.5-2.2c-0.1-4.5,0-9-0.1-13.5c0-0.8-0.3-1.5-0.3-2.3
				c-0.1-3.1-0.6-6.2,0.4-9.2c-0.6,0.4-1.3,0.8-1.9,1.2C440.3,325.1,439.2,325.1,438.5,325.2z"/>
			<path fill="#D8D1BF" d="M473.8,110.9c-0.4,2.2-1.6,4.6-1.2,6.6c0.7,3.3,2.4,6.6,5.3,8.7c5.1,3.6,10.7,6.4,17.2,5.5
				c2.7-0.4,5.5-1.5,7.7-3.1c1.9-1.4,3.2-3.7,4.2-5.9c1.2-2.5,2.6-5.3,0.6-8.2c-1.9-2.6-5-2.9-7.2-0.7c-2.2,2.1-3.7,4.4-2.5,7.7
				c0.2,0.4-0.3,1.3-0.7,1.7c-0.2,0.2-1.1,0.1-1.5-0.1c-1.4-0.9-2.4-4.9-1.8-6.6c1.8-5.5,7.7-9.4,12-9c-0.7-0.2-1.5-0.4-2.2-0.6
				c2-3.1,4.1-6.1,5.8-9.2c1.5-2.8,3.2-5.6,2.8-9c-0.5-4.4-1-8.9-2-13.3c-0.4-2-1.8-4-3.1-5.7c-0.5-0.8-1.9-0.9-2.9-1.3
				c-0.3,0.9-0.8,1.9-0.8,2.8c0,4.4,0.5,8.8,0.3,13.1c-0.4,8-5.3,12.7-12.2,15.5c-4.5,1.9-9.2,3.3-13.7,5.2c-1.5,0.6-2.6,2.1-4,3.2
				C473.8,109.2,473.9,110.1,473.8,110.9z"/>
			<path fill="#D8D1BF" d="M118.1,268.9c0.7-2.2,0.8-4.5,1.1-6.7c0.3-2.2-0.5-3.9-1.8-5.4c-0.3,3-0.7,6-1.3,9
				c-1.1,6.3-2.1,12.7-3.3,19.1c-0.7,3.8-1.2,7.7-2.4,11.3c0,0-2.1,8.9-2.1,19.1c0.8-3.5,2.8-12.2,2.8-12.2s-1.2,17.8,1.7,33.5
				c0.9-2.9,1.2-20.2,1.2-20.2s1.6,14.3,4.2,30.1c0.9-2.3,0.9-30.4,0.9-30.4s2.5,10.8,2.8,21.8c2-7,2.8-34.1,2.8-34.1l1.8,10.5
				c0,0,1.6-6.6,1.1-10.7c-0.2-1.9-0.6-3.9-0.9-5.8c-0.6-4.7-1.2-9.5-1.7-14.3c-2-2.9-4-5.9-5.9-8.9
				C118.1,272.9,117.4,271.1,118.1,268.9z"/>
			<path fill="#D8D1BF" d="M122.1,237.2c-0.5,2.7-0.9,5.4-1.4,8c-0.3,0-0.6,0-0.9,0c-0.1-1.1-0.4-2.3-0.3-3.3c0.3-1.6,0.6-3-0.4-4.6
				c-0.4-0.6,0-1.8,0-2.7c0-1.3-0.1-2.7-0.1-4c-0.3,3.4-1,6.8-0.9,10.2c0,3.3,0,6.7-0.2,10c0,0,0.1,0.1,0.1,0.1c0,0,0,0,0.1,0.1
				c0.1,0.1,0.2,0.2,0.3,0.3c1.4,1.8,3,3.9,3.4,6c0.7,3.6,0.3,7.3,0.7,10.9c0.4,3.9,1.2,7.8,2.6,11.4c0.1-1.2,0.1-2.4-0.1-3.5
				c-1.4-6.8-0.7-13.6-1.2-20.4c-0.1-0.8,0.3-1.6,0.4-2.4c-0.2-3.2-0.3-6.5-0.6-9.7C123.2,241.4,122.7,239.3,122.1,237.2z"/>
			<path fill="#7C5F32" d="M119,230.6c0,1.3,0.1,2.7,0.1,4c0,0.9-0.4,2,0,2.7c1,1.6,0.7,3,0.4,4.6c-0.2,1.1,0.2,2.2,0.3,3.3
				c0.3,0,0.6,0,0.9,0c0.5-2.7,0.9-5.4,1.4-8c0.7,2.1,1.2,4.3,1.4,6.4c0.3,3.2,0.4,6.5,0.6,9.7c0.2-0.7,0.5-1.4,0.5-2.1
				c0.1-2.2-0.1-4.3,0.2-6.5c0.8-5.9,2-11.7,2.8-17.6c0.6-4.8,0.8-9.7,1.2-14.6c0.1-0.7,0.2-1.5,0.3-2.2c-0.4,0-0.8,0-1.2,0
				c-1.1-0.2-2.3-0.3-3.4-0.5c-0.7-0.1-1.3-0.2-2-0.3c-0.7,0-1.4-0.1-2.1-0.1c0,0.3-0.1,0.6-0.2,1
				C118.8,217.1,118.7,223.8,119,230.6z M122.3,235.3c0.1,0.2,0.2,0.5,0.3,0.7c-0.1,0.1-0.2,0.1-0.4,0.2c-0.1-0.2-0.2-0.5-0.3-0.7
				C122,235.4,122.3,235.3,122.3,235.3z"/>
			<path fill="#685234" d="M122.9,206.3l1,0.1l1,0.1l2.1,0.3l1.1,0.1l1.3,0c0-0.9,0.1-1.8,0.2-2.7c0.4-3.6,1.4-7.2,1.4-10.8
				c0-5.3-1.1-10.5-1-15.8c0.1-4.7,0.9-9.5,1.7-14.2c0.5-3.2,1.5-6.3,2.3-9.5c0.6-2.5,1.3-5,1.9-7.5c0.5-2.4,0.8-4.8,1.5-7.1
				c0.3-0.9,1.4-1.5,1.9-2.1c-0.2-0.6-0.7-1.6-0.5-2.2c2-5.2,4.7-9.7,10.2-12c0.6-0.2,0.8-1.4,1.2-2.2c-1.7,0-3.3,0.1-5,0.1
				c-6,3.9-9.2,9.7-10.9,16.5c-0.6,2.3-2.3,4.6-2,6.7c0.4,3.1-0.8,5.5-1.3,8.2c-0.4,2.3-1.5,4.5-2.1,6.9c-1,4.1-1.9,8.1-2.5,12.2
				c-0.9,5.6-1.4,11.3-2.1,17c-0.2,1.9-0.7,3.7-1,5.5c-0.7,3.3-1.6,6.6-2.2,9.9c-0.1,0.7-0.2,1.4-0.2,2.1l2.1,0.1
				C122.7,206.3,122.8,206.3,122.9,206.3z"/>
			<path fill="#D8D1BF" d="M522.3,120.1c0.9,1.3,1.7,2.1,3.3,1.9c6.8-5,10.9-11,10.4-20c-0.4-7.5-2.7-14.2-6.3-20.6
				c-1.4-2.4-2.7-4.9-4.3-7.3c-2-2.9-4.6-5-8.3-5.5c-0.5-0.1-1.6,0.5-1.7,0.9c-0.1,0.7,0,1.8,0.5,2.3c2.8,3.5,6,6.7,6.8,11.3
				c0.6,3.2,1,6.6,1.1,9.9c0.1,2.8-0.1,5.6-0.6,8.3c-0.5,2.5-1.7,4.9-4.1,6.3c-2.5,1.5-5.3,2-8.2,2
				C515.7,112,519.3,115.7,522.3,120.1z"/>
			<path fill="#D8D1BF" d="M233.4,365.8c-0.8-0.4-1.7-0.6-2.5-1.1c-4.2-2.3-9.2-2.8-12.7-6.5c-0.3,0.8-0.3,1.9-0.8,2.2
				c-1.7,1-3.5,1.9-5.4,2.5c-3.4,1.2-6.7,2.3-10.2,3.1c-2.1,0.5-4.5,0.1-6.7,0.2c-0.9,1.5-0.7,2.9,0.4,4.2c0.5,0.6,1.1,1.4,1.2,2.2
				c0.3,2.2,1.8,2.9,3.7,3.1c3.3,0.4,6.5,0.8,9.8,1.1c1.9,0.2,3.7,0.1,5.6,0.3c2.8,0.3,5.5,0.9,8.3,1.1c2.1,0.1,3.5-2.2,2.9-4.3
				c-0.3-1.1-0.9-2.2-1.5-3.7c2.5-0.2,4.8-0.3,7.1-0.5c1.2-0.1,2.8,0.7,3.2-1.3C236,366.5,234.5,366.3,233.4,365.8z"/>
			<path fill="#D8D1BF" d="M409.2,382c-4.5,0.8-8.9,1.9-13.4,2.6c-1.7,0.3-3.6,0-5.4,0c0,1.3-0.2,2.7,0,4c0.1,0.6,0.6,1.4,1.2,1.7
				c3.8,2.1,7.5,4.2,11.4,6.2c3.5,1.8,7.1,3.6,10.7,5.2c0.9,0.4,2.7,0.5,3.1,0c0.6-0.8,0.4-2.2,0.3-3.4c-0.1-1.1-0.5-2.2-0.8-3.5
				c3.1,0,5.7,0,8.4,0c0.8,0,1.7-0.1,2.5-0.2c-0.1-0.9,0.1-1.9-0.3-2.5c-3.4-5.5-8.5-9.4-13.2-13.6
				C412.4,380.1,411.3,381.6,409.2,382z"/>
			<path fill="#D8D1BF" d="M163.9,391.9c3.1,1,5.9,1.9,8.6,2.8c1.5-1.5,1.6-2.9,0.1-4.4c-1.2-1.2-2.3-2.6-3.5-3.9
				c-2.2-2.2-4.4-4.4-6.6-6.5c0,0.5,0.3,1.2,0.1,1.4c-1.1,0.9-2.1,2.1-3.4,2.5c-4.7,1.6-9.5,2.9-14.3,4.3c5.2,2.6,10.4,5.2,15.6,7.8
				c2.1,1.1,4.3,2,6.4,3.1c0-0.4-0.1-0.9-0.3-1.3C165.8,395.9,165,394.2,163.9,391.9z"/>
			<path fill="#D8D1BF" d="M158.9,398.9c-1.9-1-3.9-1.9-5.8-2.9c-4.4-2.2-9-4.5-13.5-6.8c-0.1-0.1-0.3-0.1-0.4-0.2
				c-0.2,1.1-0.7,2.2-1.3,3.1l-0.3,0.4c0.4,1.9,0.8,3.9,1.4,5.8c0.3,0.9,1.7,1.5,2.8,1.9c0.6,0.2,1.5-0.4,2.2-0.4
				c6,0.2,12.1,0.4,18.1,0.5c-0.1,0-0.2-0.1-0.3-0.1C160.8,399.8,159.9,399.3,158.9,398.9z"/>
			<path fill="#D8D1BF" d="M438.7,356.8c-4,2.9-8.3,4.3-13.1,4.4c0.1,0.8,0.3,1.6,0.4,2.4c0.4,2.1,1.3,3.4,3.7,3.5
				c1.6,0.1,3.3,0.5,4.8,1.2c4.4,1.8,8.6,3.9,13,5.7c0.7,0.3,2,0.2,2.5-0.3c1.3-1.2,2-2.7,1-4.6c-0.4-0.8-0.7-1.8-0.6-2.6
				c0.1-0.6,0.7-1.6,1.2-1.7c1.9-0.2,3.9,0.1,5.8-0.2c1.1-0.1,2.3-0.7,3.1-1.5c0.3-0.3-0.1-2-0.7-2.6c-1.6-1.4-3.5-2.5-5.2-3.7
				c-2.9-2-5.7-4.2-8.7-6.2c-0.6-0.4-1.5-0.3-2.3-0.4C443.4,353.6,441,355.1,438.7,356.8z"/>
		</g>
		<g>
			<path fill-rule="evenodd" clip-rule="evenodd" fill="#7C5F32" d="M39,484.3c-2.6-0.8-5.2-1.7-8.1-0.9c-2.5,0.7-3.8-1-3.5-3.5
				c0.4-2.9,1.9-5.2,3-7.7c1-2.1,1.3-4.6,1.4-6.9c0.2-5.1,0.2-10.2,0.2-15.3c0-3.8-0.2-7.6-0.1-11.3c0.2-6.4-0.9-12.5-2.4-18.6
				c-1.2-4.6,0.7-8.2,3.1-11.7c2.2-3.2,4.6-6.3,6.7-9.5c0.6-0.9,0.7-2.3,0.6-3.5c-0.2-7.9,0-15.9-2.2-23.5c-1.9-6.3-1.5-12.7-2.6-19
				c-0.1-0.5-0.3-1-0.4-1.5c-0.9-3.3-0.8-6.5,0.1-9.8c0.7-2.5,0.4-5.4,0.7-8.1c0.4-3.4,1-6.8,1.5-10.2c0.3-2.3,0.8-4.7,0.8-7
				c0.1-5.8,0.1-11.6,0.1-17.4c0-2.7,0-5.5-0.3-8.2c-0.2-2.1-1-4.2-1.4-6.4c-0.5-2.5-1.2-5-1.3-7.6c-0.1-3.2,0.2-6.4,0.5-9.6
				c0.3-2.6,0.6-5.3,1.2-7.9c0.7-3.2,1.8-6.3,2.6-9.5c0.4-1.5,0.6-3.2,0.6-4.7c0.1-4.4,1.9-8.2,3.7-12c0.3-0.5,0.5-1.2,0.5-1.7
				c-0.1-5.8,5.1-10.5,10.4-11.4c3.6-0.6,7.2-0.8,10.8-1.1c2-0.1,4.1-0.1,6.1-0.2c6.4-1.3,11.7-5.1,17.5-7.7
				c0.4-0.1,0.8-0.2,1.2-0.3c1.7-0.7,3.5-1.3,5.2-2c0.5-0.1,1-0.2,1.5-0.4c0.3-0.1,0.6-0.1,0.9-0.2c0.5-0.1,1-0.2,1.5-0.3
				c0.3-0.1,0.5-0.1,0.8-0.2c0.4-0.1,0.7-0.2,1.1-0.3c0.5,0,1,0,1.5,0c1,0.1,1.9,0.2,2.9,0.3c0.3,0.1,0.5,0.1,0.8,0.2
				c0.5,0.1,1,0.2,1.5,0.3c0.4,0.1,0.8,0.1,1.2,0.2c0.8,0.1,1.6,0.2,2.4,0.3c0.5,0.1,0.9,0.1,1.4,0.2c0.6,0.1,1.3,0.2,1.9,0.3
				c0.7,0.1,1.5,0.1,2.2,0.2c1,0.1,2,0.2,3,0.3c0.8,0.1,1.7,0.1,2.5,0.2c0.7,0.1,1.3,0.2,2,0.3c1.1,0.2,2.3,0.3,3.4,0.5
				c0.9,0,1.7,0,2.6,0c0.3,0.1,0.6,0.1,0.9,0.2c0.7,0.1,1.3,0.2,2,0.3c0.2,0.1,0.5,0.1,0.7,0.2c0.8,0.1,1.6,0.2,2.4,0.3
				c0.3,0.1,0.6,0.1,0.9,0.2c0.7,0.1,1.3,0.2,2,0.3c0.9,0.2,1.8,0.3,2.8,0.5c0.3,0,0.6,0,1,0c0.5,0.1,1.1,0.1,1.6,0.2
				c0.5,0.1,1,0.2,1.5,0.3c0.4,0.1,0.8,0.1,1.2,0.2c0.6,0.1,1.2,0.2,1.7,0.4c0.8,0,1.6,0.1,2.4,0.1c0.7,0.1,1.3,0.2,2,0.3
				c0.3,0,0.6,0,0.9,0l0.1,0.1l0.1,0c0.7,0,1.3,0.1,2,0.1c0.3,0.1,0.7,0.2,1,0.3c0.3,0.1,0.5,0.1,0.8,0.2c1.1,0.1,2.2,0.2,3.3,0.3
				c0.3,0.1,0.6,0.2,0.9,0.3c0.8,0.1,1.6,0.1,2.3,0.2c2,0.2,4,0.4,5.9,0.6c0.5,0.1,1,0.2,1.6,0.3c1,0.2,2.1,0.4,3.1,0.6
				c0.9,0,1.7,0,2.6,0c0.3-0.1,0.5-0.1,0.8-0.2c0.3,0,0.6,0,0.9,0c0.4,0.1,0.8,0.1,1.2,0.2c1.1,0.1,2.3,0.2,3.4,0.3
				c3.1,0.2,6.2,0.3,9.3,0.5c1.2,0,2.4,0,3.6,0c1,0,2,0,3,0c0.9,0,1.7,0,2.6,0c1.1,0.1,2.1,0.1,3.2,0.2c0.4,0,0.9,0,1.3,0
				c0.3,0,0.6,0,1,0c1.4,0,2.8,0,4.1,0c1.9,0,3.7,0,5.6,0c0.5,0.1,1,0.2,1.5,0.3c1.8-0.1,3.5-0.3,5.2-0.4c1.6,0,3.3,0,4.9,0
				c1,0,2,0,3,0c0.3,0,0.5,0,0.8,0c1.4,0,2.9,0,4.3,0c1.7-0.1,3.5-0.2,5.2-0.3c2.4,0,4.8,0,7.1,0c2,0.1,4,0.2,6,0.3c0.5,0,1,0,1.5,0
				c1.1-0.1,2.3-0.2,3.4-0.3c0.8-0.1,1.5-0.1,2.3-0.2c0.5-0.1,1-0.2,1.5-0.3c0.6-0.1,1.2-0.1,1.7-0.2c0.7-0.1,1.3-0.2,2-0.3
				c4.4-2.2,8.8-4.4,13.3-6.7c0.3-0.2,0.7-0.3,1-0.4c0.4-0.1,0.7-0.2,1.1-0.4c1.4-0.3,2.7-0.7,4.1-1c1.1-0.1,2.2-0.2,3.3-0.3
				c0.3-0.1,0.6-0.1,0.9-0.2c0.4-0.1,0.9-0.2,1.3-0.3c0.2,0,0.5,0,0.7,0c1.3,0.1,2.6,0.2,3.8,0.3c0.3,0.1,0.5,0.1,0.8,0.2
				c0.4,0.1,0.8,0.2,1.1,0.3c0.6,0.2,1.2,0.4,1.7,0.6c0.3,0.1,0.7,0.2,1,0.3c0.6,0.2,1.1,0.4,1.7,0.6c0.4,0.1,0.7,0.2,1.1,0.3
				c1.3,0.3,2.6,0.6,3.9,0.9c0.7,0,1.4,0,2.1,0c0.4,0,0.7,0,1.1,0c0.8-0.1,1.6-0.2,2.4-0.3c0.4,0.1,0.8,0.1,1.2,0.2
				c0.6-0.1,1.1-0.1,1.7-0.2c0.4-0.1,0.7-0.1,1.1-0.2c0.6-0.1,1.1-0.2,1.7-0.3c0.2-0.1,0.5-0.1,0.7-0.2c1-0.1,2-0.2,3-0.3l0.2-0.1
				c0.5-0.1,1.1-0.2,1.6-0.3c0.8-0.1,1.6-0.1,2.3-0.2c0.4-0.1,0.9-0.2,1.3-0.3c0.3-0.1,0.6-0.1,0.9-0.2c1-0.1,2-0.2,3-0.4
				c1.4-0.2,2.8-0.3,4.1-0.5c1.1-0.1,2.2-0.2,3.2-0.4c1.6-0.2,3.2-0.3,4.7-0.5c1.3,0,2.7,0,4,0c0.4-0.1,0.9-0.1,1.3-0.2
				c0.6-0.1,1.2-0.2,1.8-0.3c2.6-0.5,5.3-1,7.9-1.5c1.1-0.1,2.2-0.1,3.3-0.2c0.2-0.1,0.5-0.2,0.7-0.3c0.7-0.1,1.4-0.2,2.1-0.3
				c0.4-0.1,0.9-0.1,1.3-0.2c2,0,3.9,0.1,5.9,0.1c0.6,0.4,1.2,0.7,1.7,1.1c0,0.9,0.1,1.7-0.1,2.6c-0.4,2.2-1.6,4.6-1.2,6.6
				c0.7,3.3,2.4,6.6,5.3,8.7c5.1,3.6,10.7,6.4,17.2,5.5c2.7-0.4,5.5-1.5,7.7-3.1c1.9-1.4,3.2-3.7,4.2-5.9c1.2-2.5,2.6-5.3,0.6-8.2
				c-1.9-2.6-5-2.9-7.2-0.7c-2.2,2.1-3.7,4.4-2.5,7.7c0.2,0.4-0.3,1.3-0.7,1.7c-0.2,0.2-1.1,0.1-1.5-0.1c-1.4-0.9-2.4-4.9-1.8-6.6
				c1.8-5.5,7.7-9.4,12-9c0.2,0.1,0.3,0.2,0.5,0.3c0.4,0.1,0.8,0.2,1.2,0.3c1.1,0.5,2.2,1,3.3,1.5c4.9,2.3,8.5,6.1,11.5,10.5
				c0.9,1.3,1.7,2.1,3.3,1.9c-0.5,0.2-1,0.5-1.3,0.6c0.8,3.5,1.5,7.1,2.4,10.5c0.4,1.3,1.3,2.5,2.2,3.6c5,5.9,9.8,12,12.8,19.3
				c1.5,3.6,3.4,7.1,4.9,10.7c0.9,2.3,1.5,4.7,2.3,7c2.1,6.7,2.5,13.7,3.3,20.6c0.2,2,1.8,3.8,2.5,5.8c0.8,2.2,1.7,4.4,1.9,6.7
				c0.1,1.4-0.6,3.2-1.6,4.4c-2.2,2.7-4.5,5.3-7.1,7.4c-3.2,2.5-6.8,4.6-10.2,6.7c-0.6,0.4-1.5,0.1-2.2,0.4
				c-1.3,0.5-2.5,1.4-3.8,1.5c-2.8,0.2-5.6-0.2-8.5-0.1c-2.7,0.2-4.7-0.7-6-3c-1.3-2.3-2.7-4.5-4.1-6.8c-0.6-1-1.1-1.4-2.5-1.4
				c-7.7,0.4-15.4,0.6-23.1,0.7c-3.4,0-6.9,0.1-10.2-0.6c-4-1-8-2.3-11.5-4.4c-5-3.1-9.4-7-14.1-10.5c-0.2-0.1-0.4-0.1-1.3-0.3
				c1.1,1.3,1.7,2.3,2.6,3c3.4,2.9,6.9,5.7,10.4,8.6c2.5,2,2.3,3,0.3,5.4c-2.6,3.1-5.3,6.2-5.8,10.7c-0.2,2.5-1.7,4.8-2.5,7.3
				c-1.6,5.1-3.2,10.3-4.7,15.4c-2.4,8-5.1,15.9-10.1,22.7c-2.4,3.3-4.7,6.7-7.3,9.9c-1.1,1.3-2.8,2-4.1,3.1
				c-1.4,1.1-2.5,2.5-3.8,3.7c-1,0.9-2.1,1.7-3.3,2.4c-0.4,0.2-1.3,0.1-1.6-0.2c-0.3-0.3-0.3-1.2-0.1-1.6c3.3-8,3.7-16.6,5.6-24.9
				c1.2-5.3,2.6-10.6,6-15.1c0.6-0.7,0.7-1.8,1.2-3.2c-4.2,2.8-6.3,6.4-7.2,10.5c-1.4,6.7-2.5,13.5-3.8,20.3
				c-2.1,11.6-6.2,22.4-12.8,32.2c-1.5,2.2-1.4,4.7-1.5,7c-0.2,4.2-0.1,8.5,1.2,12.7c1.5,4.8-0.5,9.3-2.6,13.6
				c-0.6,1.2-1,2.8-0.7,4.1c1,4,2.2,8,3.6,12c1.3,3.8,3,7.5,4.4,11.2c0.8,2.3,1.4,4.6,0.3,7c-1.2,1.5-2.3,3-4.4,3.4
				c-4.5,0.8-8.9,1.9-13.4,2.6c-1.7,0.3-3.6,0-5.4,0c-2.6-1.1-4.6-2.8-5.6-5.7c-0.4-1-2.2-1.6-3.4-2.3c-1.2-0.7-1.6-1.6-1-2.9
				c2.5-5.3,1.7-10.9,1.2-16.4c-0.1-1.6-0.1-3.2-0.3-4.8c-0.5-3.3-2.6-5.6-4.7-7.9c-2.9-3.1-4.4-6.7-4.3-10.9
				c0.1-2.5,0.1-4.9,0.1-7.4c0.2-5.5-2.7-10-5-14.6c-2.9-5.6-6.1-11.1-8.6-16.9c-2.6-5.7-4.5-11.6-5.1-18c-0.4-4.3-1.5-8.5-2.3-12.7
				c-0.1-0.3-0.4-0.6-0.6-1c-0.2,0-0.4,0.1-0.7,0.1c0.5,4.5,0.9,9,1.5,13.5c0.4,2.7,0.8,5.4,1.6,8c0.8,2.6,2.1,5.1,3.1,7.7
				c0.3,0.7,0.4,1.7,0,2.2c-0.4,0.5-1.5,0.8-2.1,0.7c-6.3-1.6-12.3-0.3-18.4,1.4c-5.7,1.7-11.5,2.7-17.4,3.8
				c-3.4,0.6-6.9,1-10.4,1.2c-1.4,0.1-2.9-0.4-4.3-0.5c-5.8-0.4-11.7-0.4-17.4,1.1c-3.9,1-5.3,3-5.9,7.8c-0.3,2.6-1,5.1-1.6,7.6
				c-0.3,0-0.6,0-0.9,0c-0.1-2.1-0.2-4.2-0.3-6.3c-0.5,8.7-2.4,17-6.2,25.1c-0.1-1.9-0.2-3.8-0.2-5.7c0-2,0.3-3.9,0.5-6.6
				c-1,1.5-1.7,2.4-2.3,3.4c-0.1-0.1-0.2-0.1-0.4-0.2c0.2-0.5,0.3-1.1,0.6-1.6c1.1-2.3,1.1-4.7-0.3-6.6c-2.3-3.1-1.5-5.8-0.1-8.7
				c1.1-2.3,0.6-5.1-1.7-6.4c-3-1.7-6.1-3.1-9.2-4.6c-6.4-3.2-12.9-6.4-19.3-9.6c-5.3-2.7-10.5-5.7-15.9-8.4
				c-3.9-2-7.9-1.2-11.8,0.4c-1.7,0.7-3.4,1.6-5.1,2.1c-0.9,0.2-2.1,0-3-0.5c-2-1.2-2.1-2.1-0.2-3.7c4-3.3,8-6.5,12-9.7
				c3.5-2.7,6.7-5.8,8.6-9.7c1.3-2.6,1.6-5.6,2.4-8.4c-0.3-0.1-0.6-0.3-0.9-0.4c-0.5,1-1.4,1.9-1.5,2.9c-0.8,4.6-3.2,8.3-6.4,11.3
				c-4.9,4.6-10.3,8.7-15.2,13.2c-1.8,1.7-3.2,3.8-4.6,5.9c-3,4.5-5.6,9.5-9,13.7c-6,7.3-12.4,14.2-18.8,21.2
				c-2.6,2.8-5.5,5.2-8.5,7.5c-2.6,2.1-2.9,4.9-3.2,7.8c-0.5,4.4-0.9,8.8-1.3,13.2c-0.4,4.1-0.8,8.1-1,12.2c-0.1,1,0.6,2,0.9,3
				c0.9,3.1,1.7,6.3,2.8,9.3c0.9,2.4,2.1,4.7,3.1,7c0,0.5,0.3,1.2,0.1,1.4c-1.1,0.9-2.1,2.1-3.4,2.5c-4.7,1.6-9.5,2.9-14.3,4.3
				C44.2,485.1,41.6,485.3,39,484.3z M412.3,262.4c0.4,0.1,0.7,0.2,1.1,0.3c2.2,0.9,4.3,1.8,6.5,2.6c0.5,0,1.1-0.1,1.6-0.1
				c0-0.6,0.2-1.3,0.1-1.8c-1.8-6.7-4.8-12.3-11.9-14.7c-1.5-0.5-2.7-0.8-4,0.4c-1.4,1.4-3.1,2.7-2.6,5c0.8,2.9,1.5,5.9,4.6,7.4
				c0.5,0.1,1,0.2,1.4,0.3c0.3,0.1,0.6,0.1,0.9,0.2C410.8,262.1,411.5,262.2,412.3,262.4L412.3,262.4z M83.1,340.2c0.5,0,1,0,1.6,0
				c-0.3-1.4-0.6-2.7-0.8-4.1c-1.1-7.1-2.4-14.1-6.5-20.3c-0.5-0.8-1.1-1.5-1.7-2.2c-0.3,0.1-0.5,0.3-0.8,0.4c0.7,1.5,1.3,3.1,2,4.6
				c1.6,3.8,4.1,7.4,4.2,11.7c0.1,3,2.1,5.7,1.4,8.8C82.6,339.4,82.9,339.8,83.1,340.2z M353.6,261.9c0.8-0.2,1.5-0.3,2.3-0.5
				c1.1-0.3,2.3-0.7,3.5-1c0.5-0.1,1-0.2,1.6-0.3c3-1.4,6-2.9,9-4.3c0.4-0.2,0.8-0.4,1.3-0.5c8.9-4.8,15.3-11.9,18.9-21.3
				c-0.6,0.3-1,0.7-1.3,1.2c-1.5,2.4-2.8,5.1-4.7,7.2c-3.6,4.1-8.1,7.1-12.7,9.8c-4.2,2.4-8.9,3.9-13.4,5.8
				c-6.2,2.7-11.8,1.5-17.4-1.7c-2.7-1.6-2.1-4.1,0-5.4c1-0.7,2.2-1,3.3-1.5c4.5-2.2,6.8-6.5,9.7-10.2c3.4-4.2,6.6-8.6,11.7-11
				c1.8-0.8,3.4-2,5.1-3c-1.4-0.1-3-0.3-4,0.3c-3.1,2-6.2,4-8.9,6.5c-3.6,3.4-7,7-10.1,10.9c-1.5,1.8-3.1,3.1-5,4.4
				c-2.2,1.5-4.1,3.3-5.9,5.3c-1.8,2-1,4.5,1.5,5.6c2.3,0.9,4.5,1.9,6.7,2.9c0.6,0.1,1.2,0.2,1.8,0.3c0.8,0.1,1.5,0.1,2.3,0.2
				c0.6,0.1,1.3,0.2,1.9,0.3C351.8,261.8,352.7,261.8,353.6,261.9z M127.5,286.9c0.3-0.3,0.7-0.7,1-1c-0.7-1-1.5-2-2-3
				c-2.4-4.6-3.5-9.5-4.1-14.6c-0.4-3.6,0-7.4-0.7-10.9c-0.4-2.2-2-4.2-3.4-6c-1.1-1.4-2.8-0.6-3.9,0.4c-1.1,1.1,0,1.9,0.6,2.7
				c0.3,0.4,0.8,0.7,1.2,1.1c1.8,1.9,3.3,3.9,2.9,6.6c-0.3,2.3-0.4,4.6-1.1,6.7c-0.7,2.2,0,3.9,1.1,5.6c2,3.1,4.1,6.2,6.2,9.3
				C126.1,284.9,126.8,285.9,127.5,286.9z M438.5,315.5c2.1-1.2,3.8-1.9,5.2-3.1c3.7-3.1,3.8-6.1,1.4-10.7c-1.4-2.8-5.5-3.5-8.8-2
				c-1.5,0.7-1.8,1.6-0.7,2.8c2.1,2.5,2.6,5.6,2.6,8.7C438.2,312.6,438.4,313.8,438.5,315.5z M157.3,291.5c3.7-6.3,6-13.1,6.7-20.4
				C160.4,277.4,159.2,284.6,157.3,291.5z M267.8,323.5c-1.2,0.5-1.8,0.6-2,0.9c-1.1,1.4-0.9,5.7,0.2,7.2c1,1.4,2,2.8,2.9,4.2
				c0.5,0.7,1.1,1.4,1.6,2.1C269.3,333.2,265.9,329.3,267.8,323.5z M170.5,286.6c3.3-4,3.8-8.9,5.2-13.5c0.1-0.3-0.6-0.7-1.2-1.5
				C173.1,276.9,171.8,281.8,170.5,286.6z M182.2,292.9c0,0,0.1-0.1,0.1-0.1c0.5-5,1.1-10,1.6-15c0.1-0.7-0.7-1.4-1.1-2.1
				c-0.4,0.8-1,1.6-1,2.5c-0.1,1.3,0.3,2.6,0.4,3.8C182.2,285.7,182.2,289.3,182.2,292.9z M174.7,408c-2,3.1-2,3.9,0,5.1
				C174.7,411.6,174.7,410.1,174.7,408z"/>
			<path fill-rule="evenodd" clip-rule="evenodd" fill="#664A2B" d="M121.8,379.1c0.2,0,0.4,0,0.6,0c0.4,0.1,0.7,0.2,1.1,0.3
				c3.7,1.7,7.4,3.2,11,5.1c1.8,1,1.9,3.9,0.6,5.7c-3.5,4.9-7,9.8-10.6,14.6c-0.7,1-1.7,1.8-2.5,2.7c-2.3,2.5-2.2,5.7-2.9,8.7
				c-0.7,3.2-1.5,6.3-2.1,9.5c-0.2,1.1-0.2,2.3-0.2,3.5c0,2.2,0,4.5,0,6.7c0,2.4,0.2,4.7,1.2,7c1.1,2.5,1.1,5.6,1.6,8.4
				c0.2,1.1,0.3,2.1,0.5,3.2c-0.3,0.8-0.3,1.9-0.8,2.2c-1.7,1-3.5,1.9-5.4,2.5c-3.4,1.2-6.7,2.3-10.2,3.1c-2.1,0.5-4.5,0.1-6.7,0.2
				c-1.5-3.3-4.2-4-7.5-3.6c-1.9,0.2-2.8-0.8-2.3-2.6c0.4-1.5,1.4-2.8,1.7-4.3c0.6-2.5,1.1-5,1.4-7.6c0.3-4,0.4-8.1,0.6-12.2
				c0.1-2.8,0.3-5.6,0.4-8.4c0.3-4.6-0.9-9-2.8-13c-1.2-2.6-0.5-4.7,0.5-6.9c2.5-5,5.1-9.9,7.4-14.9c1.4-3.2,3.6-5.5,6.7-6.7
				c2.1-0.8,4.4-1,6.6-1.4c0.8-0.1,1.6-0.2,2.4-0.3c0.4-0.1,0.8-0.1,1.2-0.2c1.4-0.1,2.9-0.2,4.3-0.3c0.3-0.1,0.5-0.1,0.8-0.2
				c0.6-0.1,1.2-0.2,1.8-0.3c0.1-0.1,0.3-0.1,0.4-0.2C121.1,379.3,121.5,379.2,121.8,379.1z"/>
			<path fill-rule="evenodd" clip-rule="evenodd" fill="#664A2B" d="M327.6,457.5c-1.9-2.7-4.4-4.4-7.5-5.6
				c-2.8-1.1-2.6-3.1-0.6-5.4c0.9-1,1.4-2.5,1.5-3.8c0.4-7.9,0.7-15.7,1-23.6c0-1.3-0.2-2.8-0.9-3.9c-2.7-3.8-2.2-8.1-2.2-12.3
				c0-1.6,0.3-3.2,0.4-4.8c0.1-1.9,0.8-3.1,2.6-4.2c4.5-2.6,9.1-5.1,11.9-9.8c0.4-0.7,1.2-1.2,1.7-1.8c4-5.3,8.2-10.6,12-16.1
				c2.1-3,4-6.3,5.3-9.8c1.2-3.2,1.6-6.7,2.4-10.1c0.4-1.5,0.7-3.1,1.4-4.4c0.7-1.4,1.9-1,2.4,0.2c0.4,1,0.7,2.3,0.6,3.3
				c-0.5,4.6-1.7,9.2-1.6,13.7c0.1,4.5-1.9,8.1-3,12.1c-1.4,4.9-2.5,9.9-3.8,14.9c-0.4,1.6-1.3,3.1-1.8,4.6c-1.3,3.8,0.2,7.4,0.7,11
				c0.7,5.3,0.1,10.3-3.2,14.5c-3,3.9-2.1,8.1-2,12.3c0,0.8,0.3,1.5,0.3,2.3c0,4.5,0,9,0.1,13.5c0,0.7,0.3,1.5,0.5,2.2
				c-0.3,3.2-2.6,4.7-5,6.3C336.8,455.9,332.4,457.3,327.6,457.5z"/>
			<path fill-rule="evenodd" clip-rule="evenodd" fill="#D8D1BF" d="M407.7,203.9c-4.3-0.4-10.1,3.5-12,9c-0.6,1.7,0.5,5.6,1.8,6.6
				c0.4,0.3,1.2,0.4,1.5,0.1c0.4-0.4,0.8-1.3,0.7-1.7c-1.2-3.3,0.3-5.6,2.5-7.7c2.3-2.2,5.3-2,7.2,0.7c2,2.8,0.6,5.6-0.6,8.2
				c-1,2.2-2.3,4.5-4.2,5.9c-2.2,1.6-5,2.7-7.7,3.1c-6.5,0.9-12.1-1.8-17.2-5.5c-2.8-2-4.6-5.3-5.3-8.7c-0.4-2,0.8-4.4,1.2-6.6
				c0.1-0.8,0-1.7,0.1-2.6c1.3-1.1,2.5-2.6,4-3.2c4.5-1.9,9.2-3.4,13.7-5.2c6.9-2.9,11.8-7.6,12.2-15.5c0.2-4.4-0.3-8.7-0.3-13.1
				c0-0.9,0.5-1.9,0.8-2.8c1,0.4,2.4,0.6,2.9,1.3c1.3,1.7,2.6,3.7,3.1,5.7c1,4.4,1.4,8.8,2,13.3c0.4,3.4-1.3,6.2-2.8,9
				c-1.7,3.2-3.8,6.1-5.8,9.2C406.2,203.5,407,203.7,407.7,203.9z"/>
			<path fill-rule="evenodd" clip-rule="evenodd" fill="#D8D1BF" d="M12.5,392.5c1.1-3.7,1.7-7.5,2.4-11.3
				c1.1-6.3,2.1-12.7,3.3-19.1c1.5-8.3,2-16.6,1.9-25c0-3.4,0.6-6.8,0.9-10.2c0,1.3,0.1,2.7,0.1,4c0,0.9-0.4,2,0,2.7
				c1,1.6,0.7,3,0.4,4.6c-0.2,1.1,0.2,2.2,0.3,3.3c0.3,0,0.6,0,0.9,0c0.5-2.7,0.9-5.4,1.4-8c0.7,2.1,1.2,4.3,1.4,6.4
				c0.3,3.2,0.4,6.5,0.6,9.7c-0.1,0.8-0.5,1.6-0.4,2.4c0.5,6.8-0.2,13.7,1.2,20.4c0.4,2.1-0.1,4.4,0.1,6.5c0.5,5,1.1,10,1.7,15
				c0.2,2,0.6,3.9,0.9,5.8c0.5,4.1-1.1,10.7-1.1,10.7l-1.8-10.5c0,0-0.8,27.1-2.8,34.1c-0.3-10.9-2.8-21.8-2.8-21.8
				s0.1,28.1-0.9,30.4c-2.7-15.8-4.2-30.1-4.2-30.1s-0.2,17.3-1.2,20.2c-2.9-15.7-1.7-33.5-1.7-33.5s-2,8.7-2.8,12.2
				C10.4,401.3,12.5,392.5,12.5,392.5z"/>
			<path fill-rule="evenodd" clip-rule="evenodd" fill="#7C5F32" d="M26,349.6c-0.2-3.2-0.3-6.5-0.6-9.7c-0.2-2.2-0.7-4.3-1.4-6.4
				c-0.5,2.7-0.9,5.4-1.4,8c-0.3,0-0.6,0-0.9,0c-0.1-1.1-0.4-2.3-0.3-3.3c0.3-1.6,0.6-3-0.4-4.6c-0.4-0.6,0-1.8,0-2.7
				c0-1.3-0.1-2.7-0.1-4c-0.3-6.7-0.2-13.5,1.2-20.1c0.4-2.1,0.2-4.3,0.6-6.4c0.6-3.3,1.5-6.6,2.2-9.9c0.4-1.8,0.8-3.7,1-5.5
				c0.7-5.7,1.3-11.3,2.1-17c0.6-4.1,1.6-8.2,2.5-12.2c0.6-2.3,1.7-4.5,2.1-6.9c0.5-2.7,1.8-5.2,1.3-8.2c-0.3-2.1,1.4-4.4,2-6.7
				c1.7-6.8,4.8-12.6,10.9-16.5c1.7,0,3.3-0.1,5-0.1c-0.4,0.7-0.6,1.9-1.2,2.2c-5.5,2.3-8.2,6.8-10.2,12c-0.2,0.6,0.3,1.6,0.5,2.2
				c-0.5,0.6-1.6,1.2-1.9,2.1c-0.7,2.3-1,4.7-1.5,7.1c-0.6,2.5-1.2,5-1.9,7.5c-0.8,3.2-1.8,6.3-2.3,9.5c-0.8,4.7-1.7,9.4-1.7,14.2
				c-0.1,5.2,1,10.5,1,15.8c0,3.6-0.9,7.2-1.4,10.8c-0.2,1.5-0.1,3.1-0.3,4.6c-0.1,1.2-0.3,2.4-0.4,3.6c-0.4,4.9-0.6,9.8-1.2,14.6
				c-0.8,5.9-2,11.7-2.8,17.6c-0.3,2.1-0.1,4.3-0.2,6.5C26.5,348.2,26.2,348.9,26,349.6z M24.2,332.5c0.1-0.1,0.2-0.1,0.4-0.2
				c-0.1-0.2-0.2-0.5-0.3-0.7c0,0-0.2,0.1-0.4,0.1C24,332,24.1,332.2,24.2,332.5z"/>
			<path fill-rule="evenodd" clip-rule="evenodd" fill="#D8D1BF" d="M427.5,218.3c-1.6,0.2-2.4-0.6-3.3-1.9
				c-3-4.4-6.6-8.2-11.5-10.5c2.9,0,5.7-0.5,8.2-2c2.4-1.4,3.6-3.8,4.1-6.3c0.5-2.7,0.7-5.6,0.6-8.4c-0.1-3.3-0.5-6.6-1.1-9.9
				c-0.8-4.6-4-7.9-6.8-11.3c-0.5-0.6-0.6-1.6-0.5-2.3c0.1-0.4,1.1-0.9,1.7-0.9c3.6,0.5,6.3,2.6,8.3,5.5c1.6,2.3,2.9,4.8,4.3,7.3
				c3.6,6.4,5.9,13.1,6.3,20.6C438.4,207.2,434.3,213.3,427.5,218.3z"/>
			<path fill-rule="evenodd" clip-rule="evenodd" fill="#D8D1BF" d="M97,462.5c2.2,0,4.6,0.3,6.7-0.2c3.5-0.7,6.8-1.9,10.2-3.1
				c1.9-0.6,3.7-1.5,5.4-2.5c0.5-0.3,0.6-1.4,0.8-2.2c3.5,3.7,8.5,4.2,12.7,6.5c0.8,0.4,1.7,0.7,2.5,1.1c1.1,0.5,2.7,0.7,2.3,2.6
				c-0.4,2-2,1.2-3.2,1.3c-2.3,0.2-4.6,0.3-7.1,0.5c0.6,1.5,1.2,2.6,1.5,3.7c0.6,2-0.8,4.4-2.9,4.3c-2.8-0.1-5.5-0.8-8.3-1.1
				c-1.8-0.2-3.7-0.1-5.6-0.3c-3.3-0.3-6.5-0.7-9.8-1.1c-1.8-0.2-3.4-0.9-3.7-3.1c-0.1-0.8-0.7-1.5-1.2-2.2
				C96.3,465.4,96.1,464,97,462.5z"/>
			<path fill-rule="evenodd" clip-rule="evenodd" fill="#D8D1BF" d="M292.4,481c1.8,0,3.6,0.2,5.4,0c4.5-0.8,8.9-1.8,13.4-2.6
				c2.1-0.4,3.2-1.9,4.4-3.4c4.7,4.2,9.8,8.1,13.2,13.6c0.4,0.7,0.2,1.7,0.3,2.5c-0.8,0.1-1.7,0.2-2.5,0.2c-2.7,0-5.3,0-8.4,0
				c0.3,1.2,0.7,2.3,0.8,3.5c0.1,1.1,0.3,2.6-0.3,3.4c-0.3,0.5-2.2,0.4-3.1,0c-3.6-1.6-7.1-3.4-10.7-5.2c-3.8-2-7.6-4-11.4-6.2
				c-0.6-0.3-1.1-1.1-1.2-1.7C292.2,483.6,292.4,482.3,292.4,481z"/>
			<path fill-rule="evenodd" clip-rule="evenodd" fill="#D8D1BF" d="M39,484.3c2.6,1,5.2,0.8,7.8,0c4.8-1.4,9.6-2.8,14.3-4.3
				c1.3-0.4,2.4-1.6,3.4-2.5c0.2-0.2,0-0.9-0.1-1.4c2.2,2.2,4.4,4.3,6.6,6.5c1.2,1.2,2.3,2.7,3.5,3.9c1.5,1.5,1.4,2.9-0.1,4.4
				c-2.7-0.9-5.5-1.8-8.6-2.8c1,2.3,1.9,4,2.6,5.8c0.3,0.7,0.4,1.7,0.1,2.1c-0.4,0.5-1.4,0.7-2.1,0.6c-6.9-0.2-13.7-0.4-20.6-0.6
				c-0.7,0-1.6,0.6-2.2,0.4c-1-0.4-2.5-1-2.8-1.9c-0.9-2.9-1.4-5.9-2-8.8C38.9,485.3,39,484.8,39,484.3z"/>
			<path fill-rule="evenodd" clip-rule="evenodd" fill="#D8D1BF" d="M327.6,457.5c4.8-0.2,9.2-1.6,13.1-4.4c2.3-1.7,4.7-3.1,5-6.3
				c0.8,0.1,1.7,0,2.3,0.4c2.9,2,5.8,4.1,8.7,6.2c1.7,1.2,3.6,2.3,5.2,3.7c0.6,0.5,1,2.2,0.7,2.6c-0.7,0.8-2,1.3-3.1,1.5
				c-1.9,0.2-3.9,0-5.8,0.2c-0.5,0-1.1,1.1-1.2,1.7c-0.1,0.9,0.2,1.9,0.6,2.6c1,1.9,0.3,3.4-1,4.6c-0.5,0.5-1.8,0.6-2.5,0.3
				c-4.4-1.8-8.6-3.9-13-5.7c-1.5-0.6-3.2-1.1-4.8-1.2c-2.4-0.1-3.3-1.5-3.7-3.5C327.8,459.1,327.7,458.3,327.6,457.5z"/>
		</g>
	</g>
</g>
</svg>
