<?xml version="1.0" encoding="utf-8"?>
<!-- Generator: Adobe Illustrator 16.0.0, SVG Export Plug-In . SVG Version: 6.00 Build 0)  -->
<!DOCTYPE svg PUBLIC "-//W3C//DTD SVG 1.1//EN" "http://www.w3.org/Graphics/SVG/1.1/DTD/svg11.dtd">
<svg version="1.1" xmlns="http://www.w3.org/2000/svg" xmlns:xlink="http://www.w3.org/1999/xlink" x="0px" y="0px"
	 width="566.93px" height="566.93px" viewBox="0 0 566.93 566.93" enable-background="new 0 0 566.93 566.93" xml:space="preserve">
<g id="fond" display="none">
	
		<rect x="-8643.873" y="-9811.008" display="inline" fill-rule="evenodd" clip-rule="evenodd" fill="#58595B" width="16654.492" height="16572.797"/>
</g>
<g id="en_cours">
</g>
<g id="fini">
	<g>
		
			<polygon fill="#4F5666" stroke="#000000" stroke-width="8" stroke-linecap="round" stroke-linejoin="round" stroke-miterlimit="10" points="
			161.068,206.465 73.07,206.465 73.07,360.465 161.068,360.465 269.068,448.465 269.068,118.465 		"/>
		<g>
			
				<path fill="#AB2E23" stroke="#000000" stroke-width="8" stroke-linecap="round" stroke-linejoin="round" stroke-miterlimit="10" d="
				M328.159,363.345c-3.221,0-6.423-1.345-8.697-3.971c-4.158-4.801-3.638-12.063,1.163-16.222c17.159-14.863,27-36.373,27-59.016
				c0-23.387-10.357-45.346-28.417-60.248c-4.898-4.042-5.593-11.291-1.551-16.189c4.041-4.898,11.289-5.594,16.189-1.551
				c23.373,19.287,36.778,47.713,36.778,77.988c0,29.319-12.735,57.166-34.941,76.4
				C333.509,362.421,330.827,363.345,328.159,363.345z"/>
			
				<path fill="#AB2E23" stroke="#000000" stroke-width="8" stroke-linecap="round" stroke-linejoin="round" stroke-miterlimit="10" d="
				M370.061,405.241c-3.599,0-7.142-1.684-9.385-4.841c-3.679-5.178-2.463-12.357,2.715-16.035
				c32.43-23.038,51.791-60.507,51.791-100.229c0-40.51-19.975-78.403-53.432-101.366c-5.236-3.594-6.568-10.752-2.974-15.989
				c3.593-5.234,10.751-6.569,15.989-2.974c39.709,27.253,63.416,72.236,63.416,120.329c0,47.156-22.979,91.635-61.471,118.979
				C374.69,404.551,372.364,405.241,370.061,405.241z"/>
			
				<path fill="#AB2E23" stroke="#000000" stroke-width="8" stroke-linecap="round" stroke-linejoin="round" stroke-miterlimit="10" d="
				M418,453.185c-3.377,0-6.723-1.479-8.993-4.323c-3.964-4.963-3.154-12.199,1.809-16.162
				c45.467-36.314,71.544-90.464,71.544-148.563c0-58.901-26.658-113.513-73.139-149.83c-5.005-3.91-5.893-11.137-1.981-16.142
				s11.138-5.894,16.142-1.981c52.099,40.706,81.979,101.923,81.979,167.953c0,65.131-29.229,125.83-80.19,166.533
				C423.05,452.362,420.516,453.185,418,453.185z"/>
		</g>
	</g>
</g>
</svg>
