<?xml version="1.0" encoding="utf-8"?>
<!-- Generator: Adobe Illustrator 16.0.0, SVG Export Plug-In . SVG Version: 6.00 Build 0)  -->
<!DOCTYPE svg PUBLIC "-//W3C//DTD SVG 1.1//EN" "http://www.w3.org/Graphics/SVG/1.1/DTD/svg11.dtd">
<svg version="1.1" xmlns="http://www.w3.org/2000/svg" xmlns:xlink="http://www.w3.org/1999/xlink" x="0px" y="0px"
	 width="283.465px" height="566.93px" viewBox="0 0 283.465 566.93" enable-background="new 0 0 283.465 566.93"
	 xml:space="preserve">
<g id="fond" display="none">
	
		<rect x="-7500.152" y="-11126.046" display="inline" fill-rule="evenodd" clip-rule="evenodd" fill="#58595B" width="16654.492" height="16572.797"/>
</g>
<g id="en_cours">
</g>
<g id="fini">
	<g>
		<path d="M183.896,332.528c-3.115,3.414-7.231,8.232-12.349,14.462c-5.117,6.23-10.607,13.128-16.465,20.692
			c-5.861,7.565-11.719,15.502-17.577,23.808c-5.861,8.309-11.014,16.242-15.464,23.808h63.635v17.354H97.345v-13.795
			c3.56-6.525,7.934-13.719,13.127-21.582c5.19-7.86,10.642-15.687,16.354-23.474c5.708-7.787,11.271-15.13,16.688-22.027
			c5.413-6.897,10.124-12.717,14.129-17.466H100.46v-17.355h83.437V332.528z"/>
	</g>
	<g>
		<path d="M242.515,262.705c0,1.634,0,3.226,0,4.783s-0.076,3.08-0.222,4.562c-0.595,7.714-2.302,15.317-5.118,22.806
			c-2.819,7.492-6.23,14.573-10.235,21.249l-16.02-5.118c3.115-6.675,5.451-13.312,7.009-19.913
			c1.558-6.599,2.336-12.794,2.336-18.579c0-1.48-0.039-3.076-0.111-4.783c-0.077-1.704-0.188-3.372-0.334-5.006H242.515z"/>
	</g>
</g>
</svg>
