<?xml version="1.0" encoding="utf-8"?>
<!-- Generator: Adobe Illustrator 16.0.0, SVG Export Plug-In . SVG Version: 6.00 Build 0)  -->
<!DOCTYPE svg PUBLIC "-//W3C//DTD SVG 1.1//EN" "http://www.w3.org/Graphics/SVG/1.1/DTD/svg11.dtd">
<svg version="1.1" xmlns="http://www.w3.org/2000/svg" xmlns:xlink="http://www.w3.org/1999/xlink" x="0px" y="0px"
	 width="566.93px" height="566.93px" viewBox="0 0 566.93 566.93" enable-background="new 0 0 566.93 566.93" xml:space="preserve">
<g id="fond" display="none">
	
		<rect x="-4748.14" y="-9811.008" display="inline" fill-rule="evenodd" clip-rule="evenodd" fill="#58595B" width="16654.492" height="16572.797"/>
</g>
<g id="en_cours">
</g>
<g id="fini">
	<g>
		<polygon fill-rule="evenodd" clip-rule="evenodd" fill="#141414" points="442.35,445.242 465.85,434.615 354.85,320.142 
			203.35,328.992 200.869,381.992 288.85,421.376 376.35,434.615 		"/>
		<g>
			
				<path fill="#564432" stroke="#000000" stroke-width="8" stroke-linecap="round" stroke-linejoin="round" stroke-miterlimit="10" d="
				M406.831,459.551c-0.615,2.443-1.539,5.101-2.883,7.941c0,0-0.318,3.289,5.026,6.375l3.108-4.44l0.642,5.44
				c0,0,10.291,2.875,18.958-1.25c4.548-2.164,6.066-7.82,6.652-12.876C426.997,463.176,414.077,462.02,406.831,459.551z"/>
			
				<path fill="#141414" stroke="#000000" stroke-width="8" stroke-linecap="round" stroke-linejoin="round" stroke-miterlimit="10" d="
				M209.478,373.262c1.774,1.849,2.489,32.324-2.934,37.747c0,0,12.929-3.925,17.367-15.804c0,0,2.735,16.273-5.551,24.56
				c0,0,22.562-5.155,24.942-10.465c0,0,20.214,33.924,5.131,58.142l15.547-6.19l-0.45,2.88l-0.196,1.256
				c6.223,2.897,23.129,8.287,45.219-3.93l0.115-2.232l1.683-32.565l16.699,11.212c4.301,8.621,27.013,26.607,37.364,29.621
				c0,0-4.979-14.92-4.979-23.96l8.916,13.96l13.778-13.603v25.819c0,0,24.312-17.061,24.312-27.139c0,0,2.679,5.784,0.793,15.19
				c-0.117,0.584-0.247,1.179-0.401,1.79c7.246,2.469,20.166,3.625,31.504,1.19c0.067-0.581,0.123-1.153,0.169-1.712
				c0.315-3.847,0.198-7.026,0.682-7.51c1.164-1.164,6.248-5.983,6.248-5.983"/>
		</g>
		
			<path fill-rule="evenodd" clip-rule="evenodd" fill="#141414" stroke="#000000" stroke-width="8" stroke-linecap="round" stroke-linejoin="round" stroke-miterlimit="10" d="
			M492.979,283.465c10.87,0,20.511,8.794,29.194,49.977s8.683,62.01,8.683,70.53l-5.639-9.03c0,0-4.341,26.543,16.279,47.163
			c0,0-13.925,3.146-17.036-4.233c0,0-7.354,22.121-3.677,29.621l-12.143-18.82l-2.292,9.82l-11-9.82"/>
		
			<path fill-rule="evenodd" clip-rule="evenodd" fill="#141414" stroke="#000000" stroke-width="8" stroke-linecap="round" stroke-linejoin="round" stroke-miterlimit="10" d="
			M126.651,378.191c8.722,25.78-1.597,37.778,4.699,47.802c12.143,19.333,51.35,11.32,60.157,0
			c15.295-19.66,15.972-55.921,15.972-55.921"/>
		
			<path fill="#CCAC6C" stroke="#000000" stroke-width="8" stroke-linecap="round" stroke-linejoin="round" stroke-miterlimit="10" d="
			M54.522,168.218c0,0-0.169,0.114-0.498,0.338c-0.164,0.111-0.368,0.249-0.61,0.414c-0.146,0.089-0.196,0.157-0.275,0.233
			c-0.077,0.075-0.159,0.154-0.247,0.239c-0.172,0.159-0.37,0.325-0.642,0.632c-0.253,0.287-0.553,0.539-0.833,0.921
			c-0.584,0.702-1.23,1.567-1.884,2.63c-1.314,2.114-2.689,4.962-3.904,8.447c-1.199,3.496-2.275,7.596-3.079,12.171
			c-0.786,4.58-1.371,9.609-1.572,14.958c-0.228,5.342-0.118,10.989,0.39,16.771c0.487,5.781,1.414,11.693,2.746,17.543
			c1.358,5.844,3.143,11.627,5.426,17.1c1.133,2.739,2.376,5.406,3.753,7.952c1.342,2.569,2.851,4.993,4.41,7.314
			c1.565,2.319,3.267,4.47,4.999,6.509c1.787,1.986,3.572,3.898,5.492,5.563c7.551,6.832,16.024,10.742,23.679,12.822
			c3.842,1.032,7.468,1.679,10.753,2.024c1.641,0.175,3.196,0.277,4.628,0.37c1.457,0.03,2.771,0.113,3.984,0.104
			c1.212-0.014,2.295-0.027,3.236-0.038c0.945-0.031,1.759-0.095,2.412-0.124c1.308-0.069,2.005-0.106,2.005-0.106l0.391-0.021
			c9.477-0.502,17.566,6.773,18.068,16.251s-6.774,17.566-16.251,18.068c-0.711,0.037-1.514,0.022-2.207-0.025
			c0,0-0.938-0.071-2.697-0.204c-0.879-0.074-1.958-0.141-3.233-0.268c-1.277-0.154-2.746-0.33-4.389-0.528
			c-1.643-0.211-3.472-0.55-5.447-0.871c-1.981-0.389-4.122-0.824-6.398-1.38c-4.555-1.109-9.665-2.721-15.064-4.988
			c-5.393-2.276-11.066-5.293-16.571-9.186c-5.505-3.881-10.838-8.628-15.501-14.137c-2.378-2.718-4.511-5.674-6.561-8.695
			c-1.986-3.062-3.851-6.222-5.485-9.494c-1.629-3.271-3.127-6.611-4.382-10.022c-1.295-3.397-2.385-6.853-3.316-10.321
			c-1.879-6.937-3.066-13.938-3.747-20.811c-0.653-6.876-0.819-13.625-0.527-20.108c0.271-6.484,0.959-12.704,1.971-18.538
			c0.984-5.837,2.341-11.284,3.872-16.238c1.551-4.953,3.35-9.405,5.259-13.252c1.929-3.843,4.015-7.071,6.075-9.58
			c1.024-1.256,2.057-2.326,3.026-3.213c0.454-0.457,0.98-0.831,1.41-1.191c0.231-0.179,0.411-0.341,0.657-0.509
			c0.245-0.165,0.476-0.321,0.696-0.469c0.421-0.272,0.872-0.584,1.126-0.707c0.262-0.132,0.481-0.243,0.659-0.332
			c0.354-0.179,0.537-0.271,0.537-0.271c1.79-0.903,3.974-0.184,4.877,1.606c0.832,1.649,0.288,3.633-1.203,4.641L54.522,168.218z"
			/>
		<g>
			<circle fill-rule="evenodd" clip-rule="evenodd" cx="176.017" cy="426.659" r="8.033"/>
		</g>
		<g>
			<circle fill-rule="evenodd" clip-rule="evenodd" cx="142.017" cy="423.59" r="8.033"/>
		</g>
		
			<path fill-rule="evenodd" clip-rule="evenodd" fill="#141414" stroke="#000000" stroke-width="8" stroke-linecap="round" stroke-linejoin="round" stroke-miterlimit="10" d="
			M425.683,426.659c-7.833,0.465-17.111,9.849-19.244,15.911"/>
		<path d="M262.504,470.684l0.223-1.422"/>
		
			<path fill="#564432" stroke="#000000" stroke-width="8" stroke-linecap="round" stroke-linejoin="round" stroke-miterlimit="10" d="
			M263.333,465.387l-0.606,3.875l-0.223,1.422l-1.821,11.643c0,0,3.557,5.072,9.333,6.563l4.118-7.167l0.882,7.603
			c0,0,4.565,1.74,15.667-0.436l17.453-19.397l0.416-8.035C286.462,473.674,269.556,468.284,263.333,465.387z"/>
		<g>
			
				<path fill="#564432" stroke="#000000" stroke-width="8" stroke-linecap="round" stroke-linejoin="round" stroke-miterlimit="10" d="
				M296.86,477.552c-1.627,4.638-4.263,7.99-4.263,13.626c0,0,1.502,1.658,4.564,2.002l2.625-3.906l0.469,5.406
				c0,0,13.219,2.219,20.688-3.188c3.757-2.72,4.343-8.609,4.443-15.508C309.926,481.839,301.951,480.912,296.86,477.552z"/>
			
				<path fill="#141414" stroke="#000000" stroke-width="8" stroke-linecap="round" stroke-linejoin="round" stroke-miterlimit="10" d="
				M259.444,405.83c3.882,3.882-2.094,21.253,4.239,32.041l5.47-11.998c0,0,7.228,18.088,17.863,30.12
				c0,0,0.534-12.045,5.551-14.941c0,0,5.544,19.82,5.544,29.214c0,0.849-0.058,1.634-0.14,2.393
				c-0.198,1.83-0.599,3.432-1.111,4.894c5.09,3.36,13.065,4.287,28.526-1.567c0.016-1.086,0.02-2.198,0.022-3.326
				c0.011-5.949-0.021-12.359,1.441-17.999c3.5-13.5,8.782-23.577,8.782-23.577s6.697,2.667,6.697,6.789
				c0,0,1.937-8.632-3.313-13.881c0,0,7.154,1.19,11.327,8.68l-3.115-22.45l9.6,3.839l-3.812-11.845"/>
		</g>
		<g>
			
				<path fill="#564432" stroke="#000000" stroke-width="8" stroke-linecap="round" stroke-linejoin="round" stroke-miterlimit="10" d="
				M454.688,470.785c-2.271,4.443-5.172,9.624-5.172,15.624l11.083-2.5l2.613,4.98c6.863,0,15.762-2.48,20.137-7.397
				c-0.224-4.389,0.086-7.693,0.643-10.319C473.163,472.803,461.925,472.59,454.688,470.785z"/>
			
				<path fill="#141414" stroke="#000000" stroke-width="8" stroke-linecap="round" stroke-linejoin="round" stroke-miterlimit="10" d="
				M386.465,361.404l11.385,3.244l-17.917,20.503l17,1.584c-1,5.917,7.167,31.172,7.167,31.172c6.5-5,9.833-14.417,9.833-14.417
				c1,1-1.833,16.584-0.833,21.917c2.193-1.267,6.722-7.868,6.722-7.868c0,10.215,6.112,20.618,6.112,20.618
				c1.583-6.667,7.25-11.083,7.25-11.083c1.25,12.5,11.583,23.462,11.583,23.462c0-2.371,3.083-4.462,3.083-4.462
				c1.568,4.197,4.5,19,4.5,19c1.667-2.583,4.917-2.935,4.917-2.935c0.294,1.735-0.258,3.649-1.181,5.751
				c-0.407,0.928-0.885,1.893-1.397,2.895c7.237,1.805,18.475,2.018,29.304,0.388c0.201-0.947,0.434-1.804,0.686-2.592
				c1.501-4.702,3.671-6.913,3.671-10.589c0-6-5.364-10.288-6.535-12.486s1.189-10.24,1.189-10.24l12.346,25.727
				c6.5-13,6.395-51.255,6.395-51.255l8.678,14.253c2.573-13.002-15.78-143.336-22.771-173.803
				c-11.302-49.255-53.123-78.678-71.59-92.695c-26.748-20.303-53.711-47-112.307-50.606c-20.366-1.254-83.191,37.774-92.703,47.286
				s-19.92,7.481-23.656,3.746c0,0,3.373,11.069,14.414,11.069c0,0-21.039,10.397-27.999,39.451l9.644-3.476
				c0,0-10.695,25.924-27.632,35.824s-29.493,8.498-33.774,3.425c0,0,1.517,7.749,8.13,11.566c0,0-46.157,15.524-28.888,105.714
				c4.278,22.344,22.061,32.487,22.061,32.487s-3.842-6.751-0.171-18.119c-2.099-2.099,19.179,10.716,23.425,25.674
				c0,0,3.253-8.987,3.253-14.765c0,0,5.514,3.43,5.514,19.826c0,0,9.156-4.643,15.568-20.123c0,0,4.088,7.463,0,15.741
				c0,0,18.951-7.954,29.931-30.838v10.616c0,0,18.44-21.006,15.947-36.253"/>
		</g>
		
			<path fill="#CCAC6C" stroke="#000000" stroke-width="8" stroke-linecap="round" stroke-linejoin="round" stroke-miterlimit="10" d="
			M293.899,168.218c0,0,0.169,0.114,0.498,0.338c0.164,0.111,0.368,0.249,0.61,0.414c0.146,0.089,0.196,0.157,0.275,0.233
			c0.077,0.075,0.159,0.154,0.247,0.239c0.172,0.159,0.37,0.325,0.642,0.632c0.253,0.287,0.553,0.539,0.833,0.921
			c0.584,0.702,1.23,1.567,1.884,2.63c1.314,2.114,2.689,4.962,3.904,8.447c1.199,3.496,2.275,7.596,3.079,12.171
			c0.786,4.58,1.371,9.609,1.572,14.958c0.228,5.342,0.118,10.989-0.39,16.771c-0.487,5.781-1.414,11.693-2.746,17.543
			c-1.358,5.844-3.143,11.627-5.426,17.1c-1.133,2.739-2.376,5.406-3.753,7.952c-1.342,2.569-2.851,4.993-4.41,7.314
			c-1.565,2.319-3.267,4.47-4.999,6.509c-1.787,1.986-3.572,3.898-5.492,5.563c-7.551,6.832-16.024,10.742-23.679,12.822
			c-3.842,1.032-7.468,1.679-10.753,2.024c-1.641,0.175-3.196,0.277-4.628,0.37c-1.457,0.03-2.771,0.113-3.984,0.104
			c-1.212-0.014-2.295-0.027-3.236-0.038c-0.945-0.031-1.759-0.095-2.412-0.124c-1.308-0.069-2.005-0.106-2.005-0.106l-0.391-0.021
			c-9.477-0.502-17.566,6.773-18.068,16.251s6.774,17.566,16.251,18.068c0.711,0.037,1.514,0.022,2.207-0.025
			c0,0,0.938-0.071,2.697-0.204c0.879-0.074,1.958-0.141,3.233-0.268c1.277-0.154,2.746-0.33,4.389-0.528
			c1.643-0.211,3.472-0.55,5.447-0.871c1.981-0.389,4.122-0.824,6.398-1.38c4.555-1.109,9.665-2.721,15.064-4.988
			c5.393-2.276,11.066-5.293,16.571-9.186c5.505-3.881,10.838-8.628,15.501-14.137c2.378-2.718,4.511-5.674,6.561-8.695
			c1.986-3.062,3.851-6.222,5.485-9.494c1.629-3.271,3.127-6.611,4.382-10.022c1.295-3.397,2.385-6.853,3.316-10.321
			c1.879-6.937,3.066-13.938,3.747-20.811c0.653-6.876,0.819-13.625,0.527-20.108c-0.271-6.484-0.959-12.704-1.971-18.538
			c-0.984-5.837-2.341-11.284-3.872-16.238c-1.551-4.953-3.35-9.405-5.259-13.252c-1.929-3.843-4.015-7.071-6.075-9.58
			c-1.024-1.256-2.057-2.326-3.026-3.213c-0.454-0.457-0.98-0.831-1.41-1.191c-0.231-0.179-0.411-0.341-0.657-0.509
			c-0.245-0.165-0.476-0.321-0.696-0.469c-0.421-0.272-0.872-0.584-1.126-0.707c-0.262-0.132-0.481-0.243-0.659-0.332
			c-0.354-0.179-0.537-0.271-0.537-0.271c-1.79-0.903-3.974-0.184-4.877,1.606c-0.832,1.649-0.288,3.633,1.203,4.641
			L293.899,168.218z"/>
	</g>
</g>
</svg>
