<?xml version="1.0" encoding="utf-8"?>
<!-- Generator: Adobe Illustrator 16.0.0, SVG Export Plug-In . SVG Version: 6.00 Build 0)  -->
<!DOCTYPE svg PUBLIC "-//W3C//DTD SVG 1.1//EN" "http://www.w3.org/Graphics/SVG/1.1/DTD/svg11.dtd">
<svg version="1.1" xmlns="http://www.w3.org/2000/svg" xmlns:xlink="http://www.w3.org/1999/xlink" x="0px" y="0px"
	 width="566.93px" height="566.93px" viewBox="0 0 566.93 566.93" enable-background="new 0 0 566.93 566.93" xml:space="preserve">
<g id="fond" display="none">
	
		<rect x="-12793.873" y="-10145.944" display="inline" fill-rule="evenodd" clip-rule="evenodd" fill="#58595B" width="15942.492" height="15814.695"/>
</g>
<g id="en_cours">
</g>
<g id="fini">
	<g>
		<path fill="#AB2E23" stroke="#000000" stroke-width="8" stroke-linejoin="round" stroke-miterlimit="10" d="M519.465,452.853
			c0-83.947-105.66-152-236-152s-236,68.053-236,152"/>
		
			<ellipse fill="#E5E2D3" stroke="#000000" stroke-width="8" stroke-linejoin="round" stroke-miterlimit="10" cx="283.465" cy="348.618" rx="124" ry="39.5"/>
		<g>
			<path fill="#FFFFFF" stroke="#000000" stroke-width="8" stroke-linejoin="round" stroke-miterlimit="10" d="M165.771,281.834
				l-22.796,39.834c0,0-7.402,21.98,24.195,62.695c21.805,28.096,82.799,61.949,82.799,61.949l21.158-112.46"/>
			<path fill="#FFFFFF" stroke="#000000" stroke-width="8" stroke-linejoin="round" stroke-miterlimit="10" d="M401.159,281.834
				l22.796,39.834c0,0,7.402,21.98-24.195,62.695c-21.805,28.096-82.8,61.949-82.8,61.949l-21.157-112.46"/>
		</g>
		<path fill="#E5E2D3" stroke="#000000" stroke-width="8" stroke-linejoin="round" stroke-miterlimit="10" d="M407.465,294.353
			c0-21.814-55.518-39.5-124-39.5c-68.483,0-124,17.686-124,39.5c0,20.492,48.994,37.34,111.705,39.307l-0.043,0.193l12.338,54.266
			l12.338-54.266l-0.043-0.193C358.471,331.692,407.465,314.845,407.465,294.353z"/>
	</g>
</g>
</svg>
