<?xml version="1.0" encoding="utf-8"?>
<!-- Generator: Adobe Illustrator 16.0.0, SVG Export Plug-In . SVG Version: 6.00 Build 0)  -->
<!DOCTYPE svg PUBLIC "-//W3C//DTD SVG 1.1//EN" "http://www.w3.org/Graphics/SVG/1.1/DTD/svg11.dtd">
<svg version="1.1" xmlns="http://www.w3.org/2000/svg" xmlns:xlink="http://www.w3.org/1999/xlink" x="0px" y="0px"
	 width="566.93px" height="566.93px" viewBox="0 0 566.93 566.93" enable-background="new 0 0 566.93 566.93" xml:space="preserve">
<g id="fond" display="none">
	
		<rect x="-11243.873" y="-8544.855" display="inline" fill-rule="evenodd" clip-rule="evenodd" fill="#58595B" width="16654.492" height="16572.797"/>
</g>
<g id="en_cours">
</g>
<g id="fini">
	<g>
		
			<polygon fill="#FFFFFF" stroke="#000000" stroke-width="8" stroke-linecap="round" stroke-linejoin="round" stroke-miterlimit="10" points="
			325.574,532.932 130.85,491.986 130.85,117.638 325.574,158.583 		"/>
		
			<polygon fill="#E5E2D3" stroke="#000000" stroke-width="8" stroke-linecap="round" stroke-linejoin="round" stroke-miterlimit="10" points="
			436.08,117.638 325.574,158.583 325.574,532.932 436.08,469.609 		"/>
		
			<polygon fill="#FFFFFF" stroke="#000000" stroke-width="8" stroke-linecap="round" stroke-linejoin="round" stroke-miterlimit="10" points="
			130.85,117.638 255.996,84.033 436.08,117.638 325.574,158.583 		"/>
		
			<polygon fill="#E5E2D3" stroke="#000000" stroke-width="8" stroke-linecap="round" stroke-linejoin="round" stroke-miterlimit="10" points="
			385.762,210.047 436.08,117.638 325.574,158.583 		"/>
		
			<polygon fill="#E5E2D3" stroke="#000000" stroke-width="8" stroke-linecap="round" stroke-linejoin="round" stroke-miterlimit="10" points="
			325.574,532.932 385.762,428.846 436.08,469.609 		"/>
		<g>
			<g>
				<g>
					<g>
						
							<path fill="#E5E2D3" stroke="#000000" stroke-width="8" stroke-linecap="round" stroke-linejoin="round" stroke-miterlimit="10" d="
							M275.16,336.735c12.602,8.604,26.072,11.347,37.203,8.724c-4.275-13.146-13.418-25.846-26.021-34.451
							c-12.602-8.604-26.072-11.346-37.205-8.723C253.416,315.428,262.557,328.128,275.16,336.735z"/>
					</g>
				</g>
				<g>
					<g>
						
							<path fill="#E5E2D3" stroke="#000000" stroke-width="8" stroke-linecap="round" stroke-linejoin="round" stroke-miterlimit="10" d="
							M181.264,309.625c-12.604,1.326-26.072-3.709-37.205-12.76c4.279-10.676,13.418-18.095,26.021-19.425
							c12.602-1.327,26.076,3.71,37.205,12.761C203.008,300.874,193.865,308.294,181.264,309.625z"/>
					</g>
				</g>
				<g>
					
						<path fill="#564432" stroke="#000000" stroke-width="8" stroke-linecap="round" stroke-linejoin="round" stroke-miterlimit="10" d="
						M207.285,290.201c-8.791-7.146-19.041-11.788-29.17-12.771c-2.389,2.738-3.797,6.506-3.797,11.019
						c0,7.557,3.939,15.317,9.857,20.745C195.273,307.1,203.346,300.035,207.285,290.201z"/>
				</g>
			</g>
			<g>
				
					<path fill="#CCAC6C" stroke="#000000" stroke-width="8" stroke-linecap="round" stroke-linejoin="round" stroke-miterlimit="10" d="
					M216.039,293.749c1.215-5.072-1.307-11.554-6.104-15.67c-2.342-2.007-5.057-3.083-7.588-4.605
					c-2.881-1.73-5.711-3.809-8.104-6.382c-5.666-6.098-6.879-13.68-6.025-20.288c0.314-2.436,1.65-4.917-0.234-7.681
					c-1.867-2.733-5.416-3.482-6.934-1.471c-3.604,4.267-5.844,10.424-6.217,16.717c-0.434,7.435,1.846,15.264,6.041,22.69
					c3.732,6.603,9.014,12.54,14.568,17.695c2.15,1.992,4.262,3.809,6.848,4.862c2.684,1.092,5.432,1.306,7.768,0.612
					C213.076,299.333,215.268,296.961,216.039,293.749C217.574,287.334,214.5,300.162,216.039,293.749z"/>
				
					<path fill="#CCAC6C" stroke="#000000" stroke-width="8" stroke-linecap="round" stroke-linejoin="round" stroke-miterlimit="10" d="
					M240.385,300.778c-1.213-5.774,1.305-10.8,6.105-12.146c2.338-0.655,5.055-0.164,7.586-0.224
					c2.879-0.069,5.711-0.51,8.102-1.702c5.668-2.824,6.879-9.708,6.025-16.811c-0.313-2.616-1.65-5.869,0.234-7.543
					c1.867-1.658,5.416-0.356,6.936,2.531c3.604,6.349,5.842,13.801,6.215,20.308c0.436,7.687-1.846,14.198-6.041,19.202
					c-3.732,4.447-9.014,7.334-14.568,9.283c-2.146,0.751-4.26,1.349-6.848,0.906c-2.682-0.458-5.432-1.829-7.768-3.871
					C243.346,308.073,241.154,304.436,240.385,300.778C238.848,293.476,241.922,308.08,240.385,300.778z"/>
			</g>
			
				<path fill="#E5E2D3" stroke="#000000" stroke-width="8" stroke-linecap="round" stroke-linejoin="round" stroke-miterlimit="10" d="
				M258.365,388.194c0-19.063,6.357-29.142,6.357-38.364c0-9.225,10.656-27.488-9.891-48.59
				c-14.521-14.913-4.924-9.927-26.621-16.189c-21.697-6.265-12.1-5.711-26.619,0.816c-20.547,9.236-9.895,33.653-9.895,42.877
				s6.359,22.974,6.359,42.037"/>
			
				<path fill="#C9AD8F" stroke="#000000" stroke-width="8" stroke-linecap="round" stroke-linejoin="round" stroke-miterlimit="10" d="
				M228.211,371.569c28.818,8.321,30.391,16.693,30.391,16.693c6.477,14.79-3.305,19.463-9.039,24.443
				c-4.715,4.099-15.906-2.296-21.113-3.799l-0.475-0.136c-5.207-1.505-16.4-1.573-21.115-8.396
				c-5.734-8.29-15.516-18.612-9.035-29.662C197.824,370.714,199.395,363.249,228.211,371.569z"/>
			<g>
				
					<path fill="#896E5B" stroke="#000000" stroke-width="8" stroke-linecap="round" stroke-linejoin="round" stroke-miterlimit="10" d="
					M212.861,398.342c2.559-3.373,1.053-9.42-3.365-13.503c-4.42-4.081-10.078-4.657-12.641-1.283
					c-0.07,0.096-0.137,0.192-0.201,0.289c2.027,6.038,6.822,11.64,10.205,16.531c0.018,0.029,0.041,0.054,0.061,0.079
					C209.332,400.79,211.52,400.105,212.861,398.342z"/>
				
					<path fill="#896E5B" stroke="#000000" stroke-width="8" stroke-linecap="round" stroke-linejoin="round" stroke-miterlimit="10" d="
					M259.768,402.068c-0.064-0.135-0.131-0.27-0.201-0.404c-2.561-4.854-8.221-7.549-12.641-6.018
					c-4.416,1.531-5.924,6.707-3.359,11.56c1.336,2.539,3.523,4.486,5.936,5.546c0.02-0.016,0.041-0.029,0.061-0.046
					C252.947,409.77,257.738,406.936,259.768,402.068z"/>
			</g>
			<g>
				
					<path fill="#564432" stroke="#000000" stroke-width="8" stroke-linecap="round" stroke-linejoin="round" stroke-miterlimit="10" d="
					M254.832,301.24c-14.521-14.913-4.924-9.927-26.621-16.189c-1.977-0.571-3.693-1.086-5.193-1.546
					c-4.166,6.513-6.537,14.678-6.537,24.086c0,26.357,18.588,53.693,43.242,65.755c1.867-10.135,5-17.039,5-23.516
					C264.723,340.605,275.379,322.342,254.832,301.24z"/>
			</g>
			<g>
				<path d="M261.654,345.619c0,3.73-2.992,5.889-6.686,4.824c-3.691-1.067-6.682-4.955-6.682-8.685c0-3.727,2.99-5.887,6.682-4.819
					C258.662,338.004,261.654,341.892,261.654,345.619z"/>
				<path d="M208.135,330.167c0,3.729-2.99,5.889-6.682,4.822c-3.693-1.064-6.686-4.953-6.686-8.682
					c0-3.728,2.992-5.887,6.686-4.821C205.145,322.553,208.135,326.44,208.135,330.167z"/>
			</g>
		</g>
		<g>
			
				<path fill="#2268A8" stroke="#000000" stroke-width="8" stroke-linecap="round" stroke-linejoin="round" stroke-miterlimit="10" d="
				M307.352,94.475v21.957c0,11.565,14.605,20.937,32.624,20.937c18.017,0,32.625-9.371,32.625-20.937V94.475H307.352z"/>
			
				<path fill="#2268A8" stroke="#000000" stroke-width="8" stroke-linecap="round" stroke-linejoin="round" stroke-miterlimit="10" d="
				M372.601,94.475c0,11.563-14.608,20.936-32.625,20.936c-18.019,0-32.624-9.372-32.624-20.936
				c0-11.565,14.605-20.937,32.624-20.937C357.992,73.538,372.601,82.909,372.601,94.475z"/>
		</g>
	</g>
</g>
</svg>
