<?xml version="1.0" encoding="utf-8"?>
<!-- Generator: Adobe Illustrator 16.0.0, SVG Export Plug-In . SVG Version: 6.00 Build 0)  -->
<!DOCTYPE svg PUBLIC "-//W3C//DTD SVG 1.1//EN" "http://www.w3.org/Graphics/SVG/1.1/DTD/svg11.dtd">
<svg version="1.1" xmlns="http://www.w3.org/2000/svg" xmlns:xlink="http://www.w3.org/1999/xlink" x="0px" y="0px" width="566.9px"
	 height="566.9px" viewBox="0 0 566.9 566.9" enable-background="new 0 0 566.9 566.9" xml:space="preserve">
<g id="fond" display="none">
	
		<rect x="-7607.9" y="-9494.9" display="inline" fill-rule="evenodd" clip-rule="evenodd" fill="#F2F2F2" width="15942.5" height="15814.7"/>
</g>
<g id="en_cours">
</g>
<g id="fini">
	<g>
		<polygon fill-rule="evenodd" clip-rule="evenodd" fill="#006032" points="500.1,374 488.3,378.7 482.6,435.7 494.6,429.5 		"/>
		<polygon fill-rule="evenodd" clip-rule="evenodd" fill="#008142" points="482.6,435.7 472.3,431.8 477.5,374 488.3,378.7 		"/>
		<polygon fill-rule="evenodd" clip-rule="evenodd" fill="#006032" points="173.8,251.2 162,255.9 156.3,313 168.3,306.7 		"/>
		<polygon fill-rule="evenodd" clip-rule="evenodd" fill="#008142" points="156.3,313 146,309 151.2,251.2 162,255.9 		"/>
		<g>
			<path fill="#008142" d="M122,307.5l-6.6,1.2c-0.1,6.3-4.5,12.5-10.4,15.1c1.1,0.1,2.2,0,3.4-0.2C115.9,322.2,121.9,315,122,307.5
				z"/>
			<path fill="#004B23" d="M142.7,303.8l-6.5,1.2l-14.2,2.6c-0.1,7.5-6.1,14.7-13.6,16.1c-1.2,0.2-2.3,0.3-3.4,0.2
				c-5.9-0.4-10.1-5-9.9-11.4l-6.8,1.2l-14.9,2.7c-0.9,21.3,15.1,19.1,14.7,33.3c-0.4,14.4-16.8,18.7-17.8,41.5l15.6-3.4l7.1-1.5
				c0.2-7,4.9-13.7,11-16.6c1.1-0.5,2.3-0.9,3.5-1.2c7.7-1.6,13.8,3.6,13.7,11.7l14.9-3.2l6.8-1.5c-0.1-21.8-15.6-19.5-15.5-33.6
				C127.5,328,142.8,324.2,142.7,303.8z"/>
			<path fill="#006032" d="M73.5,316.3l-6.9,1.3c-1,21.4,15.1,19.2,14.6,33.4c-0.5,13.5-14.9,18.1-17.6,37.3l6.8,2.8
				c0.9-22.8,17.3-27.1,17.8-41.5C88.6,335.5,72.6,337.7,73.5,316.3z"/>
			<path fill="#006032" d="M107.6,368.4c-1.2,0.2-2.4,0.7-3.5,1.2c4.6,0.3,8.2,3.1,9.6,7.4l7.6,3.1
				C121.4,372,115.3,366.8,107.6,368.4z"/>
		</g>
		<g>
			<path fill="#008142" d="M458.3,437.1l-8.2,1.4c-0.1,8.1-5.6,16-12.9,19.2c1.3,0.1,2.7,0.1,4.2-0.2
				C450.6,455.9,458.2,446.7,458.3,437.1z"/>
			<path fill="#004B23" d="M484.1,432.7l-8.1,1.4l-17.7,3c-0.1,9.6-7.7,18.8-17,20.5c-1.5,0.3-2.9,0.3-4.2,0.2
				c-7.3-0.7-12.6-6.6-12.4-14.9l-8.5,1.5l-18.5,3.2c-1.1,27.4,18.9,24.9,18.3,43.1c-0.6,18.5-21,23.7-22.2,53l19.5-4l8.9-1.8
				c0.2-9,6.1-17.5,13.7-21.1c1.4-0.7,2.8-1.2,4.3-1.5c9.6-1.9,17.2,4.9,17.1,15.4l18.6-3.8l8.5-1.7c-0.1-28.1-19.5-25.4-19.4-43.5
				C465.1,463.6,484.2,459,484.1,432.7z"/>
			<path fill="#006032" d="M397.7,447.5l-8.6,1.5c-1.2,27.5,18.9,25,18.2,43.2c-0.6,17.3-18.6,23-22,47.6l8.5,3.7
				c1.2-29.3,21.6-34.5,22.2-53C416.6,472.4,396.6,474.9,397.7,447.5z"/>
			<path fill="#006032" d="M440.2,515.1c-1.5,0.3-2.9,0.8-4.3,1.5c5.7,0.4,10.2,4.1,12,9.7l9.5,4.2
				C457.5,520,449.8,513.2,440.2,515.1z"/>
		</g>
		<g>
			<polygon fill-rule="evenodd" clip-rule="evenodd" fill="#6E9E75" points="480.7,447 65.2,281 113.3,276 528.9,432.8 			"/>
			<polygon fill-rule="evenodd" clip-rule="evenodd" fill="#006032" points="480.7,447 528.9,432.8 528.9,446.1 480.7,462.4 			"/>
			<polygon fill-rule="evenodd" clip-rule="evenodd" fill="#008142" points="65.2,281 480.7,447 480.7,462.4 65.2,294.1 			"/>
			<polygon fill-rule="evenodd" clip-rule="evenodd" fill="#6E9E75" points="423.1,464.4 7.6,288.2 55.7,282.1 471.3,449.8 			"/>
			<polygon fill-rule="evenodd" clip-rule="evenodd" fill="#006032" points="423.1,464.4 471.3,449.8 471.3,464.4 423.1,480.7 			
				"/>
			<polygon fill-rule="evenodd" clip-rule="evenodd" fill="#008142" points="7.6,288.2 423.1,464.4 423.1,480.7 7.6,301.3 			"/>
		</g>
		<polygon fill-rule="evenodd" clip-rule="evenodd" fill="#006032" points="548.7,356.9 538.1,361.9 533,419.4 543.7,412.7 		"/>
		<polygon fill-rule="evenodd" clip-rule="evenodd" fill="#008142" points="533,419.4 122,262 125.8,224.4 538.1,361.9 		"/>
		<polygon fill-rule="evenodd" clip-rule="evenodd" fill="#6E9E75" points="548.7,356.9 538.1,361.9 125.8,224.4 148.7,222.5 		"/>
		<polygon fill-rule="evenodd" clip-rule="evenodd" fill="#006032" points="554.3,292.8 543.9,296.5 538.8,354.9 549.1,351.5 		"/>
		<polygon fill-rule="evenodd" clip-rule="evenodd" fill="#008142" points="538.8,354.9 126.7,218.6 131.1,171.2 543.9,296.5 		"/>
		<polygon fill-rule="evenodd" clip-rule="evenodd" fill="#6E9E75" points="554.3,292.8 543.9,296.5 131.1,171.2 146.5,170.5 		"/>
	</g>
</g>
</svg>
