<?xml version="1.0" encoding="utf-8"?>
<!-- Generator: Adobe Illustrator 16.0.0, SVG Export Plug-In . SVG Version: 6.00 Build 0)  -->
<!DOCTYPE svg PUBLIC "-//W3C//DTD SVG 1.1//EN" "http://www.w3.org/Graphics/SVG/1.1/DTD/svg11.dtd">
<svg version="1.1" xmlns="http://www.w3.org/2000/svg" xmlns:xlink="http://www.w3.org/1999/xlink" x="0px" y="0px"
	 width="566.93px" height="566.93px" viewBox="0 0 566.93 566.93" enable-background="new 0 0 566.93 566.93" xml:space="preserve">
<g id="fond" display="none">
	
		<rect x="-8889.913" y="-8861.898" display="inline" fill-rule="evenodd" clip-rule="evenodd" fill="#58595B" width="15942.492" height="15814.695"/>
</g>
<g id="en_cours">
</g>
<g id="fini">
	<g>
		<g>
			<path fill="#AB2E23" d="M161.231,373.864c-2.209,0-4-1.791-4-4V152.997c0-2.209,1.791-4,4-4h20.814c2.209,0,4,1.791,4,4v216.867
				c0,2.209-1.791,4-4,4H161.231z"/>
			<path fill="#241815" d="M182.046,152.997v216.867h-20.814V152.997H182.046 M182.046,144.997h-20.814c-4.418,0-8,3.582-8,8
				v216.867c0,4.418,3.582,8,8,8h20.814c4.418,0,8-3.582,8-8V152.997C190.046,148.579,186.464,144.997,182.046,144.997
				L182.046,144.997z"/>
		</g>
		<g>
			<path fill="#AB2E23" d="M83.164,403.045c-2.209,0-4-1.791-4-4v-100.29c0-2.209,1.791-4,4-4h20.814c2.209,0,4,1.791,4,4v100.29
				c0,2.209-1.791,4-4,4H83.164z"/>
			<path fill="#241815" d="M103.979,298.755v100.29H83.164v-100.29H103.979 M103.979,290.755H83.164c-4.418,0-8,3.582-8,8v100.29
				c0,4.418,3.582,8,8,8h20.814c4.418,0,8-3.582,8-8v-100.29C111.979,294.337,108.396,290.755,103.979,290.755L103.979,290.755z"/>
		</g>
		<g>
			<path fill="#AB2E23" d="M388.764,542.126c-2.209,0-4-1.791-4-4V436.199c0-2.209,1.791-4,4-4h20.815c2.209,0,4,1.791,4,4v101.927
				c0,2.209-1.791,4-4,4H388.764z"/>
			<path fill="#241815" d="M409.579,436.199v101.927h-20.815V436.199H409.579 M409.579,428.199h-20.815c-4.418,0-8,3.582-8,8
				v101.927c0,4.418,3.582,8,8,8h20.815c4.418,0,8-3.582,8-8V436.199C417.579,431.781,413.997,428.199,409.579,428.199
				L409.579,428.199z"/>
		</g>
		<g>
			<path fill="#AB2E23" d="M404.472,448.066c-0.14,0-0.28-0.008-0.421-0.022c-1.055-0.111-2.022-0.638-2.689-1.463l-13.087-16.185
				c-1.389-1.718-1.122-4.236,0.596-5.625l68.955-55.76c0.74-0.599,1.629-0.89,2.513-0.89c1.166,0,2.321,0.507,3.112,1.484
				l13.089,16.185c0.667,0.825,0.979,1.882,0.867,2.937c-0.111,1.055-0.638,2.022-1.463,2.689l-68.957,55.76
				C406.271,447.755,405.383,448.066,404.472,448.066z"/>
			<path fill="#241815" d="M460.34,372.122l13.089,16.185l-68.957,55.76l-13.087-16.185L460.34,372.122 M460.335,364.122
				c-1.767,0-3.545,0.582-5.025,1.779l-68.955,55.76c-3.436,2.778-3.969,7.815-1.19,11.251l13.087,16.185
				c1.334,1.649,3.269,2.702,5.379,2.925c0.281,0.03,0.563,0.045,0.842,0.045c1.822,0,3.6-0.623,5.03-1.779l68.957-55.76
				c1.649-1.334,2.702-3.27,2.925-5.379c0.224-2.11-0.4-4.223-1.734-5.872l-13.089-16.185
				C464.979,365.137,462.667,364.122,460.335,364.122L460.335,364.122z"/>
		</g>
		<g>
			<path fill="#AB2E23" d="M97.611,311.535c-0.635,0-1.266-0.151-1.84-0.448c-0.942-0.488-1.651-1.33-1.973-2.341L87.5,288.907
				c-0.668-2.106,0.496-4.354,2.602-5.023l69.274-21.997c0.403-0.128,0.811-0.188,1.212-0.188c1.696,0,3.271,1.087,3.812,2.79
				l6.302,19.837c0.321,1.011,0.228,2.108-0.261,3.051c-0.487,0.941-1.33,1.651-2.341,1.973l-69.277,21.999
				C98.427,311.473,98.019,311.535,97.611,311.535z"/>
			<path fill="#241815" d="M160.587,265.699l6.302,19.837l-69.277,21.999l-6.299-19.839L160.587,265.699 M160.589,257.697
				c-0.803,0-1.617,0.121-2.423,0.377l-69.274,21.997c-4.211,1.337-6.541,5.835-5.204,10.046l6.299,19.839
				c0.643,2.022,2.062,3.707,3.945,4.683c1.147,0.595,2.411,0.896,3.68,0.896c0.814,0,1.631-0.124,2.421-0.375l69.277-21.999
				c2.022-0.643,3.707-2.062,4.683-3.946c0.977-1.884,1.163-4.078,0.521-6.101l-6.301-19.837
				C167.13,259.872,163.981,257.697,160.589,257.697L160.589,257.697z"/>
		</g>
		<g>
			<path fill="#AB2E23" d="M470.604,462.651c-2.209,0-4-1.791-4-4v-260.93c0-2.209,1.791-4,4-4h20.814c2.209,0,4,1.791,4,4v260.93
				c0,2.209-1.791,4-4,4H470.604z"/>
			<path fill="#241815" d="M491.419,197.722v260.93h-20.814v-260.93H491.419 M491.419,189.722h-20.814c-4.418,0-8,3.582-8,8v260.93
				c0,4.418,3.582,8,8,8h20.814c4.418,0,8-3.582,8-8v-260.93C499.419,193.304,495.837,189.722,491.419,189.722L491.419,189.722z"/>
		</g>
		<g>
			<path fill="#AB2E23" d="M531.965,269.952c-0.355,0-0.713-0.047-1.063-0.144l-409.063-112.71
				c-1.735-0.479-2.938-2.057-2.938-3.856v-42.575c0-1.213,0.55-2.359,1.495-3.119c0.717-0.575,1.603-0.881,2.505-0.881
				c0.288,0,0.577,0.031,0.864,0.095l409.063,90.475c1.832,0.405,3.136,2.029,3.136,3.905v64.811c0,1.248-0.583,2.426-1.576,3.182
				C533.685,269.671,532.831,269.952,531.965,269.952z"/>
			<path fill="#241815" d="M122.901,110.667l409.063,90.475v64.811l-409.063-112.71V110.667 M122.901,102.667
				c-1.805,0-3.575,0.611-5.009,1.763c-1.892,1.518-2.991,3.813-2.991,6.237v42.575c0,3.6,2.404,6.756,5.875,7.713l409.063,112.71
				c0.7,0.192,1.415,0.287,2.125,0.287c1.732,0,3.438-0.563,4.848-1.636c1.986-1.514,3.152-3.867,3.152-6.364v-64.811
				c0-3.753-2.608-7.001-6.272-7.812l-409.063-90.475C124.057,102.729,123.478,102.667,122.901,102.667L122.901,102.667z"/>
		</g>
		<g>
			<path fill="#AB2E23" d="M531.965,360.392c-0.427,0-0.855-0.068-1.27-0.207L121.632,223.254c-1.631-0.546-2.73-2.073-2.73-3.793
				v-42.576c0-1.252,0.586-2.432,1.583-3.188c0.703-0.533,1.555-0.813,2.417-0.813c0.361,0,0.725,0.049,1.08,0.148L533.045,287.73
				c1.727,0.484,2.92,2.059,2.92,3.852v64.81c0,1.287-0.619,2.495-1.663,3.246C533.612,360.135,532.793,360.392,531.965,360.392z"/>
			<path fill="#241815" d="M122.901,176.885l409.063,114.697v64.81L122.901,219.461V176.885 M122.901,168.885
				c-1.726,0-3.427,0.559-4.833,1.625c-1.995,1.513-3.167,3.871-3.167,6.375v42.576c0,3.439,2.199,6.494,5.461,7.586
				l409.063,136.931c0.829,0.278,1.687,0.414,2.538,0.414c1.657,0,3.296-0.515,4.675-1.507c2.088-1.504,3.326-3.92,3.326-6.493
				v-64.81c0-3.587-2.387-6.734-5.84-7.703L125.062,169.182C124.351,168.982,123.624,168.885,122.901,168.885L122.901,168.885z"/>
		</g>
		<g>
			<path fill="#AB2E23" d="M480.32,419.941c-0.489,0-0.981-0.09-1.451-0.272L86.12,266.745c-1.516-0.59-2.522-2.038-2.548-3.664
				c-0.026-1.625,0.935-3.105,2.43-3.743l33.276-14.192c0.5-0.213,1.034-0.32,1.569-0.32c0.418,0,0.836,0.065,1.239,0.197
				l406.44,132.448c1.425,0.464,2.47,1.685,2.709,3.164c0.239,1.479-0.367,2.967-1.573,3.856l-46.968,34.669
				C481.997,419.675,481.163,419.941,480.32,419.941z"/>
			<path fill="#241815" d="M120.848,248.825l406.44,132.448l-46.968,34.668L87.571,263.018L120.848,248.825 M120.848,240.825
				c-1.07,0-2.138,0.215-3.139,0.642l-33.276,14.192c-2.99,1.275-4.912,4.234-4.86,7.485c0.052,3.252,2.066,6.148,5.097,7.328
				l392.749,152.924c0.938,0.365,1.923,0.545,2.901,0.545c1.686,0,3.355-0.532,4.752-1.563l46.968-34.668
				c2.411-1.779,3.625-4.757,3.146-7.714c-0.479-2.958-2.57-5.4-5.419-6.329l-406.44-132.448
				C122.52,240.956,121.683,240.825,120.848,240.825L120.848,240.825z"/>
		</g>
		<g>
			<path fill="#AB2E23" d="M415.875,472.632c-0.555,0-1.113-0.115-1.638-0.352L23.326,296.703c-1.463-0.656-2.393-2.124-2.36-3.728
				c0.031-1.604,1.019-3.033,2.506-3.632l44.414-17.869c0.479-0.192,0.986-0.289,1.493-0.289c0.494,0,0.988,0.092,1.457,0.274
				l396.303,154.993c1.342,0.525,2.298,1.731,2.503,3.158c0.204,1.427-0.375,2.853-1.516,3.733l-49.806,38.453
				C417.607,472.349,416.745,472.632,415.875,472.632z"/>
			<path fill="#241815" d="M69.379,275.186l396.303,154.993l-49.806,38.453L24.965,293.055L69.379,275.186 M69.379,267.186
				c-1.015,0-2.028,0.192-2.986,0.578l-44.414,17.869c-2.976,1.197-4.948,4.057-5.012,7.264s1.794,6.142,4.721,7.456L412.599,475.93
				c1.049,0.471,2.166,0.702,3.276,0.702c1.739,0,3.464-0.567,4.89-1.668l49.806-38.453c2.282-1.761,3.439-4.613,3.03-7.467
				c-0.408-2.854-2.32-5.266-5.005-6.315L72.293,267.735C71.355,267.369,70.367,267.186,69.379,267.186L69.379,267.186z"/>
		</g>
		<g>
			<circle fill="#241815" cx="479.271" cy="224.626" r="5.667"/>
			<circle fill="#241815" cx="170.639" cy="147.126" r="5.667"/>
			<circle fill="#241815" cx="170.639" cy="214.126" r="5.667"/>
			<circle fill="#241815" cx="146.639" cy="271.126" r="5.667"/>
			<circle fill="#241815" cx="90.639" cy="300.126" r="5.667"/>
			<circle fill="#241815" cx="479.271" cy="306.626" r="5.667"/>
			<circle fill="#241815" cx="459.271" cy="378.626" r="5.667"/>
			<circle fill="#241815" cx="402.271" cy="429.626" r="5.667"/>
		</g>
	</g>
</g>
</svg>
