<?xml version="1.0" encoding="utf-8"?>
<!-- Generator: Adobe Illustrator 16.0.0, SVG Export Plug-In . SVG Version: 6.00 Build 0)  -->
<!DOCTYPE svg PUBLIC "-//W3C//DTD SVG 1.1//EN" "http://www.w3.org/Graphics/SVG/1.1/DTD/svg11.dtd">
<svg version="1.1" xmlns="http://www.w3.org/2000/svg" xmlns:xlink="http://www.w3.org/1999/xlink" x="0px" y="0px"
	 width="566.93px" height="566.93px" viewBox="0 0 566.93 566.93" enable-background="new 0 0 566.93 566.93" xml:space="preserve">
<g id="fond" display="none">
	
		<rect x="-11243.873" y="-7908" display="inline" fill-rule="evenodd" clip-rule="evenodd" fill="#58595B" width="16654.492" height="16572.797"/>
</g>
<g id="en_cours">
</g>
<g id="fini">
	<g>
		<g>
			<path fill="#AB2E23" d="M352.237,469.628c-3.758,0-7.418-0.408-10.878-1.212c-5.204-1.191-10.031-3.208-14.358-5.999
				c-1.597-1.037-3.089-2.161-4.422-3.333c-0.641-0.558-1.198-1.081-1.701-1.562c-0.356-0.357-0.733-0.753-1.076-1.112l-0.202-0.212
				c-1.408-1.573-2.092-2.563-2.099-2.573c-3.633-5.353-2.383-12.533,2.85-16.342l1.652-1.199c0.011-0.008,0.979-0.708,2.589-1.731
				l6.89-4.459c2.466-1.642,5.603-3.792,8.392-6.121c2.236-1.808,4.428-3.944,6.65-6.493c0.322-0.362,0.653-0.744,0.977-1.118
				c0.437-0.504,0.86-0.993,1.297-1.47c0.657-0.727,1.36-1.403,2.36-2.335c0.468-0.435,0.986-0.877,1.547-1.356
				c0.574-0.491,1.188-1.017,1.836-1.601c1.494-1.394,2.964-2.961,4.421-4.706c3.029-3.671,6.13-8.306,8.981-13.419
				c2.933-5.27,5.77-11.072,8.435-17.251c2.586-5.993,5.188-12.473,7.734-19.257l0.299-0.841c0.106-0.225,0.191-0.461,0.255-0.706
				c0.008-0.026,0.403-1.496,0.403-1.496l0.798-2.824c0.607-2.118,1.164-3.98,1.697-5.685c1.459-4.535,2.694-7.995,3.997-11.188
				c2.925-7.308,6.645-14.309,10.766-20.271c2.087-2.992,4.269-5.765,6.477-8.227c1.128-1.292,2.277-2.482,3.362-3.596l0.601-0.584
				c0.959-0.935,1.866-1.817,2.775-2.622c4.057-3.663,8.308-6.865,13.026-9.818c3.482-2.148,6.851-3.998,10.006-5.495
				c-1.675,2.681-3.743,5.999-5.77,9.79c-2.625,4.783-4.745,9.248-6.461,13.612c-0.955,2.344-1.881,4.98-2.733,7.79
				c-0.714,2.421-1.512,5.281-2.097,8.382c-1.083,5.31-1.72,11.178-1.937,17.883c-0.097,3.52-0.107,6.692-0.035,9.721
				c0.019,1.615,0.061,3.313,0.119,5.048l0.097,2.589l0.038,1.188c-0.007,0.155-0.009,0.349,0.01,0.569l0.11,1.254
				c0.636,8.356,0.667,16.571,0.089,24.361c-0.669,9.037-2.021,17.32-4.135,25.322c-2.529,9.437-5.803,17.673-10.004,25.166
				c-2.211,4.036-4.853,8.021-7.869,11.878c-2.956,3.858-6.305,7.341-9.978,10.383c-7.181,5.972-15.912,10.259-24.591,12.078
				C359.704,469.226,355.944,469.628,352.237,469.628z"/>
			<path d="M427.716,292.238c-1.992,3.835-3.664,7.479-5.076,11.066c-1.014,2.491-1.975,5.229-2.858,8.141
				c-0.006,0.021-0.013,0.042-0.019,0.063c-0.728,2.47-1.554,5.43-2.17,8.681c-1.132,5.575-1.791,11.645-2.016,18.592
				c-0.098,3.552-0.109,6.776-0.036,9.856c0.019,1.577,0.059,3.259,0.123,5.169l0.049,1.307l0.045,1.226l0.037,1.119
				c-0.006,0.298,0.005,0.585,0.028,0.862h-0.005l0.016,0.188l0.033,0.389l0.059,0.651c0.621,8.192,0.651,16.186,0.09,23.76
				c-0.651,8.788-1.965,16.834-4.007,24.567c-2.445,9.125-5.597,17.061-9.633,24.26c-0.013,0.022-0.025,0.046-0.038,0.069
				c-2.088,3.812-4.609,7.614-7.492,11.301c-0.018,0.021-0.034,0.043-0.051,0.064c-2.747,3.587-5.886,6.852-9.341,9.712
				c-6.585,5.476-14.912,9.57-22.88,11.24c-3.433,0.734-6.91,1.107-10.336,1.107c-3.454,0-6.81-0.373-9.999-1.114
				c-4.737-1.084-9.136-2.92-13.048-5.442c-1.446-0.94-2.782-1.946-4.001-3.018c-0.568-0.494-1.088-0.982-1.487-1.364
				c-0.367-0.368-0.703-0.722-1.01-1.043l-0.156-0.163c-1.096-1.229-1.666-2.021-1.74-2.124c-2.396-3.561-1.562-8.317,1.899-10.836
				l1.655-1.201c0.009-0.007,0.899-0.649,2.385-1.593c0.019-0.012,0.036-0.023,0.055-0.035l6.864-4.442
				c0.029-0.02,0.06-0.039,0.089-0.059c2.49-1.659,5.72-3.874,8.643-6.309c2.441-1.979,4.772-4.252,7.126-6.947
				c0.349-0.393,0.683-0.777,1.01-1.156c0.411-0.474,0.81-0.936,1.221-1.384c0.014-0.016,0.028-0.03,0.042-0.046
				c0.54-0.598,1.179-1.211,2.092-2.063c0.388-0.36,0.869-0.772,1.428-1.249c0.598-0.513,1.237-1.061,1.913-1.669
				c0.034-0.031,0.069-0.063,0.103-0.095c1.563-1.459,3.148-3.147,4.741-5.055c3.166-3.837,6.407-8.678,9.379-14.006
				c2.995-5.384,5.892-11.308,8.609-17.607c2.61-6.052,5.237-12.591,7.806-19.436c0.018-0.046,0.034-0.091,0.051-0.137l0.216-0.609
				c0.167-0.383,0.306-0.782,0.413-1.195l0.008-0.028l0.375-1.393c0.265-0.941,0.529-1.882,0.79-2.799
				c0.598-2.083,1.142-3.903,1.661-5.564c1.433-4.454,2.634-7.819,3.895-10.91c0.007-0.016,0.014-0.032,0.02-0.049
				c2.807-7.01,6.379-13.738,10.315-19.432c2.003-2.872,4.083-5.516,6.183-7.856c0.024-0.027,0.049-0.056,0.072-0.083
				c1.013-1.16,2.104-2.292,3.139-3.354l0.564-0.549c0.924-0.9,1.797-1.751,2.635-2.491c0.02-0.019,0.041-0.036,0.061-0.055
				C421.245,296.966,424.37,294.513,427.716,292.238 M447.833,273.284c-0.047,0-0.095,0.008-0.141,0.024
				c0,0-0.938,0.324-2.668,0.973c-0.873,0.304-1.917,0.736-3.168,1.269c-0.627,0.267-1.3,0.551-2.02,0.856
				c-0.7,0.328-1.445,0.677-2.232,1.045c-3.176,1.468-6.928,3.457-11.158,6.067c-4.205,2.631-8.833,5.948-13.556,10.213
				c-1.192,1.055-2.348,2.203-3.552,3.371c-1.168,1.197-2.36,2.434-3.514,3.756c-2.345,2.614-4.615,5.505-6.789,8.623
				c-4.315,6.242-8.147,13.459-11.18,21.034c-1.542,3.78-2.87,7.647-4.11,11.504c-0.605,1.934-1.177,3.866-1.728,5.786
				c-0.271,0.955-0.542,1.916-0.813,2.878l-0.388,1.439l-0.024,0.09c-0.005,0.031-0.007,0.042-0.009,0.042s0.003-0.068,0-0.068
				c-0.001,0-0.002,0.003-0.004,0.009l-0.06,0.166l-0.119,0.334l-0.236,0.666c-2.465,6.566-5.032,12.981-7.662,19.078
				c-2.629,6.094-5.431,11.811-8.255,16.887c-2.825,5.066-5.78,9.437-8.559,12.804c-1.408,1.687-2.755,3.109-4.028,4.298
				c-1.304,1.175-2.461,2.1-3.432,3.002c-0.974,0.907-1.805,1.699-2.58,2.557c-0.777,0.847-1.515,1.732-2.342,2.664
				c-1.626,1.864-3.674,4.01-6.199,6.052c-2.488,2.077-5.348,4.065-8.002,5.834c-2.955,1.913-5.277,3.416-6.861,4.44
				c-1.757,1.116-2.793,1.87-2.793,1.87l-1.656,1.202c-6.921,5.037-8.644,14.694-3.802,21.829c0,0,0.79,1.168,2.467,3.036
				c0.427,0.446,0.908,0.958,1.45,1.498c0.544,0.521,1.148,1.087,1.826,1.677c1.345,1.182,2.968,2.438,4.895,3.69
				c3.859,2.488,8.982,5.014,15.621,6.533c3.508,0.814,7.48,1.315,11.784,1.315c3.778,0,7.813-0.387,12.01-1.284
				c8.94-1.874,18.436-6.354,26.321-12.912c3.941-3.264,7.516-7.002,10.577-10.999c3.104-3.969,5.872-8.122,8.208-12.387
				c4.768-8.504,8.036-17.349,10.382-26.101c2.314-8.765,3.624-17.505,4.257-26.048c0.634-8.542,0.521-16.937-0.095-25.017
				l-0.063-0.704l-0.03-0.353l-0.015-0.175c-0.006-0.008,0.014-0.203,0.011-0.203c0,0-0.001,0.004-0.002,0.012l-0.003-0.081
				l-0.042-1.298c-0.032-0.86-0.063-1.718-0.096-2.574c-0.058-1.705-0.1-3.372-0.118-5.01c-0.079-3.282-0.05-6.438,0.034-9.495
				c0.197-6.107,0.759-11.823,1.869-17.271c0.517-2.739,1.23-5.372,1.993-7.961c0.782-2.577,1.652-5.091,2.629-7.488
				c1.899-4.83,4.111-9.264,6.266-13.19c2.12-3.966,4.258-7.351,6.031-10.19c1.807-2.82,3.221-5.039,4.277-6.58
				c1.025-1.534,1.558-2.374,1.558-2.374c0.065-0.106,0.088-0.242,0.043-0.37C448.179,273.396,448.012,273.284,447.833,273.284
				L447.833,273.284z"/>
		</g>
		<g>
			<path fill="#AB2E23" d="M158.848,227.566c-1.696,0-3.142-1.272-3.363-2.96c-0.089-0.684,0.026-1.367,0.336-1.977l0.716-1.411
				c0.021-0.042,0.134-0.252,0.328-0.578c0.235-0.396,0.584-0.906,0.982-1.495l0.252-0.374c0.076-0.113,0.147-0.23,0.212-0.352
				c0.162-0.306,0.352-0.612,0.548-0.935l0.135-0.222c0.19-0.271,0.468-0.669,0.696-1.211c0.015-0.033,0.028-0.066,0.041-0.101
				c0.044-0.111,0.102-0.213,0.154-0.319l0.117-0.231c0.053-0.104,0.104-0.209,0.163-0.31c0.055-0.092,0.105-0.187,0.152-0.284
				c0.216-0.442,0.328-0.821,0.396-1.047c0.023-0.064,0.044-0.125,0.063-0.189l0.023-0.055c0.061-0.142,0.119-0.282,0.171-0.422
				c0.121-0.323,0.199-0.659,0.233-1.002c0.125-0.332,0.164-0.551,0.197-0.906c0.011-0.116,0.017-0.232,0.02-0.347l0.007-0.034
				c0.056-0.287,0.08-0.579,0.073-0.871c0.051-0.409,0.036-0.749,0.02-0.969c0-0.018,0.001-0.403,0.001-0.403
				c0.007-0.89,0.017-2.231-0.294-4.075c-0.303-2.096-0.854-4.437-1.595-6.776c-0.466-1.603-1.041-3.299-1.649-5.096
				c-0.271-0.798-0.547-1.612-0.82-2.441l-0.105-0.314c-0.837-2.499-1.703-5.082-2.427-7.728c-0.817-2.862-1.421-5.609-1.807-8.207
				c-0.199-1.214-0.303-2.489-0.403-3.721c0,0-0.038-0.456-0.042-0.494c-0.026-0.242-0.025-0.605-0.023-0.99
				c0.001-0.251,0.002-0.501-0.002-0.747c0.003-0.246,0.001-0.488-0.001-0.729c-0.004-0.391-0.006-0.728,0.019-1.002l0.049-0.632
				c0.083-1.109,0.155-2.067,0.342-2.924c0.008-0.036,0.357-1.872,0.357-1.872c0.085-0.32,0.185-0.634,0.281-0.942l0.099-0.319
				l0.101,0.575c0.055,0.327,0.111,0.655,0.181,0.986c0.015,0.072,0.032,0.144,0.051,0.215l0.344,1.301
				c0.181,0.817,0.449,1.56,0.688,2.219c0.107,0.298,0.217,0.596,0.309,0.894c0.031,0.099,0.065,0.197,0.104,0.293
				c0.974,2.446,1.931,4.476,3.008,6.381c0.583,1.09,1.244,2.209,1.828,3.197l2.04,3.269l4.388,6.788
				c1.295,1.981,2.663,4.272,4.313,7.223c1.619,3.106,2.708,5.639,3.529,8.206c0.956,2.962,1.31,6.285,0.996,9.368l-0.171,1.372
				l-0.061,0.425l-0.13,0.518c-0.227,0.888-0.455,1.691-0.695,2.443c-0.235,0.61-0.535,1.239-0.853,1.904l-0.124,0.26
				c-0.132,0.271-0.272,0.563-0.426,0.844l-0.6,0.906c-0.414,0.594-0.821,1.173-1.238,1.72c-0.398,0.45-0.824,0.874-1.262,1.303
				l-0.39,0.38c-0.277,0.271-0.546,0.542-0.818,0.773c-0.335,0.252-0.669,0.489-0.994,0.72l-0.343,0.244
				c-0.407,0.287-0.819,0.578-1.229,0.836c-0.21,0.135-0.389,0.215-0.559,0.299c-0.15,0.074-0.3,0.148-0.447,0.226
				c-0.8,0.381-1.468,0.695-2.057,0.941c-0.948,0.346-1.739,0.532-2.439,0.697l-0.382,0.091c-0.509,0.109-0.813,0.156-0.881,0.166
				C159.147,227.557,158.997,227.566,158.848,227.566z"/>
			<path d="M158.233,180.166l0.525,0.842c0.021,0.034,0.043,0.068,0.065,0.102l1.083,1.675l3.294,5.094
				c1.225,1.874,2.538,4.075,4.131,6.918c1.494,2.872,2.494,5.197,3.246,7.547c0.778,2.411,1.071,5.122,0.827,7.644l-0.072,0.583
				l-0.087,0.702l-0.032,0.226l-0.072,0.289c-0.196,0.771-0.392,1.462-0.594,2.104c-0.179,0.445-0.429,0.969-0.691,1.521
				l-0.111,0.232c-0.082,0.17-0.184,0.377-0.271,0.548l-0.091,0.139l-0.373,0.563c-0.334,0.479-0.684,0.975-1.02,1.422
				c-0.288,0.317-0.616,0.644-0.955,0.976c-0.137,0.132-0.272,0.266-0.407,0.398c-0.175,0.17-0.399,0.391-0.544,0.523
				c-0.266,0.197-0.529,0.384-0.787,0.567l-0.313,0.223c-0.428,0.301-0.777,0.546-1.063,0.726c-0.07,0.038-0.141,0.071-0.21,0.105
				c-0.153,0.076-0.304,0.151-0.454,0.229c-0.682,0.324-1.254,0.594-1.729,0.795c-0.564,0.201-1.076,0.334-1.568,0.452l0.125-0.246
				c0.033-0.063,0.104-0.19,0.226-0.392c0.139-0.233,0.518-0.794,0.852-1.289l0.253-0.375c0.152-0.227,0.294-0.462,0.423-0.704
				c0.092-0.172,0.26-0.448,0.438-0.741l0.057-0.093c0.231-0.333,0.667-0.976,1.042-1.861c0.009-0.022,0.018-0.043,0.026-0.065
				l0.06-0.118l0.025-0.052l0.083-0.161l0.073-0.144c0.096-0.165,0.186-0.334,0.27-0.506c0.322-0.66,0.504-1.227,0.61-1.579
				c0.069-0.164,0.135-0.327,0.195-0.489c0.183-0.49,0.317-0.997,0.401-1.512c0.131-0.464,0.219-0.94,0.264-1.422
				c0.01-0.1,0.017-0.196,0.022-0.288c0.058-0.372,0.09-0.747,0.095-1.122c0.05-0.539,0.039-0.993,0.02-1.32l0.001-0.238
				c0.007-0.961,0.019-2.558-0.342-4.723c-0.331-2.269-0.92-4.781-1.706-7.278c-0.511-1.745-1.09-3.453-1.702-5.259
				c-0.267-0.789-0.54-1.592-0.821-2.447l-0.1-0.296c-0.82-2.446-1.668-4.975-2.361-7.512c-0.008-0.029-0.016-0.058-0.024-0.087
				C158.385,180.715,158.309,180.44,158.233,180.166 M158.298,145.683c0,0-0.279,0.238-0.803,0.681
				c-0.494,0.475-1.279,1.072-2.168,2.01c-0.832,0.99-1.988,2.265-2.913,3.888c-0.256,0.399-0.507,0.823-0.77,1.263
				c-0.227,0.451-0.438,0.926-0.666,1.418c-0.227,0.493-0.46,1.004-0.685,1.538c-0.206,0.535-0.361,1.096-0.549,1.672
				c-0.174,0.577-0.377,1.175-0.532,1.789c-0.118,0.619-0.237,1.25-0.359,1.893c-0.286,1.309-0.356,2.639-0.467,4.048
				c-0.064,0.709-0.023,1.39-0.035,2.107c0.017,0.706-0.027,1.459,0.051,2.163c0.117,1.425,0.228,2.92,0.464,4.361
				c0.436,2.934,1.096,5.841,1.905,8.675c0.782,2.86,1.7,5.579,2.592,8.239c0.873,2.647,1.769,5.135,2.455,7.493
				c0.732,2.311,1.206,4.435,1.456,6.187c0.305,1.781,0.242,2.968,0.245,3.818c-0.027,0.192,0.054,0.446-0.009,0.592
				c-0.03,0.167-0.037,0.337-0.01,0.521c-0.032,0.165-0.078,0.324-0.08,0.501c-0.009,0.087,0.006,0.181-0.003,0.275
				c-0.034,0.09-0.064,0.182-0.091,0.275c-0.046,0.194-0.088,0.39-0.104,0.606c-0.079,0.212-0.19,0.426-0.259,0.659
				c-0.086,0.228-0.127,0.464-0.24,0.696c-0.138,0.232-0.256,0.478-0.379,0.716c-0.12,0.24-0.24,0.473-0.339,0.725
				c-0.104,0.247-0.298,0.471-0.436,0.699c-0.284,0.47-0.557,0.909-0.789,1.344c-0.554,0.822-1.044,1.537-1.347,2.046
				c-0.31,0.516-0.466,0.826-0.466,0.826l-0.716,1.411c-0.651,1.284-0.936,2.771-0.734,4.306c0.488,3.727,3.67,6.44,7.329,6.44
				c0.32,0,0.646-0.021,0.972-0.063c0,0,0.432-0.057,1.223-0.228c0.785-0.192,1.947-0.428,3.395-0.963
				c0.729-0.3,1.521-0.675,2.396-1.091c0.431-0.229,0.88-0.418,1.345-0.717c0.466-0.293,0.936-0.623,1.424-0.967
				c0.485-0.347,0.994-0.702,1.505-1.089c0.501-0.416,1.001-0.932,1.518-1.43c0.519-0.51,1.041-1.031,1.552-1.618
				c0.489-0.636,0.967-1.313,1.453-2.01c0.233-0.354,0.472-0.713,0.711-1.075c0.217-0.384,0.417-0.793,0.616-1.203
				c0.393-0.825,0.807-1.67,1.141-2.559c0.292-0.903,0.556-1.837,0.799-2.793l0.181-0.719l0.102-0.715
				c0.059-0.48,0.12-0.965,0.18-1.452c0.394-3.875-0.123-7.762-1.166-10.99c-1.045-3.269-2.412-6.194-3.819-8.89
				c-1.476-2.639-2.946-5.156-4.474-7.493c-1.459-2.257-2.919-4.515-4.355-6.736c-0.67-1.071-1.332-2.135-1.988-3.185
				c-0.613-1.037-1.229-2.081-1.766-3.087c-1.151-2.031-2.028-4.002-2.798-5.935c-0.298-0.959-0.729-1.926-0.926-2.858
				c-0.125-0.476-0.247-0.945-0.37-1.404c-0.097-0.462-0.161-0.917-0.246-1.373c-0.073-0.453-0.173-0.911-0.221-1.354
				c-0.03-0.447-0.062-0.883-0.092-1.31c-0.029-0.432-0.072-0.863-0.088-1.282c0.015-0.418,0.027-0.822,0.043-1.214
				c-0.015-1.636,0.234-2.963,0.371-4.188c0.181-1.231,0.49-2.204,0.622-2.864C158.224,146.042,158.298,145.683,158.298,145.683
				L158.298,145.683z"/>
		</g>
		<g>
			<path fill="#AB2E23" d="M408.209,504.287c-0.292,0-0.558-0.007-0.794-0.014l-0.299-0.007c-0.488-0.022-0.829-0.057-0.896-0.063
				c-3.834-0.458-6.589-3.96-6.131-7.805c0.185-1.55,0.856-2.957,1.944-4.07l1.148-1.175c0.029-0.028,0.201-0.196,0.491-0.447
				l0.088-0.074c0.167-0.143,0.363-0.313,0.593-0.487c0.066-0.05,0.131-0.103,0.193-0.156c0.232-0.2,0.492-0.406,0.775-0.632
				l0.262-0.209l2.864-2.196c0.458-0.362,0.881-0.687,1.309-1.014c0.692-0.529,1.395-1.067,2.066-1.62
				c0.969-0.786,2.131-1.746,3.224-2.763l0.155-0.145c0.947-0.881,1.927-1.791,2.966-3.007c1.234-1.455,2.311-3.155,3.302-5.209
				c0.922-1.906,1.804-4.232,2.695-7.107c0.802-2.619,1.589-5.531,2.327-8.291l0.371-1.33c0.661-2.379,1.345-4.84,2.171-7.214
				c1.069-3.104,2.203-5.646,3.472-7.779c0.643-1.062,1.397-2.114,2.228-3.099c0.048-0.057,0.097-0.113,0.146-0.17
				c-0.053,0.181-0.172,0.62-0.181,0.658c-0.262,1.124-0.435,2.296-0.527,3.583c-0.068,1.246-0.062,2.496,0.019,3.786
				c0.075,1.118,0.219,2.348,0.453,3.894c0.358,2.338,0.856,4.793,1.383,7.392l0.146,0.726c0.521,2.702,1.06,5.637,1.344,8.741
				c0.32,3.551,0.288,6.722-0.098,9.688c-0.102,0.858-0.255,1.734-0.406,2.563c-0.198,0.937-0.378,1.724-0.604,2.498
				c-0.01,0.034-0.02,0.068-0.028,0.103c-0.211,0.798-0.491,1.627-0.785,2.478l-0.112,0.284c-0.302,0.767-0.588,1.491-0.907,2.155
				c-0.017,0.034-0.032,0.068-0.048,0.103c-1.361,3.049-3.379,5.978-5.835,8.47c-2.009,2.051-4.396,3.843-7.106,5.335
				c-1.997,1.082-4.109,1.936-6.438,2.598c-0.784,0.21-1.754,0.459-2.568,0.586c-0.039,0.007-0.078,0.013-0.116,0.021
				c-0.74,0.139-1.483,0.243-2.208,0.311l-0.514,0.037c-0.456,0.034-0.869,0.068-1.246,0.073L408.209,504.287z"/>
			<path d="M431.439,454.97c0.211,1.092,0.438,2.205,0.668,3.345l0.139,0.682c0.506,2.631,1.021,5.441,1.287,8.341
				c0.299,3.307,0.273,6.108-0.08,8.818c-0.004,0.032-0.008,0.064-0.012,0.097c-0.08,0.679-0.217,1.46-0.353,2.211
				c-0.175,0.822-0.331,1.507-0.519,2.146c-0.02,0.068-0.039,0.137-0.057,0.205c-0.17,0.642-0.412,1.362-0.67,2.109l-0.082,0.208
				c-0.286,0.727-0.533,1.354-0.789,1.886c-0.033,0.068-0.065,0.138-0.097,0.207c-1.151,2.579-2.938,5.169-5.048,7.311
				c-1.745,1.781-3.755,3.288-6.144,4.605c-1.737,0.94-3.562,1.678-5.575,2.255c-0.686,0.184-1.533,0.4-2.147,0.497
				c-0.077,0.012-0.155,0.025-0.232,0.04c-0.597,0.111-1.193,0.196-1.774,0.253l-0.511,0.037c-0.393,0.029-0.799,0.061-1.029,0.063
				l-0.204,0.002c-0.254,0-0.484-0.007-0.689-0.012l-0.213-0.006c-0.352-0.016-0.569-0.035-0.635-0.041
				c-1.639-0.214-2.809-1.712-2.611-3.359c0.1-0.84,0.508-1.413,0.832-1.744l1.105-1.132c0.052-0.049,0.145-0.134,0.273-0.247
				l0.083-0.07c0.118-0.102,0.257-0.223,0.419-0.347c0.133-0.101,0.262-0.206,0.389-0.314c0.195-0.169,0.414-0.341,0.652-0.53
				l0.203-0.162c0.777-0.599,1.711-1.314,2.778-2.132l0.084-0.064c0.034-0.026,0.069-0.054,0.104-0.08
				c0.389-0.309,0.793-0.617,1.202-0.931c0.694-0.531,1.412-1.08,2.146-1.684c1.042-0.845,2.264-1.855,3.438-2.948l0.156-0.146
				c0.981-0.912,2.093-1.946,3.301-3.359c1.446-1.705,2.704-3.683,3.84-6.038c1.012-2.093,1.966-4.601,2.926-7.696
				c0.813-2.655,1.607-5.593,2.353-8.377l0.371-1.331C430.954,456.688,431.192,455.829,431.439,454.97 M449.536,427.985
				c0,0-0.374,0.007-1.076,0.024c-0.353,0.011-0.78,0.018-1.297,0.07c-0.516,0.044-1.122,0.094-1.781,0.207
				c-1.337,0.17-2.952,0.545-4.798,1.224c-1.84,0.682-3.917,1.735-5.951,3.393c-1.018,0.826-2.018,1.793-2.958,2.894
				c-0.929,1.103-1.813,2.321-2.607,3.633c-1.559,2.624-2.795,5.561-3.811,8.508c-1.03,2.962-1.821,5.948-2.628,8.825
				c-0.77,2.878-1.517,5.636-2.283,8.14c-0.774,2.497-1.599,4.735-2.479,6.555c-0.885,1.835-1.805,3.246-2.738,4.347
				c-0.943,1.104-1.864,1.946-2.807,2.823c-0.935,0.87-1.968,1.732-3.041,2.603c-1.067,0.879-2.22,1.718-3.266,2.547
				c-1.133,0.868-2.119,1.624-2.932,2.249c-0.427,0.342-0.813,0.645-1.15,0.936c-0.351,0.267-0.643,0.521-0.881,0.724
				c-0.479,0.416-0.73,0.673-0.73,0.673l-1.148,1.175c-1.638,1.676-2.758,3.886-3.056,6.393c-0.721,6.044,3.593,11.529,9.64,12.251
				c0,0,0.446,0.054,1.273,0.09c0.332,0.007,0.728,0.021,1.18,0.021c0.111,0,0.227-0.001,0.345-0.003
				c0.604-0.009,1.29-0.073,2.072-0.128c0.766-0.071,1.638-0.187,2.572-0.361c0.935-0.146,1.964-0.4,3.044-0.69
				c2.18-0.62,4.636-1.513,7.271-2.941c2.613-1.438,5.423-3.372,8.027-6.031c2.595-2.634,4.988-5.953,6.638-9.646
				c0.439-0.913,0.796-1.848,1.167-2.785c0.326-0.941,0.649-1.895,0.9-2.845c0.279-0.954,0.49-1.897,0.691-2.851
				c0.172-0.944,0.338-1.89,0.447-2.818c0.486-3.737,0.411-7.277,0.114-10.569c-0.301-3.285-0.86-6.335-1.406-9.169
				c-0.573-2.834-1.12-5.477-1.495-7.924c-0.186-1.224-0.34-2.414-0.416-3.54c-0.069-1.127-0.078-2.211-0.021-3.252
				c0.074-1.029,0.213-2.017,0.434-2.962c0.246-0.93,0.564-1.817,0.954-2.654c0.813-1.648,1.935-3.064,3.107-4.226
				c0.148-0.147,0.293-0.29,0.437-0.433c0.152-0.131,0.302-0.262,0.448-0.39c0.298-0.257,0.584-0.517,0.883-0.734
				c0.293-0.23,0.576-0.451,0.845-0.665c0.285-0.198,0.557-0.387,0.813-0.567c0.515-0.378,1.001-0.642,1.417-0.922
				c0.418-0.274,0.8-0.485,1.104-0.657C449.211,428.172,449.536,427.985,449.536,427.985L449.536,427.985z"/>
		</g>
		<g>
			<path fill="#AB2E23" d="M304.062,395.389c-5.406,0-10.06-4.026-10.857-9.379c-0.014-0.132-0.063-0.522-0.063-0.522
				c-0.016-0.164-0.055-0.576-0.124-1.224c-0.032-0.844-0.083-2.044-0.15-3.588c-0.038-2.647,0.092-6.9,0.908-12.246
				c0.308-1.59,0.491-3.135,0.668-4.629c0.146-1.229,0.284-2.389,0.484-3.551c0.008-0.046,0.015-0.092,0.021-0.138
				c0.325-2.379,0.861-4.953,1.688-8.1l0.181-0.711c0.685-2.695,1.393-5.481,2.34-8.147c0.29-0.864,0.609-1.679,0.948-2.542
				c0.272-0.696,0.546-1.395,0.8-2.101c0.499-1.386,1.063-2.955,1.701-4.449c0.727-1.702,1.377-3.089,2.046-4.362
				c0.037-0.069,0.071-0.14,0.104-0.212l0.575-1.275c0.491-1.096,0.982-2.19,1.508-3.297c0.016-0.031,0.03-0.063,0.045-0.096
				c0.298-0.674,0.635-1.345,0.971-2.02c0.439-0.881,0.894-1.792,1.304-2.755c0.016-0.036,0.03-0.071,0.044-0.107
				c0.524-1.336,1.136-2.801,1.925-4.61l1.065-2.353c0.063-0.14,0.119-0.283,0.165-0.429c0.213-0.663,0.465-1.374,0.772-2.175
				c0.384-1.01,1.851-4.824,1.851-4.824c0.042-0.111,0.08-0.225,0.112-0.339c0.382-1.344,0.845-2.784,1.456-4.526
				c0.409-1.021,0.635-1.957,0.839-2.899c0,0,0.693-2.423,0.703-2.464c2.037-8.063,3.029-15.438,3.123-23.214
				c0.162-7.93-0.817-17.518-2.992-29.278c-1.279-7.183-2.958-14.754-4.582-22.076c-0.744-3.358-1.493-6.734-2.214-10.114
				c-1.877-8.995-4.182-20.795-5.315-32.143c-1.225-11.206-0.89-21.923-0.459-30.023c0.84-9.969,2.063-18.517,3.738-26.128
				c0.325-1.345,0.631-2.751,0.931-4.135c0.504-2.324,0.981-4.528,1.596-6.572c-0.182,2.212-0.201,4.519-0.22,6.757
				c-0.012,1.333-0.022,2.686-0.069,4.05c-0.1,8.207,0.505,16.843,1.793,25.758c1.302,7.662,3.24,17.607,6.847,27.459
				c3.312,9.57,7.43,18.792,12.214,27.346c4.033,7.276,8.579,14.45,13.393,22.045c1.14,1.798,2.293,3.618,3.455,5.463
				c5.771,9.301,11.759,19.575,16.354,31.52c4.622,11.926,7.122,25.313,7.044,37.706c-0.018,0.785-0.025,1.64-0.033,2.494
				c-0.021,2.445-0.042,4.754-0.323,6.893c-0.372,3.198-0.783,6.341-1.229,9.398c-0.47,2.548-1.065,4.984-1.695,7.562l-0.269,1.099
				c-0.206,0.805-1.059,4.197-1.059,4.197l-1.33,3.95l-2.797,7.803c-0.891,2.178-1.882,4.292-2.842,6.338l-1.055,2.248
				c-0.844,1.803-1.64,3.507-2.501,5.091c-0.958,1.662-2.087,3.481-3.614,5.816c-1.056,1.619-2.219,3.291-3.771,5.418
				c-1.253,1.589-2.599,3.07-3.983,4.575c-2.346,2.499-5.182,5.418-8.215,7.89c-3.232,2.572-5.908,4.486-8.385,5.995
				c-0.029,0.018-0.059,0.036-0.087,0.055c-3.089,1.992-5.395,3.244-7.255,3.938c-0.047,0.018-0.093,0.036-0.139,0.055
				c-4.985,2.073-9.138,3.235-11.762,3.847l-1.097,0.217c-1,0.198-1.812,0.358-2.425,0.484c-0.853,0.115-1.299,0.185-1.299,0.185
				C305.099,395.353,304.576,395.389,304.062,395.389z"/>
			<path d="M309.598,149.592c1.313,7.633,3.283,17.513,6.887,27.377c3.409,9.834,7.616,19.251,12.489,27.962
				c4.098,7.394,8.675,14.617,13.521,22.264c1.133,1.788,2.279,3.597,3.435,5.433c5.678,9.15,11.547,19.219,16.025,30.862
				c4.435,11.441,6.838,24.284,6.771,36.171c-0.019,0.843-0.026,1.691-0.034,2.54c-0.021,2.318-0.04,4.509-0.289,6.405
				c-0.005,0.04-0.011,0.08-0.015,0.12c-0.357,3.074-0.76,6.151-1.195,9.147c-0.447,2.409-1.023,4.768-1.634,7.262l-0.259,1.063
				c-0.215,0.839-0.426,1.678-0.635,2.512l-0.389,1.546l-0.543,1.611l-0.71,2.109l-1.27,3.542l-1.499,4.184
				c-0.843,2.055-1.761,4.011-2.73,6.078l-0.294,0.628c-0.256,0.54-0.509,1.08-0.76,1.618c-0.802,1.715-1.56,3.335-2.347,4.791
				c-0.953,1.653-2.034,3.392-3.5,5.633c-1.002,1.537-2.116,3.139-3.604,5.178c-1.146,1.449-2.364,2.79-3.718,4.261
				c-2.269,2.417-4.965,5.19-7.79,7.497c-3.115,2.478-5.648,4.291-7.97,5.705c-0.059,0.036-0.116,0.072-0.175,0.109
				c-2.801,1.807-4.922,2.969-6.484,3.551c-0.092,0.035-0.185,0.071-0.276,0.109c-4.692,1.951-8.589,3.048-11.067,3.63l-1.051,0.207
				c-0.932,0.185-1.7,0.337-2.299,0.458c-0.627,0.086-1.024,0.146-1.174,0.168c-0.318,0.043-0.641,0.064-0.956,0.064
				c-3.415,0-6.356-2.53-6.892-5.905c-0.016-0.137-0.033-0.28-0.051-0.418l-0.002-0.013c-0.019-0.196-0.054-0.559-0.109-1.079
				c-0.031-0.83-0.08-1.972-0.143-3.414c-0.033-2.487,0.093-6.453,0.853-11.453c0.325-1.7,0.514-3.293,0.697-4.834
				c0.14-1.176,0.271-2.285,0.453-3.344c0.016-0.092,0.03-0.184,0.042-0.274c0.303-2.216,0.81-4.64,1.594-7.626
				c0.005-0.019,0.01-0.038,0.015-0.057l0.175-0.686c0.662-2.605,1.347-5.301,2.232-7.792c0.017-0.047,0.033-0.094,0.049-0.142
				c0.233-0.697,0.535-1.468,0.854-2.282c0.286-0.729,0.571-1.462,0.84-2.207c0.479-1.333,1.023-2.843,1.614-4.229
				c0.685-1.604,1.291-2.897,1.908-4.072c0.074-0.14,0.144-0.281,0.208-0.425l0.575-1.278c0.501-1.115,0.975-2.169,1.477-3.227
				c0.03-0.063,0.06-0.127,0.088-0.191c0.25-0.563,0.563-1.191,0.895-1.856c0.443-0.89,0.946-1.898,1.403-2.971
				c0.03-0.071,0.06-0.143,0.088-0.215c0.5-1.274,1.086-2.679,1.844-4.417l1.067-2.356c0.126-0.28,0.236-0.566,0.33-0.858
				c0.189-0.59,0.417-1.232,0.704-1.98c0.38-0.999,0.767-2.005,1.157-3.019l0.687-1.789c0.086-0.223,0.161-0.449,0.226-0.679
				c0.354-1.244,0.785-2.588,1.355-4.217c0.479-1.215,0.75-2.305,0.973-3.322l0.636-2.221c0.022-0.08,0.044-0.16,0.065-0.241
				c2.112-8.363,3.144-16.024,3.243-24.107c0.165-8.226-0.833-18.058-3.053-30.061c-1.298-7.285-2.983-14.89-4.615-22.245
				c-0.733-3.306-1.491-6.724-2.2-10.048c-1.86-8.916-4.139-20.581-5.254-31.741c-0.003-0.024-0.006-0.049-0.008-0.073
				C308.938,167.55,309.199,157.424,309.598,149.592 M322.508,69.978h0.005H322.508z M322.508,69.978c0,0-2.032,4.981-5.601,13.698
				c-1.672,4.417-3.554,9.848-5.67,16.137c-0.932,3.191-1.938,6.595-2.999,10.17c-1.127,3.585-1.786,7.48-2.756,11.501
				c-1.782,8.094-3.012,17.056-3.823,26.715c-0.514,9.631-0.695,20.032,0.47,30.695c1.067,10.678,3.102,21.643,5.384,32.579
				c2.321,10.885,4.932,21.733,6.774,32.083c1.911,10.331,3.099,20.033,2.926,28.502c-0.102,8.488-1.32,15.631-3.001,22.282
				l-0.707,2.471c-0.178,0.826-0.36,1.632-0.7,2.457c-0.577,1.643-1.106,3.249-1.561,4.849c-0.624,1.628-1.245,3.234-1.851,4.824
				c-0.305,0.795-0.592,1.593-0.846,2.385l-1.089,2.404c-0.698,1.602-1.366,3.18-1.981,4.748c-0.679,1.593-1.557,3.153-2.252,4.722
				c-0.74,1.558-1.414,3.093-2.114,4.64c-0.806,1.532-1.519,3.092-2.186,4.654c-0.661,1.55-1.226,3.109-1.784,4.662
				c-0.566,1.571-1.234,3.106-1.754,4.659c-1.094,3.077-1.872,6.242-2.621,9.182c-0.765,2.911-1.396,5.743-1.782,8.575
				c-0.477,2.769-0.621,5.464-1.151,8.172c-0.816,5.312-1.015,9.825-0.966,13.049c0.072,1.651,0.126,2.91,0.157,3.764
				c0.098,0.892,0.138,1.356,0.138,1.356c0.02,0.168,0.057,0.413,0.069,0.577c1.06,7.491,7.479,12.899,14.83,12.899
				c0.696,0,1.401-0.049,2.111-0.148c0,0,0.468-0.072,1.358-0.192c0.832-0.171,2.073-0.414,3.694-0.735
				c3.144-0.729,7.498-2.003,12.455-4.064c2.451-0.914,5.219-2.514,8.025-4.324c2.908-1.771,5.808-3.904,8.831-6.311
				c2.969-2.42,5.755-5.218,8.632-8.282c1.425-1.549,2.857-3.124,4.227-4.865c1.325-1.814,2.654-3.687,3.932-5.646
				c1.284-1.963,2.568-3.988,3.78-6.095c1.187-2.182,2.241-4.541,3.354-6.893c1.107-2.364,2.232-4.729,3.266-7.265
				c0.936-2.615,1.893-5.278,2.854-7.962c0.454-1.354,0.916-2.718,1.378-4.094c0.367-1.448,0.729-2.913,1.104-4.38
				c0.719-2.955,1.462-5.887,2.024-8.954c0.46-3.149,0.876-6.332,1.247-9.528c0.418-3.179,0.317-6.574,0.391-9.883
				c0.084-13.321-2.631-27.092-7.311-39.167c-4.667-12.131-10.759-22.636-16.703-32.215c-6.023-9.569-11.804-18.422-16.741-27.331
				c-4.951-8.85-8.85-17.813-11.949-26.767c-3.269-8.931-5.162-17.944-6.644-26.657c-1.262-8.728-1.849-17.188-1.754-25.049
				c0.134-3.917-0.016-7.727,0.341-11.32c0.299-3.606,0.575-7.033,0.833-10.251c0.896-6.401,1.747-12.022,2.575-16.631
				C321.278,75.23,322.508,69.978,322.508,69.978L322.508,69.978z"/>
		</g>
		<g>
			<path fill="#AB2E23" d="M271.828,452.09c-0.512,0-1.026-0.041-1.53-0.122c-0.003-0.001-2.271-0.383-6.144-1.377
				c-1.757-0.442-4.121-1.334-6.859-2.365l-0.545-0.205c-0.938-0.353-1.92-0.781-2.959-1.236c-0.535-0.233-1.084-0.474-1.651-0.715
				c-1.536-0.636-3.146-1.41-4.957-2.383c-9.083-4.668-16.984-10.263-24.222-17.138c-10.41-9.943-18.414-21.757-23.781-35.104
				c-6.345-15.229-8.903-34.346-7.038-52.493c1.571-15.991,5.771-31.875,12.837-48.576c5.744-13.621,12.483-25.423,19-36.835
				l0.968-1.695c6.624-11.422,13.474-23.74,17.891-37.388c2.209-6.819,3.715-13.83,4.475-20.837l0.092-0.862
				c0.126-0.413,0.187-0.846,0.176-1.282l-0.09-3.722l-0.203-5.407c-0.055-1.711-0.215-3.51-0.388-5.355
				c-0.157-1.965-0.394-3.903-0.581-5.366c-1.759-14.126-5.446-27.863-10.96-40.814c-5.354-12.545-12.311-24.242-20.681-34.771
				c-7.543-9.562-16.368-18.485-26.221-26.511c-9.27-7.573-19.41-14.38-30.3-20.35c11.894,3.845,23.188,8.648,34.15,14.509
				c11.751,6.293,22.735,13.802,32.646,22.316c11.366,9.712,21.496,21.071,30.115,33.767c8.806,12.912,16.148,27.82,21.83,44.317
				c0.631,1.807,1.355,3.922,1.989,6.026c0.646,2.083,1.263,4.104,1.822,6.248l3.445,12.681c2.77,9.515,4.752,18.272,6.08,26.842
				c2.852,17.185,3.368,36.255,1.5,55.19c-1.525,14.59-4.604,29.913-9.41,46.82c-1.636,5.733-3.241,11.062-4.658,15.762
				c-1.953,6.477-3.639,12.07-4.888,16.968c-2.109,8.032-3.56,14.578-4.246,22.296c-0.589,7.049-0.137,15.185,1.305,23.551
				c1.271,7.632,3.104,14.943,5.027,22.383c0.524,1.969,1.015,3.79,1.472,5.488l0.971,3.613c0.343,1.259,0.626,2.417,0.892,3.507
				c0.305,1.244,0.593,2.42,0.92,3.561c1.146,3.865,1.62,6.13,1.625,6.152c0.994,4.912-2.196,9.735-7.115,10.733
				C273.049,452.03,272.444,452.09,271.828,452.09z"/>
			<path d="M194.851,69.67c9.832,5.624,19.064,12.127,27.513,19.384c11.086,9.474,20.977,20.565,29.405,32.98
				c8.601,12.61,15.782,27.198,21.358,43.39c0.611,1.751,1.318,3.815,1.932,5.848c0.006,0.019,0.012,0.038,0.018,0.057
				c0.622,2.009,1.225,3.982,1.763,6.045c0.007,0.028,0.015,0.056,0.022,0.084c0.662,2.431,1.321,4.859,1.981,7.29l1.452,5.348
				c0.013,0.045,0.025,0.091,0.039,0.137c2.701,9.279,4.647,17.872,5.949,26.269c0.004,0.028,0.009,0.056,0.014,0.084
				c2.787,16.801,3.292,35.509,1.463,54.054c-1.504,14.382-4.54,29.482-9.28,46.159c-1.628,5.709-3.229,11.021-4.643,15.708
				c-1.962,6.506-3.655,12.126-4.925,17.099c-2.166,8.252-3.652,14.974-4.367,23.008c-0.614,7.359-0.146,15.846,1.344,24.497
				c1.303,7.816,3.158,15.221,5.104,22.75c0.005,0.019,0.01,0.038,0.015,0.058c0.52,1.947,1.012,3.776,1.471,5.481
				c0.341,1.269,0.664,2.468,0.975,3.631c0.32,1.175,0.595,2.299,0.861,3.386c0.313,1.284,0.61,2.497,0.96,3.715
				c0.006,0.022,0.013,0.045,0.02,0.067c1.072,3.617,1.526,5.757,1.526,5.757l0,0c0.561,2.77-1.229,5.478-3.996,6.039
				c-0.313,0.064-0.647,0.097-0.996,0.097c-0.3,0-0.602-0.024-0.85-0.064c-0.021-0.003-2.164-0.368-5.866-1.318
				c-1.518-0.382-3.893-1.277-6.407-2.225l-0.555-0.209c-0.835-0.313-1.727-0.703-2.76-1.155c-0.547-0.239-1.107-0.484-1.688-0.73
				c-0.022-0.009-0.045-0.019-0.066-0.027c-1.378-0.57-2.87-1.289-4.563-2.198c-0.043-0.022-0.085-0.045-0.128-0.066
				c-8.675-4.458-16.273-9.838-23.214-16.432c-10.004-9.555-17.688-20.897-22.842-33.711c-0.012-0.031-0.024-0.062-0.037-0.093
				c-5.988-14.372-8.506-33.251-6.729-50.534c1.53-15.566,5.632-31.067,12.542-47.4c5.649-13.396,12.328-25.093,18.787-36.403
				l0.955-1.673c6.74-11.625,13.7-24.148,18.233-38.158c2.294-7.08,3.857-14.361,4.649-21.661l0.057-0.535
				c0.166-0.679,0.246-1.382,0.23-2.091l-0.016-0.771l-0.074-2.979c-0.002-0.034-0.002-0.067-0.004-0.101l-0.199-5.312
				c-0.059-1.83-0.222-3.68-0.399-5.571c-0.169-2.086-0.409-4.062-0.598-5.524c-1.806-14.51-5.591-28.607-11.253-41.907
				c-5.493-12.872-12.635-24.878-21.208-35.664C211.095,85.043,203.379,77.017,194.851,69.67 M117.394,36.401
				c0,0,7.759,1.921,20.441,7.329c12.593,5.411,30.295,14.362,48.095,28.902c8.876,7.23,17.704,15.87,25.616,25.899
				c7.937,9.983,14.831,21.428,20.131,33.848c5.287,12.419,8.941,25.847,10.673,39.756c0.222,1.728,0.425,3.47,0.566,5.231
				c0.165,1.758,0.321,3.511,0.373,5.131l0.201,5.356l0.074,2.979l0.016,0.741c0.001,0.013,0,0.018,0,0.018
				c-0.008,0-0.051-0.281-0.062-0.281c-0.003,0-0.003,0.028,0.002,0.101l-0.011,0.162l-0.038,0.323l-0.137,1.292
				c-0.746,6.877-2.215,13.589-4.304,20.038c-4.19,12.949-10.638,24.701-17.56,36.637c-6.841,11.989-14.054,24.434-20.177,38.954
				c-6.109,14.438-11.311,31.189-13.133,49.726c-1.894,18.43,0.668,38.461,7.307,54.395c6.476,16.104,15.84,28.013,24.737,36.512
				c8.98,8.531,17.689,13.962,25.084,17.762c1.813,0.974,3.574,1.832,5.287,2.541c1.705,0.724,3.232,1.438,4.764,2.012
				c3.068,1.155,5.735,2.177,7.818,2.701c4.13,1.061,6.504,1.452,6.504,1.452c0.699,0.112,1.427,0.173,2.165,0.173
				c0.859,0,1.733-0.082,2.596-0.258c7.098-1.439,11.673-8.372,10.237-15.465c0,0-0.488-2.365-1.697-6.443
				c-0.588-2.05-1.068-4.341-1.792-6.997c-0.705-2.639-1.528-5.674-2.434-9.07c-1.711-6.617-3.659-14.266-4.958-22.062
				c-1.344-7.797-1.841-15.594-1.263-22.517c0.626-7.035,1.917-13.206,4.138-21.662c2.145-8.411,5.672-19.143,9.518-32.624
				c3.814-13.419,7.669-29.591,9.543-47.521c1.771-17.956,1.579-37.476-1.527-56.196c-1.451-9.361-3.62-18.508-6.174-27.279
				c-1.148-4.223-2.287-8.428-3.435-12.641c-0.584-2.24-1.222-4.325-1.862-6.394c-0.625-2.072-1.323-4.127-2.037-6.173
				c-5.634-16.359-13.111-31.785-22.303-45.262c-9.164-13.499-19.747-25.095-30.818-34.555
				c-11.055-9.497-22.456-16.966-33.367-22.81c-21.872-11.694-41.455-17.25-55.114-20.316
				C125.353,36.84,117.394,36.401,117.394,36.401L117.394,36.401z"/>
		</g>
		<g>
			<path fill="#AB2E23" d="M211.241,516.55c-5.093,0-10.047-1.423-14.334-4.117c-0.047-0.033-0.094-0.064-0.137-0.092
				c-0.009-0.006-1.131-0.721-3.114-2.129l-0.382-0.271c-2.097-1.488-4.707-3.34-8.556-6.752
				c-4.556-3.907-8.998-8.187-13.631-13.124c-5.386-5.77-10.613-12.253-15.531-19.264c-5.732-8.263-10.744-17.134-14.883-26.353
				c-4.888-10.99-8.376-22.229-10.361-33.393c-0.794-5.019-1.719-11.74-1.72-18.559c-0.123-7.154,0.251-13.35,1.146-19.008
				c1.569-11.41,5.116-23.398,10.555-35.711c4.27-9.467,9.629-19.158,16.853-30.469c5.25-8.185,10.489-15.917,15.555-23.396
				l2.351-3.471c2.87-4.248,5.685-8.42,8.435-12.504c2.854-4.447,5.321-8.47,7.594-12.373c2.17-3.709,4.112-7.366,5.817-10.949
				c-1.027,3.629-2.271,7.562-3.758,11.884c-1.418,4.017-3.061,8.362-5.16,13.644l-5.771,14.587
				c-3.787,9.47-7.702,19.262-10.642,29.337c-3.248,10.754-5.252,21.13-5.944,30.803c-0.732,10.096-0.074,19.808,1.954,28.863
				c1.642,7.785,4.398,15.523,8.666,24.303c7.151,14.508,16.685,26.886,25.837,38.322c4.526,5.578,8.819,10.668,12.489,15.003
				c3.757,4.501,7.051,8.437,9.764,11.675c2.81,3.48,5.043,6.255,6.563,8.146c1.476,1.874,2.252,2.963,2.26,2.974
				c8.547,12.094,5.67,28.903-6.42,37.462C222.172,514.844,216.813,516.55,211.241,516.55
				C211.241,516.55,211.241,516.55,211.241,516.55z"/>
			<path d="M179.215,281.425l-0.57,1.44l-0.151,0.38c-3.818,9.549-7.767,19.422-10.759,29.672
				c-3.337,11.059-5.391,21.713-6.104,31.662c-0.759,10.472-0.075,20.559,2.03,29.981c1.723,8.146,4.577,16.163,9.002,25.265
				c7.32,14.85,17.002,27.426,26.292,39.033c0.012,0.015,0.022,0.029,0.034,0.043c4.522,5.572,8.829,10.68,12.513,15.03
				c3.746,4.488,7.018,8.396,9.718,11.62c2.814,3.486,5.021,6.228,6.531,8.105c1.402,1.781,2.131,2.8,2.131,2.8l0,0
				c7.281,10.303,4.833,24.611-5.454,31.894c-3.887,2.747-8.446,4.199-13.187,4.199c-4.308,0-8.497-1.194-12.127-3.454
				c-0.063-0.044-0.128-0.086-0.192-0.127c-0.011-0.007-1.071-0.685-2.945-2.016l-0.386-0.273c-2.019-1.433-4.53-3.215-8.219-6.484
				c-0.032-0.029-0.065-0.059-0.099-0.087c-4.396-3.769-8.735-7.949-13.254-12.766c-5.267-5.642-10.376-11.979-15.164-18.806
				c-5.605-8.077-10.494-16.733-14.521-25.701c-4.75-10.683-8.139-21.585-10.07-32.404c-0.78-4.94-1.67-11.428-1.671-17.935
				c0-0.046,0-0.092-0.001-0.138c-0.119-6.852,0.24-12.819,1.098-18.246c0.008-0.053,0.016-0.105,0.023-0.158
				c1.506-10.955,4.947-22.575,10.229-34.537c4.199-9.305,9.467-18.825,16.566-29.941c5.231-8.155,10.459-15.871,15.515-23.334
				l2.343-3.461C178.649,282.262,178.933,281.843,179.215,281.425 M192.233,178.583c0,0,0.698,1.176,2.002,3.38
				c1.263,2.22,2.951,5.599,4.52,10.08c1.592,4.468,2.826,10.15,3.014,16.683c0.106,6.525-0.843,13.855-3.357,21.426
				c-2.452,7.586-6.135,15.447-10.789,23.402c-2.324,3.992-4.816,8.038-7.455,12.152c-2.748,4.082-5.562,8.252-8.43,12.496
				c-5.776,8.539-11.859,17.44-17.963,26.954c-6.075,9.513-12.06,19.74-17.141,31.006c-4.981,11.278-9.057,23.681-10.847,36.703
				c-1.027,6.503-1.308,13.099-1.194,19.633c0.001,6.571,0.789,12.986,1.781,19.258c2.222,12.489,6.088,24.071,10.65,34.331
				c4.61,10.268,9.879,19.259,15.258,27.011c5.406,7.707,10.822,14.276,15.889,19.704c5.098,5.434,9.682,9.768,13.895,13.38
				c4.258,3.774,7.126,5.764,9.275,7.292c2.114,1.501,3.287,2.245,3.287,2.245l0.036,0.028c4.979,3.16,10.751,4.803,16.577,4.803
				c6.164,0,12.39-1.839,17.805-5.667c13.91-9.848,17.212-29.116,7.369-43.043c0,0-0.807-1.137-2.403-3.163
				c-1.521-1.893-3.757-4.669-6.614-8.208c-2.712-3.237-6.004-7.171-9.777-11.691c-3.805-4.494-8.02-9.496-12.419-14.917
				c-8.709-10.883-18.298-23.241-25.362-37.572c-3.492-7.184-6.562-14.896-8.36-23.429c-1.909-8.521-2.579-17.891-1.868-27.702
				c0.703-9.819,2.781-19.991,5.795-29.969c2.924-10.022,6.845-19.791,10.668-29.353c1.907-4.826,3.787-9.573,5.622-14.214
				c1.855-4.668,3.621-9.273,5.226-13.82c3.137-9.122,5.73-17.958,7.032-26.34c0.659-4.189,0.976-8.248,1.114-12.089
				c-0.012-3.854-0.131-7.499-0.698-10.864c-0.899-6.771-2.851-12.389-4.784-16.784c-1.95-4.409-3.877-7.659-5.221-9.837
				C192.976,179.735,192.233,178.583,192.233,178.583L192.233,178.583z"/>
		</g>
	</g>
</g>
</svg>
