<?xml version="1.0" encoding="utf-8"?>
<!-- Generator: Adobe Illustrator 16.0.0, SVG Export Plug-In . SVG Version: 6.00 Build 0)  -->
<!DOCTYPE svg PUBLIC "-//W3C//DTD SVG 1.1//EN" "http://www.w3.org/Graphics/SVG/1.1/DTD/svg11.dtd">
<svg version="1.1" xmlns="http://www.w3.org/2000/svg" xmlns:xlink="http://www.w3.org/1999/xlink" x="0px" y="0px"
	 width="566.93px" height="566.93px" viewBox="0 0 566.93 566.93" enable-background="new 0 0 566.93 566.93" xml:space="preserve">
<g id="fond" display="none">
	
		<rect x="-7607.873" y="-8228.754" display="inline" fill-rule="evenodd" clip-rule="evenodd" fill="#58595B" width="15942.492" height="15814.695"/>
</g>
<g id="en_cours">
</g>
<g id="fini">
	<g>
		<path fill="#FFFFFF" stroke="#241815" stroke-width="8" stroke-miterlimit="10" d="M446.914,275.515l0.003,0.001
			c0-0.232-0.012-0.444-0.016-0.669c-0.004-0.251-0.008-0.505-0.018-0.748c-0.012-0.29-0.03-0.578-0.05-0.867
			c-0.015-0.229-0.03-0.458-0.05-0.679c-0.015-0.175-0.032-0.349-0.05-0.521c-0.586-5.85-2.626-11.393-5.855-16.16
			c-2.923-4.315-6.813-8-11.482-10.695l-128.413-74.143c-5.419-3.13-11.469-4.694-17.519-4.694c-6.049,0-12.098,1.565-17.519,4.694
			l-125.904,72.689l-0.001-0.054c-0.587,0.339-1.131,0.674-1.651,1.008l-0.859,0.496c-4.668,2.695-8.559,6.379-11.482,10.695
			c-3.245,4.791-5.29,10.365-5.863,16.247c-0.01,0.097-0.02,0.193-0.027,0.29c-0.031,0.323-0.055,0.659-0.075,0.999
			c-0.012,0.202-0.025,0.403-0.034,0.605c-0.021,0.488-0.035,0.984-0.035,1.506l0.003,148.284c0,5.39,1.245,10.601,3.521,15.289
			c3.009,6.201,7.825,11.489,13.998,15.053l125.908,72.694l-0.011,0.007c0.139,0.079,0.27,0.145,0.406,0.222l2.108,1.217
			c5.421,3.13,11.469,4.694,17.519,4.694c6.049,0,12.099-1.565,17.519-4.694l2.109-1.218c0.137-0.076,0.267-0.142,0.405-0.221
			l-0.011-0.007l125.912-72.694c6.172-3.563,10.987-8.851,13.997-15.052c2.276-4.689,3.521-9.9,3.521-15.291l-0.003-148.281V275.515
			z M140.042,243.728c0.001,0,0.003-0.001,0.004-0.002L140.042,243.728z"/>
		<ellipse fill="#241815" cx="283.464" cy="255.868" rx="22.785" ry="10.374"/>
		<ellipse fill="#241815" cx="322.611" cy="370.555" rx="10.375" ry="22.786"/>
		<ellipse fill="#241815" cx="417.533" cy="412.421" rx="10.375" ry="22.785"/>
		<ellipse fill="#241815" cx="370.072" cy="391.487" rx="10.375" ry="22.785"/>
		<ellipse fill="#241815" cx="145.956" cy="318.355" rx="10.375" ry="22.785"/>
		<ellipse fill="#241815" cx="241.303" cy="466.937" rx="10.374" ry="22.785"/>
		<ellipse fill="#241815" cx="195.155" cy="391.487" rx="10.375" ry="22.785"/>
		<ellipse fill="#241815" cx="241.302" cy="370.555" rx="10.375" ry="22.786"/>
		<ellipse fill="#241815" cx="146.132" cy="412.421" rx="10.375" ry="22.785"/>
	</g>
</g>
</svg>
