<?xml version="1.0" encoding="utf-8"?>
<!-- Generator: Adobe Illustrator 16.0.0, SVG Export Plug-In . SVG Version: 6.00 Build 0)  -->
<!DOCTYPE svg PUBLIC "-//W3C//DTD SVG 1.1//EN" "http://www.w3.org/Graphics/SVG/1.1/DTD/svg11.dtd">
<svg version="1.1" xmlns="http://www.w3.org/2000/svg" xmlns:xlink="http://www.w3.org/1999/xlink" x="0px" y="0px"
	 width="566.93px" height="566.93px" viewBox="0 0 566.93 566.93" enable-background="new 0 0 566.93 566.93" xml:space="preserve">
<g id="fond" display="none">
	
		<rect x="-6056.873" y="-10462.046" display="inline" fill-rule="evenodd" clip-rule="evenodd" fill="#58595B" width="16654.492" height="16572.797"/>
</g>
<g id="en_cours">
</g>
<g id="fini">
	<g>
		<path d="M327.645,375.025c0,8.754-1.151,16.837-3.449,24.252c-2.302,7.419-5.674,13.795-10.124,19.135
			c-4.45,5.34-9.901,9.495-16.354,12.46c-6.452,2.966-13.833,4.45-22.138,4.45c-6.675,0-12.571-0.89-17.689-2.67
			c-5.117-1.78-8.938-3.483-11.458-5.117v46.279H225.74V320.514c4.895-1.186,11.014-2.482,18.356-3.895
			c7.343-1.407,15.833-2.113,25.476-2.113c8.9,0,16.91,1.411,24.03,4.228c7.12,2.819,13.201,6.824,18.245,12.015
			c5.041,5.194,8.935,11.535,11.681,19.023C326.271,357.264,327.645,365.681,327.645,375.025z M306.062,375.025
			c0-13.496-3.337-23.88-10.012-31.149c-6.675-7.267-15.575-10.902-26.7-10.902c-6.23,0-11.09,0.222-14.574,0.667
			c-3.487,0.445-6.268,0.967-8.344,1.558v72.979c2.521,2.079,6.153,4.081,10.902,6.007c4.746,1.93,9.936,2.893,15.575,2.893
			c5.931,0,11.014-1.074,15.241-3.226c4.228-2.148,7.676-5.118,10.346-8.9s4.596-8.232,5.785-13.35
			C305.468,386.484,306.062,380.96,306.062,375.025z"/>
	</g>
</g>
</svg>
