<?xml version="1.0" encoding="utf-8"?>
<!-- Generator: Adobe Illustrator 16.0.0, SVG Export Plug-In . SVG Version: 6.00 Build 0)  -->
<!DOCTYPE svg PUBLIC "-//W3C//DTD SVG 1.1//EN" "http://www.w3.org/Graphics/SVG/1.1/DTD/svg11.dtd">
<svg version="1.1" xmlns="http://www.w3.org/2000/svg" xmlns:xlink="http://www.w3.org/1999/xlink" x="0px" y="0px"
	 width="566.93px" height="566.93px" viewBox="0 0 566.93 566.93" enable-background="new 0 0 566.93 566.93" xml:space="preserve">
<g id="fond" display="none">
	
		<rect x="-6056.873" y="-9811.008" display="inline" fill-rule="evenodd" clip-rule="evenodd" fill="#58595B" width="16654.492" height="16572.797"/>
</g>
<g id="en_cours">
</g>
<g id="fini">
	<g>
		<path d="M254.208,474.26c-1.78,0-4.078-0.223-6.897-0.668c-2.816-0.444-5.19-1.039-7.12-1.78l2.67-16.909
			c1.484,0.444,3.191,0.813,5.118,1.112c1.929,0.296,3.709,0.445,5.34,0.445c7.12,0,12.199-2.19,15.241-6.564
			c3.039-4.377,4.561-10.791,4.561-19.246V316.953h20.692v113.475c0,14.83-3.376,25.844-10.124,33.041
			C276.937,470.661,267.112,474.26,254.208,474.26z M283.354,296.038c-3.709,0-6.863-1.224-9.456-3.671
			c-2.597-2.447-3.894-5.746-3.894-9.901c0-4.15,1.296-7.453,3.894-9.9c2.593-2.448,5.747-3.672,9.456-3.672
			c3.706,0,6.859,1.224,9.456,3.672c2.594,2.447,3.894,5.75,3.894,9.9c0,4.155-1.3,7.454-3.894,9.901
			C290.214,294.814,287.061,296.038,283.354,296.038z"/>
	</g>
</g>
</svg>
