<?xml version="1.0" encoding="utf-8"?>
<!-- Generator: Adobe Illustrator 16.0.0, SVG Export Plug-In . SVG Version: 6.00 Build 0)  -->
<!DOCTYPE svg PUBLIC "-//W3C//DTD SVG 1.1//EN" "http://www.w3.org/Graphics/SVG/1.1/DTD/svg11.dtd">
<svg version="1.1" xmlns="http://www.w3.org/2000/svg" xmlns:xlink="http://www.w3.org/1999/xlink" x="0px" y="0px"
	 width="283.465px" height="566.93px" viewBox="0 0 283.465 566.93" enable-background="new 0 0 283.465 566.93"
	 xml:space="preserve">
<g id="fond" display="none">
	
		<rect x="-8042.283" y="-11126.046" display="inline" fill-rule="evenodd" clip-rule="evenodd" fill="#58595B" width="16654.492" height="16572.797"/>
</g>
<g id="en_cours">
</g>
<g id="fini">
	<g>
		<path d="M134.169,273.829c21.655,0,38.304,4.116,49.951,12.349c11.643,8.232,17.466,20.509,17.466,36.824
			c0,8.899-1.596,16.503-4.784,22.806c-3.191,6.307-7.787,11.424-13.795,15.353c-6.007,3.932-13.315,6.786-21.916,8.566
			c-8.604,1.779-18.321,2.67-29.147,2.67h-17.132v57.182H93.229V277.612c6.081-1.481,12.867-2.482,20.358-3.004
			C121.077,274.09,127.939,273.829,134.169,273.829z M135.949,292.742c-9.199,0-16.242,0.222-21.137,0.667v60.52h16.242
			c7.416,0,14.09-0.479,20.025-1.446c5.931-0.963,10.937-2.594,15.019-4.895c4.078-2.298,7.231-5.451,9.456-9.456
			c2.225-4.005,3.337-9.123,3.337-15.353c0-5.932-1.15-10.826-3.449-14.686c-2.301-3.855-5.416-6.932-9.345-9.233
			c-3.932-2.298-8.493-3.894-13.684-4.783C147.22,293.187,141.734,292.742,135.949,292.742z"/>
	</g>
</g>
</svg>
