<?xml version="1.0" encoding="utf-8"?>
<!-- Generator: Adobe Illustrator 16.0.0, SVG Export Plug-In . SVG Version: 6.00 Build 0)  -->
<!DOCTYPE svg PUBLIC "-//W3C//DTD SVG 1.1//EN" "http://www.w3.org/Graphics/SVG/1.1/DTD/svg11.dtd">
<svg version="1.1" xmlns="http://www.w3.org/2000/svg" xmlns:xlink="http://www.w3.org/1999/xlink" x="0px" y="0px"
	 width="566.93px" height="566.93px" viewBox="0 0 566.93 566.93" enable-background="new 0 0 566.93 566.93" xml:space="preserve">
<g id="fond" display="none">
	
		<rect x="-10187.873" y="-8228.754" display="inline" fill-rule="evenodd" clip-rule="evenodd" fill="#58595B" width="15942.492" height="15814.695"/>
</g>
<g id="en_cours">
</g>
<g id="fini">
	
		<path fill-rule="evenodd" clip-rule="evenodd" fill="none" stroke="#000000" stroke-width="8" stroke-linejoin="round" stroke-miterlimit="10" d="
		M298.217,69.145"/>
	<g>
		<g>
			
				<path fill="#E5CFAA" stroke="#000000" stroke-width="8" stroke-linecap="round" stroke-linejoin="round" stroke-miterlimit="10" d="
				M308.761,303.366c15.245,62.517-17.789,113.011-70.599,125.897c-52.811,12.879-105.389-16.725-120.645-79.238
				c-15.248-62.51,12.782-168.072,57.643-179.014C220.02,160.067,293.511,240.858,308.761,303.366z"/>
			<circle fill="#FFFFFF" cx="212.3" cy="210.293" r="14.163"/>
		</g>
		<g>
			
				<path fill="#E5CFAA" stroke="#000000" stroke-width="8" stroke-linecap="round" stroke-linejoin="round" stroke-miterlimit="10" d="
				M459.069,422.468c-18.383,61.667-72.381,88.594-124.477,73.074c-52.095-15.527-82.552-67.616-64.179-129.287
				c18.375-61.663,95.84-138.657,140.091-125.47C454.755,253.971,477.442,360.806,459.069,422.468z"/>
			<circle fill="#FFFFFF" cx="422.75" cy="293.44" r="14.163"/>
		</g>
	</g>
</g>
</svg>
