<?xml version="1.0" encoding="utf-8"?>
<!-- Generator: Adobe Illustrator 16.0.0, SVG Export Plug-In . SVG Version: 6.00 Build 0)  -->
<!DOCTYPE svg PUBLIC "-//W3C//DTD SVG 1.1//EN" "http://www.w3.org/Graphics/SVG/1.1/DTD/svg11.dtd">
<svg version="1.1" xmlns="http://www.w3.org/2000/svg" xmlns:xlink="http://www.w3.org/1999/xlink" x="0px" y="0px"
	 width="566.93px" height="566.93px" viewBox="0 0 566.93 566.93" enable-background="new 0 0 566.93 566.93" xml:space="preserve">
<g id="fond" display="none">
	
		<rect x="-13442.186" y="-8228.754" display="inline" fill-rule="evenodd" clip-rule="evenodd" fill="#58595B" width="15942.492" height="15814.695"/>
</g>
<g id="en_cours">
</g>
<g id="fini">
	<g>
		<g>
			<g>
				<path fill="#CCAC6C" d="M404.147,93.602c-0.345,0-0.677-0.011-0.996-0.029c-0.839-0.058-1.539-0.145-2.112-0.26l-0.059-0.009
					c-0.186-0.031-0.346-0.063-0.488-0.095c-0.123-0.027-0.208-0.048-0.259-0.061c-2.033-0.499-3.692-2.021-4.341-3.991
					l-0.041-0.125c-0.046-0.133-0.091-0.282-0.139-0.459l-0.036-0.126c-0.169-0.587-0.308-1.257-0.423-2.018
					c-0.121-0.844-0.174-1.725-0.162-2.646c0.041-1.174,0.192-2.208,0.452-3.163c0.307-1.136,0.771-2.205,1.378-3.171
					c0.297-0.479,0.664-0.976,1.073-1.446c0.331-0.372,0.657-0.702,0.992-1.038c0.695-0.699,1.382-1.351,2.085-1.98l1.146-0.993
					l0.303-0.25c0.263-0.221,0.528-0.44,0.803-0.652c0.811-0.651,1.632-1.239,2.34-1.74c0.998-0.68,1.777-1.181,2.512-1.617
					c1.56-0.935,3.23-1.791,4.824-2.474c0.773-0.333,1.513-0.62,2.188-0.851c0.601-0.218,1.213-0.406,1.722-0.555
					c0.554-0.157,0.987-0.262,1.282-0.329l0.447-0.092c0.427-0.082,0.764-0.114,1.097-0.114c0.237,0,0.48,0.017,0.722,0.051
					c1.341,0.168,2.628,0.906,3.479,2.017c0.853,1.113,1.216,2.49,1.021,3.875l-0.053,0.386c-0.059,0.375-0.138,0.812-0.258,1.351
					c-0.128,0.542-0.274,1.143-0.473,1.804c-0.172,0.604-0.408,1.321-0.709,2.132c-0.587,1.588-1.354,3.272-2.217,4.866
					c-0.422,0.782-0.898,1.598-1.455,2.486c-0.524,0.812-1.063,1.628-1.659,2.435c-0.201,0.285-0.412,0.562-0.624,0.837
					l-0.305,0.396l-0.826,1.031c-0.628,0.758-1.247,1.465-1.887,2.155l-0.128,0.138c-0.299,0.319-0.595,0.634-0.903,0.928
					c-0.439,0.42-0.922,0.809-1.433,1.157c-0.931,0.639-1.979,1.153-3.11,1.521c-0.895,0.301-1.928,0.52-3.033,0.637
					C405.236,93.577,404.681,93.602,404.147,93.602z"/>
				<path d="M419.735,67.318c0.056,0,0.111,0.004,0.167,0.012c0.697,0.088,1.188,0.706,1.094,1.378c0,0-0.018,0.132-0.053,0.382
					c-0.039,0.245-0.104,0.599-0.201,1.036c-0.102,0.432-0.229,0.953-0.4,1.527c-0.164,0.58-0.377,1.214-0.627,1.888
					c-0.498,1.348-1.166,2.842-1.984,4.354c-0.408,0.757-0.855,1.513-1.328,2.268c-0.482,0.746-0.979,1.497-1.512,2.216
					c-0.258,0.368-0.537,0.717-0.807,1.074c-0.275,0.344-0.555,0.691-0.828,1.033c-0.561,0.676-1.131,1.323-1.699,1.938
					c-0.285,0.305-0.563,0.607-0.855,0.887c-0.291,0.277-0.602,0.526-0.928,0.749c-0.648,0.445-1.359,0.782-2.094,1.021
					c-0.729,0.245-1.49,0.386-2.217,0.463c-0.459,0.039-0.898,0.059-1.316,0.059c-0.26,0-0.512-0.008-0.754-0.022
					c-0.629-0.043-1.16-0.106-1.563-0.188c-0.195-0.036-0.338-0.054-0.451-0.084c-0.111-0.023-0.166-0.038-0.166-0.038
					c-0.691-0.16-1.289-0.659-1.521-1.364c0,0-0.018-0.052-0.051-0.154c-0.039-0.108-0.07-0.242-0.125-0.429
					c-0.109-0.383-0.215-0.887-0.307-1.492c-0.086-0.598-0.127-1.271-0.117-1.992c0.025-0.707,0.117-1.449,0.313-2.168
					c0.195-0.724,0.49-1.432,0.904-2.09c0.203-0.329,0.439-0.646,0.703-0.949c0.268-0.301,0.559-0.591,0.855-0.889
					c0.588-0.591,1.217-1.188,1.875-1.778c0.332-0.29,0.668-0.581,1.008-0.875c0.348-0.284,0.686-0.578,1.047-0.854
					c0.701-0.566,1.443-1.101,2.178-1.62c0.746-0.508,1.494-0.998,2.246-1.445c1.502-0.899,2.998-1.653,4.354-2.233
					c0.676-0.291,1.314-0.541,1.904-0.742c0.58-0.21,1.109-0.372,1.549-0.5c0.443-0.126,0.807-0.214,1.055-0.271
					c0.256-0.051,0.393-0.08,0.393-0.08C419.559,67.328,419.646,67.318,419.735,67.318 M419.735,59.318
					c-0.581,0-1.167,0.056-1.743,0.164l-0.096,0.019l-0.098,0.021l-0.275,0.056l-0.111,0.022l-0.111,0.025
					c-0.482,0.109-0.973,0.235-1.461,0.374l-0.023,0.007l-0.025,0.008c-0.459,0.134-1.158,0.344-1.967,0.634
					c-0.752,0.259-1.564,0.575-2.414,0.941c-1.74,0.744-3.578,1.687-5.299,2.718c-0.787,0.468-1.631,1.01-2.639,1.695l-0.059,0.041
					l-0.059,0.041c-0.803,0.567-1.66,1.186-2.505,1.863c-0.305,0.235-0.599,0.479-0.892,0.723l-0.271,0.225l-0.087,0.07
					l-0.084,0.073c-0.351,0.303-0.696,0.603-1.036,0.9l-0.039,0.034l-0.038,0.033c-0.76,0.682-1.503,1.386-2.207,2.094l-0.042,0.042
					c-0.335,0.336-0.715,0.717-1.119,1.172l-0.029,0.031l-0.027,0.032c-0.544,0.625-1.034,1.287-1.457,1.97
					c-0.813,1.296-1.432,2.722-1.841,4.238c-0.337,1.237-0.534,2.576-0.583,3.966l-0.004,0.089l-0.002,0.09
					c-0.015,1.13,0.053,2.22,0.199,3.239l0.004,0.03l0.004,0.03c0.141,0.928,0.317,1.766,0.523,2.49l0.009,0.027l0.007,0.027
					l0.018,0.061c0.043,0.153,0.109,0.396,0.211,0.693l0.027,0.081v0.001c1.07,3.248,3.787,5.764,7.119,6.605
					c0.07,0.019,0.197,0.051,0.381,0.091c0.316,0.074,0.573,0.117,0.727,0.143l0.037,0.007c0.727,0.14,1.543,0.24,2.49,0.305
					l0.031,0.002l0.031,0.002c0.402,0.024,0.818,0.037,1.236,0.037c0.646,0,1.318-0.029,1.996-0.088l0.082-0.007l0.082-0.009
					c1.383-0.146,2.689-0.424,3.887-0.823c1.48-0.486,2.863-1.166,4.109-2.021c0.67-0.457,1.32-0.984,1.918-1.553
					c0.422-0.402,0.779-0.786,1.067-1.094l0.109-0.117c0.72-0.777,1.387-1.539,2.016-2.297l0.046-0.055l0.043-0.056l0.491-0.611
					l0.335-0.417l0.072-0.092l0.07-0.094l0.211-0.274c0.235-0.307,0.469-0.614,0.694-0.931c0.649-0.883,1.222-1.75,1.744-2.558
					l0.032-0.049l0.031-0.05c0.602-0.962,1.121-1.851,1.588-2.715c0.959-1.772,1.785-3.585,2.447-5.378
					c0.326-0.879,0.59-1.676,0.805-2.425c0.221-0.742,0.379-1.392,0.506-1.932l0.01-0.044l0.011-0.045
					c0.12-0.534,0.218-1.046,0.294-1.521l0.012-0.072l0.01-0.073l0.061-0.437c0.336-2.406-0.307-4.843-1.814-6.813
					c-1.484-1.939-3.725-3.232-6.152-3.554C420.555,59.346,420.145,59.318,419.735,59.318L419.735,59.318z"/>
			</g>
			<g>
				<g>
					<path fill="#CCAC6C" d="M223.519,514.449c-3.604-0.121-6.49-3-6.568-6.555l-2.188-100.734c-0.058-2.528,0.978-4.99,2.841-6.749
						l0.193-0.183l18.072-25.506l2.971-54.453c0.575-10.536,9.525-18.79,20.376-18.79c0.358,0,0.72,0.009,1.081,0.027
						c5.559,0.282,10.641,2.681,14.305,6.754c3.519,3.91,5.301,8.921,5.018,14.109c-0.08,1.493-0.363,3.086-0.817,4.602
						l-17.689,57.546c-0.673,2.193-2.068,4.134-3.945,5.498l-23.15,21.794l-3.469,96.179c-0.133,3.626-3.118,6.465-6.797,6.465
						L223.519,514.449z"/>
					<path d="M259.217,305.479c0.289,0,0.584,0.008,0.877,0.022c9.055,0.46,16.008,7.915,15.531,16.65
						c-0.066,1.243-0.311,2.524-0.654,3.671l-17.137,55.746l-0.545,1.773c-0.461,1.501-1.426,2.731-2.658,3.566l-24.553,23.114
						l-3.527,97.82c-0.054,1.46-1.299,2.609-2.8,2.609c-0.032,0-0.065-0.001-0.099-0.002c-1.492-0.05-2.672-1.224-2.703-2.645
						l-2.188-100.733c-0.033-1.467,0.58-2.803,1.588-3.755l0.479-0.449l18.973-26.776l3.033-55.605
						C243.295,312.034,250.543,305.479,259.217,305.479 M259.217,297.479c-12.977,0-23.681,9.915-24.371,22.572l-2.906,53.3
						l-17.178,24.241c-2.631,2.545-4.08,6.051-3.998,9.661l2.188,100.727c0.125,5.679,4.708,10.275,10.434,10.467
						c0.125,0.004,0.246,0.006,0.366,0.006c5.841,0,10.583-4.531,10.794-10.316l3.41-94.541l21.783-20.508
						c2.465-1.862,4.297-4.463,5.199-7.396l0.543-1.772l17.137-55.745l0.008-0.026l0.009-0.026c0.544-1.816,0.884-3.732,0.979-5.542
						c0.342-6.249-1.803-12.288-6.039-16.994c-4.381-4.869-10.445-7.736-17.074-8.072
						C260.07,297.49,259.641,297.479,259.217,297.479L259.217,297.479z"/>
				</g>
				<g>
					<path fill="#CCAC6C" d="M362.947,517.981c-0.127,0-0.255-0.004-0.383-0.012c-3.541-0.199-6.28-3.099-6.234-6.601l1.381-92.819
						l-20.923-42.086c-0.406-0.586-0.729-1.22-0.962-1.889l-19.068-55.201c-1.647-4.773-1.309-9.896,0.955-14.423
						c2.338-4.677,6.421-8.15,11.498-9.783c2.003-0.645,4.078-0.971,6.173-0.971c8.448,0,15.933,5.232,18.622,13.021
						c0.502,1.446,0.836,3.055,0.969,4.65l4.143,54.857l15.135,45.163l0.01,0.016c0.832,1.411,1.217,3.012,1.117,4.632
						l-5.832,95.315C369.335,515.29,366.438,517.981,362.947,517.981L362.947,517.981z"/>
					<path d="M335.384,298.197c6.552,0,12.657,4.001,14.843,10.327c0.412,1.191,0.662,2.476,0.762,3.675l4.178,55.324l15.428,46.037
						l0.225,0.38c0.438,0.742,0.617,1.557,0.568,2.351l-5.832,95.316c-0.084,1.34-1.234,2.374-2.607,2.374
						c-0.051,0-0.104-0.002-0.156-0.005c-1.4-0.079-2.479-1.215-2.461-2.555l1.395-93.783l-21.506-43.259
						c-0.273-0.349-0.479-0.728-0.615-1.12l-0.59-1.708l-18.475-53.483c-2.73-7.909,1.701-16.457,9.896-19.093
						C332.076,298.448,333.744,298.197,335.384,298.197 M335.384,290.197c-2.509,0-4.998,0.391-7.397,1.162
						c-6.109,1.965-11.029,6.156-13.852,11.803c-2.748,5.498-3.16,11.719-1.158,17.517l18.476,53.485l0.589,1.707
						c0.323,0.926,0.752,1.797,1.281,2.606l20.375,40.983l-1.366,91.842c-0.075,5.663,4.321,10.34,10.009,10.661
						c0.199,0.012,0.404,0.018,0.607,0.018c5.598,0,10.25-4.341,10.592-9.881l5.832-95.321c0.141-2.274-0.359-4.521-1.449-6.525
						l-14.854-44.327l-4.104-54.33l-0.002-0.03l-0.002-0.029c-0.16-1.924-0.566-3.87-1.174-5.628
						C354.541,296.513,345.537,290.197,335.384,290.197L335.384,290.197z"/>
				</g>
			</g>
			<g>
				<path fill="#CCAC6C" d="M331.712,533.205c-0.185,0-0.37-0.006-0.557-0.02c-4.13-0.281-7.366-3.694-7.366-7.77l0.263-90.216
					l-25.059-39.775c-2.229-2.512-3.381-5.706-3.25-9.039l0.436-10.463c-5.823,2.656-12.188,4.039-18.735,4.039
					c-11.068,0-21.546-3.966-29.598-11.053l-13.018,34.606c-0.898,2.38-2.495,4.367-4.63,5.771l-22.934,19.717l-4.752,93.143
					c-0.222,4.288-3.815,7.645-8.182,7.645c-0.133,0-0.267-0.003-0.4-0.01c-4.21-0.196-7.635-3.598-7.796-7.742l-3.646-99.435
					c-0.106-3.057,1.02-5.951,3.17-8.155l0.756-0.769l14.955-24.325l-0.364-48.427l-0.886,0.107
					c-0.15,0.022-0.404,0.052-0.662,0.081c-0.261,0.029-0.527,0.053-0.791,0.11l-1.979,0.399c-0.209,0.047-0.49,0.1-0.773,0.153
					c-0.35,0.065-0.681,0.127-0.924,0.198l-2.227,0.616l-0.081,0.019c-0.736,0.172-1.573,0.479-2.46,0.804
					c-0.516,0.189-1.038,0.381-1.575,0.562c-0.315,0.104-0.69,0.271-1.087,0.448c-0.289,0.128-0.58,0.257-0.875,0.379
					c-0.282,0.128-0.569,0.249-0.858,0.371c-0.428,0.18-0.832,0.349-1.148,0.521l-0.206,0.104c-2.578,1.218-5.367,2.848-9.042,5.283
					c-2.805,1.906-5.879,4.228-9.362,7.071c-1.943,1.586-3.896,3.226-5.867,4.879c-1.298,1.09-2.603,2.186-3.917,3.275
					c-2.761,2.324-6.458,5.372-10.366,8.178c-0.979,0.728-1.9,1.372-2.767,1.938c-0.288,0.189-0.581,0.389-0.873,0.586
					c-0.626,0.426-1.25,0.848-1.896,1.236c-0.922,0.562-1.651,1.046-2.277,1.512l-0.283,0.205c-0.717,0.517-1.394,1.005-1.989,1.511
					c-0.981,0.855-2.014,1.654-3.013,2.428c-0.627,0.487-1.255,0.973-1.87,1.477l-0.135,0.105c-0.7,0.523-1.407,1.137-2.155,1.785
					c-0.836,0.724-1.698,1.472-2.646,2.18l-0.212,0.169c-0.765,0.603-1.633,1.286-2.605,1.869c-1.103,0.644-2.098,1.153-3.082,1.581
					c-0.513,0.225-1.043,0.431-1.567,0.62l-0.145,0.053l-0.148,0.04c-0.533,0.148-1.063,0.285-1.598,0.399
					c-0.804,0.179-1.592,0.304-2.355,0.424l-0.678,0.105c-1.891,0.229-3.76,0.345-5.559,0.345c-1.773,0-3.496-0.112-5.117-0.335
					l-0.645-0.08c-0.537-0.065-1.059-0.131-1.568-0.221l-0.195-0.04l-1.885-0.433c-1.278-0.32-2.456-0.653-3.586-1.01l-0.169-0.058
					c-2.186-0.8-3.85-1.641-4.911-2.204l-1.328-0.764l-6.438-4.146l6.968-3.382l1.201-0.521c1.226-0.509,2.797-1.061,4.727-1.665
					c1.021-0.358,2.072-0.701,3.132-1.019l1.701-0.473l1.71-0.537c0.664-0.208,1.351-0.4,2.053-0.584l0.985-0.253
					c0.098-0.025,0.195-0.06,0.294-0.092c0.18-0.058,0.361-0.116,0.544-0.168c0.689-0.214,1.397-0.412,2.116-0.607
					c0.251-0.07,0.523-0.138,0.797-0.206c0.344-0.086,0.693-0.168,1.037-0.288l0.568-0.174c0.613-0.186,1.308-0.395,2.062-0.562
					c0.389-0.09,0.823-0.17,1.267-0.241c0.438-0.093,0.885-0.179,1.345-0.243c0.886-0.13,1.874-0.202,2.994-0.218
					c0.417,0,0.766-0.015,1.118-0.028c0.467-0.018,0.941-0.035,1.43-0.035l0.546,0.003c1.529,0,3.064-0.15,4.561-0.447
					c0.479-0.09,0.981-0.253,1.562-0.442c0.281-0.092,0.563-0.184,0.85-0.271l1.275-0.41c0.368-0.139,0.737-0.288,1.102-0.446
					c0.738-0.315,1.557-0.681,2.253-1.098c0.568-0.358,1.26-0.849,2.106-1.497c0.478-0.365,0.924-0.749,1.373-1.133
					c0.291-0.25,0.582-0.499,0.877-0.744c0.673-0.551,1.373-1.168,2.153-1.896c3.315-2.986,6.442-6.212,8.804-8.694
					c1.335-1.407,2.658-2.834,3.982-4.261c1.571-1.694,3.145-3.39,4.74-5.059c2.684-2.783,5.867-6.026,9.209-9.055
					c3.501-3.103,6.744-5.657,9.947-7.836c0.646-0.477,1.292-0.871,1.863-1.221c0.252-0.153,0.502-0.306,0.746-0.464l0.109-0.067
					c0.255-0.153,0.506-0.312,0.756-0.47c0.568-0.358,1.213-0.766,1.922-1.131c0.436-0.229,0.888-0.473,1.336-0.716
					c1.202-0.651,2.443-1.324,3.764-1.888l2.326-1.058c0.634-0.295,1.263-0.524,1.818-0.728c0.235-0.086,0.469-0.171,0.701-0.262
					l2.3-0.856c0.596-0.229,1.187-0.397,1.708-0.545c0.213-0.061,0.424-0.12,0.631-0.186l2.092-0.623
					c0.688-0.21,1.459-0.438,2.309-0.604l3.475-0.749c0.926-0.216,1.683-0.336,2.289-0.434l0.727-0.118
					c2.525-3.364,5.793-6.147,9.556-8.127c1.739-1.481,3.657-2.71,5.71-3.654l57.336-26.173c7.154-8.348,16.486-13.719,26.57-15.325
					c1.026-2.426,2.049-4.853,3.058-7.283c1.424-3.382,2.818-6.828,4.166-10.161l2.068-5.102c1.216-2.992,2.473-6.085,3.656-9.127
					l4.839-12.288c1.058-2.646,2.084-5.346,3.076-7.956c0.547-1.44,1.094-2.88,1.648-4.318l4.701-12.298l4.566-12.305l4.567-12.342
					c0.983-2.622,1.933-5.302,2.852-7.893c0.526-1.486,1.053-2.973,1.589-4.456c0.52-1.483,1.063-2.997,1.605-4.512
					c0.917-2.56,1.866-5.206,2.739-7.805l4.231-12.453c0.901-2.666,1.768-5.346,2.634-8.025c0.477-1.473,0.952-2.944,1.435-4.416
					c0.977-2.946,1.906-5.969,2.807-8.892c0.367-1.191,0.734-2.384,1.104-3.573c0.862-2.724,1.679-5.511,2.468-8.206
					c0.321-1.1,0.643-2.198,0.969-3.297c-0.359-0.054-0.713-0.124-1.059-0.21c-0.566-0.136-1.154-0.329-1.721-0.567
					c-0.39-0.164-0.777-0.352-1.169-0.545l-0.15-0.073c-0.829-0.408-1.66-0.846-2.478-1.305l-1.303-0.763l-0.325-0.199
					c-0.297-0.182-0.593-0.363-0.883-0.558c-0.874-0.557-1.688-1.139-2.372-1.636c-0.892-0.668-1.628-1.251-2.294-1.816
					c-1.373-1.167-2.694-2.449-3.823-3.711c-0.582-0.655-1.063-1.23-1.471-1.766c-0.391-0.496-0.75-0.998-1.039-1.417
					c-0.326-0.48-0.555-0.847-0.707-1.101l-0.228-0.399c-0.704-1.244-0.87-2.708-0.477-4.044c0.396-1.343,1.339-2.487,2.587-3.141
					c0.49-0.261,1.041-0.445,1.613-0.538l0.418-0.065c0.38-0.052,0.818-0.104,1.369-0.147c0.546-0.04,1.179-0.077,1.888-0.084
					c0.153-0.004,0.378-0.007,0.606-0.007c0.521,0,1.076,0.015,1.656,0.043c1.715,0.082,3.566,0.298,5.35,0.623
					c0.83,0.15,1.729,0.344,2.824,0.609c0.957,0.249,1.909,0.506,2.859,0.816c0.332,0.1,0.655,0.211,0.979,0.322l0.497,0.171
					l1.237,0.456c0.684,0.265,1.328,0.529,1.948,0.797l-9.332-20.64c-2.084-0.734-3.822-2.243-4.814-4.272
					c-0.991-2.023-1.121-4.309-0.362-6.432c0.772-2.158,2.362-3.879,4.478-4.845c1.144-0.522,2.36-0.787,3.616-0.787
					c3.278,0,6.313,1.873,7.733,4.772c0.98,2,1.089,4.289,0.384,6.343l10.736,20.307c1.105-0.229,2.234-0.349,3.377-0.358
					l4.581-22.37c-1.274-1.778-1.808-3.995-1.421-6.229c0.699-4.061,4.254-7.011,8.452-7.011c0.464,0,0.932,0.037,1.391,0.111
					c2.302,0.37,4.304,1.604,5.643,3.477c1.303,1.825,1.81,4.039,1.431,6.236c-0.383,2.226-1.63,4.146-3.428,5.415L399.6,78.416
					c0.256,0.228,1.242,1.118,1.475,1.325c0.523,0.466,1.046,0.933,1.547,1.421l1.473,1.394c0.914,0.864,1.83,1.729,2.734,2.608
					l4.154,4.146c0.256,0.261,0.481,0.485,0.707,0.709c0.498,0.493,0.993,0.986,1.466,1.507l1.952,2.078
					c0.929,0.959,1.837,1.995,2.715,2.996c0.417,0.476,0.833,0.951,1.255,1.421c0.505,0.567,0.989,1.124,1.474,1.681
					c0.782,0.898,1.563,1.796,2.367,2.668c0.408,0.438,0.826,0.897,1.244,1.356c0.891,0.978,1.731,1.902,2.604,2.758l0.084,0.085
					c1.211,1.26,2.528,2.479,3.918,3.622c2.455,2.021,3.944,4.854,4.191,7.98c0.246,3.108-0.77,6.12-2.855,8.479
					c-2.256,2.551-5.535,4.015-8.994,4.015l0,0c-2.674,0-5.299-0.894-7.392-2.515c-1.416-1.103-2.902-2.128-4.427-3.052
					l-0.097-0.062c-1.032-0.668-2.129-1.293-3.29-1.954c-0.547-0.313-1.095-0.625-1.638-0.942c-1.054-0.611-2.146-1.203-3.239-1.795
					c-0.623-0.338-1.246-0.676-1.865-1.019c-0.608-0.343-1.193-0.662-1.777-0.981c-0.866-0.473-1.754-0.958-2.639-1.474
					c-0.293,0.997-0.583,2-0.864,2.998c-0.358,1.257-0.718,2.495-1.077,3.734c-0.839,2.896-1.707,5.891-2.49,8.833
					c-0.408,1.508-0.818,2.998-1.229,4.488c-0.746,2.714-1.492,5.428-2.201,8.15l-3.281,12.698
					c-0.717,2.717-1.386,5.498-2.033,8.188c-0.363,1.506-0.726,3.012-1.098,4.515c-0.358,1.498-0.732,3.025-1.106,4.553
					c-0.654,2.666-1.33,5.424-1.94,8.132l-2.947,12.813l-2.931,12.798l-2.805,12.799c-0.314,1.454-0.638,2.917-0.96,4.381
					c-0.609,2.756-1.237,5.605-1.811,8.407l-2.682,12.886c-0.686,3.215-1.331,6.494-1.954,9.665l-1.063,5.378
					c-0.695,3.499-1.414,7.118-2.066,10.675c-1.871,9.855-3.329,18.068-4.591,25.873c-0.05,0.313-0.11,0.632-0.179,0.964
					c1.869,5.814,2.816,11.907,2.816,18.129c0,18.963-8.852,36.307-23.205,45.692l-5.516,20.139l15.128,41.689l0.296,0.465
					c1.155,1.83,1.678,3.915,1.523,6.041l-6.88,94.031C339.305,530.034,335.838,533.205,331.712,533.205z"/>
				<path d="M398.194,41.308c0.249,0,0.503,0.02,0.757,0.061c2.496,0.401,4.182,2.676,3.766,5.083
					c-0.293,1.701-1.561,3.009-3.16,3.488l-4.219,30.065l0.174,0.152c0.738,0.623,1.457,1.27,2.174,1.917
					c0.715,0.651,1.453,1.279,2.146,1.954c1.4,1.335,2.818,2.652,4.207,4.003l4.117,4.109c0.68,0.694,1.385,1.355,2.039,2.075
					l1.996,2.126c1.35,1.395,2.607,2.901,3.91,4.352c1.295,1.458,2.557,2.956,3.875,4.387c1.326,1.424,2.605,2.902,3.988,4.259
					c1.346,1.401,2.77,2.713,4.262,3.94c3.313,2.726,3.709,7.524,0.881,10.721c-1.557,1.761-3.771,2.665-5.998,2.665
					c-1.74,0-3.49-0.552-4.941-1.677c-1.527-1.189-3.127-2.294-4.801-3.31c-1.639-1.061-3.385-1.998-5.08-2.99
					c-1.701-0.986-3.461-1.905-5.189-2.861c-1.717-0.969-3.484-1.876-5.154-2.898l-2.537-1.499c-0.344-0.195-0.678-0.406-1.01-0.617
					c-0.813,2.652-1.615,5.307-2.365,7.976c-1.201,4.204-2.457,8.395-3.582,12.62c-1.143,4.221-2.334,8.43-3.436,12.66
					l-3.283,12.705c-1.113,4.23-2.09,8.496-3.141,12.742c-1.018,4.257-2.104,8.494-3.066,12.766l-2.943,12.797l-2.932,12.802
					l-2.813,12.835c-0.926,4.281-1.904,8.547-2.781,12.845l-2.68,12.87c-0.914,4.284-1.738,8.594-2.592,12.895
					c-0.852,4.302-1.719,8.601-2.51,12.918c-1.639,8.625-3.201,17.268-4.605,25.955c-0.098,0.606-0.232,1.198-0.387,1.784
					c1.912,5.556,2.973,11.606,2.973,17.947c0,18.747-9.191,35.008-22.652,43.135l-6.262,22.866l15.711,43.297l0.531,0.835
					c0.709,1.123,0.998,2.38,0.908,3.6l-6.879,94.033c-0.146,1.989-1.862,3.511-3.898,3.511c-0.094,0-0.189-0.003-0.283-0.01
					c-2.064-0.141-3.641-1.813-3.641-3.779l0.266-91.365l-25.867-41.06c-1.729-1.829-2.537-4.155-2.447-6.449l0.104-2.495
					l0.629-15.113c-6.516,4.425-14.455,7.028-23.029,7.028c-12.574,0-23.791-5.59-31.133-14.332L232.6,398.075l-1.516,4.033
					c-0.641,1.696-1.818,3.057-3.279,3.962l-24.447,21.018l-4.84,94.854c-0.111,2.165-1.966,3.849-4.186,3.849
					c-0.07,0-0.141-0.002-0.211-0.005c-2.191-0.103-3.908-1.826-3.988-3.901l-3.646-99.427c-0.07-2.011,0.711-3.858,2.035-5.216
					l1.063-1.079l15.795-25.69l-0.406-53.845c-0.641,0.028-1.313,0.059-2.045,0.092c-0.486,0.001-1.018,0.065-1.57,0.139
					c-0.553,0.065-1.125,0.135-1.717,0.206c-0.59,0.086-1.217,0.121-1.834,0.257c-0.621,0.124-1.262,0.253-1.916,0.386
					c-0.654,0.145-1.35,0.235-2.023,0.433c-0.682,0.188-1.383,0.381-2.094,0.578c-1.451,0.339-2.871,0.954-4.402,1.47
					c-0.766,0.254-1.5,0.631-2.273,0.946c-0.762,0.349-1.568,0.636-2.332,1.052c-3.139,1.482-6.307,3.42-9.545,5.566
					c-3.217,2.186-6.449,4.667-9.682,7.307c-3.232,2.638-6.494,5.425-9.809,8.175c-3.293,2.771-6.664,5.508-10.145,8.007
					c-0.857,0.636-1.727,1.254-2.619,1.836c-0.891,0.584-1.744,1.202-2.646,1.745c-0.9,0.549-1.775,1.114-2.605,1.733
					c-0.84,0.606-1.682,1.203-2.471,1.873c-1.564,1.361-3.234,2.555-4.826,3.856c-1.639,1.227-3.145,2.729-4.797,3.962
					c-0.814,0.639-1.623,1.298-2.48,1.812c-0.861,0.503-1.738,0.961-2.621,1.345c-0.441,0.193-0.889,0.366-1.332,0.526
					c-0.455,0.126-0.906,0.244-1.361,0.341c-0.902,0.2-1.807,0.329-2.684,0.472c-1.767,0.214-3.465,0.315-5.078,0.315
					c-1.617,0-3.148-0.103-4.574-0.298c-0.713-0.096-1.396-0.159-2.055-0.276c-0.654-0.15-1.283-0.295-1.891-0.434
					c-1.203-0.303-2.297-0.617-3.271-0.925c-1.943-0.711-3.418-1.454-4.41-1.98c-0.49-0.283-0.865-0.499-1.119-0.646
					c-0.25-0.161-0.379-0.244-0.379-0.244s0.141-0.068,0.418-0.2c0.27-0.117,0.674-0.292,1.197-0.519
					c1.043-0.433,2.547-0.961,4.398-1.539c0.924-0.326,1.936-0.659,3.02-0.984c0.539-0.15,1.102-0.307,1.686-0.468
					c0.568-0.18,1.16-0.364,1.77-0.555c0.607-0.19,1.232-0.365,1.871-0.532c0.318-0.082,0.645-0.165,0.971-0.249
					s0.648-0.207,0.98-0.3c0.66-0.205,1.338-0.395,2.027-0.582c0.688-0.19,1.402-0.332,2.104-0.577
					c0.707-0.21,1.424-0.44,2.172-0.605c0.371-0.086,0.754-0.153,1.141-0.214c0.377-0.082,0.764-0.159,1.162-0.215
					c0.791-0.116,1.623-0.168,2.494-0.18h0.016c0.811,0,1.62-0.063,2.479-0.063c0.063,0,0.127,0,0.189,0.001
					c0.119,0.002,0.237,0.002,0.356,0.002c1.755,0,3.55-0.169,5.339-0.523c0.959-0.179,1.857-0.523,2.801-0.812
					c0.473-0.152,0.945-0.304,1.42-0.456c0.465-0.173,0.93-0.359,1.389-0.56c0.922-0.394,1.844-0.814,2.709-1.333
					c0.855-0.537,1.678-1.135,2.486-1.756c0.811-0.617,1.572-1.311,2.365-1.967c0.795-0.652,1.568-1.342,2.33-2.052
					c3.088-2.78,6.051-5.789,8.975-8.864c2.922-3.079,5.777-6.239,8.715-9.31c2.949-3.06,5.922-6.063,9.004-8.856
					c3.117-2.762,6.311-5.319,9.578-7.538c0.787-0.588,1.65-1.062,2.461-1.584c0.828-0.497,1.613-1.043,2.451-1.475
					c1.67-0.874,3.254-1.808,4.881-2.498c0.809-0.368,1.6-0.728,2.371-1.079c0.773-0.359,1.566-0.608,2.324-0.906
					c0.764-0.284,1.508-0.561,2.23-0.829c0.725-0.279,1.451-0.446,2.146-0.665c0.697-0.209,1.375-0.41,2.027-0.604
					c0.65-0.198,1.285-0.385,1.939-0.513c1.291-0.278,2.479-0.534,3.549-0.765c1.137-0.264,1.902-0.358,2.646-0.486
					c0.721-0.117,1.332-0.218,1.832-0.301c2.334-3.566,5.613-6.504,9.512-8.467c1.5-1.333,3.211-2.477,5.121-3.355l58.145-26.542
					c6.895-8.351,16.33-13.874,26.881-14.919c1.328-3.138,2.656-6.276,3.961-9.421c1.711-4.063,3.35-8.146,5.002-12.225
					c1.65-4.081,3.328-8.152,4.922-12.247l4.832-12.273c1.635-4.085,3.154-8.2,4.736-12.301l4.705-12.309l4.58-12.342l4.568-12.345
					c1.543-4.111,2.963-8.255,4.451-12.38c1.451-4.134,2.98-8.249,4.375-12.4l4.227-12.439c1.404-4.15,2.719-8.322,4.082-12.482
					c1.377-4.154,2.629-8.347,3.93-12.521c1.322-4.174,2.502-8.383,3.756-12.574c0.436-1.546,0.869-3.094,1.301-4.641
					c-0.322,0.113-0.662,0.221-1.02,0.32c-0.697,0.178-1.449,0.309-2.211,0.334c-0.117,0.005-0.236,0.007-0.355,0.007
					c-0.65,0-1.304-0.071-1.949-0.231c-0.383-0.092-0.76-0.215-1.131-0.371s-0.738-0.341-1.113-0.524
					c-0.75-0.369-1.512-0.77-2.279-1.2c-0.375-0.221-0.76-0.444-1.143-0.668c-0.379-0.236-0.766-0.461-1.137-0.712
					c-0.756-0.479-1.49-1-2.207-1.521c-0.713-0.534-1.404-1.076-2.061-1.633c-1.309-1.112-2.473-2.259-3.43-3.328
					c-0.477-0.535-0.906-1.046-1.271-1.524c-0.369-0.47-0.68-0.906-0.932-1.27c-0.25-0.369-0.439-0.673-0.566-0.884
					c-0.123-0.219-0.189-0.334-0.189-0.334c-0.332-0.588-0.109-1.325,0.5-1.645c0.127-0.067,0.266-0.111,0.398-0.133
					c0,0,0.139-0.021,0.391-0.061c0.252-0.034,0.615-0.077,1.072-0.113c0.451-0.033,0.998-0.065,1.609-0.071
					c0.184-0.005,0.373-0.007,0.567-0.007c0.46,0,0.948,0.013,1.46,0.038c1.463,0.07,3.117,0.251,4.83,0.563
					c0.857,0.155,1.725,0.35,2.602,0.562c0.867,0.227,1.746,0.465,2.602,0.745c0.434,0.13,0.854,0.284,1.279,0.427
					c0.418,0.155,0.836,0.308,1.25,0.46c0.822,0.319,1.619,0.653,2.381,0.996c0.383,0.173,0.756,0.339,1.113,0.524
					c0.355,0.188,0.688,0.399,1,0.633c0.621,0.465,1.154,1.016,1.6,1.615c0.201,0.269,0.379,0.551,0.547,0.837
					c0.469-1.751,1.299-3.319,2.393-4.656l-12.23-27.051c-1.674-0.041-3.264-0.964-4.025-2.523
					c-1.082-2.207-0.105-4.838,2.182-5.882c0.633-0.289,1.299-0.426,1.955-0.426c1.715,0,3.359,0.936,4.141,2.531
					c0.766,1.561,0.496,3.331-0.537,4.604l13.275,25.108c1.701-0.765,3.576-1.182,5.512-1.182c1,0,2.016,0.111,3.033,0.345
					l5.729-27.972c-1.354-0.953-2.115-2.585-1.82-4.288C394.055,42.84,395.996,41.308,398.194,41.308 M398.194,33.308
					c-6.151,0-11.364,4.347-12.396,10.337c-0.452,2.613-0.018,5.271,1.141,7.585l-3.033,14.814l-7.184-13.589
					c0.458-2.536,0.125-5.203-1.049-7.594c-2.082-4.255-6.527-7.008-11.322-7.008c-1.832,0-3.607,0.386-5.277,1.147
					c-3.105,1.419-5.443,3.953-6.582,7.138c-1.126,3.148-0.936,6.538,0.539,9.544c1.182,2.417,3.082,4.334,5.389,5.546l4.953,10.958
					c-0.822-0.189-1.549-0.34-2.242-0.466c-1.973-0.359-3.951-0.59-5.871-0.683c-0.632-0.031-1.256-0.047-1.845-0.047
					c-0.241,0-0.476,0.003-0.704,0.008c-0.658,0.008-1.314,0.037-2.061,0.092c-0.566,0.045-1.078,0.099-1.561,0.164l-0.074,0.011
					l-0.076,0.012l-0.39,0.061l-0.026,0.004l-0.026,0.004c-1.009,0.163-1.974,0.488-2.874,0.965
					c-2.16,1.133-3.824,3.156-4.524,5.531c-0.699,2.368-0.403,4.961,0.813,7.113l0.016,0.03l0.018,0.029l0.148,0.261l0.058,0.104
					l0.062,0.103c0.244,0.405,0.512,0.823,0.797,1.243l0.024,0.037l0.024,0.036c0.266,0.384,0.677,0.965,1.184,1.613
					c0.463,0.603,0.992,1.238,1.619,1.941c1.279,1.43,2.695,2.805,4.223,4.104c0.734,0.623,1.532,1.255,2.445,1.939l0.045,0.033
					l0.045,0.033c0.725,0.527,1.59,1.146,2.541,1.753c0.323,0.215,0.652,0.418,0.982,0.62l0.293,0.179l0.1,0.063l0.1,0.059
					l0.324,0.188l0.797,0.466l0.07,0.042l0.072,0.04c0.879,0.494,1.774,0.965,2.66,1.401l0.16,0.078
					c0.226,0.111,0.484,0.238,0.77,0.37c-0.74,2.529-1.506,5.13-2.301,7.639c-0.383,1.232-0.752,2.43-1.121,3.627
					c-0.893,2.901-1.816,5.902-2.775,8.794c-0.492,1.501-0.971,2.979-1.447,4.456c-0.85,2.627-1.727,5.343-2.619,7.979
					l-4.223,12.431c-0.869,2.587-1.813,5.215-2.723,7.756c-0.543,1.513-1.085,3.025-1.617,4.541
					c-0.533,1.478-1.057,2.957-1.581,4.437c-0.913,2.575-1.856,5.238-2.821,7.809l-4.581,12.38l-4.562,12.293l-4.693,12.277
					c-0.549,1.422-1.098,2.868-1.648,4.314c-0.986,2.595-2.004,5.277-3.043,7.87l-4.848,12.315
					c-1.184,3.041-2.436,6.119-3.645,9.096c-0.418,1.027-0.836,2.055-1.25,3.083l-0.817,2.019c-1.345,3.323-2.735,6.761-4.142,10.1
					c-0.742,1.788-1.486,3.564-2.225,5.315c-9.895,2.09-19.006,7.499-26.172,15.585l-56.539,25.81
					c-2.271,1.045-4.385,2.375-6.313,3.967c-3.634,1.976-6.852,4.615-9.477,7.762c-0.49,0.085-1.068,0.195-1.739,0.35l-3.429,0.738
					c-0.986,0.197-1.865,0.455-2.617,0.685c-0.653,0.193-1.33,0.395-2.027,0.604l-0.053,0.016l-0.051,0.017
					c-0.173,0.054-0.35,0.103-0.525,0.152c-0.559,0.159-1.252,0.356-2.039,0.656l-0.236,0.088l-1.967,0.73l-0.068,0.025
					l-0.066,0.027c-0.201,0.078-0.404,0.152-0.609,0.227c-0.592,0.216-1.324,0.483-2.127,0.854l-1.332,0.606l-0.93,0.423
					c-1.472,0.632-2.783,1.342-4.053,2.029c-0.428,0.231-0.858,0.465-1.295,0.694c-0.852,0.439-1.564,0.89-2.194,1.288
					c-0.226,0.142-0.45,0.284-0.679,0.422l-0.109,0.065l-0.107,0.069c-0.218,0.141-0.441,0.276-0.664,0.413
					c-0.595,0.363-1.324,0.81-2.089,1.367c-3.325,2.268-6.683,4.911-10.257,8.078l-0.034,0.03l-0.033,0.03
					c-3.429,3.107-6.673,6.41-9.392,9.232c-1.645,1.72-3.25,3.45-4.803,5.123c-1.314,1.416-2.629,2.832-3.955,4.231
					c-2.307,2.425-5.363,5.58-8.525,8.426l-0.051,0.046l-0.051,0.047c-0.719,0.671-1.356,1.233-1.95,1.72
					c-0.338,0.28-0.646,0.544-0.954,0.808c-0.432,0.368-0.838,0.717-1.183,0.979c-0.732,0.563-1.306,0.972-1.815,1.297
					c-0.482,0.28-1.114,0.561-1.674,0.8l-0.029,0.012l-0.028,0.013c-0.263,0.115-0.539,0.228-0.822,0.335l-0.165,0.053l-1.021,0.328
					c-0.289,0.09-0.575,0.183-0.859,0.275c-0.371,0.121-0.832,0.271-1.008,0.305l-0.047,0.008l-0.045,0.01
					c-1.24,0.246-2.514,0.37-3.782,0.37l-0.25-0.001l-0.296-0.002c-0.541,0-1.066,0.019-1.584,0.038
					c-0.301,0.012-0.598,0.025-0.895,0.025h-0.053l-0.07,0.001c-1.293,0.017-2.45,0.103-3.536,0.262
					c-0.569,0.081-1.077,0.18-1.485,0.266c-0.533,0.088-0.994,0.177-1.431,0.276c-0.886,0.197-1.677,0.437-2.314,0.629l-0.372,0.111
					l-0.183,0.055l-0.181,0.063c-0.113,0.04-0.443,0.122-0.684,0.182c-0.309,0.077-0.613,0.154-0.914,0.237
					c-0.619,0.169-1.389,0.382-2.178,0.625c-0.213,0.062-0.424,0.129-0.635,0.197l-0.125,0.04l-0.406,0.104l-0.496,0.127
					c-0.855,0.224-1.588,0.433-2.268,0.646l-0.232,0.072c-0.485,0.152-0.959,0.3-1.42,0.445l-1.56,0.433l-0.075,0.021L97.1,375.35
					c-1.096,0.328-2.186,0.683-3.244,1.054c-2.013,0.631-3.675,1.218-4.94,1.742l-0.056,0.023l-0.057,0.024l-0.26,0.112
					l-0.949,0.411l-0.123,0.054l-0.122,0.058l-0.482,0.231l-12.778,6.225l11.947,7.696l0.376,0.242l0.165,0.106l0.17,0.099
					l0.281,0.161l0.834,0.481l0.125,0.072l0.128,0.068c1.165,0.618,2.993,1.542,5.411,2.426l0.168,0.063l0.172,0.054
					c1.203,0.38,2.457,0.734,3.728,1.054l0.085,0.021l0.086,0.02l1.879,0.432l0.195,0.045l0.195,0.034
					c0.658,0.117,1.26,0.19,1.791,0.254c0.197,0.024,0.398,0.048,0.602,0.075c1.779,0.244,3.685,0.369,5.639,0.369
					c1.959,0,3.989-0.126,6.038-0.373l0.162-0.02l0.161-0.026l0.501-0.08c0.774-0.123,1.651-0.262,2.597-0.471
					c0.693-0.148,1.324-0.317,1.799-0.448l0.295-0.082l0.287-0.104c0.667-0.24,1.264-0.478,1.824-0.723
					c1.111-0.482,2.244-1.063,3.445-1.765l0.039-0.022l0.039-0.023c1.193-0.714,2.21-1.516,3.027-2.159l0.213-0.168
					c1.031-0.776,1.963-1.584,2.788-2.299c0.692-0.601,1.347-1.168,1.932-1.605l0.138-0.103l0.133-0.109
					c0.588-0.48,1.189-0.945,1.789-1.41c1.028-0.797,2.092-1.62,3.181-2.565c0.472-0.397,1.075-0.832,1.713-1.292l0.233-0.168
					l0.05-0.037l0.05-0.037c0.521-0.389,1.153-0.807,1.986-1.314c0.732-0.44,1.428-0.913,2.042-1.33
					c0.274-0.187,0.548-0.373,0.827-0.556c0.902-0.589,1.871-1.267,2.945-2.062c3.99-2.868,7.737-5.957,10.563-8.333
					c1.312-1.089,2.615-2.184,3.912-3.272c2.011-1.688,3.909-3.281,5.823-4.843c3.376-2.758,6.347-5.002,9.081-6.861
					c3.49-2.312,6.113-3.847,8.504-4.977l0.209-0.098l0.202-0.11c0.139-0.076,0.496-0.227,0.784-0.347
					c0.301-0.127,0.602-0.254,0.896-0.387c0.309-0.128,0.611-0.263,0.914-0.396c0.246-0.109,0.582-0.26,0.703-0.301
					c0.604-0.203,1.162-0.406,1.711-0.608c0.768-0.281,1.492-0.547,1.991-0.664l0.161-0.037l0.158-0.044l2.076-0.573l0.064-0.018
					l0.063-0.019c0.074-0.02,0.34-0.069,0.534-0.105c0.131-0.024,0.261-0.049,0.392-0.074l0.32,42.601l-14.115,22.96l-0.426,0.431
					c-2.945,3.021-4.475,6.956-4.33,11.108l3.648,99.44c0.239,6.218,5.338,11.307,11.608,11.6c0.192,0.009,0.39,0.014,0.585,0.014
					c6.496,0,11.844-5.023,12.174-11.437l4.666-91.435l21.453-18.443c2.73-1.86,4.777-4.454,5.943-7.542l1.52-4.045l9.589-25.488
					c8.024,5.526,17.672,8.561,27.767,8.561c4.97,0,9.842-0.732,14.486-2.157l-0.079,1.909l-0.104,2.497
					c-0.167,4.277,1.257,8.359,4.026,11.606l24.274,38.532l-0.259,89.043c0,6.194,4.875,11.36,11.097,11.784
					c0.274,0.019,0.552,0.028,0.827,0.028c6.211,0,11.428-4.8,11.877-10.927l6.879-94.033c0.221-2.982-0.514-5.907-2.122-8.454
					l-0.075-0.118l-14.545-40.082l4.789-17.487c14.721-10.292,23.738-28.433,23.738-48.175c0-6.288-0.908-12.457-2.702-18.37
					c0.005-0.029,0.011-0.06,0.015-0.089c1.254-7.763,2.707-15.941,4.566-25.734l0.005-0.025l0.005-0.026
					c0.646-3.531,1.363-7.139,2.057-10.627l0.432-2.179c0.211-1.061,0.42-2.126,0.629-3.19c0.621-3.158,1.264-6.423,1.939-9.589
					l2.688-12.908c0.572-2.804,1.198-5.64,1.803-8.382c0.324-1.467,0.648-2.934,0.966-4.402l2.8-12.775l2.924-12.767l2.941-12.79
					c0.609-2.704,1.28-5.441,1.93-8.09c0.373-1.524,0.748-3.049,1.113-4.576c0.371-1.502,0.734-3.007,1.096-4.512
					c0.645-2.669,1.309-5.428,2.008-8.087l3.293-12.739c0.695-2.673,1.451-5.423,2.184-8.083c0.412-1.495,0.822-2.991,1.229-4.488
					c0.78-2.933,1.643-5.907,2.476-8.783c0.185-0.634,0.368-1.269,0.551-1.903l0.027,0.016c0.63,0.348,1.263,0.691,1.896,1.034
					c1.106,0.6,2.152,1.166,3.152,1.747c0.529,0.309,1.09,0.629,1.65,0.949c1.111,0.632,2.16,1.229,3.098,1.836l0.097,0.063
					l0.099,0.06c1.391,0.845,2.75,1.781,4.035,2.782c2.807,2.175,6.301,3.365,9.857,3.365c4.605,0,8.977-1.956,11.991-5.366
					c2.812-3.178,4.179-7.242,3.847-11.443c-0.334-4.219-2.336-8.037-5.638-10.754c-1.271-1.044-2.472-2.155-3.574-3.304
					l-0.083-0.086l-0.086-0.084c-0.791-0.777-1.596-1.661-2.447-2.597c-0.428-0.47-0.855-0.939-1.289-1.403
					c-0.723-0.786-1.471-1.645-2.262-2.554c-0.494-0.566-0.987-1.133-1.485-1.693c-0.442-0.491-0.848-0.955-1.255-1.419
					c-0.895-1.022-1.822-2.078-2.841-3.135l-1.921-2.046c-0.549-0.601-1.086-1.133-1.561-1.604c-0.212-0.21-0.424-0.42-0.633-0.634
					l-0.033-0.033l-0.033-0.032l-4.117-4.109l-0.035-0.037l-0.037-0.036c-0.918-0.892-1.848-1.77-2.777-2.647
					c-0.488-0.462-0.977-0.923-1.463-1.387c-0.528-0.513-1.05-0.98-1.52-1.399l3.119-22.229c1.877-1.796,3.166-4.162,3.624-6.825
					c0.563-3.254-0.189-6.536-2.118-9.237c-1.963-2.749-4.896-4.561-8.262-5.102C399.551,33.362,398.869,33.308,398.194,33.308
					L398.194,33.308z"/>
			</g>
			<ellipse cx="384.863" cy="96.058" rx="3.346" ry="3.229"/>
			<ellipse cx="399.091" cy="92.138" rx="3.347" ry="3.229"/>
			<g>
				<defs>
					<path id="SVGID_4_" d="M428.227,113.279c-1.492-1.228-2.916-2.539-4.262-3.94c-1.383-1.356-2.662-2.835-3.988-4.259
						c-1.318-1.431-2.58-2.929-3.875-4.387c-1.303-1.45-2.561-2.957-3.91-4.352l-1.996-2.126c-0.654-0.72-1.359-1.381-2.039-2.075
						l-4.117-4.109c-1.389-1.351-2.807-2.668-4.207-4.003c-0.693-0.675-1.432-1.303-2.146-1.954
						c-0.717-0.647-1.436-1.294-2.174-1.917l-0.174-0.152l4.219-30.065c1.6-0.479,2.867-1.787,3.16-3.488
						c0.416-2.407-1.27-4.682-3.766-5.083c-2.494-0.4-4.854,1.227-5.268,3.633c-0.295,1.703,0.467,3.335,1.82,4.288l-5.729,27.972
						c-2.98-0.684-5.963-0.323-8.545,0.837l-13.275-25.108c1.033-1.273,1.303-3.044,0.537-4.604
						c-1.08-2.206-3.809-3.149-6.096-2.105s-3.264,3.675-2.182,5.882c0.762,1.56,2.352,2.482,4.025,2.523l12.23,27.051
						c-1.094,1.337-1.924,2.905-2.393,4.656c-0.168-0.286-0.346-0.568-0.547-0.837c-0.445-0.6-0.979-1.15-1.6-1.615
						c-0.313-0.233-0.645-0.445-1-0.633c-0.357-0.186-0.73-0.352-1.113-0.524c-0.762-0.343-1.559-0.677-2.381-0.996
						c-0.414-0.152-0.832-0.305-1.25-0.46c-0.426-0.143-0.846-0.297-1.279-0.427c-0.855-0.28-1.734-0.519-2.602-0.745
						c-0.877-0.212-1.744-0.406-2.602-0.562c-1.713-0.313-3.367-0.493-4.83-0.563c-0.729-0.036-1.41-0.047-2.027-0.031
						c-0.611,0.006-1.158,0.038-1.609,0.071c-0.457,0.036-0.82,0.079-1.072,0.113c-0.252,0.039-0.391,0.061-0.391,0.061
						c-0.133,0.021-0.271,0.065-0.398,0.133c-0.609,0.319-0.832,1.057-0.5,1.645c0,0,0.066,0.115,0.189,0.334
						c0.127,0.211,0.316,0.515,0.566,0.884c0.252,0.363,0.563,0.8,0.932,1.27c0.365,0.479,0.795,0.989,1.271,1.524
						c0.957,1.069,2.121,2.216,3.43,3.328c0.656,0.557,1.348,1.099,2.061,1.633c0.717,0.521,1.451,1.042,2.207,1.521
						c0.371,0.251,0.758,0.476,1.137,0.712c0.383,0.224,0.768,0.447,1.143,0.668c0.768,0.431,1.529,0.831,2.279,1.2
						c0.375,0.184,0.742,0.368,1.113,0.524s0.748,0.279,1.131,0.371c0.764,0.189,1.539,0.255,2.305,0.225
						c0.762-0.025,1.514-0.156,2.211-0.334c0.357-0.1,0.697-0.207,1.02-0.32c-0.432,1.547-0.865,3.095-1.301,4.641
						c-1.254,4.191-2.434,8.4-3.756,12.574c-1.301,4.175-2.553,8.367-3.93,12.521c-1.363,4.16-2.678,8.332-4.082,12.482
						l-4.227,12.439c-1.395,4.151-2.924,8.267-4.375,12.4c-1.488,4.125-2.908,8.269-4.451,12.38l-4.568,12.345l-4.58,12.342
						l-4.705,12.309c-1.582,4.101-3.102,8.216-4.736,12.301l-4.832,12.273c-1.594,4.095-3.271,8.166-4.922,12.247
						c-1.652,4.078-3.291,8.162-5.002,12.225c-1.305,3.145-2.633,6.283-3.961,9.421c-10.551,1.045-19.986,6.568-26.881,14.919
						l-58.145,26.542c-1.91,0.879-3.621,2.022-5.121,3.355c-3.898,1.963-7.178,4.9-9.512,8.467c-0.5,0.083-1.111,0.184-1.832,0.301
						c-0.744,0.128-1.51,0.223-2.646,0.486c-1.07,0.23-2.258,0.486-3.549,0.765c-0.654,0.128-1.289,0.314-1.939,0.513
						c-0.652,0.193-1.33,0.395-2.027,0.604c-0.695,0.219-1.422,0.386-2.146,0.665c-0.723,0.269-1.467,0.545-2.23,0.829
						c-0.758,0.298-1.551,0.547-2.324,0.906c-0.771,0.352-1.563,0.711-2.371,1.079c-1.627,0.69-3.211,1.624-4.881,2.498
						c-0.838,0.432-1.623,0.978-2.451,1.475c-0.811,0.522-1.674,0.996-2.461,1.584c-3.268,2.219-6.461,4.776-9.578,7.538
						c-3.082,2.793-6.055,5.797-9.004,8.856c-2.938,3.07-5.793,6.23-8.715,9.31c-2.924,3.075-5.887,6.084-8.975,8.864
						c-0.762,0.71-1.535,1.399-2.33,2.052c-0.793,0.656-1.555,1.35-2.365,1.967c-0.809,0.621-1.631,1.219-2.486,1.756
						c-0.865,0.519-1.787,0.939-2.709,1.333c-0.459,0.2-0.924,0.387-1.389,0.56c-0.475,0.152-0.947,0.304-1.42,0.456
						c-0.943,0.288-1.842,0.633-2.801,0.812c-1.91,0.379-3.828,0.546-5.695,0.521c-0.936-0.011-1.809,0.063-2.684,0.063
						c-0.871,0.012-1.703,0.063-2.494,0.18c-0.398,0.056-0.785,0.133-1.162,0.215c-0.387,0.061-0.77,0.128-1.141,0.214
						c-0.748,0.165-1.465,0.396-2.172,0.605c-0.701,0.245-1.416,0.387-2.104,0.577c-0.689,0.188-1.367,0.377-2.027,0.582
						c-0.332,0.093-0.654,0.216-0.98,0.3s-0.652,0.167-0.971,0.249c-0.639,0.167-1.264,0.342-1.871,0.532
						c-0.609,0.19-1.201,0.375-1.77,0.555c-0.584,0.161-1.146,0.317-1.686,0.468c-1.084,0.325-2.096,0.658-3.02,0.984
						c-1.852,0.578-3.355,1.106-4.398,1.539c-0.523,0.227-0.928,0.401-1.197,0.519c-0.277,0.132-0.418,0.2-0.418,0.2
						s0.129,0.083,0.379,0.244c0.254,0.146,0.629,0.362,1.119,0.646c0.992,0.526,2.467,1.27,4.41,1.98
						c0.975,0.308,2.068,0.622,3.271,0.925c0.607,0.139,1.236,0.283,1.891,0.434c0.658,0.117,1.342,0.181,2.055,0.276
						c2.846,0.39,6.113,0.41,9.652-0.018c0.877-0.143,1.781-0.271,2.684-0.472c0.455-0.097,0.906-0.215,1.361-0.341
						c0.443-0.16,0.891-0.333,1.332-0.526c0.883-0.384,1.76-0.842,2.621-1.345c0.857-0.514,1.666-1.173,2.48-1.812
						c1.652-1.233,3.158-2.735,4.797-3.962c1.592-1.302,3.262-2.495,4.826-3.856c0.789-0.67,1.631-1.267,2.471-1.873
						c0.83-0.619,1.705-1.185,2.605-1.733c0.902-0.543,1.756-1.161,2.646-1.745c0.893-0.582,1.762-1.2,2.619-1.836
						c3.48-2.499,6.852-5.236,10.145-8.007c3.314-2.75,6.576-5.537,9.809-8.175c3.232-2.64,6.465-5.121,9.682-7.307
						c3.238-2.146,6.406-4.084,9.545-5.566c0.764-0.416,1.57-0.703,2.332-1.052c0.773-0.315,1.508-0.692,2.273-0.946
						c1.531-0.516,2.951-1.131,4.402-1.47c0.711-0.197,1.412-0.391,2.094-0.578c0.674-0.197,1.369-0.288,2.023-0.433
						c0.654-0.133,1.295-0.262,1.916-0.386c0.617-0.136,1.244-0.171,1.834-0.257c0.592-0.071,1.164-0.141,1.717-0.206
						c0.553-0.073,1.084-0.138,1.57-0.139c0.732-0.033,1.404-0.063,2.045-0.092l0.406,53.845l-15.795,25.69l-1.063,1.079
						c-1.324,1.357-2.105,3.205-2.035,5.216l3.646,99.427c0.08,2.075,1.797,3.799,3.988,3.901c2.313,0.11,4.281-1.61,4.396-3.844
						l4.84-94.854l24.447-21.018c1.461-0.905,2.639-2.266,3.279-3.962l1.516-4.033l13.711-36.445
						c7.342,8.742,18.559,14.332,31.133,14.332c8.574,0,16.514-2.604,23.029-7.028l-0.629,15.113l-0.104,2.495
						c-0.09,2.294,0.719,4.62,2.447,6.449l25.867,41.06l-0.266,91.365c0,1.967,1.576,3.639,3.641,3.779
						c2.158,0.148,4.029-1.42,4.182-3.501l6.879-94.033c0.09-1.22-0.199-2.477-0.908-3.6l-0.531-0.835L325.34,383.93l6.262-22.866
						c13.461-8.127,22.652-24.388,22.652-43.135c0-6.341-1.061-12.392-2.973-17.947c0.154-0.586,0.289-1.178,0.387-1.784
						c1.404-8.688,2.967-17.33,4.605-25.955c0.791-4.317,1.658-8.616,2.51-12.918c0.854-4.301,1.678-8.61,2.592-12.895l2.68-12.87
						c0.877-4.298,1.855-8.563,2.781-12.845l2.813-12.835l2.932-12.802l2.943-12.797c0.963-4.271,2.049-8.509,3.066-12.766
						c1.051-4.246,2.027-8.512,3.141-12.742l3.283-12.705c1.102-4.23,2.293-8.439,3.436-12.66c1.125-4.226,2.381-8.416,3.582-12.62
						c0.75-2.669,1.553-5.323,2.365-7.976c0.332,0.211,0.666,0.422,1.01,0.617l2.537,1.499c1.67,1.022,3.438,1.93,5.154,2.898
						c1.729,0.956,3.488,1.875,5.189,2.861c1.695,0.992,3.441,1.93,5.08,2.99c1.674,1.016,3.273,2.12,4.801,3.31
						c3.311,2.565,8.166,2.148,10.939-0.988C431.936,120.804,431.539,116.005,428.227,113.279z"/>
				</defs>
				<clipPath id="SVGID_1_">
					<use xlink:href="#SVGID_4_"  overflow="visible"/>
				</clipPath>
				<path clip-path="url(#SVGID_1_)" fill="#564432" d="M351.635,112.595c14.225-3.689,20.439-5.534,24.742,5.995
					c4.303,11.53,5.977,26.981,0,32.746c-5.975,5.766-40.359,12.327-43.023,9.755C330.688,158.52,351.635,112.595,351.635,112.595z"
					/>
				<path clip-path="url(#SVGID_1_)" fill="#564432" d="M375.6,213.256c-4.205,19.896-26.002,8.78-30.037-2.839
					c-4.033-11.62,3.309-33.898,9.418-39.532c6.107-5.636,37.414-8.348,40.02-5.719C397.604,167.795,375.6,213.256,375.6,213.256z"
					/>
				<path clip-path="url(#SVGID_1_)" fill="#564432" d="M317.1,203.353c14.818-4.445,33.246,20.513,33.246,27.404
					s-9.822,19.806-15.08,28.568c-7.67,12.779-26.293-3.229-30.596-7.379C300.367,247.795,317.1,203.353,317.1,203.353z"/>
				<path clip-path="url(#SVGID_1_)" fill="#564432" d="M367.773,231.191c-13.387-10.696-29.162,39.768-30.596,54.065
					c-0.414,4.131,24.895,7.802,27.045,5.727C366.375,288.908,367.773,231.191,367.773,231.191z"/>
				<path clip-path="url(#SVGID_1_)" fill="#564432" d="M278.611,262.734c12.43,4.893,37.658-0.053,42.313,4.439
					c4.654,4.491,7.404,20.415,7.404,23.81c0,3.394-1.672,19.767-13.385,23.688c-11.711,3.92-21.512-2.701-24.381-9.191
					S278.611,262.734,278.611,262.734z"/>
				<path clip-path="url(#SVGID_1_)" fill="#564432" d="M269.627,277.172c3.014,18.128,14.486,40.728,8.75,46.262
					s-15.775,17.555-23.902,11.545c-8.127-6.011-35.686-27.388-30.117-32.761C229.928,296.845,269.627,277.172,269.627,277.172z"/>
				<path clip-path="url(#SVGID_1_)" fill="#564432" d="M193.17,351.333c-7.957-7.677,29.162-36.436,34.418-31.362
					c5.26,5.073,19.615,13.865,19.615,18.924c0,5.06-12.568,30.135-18.004,30.135S196.037,354.101,193.17,351.333z"/>
				<path clip-path="url(#SVGID_1_)" fill="#564432" d="M264.225,341.7c-2.771,9.013,10.807,18.63,19.41,18.63
					c8.605,0,35.855-9.671,38.244-16.128c2.391-6.457,3.354-13.394-2.146-18.697c-5.496-5.305-27.465-8.08-29.869-5.761
					C287.459,322.063,264.225,341.7,264.225,341.7z"/>
				<path clip-path="url(#SVGID_1_)" fill="#564432" d="M376.518,324.475c-10.934-15.755-24.58-24.413-31.268-24.873
					c-6.686-0.459-14.357,9.235-17.363,14.328c-3.002,5.095,4.953,27.856,8.488,29.797c3.533,1.94,36.432-2.686,36.432-2.686
					L376.518,324.475z"/>
				<polygon clip-path="url(#SVGID_1_)" fill="#564432" points="157.432,334.748 170.338,362.881 182.768,358.27 173.205,325.523 
									"/>
				<path clip-path="url(#SVGID_1_)" fill="#564432" d="M123.49,406.089c24.807-23.934-3.824-38.841-14.82-38.841l-49.24,9.225
					l62.146,29.616H123.49z"/>
			</g>
		</g>
		<polygon fill="#AB2E23" stroke="#000000" stroke-width="8" stroke-linejoin="round" stroke-miterlimit="10" points="
			355.936,208.588 424.238,169.145 424.238,187.768 476.564,187.768 476.564,229.402 424.238,229.402 424.238,248.029 		"/>
	</g>
</g>
</svg>
