<?xml version="1.0" encoding="utf-8"?>
<!-- Generator: Adobe Illustrator 16.0.0, SVG Export Plug-In . SVG Version: 6.00 Build 0)  -->
<!DOCTYPE svg PUBLIC "-//W3C//DTD SVG 1.1//EN" "http://www.w3.org/Graphics/SVG/1.1/DTD/svg11.dtd">
<svg version="1.1" xmlns="http://www.w3.org/2000/svg" xmlns:xlink="http://www.w3.org/1999/xlink" x="0px" y="0px" width="566.9px"
	 height="566.9px" viewBox="0 0 566.9 566.9" enable-background="new 0 0 566.9 566.9" xml:space="preserve">
<g id="fond" display="none">
	
		<rect x="-8889.9" y="-9494.9" display="inline" fill-rule="evenodd" clip-rule="evenodd" fill="#F2F2F2" width="15942.5" height="15814.7"/>
</g>
<g id="en_cours">
</g>
<g id="fini">
	<g>
		<g>
			<path fill="#B3B3B3" d="M283.5,515.7V279.4l0,0h0L82.4,163.3l0,0c-8.4-4.9-26-9.9-28.3,11.3c0,0.1,0,0.3,0,0.4
				c0,0.5-0.1,0.9-0.1,1.4c0,0.3,0,0.6,0,0.9c0,0.7,0,1.4,0,2.1l0,208.3c0,7.6,1.7,14.9,4.9,21.5c4.2,8.7,11,16.1,19.7,21.1
				l176.9,102.1l0,0c0.2,0.1,0.4,0.2,0.6,0.3l3,1.7c7.6,4.4,16.1,6.6,24.6,6.6c8.5,0,17-2.2,24.6-6.6l3-1.7
				C288.5,545.3,283.5,526,283.5,515.7z"/>
			<path fill="#B3B3B3" d="M513.1,178.4c0,0.3,0,0.6,0,0.9l0,0C513.1,179,513.1,178.7,513.1,178.4z"/>
			<path fill="#B3B3B3" d="M484.6,163.3L484.6,163.3C484.6,163.3,484.6,163.3,484.6,163.3L484.6,163.3z"/>
			<path fill="#B3B3B3" d="M311,532.7c0.2-0.1,0.4-0.2,0.6-0.3l0,0L311,532.7z"/>
		</g>
		<path fill="#E6E6E6" d="M513.1,179.3C513.1,179.3,513.1,179.3,513.1,179.3c0-0.3,0-0.6,0-0.9c0-0.4,0-0.7,0-1c0-0.4,0-0.8-0.1-1.2
			c0-0.3,0-0.6-0.1-1c0-0.2,0-0.5-0.1-0.7c-2.3-21-19.8-16-28.2-11.2l-0.1,0L283.5,279.4l0,0v236.3c0,10.3,5,29.7,27.6,17l0.6-0.3
			l176.9-102.1c8.7-5,15.4-12.4,19.7-21.1c3.2-6.6,4.9-13.9,4.9-21.5L513.1,179.3z"/>
		<g>
			<path fill="#FFFFFF" d="M82.4,163.3l182.5,105.3l0,0c13.1,7.5,18.6,28.8,18.6,42.1c0-13.2,5.5-34.5,18.3-41.9l182.8-105.6l0,0
				c0,0,0.1,0,0.1,0c8.4-4.8,25.9-9.8,28.2,11.2c-0.8-8.2-3.7-16-8.2-22.7c-4.1-6.1-9.6-11.2-16.1-15L308.1,32.5
				c-7.6-4.4-16.1-6.6-24.6-6.6c-8.5,0-17,2.2-24.6,6.6L82,134.7l0-0.1c-0.8,0.5-1.6,1-2.3,1.4l-1.2,0.7c-6.6,3.8-12,9-16.1,15
				c-4.6,6.7-7.4,14.6-8.2,22.8c2.1-20,18-16.6,26.8-12C81.4,162.8,81.9,163.1,82.4,163.3L82.4,163.3L82.4,163.3L82.4,163.3
				 M82,134.7C82,134.7,82,134.7,82,134.7 M69.7,150.2c0,0,0,0.1,0,0.1C69.7,150.2,69.7,150.2,69.7,150.2z M69.9,151.1
				c0,0,0,0.1,0,0.1C69.9,151.2,69.9,151.1,69.9,151.1z"/>
		</g>
		<ellipse fill="#4D4D4D" cx="283.5" cy="151.7" rx="32" ry="14.6"/>
		<ellipse fill="#333333" cx="338.5" cy="312.8" rx="14.6" ry="32"/>
		<ellipse fill="#333333" cx="471.8" cy="371.6" rx="14.6" ry="32"/>
		<ellipse fill="#333333" cx="405.1" cy="342.2" rx="14.6" ry="32"/>
		<ellipse cx="90.3" cy="239.5" rx="14.6" ry="32"/>
		<ellipse cx="224.2" cy="448.2" rx="14.6" ry="32"/>
		<ellipse cx="159.4" cy="342.2" rx="14.6" ry="32"/>
		<ellipse cx="224.2" cy="312.8" rx="14.6" ry="32"/>
		<ellipse cx="90.5" cy="371.6" rx="14.6" ry="32"/>
	</g>
</g>
</svg>
