<?xml version="1.0" encoding="utf-8"?>
<!-- Generator: Adobe Illustrator 16.0.0, SVG Export Plug-In . SVG Version: 6.00 Build 0)  -->
<!DOCTYPE svg PUBLIC "-//W3C//DTD SVG 1.1//EN" "http://www.w3.org/Graphics/SVG/1.1/DTD/svg11.dtd">
<svg version="1.1" xmlns="http://www.w3.org/2000/svg" xmlns:xlink="http://www.w3.org/1999/xlink" x="0px" y="0px"
	 width="566.93px" height="566.93px" viewBox="0 0 566.93 566.93" enable-background="new 0 0 566.93 566.93" xml:space="preserve">
<g id="fond" display="none">
	
		<rect x="-6964.42" y="-10799.898" display="inline" fill-rule="evenodd" clip-rule="evenodd" fill="#58595B" width="15942.492" height="15814.695"/>
</g>
<g id="en_cours">
</g>
<g id="fini">
	<g>
		<g>
			<path fill-rule="evenodd" clip-rule="evenodd" fill="#CCAC6C" d="M222.914,507.328c-2.073,0-4.029-0.799-5.508-2.25
				c-1.5-1.47-2.338-3.438-2.358-5.539s0.778-4.085,2.25-5.586l8.11-8.271l-30.423,9.715c-0.779,0.248-1.583,0.373-2.392,0.373
				c-3.437,0-6.449-2.2-7.495-5.474c-0.64-2.003-0.461-4.134,0.502-6.001c0.964-1.868,2.597-3.249,4.599-3.888l10.977-3.506
				c-2.969-1.085-5.131-3.922-5.196-7.241c-0.085-4.337,3.374-7.935,7.71-8.02l47.153-0.926l39.445-25.519l-19.69-25.576
				c-2.646-3.438-2.003-8.388,1.435-11.034c1.39-1.068,3.048-1.633,4.797-1.633c2.463,0,4.736,1.118,6.236,3.068l24.899,32.342
				c1.336,1.735,1.891,3.971,1.521,6.132c-0.372,2.162-1.64,4.083-3.48,5.273l-26.124,16.9h10.288c4.338,0,7.867,3.529,7.867,7.867
				s-3.529,7.867-7.867,7.867h-33.628l-28.009,28.565C227.04,506.49,225.045,507.328,222.914,507.328z"/>
			<path d="M276.83,400.954c1.159,0,2.305,0.519,3.066,1.508l24.899,32.343c0.66,0.856,0.93,1.95,0.748,3.016
				c-0.183,1.064-0.804,2.004-1.711,2.591l-37.498,24.259h23.835c2.135,0,3.867,1.731,3.867,3.867c0,2.135-1.732,3.867-3.867,3.867
				h-35.308l-29.186,29.765c-0.757,0.772-1.759,1.159-2.762,1.159c-0.977,0-1.954-0.367-2.707-1.105
				c-1.525-1.495-1.549-3.943-0.054-5.469l19.404-19.789l-45.79,14.622c-0.391,0.124-0.786,0.184-1.175,0.184
				c-1.638,0-3.16-1.048-3.685-2.691c-0.649-2.034,0.473-4.211,2.508-4.86l35.369-11.295l-22.863,0.449
				c-0.026,0.002-0.052,0.002-0.078,0.002c-2.101,0-3.824-1.682-3.865-3.792c-0.042-2.135,1.655-3.9,3.79-3.942l48.292-0.948
				l44.046-28.495l-22.339-29.017c-1.303-1.692-0.987-4.121,0.705-5.424C275.176,401.216,276.006,400.954,276.83,400.954
				 M276.83,392.954c-2.601,0-5.169,0.874-7.233,2.46c-5.189,3.994-6.16,11.461-2.168,16.646l17.042,22.137l-34.844,22.541
				l-46.015,0.904c-3.169,0.063-6.125,1.354-8.321,3.641c-2.197,2.285-3.372,5.288-3.31,8.457c0.038,1.962,0.563,3.813,1.456,5.436
				l-4.455,1.422c-3.019,0.964-5.483,3.047-6.937,5.864c-1.453,2.817-1.723,6.031-0.759,9.05c1.579,4.94,6.122,8.259,11.306,8.259
				c1.222,0,2.434-0.188,3.602-0.561l16.152-5.157c-0.867,1.688-1.317,3.573-1.297,5.525c0.031,3.17,1.295,6.139,3.559,8.357
				c2.229,2.187,5.18,3.393,8.307,3.393c3.215,0,6.225-1.264,8.474-3.559l26.833-27.365h31.948c6.543,0,11.867-5.324,11.867-11.867
				c0-5.594-3.891-10.297-9.108-11.543l15.25-9.866c2.776-1.796,4.689-4.694,5.25-7.951c0.56-3.264-0.277-6.635-2.294-9.254
				l-24.898-32.341C283.972,394.642,280.543,392.954,276.83,392.954L276.83,392.954z"/>
		</g>
		
			<path fill-rule="evenodd" clip-rule="evenodd" fill="#4F5666" stroke="#000000" stroke-width="8" stroke-linecap="round" stroke-linejoin="round" stroke-miterlimit="10" d="
			M238.476,367.791c-3.85,8.11,31.729,50.205,47.198,50.205c15.468,0,30.937-17.645,26.586-28.762
			C307.91,378.116,238.476,367.791,238.476,367.791z"/>
		<g>
			<path fill-rule="evenodd" clip-rule="evenodd" fill="#CCAC6C" d="M290.168,545.575c-2.071,0-4.027-0.799-5.507-2.248
				c-1.501-1.473-2.339-3.439-2.359-5.541c-0.021-2.103,0.778-4.086,2.25-5.587l15.289-15.592l-44.779,14.3
				c-0.777,0.248-1.583,0.374-2.394,0.374c-3.437,0-6.448-2.2-7.494-5.475c-1.319-4.132,0.968-8.567,5.1-9.889l23.579-7.529
				c0,0-7.242,0.142-7.268,0.142c-4.252,0-7.78-3.459-7.864-7.711c-0.085-4.338,3.374-7.937,7.71-8.021l57.239-1.127l32.51-43.482
				l-24.795-32.001c-2.656-3.431-2.027-8.382,1.4-11.039c1.374-1.063,3.083-1.647,4.816-1.647c2.453,0,4.72,1.11,6.222,3.048
				l28.463,36.736c2.159,2.786,2.193,6.705,0.082,9.529l-28.994,38.78h29.969c4.338,0,7.867,3.528,7.867,7.866
				s-3.529,7.867-7.867,7.867h-42.369l-35.188,35.889C294.293,544.737,292.299,545.575,290.168,545.575z"/>
			<path d="M337.602,407.501c1.155,0,2.298,0.515,3.06,1.498l28.462,36.736c1.065,1.374,1.082,3.291,0.04,4.685l-33.775,45.175
				h37.954c2.136,0,3.867,1.731,3.867,3.866c0,2.137-1.731,3.867-3.867,3.867h-44.049l-36.364,37.088
				c-0.757,0.771-1.759,1.159-2.761,1.159c-0.977,0-1.955-0.368-2.707-1.105c-1.525-1.495-1.549-3.944-0.054-5.47l26.583-27.11
				l-60.146,19.207c-0.391,0.125-0.788,0.185-1.177,0.185c-1.638,0-3.159-1.049-3.683-2.691c-0.65-2.035,0.473-4.211,2.507-4.861
				l49.724-15.879l-34.553,0.68c-0.026,0.001-0.052,0.001-0.078,0.001c-2.101,0-3.823-1.681-3.865-3.79
				c-0.042-2.136,1.655-3.901,3.79-3.943l59.193-1.165l35.504-47.486l-26.66-34.408c-1.308-1.689-1-4.118,0.688-5.427
				C335.941,407.765,336.775,407.5,337.602,407.501 M337.603,399.501L337.603,399.501c-2.615-0.001-5.194,0.882-7.264,2.483
				c-5.173,4.01-6.122,11.479-2.117,16.65l22.932,29.598l-29.517,39.478l-55.285,1.089c-6.542,0.128-11.76,5.556-11.631,12.099
				c0.063,3.222,1.438,6.143,3.603,8.251l-9.267,2.959c-6.234,1.993-9.685,8.684-7.694,14.916c1.577,4.938,6.119,8.258,11.304,8.258
				c1.225,0,2.439-0.189,3.61-0.563l29.413-9.393l-3.995,4.073c-4.582,4.674-4.507,12.202,0.165,16.783
				c2.234,2.189,5.184,3.394,8.308,3.394c3.213,0,6.222-1.263,8.472-3.557l34.013-34.69h40.689c6.543,0,11.867-5.323,11.867-11.867
				c0-6.543-5.324-11.866-11.867-11.866h-21.984l24.212-32.385c3.185-4.261,3.134-10.173-0.124-14.376L346.986,404.1
				C344.721,401.177,341.301,399.501,337.603,399.501L337.603,399.501z"/>
		</g>
		<path fill-rule="evenodd" clip-rule="evenodd" fill="#CCAC6C" d="M364.032,491.83c0.165,0.164,0.328,0.33,0.492,0.495
			C364.609,491.911,364.445,491.747,364.032,491.83z"/>
		
			<path fill="#4F5666" stroke="#000000" stroke-width="8" stroke-linecap="round" stroke-linejoin="round" stroke-miterlimit="10" d="
			M451.923,272.535c-1.738-2.643-2.375-5.505-1.909-8.588c-8.44-5.378-41.151,23.516-66.404,6.703
			c-24.03-16-49.905-28.874-79.284-29.082c-36.528-0.256-128.816,67.165-105.146-12.264c10.176-34.164,86.926-160.99,3.52-166.162
			c-29.708-2.008-25.876,30.892-11.528,38.957c16.642,9.355,16.348,24.468-10.151,25.227c18.898,20.211-11.399,61.184-19.22,81.821
			c-25.141,66.362-20.098,135.614,54.975,161.593c24.495,8.475,51.512,10.501,75.287,21.258
			c23.046,10.428,31.198,41.001,58.947,35.869c10.569-1.948,26.263-36.517,38.694-45.814c7.068-5.287,57.761-52.607,51.504-60.826
			c-2.626-0.955-5.249-0.99-7.867-0.107C432.575,317.607,465.679,274.219,451.923,272.535
			C449.001,272.176,454.014,272.791,451.923,272.535z"/>
		<circle fill-rule="evenodd" clip-rule="evenodd" cx="207.529" cy="88.159" r="4.935"/>
		<path fill="none" stroke="#000000" stroke-width="8" stroke-linecap="round" stroke-linejoin="round" stroke-miterlimit="10" d="
			M229.842,283.576c-10.773,10.773-16.44,44.745,54.621,64.566c71.062,19.822,122.021-11.97,122.021-11.97"/>
		<g>
			<path fill-rule="evenodd" clip-rule="evenodd" fill="#CCAC6C" d="M120.551,128.491c-7.11,0-12.895-5.784-12.895-12.895
				s5.785-12.896,12.895-12.896c4.036,0,7.75,1.922,10.144,4.964l56.392-41.024c0.697-0.507,1.523-0.766,2.354-0.766
				c0.62,0,1.242,0.144,1.814,0.436c1.341,0.683,2.185,2.06,2.185,3.564v29.366c6.278,1.753,10.897,7.523,10.897,14.354
				c0,8.214-6.683,14.896-14.897,14.896H120.551z"/>
			<path d="M189.44,69.875v32.821c6.018,0,10.897,4.88,10.897,10.898c0,6.018-4.879,10.896-10.897,10.896h-68.889
				c-4.912,0-8.895-3.983-8.895-8.895c0-4.913,3.982-8.896,8.895-8.896c4.252,0,7.802,2.986,8.681,6.976l0.001-0.002L189.44,69.875
				 M189.441,61.875c-1.662,0-3.313,0.517-4.708,1.531l-53.643,39.024c-2.925-2.343-6.617-3.729-10.54-3.729
				c-9.316,0-16.895,7.579-16.895,16.896c0,9.315,7.579,16.895,16.895,16.895h68.889c10.42,0,18.897-8.477,18.897-18.896
				c0-7.563-4.464-14.103-10.897-17.12v-26.6c0-3.01-1.688-5.764-4.37-7.129C191.924,62.162,190.68,61.875,189.441,61.875
				L189.441,61.875z"/>
		</g>
	</g>
</g>
</svg>
