<?xml version="1.0" encoding="utf-8"?>
<!-- Generator: Adobe Illustrator 16.0.0, SVG Export Plug-In . SVG Version: 6.00 Build 0)  -->
<!DOCTYPE svg PUBLIC "-//W3C//DTD SVG 1.1//EN" "http://www.w3.org/Graphics/SVG/1.1/DTD/svg11.dtd">
<svg version="1.1" xmlns="http://www.w3.org/2000/svg" xmlns:xlink="http://www.w3.org/1999/xlink" x="0px" y="0px"
	 width="340.157px" height="340.157px" viewBox="0 0 340.157 566.93" enable-background="new 0 0 340.157 566.93"
	 xml:space="preserve">
<g id="fond" display="none">
	
		<rect x="-6170.259" y="-8547.93" display="inline" fill-rule="evenodd" clip-rule="evenodd" fill="#58595B" width="16654.492" height="16572.797"/>
</g>
<g id="en_cours">
</g>
<g id="fini">
	<g>
		<path d="M111.229,310.986c8.305,0,15.314,1.078,21.026,3.227c5.708,2.152,10.308,5.194,13.795,9.122
			c3.483,3.933,5.969,8.604,7.454,14.018c1.481,5.417,2.225,11.386,2.225,17.911v72.312c-1.78,0.3-4.266,0.706-7.454,1.225
			c-3.191,0.521-6.786,1.001-10.792,1.446c-4.005,0.444-8.343,0.852-13.016,1.224c-4.672,0.368-9.31,0.556-13.906,0.556
			c-6.529,0-12.537-0.667-18.022-2.002c-5.49-1.335-10.235-3.449-14.24-6.342c-4.005-2.893-7.12-6.709-9.345-11.458
			c-2.225-4.746-3.337-10.458-3.337-17.133c0-6.376,1.297-11.865,3.894-16.465c2.594-4.596,6.119-8.306,10.569-11.125
			c4.45-2.815,9.641-4.895,15.575-6.229c5.931-1.335,12.161-2.003,18.69-2.003c2.076,0,4.228,0.111,6.453,0.334
			c2.225,0.223,4.338,0.521,6.341,0.89c2.003,0.372,3.745,0.706,5.229,1.002c1.481,0.299,2.521,0.521,3.115,0.667v-5.785
			c0-3.41-0.372-6.786-1.112-10.123c-0.744-3.338-2.079-6.304-4.005-8.9c-1.93-2.594-4.562-4.672-7.899-6.229
			s-7.676-2.337-13.016-2.337c-6.824,0-12.793,0.483-17.911,1.446c-5.117,0.967-8.938,1.968-11.458,3.004l-2.447-17.132
			c2.67-1.186,7.12-2.337,13.35-3.449S103.96,310.986,111.229,310.986z M113.009,414.671c4.895,0,9.234-0.111,13.016-0.334
			c3.783-0.223,6.932-0.629,9.456-1.224v-34.487c-1.484-0.74-3.894-1.37-7.231-1.892c-3.337-0.518-7.381-0.778-12.126-0.778
			c-3.115,0-6.418,0.223-9.901,0.668c-3.487,0.444-6.675,1.373-9.567,2.781c-2.893,1.411-5.305,3.337-7.231,5.784
			c-1.929,2.448-2.892,5.674-2.892,9.679c0,7.419,2.371,12.571,7.12,15.464C98.397,413.225,104.85,414.671,113.009,414.671z"/>
		<path d="M181.091,317.217c4.746-1.186,11.048-2.447,18.913-3.782c7.86-1.335,16.91-2.003,27.145-2.003
			c9.195,0,16.833,1.3,22.917,3.894c6.08,2.597,10.937,6.23,14.573,10.902c3.633,4.673,6.192,10.273,7.676,16.799
			c1.481,6.529,2.225,13.722,2.225,21.582v64.97h-20.692v-60.52c0-7.12-0.483-13.2-1.446-18.245
			c-0.966-5.041-2.559-9.122-4.784-12.237c-2.225-3.114-5.194-5.374-8.9-6.786c-3.709-1.408-8.309-2.113-13.795-2.113
			c-2.225,0-4.526,0.076-6.897,0.223c-2.375,0.149-4.638,0.333-6.786,0.556c-2.152,0.223-4.082,0.483-5.785,0.779
			c-1.707,0.299-2.931,0.521-3.671,0.667v97.677h-20.692V317.217z"/>
	</g>
</g>
</svg>
