<?xml version="1.0" encoding="utf-8"?>
<!-- Generator: Adobe Illustrator 16.0.0, SVG Export Plug-In . SVG Version: 6.00 Build 0)  -->
<!DOCTYPE svg PUBLIC "-//W3C//DTD SVG 1.1//EN" "http://www.w3.org/Graphics/SVG/1.1/DTD/svg11.dtd">
<svg version="1.1" xmlns="http://www.w3.org/2000/svg" xmlns:xlink="http://www.w3.org/1999/xlink" x="0px" y="0px"
	 width="566.93px" height="566.93px" viewBox="0 0 566.93 566.93" enable-background="new 0 0 566.93 566.93" xml:space="preserve">
<g id="fond" display="none">
	
		<rect x="-8643.873" y="-9178" display="inline" fill-rule="evenodd" clip-rule="evenodd" fill="#58595B" width="16654.492" height="16572.797"/>
</g>
<g id="en_cours">
</g>
<g id="fini">
	<g>
		<path fill="#E5E2D3" d="M34.053,151.21v63.886c36.87,36.207,134.615,62.088,249.412,62.088s212.543-25.881,249.412-62.088V151.21"
			/>
		
			<path fill="#CCAC6C" stroke="#000000" stroke-width="8" stroke-linecap="round" stroke-linejoin="round" stroke-miterlimit="10" d="
			M136.906,260.642c13.854,0,25.085,11.23,25.085,25.084v48.537c0,31.49,19.975,58.313,47.942,68.496v65.025
			c0,6.323,5.125,11.448,11.448,11.448c6.322,0,11.447-5.125,11.447-11.448v-60.696c0.679,0.019,1.354,0.051,2.037,0.051h13.04
			v60.646c0,6.323,5.125,11.448,11.447,11.448s11.447-5.125,11.447-11.448v-60.646h25.328v60.646
			c0,6.323,5.125,11.448,11.447,11.448s11.447-5.125,11.447-11.448v-60.646h13.039c0.684,0,1.358-0.032,2.038-0.052v60.697
			c0,6.323,5.125,11.448,11.447,11.448c6.323,0,11.448-5.125,11.448-11.448v-65.025c27.969-10.184,47.943-37.006,47.943-68.496
			v-48.537c0-13.854,11.23-25.084,25.084-25.084H136.906z"/>
		
			<path fill="#E5E2D3" stroke="#000000" stroke-width="8" stroke-linecap="round" stroke-linejoin="round" stroke-miterlimit="10" d="
			M34.053,215.096c36.87,36.207,134.615,62.088,249.412,62.088s212.543-25.881,249.412-62.088"/>
		
			<path fill="#564432" stroke="#000000" stroke-width="8" stroke-linecap="round" stroke-linejoin="round" stroke-miterlimit="10" d="
			M251.18,151.21c-16.18,52.291,14.837,92.32,88.994,83.865c70.412-8.028,71.85-58.683,108.326-50.183
			c18.828,4.388,14.829,30.038,50.213,29.304c38.62-0.802,19.755-62.986,19.755-62.986"/>
	</g>
</g>
</svg>
