<?xml version="1.0" encoding="utf-8"?>
<!-- Generator: Adobe Illustrator 16.0.0, SVG Export Plug-In . SVG Version: 6.00 Build 0)  -->
<!DOCTYPE svg PUBLIC "-//W3C//DTD SVG 1.1//EN" "http://www.w3.org/Graphics/SVG/1.1/DTD/svg11.dtd">
<svg version="1.1" xmlns="http://www.w3.org/2000/svg" xmlns:xlink="http://www.w3.org/1999/xlink" x="0px" y="0px"
	 width="566.93px" height="566.93px" viewBox="0 0 566.93 566.93" enable-background="new 0 0 566.93 566.93" xml:space="preserve">
<g id="fond" display="none">
	
		<rect x="-5393.873" y="-11126.046" display="inline" fill-rule="evenodd" clip-rule="evenodd" fill="#58595B" width="16654.492" height="16572.797"/>
</g>
<g id="en_cours">
</g>
<g id="fini">
	<g>
		<path d="M275.901,316.953h43.832v17.355h-43.832v53.399c0,5.785,0.445,10.568,1.335,14.351c0.89,3.783,2.225,6.752,4.005,8.9
			c1.78,2.151,4.005,3.671,6.675,4.561c2.67,0.891,5.785,1.336,9.345,1.336c6.23,0,11.236-0.703,15.019-2.114
			c3.782-1.408,6.414-2.409,7.898-3.004l4.005,17.133c-2.079,1.039-5.712,2.336-10.903,3.894c-5.194,1.558-11.125,2.336-17.8,2.336
			c-7.864,0-14.351-1.001-19.468-3.004c-5.118-2.002-9.234-5.006-12.349-9.011c-3.115-4.005-5.305-8.935-6.564-14.796
			c-1.262-5.858-1.891-12.645-1.891-20.358V284.691l20.692-3.561V316.953z"/>
	</g>
</g>
</svg>
