<?xml version="1.0" encoding="utf-8"?>
<!-- Generator: Adobe Illustrator 16.0.0, SVG Export Plug-In . SVG Version: 6.00 Build 0)  -->
<!DOCTYPE svg PUBLIC "-//W3C//DTD SVG 1.1//EN" "http://www.w3.org/Graphics/SVG/1.1/DTD/svg11.dtd">
<svg version="1.1" xmlns="http://www.w3.org/2000/svg" xmlns:xlink="http://www.w3.org/1999/xlink" x="0px" y="0px"
	 width="566.93px" height="566.93px" viewBox="0 0 566.93 566.93" enable-background="new 0 0 566.93 566.93" xml:space="preserve">
<g id="fond" display="none">
	
		<rect x="-13442.186" y="-7591.898" display="inline" fill-rule="evenodd" clip-rule="evenodd" fill="#58595B" width="15942.492" height="15814.695"/>
</g>
<g id="en_cours">
</g>
<g id="fini">
	<g>
		
			<path fill="#CCAC6C" stroke="#000000" stroke-width="8" stroke-linecap="round" stroke-linejoin="round" stroke-miterlimit="10" d="
			M296.199,525.207c-3.777-11.959,11.598-74.328,26.699-88.801c15.105-14.475,70.799,9.154,99.152-11.568
			c16.363-11.959,0.629-38.328,1.887-42.732c1.26-4.406,11.959-4.775,11.959-8.805c0-10.244-12.863-13.502-12.863-13.502
			s16.686-4.07,16.686-8.48c0-2.518-7.314-16.863-7.314-21.268c0-4.408,30.553-6.143,30.207-18.883
			c-0.629-23.284-46.57-61.674-39.646-83.701c9.641-30.668-24.729-102.716-73.002-115.798
			c-97.551-26.432-268.1,32.096-161.113,229.708c11.855,21.895-12.225,103.902-44.951,120.266"/>
		
			<path fill="#CCAC6C" stroke="#000000" stroke-width="8" stroke-linecap="round" stroke-linejoin="round" stroke-miterlimit="10" d="
			M285.24,276.179c-16.836-30.789-59.006,0.46-45.271,32.136c7.066,16.3,24.541,35.042,27.107,43.618
			c7.084,23.701,37.654,14.617,37.654-0.445"/>
		
			<path fill="#CCAC6C" stroke="#000000" stroke-width="8" stroke-linecap="round" stroke-linejoin="round" stroke-miterlimit="10" d="
			M254.451,291.242c11.738-27.7,40.977,22.373,25.471,19.68c-6.699-1.16-5.352,10.039,2.658,11.773
			c16.393,3.543,6.137,16.789,1.994,14.398"/>
		<polygon fill="#AB2E23" stroke="#000000" stroke-width="8" stroke-linejoin="round" stroke-miterlimit="10" points="
			224.943,449.229 156.641,488.672 156.641,470.049 104.314,470.049 104.314,428.414 156.641,428.414 156.641,409.787 		"/>
	</g>
</g>
</svg>
