<?xml version="1.0" encoding="utf-8"?>
<!-- Generator: Adobe Illustrator 16.0.0, SVG Export Plug-In . SVG Version: 6.00 Build 0)  -->
<!DOCTYPE svg PUBLIC "-//W3C//DTD SVG 1.1//EN" "http://www.w3.org/Graphics/SVG/1.1/DTD/svg11.dtd">
<svg version="1.1" xmlns="http://www.w3.org/2000/svg" xmlns:xlink="http://www.w3.org/1999/xlink" x="0px" y="0px" width="566.9px"
	 height="566.9px" viewBox="0 0 566.9 566.9" enable-background="new 0 0 566.9 566.9" xml:space="preserve">
<g id="fond" display="none">
	
		<rect x="-10187.9" y="-7591.9" display="inline" fill-rule="evenodd" clip-rule="evenodd" fill="#F2F2F2" width="15942.5" height="15814.7"/>
</g>
<g id="en_cours">
</g>
<g id="fini">
	<g>
		<path fill-rule="evenodd" clip-rule="evenodd" fill="#B29C88" d="M5.7,192.9c0.7-2.5,1.8-5,2.1-7.6c0.9-7.2,1.3-14.5,2.3-21.7
			c1.4-9.3,3-18.6,8.1-26.9c1.7-2.8,2.7-6,4.3-8.8c0.8-1.5,2.2-2.6,3.4-3.9c4.3,3,2.3,6.6,1.9,9.7c-0.3,2.5-1.8,4.8-2.4,7.2
			c-1.3,5.4-2.5,10.8-3.3,16.3c-1.3,7.9-3,15.8-3.1,23.7c-0.1,7.3,1.4,14.7,2.6,22c1.5,8.4,2.8,16.8,5.4,24.9
			c1.6,5.1,5.1,9.6,8.2,14.1c5.7,8.6,13.5,15.3,22.2,20.6c5.5,3.3,11.6,5.5,17.6,8c5.9,2.5,12,4.8,18,7.2c0.5,0.2,1.2,0.1,1.8,0.2
			c1.5,3.9-1.6,4.8-4.7,6.5c4.3,6.7,4.8,13.8,1.5,21.4c-3.6,0-7.1,0-10.6,0c-8.8-1.7-17.5-3.8-24.9-9.3c-6.2-4.5-12.8-8.4-18.4-13.5
			c-5.2-4.7-9.9-10.1-13.7-15.9c-4.5-6.9-8.4-14.4-11.5-22.1c-2.4-6-3.1-12.8-4.6-19.2c-0.6-2.7-1.4-5.3-2.2-7.9c0-1,0-2,0-2.9
			c0.2-3.7,0.6-7.4,0.7-11.1c0-2.6-0.4-5.3-0.7-7.9C5.7,194.8,5.7,193.9,5.7,192.9z"/>
		<path fill-rule="evenodd" clip-rule="evenodd" fill="#B29C88" d="M5.7,195.8c0.2,2.6,0.7,5.3,0.7,7.9c0,3.7-0.4,7.4-0.7,11.1
			C5.7,208.5,5.7,202.2,5.7,195.8z"/>
		<path fill-rule="evenodd" clip-rule="evenodd" fill="#B29C88" d="M316.2,123.4c4,4.2,5.9,9.3,6.9,14.7c1.8,9.2,4,18.5,4.9,27.8
			c0.7,7.4-0.2,15-0.5,22.5c-0.1,4-0.4,8-0.8,11.9c-0.8,7.4-1.7,14.8-2.7,22.1c-0.9,6.1-1.6,12.3-3.3,18.3c-1,3.6-3.9,6.7-5.5,10.2
			c-4,8.5-11.4,13.8-18.7,19.1c-6.6,4.8-13.5,9.4-20.9,12.9c-10.7,5.1-21.9,9-33.7,10.9c-8.6,1.4-17.2,2.9-25.7,4.4
			c-0.2,0-0.5,0-0.7,0.1c-6.7,1.5-6.8,1.5-8.8-6c1.8-0.7,3.7-1.4,5.5-2.3c1.9-0.9,3.7-2.1,6.5-3.7c-2.8-3.2-5.4-6.2-7.9-9.2
			c-0.7-0.9-1.2-2-1.8-3.1c1-0.5,1.9-1.3,3-1.4c12.9-1.8,25.9-3.1,38.7-5.4c4.9-0.9,9.3-4.1,14-6.1c3-1.3,6.4-1.9,9.3-3.4
			c3.2-1.6,6.4-3.4,9-5.7c10-8.7,17.6-19.1,22-31.9c2.2-6.5,2.9-13.2,3.5-20c0.7-8.6,2.3-17,3.4-25.5c0.6-4.8,1.2-9.5,1.5-14.3
			c0.4-7.7,0.7-15.5,0.7-23.2c0-2.7-0.6-5.5-1.5-8C311.4,125.8,312.9,124.4,316.2,123.4z"/>
		<path fill-rule="evenodd" clip-rule="evenodd" fill="#FFFFFF" d="M387.4,223.8c2.1,4.1,4.1,8.3,6.4,12.9
			c4.9-6.2,4.1-13.6,6.7-20.4c4.2,14.1,2.3,27.7-0.5,41c-1.8-4.2-3.4-8.6-5.5-12.8c-0.4-0.9-2.9-0.6-4.7-1
			c-4.1,21.9-8.1,43-12.1,64.2c-0.5,0-1,0.1-1.6,0.1c-5.5-19.4-10.1-39-20.7-56.9c-2.2,4.9-4.2,9.4-6.3,14
			c0.2-8.6-4.5-15.1-6.7-22.3c-0.5-0.1-0.9-0.2-1.4-0.3c-0.9,1.3-1.9,2.5-2.5,3.8c-1.9,4.4-3.7,8.9-5.5,13.3
			c-0.6-0.2-1.1-0.3-1.7-0.5c1.2-8,2.4-16.1,3.7-24.4c1,0.4,2.1,0.8,3.6,1.3c1.3-2.1,2.6-4.4,4.1-6.8c4.6,3.3,5.1,9.5,8.2,15.3
			c1.9-4,3.4-7.1,5.1-10.6c6.2,13.3,12.3,26.5,18.4,39.7c0.3,0,0.6,0,1,0c3.7-16.5,7.3-33.1,11-49.6
			C386.7,223.8,387.1,223.8,387.4,223.8z"/>
		<path fill-rule="evenodd" clip-rule="evenodd" fill="#FFFFFF" d="M181.4,312.4c-3.4,1.6-6.8,3.3-10.3,4.8c-0.6,0.3-1.7,0-2.4-0.4
			c-6.3-4.3-11.8-3.8-13.4,6.3c-0.1,0.7-0.2,1.3-0.3,2.2c-3-4.3-5.8-8.3-8.6-12.4c-4.9,1.6-4.2,6.8-6.3,10.6
			c-1.9-2.3-3.7-4.3-5.5-6.5c-6.5,7.4-8.8,15.7-9,24.9c-5.3-10.4-5.3-21.6-6.5-33.3c-4.8,5.3-6.4,11.3-8.5,18
			c-1-8.3-2.2-15.6,1-23.9c0.2,2.3,0.3,3.7,0.4,5c0.3,0.1,0.6,0.3,0.8,0.4c2.8-3.6,5.5-7.2,8-10.4c2,5.5,4.1,11.6,6.5,18.4
			c2-2.7,3.3-4.5,4.7-6.3c1.8,1.9,3.5,3.7,5.5,5.8c2.8-3.8,5.4-7.3,8.2-11c2.3,3,1.5,8.5,6.2,8c2.2-0.3,4.1-3.5,6.4-5.6
			C164.7,311,171.8,315.9,181.4,312.4z"/>
		<path fill-rule="evenodd" clip-rule="evenodd" fill="#FFFFFF" d="M467.5,243.2c-2.5-3.2-4.9-6.5-7.7-9.4c-1.1-1.2-3-1.7-4.8-2.7
			c-0.4,5.8-0.8,10.7-1.2,15.6c-7.2-10-15.7-18.4-27.4-22.9c-0.4,0.3-0.9,0.5-1.3,0.8c0,10.8,0,21.6,0,32.4c-0.3,0-0.6,0.1-0.9,0.1
			c-3.4-8.2-6.7-16.4-10.2-24.9c2.1,1.3,3.9,2.4,6.2,3.9c1-7,2-13.1,2.9-19.5c7.7,4.7,15.7,9.6,24.2,14.8c2.1-2.5,0.1-6,1.1-9.3
			c4.7,2,9.3,4.1,14.6,6.4c-0.4-5.6-0.7-10.4-1-16c3.7,4.4,7,8.2,10.7,12.5c-2.3-0.8-4.1-1.5-7.1-2.6c0.9,7.2,1.6,13.7,2.4,20.2
			C467.8,242.8,467.7,243,467.5,243.2z"/>
		<path fill-rule="evenodd" clip-rule="evenodd" fill="#AA7455" d="M177.2,412.1c-1.5,5.1-4.9,8.8-8.5,12.3c-0.3,0.3-1.9,0-2.4-0.5
			c-2.7-2.2-3.8-7.6-2.3-10.6c1-2,5.9-3.2,9.6-2.3C174.5,411.2,175.5,411.6,177.2,412.1z"/>
		<path fill-rule="evenodd" clip-rule="evenodd" fill="#AA7455" d="M133.7,418.5c0.9,1.8,1.7,3.7,2.6,5.5c-0.4,0.3-0.9,0.5-1.3,0.8
			c-1.1-1.7-2.1-3.5-3.2-5.2C132.4,419.2,133,418.9,133.7,418.5z"/>
		<path fill-rule="evenodd" clip-rule="evenodd" fill="#1E1109" d="M461.5,213.1c-0.3-0.5-0.5-1.1-0.8-1.6c0.2-0.1,0.5-0.2,0.7-0.3
			c0.2,0.6,0.4,1.1,0.6,1.7C461.9,212.9,461.7,213,461.5,213.1z"/>
		<path fill-rule="evenodd" clip-rule="evenodd" fill="#1E1109" d="M468,242.6c0.3,0.6,0.6,1.2,0.8,1.9c-0.2,0.1-0.3,0.2-0.5,0.2
			c-0.3-0.5-0.6-1-0.8-1.5C467.7,243,467.8,242.8,468,242.6z"/>
		<path fill-rule="evenodd" clip-rule="evenodd" fill="#1E1109" d="M181.3,388.8c0.2-0.2,0.4-0.4,0.6-0.6
			C181.7,388.4,181.5,388.6,181.3,388.8z"/>
		<path fill-rule="evenodd" clip-rule="evenodd" fill="#1E1109" d="M171.8,395.6c0.2-0.1,0.5-0.1,0.7-0.2
			C172.2,395.5,172,395.5,171.8,395.6z"/>
		<path fill-rule="evenodd" clip-rule="evenodd" fill="#1E1109" d="M235.4,416.1c-0.2,0.2-0.4,0.4-0.6,0.6
			C235,416.5,235.2,416.3,235.4,416.1z"/>
		<path fill-rule="evenodd" clip-rule="evenodd" fill="#1E1109" d="M187.8,424.9c-0.2,0.2-0.4,0.4-0.6,0.6
			C187.4,425.3,187.6,425.1,187.8,424.9z"/>
		<path fill-rule="evenodd" clip-rule="evenodd" fill="#AA7455" d="M169.5,432.9c-0.2,0.2-0.4,0.4-0.6,0.6
			C169.1,433.3,169.3,433.1,169.5,432.9z"/>
		<path fill-rule="evenodd" clip-rule="evenodd" fill="#1E1109" d="M215.6,401.5c-0.2,0.2-0.4,0.4-0.6,0.6
			C215.2,401.9,215.4,401.7,215.6,401.5z"/>
		<path fill-rule="evenodd" clip-rule="evenodd" fill="#1E1109" d="M452.5,456.2c-0.2-0.2-0.4-0.4-0.6-0.6
			C452.1,455.8,452.3,456,452.5,456.2z"/>
		<path fill-rule="evenodd" clip-rule="evenodd" fill="#1E1109" d="M172.4,393.2c-0.2,0.1-0.5,0.1-0.7,0.2
			C172,393.3,172.2,393.3,172.4,393.2z"/>
		<path fill-rule="evenodd" clip-rule="evenodd" fill="#1E1109" d="M443.8,474.6c-0.2,0.2-0.4,0.4-0.6,0.6
			C443.4,475,443.6,474.8,443.8,474.6z"/>
		<path fill-rule="evenodd" clip-rule="evenodd" fill="#534741" d="M462,212.7C462,212.8,462,212.8,462,212.7
			C462.1,212.8,462.1,212.8,462,212.7C462.1,212.8,462.1,212.8,462,212.7z"/>
		<path fill-rule="evenodd" clip-rule="evenodd" fill="#1E1109" d="M517.7,416.6c0-2.2,0.4-4.3,1.4-6.4c0.9,3,1.9,6,2.8,9
			c0.6,0,1.2,0,1.7,0c0.6-2,1.3-4,1.7-6c1.2-6.3,3.2-12.6,3.1-18.8c-0.1-10-1.7-19.9-2.7-29.9c-0.5-5.5-0.8-11-1.5-16.4
			c-0.9-6.7-2.3-13.3-3.4-20c-0.7-4.7-1-9.5-1.7-14.2c-1-6-2.3-12-3.5-18.1c-2.1-11.2-6.7-21.9-7.5-33.4c-0.4-5.9-0.9-11.9-2.3-17.7
			c-1.6-6.5-4.4-12.5-9.4-17.4c-2.9-2.8-4.7-6.7-7.3-9.9c-3.9-4.6-7.9-9.1-12.1-13.5c-4.4-4.5-9.3-8.6-13.7-13.1
			c-6.6-6.6-12.9-13.5-19.5-20.2c-5.1-5.1-10.5-9.8-15.6-15c-4-4-7.2-8.9-11.4-12.6c-8.2-7.1-15.7-14.8-26.6-18.6
			c-10.8-3.7-20.9-9.8-31.1-15.3c-7.9-4.3-15.2-10-23.2-13.9c-7.8-3.9-16.3-6.5-24.5-9.5c-1.6-0.6-3.3-0.7-5-1c-0.7,0-1.5,0-2.2,0
			c-3.2,0.5-6.4,1-9.6,1.5c-7,0.9-13.8,2.3-20.3,5.4c-4.2,2-8.9,2.8-12.9,5c-9.2,5.1-18.5,10-26.1,17.8
			c-5.8,5.9-12.7,10.6-19.1,15.8c-3.4,2.8-6.8,5.8-10.2,8.6c-5,4.1-10.8,3.2-16.5,2.7c-2.1-0.2-4.2-0.6-6.5-1
			c1.6,5.2,4.5,7.5,13.9,11c-2.7,2.7-5.3,5.2-7.6,7.9c-3,3.4-5.8,6.9-8.6,10.4c-3.4,4.5-7,9-9.9,13.8c-1.8,2.9-2.5,6.4-3.9,10.2
			c4-1.4,7-2.5,10.4-3.7c-5.1,8.4-9.3,16.8-14.9,24.3c-4,5.4-9.8,9.5-14.8,14.2c-0.5,0.5-1.3,0.7-1.8,1.1c-7.2,7-15.7,7.7-24.9,5.3
			c-3.1-0.8-6.2-1.8-9.7-2.8c1.4,6.1,7.2,7.6,9.8,11c-7,9-13.9,17.8-21.3,27.2c-1.1,0-3.1,0-5.1,0c0.1,2.5,0.2,4.9,0.3,7.2
			c1.5,3.9-1.6,4.8-4.7,6.5c4.3,6.7,4.8,13.8,1.5,21.4c-3.6,0-7.1,0-10.6,0c2.6,0.7,5.1,1.7,7.7,2c2.5,0.2,2.6,1.5,2.6,3.4
			c0,6.9-0.1,13.9,0,20.8c0.2,11.2,0.5,22.5,3.7,33.3c2.6,9.2,7.5,17,15,23c0.7,0.5,1.6,0.8,2.2,1.2c0.3-4.5,0.7-8.8,1-13.3
			c0.4,0.1,0.7,0,0.9,0.2c5.2,5.2,10.5,10.3,15.5,15.7c1.2,1.3,1.2,3.6,2.4,5c1.3,1.6,3.2,2.6,5.4,4.4c1.2-5.6,2.3-10.4,3.5-15.9
			c4.8,4.7,5.9,10.8,8.2,17.6c5-6.1,9.6-11.8,14.5-17.9c1.8,4.1,0.2,8.2,1.1,12.3c2.3-1.3,4.7-2.7,7.1-4c0.2-0.1,0.5-0.2,0.7-0.2
			c7.2-7.3,14.8-14.3,19.7-24.3c0,2.1,0,3.6,0,6.1c2.6-1.1,4.5-2,6.5-2.9c1-1.6,1.9-3.1,2.9-4.7c0.4-0.7,1.5-2,1.9-2.7
			c0.3-0.6,1.1-2.1,1.4-2.7c3.4-7.5,6.7-15,5.4-23.6c3.1,0.8,2.7,7.9,8,4.3c0.4-1.3,0.8-2.7,1.2-4.2c0.5-5.7,1.1-11.3,1.6-17
			c1.9,5.7,1.5,11.4-0.2,17c-1.2,4.6-2.5,9.2-3.9,14.3c-1.8-2.2-3-3.7-4.1-5c-2.3,5.1-4.4,9.9-6.5,14.7c-0.4,0.6-1.6,2.2-2,2.8
			c-0.3,0.6-1.3,2-1.7,2.6c-0.9,1.8-1.8,3.6-2.7,5.5c-2,3-4.6,5.1-8.4,5.3c-2.2,0.1-3.8,0.6-4.7,3.2c-0.9,2.4-3.3,4.3-5,6.3
			c-0.2,0.2-0.4,0.4-0.6,0.6c-2.9,2.2-5.9,4.4-8.8,6.6c-0.2,0.1-0.5,0.2-0.7,0.2c-2.7,2-5.4,4-8.2,6c-0.9-2.5-1.7-4.7-2.6-7.4
			c-4.7,4.1-9.2,8.1-14.1,12.5c-0.3-3.3,0-5.8-0.9-7.7c-0.9-1.8-0.3-5.1-3-5.1c-2.3,3.7-4.3,7-6.2,10.1c-2.5-2.1-4.8-4-7.4-6.2
			c-0.8,1.4-2.7,3.4-2.7,5.4c-0.1,7-2.1,13.9,0.1,21c1.6,5.2,5.6,7.4,9.7,9c5.4,2.1,11.3,3,17,4.3c5.8,1.3,10.8-0.8,15.5-4
			c0.2-0.2,0.4-0.4,0.6-0.6c1.7-0.4,3.5-0.5,5.1-1.2c4.3-1.9,8.4-4.1,12.6-6.2c0.2-0.2,0.4-0.4,0.6-0.6c4.6-4.5,5.9-10.4,7.3-16.3
			c1.6-7.1,2.9-14.2,4.5-21.3c0.2-0.9,0.9-1.6,1.4-2.4c2.7-3.8,5.3-7.6,8-11.3c0.5-0.9,0.9-1.7,1.4-2.6c0.3,0.1,0.7,0.3,1,0.4
			c-0.4,1.2-0.8,2.3-1.1,3.5c-1.3,2.3-3.1,4.5-3.8,7c-0.6,2,0,4.5,0.4,6.6c1.6,7.5-0.1,14.4-4,20.9c-0.4,0.6-0.6,1.3-1,2.1
			c7.3,0.6,9.1-6,13.2-9.5c0.2-0.2,0.4-0.4,0.6-0.6c1.4-2,2.9-4.1,4.9-6.9c2.6,10.3,1.2,18.8-6,26.4c7.7,0.8,14-1.4,20.2-4.2
			c0.2-0.2,0.4-0.4,0.6-0.6c2-2.2,4.1-4.4,6-6.4c12.7,19.6,17.1,39.9,4.5,61.6c0.3,0.3,0.7,0.6,1,0.9c5.4-2.1,10.8-4.3,16.7-6.7
			c-0.3,6.5-1,13.4-0.9,20.3c0,1.9,1.9,4.4,3.7,5.4c2.1,1.2,4.9,1,7.4,1.5c0.4-2.9,0.7-5,1-7c0.3,0,0.5-0.1,0.8-0.1
			c0.8,2.1,1.6,4.3,2.7,7c4.2-0.4,8.5-0.6,12.7-1.4c1.4-0.2,3-1.8,3.6-3.1c3.7-8.4,2.3-16.8-0.1-25.3c-0.7-2.3-0.5-4.9-0.5-7.4
			c-0.5,1.7-0.9,2.9-0.9,2.9c-3.1-0.5-6.9-3.4-9.1-6.2c-2.8-2.5-4.7-6.6-4.7-6.6c-3.2-5.6-6.5-11.2-10-17.2
			c-1.8,2.6-3.5,5.1-5.3,7.7c-3-2.5-3.4-6.2-2.6-10.2c0.7-3.4,2.2-6.7,2.5-10.1c0.2-2.4-0.9-5-1.4-7.5c2.4,0.9,4.2,5.8,3.4,8.7
			c-1.2,4.7-2.1,9.4-3.1,14.1c0.7,0.5,1.3,1,2,1.5c2.2-2.3,4.3-4.7,5.9-6.4c3,5.9,6.8,13.2,10.5,20.6c0.8,1.5,2.7,3.7,2.7,3.7v0
			c1.5,1.3,3,2.7,4.7,4.1c0.1,0.1,3.4,2.9,3.7,2.4c1.3-1.8,2.1-13,2.1-13s0.2,1.5,0.4,5.4c0.2,1.6,0.3,3.2,0.5,4.8
			c0.6,2.6,1.2,5.2,1.8,7.9c0.9,3.6,1.7,7.3,2.7,10.9c2,7-0.9,12.9-3.6,19c-0.6,1.4-0.8,4.1,0,4.8c1.1,0.9,3.4,0.8,5,0.5
			c1.7-0.3,3.3-1.2,5-1.9c0,1.5,0,3,0,5.3c5.6-0.7,11-1.1,16.3-2.1c1.3-0.2,2.9-2.1,3.4-3.5c2.6-8.3,6.5-16,6.2-25.3
			c-0.2-7.7-0.1-15.7,3.1-23.1c1.3-3.2,1.5-6.8,2.7-10.1c0.5-1.3,2.5-2.8,3.7-2.7c3.9,0.3,4.6-1.5,4.2-4.7c-0.1-0.6,0-1.2,0.1-2.2
			c2.4,0.6,4.8,1.1,7.1,1.6c0-5.5,0-11,0-16.8c1.3,0.4,3,0.9,4.6,1.2c0.7,0.1,1.8,0.1,2.2-0.4c0.4-0.4,0.3-1.5,0.2-2.2
			c-0.3-2-0.8-4-1.4-6.7c4.8,4.7,5.9,9.3,3.8,14.8c-1-4.1-3.8-3.9-6.6-3.7c-0.4,4.7-0.7,9.3-1.1,13.8c0,1.3,0,2.7,0,4.6
			c-2-0.9-3.7-1.6-6.1-2.7c-0.3,2.8-0.5,5.4-0.8,7.9c-3.2-3.7-6.4-3.2-8.3,1.4c-0.7,1.7-1.4,3.5-2.1,5.4c3.7,10.3,24.6,25.2,34.2,24
			c-3.2-7-8-13.5-5.4-22.6c4.1,4.5,8.1,8.8,12.7,13.9c3.8-4.3,7.5-8.6,11.7-13.5c0.6,8.9,1.2,17,1.8,25.7c1.8-1.2,3.8-2,5.2-3.5
			c5.2-5.9,10.2-12,15.3-18.1c0.6-0.7,0.5-1.8,1.1-2.6c0.8-1.1,2.1-3.1,2.8-2.9c1.4,0.3,3,1.6,3.6,2.9c2.1,4.8,0.2,9.5-0.9,14.3
			c-0.3,1.4-0.8,2.7-1.3,4c-2.1,5.8-2.1,5.8,3.3,9.7c1.3-2.1,2.7-4.1,4.5-7c0,3,0,4.9,0,7.8c4.7,0.1,9.2,0.4,13.7,0.3
			c1.2,0,2.3-1.4,3.5-2.1c0.2-0.2,0.4-0.4,0.6-0.6c1.8-3.7,3.9-7.3,5.3-11.2c0.9-2.5,0.8-5.3,1.2-8c0.3,0,0.6,0,0.9,0
			c0.2,0,0.5,0.1,0.7,0.2c0.2,0.2,0.4,0.4,0.6,0.6c1.3,3,2.7,6.1,4.1,9.3c2.1,1,2.8-0.5,3.4-2.4c0.9-3.1,1.9-6.1,2.8-9.1
			c0.4,0,0.8,0,1.2,0l-0.4-1.7l-0.4-1.7l-0.2-0.8c-0.1-0.3-0.2-0.5-0.2-0.8l-1-3.2c-0.1-0.3-0.2-0.5-0.3-0.8l-0.3-0.8l-0.3-0.8
			l0-0.1c-0.1,0-0.1,0.1-0.2,0.1c-0.2,0.1-0.4,0.3-0.6,0.5c-0.2,0.2-0.3,0.4-0.4,0.6c-0.1,0.1-0.1,0.2-0.2,0.4l-0.2,0.4
			c0,0.1-0.1,0.2-0.1,0.4l-0.1,0.4l-0.2,0.8l-0.1,1.7l-0.3,3.1l-2.4-2.1l0,0l-1-1.2c-0.3-0.4-0.6-0.8-0.9-1.2
			c-0.3-0.4-0.6-0.8-0.8-1.3c-0.3-0.4-0.5-0.8-0.8-1.3c-1-1.7-1.9-3.5-2.7-5.2c-1.5-3.3-2.8-6.7-3.9-10.1c-0.5,0.4-1,0.8-1.4,1.3
			c-0.6,0.6-1.2,1.2-1.8,1.9c-0.3,0.3-0.5,0.7-0.8,1c-0.3,0.3-0.5,0.7-0.7,1c-0.2,0.3-0.5,0.7-0.6,1l-0.5,1l0,0l-1.7,2.2l-1-2.2
			l-1.1-2.2l-0.5-1.1c-0.2-0.4-0.3-0.8-0.5-1.1l-0.9-2.3c-0.3-0.8-0.5-1.6-0.8-2.3c-0.3-0.8-0.5-1.6-0.7-2.4
			c-0.2-0.8-0.4-1.6-0.6-2.4c-0.2-0.8-0.4-1.6-0.5-2.4c-0.1-0.5-0.2-1-0.2-1.5l-5.3,4.6h0l-1.6,1.1l-0.1-1.8l-0.7-9.7
			c-0.2-0.9-0.3-1.9-0.5-2.8c-3.2,2.5-6.1,4.7-8.5,6.6c1.6-11-6.4-20.3-8.9-30.6c-5.8-1-11.1-1.9-16.4-2.8
			c4.4-6.5,8.8-12.8,13.6-19.8c-2.2-1.3-3.9-2.3-5.6-3.3c0-0.2,0-0.4,0.1-0.5c3.5,0.5,6.9,1.1,11.6,1.8c-4.6,6.9-8.8,13.2-13,19.4
			c3.7,0.4,7.6,0.7,11,1c3.3,10.1,6.6,20,10.1,30.7c2.7-3,4.9-5.4,7.2-7.9c0.4,3.8,0.7,7.5,1.1,11.2l0.8,4.9l5.2-3.3l0.7-0.5
			l0.1,0.8v0c0.2,0.8,0.4,1.5,0.6,2.3c0.2,0.8,0.5,1.5,0.7,2.3c0.2,0.8,0.5,1.5,0.8,2.2c0.3,0.7,0.6,1.5,0.9,2.2
			c0.3,0.7,0.6,1.5,1,2.2l1.1,2.1c0.2,0.3,0.3,0.7,0.6,1l0.6,1l0.1,0.2c0.1-0.1,0.2-0.2,0.4-0.4c0.3-0.4,0.7-0.7,1-0.9
			s0.7-0.6,1.1-0.9c0.7-0.5,1.5-1.1,2.2-1.6c0.8-0.5,1.5-1,2.3-1.4l0.6-0.3l0.2,0.6c1.5,3.5,3.2,6.9,5.1,10.2c0.9,1.6,1.9,3.2,3,4.7
			c0.3,0.4,0.5,0.8,0.8,1.1c0.3,0.4,0.6,0.7,0.9,1.1c0,0,0.1,0.1,0.1,0.1l0.2-0.3l0.2-0.5c0.1-0.2,0.2-0.3,0.3-0.5l0.3-0.5
			c0.1-0.1,0.2-0.3,0.4-0.4c0.3-0.3,0.6-0.5,0.9-0.8c0.3-0.2,0.7-0.4,1-0.6c0.2-0.1,0.4-0.1,0.6-0.2c0.2,0,0.4-0.1,0.7-0.1h0l0.6,0
			l0.2,0.4c0.1,0.3,0.3,0.6,0.4,0.9l0.3,0.8l0.3,0.8c0.1,0.3,0.2,0.5,0.2,0.8l0.7,3.4c0.1,0.3,0.1,0.6,0.2,0.8l0.1,0.8l0.2,1.7
			l0.2,1.8c0,0,0,0,0,0c0.1,0.5,0.1,1,0.2,1.5l0,0l0,0c0.2,2.2,0.4,4.5,0.7,6.7c0.2,1.9,0.1,4,3,3.8c1.3-0.9,2.5-1.8,3.8-2.7
			c-1.3,0.9-2.5,1.8-3.8,2.7c0.7,0.1,1.4,0.2,2.2,0.4c0.6,6.9-2.9,12.8-4.5,19.2c-0.3,1.4-0.2,2.9-0.2,4.4c1.3-0.1,2.7,0,4-0.2
			c0.8-0.1,1.6-0.3,2.3-0.7c3.2-1.7,5.7-2.1,6.4,2.6c0.1,0.7,1.6,1.5,2.6,1.7c5.6,1.2,16.7-4.2,15.6-12.3c-0.2-1.6,0.3-3.3,0.7-4.9
			c1-4,1.7-8.1,3.3-11.8c2.2-5,1.2-9.1-1.6-13.4c-2.6-4-3.1-8.1,0-13.4c4.2,8.9,12.5,14.8,12.3,25.2c3.6-0.6,3.9-3.5,4.2-5.8
			c0.9-7.5,1.8-14.9,2.2-22.4C518,428.6,517.6,422.6,517.7,416.6z M134.9,424.8c-1.1-1.7-2.1-3.5-3.2-5.2c0.6-0.4,1.3-0.7,1.9-1.1
			c0.9,1.8,1.7,3.7,2.6,5.5C135.8,424.3,135.4,424.5,134.9,424.8z M168.7,424.4c-0.3,0.3-1.9,0-2.4-0.5c-2.7-2.2-3.8-7.6-2.3-10.6
			c1-2,5.9-3.2,9.6-2.3c1,0.2,2,0.6,3.7,1.1C175.7,417.1,172.2,420.8,168.7,424.4z M171.1,317.1c-0.6,0.3-1.7,0-2.4-0.4
			c-6.3-4.3-11.8-3.8-13.4,6.3c-0.1,0.7-0.2,1.3-0.3,2.2c-3-4.3-5.8-8.3-8.6-12.4c-4.9,1.6-4.2,6.8-6.3,10.6
			c-1.9-2.3-3.7-4.3-5.5-6.5c-6.5,7.4-8.8,15.7-9,24.9c-5.3-10.4-5.3-21.6-6.5-33.3c-4.8,5.3-6.4,11.3-8.5,18
			c-1-8.3-2.2-15.6,1-23.9c0.2,2.3,0.3,3.7,0.4,5c0.3,0.1,0.6,0.3,0.8,0.4c2.8-3.6,5.5-7.2,8-10.4c2,5.5,4.1,11.6,6.5,18.4
			c2-2.7,3.3-4.5,4.7-6.3c1.8,1.9,3.5,3.7,5.5,5.8c2.8-3.8,5.4-7.3,8.2-11c2.3,3,1.5,8.5,6.2,8c2.2-0.3,4.1-3.5,6.4-5.6
			c6.4,4.1,13.6,9,23.1,5.5C178,314,174.6,315.7,171.1,317.1z M205,261.9c-1.3-0.6-3.1-0.9-3.7-1.9c-4.6-7.7-10.4-14.5-17-20.6
			c-0.4-0.1-0.9-0.2-1.3-0.3c0.3-0.3,0.6-0.6,0.8-0.9c0.4,0.2,0.8,0.5,1.1,0.7c2.6,1.6,5.8,2.6,7.7,4.8c4.8,5.3,9,11.2,13.4,16.8
			C205.7,261,205.4,261.4,205,261.9z M327.6,188.4c-0.1,4-0.4,8-0.8,11.9c-0.8,7.4-1.7,14.8-2.7,22.1c-0.9,6.1-1.6,12.3-3.3,18.3
			c-1,3.6-3.9,6.7-5.5,10.2c-4,8.5-11.4,13.8-18.7,19.1c-6.6,4.8-13.5,9.4-20.9,12.9c-10.7,5.1-21.9,9-33.7,10.9
			c-8.6,1.4-17.2,2.9-25.7,4.4c-0.2,0-0.5,0-0.7,0.1c-6.7,1.5-6.8,1.5-8.8-6c1.8-0.7,3.7-1.4,5.5-2.3c1.9-0.9,3.7-2.1,6.5-3.7
			c-2.8-3.2-5.4-6.2-7.9-9.2c-0.7-0.9-1.2-2-1.8-3.1c1-0.5,1.9-1.3,3-1.4c12.9-1.8,25.9-3.1,38.7-5.4c4.9-0.9,9.3-4.1,14-6.1
			c3-1.3,6.4-1.9,9.3-3.4c3.2-1.6,6.4-3.4,9-5.7c10-8.7,17.6-19.1,22-31.9c2.2-6.5,2.9-13.2,3.5-20c0.7-8.6,2.3-17,3.4-25.5
			c0.6-4.8,1.2-9.5,1.5-14.3c0.4-7.7,0.7-15.5,0.7-23.2c0-2.7-0.6-5.5-1.5-8c-1.3-3.4,0.1-4.8,3.4-5.8c4,4.2,5.9,9.3,6.9,14.7
			c1.8,9.2,4,18.5,4.9,27.8C328.7,173.3,327.8,180.9,327.6,188.4z M400.1,257.3c-1.8-4.2-3.4-8.6-5.5-12.8c-0.4-0.9-2.9-0.6-4.7-1
			c-4.1,21.9-8.1,43-12.1,64.2c-0.5,0-1,0.1-1.6,0.1c-5.5-19.4-10.1-39-20.7-56.9c-2.2,4.9-4.2,9.4-6.3,14
			c0.2-8.6-4.5-15.1-6.7-22.3c-0.5-0.1-0.9-0.2-1.4-0.3c-0.9,1.3-1.9,2.5-2.5,3.8c-1.9,4.4-3.7,8.9-5.5,13.3
			c-0.6-0.2-1.1-0.3-1.7-0.5c1.2-8,2.4-16.1,3.7-24.4c1,0.4,2.1,0.8,3.6,1.3c1.3-2.1,2.6-4.4,4.1-6.8c4.6,3.3,5.1,9.5,8.2,15.3
			c1.9-4,3.4-7.1,5.1-10.6c6.2,13.3,12.3,26.5,18.4,39.7c0.3,0,0.6,0,1,0c3.7-16.5,7.3-33.1,11-49.6c0.3,0,0.7,0,1-0.1
			c2.1,4.1,4.1,8.3,6.4,12.9c4.9-6.2,4.1-13.6,6.7-20.4C404.7,230.4,402.8,244,400.1,257.3z M465.6,222.4c0.9,7.2,1.6,13.7,2.4,20.2
			c0.3,0.6,0.6,1.2,0.8,1.9c-0.2,0.1-0.3,0.2-0.5,0.2c-0.3-0.5-0.6-1-0.8-1.5c-2.5-3.2-4.9-6.5-7.7-9.4c-1.1-1.2-3-1.7-4.8-2.7
			c-0.4,5.8-0.8,10.7-1.2,15.6c-7.2-10-15.7-18.4-27.4-22.9c-0.4,0.3-0.9,0.5-1.3,0.8c0,10.8,0,21.6,0,32.4c-0.3,0-0.6,0.1-0.9,0.1
			c-3.4-8.2-6.7-16.4-10.2-24.9c2.1,1.3,3.9,2.4,6.2,3.9c1-7,2-13.1,2.9-19.5c7.7,4.7,15.7,9.6,24.2,14.8c2.1-2.5,0.1-6,1.1-9.3
			c4.7,2,9.3,4.1,14.6,6.4c-0.4-5.5-0.7-10.2-1-15.7c-0.2,0.1-0.4,0.2-0.6,0.2c-0.3-0.5-0.5-1.1-0.8-1.6c0.2-0.1,0.5-0.2,0.7-0.3
			c0.2,0.5,0.4,1.1,0.6,1.6c0-0.1,0-0.2,0-0.2c3.7,4.4,7,8.2,10.7,12.5C470.4,224.2,468.6,223.5,465.6,222.4z"/>
		<path fill-rule="evenodd" clip-rule="evenodd" fill="#1E1109" d="M544.3,394.2c0.6,3.3,1.2,6.6,1.8,9.9c0.3,0.1,0.6,0.1,0.9,0.2
			c1.2-2.6,3.2-5.2,3.4-7.9c0.5-8,1-16.1,0-24c-1.3-10.7-3.9-21.3-6.2-31.9c-1.5-7-3.7-13.8-5.2-20.7c-2.9-12.6-4.9-25.4-13.9-35.6
			c-2.5-2.9-5.1-5.4-10.2-4.7c0,1.5,0,2.9,0,4.4c0,0.2,0,0.5,0,0.7c1.5,6.3,3,12.5,4.4,18.8c1,4.6,2.2,9.2,2.9,13.8
			c1.2,7.8,1.9,15.7,3,23.6c1.3,8.5,3.2,17,4.2,25.6c1.1,8.8,1.6,17.6,2,26.5c0.2,4-0.5,8-1.2,12c-1.1,6.7-2.5,13.3-3.8,20.6
			c-1.7-1.4-2.6-2.1-3.3-2.7c-3.1,0.9-3.8,2.9-3.9,5.5c-0.3,8.2-0.9,16.4-1.4,25c1,0.5,2.8,1.2,5.1,2.3c0.8-2.6,1.3-4.4,1.7-5.8
			c4.9,6.1,10,12.4,15,18.6c0.9-9.4,1.9-19,2.8-28.5c1.3,0.8,2.7,1.8,4.2,2.7c5.6,3.5,11.7,3.3,17.9,2.1c0-0.2,0-0.5,0-0.7
			C551.4,433.9,540.8,409.2,544.3,394.2z"/>
		<path fill-rule="evenodd" clip-rule="evenodd" fill="#534741" d="M464.1,454c-0.1,0-0.1,0-0.2,0l0.4,1.6c0,0,0,0,0,0L464.1,454z"
			/>
	</g>
</g>
</svg>
