<?xml version="1.0" encoding="utf-8"?>
<!-- Generator: Adobe Illustrator 16.0.0, SVG Export Plug-In . SVG Version: 6.00 Build 0)  -->
<!DOCTYPE svg PUBLIC "-//W3C//DTD SVG 1.1//EN" "http://www.w3.org/Graphics/SVG/1.1/DTD/svg11.dtd">
<svg version="1.1" xmlns="http://www.w3.org/2000/svg" xmlns:xlink="http://www.w3.org/1999/xlink" x="0px" y="0px"
	 width="566.93px" height="566.93px" viewBox="0 0 566.93 566.93" enable-background="new 0 0 566.93 566.93" xml:space="preserve">
<g id="fond" display="none">
	
		<rect x="-8249.873" y="-7591.898" display="inline" fill-rule="evenodd" clip-rule="evenodd" fill="#58595B" width="15942.492" height="15814.695"/>
</g>
<g id="en_cours">
</g>
<g id="fini">
	<g>
		<g>
			
				<rect x="160.041" y="82.36" fill="#4F5666" stroke="#241815" stroke-width="8" stroke-linecap="round" stroke-linejoin="round" stroke-miterlimit="10" width="246.848" height="23.922"/>
			<g>
				<g>
					<g>
						<path fill="#E5E2D3" d="M138.257,147.097c-0.648,0-1.296-0.158-1.884-0.471c-10.431-5.567-18.885-14.022-24.449-24.449
							c-0.58-1.088-0.627-2.382-0.126-3.508c0.501-1.126,1.493-1.959,2.689-2.257c7.838-1.95,8.617-7.916,8.617-22.09
							s-0.779-20.14-8.617-22.09c-1.196-0.298-2.188-1.13-2.689-2.257c-0.501-1.126-0.454-2.42,0.126-3.508
							c5.564-10.427,14.019-18.882,24.449-24.449c0.588-0.313,1.235-0.471,1.884-0.471c0.553,0,1.106,0.115,1.625,0.345
							c1.127,0.5,1.959,1.493,2.257,2.689c1.949,7.837,7.916,8.617,22.09,8.617s20.141-0.779,22.089-8.616
							c0.298-1.197,1.13-2.189,2.257-2.69c0.518-0.23,1.072-0.345,1.625-0.345c0.648,0,1.296,0.158,1.884,0.471
							c10.43,5.566,18.884,14.021,24.45,24.449c0.58,1.087,0.627,2.382,0.126,3.508s-1.493,1.959-2.689,2.257
							c-7.838,1.95-8.617,7.916-8.617,22.09s0.779,20.14,8.617,22.09c1.196,0.298,2.188,1.13,2.689,2.257s0.454,2.421-0.126,3.508
							c-5.566,10.429-14.021,18.883-24.45,24.449c-0.588,0.313-1.235,0.471-1.884,0.471c-0.553,0-1.107-0.115-1.625-0.345
							c-1.127-0.501-1.959-1.493-2.257-2.69c-1.948-7.837-7.915-8.616-22.089-8.616s-20.141,0.779-22.09,8.617
							c-0.298,1.196-1.13,2.189-2.257,2.689C139.363,146.982,138.81,147.097,138.257,147.097z"/>
						<path fill="#241815" d="M190.199,45.546c9.68,5.166,17.639,13.124,22.805,22.804c-11.651,2.898-11.651,13.424-11.651,25.972
							c0,12.547,0,23.073,11.651,25.972c-5.166,9.68-13.125,17.638-22.805,22.804c-2.896-11.65-13.424-11.651-25.971-11.651
							s-23.074,0.001-25.972,11.651c-9.679-5.166-17.639-13.124-22.804-22.804c11.65-2.898,11.651-13.425,11.651-25.972
							c0-12.548-0.001-23.073-11.651-25.972c5.165-9.68,13.125-17.638,22.804-22.804c2.897,11.65,13.425,11.651,25.972,11.651
							S187.303,57.196,190.199,45.546 M138.257,37.546c-1.298,0-2.593,0.315-3.767,0.942c-11.133,5.942-20.156,14.966-26.095,26.095
							c-1.161,2.175-1.254,4.764-0.252,7.017c1.001,2.252,2.985,3.917,5.378,4.513c4.696,1.168,5.583,4.062,5.583,18.208
							s-0.887,17.04-5.583,18.208c-2.393,0.595-4.377,2.26-5.378,4.513c-1.002,2.253-0.909,4.842,0.252,7.017
							c5.938,11.129,14.962,20.153,26.095,26.095c1.174,0.627,2.469,0.942,3.767,0.942c1.106,0,2.214-0.229,3.25-0.69
							c2.253-1.002,3.918-2.986,4.514-5.379c1.168-4.695,4.061-5.582,18.208-5.582s17.04,0.887,18.207,5.582
							c0.595,2.393,2.26,4.377,4.513,5.379c1.037,0.461,2.146,0.69,3.251,0.69c1.298,0,2.592-0.315,3.767-0.942
							c11.132-5.941,20.155-14.964,26.096-26.095c1.161-2.175,1.254-4.764,0.253-7.017c-1.002-2.253-2.986-3.918-5.379-4.513
							c-4.696-1.168-5.583-4.061-5.583-18.208s0.887-17.04,5.583-18.208c2.393-0.595,4.377-2.26,5.379-4.513
							c1.001-2.253,0.908-4.842-0.253-7.017c-5.94-11.13-14.964-20.154-26.096-26.095c-1.174-0.627-2.469-0.942-3.767-0.942
							c-1.106,0-2.214,0.229-3.251,0.69c-2.253,1.001-3.918,2.986-4.513,5.379c-1.167,4.695-4.06,5.582-18.207,5.582
							s-17.04-0.887-18.208-5.582c-0.595-2.393-2.261-4.377-4.514-5.379C140.471,37.775,139.362,37.546,138.257,37.546
							L138.257,37.546z"/>
					</g>
					
						<circle fill="#AB2E23" stroke="#241815" stroke-width="8" stroke-linecap="round" stroke-linejoin="round" stroke-miterlimit="10" cx="164.229" cy="94.321" r="19.904"/>
				</g>
				<g>
					<g>
						<path fill="#E5E2D3" d="M428.673,147.097c-0.553,0-1.106-0.115-1.625-0.345c-1.126-0.501-1.959-1.493-2.257-2.689
							c-1.95-7.838-7.916-8.617-22.09-8.617s-20.14,0.779-22.089,8.617c-0.298,1.196-1.13,2.189-2.257,2.689
							c-0.518,0.23-1.072,0.345-1.625,0.345c-0.648,0-1.296-0.158-1.884-0.471c-10.43-5.566-18.884-14.021-24.45-24.449
							c-0.58-1.087-0.627-2.382-0.126-3.508s1.493-1.959,2.689-2.257c7.838-1.95,8.617-7.916,8.617-22.09s-0.779-20.14-8.617-22.09
							c-1.196-0.298-2.188-1.13-2.689-2.257s-0.454-2.421,0.126-3.508c5.566-10.429,14.021-18.883,24.45-24.449
							c0.588-0.313,1.235-0.471,1.884-0.471c0.553,0,1.106,0.115,1.625,0.345c1.127,0.5,1.959,1.493,2.257,2.689
							c1.949,7.837,7.915,8.617,22.089,8.617s20.14-0.779,22.09-8.617c0.298-1.196,1.131-2.188,2.257-2.689
							c0.519-0.23,1.072-0.345,1.625-0.345c0.648,0,1.296,0.158,1.884,0.471c10.431,5.567,18.885,14.022,24.449,24.449
							c0.58,1.088,0.627,2.382,0.126,3.508c-0.501,1.126-1.493,1.959-2.689,2.257c-7.837,1.95-8.616,7.916-8.616,22.09
							s0.779,20.14,8.616,22.09c1.196,0.298,2.188,1.13,2.689,2.257c0.501,1.126,0.454,2.42-0.126,3.508
							c-5.564,10.427-14.019,18.882-24.449,24.449C429.969,146.939,429.321,147.097,428.673,147.097z"/>
						<path fill="#241815" d="M428.673,45.546c9.679,5.166,17.639,13.124,22.804,22.804c-11.65,2.898-11.65,13.424-11.65,25.972
							c0,12.547,0,23.073,11.65,25.972c-5.165,9.68-13.125,17.638-22.804,22.804c-2.898-11.65-13.424-11.651-25.972-11.651
							c-12.546,0-23.073,0.001-25.971,11.651c-9.68-5.166-17.639-13.124-22.805-22.804c11.65-2.898,11.651-13.425,11.651-25.972
							c0-12.548-0.001-23.073-11.651-25.972c5.166-9.68,13.125-17.638,22.805-22.804c2.897,11.65,13.425,11.651,25.971,11.651
							C415.249,57.197,425.774,57.196,428.673,45.546 M376.73,37.546c-1.298,0-2.592,0.315-3.767,0.942
							c-11.132,5.941-20.155,14.964-26.096,26.095c-1.161,2.175-1.254,4.764-0.253,7.017c1.002,2.253,2.986,3.918,5.379,4.513
							c4.696,1.168,5.583,4.062,5.583,18.208s-0.887,17.04-5.583,18.208c-2.393,0.595-4.377,2.26-5.379,4.513
							c-1.001,2.253-0.908,4.842,0.253,7.017c5.94,11.13,14.964,20.154,26.096,26.095c1.174,0.627,2.47,0.942,3.767,0.942
							c1.106,0,2.214-0.229,3.25-0.69c2.253-1.002,3.918-2.987,4.514-5.379c1.168-4.695,4.061-5.582,18.207-5.582
							c14.147,0,17.04,0.887,18.208,5.583c0.596,2.393,2.261,4.377,4.514,5.378c1.036,0.461,2.145,0.69,3.25,0.69
							c1.298,0,2.593-0.315,3.767-0.942c11.133-5.942,20.156-14.966,26.096-26.095c1.16-2.175,1.253-4.764,0.251-7.017
							c-1.001-2.252-2.985-3.917-5.378-4.513c-4.695-1.168-5.582-4.061-5.582-18.208s0.887-17.04,5.582-18.208
							c2.393-0.595,4.377-2.26,5.378-4.513c1.002-2.253,0.909-4.842-0.251-7.017c-5.939-11.129-14.963-20.153-26.096-26.095
							c-1.174-0.627-2.469-0.942-3.767-0.942c-1.106,0-2.214,0.229-3.25,0.69c-2.253,1.001-3.918,2.986-4.514,5.378
							c-1.168,4.696-4.061,5.583-18.208,5.583c-14.146,0-17.039-0.887-18.207-5.582c-0.596-2.393-2.261-4.377-4.514-5.379
							C378.944,37.775,377.836,37.546,376.73,37.546L376.73,37.546z"/>
					</g>
					
						<circle fill="#2268A8" stroke="#241815" stroke-width="8" stroke-linecap="round" stroke-linejoin="round" stroke-miterlimit="10" cx="402.701" cy="94.321" r="19.904"/>
				</g>
			</g>
			
				<path fill="#4F5666" stroke="#241815" stroke-width="8" stroke-linecap="round" stroke-linejoin="round" stroke-miterlimit="10" d="
				M322.207,213.59c0,21.397-77.484,21.397-77.484,0V74.146c0-21.396,17.346-38.742,38.742-38.742l0,0
				c21.396,0,38.742,17.346,38.742,38.742V213.59z"/>
		</g>
		<g>
			<path fill="#2268A8" stroke="#241815" stroke-width="8" stroke-miterlimit="10" d="M283.466,535.699
				c34.697,0,62.824-29.718,62.824-62.767c0-62.038-62.824-201.921-62.824-201.921S220.64,410.895,220.64,472.933
				C220.64,505.981,248.769,535.699,283.466,535.699z"/>
			<circle fill="#FFFFFF" cx="315.598" cy="472.603" r="17.333"/>
		</g>
		<polygon fill="#AB2E23" stroke="#241815" stroke-width="8" stroke-linejoin="round" stroke-miterlimit="10" points="
			231.195,462.129 159.01,420.443 159.01,440.125 103.711,440.125 103.711,484.125 159.01,484.125 159.01,503.811 		"/>
	</g>
</g>
</svg>
