<?xml version="1.0" encoding="utf-8"?>
<!-- Generator: Adobe Illustrator 16.0.0, SVG Export Plug-In . SVG Version: 6.00 Build 0)  -->
<!DOCTYPE svg PUBLIC "-//W3C//DTD SVG 1.1//EN" "http://www.w3.org/Graphics/SVG/1.1/DTD/svg11.dtd">
<svg version="1.1" xmlns="http://www.w3.org/2000/svg" xmlns:xlink="http://www.w3.org/1999/xlink" x="0px" y="0px"
	 width="566.93px" height="566.93px" viewBox="0 0 566.93 566.93" enable-background="new 0 0 566.93 566.93" xml:space="preserve">
<g id="fond" display="none">
	
		<rect x="-8889.913" y="-8228.754" display="inline" fill-rule="evenodd" clip-rule="evenodd" fill="#58595B" width="15942.492" height="15814.695"/>
</g>
<g id="en_cours">
</g>
<g id="fini">
	<g>
		<g>
			<path fill="#564432" d="M259.667,293.203c-1.947,0-3.654-1.425-3.951-3.409l-4.816-32.194c-0.157-1.049,0.109-2.118,0.74-2.971
				s1.575-1.42,2.624-1.577l126.58-18.934c0.197-0.029,0.395-0.044,0.592-0.044c0.852,0,1.687,0.271,2.379,0.784
				c0.853,0.631,1.42,1.575,1.577,2.624l4.814,32.194c0.327,2.185-1.18,4.221-3.364,4.548l-126.578,18.934
				C260.063,293.188,259.863,293.203,259.667,293.203z"/>
			<g>
				<path d="M381.436,238.074l4.814,32.194l-126.578,18.934l-4.816-32.194L381.436,238.074 M381.436,230.074
					c-0.394,0-0.789,0.029-1.184,0.088l-126.58,18.934c-2.099,0.314-3.986,1.448-5.248,3.154s-1.794,3.843-1.48,5.941l4.816,32.194
					c0.594,3.968,4.008,6.817,7.902,6.817c0.394,0,0.792-0.029,1.193-0.089l126.578-18.934c4.369-0.653,7.382-4.726,6.729-9.096
					l-4.814-32.194c-0.313-2.098-1.448-3.986-3.154-5.248C384.808,230.618,383.138,230.074,381.436,230.074L381.436,230.074z"/>
			</g>
		</g>
		<g>
			<path fill="#564432" d="M390.519,362.009c-0.783,0-1.556-0.23-2.218-0.671c-0.883-0.588-1.496-1.503-1.704-2.543l-22.599-112.787
				c-0.209-1.04,0.005-2.121,0.593-3.004s1.503-1.496,2.543-1.704l31.916-6.394c0.266-0.054,0.53-0.079,0.79-0.079
				c1.867,0,3.537,1.314,3.918,3.215l22.597,112.785c0.435,2.166-0.97,4.274-3.136,4.708l-31.914,6.396
				C391.044,361.983,390.78,362.009,390.519,362.009z"/>
			<g>
				<path d="M399.836,238.828l22.597,112.785l-31.914,6.396L367.92,245.222L399.836,238.828 M399.845,230.826
					c-0.521,0-1.05,0.052-1.58,0.158l-31.916,6.394c-2.08,0.416-3.91,1.643-5.087,3.408c-1.176,1.766-1.603,3.927-1.186,6.007
					l22.599,112.787c0.416,2.081,1.643,3.91,3.408,5.087c1.323,0.881,2.869,1.342,4.436,1.342c0.524,0,1.051-0.052,1.572-0.156
					l31.914-6.396c4.332-0.868,7.14-5.083,6.271-9.415L407.68,237.257C406.918,233.455,403.579,230.826,399.845,230.826
					L399.845,230.826z"/>
			</g>
		</g>
		<g>
			<path fill="#564432" d="M355.016,304.426c-0.103,0-0.205-0.004-0.308-0.012c-1.059-0.082-2.04-0.58-2.73-1.386l-21.177-24.723
				c-1.437-1.678-1.242-4.203,0.436-5.641l82.604-70.758c0.728-0.623,1.651-0.962,2.603-0.962c0.103,0,0.205,0.004,0.309,0.012
				c1.058,0.082,2.039,0.581,2.729,1.387l21.175,24.725c1.437,1.678,1.242,4.202-0.436,5.64l-82.603,70.756
				C356.891,304.087,355.967,304.426,355.016,304.426z"/>
			<g>
				<path d="M416.443,204.945l21.175,24.725l-82.603,70.756l-21.177-24.723L416.443,204.945 M416.443,196.945
					c-1.902,0-3.75,0.679-5.204,1.924l-82.604,70.758c-3.355,2.875-3.746,7.925-0.872,11.28l21.177,24.723
					c1.381,1.611,3.345,2.608,5.46,2.772c0.206,0.016,0.412,0.023,0.616,0.023c1.902,0,3.75-0.679,5.204-1.924l82.603-70.756
					c3.355-2.875,3.746-7.925,0.872-11.28l-21.175-24.725c-1.38-1.611-3.344-2.608-5.46-2.772
					C416.854,196.953,416.648,196.945,416.443,196.945L416.443,196.945z"/>
			</g>
		</g>
		<g>
			<path fill="#564432" d="M511.117,359.092c-0.122,0-0.244-0.006-0.366-0.017c-1.057-0.098-2.031-0.61-2.709-1.426l-95.333-114.641
				c-1.413-1.698-1.181-4.221,0.518-5.633l25.026-20.813c0.722-0.6,1.627-0.925,2.558-0.925c0.122,0,0.244,0.006,0.366,0.017
				c1.057,0.098,2.031,0.61,2.709,1.426l95.333,114.639c1.413,1.698,1.181,4.221-0.518,5.633l-25.026,20.814
				C512.954,358.767,512.048,359.092,511.117,359.092z"/>
			<g>
				<path d="M440.811,219.639l95.333,114.639l-25.026,20.814l-95.333-114.641L440.811,219.639 M440.811,211.639
					c-1.861,0-3.673,0.649-5.115,1.849L410.669,234.3c-3.397,2.825-3.86,7.869-1.036,11.267l95.333,114.641
					c1.357,1.631,3.307,2.657,5.419,2.852c0.245,0.022,0.489,0.033,0.732,0.033c1.861,0,3.673-0.649,5.115-1.85l25.026-20.814
					c3.397-2.825,3.86-7.868,1.036-11.266l-95.333-114.639c-1.357-1.631-3.307-2.657-5.419-2.852
					C441.299,211.649,441.054,211.639,440.811,211.639L440.811,211.639z"/>
			</g>
		</g>
		<g>
			<path fill="#564432" d="M141.696,231.316c-0.567,0-1.135-0.121-1.661-0.361c-0.965-0.44-1.716-1.246-2.087-2.24L97.734,120.947
				c-0.771-2.069,0.28-4.374,2.35-5.146l30.498-11.381c0.451-0.168,0.926-0.252,1.398-0.252c0.567,0,1.135,0.121,1.661,0.361
				c0.965,0.44,1.716,1.246,2.087,2.24l40.215,107.768c0.37,0.994,0.331,2.095-0.109,3.06s-1.246,1.716-2.24,2.087l-30.499,11.381
				C142.644,231.232,142.169,231.316,141.696,231.316z"/>
			<g>
				<path d="M131.98,108.168l40.215,107.768l-30.499,11.381l-40.214-107.768L131.98,108.168 M131.98,100.168
					c-0.946,0-1.894,0.168-2.797,0.505l-30.498,11.381c-4.14,1.545-6.243,6.152-4.698,10.292l40.214,107.768
					c0.741,1.988,2.243,3.6,4.173,4.48c1.053,0.48,2.187,0.723,3.322,0.723c0.946,0,1.894-0.168,2.797-0.505l30.499-11.381
					c1.987-0.741,3.6-2.243,4.48-4.173c0.882-1.931,0.96-4.131,0.218-6.119l-40.215-107.768c-0.742-1.988-2.243-3.6-4.173-4.48
					C134.25,100.41,133.116,100.168,131.98,100.168L131.98,100.168z"/>
			</g>
		</g>
		<g>
			<path fill="#564432" d="M229.228,250.428c-0.204,0-0.409-0.016-0.613-0.047c-1.048-0.163-1.989-0.735-2.615-1.592l-67.907-92.845
				c-0.626-0.856-0.887-1.926-0.725-2.975c0.163-1.048,0.735-1.989,1.592-2.615l26.273-19.216c0.712-0.521,1.539-0.771,2.358-0.771
				c1.232,0,2.448,0.567,3.231,1.639l67.908,92.842c1.305,1.783,0.916,4.285-0.867,5.59l-26.274,19.219
				C230.899,250.16,230.071,250.428,229.228,250.428z"/>
			<g>
				<path d="M187.594,134.367l67.908,92.842l-26.274,19.219l-67.907-92.845L187.594,134.367 M187.587,126.366
					c-1.639,0-3.292,0.502-4.716,1.544l-26.273,19.216c-1.713,1.252-2.857,3.134-3.183,5.23s0.195,4.236,1.448,5.949l67.907,92.845
					c1.252,1.713,3.134,2.857,5.23,3.183c0.408,0.063,0.818,0.095,1.227,0.095c1.688,0,3.344-0.534,4.723-1.543l26.274-19.219
					c3.566-2.608,4.343-7.614,1.734-11.18l-67.908-92.842C192.484,127.502,190.052,126.366,187.587,126.366L187.587,126.366z"/>
			</g>
		</g>
		<g>
			<path fill="#564432" d="M248.799,368.204c-0.771,0-1.534-0.224-2.189-0.652c-0.888-0.581-1.509-1.49-1.726-2.529l-6.662-31.863
				c-0.452-2.162,0.934-4.281,3.097-4.733l125.279-26.197c0.271-0.057,0.545-0.085,0.818-0.085c0.772,0,1.534,0.224,2.189,0.652
				c0.888,0.581,1.509,1.491,1.726,2.529l6.66,31.864c0.452,2.162-0.934,4.281-3.097,4.733l-125.277,26.196
				C249.347,368.176,249.072,368.204,248.799,368.204z"/>
			<g>
				<path d="M367.416,306.144l6.66,31.864l-125.277,26.196l-6.662-31.863L367.416,306.144 M367.416,298.144
					c-0.546,0-1.095,0.056-1.638,0.169L240.499,324.51c-4.324,0.904-7.098,5.144-6.193,9.469l6.662,31.863
					c0.435,2.076,1.676,3.896,3.452,5.058c1.312,0.857,2.835,1.305,4.379,1.305c0.546,0,1.095-0.056,1.638-0.169l125.277-26.196
					c4.324-0.904,7.097-5.144,6.193-9.468l-6.66-31.864c-0.435-2.077-1.676-3.896-3.451-5.058
					C370.483,298.591,368.96,298.144,367.416,298.144L367.416,298.144z"/>
			</g>
		</g>
		<g>
			<path fill="#564432" d="M382.484,375.637c-0.542,0-1.083-0.11-1.59-0.329c-0.974-0.422-1.739-1.213-2.13-2.199l-47.086-119.013
				c-0.39-0.986-0.372-2.088,0.049-3.062c0.422-0.974,1.213-1.739,2.199-2.13l30.27-11.974c0.483-0.19,0.981-0.281,1.471-0.281
				c1.593,0,3.099,0.958,3.721,2.529l47.088,119.01c0.39,0.986,0.372,2.088-0.049,3.062c-0.422,0.974-1.213,1.739-2.199,2.13
				l-30.271,11.977C383.483,375.543,382.983,375.637,382.484,375.637z"/>
			<g>
				<path d="M365.668,240.65l47.088,119.01l-30.271,11.977l-47.086-119.013L365.668,240.65 M365.666,232.648
					c-0.979,0-1.975,0.181-2.94,0.563l-30.27,11.974c-1.974,0.781-3.556,2.313-4.398,4.26c-0.844,1.947-0.879,4.149-0.098,6.123
					l47.086,119.013c0.78,1.973,2.313,3.555,4.26,4.397c1.013,0.439,2.096,0.659,3.179,0.659c0.998,0,1.997-0.187,2.943-0.561
					l30.271-11.977c1.973-0.781,3.555-2.313,4.397-4.261c0.844-1.947,0.879-4.149,0.098-6.122l-47.088-119.01
					C371.863,234.564,368.852,232.648,365.666,232.648L365.666,232.648z"/>
			</g>
		</g>
		<g>
			<path fill="#564432" d="M50.678,249.419c-0.17,0-0.34-0.011-0.511-0.032c-1.052-0.136-2.007-0.684-2.655-1.523L27.62,222.097
				c-1.351-1.749-1.027-4.261,0.722-5.61l91.049-70.296c0.704-0.544,1.564-0.834,2.444-0.834c0.17,0,0.34,0.011,0.511,0.032
				c1.052,0.136,2.007,0.684,2.655,1.523l19.891,25.765c1.351,1.749,1.027,4.261-0.722,5.61l-91.048,70.298
				C52.418,249.129,51.558,249.419,50.678,249.419z"/>
			<g>
				<path d="M121.835,149.356l19.891,25.765l-91.048,70.298l-19.892-25.767L121.835,149.356 M121.835,141.356
					c-1.76,0-3.481,0.581-4.889,1.668L25.897,213.32c-3.497,2.699-4.144,7.724-1.443,11.221l19.891,25.767
					c1.297,1.68,3.208,2.775,5.313,3.046c0.34,0.044,0.682,0.065,1.021,0.065c1.76,0,3.481-0.581,4.889-1.668l91.048-70.298
					c3.497-2.7,4.144-7.724,1.443-11.221l-19.891-25.765c-1.296-1.68-3.207-2.775-5.312-3.046
					C122.516,141.378,122.175,141.356,121.835,141.356L121.835,141.356z"/>
			</g>
		</g>
		<g>
			<path fill="#564432" d="M177.482,401.822c-2.002,0-3.73-1.5-3.968-3.537L160.196,284.03c-0.123-1.054,0.178-2.113,0.836-2.945
				c0.658-0.831,1.62-1.368,2.674-1.49l32.334-3.768c0.154-0.019,0.309-0.027,0.463-0.027c0.896,0,1.772,0.302,2.482,0.863
				c0.832,0.658,1.368,1.62,1.49,2.674l13.313,114.256c0.123,1.054-0.178,2.113-0.836,2.945s-1.62,1.368-2.674,1.49l-32.328,3.767
				C177.793,401.813,177.637,401.822,177.482,401.822z"/>
			<g>
				<path d="M196.503,279.8l13.313,114.256l-32.328,3.767l-13.318-114.255L196.503,279.8 M196.503,271.8
					c-0.308,0-0.617,0.018-0.926,0.054l-32.334,3.768c-2.107,0.246-4.031,1.318-5.348,2.982s-1.918,3.782-1.673,5.891
					l13.318,114.254c0.475,4.074,3.933,7.075,7.937,7.075c0.309,0,0.621-0.019,0.936-0.055l32.328-3.767
					c2.107-0.246,4.031-1.318,5.348-2.982s1.918-3.782,1.673-5.89l-13.313-114.256c-0.245-2.107-1.318-4.031-2.982-5.348
					C200.047,272.402,198.296,271.8,196.503,271.8L196.503,271.8z"/>
			</g>
		</g>
		<g>
			<path fill="#564432" d="M177.744,514.039c-2.209,0-4-1.791-4-4V395.012c0-2.209,1.791-4,4-4h32.551c2.209,0,4,1.791,4,4v115.027
				c0,2.209-1.791,4-4,4H177.744z"/>
			<g>
				<path d="M210.295,395.012v115.027h-32.551V395.012H210.295 M210.295,387.012h-32.551c-4.418,0-8,3.582-8,8v115.027
					c0,4.418,3.582,8,8,8h32.551c4.418,0,8-3.582,8-8V395.012C218.295,390.594,214.713,387.012,210.295,387.012L210.295,387.012z"/>
			</g>
		</g>
		<g>
			<path fill="#564432" d="M425.667,503.41c-2.209,0-4-1.791-4-4V384.382c0-2.209,1.791-4,4-4h32.553c2.209,0,4,1.791,4,4V499.41
				c0,2.209-1.791,4-4,4H425.667z"/>
			<g>
				<path d="M458.22,384.382V499.41h-32.553V384.382H458.22 M458.22,376.382h-32.553c-4.418,0-8,3.582-8,8V499.41
					c0,4.418,3.582,8,8,8h32.553c4.418,0,8-3.582,8-8V384.382C466.22,379.964,462.638,376.382,458.22,376.382L458.22,376.382z"/>
			</g>
		</g>
		<g>
			<path fill="#564432" d="M436.074,413.556c-0.654,0-1.317-0.161-1.931-0.5l-100.68-55.629c-1.934-1.068-2.635-3.502-1.566-5.436
				L347.64,323.5c0.729-1.32,2.096-2.066,3.505-2.066c0.654,0,1.317,0.161,1.931,0.5l100.682,55.628
				c0.929,0.513,1.615,1.374,1.909,2.394s0.17,2.113-0.343,3.042l-15.744,28.492C438.85,412.81,437.483,413.556,436.074,413.556z"/>
			<g>
				<path d="M351.141,325.435l100.682,55.628l-15.744,28.492l-100.68-55.629L351.141,325.435 M351.147,317.434
					c-2.817,0-5.55,1.491-7.009,4.132l-15.742,28.491c-2.137,3.867-0.734,8.734,3.133,10.871l100.68,55.629
					c1.227,0.678,2.554,1,3.862,1c2.817,0,5.55-1.492,7.009-4.133l15.744-28.492c1.026-1.857,1.272-4.046,0.686-6.085
					c-0.588-2.038-1.962-3.761-3.818-4.786L355.01,318.433C353.783,317.755,352.456,317.434,351.147,317.434L351.147,317.434z"/>
			</g>
		</g>
		<g>
			<path fill="#564432" d="M195.411,268.031c-1.197,0-2.381-0.535-3.169-1.556l-70.295-91.046c-1.351-1.748-1.027-4.26,0.722-5.61
				l25.764-19.894c0.703-0.544,1.564-0.834,2.444-0.834c0.17,0,0.34,0.011,0.51,0.032c1.053,0.136,2.008,0.684,2.656,1.523
				l70.299,91.047c0.648,0.84,0.937,1.902,0.802,2.955c-0.136,1.052-0.684,2.007-1.523,2.655l-25.768,19.893
				C197.125,267.76,196.265,268.031,195.411,268.031z"/>
			<g>
				<path d="M150.877,153.092l70.299,91.047l-25.768,19.893l-70.295-91.046L150.877,153.092 M150.877,145.092
					c-1.76,0-3.481,0.581-4.89,1.668l-25.764,19.894c-3.496,2.7-4.143,7.724-1.442,11.221l70.295,91.046
					c1.576,2.042,3.944,3.111,6.338,3.111c1.707,0,3.427-0.544,4.883-1.668l25.768-19.893c1.68-1.296,2.775-3.207,3.046-5.312
					s-0.306-4.23-1.603-5.909l-70.299-91.047c-1.297-1.68-3.207-2.775-5.312-3.046C151.558,145.113,151.216,145.092,150.877,145.092
					L150.877,145.092z"/>
			</g>
		</g>
		<g>
			<path fill="#564432" d="M172.656,286.425c-1.462,0-2.871-0.805-3.574-2.2l-51.791-102.708c-0.478-0.947-0.56-2.045-0.228-3.053
				s1.051-1.842,1.998-2.319l29.065-14.655c0.577-0.292,1.192-0.43,1.798-0.43c1.462,0,2.871,0.805,3.574,2.2l51.791,102.709
				c0.478,0.947,0.56,2.045,0.228,3.053s-1.051,1.842-1.998,2.319l-29.065,14.654C173.877,286.287,173.262,286.425,172.656,286.425z
				"/>
			<g>
				<path d="M149.928,165.061l51.791,102.709l-29.065,14.654l-51.791-102.708L149.928,165.061 M149.921,157.059
					c-1.211,0-2.439,0.276-3.595,0.858l-29.065,14.655c-1.895,0.955-3.332,2.624-3.996,4.64c-0.664,2.015-0.501,4.211,0.454,6.105
					l51.791,102.708c1.407,2.79,4.226,4.4,7.149,4.4c1.212,0,2.44-0.276,3.596-0.858l29.065-14.654
					c1.895-0.955,3.332-2.624,3.996-4.64c0.664-2.015,0.501-4.211-0.454-6.105l-51.791-102.709
					C155.664,158.669,152.846,157.059,149.921,157.059L149.921,157.059z"/>
			</g>
		</g>
		<g>
			<path fill="#564432" d="M224.545,368.176c-1.391,0-2.742-0.727-3.479-2.021l-56.926-99.955c-0.525-0.922-0.662-2.015-0.382-3.038
				c0.28-1.022,0.956-1.893,1.878-2.417l28.287-16.107c0.625-0.356,1.305-0.525,1.976-0.525c1.391,0,2.742,0.727,3.479,2.021
				l56.926,99.954c0.525,0.922,0.662,2.015,0.382,3.038c-0.28,1.022-0.956,1.893-1.878,2.417l-28.287,16.108
				C225.896,368.007,225.216,368.176,224.545,368.176z"/>
			<g>
				<path d="M195.902,248.112l56.926,99.954l-28.287,16.108l-56.926-99.955L195.902,248.112 M195.895,240.111
					c-1.342,0-2.701,0.338-3.951,1.049l-28.287,16.107c-1.844,1.05-3.194,2.789-3.756,4.836c-0.562,2.046-0.287,4.231,0.763,6.075
					l56.926,99.955c1.476,2.59,4.178,4.042,6.96,4.042c1.342,0,2.701-0.338,3.951-1.049l28.287-16.108
					c1.844-1.05,3.194-2.79,3.756-4.836s0.287-4.231-0.763-6.075l-56.926-99.954C201.379,241.563,198.677,240.111,195.895,240.111
					L195.895,240.111z"/>
			</g>
		</g>
		<g>
			<path fill="#564432" d="M268.328,349.781c-1.023,0-2.047-0.391-2.828-1.172l-81.336-81.336c-1.563-1.562-1.563-4.095,0-5.656
				l23.018-23.018c0.78-0.781,1.805-1.172,2.828-1.172s2.047,0.391,2.828,1.172l81.338,81.337c0.75,0.75,1.172,1.768,1.172,2.828
				s-0.422,2.078-1.172,2.829l-23.02,23.016C270.375,349.391,269.352,349.781,268.328,349.781z"/>
			<g>
				<path d="M210.01,241.428l81.338,81.337l-23.02,23.017l-81.336-81.336L210.01,241.428 M210.01,233.428
					c-2.048,0-4.095,0.781-5.657,2.343l-23.018,23.018c-3.124,3.125-3.124,8.189,0,11.314l81.336,81.336
					c1.563,1.562,3.609,2.343,5.657,2.343c2.047,0,4.095-0.781,5.656-2.343l23.02-23.017c1.501-1.5,2.344-3.535,2.344-5.657
					s-0.843-4.156-2.343-5.657l-81.338-81.337C214.104,234.209,212.057,233.428,210.01,233.428L210.01,233.428z"/>
			</g>
		</g>
		<g>
			<path fill="#564432" d="M343.034,300.164c-0.213,0-0.429-0.018-0.646-0.053l-126.336-20.493c-1.047-0.17-1.984-0.749-2.604-1.609
				s-0.873-1.933-0.703-2.979l5.215-32.133c0.318-1.964,2.017-3.36,3.943-3.36c0.213,0,0.429,0.018,0.646,0.053l126.334,20.493
				c1.047,0.17,1.983,0.749,2.604,1.609c0.62,0.86,0.873,1.933,0.703,2.979l-5.213,32.133
				C346.659,298.768,344.961,300.164,343.034,300.164z"/>
			<g>
				<path d="M221.908,243.537l126.334,20.493l-5.213,32.133L216.693,275.67L221.908,243.537 M221.898,235.536
					c-3.854,0-7.249,2.792-7.887,6.72l-5.215,32.133c-0.34,2.094,0.166,4.238,1.406,5.959c1.241,1.722,3.114,2.879,5.209,3.219
					l126.336,20.493c0.434,0.07,0.865,0.104,1.291,0.104c3.854,0,7.25-2.792,7.887-6.72l5.213-32.133
					c0.34-2.095-0.166-4.238-1.407-5.959c-1.24-1.722-3.114-2.879-5.208-3.219l-126.334-20.493
					C222.756,235.57,222.324,235.536,221.898,235.536L221.898,235.536z"/>
			</g>
		</g>
		<g>
			<path fill="#564432" d="M240.64,338.308c-1.695,0-3.269-1.086-3.811-2.787l-9.877-31.019c-0.322-1.011-0.229-2.108,0.258-3.051
				c0.487-0.942,1.329-1.652,2.34-1.975l121.957-38.829c0.396-0.126,0.806-0.188,1.214-0.188c0.634,0,1.264,0.15,1.837,0.447
				c0.942,0.487,1.653,1.328,1.975,2.34l9.873,31.018c0.67,2.104-0.493,4.354-2.598,5.024l-121.953,38.83
				C241.45,338.247,241.042,338.308,240.64,338.308z"/>
			<g>
				<path d="M352.721,264.459l9.873,31.018l-121.953,38.83l-9.877-31.019L352.721,264.459 M352.721,256.459
					c-0.816,0-1.635,0.125-2.427,0.377l-121.957,38.829c-2.022,0.644-3.705,2.064-4.68,3.949s-1.16,4.079-0.517,6.102l9.877,31.019
					c1.084,3.402,4.231,5.574,7.621,5.574c0.805,0,1.622-0.122,2.429-0.379l121.953-38.83c4.21-1.341,6.536-5.84,5.196-10.05
					l-9.873-31.018c-0.644-2.021-2.063-3.705-3.948-4.68C355.249,256.76,353.987,256.459,352.721,256.459L352.721,256.459z"/>
			</g>
		</g>
		<g>
			<path fill="#564432" d="M43.648,247.076c-0.71,0-1.414-0.189-2.036-0.557c-0.913-0.54-1.574-1.421-1.838-2.448l-8.099-31.527
				c-0.55-2.14,0.739-4.319,2.879-4.869l111.409-28.623c0.328-0.084,0.662-0.126,0.995-0.126c0.71,0,1.414,0.189,2.036,0.557
				c0.913,0.54,1.574,1.421,1.838,2.448l8.099,31.527c0.55,2.14-0.739,4.319-2.879,4.869L44.644,246.95
				C44.315,247.034,43.981,247.076,43.648,247.076z"/>
			<g>
				<path d="M146.959,182.926l8.099,31.527L43.648,243.076l-8.099-31.527L146.959,182.926 M146.959,174.926
					c-0.666,0-1.335,0.083-1.991,0.252L33.56,203.801c-4.279,1.099-6.857,5.459-5.758,9.738l8.099,31.527
					c0.527,2.056,1.851,3.816,3.677,4.896c1.243,0.734,2.651,1.113,4.071,1.113c0.666,0,1.335-0.083,1.991-0.252l111.408-28.623
					c4.279-1.099,6.857-5.459,5.758-9.738l-8.099-31.527c-0.527-2.056-1.851-3.816-3.677-4.896
					C149.787,175.305,148.379,174.926,146.959,174.926L146.959,174.926z"/>
			</g>
		</g>
		<g>
			<path fill="#564432" d="M534.914,285.08c-0.43,0-0.86-0.069-1.274-0.209l-128.726-43.285c-1.006-0.338-1.836-1.062-2.308-2.012
				c-0.473-0.95-0.548-2.049-0.209-3.055l10.375-30.854c0.562-1.671,2.12-2.726,3.79-2.726c0.423,0,0.853,0.067,1.275,0.21
				l128.724,43.284c2.095,0.704,3.221,2.972,2.517,5.065l-10.373,30.854c-0.338,1.006-1.062,1.836-2.012,2.308
				C536.136,284.939,535.525,285.08,534.914,285.08z"/>
			<g>
				<path d="M416.563,206.941l128.724,43.284l-10.373,30.854l-128.726-43.285L416.563,206.941 M416.563,198.939
					c-3.342,0-6.458,2.109-7.582,5.452l-10.375,30.854c-0.676,2.011-0.525,4.208,0.418,6.108c0.944,1.9,2.604,3.348,4.615,4.024
					l128.726,43.285c0.829,0.278,1.69,0.417,2.55,0.417c1.224,0,2.442-0.28,3.56-0.835c1.899-0.944,3.348-2.604,4.023-4.616
					l10.373-30.854c1.408-4.188-0.846-8.725-5.033-10.133l-128.724-43.284C418.268,199.074,417.408,198.939,416.563,198.939
					L416.563,198.939z"/>
			</g>
		</g>
		<circle cx="137.415" cy="203.275" r="5.667"/>
		<circle cx="247.804" cy="314.186" r="5.667"/>
		<circle cx="342.576" cy="285.424" r="5.667"/>
		<circle cx="354.91" cy="346.728" r="5.667"/>
		<circle cx="431.333" cy="388.018" r="5.667"/>
		<circle cx="193.02" cy="409.555" r="5.667"/>
		<circle cx="425.666" cy="227.41" r="5.667"/>
		<circle cx="50.748" cy="223.743" r="5.667"/>
	</g>
</g>
</svg>
