<?xml version="1.0" encoding="utf-8"?>
<!-- Generator: Adobe Illustrator 16.0.0, SVG Export Plug-In . SVG Version: 6.00 Build 0)  -->
<!DOCTYPE svg PUBLIC "-//W3C//DTD SVG 1.1//EN" "http://www.w3.org/Graphics/SVG/1.1/DTD/svg11.dtd">
<svg version="1.1" xmlns="http://www.w3.org/2000/svg" xmlns:xlink="http://www.w3.org/1999/xlink" x="0px" y="0px"
	 width="566.93px" height="566.93px" viewBox="0 0 566.93 566.93" enable-background="new 0 0 566.93 566.93" xml:space="preserve">
<g id="fond" display="none">
	
		<rect x="-8001.873" y="-7908" display="inline" fill-rule="evenodd" clip-rule="evenodd" fill="#58595B" width="16654.492" height="16572.797"/>
</g>
<g id="en_cours">
</g>
<g id="fini">
	<g>
		<g>
			<g>
				<path fill="#EF840F" stroke="#000000" stroke-width="8" stroke-linecap="round" stroke-miterlimit="10" d="M283.466,544.699
					c34.697,0,62.824-29.718,62.824-62.767c0-62.038-62.824-201.921-62.824-201.921S220.64,419.895,220.64,481.933
					C220.64,514.981,248.769,544.699,283.466,544.699z"/>
				<circle fill="#FFFFFF" cx="315.598" cy="481.603" r="17.333"/>
			</g>
			<polygon fill="#AB2E23" stroke="#000000" stroke-width="8" stroke-linejoin="round" stroke-miterlimit="10" points="
				231.195,471.129 159.01,429.443 159.01,449.125 103.711,449.125 103.711,493.125 159.01,493.125 159.01,512.811 			"/>
		</g>
		<g>
			<g>
				<path fill="#EF840F" d="M139.889,185.507c-2.209,0-4-1.791-4-4c0-81.373,66.203-147.575,147.576-147.575
					c81.374,0,147.576,66.202,147.576,147.575c0,2.209-1.791,4-4,4H139.889z"/>
				<g>
					<path d="M283.465,37.932c79.295,0,143.576,64.28,143.576,143.575H139.889C139.889,102.212,204.171,37.932,283.465,37.932
						 M283.465,29.932c-40.487,0-78.551,15.767-107.18,44.395c-28.629,28.629-44.396,66.693-44.396,107.18c0,4.418,3.582,8,8,8
						h287.152c4.418,0,8-3.582,8-8c0-40.487-15.767-78.551-44.396-107.18C362.017,45.698,323.952,29.932,283.465,29.932
						L283.465,29.932z"/>
				</g>
			</g>
			<g>
				<path fill="#CCAC6C" d="M283.465,233.988c-38.774,0-75.284-5.118-102.803-14.41c-28.872-9.75-44.773-23.27-44.773-38.072
					s15.901-28.322,44.773-38.071c27.519-9.292,64.028-14.409,102.803-14.409c38.775,0,75.286,5.117,102.805,14.409
					c28.871,9.749,44.771,23.27,44.771,38.071s-15.9,28.323-44.771,38.072C358.751,228.871,322.24,233.988,283.465,233.988z"/>
				<path d="M283.465,133.026c79.298,0,143.576,21.704,143.576,48.48s-64.278,48.481-143.576,48.481
					c-79.294,0-143.576-21.705-143.576-48.481S204.171,133.026,283.465,133.026 M283.465,125.026
					c-39.198,0-76.162,5.192-104.083,14.62c-31.071,10.491-47.494,24.966-47.494,41.861s16.423,31.37,47.494,41.861
					c27.92,9.428,64.885,14.62,104.083,14.62c39.199,0,76.164-5.192,104.084-14.62c31.069-10.491,47.492-24.967,47.492-41.861
					s-16.423-31.37-47.492-41.861C359.629,130.218,322.664,125.026,283.465,125.026L283.465,125.026z"/>
			</g>
			<g>
				<path fill="#FFAD40" d="M283.465,222.028c-35.12,0-68.083-4.558-92.816-12.833c-23.032-7.707-36.241-17.798-36.241-27.688
					s13.209-19.981,36.241-27.688c24.734-8.276,57.696-12.834,92.816-12.834c35.121,0,68.085,4.558,92.817,12.834
					c23.031,7.707,36.24,17.799,36.24,27.688s-13.209,19.981-36.24,27.688C351.55,217.471,318.587,222.028,283.465,222.028z"/>
				<g>
					<path d="M283.465,144.984c34.701,0,67.214,4.484,91.548,12.627c24.707,8.267,33.51,17.764,33.51,23.895
						s-8.803,15.627-33.509,23.895c-24.335,8.143-56.848,12.627-91.549,12.627c-34.7,0-67.212-4.484-91.547-12.627
						c-24.708-8.267-33.511-17.764-33.511-23.895s8.803-15.628,33.511-23.895C216.253,149.469,248.765,144.984,283.465,144.984
						 M283.465,136.984c-73.484,0-133.058,19.935-133.058,44.522s59.573,44.521,133.058,44.521
						c73.488,0,133.058-19.934,133.058-44.521S356.953,136.984,283.465,136.984L283.465,136.984z"/>
				</g>
			</g>
			<g>
				<g>
					<path fill="#EF840F" d="M266.571,172.515c-2.289,0-4.528-0.2-6.475-0.58l-76.301-14.876c-0.606-0.118-1.142-0.245-1.611-0.375
						c9.745-4,21.372-7.357,34.598-9.989c14.507-2.887,31.077-4.846,47.92-5.667c0.618-0.03,1.238-0.044,1.857-0.044
						c3.119,0,6.092,0.367,8.37,1.034c1.093,0.32,1.752,0.629,2.123,0.841v27.787c-0.608,0.346-1.864,0.872-4.004,1.289
						C271.101,172.314,268.862,172.515,266.571,172.515z"/>
					<path d="M266.56,144.984c2.367,0,4.682,0.243,6.492,0.674v22.186c-0.233,0.055-0.489,0.11-0.769,0.165
						c-1.699,0.331-3.674,0.506-5.712,0.506c-2.037,0-4.011-0.175-5.708-0.505l-63.584-12.396
						c6.226-1.875,13.004-3.545,20.285-4.994c14.317-2.849,30.685-4.784,47.329-5.595
						C265.443,144.998,266.003,144.984,266.56,144.984 M266.56,136.984c-0.683,0-1.368,0.016-2.052,0.049
						c-17.035,0.83-33.808,2.814-48.506,5.739c-14.279,2.842-26.76,6.525-37.098,10.95c-2.606,1.113-3.646,2.555-2.854,3.95
						s3.339,2.602,6.979,3.313l76.302,14.876c2.241,0.437,4.742,0.653,7.239,0.653c2.502,0,5-0.217,7.241-0.653
						c4.48-0.873,7.239-2.488,7.239-4.234v-29.753c0-1.418-1.824-2.766-4.999-3.695C273.401,137.403,270.023,136.984,266.56,136.984
						L266.56,136.984z"/>
				</g>
				<g>
					<path fill="#EF840F" d="M300.356,172.515c-2.291,0-4.529-0.2-6.472-0.579c-2.142-0.417-3.397-0.944-4.006-1.29v-27.788
						c0.37-0.212,1.029-0.521,2.122-0.841c2.277-0.667,5.251-1.034,8.372-1.034c0.617,0,1.238,0.015,1.857,0.045
						c16.838,0.82,33.407,2.78,47.917,5.667c13.228,2.633,24.856,5.991,34.6,9.989c-0.471,0.129-1.007,0.257-1.615,0.375
						l-76.298,14.875C304.887,172.314,302.646,172.515,300.356,172.515z"/>
					<path d="M300.373,144.984c0.556,0,1.115,0.014,1.66,0.04c16.646,0.811,33.014,2.746,47.333,5.595
						c7.281,1.449,14.059,3.119,20.285,4.994l-63.58,12.396c-1.701,0.331-3.677,0.506-5.715,0.506s-4.011-0.175-5.707-0.506
						c-0.281-0.055-0.537-0.11-0.771-0.166v-22.186C295.689,145.227,298.005,144.984,300.373,144.984 M300.373,136.984
						c-3.463,0-6.845,0.419-9.496,1.195c-3.176,0.93-4.998,2.277-4.998,3.695v29.753c0,1.746,2.76,3.361,7.24,4.234
						c2.237,0.437,4.736,0.653,7.237,0.653c2.502,0,5-0.217,7.243-0.653l76.299-14.876c3.642-0.711,6.189-1.918,6.98-3.313
						c0.795-1.395-0.248-2.836-2.85-3.949c-10.341-4.425-22.825-8.108-37.102-10.95c-14.699-2.925-31.468-4.909-48.505-5.739
						C301.739,137,301.055,136.984,300.373,136.984L300.373,136.984z"/>
				</g>
				<g>
					<path fill="#EF840F" d="M173.358,197.274c-1.464,0-2.905-0.082-4.283-0.243c-3.993-0.467-6.055-1.441-6.586-1.89
						c-5.286-4.477-8.082-9.193-8.082-13.634c0-4.444,2.796-9.16,8.087-13.637c0.532-0.451,2.588-1.422,6.583-1.89
						c1.377-0.161,2.819-0.243,4.284-0.243c2.287,0,4.524,0.201,6.47,0.581l76.322,14.881c0.502,0.098,0.955,0.201,1.362,0.307
						c-0.408,0.106-0.861,0.21-1.363,0.309l-76.32,14.878C177.888,197.074,175.65,197.274,173.358,197.274z"/>
					<path d="M173.361,169.737c2.033,0,4.005,0.175,5.706,0.507l57.762,11.263l-57.765,11.261c-1.694,0.331-3.667,0.506-5.706,0.506
						c-1.31,0-2.595-0.072-3.817-0.215c-2.683-0.314-4.168-0.863-4.616-1.096c-4.205-3.603-6.519-7.311-6.519-10.455
						c0-3.148,2.314-6.856,6.527-10.461c0.447-0.232,1.93-0.78,4.609-1.093C170.766,169.81,172.05,169.737,173.361,169.737
						 M173.361,161.737c-1.6,0-3.205,0.089-4.75,0.271c-3.971,0.465-7.144,1.489-8.701,2.81c-6.218,5.262-9.503,11.035-9.503,16.69
						c0,5.654,3.285,11.425,9.5,16.689c1.561,1.318,4.733,2.343,8.704,2.808c1.547,0.181,3.147,0.27,4.747,0.27
						c2.513,0,5.015-0.22,7.239-0.654l76.321-14.879c4.48-0.875,7.24-2.488,7.24-4.233c0-1.746-2.76-3.361-7.24-4.234
						l-76.321-14.881C178.376,161.958,175.876,161.737,173.361,161.737L173.361,161.737z"/>
				</g>
				<g>
					<path fill="#EF840F" d="M266.572,222.028c-0.62,0-1.243-0.014-1.866-0.045c-16.845-0.819-33.416-2.778-47.923-5.665
						c-13.231-2.634-24.86-5.992-34.6-9.99c0.47-0.129,1.006-0.256,1.613-0.375l76.302-14.876c1.949-0.379,4.188-0.581,6.474-0.581
						s4.525,0.201,6.477,0.581c2.14,0.418,3.395,0.945,4.003,1.29v27.788c-0.37,0.212-1.028,0.52-2.121,0.839
						C272.655,221.662,269.688,222.028,266.572,222.028z"/>
					<path d="M266.572,194.497c2.034,0,4.009,0.175,5.708,0.506c0.281,0.055,0.539,0.111,0.772,0.167v22.186
						c-1.806,0.431-4.116,0.673-6.479,0.673c-0.572,0-1.133-0.014-1.676-0.041c-16.648-0.809-33.016-2.743-47.333-5.593
						c-7.282-1.45-14.061-3.12-20.287-4.995l63.583-12.396C262.563,194.672,264.539,194.497,266.572,194.497 M266.572,186.498
						c-2.5,0-5,0.218-7.24,0.654l-76.302,14.876c-3.641,0.71-6.187,1.919-6.979,3.314c-0.793,1.393,0.247,2.834,2.854,3.949
						c10.338,4.425,22.818,8.107,37.098,10.95c14.695,2.925,31.47,4.909,48.506,5.737c0.689,0.034,1.379,0.05,2.064,0.05
						c3.46,0,6.832-0.418,9.48-1.194c3.175-0.928,4.999-2.275,4.999-3.694v-29.753c0-1.747-2.759-3.36-7.239-4.235
						C271.572,186.715,269.072,186.498,266.572,186.498L266.572,186.498z"/>
				</g>
				<g>
					<path fill="#EF840F" d="M393.57,197.274c-2.29,0-4.528-0.201-6.475-0.58l-76.32-14.879c-0.502-0.098-0.955-0.202-1.362-0.308
						c0.407-0.106,0.86-0.209,1.361-0.307l76.321-14.881c1.951-0.38,4.189-0.582,6.474-0.582c1.464,0,2.904,0.082,4.281,0.243
						c3.999,0.468,6.054,1.439,6.582,1.887c5.294,4.481,8.09,9.197,8.09,13.641c0,4.44-2.796,9.156-8.085,13.638
						c-0.527,0.446-2.587,1.418-6.586,1.887C396.478,197.193,395.037,197.274,393.57,197.274z"/>
					<path d="M393.569,169.737c1.309,0,2.593,0.073,3.817,0.216c2.678,0.313,4.161,0.86,4.609,1.092
						c4.21,3.603,6.526,7.313,6.526,10.462c0,3.145-2.315,6.854-6.519,10.456c-0.448,0.233-1.935,0.781-4.618,1.095
						c-1.22,0.143-2.503,0.215-3.815,0.215c-2.037,0-4.011-0.175-5.709-0.506l-57.763-11.261l57.762-11.262
						C389.564,169.913,391.538,169.737,393.569,169.737 M393.569,161.737c-2.514,0-5.013,0.221-7.239,0.655l-76.32,14.881
						c-4.48,0.873-7.238,2.488-7.238,4.234c0,1.745,2.758,3.358,7.238,4.233l76.32,14.879c2.228,0.435,4.728,0.654,7.24,0.654
						c1.6,0,3.203-0.089,4.746-0.27c3.973-0.465,7.148-1.489,8.707-2.808c6.213-5.265,9.499-11.035,9.499-16.689
						c0-5.655-3.286-11.429-9.502-16.69c-1.556-1.32-4.731-2.345-8.704-2.81C396.771,161.827,395.168,161.737,393.569,161.737
						L393.569,161.737z"/>
				</g>
				<g>
					<path fill="#EF840F" d="M300.356,222.028c-3.113,0-6.081-0.367-8.355-1.033c-1.093-0.319-1.752-0.627-2.122-0.839v-27.788
						c0.608-0.345,1.864-0.872,4.007-1.291c1.947-0.379,4.187-0.58,6.473-0.58c2.287,0,4.526,0.201,6.477,0.581l76.298,14.876
						c0.608,0.118,1.146,0.246,1.616,0.375c-9.737,3.996-21.367,7.354-34.603,9.99c-14.513,2.888-31.083,4.847-47.918,5.665
						C301.602,222.014,300.977,222.028,300.356,222.028z"/>
					<path d="M300.358,194.497c2.034,0,4.01,0.175,5.71,0.506l63.584,12.397c-6.226,1.875-13.004,3.544-20.286,4.995
						c-14.323,2.85-30.69,4.784-47.34,5.593c-0.534,0.026-1.097,0.04-1.67,0.04c-2.359,0-4.667-0.242-6.478-0.673v-22.186
						c0.233-0.055,0.489-0.111,0.77-0.166C296.351,194.672,298.325,194.497,300.358,194.497 M300.358,186.498
						c-2.5,0-5,0.218-7.239,0.654c-4.48,0.875-7.24,2.488-7.24,4.235v29.753c0,1.419,1.822,2.767,4.998,3.694
						c2.65,0.776,6.021,1.194,9.479,1.194c0.686,0,1.377-0.016,2.066-0.05c17.037-0.828,33.806-2.813,48.505-5.737
						c14.274-2.843,26.761-6.525,37.102-10.95c2.602-1.115,3.645-2.557,2.85-3.949c-0.791-1.396-3.339-2.604-6.98-3.314
						L307.6,187.151C305.359,186.715,302.859,186.498,300.358,186.498L300.358,186.498z"/>
				</g>
			</g>
			<circle cx="176.732" cy="118.025" r="6.903"/>
			<circle cx="194.393" cy="89.514" r="6.903"/>
			<circle cx="257.256" cy="89.514" r="6.903"/>
			<circle cx="225.86" cy="74.811" r="6.903"/>
			<circle cx="290.368" cy="74.811" r="6.903"/>
			<circle cx="225.86" cy="100.32" r="6.903"/>
			<circle cx="257.256" cy="61.004" r="6.903"/>
			<circle cx="204.283" cy="118.025" r="6.903"/>
		</g>
	</g>
</g>
</svg>
