<?xml version="1.0" encoding="utf-8"?>
<!-- Generator: Adobe Illustrator 16.0.0, SVG Export Plug-In . SVG Version: 6.00 Build 0)  -->
<!DOCTYPE svg PUBLIC "-//W3C//DTD SVG 1.1//EN" "http://www.w3.org/Graphics/SVG/1.1/DTD/svg11.dtd">
<svg version="1.1" xmlns="http://www.w3.org/2000/svg" xmlns:xlink="http://www.w3.org/1999/xlink" x="0px" y="0px"
	 width="566.93px" height="566.93px" viewBox="0 0 566.93 566.93" enable-background="new 0 0 566.93 566.93" xml:space="preserve">
<g id="fond" display="none">
	
		<rect x="-11509.055" y="-10799.898" display="inline" fill-rule="evenodd" clip-rule="evenodd" fill="#58595B" width="15942.492" height="15814.695"/>
</g>
<g id="en_cours">
</g>
<g id="fini">
	<g>
		<path fill="#CCAC6C" d="M349.584,150.333c116.472,0,70.313,237.554,64.69,273.612l-73.005,5.498l-7.06-150.722L349.584,150.333z"
			/>
		
			<path fill="#CCAC6C" stroke="#000000" stroke-width="8" stroke-linecap="round" stroke-linejoin="round" stroke-miterlimit="10" d="
			M352.11,394.424c4.027-0.934,8.217-1.443,12.527-1.443c30.52,0,55.26,24.74,55.26,55.26c0,30.519-24.74,55.26-55.26,55.26
			c-55.822,3.798-105.623-17.293-147.264-17.422c-7.73,1.177-15.304,2.018-22.512,2.428l-0.006,0.001l0.003-0.001
			c-31.451,1.787-55.921-4.639-55.921-27.199c0-81.876,45.838-77.075,84.566-142.458c60.226-101.671,106.86-86.896,126.079-168.516"
			/>
		
			<path fill="#826D46" stroke="#000000" stroke-width="8" stroke-linecap="round" stroke-linejoin="round" stroke-miterlimit="10" d="
			M194.856,488.507c91.111-0.048,103.508,19.503,169.781,14.993c9.525-0.649,23.023-33.803-36.578-30.278
			C273.9,476.424,194.856,488.507,194.856,488.507z"/>
	</g>
</g>
</svg>
