<?xml version="1.0" encoding="utf-8"?>
<!-- Generator: Adobe Illustrator 16.0.0, SVG Export Plug-In . SVG Version: 6.00 Build 0)  -->
<!DOCTYPE svg PUBLIC "-//W3C//DTD SVG 1.1//EN" "http://www.w3.org/Graphics/SVG/1.1/DTD/svg11.dtd">
<svg version="1.1" xmlns="http://www.w3.org/2000/svg" xmlns:xlink="http://www.w3.org/1999/xlink" x="0px" y="0px" width="566.9px"
	 height="566.9px" viewBox="0 0 566.9 566.9" enable-background="new 0 0 566.9 566.9" xml:space="preserve">
<g id="fond" display="none">
	
		<rect x="-8889.9" y="-8861.9" display="inline" fill-rule="evenodd" clip-rule="evenodd" fill="#F2F2F2" width="15942.5" height="15814.7"/>
</g>
<g id="en_cours">
</g>
<g id="fini">
	<g>
		<path fill="#C2957F" d="M437.1,366.6c0,0,0.7-0.1,2.1-0.3c0.7-0.1,1.5-0.2,2.5-0.3c1.2-0.1,2.7-0.2,4.3-0.4
			c1.7-0.2,3.4-0.2,5.3-0.2c1.9-0.1,4,0.1,6.3,0.1c4.5,0.3,9.8,0.9,15.6,2.4c5.8,1.5,12.1,3.7,18.4,7.3c6.3,3.5,12.7,8.3,18.3,14.5
			c1.4,1.5,2.8,3.2,4.1,4.9c1.3,1.7,2.6,3.5,3.7,5.4c2.4,3.7,4.5,7.8,6.1,12.1c3.4,8.7,5.3,18.4,4.8,28.6c-0.4,10.1-3,20.6-8.1,30.2
			c-5,9.6-12.3,18.1-21.1,24.9c-4.4,3.4-9,6.4-13.9,9c-4.9,2.6-10,4.8-15.2,6.7c-10.5,3.7-21.4,6-32.6,7.4
			c-22.3,2.6-45.1,1.4-67.7-2c-11.4-1.6-22.8-4.1-33.9-7.2c-11.1-3.1-22.1-6.7-32.9-10.6c-21.6-7.8-42.6-16.6-63.2-25
			c-20.6-8.4-40.9-16.5-61-22.8c-10-3.1-19.9-5.8-29.8-7.7c-9.8-1.9-19.5-3-28.9-2.8c-9.4,0.1-18.4,1.6-26.5,4.6c-1,0.4-2,0.7-3,1.2
			l-1.5,0.7l-0.7,0.3c0,0-0.2,0.1-0.1,0l-0.2,0.1l-0.4,0.2c-1,0.5-2,1-3,1.6l-1.5,0.8c-0.5,0.3-0.9,0.5-1.4,0.8
			c-1.8,1.1-3.6,2.1-5.2,3.3c-0.9,0.6-1.7,1.2-2.5,1.8c-0.8,0.6-1.6,1.3-2.4,1.9c-1.6,1.2-3.1,2.6-4.6,4c-0.8,0.6-1.4,1.4-2.1,2.1
			c-0.7,0.7-1.4,1.4-2,2.1c-2.6,2.9-5,5.9-7,9c-4.1,6.2-7.1,12.7-9.1,19c-4,12.7-4.4,24.7-3.1,34.1c1.3,9.5,4.3,16.5,6.9,20.7
			c0.3,0.5,0.7,1,1,1.4c0.3,0.4,0.6,0.9,0.9,1.2c0.6,0.7,1.1,1.3,1.6,1.7c0.9,0.8,1.4,1.3,1.4,1.3l0.2,0.2c0.9,0.8,0.9,2.2,0.1,3.1
			c-0.8,0.9-2.2,0.9-3,0.2c0,0-0.6-0.5-1.7-1.5c-0.6-0.5-1.2-1.2-1.9-2c-0.4-0.4-0.7-0.9-1.1-1.4c-0.4-0.5-0.8-1-1.2-1.6
			c-3.2-4.7-6.6-12.3-8.2-22.5c-1.6-10.1-1.5-22.9,2.5-36.7c2-6.9,5.1-14,9.4-20.8c2.1-3.5,4.7-6.7,7.4-10c0.7-0.8,1.4-1.6,2.2-2.4
			c0.7-0.8,1.4-1.6,2.2-2.3c1.6-1.5,3.1-3.1,4.9-4.4c0.9-0.7,1.7-1.4,2.6-2.1c0.9-0.7,1.8-1.3,2.7-2c1.8-1.4,3.8-2.6,5.8-3.9
			c0.5-0.3,1-0.6,1.5-0.9l1.5-0.8c1-0.5,2-1.1,2.9-1.6l0.4-0.2l0.2-0.1l0.3-0.2l0.8-0.4l1.6-0.8c1.1-0.5,2.2-1,3.3-1.4
			c9-3.7,18.9-5.5,29.1-5.9c10.1-0.4,20.5,0.5,30.8,2.1c10.3,1.7,20.7,4.2,31.1,7.1c20.7,5.9,41.5,13.5,62.5,21.3
			c21,7.8,42.1,15.9,63.4,22.8c10.7,3.5,21.4,6.6,32.1,9.2c10.7,2.6,21.4,4.6,32.2,5.8c21.6,2.5,43.1,2.9,63-0.1
			c9.9-1.6,19.5-4,28.1-7.5c4.4-1.7,8.5-3.8,12.3-6c3.9-2.2,7.4-4.8,10.6-7.5c6.5-5.4,11.4-11.9,14.7-18.6c3.3-6.8,4.7-14,4.7-20.8
			c0-6.9-1.6-13.4-4.1-19c-1.2-2.9-2.8-5.5-4.4-7.9c-0.8-1.2-1.7-2.3-2.6-3.4c-1-1-1.8-2.1-2.8-3.1c-3.8-3.9-8.2-6.7-12.4-8.8
			c-4.2-2.1-8.4-3.4-12.3-4.2c-3.9-0.8-7.5-1-10.7-1.1c-1.6,0-3,0-4.4,0.1c-1.3,0.1-2.6,0.2-3.6,0.3c-1,0.1-1.9,0.2-2.7,0.3
			c-1,0.2-1.8,0.3-2.5,0.5c-1.4,0.2-2,0.4-2,0.4c-7.6,1.4-15-3.7-16.3-11.3c-1.4-7.6,3.7-15,11.3-16.3
			C436.6,366.7,436.8,366.6,437.1,366.6L437.1,366.6z"/>
		<g>
			<path fill="#3A4856" d="M273.2,61.7c2.4-0.5,9.5-1.5,18.5-0.7c0.4-1.5,0.7-3,0.9-4.5c0-0.1,0-0.2,0-0.2c0,0,0-0.1,0-0.1
				c0.5-3.2,0.7-6.2,0.7-9.1c0,0,0,0,0,0c0-0.5,0-1.1-0.1-1.6c-0.4-8.4-3.1-16.3-9.2-23.2c-1.3-1.5-3.2-2.6-5-3.7
				c-2.4-1.5-5.1-2.6-7.9-3.3c-0.2,0-0.3-0.1-0.5-0.1c-0.2-0.1-0.5-0.1-0.7-0.2c-2.2-0.5-4.4-0.8-6.7-0.7c-7.5-0.1-15.1,2.3-20.8,7
				c-1.8,1.5-3.6,2.9-5.2,4.6c-0.4,0.4-0.8,0.9-1,1.3c-1,1-2,2.2-2.9,3.3C257.4,44,270.4,58.3,273.2,61.7z"/>
			<path fill="#3A4856" d="M441.1,323c-1.6-4.9-3.8-9.6-5.5-14.5c-1.5-4.2-2.7-8.4-4.3-12.5c-3.8-9.3-7.8-18.5-11.7-27.8
				c-5.1-12.2-12.6-23-19.8-34c-5.6-8.5-11.1-17-17.5-24.8c-6.5-8-14.1-15.2-21.2-22.8c-8.1-8.6-16.7-16.7-26.6-23.1
				c-7-4.4-14.8-7.7-22.1-11.7c-4-2.2-6.8-5.6-8.3-10.7c2.1,0,3.8,0,5.4,0c2.7,0,4.5-0.6,5.5-2.1c-0.6-1-1-2.1-1-3.4
				c0-3.6,2.9-6.5,6.5-6.5s6.5,2.9,6.5,6.5c0,0.4,0,0.7-0.1,1.1c1,0.5,2,0.6,3.4,0c6.4-2.6,11-7.1,13.4-13.6
				c4.9-13.5,1.3-25.6-6.5-36.8c-6.7-9.6-16.4-15.1-27.3-18.9c-5.3-1.8-10.7-2.9-16.2-3.4c-0.1,0-0.1,0-0.2,0
				c-0.4-0.1-0.9-0.1-1.3-0.1c-0.3,0-0.6-0.1-0.9-0.1c0,0,0,0,0,0c-10.4-0.9-17.9,0.9-18,0.9L272,65l-0.6-0.8
				c-0.2-0.2-13-16.3-40.1-31.5c0,0,0,0,0,0.1c-0.3-0.1-0.5-0.3-0.8-0.4c-0.8-0.5-1.6-1-2.4-1.4c-4.1-2.2-8.5-4.3-13.2-6.4
				c-7.9-3.3-16-5.9-24.2-8.2c-8.4-2.4-16.9-4.4-25.4-6.4c-2.8-0.7-5.7-0.7-8.5-1.1c-1-0.1-2-0.4-3-0.7c-3.6,0-7.2,0-10.8,0
				c-1.1,0.2-2.2,0.5-3.3,0.7c-2.3,0.2-4.5,0.4-6.8,0.6c-6.2,2.3-8,5-6,9.4c0.6,1.3,1.7,2.4,2.6,3.6c5,4.5,10,9,15.1,13.4
				c7.4,6.4,15.7,11.6,20.4,20.8c4.6,8.9,8.3,17.9,9.7,27.8c0.6,4.5,1,9,1.7,13.5c1.9,12.8,3.5,25.5,3.1,38.5
				c-0.2,8,0,16.1,0.7,24.1c0.7,8.4,2,16.8,3.3,25.1c0.9,5.8,2,11.7,3.4,17.4c1,4.1,1.2,4.2-2.7,5.5c4.7,0.3,6.2,1.9,8.2,6.2
				c2.5,5.3,5.8,10.3,8.7,15.5c1.2,1.3,2.3,2.6,3.5,3.9c2.8,3.3,5.3,6.9,8.5,9.7c7.9,7.1,16.2,13.7,24,20.9
				c6.3,5.8,10.9,12.8,14.1,20.8c0.5,1.3,0.4,3,0.3,4.5c-0.2,2.4-1.1,4.4-2.4,6.2c-0.2,0.2-0.4,0.5-0.6,0.7
				c-3.1,3.3-8.4,6.5-8.4,6.5s2,1.7,5.1,3c0.5,0.3,1,0.5,1.7,0.7c0.2,0.1,0.4,0.1,0.7,0.1c1,0.3,2.2,0.5,3.4,0.6l0,0
				c1.9,0.3,3.8,0.4,5.7,0.6c3.1,0.2,4,1.2,2.8,4.2c-0.4,0.9-0.8,1.8-1.3,2.6c-3.5,6.4-7.6,4.7-7.6,4.7s2.4,3.3,8,5.6
				c0.2,0.1,0.4,0.2,0.7,0.3c1.2,0.5,2.5,0.9,2.5,1.4c0.1,1.8-0.8,3.8-1.3,5.6c-0.3-0.1-0.5-0.2-0.8-0.3c-0.2-1.1,0.7-3.8,0.5-4.9
				c-1,0-2.8-1.4-3.1-1c-1.9,2.6-4.2,4-6.5,3.7c-5-2.1-5.2-2.4-5.2-2.4s-0.5,4.5,1.2,6.6c0.8,1.5,1.8,3,2.6,4.4
				c-2.2,2.9-5,1.9-7.6,1.8c-4.4-0.3-9.3,2.3-9.3,2.3s6.1,1.9,8.8,3.8c0.3,0.2,0.5,0.4,0.8,0.6c1.6,1.4,2,2.9,1.3,5.5
				c-1.6,6-2.9,12.1-3.4,18.3c-0.7,8.5-0.2,16.8,3.8,24.8c3.3,6.7,6.8,12.9,12.9,17.4c2.6,1.9,4.9,4.2,7.3,6.4
				c7.6,2.5,15,5.5,22.8,7.4c5.3,1.3,11,1,16.5,1.4c1.8,0.1,3.4,0.1,2,2.6c0.5,0.1,0.9,0.2,1.3,0.2c4.3-0.3,8.6-0.6,12.9-0.7
				c0.8,0,1.7,0.4,2.5,0.6c0.3,0,0.6,0,0.8,0c3,0,6.1-0.1,9.1,0c5.7,0.2,11.5,0.5,17.2,0.9c3.3,0.2,6.5,0.8,9.8,1.1
				c3.4,0.3,6.9,0.4,10.3,0.6c0.3,0,0.6,0,0.8,0c3.1,0,6.2,0,9.3,0c0.3,0,0.5,0,0.8,0c5.7-0.8,11.4-1.4,17-2.5
				c4.2-0.8,8.3-2.4,12.7-0.9c1,0.3,2.2,0,3.3,0c-1.2-0.7-2.4-1.5-4-2.5c3.6-3.8,6.7-7.3,10-10.6c3.7-3.6,6.8-7.6,9.1-12.3
				c1.4-2.8,3.9-5.1,5.8-7.6c0-1.3-0.4-2.8,0-3.9c2-5.6,4.5-11,6.4-16.7c1.1-3.2,1.6-6.5,2.4-9.8c0.6-5.9,1.9-11.8,1.8-17.7
				C444.4,340.7,444,331.6,441.1,323z M258.9,236.3c-1.4-1.2-2.2-3-3.9-5.4c-1.1,2.7-1.7,4.9-2.7,6.9c-0.5,1-1.6,2.4-2.3,2.3
				c-1.1-0.1-2.3-1.1-3-2.1c-1-1.4-1.5-3.1-2.2-4.7c-0.3,0.1-0.6,0.2-0.9,0.3c-0.3,1.3-0.5,2.6-1,3.9c-0.7,1.9-2.2,3-3.7,1.3
				c-3-3.7-6-7.5-8.3-11.7c-2.7-4.9,0.3-11.8,4.2-15.8c3.8-3.9,8.9-3.9,13.4-5.1c2.3-0.6,5.4,0.2,7.6,1.5
				c8.9,5.2,12.9,13.9,10.3,24.2c-0.5,2-2.3,3.8-3.9,5.2C261.9,237.6,259.8,237.1,258.9,236.3z M288.8,423.4
				c-0.6-0.2-1.4-0.4-2.4-0.8c-1-0.4-2.2-1-3.6-1.7c-1.3-0.8-2.8-1.7-4.3-2.9c-0.4-0.3-0.7-0.6-1.1-0.9c-0.4-0.3-0.7-0.7-1.1-1
				c-0.8-0.7-1.5-1.4-2.3-2.2c-1.5-1.6-3-3.4-4.3-5.3c-1.4-1.9-2.7-4-3.9-6.2c-1.2-2.2-2.2-4.5-3.2-6.8c-1-2.3-1.8-4.7-2.5-7.1
				c-0.7-2.4-1.3-4.8-1.7-7.1c-0.2-1.2-0.4-2.3-0.6-3.4c-0.1-1.1-0.3-2.2-0.3-3.3c-0.2-2.2-0.3-4.2-0.2-6.1c0-1.9,0.2-3.6,0.3-5.1
				c0.2-1.5,0.4-2.8,0.6-3.9c0.2-1.1,0.5-1.9,0.6-2.5c0.2-0.6,0.2-0.9,0.2-0.9s0,0.3-0.1,0.9c-0.1,0.6-0.2,1.4-0.2,2.5
				c0,0.5-0.1,1.1-0.1,1.8c0,0.7-0.1,1.4,0,2.1c0,1.5,0,3.2,0.2,5c0.1,0.9,0.2,1.9,0.3,2.9c0.1,1,0.2,2,0.4,3.1
				c0.3,2.1,0.7,4.3,1.2,6.5c0.5,2.2,1.1,4.5,1.8,6.9c0.7,2.3,1.5,4.6,2.4,6.9c0.9,2.3,1.9,4.5,3,6.6c1.1,2.1,2.3,4.2,3.5,6.1
				c1.2,1.9,2.6,3.7,3.9,5.3c1.4,1.6,2.7,3.1,4,4.3c1.3,1.3,2.6,2.3,3.9,3.2c1.2,0.9,2.3,1.6,3.3,2.1c0.9,0.6,1.7,0.9,2.2,1.2
				c0.5,0.3,0.8,0.4,0.8,0.4S289.3,423.6,288.8,423.4z M349.2,426c-1.9-1-3.7-2.1-5.6-3.2c-1.8-1.1-3.6-2.3-5.4-3.5
				c-1.7-1.3-3.5-2.5-5.1-3.8c-1.6-1.4-3.3-2.7-4.9-4.2c-0.8-0.7-1.6-1.4-2.3-2.2l-2.2-2.3c-0.8-0.8-1.4-1.6-2.1-2.4
				c-0.7-0.8-1.4-1.6-2-2.5l-1.9-2.6c-0.6-0.9-1.2-1.8-1.7-2.8c-0.6-0.9-1.1-1.9-1.6-2.8l-0.8-1.4c-0.2-0.5-0.5-1-0.7-1.5
				c-0.9-2-1.7-4-2.4-6.1c-0.3-1-0.7-2.1-0.9-3.1c-0.2-1.1-0.5-2.1-0.7-3.2c-0.2-1.1-0.4-2.2-0.6-3.2c-0.1-1.1-0.3-2.2-0.3-3.3
				c-0.1-2.2-0.2-4.4,0-6.6c0.1-2.2,0.4-4.4,0.8-6.5c0.4-2.1,0.9-4.3,1.6-6.4c0.6-1.7,1.2-3.3,1.9-4.9c-0.1,0-0.3-0.1-0.4-0.1
				c-0.6-0.2-1.1-0.3-1.7-0.4c-0.6-0.1-1.1-0.2-1.7-0.3l-0.9-0.1c-0.3-0.1-0.6,0-0.9-0.1l-1.7-0.1l-1.7,0c-0.3,0-0.6,0-0.8,0
				l-0.8,0.1l-1.7,0.2l-3.7,0.4l1.8-3.2l0,0l1.2-1.9c0.4-0.6,0.8-1.3,1.3-1.8l1.4-1.8c0.4-0.6,1-1.1,1.5-1.7c0.5-0.5,1-1.1,1.6-1.6
				l1.7-1.5c0.6-0.5,1.2-0.9,1.8-1.4l0.9-0.7c0.3-0.2,0.6-0.4,0.9-0.6c0.6-0.4,1.2-0.8,1.9-1.2l2-1.1l2-0.9c0.7-0.3,1.4-0.6,2.1-0.8
				c1.4-0.5,2.8-1,4.3-1.3c0.7-0.2,1.4-0.3,2.2-0.5c0.1,0,0.1,0,0.2,0l-0.4-0.5c-0.6-0.7-1.1-1.5-1.6-2.2l-3.1-4.5l-1.2-1.7l2.1-0.4
				l0,0c0.9-0.1,1.9-0.3,2.8-0.3c0.9-0.1,1.9-0.1,2.8-0.1c0.5,0,0.9,0,1.4,0.1c0.5,0,0.9,0,1.4,0.1c0.9,0.1,1.8,0.2,2.7,0.4
				c0.9,0.2,1.8,0.3,2.7,0.6c0.9,0.2,1.8,0.5,2.6,0.7c1.5,0.4,2.9,1,4.3,1.6l-1.8-6.6l2.8,7.2l0.3,0.8l-0.9-0.3
				c-1.6-0.6-3.4-1-5.1-1.4c-0.9-0.2-1.7-0.3-2.6-0.4c-0.9-0.1-1.7-0.2-2.6-0.3c-0.9-0.1-1.7-0.1-2.6-0.1c-0.4,0-0.9,0-1.3,0
				c-0.4,0-0.9,0-1.3,0.1c-0.9,0.1-1.7,0.1-2.5,0.3c-0.2,0-0.3,0.1-0.5,0.1l1.7,2.8c0.5,0.7,0.9,1.5,1.4,2.2l1.5,2.2v0l1.2,1.6
				l-2.1,0.3c-0.6,0.1-1.3,0.2-2,0.4c-0.7,0.1-1.3,0.3-2,0.5c-1.3,0.4-2.6,0.9-3.9,1.4c-0.6,0.3-1.3,0.5-1.9,0.9l-1.8,1l-1.8,1.1
				c-0.6,0.3-1.1,0.8-1.7,1.2c-0.3,0.2-0.6,0.4-0.8,0.6l-0.8,0.7c-0.5,0.4-1.1,0.8-1.6,1.3l-1.5,1.4c-0.5,0.5-0.9,1-1.4,1.5
				c-0.4,0.5-0.9,1-1.3,1.6l-1.2,1.7c-0.2,0.2-0.3,0.4-0.5,0.7c0.1,0,0.2,0,0.3,0l1.9,0.1c0.6,0.1,1.3,0.2,1.9,0.3
				c0.3,0.1,0.6,0.1,0.9,0.2l0.9,0.2c0.6,0.1,1.2,0.3,1.8,0.5c0.6,0.2,1.2,0.4,1.8,0.6c0.6,0.2,1.2,0.4,1.8,0.7l0,0l1,0.4l-0.5,1.2
				c-0.7,1.8-1.3,3.9-1.8,5.9c-0.5,2-0.9,4-1.2,6.1c-0.3,2-0.5,4.1-0.6,6.2c-0.1,2.1-0.1,4.1,0,6.2c0,1,0.2,2,0.3,3.1
				c0.1,1,0.3,2,0.4,3.1c0.2,1,0.4,2,0.6,3c0.2,1,0.5,2,0.8,3c0.6,2,1.3,3.9,2.1,5.8c0.2,0.5,0.4,1,0.6,1.4l0.7,1.4
				c0.5,0.9,0.9,1.9,1.4,2.8c0.5,0.9,1,1.8,1.6,2.7l1.7,2.6c0.6,0.9,1.3,1.7,1.9,2.5c0.6,0.8,1.2,1.7,1.9,2.5l2.1,2.4
				c0.7,0.8,1.5,1.5,2.2,2.3c1.4,1.5,3,2.9,4.6,4.3c1.6,1.4,3.3,2.7,4.9,4c1.7,1.3,3.4,2.5,5.1,3.8c1.8,1.2,3.5,2.3,5.3,3.5l5.5,3.3
				L349.2,426z"/>
		</g>
		<path fill-rule="evenodd" clip-rule="evenodd" fill="#C2957F" d="M306.3,431.6c4.3-0.3,8.6-0.6,12.9-0.7c0.8,0,1.7,0.4,2.5,0.6
			c0.3,0,0.6,0,0.8,0c3,0,6.1-0.1,9.1,0c5.7,0.2,11.5,0.5,17.2,0.9c3.3,0.2,6.5,0.8,9.8,1.1c3.4,0.3,6.9,0.4,10.3,0.6
			c0.3,0,0.6,0,0.8,0c3.1,0,6.2,0,9.3,0c0.3,0,0.5,0,0.8,0c5.7-0.8,11.4-1.4,17-2.5c4.2-0.8,8.3-2.4,12.7-0.9c1,0.3,2.2,0,3.3,0
			c3.6,1.2,6.1,3.3,6.1,7.5c0,0.3,0,0.6,0,0.8c-0.2,3.6-2.4,5.9-6.4,6.7c-8.8,1.6-17.5,3.3-26.6,2.8c-6-0.4-12.1-0.2-18.2,0
			c-10.1,0.3-20.2,0.9-30.4,1.3c-4.8,0.2-9.7-0.2-14.5,0.1c-3.9,0.2-8,0.5-11.8,1.6c-3,0.8-4.5,3.7-5,6.8c-0.6,4-2.1,4.7-5.5,2.7
			c-2.7-1.6-5.3-3.1-7.7,0.9c-1.5,2.5-4.1,1.4-5.6-0.2c-2.2-2.5-3.6-1.6-5.4,0.3c-0.5,0.6-1.9,0.4-2.9,0.5c-0.2-0.2-0.4-0.4-0.6-0.6
			c-3.3-5.6-3.2-11.7-1.1-17.2c1.9-4.7,6.6-7.7,11.6-9.1C294.9,434,300.7,432.9,306.3,431.6z"/>
		<path fill-rule="evenodd" clip-rule="evenodd" fill="#C2957F" d="M263.7,420c7.6,2.5,15,5.5,22.8,7.4c5.3,1.3,11,1,16.5,1.4
			c1.8,0.1,3.4,0.1,2,2.6c-9.7,0.9-19.3,1.9-28.8,4.6c-2.4,0.7-5.3,0.3-7.9,0.2c-6.7-0.2-13.3-0.4-20-0.6c-0.3,0-0.6,0-0.8,0
			c-1.3,0-2.6,0-3.9,0c-0.3,0-0.6,0-0.8,0c-1.7,2.1-3.7,4.1-5.1,6.3c-1.8,2.8-3.7,3.4-5.4,0.7c-2.2-3.3-4.1-3.9-6.9-1
			c-0.2,0.2-0.9,0.1-1.3,0.1c-0.3,0-0.6,0-0.8,0c-0.7-0.4-1.4-0.6-2-1.1c-2.3-1.7-4.4-3.4-7.4-0.8c-1.8,1.5-5-1.1-5.3-4.5
			c-0.8-7.2,2.1-12.1,10.4-12.7c7.6-0.5,15-1.9,22.6-2.5c4.8-0.4,9.6-0.1,14.4-0.1C258.5,420,261.1,420,263.7,420z"/>
		<path fill-rule="evenodd" clip-rule="evenodd" fill="#C2957F" d="M184.1,208.6c4.7,0.3,6.2,1.9,8.2,6.2c2.5,5.3,5.8,10.3,8.7,15.5
			c0.1,0.7,0,1.6,0.4,2.2c1.6,2.2,1.1,4.4-0.5,6c-1.8,1.8-4.1,1.4-6.3,0.1c-0.9-0.6-2-0.9-3-1.3c-0.3,1-0.5,2.1-0.9,3.1
			c-0.3,1-0.6,2.4-1.3,2.6c-0.8,0.2-2-0.4-2.9-1c-1.8-1.3-3.4-2.8-5.2-4.3c-0.5,1.1-0.7,1.3-0.7,1.5c-0.1,2,0,4.8-2.4,5
			c-1.3,0.1-3.5-1.8-4.1-3.3c-2-4.3-4.3-8.8-4.7-13.3c-0.5-5.4,2.8-10.2,6.6-14C178.4,211.4,181.5,210.2,184.1,208.6z"/>
		<path fill-rule="evenodd" clip-rule="evenodd" fill="#C2957F" d="M242.8,435.5c0.3,0,0.6,0,0.8,0c-0.2,0.2-0.4,0.3-0.5,0.5
			C243,435.9,242.9,435.7,242.8,435.5z"/>
		<path fill-rule="evenodd" clip-rule="evenodd" fill="#C2957F" d="M247.5,435.5c0.3,0,0.6,0,0.8,0c-0.2,0.2-0.4,0.3-0.5,0.5
			C247.7,435.9,247.6,435.7,247.5,435.5z"/>
		<path fill-rule="evenodd" clip-rule="evenodd" fill="#C2957F" d="M419.1,439c0-0.3,0-0.6,0-0.8c0.2,0.2,0.3,0.4,0.5,0.5
			C419.4,438.8,419.3,438.9,419.1,439z"/>
		<path fill-rule="evenodd" clip-rule="evenodd" fill="#C2957F" d="M223.2,441.6c0.3,0,0.6,0,0.8,0c-0.2,0.2-0.4,0.3-0.5,0.5
			C223.4,441.9,223.3,441.8,223.2,441.6z"/>
		<path fill-rule="evenodd" clip-rule="evenodd" fill="#C2957F" d="M278.8,461.8c0.2,0.2,0.4,0.4,0.6,0.6
			C279.1,462.2,279,462,278.8,461.8z"/>
		<path fill-rule="evenodd" clip-rule="evenodd" fill="#C2957F" d="M255,231c-1.1,2.7-1.7,4.9-2.7,6.9c-0.5,1-1.6,2.4-2.3,2.3
			c-1.1-0.1-2.3-1.1-3-2.1c-1-1.4-1.5-3.1-2.2-4.7c-0.3,0.1-0.6,0.2-0.9,0.3c-0.3,1.3-0.5,2.6-1,3.9c-0.7,1.9-2.2,3-3.7,1.3
			c-3-3.7-6-7.5-8.3-11.7c-2.7-4.9,0.3-11.8,4.2-15.8c3.8-3.9,8.9-3.9,13.4-5.1c2.3-0.6,5.4,0.2,7.6,1.5
			c8.9,5.2,12.9,13.9,10.3,24.2c-0.5,2-2.3,3.8-3.9,5.2c-0.6,0.5-2.7,0-3.6-0.7C257.6,235.2,256.7,233.4,255,231z"/>
		<path fill-rule="evenodd" clip-rule="evenodd" fill="#C2957F" d="M322.6,431.4c-0.3,0-0.5,0-0.8,0
			C322.1,431.4,322.3,431.4,322.6,431.4z"/>
		<path fill-rule="evenodd" clip-rule="evenodd" fill="#C2957F" d="M369.9,434.1c-0.3,0-0.5,0-0.8,0
			C369.3,434.1,369.6,434.1,369.9,434.1z"/>
		<path fill-rule="evenodd" clip-rule="evenodd" fill="#C2957F" d="M380,434.1c-0.3,0-0.5,0-0.8,0
			C379.4,434.1,379.7,434.1,380,434.1z"/>
		<circle fill-rule="evenodd" clip-rule="evenodd" fill="#ED6A56" cx="235" cy="69" r="10.3"/>
		<circle fill-rule="evenodd" clip-rule="evenodd" fill="#C2957F" cx="133.2" cy="16.9" r="7.1"/>
	</g>
</g>
</svg>
