<?xml version="1.0" encoding="utf-8"?>
<!-- Generator: Adobe Illustrator 16.0.0, SVG Export Plug-In . SVG Version: 6.00 Build 0)  -->
<!DOCTYPE svg PUBLIC "-//W3C//DTD SVG 1.1//EN" "http://www.w3.org/Graphics/SVG/1.1/DTD/svg11.dtd">
<svg version="1.1" xmlns="http://www.w3.org/2000/svg" xmlns:xlink="http://www.w3.org/1999/xlink" x="0px" y="0px"
	 width="566.93px" height="566.93px" viewBox="0 0 566.93 566.93" enable-background="new 0 0 566.93 566.93" xml:space="preserve">
<g id="fond" display="none">
	
		<rect x="-6307.873" y="-8228.754" display="inline" fill-rule="evenodd" clip-rule="evenodd" fill="#58595B" width="15942.492" height="15814.695"/>
</g>
<g id="en_cours">
</g>
<g id="fini">
	<g>
		
			<rect x="205.051" y="78.18" transform="matrix(0.8829 -0.4695 0.4695 0.8829 -30.8645 135.6562)" fill="#4F5666" stroke="#000000" stroke-width="8" stroke-linecap="round" stroke-linejoin="round" stroke-miterlimit="10" width="103.075" height="103.076"/>
		
			<path fill="#CCAC6C" stroke="#000000" stroke-width="8" stroke-linecap="round" stroke-linejoin="round" stroke-miterlimit="10" d="
			M477.625,480.765c6.726,12.649-8.102,73.396-20.751,80.123l0,0c-12.649,6.726-28.355,1.925-35.082-10.724L180.88,97.113
			c-6.727-12.648-1.925-28.355,10.725-35.081l0,0c12.648-6.727,28.355-1.926,35.082,10.724c0,0,149.968,282.752,179.546,338.376
			C434.53,464.347,477.625,480.765,477.625,480.765z"/>
		
			<path fill="#4F5666" stroke="#000000" stroke-width="8" stroke-linecap="round" stroke-linejoin="round" stroke-miterlimit="10" d="
			M52.457,108.411C40.308,186.522,104,321.346,206.656,351.9l2.363-45.241c0,0-54.18-60.807,25.705-108.288l-47.836-89.96
			c0,0-84.221,58.673-100.913,8.711L52.457,108.411z"/>
		<g>
			<path fill="#4F5666" d="M225.297,133.117c-2.35,0-4.62-0.852-6.392-2.397c-4.038-3.526-4.454-9.68-0.929-13.718
				c1.845-2.114,4.515-3.327,7.324-3.327c2.35,0,4.62,0.852,6.392,2.397c1.957,1.707,3.131,4.074,3.308,6.665
				s-0.667,5.096-2.376,7.052C230.777,131.904,228.106,133.117,225.297,133.117z"/>
			<path d="M225.301,117.675c1.335,0,2.677,0.464,3.761,1.411c2.381,2.078,2.628,5.691,0.549,8.072
				c-1.132,1.296-2.719,1.959-4.314,1.959c-1.335,0-2.676-0.464-3.761-1.411c-2.381-2.079-2.625-5.692-0.546-8.073
				C222.12,118.337,223.707,117.675,225.301,117.675 M225.301,109.675L225.301,109.675c-3.965,0-7.733,1.712-10.339,4.698
				c-4.975,5.697-4.386,14.383,1.312,19.358c2.501,2.184,5.705,3.386,9.023,3.386c3.964,0,7.733-1.712,10.34-4.697
				c2.412-2.762,3.603-6.297,3.354-9.955c-0.249-3.655-1.907-6.996-4.668-9.406C231.822,110.876,228.618,109.675,225.301,109.675
				L225.301,109.675z"/>
		</g>
		<g>
			<path fill="#4F5666" d="M245.487,171.084c-2.351,0-4.621-0.852-6.393-2.398c-4.038-3.526-4.455-9.68-0.929-13.718
				c1.845-2.114,4.515-3.327,7.325-3.327c2.35,0,4.62,0.852,6.392,2.397c1.957,1.707,3.131,4.074,3.308,6.665
				c0.176,2.592-0.667,5.097-2.376,7.053C250.966,169.871,248.296,171.084,245.487,171.084z"/>
			<path d="M245.49,155.641c1.335,0,2.676,0.465,3.761,1.411c2.381,2.078,2.628,5.692,0.549,8.073
				c-1.132,1.296-2.718,1.959-4.313,1.959c-1.335,0-2.677-0.465-3.762-1.412c-2.381-2.079-2.625-5.692-0.546-8.073
				C242.309,156.303,243.895,155.641,245.49,155.641 M245.49,147.641L245.49,147.641c-3.965,0-7.734,1.713-10.339,4.698
				c-4.974,5.697-4.386,14.383,1.312,19.358c2.502,2.185,5.707,3.387,9.024,3.387c3.964,0,7.733-1.712,10.339-4.697
				c2.412-2.762,3.603-6.297,3.354-9.955c-0.249-3.656-1.907-6.997-4.668-9.407C252.011,148.842,248.807,147.641,245.49,147.641
				L245.49,147.641z"/>
		</g>
	</g>
	<g>
		
			<path fill="#CCAC6C" stroke="#000000" stroke-width="8" stroke-linecap="round" stroke-linejoin="round" stroke-miterlimit="10" d="
			M206.869,3.074"/>
		
			<path fill="#CCAC6C" stroke="#000000" stroke-width="8" stroke-linecap="round" stroke-linejoin="round" stroke-miterlimit="10" d="
			M364.954,1.909"/>
	</g>
</g>
</svg>
