<?xml version="1.0" encoding="utf-8"?>
<!-- Generator: Adobe Illustrator 16.0.0, SVG Export Plug-In . SVG Version: 6.00 Build 0)  -->
<!DOCTYPE svg PUBLIC "-//W3C//DTD SVG 1.1//EN" "http://www.w3.org/Graphics/SVG/1.1/DTD/svg11.dtd">
<svg version="1.1" xmlns="http://www.w3.org/2000/svg" xmlns:xlink="http://www.w3.org/1999/xlink" x="0px" y="0px"
	 width="566.93px" height="566.93px" viewBox="0 0 566.93 566.93" enable-background="new 0 0 566.93 566.93" xml:space="preserve">
<g id="fond" display="none">
	
		<rect x="-9283.912" y="-7908" display="inline" fill-rule="evenodd" clip-rule="evenodd" fill="#58595B" width="16654.492" height="16572.797"/>
</g>
<g id="en_cours">
</g>
<g id="fini">
	<g>
		<path fill="#FFFFFF" stroke="#000000" stroke-width="8" stroke-linejoin="round" stroke-miterlimit="10" d="M447.479,360.733
			c-0.437-1.149-0.709-2.261-1.164-3.354c-0.533-1.093-0.934-2.158-1.465-3.197c-0.607-1.036-1.18-2.046-1.713-3.034
			c-0.674-0.97-1.336-1.922-1.986-2.856c-0.16-0.232-0.306-0.466-0.473-0.693l-0.566-0.669c-0.373-0.44-0.742-0.876-1.107-1.308
			c-0.355-0.43-0.709-0.854-1.059-1.275c-0.338-0.421-0.793-0.81-1.172-1.209c-0.776-0.788-1.534-1.558-2.273-2.309
			c-1.602-1.453-3.189-2.796-4.641-4.056c-1.59-1.197-3.076-2.317-4.453-3.353c-0.275-0.177-0.527-0.337-0.795-0.507
			c-13.953,4.132-28.723,6.361-44.016,6.361c-85.468,0-154.754-69.286-154.754-154.754S295.128,29.768,380.596,29.768
			s154.753,69.285,154.753,154.753c0,53.976-27.641,101.489-69.531,129.182c0.446,0.667,0.894,1.345,1.341,2.038
			c0.885,1.515,1.789,3.068,2.717,4.658c0.446,0.808,0.937,1.566,1.354,2.437c0.415,0.866,0.836,1.74,1.261,2.625
			c0.416,0.883,0.837,1.774,1.261,2.675c0.211,0.448,0.424,0.898,0.637,1.351c0.188,0.479,0.375,0.959,0.564,1.442
			c0.739,1.94,1.482,3.904,2.197,5.912c0.6,2.105,1.184,4.24,1.748,6.398c0.5,2.201,0.836,4.52,1.221,6.806
			c0.316,2.319,0.4,4.754,0.559,7.146c0.018,2.436-0.086,4.917-0.229,7.386c-0.167,1.241-0.335,2.488-0.506,3.743
			c-0.185,1.247-0.331,2.494-0.675,3.735c-0.613,2.483-1.177,4.972-2.148,7.379c-1.643,4.888-4.25,9.46-7.141,13.736
			c-1.615,2.032-3.084,4.168-4.938,5.982c-0.902,0.924-1.76,1.888-2.711,2.756c-0.973,0.838-1.947,1.677-2.924,2.518
			c-0.951,0.862-2.031,1.567-3.073,2.312c-1.063,0.712-2.062,1.512-3.187,2.124l-3.328,1.876c-1.09,0.647-2.3,1.084-3.442,1.621
			c-2.28,1.102-4.722,1.813-7.098,2.596c-1.199,0.36-2.441,0.591-3.655,0.879c-1.217,0.281-2.43,0.546-3.673,0.672l-3.685,0.46
			c-1.233,0.08-2.471,0.093-3.695,0.131l-1.834,0.039c-0.611-0.012-1.223-0.074-1.83-0.109l-3.629-0.276
			c-4.781-0.706-9.449-1.744-13.729-3.561c-1.07-0.447-2.162-0.821-3.185-1.335c-1.013-0.526-2.021-1.053-3.027-1.577l-1.493-0.789
			c-0.492-0.268-0.945-0.6-1.416-0.896c-0.928-0.611-1.852-1.221-2.773-1.827c-3.146-2.173-6.449-4.434-9.645-6.44
			c-1.569-0.896-3.166-1.719-4.729-2.577c-1.574-0.839-3.123-1.685-4.766-2.355c-1.62-0.708-3.225-1.409-4.807-2.102
			c-0.787-0.371-1.59-0.66-2.393-0.933c-0.799-0.287-1.592-0.572-2.381-0.854c-3.129-1.259-6.254-2.095-9.268-3.051
			c-1.511-0.469-3.02-0.74-4.496-1.114c-0.742-0.176-1.477-0.351-2.203-0.522c-0.73-0.154-1.459-0.228-2.178-0.346
			c-5.764-1.078-11.15-1.065-15.911-0.706c-1.181,0.144-2.358,0.188-3.452,0.4c-1.102,0.214-2.164,0.42-3.186,0.618
			c-1.023,0.209-1.959,0.547-2.889,0.795c-0.463,0.134-0.914,0.265-1.354,0.393c-0.427,0.161-0.845,0.318-1.25,0.472
			c-3.319,1.13-5.688,2.597-7.315,3.576c-0.807,0.507-1.369,0.971-1.78,1.252c-0.403,0.292-0.61,0.443-0.61,0.443
			s0.17-0.19,0.501-0.56c0.339-0.359,0.804-0.946,1.497-1.623c0.358-0.326,0.761-0.689,1.202-1.091
			c0.438-0.409,0.929-0.846,1.507-1.252c0.568-0.426,1.179-0.884,1.832-1.372c0.668-0.464,1.42-0.893,2.198-1.384
			c3.151-1.869,7.28-3.788,12.313-5.043c5.004-1.294,10.913-2.153,17.32-1.903c0.803,0.02,1.621-0.005,2.438,0.052
			c0.813,0.073,1.633,0.149,2.461,0.226c0.832,0.078,1.672,0.156,2.52,0.235c0.846,0.088,1.715,0.13,2.551,0.319
			c1.697,0.317,3.424,0.639,5.176,0.965c0.881,0.156,1.756,0.357,2.613,0.622c0.867,0.245,1.74,0.492,2.619,0.741
			c0.877,0.259,1.76,0.52,2.648,0.782c0.892,0.256,1.783,0.53,2.646,0.88c1.747,0.66,3.515,1.327,5.302,2.003
			c1.807,0.618,3.566,1.472,5.372,2.268c1.813,0.782,3.625,1.614,5.495,2.387c3.494,1.684,6.906,3.331,10.656,4.938
			c0.809,0.326,1.622,0.653,2.436,0.98c0.408,0.154,0.8,0.348,1.219,0.474l1.254,0.358c0.828,0.24,1.66,0.481,2.492,0.724
			c0.828,0.23,1.695,0.319,2.531,0.49c3.354,0.709,6.775,0.695,10.078,0.543l2.465-0.33c0.408-0.058,0.816-0.088,1.219-0.165
			l1.201-0.291c0.798-0.199,1.593-0.358,2.374-0.567l2.296-0.801c0.377-0.142,0.766-0.23,1.129-0.407l1.091-0.52
			c0.719-0.357,1.456-0.638,2.146-1.031c1.354-0.847,2.744-1.545,3.953-2.544c0.608-0.486,1.281-0.854,1.827-1.406l1.695-1.529
			c0.581-0.475,1.026-1.109,1.545-1.638c0.493-0.558,1.032-1.057,1.437-1.685l1.301-1.747c0.416-0.587,0.736-1.241,1.113-1.837
			c0.371-0.602,0.742-1.191,1-1.851l0.868-1.872c0.895-2.592,1.688-5.09,1.839-7.651c0.344-2.502,0.095-5.003-0.16-7.36
			C447.981,363.037,447.769,361.874,447.479,360.733z"/>
		<g>
			<circle cx="423.151" cy="184.533" r="14.496"/>
			<circle cx="380.552" cy="184.533" r="14.496"/>
			<circle cx="337.954" cy="184.533" r="14.496"/>
		</g>
	</g>
	<g>
		<g>
			<g>
				<g>
					
						<path fill="#E5E2D3" stroke="#000000" stroke-width="8" stroke-linecap="round" stroke-linejoin="round" stroke-miterlimit="10" d="
						M266.394,335.303c24.24,9.458,50.149,7.273,71.561-3.841c-8.229-22.679-25.811-41.832-50.052-51.29
						c-24.24-9.457-50.149-7.271-71.562,3.842C224.57,306.689,242.152,325.845,266.394,335.303z"/>
				</g>
			</g>
			<g>
				<g>
					
						<path fill="#E5E2D3" stroke="#000000" stroke-width="8" stroke-linecap="round" stroke-linejoin="round" stroke-miterlimit="10" d="
						M85.794,335.303c-24.241,9.458-50.148,7.273-71.562-3.841c8.229-22.679,25.812-41.832,50.053-51.29
						c24.239-9.457,50.149-7.271,71.561,3.842C127.616,306.689,110.033,325.845,85.794,335.303z"/>
				</g>
			</g>
			<g>
				
					<path fill="#564432" stroke="#000000" stroke-width="8" stroke-linecap="round" stroke-linejoin="round" stroke-miterlimit="10" d="
					M135.846,284.014c-16.911-8.776-36.623-11.978-56.107-8.281c-4.595,6.526-7.303,14.478-7.303,23.067
					c0,14.39,7.58,27.001,18.96,34.083C112.742,322.797,128.266,304.904,135.846,284.014z"/>
			</g>
		</g>
		<g>
			
				<path fill="#CCAC6C" stroke="#000000" stroke-width="8" stroke-linecap="round" stroke-linejoin="round" stroke-miterlimit="10" d="
				M152.679,285.957c2.338-10.329-2.508-21.284-11.738-26.483c-4.498-2.531-9.724-3.092-14.595-4.596
				c-5.539-1.712-10.985-4.112-15.582-7.694c-10.902-8.498-13.23-22.27-11.592-35.322c0.604-4.809,3.176-10.269-0.448-14.493
				c-3.592-4.184-10.42-3.657-13.34,1.01c-6.934,10.105-11.239,23.058-11.953,35.25c-0.841,14.395,3.547,28.046,11.62,39.88
				c7.175,10.522,17.334,18.922,28.019,25.685c4.132,2.614,8.194,4.911,13.17,5.493c5.161,0.605,10.447-0.5,14.942-3.104
				C146.985,298.221,151.196,292.499,152.679,285.957C155.636,272.897,149.721,299.018,152.679,285.957z"/>
			
				<path fill="#CCAC6C" stroke="#000000" stroke-width="8" stroke-linecap="round" stroke-linejoin="round" stroke-miterlimit="10" d="
				M199.509,285.957c-2.337-10.329,2.507-21.284,11.74-26.483c4.497-2.531,9.723-3.092,14.594-4.596
				c5.54-1.712,10.983-4.112,15.581-7.694c10.902-8.498,13.231-22.27,11.593-35.322c-0.605-4.809-3.176-10.269,0.448-14.493
				c3.59-4.184,10.42-3.657,13.339,1.01c6.934,10.105,11.24,23.058,11.953,35.25c0.841,14.395-3.547,28.046-11.619,39.88
				c-7.177,10.522-17.336,18.922-28.02,25.685c-4.132,2.614-8.194,4.911-13.17,5.493c-5.16,0.605-10.446-0.5-14.941-3.104
				C205.202,298.221,200.992,292.499,199.509,285.957C196.553,272.897,202.467,299.018,199.509,285.957z"/>
		</g>
		
			<path fill="#E5E2D3" stroke="#000000" stroke-width="8" stroke-linecap="round" stroke-linejoin="round" stroke-miterlimit="10" d="
			M234.093,442.523c0-36.299,12.229-58.985,12.229-76.549c0-17.563,20.49-58.197-19.025-87.079
			c-27.93-20.416-9.469-16.195-51.202-16.195s-23.272-4.221-51.201,16.195c-39.518,28.882-19.026,69.517-19.026,87.079
			c0,17.563,12.229,40.25,12.229,76.549"/>
		
			<path fill="#C9AD8F" stroke="#000000" stroke-width="8" stroke-linecap="round" stroke-linejoin="round" stroke-miterlimit="10" d="
			M176.094,427.444c55.429,0,58.451,15.079,58.451,15.079c12.463,24.602-6.354,38.877-17.381,51.514
			c-9.073,10.395-30.597,4.376-40.617,4.376h-0.906c-10.021,0-31.544,6.019-40.617-4.376
			c-11.027-12.637-29.843-26.912-17.381-51.514C117.643,442.523,120.665,427.444,176.094,427.444z"/>
		<g>
			
				<path fill="#896E5B" stroke="#000000" stroke-width="8" stroke-linecap="round" stroke-linejoin="round" stroke-miterlimit="10" d="
				M146.567,486.862c4.926-7.831,2.027-18.518-6.471-23.86c-8.502-5.345-19.384-3.326-24.31,4.506
				c-0.14,0.219-0.267,0.439-0.391,0.662c3.901,10.381,13.12,18.41,19.627,25.867c0.036,0.041,0.077,0.078,0.115,0.119
				C139.781,493.463,143.988,490.959,146.567,486.862z"/>
			
				<path fill="#896E5B" stroke="#000000" stroke-width="8" stroke-linecap="round" stroke-linejoin="round" stroke-miterlimit="10" d="
				M236.791,468.17c-0.124-0.223-0.251-0.443-0.39-0.662c-4.926-7.832-15.809-9.851-24.31-4.506
				c-8.498,5.343-11.396,16.029-6.47,23.86c2.575,4.097,6.783,6.601,11.427,7.294c0.038-0.041,0.079-0.078,0.115-0.119
				C223.672,486.58,232.89,478.551,236.791,468.17z"/>
		</g>
		<g>
			
				<path fill="#564432" stroke="#000000" stroke-width="8" stroke-linecap="round" stroke-linejoin="round" stroke-miterlimit="10" d="
				M227.296,278.896c-27.93-20.416-9.469-16.195-51.202-16.195c-3.805,0-7.105-0.037-9.991-0.085
				c-8.014,14.692-12.571,31.541-12.571,49.455c0,50.188,35.749,92.021,83.172,101.435c3.592-20.328,9.618-35.196,9.618-47.53
				C246.321,348.412,266.812,307.777,227.296,278.896z"/>
		</g>
		<g>
			<circle cx="227.561" cy="359.647" r="12.856"/>
			<circle cx="124.625" cy="359.647" r="12.856"/>
		</g>
	</g>
</g>
</svg>
