<?xml version="1.0" encoding="utf-8"?>
<!-- Generator: Adobe Illustrator 16.0.0, SVG Export Plug-In . SVG Version: 6.00 Build 0)  -->
<!DOCTYPE svg PUBLIC "-//W3C//DTD SVG 1.1//EN" "http://www.w3.org/Graphics/SVG/1.1/DTD/svg11.dtd">
<svg version="1.1" xmlns="http://www.w3.org/2000/svg" xmlns:xlink="http://www.w3.org/1999/xlink" x="0px" y="0px"
	 width="566.93px" height="566.93px" viewBox="0 0 566.93 566.93" enable-background="new 0 0 566.93 566.93" xml:space="preserve">
<g id="fond" display="none">
	
		<rect x="-7358.419" y="-11126.046" display="inline" fill-rule="evenodd" clip-rule="evenodd" fill="#58595B" width="16654.492" height="16572.797"/>
</g>
<g id="en_cours">
</g>
<g id="fini">
	<g>
		<path d="M325.629,332.528c-3.115,3.414-7.231,8.232-12.349,14.462c-5.117,6.23-10.607,13.128-16.465,20.692
			c-5.861,7.565-11.719,15.502-17.577,23.808c-5.861,8.309-11.014,16.242-15.464,23.808h63.635v17.354h-88.332v-13.795
			c3.56-6.525,7.934-13.719,13.127-21.582c5.19-7.86,10.642-15.687,16.354-23.474c5.708-7.787,11.271-15.13,16.688-22.027
			c5.413-6.897,10.124-12.717,14.129-17.466h-57.182v-17.355h83.437V332.528z"/>
	</g>
</g>
</svg>
