<?xml version="1.0" encoding="utf-8"?>
<!-- Generator: Adobe Illustrator 16.0.0, SVG Export Plug-In . SVG Version: 6.00 Build 0)  -->
<!DOCTYPE svg PUBLIC "-//W3C//DTD SVG 1.1//EN" "http://www.w3.org/Graphics/SVG/1.1/DTD/svg11.dtd">
<svg version="1.1" xmlns="http://www.w3.org/2000/svg" xmlns:xlink="http://www.w3.org/1999/xlink" x="0px" y="0px"
	 width="566.93px" height="566.93px" viewBox="0 0 566.93 566.93" enable-background="new 0 0 566.93 566.93" xml:space="preserve">
<g id="fond" display="none">
	
		<rect x="-6307.873" y="-7591.898" display="inline" fill-rule="evenodd" clip-rule="evenodd" fill="#58595B" width="15942.492" height="15814.695"/>
</g>
<g id="en_cours">
</g>
<g id="fini">
	<g>
		
			<path fill="#CCAC6C" stroke="#000000" stroke-width="8" stroke-linecap="round" stroke-linejoin="round" stroke-miterlimit="10" d="
			M351.425,293.211c-0.633,13.875-12.396,24.611-26.272,23.979l0,0c-13.877-0.632-24.613-12.396-23.981-26.271l7.266-159.312
			c0.633-13.877,12.396-24.613,26.272-23.981l0,0c13.876,0.634,24.613,12.396,23.98,26.273L351.425,293.211z"/>
		<path fill="#CCAC6C" d="M347.244,491.83c0-21.898,44.436-49.342,44.436-71.089c0-23.131,29.203-138.316-14.875-146.686
			l-21.515-5.042c0,0-37.994-6.039-51.957-8.93c-2.973-0.616-4.091-4.982-4.374-4.774l-2.644-39.109
			c-0.968-14.297-12.695-25.145-26.193-24.233l-0.265,0.019c-13.501,0.911-23.661,13.24-22.697,27.538l4.882,72.186l-5.493-59.033
			c-1.335-14.328-12.839-24.975-25.693-23.779l-0.253,0.024c-12.858,1.195-22.202,13.781-20.868,28.112l6.839,73.51l-8.99-45.951
			c-2.265-11.758-13.632-19.455-25.391-17.193l-0.231,0.046c-11.375,2.188-18.924,12.903-17.355,24.246l-0.037-0.084
			C159.991,319,172.35,417.427,172.35,417.427s6.335,45.143,43.331,67.369l-2.835,49.914l138.399,1.063"/>
		
			<line fill="#CCAC6C" stroke="#000000" stroke-width="8" stroke-linecap="round" stroke-linejoin="round" stroke-miterlimit="10" x1="216.618" y1="468.295" x2="212.846" y2="534.71"/>
		
			<path fill="#CCAC6C" stroke="#000000" stroke-width="8" stroke-linecap="round" stroke-linejoin="round" stroke-miterlimit="10" d="
			M253.388,306.184c1.333,14.334-8.01,26.916-20.869,28.112l-0.254,0.023c-12.855,1.197-24.36-9.449-25.692-23.775l-6.839-73.51
			c-1.334-14.331,8.01-26.917,20.868-28.112l0.253-0.024c12.854-1.195,24.358,9.451,25.693,23.779L253.388,306.184z"/>
		
			<path fill="#CCAC6C" stroke="#000000" stroke-width="8" stroke-linecap="round" stroke-linejoin="round" stroke-miterlimit="10" d="
			M301.274,289.541c0.967,14.297-9.195,26.626-22.696,27.537l-0.267,0.021c-13.497,0.914-25.225-9.938-26.19-24.23l-4.96-73.346
			c-0.964-14.298,9.196-26.627,22.697-27.538l0.265-0.019c13.499-0.912,25.226,9.937,26.193,24.233L301.274,289.541z"/>
		
			<path fill="#CCAC6C" stroke="#000000" stroke-width="8" stroke-linecap="round" stroke-linejoin="round" stroke-miterlimit="10" d="
			M154.569,271.608C159.991,319,172.35,417.427,172.35,417.427s10.452,74.556,83.001,79.215"/>
		
			<path fill="#CCAC6C" stroke="#000000" stroke-width="8" stroke-linecap="round" stroke-linejoin="round" stroke-miterlimit="10" d="
			M209.197,324.916c2.266,11.761-5.433,23.129-17.192,25.391l-0.23,0.048c-11.76,2.262-23.128-5.435-25.392-17.193l-11.614-60.324
			c-2.265-11.759,5.434-23.129,17.193-25.391l0.231-0.046c11.759-2.262,23.126,5.436,25.391,17.193L209.197,324.916z"/>
		
			<path fill="#CCAC6C" stroke="#000000" stroke-width="8" stroke-linecap="round" stroke-linejoin="round" stroke-miterlimit="10" d="
			M351.245,534.711c-2.323-19.63-4.001-36.141-4.001-42.881c0-21.898,46.619-41.118,53.92-90.475
			c12.771-86.329,25.131-118.931-24.359-127.3l-57.71-13.526c-14.118-2.634-27.699,6.672-30.34,20.79l-0.048,0.276
			c-2.639,14.122,6.668,27.705,20.79,30.344l46.038,12.521l-23.586,29.672c0,0-67.179,18.327-67.179,53.977"/>
		
			<path fill="#CCAC6C" stroke="#000000" stroke-width="8" stroke-linecap="round" stroke-linejoin="round" stroke-miterlimit="10" d="
			M351.245,534.711"/>
	</g>
</g>
</svg>
