<?xml version="1.0" encoding="utf-8"?>
<!-- Generator: Adobe Illustrator 16.0.0, SVG Export Plug-In . SVG Version: 6.00 Build 0)  -->
<!DOCTYPE svg PUBLIC "-//W3C//DTD SVG 1.1//EN" "http://www.w3.org/Graphics/SVG/1.1/DTD/svg11.dtd">
<svg version="1.1" xmlns="http://www.w3.org/2000/svg" xmlns:xlink="http://www.w3.org/1999/xlink" x="0px" y="0px"
	 width="283.465px" height="566.93px" viewBox="0 0 283.465 566.93" enable-background="new 0 0 283.465 566.93"
	 xml:space="preserve">
<g id="fond" display="none">
	
		<rect x="-7500.152" y="-9811.008" display="inline" fill-rule="evenodd" clip-rule="evenodd" fill="#58595B" width="16654.492" height="16572.797"/>
</g>
<g id="en_cours">
</g>
<g id="fini">
	<g>
		<path d="M49.748,320.291c4.746-1.186,11.014-2.447,18.801-3.782c7.787-1.335,16.798-2.003,27.033-2.003
			c7.416,0,13.646,1.001,18.69,3.004c5.041,2.002,9.269,4.933,12.683,8.788c1.036-0.74,2.67-1.779,4.895-3.114
			c2.225-1.335,4.968-2.632,8.232-3.894c3.261-1.259,6.897-2.371,10.902-3.338c4.005-0.963,8.305-1.446,12.905-1.446
			c8.9,0,16.166,1.3,21.805,3.894c5.636,2.597,10.047,6.269,13.239,11.014c3.188,4.749,5.34,10.385,6.452,16.91
			c1.113,6.528,1.669,13.648,1.669,21.359v64.97h-20.692v-60.52c0-6.821-0.333-12.683-1.001-17.577
			c-0.667-4.896-1.93-8.973-3.783-12.237c-1.856-3.261-4.377-5.674-7.565-7.231c-3.191-1.558-7.308-2.336-12.349-2.336
			c-6.974,0-12.721,0.928-17.244,2.781c-4.526,1.856-7.603,3.525-9.233,5.006c1.186,3.859,2.075,8.087,2.67,12.683
			c0.591,4.6,0.89,9.421,0.89,14.462v64.97h-20.692v-60.52c0-6.821-0.372-12.683-1.113-17.577
			c-0.744-4.896-2.041-8.973-3.894-12.237c-1.856-3.261-4.377-5.674-7.565-7.231c-3.191-1.558-7.231-2.336-12.126-2.336
			c-2.079,0-4.304,0.076-6.675,0.223c-2.375,0.149-4.638,0.333-6.786,0.556c-2.152,0.223-4.116,0.483-5.896,0.779
			c-1.78,0.299-2.969,0.521-3.56,0.667v97.677H49.748V320.291z"/>
	</g>
	<g>
		<path d="M247.515,262.705c0,1.634,0,3.226,0,4.783s-0.076,3.08-0.222,4.562c-0.595,7.714-2.302,15.317-5.118,22.806
			c-2.819,7.492-6.23,14.573-10.235,21.249l-16.02-5.118c3.115-6.675,5.451-13.312,7.009-19.913
			c1.558-6.599,2.336-12.794,2.336-18.579c0-1.48-0.039-3.076-0.111-4.783c-0.077-1.704-0.188-3.372-0.334-5.006H247.515z"/>
	</g>
</g>
</svg>
