<?xml version="1.0" encoding="utf-8"?>
<!-- Generator: Adobe Illustrator 16.0.0, SVG Export Plug-In . SVG Version: 6.00 Build 0)  -->
<!DOCTYPE svg PUBLIC "-//W3C//DTD SVG 1.1//EN" "http://www.w3.org/Graphics/SVG/1.1/DTD/svg11.dtd">
<svg version="1.1" xmlns="http://www.w3.org/2000/svg" xmlns:xlink="http://www.w3.org/1999/xlink" x="0px" y="0px"
	 width="566.93px" height="566.93px" viewBox="0 0 566.93 566.93" enable-background="new 0 0 566.93 566.93" xml:space="preserve">
<g id="fond" display="none">
	
		<rect x="-6056.873" y="-10462.046" display="inline" fill-rule="evenodd" clip-rule="evenodd" fill="#58595B" width="16654.492" height="16572.797"/>
</g>
<g id="en_cours">
</g>
<g id="fini">
	<g>
		<g>
			<g>
				
					<path fill="#E5CFAA" stroke="#000000" stroke-width="8" stroke-linecap="round" stroke-linejoin="round" stroke-miterlimit="10" d="
					M410.722,363.283c0.712,83.197-55.789,136.995-126.072,137.606c-70.281,0.605-127.714-52.197-128.443-135.395
					c-0.716-83.188,65.762-207.778,125.463-208.293C341.372,156.682,410.002,280.097,410.722,363.283z"/>
				<path fill="#FFFFFF" d="M335.122,217.432c0.104,10.11-8.007,18.397-18.121,18.5c-10.112,0.108-18.396-8.007-18.501-18.118
					c-0.106-10.109,8.004-18.396,18.118-18.502C326.729,199.205,335.013,207.317,335.122,217.432z"/>
			</g>
		</g>
	</g>
</g>
</svg>
