<?xml version="1.0" encoding="utf-8"?>
<!-- Generator: Adobe Illustrator 16.0.0, SVG Export Plug-In . SVG Version: 6.00 Build 0)  -->
<!DOCTYPE svg PUBLIC "-//W3C//DTD SVG 1.1//EN" "http://www.w3.org/Graphics/SVG/1.1/DTD/svg11.dtd">
<svg version="1.1" xmlns="http://www.w3.org/2000/svg" xmlns:xlink="http://www.w3.org/1999/xlink" x="0px" y="0px"
	 width="566.93px" height="566.93px" viewBox="0 0 566.93 566.93" enable-background="new 0 0 566.93 566.93" xml:space="preserve">
<g id="fond" display="none">
	
		<rect x="-4748.14" y="-9178" display="inline" fill-rule="evenodd" clip-rule="evenodd" fill="#58595B" width="16654.492" height="16572.797"/>
</g>
<g id="en_cours">
</g>
<g id="fini">
	<g>
		<g>
			<path fill="#CCAC6C" d="M375.021,257.584c-2.157-0.001-4.326-0.307-6.448-0.909c-5.159-1.465-8.798-5.891-9.056-11.013
				c-0.248-4.918,2.601-9.164,7.434-11.079c4.03-1.597,8.058-1.731,11.953-1.862c3.147-0.106,6.121-0.206,8.729-1.103
				c5.579-1.918,11.439-10.078,16.148-16.635c1.625-2.262,3.159-4.397,4.596-6.165c5.675-6.985,11.282-14.238,16.705-21.253
				c7.92-10.245,16.109-20.839,24.729-30.885l1.304-1.517c10.112-11.758,21.573-25.084,22.799-40.054
				c0.542-6.618-1.802-9.555-5.35-13.999c-1.446-1.811-3.084-3.863-4.64-6.347c-2.09-3.337-2.255-7.576-0.441-11.34
				c1.784-3.703,5.149-6.175,9-6.613c0.685-0.077,1.366-0.117,2.026-0.117c4.983,0,9.231,2.224,12.285,6.431
				c8.336,11.484,5.903,34.643,3.53,41.922c-5.651,17.336-18.543,31.689-31.012,45.569c-3.603,4.012-7.006,7.8-10.18,11.603
				c-7.116,8.523-13.894,17.622-20.448,26.421c-6.064,8.14-12.286,16.491-18.883,24.542c-0.399,0.741-1.065,1.498-1.929,2.479
				L403.169,241c-6.89,7.73-16.3,16.584-28.147,16.584C375.022,257.584,375.021,257.584,375.021,257.584z"/>
			<path d="M474.509,80.694c16.991,0.003,15.097,33.648,12.012,43.113c-6.983,21.424-26.356,38.952-40.459,55.848
				c-15.846,18.982-29.324,39.833-45.653,58.428c-0.155,0.176-0.243,0.275-0.243,0.275c0,0,0,0,0.002-0.002
				c-6.447,7.233-15.038,15.228-25.146,15.228c-1.741,0-3.528-0.237-5.355-0.757c-7.269-2.064-8.637-11.595-1.241-14.525
				c6.529-2.587,13.916-0.635,20.509-2.901c8.914-3.064,16.85-17.049,22.547-24.06c13.987-17.215,26.919-35.218,41.366-52.056
				c10.555-12.3,23.665-26.893,25.054-43.849c0.926-11.309-5.368-14.465-10.587-22.796c-2.834-4.525,0.247-11.243,5.622-11.854
				C473.478,80.725,474,80.694,474.509,80.694 M406.186,231.522c0,0-1.504,1.709-6.018,6.834c0.081-0.091,0.161-0.183,0.241-0.273
				C401.534,236.804,406.186,231.521,406.186,231.522 M474.51,72.694L474.51,72.694h-0.003c-0.809,0-1.643,0.048-2.476,0.143
				c-5.226,0.595-9.768,3.904-12.152,8.852c-2.414,5.01-2.168,10.691,0.655,15.199c1.678,2.678,3.392,4.824,4.904,6.719
				c3.467,4.344,4.902,6.141,4.489,11.177c-1.12,13.675-12.13,26.477-21.845,37.772l-1.307,1.52
				c-8.687,10.125-16.908,20.759-24.858,31.044c-5.408,6.995-11,14.229-16.646,21.177c-1.511,1.859-3.079,4.043-4.739,6.354
				c-3.913,5.448-9.826,13.681-14.2,15.185c-2.042,0.702-4.724,0.792-7.563,0.888c-4.039,0.136-8.617,0.29-13.292,2.142
				c-6.379,2.528-10.287,8.416-9.956,14.999c0.344,6.835,5.149,12.726,11.958,14.659c2.478,0.704,5.015,1.062,7.541,1.062
				c13.589,0,24.268-10.219,31.119-17.904l-5.479-4.889l0.077,0.067l5.434,4.785l4.702-5.339c0.748-0.849,1.533-1.741,2.154-2.75
				c6.604-8.068,12.812-16.401,18.864-24.525c6.521-8.755,13.266-17.809,20.311-26.247c3.128-3.747,6.507-7.51,10.085-11.493
				c12.153-13.528,25.926-28.862,31.839-47.002c2.639-8.097,5.208-32.69-4.095-45.51C486.195,75.49,480.828,72.695,474.51,72.694
				L474.51,72.694z"/>
		</g>
		<g>
			<path fill="#CCAC6C" stroke="#000000" stroke-width="8" stroke-linejoin="round" stroke-miterlimit="10" d="M157.733,463.093
				c0,0,6.874-39.816,25.874-57.348l-28.202-28.201c-17.531,18.999-57.348,25.874-57.348,25.874s1.77,41.217-20.746,72.487
				c-3.995-1.178-8.491-0.191-11.643,2.96c-4.588,4.588-4.588,12.028,0,16.616c4.589,4.588,12.028,4.588,16.616,0
				c3.152-3.151,4.137-7.648,2.96-11.644C116.516,461.323,157.733,463.093,157.733,463.093z"/>
			<circle cx="130.99" cy="430.161" r="9.885"/>
			
				<line fill="#CCAC6C" stroke="#000000" stroke-width="3" stroke-miterlimit="10" x1="65.669" y1="495.481" x2="131.071" y2="430.079"/>
		</g>
		<path fill="#AB2E23" stroke="#000000" stroke-width="8" stroke-miterlimit="10" d="M413.331,184.309
			c37.196-37.196,102.396-127.811,95.444-134.763c-6.951-6.951-94.737,61.078-131.933,98.274L235.155,289.199l-78.236,89.858
			l25.174,25.174l89.859-78.235L413.331,184.309z"/>
		
			<line fill="#CCAC6C" stroke="#000000" stroke-width="8" stroke-miterlimit="10" x1="296.245" y1="228.109" x2="332.976" y2="264.84"/>
		<path fill="#CCAC6C" stroke="#000000" stroke-width="8" stroke-miterlimit="10" d="M188.044,410.646
			c-3.222,3.222-8.445,3.222-11.667-0.001l-25.872-25.871c-3.222-3.222-3.222-8.445,0-11.667l0,0c3.222-3.222,8.445-3.223,11.667,0
			l25.872,25.871C191.266,402.201,191.266,407.424,188.044,410.646L188.044,410.646z"/>
	</g>
</g>
</svg>
