<?xml version="1.0" encoding="utf-8"?>
<!-- Generator: Adobe Illustrator 16.0.0, SVG Export Plug-In . SVG Version: 6.00 Build 0)  -->
<!DOCTYPE svg PUBLIC "-//W3C//DTD SVG 1.1//EN" "http://www.w3.org/Graphics/SVG/1.1/DTD/svg11.dtd">
<svg version="1.1" xmlns="http://www.w3.org/2000/svg" xmlns:xlink="http://www.w3.org/1999/xlink" x="0px" y="0px"
	 width="566.93px" height="566.93px" viewBox="0 0 566.93 566.93" enable-background="new 0 0 566.93 566.93" xml:space="preserve">
<g id="fond" display="none">
	
		<rect x="-10581.873" y="-9811.008" display="inline" fill-rule="evenodd" clip-rule="evenodd" fill="#58595B" width="16654.492" height="16572.797"/>
</g>
<g id="en_cours">
</g>
<g id="fini">
	<g>
		<path fill="#FFFFFF" stroke="#000000" stroke-width="8" stroke-linejoin="round" stroke-miterlimit="10" d="M457.657,375.725
			c-0.437-1.149-0.709-2.261-1.164-3.354c-0.533-1.093-0.934-2.158-1.465-3.197c-0.607-1.036-1.18-2.046-1.713-3.034
			c-0.674-0.97-1.336-1.922-1.986-2.856c-0.16-0.232-0.306-0.466-0.473-0.693l-0.566-0.669c-0.373-0.44-0.742-0.876-1.107-1.308
			c-0.355-0.43-0.709-0.854-1.059-1.275c-0.338-0.421-0.793-0.81-1.172-1.209c-0.776-0.788-1.534-1.558-2.273-2.309
			c-1.602-1.453-3.189-2.796-4.641-4.056c-1.59-1.197-3.076-2.317-4.453-3.353c-0.275-0.177-0.527-0.337-0.795-0.507
			c-13.953,4.132-28.723,6.361-44.016,6.361c-85.468,0-154.754-69.286-154.754-154.754S305.307,44.759,390.774,44.759
			s154.753,69.285,154.753,154.753c0,53.976-27.641,101.489-69.531,129.182c0.446,0.667,0.894,1.345,1.341,2.038
			c0.885,1.515,1.789,3.068,2.717,4.658c0.446,0.808,0.937,1.566,1.354,2.437c0.415,0.866,0.836,1.74,1.261,2.625
			c0.416,0.883,0.837,1.774,1.261,2.675c0.211,0.448,0.424,0.898,0.637,1.351c0.188,0.479,0.375,0.959,0.564,1.442
			c0.739,1.94,1.482,3.904,2.197,5.912c0.6,2.105,1.184,4.24,1.748,6.398c0.5,2.201,0.836,4.52,1.221,6.806
			c0.316,2.319,0.4,4.754,0.559,7.146c0.018,2.436-0.086,4.917-0.229,7.386c-0.167,1.241-0.335,2.488-0.506,3.743
			c-0.185,1.247-0.331,2.494-0.675,3.735c-0.613,2.483-1.177,4.972-2.148,7.379c-1.643,4.888-4.25,9.46-7.141,13.736
			c-1.615,2.032-3.084,4.168-4.938,5.982c-0.902,0.924-1.76,1.888-2.711,2.756c-0.973,0.838-1.947,1.677-2.924,2.518
			c-0.951,0.862-2.031,1.567-3.073,2.312c-1.063,0.712-2.062,1.512-3.187,2.124l-3.328,1.876c-1.09,0.647-2.3,1.084-3.442,1.621
			c-2.28,1.102-4.722,1.813-7.098,2.596c-1.199,0.36-2.441,0.591-3.655,0.879c-1.217,0.281-2.43,0.546-3.673,0.672l-3.685,0.46
			c-1.233,0.08-2.471,0.093-3.695,0.131l-1.834,0.039c-0.611-0.012-1.223-0.074-1.83-0.109l-3.629-0.276
			c-4.781-0.706-9.449-1.744-13.729-3.561c-1.07-0.447-2.162-0.821-3.185-1.335c-1.013-0.526-2.021-1.053-3.027-1.577l-1.493-0.789
			c-0.492-0.268-0.945-0.6-1.416-0.896c-0.928-0.611-1.852-1.221-2.773-1.827c-3.146-2.173-6.449-4.434-9.645-6.44
			c-1.569-0.896-3.166-1.719-4.729-2.577c-1.574-0.839-3.123-1.685-4.766-2.355c-1.62-0.708-3.225-1.409-4.807-2.102
			c-0.787-0.371-1.59-0.66-2.393-0.933c-0.799-0.287-1.592-0.572-2.381-0.854c-3.129-1.259-6.254-2.095-9.268-3.051
			c-1.511-0.469-3.02-0.74-4.496-1.114c-0.742-0.176-1.477-0.351-2.203-0.522c-0.73-0.154-1.459-0.228-2.178-0.346
			c-5.764-1.078-11.15-1.065-15.911-0.706c-1.181,0.144-2.358,0.188-3.452,0.4c-1.102,0.214-2.164,0.42-3.186,0.618
			c-1.023,0.209-1.959,0.547-2.889,0.795c-0.463,0.134-0.914,0.265-1.354,0.393c-0.427,0.161-0.845,0.318-1.25,0.472
			c-3.319,1.13-5.688,2.597-7.315,3.576c-0.807,0.507-1.369,0.971-1.78,1.252c-0.403,0.292-0.61,0.443-0.61,0.443
			s0.17-0.19,0.501-0.56c0.339-0.359,0.804-0.946,1.497-1.623c0.358-0.326,0.761-0.689,1.202-1.091
			c0.438-0.409,0.929-0.846,1.507-1.252c0.568-0.426,1.179-0.884,1.832-1.372c0.668-0.464,1.42-0.893,2.198-1.384
			c3.151-1.869,7.28-3.788,12.313-5.043c5.004-1.294,10.913-2.153,17.32-1.903c0.803,0.02,1.621-0.005,2.438,0.052
			c0.813,0.073,1.633,0.149,2.461,0.226c0.832,0.078,1.672,0.156,2.52,0.235c0.846,0.088,1.715,0.13,2.551,0.319
			c1.697,0.317,3.424,0.639,5.176,0.965c0.881,0.156,1.756,0.357,2.613,0.622c0.867,0.245,1.74,0.492,2.619,0.741
			c0.877,0.259,1.76,0.52,2.648,0.782c0.892,0.256,1.783,0.53,2.646,0.88c1.747,0.66,3.515,1.327,5.302,2.003
			c1.807,0.618,3.566,1.472,5.372,2.268c1.813,0.782,3.625,1.614,5.495,2.387c3.494,1.684,6.906,3.331,10.656,4.938
			c0.809,0.326,1.622,0.653,2.436,0.98c0.408,0.154,0.8,0.348,1.219,0.474l1.254,0.358c0.828,0.24,1.66,0.481,2.492,0.724
			c0.828,0.23,1.695,0.319,2.531,0.49c3.354,0.709,6.775,0.695,10.078,0.543l2.465-0.33c0.408-0.058,0.816-0.088,1.219-0.165
			l1.201-0.291c0.798-0.199,1.593-0.358,2.374-0.567l2.296-0.801c0.377-0.142,0.766-0.23,1.129-0.407l1.091-0.52
			c0.719-0.357,1.456-0.638,2.146-1.031c1.354-0.847,2.744-1.545,3.953-2.544c0.608-0.486,1.281-0.854,1.827-1.406l1.695-1.529
			c0.581-0.475,1.026-1.109,1.545-1.638c0.493-0.558,1.032-1.057,1.437-1.685l1.301-1.747c0.416-0.587,0.736-1.241,1.113-1.837
			c0.371-0.602,0.742-1.191,1-1.851l0.868-1.872c0.895-2.592,1.688-5.09,1.839-7.651c0.344-2.502,0.095-5.003-0.16-7.36
			C458.16,378.028,457.947,376.865,457.657,375.725z"/>
		<g>
			<path d="M359.659,113.82c-1.335,1.562-2.885,3.438-4.653,5.628c-1.769,2.192-3.639,4.623-5.609,7.293
				c-1.972,2.672-4,5.493-6.088,8.464c-2.087,2.972-4.131,5.974-6.131,9.005s-3.899,6.048-5.696,9.049
				c-1.798,3.002-3.422,5.853-4.87,8.554h33.917v7.474h-43.744v-5.853c1.218-2.4,2.652-5.042,4.305-7.924
				c1.652-2.881,3.42-5.821,5.305-8.824c1.884-3.001,3.841-6.032,5.87-9.094s4.045-6.002,6.045-8.824
				c2-2.821,3.941-5.462,5.826-7.924c1.884-2.461,3.609-4.621,5.175-6.482h-30.96v-7.474h41.31V113.82z"/>
			<path d="M389.695,141.664c-0.974,1.039-2.13,2.385-3.468,4.037c-1.339,1.652-2.723,3.455-4.152,5.406
				c-1.429,1.952-2.844,3.967-4.243,6.044s-2.646,4.061-3.741,5.949h16.106v6.186h-24.855v-4.392
				c0.852-1.604,1.893-3.391,3.124-5.358c1.231-1.967,2.516-3.95,3.854-5.949s2.698-3.935,4.082-5.808
				c1.383-1.873,2.668-3.549,3.854-5.029h-14.183v-6.186h23.623V141.664z"/>
			<path d="M426.312,133.709c-1.261,1.423-2.788,3.271-4.582,5.544c-1.795,2.273-3.646,4.744-5.556,7.412s-3.789,5.416-5.641,8.242
				c-1.853,2.826-3.485,5.505-4.896,8.034h21.305v6.345h-30.011v-4.685c0.764-1.462,1.651-3.054,2.663-4.773
				c1.012-1.719,2.091-3.488,3.236-5.307c1.146-1.817,2.338-3.656,3.579-5.515c1.24-1.857,2.472-3.646,3.694-5.366
				c1.222-1.72,2.414-3.359,3.579-4.921c1.164-1.562,2.263-2.955,3.293-4.181h-19.071v-6.345h28.407V133.709z"/>
			<path d="M475.778,113.82c-1.335,1.562-2.885,3.438-4.653,5.628c-1.769,2.192-3.639,4.623-5.609,7.293
				c-1.972,2.672-4,5.493-6.088,8.464c-2.087,2.972-4.131,5.974-6.131,9.005s-3.899,6.048-5.696,9.049
				c-1.798,3.002-3.422,5.853-4.87,8.554h33.917v7.474h-43.744v-5.853c1.218-2.4,2.652-5.042,4.305-7.924
				c1.652-2.881,3.42-5.821,5.305-8.824c1.884-3.001,3.841-6.032,5.87-9.094s4.045-6.002,6.045-8.824
				c2-2.821,3.941-5.462,5.826-7.924c1.884-2.461,3.609-4.621,5.175-6.482h-30.96v-7.474h41.31V113.82z"/>
			<path d="M505.814,141.664c-0.974,1.039-2.13,2.385-3.468,4.037c-1.339,1.652-2.723,3.455-4.152,5.406
				c-1.429,1.952-2.844,3.967-4.243,6.044s-2.646,4.061-3.741,5.949h16.106v6.186h-24.855v-4.392
				c0.852-1.604,1.893-3.391,3.124-5.358c1.231-1.967,2.516-3.95,3.854-5.949s2.698-3.935,4.082-5.808
				c1.383-1.873,2.668-3.549,3.854-5.029h-14.183v-6.186h23.623V141.664z"/>
			<path d="M344.154,217.364c-1.261,1.423-2.788,3.271-4.582,5.544c-1.795,2.273-3.646,4.744-5.556,7.412s-3.789,5.416-5.641,8.242
				c-1.853,2.826-3.485,5.505-4.896,8.034h21.305v6.345h-30.011v-4.685c0.764-1.462,1.651-3.054,2.663-4.773
				c1.012-1.719,2.091-3.488,3.236-5.307c1.146-1.817,2.338-3.656,3.579-5.515c1.24-1.857,2.472-3.646,3.694-5.366
				c1.222-1.72,2.414-3.359,3.579-4.921c1.164-1.562,2.263-2.955,3.293-4.181h-19.071v-6.345h28.407V217.364z"/>
			<path d="M394.767,197.476c-1.335,1.562-2.885,3.438-4.653,5.628c-1.769,2.192-3.639,4.623-5.609,7.293
				c-1.972,2.672-4,5.493-6.088,8.464c-2.087,2.972-4.131,5.974-6.131,9.005s-3.899,6.048-5.696,9.049
				c-1.798,3.002-3.422,5.853-4.87,8.554h33.917v7.474h-43.744v-5.853c1.218-2.4,2.652-5.042,4.305-7.924
				c1.652-2.881,3.42-5.821,5.305-8.824c1.884-3.001,3.841-6.032,5.87-9.094s4.045-6.002,6.045-8.824
				c2-2.821,3.941-5.462,5.826-7.924c1.884-2.461,3.609-4.621,5.175-6.482h-30.96v-7.474h41.31V197.476z"/>
			<path d="M424.803,225.319c-0.974,1.039-2.13,2.385-3.468,4.037c-1.339,1.652-2.723,3.455-4.152,5.406
				c-1.429,1.952-2.844,3.967-4.243,6.044s-2.646,4.061-3.741,5.949h16.106v6.186h-24.855v-4.392
				c0.852-1.604,1.893-3.391,3.124-5.358c1.231-1.967,2.516-3.95,3.854-5.949s2.698-3.935,4.082-5.808
				c1.383-1.873,2.668-3.549,3.854-5.029H401.18v-6.186h23.623V225.319z"/>
			<path d="M460.507,217.364c-1.261,1.423-2.788,3.271-4.582,5.544c-1.795,2.273-3.646,4.744-5.556,7.412s-3.789,5.416-5.641,8.242
				c-1.853,2.826-3.485,5.505-4.896,8.034h21.305v6.345h-30.011v-4.685c0.764-1.462,1.651-3.054,2.663-4.773
				c1.012-1.719,2.091-3.488,3.236-5.307c1.146-1.817,2.338-3.656,3.579-5.515c1.24-1.857,2.472-3.646,3.694-5.366
				c1.222-1.72,2.414-3.359,3.579-4.921c1.164-1.562,2.263-2.955,3.293-4.181H432.1v-6.345h28.407V217.364z"/>
			<path d="M509.975,197.476c-1.335,1.562-2.885,3.438-4.653,5.628c-1.769,2.192-3.639,4.623-5.609,7.293
				c-1.972,2.672-4,5.493-6.088,8.464c-2.087,2.972-4.131,5.974-6.131,9.005s-3.899,6.048-5.696,9.049
				c-1.798,3.002-3.422,5.853-4.87,8.554h33.917v7.474H467.1v-5.853c1.218-2.4,2.652-5.042,4.305-7.924
				c1.652-2.881,3.42-5.821,5.305-8.824c1.884-3.001,3.841-6.032,5.87-9.094s4.045-6.002,6.045-8.824
				c2-2.821,3.941-5.462,5.826-7.924c1.884-2.461,3.609-4.621,5.175-6.482h-30.96v-7.474h41.31V197.476z"/>
			<path d="M402.907,290.262c0,1.384-0.449,2.511-1.347,3.38c-0.897,0.868-1.976,1.304-3.235,1.304
				c-1.299,0-2.387-0.436-3.265-1.304c-0.879-0.869-1.317-1.996-1.317-3.38s0.438-2.521,1.317-3.41
				c0.878-0.89,1.966-1.334,3.265-1.334c1.26,0,2.338,0.444,3.235,1.334S402.907,288.878,402.907,290.262z"/>
			<path d="M418.141,290.262c0,1.384-0.449,2.511-1.347,3.38c-0.897,0.868-1.976,1.304-3.235,1.304
				c-1.299,0-2.387-0.436-3.265-1.304c-0.879-0.869-1.317-1.996-1.317-3.38s0.438-2.521,1.317-3.41
				c0.878-0.89,1.966-1.334,3.265-1.334c1.26,0,2.338,0.444,3.235,1.334S418.141,288.878,418.141,290.262z"/>
			<path d="M433.374,290.262c0,1.384-0.449,2.511-1.347,3.38c-0.897,0.868-1.976,1.304-3.235,1.304
				c-1.299,0-2.387-0.436-3.265-1.304c-0.879-0.869-1.317-1.996-1.317-3.38s0.438-2.521,1.317-3.41
				c0.878-0.89,1.966-1.334,3.265-1.334c1.26,0,2.338,0.444,3.235,1.334S433.374,288.878,433.374,290.262z"/>
		</g>
	</g>
	<g>
		<g>
			
				<path fill="#CCAC6C" stroke="#000000" stroke-width="8" stroke-linecap="round" stroke-linejoin="round" stroke-miterlimit="10" d="
				M289.188,152.448c78.813,81.836,81.459,373.109-87.282,373.108c-168.737,0-166.089-291.271-87.277-373.108
				c28.089-29.163,59.554-41.879,87.28-41.879S261.099,123.285,289.188,152.448z"/>
			
				<path fill="#141414" stroke="#000000" stroke-width="8" stroke-linecap="round" stroke-linejoin="round" stroke-miterlimit="10" d="
				M63.539,380.401c1.4,2.982,2.867,5.911,4.397,8.784c-0.707-2.283-1.371-4.598-2.011-6.928
				C65.118,381.688,64.323,381.065,63.539,380.401z"/>
			
				<path fill="#141414" stroke="#000000" stroke-width="8" stroke-linecap="round" stroke-linejoin="round" stroke-miterlimit="10" d="
				M335.882,389.185c1.53-2.873,2.997-5.801,4.396-8.782c-0.783,0.663-1.578,1.285-2.386,1.855
				C337.253,384.588,336.589,386.901,335.882,389.185z"/>
			
				<path fill="#CCAC6C" stroke="#000000" stroke-width="8" stroke-linecap="round" stroke-linejoin="round" stroke-miterlimit="10" d="
				M60.484,356.641v-0.002c-0.206-1.354-0.399-2.714-0.582-4.079c-0.007-0.05-0.013-0.1-0.019-0.149
				c-0.501-3.778-0.909-7.604-1.222-11.476c-0.034-0.419-0.072-0.836-0.104-1.255c-0.067-0.893-0.124-1.79-0.181-2.687
				c-0.05-0.782-0.098-1.565-0.139-2.352c-0.041-0.763-0.078-1.526-0.11-2.293c-0.044-1.003-0.077-2.01-0.107-3.019
				c-0.019-0.604-0.04-1.208-0.053-1.815c-0.036-1.644-0.059-3.293-0.059-4.951c0-15.547,1.05-30.697,3.052-45.293
				c-7.633,4.172-13.505,13.268-16.664,25.079c-2.54,9.501-3.331,20.747-1.863,32.593c2.471,19.938,10.723,36.674,21.104,45.459
				c0.784,0.664,1.579,1.286,2.387,1.856C63.656,373.998,61.822,365.452,60.484,356.641z"/>
			
				<path fill="#CCAC6C" stroke="#000000" stroke-width="8" stroke-linecap="round" stroke-linejoin="round" stroke-miterlimit="10" d="
				M359.521,302.349c-3.158-11.809-9.027-20.901-16.658-25.074c0.076,0.552,0.149,1.104,0.223,1.658
				c0.102,0.768,0.197,1.537,0.293,2.308c0.112,0.905,0.223,1.812,0.328,2.721c0.089,0.771,0.175,1.544,0.259,2.317
				c0.1,0.918,0.195,1.839,0.287,2.762c0.077,0.77,0.151,1.539,0.224,2.313c0.086,0.936,0.168,1.874,0.246,2.814
				c0.064,0.767,0.129,1.533,0.188,2.302c0.074,0.958,0.141,1.918,0.206,2.88c0.052,0.755,0.104,1.51,0.15,2.268
				c0.062,0.992,0.113,1.987,0.166,2.983c0.038,0.735,0.079,1.469,0.113,2.206c0.048,1.043,0.086,2.09,0.124,3.138
				c0.025,0.694,0.055,1.387,0.076,2.083c0.035,1.164,0.06,2.334,0.083,3.504c0.012,0.583,0.029,1.164,0.038,1.748
				c0.027,1.757,0.042,3.519,0.042,5.285c0,1.979-0.03,3.946-0.081,5.904c-0.015,0.6-0.043,1.192-0.063,1.789
				c-0.047,1.369-0.098,2.735-0.168,4.094c-0.034,0.668-0.078,1.332-0.118,1.998c-0.078,1.299-0.164,2.596-0.265,3.885
				c-0.05,0.645-0.104,1.287-0.16,1.93c-0.115,1.338-0.242,2.67-0.38,3.997c-0.059,0.563-0.117,1.128-0.18,1.69
				c-0.165,1.479-0.347,2.948-0.54,4.412c-0.052,0.395-0.1,0.791-0.154,1.184c-1.363,9.943-3.365,19.557-5.907,28.812
				c0.808-0.57,1.603-1.192,2.386-1.855c10.383-8.785,18.635-25.522,21.105-45.46C362.852,323.097,362.061,311.851,359.521,302.349z
				"/>
			
				<path fill="#CCAC6C" stroke="#000000" stroke-width="8" stroke-linecap="round" stroke-linejoin="round" stroke-miterlimit="10" d="
				M333.546,233.647c0.242,0.819,0.485,1.639,0.722,2.463C334.031,235.286,333.788,234.467,333.546,233.647z"/>
			
				<path fill="#CCAC6C" stroke="#000000" stroke-width="8" stroke-linecap="round" stroke-linejoin="round" stroke-miterlimit="10" d="
				M324.307,207.63c0.37,0.884,0.733,1.777,1.095,2.67C325.04,209.407,324.677,208.514,324.307,207.63z"/>
			
				<path fill="#CCAC6C" stroke="#000000" stroke-width="8" stroke-linecap="round" stroke-linejoin="round" stroke-miterlimit="10" d="
				M315.169,188.397c2.488,4.641,4.838,9.45,7.049,14.408C320.007,197.847,317.657,193.039,315.169,188.397z"/>
			
				<path fill="#CCAC6C" stroke="#000000" stroke-width="8" stroke-linecap="round" stroke-linejoin="round" stroke-miterlimit="10" d="
				M311.397,181.675c0.557,0.951,1.109,1.905,1.654,2.871C312.507,183.58,311.954,182.626,311.397,181.675z"/>
			
				<path fill="#CCAC6C" stroke="#000000" stroke-width="8" stroke-linecap="round" stroke-linejoin="round" stroke-miterlimit="10" d="
				M313.39,185.156c0.576,1.029,1.148,2.063,1.71,3.108C314.538,187.219,313.966,186.186,313.39,185.156z"/>
			
				<path fill="#CCAC6C" stroke="#000000" stroke-width="8" stroke-linecap="round" stroke-linejoin="round" stroke-miterlimit="10" d="
				M309.294,178.165c0.557,0.907,1.109,1.818,1.654,2.74C310.403,179.983,309.851,179.072,309.294,178.165z"/>
			
				<path fill="#CCAC6C" stroke="#000000" stroke-width="8" stroke-linecap="round" stroke-linejoin="round" stroke-miterlimit="10" d="
				M332.172,229.156c0.259,0.82,0.517,1.643,0.769,2.469C332.688,230.799,332.431,229.978,332.172,229.156z"/>
			
				<path fill="#CCAC6C" stroke="#000000" stroke-width="8" stroke-linecap="round" stroke-linejoin="round" stroke-miterlimit="10" d="
				M326.012,211.81c0.339,0.853,0.671,1.713,1.001,2.574C326.683,213.522,326.351,212.663,326.012,211.81z"/>
			
				<path fill="#CCAC6C" stroke="#000000" stroke-width="8" stroke-linecap="round" stroke-linejoin="round" stroke-miterlimit="10" d="
				M330.73,224.724c0.276,0.824,0.55,1.65,0.818,2.48C331.28,226.374,331.007,225.548,330.73,224.724z"/>
			
				<path fill="#CCAC6C" stroke="#000000" stroke-width="8" stroke-linecap="round" stroke-linejoin="round" stroke-miterlimit="10" d="
				M327.649,216.049c0.315,0.839,0.625,1.683,0.933,2.528C328.274,217.731,327.965,216.888,327.649,216.049z"/>
			
				<path fill="#CCAC6C" stroke="#000000" stroke-width="8" stroke-linecap="round" stroke-linejoin="round" stroke-miterlimit="10" d="
				M329.222,220.354c0.295,0.83,0.586,1.663,0.874,2.5C329.808,222.017,329.517,221.184,329.222,220.354z"/>
			
				<path fill="#CCAC6C" stroke="#000000" stroke-width="8" stroke-linecap="round" stroke-linejoin="round" stroke-miterlimit="10" d="
				M322.539,203.52c0.419,0.948,0.828,1.907,1.236,2.866C323.367,205.427,322.958,204.468,322.539,203.52z"/>
			
				<path fill="#CCAC6C" stroke="#000000" stroke-width="8" stroke-linecap="round" stroke-linejoin="round" stroke-miterlimit="10" d="
				M265.403,130.561c0.955,0.653,1.903,1.322,2.846,2.005C267.307,131.882,266.358,131.214,265.403,130.561z"/>
			
				<path fill="#CCAC6C" stroke="#000000" stroke-width="8" stroke-linecap="round" stroke-linejoin="round" stroke-miterlimit="10" d="
				M223.253,112.646c15.121,2.973,29.218,9.088,42.07,17.859C252.471,121.733,238.375,115.62,223.253,112.646z"/>
			
				<path fill="#CCAC6C" stroke="#000000" stroke-width="8" stroke-linecap="round" stroke-linejoin="round" stroke-miterlimit="10" d="
				M268.387,132.665c0.933,0.678,1.858,1.37,2.778,2.076C270.245,134.034,269.319,133.343,268.387,132.665z"/>
			
				<path fill="#CCAC6C" stroke="#000000" stroke-width="8" stroke-linecap="round" stroke-linejoin="round" stroke-miterlimit="10" d="
				M304.854,171.261c0.584,0.866,1.162,1.739,1.735,2.62C306.017,173,305.438,172.127,304.854,171.261z"/>
			
				<path fill="#CCAC6C" stroke="#000000" stroke-width="8" stroke-linecap="round" stroke-linejoin="round" stroke-miterlimit="10" d="
				M271.298,134.844c0.928,0.716,1.85,1.443,2.763,2.187C273.147,136.287,272.226,135.56,271.298,134.844z"/>
			
				<path fill="#CCAC6C" stroke="#000000" stroke-width="8" stroke-linecap="round" stroke-linejoin="round" stroke-miterlimit="10" d="
				M307.11,174.688c0.566,0.88,1.128,1.766,1.684,2.66C308.238,176.454,307.677,175.568,307.11,174.688z"/>
			
				<path fill="#CCAC6C" stroke="#000000" stroke-width="8" stroke-linecap="round" stroke-linejoin="round" stroke-miterlimit="10" d="
				M302.535,167.903c0.608,0.86,1.212,1.729,1.81,2.606C303.747,169.633,303.144,168.764,302.535,167.903z"/>
			
				<path fill="#CCAC6C" stroke="#000000" stroke-width="8" stroke-linecap="round" stroke-linejoin="round" stroke-miterlimit="10" d="
				M300.151,164.613c0.645,0.866,1.281,1.744,1.912,2.628C301.433,166.357,300.796,165.48,300.151,164.613z"/>
			
				<path fill="#CCAC6C" stroke="#000000" stroke-width="8" stroke-linecap="round" stroke-linejoin="round" stroke-miterlimit="10" d="
				M297.712,161.403c0.692,0.888,1.376,1.789,2.055,2.696C299.088,163.192,298.403,162.291,297.712,161.403z"/>
			
				<path fill="#CCAC6C" stroke="#000000" stroke-width="8" stroke-linecap="round" stroke-linejoin="round" stroke-miterlimit="10" d="
				M337.283,247.583c0.188,0.779,0.38,1.555,0.563,2.338C337.663,249.138,337.472,248.362,337.283,247.583z"/>
			
				<path fill="#CCAC6C" stroke="#000000" stroke-width="8" stroke-linecap="round" stroke-linejoin="round" stroke-miterlimit="10" d="
				M339.86,259.296c0.139,0.7,0.268,1.406,0.402,2.108C340.128,260.702,339.999,259.996,339.86,259.296z"/>
			
				<path fill="#CCAC6C" stroke="#000000" stroke-width="8" stroke-linecap="round" stroke-linejoin="round" stroke-miterlimit="10" d="
				M338.473,252.722c0.257,1.154,0.507,2.314,0.75,3.479C338.979,255.036,338.729,253.876,338.473,252.722z"/>
			
				<path fill="#CCAC6C" stroke="#000000" stroke-width="8" stroke-linecap="round" stroke-linejoin="round" stroke-miterlimit="10" d="
				M342.389,273.948c0.112,0.764,0.22,1.53,0.327,2.297C342.608,275.479,342.501,274.712,342.389,273.948z"/>
			
				<path fill="#CCAC6C" stroke="#000000" stroke-width="8" stroke-linecap="round" stroke-linejoin="round" stroke-miterlimit="10" d="
				M340.775,264.128c0.134,0.736,0.258,1.477,0.386,2.216C341.034,265.604,340.909,264.864,340.775,264.128z"/>
			
				<path fill="#CCAC6C" stroke="#000000" stroke-width="8" stroke-linecap="round" stroke-linejoin="round" stroke-miterlimit="10" d="
				M297.481,161.111c-7.13-9.109-14.943-17.174-23.369-24.038C282.538,143.937,290.352,152.003,297.481,161.111z"/>
			
				<path fill="#CCAC6C" stroke="#000000" stroke-width="8" stroke-linecap="round" stroke-linejoin="round" stroke-miterlimit="10" d="
				M341.62,269.019c0.123,0.75,0.238,1.506,0.357,2.259C341.858,270.524,341.743,269.769,341.62,269.019z"/>
			
				<path fill="#CCAC6C" stroke="#000000" stroke-width="8" stroke-linecap="round" stroke-linejoin="round" stroke-miterlimit="10" d="
				M336.101,242.852c0.207,0.801,0.418,1.6,0.619,2.405C336.519,244.451,336.308,243.652,336.101,242.852z"/>
			
				<path fill="#CCAC6C" stroke="#000000" stroke-width="8" stroke-linecap="round" stroke-linejoin="round" stroke-miterlimit="10" d="
				M334.854,238.209c0.227,0.813,0.453,1.626,0.673,2.444C335.308,239.835,335.081,239.022,334.854,238.209z"/>
			
				<path fill="#CCAC6C" stroke="#000000" stroke-width="8" stroke-linecap="round" stroke-linejoin="round" stroke-miterlimit="10" d="
				M58.559,339.68c-0.067-0.893-0.124-1.79-0.181-2.687C58.435,337.89,58.491,338.787,58.559,339.68z"/>
			
				<path fill="#CCAC6C" stroke="#000000" stroke-width="8" stroke-linecap="round" stroke-linejoin="round" stroke-miterlimit="10" d="
				M59.884,352.41c-0.502-3.778-0.907-7.606-1.222-11.476C58.975,344.806,59.383,348.632,59.884,352.41z"/>
			
				<path fill="#CCAC6C" stroke="#000000" stroke-width="8" stroke-linecap="round" stroke-linejoin="round" stroke-miterlimit="10" d="
				M58.239,334.642c-0.041-0.762-0.078-1.526-0.11-2.293C58.161,333.115,58.198,333.879,58.239,334.642z"/>
			
				<path fill="#CCAC6C" stroke="#000000" stroke-width="8" stroke-linecap="round" stroke-linejoin="round" stroke-miterlimit="10" d="
				M58.021,329.33c-0.019-0.604-0.04-1.208-0.053-1.815C57.981,328.122,58.003,328.726,58.021,329.33z"/>
			
				<path fill="#CCAC6C" stroke="#000000" stroke-width="8" stroke-linecap="round" stroke-linejoin="round" stroke-miterlimit="10" d="
				M60.484,356.639c-0.206-1.354-0.399-2.714-0.582-4.079C60.085,353.925,60.278,355.285,60.484,356.639z"/>
			
				<path fill="#CCAC6C" stroke="#000000" stroke-width="8" stroke-linecap="round" stroke-linejoin="round" stroke-miterlimit="10" d="
				M345.432,304.6c0.038,0.735,0.079,1.469,0.113,2.206C345.511,306.068,345.47,305.335,345.432,304.6z"/>
			
				<path fill="#CCAC6C" stroke="#000000" stroke-width="8" stroke-linecap="round" stroke-linejoin="round" stroke-miterlimit="10" d="
				M343.706,283.961c0.089,0.771,0.175,1.544,0.259,2.317C343.881,285.505,343.795,284.731,343.706,283.961z"/>
			
				<path fill="#CCAC6C" stroke="#000000" stroke-width="8" stroke-linecap="round" stroke-linejoin="round" stroke-miterlimit="10" d="
				M343.085,278.933c0.101,0.768,0.197,1.537,0.293,2.308C343.282,280.47,343.187,279.7,343.085,278.933z"/>
			
				<path fill="#CCAC6C" stroke="#000000" stroke-width="8" stroke-linecap="round" stroke-linejoin="round" stroke-miterlimit="10" d="
				M345.908,322.563c0,1.979-0.03,3.946-0.081,5.904C345.878,326.51,345.908,324.543,345.908,322.563z"/>
			
				<path fill="#CCAC6C" stroke="#000000" stroke-width="8" stroke-linecap="round" stroke-linejoin="round" stroke-miterlimit="10" d="
				M345.765,330.257c-0.047,1.369-0.098,2.735-0.168,4.094C345.667,332.992,345.718,331.626,345.765,330.257z"/>
			
				<path fill="#CCAC6C" stroke="#000000" stroke-width="8" stroke-linecap="round" stroke-linejoin="round" stroke-miterlimit="10" d="
				M345.828,315.53c0.012,0.583,0.029,1.164,0.038,1.748C345.857,316.694,345.84,316.113,345.828,315.53z"/>
			
				<path fill="#CCAC6C" stroke="#000000" stroke-width="8" stroke-linecap="round" stroke-linejoin="round" stroke-miterlimit="10" d="
				M345.479,336.349c-0.079,1.299-0.164,2.596-0.265,3.885C345.314,338.944,345.4,337.647,345.479,336.349z"/>
			
				<path fill="#CCAC6C" stroke="#000000" stroke-width="8" stroke-linecap="round" stroke-linejoin="round" stroke-miterlimit="10" d="
				M345.669,309.943c0.025,0.694,0.055,1.387,0.076,2.083C345.724,311.33,345.694,310.638,345.669,309.943z"/>
			
				<path fill="#CCAC6C" stroke="#000000" stroke-width="8" stroke-linecap="round" stroke-linejoin="round" stroke-miterlimit="10" d="
				M344.722,294.167c0.064,0.767,0.129,1.533,0.188,2.302C344.851,295.7,344.786,294.934,344.722,294.167z"/>
			
				<path fill="#CCAC6C" stroke="#000000" stroke-width="8" stroke-linecap="round" stroke-linejoin="round" stroke-miterlimit="10" d="
				M344.494,347.851c-0.166,1.478-0.347,2.948-0.54,4.412C344.147,350.799,344.329,349.329,344.494,347.851z"/>
			
				<path fill="#CCAC6C" stroke="#000000" stroke-width="8" stroke-linecap="round" stroke-linejoin="round" stroke-miterlimit="10" d="
				M345.115,299.349c0.052,0.755,0.104,1.51,0.15,2.268C345.22,300.858,345.167,300.104,345.115,299.349z"/>
			
				<path fill="#CCAC6C" stroke="#000000" stroke-width="8" stroke-linecap="round" stroke-linejoin="round" stroke-miterlimit="10" d="
				M345.054,342.163c-0.115,1.338-0.241,2.67-0.38,3.997C344.812,344.833,344.938,343.501,345.054,342.163z"/>
			
				<path fill="#CCAC6C" stroke="#000000" stroke-width="8" stroke-linecap="round" stroke-linejoin="round" stroke-miterlimit="10" d="
				M344.252,289.04c0.077,0.77,0.151,1.54,0.224,2.313C344.403,290.579,344.329,289.81,344.252,289.04z"/>
			
				<path fill="#141414" stroke="#000000" stroke-width="8" stroke-linecap="round" stroke-linejoin="round" stroke-miterlimit="10" d="
				M57.969,327.515c-0.035-1.644-0.059-3.293-0.059-4.951C57.91,324.222,57.933,325.871,57.969,327.515z"/>
			
				<path fill="#141414" stroke="#000000" stroke-width="8" stroke-linecap="round" stroke-linejoin="round" stroke-miterlimit="10" d="
				M59.902,352.56c-0.007-0.05-0.013-0.1-0.019-0.149C59.89,352.46,59.896,352.51,59.902,352.56z"/>
			
				<polygon fill="#141414" stroke="#000000" stroke-width="8" stroke-linecap="round" stroke-linejoin="round" stroke-miterlimit="10" points="
				60.484,356.641 60.484,356.641 60.484,356.639 			"/>
			
				<path fill="#141414" stroke="#000000" stroke-width="8" stroke-linecap="round" stroke-linejoin="round" stroke-miterlimit="10" d="
				M58.662,340.935c-0.034-0.419-0.072-0.836-0.104-1.255C58.59,340.099,58.628,340.516,58.662,340.935z"/>
			
				<path fill="#141414" stroke="#000000" stroke-width="8" stroke-linecap="round" stroke-linejoin="round" stroke-miterlimit="10" d="
				M58.129,332.349c-0.043-1.003-0.078-2.01-0.107-3.019C58.052,330.339,58.085,331.346,58.129,332.349z"/>
			
				<path fill="#141414" stroke="#000000" stroke-width="8" stroke-linecap="round" stroke-linejoin="round" stroke-miterlimit="10" d="
				M58.378,336.993c-0.049-0.783-0.098-1.565-0.139-2.352C58.28,335.428,58.328,336.211,58.378,336.993z"/>
			
				<path fill="#141414" stroke="#000000" stroke-width="8" stroke-linecap="round" stroke-linejoin="round" stroke-miterlimit="10" d="
				M342.856,277.271l0.006,0.004c-0.047-0.344-0.098-0.686-0.146-1.029C342.765,276.587,342.81,276.929,342.856,277.271z"/>
			
				<path fill="#141414" stroke="#000000" stroke-width="8" stroke-linecap="round" stroke-linejoin="round" stroke-miterlimit="10" d="
				M341.978,271.277c0.139,0.889,0.279,1.777,0.411,2.671C342.257,273.055,342.116,272.166,341.978,271.277z"/>
			
				<path fill="#141414" stroke="#000000" stroke-width="8" stroke-linecap="round" stroke-linejoin="round" stroke-miterlimit="10" d="
				M322.218,202.806c0.105,0.238,0.216,0.475,0.321,0.714C322.434,203.28,322.323,203.044,322.218,202.806z"/>
			
				<path fill="#141414" stroke="#000000" stroke-width="8" stroke-linecap="round" stroke-linejoin="round" stroke-miterlimit="10" d="
				M325.401,210.3c0.203,0.503,0.409,1.004,0.61,1.51C325.811,211.304,325.604,210.803,325.401,210.3z"/>
			
				<path fill="#141414" stroke="#000000" stroke-width="8" stroke-linecap="round" stroke-linejoin="round" stroke-miterlimit="10" d="
				M323.775,206.386c0.177,0.415,0.356,0.826,0.531,1.244C324.132,207.212,323.952,206.801,323.775,206.386z"/>
			
				<path fill="#141414" stroke="#000000" stroke-width="8" stroke-linecap="round" stroke-linejoin="round" stroke-miterlimit="10" d="
				M315.1,188.265c0.023,0.044,0.046,0.089,0.069,0.133C315.146,188.354,315.123,188.309,315.1,188.265z"/>
			
				<path fill="#141414" stroke="#000000" stroke-width="8" stroke-linecap="round" stroke-linejoin="round" stroke-miterlimit="10" d="
				M337.846,249.921c0.216,0.929,0.42,1.865,0.627,2.801C338.266,251.786,338.062,250.85,337.846,249.921z"/>
			
				<path fill="#141414" stroke="#000000" stroke-width="8" stroke-linecap="round" stroke-linejoin="round" stroke-miterlimit="10" d="
				M310.948,180.905c0.15,0.255,0.299,0.514,0.449,0.77C311.247,181.419,311.099,181.16,310.948,180.905z"/>
			
				<path fill="#141414" stroke="#000000" stroke-width="8" stroke-linecap="round" stroke-linejoin="round" stroke-miterlimit="10" d="
				M313.052,184.546c0.113,0.202,0.225,0.407,0.338,0.61C313.276,184.953,313.165,184.748,313.052,184.546z"/>
			
				<path fill="#141414" stroke="#000000" stroke-width="8" stroke-linecap="round" stroke-linejoin="round" stroke-miterlimit="10" d="
				M339.223,256.2c0.216,1.03,0.433,2.059,0.638,3.096C339.655,258.259,339.438,257.23,339.223,256.2z"/>
			
				<path fill="#141414" stroke="#000000" stroke-width="8" stroke-linecap="round" stroke-linejoin="round" stroke-miterlimit="10" d="
				M330.096,222.854c0.214,0.622,0.425,1.245,0.635,1.87C330.521,224.099,330.31,223.476,330.096,222.854z"/>
			
				<path fill="#141414" stroke="#000000" stroke-width="8" stroke-linecap="round" stroke-linejoin="round" stroke-miterlimit="10" d="
				M331.549,227.204c0.21,0.648,0.417,1.3,0.623,1.952C331.966,228.504,331.759,227.853,331.549,227.204z"/>
			
				<path fill="#141414" stroke="#000000" stroke-width="8" stroke-linecap="round" stroke-linejoin="round" stroke-miterlimit="10" d="
				M336.72,245.257c0.193,0.771,0.377,1.55,0.563,2.326C337.097,246.807,336.913,246.028,336.72,245.257z"/>
			
				<path fill="#141414" stroke="#000000" stroke-width="8" stroke-linecap="round" stroke-linejoin="round" stroke-miterlimit="10" d="
				M334.268,236.11c0.199,0.697,0.393,1.398,0.587,2.099C334.66,237.509,334.467,236.808,334.268,236.11z"/>
			
				<path fill="#141414" stroke="#000000" stroke-width="8" stroke-linecap="round" stroke-linejoin="round" stroke-miterlimit="10" d="
				M340.263,261.404c0.172,0.907,0.348,1.813,0.513,2.724C340.61,263.217,340.435,262.312,340.263,261.404z"/>
			
				<path fill="#141414" stroke="#000000" stroke-width="8" stroke-linecap="round" stroke-linejoin="round" stroke-miterlimit="10" d="
				M327.013,214.384c0.213,0.555,0.427,1.107,0.637,1.665C327.439,215.491,327.226,214.938,327.013,214.384z"/>
			
				<path fill="#141414" stroke="#000000" stroke-width="8" stroke-linecap="round" stroke-linejoin="round" stroke-miterlimit="10" d="
				M328.582,218.577c0.215,0.591,0.429,1.182,0.64,1.776C329.011,219.76,328.797,219.168,328.582,218.577z"/>
			
				<path fill="#141414" stroke="#000000" stroke-width="8" stroke-linecap="round" stroke-linejoin="round" stroke-miterlimit="10" d="
				M335.527,240.653c0.195,0.729,0.384,1.465,0.573,2.198C335.91,242.118,335.723,241.383,335.527,240.653z"/>
			
				<path fill="#141414" stroke="#000000" stroke-width="8" stroke-linecap="round" stroke-linejoin="round" stroke-miterlimit="10" d="
				M265.323,130.506c0.026,0.019,0.053,0.036,0.08,0.055C265.376,130.542,265.35,130.524,265.323,130.506z"/>
			
				<path fill="#141414" stroke="#000000" stroke-width="8" stroke-linecap="round" stroke-linejoin="round" stroke-miterlimit="10" d="
				M299.767,164.1c0.129,0.172,0.258,0.342,0.385,0.514C300.024,164.441,299.896,164.271,299.767,164.1z"/>
			
				<path fill="#141414" stroke="#000000" stroke-width="8" stroke-linecap="round" stroke-linejoin="round" stroke-miterlimit="10" d="
				M268.249,132.565c0.046,0.033,0.092,0.066,0.138,0.1C268.341,132.632,268.295,132.599,268.249,132.565z"/>
			
				<path fill="#141414" stroke="#000000" stroke-width="8" stroke-linecap="round" stroke-linejoin="round" stroke-miterlimit="10" d="
				M332.94,231.625c0.205,0.672,0.405,1.347,0.605,2.022C333.346,232.972,333.146,232.297,332.94,231.625z"/>
			
				<path fill="#141414" stroke="#000000" stroke-width="8" stroke-linecap="round" stroke-linejoin="round" stroke-miterlimit="10" d="
				M274.061,137.03c0.018,0.015,0.034,0.029,0.052,0.043C274.095,137.06,274.078,137.045,274.061,137.03z"/>
			
				<path fill="#141414" stroke="#000000" stroke-width="8" stroke-linecap="round" stroke-linejoin="round" stroke-miterlimit="10" d="
				M297.481,161.111c0.077,0.098,0.154,0.194,0.23,0.292C297.636,161.306,297.559,161.209,297.481,161.111z"/>
			
				<path fill="#141414" stroke="#000000" stroke-width="8" stroke-linecap="round" stroke-linejoin="round" stroke-miterlimit="10" d="
				M271.165,134.741c0.044,0.034,0.088,0.068,0.133,0.103C271.253,134.81,271.209,134.775,271.165,134.741z"/>
			
				<path fill="#141414" stroke="#000000" stroke-width="8" stroke-linecap="round" stroke-linejoin="round" stroke-miterlimit="10" d="
				M302.063,167.241c0.157,0.221,0.314,0.44,0.472,0.662C302.378,167.682,302.221,167.462,302.063,167.241z"/>
			
				<path fill="#141414" stroke="#000000" stroke-width="8" stroke-linecap="round" stroke-linejoin="round" stroke-miterlimit="10" d="
				M341.161,266.344c0.155,0.891,0.311,1.78,0.459,2.675C341.472,268.124,341.316,267.234,341.161,266.344z"/>
			
				<path fill="#141414" stroke="#000000" stroke-width="8" stroke-linecap="round" stroke-linejoin="round" stroke-miterlimit="10" d="
				M308.794,177.349c0.168,0.271,0.333,0.545,0.5,0.816C309.127,177.894,308.962,177.62,308.794,177.349z"/>
			
				<path fill="#141414" stroke="#000000" stroke-width="8" stroke-linecap="round" stroke-linejoin="round" stroke-miterlimit="10" d="
				M304.345,170.51c0.17,0.25,0.34,0.501,0.51,0.751C304.685,171.011,304.515,170.76,304.345,170.51z"/>
			
				<path fill="#141414" stroke="#000000" stroke-width="8" stroke-linecap="round" stroke-linejoin="round" stroke-miterlimit="10" d="
				M306.59,173.881c0.175,0.269,0.348,0.538,0.521,0.808C306.938,174.419,306.765,174.149,306.59,173.881z"/>
			
				<path fill="#141414" stroke="#000000" stroke-width="8" stroke-linecap="round" stroke-linejoin="round" stroke-miterlimit="10" d="
				M345.266,301.616c0.062,0.992,0.113,1.987,0.166,2.983C345.379,303.604,345.327,302.608,345.266,301.616z"/>
			
				<path fill="#141414" stroke="#000000" stroke-width="8" stroke-linecap="round" stroke-linejoin="round" stroke-miterlimit="10" d="
				M344.909,296.469c0.074,0.958,0.141,1.918,0.206,2.88C345.05,298.387,344.983,297.427,344.909,296.469z"/>
			
				<path fill="#141414" stroke="#000000" stroke-width="8" stroke-linecap="round" stroke-linejoin="round" stroke-miterlimit="10" d="
				M343.378,281.24c0.112,0.905,0.223,1.812,0.328,2.721C343.601,283.052,343.49,282.146,343.378,281.24z"/>
			
				<path fill="#141414" stroke="#000000" stroke-width="8" stroke-linecap="round" stroke-linejoin="round" stroke-miterlimit="10" d="
				M344.476,291.353c0.086,0.936,0.168,1.874,0.246,2.814C344.644,293.227,344.562,292.288,344.476,291.353z"/>
			
				<path fill="#141414" stroke="#000000" stroke-width="8" stroke-linecap="round" stroke-linejoin="round" stroke-miterlimit="10" d="
				M343.085,278.933c-0.073-0.554-0.146-1.106-0.223-1.658l-0.006-0.004C342.933,277.825,343.012,278.377,343.085,278.933z"/>
			
				<path fill="#141414" stroke="#000000" stroke-width="8" stroke-linecap="round" stroke-linejoin="round" stroke-miterlimit="10" d="
				M343.965,286.278c0.1,0.918,0.195,1.839,0.287,2.762C344.16,288.117,344.064,287.196,343.965,286.278z"/>
			
				<path fill="#141414" stroke="#000000" stroke-width="8" stroke-linecap="round" stroke-linejoin="round" stroke-miterlimit="10" d="
				M345.214,340.233c-0.05,0.645-0.104,1.287-0.16,1.93C345.11,341.521,345.164,340.878,345.214,340.233z"/>
			
				<path fill="#141414" stroke="#000000" stroke-width="8" stroke-linecap="round" stroke-linejoin="round" stroke-miterlimit="10" d="
				M345.597,334.351c-0.034,0.668-0.078,1.332-0.118,1.998C345.519,335.683,345.563,335.019,345.597,334.351z"/>
			
				<path fill="#141414" stroke="#000000" stroke-width="8" stroke-linecap="round" stroke-linejoin="round" stroke-miterlimit="10" d="
				M345.827,328.468c-0.015,0.6-0.043,1.192-0.063,1.789C345.784,329.66,345.813,329.067,345.827,328.468z"/>
			
				<path fill="#141414" stroke="#000000" stroke-width="8" stroke-linecap="round" stroke-linejoin="round" stroke-miterlimit="10" d="
				M343.954,352.263c-0.052,0.395-0.1,0.791-0.154,1.184C343.854,353.054,343.902,352.657,343.954,352.263z"/>
			
				<path fill="#141414" stroke="#000000" stroke-width="8" stroke-linecap="round" stroke-linejoin="round" stroke-miterlimit="10" d="
				M345.545,306.806c0.048,1.043,0.086,2.09,0.124,3.138C345.631,308.896,345.593,307.849,345.545,306.806z"/>
			
				<path fill="#141414" stroke="#000000" stroke-width="8" stroke-linecap="round" stroke-linejoin="round" stroke-miterlimit="10" d="
				M345.866,317.278c0.027,1.757,0.042,3.519,0.042,5.285C345.908,320.797,345.894,319.035,345.866,317.278z"/>
			
				<path fill="#141414" stroke="#000000" stroke-width="8" stroke-linecap="round" stroke-linejoin="round" stroke-miterlimit="10" d="
				M344.674,346.16c-0.059,0.563-0.117,1.128-0.18,1.69C344.557,347.288,344.615,346.724,344.674,346.16z"/>
			
				<path fill="#141414" stroke="#000000" stroke-width="8" stroke-linecap="round" stroke-linejoin="round" stroke-miterlimit="10" d="
				M345.745,312.026c0.035,1.164,0.06,2.334,0.083,3.504C345.805,314.36,345.78,313.19,345.745,312.026z"/>
			
				<path fill="#141414" stroke="#000000" stroke-width="8" stroke-linecap="round" stroke-linejoin="round" stroke-miterlimit="10" d="
				M201.909,104.569c-95.788,0-163.196,93.963-157.611,197.78c3.159-11.812,9.031-20.907,16.664-25.079
				c-2.002,14.596-3.052,29.746-3.052,45.293c0,1.658,0.023,3.308,0.059,4.951c0.013,0.607,0.034,1.211,0.053,1.815
				c0.029,1.009,0.064,2.016,0.107,3.019c0.032,0.767,0.069,1.531,0.11,2.293c0.041,0.786,0.09,1.568,0.139,2.352
				c0.057,0.896,0.113,1.794,0.181,2.687c0.031,0.419,0.069,0.836,0.104,1.255c0.314,3.869,0.72,7.697,1.222,11.476
				c0.006,0.05,0.012,0.1,0.019,0.149c0.183,1.365,0.376,2.726,0.582,4.079v0.002l1.948-3.738
				c-1.266-33.891,3.189-59.171,10.26-78.013c18.201-48.512,53.752-54.32,53.752-54.32c-5,20,5,44,5,44
				c23-71,114.498-77.868,114.498-77.868l-41.116-76.081l51.952,76.449c0,0,53.665,14.122,75.707,87.712
				c7.389,24.663,11.227,56.001,8.299,95.73c1.21-5.572,2.219-11.265,3.016-17.065c0.055-0.393,0.103-0.789,0.154-1.184
				c0.193-1.464,0.374-2.935,0.54-4.412c0.063-0.563,0.121-1.127,0.18-1.69c0.139-1.327,0.265-2.659,0.38-3.997
				c0.056-0.643,0.11-1.285,0.16-1.93c0.101-1.289,0.186-2.586,0.265-3.885c0.04-0.666,0.084-1.33,0.118-1.998
				c0.07-1.358,0.121-2.725,0.168-4.094c0.02-0.597,0.048-1.189,0.063-1.789c0.051-1.958,0.081-3.925,0.081-5.904
				c0-1.767-0.015-3.528-0.042-5.285c-0.009-0.584-0.026-1.165-0.038-1.748c-0.023-1.17-0.048-2.34-0.083-3.504
				c-0.021-0.696-0.051-1.389-0.076-2.083c-0.038-1.048-0.076-2.095-0.124-3.138c-0.034-0.737-0.075-1.471-0.113-2.206
				c-0.053-0.996-0.104-1.991-0.166-2.983c-0.046-0.758-0.099-1.513-0.15-2.268c-0.065-0.962-0.132-1.922-0.206-2.88
				c-0.059-0.769-0.123-1.535-0.188-2.302c-0.078-0.94-0.16-1.879-0.246-2.814c-0.072-0.772-0.146-1.543-0.224-2.313
				c-0.092-0.923-0.188-1.844-0.287-2.762c-0.084-0.773-0.17-1.547-0.259-2.317c-0.105-0.909-0.216-1.815-0.328-2.721
				c-0.096-0.771-0.192-1.54-0.293-2.308c-0.073-0.556-0.152-1.107-0.229-1.662c-0.047-0.342-0.092-0.684-0.141-1.025
				c0.049,0.344,0.1,0.686,0.146,1.029c7.631,4.173,13.5,13.266,16.658,25.074C365.103,198.532,297.696,104.569,201.909,104.569z"/>
			<g>
				<g>
					
						<path fill="#FFFFFF" stroke="#000000" stroke-width="8" stroke-linecap="round" stroke-linejoin="round" stroke-miterlimit="10" d="
						M141.354,306.816c15.135,1.219,20.188,3.92,23.143,16.063c-4.861,11.513-18.309,19.16-33.445,17.939
						c-15.137-1.219-27.189-10.92-30.145-23.063C105.768,306.243,126.217,305.596,141.354,306.816z"/>
					<g>
						<defs>
							<path id="SVGID_7_" d="M141.354,306.816c15.135,1.219,20.188,3.92,23.143,16.063c-4.861,11.513-18.309,19.16-33.445,17.939
								c-15.137-1.219-27.189-10.92-30.145-23.063C105.768,306.243,126.217,305.596,141.354,306.816z"/>
						</defs>
						<clipPath id="SVGID_2_">
							<use xlink:href="#SVGID_7_"  overflow="visible"/>
						</clipPath>
						<g clip-path="url(#SVGID_2_)">
							<g>
								<path fill="#564432" d="M132.729,336.887c-0.449,0-0.905-0.019-1.354-0.055c-4.414-0.354-8.424-2.406-11.292-5.776
									c-2.867-3.371-4.251-7.656-3.895-12.067c0.687-8.546,7.93-15.239,16.489-15.239c0.448,0,0.904,0.019,1.354,0.055
									c4.411,0.354,8.42,2.406,11.287,5.777c2.868,3.371,4.252,7.656,3.896,12.067
									C148.527,330.193,141.286,336.887,132.729,336.887L132.729,336.887z"/>
								<path d="M132.678,307.749c0.342,0,0.689,0.014,1.034,0.041c3.346,0.27,6.386,1.826,8.562,4.383
									c2.175,2.557,3.226,5.809,2.956,9.154c-0.522,6.482-6.014,11.56-12.5,11.56c-0.342,0-0.689-0.014-1.036-0.042
									c-3.347-0.269-6.388-1.824-8.563-4.382c-2.176-2.556-3.225-5.807-2.954-9.155
									C120.696,312.825,126.188,307.749,132.678,307.749 M132.678,299.749c-10.612,0-19.611,8.156-20.477,18.917
									c-0.914,11.323,7.525,21.243,18.852,22.153c0.563,0.045,1.122,0.068,1.677,0.068c10.607,0,19.607-8.158,20.474-18.918
									c0.912-11.322-7.527-21.242-18.85-22.153C133.792,299.771,133.231,299.749,132.678,299.749L132.678,299.749z"/>
							</g>
							<circle cx="132.703" cy="320.317" r="6.737"/>
						</g>
					</g>
				</g>
				<g>
					
						<path fill="#FFFFFF" stroke="#000000" stroke-width="8" stroke-linecap="round" stroke-linejoin="round" stroke-miterlimit="10" d="
						M262.466,306.816c-15.135,1.219-20.188,3.92-23.143,16.063c4.861,11.513,18.309,19.16,33.445,17.939
						c15.137-1.219,27.189-10.92,30.145-23.063C298.052,306.243,277.603,305.596,262.466,306.816z"/>
					<g>
						<defs>
							<path id="SVGID_9_" d="M262.466,306.816c-15.135,1.219-20.188,3.92-23.143,16.063c4.861,11.513,18.309,19.16,33.445,17.939
								c15.137-1.219,27.189-10.92,30.145-23.063C298.052,306.243,277.603,305.596,262.466,306.816z"/>
						</defs>
						<clipPath id="SVGID_4_">
							<use xlink:href="#SVGID_9_"  overflow="visible"/>
						</clipPath>
						<g clip-path="url(#SVGID_4_)">
							<g>
								<path fill="#564432" d="M271.09,336.887c-8.557,0-15.798-6.693-16.486-15.238c-0.355-4.411,1.028-8.696,3.896-12.067
									c2.867-3.371,6.876-5.423,11.287-5.777c0.45-0.036,0.906-0.055,1.354-0.055c8.56,0,15.803,6.693,16.489,15.237
									c0.356,4.413-1.027,8.698-3.895,12.069c-2.868,3.37-6.878,5.422-11.29,5.776
									C271.994,336.868,271.539,336.887,271.09,336.887z"/>
								<path d="M271.144,299.749v8c6.488,0,11.979,5.076,12.5,11.561c0.271,3.347-0.778,6.598-2.954,9.153
									c-2.175,2.558-5.217,4.113-8.567,4.382c-0.343,0.028-0.69,0.042-1.032,0.042c-6.487,0-11.978-5.077-12.499-11.56
									c-0.27-3.346,0.779-6.598,2.955-9.154s5.216-4.113,8.563-4.383c0.344-0.027,0.691-0.041,1.033-0.041L271.144,299.749
									 M271.142,299.749c-0.554,0-1.113,0.021-1.676,0.067c-11.322,0.911-19.762,10.831-18.85,22.153
									c0.867,10.76,9.866,18.918,20.474,18.918c0.555,0,1.114-0.023,1.677-0.068c11.326-0.91,19.766-10.83,18.852-22.153
									C290.753,307.905,281.754,299.748,271.142,299.749L271.142,299.749z"/>
							</g>
							<circle cx="271.116" cy="320.317" r="6.737"/>
						</g>
					</g>
				</g>
			</g>
			<path fill="none" stroke="#000000" stroke-width="8" stroke-linecap="round" stroke-linejoin="round" stroke-miterlimit="10" d="
				M174.777,294.114c2.631,1.519,20,21.456,20,41.456s-10,66.667-10,66.667"/>
			<g>
				<path d="M191.32,432.235c-2.647,5.386-5.36,3.613-8.923,1.862c-3.561-1.75-6.621-2.816-3.974-8.202
					c2.646-5.385,9.304-11.636,12.864-9.885C194.851,417.761,193.968,426.85,191.32,432.235z"/>
				<path d="M212.498,432.235c2.647,5.386,5.36,3.613,8.923,1.862c3.561-1.75,6.621-2.816,3.974-8.202
					c-2.646-5.385-9.304-11.636-12.864-9.885C208.968,417.761,209.851,426.85,212.498,432.235z"/>
			</g>
			<path fill="none" stroke="#000000" stroke-width="8" stroke-linecap="round" stroke-linejoin="round" stroke-miterlimit="10" d="
				M75.692,217.313c-11.471,31.013-17.782,66.943-17.782,105.25c0,11.74,0.908,23.109,2.574,34.077"/>
			<path fill="none" stroke="#000000" stroke-width="8" stroke-linecap="round" stroke-linejoin="round" stroke-miterlimit="10" d="
				M340.784,370.512c3.291-15.155,5.124-31.179,5.124-47.948c0-38.311-6.319-74.238-17.792-105.25"/>
			<g>
				
					<path fill="#CCAC6C" stroke="#000000" stroke-width="8" stroke-linecap="round" stroke-linejoin="round" stroke-miterlimit="10" d="
					M243.227,348.41c11.224,13.348,57.418,11.166,65.787-8.249"/>
				
					<path fill="#CCAC6C" stroke="#000000" stroke-width="8" stroke-linecap="round" stroke-linejoin="round" stroke-miterlimit="10" d="
					M160.592,348.41c-11.224,13.348-57.418,11.166-65.787-8.249"/>
			</g>
			<g>
				<g>
					
						<path fill="none" stroke="#000000" stroke-width="8" stroke-linecap="round" stroke-linejoin="round" stroke-miterlimit="10" d="
						M164.839,284.446c-14.346-20.855-57.013-22.355-85.846,6.478"/>
				</g>
				<g>
					
						<path fill="none" stroke="#000000" stroke-width="8" stroke-linecap="round" stroke-linejoin="round" stroke-miterlimit="10" d="
						M238.979,284.446c14.346-20.855,57.013-22.355,85.846,6.478"/>
				</g>
			</g>
			<path fill="none" stroke="#000000" stroke-width="8" stroke-linecap="round" stroke-linejoin="round" stroke-miterlimit="10" d="
				M188.262,475.588c4.377-1.057,7.855-1.332,13.644-1.332c5.789,0,9.274,0.275,13.651,1.332"/>
		</g>
		<g>
			<path fill="none" stroke="#000000" stroke-width="8" stroke-linecap="round" stroke-linejoin="round" stroke-miterlimit="10" d="
				M155.369,295.317c-7.838-7.658-27.496-9.039-37.688-3.965"/>
			<path fill="none" stroke="#000000" stroke-width="8" stroke-linecap="round" stroke-linejoin="round" stroke-miterlimit="10" d="
				M248.449,295.317c7.838-7.658,27.496-9.039,37.688-3.965"/>
		</g>
	</g>
	<g>
		<path fill="none" stroke="#000000" stroke-width="8" stroke-linejoin="round" stroke-miterlimit="10" d="M475.996,328.693
			c0.446,0.667,0.894,1.345,1.341,2.038c0.885,1.515,1.789,3.068,2.717,4.658c0.446,0.808,0.937,1.566,1.354,2.437
			c0.415,0.866,0.836,1.74,1.261,2.625c0.416,0.883,0.837,1.774,1.261,2.675c0.211,0.448,0.424,0.898,0.637,1.351
			c0.188,0.479,0.375,0.959,0.564,1.442c0.739,1.94,1.482,3.904,2.197,5.912c0.6,2.105,1.184,4.24,1.748,6.398
			c0.5,2.201,0.836,4.52,1.221,6.806c0.316,2.319,0.4,4.754,0.559,7.146c0.018,2.436-0.086,4.917-0.229,7.386
			c-0.167,1.241-0.335,2.488-0.506,3.743c-0.185,1.247-0.331,2.494-0.675,3.735c-0.613,2.483-1.177,4.972-2.148,7.379
			c-1.643,4.888-4.25,9.46-7.141,13.736c-1.615,2.032-3.084,4.168-4.938,5.982c-0.902,0.924-1.76,1.888-2.711,2.756
			c-0.973,0.838-1.947,1.677-2.924,2.518c-0.951,0.862-2.031,1.567-3.073,2.312c-1.063,0.712-2.062,1.512-3.187,2.124l-3.328,1.876
			c-1.09,0.647-2.3,1.084-3.442,1.621c-2.28,1.102-4.722,1.813-7.098,2.596c-1.199,0.36-2.441,0.591-3.655,0.879
			c-1.217,0.281-2.43,0.546-3.673,0.672l-3.685,0.46c-1.233,0.08-2.471,0.093-3.695,0.131l-1.834,0.039
			c-0.611-0.012-1.223-0.074-1.83-0.109l-3.629-0.276c-4.781-0.706-9.449-1.744-13.729-3.561c-1.07-0.447-2.162-0.821-3.185-1.335
			c-1.013-0.526-2.021-1.053-3.027-1.577l-1.493-0.789c-0.492-0.268-0.945-0.6-1.416-0.896c-0.928-0.611-1.852-1.221-2.773-1.827
			c-3.146-2.173-6.449-4.434-9.645-6.44c-1.569-0.896-3.166-1.719-4.729-2.577c-1.574-0.839-3.123-1.685-4.766-2.355
			c-1.62-0.708-3.225-1.409-4.807-2.102c-0.787-0.371-1.59-0.66-2.393-0.933c-0.799-0.287-1.592-0.572-2.381-0.854
			c-3.129-1.259-6.254-2.095-9.268-3.051c-1.511-0.469-3.02-0.74-4.496-1.114c-0.742-0.176-1.477-0.351-2.203-0.522
			c-0.73-0.154-1.459-0.228-2.178-0.346c-5.764-1.078-11.15-1.065-15.911-0.706c-1.181,0.144-2.358,0.188-3.452,0.4
			c-1.102,0.214-2.164,0.42-3.186,0.618c-1.023,0.209-1.959,0.547-2.889,0.795c-0.463,0.134-0.914,0.265-1.354,0.393
			c-0.427,0.161-0.845,0.318-1.25,0.472c-3.319,1.13-5.688,2.597-7.315,3.576c-0.807,0.507-1.369,0.971-1.78,1.252
			c-0.403,0.292-0.61,0.443-0.61,0.443s0.17-0.19,0.501-0.56c0.339-0.359,0.804-0.946,1.497-1.623
			c0.358-0.326,0.761-0.689,1.202-1.091c0.438-0.409,0.929-0.846,1.507-1.252c0.568-0.426,1.179-0.884,1.832-1.372
			c0.668-0.464,1.42-0.893,2.198-1.384c3.151-1.869,7.28-3.788,12.313-5.043c5.004-1.294,10.913-2.153,17.32-1.903
			c0.803,0.02,1.621-0.005,2.438,0.052c0.813,0.073,1.633,0.149,2.461,0.226c0.832,0.078,1.672,0.156,2.52,0.235
			c0.846,0.088,1.715,0.13,2.551,0.319c1.697,0.317,3.424,0.639,5.176,0.965c0.881,0.156,1.756,0.357,2.613,0.622
			c0.867,0.245,1.74,0.492,2.619,0.741c0.877,0.259,1.76,0.52,2.648,0.782c0.892,0.256,1.783,0.53,2.646,0.88
			c1.747,0.66,3.515,1.327,5.302,2.003c1.807,0.618,3.566,1.472,5.372,2.268c1.813,0.782,3.625,1.614,5.495,2.387
			c3.494,1.684,6.906,3.331,10.656,4.938c0.809,0.326,1.622,0.653,2.436,0.98c0.408,0.154,0.8,0.348,1.219,0.474l1.254,0.358
			c0.828,0.24,1.66,0.481,2.492,0.724c0.828,0.23,1.695,0.319,2.531,0.49c3.354,0.709,6.775,0.695,10.078,0.543l2.465-0.33
			c0.408-0.058,0.816-0.088,1.219-0.165l1.201-0.291c0.798-0.199,1.593-0.358,2.374-0.567l2.296-0.801
			c0.377-0.142,0.766-0.23,1.129-0.407l1.091-0.52c0.719-0.357,1.456-0.638,2.146-1.031c1.354-0.847,2.744-1.545,3.953-2.544
			c0.608-0.486,1.281-0.854,1.827-1.406l1.695-1.529c0.581-0.475,1.026-1.109,1.545-1.638c0.493-0.558,1.032-1.057,1.437-1.685
			l1.301-1.747c0.416-0.587,0.736-1.241,1.113-1.837c0.371-0.602,0.742-1.191,1-1.851l0.868-1.872
			c0.895-2.592,1.688-5.09,1.839-7.651c0.344-2.502,0.095-5.003-0.16-7.36c-0.274-1.201-0.487-2.364-0.777-3.505
			c-0.437-1.149-0.709-2.261-1.164-3.354c-0.533-1.093-0.934-2.158-1.465-3.197c-0.607-1.036-1.18-2.046-1.713-3.034
			c-0.674-0.97-1.336-1.922-1.986-2.856c-0.16-0.232-0.306-0.466-0.473-0.693l-0.566-0.669c-0.373-0.44-0.742-0.876-1.107-1.308
			c-0.355-0.43-0.709-0.854-1.059-1.275c-0.338-0.421-0.793-0.81-1.172-1.209c-0.776-0.788-1.534-1.558-2.273-2.309
			c-1.602-1.453-3.189-2.796-4.641-4.056c-1.59-1.197-3.076-2.317-4.453-3.353c-0.275-0.177-0.527-0.337-0.795-0.507"/>
	</g>
</g>
</svg>
