<?xml version="1.0" encoding="utf-8"?>
<!-- Generator: Adobe Illustrator 16.0.0, SVG Export Plug-In . SVG Version: 6.00 Build 0)  -->
<!DOCTYPE svg PUBLIC "-//W3C//DTD SVG 1.1//EN" "http://www.w3.org/Graphics/SVG/1.1/DTD/svg11.dtd">
<svg version="1.1" xmlns="http://www.w3.org/2000/svg" xmlns:xlink="http://www.w3.org/1999/xlink" x="0px" y="0px"
	 width="566.93px" height="566.93px" viewBox="0 0 566.93 566.93" enable-background="new 0 0 566.93 566.93" xml:space="preserve">
<g id="fond" display="none">
	
		<rect x="-12549.873" y="-11116" display="inline" fill-rule="evenodd" clip-rule="evenodd" fill="#58595B" width="16654.492" height="16572.797"/>
</g>
<g id="en_cours">
</g>
<g id="fini">
	<g>
		<g>
			
				<path fill="#CCAC6C" stroke="#000000" stroke-width="8" stroke-linecap="round" stroke-linejoin="round" stroke-miterlimit="10" d="
				M376.874,248.279c-2.464,15.1-9.777,26.47-16.336,25.4c-6.559-1.07-9.88-14.176-7.416-29.274
				c2.461-15.102,9.776-26.471,16.336-25.401C376.016,220.074,379.338,233.179,376.874,248.279z"/>
			
				<path fill="#CCAC6C" stroke="#000000" stroke-width="8" stroke-linecap="round" stroke-linejoin="round" stroke-miterlimit="10" d="
				M190.056,248.279c2.464,15.1,9.777,26.47,16.336,25.4c6.559-1.07,9.88-14.176,7.416-29.274
				c-2.461-15.102-9.776-26.471-16.336-25.401C190.914,220.074,187.592,233.179,190.056,248.279z"/>
		</g>
		<g>
			<g>
				<g>
					
						<path fill="#141414" stroke="#000000" stroke-width="8" stroke-linecap="round" stroke-linejoin="round" stroke-miterlimit="10" d="
						M95.606,490.348l12.139-53.792c0-19.653,81.116-76.645,178.164-76.645c97.047,0,173.275,56.991,173.275,76.645l12.139,53.792"
						/>
					
						<polyline fill="#CCAC6C" stroke="#000000" stroke-width="8" stroke-linecap="round" stroke-linejoin="round" stroke-miterlimit="10" points="
						330.23,339.428 330.23,368.736 354.734,393.241 283.465,483.098 212.194,393.241 236.698,368.736 236.698,339.428 					"/>
					
						<path fill="#CCAC6C" stroke="#000000" stroke-width="8" stroke-linecap="round" stroke-linejoin="round" stroke-miterlimit="10" d="
						M354.306,167.872c14.046,29.185,19.266,192.039-70.991,192.039c-90.248,0-85.029-162.854-70.981-192.039"/>
					<g>
						<circle cx="292.427" cy="292.55" r="6.253"/>
						<circle cx="274.502" cy="292.55" r="6.253"/>
					</g>
					
						<line fill="#CCAC6C" stroke="#000000" stroke-width="8" stroke-linecap="round" stroke-linejoin="round" stroke-miterlimit="10" x1="260.293" y1="327.542" x2="306.637" y2="327.542"/>
					<g>
						
							<path fill="none" stroke="#000000" stroke-width="8" stroke-linecap="round" stroke-linejoin="round" stroke-miterlimit="10" d="
							M177.978,424.594c11.035,15.638,89.93,38.81,102.066,41.568c12.138,2.759,89.197-32.008,98.757-41.568"/>
						
							<path fill="none" stroke="#000000" stroke-width="8" stroke-linecap="round" stroke-linejoin="round" stroke-miterlimit="10" d="
							M115.633,489.052c6.583-6.582,119.171-14.063,133.517-14.063c14.344,0,46.012-1.104,57.487,1.655
							s108.302,2.482,117.405,11.586"/>
						
							<path fill="#141414" stroke="#000000" stroke-width="8" stroke-linecap="round" stroke-linejoin="round" stroke-miterlimit="10" d="
							M164.545,445.626c18.003,2.714,42.944,11.218,42.122,16.674c-0.823,5.456-80.698,2.337-80.698,2.337"/>
						
							<path fill="#141414" stroke="#000000" stroke-width="8" stroke-linecap="round" stroke-linejoin="round" stroke-miterlimit="10" d="
							M387.806,444.408c0,0-48.288,12.651-48.176,17.754c0.109,5.103,67.404,0.623,78.507,6.715"/>
						<g>
							<g>
								
									<line fill="#141414" stroke="#000000" stroke-width="8" stroke-linecap="round" stroke-linejoin="round" stroke-miterlimit="10" x1="273.978" y1="487.023" x2="216.24" y2="544.762"/>
								
									<path fill="#141414" stroke="#000000" stroke-width="8" stroke-linecap="round" stroke-linejoin="round" stroke-miterlimit="10" d="
									M286.462,499.508c0,0-0.759,1.046-2.238,2.724c-1.475,1.685-3.662,4.007-6.441,6.639c-1.387,1.322-2.931,2.71-4.584,4.157
									c-0.836,0.713-1.696,1.446-2.576,2.195c-0.898,0.729-1.816,1.475-2.75,2.232c-1.896,1.486-3.854,3.025-5.918,4.514
									c-2.027,1.525-4.18,2.98-6.299,4.47c-2.182,1.428-4.319,2.897-6.514,4.257c-1.098,0.678-2.195,1.342-3.305,1.973
									c-1.103,0.641-2.184,1.278-3.293,1.859c-2.186,1.199-4.358,2.297-6.469,3.287c-2.104,0.996-4.144,1.889-6.081,2.657
									c-1.921,0.786-3.748,1.44-5.39,1.997c-1.64,0.561-3.123,0.993-4.367,1.328c-1.22,0.359-2.235,0.584-2.924,0.742
									c-0.684,0.161-1.073,0.223-1.073,0.223s0.061-0.391,0.224-1.073c0.158-0.688,0.382-1.705,0.742-2.924
									c0.334-1.244,0.767-2.729,1.327-4.367c0.558-1.642,1.211-3.469,1.997-5.389c0.768-1.938,1.661-3.978,2.656-6.083
									c0.99-2.111,2.089-4.283,3.288-6.468c0.581-1.11,1.219-2.191,1.858-3.293c0.631-1.11,1.297-2.208,1.974-3.305
									c1.36-2.192,2.828-4.332,4.257-6.513c1.49-2.119,2.945-4.272,4.468-6.301c1.489-2.064,3.03-4.02,4.517-5.917
									c0.758-0.935,1.503-1.853,2.232-2.751c0.748-0.879,1.482-1.739,2.195-2.575c1.447-1.655,2.835-3.198,4.156-4.584
									c2.633-2.779,4.955-4.968,6.64-6.44c1.676-1.48,2.724-2.239,2.724-2.239c7.987-5.801,19.166-4.026,24.967,3.962
									C291.122,484.919,290.874,493.414,286.462,499.508z"/>
							</g>
							<g>
								
									<line fill="#141414" stroke="#000000" stroke-width="8" stroke-linecap="round" stroke-linejoin="round" stroke-miterlimit="10" x1="292.951" y1="487.023" x2="350.689" y2="544.762"/>
								
									<path fill="#141414" stroke="#000000" stroke-width="8" stroke-linecap="round" stroke-linejoin="round" stroke-miterlimit="10" d="
									M305.436,474.54c0,0,1.046,0.759,2.726,2.238c1.683,1.474,4.006,3.661,6.637,6.441c1.324,1.386,2.711,2.929,4.158,4.583
									c0.712,0.837,1.445,1.697,2.194,2.576c0.729,0.898,1.477,1.816,2.233,2.751c1.485,1.896,3.026,3.853,4.514,5.917
									c1.525,2.028,2.98,4.18,4.469,6.3c1.43,2.181,2.899,4.319,4.257,6.513c0.678,1.098,1.342,2.195,1.974,3.306
									c0.641,1.102,1.28,2.183,1.86,3.293c1.198,2.185,2.295,4.356,3.286,6.468c0.996,2.104,1.889,4.145,2.658,6.082
									c0.786,1.92,1.439,3.748,1.995,5.39c0.563,1.638,0.993,3.123,1.33,4.366c0.357,1.22,0.584,2.236,0.741,2.925
									c0.162,0.683,0.222,1.073,0.222,1.073s-0.39-0.062-1.074-0.225c-0.687-0.157-1.704-0.381-2.921-0.741
									c-1.247-0.334-2.73-0.767-4.369-1.327c-1.64-0.559-3.467-1.211-5.387-1.998c-1.94-0.768-3.979-1.66-6.084-2.656
									c-2.11-0.99-4.283-2.088-6.47-3.287c-1.108-0.581-2.19-1.219-3.292-1.859c-1.11-0.631-2.206-1.297-3.303-1.973
									c-2.194-1.36-4.332-2.83-6.514-4.258c-2.12-1.489-4.274-2.945-6.301-4.469c-2.064-1.488-4.02-3.029-5.916-4.515
									c-0.936-0.758-1.854-1.503-2.752-2.233c-0.88-0.747-1.741-1.48-2.577-2.194c-1.653-1.447-3.196-2.835-4.583-4.156
									c-2.777-2.634-4.967-4.956-6.439-6.64c-1.48-1.677-2.239-2.724-2.239-2.724c-5.802-7.989-4.027-19.166,3.962-24.967
									C290.849,469.88,299.344,470.127,305.436,474.54z"/>
							</g>
						</g>
						
							<circle fill="#141414" stroke="#000000" stroke-width="8" stroke-linecap="round" stroke-linejoin="round" stroke-miterlimit="10" cx="283.465" cy="471.127" r="17.925"/>
					</g>
					
						<path fill="#141414" stroke="#000000" stroke-width="8" stroke-linecap="round" stroke-linejoin="round" stroke-miterlimit="10" d="
						M204.394,202.906c-3.677,2.121-4.953,42.399,1.15,48.502c3.016,3.014,38.624,19.319,75.212,18.439
						c37.472-0.902,75.97-19.066,81.489-22.253c10.907-6.298,4.936-49.738-1.394-49.738c-3.268,0-34.358,9.966-73.265,9.966
						C238.447,207.822,206.831,201.498,204.394,202.906z"/>
				</g>
				<g>
					
						<path fill="#E5E2D3" stroke="#000000" stroke-width="8" stroke-linecap="round" stroke-linejoin="round" stroke-miterlimit="10" d="
						M300.697,248.295c3.862-17.241,26.536-24.044,39.585-23.295c11.731,0.674-1.411,22.657-9.52,25.363
						C322.212,253.22,307.317,251.467,300.697,248.295z"/>
					
						<path fill="#E5E2D3" stroke="#000000" stroke-width="8" stroke-linecap="round" stroke-linejoin="round" stroke-miterlimit="10" d="
						M266.232,248.295c-3.862-17.241-26.536-24.044-39.585-23.295c-11.732,0.674,1.411,22.657,9.52,25.363
						C244.717,253.22,259.612,251.467,266.232,248.295z"/>
				</g>
			</g>
		</g>
		<g>
			<g>
				<path d="M295.104,303.654c0,0,0.147,0.146,0.423,0.42c0.139,0.137,0.309,0.307,0.508,0.505c0.175,0.159,0.295,0.232,0.469,0.387
					c0.082,0.072,0.17,0.148,0.262,0.229c0.127,0.087,0.262,0.178,0.4,0.272c0.277,0.193,0.574,0.41,0.941,0.6
					c0.351,0.203,0.726,0.424,1.164,0.613c0.214,0.102,0.434,0.206,0.658,0.313c0.237,0.092,0.48,0.187,0.729,0.282
					c0.986,0.401,2.139,0.724,3.377,1.035c1.256,0.266,2.604,0.527,4.037,0.662c2.857,0.321,6,0.307,9.123-0.006
					c1.561-0.164,3.119-0.391,4.633-0.714c1.523-0.296,2.986-0.713,4.391-1.148c1.387-0.473,2.725-0.963,3.921-1.55
					c1.212-0.562,2.298-1.19,3.253-1.826c0.939-0.649,1.77-1.292,2.408-1.938c0.332-0.314,0.635-0.616,0.873-0.922
					c0.251-0.298,0.498-0.565,0.662-0.838c0.182-0.265,0.344-0.501,0.484-0.707c0.115-0.218,0.213-0.403,0.291-0.554
					c0.162-0.302,0.248-0.462,0.248-0.462l0.086-0.16c0.354-0.66,1.177-0.908,1.838-0.555c0.613,0.33,0.869,1.07,0.617,1.703
					c0,0-0.088,0.216-0.25,0.62c-0.084,0.202-0.186,0.452-0.307,0.745c-0.15,0.277-0.322,0.595-0.515,0.951
					c-0.183,0.367-0.442,0.725-0.718,1.124c-0.264,0.411-0.59,0.815-0.952,1.235c-0.704,0.863-1.603,1.72-2.628,2.59
					c-1.036,0.851-2.213,1.696-3.518,2.468c-1.293,0.801-2.723,1.495-4.219,2.177c-1.508,0.641-3.088,1.262-4.732,1.758
					c-1.637,0.523-3.332,0.946-5.043,1.301c-3.428,0.693-6.937,1.066-10.285,1.029c-1.672,0.007-3.306-0.134-4.862-0.309
					c-1.558-0.225-3.04-0.485-4.41-0.879c-0.343-0.096-0.679-0.189-1.007-0.282c-0.326-0.114-0.646-0.227-0.958-0.336
					c-0.626-0.204-1.212-0.462-1.765-0.71c-0.555-0.229-1.064-0.507-1.534-0.768c-0.235-0.129-0.461-0.254-0.677-0.372
					c-0.232-0.155-0.455-0.303-0.665-0.442c-0.407-0.28-0.825-0.568-1.085-0.769c-0.219-0.178-0.404-0.329-0.556-0.451
					c-0.302-0.245-0.464-0.376-0.464-0.376c-1.717-1.395-1.978-3.917-0.584-5.635c1.396-1.717,3.918-1.979,5.635-0.584
					c0.104,0.084,0.199,0.171,0.293,0.262L295.104,303.654z"/>
			</g>
			<g>
				<path d="M277.178,309.602c0,0-0.162,0.131-0.463,0.376c-0.151,0.122-0.338,0.273-0.557,0.451c-0.26,0.2-0.677,0.488-1.084,0.769
					c-0.211,0.14-0.434,0.287-0.666,0.442c-0.215,0.118-0.441,0.243-0.676,0.372c-0.471,0.261-0.98,0.539-1.535,0.768
					c-0.551,0.248-1.139,0.506-1.764,0.71c-0.313,0.109-0.633,0.222-0.959,0.336c-0.328,0.092-0.664,0.187-1.006,0.282
					c-1.371,0.394-2.854,0.654-4.41,0.879c-1.557,0.175-3.191,0.315-4.863,0.309c-3.348,0.037-6.857-0.336-10.284-1.029
					c-1.712-0.354-3.406-0.777-5.044-1.301c-1.645-0.496-3.225-1.117-4.732-1.758c-1.496-0.682-2.926-1.376-4.219-2.176
					c-1.305-0.772-2.482-1.618-3.518-2.469c-1.024-0.87-1.924-1.727-2.628-2.59c-0.362-0.42-0.688-0.824-0.952-1.235
					c-0.275-0.399-0.535-0.757-0.718-1.124c-0.192-0.356-0.364-0.674-0.515-0.951c-0.121-0.293-0.223-0.543-0.307-0.745
					c-0.162-0.404-0.25-0.62-0.25-0.62c-0.279-0.695,0.057-1.485,0.752-1.766c0.646-0.261,1.375,0.012,1.699,0.611l0.09,0.166
					c0,0,0.086,0.16,0.248,0.462c0.078,0.15,0.176,0.336,0.291,0.554c0.141,0.206,0.303,0.442,0.484,0.707
					c0.164,0.272,0.411,0.54,0.662,0.838c0.238,0.306,0.54,0.607,0.873,0.922c0.639,0.646,1.469,1.288,2.408,1.938
					c0.955,0.636,2.04,1.265,3.253,1.826c1.196,0.587,2.534,1.077,3.921,1.55c1.404,0.436,2.868,0.853,4.391,1.148
					c1.513,0.323,3.073,0.55,4.633,0.714c3.123,0.313,6.266,0.327,9.123,0.006c1.434-0.135,2.781-0.396,4.037-0.662
					c1.238-0.313,2.391-0.634,3.377-1.035c0.249-0.096,0.492-0.19,0.73-0.282c0.224-0.107,0.443-0.212,0.656-0.313
					c0.439-0.189,0.814-0.41,1.166-0.614c0.365-0.189,0.663-0.405,0.939-0.599c0.141-0.095,0.273-0.186,0.402-0.272
					c0.092-0.08,0.178-0.156,0.262-0.229c0.173-0.153,0.293-0.227,0.467-0.387c0.201-0.198,0.371-0.367,0.509-0.504
					c0.276-0.273,0.423-0.42,0.423-0.42l0.006-0.006c1.57-1.558,4.105-1.547,5.664,0.023c1.558,1.57,1.548,4.105-0.022,5.664
					C277.379,309.429,277.277,309.52,277.178,309.602z"/>
			</g>
		</g>
		<g>
			<path d="M293.125,349.938l-6.25,25.654c-0.279,1.148-1.438,1.853-2.586,1.572c-0.803-0.195-1.388-0.822-1.572-1.572l-6.25-25.654
				c-1.121-4.6,1.699-9.237,6.299-10.358c4.602-1.12,9.238,1.7,10.359,6.3C293.459,347.247,293.432,348.656,293.125,349.938z"/>
		</g>
		<g>
			
				<path fill="#141414" stroke="#000000" stroke-width="8" stroke-linecap="round" stroke-linejoin="round" stroke-miterlimit="10" d="
				M480.285,136.443c0,30.579-88.119,89.368-196.82,89.368S86.644,167.022,86.644,136.443s88.12-45.369,196.821-45.369
				S480.285,105.864,480.285,136.443z"/>
			
				<path fill="#141414" stroke="#000000" stroke-width="8" stroke-linecap="round" stroke-linejoin="round" stroke-miterlimit="10" d="
				M364.394,148.53c-6.635-21.197-14.304-87.622-21.755-95.89c-7.449-8.267-37.953,5.047-59.174,5.047
				c-21.219,0-51.725-13.313-59.174-5.047c-7.449,8.268-15.119,74.692-21.754,95.89"/>
			<g>
				<path fill="#FFFFFF" d="M265.102,156.671l20.518-26.701c1.968-2.436,3.842-4.591,5.902-7.026v-0.188h-24.546v-6.652h34.571
					l-0.094,5.153l-20.237,26.326c-1.874,2.53-3.747,4.778-5.809,7.12v0.188h26.514v6.559h-36.819V156.671z"/>
			</g>
			
				<path fill="#141414" stroke="#000000" stroke-width="8" stroke-linecap="round" stroke-linejoin="round" stroke-miterlimit="10" d="
				M330.004,68.314c-7.645,7.645-33.241,19.93-46.539,19.93c-13.297,0-38.895-12.285-46.539-19.93"/>
		</g>
	</g>
</g>
</svg>
