<?xml version="1.0" encoding="utf-8"?>
<!-- Generator: Adobe Illustrator 16.0.0, SVG Export Plug-In . SVG Version: 6.00 Build 0)  -->
<!DOCTYPE svg PUBLIC "-//W3C//DTD SVG 1.1//EN" "http://www.w3.org/Graphics/SVG/1.1/DTD/svg11.dtd">
<svg version="1.1" xmlns="http://www.w3.org/2000/svg" xmlns:xlink="http://www.w3.org/1999/xlink" x="0px" y="0px"
	 width="566.93px" height="566.93px" viewBox="0 0 566.93 566.93" enable-background="new 0 0 566.93 566.93" xml:space="preserve">
<g id="fond" display="none">
	
		<rect x="-12793.873" y="-8861.898" display="inline" fill-rule="evenodd" clip-rule="evenodd" fill="#58595B" width="15942.492" height="15814.695"/>
</g>
<g id="en_cours">
</g>
<g id="fini">
	<g>
		<path fill="#E5E2D3" stroke="#000000" stroke-width="8" stroke-linejoin="round" stroke-miterlimit="10" d="M267.822,194.752
			c-0.129,1.299-0.278,2.608-0.439,3.924h44.85c-0.161-1.315-0.311-2.625-0.439-3.924c-0.353-3.531-0.576-6.993-0.727-10.396
			h-42.518C268.398,187.759,268.174,191.221,267.822,194.752z"/>
		<path fill="#E5E2D3" stroke="#000000" stroke-width="8" stroke-linejoin="round" stroke-miterlimit="10" d="M310.892,163.311
			c0.177-9.737,0.738-18.663,1.47-26.574c0.739-7.911,1.705-14.808,2.656-20.488c0.959-5.68,1.925-10.143,2.666-13.185
			c0.734-3.043,1.254-4.666,1.254-4.666c1.88-9.064,6.73-54.064-29.13-54.064c-30.321,0-34.276,37.977-29.13,54.064
			c0,0,0.52,1.623,1.254,4.666c0.741,3.042,1.707,7.505,2.664,13.185c0.953,5.681,1.918,12.577,2.658,20.488
			c0.731,7.911,1.292,16.837,1.469,26.574c0.004,0.228,0.006,0.461,0.008,0.689h42.152
			C310.885,163.771,310.889,163.538,310.892,163.311z"/>
		<path fill="#E5E2D3" stroke="#000000" stroke-width="8" stroke-linejoin="round" stroke-miterlimit="10" d="M261.439,229.846
			c-1.369,6.085-2.631,12.272-3.902,18.535c-1.26,6.263-2.678,12.603-4.217,18.992c-0.77,3.194-1.555,6.402-2.402,9.619
			c-0.813,3.217-1.699,6.444-2.578,9.677c-1.766,6.466-3.537,12.957-5.309,19.448c-3.578,12.982-6.801,25.965-9.021,38.745
			c-2.26,12.779-3.535,25.356-4.293,37.527c-1.616,24.342-1.74,47.062-0.811,66.535c0.915,19.474,2.846,35.702,4.783,47.062
			c0.914,5.68,1.883,10.143,2.551,13.186c0.695,3.043,1.158,4.665,1.158,4.665c0.705,2.45,1.587,4.842,2.623,7.163h99.594
			c1.015-2.295,1.895-4.681,2.602-7.163c0,0,0.463-1.622,1.158-4.665c0.668-3.043,1.637-7.506,2.551-13.186
			c1.938-11.359,3.868-27.588,4.783-47.062c0.93-19.474,0.805-42.193-0.811-66.535c-0.759-12.171-2.033-24.748-4.293-37.527
			c-2.222-12.78-5.443-25.763-9.021-38.745c-1.771-6.491-3.543-12.982-5.309-19.448c-0.88-3.232-1.766-6.46-2.578-9.677
			c-0.848-3.217-1.633-6.425-2.402-9.619c-1.539-6.39-2.957-12.729-4.217-18.992c-1.271-6.263-2.533-12.45-3.902-18.535
			c-0.795-3.645-1.609-7.247-2.377-10.813h-51.982C263.048,222.599,262.234,226.201,261.439,229.846z"/>
		<path fill="#AB2E23" stroke="#000000" stroke-width="8" stroke-linejoin="round" stroke-miterlimit="10" d="M310.883,164H268.73
			c0.094,6.452,0.133,13.259-0.182,20.356h42.518C310.752,177.259,310.791,170.452,310.883,164z"/>
		<path fill="#AB2E23" stroke="#000000" stroke-width="8" stroke-linejoin="round" stroke-miterlimit="10" d="M265.276,211.918
			c-0.446,2.35-0.944,4.726-1.46,7.114h51.982c-0.516-2.389-1.014-4.765-1.461-7.114c-0.864-4.493-1.572-8.91-2.105-13.242h-44.85
			C266.849,203.008,266.142,207.425,265.276,211.918z"/>
	</g>
</g>
</svg>
