<?xml version="1.0" encoding="utf-8"?>
<!-- Generator: Adobe Illustrator 16.0.0, SVG Export Plug-In . SVG Version: 6.00 Build 0)  -->
<!DOCTYPE svg PUBLIC "-//W3C//DTD SVG 1.1//EN" "http://www.w3.org/Graphics/SVG/1.1/DTD/svg11.dtd">
<svg version="1.1" xmlns="http://www.w3.org/2000/svg" xmlns:xlink="http://www.w3.org/1999/xlink" x="0px" y="0px"
	 width="283.465px" height="566.93px" viewBox="0 0 283.465 566.93" enable-background="new 0 0 283.465 566.93"
	 xml:space="preserve">
<g id="fond" display="none">
	
		<rect x="-6198.605" y="-10462.046" display="inline" fill-rule="evenodd" clip-rule="evenodd" fill="#58595B" width="16654.492" height="16572.797"/>
</g>
<g id="en_cours">
</g>
<g id="fini">
	<g>
		<path d="M185.912,375.025c0,8.754-1.151,16.837-3.449,24.252c-2.302,7.419-5.674,13.795-10.124,19.135
			c-4.45,5.34-9.901,9.495-16.354,12.46c-6.452,2.966-13.833,4.45-22.138,4.45c-6.675,0-12.571-0.89-17.689-2.67
			c-5.117-1.78-8.938-3.483-11.458-5.117v46.279H84.008V320.514c4.895-1.186,11.014-2.482,18.356-3.895
			c7.343-1.407,15.833-2.113,25.476-2.113c8.9,0,16.91,1.411,24.03,4.228c7.12,2.819,13.201,6.824,18.245,12.015
			c5.041,5.194,8.935,11.535,11.681,19.023C184.539,357.264,185.912,365.681,185.912,375.025z M164.33,375.025
			c0-13.496-3.337-23.88-10.012-31.149c-6.675-7.267-15.575-10.902-26.7-10.902c-6.23,0-11.09,0.222-14.574,0.667
			c-3.487,0.445-6.268,0.967-8.344,1.558v72.979c2.521,2.079,6.153,4.081,10.902,6.007c4.746,1.93,9.936,2.893,15.575,2.893
			c5.931,0,11.014-1.074,15.241-3.226c4.228-2.148,7.676-5.118,10.346-8.9s4.596-8.232,5.785-13.35
			C163.735,386.484,164.33,380.96,164.33,375.025z"/>
	</g>
	<g>
		<path d="M242.515,262.705c0,1.634,0,3.226,0,4.783s-0.076,3.08-0.222,4.562c-0.595,7.714-2.302,15.317-5.118,22.806
			c-2.819,7.492-6.23,14.573-10.235,21.249l-16.02-5.118c3.115-6.675,5.451-13.312,7.009-19.913
			c1.558-6.599,2.336-12.794,2.336-18.579c0-1.48-0.039-3.076-0.111-4.783c-0.077-1.704-0.188-3.372-0.334-5.006H242.515z"/>
	</g>
</g>
</svg>
