<?xml version="1.0" encoding="utf-8"?>
<!-- Generator: Adobe Illustrator 16.0.0, SVG Export Plug-In . SVG Version: 6.00 Build 0)  -->
<!DOCTYPE svg PUBLIC "-//W3C//DTD SVG 1.1//EN" "http://www.w3.org/Graphics/SVG/1.1/DTD/svg11.dtd">
<svg version="1.1" xmlns="http://www.w3.org/2000/svg" xmlns:xlink="http://www.w3.org/1999/xlink" x="0px" y="0px"
	 width="566.93px" height="566.93px" viewBox="0 0 566.93 566.93" enable-background="new 0 0 566.93 566.93" xml:space="preserve">
<g id="fond" display="none">
	
		<rect x="-6701.873" y="-10462.046" display="inline" fill-rule="evenodd" clip-rule="evenodd" fill="#58595B" width="16654.492" height="16572.797"/>
</g>
<g id="en_cours">
</g>
<g id="fini">
	<g>
		<path d="M301.044,314.506c1.78,0,3.817,0.111,6.119,0.334c2.298,0.223,4.561,0.521,6.786,0.89
			c2.225,0.372,4.262,0.744,6.119,1.112c1.853,0.372,3.226,0.706,4.116,1.002l-3.56,18.021c-1.634-0.591-4.338-1.296-8.121-2.113
			c-3.782-0.813-8.643-1.224-14.574-1.224c-3.859,0-7.676,0.41-11.458,1.224c-3.782,0.817-6.268,1.373-7.454,1.669v97.231h-20.692
			V321.849c4.895-1.78,10.976-3.449,18.245-5.007C283.835,315.284,291.995,314.506,301.044,314.506z"/>
	</g>
</g>
</svg>
