<?xml version="1.0" encoding="utf-8"?>
<!-- Generator: Adobe Illustrator 16.0.0, SVG Export Plug-In . SVG Version: 6.00 Build 0)  -->
<!DOCTYPE svg PUBLIC "-//W3C//DTD SVG 1.1//EN" "http://www.w3.org/Graphics/SVG/1.1/DTD/svg11.dtd">
<svg version="1.1" xmlns="http://www.w3.org/2000/svg" xmlns:xlink="http://www.w3.org/1999/xlink" x="0px" y="0px"
	 width="566.93px" height="566.93px" viewBox="0 0 566.93 566.93" enable-background="new 0 0 566.93 566.93" xml:space="preserve">
<g id="fond" display="none">
	
		<rect x="-8249.873" y="-8228.754" display="inline" fill-rule="evenodd" clip-rule="evenodd" fill="#58595B" width="15942.492" height="15814.695"/>
</g>
<g id="en_cours">
</g>
<g id="fini">
	<g>
		<polygon fill="#CCAC6C" points="299.251,199.697 349.856,203.051 389.917,217.297 428.584,235.297 460.154,262.744 
			489.515,298.832 495.917,353.793 486.466,400.811 454.584,432.631 420.564,451.963 377.905,470.018 332.555,478.191 
			288.249,486.975 240.755,480.779 172.458,471.018 148.199,457.297 98.009,426.52 74.255,386.631 61.716,346.686 73.255,300.904 
			98.009,262.631 132.88,239.297 174.295,218.631 217.315,199.697 263.198,198.229 		"/>
		<g>
			
				<path fill="#CCAC6C" stroke="#000000" stroke-width="8" stroke-linecap="round" stroke-linejoin="round" stroke-miterlimit="10" d="
				M284.466,200.373c26.164-33.006,57.666-49.742,57.666-49.742s-3.334,28.309-20.324,51.871"/>
			
				<path fill="#CCAC6C" stroke="#000000" stroke-width="8" stroke-linecap="round" stroke-linejoin="round" stroke-miterlimit="10" d="
				M321.808,202.502c30.645-28.896,56.098-23.084,56.098-23.084s-10.283,17.375-13.133,32.098"/>
			
				<path fill="#CCAC6C" stroke="#000000" stroke-width="8" stroke-linecap="round" stroke-linejoin="round" stroke-miterlimit="10" d="
				M364.772,211.516c34.982-23.457,60.865-13.133,60.865-13.133s-11.436,18.873-16.672,32.926"/>
			
				<path fill="#CCAC6C" stroke="#000000" stroke-width="8" stroke-linecap="round" stroke-linejoin="round" stroke-miterlimit="10" d="
				M408.966,231.309c38.926-16.09,56.5-28.807,56.5-28.807c-5.313,26.656-16.279,27.578-27.223,45.213"/>
			
				<path fill="#CCAC6C" stroke="#000000" stroke-width="8" stroke-linecap="round" stroke-linejoin="round" stroke-miterlimit="10" d="
				M438.243,247.715c41.73-5.711,72.35,24.211,72.35,24.211s-24.875,1.91-35.75,12.234"/>
			
				<path fill="#CCAC6C" stroke="#000000" stroke-width="8" stroke-linecap="round" stroke-linejoin="round" stroke-miterlimit="10" d="
				M474.843,284.16c41.023,4,60.621,51.805,60.621,51.805s-26.52-20.748-45.949-20.568"/>
			
				<path fill="#CCAC6C" stroke="#000000" stroke-width="8" stroke-linecap="round" stroke-linejoin="round" stroke-miterlimit="10" d="
				M489.515,315.396c32.57,26.703,33.516,84.58,33.516,84.58s-18.551-23.523-33.516-28.244"/>
			
				<path fill="#CCAC6C" stroke="#000000" stroke-width="8" stroke-linecap="round" stroke-linejoin="round" stroke-miterlimit="10" d="
				M489.515,371.732c26.617,38.041,12.617,66.436,12.617,66.436s-21.479-19.268-34.613-26.506"/>
			
				<path fill="#CCAC6C" stroke="#000000" stroke-width="8" stroke-linecap="round" stroke-linejoin="round" stroke-miterlimit="10" d="
				M467.519,411.662c4.875,41.838,18.947,52.422,18.947,52.422s-34.5,2.219-52.623-25.695"/>
			
				<path fill="#CCAC6C" stroke="#000000" stroke-width="8" stroke-linecap="round" stroke-linejoin="round" stroke-miterlimit="10" d="
				M433.831,437.967c-4.92,41.83-27.531,62.074-27.531,62.074s-2.918-25.443-10.191-38.557"/>
			
				<path fill="#CCAC6C" stroke="#000000" stroke-width="8" stroke-linecap="round" stroke-linejoin="round" stroke-miterlimit="10" d="
				M396.108,461.484c-23.643,34.557-36.252,46.98-36.252,46.98s0.242-26.229-4.316-40.516"/>
			
				<path fill="#CCAC6C" stroke="#000000" stroke-width="8" stroke-linecap="round" stroke-linejoin="round" stroke-miterlimit="10" d="
				M355.54,467.949c-18.979,37.602-49.199,48.359-49.199,48.359s6.496-22.457,4.168-37.27"/>
			
				<path fill="#CCAC6C" stroke="#000000" stroke-width="8" stroke-linecap="round" stroke-linejoin="round" stroke-miterlimit="10" d="
				M310.509,479.039c-17.219,28.402-61.045,39.26-61.045,39.26s12.52-23.012,18.219-40.107"/>
			
				<path fill="#CCAC6C" stroke="#000000" stroke-width="8" stroke-linecap="round" stroke-linejoin="round" stroke-miterlimit="10" d="
				M267.683,478.191c-51.328,32.92-83.225,31.117-83.225,31.117s19.941-24.438,22.002-39.291"/>
			
				<path fill="#CCAC6C" stroke="#000000" stroke-width="8" stroke-linecap="round" stroke-linejoin="round" stroke-miterlimit="10" d="
				M206.46,470.018c-23.427,15.66-64.33,27.457-64.33,27.457s9.326-20.469,19.713-33.391"/>
			
				<path fill="#CCAC6C" stroke="#000000" stroke-width="8" stroke-linecap="round" stroke-linejoin="round" stroke-miterlimit="10" d="
				M161.843,464.084c-39.98,16.695-57.926,16.695-57.926,16.695s19.796-22.371,26.652-35.705"/>
			
				<path fill="#CCAC6C" stroke="#000000" stroke-width="8" stroke-linecap="round" stroke-linejoin="round" stroke-miterlimit="10" d="
				M130.569,445.074c-39.604,0-71.104-9.777-71.104-9.777s18.23-15.959,28-27.332"/>
			
				<path fill="#CCAC6C" stroke="#000000" stroke-width="8" stroke-linecap="round" stroke-linejoin="round" stroke-miterlimit="10" d="
				M87.466,407.965c-41.998-3.211-56-21.916-56-21.916s27.982-1.795,40.789-9.596"/>
			
				<path fill="#CCAC6C" stroke="#000000" stroke-width="8" stroke-linecap="round" stroke-linejoin="round" stroke-miterlimit="10" d="
				M72.255,376.453c-36.648-20.762-40.789-40.488-40.789-40.488s20.959-3.217,35.866-4.832"/>
			
				<path fill="#CCAC6C" stroke="#000000" stroke-width="8" stroke-linecap="round" stroke-linejoin="round" stroke-miterlimit="10" d="
				M67.02,330.842c-17.409-21.377-24.554-59.877-24.554-59.877s34.463,1.73,48.5,7"/>
			
				<path fill="#CCAC6C" stroke="#000000" stroke-width="8" stroke-linecap="round" stroke-linejoin="round" stroke-miterlimit="10" d="
				M90.966,277.965c-9.365-41.064-8.08-57.334-8.08-57.334s19.064,23.422,30.306,33.344"/>
			
				<path fill="#CCAC6C" stroke="#000000" stroke-width="8" stroke-linecap="round" stroke-linejoin="round" stroke-miterlimit="10" d="
				M113.191,253.975c2.021-42.07,27.679-58.727,27.679-58.727s2.4,21.33,10.561,33.91"/>
			
				<path fill="#CCAC6C" stroke="#000000" stroke-width="8" stroke-linecap="round" stroke-linejoin="round" stroke-miterlimit="10" d="
				M151.431,229.158c21.223-33.93,26.035-58.922,26.035-58.922s10.942,28.326,16.409,42.289"/>
			
				<path fill="#CCAC6C" stroke="#000000" stroke-width="8" stroke-linecap="round" stroke-linejoin="round" stroke-miterlimit="10" d="
				M193.875,212.525c16.956-38.559,46.88-44.918,46.88-44.918s-5.4,20.775-2.289,35.443"/>
			
				<path fill="#CCAC6C" stroke="#000000" stroke-width="8" stroke-linecap="round" stroke-linejoin="round" stroke-miterlimit="10" d="
				M238.466,203.051c22.572-35.564,48.432-47.186,48.432-47.186s-3.299,29.541-2.432,44.508"/>
		</g>
		<g>
			<polygon opacity="0.5" points="223.271,365.299 244.583,399.977 266.697,369.16 292.355,400.811 325.94,360.389 338.564,392.109 
				368.727,347.195 317.56,319.965 223.271,330.842 195.915,335.965 			"/>
			
				<path fill="#E5CFAA" stroke="#000000" stroke-width="8" stroke-linecap="round" stroke-linejoin="round" stroke-miterlimit="10" d="
				M324.351,325.733c-10.099,26.994-35.052,37.377-57.857,28.848c-22.805-8.528-34.821-32.737-24.727-59.733
				c10.096-26.996,47.064-59.033,66.437-51.789C327.574,250.304,334.447,298.736,324.351,325.733z"/>
			
				<path fill="#E5CFAA" stroke="#000000" stroke-width="8" stroke-linecap="round" stroke-linejoin="round" stroke-miterlimit="10" d="
				M378.74,371.076c-16.894,23.352-43.708,26.744-63.437,12.473c-19.725-14.27-24.895-40.801-8.001-64.152
				c16.892-23.352,61.033-44.439,77.79-32.316C401.85,299.201,395.633,347.725,378.74,371.076z"/>
			
				<path fill="#E5CFAA" stroke="#000000" stroke-width="8" stroke-linecap="round" stroke-linejoin="round" stroke-miterlimit="10" d="
				M252.606,310.57c11.408,26.469,0.596,51.238-21.763,60.879c-22.358,9.639-47.793,0.496-59.204-25.971
				c-11.41-26.465-6.926-75.18,12.066-83.367S241.195,284.105,252.606,310.57z"/>
		</g>
		<g>
			<g>
				<path fill="#CCAC6C" d="M148.231,309.965c-0.948,21.463,19,49.113,19,49.113s1.752-10.453,17.667-31.236
					c-1.399,10.09,18.954,50.123,18.954,50.123s-1.621-14.508,16.379-36.334c8.334,21.826,27.883,48,27.883,48
					s7.087-15.705,18.784-35c1.582,10.063,25.457,36.18,25.457,36.18s22.615-31.93,32.543-46.186
					c9.334,11.055,13.666,37.484,13.666,37.484s29.701-34.381,38.305-65.313c4.941,8.908,10.316,48.455,10.316,48.455
					s25.307-18.219,33.379-38.621l30.685,46.002l-129.441,55.535l-135.893-9.113l-60.666-64.422v-44.668H148.231z"/>
			</g>
			<g>
				
					<path fill="none" stroke="#000000" stroke-width="8" stroke-linecap="round" stroke-linejoin="round" stroke-miterlimit="10" d="
					M420.564,326.631c-8.072,20.402-33.379,38.621-33.379,38.621s-5.375-39.547-10.316-48.455
					c-8.604,30.932-38.305,65.313-38.305,65.313s-4.332-26.43-13.666-37.484c-9.928,14.256-32.543,46.186-32.543,46.186
					s-23.875-26.117-25.457-36.18c-11.697,19.295-18.784,35-18.784,35s-19.549-26.174-27.883-48
					c-18,21.826-16.379,36.334-16.379,36.334s-20.354-40.033-18.954-50.123c-15.915,20.783-17.667,31.236-17.667,31.236
					s-19.948-27.65-19-49.113"/>
			</g>
		</g>
	</g>
</g>
</svg>
