<?xml version="1.0" encoding="utf-8"?>
<!-- Generator: Adobe Illustrator 16.0.0, SVG Export Plug-In . SVG Version: 6.00 Build 0)  -->
<!DOCTYPE svg PUBLIC "-//W3C//DTD SVG 1.1//EN" "http://www.w3.org/Graphics/SVG/1.1/DTD/svg11.dtd">
<svg version="1.1" xmlns="http://www.w3.org/2000/svg" xmlns:xlink="http://www.w3.org/1999/xlink" x="0px" y="0px"
	 width="566.93px" height="566.93px" viewBox="0 0 566.93 566.93" enable-background="new 0 0 566.93 566.93" xml:space="preserve">
<g id="fond" display="none">
	
		<rect x="-13836.186" y="-11116" display="inline" fill-rule="evenodd" clip-rule="evenodd" fill="#58595B" width="16654.492" height="16572.797"/>
</g>
<g id="en_cours">
</g>
<g id="fini">
	<g>
		<polygon fill="#E5E2D3" stroke="#000000" stroke-width="8" stroke-linejoin="round" stroke-miterlimit="10" points="
			261.053,397.779 261.053,98.047 420.078,189.86 420.078,489.593 		"/>
		<polygon fill="#E5E2D3" stroke="#000000" stroke-width="8" stroke-linejoin="round" stroke-miterlimit="10" points="
			251.351,407.779 251.351,108.047 410.376,199.86 410.376,499.593 		"/>
		<polygon fill="#E5E2D3" stroke="#000000" stroke-width="8" stroke-linejoin="round" stroke-miterlimit="10" points="
			241.649,417.779 241.649,118.047 400.674,209.86 400.674,509.593 		"/>
		<polygon fill="#E5E2D3" stroke="#000000" stroke-width="8" stroke-linejoin="round" stroke-miterlimit="10" points="
			231.947,427.779 231.947,128.047 390.973,219.86 390.973,519.593 		"/>
		<polygon fill="#E5E2D3" stroke="#000000" stroke-width="8" stroke-linejoin="round" stroke-miterlimit="10" points="
			222.245,437.779 222.245,138.047 381.271,229.86 381.271,529.593 		"/>
		<path fill="#FFFFFF" stroke="#000000" stroke-width="8" stroke-linejoin="round" stroke-miterlimit="10" d="M106.852,402.808
			c0,0,55.018-39.689,85.086-129.162c19.343-57.564,20.606-125.599,20.606-125.599l159.024,91.813c0,0-4.021,76.238-20.407,125.001
			c-30.711,91.39-75.284,149.76-75.284,149.76L106.852,402.808z"/>
		<polygon fill="#AB2E23" stroke="#000000" stroke-width="8" stroke-linejoin="round" stroke-miterlimit="10" points="
			212.544,103.757 212.544,159.757 367.098,254.151 420.078,223.563 420.078,167.563 367.098,198.151 		"/>
		<polygon fill="#AB2E23" stroke="#000000" stroke-width="8" stroke-linejoin="round" stroke-miterlimit="10" points="
			261.053,75.75 212.544,103.757 367.098,198.151 420.078,167.563 		"/>
		<g>
			<path d="M255.027,334.066c-8.911,21.711-17.751,37.149-26.521,46.315c-8.772,9.169-16.682,11.611-23.736,7.331
				c-7.054-4.279-10.209-13.435-9.456-27.47c0.751-14.031,5.582-31.902,14.493-53.614c4.43-10.793,8.876-20.025,13.344-27.699
				c4.465-7.669,8.865-13.756,13.198-18.256c4.331-4.499,8.494-7.397,12.492-8.691c3.993-1.296,7.711-0.899,11.147,1.186
				c7.055,4.28,10.204,13.437,9.454,27.469C268.691,294.671,263.887,312.479,255.027,334.066z M241.28,325.725
				c2.646-6.449,4.902-12.402,6.766-17.859c1.86-5.455,3.25-10.307,4.166-14.557c0.913-4.247,1.232-7.772,0.953-10.578
				c-0.28-2.804-1.266-4.719-2.953-5.743c-1.688-1.024-3.524-0.819-5.503,0.613c-1.983,1.432-4.109,3.861-6.38,7.286
				c-2.273,3.425-4.642,7.682-7.106,12.771c-2.467,5.091-5.023,10.861-7.67,17.311c-2.648,6.453-4.917,12.438-6.803,17.954
				c-1.889,5.518-3.276,10.411-4.159,14.677c-0.886,4.267-1.204,7.792-0.952,10.579c0.247,2.786,1.218,4.689,2.906,5.714
				c1.688,1.024,3.538,0.831,5.55-0.584c2.011-1.413,4.136-3.843,6.379-7.286c2.24-3.441,4.606-7.741,7.1-12.893
				C236.063,337.979,238.632,332.178,241.28,325.725z"/>
			<path d="M294.218,393.809c-2.293,5.588-4.865,10.432-7.71,14.523c-2.848,4.09-5.919,7.308-9.215,9.651s-6.742,3.63-10.336,3.854
				c-3.593,0.221-7.23-0.781-10.907-3.012c-4.222-2.562-7.236-5.905-9.047-10.025c-1.81-4.123-2.834-8.507-3.073-13.155
				c-0.239-4.645,0.159-9.332,1.194-14.057c1.036-4.725,2.291-8.888,3.77-12.49c1.529-3.728,3.173-6.999,4.932-9.81
				c1.756-2.813,3.578-5.238,5.469-7.272c1.89-2.034,3.795-3.788,5.716-5.259c1.922-1.471,3.868-2.773,5.841-3.904
				c-0.814-5.91-0.975-11.347-0.48-16.309c0.491-4.961,2.087-10.727,4.781-17.292c2.033-4.955,4.487-9.422,7.364-13.402
				c2.875-3.98,5.917-7.125,9.124-9.435c3.207-2.311,6.511-3.709,9.914-4.198c3.4-0.49,6.669,0.215,9.805,2.118
				c3.677,2.23,6.384,5.228,8.115,8.988c1.733,3.76,2.758,7.824,3.073,12.193c0.316,4.367-0.001,8.855-0.949,13.463
				c-0.95,4.606-2.263,8.952-3.94,13.041c-2.442,5.949-5.486,11.024-9.132,15.232c-3.648,4.208-7.229,7.105-10.74,8.688
				c1.55,6.682,2.03,12.987,1.445,18.915C298.643,380.782,296.972,387.1,294.218,393.809z M262.462,375.951
				c-0.613,1.494-1.125,3.243-1.531,5.247c-0.41,2.003-0.56,3.973-0.446,5.903c0.11,1.932,0.533,3.742,1.272,5.432
				c0.736,1.689,1.92,3.028,3.548,4.017c3.134,1.901,6.063,1.739,8.789-0.493c2.721-2.231,4.875-5.275,6.457-9.131
				c1.175-2.861,1.904-5.604,2.189-8.227c0.286-2.623,0.23-5.102-0.166-7.441c-0.396-2.336-1.065-4.604-2.006-6.81
				c-0.941-2.202-2.027-4.374-3.254-6.518c-2.762,1.586-5.428,3.774-8.003,6.562C266.736,367.282,264.453,371.101,262.462,375.951z
				 M304.321,324.878c0.558-1.361,1.019-2.894,1.381-4.605c0.364-1.711,0.509-3.439,0.435-5.186
				c-0.074-1.744-0.404-3.375-0.987-4.887c-0.584-1.514-1.568-2.691-2.956-3.533c-1.326-0.805-2.65-1.068-3.97-0.785
				c-1.321,0.28-2.59,0.941-3.807,1.979c-1.217,1.041-2.307,2.271-3.269,3.696s-1.748,2.88-2.356,4.363
				c-1.625,3.96-2.439,8.101-2.443,12.424c-0.006,4.325,1.203,8.767,3.624,13.326c2.946-1.304,5.591-3.254,7.936-5.848
				S302.39,329.582,304.321,324.878z"/>
		</g>
	</g>
</g>
</svg>
