<?xml version="1.0" encoding="utf-8"?>
<!-- Generator: Adobe Illustrator 16.0.0, SVG Export Plug-In . SVG Version: 6.00 Build 0)  -->
<!DOCTYPE svg PUBLIC "-//W3C//DTD SVG 1.1//EN" "http://www.w3.org/Graphics/SVG/1.1/DTD/svg11.dtd">
<svg version="1.1" xmlns="http://www.w3.org/2000/svg" xmlns:xlink="http://www.w3.org/1999/xlink" x="0px" y="0px"
	 width="566.93px" height="566.93px" viewBox="0 0 566.93 566.93" enable-background="new 0 0 566.93 566.93" xml:space="preserve">
<g id="fond" display="none">
	
		<rect x="-8889.913" y="-9494.906" display="inline" fill-rule="evenodd" clip-rule="evenodd" fill="#58595B" width="15942.492" height="15814.695"/>
</g>
<g id="en_cours">
</g>
<g id="fini">
	<g>
		<g>
			<g>
				<path d="M395.16,244.134c0,0,1.338-0.915,3.847-2.632c1.154-0.828,2.57-1.785,4.262-3.03c1.701-1.229,3.622-2.677,5.758-4.319
					c4.231-3.319,9.228-7.509,14.543-12.652c5.277-5.157,10.844-11.338,15.745-18.617c4.84-7.242,9.021-15.803,10.008-24.786
					c0.5-4.473,0.179-8.998-1.263-13.324c-1.437-4.323-4.01-8.445-7.559-12.12c-3.547-3.672-7.989-6.92-13.001-9.597
					c-2.497-1.353-5.118-2.593-7.852-3.688c-1.349-0.579-2.758-1.063-4.148-1.59c-1.422-0.463-2.829-0.973-4.284-1.389
					c-5.773-1.766-11.807-3.112-17.961-4.125c-3.072-0.528-6.186-0.938-9.312-1.305c-3.168-0.379-6.534-0.819-9.802-1.324
					c-13.105-2.05-26.225-4.874-38.579-9.947c-6.159-2.544-12.123-5.679-17.489-9.82c-2.666-2.086-5.164-4.457-7.282-7.208
					c-2.114-2.74-3.837-5.894-4.786-9.317c-0.978-3.41-1.104-7.045-0.502-10.417c0.612-3.38,1.846-6.511,3.443-9.291
					c3.223-5.573,7.607-9.883,12.125-13.5c9.15-7.156,18.921-11.869,28.1-15.49c9.193-3.626,17.871-6.153,25.62-8.069
					c7.743-1.958,14.584-3.231,20.218-4.24c2.818-0.497,5.343-0.896,7.541-1.221c2.197-0.344,4.068-0.615,5.587-0.824
					c3.04-0.4,4.661-0.614,4.661-0.614c1.51-0.199,2.896,0.863,3.095,2.374c0.199,1.51-0.863,2.896-2.374,3.095
					c-0.032,0.004-0.065,0.008-0.098,0.011l-0.053,0.005c0,0-1.602,0.146-4.604,0.421c-3.001,0.289-7.4,0.762-12.962,1.617
					c-5.566,0.818-12.285,2.081-19.895,3.903c-7.589,1.879-16.076,4.37-24.949,7.986c-4.423,1.831-8.941,3.938-13.42,6.43
					c-4.472,2.491-8.92,5.376-12.987,8.853c-4.052,3.456-7.815,7.501-10.306,12.187c-1.228,2.336-2.126,4.819-2.441,7.348
					c-0.316,2.523-0.097,5.064,0.722,7.469c1.593,4.845,5.477,9.029,10.153,12.32c4.699,3.326,10.234,5.801,15.997,7.779
					c5.779,1.976,11.837,3.447,18.003,4.575c6.169,1.127,12.45,1.933,18.772,2.417c3.172,0.265,6.267,0.402,9.552,0.606
					c3.326,0.224,6.653,0.494,9.975,0.895c6.643,0.758,13.268,1.885,19.8,3.53c3.267,0.813,6.51,1.759,9.716,2.858
					c3.209,1.078,6.372,2.349,9.47,3.799c6.195,2.872,12.138,6.604,17.339,11.386c5.195,4.762,9.549,10.739,12.229,17.391
					c2.737,6.634,3.708,13.762,3.409,20.388c-0.145,3.321-0.566,6.548-1.211,9.633c-0.657,3.079-1.499,6.031-2.469,8.855
					c-1.996,5.613-4.419,10.744-7.065,15.394c-5.306,9.306-11.271,16.865-16.802,23.22c-5.562,6.334-10.767,11.442-15.146,15.511
					c-2.194,2.026-4.173,3.814-5.92,5.332c-1.733,1.531-3.314,2.829-4.546,3.884c-2.352,1.938-3.605,2.972-3.605,2.972
					c-5.332,4.394-13.216,3.634-17.61-1.698c-4.394-5.332-3.634-13.217,1.698-17.611
					C394.548,244.573,394.862,244.339,395.16,244.134z"/>
			</g>
			<path fill="#4F5666" stroke="#000000" stroke-width="8" stroke-linejoin="round" stroke-miterlimit="10" d="M115.841,392.412
				c4.282,9.752,16.449,9.704,20.236,16.365c5.828,10.25-7.977,11.649-13.868,7.161s-15.578,0.562-11.747,7.56
				c6.661,12.167,29.043,8.724,44.639,9.191c78.221,9.716,124.578,122.156,310.275,70.086c30.903-8.666,3.896-30.805-36.987-70.719
				c-35.806-34.959-42.83-71.041-43.68-102.145c-1.381-50.562,79.625-115.301,67.291-124.078l1.849-9.683
				c-5.167,7.667-62.848,77.313-126.86,61.349c-28.915-7.211-61.216-38.342-64.154-79.498c-3.883-54.379,8.575-75.311-35.641-52.141
				c-58.787,30.806-91.367,91.473-97.034,132.289c-7.317,52.703-0.552,64.361-26.809,88.456
				c-8.102,7.436-18.475,15.306-15.475,28.157c4.242,7.886,10.139,5.012,11.319-3.17s12.681-10.182,14.952-2.033
				C115.749,373.873,109.076,381.579,115.841,392.412z"/>
		</g>
		<circle cx="130.159" cy="347.364" r="5.667"/>
		<circle cx="159.159" cy="406.364" r="5.667"/>
		<g>
			<path fill="none" stroke="#000000" stroke-width="8" stroke-linecap="round" stroke-linejoin="round" stroke-miterlimit="10" d="
				M211.719,383.209c6.185,11.927,3.961,32.729,3.961,32.729"/>
			<path fill="none" stroke="#000000" stroke-width="8" stroke-linecap="round" stroke-linejoin="round" stroke-miterlimit="10" d="
				M225.019,379.629c6.185,11.926,3.961,32.729,3.961,32.729"/>
			<path fill="none" stroke="#000000" stroke-width="8" stroke-linecap="round" stroke-linejoin="round" stroke-miterlimit="10" d="
				M238.317,376.048c6.186,11.927,3.961,32.729,3.961,32.729"/>
		</g>
		<g>
			<path fill="none" stroke="#000000" stroke-width="8" stroke-linecap="round" stroke-linejoin="round" stroke-miterlimit="10" d="
				M172.524,327.193c-7.01-8.888-24.343-13.413-24.343-13.413"/>
			<path fill="none" stroke="#000000" stroke-width="8" stroke-linecap="round" stroke-linejoin="round" stroke-miterlimit="10" d="
				M180.576,317.078c-7.008-8.887-24.341-13.414-24.341-13.414"/>
			<path fill="none" stroke="#000000" stroke-width="8" stroke-linecap="round" stroke-linejoin="round" stroke-miterlimit="10" d="
				M188.629,306.965c-7.01-8.889-24.343-13.414-24.343-13.414"/>
		</g>
	</g>
</g>
</svg>
