<?xml version="1.0" encoding="utf-8"?>
<!-- Generator: Adobe Illustrator 16.0.0, SVG Export Plug-In . SVG Version: 6.00 Build 0)  -->
<!DOCTYPE svg PUBLIC "-//W3C//DTD SVG 1.1//EN" "http://www.w3.org/Graphics/SVG/1.1/DTD/svg11.dtd">
<svg version="1.1" xmlns="http://www.w3.org/2000/svg" xmlns:xlink="http://www.w3.org/1999/xlink" x="0px" y="0px" width="566.9px"
	 height="566.9px" viewBox="0 0 566.9 566.9" enable-background="new 0 0 566.9 566.9" xml:space="preserve">
<g id="fond" display="none">
	
		<rect x="-9532.9" y="-9494.9" display="inline" fill-rule="evenodd" clip-rule="evenodd" fill="#F2F2F2" width="15942.5" height="15814.7"/>
</g>
<g id="en_cours">
</g>
<g id="fini">
	<g>
		<path fill-rule="evenodd" clip-rule="evenodd" fill="#006A30" d="M250.2,428.2c0.2,0.6,0.3,0.9,0.8,2.1c-2.8,0-5.6,0.8-7.5-0.3
			c-8.1-4.5-16.1-1.2-24.2-1.7c-3.7-0.2-7.5-1.9-11.2-1.9c-5.7,0-11.5,0.6-17.1,1.5c-5.4,0.9-9.4-1.6-13.3-4.7
			c-3.6-2.9-6.8-2-10.2-0.3c-4.9,2.5-9.9,4.3-15.5,0.3c-3.3-2.4-10-0.8-15.9,3.3c-3.4-2.2-6.9-4.6-10.6-6.6c-0.8-0.5-3,0-3.5,0.8
			c-1.5,2.2-3,4.6-3.7,7.2c-1.2,4.5-3.7,1.1-4.7,1.2c-1.2-2.5-2-4.4-2.9-6.3c-0.8-1.8-1.7-3.5-2.6-5.3c-2.6-5.4-4.6-6.4-9.9-3.7
			c-4.1,2.1-6.9,2.1-8.4-3c-1-3.4-3-2.7-5.3-1.6c-4.2,2-8.5,3.8-12.8,5.7c-2.6,1.1-4.1-0.4-5.1-2.6c-1.7-3.6-3.3-7.3-5.3-10.7
			c-0.5-0.9-2.3-1.9-3.3-1.8c-6.1,0.6-12.2,1.5-18.3,2.1c-0.8,0.1-2.9-2.1-2.8-2.4c2.1-4.5,4.3-8.9,6.7-13.2
			c0.9-1.6,2.8-2.8,3.5-4.5c0.4-1-0.6-3.6-1.5-3.9c-6.8-2.6-13.7-4.9-20.5-7.3c-1-0.4-1.8-1.3-2.8-2c0.6-0.7,1-1.6,1.7-2.1
			c4.7-3.5,9.5-6.8,16-6.8c0.4,0,1.1-0.6,1.1-1c-0.1-0.8-0.3-1.8-0.8-2.4c-8-7.5-13.8-16.2-16.9-26.4c-0.3-0.9,1.1-2.8,2.1-3.1
			c1.6-0.4,3.5,0.3,5.3,0.5c1.2,0.1,2.5,0.2,3.7,0.3c-0.3-1.3-0.5-2.7-1-3.9c-2.8-6.8-5.9-13.6-8.4-20.6c-0.6-1.7,1.5-3.9,1.4-5.8
			c-0.1-1.7-1.2-3.7-2.5-5c-2.8-2.7-6.2-4.9-8.9-7.7c-3.9-3.9-1.3-6.4,2-8.1c5.3-2.8,10.9-5.1,16.3-7.8c0.7-0.4,1.2-2,1-2.8
			c-2.7-7.6-5.6-15.2-8.3-22.9c-0.8-2.3,0.1-3.7,2.8-3.1c2.2,0.5,4.4,1.4,6.6,1.7c0.7,0.1,2.2-1,2.1-1.4c-2.4-12,1.5-22.4,5.9-32.6
			c2.1-4.9,5.7-5,9.4-0.6c0.7,0.8,1.7,1.2,2.6,1.8c0.2-1.1,0.9-2.2,0.6-3.1c-1.2-3.3-2.7-6.6-4.3-9.9c-3.3-6.6-6.9-13.1-9.9-19.9
			c-1.5-3.4-0.4-6.1,3.9-4.9c5.1,1.4,10.1,3.4,15.1,5.2c0.9,0.3,1.9,1,2.5,0.7c0.5-0.2,0.7-1.5,0.7-2.3c0-8.2,0.8-15.9,6.3-22.3
			c3.9-4.5,4.7-5.1,9.7-0.7c3,2.6,5.6,5.5,8.6,8.2c0.5,0.4,2.3,0.4,2.6-0.1c7.7-12.2,19-19.6,32.7-23.6c4.7-1.4,3.9,2.6,4.6,4.9
			c0.9,3.3,1.5,6.7,2.4,10.8c5.3-3.4,10.1-6.6,14.9-9.6c3.1-2,6.2-4,9.4-5.7c0.7-0.4,2.7,0.4,3.3,1.3c2.2,3,4.1,6.2,6.7,10.1
			c1.9-4.1,2.8-8,5.1-10.7c4.1-4.8,8.9-9.1,13.8-13c2.9-2.3,5.5-0.2,6.6,3.1c1.2,3.7,1.8,7.5,2.9,11.2c0.2,0.5,2,1.3,2.3,1.1
			c5.8-4.7,11.7-9.3,19.7-9.9c3.9-0.3,7.8-1,11.7-1.3c1-0.1,2.8,0.2,3,0.7c0.4,1,0.1,2.4-0.2,3.6c-0.9,3.6-1.9,7.1-2.9,10.7
			c4.3,0.7,8-8.6,13.8,1.3c-0.2-6.5-0.5-11.4-0.4-16.3c0-2,0.8-3.9,1.3-5.8c1.2,0.5,2.6,0.9,3.7,1.7c4.9,3.6,9.6,7.3,14.4,11
			c2.1,1.6,3.2,1.3,4-1.2c1.1-3.7,2.2-7.6,4.1-10.8c1-1.8,4-3.6,5.7-3.2c1.8,0.5,3.5,3.5,4.5,5.6c1.5,3.1,2.4,6.6,4,11.3
			c3.5-4.3,6.3-8,9.3-11.4c3-3.4,6.2-6.7,9.7-9.5c0.8-0.6,4.2,0.6,4.9,1.8c3,5.3,5.3,10.9,8,16.3c0.4,0.8,2.5,1.4,3.4,1.1
			c8.1-3.6,16-7.6,24.2-11.1c4.2-1.8,6.3,0.1,6.4,4.9c0,2.9,0.1,5.8,0.1,9.5c2.9-1.8,5.2-3.5,7.7-4.8c4-2.1,8.1-3.9,12.2-5.8
			c3-1.4,5.1,1,6,6.7c0.3,2,0.9,4,1.4,6.7c1.9-1.6,3.4-2.8,5-4c8.7-6.4,18.3-10.8,29.2-12.2c3.8-0.5,6.4,1.8,6.2,5.9
			c-0.3,4.1-1.2,8.1-1.6,12.2c-0.1,1.2,0.5,2.5,0.8,3.7c1-0.4,2.1-0.8,3-1.3c5.8-2.9,11.6-6.1,17.5-8.7c0.9-0.4,3.5,1.6,4.4,3.1
			c1.4,2.4,2,5.3,3.1,8.4c3.2-2.8,6-5.4,8.9-7.9c3.6-3.1,7-6.8,11-9.2c4.7-2.9,6.3-1.5,6.4,4.4c0.1,4.2,0,8.3,0,13
			c3.2-2.8,6.1-5.6,9.2-8c2.5-1.9,5.1-3.7,7.9-5c1.3-0.6,3.2-0.1,4.8-0.1c0,1.7,0.2,3.5-0.1,5.2c-0.9,4.4-2.2,8.7-3.2,13
			c-0.1,0.4,0.3,1,0.1,0.6c9.1-1,17.9-2.1,26.6-2.9c1.1-0.1,2.8,0.7,3.4,1.7c0.4,0.7-0.4,2.4-1,3.5c-2.7,4.3-5.5,8.4-8.2,12.7
			c-0.2,0.3,0.6,2,1,2c10.6,1.1,20.5,4.4,29.1,11.5c1,0.8,1.7,2,2.5,3c-0.9,0.7-1.7,1.4-2.6,2.1c-1.6,1.1-3.2,2.1-4.8,3.2
			c-0.3,0.2-0.5,1.2-0.4,1.3c0.4,0.4,1.1,0.8,1.6,0.8c3.4,0.3,6.8,0.3,10.2,0.7c3,0.4,2.3,2.3,1,3.9c-2.5,3.1-5.3,5.9-7.8,9.1
			c-1.8,2.4-1.9,4.5,1,6.8c6.5,5.1,10.5,12.3,13.3,20c1.3,3.6-0.6,5.8-4.3,6.6c-4,0.8-7.9,2.1-11.6,3.6c-0.7,0.3-1.1,2.8-0.7,3.8
			c1.8,4.1,0.9,6.4-3.2,7.4c-0.7,0.2-1.3,0.4-2,0.6c-2.8,0.6-2.8,1.9-0.8,3.7c2.3,2,2.4,3.9,0.3,6.1c-0.2,0.2,0,1.3,0.4,1.6
			c4.5,3.9,9.2,7.5,13.3,11.7c3.5,3.5,3,9.3-0.5,11.3c-1.9,1.1-4.3,1.3-6.5,1.9c-2,0.6-4.1,1.2-5.7,1.7c2.4,4.1,4.9,8,7,12.1
			c1,2,1.8,4.5,1.8,6.7c-0.1,5.1-4.3,2.4-6.7,3.2c-2.3,0.7-4.8,0.8-7.1,1.4c-0.3,0.1-0.7,1.5-0.5,2c0.5,0.9,1.5,1.6,2.2,2.4
			c1.9,2.3,3.8,4.5,0.8,7.4c-0.8,0.8-1.6,1.8-1.7,2.8c-0.1,0.9,0.6,2.6,1.2,2.8c2.8,0.8,5.7,1,8.6,1.6c2.5,0.5,4.2,2.2,2.2,4.6
			c-3.7,4.7-7.6,9.2-11.7,13.5c-3.5,3.6-3.7,3.4-2,6.6c3.7,4.1,7.4,8.2,10.9,12.4c0.3,0.4-0.4,2.7-1.1,3c-4.1,1.9-8.4,3.5-12.6,5.1
			c-2.6,1-2.5,2.5-1.1,4.5c1.4,2,2.8,3.9,4.3,5.9c1.9,2.6,1.2,4.7-1.5,5.6c-4,1.4-8.1,2.5-12.2,3.3c-2.6,0.5-4.5,0.8-4,4.3
			c0.5,3.8-2.3,3.7-4.7,3.3c-1.4-0.2-2.8-0.9-4.1-1.6c-4.7-2.4-5.7-2-8,2.8c-2.2,4.8-2.9,5-7.1,2.1c-2.5-1.7-4.8-1.5-6.7,0.7
			c-2.7,3.2-5.6,3.6-9.3,1.9c-3.9-1.8-10.1,0.7-11.9,4.6c-1.1,2.4-2.4,3-4.8,1.8c-1.9-1-4-1.6-6.1-2.2c-3.2-0.9-4.8,1.6-7.2,3.1
			c-3.7,2.4-8.1,4-12.5,4.8c-7.3,1.3-14.9,2.2-22.3,2.3c-6.1,0.1-13,0.4-18.1-2.3c-7.9-4.2-14.1-1.6-21.2,0.2
			c-5.9,1.5-11.9,1.9-18.4-0.4c-4.6-1.6-10.2-0.3-15.4-0.3c-7.2,0-14.5,0-21.7,0c-0.3,0-0.8,0.1-1-0.1c-5.5-4.5-10.8-0.9-16.2-0.4
			c-1.2,0.1-2.4-0.3-3.6-0.2c-5.7,0.3-11.4,0.5-17.1,1.2c-6.2,0.7-12.4,1.9-18.7,2.7C252.1,429.3,251.3,428.6,250.2,428.2z"/>
		<g>
			<g>
				<polygon fill-rule="evenodd" clip-rule="evenodd" fill="#C9B599" points="169.7,451 169.7,200.9 147.9,179.1 126.1,200.9 
					126.1,451 				"/>
				<polygon fill-rule="evenodd" clip-rule="evenodd" fill="#C9B599" points="263.7,451 263.7,200.9 241.9,179.1 220.1,200.9 
					220.1,451 				"/>
				<polygon fill-rule="evenodd" clip-rule="evenodd" fill="#C9B599" points="357.7,451 357.7,200.9 335.9,179.1 314.1,200.9 
					314.1,451 				"/>
				<polygon fill-rule="evenodd" clip-rule="evenodd" fill="#C9B599" points="451.7,451 451.7,200.9 429.9,179.1 408.1,200.9 
					408.1,451 				"/>
			</g>
			<rect x="63.5" y="244.8" fill-rule="evenodd" clip-rule="evenodd" fill="#C9B599" width="450.7" height="26.7"/>
		</g>
	</g>
</g>
</svg>
