<?xml version="1.0" encoding="utf-8"?>
<!-- Generator: Adobe Illustrator 16.0.0, SVG Export Plug-In . SVG Version: 6.00 Build 0)  -->
<!DOCTYPE svg PUBLIC "-//W3C//DTD SVG 1.1//EN" "http://www.w3.org/Graphics/SVG/1.1/DTD/svg11.dtd">
<svg version="1.1" xmlns="http://www.w3.org/2000/svg" xmlns:xlink="http://www.w3.org/1999/xlink" x="0px" y="0px"
	 width="566.93px" height="566.93px" viewBox="0 0 566.93 566.93" enable-background="new 0 0 566.93 566.93" xml:space="preserve">
<g id="fond" display="none">
	
		<rect x="-8249.873" y="-8861.898" display="inline" fill-rule="evenodd" clip-rule="evenodd" fill="#58595B" width="15942.492" height="15814.695"/>
</g>
<g id="en_cours">
</g>
<g id="fini">
	<g>
		
			<path fill-rule="evenodd" clip-rule="evenodd" fill="#4F5666" stroke="#000000" stroke-width="8" stroke-linecap="round" stroke-linejoin="round" stroke-miterlimit="10" d="
			M229.77,392.755c-23.412,0-42.393,18.981-42.393,42.394s18.98,42.393,42.393,42.393"/>
		
			<circle fill-rule="evenodd" clip-rule="evenodd" fill="#4F5666" stroke="#000000" stroke-width="8" stroke-linecap="round" stroke-linejoin="round" stroke-miterlimit="10" cx="190.669" cy="129.07" r="33.277"/>
		
			<path fill-rule="evenodd" clip-rule="evenodd" fill="#4F5666" stroke="#000000" stroke-width="8" stroke-linecap="round" stroke-linejoin="round" stroke-miterlimit="10" d="
			M165.419,326.01l-10.131,12.797c-2.88,3.638-2.266,8.919,1.369,11.799c3.637,2.879,8.92,2.265,11.799-1.372l10.133-12.797"/>
		<g>
			<path fill="#CCAC6C" d="M370.931,493.953c-0.683-0.011-1.327-0.021-1.974-0.102c-1.732-0.2-2.833-0.758-3.224-0.988
				c-1.976-1.162-3.382-3.025-3.957-5.247c-0.575-2.221-0.252-4.532,0.912-6.51c0.796-1.351,1.947-2.458,3.331-3.206
				c0.411-0.221,1.533-0.734,3.309-0.868c0.28-0.023,0.623-0.034,0.994-0.034c0.286,0,0.595,0.006,0.925,0.014l0.526,0.012
				l2.65-0.016c4.647-0.081,10.39-0.319,17.386-1.46c9.062-1.46,17.698-4.05,25.678-7.698c10.311-4.733,20.023-11.656,28.083-20.018
				c9.071-9.356,16.901-21.377,22.651-34.772c5.985-13.796,9.979-29.216,11.874-45.845c1.946-16.77,1.691-33.999-0.757-51.216
				c-2.604-18.146-7.427-35.271-14.336-50.894c-7.563-17.113-17.319-31.73-28.999-43.444c-6.141-6.168-12.814-11.506-19.838-15.867
				c-7.046-4.385-14.586-7.866-22.413-10.349c-7.517-2.407-15.44-3.939-23.563-4.558c-2.697-0.194-5.407-0.294-8.039-0.294
				c-1.225,0-2.447,0.021-3.671,0.063c-3.896,0.13-7.639,0.517-11.129,1.149c-7.45,1.321-14.07,3.71-19.691,7.101
				c-5.619,3.357-10.394,7.878-13.821,13.083c-3.275,4.948-5.54,10.606-6.556,16.368c-0.96,5.36-0.959,10.775,0.002,16.108
				c1.602,9.032,6.036,17.213,12.169,22.454c1.335,1.188,2.741,2.149,4.075,3.019c1.604,0.948,2.802,1.571,3.872,2.015
				c2.161,0.938,4.371,1.613,6.814,2.092c1.942,0.346,3.429,0.472,4.321,0.515l1.678,0.073c2.184,0.096,3.886,1.927,3.822,4.111
				c-0.062,2.166-1.837,3.885-3.997,3.885c-0.019,0-1.757-0.024-1.757-0.024c-1.146-0.021-3.009-0.122-5.455-0.483
				c-3.124-0.517-5.917-1.285-8.607-2.358c-1.437-0.547-3.008-1.303-5.04-2.429c-0.047-0.026-0.094-0.053-0.139-0.081
				c-1.67-1.015-3.46-2.159-5.241-3.652c-7.816-6.293-13.653-16.262-15.951-27.3c-1.355-6.435-1.55-13.023-0.576-19.573
				c1.057-7.247,3.684-14.352,7.594-20.534c2.106-3.336,4.584-6.435,7.362-9.205c2.852-2.832,6.062-5.385,9.548-7.593
				c6.717-4.269,14.584-7.332,23.376-9.103c4.096-0.837,8.291-1.37,12.815-1.628c2.236-0.13,4.54-0.195,6.843-0.195
				c2.034,0,4.103,0.052,6.149,0.152c9.123,0.479,18.057,1.994,26.566,4.503c8.885,2.632,17.493,6.419,25.589,11.256
				c7.996,4.769,15.604,10.631,22.609,17.422c13.137,12.714,24.168,28.589,32.786,47.18c7.885,16.998,13.39,35.405,16.361,54.708
				c2.89,18.736,3.383,37.348,1.468,55.317c-1.962,18.256-6.267,35.283-12.796,50.612c-6.422,15.166-15.378,28.95-25.897,39.856
				c-9.47,9.867-20.924,18.057-33.118,23.677c-9.358,4.303-19.453,7.355-30.008,9.077c-8.089,1.329-14.612,1.612-19.926,1.713
				c0,0-3.059,0.02-3.066,0.02C371.5,493.964,370.931,493.953,370.931,493.953z"/>
			<path d="M364.812,182.471c1.976,0,3.964,0.049,5.952,0.147c8.48,0.445,17.128,1.837,25.632,4.345
				c8.499,2.518,16.828,6.168,24.669,10.853c7.846,4.679,15.196,10.384,21.877,16.86c13.394,12.963,24.03,28.924,31.941,45.99
				c7.928,17.091,13.22,35.334,16.037,53.634c2.822,18.303,3.319,36.686,1.443,54.285c-1.891,17.591-6.087,34.415-12.498,49.469
				c-6.377,15.059-15.08,28.262-25.097,38.646c-10.003,10.423-21.253,17.908-31.913,22.821c-10.695,4.917-20.713,7.414-28.978,8.762
				c-8.296,1.363-14.852,1.576-19.358,1.662c-1.13,0.007-2.129,0.014-2.99,0.019c-0.825-0.019-1.521-0.013-2.078-0.082
				c-1.117-0.129-1.688-0.465-1.688-0.465c-2.185-1.285-2.913-4.098-1.628-6.281c0.44-0.747,1.076-1.333,1.786-1.717
				c0,0,0.584-0.313,1.705-0.397c0.213-0.018,0.444-0.023,0.695-0.023c0.41,0,0.872,0.016,1.385,0.024
				c0.789-0.004,1.704-0.009,2.739-0.015c4.142-0.072,10.334-0.261,18.007-1.512c7.667-1.235,16.893-3.525,26.697-8.009
				c9.774-4.487,20.062-11.295,29.3-20.879c9.255-9.546,17.369-21.813,23.447-35.971c6.134-14.139,10.253-30.131,12.173-46.97
				c1.954-16.839,1.743-34.549-0.771-52.232c-2.535-17.67-7.303-35.361-14.638-51.948c-7.32-16.563-17.263-32.051-29.824-44.65
				c-6.268-6.296-13.172-11.854-20.561-16.441c-7.384-4.595-15.25-8.205-23.314-10.763c-8.06-2.582-16.312-4.113-24.469-4.733
				c-2.803-0.203-5.576-0.306-8.342-0.306c-1.271,0-2.539,0.021-3.81,0.065c-3.938,0.132-7.901,0.522-11.704,1.212
				c-7.625,1.353-14.832,3.864-21.044,7.611c-6.225,3.719-11.392,8.684-15.096,14.308c-3.717,5.616-6.082,11.789-7.154,17.874
				c-1.091,6.09-0.977,12.065,0.005,17.512c1.942,10.954,7.445,19.605,13.507,24.786c1.496,1.333,3.066,2.403,4.563,3.376
				c1.534,0.909,3.01,1.714,4.451,2.312c2.866,1.243,5.46,1.907,7.577,2.322c2.126,0.378,3.782,0.53,4.898,0.584
				c1.117,0.049,1.694,0.074,1.694,0.074s-0.577-0.008-1.696-0.024c-1.119-0.021-2.781-0.123-4.93-0.44
				c-2.14-0.354-4.772-0.944-7.71-2.116c-1.478-0.563-2.996-1.333-4.584-2.213c-1.549-0.941-3.182-1.986-4.748-3.3
				c-6.34-5.104-12.264-13.802-14.605-25.05c-1.179-5.596-1.485-11.783-0.536-18.17c0.931-6.378,3.205-12.954,7.019-18.983
				c1.901-3.013,4.175-5.888,6.806-8.511c2.636-2.618,5.614-4.988,8.864-7.047c6.502-4.132,14.063-6.957,22.025-8.561
				c3.995-0.816,8.054-1.316,12.253-1.556C360.372,182.533,362.584,182.471,364.812,182.471 M364.812,174.471
				c-2.38,0-4.761,0.068-7.077,0.202c-4.712,0.269-9.095,0.826-13.393,1.704c-9.254,1.863-17.576,5.11-24.715,9.646
				c-3.721,2.356-7.16,5.092-10.211,8.123c-3,2.991-5.666,6.324-7.934,9.917c-4.203,6.646-7.029,14.29-8.169,22.098
				c-1.04,7-0.832,14.064,0.624,20.975c2.474,11.882,8.799,22.666,17.354,29.582c1.972,1.645,3.972,2.921,5.672,3.954
				c0.092,0.056,0.185,0.109,0.278,0.162c2.179,1.207,3.895,2.031,5.554,2.668c2.942,1.169,5.988,2.005,9.31,2.556
				c0.046,0.008,0.092,0.015,0.139,0.021c2.133,0.315,4.135,0.491,5.952,0.525l1.734,0.024c0.037,0.001,0.073,0.001,0.11,0.001
				c4.32,0,7.87-3.438,7.995-7.77c0.125-4.369-3.278-8.03-7.646-8.223l-1.696-0.074c-0.731-0.035-2.01-0.145-3.776-0.456
				c-2.159-0.427-4.024-0.999-5.865-1.797c-0.04-0.018-0.08-0.034-0.119-0.051c-0.863-0.358-1.913-0.906-3.296-1.721
				c-1.349-0.88-2.459-1.658-3.46-2.551c-0.041-0.036-0.083-0.072-0.125-0.107c-5.439-4.65-9.387-11.977-10.827-20.102
				c-0.868-4.816-0.869-9.894-0.007-14.705c0.925-5.248,2.98-10.382,5.951-14.869c3.108-4.72,7.437-8.813,12.526-11.855
				c5.229-3.153,11.39-5.369,18.339-6.602c3.329-0.604,6.877-0.97,10.574-1.094c1.179-0.04,2.367-0.061,3.542-0.061
				c2.536,0,5.148,0.096,7.765,0.285c7.782,0.592,15.397,2.063,22.605,4.373c7.532,2.389,14.768,5.729,21.528,9.936
				c6.768,4.202,13.197,9.347,19.117,15.293c11.335,11.369,20.813,25.58,28.177,42.24c6.762,15.291,11.484,32.063,14.036,49.851
				c2.398,16.868,2.649,33.753,0.744,50.175c-1.854,16.252-5.744,31.288-11.565,44.708c-5.572,12.979-13.125,24.584-21.853,33.586
				c-7.731,8.021-17.026,14.646-26.894,19.177c-7.642,3.494-15.933,5.979-24.632,7.381c-6.735,1.099-12.281,1.33-16.824,1.41
				l-2.59,0.015l-0.429-0.01c-0.363-0.008-0.701-0.015-1.016-0.015c-0.491,0-0.912,0.015-1.322,0.048
				c-2.431,0.187-4.089,0.909-4.861,1.324c-2.045,1.105-3.73,2.728-4.895,4.703c-1.709,2.902-2.184,6.292-1.34,9.547
				s2.904,5.987,5.803,7.692c0.752,0.442,2.376,1.229,4.795,1.513c0.845,0.103,1.615,0.115,2.361,0.128l0.486,0.009
				c0.06,0.001,0.12,0.002,0.181,0.002c0.015,0,0.029,0,0.044,0l1.636-0.011l1.358-0.008c0.034,0,0.069-0.001,0.104-0.002
				c5.456-0.104,12.159-0.395,20.503-1.766c10.9-1.777,21.341-4.937,31.022-9.388c12.65-5.83,24.523-14.318,34.344-24.551
				c10.842-11.24,20.076-25.445,26.691-41.065c6.677-15.678,11.081-33.089,13.085-51.734c1.953-18.32,1.451-37.28-1.491-56.358
				c-3.028-19.673-8.643-38.441-16.687-55.781c-8.824-19.037-20.141-35.313-33.635-48.372c-7.223-7.003-15.078-13.055-23.343-17.983
				c-8.377-5.005-17.293-8.927-26.494-11.652c-8.818-2.601-18.063-4.168-27.484-4.663
				C369.047,174.523,366.911,174.471,364.812,174.471L364.812,174.471z"/>
		</g>
		
			<path fill-rule="evenodd" clip-rule="evenodd" fill="#4F5666" stroke="#000000" stroke-width="8" stroke-linecap="round" stroke-linejoin="round" stroke-miterlimit="10" d="
			M377.843,485.418c0-166.336-140.92-190.555-144.393-273.705c-0.135-3.244-0.019-6.322,0.184-9.277
			c5.327,3.622,11.759,5.741,18.687,5.741c18.379,0,33.278-14.899,33.278-33.278c0-18.378-14.899-33.277-33.278-33.277
			c-13.731,0-25.517,8.318-30.601,20.188c-2.693-2.301-5.921-4.658-9.79-7.096c-31.692-19.967-74.121,6.049-74.121,6.049
			l-55.581,30.851l78.778,45.338c0,184.725,62.772,155.049,62.772,240.59h-42.71c-4.621,0-8.368,3.747-8.368,8.368
			c0,4.622,3.747,8.368,8.368,8.368h188.406c4.622,0,8.368-3.746,8.368-8.368c0-0.166-0.016-0.327-0.024-0.491H377.843z"/>
		
			<path fill-rule="evenodd" clip-rule="evenodd" fill="none" stroke="#000000" stroke-width="8" stroke-linecap="round" stroke-linejoin="round" stroke-miterlimit="10" d="
			M295.794,392.755c-23.412,0-42.393,18.981-42.393,42.394s18.98,42.393,42.393,42.393"/>
		
			<path fill-rule="evenodd" clip-rule="evenodd" fill="#4F5666" stroke="#000000" stroke-width="8" stroke-linecap="round" stroke-linejoin="round" stroke-miterlimit="10" d="
			M292.28,477.541h-66.313c-4.622,0-8.369,3.747-8.369,8.368l0,0c0,4.622,3.747,8.368,8.369,8.368h66.313"/>
		<g>
			<path fill="#AB2E23" d="M191.421,198.293c-2.507,0-4.864-0.977-6.637-2.75c-3.659-3.661-3.659-9.618,0.001-13.277
				c1.772-1.773,4.13-2.749,6.638-2.749s4.865,0.977,6.639,2.75c1.772,1.772,2.749,4.13,2.749,6.637c0,2.508-0.977,4.865-2.75,6.638
				C196.288,197.315,193.93,198.293,191.421,198.293z"/>
			<path d="M191.422,183.517c1.38,0,2.759,0.525,3.811,1.578c2.104,2.104,2.104,5.515,0,7.618c-1.053,1.053-2.433,1.58-3.812,1.58
				c-1.378,0-2.756-0.526-3.808-1.578c-2.104-2.105-2.104-5.517,0-7.621C188.665,184.042,190.044,183.517,191.422,183.517
				 M191.422,175.517c-3.575,0-6.938,1.392-9.466,3.92c-5.219,5.22-5.22,13.713-0.001,18.934c2.528,2.529,5.89,3.923,9.466,3.923
				c3.577,0,6.94-1.395,9.47-3.925c5.218-5.218,5.218-13.711-0.001-18.931C198.362,176.909,194.999,175.517,191.422,175.517
				L191.422,175.517z"/>
		</g>
		<g>
			<path fill="#AB2E23" d="M153.021,174.675c-2.507,0-4.863-0.976-6.637-2.748c-1.773-1.773-2.751-4.132-2.751-6.64
				s0.978-4.866,2.751-6.64c1.772-1.772,4.13-2.749,6.638-2.749c2.509,0,4.866,0.978,6.64,2.752
				c1.771,1.771,2.748,4.129,2.748,6.636c0,2.508-0.977,4.866-2.75,6.639C157.886,173.698,155.527,174.675,153.021,174.675z"/>
			<path d="M153.021,159.898c1.379,0,2.758,0.526,3.81,1.579c2.104,2.104,2.104,5.515,0,7.618c-1.053,1.053-2.432,1.579-3.811,1.579
				s-2.757-0.525-3.809-1.577c-2.105-2.104-2.105-5.517,0-7.621C150.264,160.425,151.643,159.898,153.021,159.898 M153.021,151.898
				c-3.576,0-6.938,1.393-9.467,3.921c-2.528,2.528-3.922,5.891-3.922,9.468s1.394,6.939,3.924,9.469
				c2.528,2.527,5.889,3.919,9.464,3.919c3.576,0,6.938-1.394,9.468-3.922c2.528-2.527,3.921-5.89,3.921-9.466
				c0-3.577-1.393-6.939-3.923-9.468C159.962,153.292,156.599,151.898,153.021,151.898L153.021,151.898z"/>
		</g>
		
			<path fill-rule="evenodd" clip-rule="evenodd" fill="#4F5666" stroke="#000000" stroke-width="8" stroke-linecap="round" stroke-linejoin="round" stroke-miterlimit="10" d="
			M208.29,326.01l-10.131,12.797c-2.88,3.638-2.266,8.919,1.37,11.799c3.636,2.879,8.919,2.265,11.798-1.372l10.133-12.797"/>
	</g>
</g>
</svg>
