<?xml version="1.0" encoding="utf-8"?>
<!-- Generator: Adobe Illustrator 16.0.0, SVG Export Plug-In . SVG Version: 6.00 Build 0)  -->
<!DOCTYPE svg PUBLIC "-//W3C//DTD SVG 1.1//EN" "http://www.w3.org/Graphics/SVG/1.1/DTD/svg11.dtd">
<svg version="1.1" xmlns="http://www.w3.org/2000/svg" xmlns:xlink="http://www.w3.org/1999/xlink" x="0px" y="0px"
	 width="566.93px" height="566.93px" viewBox="0 0 566.93 566.93" enable-background="new 0 0 566.93 566.93" xml:space="preserve">
<g id="fond" display="none">
	
		<rect x="-10581.873" y="-7908" display="inline" fill-rule="evenodd" clip-rule="evenodd" fill="#58595B" width="16654.492" height="16572.797"/>
</g>
<g id="en_cours">
</g>
<g id="fini">
	<g>
		<g>
			<path fill="#FFFFFF" stroke="#000000" stroke-width="8" stroke-miterlimit="10" d="M113.924,407.015h0.002
				c0-0.052-0.002-0.1-0.002-0.152c-0.001-0.057-0.003-0.113-0.005-0.17c-0.003-0.065-0.007-0.131-0.013-0.195
				c-0.002-0.054-0.006-0.108-0.012-0.156c-0.002-0.04-0.007-0.08-0.011-0.119c-0.131-1.336-0.599-2.601-1.336-3.691
				c-0.667-0.983-1.554-1.825-2.62-2.439l-29.31-16.921c-1.234-0.715-2.617-1.072-3.996-1.072c-1.38,0-2.761,0.357-3.999,1.072
				l-28.736,16.592v-0.015c-0.134,0.078-0.257,0.155-0.376,0.229l-0.197,0.114c-1.063,0.614-1.952,1.456-2.62,2.439
				c-0.74,1.094-1.208,2.368-1.338,3.711c-0.003,0.021-0.005,0.044-0.008,0.065c-0.006,0.072-0.011,0.151-0.015,0.228
				c-0.003,0.047-0.007,0.093-0.01,0.137c-0.004,0.113-0.007,0.226-0.007,0.344v33.843c0,1.232,0.285,2.421,0.803,3.491
				c0.688,1.414,1.787,2.621,3.196,3.436l28.737,16.592l-0.003,0.002c0.031,0.017,0.062,0.033,0.093,0.051l0.48,0.276
				c1.238,0.715,2.619,1.072,3.999,1.072c1.379,0,2.762-0.357,3.996-1.072l0.483-0.278c0.031-0.016,0.063-0.032,0.091-0.049
				l-0.002-0.002l28.737-16.592c1.409-0.814,2.507-2.02,3.194-3.436c0.521-1.07,0.804-2.259,0.804-3.491l-0.002-33.841V407.015z
				 M43.887,399.762h0.003H43.887z"/>
			<ellipse cx="76.622" cy="402.53" rx="5.201" ry="2.37"/>
			<ellipse cx="83.556" cy="426.707" rx="2.368" ry="5.2"/>
			<ellipse cx="105.221" cy="438.263" rx="2.366" ry="5.201"/>
			<path d="M94.388,427.282c1.308,0,2.368,2.332,2.368,5.202c0,2.873-1.061,5.202-2.368,5.202s-2.368-2.329-2.368-5.202
				C92.02,429.614,93.08,427.282,94.388,427.282z"/>
			<path d="M47.236,411.593c1.309,0,2.369,2.329,2.369,5.203c0,2.87-1.061,5.198-2.369,5.198c-1.307,0-2.366-2.328-2.366-5.198
				C44.87,413.922,45.93,411.593,47.236,411.593z"/>
			<path d="M66.999,444.505c1.307,0,2.366,2.327,2.366,5.199c0,2.873-1.06,5.2-2.366,5.2c-1.311,0-2.369-2.327-2.369-5.2
				C64.63,446.832,65.688,444.505,66.999,444.505z"/>
			<path d="M57.467,428.282c1.307,0,2.367,2.332,2.367,5.202c0,2.873-1.061,5.202-2.367,5.202c-1.308,0-2.368-2.329-2.368-5.202
				C55.099,430.614,56.159,428.282,57.467,428.282z"/>
			<ellipse cx="66.998" cy="428.707" rx="2.367" ry="5.2"/>
			<ellipse cx="47.276" cy="438.263" rx="2.37" ry="5.201"/>
		</g>
		<g>
			<path fill="#FFFFFF" stroke="#000000" stroke-width="8" stroke-miterlimit="10" d="M199.364,454.149L199.364,454.149
				c0-0.053-0.003-0.101-0.003-0.151c0-0.058,0-0.116-0.005-0.171c-0.002-0.066-0.007-0.133-0.012-0.198
				c-0.004-0.054-0.006-0.104-0.012-0.155c-0.002-0.039-0.006-0.08-0.01-0.12c-0.135-1.334-0.601-2.6-1.337-3.688
				c-0.667-0.983-1.556-1.823-2.621-2.44l-29.308-16.921c-1.237-0.714-2.617-1.071-3.998-1.071c-1.38,0-2.76,0.357-3.998,1.071
				l-28.734,16.59v-0.013c-0.134,0.076-0.26,0.156-0.379,0.231l-0.195,0.112c-1.065,0.617-1.953,1.457-2.621,2.44
				c-0.74,1.093-1.207,2.366-1.338,3.708c-0.001,0.021-0.006,0.043-0.006,0.068c-0.007,0.072-0.012,0.149-0.017,0.227
				c-0.003,0.048-0.008,0.093-0.009,0.139c-0.005,0.113-0.01,0.223-0.01,0.343l0.002,33.843c0,1.232,0.283,2.42,0.803,3.49
				c0.689,1.415,1.787,2.623,3.195,3.436l28.737,16.59l-0.003,0.002c0.03,0.02,0.063,0.034,0.094,0.053l0.48,0.275
				c1.238,0.716,2.618,1.072,3.998,1.072c1.381,0,2.761-0.356,3.998-1.072l0.482-0.277c0.032-0.017,0.06-0.031,0.093-0.051
				l-0.005-0.002l28.738-16.59c1.408-0.813,2.509-2.02,3.195-3.436c0.518-1.07,0.803-2.258,0.803-3.49v-33.841V454.149z
				 M129.327,446.894L129.327,446.894L129.327,446.894z"/>
			<ellipse cx="143.017" cy="479.16" rx="2.366" ry="5.202"/>
			<path d="M134.685,460.416c1.309,0,2.37,2.329,2.37,5.2c0,2.87-1.062,5.2-2.37,5.2c-1.306,0-2.365-2.33-2.365-5.2
				C132.319,462.745,133.379,460.416,134.685,460.416z"/>
			<ellipse cx="151.972" cy="494.336" rx="2.367" ry="5.199"/>
			<ellipse cx="178.908" cy="479.16" rx="2.368" ry="5.202"/>
			<ellipse cx="144.801" cy="450.328" rx="5.2" ry="2.37"/>
			<path d="M173.513,450.326c0-1.308,2.326-2.368,5.197-2.368c2.875,0,5.201,1.061,5.201,2.368s-2.328,2.37-5.201,2.37
				C175.839,452.696,173.513,451.634,173.513,450.326z"/>
			<path d="M156.292,450.328c-0.002-1.31,2.328-2.37,5.2-2.37c2.871,0.003,5.198,1.061,5.198,2.37c0,1.307-2.327,2.368-5.198,2.368
				C158.62,452.696,156.292,451.635,156.292,450.328z"/>
			<ellipse cx="161.491" cy="440.068" rx="5.199" ry="2.368"/>
			<ellipse cx="161.492" cy="461.789" rx="5.201" ry="2.368"/>
		</g>
		<g>
			<g>
				<path fill="#CCAC6C" d="M505.587,353.085c-0.107,0-0.216-0.004-0.325-0.013l-263.686-21.31
					c-1.618-0.131-2.997-1.228-3.489-2.775c-0.492-1.547,0-3.238,1.245-4.28l113-94.508c0.723-0.604,1.632-0.932,2.566-0.932
					c0.107,0,0.215,0.004,0.322,0.013l172.715,13.956c1.149,0.093,2.202,0.677,2.89,1.603s0.941,2.103,0.697,3.23l-22.029,101.862
					C509.093,351.783,507.453,353.085,505.587,353.085z"/>
				<path d="M354.898,233.267l172.715,13.956l-22.029,101.862l-263.686-21.31L354.898,233.267 M354.898,225.267
					c-1.87,0-3.688,0.655-5.133,1.863l-113,94.508c-2.491,2.084-3.476,5.467-2.491,8.562s3.742,5.288,6.979,5.549l263.686,21.31
					c0.218,0.018,0.436,0.026,0.65,0.026c3.733,0,7.012-2.603,7.813-6.309l22.029-101.862c0.487-2.253-0.021-4.608-1.396-6.459
					c-1.375-1.852-3.481-3.02-5.779-3.206l-172.715-13.956C355.328,225.276,355.112,225.267,354.898,225.267L354.898,225.267z"/>
			</g>
			<g>
				<g>
					
						<line fill="#BFAA42" stroke="#000000" stroke-width="8" stroke-linecap="round" stroke-linejoin="round" stroke-miterlimit="10" x1="502.306" y1="250.103" x2="473.042" y2="335.659"/>
					
						<line fill="#BFAA42" stroke="#000000" stroke-width="8" stroke-linecap="round" stroke-linejoin="round" stroke-miterlimit="10" x1="470.177" y1="247.508" x2="426.908" y2="331.932"/>
					
						<line fill="#BFAA42" stroke="#000000" stroke-width="8" stroke-linecap="round" stroke-linejoin="round" stroke-miterlimit="10" x1="438.048" y1="244.909" x2="380.773" y2="328.202"/>
					
						<line fill="#BFAA42" stroke="#000000" stroke-width="8" stroke-linecap="round" stroke-linejoin="round" stroke-miterlimit="10" x1="405.919" y1="242.314" x2="334.64" y2="324.475"/>
					
						<line fill="#BFAA42" stroke="#000000" stroke-width="8" stroke-linecap="round" stroke-linejoin="round" stroke-miterlimit="10" x1="373.79" y1="239.717" x2="288.507" y2="320.746"/>
				</g>
				<g>
					
						<line fill="#BFAA42" stroke="#000000" stroke-width="8" stroke-linecap="round" stroke-linejoin="round" stroke-miterlimit="10" x1="492.474" y1="327.802" x2="281.356" y2="310.741"/>
					
						<line fill="#BFAA42" stroke="#000000" stroke-width="8" stroke-linecap="round" stroke-linejoin="round" stroke-miterlimit="10" x1="498.774" y1="305.375" x2="304.937" y2="289.712"/>
					
						<line fill="#BFAA42" stroke="#000000" stroke-width="8" stroke-linecap="round" stroke-linejoin="round" stroke-miterlimit="10" x1="504.121" y1="286.345" x2="324.948" y2="271.865"/>
					
						<line fill="#BFAA42" stroke="#000000" stroke-width="8" stroke-linecap="round" stroke-linejoin="round" stroke-miterlimit="10" x1="508.716" y1="269.989" x2="342.146" y2="256.529"/>
					
						<line fill="#BFAA42" stroke="#000000" stroke-width="8" stroke-linecap="round" stroke-linejoin="round" stroke-miterlimit="10" x1="512.705" y1="255.785" x2="357.084" y2="243.208"/>
				</g>
			</g>
			
				<path fill="#141414" stroke="#000000" stroke-width="8" stroke-linecap="round" stroke-linejoin="round" stroke-miterlimit="10" d="
				M379.168,259.522c-2.348,2.537,0.765,5.049,7.004,5.554c6.241,0.505,13.02-1.209,15.094-3.768c2.026-2.5-1.21-4.874-7.179-5.354
				C388.118,255.47,381.462,257.044,379.168,259.522z"/>
			
				<path fill="#141414" stroke="#000000" stroke-width="8" stroke-linecap="round" stroke-linejoin="round" stroke-miterlimit="10" d="
				M283.644,310.925c-4.484,4.035-1.772,7.922,6.186,8.563c7.957,0.643,17.781-2.229,21.826-6.297
				c3.923-3.947,0.917-7.554-6.607-8.162C297.522,304.421,287.992,307.016,283.644,310.925z"/>
			
				<path fill="#141414" stroke="#000000" stroke-width="8" stroke-linecap="round" stroke-linejoin="round" stroke-miterlimit="10" d="
				M414.381,262.366c-1.913,2.573,1.56,5.114,7.8,5.619c6.241,0.502,12.661-1.236,14.301-3.833c1.603-2.532-1.968-4.933-7.94-5.415
				C422.569,258.254,416.249,259.855,414.381,262.366z"/>
			
				<path fill="#141414" stroke="#000000" stroke-width="8" stroke-linecap="round" stroke-linejoin="round" stroke-miterlimit="10" d="
				M440.529,281.204c-1.714,3.022,2.314,5.972,9.037,6.516c6.725,0.541,13.336-1.548,14.732-4.595
				c1.361-2.964-2.759-5.737-9.17-6.254C448.716,276.351,442.198,278.262,440.529,281.204z"/>
			
				<path fill="#141414" stroke="#000000" stroke-width="8" stroke-linecap="round" stroke-linejoin="round" stroke-miterlimit="10" d="
				M429.977,299.815c-2.007,3.54,2.232,6.963,9.521,7.552c7.288,0.589,14.559-1.902,16.195-5.475
				c1.591-3.47-2.765-6.665-9.689-7.222C439.083,294.109,431.927,296.373,429.977,299.815z"/>
			
				<path fill="#E5E2D3" stroke="#000000" stroke-width="8" stroke-linecap="round" stroke-linejoin="round" stroke-miterlimit="10" d="
				M391.672,246.003c-2.049,2.214,0.976,4.428,6.798,4.895c5.82,0.472,12.037-0.992,13.85-3.225
				c1.769-2.183-1.355-4.284-6.941-4.736C399.793,242.487,393.673,243.839,391.672,246.003z"/>
			
				<path fill="#E5E2D3" stroke="#000000" stroke-width="8" stroke-linecap="round" stroke-linejoin="round" stroke-miterlimit="10" d="
				M490.372,253.98c-0.91,2.304,3.054,4.594,8.873,5.063c5.824,0.471,11.102-1.073,11.773-3.396
				c0.658-2.275-3.349-4.442-8.936-4.895C496.497,250.301,491.262,251.724,490.372,253.98z"/>
			
				<path fill="#E5E2D3" stroke="#000000" stroke-width="8" stroke-linecap="round" stroke-linejoin="round" stroke-miterlimit="10" d="
				M402.649,278.144c-2.218,2.98,1.393,5.896,8.117,6.441c6.728,0.541,13.754-1.514,15.653-4.52c1.853-2.928-1.88-5.667-8.293-6.186
				C411.714,273.362,404.808,275.24,402.649,278.144z"/>
			
				<path fill="#E5E2D3" stroke="#000000" stroke-width="8" stroke-linecap="round" stroke-linejoin="round" stroke-miterlimit="10" d="
				M388.997,296.503c-2.597,3.494,1.149,6.875,8.439,7.468c7.291,0.587,15.054-1.866,17.279-5.389
				c2.164-3.424-1.738-6.582-8.664-7.143C399.127,290.881,391.521,293.108,388.997,296.503z"/>
			
				<path fill="#E5E2D3" stroke="#000000" stroke-width="8" stroke-linecap="round" stroke-linejoin="round" stroke-miterlimit="10" d="
				M470.955,303.128c-1.417,3.587,3.313,7.05,10.602,7.639s14.069-1.942,15.115-5.559c1.018-3.52-3.79-6.75-10.715-7.309
				C479.034,297.339,472.333,299.64,470.955,303.128z"/>
			
				<path fill="#E5E2D3" stroke="#000000" stroke-width="8" stroke-linecap="round" stroke-linejoin="round" stroke-miterlimit="10" d="
				M417.543,321.747c-2.384,4.204,2.081,8.231,10.036,8.873c7.958,0.644,16.03-2.368,17.974-6.609
				c1.885-4.112-2.728-7.846-10.251-8.455C427.775,314.948,419.854,317.671,417.543,321.747z"/>
		</g>
		<g>
			<g>
				<path fill-rule="evenodd" clip-rule="evenodd" fill="#809EAD" d="M430.912,475.291c-21.275,0-38.584-17.308-38.584-38.581
					s17.309-38.581,38.584-38.581c21.273,0,38.58,17.308,38.58,38.581S452.186,475.291,430.912,475.291z"/>
				<path d="M430.912,402.129c19.099,0,34.58,15.481,34.58,34.581s-15.481,34.581-34.58,34.581
					c-19.101,0-34.584-15.481-34.584-34.581S411.812,402.129,430.912,402.129 M430.912,394.129
					c-23.48,0-42.584,19.102-42.584,42.581s19.104,42.581,42.584,42.581c23.479,0,42.58-19.102,42.58-42.581
					S454.391,394.129,430.912,394.129L430.912,394.129z"/>
			</g>
			<g>
				<g>
					<path fill="#AB2E23" d="M431.263,439.878l1.104-4.045c7.116-22.355-7.701-22.385-18.327-25.767
						c14.95,8.278,12.134,14.999,16.518,23.476l-1.104,4.044c-7.114,22.355,7.704,22.384,18.329,25.767
						C432.832,455.074,435.647,448.352,431.263,439.878z"/>
					<path fill="#2268A8" d="M414.039,410.066c2.313,1.999,3.519,3.965,4.166,5.923c0.277,0.839,0.443,1.676,0.559,2.516
						c0.51,3.832-0.269,7.648,1.773,11.594c1.668,3.229,4.318,6.025,8.915,7.487l1.104-4.044
						C426.173,425.065,428.989,418.345,414.039,410.066z"/>
					<path fill="#2268A8" d="M443.617,457.43c-0.277-0.841-0.45-1.679-0.561-2.519c-0.512-3.831,0.266-7.649-1.771-11.592
						c-1.67-3.23-4.322-6.023-8.919-7.486l-1.104,4.045c4.385,8.474,1.569,15.196,16.519,23.475
						C445.468,461.353,444.259,459.386,443.617,457.43z"/>
				</g>
				<g>
					<path fill-rule="evenodd" clip-rule="evenodd" fill="none" d="M414.039,410.066c14.95,8.278,12.134,14.999,16.518,23.476"/>
					<path fill-rule="evenodd" clip-rule="evenodd" fill="none" d="M432.366,435.833c4.597,1.463,7.249,4.256,8.919,7.486
						c3.521,6.813-1.356,13.244,6.496,20.033c-10.625-3.383-25.443-3.411-18.329-25.767c1.212-3.817,1.978-6.897,1.282-10.536"/>
					<path fill-rule="evenodd" clip-rule="evenodd" fill="none" d="M431.086,446.37c-0.694-3.641,0.069-6.723,1.28-10.537
						c7.116-22.355-7.701-22.385-18.327-25.767c7.86,6.787,2.975,13.222,6.498,20.032c1.668,3.229,4.318,6.025,8.915,7.487"/>
					<path fill-rule="evenodd" clip-rule="evenodd" fill="none" d="M447.781,463.353c-14.949-8.278-12.134-15.001-16.519-23.475"/>
				</g>
			</g>
			<path fill="#FFFFFF" d="M450.163,413.83c0,1.992-1.616,3.611-3.608,3.611c-1.997,0-3.613-1.619-3.613-3.611
				c0-1.997,1.616-3.609,3.613-3.609C448.547,410.221,450.163,411.833,450.163,413.83z"/>
		</g>
		<g>
			<g>
				<path fill-rule="evenodd" clip-rule="evenodd" fill="#809EAD" d="M342.435,494.344c-15.039,0-27.273-12.234-27.273-27.272
					s12.234-27.272,27.273-27.272s27.273,12.234,27.273,27.272S357.474,494.344,342.435,494.344z"/>
				<path d="M342.435,443.799c12.854,0,23.273,10.419,23.273,23.272c0,12.852-10.419,23.272-23.273,23.272
					s-23.273-10.421-23.273-23.272C319.161,454.218,329.58,443.799,342.435,443.799 M342.435,435.799
					c-17.244,0-31.273,14.028-31.273,31.272s14.029,31.272,31.273,31.272s31.273-14.028,31.273-31.272
					S359.679,435.799,342.435,435.799L342.435,435.799z"/>
			</g>
			<g>
				<g>
					<path fill="#90278E" d="M343.308,469.031l-0.116-2.816c0-15.789-9.508-12.786-17.012-12.788
						c11.278,2.262,10.842,7.146,15.384,11.685l0.115,2.82c0,15.787,9.51,12.78,17.015,12.78
						C347.413,478.455,347.849,473.573,343.308,469.031z"/>
					<path fill="#8BC53F" d="M326.18,453.427c1.893,0.814,3.064,1.824,3.88,2.949c0.347,0.481,0.628,0.984,0.872,1.5
						c1.108,2.354,1.39,4.959,3.505,7.073c1.725,1.729,3.998,2.981,7.242,2.982l-0.115-2.82
						C337.021,460.572,337.458,455.688,326.18,453.427z"/>
					<path fill="#8BC53F" d="M354.813,477.765c-0.35-0.48-0.633-0.982-0.874-1.496c-1.108-2.355-1.39-4.963-3.501-7.075
						c-1.73-1.731-3.999-2.979-7.247-2.979l0.116,2.816c4.541,4.542,4.105,9.424,15.386,11.681
						C356.8,479.905,355.62,478.893,354.813,477.765z"/>
				</g>
				<g>
					<path fill-rule="evenodd" clip-rule="evenodd" fill="none" d="M326.18,453.427c11.278,2.262,10.842,7.146,15.384,11.685"/>
					<path fill-rule="evenodd" clip-rule="evenodd" fill="none" d="M343.191,466.215c3.248,0,5.517,1.247,7.247,2.979
						c3.648,3.649,1.83,8.772,8.255,11.519c-7.505,0-17.015,3.007-17.015-12.78c0-2.693-0.137-4.825-1.326-7.02"/>
					<path fill-rule="evenodd" clip-rule="evenodd" fill="none" d="M344.519,473.228c-1.188-2.189-1.327-4.321-1.327-7.013
						c0-15.789-9.508-12.786-17.012-12.788c6.428,2.748,4.605,7.873,8.257,11.522c1.725,1.729,3.998,2.981,7.242,2.982"/>
					<path fill-rule="evenodd" clip-rule="evenodd" fill="none" d="M358.693,480.712c-11.28-2.257-10.845-7.139-15.386-11.681"/>
				</g>
			</g>
			<circle fill="#FFFFFF" cx="352.961" cy="451.673" r="2.429"/>
		</g>
		<g>
			<g>
				<path fill-rule="evenodd" clip-rule="evenodd" fill="#809EAD" d="M477.839,497.709c-15.038,0-27.272-12.234-27.272-27.272
					s12.234-27.272,27.272-27.272s27.272,12.234,27.272,27.272S492.877,497.709,477.839,497.709z"/>
				<path d="M477.839,447.164c12.854,0,23.272,10.417,23.272,23.272c0,12.854-10.418,23.272-23.272,23.272
					c-12.854,0-23.272-10.419-23.272-23.272C454.566,457.581,464.985,447.164,477.839,447.164 M477.839,439.164
					c-17.243,0-31.272,14.028-31.272,31.272s14.029,31.272,31.272,31.272s31.272-14.028,31.272-31.272
					S495.082,439.164,477.839,439.164L477.839,439.164z"/>
			</g>
			<g>
				<g>
					<path fill="#358C5E" d="M479.841,471.204l-2.074-1.91c-11.164-11.166-15.762-2.316-21.07,2.988
						c9.573-6.375,12.721-2.616,19.141-2.616l2.075,1.912c11.166,11.164,15.763,2.314,21.069-2.992
						C489.411,474.964,486.262,471.204,479.841,471.204z"/>
					<path fill="#FFF100" d="M456.696,472.282c1.912-0.764,3.46-0.877,4.83-0.659c0.585,0.095,1.14,0.253,1.677,0.443
						c2.446,0.882,4.489,2.526,7.478,2.526c2.444,0,4.938-0.719,7.231-3.015l-2.075-1.912
						C469.417,469.666,466.27,465.907,456.696,472.282z"/>
					<path fill="#FFF100" d="M494.152,469.247c-0.587-0.095-1.142-0.25-1.675-0.444c-2.451-0.881-4.492-2.525-7.479-2.525
						c-2.447,0-4.937,0.722-7.232,3.017l2.074,1.91c6.421,0,9.57,3.76,19.141-2.618C497.07,469.352,495.522,469.468,494.152,469.247
						z"/>
				</g>
				<g>
					<path fill-rule="evenodd" clip-rule="evenodd" fill="none" d="M456.696,472.282c9.573-6.375,12.721-2.616,19.141-2.616"/>
					<path fill-rule="evenodd" clip-rule="evenodd" fill="none" d="M477.767,469.294c2.296-2.295,4.785-3.017,7.232-3.017
						c5.16,0,7.496,4.907,13.982,2.309c-5.307,5.307-9.903,14.156-21.069,2.992c-1.906-1.905-3.512-3.317-5.9-4.024"/>
					<path fill-rule="evenodd" clip-rule="evenodd" fill="none" d="M483.666,473.316c-2.389-0.71-3.996-2.118-5.899-4.022
						c-11.164-11.166-15.762-2.316-21.07,2.988c6.486-2.6,8.825,2.311,13.984,2.311c2.444,0,4.938-0.719,7.231-3.015"/>
					<path fill-rule="evenodd" clip-rule="evenodd" fill="none" d="M498.981,468.586c-9.57,6.378-12.72,2.618-19.141,2.618"/>
				</g>
			</g>
			<circle fill="#FFFFFF" cx="488.367" cy="455.038" r="2.429"/>
		</g>
		<g>
			<g>
				<path fill="#E5E2D3" stroke="#000000" stroke-width="8" stroke-linejoin="round" stroke-miterlimit="10" d="M175.629,136.953
					c-0.084,0.84-0.18,1.688-0.284,2.537h29c-0.106-0.849-0.202-1.697-0.285-2.537c-0.229-2.282-0.373-4.521-0.47-6.721h-27.492
					C176.002,132.432,175.856,134.671,175.629,136.953z"/>
				<path fill="#E5E2D3" stroke="#000000" stroke-width="8" stroke-linejoin="round" stroke-miterlimit="10" d="M203.477,116.625
					c0.114-6.297,0.478-12.067,0.95-17.184c0.478-5.115,1.103-9.573,1.718-13.247c0.62-3.672,1.244-6.558,1.724-8.525
					c0.475-1.967,0.812-3.017,0.812-3.017c1.216-5.861,4.351-34.958-18.834-34.958c-19.606,0-22.164,24.555-18.837,34.958
					c0,0,0.337,1.049,0.812,3.017c0.479,1.967,1.104,4.853,1.723,8.525c0.616,3.673,1.24,8.132,1.719,13.247
					c0.473,5.117,0.835,10.887,0.95,17.184c0.002,0.147,0.003,0.298,0.004,0.445h27.256
					C203.473,116.922,203.475,116.772,203.477,116.625z"/>
				<path fill="#E5E2D3" stroke="#000000" stroke-width="8" stroke-linejoin="round" stroke-miterlimit="10" d="M171.502,159.645
					c-0.886,3.934-1.701,7.934-2.522,11.983c-0.815,4.049-1.732,8.149-2.728,12.28c-0.497,2.065-1.004,4.14-1.553,6.22
					c-0.526,2.08-1.099,4.166-1.668,6.256c-1.142,4.181-2.285,8.378-3.433,12.576c-2.313,8.394-4.396,16.788-5.831,25.051
					c-1.462,8.262-2.287,16.395-2.775,24.264c-1.047,15.74-1.126,30.43-0.525,43.02c0.592,12.592,1.84,23.086,3.093,30.428
					c0.592,3.675,1.217,6.56,1.648,8.526c0.45,1.968,0.75,3.018,0.75,3.018c0.454,1.584,1.025,3.131,1.695,4.632h64.395
					c0.657-1.483,1.227-3.026,1.683-4.632c0,0,0.299-1.05,0.748-3.018c0.434-1.967,1.059-4.852,1.65-8.526
					c1.253-7.342,2.5-17.836,3.094-30.428c0.601-12.59,0.519-27.28-0.525-43.02c-0.492-7.869-1.314-16.002-2.776-24.264
					c-1.436-8.263-3.519-16.657-5.833-25.051c-1.145-4.198-2.29-8.395-3.432-12.576c-0.568-2.09-1.143-4.177-1.666-6.256
					c-0.549-2.08-1.058-4.155-1.555-6.22c-0.994-4.131-1.912-8.231-2.727-12.28c-0.822-4.049-1.638-8.049-2.522-11.983
					c-0.514-2.357-1.041-4.687-1.536-6.992h-33.61C172.542,154.958,172.016,157.288,171.502,159.645z"/>
				<path fill="#AB2E23" stroke="#000000" stroke-width="8" stroke-linejoin="round" stroke-miterlimit="10" d="M203.472,117.07
					h-27.256c0.062,4.172,0.085,8.573-0.118,13.162h27.492C203.387,125.643,203.411,121.242,203.472,117.07z"/>
				<path fill="#AB2E23" stroke="#000000" stroke-width="8" stroke-linejoin="round" stroke-miterlimit="10" d="M173.983,148.053
					c-0.29,1.518-0.611,3.055-0.943,4.6h33.61c-0.334-1.545-0.656-3.082-0.946-4.6c-0.558-2.905-1.017-5.762-1.359-8.563h-29
					C175,142.291,174.542,145.148,173.983,148.053z"/>
			</g>
			<g>
				<path fill="#E5E2D3" stroke="#000000" stroke-width="8" stroke-linejoin="round" stroke-miterlimit="10" d="M121.087,166.228
					c-0.085,0.84-0.182,1.688-0.285,2.537h28.999c-0.104-0.849-0.201-1.697-0.285-2.537c-0.228-2.283-0.373-4.521-0.469-6.722
					h-27.492C121.459,161.707,121.313,163.945,121.087,166.228z"/>
				<path fill="#E5E2D3" stroke="#000000" stroke-width="8" stroke-linejoin="round" stroke-miterlimit="10" d="M148.934,145.899
					c0.115-6.296,0.478-12.067,0.951-17.183c0.478-5.115,1.102-9.573,1.717-13.248c0.619-3.671,1.245-6.557,1.724-8.524
					c0.475-1.968,0.812-3.016,0.812-3.016c1.215-5.861,4.352-34.958-18.835-34.958c-19.604,0-22.162,24.555-18.835,34.958
					c0,0,0.335,1.048,0.811,3.016c0.479,1.967,1.104,4.853,1.723,8.524c0.617,3.674,1.239,8.133,1.718,13.248
					c0.474,5.116,0.837,10.887,0.95,17.183c0.004,0.147,0.004,0.298,0.006,0.445h27.254
					C148.93,146.198,148.933,146.047,148.934,145.899z"/>
				<path fill="#E5E2D3" stroke="#000000" stroke-width="8" stroke-linejoin="round" stroke-miterlimit="10" d="M116.959,188.92
					c-0.885,3.935-1.702,7.934-2.523,11.983c-0.814,4.049-1.73,8.149-2.727,12.281c-0.498,2.065-1.005,4.14-1.553,6.219
					c-0.525,2.08-1.099,4.166-1.667,6.257c-1.142,4.181-2.287,8.377-3.434,12.575c-2.312,8.395-4.396,16.788-5.832,25.05
					c-1.46,8.263-2.285,16.395-2.775,24.264c-1.045,15.742-1.125,30.43-0.523,43.021c0.591,12.593,1.839,23.087,3.092,30.429
					c0.591,3.675,1.217,6.56,1.649,8.526c0.45,1.968,0.748,3.018,0.748,3.018c0.456,1.584,1.026,3.131,1.696,4.632h64.396
					c0.656-1.483,1.225-3.026,1.682-4.632c0,0,0.3-1.05,0.749-3.018c0.432-1.967,1.059-4.852,1.65-8.526
					c1.253-7.342,2.5-17.836,3.093-30.429c0.602-12.591,0.52-27.278-0.525-43.021c-0.491-7.869-1.314-16.001-2.775-24.264
					c-1.436-8.263-3.52-16.656-5.833-25.05c-1.146-4.198-2.292-8.395-3.433-12.575c-0.569-2.091-1.143-4.177-1.667-6.257
					c-0.548-2.08-1.056-4.154-1.554-6.219c-0.994-4.132-1.911-8.231-2.726-12.281c-0.822-4.049-1.638-8.049-2.523-11.983
					c-0.515-2.357-1.04-4.687-1.536-6.992h-33.611C118,184.233,117.473,186.563,116.959,188.92z"/>
				<path fill="#AB2E23" stroke="#000000" stroke-width="8" stroke-linejoin="round" stroke-miterlimit="10" d="M148.928,146.345
					h-27.254c0.06,4.172,0.085,8.573-0.119,13.162h27.492C148.844,154.917,148.868,150.517,148.928,146.345z"/>
				<path fill="#AB2E23" stroke="#000000" stroke-width="8" stroke-linejoin="round" stroke-miterlimit="10" d="M119.441,177.329
					c-0.291,1.518-0.611,3.054-0.945,4.599h33.611c-0.334-1.545-0.656-3.081-0.947-4.599c-0.557-2.905-1.015-5.762-1.359-8.564
					h-28.999C120.457,171.566,119.999,174.423,119.441,177.329z"/>
			</g>
			<g>
				<path fill="#E5E2D3" stroke="#000000" stroke-width="8" stroke-linejoin="round" stroke-miterlimit="10" d="M284.714,166.228
					c-0.084,0.84-0.182,1.688-0.284,2.537h28.998c-0.104-0.849-0.2-1.697-0.283-2.537c-0.229-2.283-0.373-4.521-0.471-6.722h-27.492
					C285.086,161.707,284.941,163.945,284.714,166.228z"/>
				<path fill="#E5E2D3" stroke="#000000" stroke-width="8" stroke-linejoin="round" stroke-miterlimit="10" d="M312.561,145.899
					c0.115-6.296,0.478-12.067,0.951-17.183c0.478-5.115,1.102-9.573,1.717-13.248c0.619-3.671,1.245-6.557,1.725-8.524
					c0.474-1.968,0.811-3.016,0.811-3.016c1.215-5.861,4.352-34.958-18.834-34.958c-19.605,0-22.163,24.555-18.836,34.958
					c0,0,0.336,1.048,0.811,3.016c0.48,1.967,1.104,4.853,1.724,8.524c0.616,3.674,1.238,8.133,1.718,13.248
					c0.474,5.116,0.836,10.887,0.951,17.183c0.002,0.147,0.002,0.298,0.004,0.445h27.254
					C312.558,146.198,312.56,146.047,312.561,145.899z"/>
				<path fill="#E5E2D3" stroke="#000000" stroke-width="8" stroke-linejoin="round" stroke-miterlimit="10" d="M280.587,188.92
					c-0.886,3.935-1.702,7.934-2.522,11.983c-0.816,4.049-1.732,8.149-2.729,12.281c-0.498,2.065-1.004,4.14-1.552,6.219
					c-0.526,2.08-1.1,4.166-1.668,6.257c-1.142,4.181-2.287,8.377-3.433,12.575c-2.313,8.395-4.396,16.788-5.832,25.05
					c-1.461,8.263-2.286,16.395-2.776,24.264c-1.045,15.742-1.124,30.43-0.523,43.021c0.592,12.593,1.84,23.087,3.093,30.429
					c0.592,3.675,1.217,6.56,1.648,8.526c0.45,1.968,0.75,3.018,0.75,3.018c0.454,1.584,1.025,3.131,1.694,4.632h64.396
					c0.656-1.483,1.225-3.026,1.683-4.632c0,0,0.299-1.05,0.748-3.018c0.433-1.967,1.059-4.852,1.65-8.526
					c1.253-7.342,2.5-17.836,3.093-30.429c0.602-12.591,0.52-27.278-0.524-43.021c-0.492-7.869-1.314-16.001-2.776-24.264
					c-1.436-8.263-3.519-16.656-5.833-25.05c-1.146-4.198-2.29-8.395-3.433-12.575c-0.568-2.091-1.142-4.177-1.667-6.257
					c-0.548-2.08-1.056-4.154-1.553-6.219c-0.994-4.132-1.912-8.231-2.727-12.281c-0.822-4.049-1.638-8.049-2.522-11.983
					c-0.514-2.357-1.041-4.687-1.536-6.992h-33.611C281.627,184.233,281.1,186.563,280.587,188.92z"/>
				<path fill="#AB2E23" stroke="#000000" stroke-width="8" stroke-linejoin="round" stroke-miterlimit="10" d="M312.555,146.345
					h-27.254c0.061,4.172,0.085,8.573-0.119,13.162h27.492C312.472,154.917,312.495,150.517,312.555,146.345z"/>
				<path fill="#AB2E23" stroke="#000000" stroke-width="8" stroke-linejoin="round" stroke-miterlimit="10" d="M283.068,177.329
					c-0.29,1.518-0.611,3.054-0.944,4.599h33.611c-0.335-1.545-0.657-3.081-0.946-4.599c-0.559-2.905-1.017-5.762-1.361-8.564
					H284.43C284.084,171.566,283.627,174.423,283.068,177.329z"/>
			</g>
			<g>
				<path fill="#E5E2D3" stroke="#000000" stroke-width="8" stroke-linejoin="round" stroke-miterlimit="10" d="M230.172,229.507
					c-0.085,0.84-0.182,1.687-0.285,2.537h28.999c-0.104-0.85-0.202-1.697-0.285-2.537c-0.229-2.282-0.373-4.521-0.47-6.722H230.64
					C230.543,224.986,230.398,227.225,230.172,229.507z"/>
				<path fill="#E5E2D3" stroke="#000000" stroke-width="8" stroke-linejoin="round" stroke-miterlimit="10" d="M258.018,209.179
					c0.114-6.297,0.479-12.067,0.951-17.183c0.479-5.115,1.102-9.574,1.718-13.248c0.619-3.671,1.243-6.558,1.724-8.525
					c0.475-1.967,0.812-3.016,0.812-3.016c1.215-5.861,4.351-34.958-18.835-34.958c-19.605,0-22.164,24.555-18.835,34.958
					c0,0,0.335,1.049,0.811,3.016c0.479,1.967,1.103,4.854,1.722,8.525c0.617,3.674,1.24,8.132,1.719,13.248
					c0.474,5.116,0.835,10.886,0.95,17.183c0.003,0.147,0.003,0.298,0.005,0.446h27.255
					C258.014,209.477,258.018,209.326,258.018,209.179z"/>
				<path fill="#E5E2D3" stroke="#000000" stroke-width="8" stroke-linejoin="round" stroke-miterlimit="10" d="M226.043,252.199
					c-0.886,3.935-1.701,7.935-2.522,11.984c-0.815,4.049-1.731,8.149-2.728,12.281c-0.497,2.064-1.004,4.139-1.552,6.219
					c-0.526,2.08-1.1,4.167-1.669,6.256c-1.141,4.182-2.285,8.379-3.432,12.576c-2.313,8.394-4.397,16.788-5.832,25.052
					c-1.462,8.262-2.285,16.395-2.775,24.264c-1.046,15.739-1.126,30.429-0.524,43.02c0.592,12.593,1.839,23.088,3.092,30.43
					c0.592,3.674,1.217,6.56,1.649,8.525c0.449,1.968,0.749,3.019,0.749,3.019c0.455,1.583,1.026,3.131,1.696,4.632h64.395
					c0.656-1.485,1.226-3.027,1.683-4.632c0,0,0.3-1.051,0.748-3.019c0.433-1.966,1.06-4.852,1.649-8.525
					c1.253-7.342,2.502-17.837,3.095-30.43c0.601-12.591,0.519-27.28-0.525-43.02c-0.491-7.869-1.314-16.002-2.775-24.264
					c-1.438-8.264-3.521-16.658-5.833-25.052c-1.146-4.197-2.292-8.395-3.434-12.576c-0.568-2.09-1.142-4.177-1.666-6.256
					c-0.548-2.08-1.057-4.154-1.554-6.219c-0.995-4.131-1.912-8.231-2.728-12.281c-0.82-4.049-1.638-8.049-2.521-11.984
					c-0.515-2.357-1.042-4.687-1.537-6.992h-33.61C227.083,247.512,226.558,249.841,226.043,252.199z"/>
				<path fill="#AB2E23" stroke="#000000" stroke-width="8" stroke-linejoin="round" stroke-miterlimit="10" d="M258.013,209.625
					h-27.255c0.061,4.172,0.086,8.572-0.118,13.161h27.491C257.929,218.197,257.953,213.796,258.013,209.625z"/>
				<path fill="#AB2E23" stroke="#000000" stroke-width="8" stroke-linejoin="round" stroke-miterlimit="10" d="M228.525,240.607
					c-0.29,1.519-0.611,3.055-0.944,4.6h33.61c-0.334-1.545-0.656-3.081-0.946-4.6c-0.557-2.905-1.017-5.762-1.359-8.563h-28.999
					C229.541,234.846,229.084,237.702,228.525,240.607z"/>
			</g>
		</g>
	</g>
</g>
</svg>
