<?xml version="1.0" encoding="utf-8"?>
<!-- Generator: Adobe Illustrator 16.0.0, SVG Export Plug-In . SVG Version: 6.00 Build 0)  -->
<!DOCTYPE svg PUBLIC "-//W3C//DTD SVG 1.1//EN" "http://www.w3.org/Graphics/SVG/1.1/DTD/svg11.dtd">
<svg version="1.1" xmlns="http://www.w3.org/2000/svg" xmlns:xlink="http://www.w3.org/1999/xlink" x="0px" y="0px"
	 width="566.93px" height="566.93px" viewBox="0 0 566.93 566.93" enable-background="new 0 0 566.93 566.93" xml:space="preserve">
<g id="fond" display="none">
	
		<rect x="-9283.912" y="-9178" display="inline" fill-rule="evenodd" clip-rule="evenodd" fill="#58595B" width="16654.492" height="16572.797"/>
</g>
<g id="en_cours">
</g>
<g id="fini">
	<g>
		
			<path fill="#AB2E23" stroke="#000000" stroke-width="8" stroke-linecap="round" stroke-linejoin="round" stroke-miterlimit="10" d="
			M283.466,268.402l-130.838,11.519l25.178,167.93c0,18.97,47.305,34.349,105.66,34.349c58.354,0,105.66-15.379,105.66-34.349
			l25.176-167.93L283.466,268.402z"/>
		
			<path fill="#AB2E23" stroke="#000000" stroke-width="8" stroke-linecap="round" stroke-linejoin="round" stroke-miterlimit="10" d="
			M128.06,188.815v71.29c0,25.91,69.578,46.914,155.406,46.914s155.404-21.004,155.404-46.914v-71.29H128.06z"/>
		
			<path fill="#AB2E23" stroke="#000000" stroke-width="8" stroke-linecap="round" stroke-linejoin="round" stroke-miterlimit="10" d="
			M424.354,208.631c9.307-6.021,14.516-12.734,14.516-19.815c0-25.91-69.576-46.915-155.404-46.915S128.06,162.905,128.06,188.815
			c0,7.081,5.209,13.795,14.516,19.815c24.744-16.006,78.521-27.099,140.891-27.099S399.612,192.625,424.354,208.631z"/>
		
			<path fill="#564432" stroke="#000000" stroke-width="8" stroke-linecap="round" stroke-linejoin="round" stroke-miterlimit="10" d="
			M424.354,208.631c-24.742-16.006-78.52-27.099-140.889-27.099s-116.146,11.093-140.891,27.099
			c24.744,16.006,78.521,27.1,140.891,27.1S399.612,224.637,424.354,208.631z"/>
	</g>
</g>
</svg>
