<?xml version="1.0" encoding="utf-8"?>
<!-- Generator: Adobe Illustrator 16.0.0, SVG Export Plug-In . SVG Version: 6.00 Build 0)  -->
<!DOCTYPE svg PUBLIC "-//W3C//DTD SVG 1.1//EN" "http://www.w3.org/Graphics/SVG/1.1/DTD/svg11.dtd">
<svg version="1.1" xmlns="http://www.w3.org/2000/svg" xmlns:xlink="http://www.w3.org/1999/xlink" x="0px" y="0px" width="566.9px"
	 height="566.9px" viewBox="0 0 566.9 566.9" enable-background="new 0 0 566.9 566.9" xml:space="preserve">
<g id="fond" display="none">
	
		<rect x="-8889.9" y="-7591.9" display="inline" fill-rule="evenodd" clip-rule="evenodd" fill="#F2F2F2" width="15942.5" height="15814.7"/>
</g>
<g id="en_cours">
</g>
<g id="fini">
	<g>
		<path fill-rule="evenodd" clip-rule="evenodd" fill="#7A6946" d="M498.1,357.2c-0.7,4.5-1.3,9.1-2.2,13.6
			c-1.1,5.9-2.9,11.8-3.4,17.7c-0.6,7.3-2.2,14.9-7.3,19.1c-7.2,6-6.7,15.1-11.7,21.7c-0.4,0.5-0.9,0.9-2.8,1.4
			c0-2.8-0.2-5.5-0.1-8.3c0.1-2.2,1-4.8-2.8-4.5c1.3-5.9,2.9-11.8,4-17.8c1.2-6.6,2.1-13.2,2.8-19.8c0.3-3.1,0.6-5.6,4.5-6.4
			c1.7-0.3,3.2-2.3,4.7-3.6C488.5,365.9,493.3,361.5,498.1,357.2z"/>
		<path fill-rule="evenodd" clip-rule="evenodd" fill="#D6B982" d="M509.7,299.6c-2.6-10.4-7.9-19.5-14.5-27.8
			c-0.4-0.3-0.8-0.6-1.2-0.9c-3.1-2.2-6.8-4.8-10.1-2.4c-2,1.5-2.3,5.7-2.9,8.7c-0.7,3.8-0.9,7.8-1.1,11.7c-0.1,2.5,0.2,5,0.3,7.3
			c-1.2,1.3-2.3,2.6-3.5,3.9c0,0.4,0,0.8,0,1.2c-2,5.7-4,11.4-6.2,17.8c-1-21.4,2.5-42.2-0.3-63.1c-5.3,0.5-6.2,4.3-8.2,7.1
			c-0.7,1-1,2.6-1.9,3.2c-2,1.4-4.2,2.3-6.4,3.4c-0.5-2.2-1.6-4.5-1.5-6.7c0.7-10.1,2.2-20.2,2.7-30.4c0.6-13.1-6-24.4-10.6-36.1
			c-1.3-3.2-3.2-3.1-5-0.8c-3.6,4.7-6.9,9.7-10.5,14.3c-1,1.3-3,1.8-4.6,2.6c-0.5-1.4-1.2-2.8-1.5-4.3c-1.5-7.6-2.9-15.3-4.4-22.9
			c-0.6-3.3-1.1-6.5-2-11.5c-9.4,7.8-17.9,14.8-27.3,22.5c-5.9-12.8-11.3-24.5-17-36.8c-7.8,9-15.9,18.4-24.5,28.3
			c-3.9-5.5-7.5-10.4-10.8-15.4c-3.9-5.9-7.5-11.9-11.4-17.8c-1.6-2.4-3.1-3.4-5,0.4c-6.2,12.3-12.8,24.3-19.2,36.5
			c-1.9,3.6-3.4,7.5-5.2,11.5c-15.2-13.5-27.6-28.6-37.1-47.4c-4.8,5.6-9,10.5-13.2,15.5c-6.5,7.7-12.9,15.5-19.2,23.3
			c-2.6,3.2-4.9,2.9-7.7,0.4c-7-6.1-14-12.1-21.6-18.7c-2.7,4.7-5.2,9.7-8.3,14.2c-4.1,6-8.5,11.7-13.1,17.3c-3.3,4-6.8,3.1-9.3-1.7
			c-0.8-1.5-2.3-2.7-3.5-4c-1.1,1.3-2.7,2.3-3.3,3.8c-3.3,7.6-6.2,15.4-9.7,23c-3.6,7.9-3.8,7.8-12,6.8c0,3.6,0.1,7.2,0,10.8
			c-0.2,6.2-0.9,12.3-0.9,18.5c0,6.3,0.8,12.6,0.8,19c0,2.2-1.3,4.3-1.9,6.5c-2.1-1.2-4.1-2.4-6.2-3.7c-0.4-0.2-0.8-0.5-1.7-1
			c-0.8,14.2-1.6,28-2.5,43.2c-1.8-1.9-3.5-3-4.1-4.5c-1.1-2.6-1.2-5.6-2.2-8.3c-0.4-1.2-1.9-2.1-2.8-3.2c-3.6,3.4-7.1,6.9-10.4,10
			c-0.5-4.8,4.8-13.2,10.3-15.8c0.1-4.6,0.6-9.2,0-13.7c-0.3-2.5-2.2-5.5-4.2-6.7c-1.4-0.8-4.5,0.7-6.6,1.6
			c-1.7,0.7-3.1,1.9-4.7,2.9c-7.3,9-11.6,19.3-13.9,30.6c-0.1,0.7-0.5,4-0.5,5c0,1.6-0.2,5.4-0.2,7c0,3.6,1.4,14.3,1.6,17.2
			c1.3,16.1,7.7,30.2,17.7,42.5c4.1,5,10.5,8,15.8,11.9c3-0.6,5.9-1.4,8.9-1.6c1.1-0.1,2.9,1,3.4,2.1c2.5,5.6,4.4,11.4,7.2,16.9
			c2.6,5.1,6.1,9.7,9.1,14.6c0.9,1.4,1.6,2.9,2.2,4.4c1.2,2.9,2.2,5.8,3.4,8.7c3.8,6.5,7.2,13.3,11.5,19.5c4.6,6.7,9.9,13,15.1,19.2
			c7.7,8.9,15.3,17.9,23.5,26.4c12.8,13.3,28.5,22.9,44.5,31.7c2.7,1.5,6.1,1.4,9.2,2.3c6.5,1.8,12.8,4.2,19.4,5.6
			c5.6,1.3,11.3,1.6,17,2.4c0.5,0.1,0.9,0.6,1.4,0.9c9.5,0,19,0,28.5,0c3.6-1,7.1-2,10.7-2.9c9.9-2.6,20.1-4.4,29.5-8.1
			c8.2-3.3,15.9-8.4,23.1-13.6c8.2-5.9,16.3-12.1,23.2-19.4c14.3-15,26.7-31.6,36.5-49.9c4.2-7.9,8.9-15.6,12.3-23.8
			c2.8-6.6,4.1-13.8,6.1-20.8c0.2-0.7,0.6-1.3,1-2c1.3-5.9,1.9-6.9,3-12.9c1.2-6.6,1.8-4,2.5-10.6c0.3-3.1,0.6-5.6,4.5-6.4
			c1.7-0.3,5-1.2,6.5-2.5c4.8-4.3,7.8-8.2,12.8-15.2c4-6.9,11-26.3,12.6-34C512,325.8,510.4,302.6,509.7,299.6z M162,255
			c-1.6,0.1-3.1-0.1-6.4-0.3c1.7-1.9,2.3-3.2,3.2-3.5c3.1-0.9,6.2-1.5,9.3-2.1c9.9-1.7,19.8-3.3,29.8-4.9c0.8-0.1,1.6,0,2.4-0.1
			c15.9-0.7,31.8-1.3,47.7-2c1.3-0.1,2.6-1.3,3.9-1.4c1.6-0.1,3.5,0,4.9,0.8c0.7,0.4,0.8,2.4,0.7,3.6c-0.1,2.1-0.4,4.2-1,6.1
			c-0.6,2.1-1.7,3.2-4.5,3.2c-23.2-0.3-46.4-0.4-69.7-0.4C175.7,254.1,168.8,254.8,162,255z M238.9,353.4
			c-7.1,3.4-14.4,5.1-22.1,4.5c-5.1-0.4-10.2-2-15.3-2.7c-10.9-1.4-20.6-5.6-29.6-11.6c-1.8-1.2-3.4-2.6-5-3.9
			c0.3-0.6,0.7-1.3,1-1.9c2.6,0.9,5.2,1.7,7.7,2.8c4.1,1.8,8.2,5.5,12.1,5.2c3.7-0.3,5.8,1.2,8.6,2.4c2.5,1.1,5,2.2,7.7,2.8
			c1.6,0.4,3.4-0.5,5.1-0.4c16.8,0.8,32.1-3.4,45.7-13.6c3-2.2,6.3-4.1,9.7-5.7c2.2-1.1,3.3,0.1,2.3,2.5c-0.7,1.6-1.4,3.2-2.5,4.4
			C257.5,345.9,247.9,349,238.9,353.4z M419.4,343c-19.5,19-41.8,19.2-65.5,9.8c-10.4-4.1-19.5-12.7-19.5-19c2,1.4,3.7,2.1,4.7,3.3
			c9.4,11.8,22.5,16.4,36.7,18c11.3,1.3,22.2-1.3,32.3-6.5c3.6-1.9,7-4.1,10.5-6.2c0.6-0.2,1.2-0.5,1.7-0.7
			C420,342.1,419.7,342.6,419.4,343z M412.9,257.1c-0.4,0-0.8,0-1.2,0c-1.6,0-3.1,0-4.7,0c-0.4,0-0.8,0-1.2,0
			c-4.9-0.2-9.9-0.5-14.8-0.6c-7.1-0.1-14.2-0.1-21.2-0.1c-5.5,0-11,0.2-16.5,0.4c-3.4,0.2-6.9,0.5-10.3,1c-2.6,0.4-5.2,1.2-8.1,1.9
			c-0.9-3.5-2.2-6.3-2.3-9.2c-0.1-1.3,2.1-4,3.2-4c7.2,0.2,14.4,1,21.6,1.5c3.3,0.2,6.5,0.2,9.8,0.3c8.4,0.3,16.9,0.5,25.3,1
			c11.5,0.8,23.1,1.9,34.6,3c1.9,0.2,3.7,1.4,6.8,2.6C426.2,259,419.6,258.5,412.9,257.1z"/>
		<path fill-rule="evenodd" clip-rule="evenodd" fill="#7A6946" d="M155.7,254.8c1.7-1.9,2.3-3.2,3.2-3.5c3.1-0.9,6.2-1.5,9.3-2.1
			c9.9-1.7,19.8-3.3,29.8-4.9c0.8-0.1,1.6,0,2.4-0.1c15.9-0.7,31.8-1.3,47.7-2c1.3-0.1,2.6-1.3,3.9-1.4c1.6-0.1,3.5,0,4.9,0.8
			c0.7,0.4,0.8,2.4,0.7,3.6c-0.1,2.1-0.4,4.2-1,6.1c-0.6,2.1-1.7,3.2-4.5,3.2c-23.2-0.3-46.4-0.4-69.7-0.4c-6.8,0-13.6,0.6-20.4,0.9
			C160.5,255.1,158.9,254.9,155.7,254.8z"/>
		<path fill-rule="evenodd" clip-rule="evenodd" fill="#7A6946" d="M411.7,257.1c-1.6,0-3.1,0-4.7,0c-0.4,0-0.8,0-1.2,0
			c-4.9-0.2-9.9-0.5-14.8-0.6c-7.1-0.1-14.2-0.1-21.2-0.1c-5.5,0-11,0.2-16.5,0.4c-3.4,0.2-6.9,0.5-10.3,1c-2.6,0.4-5.2,1.2-8.1,1.9
			c-0.9-3.5-2.2-6.3-2.3-9.2c-0.1-1.3,2.1-4,3.2-4c7.2,0.2,14.4,1,21.6,1.5c3.3,0.2,6.5,0.2,9.8,0.3c8.4,0.3,16.9,0.5,25.3,1
			c11.5,0.8,23.1,1.9,34.6,3c1.9,0.2,3.7,1.4,6.8,2.6c-7.6,4.2-14.2,3.7-20.9,2.2C412.5,257.1,412.1,257.1,411.7,257.1z"/>
		<path fill-rule="evenodd" clip-rule="evenodd" fill="#A48460" d="M168,337.8c2.6,0.9,5.2,1.7,7.7,2.8c4.1,1.8,8.2,5.5,12.1,5.2
			c3.7-0.3,5.8,1.2,8.6,2.4c2.5,1.1,5,2.2,7.7,2.8c1.6,0.4,3.4-0.5,5.1-0.4c16.8,0.8,32.1-3.4,45.7-13.6c3-2.2,6.3-4.1,9.7-5.7
			c2.2-1.1,3.3,0.1,2.3,2.5c-0.7,1.6-1.4,3.2-2.5,4.4c-6.8,7.8-16.4,10.9-25.4,15.2c-7.1,3.4-14.4,5.1-22.1,4.5
			c-5.1-0.4-10.2-2-15.3-2.7c-10.9-1.4-20.6-5.6-29.6-11.6c-1.8-1.2-3.4-2.6-5-3.9C167.3,339.1,167.6,338.5,168,337.8z"/>
		<path fill-rule="evenodd" clip-rule="evenodd" fill="#7A6946" d="M155.3,450.5c-4-3.1-3.4,2.5-6.4,3.1c-2.8-5.5-6.2-11-8.6-16.9
			c-2.5-5.9-5.3-6.5-9.7-2.5c-3.1-9.5-6.3-19.1-9.5-28.7c3-0.6,5.9-1.4,8.9-1.6c1.1-0.1,2.9,1,3.4,2.1c2.5,5.6,4.4,11.4,7.2,16.9
			c2.6,5.1,6.1,9.7,9.1,14.6c0.9,1.4,1.6,2.9,2.2,4.4C153.2,444.6,154.2,447.6,155.3,450.5z"/>
		<path fill-rule="evenodd" clip-rule="evenodd" fill="#A48460" d="M302.8,488.9c10.4,0,20.7,0,31.1,0.1c0.8,0,1.5,1,2.2,1.5
			c-1.1,1.4-1.9,3.8-3.3,4.1c-3.7,0.8-7.6,1.1-11.5,1.1c-15,0.1-30.1,0.1-45.1,0c-2.2,0-4.9,0.7-4.9-3c0-3.7,2.8-2.9,4.9-2.9
			c8.8,0,17.7,0,26.5,0C302.8,489.5,302.8,489.2,302.8,488.9z"/>
		<path fill-rule="evenodd" clip-rule="evenodd" fill="#A48460" d="M419.4,343c-19.5,19-41.8,19.2-65.5,9.8
			c-10.4-4.1-19.5-12.7-19.5-19c2,1.4,3.7,2.1,4.7,3.3c9.4,11.8,22.5,16.4,36.7,18c11.3,1.3,22.2-1.3,32.3-6.5
			c3.6-1.9,7-4.1,10.5-6.2C418.9,342.6,419.2,342.8,419.4,343z"/>
		<path fill-rule="evenodd" clip-rule="evenodd" fill="#A48460" d="M292.9,446.4c-5.7,0.5-10.6-1.3-14.6-4.7
			c-1.8-1.5-2.3-4.6-3.2-7.1c-0.1-0.4,0.8-1.6,1.4-1.7c1.4-0.3,2.9-0.1,4.4-0.1C293.6,432.8,293.6,432.8,292.9,446.4z"/>
		<path fill-rule="evenodd" clip-rule="evenodd" fill="#A48460" d="M308.3,446.4c5.7,0.5,10.6-1.3,14.6-4.7c1.8-1.5,2.3-4.6,3.2-7.1
			c0.1-0.4-0.8-1.6-1.4-1.7c-1.4-0.3-2.9-0.1-4.4-0.1C307.6,432.8,307.6,432.8,308.3,446.4z"/>
		<path fill-rule="evenodd" clip-rule="evenodd" fill="#A48460" d="M116.1,307.1c0.1,1.9,0.1,3.8,0.2,5.7c-3.6,3.4-7.1,6.9-10.4,10
			C105.4,318,110.6,309.7,116.1,307.1z"/>
		<path fill-rule="evenodd" clip-rule="evenodd" fill="#A48460" d="M478,291.1c-0.1,1.9-0.1,3.8-0.2,5.7c3.6,3.4,7.1,6.9,10.4,10
			C488.7,302,483.5,293.6,478,291.1z"/>
		<path fill-rule="evenodd" clip-rule="evenodd" fill="#A48460" d="M418.6,342.4c0.6-0.2,1.2-0.5,1.7-0.7c-0.3,0.4-0.6,0.9-0.9,1.3
			C419.2,342.8,418.9,342.6,418.6,342.4z"/>
		<path fill-rule="evenodd" clip-rule="evenodd" fill="#7A6946" d="M405.8,257.1c0.4,0,0.8,0,1.2,0C406.6,257,406.2,257,405.8,257.1
			z"/>
		<path fill-rule="evenodd" clip-rule="evenodd" fill="#7A6946" d="M411.7,257.1c0.4,0,0.8,0,1.2,0
			C412.5,257.1,412.1,257.1,411.7,257.1z"/>
		<path fill-rule="evenodd" clip-rule="evenodd" fill="#7A6946" d="M476.7,301.3c0-0.4,0-0.8,0-1.2
			C476.7,300.5,476.7,300.9,476.7,301.3z"/>
		<g>
			<path fill-rule="evenodd" clip-rule="evenodd" fill="#FFFFFF" d="M336.8,293.6c0,22.2,18,40.2,40.2,40.2
				c22.2,0,40.2-18,40.2-40.2H336.8z"/>
			<path fill-rule="evenodd" clip-rule="evenodd" fill="#445D7B" d="M352.2,293.6c0,13.6,11.1,24.7,24.7,24.7
				c13.6,0,24.7-11.1,24.7-24.7H352.2z"/>
			<path fill-rule="evenodd" clip-rule="evenodd" fill="#29251B" d="M367.9,293.6c0,5,4,9,9,9s9-4,9-9H367.9z"/>
		</g>
		<g>
			<path fill-rule="evenodd" clip-rule="evenodd" fill="#FFFFFF" d="M178.9,295.6c0,22.2,18,40.2,40.2,40.2
				c22.2,0,40.2-18,40.2-40.2H178.9z"/>
			<path fill-rule="evenodd" clip-rule="evenodd" fill="#445D7B" d="M194.4,295.6c0,13.6,11.1,24.7,24.7,24.7
				c13.6,0,24.7-11.1,24.7-24.7H194.4z"/>
			<path fill-rule="evenodd" clip-rule="evenodd" fill="#29251B" d="M210.1,295.6c0,5,4,9,9,9s9-4,9-9H210.1z"/>
		</g>
		<path fill-rule="evenodd" clip-rule="evenodd" fill="#7A6946" d="M100.5,291.2c0-7.2-0.5-14.5,0.1-21.7c0.8-9.6,2.3-19,3.5-28.6
			c1.1-8.2,1.8-16.5,3.3-24.7c2-11.1,3.8-22.3,7-33c4.2-14.1,8.9-28.1,14.8-41.5c3.1-7,9.1-12.7,13.8-19
			c13.8-18.3,31.2-32.7,48.8-47.1c15.1-12.4,33-18.8,50.4-26.4c1-0.4,2.2-0.4,3.5-0.6c-2.3-5.7-4.6-11.3-7.3-18
			c15.1,3.2,29.4,9.1,44.9,2.7c-3.3-7.7-6.8-15.6-10.8-24.8c17.7,8.5,34.8,16.3,47.5,31.5c2.8-4.8,1.9-10.9,7-12.2
			c8.9,9.9,16.1,20.4,30,24.4c26.7,7.5,48.3,23.6,66.8,43.8c9.7,10.6,19.1,21.5,27.8,32.9c5.3,7,9.1,15.2,13.4,22.9
			c3.6,6.5,7.6,12.8,10.5,19.6c3.2,7.5,5.4,15.4,7.7,23.2c2.9,9.9,5.8,19.8,8.1,29.8c2.2,9.9,5.3,19.8,3.9,30.2
			c-0.3,2.5,0.6,5.1,0.5,7.7c-0.1,3.2-0.5,6.3-0.8,9.5c-0.4-0.3-0.8-0.6-1.2-0.9c-3.1-2.2-6.8-4.8-10.1-2.4c-2,1.5-2.3,5.7-2.9,8.7
			c-0.7,3.8-0.9,7.8-1.1,11.7c-0.1,2.5,0.2,5,0.3,7.3c-1.2,1.3-2.3,2.6-3.5,3.9c0,0.4,0,0.8,0,1.2c-2,5.7-4,11.4-6.2,17.8
			c-1-21.4,2.5-42.2-0.3-63.1c-5.3,0.5-6.2,4.3-8.2,7.1c-0.7,1-1,2.6-1.9,3.2c-2,1.4-4.2,2.3-6.4,3.4c-0.5-2.2-1.6-4.5-1.5-6.7
			c0.7-10.1,2.2-20.2,2.7-30.4c0.6-13.1-6-24.4-10.6-36.1c-1.3-3.2-3.2-3.1-5-0.8c-3.6,4.7-6.9,9.7-10.5,14.3c-1,1.3-3,1.8-4.6,2.6
			c-0.5-1.4-1.2-2.8-1.5-4.3c-1.5-7.6-2.9-15.3-4.4-22.9c-0.6-3.3-1.1-6.5-2-11.5c-9.4,7.8-17.9,14.8-27.3,22.5
			c-5.9-12.8-11.3-24.5-17-36.8c-7.8,9-15.9,18.4-24.5,28.3c-3.9-5.5-7.5-10.4-10.8-15.4c-3.9-5.9-7.5-11.9-11.4-17.8
			c-1.6-2.4-3.1-3.4-5,0.4c-6.2,12.3-12.8,24.3-19.2,36.5c-1.9,3.6-3.4,7.5-5.2,11.5c-15.2-13.5-27.6-28.6-37.1-47.4
			c-4.8,5.6-9,10.5-13.2,15.5c-6.5,7.7-12.9,15.5-19.2,23.3c-2.6,3.2-4.9,2.9-7.7,0.4c-7-6.1-14-12.1-21.6-18.7
			c-2.7,4.7-5.2,9.7-8.3,14.2c-4.1,6-8.5,11.7-13.1,17.3c-3.3,4-6.8,3.1-9.3-1.7c-0.8-1.5-2.3-2.7-3.5-4c-1.1,1.3-2.7,2.3-3.3,3.8
			c-3.3,7.6-6.2,15.4-9.7,23c-3.6,7.9-3.8,7.8-12,6.8c0,3.6,0.1,7.2,0,10.8c-0.2,6.2-0.9,12.3-0.9,18.5c0,6.3,0.8,12.6,0.8,19
			c0,2.2-1.3,4.3-1.9,6.5c-2.1-1.2-4.1-2.4-6.2-3.7c-0.4-0.2-0.8-0.5-1.7-1c-0.8,14.2-1.6,28-2.5,43.2c-1.8-1.9-3.5-3-4.1-4.5
			c-1.1-2.6-1.2-5.6-2.2-8.3c-0.4-1.2-1.9-2.1-2.8-3.2c-0.1-1.9-0.1-3.8-0.2-5.7c0.1-4.6,0.6-9.2,0-13.7c-0.3-2.5-2.2-5.5-4.2-6.7
			c-1.4-0.8-4.5,0.7-6.6,1.6C103.5,289,102.1,290.2,100.5,291.2z"/>
	</g>
</g>
</svg>
