<?xml version="1.0" encoding="utf-8"?>
<!-- Generator: Adobe Illustrator 16.0.0, SVG Export Plug-In . SVG Version: 6.00 Build 0)  -->
<!DOCTYPE svg PUBLIC "-//W3C//DTD SVG 1.1//EN" "http://www.w3.org/Graphics/SVG/1.1/DTD/svg11.dtd">
<svg version="1.1" xmlns="http://www.w3.org/2000/svg" xmlns:xlink="http://www.w3.org/1999/xlink" x="0px" y="0px"
	 width="566.93px" height="566.93px" viewBox="0 0 566.93 566.93" enable-background="new 0 0 566.93 566.93" xml:space="preserve">
<g id="fond" display="none">
	
		<rect x="-9926.873" y="-7908" display="inline" fill-rule="evenodd" clip-rule="evenodd" fill="#58595B" width="16654.492" height="16572.797"/>
</g>
<g id="en_cours">
</g>
<g id="fini">
	<path fill="none" stroke="#000000" stroke-width="8" stroke-linecap="round" stroke-linejoin="round" stroke-miterlimit="10" d="
		M297.17,222.786C371.439,93,245.644-37.305,169.32,58S15,197.178,15,269.577C15,353,65.521,382.265,94.088,332.611"/>
	<g>
		<g>
			<g>
				
					<path fill="#AB2E23" stroke="#000000" stroke-width="8" stroke-linecap="round" stroke-linejoin="round" stroke-miterlimit="10" d="
					M191.762,298.834c9.801,27.228-4.326,57.243-31.553,67.043l-25.173,9.062c-27.226,9.8-57.244-4.325-67.044-31.552
					l-21.667-60.191c-9.8-27.227,4.327-57.244,31.555-67.043l25.172-9.062c27.227-9.801,57.242,4.326,67.043,31.553L191.762,298.834
					z"/>
				
					<path fill="#AB2E23" stroke="#000000" stroke-width="8" stroke-linecap="round" stroke-linejoin="round" stroke-miterlimit="10" d="
					M204.16,295.982c3.083,28.771,28.906,49.597,57.678,46.512l26.602-2.848c28.772-3.083,49.6-28.908,46.516-57.679l-6.814-63.607
					c-3.083-28.773-28.908-49.598-57.68-46.515l-26.602,2.85c-28.772,3.083-49.598,28.906-46.514,57.678L204.16,295.982z"/>
			</g>
			<g>
				
					<path fill="none" stroke="#000000" stroke-width="8" stroke-linecap="round" stroke-linejoin="round" stroke-miterlimit="10" d="
					M71.931,295.646c14.86,64.594,39.452,23.666,62.57,33.702"/>
				
					<path fill="#AB2E23" stroke="#000000" stroke-width="8" stroke-linecap="round" stroke-linejoin="round" stroke-miterlimit="10" d="
					M232.692,448.371c22.748-5.232,44.402,7.209,76.21-70.639c13.1-32.063,20.863-72.131,5.9-122.743
					c-7.782-26.327-16.589-53.557-29.436-109.397c-20.307-88.264-83.807-67.491-135.144-55.68s-117.531,20.875-97.225,109.14
					c12.847,55.84,16.825,84.18,21.33,111.263c8.659,52.063,33.151,84.71,58.945,107.824
					C195.904,474.259,209.943,453.605,232.692,448.371z"/>
				
					<path fill="none" stroke="#000000" stroke-width="8" stroke-linecap="round" stroke-linejoin="round" stroke-miterlimit="10" d="
					M310.551,240.748c14.86,64.594-25.144,38.529-41.552,57.658"/>
				
					<path fill="none" stroke="#000000" stroke-width="8" stroke-linecap="round" stroke-linejoin="round" stroke-miterlimit="10" d="
					M158.595,330.336c-8.704,2.004-17.386-3.43-19.388-12.136c-2.003-8.703,3.43-17.384,12.135-19.386
					c8.705-2.004,17.386,3.432,19.389,12.135"/>
				
					<path fill="#CCAC6C" stroke="#000000" stroke-width="8" stroke-linecap="round" stroke-linejoin="round" stroke-miterlimit="10" d="
					M107.662,238.794c-19.987-14.054-29.259,19.375-15.271,32.1c11.273,10.26,40.086,15.15,50.293,12.801
					c8.072-1.857,15.207-8.354,15.483-14.311c0.237-5.148-4.706-12.203-8.954-14.862
					C144.966,251.864,107.662,238.794,107.662,238.794z"/>
				
					<path fill="#AB2E23" stroke="#000000" stroke-width="8" stroke-linecap="round" stroke-linejoin="round" stroke-miterlimit="10" d="
					M64.246,161.376c-4.651,14.821-11.216,41.936,18.278,65.022c29.494,23.086,64.673,38.938,70.394,29.798
					c5.721-9.14-14.562-30.315-14.562-30.315"/>
				<circle cx="137.387" cy="267.009" r="9.704"/>
				
					<path fill="none" stroke="#000000" stroke-width="8" stroke-linecap="round" stroke-linejoin="round" stroke-miterlimit="10" d="
					M219.981,189.084c-9.907,2.279-17.019,19.8-23.433,30.048c-6.416,10.248-11.263,8.755-14.416,9.48
					c-3.15,0.725-6.86,4.187-17.107-2.228s-24.301-19.065-34.209-16.786"/>
				
					<path fill="none" stroke="#000000" stroke-width="8" stroke-linecap="round" stroke-linejoin="round" stroke-miterlimit="10" d="
					M210.736,250.922c2.91,12.641,10.162,17.374,20.963,24.134c2.096,1.311,3.769,2.899,5.109,4.603
					c1.152-0.585,2.383-1.056,3.698-1.359c8.704-2.004,17.386,3.431,19.388,12.135c2.003,8.705-3.431,17.384-12.135,19.388
					c-0.546,0.125-1.093,0.221-1.636,0.291l0.022,0.079c-10.996,2.53-16.604,31.741-36.869,36.404
					c-20.264,4.662-38.073-19.162-49.07-16.632l-0.014-0.083c-0.52,0.175-1.054,0.328-1.599,0.453
					c-8.704,2.004-17.386-3.43-19.388-12.136c-2.003-8.703,3.43-17.384,12.135-19.386c1.316-0.304,2.629-0.417,3.922-0.394
					c0.461-2.119,1.272-4.278,2.583-6.374c6.761-10.801,11.216-18.227,8.309-30.868"/>
				
					<path fill="none" stroke="#000000" stroke-width="8" stroke-linecap="round" stroke-linejoin="round" stroke-miterlimit="10" d="
					M247.76,309.823c8.704-2.004,14.138-10.683,12.135-19.388c-2.002-8.704-10.684-14.139-19.388-12.135
					c-8.705,2.001-14.138,10.684-12.136,19.388"/>
				
					<path fill="none" stroke="#000000" stroke-width="8" stroke-linecap="round" stroke-linejoin="round" stroke-miterlimit="10" d="
					M214.166,150.754c-11.108,2.556-31.104,36.554-41.011,38.833c-9.907,2.279-42.749-19.563-53.858-17.008"/>
				
					<path fill="none" stroke="#000000" stroke-width="8" stroke-linecap="round" stroke-linejoin="round" stroke-miterlimit="10" d="
					M203.552,242.021c-1.449-6.305-12.44-5.99-19.347-4.401c-6.904,1.589-16.928,6.108-15.478,12.413"/>
				
					<path fill="#CCAC6C" stroke="#000000" stroke-width="8" stroke-linecap="round" stroke-linejoin="round" stroke-miterlimit="10" d="
					M253.568,205.227c11.835-21.375,34.783,4.641,27.764,22.199c-5.658,14.154-29.437,31.144-39.643,33.492
					c-8.074,1.857-17.33-0.868-20.181-6.105c-2.464-4.526-1.101-13.033,1.559-17.28
					C225.725,233.284,253.568,205.227,253.568,205.227z"/>
				
					<path fill="#AB2E23" stroke="#000000" stroke-width="8" stroke-linecap="round" stroke-linejoin="round" stroke-miterlimit="10" d="
					M258.787,116.619c10.66,11.298,28.413,32.819,11.974,66.473c-16.439,33.655-41.155,63.286-50.294,57.564
					c-9.141-5.72-0.151-33.63-0.151-33.63"/>
				<circle cx="239.16" cy="243.594" r="9.704"/>
				
					<polygon fill="#141414" stroke="#000000" stroke-width="8" stroke-linecap="round" stroke-linejoin="round" stroke-miterlimit="10" points="
					151.682,372.298 158.068,360.543 190.509,367.038 236.518,356.453 261.291,333.387 270.405,345.744 261.902,380.229 
					220.853,391.413 179.452,400.937 				"/>
				
					<path fill="none" stroke="#000000" stroke-width="8" stroke-linecap="round" stroke-linejoin="round" stroke-miterlimit="10" d="
					M211.42,355.906c26.419-6.08,41.485-24.404,46.343-36.268c4.856-11.866,31.249-12.563,31.926,10.989
					c0.466,16.2-6.311,19.785-4.53,42.136c3.149,39.543-11.815,24.214-61.651,35.68c-49.837,11.466-56.599,31.792-71.046-5.151
					c-8.166-20.881-15.828-21.145-22.488-35.919c-9.684-21.479,14.36-32.388,23.914-23.837
					C163.44,352.085,185,361.983,211.42,355.906z"/>
				
					<path fill="#CCAC6C" stroke="#000000" stroke-width="8" stroke-linecap="round" stroke-linejoin="round" stroke-miterlimit="10" d="
					M214.564,369.577c-41.149,10.262-62.049-5.312-65.604-9.103c-6.949-7.41,1.935-16.883,8.877-13.8
					c0,0,15.764,9.868,27.881,10.876c12.117,1.007,25.907-0.744,25.907-0.744"/>
				<g>
					<polygon fill="#CCAC6C" points="161.173,350.338 186.305,357.721 183.021,390.291 					"/>
					<path d="M169.32,356.9l12.672,3.723l-1.656,16.422L169.32,356.9 M153.025,343.775l9.275,16.963l11.016,20.145l12.389,22.654
						l2.591-25.689l1.656-16.422l0.666-6.606l-6.371-1.872l-12.672-3.723L153.025,343.775L153.025,343.775z"/>
				</g>
				
					<line fill="#CCAC6C" stroke="#000000" stroke-width="8" stroke-linecap="round" stroke-linejoin="round" stroke-miterlimit="10" x1="214.182" y1="367.915" x2="211.998" y2="358.421"/>
				
					<line fill="#CCAC6C" stroke="#000000" stroke-width="8" stroke-linecap="round" stroke-linejoin="round" stroke-miterlimit="10" x1="220.363" y1="394.783" x2="218.18" y2="385.29"/>
				
					<line fill="#CCAC6C" stroke="#000000" stroke-width="8" stroke-linecap="round" stroke-linejoin="round" stroke-miterlimit="10" x1="199.922" y1="371.194" x2="197.738" y2="361.702"/>
				
					<line fill="#CCAC6C" stroke="#000000" stroke-width="8" stroke-linecap="round" stroke-linejoin="round" stroke-miterlimit="10" x1="155.336" y1="361.171" x2="158.891" y2="351.611"/>
				
					<path fill="#CCAC6C" stroke="#000000" stroke-width="8" stroke-linecap="round" stroke-linejoin="round" stroke-miterlimit="10" d="
					M214.564,369.577c41.496-8.752,53.49-31.893,55.03-36.855c3.012-9.702-9.119-14.341-14.017-8.534
					c0,0-9.865,15.766-20.323,21.966c-10.46,6.202-23.629,10.653-23.629,10.653"/>
				<g>
					
						<path fill="#CCAC6C" stroke="#000000" stroke-width="8" stroke-linecap="round" stroke-linejoin="round" stroke-miterlimit="10" d="
						M217.843,383.824c11.407-2.622,25.726-2.915,34.581-4.953c7.055-1.622,9.086-23.903,12.725-31.62
						c2.41-5.112,6.127-12.013,8.374-11.323c5.007,1.534,4.713,7.359,3.513,11.834c-8.762,32.681-3.146,33.977-12.703,41.647
						c-7.367,5.912-24.768,3.645-43.381,7.926c-18.613,4.282-33.273,13.927-42.482,11.829c-11.951-2.723-7.465-6.345-29.627-31.908
						c-3.035-3.502-5.846-8.611-2.012-12.181c1.719-1.603,8.079,2.98,12.479,6.525c6.646,5.353,18.21,24.504,25.264,22.881
						C193.43,392.443,206.435,386.449,217.843,383.824z"/>
				</g>
				<g>
					<polygon fill="#CCAC6C" points="234.802,346.563 254.18,328.938 251.989,374.424 					"/>
					<path d="M249.72,338.402l-1.104,22.934l-8.666-14.047L249.72,338.402 M258.641,319.475l-14.304,13.01l-9.771,8.887
						l-4.912,4.468l3.486,5.65l8.666,14.047l13.558,21.976l1.241-25.791l1.105-22.934L258.641,319.475L258.641,319.475z"/>
				</g>
				<g>
					<path fill="#CCAC6C" d="M249.559,393.056c-0.977,0-1.932-0.358-2.673-1.024c-0.97-0.871-1.454-2.158-1.299-3.452l1.862-15.523
						c0.201-1.675,1.431-3.043,3.075-3.422c0.299-0.068,0.6-0.102,0.896-0.102c1.341,0,2.617,0.675,3.364,1.836l8.458,13.147
						c0.704,1.096,0.832,2.465,0.341,3.672c-0.491,1.206-1.538,2.098-2.808,2.391l-10.32,2.376
						C250.158,393.022,249.857,393.056,249.559,393.056z"/>
					<path d="M251.421,373.532l8.458,13.147l-10.32,2.376L251.421,373.532 M251.422,365.531c-0.596,0-1.197,0.067-1.795,0.205
						c-3.287,0.756-5.747,3.493-6.149,6.843l-1.862,15.523c-0.311,2.587,0.658,5.163,2.597,6.904
						c1.483,1.333,3.394,2.049,5.347,2.049c0.598,0,1.199-0.067,1.795-0.204l10.32-2.376c2.538-0.584,4.633-2.368,5.615-4.781
						c0.981-2.412,0.728-5.152-0.682-7.343l-8.459-13.147C256.655,366.883,254.102,365.531,251.422,365.531L251.422,365.531z"/>
				</g>
				
					<line fill="#CCAC6C" stroke="#000000" stroke-width="8" stroke-linecap="round" stroke-linejoin="round" stroke-miterlimit="10" x1="214.182" y1="367.915" x2="211.998" y2="358.421"/>
				
					<line fill="#CCAC6C" stroke="#000000" stroke-width="8" stroke-linecap="round" stroke-linejoin="round" stroke-miterlimit="10" x1="220.363" y1="394.783" x2="218.18" y2="385.29"/>
				
					<line fill="#CCAC6C" stroke="#000000" stroke-width="8" stroke-linecap="round" stroke-linejoin="round" stroke-miterlimit="10" x1="228.441" y1="364.634" x2="226.258" y2="355.141"/>
				
					<line fill="#CCAC6C" stroke="#000000" stroke-width="8" stroke-linecap="round" stroke-linejoin="round" stroke-miterlimit="10" x1="235.003" y1="393.153" x2="232.82" y2="383.662"/>
				
					<line fill="#CCAC6C" stroke="#000000" stroke-width="8" stroke-linecap="round" stroke-linejoin="round" stroke-miterlimit="10" x1="264.166" y1="336.134" x2="256.79" y2="329.089"/>
				
					<line fill="#CCAC6C" stroke="#000000" stroke-width="8" stroke-linecap="round" stroke-linejoin="round" stroke-miterlimit="10" x1="274.693" y1="354.766" x2="265.605" y2="346.849"/>
				
					<line fill="#CCAC6C" stroke="#000000" stroke-width="8" stroke-linecap="round" stroke-linejoin="round" stroke-miterlimit="10" x1="271.207" y1="371.191" x2="262.118" y2="363.276"/>
				<g>
					<path fill="#CCAC6C" d="M181.28,408.763c-0.977,0-1.932-0.358-2.674-1.025c-0.969-0.87-1.453-2.158-1.298-3.451l1.862-15.521
						c0.201-1.675,1.431-3.044,3.075-3.422c0.299-0.068,0.6-0.102,0.896-0.102c1.341,0,2.617,0.675,3.364,1.836l8.458,13.148
						c0.704,1.096,0.832,2.466,0.341,3.672c-0.491,1.207-1.539,2.099-2.809,2.391l-10.32,2.373
						C181.88,408.729,181.579,408.763,181.28,408.763z"/>
					<path d="M183.143,389.241l8.458,13.148l-10.32,2.373L183.143,389.241 M183.144,381.241c-0.596,0-1.196,0.066-1.794,0.204
						c-3.288,0.756-5.748,3.493-6.15,6.843l-1.862,15.521c-0.31,2.587,0.658,5.162,2.596,6.903c1.484,1.334,3.395,2.05,5.348,2.05
						c0.598,0,1.198-0.066,1.793-0.203l10.32-2.373c2.539-0.584,4.635-2.368,5.616-4.78c0.982-2.413,0.729-5.153-0.682-7.345
						l-8.457-13.148C188.377,382.592,185.823,381.241,183.144,381.241L183.144,381.241z"/>
				</g>
				
					<line fill="#CCAC6C" stroke="#000000" stroke-width="8" stroke-linecap="round" stroke-linejoin="round" stroke-miterlimit="10" x1="206.483" y1="399.716" x2="204.299" y2="390.224"/>
				
					<line fill="#CCAC6C" stroke="#000000" stroke-width="8" stroke-linecap="round" stroke-linejoin="round" stroke-miterlimit="10" x1="154.008" y1="382.53" x2="158.723" y2="371.438"/>
				
					<line fill="#CCAC6C" stroke="#000000" stroke-width="8" stroke-linecap="round" stroke-linejoin="round" stroke-miterlimit="10" x1="164.323" y1="395.781" x2="169.038" y2="384.691"/>
			</g>
		</g>
		<path fill="none" stroke="#000000" stroke-width="8" stroke-linecap="round" stroke-linejoin="round" stroke-miterlimit="10" d="
			M513.192,342.831C609,216.205,504.446,248.54,408.904,100.935c-46.065-71.167-139.905,29.297-143.914,179.296"/>
		<g>
			<g>
				
					<path fill="#E5E2D3" stroke="#000000" stroke-width="8" stroke-linecap="round" stroke-linejoin="round" stroke-miterlimit="10" d="
					M527.441,363.492c-9.712,37.915-32.502,64.832-48.696,60.685c-16.194-4.148-21.446-38.248-11.735-76.165
					c9.713-37.916,30.713-65.291,46.906-61.143C530.11,291.017,537.154,325.575,527.441,363.492z"/>
				
					<path fill="#E5E2D3" stroke="#000000" stroke-width="8" stroke-linecap="round" stroke-linejoin="round" stroke-miterlimit="10" d="
					M315.242,309.137c-9.713,37.916-30.713,65.291-46.906,61.143c-16.193-4.147-23.237-38.706-13.525-76.622
					c9.713-37.917,32.502-64.833,48.697-60.685C319.701,237.12,324.953,271.22,315.242,309.137z"/>
			</g>
			
				<path fill="#E5E2D3" stroke="#000000" stroke-width="8" stroke-linecap="round" stroke-linejoin="round" stroke-miterlimit="10" d="
				M522.672,336.107c-28.943,112.989-109.316,182.085-175.754,165.066c-66.438-17.019-103.696-116.244-74.754-229.233
				c28.941-112.989,105.313-166.464,171.752-149.446C510.355,139.513,551.613,223.118,522.672,336.107z"/>
			<g>
				
					<ellipse transform="matrix(0.9985 0.0554 -0.0554 0.9985 14.0693 -25.9413)" fill="#141414" stroke="#000000" stroke-width="8" stroke-linecap="round" stroke-linejoin="round" stroke-miterlimit="10" cx="474.546" cy="240.585" rx="28.595" ry="13.072"/>
				
					<ellipse transform="matrix(-0.9022 -0.4314 0.4314 -0.9022 594.1613 557.3857)" fill="#141414" stroke="#000000" stroke-width="8" stroke-linecap="round" stroke-linejoin="round" stroke-miterlimit="10" cx="360.286" cy="211.318" rx="28.595" ry="13.071"/>
			</g>
			<path fill="none" stroke="#000000" stroke-width="8" stroke-linecap="round" stroke-linejoin="round" stroke-miterlimit="10" d="
				M386.397,252.708c10,9.783,21.271,22.315,16.608,40.518c-1.939,7.566-5.426,21.379-9.449,35.108"/>
			<path fill="none" stroke="#000000" stroke-width="8" stroke-linecap="round" stroke-linejoin="round" stroke-miterlimit="10" d="
				M357.193,342.215c-9.178-2.352-18.523,3.184-20.875,12.362s3.184,18.525,12.361,20.877c4.862,1.246,9.762,0.261,13.654-2.289
				c-0.457,8.023,4.792,15.511,12.87,17.58c8.079,2.069,16.28-1.973,19.735-9.229c2.188,4.106,6.01,7.326,10.872,8.571
				c9.179,2.353,18.526-3.184,20.877-12.362c2.351-9.18-3.183-18.525-12.362-20.877"/>
			<g>
				<g>
					<path fill="#FFFFFF" stroke="#000000" stroke-width="8" stroke-miterlimit="10" d="M427.537,321.017
						c6.297-1.763,18.658-5.341,26.57-3.313c7.916,2.026,42.738,10.946,42.738,10.946s-7.973,8.078-31.725,3.681
						C441.368,327.933,427.537,321.017,427.537,321.017z"/>
					<g>
						<defs>
							<path id="SVGID_1_" d="M427.537,321.017c6.297-1.763,18.658-5.341,26.57-3.313c7.916,2.026,42.738,10.946,42.738,10.946
								s-7.973,8.078-31.725,3.681C441.368,327.933,427.537,321.017,427.537,321.017z"/>
						</defs>
						<clipPath id="SVGID_2_">
							<use xlink:href="#SVGID_1_"  overflow="visible"/>
						</clipPath>
						<circle clip-path="url(#SVGID_2_)" cx="455.517" cy="322.912" r="9.191"/>
					</g>
				</g>
				
					<path fill="none" stroke="#000000" stroke-width="8" stroke-linecap="round" stroke-linejoin="round" stroke-miterlimit="10" d="
					M422.686,311.977c3.991-2.363,23.633-8.309,34.316-5.572c10.686,2.737,45.742,14.035,45.742,14.035"/>
				<g>
					<path fill="#FFFFFF" stroke="#000000" stroke-width="8" stroke-miterlimit="10" d="M362.839,304.443
						c-4.676-4.572-13.792-13.653-21.706-15.68c-7.914-2.027-42.737-10.948-42.737-10.948s3.106,10.917,26.048,18.48
						S362.839,304.443,362.839,304.443z"/>
					<g>
						<defs>
							<path id="SVGID_3_" d="M362.839,304.443c-4.676-4.572-13.792-13.653-21.706-15.68c-7.914-2.027-42.737-10.948-42.737-10.948
								s3.106,10.917,26.048,18.48S362.839,304.443,362.839,304.443z"/>
						</defs>
						<clipPath id="SVGID_4_">
							<use xlink:href="#SVGID_3_"  overflow="visible"/>
						</clipPath>
						<circle clip-path="url(#SVGID_4_)" cx="337.395" cy="292.655" r="9.192"/>
					</g>
				</g>
				
					<path fill="none" stroke="#000000" stroke-width="8" stroke-linecap="round" stroke-linejoin="round" stroke-miterlimit="10" d="
					M371.439,298.85c-2.365-3.99-16.729-18.647-27.414-21.384c-10.684-2.737-46.855-9.684-46.855-9.684"/>
			</g>
			
				<path fill="#AB2E23" stroke="#000000" stroke-width="8" stroke-linecap="round" stroke-linejoin="round" stroke-miterlimit="10" d="
				M361.563,443.999c3.232,0.828,8.137,2.325,17.229,1.233c10.694-1.284,27.343-12.395,36.291-28.706
				c-16.115,9.198-16.924,0.276-27.099-4.079c-14.727-6.305-18.961,2.426-18.961,2.426s0.484-9.691-15.46-11.242
				c-11.015-1.072-16.013,6.36-25.723-9.451c0.005,18.604,9.262,36.351,18.021,42.618
				C353.311,442.127,358.332,443.172,361.563,443.999z"/>
			
				<path fill="#FFFFFF" stroke="#000000" stroke-width="8" stroke-linecap="round" stroke-linejoin="round" stroke-miterlimit="10" d="
				M368.138,418.334c19.196,4.917,34.749,7.947,46.945-1.808c0,0-15.243,21.219-49.66,12.402
				c-34.417-8.815-37.582-34.749-37.582-34.749C333.846,408.598,348.939,413.418,368.138,418.334z"/>
			<g>
				
					<line fill="none" stroke="#000000" stroke-width="8" stroke-linecap="round" stroke-linejoin="round" stroke-miterlimit="10" x1="368.138" y1="418.334" x2="365.423" y2="428.929"/>
				
					<line fill="none" stroke="#000000" stroke-width="8" stroke-linecap="round" stroke-linejoin="round" stroke-miterlimit="10" x1="380.54" y1="422.465" x2="378.506" y2="430.409"/>
				
					<line fill="none" stroke="#000000" stroke-width="8" stroke-linecap="round" stroke-linejoin="round" stroke-miterlimit="10" x1="355.275" y1="415.994" x2="353.24" y2="423.938"/>
			</g>
			<path fill="none" stroke="#000000" stroke-width="8" stroke-linecap="round" stroke-linejoin="round" stroke-miterlimit="10" d="
				M443.916,122.495l-6.447,25.168c-30.686-7.86-139.423-17.617-175.511,197.261"/>
			<path fill="none" stroke="#000000" stroke-width="8" stroke-linecap="round" stroke-linejoin="round" stroke-miterlimit="10" d="
				M456.332,126.581l-6.229,24.318c0,0,121.344,31.559,52.978,240.757"/>
			<path fill="none" stroke="#000000" stroke-width="8" stroke-linecap="round" stroke-linejoin="round" stroke-miterlimit="10" d="
				M434.972,157.413C383.127,146.76,274.76,170.139,264.99,378.08"/>
			
				<path fill="#141414" stroke="#000000" stroke-width="8" stroke-linecap="round" stroke-linejoin="round" stroke-miterlimit="10" d="
				M437.469,147.663l6.447-25.168c-66.438-17.019-142.811,36.457-171.752,149.446c-6.445,25.162-9.723,49.749-10.203,72.961
				C298.053,130.047,406.783,139.803,437.469,147.663z"/>
			
				<path fill="#141414" stroke="#000000" stroke-width="8" stroke-linecap="round" stroke-linejoin="round" stroke-miterlimit="10" d="
				M456.331,126.582l-6.229,24.317c0,0,121.333,31.557,52.987,240.727c7.852-17.074,14.496-35.664,19.582-55.519
				C549.761,230.354,515.099,150.397,456.331,126.582z"/>
			<path fill="none" stroke="#000000" stroke-width="8" stroke-linecap="round" stroke-linejoin="round" stroke-miterlimit="10" d="
				M447.604,160.648c45.39,7.916,104.892,102.34,45.159,251.354"/>
		</g>
	</g>
</g>
</svg>
