<?xml version="1.0" encoding="utf-8"?>
<!-- Generator: Adobe Illustrator 16.0.0, SVG Export Plug-In . SVG Version: 6.00 Build 0)  -->
<!DOCTYPE svg PUBLIC "-//W3C//DTD SVG 1.1//EN" "http://www.w3.org/Graphics/SVG/1.1/DTD/svg11.dtd">
<svg version="1.1" xmlns="http://www.w3.org/2000/svg" xmlns:xlink="http://www.w3.org/1999/xlink" x="0px" y="0px"
	 width="566.93px" height="566.93px" viewBox="0 0 566.93 566.93" enable-background="new 0 0 566.93 566.93" xml:space="preserve">
<g id="fond" display="none">
	
		<rect x="-6964.42" y="-8861.898" display="inline" fill-rule="evenodd" clip-rule="evenodd" fill="#58595B" width="15942.492" height="15814.695"/>
</g>
<g id="en_cours">
</g>
<g id="fini">
	<g>
		
			<path fill="#CCAC6C" stroke="#000000" stroke-width="8" stroke-linecap="round" stroke-linejoin="round" stroke-miterlimit="10" d="
			M354.835,551.78c0,0-7.438-65.428-7.438-87.744c0-22.317,50.14-41.903,57.992-92.204l37.783-151.672
			c3.479-12.81-4.658-25.862-18.175-29.16c-13.515-3.295-27.293,4.413-30.771,17.222L376.3,265.646h0
			c-12.025,36.853-37.22,22.632-33.44,5.688l37.025-165.919c2.68-12.981-6.252-25.56-19.948-28.1
			c-13.697-2.54-26.973,5.922-29.652,18.901l-31.121,139.46c-1.424-0.126-2.87-0.229-4.335-0.314l1.876-172.809
			c0.089-13.229-11.153-24.016-25.109-24.101c-13.957-0.086-25.342,10.566-25.431,23.791l-1.767,176.806
			c-1.195,0.22-2.39,0.446-3.584,0.683l-24.45-166.597c-1.807-13.114-14.49-22.357-28.33-20.646S164.44,66.22,166.247,79.333
			l25.777,175.526c-2.005,0.896-3.969,1.819-5.883,2.768l-38.476-120.862c-3.548-12.059-16.74-19.11-29.466-15.747
			c-12.726,3.359-20.167,15.86-16.62,27.92l39.208,138.185l18.51,101.089c0,0,0.002,0.015,0.006,0.04
			c0.002,0.011,0.003,0.021,0.006,0.036c0.004,0.028,0.01,0.063,0.017,0.107c0.003,0.021,0.006,0.038,0.01,0.062
			c0.007,0.045,0.017,0.097,0.026,0.153c0.007,0.039,0.012,0.072,0.02,0.116c0.016,0.091,0.034,0.194,0.055,0.31
			c0.008,0.047,0.019,0.103,0.028,0.154c0.014,0.076,0.028,0.152,0.044,0.236c0.015,0.078,0.031,0.16,0.047,0.244
			c0.014,0.072,0.028,0.146,0.043,0.223c0.02,0.1,0.04,0.199,0.062,0.309c0.012,0.06,0.026,0.125,0.039,0.188
			c0.048,0.237,0.103,0.493,0.161,0.767c0.014,0.063,0.026,0.121,0.041,0.186c0.03,0.141,0.064,0.289,0.097,0.438
			c0.02,0.086,0.039,0.174,0.06,0.263c0.036,0.161,0.074,0.325,0.114,0.494c0.017,0.073,0.035,0.148,0.052,0.223
			c0.146,0.619,0.313,1.292,0.501,2.018c0.015,0.056,0.028,0.11,0.043,0.166c0.061,0.236,0.125,0.478,0.192,0.725
			c0.017,0.063,0.034,0.126,0.052,0.19c0.302,1.114,0.652,2.328,1.054,3.63c0.015,0.048,0.029,0.095,0.044,0.144
			c0.098,0.316,0.199,0.638,0.304,0.964c0.009,0.027,0.018,0.055,0.026,0.081c0.446,1.391,0.95,2.865,1.517,4.412
			c0.014,0.035,0.027,0.071,0.04,0.107c0.574,1.562,1.214,3.192,1.923,4.881c0.004,0.011,0.009,0.021,0.014,0.033
			c0.9,2.139,1.914,4.365,3.052,6.648c0.002,0.004,0.004,0.009,0.006,0.013c0.913,1.829,1.906,3.692,2.986,5.576
			c0,0,0.001,0.003,0.002,0.003c1.348,2.352,2.833,4.729,4.464,7.105c0.011,0.016,0.022,0.032,0.033,0.049
			c1.296,1.885,2.685,3.766,4.173,5.629c0.018,0.022,0.036,0.045,0.053,0.067c1.859,2.324,3.873,4.616,6.053,6.85
			c0.05,0.051,0.099,0.102,0.149,0.152c1.707,1.74,3.515,3.441,5.431,5.091c0.077,0.066,0.153,0.133,0.23,0.198
			c0.45,0.385,0.904,0.767,1.366,1.145c0.065,0.054,0.132,0.106,0.197,0.16c1.45,1.183,2.957,2.333,4.525,3.447
			c0.075,0.054,0.148,0.106,0.223,0.159c0.479,0.339,0.965,0.672,1.455,1.004c0.137,0.092,0.274,0.184,0.411,0.275
			c0.494,0.329,0.991,0.656,1.496,0.979c0.052,0.032,0.105,0.064,0.157,0.098c1.14,0.723,2.306,1.428,3.505,2.109l-6.312,96.101"/>
		
			<path fill="#CCAC6C" stroke="#000000" stroke-width="8" stroke-linecap="round" stroke-linejoin="round" stroke-miterlimit="10" d="
			M325.927,315.795c-22.162,7.224-46.422,53.612-46.422,66.418"/>
		
			<path fill="#CCAC6C" stroke="#000000" stroke-width="8" stroke-linecap="round" stroke-linejoin="round" stroke-miterlimit="10" d="
			M207.029,331.285C224.065,301,289.352,288,289.352,288"/>
	</g>
	<g>
		
			<path fill="#CCAC6C" stroke="#000000" stroke-width="8" stroke-linecap="round" stroke-linejoin="round" stroke-miterlimit="10" d="
			M206.869,10.785"/>
		
			<path fill="#CCAC6C" stroke="#000000" stroke-width="8" stroke-linecap="round" stroke-linejoin="round" stroke-miterlimit="10" d="
			M364.954,9.62"/>
	</g>
</g>
</svg>
