<?xml version="1.0" encoding="utf-8"?>
<!-- Generator: Adobe Illustrator 16.0.0, SVG Export Plug-In . SVG Version: 6.00 Build 0)  -->
<!DOCTYPE svg PUBLIC "-//W3C//DTD SVG 1.1//EN" "http://www.w3.org/Graphics/SVG/1.1/DTD/svg11.dtd">
<svg version="1.1" xmlns="http://www.w3.org/2000/svg" xmlns:xlink="http://www.w3.org/1999/xlink" x="0px" y="0px"
	 width="340.157px" height="340.157px" viewBox="0 0 340.157 566.93" enable-background="new 0 0 340.157 566.93"
	 xml:space="preserve">
<g id="fond" display="none">
	
		<rect x="-5507.259" y="-8544.855" display="inline" fill-rule="evenodd" clip-rule="evenodd" fill="#58595B" width="16654.492" height="16572.797"/>
</g>
<g id="en_cours">
</g>
<g id="fini">
	<g>
		<path d="M167.52,374.803c0,9.199-1.335,17.505-4.005,24.92c-2.67,7.419-6.417,13.795-11.235,19.135
			c-4.822,5.34-10.569,9.456-17.244,12.349s-13.944,4.339-21.805,4.339c-7.864,0-15.13-1.446-21.805-4.339
			s-12.425-7.009-17.244-12.349c-4.821-5.34-8.565-11.716-11.235-19.135c-2.67-7.415-4.006-15.721-4.006-24.92
			c0-9.046,1.336-17.316,4.006-24.809c2.67-7.488,6.414-13.906,11.235-19.246c4.819-5.34,10.569-9.456,17.244-12.349
			s13.94-4.339,21.805-4.339c7.86,0,15.13,1.446,21.805,4.339s12.422,7.009,17.244,12.349c4.818,5.34,8.565,11.758,11.235,19.246
			C166.185,357.486,167.52,365.757,167.52,374.803z M145.938,374.803c0-13.051-2.931-23.396-8.788-31.038
			c-5.862-7.639-13.834-11.459-23.919-11.459c-10.089,0-18.061,3.82-23.919,11.459c-5.861,7.642-8.788,17.987-8.788,31.038
			c0,13.055,2.927,23.4,8.788,31.039c5.858,7.641,13.83,11.458,23.919,11.458c10.085,0,18.057-3.817,23.919-11.458
			C143.007,398.203,145.938,387.857,145.938,374.803z"/>
		<path d="M187.767,320.291c4.745-1.186,11.048-2.447,18.912-3.782c7.86-1.335,16.91-2.003,27.145-2.003
			c9.195,0,16.834,1.3,22.918,3.894c6.08,2.597,10.937,6.23,14.573,10.902c3.633,4.673,6.191,10.273,7.676,16.799
			c1.481,6.529,2.226,13.722,2.226,21.582v64.97h-20.692v-60.52c0-7.12-0.483-13.2-1.446-18.245
			c-0.967-5.041-2.559-9.122-4.784-12.237c-2.225-3.114-5.193-5.374-8.899-6.786c-3.71-1.408-8.309-2.113-13.795-2.113
			c-2.226,0-4.526,0.076-6.897,0.223c-2.375,0.149-4.638,0.333-6.786,0.556c-2.152,0.223-4.082,0.483-5.785,0.779
			c-1.707,0.299-2.931,0.521-3.671,0.667v97.677h-20.692V320.291z"/>
	</g>
</g>
</svg>
