<?xml version="1.0" encoding="utf-8"?>
<!-- Generator: Adobe Illustrator 16.0.0, SVG Export Plug-In . SVG Version: 6.00 Build 0)  -->
<!DOCTYPE svg PUBLIC "-//W3C//DTD SVG 1.1//EN" "http://www.w3.org/Graphics/SVG/1.1/DTD/svg11.dtd">
<svg version="1.1" xmlns="http://www.w3.org/2000/svg" xmlns:xlink="http://www.w3.org/1999/xlink" x="0px" y="0px"
	 width="566.93px" height="566.93px" viewBox="0 0 566.93 566.93" enable-background="new 0 0 566.93 566.93" xml:space="preserve">
<g id="fond" display="none">
	
		<rect x="-8001.873" y="-9811.008" display="inline" fill-rule="evenodd" clip-rule="evenodd" fill="#58595B" width="16654.492" height="16572.797"/>
</g>
<g id="en_cours">
</g>
<g id="fini">
	<g>
		<g>
			<g>
				
					<rect x="113.839" y="364.582" fill="#CCAC6C" stroke="#000000" stroke-width="8" stroke-linecap="round" stroke-linejoin="round" stroke-miterlimit="10" width="47.245" height="83.074"/>
				
					<rect x="405.846" y="364.582" fill="#CCAC6C" stroke="#000000" stroke-width="8" stroke-linecap="round" stroke-linejoin="round" stroke-miterlimit="10" width="47.245" height="83.074"/>
			</g>
			<rect x="27.861" y="346.829" fill="#4F5666" width="511.207" height="35.507"/>
			<g>
				
					<line fill="#CCAC6C" stroke="#000000" stroke-width="8" stroke-linecap="round" stroke-linejoin="round" stroke-miterlimit="10" x1="91.762" y1="273.48" x2="91.762" y2="346.828"/>
				
					<line fill="#CCAC6C" stroke="#000000" stroke-width="8" stroke-linecap="round" stroke-linejoin="round" stroke-miterlimit="10" x1="130.103" y1="239.398" x2="130.103" y2="346.828"/>
				
					<line fill="#CCAC6C" stroke="#000000" stroke-width="8" stroke-linecap="round" stroke-linejoin="round" stroke-miterlimit="10" x1="168.443" y1="209.103" x2="168.443" y2="346.828"/>
				
					<line fill="#CCAC6C" stroke="#000000" stroke-width="8" stroke-linecap="round" stroke-linejoin="round" stroke-miterlimit="10" x1="206.784" y1="184.488" x2="206.784" y2="346.828"/>
				
					<line fill="#CCAC6C" stroke="#000000" stroke-width="8" stroke-linecap="round" stroke-linejoin="round" stroke-miterlimit="10" x1="245.124" y1="184.488" x2="245.124" y2="346.828"/>
				
					<line fill="#CCAC6C" stroke="#000000" stroke-width="8" stroke-linecap="round" stroke-linejoin="round" stroke-miterlimit="10" x1="283.465" y1="184.488" x2="283.465" y2="346.828"/>
				
					<line fill="#CCAC6C" stroke="#000000" stroke-width="8" stroke-linecap="round" stroke-linejoin="round" stroke-miterlimit="10" x1="321.806" y1="184.488" x2="321.806" y2="346.828"/>
				
					<line fill="#CCAC6C" stroke="#000000" stroke-width="8" stroke-linecap="round" stroke-linejoin="round" stroke-miterlimit="10" x1="360.146" y1="184.488" x2="360.146" y2="346.828"/>
				
					<line fill="#CCAC6C" stroke="#000000" stroke-width="8" stroke-linecap="round" stroke-linejoin="round" stroke-miterlimit="10" x1="398.486" y1="218.57" x2="398.486" y2="346.828"/>
				
					<line fill="#CCAC6C" stroke="#000000" stroke-width="8" stroke-linecap="round" stroke-linejoin="round" stroke-miterlimit="10" x1="436.827" y1="236.558" x2="436.827" y2="346.828"/>
				
					<line fill="#CCAC6C" stroke="#000000" stroke-width="8" stroke-linecap="round" stroke-linejoin="round" stroke-miterlimit="10" x1="475.168" y1="283.895" x2="475.168" y2="346.828"/>
			</g>
			
				<path fill="#AB2E23" stroke="#000000" stroke-width="8" stroke-linecap="round" stroke-linejoin="round" stroke-miterlimit="10" d="
				M283.465,198.67c96.01,0,177.537,62.006,206.723,148.158h32.07c-30.257-103.305-125.707-178.756-238.793-178.756
				S74.929,243.523,44.672,346.828h32.071C105.928,260.676,187.455,198.67,283.465,198.67z"/>
			
				<line fill="#CCAC6C" stroke="#000000" stroke-width="8" stroke-linecap="round" stroke-linejoin="round" stroke-miterlimit="10" x1="27.861" y1="382.336" x2="539.068" y2="382.336"/>
			
				<line fill="#CCAC6C" stroke="#000000" stroke-width="8" stroke-linecap="round" stroke-linejoin="round" stroke-miterlimit="10" x1="539.068" y1="346.829" x2="27.861" y2="346.829"/>
		</g>
		<g>
			<rect x="31.096" y="429.072" fill="#2268A8" width="504.737" height="55.951"/>
			
				<path fill="#2268A8" stroke="#000000" stroke-width="8" stroke-linecap="round" stroke-linejoin="round" stroke-miterlimit="10" d="
				M535.833,430.637c-26.997,0-27.389-20.346-50.474-20.346s-23.477,20.346-50.474,20.346s-27.389-20.346-50.474-20.346
				c-23.084,0-23.477,20.346-50.474,20.346c-26.998,0-27.389-20.346-50.474-20.346s-23.476,20.346-50.473,20.346
				c-26.998,0-27.39-20.346-50.475-20.346c-23.084,0-23.476,20.346-50.473,20.346s-27.389-20.346-50.474-20.346
				c-23.084,0-23.477,20.346-50.474,20.346"/>
		</g>
	</g>
</g>
</svg>
