<?xml version="1.0" encoding="utf-8"?>
<!-- Generator: Adobe Illustrator 16.0.0, SVG Export Plug-In . SVG Version: 6.00 Build 0)  -->
<!DOCTYPE svg PUBLIC "-//W3C//DTD SVG 1.1//EN" "http://www.w3.org/Graphics/SVG/1.1/DTD/svg11.dtd">
<svg version="1.1" xmlns="http://www.w3.org/2000/svg" xmlns:xlink="http://www.w3.org/1999/xlink" x="0px" y="0px"
	 width="566.93px" height="566.93px" viewBox="0 0 566.93 566.93" enable-background="new 0 0 566.93 566.93" xml:space="preserve">
<g id="fond" display="none">
	
		<rect x="-6307.873" y="-8861.898" display="inline" fill-rule="evenodd" clip-rule="evenodd" fill="#58595B" width="15942.492" height="15814.695"/>
</g>
<g id="en_cours">
</g>
<g id="fini">
	<g>
		<g>
			<path fill="#4F5666" d="M227.607,546.633c-1.112,0.001-2.189-0.398-3.034-1.123l-16.041-13.758c0,0-16.956,0.469-16.993,0.469
				c-2.393,0-4.408-1.789-4.689-4.163c-0.152-1.237,0.193-2.476,0.973-3.47c0.78-0.994,1.9-1.624,3.155-1.772l14.219-1.717
				l0.028-0.431c0.128-1.695,0.24-3.311,0.229-4.854c-0.005-1.259-0.075-2.517-0.15-3.85l-0.138-2.549
				c-0.064-1.215-0.128-2.431-0.216-3.646l-0.356-5.163c-0.047-0.563-0.094-1.18-0.142-1.796c-0.083-1.084-0.167-2.167-0.271-3.25
				c-0.118-1.346-0.251-2.725-0.403-4.182c-32.608-12.379-45.44-45.758-50.394-67.034c-38.421,3.473-85.784,7.449-101.229,7.449
				c-4.165,0-8.472,0-9.047-3.991c-0.169-1.166-0.622-4.276,9.44-20.684c10.001-16.308,13.037-17.476,14.034-17.86
				c0.783-0.301,1.613-0.36,2.784-0.36c6.929,0,37.49,2.589,90.842,7.695c13.189-5.688,44.499-17.835,71.219-17.835
				c0.523,0,1.053,0.008,1.588,0.023c2.721-18.164,18.294-31.862,37.088-31.862c6.922,0,13.583,1.869,19.436,5.43l20.134-15.194
				c0.713-0.538,1.562-0.807,2.41-0.807c0.852,0,1.704,0.271,2.419,0.814c1.426,1.083,1.959,2.982,1.304,4.649l-9.771,24.856
				l26.042,4.462c1.769,0.303,3.12,1.747,3.304,3.532s-0.844,3.475-2.514,4.132l-25.508,10.044
				c-1.475,12.612-9.208,23.558-20.524,29.183c2.195,6.236,3.305,12.761,3.305,19.45c0,26.099-17.044,48.817-41.796,56.228
				l-0.031,0.389l-0.351,5.098c-0.088,1.211-0.151,2.409-0.215,3.607l-0.143,2.629c-0.073,1.322-0.142,2.571-0.147,3.805
				c-0.013,1.549,0.097,3.146,0.222,4.782l21.409,0.804c2.454,0.099,4.436,2.089,4.523,4.53c0.034,0.882-0.179,1.742-0.611,2.497
				l2.811,0.752c2.381,0.643,3.859,3.031,3.373,5.441c-0.435,2.17-2.362,3.749-4.58,3.749c-0.312,0-0.625-0.031-0.931-0.094
				l-4.615-0.933c0.213,0.996,0.105,2.063-0.373,3.029c-0.789,1.596-2.388,2.59-4.173,2.59c-0.712,0-1.426-0.167-2.065-0.483
				l-16.982-8.412c0.129,0.472,0.186,0.971,0.158,1.482c-0.081,1.515-0.873,2.83-2.042,3.63l2.009,0.771
				c2.313,0.891,3.53,3.431,2.778,5.785c-0.616,1.942-2.406,3.253-4.452,3.253c-0.482,0-0.959-0.074-1.419-0.221l-11.857-3.77
				l0.308,0.317c1.692,1.752,1.771,4.448,0.196,6.282C230.256,546.041,228.968,546.633,227.607,546.633z M219.609,521.411
				c-0.224-0.513-0.36-1.073-0.39-1.665c-0.061-1.269,0.374-2.477,1.223-3.41c0.849-0.934,2.01-1.479,3.27-1.539l13.052-0.634
				l0.004-0.065c0.129-1.694,0.241-3.307,0.228-4.853c-0.004-1.254-0.074-2.503-0.147-3.826l-0.142-2.624
				c-0.063-1.199-0.127-2.398-0.214-3.597l-0.222-3.215c-1.614,0.133-3.233,0.2-4.844,0.2c-4.872,0-9.627-0.395-14.191-1.175
				c-0.016,0.173-0.031,0.347-0.046,0.52c-0.106,1.115-0.19,2.198-0.273,3.28c-0.048,0.618-0.095,1.235-0.146,1.853l-0.351,5.096
				c-0.088,1.22-0.152,2.426-0.216,3.633l-0.14,2.589c-0.074,1.327-0.144,2.581-0.149,3.82c-0.012,1.56,0.1,3.174,0.226,4.831
				l0.025,0.367L219.609,521.411z"/>
			<path d="M312.083,340.349h0.005 M312.083,340.349l-11.57,29.433l30.889,5.292l-27.824,10.956
				c-0.644,13.736-9.554,25.309-21.869,29.854c2.848,6.624,4.431,13.92,4.431,21.588c0,25.681-17.698,47.219-41.56,53.109
				c-0.085,1.06-0.167,2.119-0.254,3.178l-0.355,5.151c-0.124,1.716-0.202,3.433-0.299,5.15c-0.088,1.717-0.208,3.434-0.215,5.15
				c-0.014,1.717,0.106,3.434,0.237,5.15l0.17,2.575c0.013,0.312,0.028,0.622,0.042,0.934l25.032,0.939
				c0.363,0.015,0.662,0.307,0.675,0.676c0.015,0.388-0.287,0.714-0.675,0.729l-15.341,0.575l21.179,5.667
				c0.34,0.092,0.557,0.435,0.486,0.785c-0.064,0.32-0.345,0.541-0.659,0.541c-0.044,0-0.089-0.005-0.135-0.014l-22.931-4.636
				l13.313,8.021c0.289,0.175,0.403,0.547,0.25,0.855c-0.114,0.231-0.347,0.365-0.589,0.365c-0.098,0-0.197-0.021-0.292-0.068
				l-22.618-11.204c-0.014-0.005-0.028-0.009-0.042-0.015l-17.661-0.857c-0.365-0.019-0.666-0.312-0.685-0.684
				c-0.019-0.397,0.288-0.735,0.685-0.754l16.644-0.809c0.015-0.349,0.032-0.698,0.047-1.048l0.17-2.575
				c0.131-1.717,0.251-3.434,0.236-5.15c-0.006-1.717-0.126-3.434-0.214-5.15c-0.097-1.718-0.175-3.435-0.299-5.15l-0.356-5.151
				c-0.062-0.746-0.118-1.493-0.175-2.24c-2.779,0.436-5.625,0.665-8.525,0.665c-6.438,0-12.332-0.706-17.745-1.972
				c-0.173,1.655-0.332,3.313-0.477,4.968c-0.164,1.718-0.279,3.435-0.421,5.151l-0.355,5.15c-0.124,1.717-0.202,3.434-0.298,5.15
				c-0.089,1.717-0.209,3.434-0.216,5.151c-0.013,1.717,0.107,3.433,0.237,5.149l0.171,2.576c0.015,0.354,0.032,0.707,0.047,1.062
				l28.64,3.441c0.364,0.044,0.638,0.363,0.618,0.735c-0.02,0.374-0.331,0.664-0.702,0.664c-0.012,0-0.025,0-0.038-0.001
				l-19.5-1.047l22.767,8.734c0.33,0.127,0.509,0.492,0.4,0.833c-0.091,0.287-0.355,0.471-0.642,0.471
				c-0.068,0-0.137-0.011-0.205-0.032l-27.064-8.603l11.434,11.751c0.233,0.241,0.251,0.627,0.028,0.887
				c-0.13,0.151-0.314,0.229-0.499,0.229c-0.152,0-0.304-0.052-0.428-0.158l-17.213-14.764l-18.408,0.51c-0.006,0-0.012,0-0.017,0
				c-0.359,0-0.674-0.268-0.717-0.633c-0.048-0.395,0.233-0.754,0.627-0.801l17.544-2.118c0.015-0.387,0.035-0.774,0.051-1.16
				l0.171-2.576c0.13-1.717,0.25-3.433,0.237-5.149c-0.007-1.718-0.127-3.435-0.217-5.151c-0.096-1.717-0.174-3.434-0.298-5.15
				l-0.355-5.15c-0.142-1.717-0.257-3.434-0.421-5.151c-0.196-2.24-0.427-4.48-0.68-6.721c-34.196-11.542-46.56-47.211-50.95-68.416
				c-40.541,3.684-88.828,7.751-104.378,7.751c-3.217,0-5.032-0.174-5.088-0.562c-0.555-3.818,17.281-32.827,20.952-34.24
				c0.164-0.063,0.622-0.094,1.347-0.094c8.417,0,52.868,4.076,91.487,7.775c13.323-5.813,44.23-17.915,70.573-17.915
				c1.754,0,3.486,0.091,5.197,0.252c0.747-17.849,15.447-32.091,33.479-32.091c7.314,0,14.077,2.35,19.587,6.327L312.083,340.349
				 M312.083,332.349c-0.001,0-0.003,0-0.004,0c-0.004,0-0.008,0-0.012,0c-0.002,0-0.004,0-0.007,0c-0.005,0-0.011,0-0.016,0
				c-0.001,0-0.002,0-0.002,0c-0.006,0-0.012,0-0.018,0c-0.001,0-0.001,0-0.001,0c-1.815,0.014-3.486,0.632-4.823,1.662
				l-17.98,13.568c-5.875-3.062-12.385-4.659-19.117-4.659c-19.606,0-36.044,13.471-40.387,31.854
				c-25.642,0.452-54.135,10.896-70.146,17.74c-52.847-5.054-83.193-7.616-90.203-7.616c-1.601,0-2.866,0.105-4.223,0.629
				c-1.979,0.762-5.295,2.038-16.005,19.501c-10.818,17.641-10.319,21.079-9.988,23.354c0.216,1.501,1.467,6.489,8.428,7.23
				c1.14,0.122,2.637,0.181,4.578,0.181c12.368,0,45.375-2.406,98.163-7.156c5.564,21.59,18.778,52.578,49.721,65.556
				c0.054,0.572,0.106,1.133,0.154,1.685c0.002,0.021,0.004,0.042,0.006,0.063c0.101,1.059,0.183,2.117,0.264,3.176
				c0.047,0.606,0.094,1.214,0.144,1.82l0.352,5.096c0.086,1.19,0.147,2.358,0.213,3.595l0.078,1.45l0.061,1.111
				c0.072,1.279,0.139,2.486,0.144,3.627c0.004,0.561-0.009,1.128-0.034,1.71l-10.929,1.319c-2.303,0.273-4.373,1.437-5.814,3.273
				c-1.441,1.837-2.079,4.125-1.795,6.442c0.516,4.354,4.239,7.66,8.657,7.66c0.051,0,0.12,0,0.171-0.002
				c0.022,0,0.045,0,0.067-0.001l15.322-0.425l14.87,12.754c1.567,1.345,3.569,2.086,5.636,2.086c2.529,0,4.923-1.1,6.57-3.019
				c0.855-0.996,1.448-2.129,1.781-3.314l5.327,1.693c0.849,0.271,1.734,0.408,2.628,0.408c3.797,0,7.119-2.433,8.267-6.052
				c0.542-1.695,0.53-3.446,0.06-5.049l8.427,4.175c1.19,0.589,2.519,0.899,3.843,0.899c3.318,0,6.292-1.847,7.761-4.82
				c0.01-0.021,0.021-0.042,0.03-0.063l0.581,0.118c0.558,0.113,1.14,0.172,1.72,0.172c4.117,0,7.693-2.931,8.503-6.968
				c0.849-4.207-1.541-8.388-5.508-9.848c-0.264-4.398-3.887-7.971-8.336-8.15l-17.796-0.668c-0.007-0.296-0.01-0.586-0.007-0.871
				c0.004-1.166,0.071-2.365,0.141-3.634l0.063-1.174l0.08-1.462c0.065-1.221,0.126-2.373,0.209-3.521l0.194-2.813
				c25-8.7,41.996-32.265,41.996-59.201c0-5.995-0.835-11.867-2.489-17.537c10.177-6.163,17.246-16.425,19.328-28.222l23.354-9.196
				c3.34-1.314,5.395-4.693,5.027-8.264c-0.368-3.57-3.069-6.459-6.607-7.064l-21.197-3.632l7.881-20.047
				c0.418-0.97,0.649-2.038,0.649-3.161c0-4.418-3.579-8-7.998-8h-0.003C312.084,332.349,312.083,332.349,312.083,332.349
				L312.083,332.349z M220.761,500.936c0.038-0.454,0.073-0.908,0.108-1.363c3.443,0.406,6.972,0.611,10.558,0.611
				c0.374,0,0.749-0.004,1.124-0.01c0.061,0.93,0.11,1.857,0.162,2.829l0.082,1.507l0.061,1.13c0.07,1.27,0.137,2.47,0.141,3.601
				c0.003,0.361-0.001,0.729-0.012,1.102l-9.474,0.461c-1.207,0.056-2.368,0.357-3.426,0.878l0.035-0.636l0.078-1.447
				c0.065-1.227,0.127-2.385,0.21-3.54L220.761,500.936L220.761,500.936z"/>
		</g>
		<path fill="#FFFFFF" stroke="#000000" stroke-width="8" stroke-linejoin="round" stroke-miterlimit="10" d="M457.744,319.463
			c-0.369-0.972-0.6-1.911-0.984-2.835c-0.45-0.924-0.788-1.824-1.237-2.702c-0.514-0.876-0.996-1.729-1.449-2.564
			c-0.569-0.819-1.128-1.624-1.677-2.414c-0.136-0.196-0.259-0.394-0.4-0.586l-0.478-0.565c-0.315-0.372-0.627-0.74-0.936-1.104
			c-0.301-0.363-0.599-0.723-0.895-1.078c-0.287-0.355-0.671-0.685-0.991-1.021c-0.656-0.666-1.297-1.316-1.922-1.951
			c-1.354-1.229-2.695-2.363-3.921-3.428c-1.344-1.012-2.601-1.958-3.764-2.833c-0.233-0.149-0.446-0.285-0.672-0.429
			c-11.792,3.492-24.274,5.376-37.198,5.376c-72.229,0-130.783-58.554-130.783-130.783S328.991,39.761,401.221,39.761
			s130.783,58.554,130.783,130.783c0,45.615-23.359,85.77-58.762,109.172c0.377,0.563,0.756,1.137,1.134,1.723
			c0.747,1.28,1.512,2.593,2.295,3.937c0.378,0.683,0.792,1.324,1.145,2.06c0.351,0.731,0.706,1.471,1.065,2.218
			c0.352,0.746,0.707,1.5,1.065,2.261c0.179,0.379,0.358,0.76,0.538,1.142c0.158,0.404,0.317,0.811,0.477,1.219
			c0.625,1.64,1.254,3.3,1.857,4.996c0.507,1.779,1.001,3.584,1.478,5.408c0.423,1.859,0.706,3.819,1.031,5.751
			c0.268,1.96,0.338,4.018,0.472,6.039c0.016,2.058-0.073,4.155-0.193,6.241c-0.142,1.049-0.284,2.104-0.428,3.164
			c-0.156,1.054-0.281,2.107-0.571,3.156c-0.517,2.099-0.994,4.202-1.815,6.236c-1.389,4.131-3.591,7.994-6.035,11.608
			c-1.364,1.718-2.605,3.522-4.173,5.056c-0.762,0.781-1.486,1.596-2.291,2.329c-0.822,0.708-1.646,1.417-2.471,2.128
			c-0.803,0.729-1.716,1.324-2.597,1.953c-0.9,0.602-1.742,1.277-2.693,1.795l-2.813,1.586c-0.921,0.547-1.943,0.916-2.909,1.37
			c-1.927,0.931-3.99,1.531-5.998,2.193c-1.014,0.305-2.063,0.499-3.089,0.742c-1.028,0.238-2.053,0.462-3.104,0.568l-3.115,0.389
			c-1.042,0.067-2.087,0.078-3.123,0.11l-1.55,0.033c-0.516-0.01-1.032-0.063-1.546-0.093l-3.066-0.233
			c-4.041-0.597-7.986-1.474-11.602-3.009c-0.904-0.378-1.827-0.694-2.692-1.128c-0.855-0.445-1.708-0.89-2.559-1.333l-1.261-0.667
			c-0.416-0.227-0.799-0.507-1.197-0.758c-0.783-0.517-1.564-1.031-2.343-1.544c-2.659-1.836-5.451-3.747-8.152-5.443
			c-1.325-0.757-2.675-1.452-3.996-2.178c-1.33-0.709-2.639-1.424-4.028-1.99c-1.369-0.599-2.724-1.191-4.062-1.776
			c-0.665-0.313-1.343-0.558-2.021-0.788c-0.675-0.242-1.346-0.483-2.012-0.722c-2.645-1.063-5.285-1.77-7.833-2.578
			c-1.276-0.396-2.552-0.625-3.8-0.941c-0.626-0.148-1.247-0.296-1.862-0.441c-0.617-0.131-1.231-0.192-1.84-0.292
			c-4.871-0.911-9.423-0.9-13.446-0.597c-0.998,0.121-1.993,0.158-2.918,0.338c-0.931,0.181-1.829,0.355-2.691,0.522
			c-0.865,0.177-1.657,0.462-2.442,0.672c-0.391,0.113-0.772,0.224-1.145,0.332c-0.361,0.136-0.714,0.269-1.057,0.398
			c-2.805,0.955-4.807,2.194-6.183,3.022c-0.68,0.428-1.157,0.82-1.504,1.058c-0.34,0.247-0.516,0.375-0.516,0.375
			s0.144-0.161,0.423-0.473c0.288-0.304,0.68-0.8,1.266-1.372c0.304-0.275,0.643-0.583,1.016-0.922
			c0.372-0.346,0.785-0.715,1.273-1.058c0.481-0.36,0.997-0.747,1.548-1.16c0.566-0.392,1.2-0.754,1.858-1.169
			c2.663-1.58,6.153-3.201,10.406-4.262c4.229-1.094,9.223-1.82,14.638-1.608c0.678,0.016,1.371-0.005,2.059,0.043
			c0.687,0.063,1.38,0.127,2.081,0.191c0.703,0.065,1.412,0.132,2.128,0.198c0.715,0.074,1.449,0.11,2.157,0.271
			c1.434,0.268,2.892,0.539,4.373,0.815c0.746,0.132,1.485,0.302,2.21,0.525c0.732,0.207,1.47,0.416,2.212,0.626
			c0.741,0.219,1.487,0.439,2.238,0.661c0.754,0.217,1.508,0.448,2.236,0.744c1.476,0.558,2.97,1.121,4.48,1.692
			c1.526,0.522,3.015,1.244,4.54,1.916c1.532,0.661,3.063,1.364,4.643,2.018c2.953,1.423,5.837,2.814,9.007,4.173
			c0.684,0.275,1.37,0.552,2.058,0.828c0.345,0.131,0.676,0.294,1.029,0.4l1.062,0.303c0.7,0.203,1.401,0.407,2.105,0.611
			c0.701,0.195,1.433,0.271,2.14,0.415c2.834,0.599,5.726,0.587,8.517,0.459l2.084-0.279c0.345-0.049,0.689-0.074,1.03-0.14
			l1.015-0.246c0.673-0.168,1.345-0.303,2.006-0.479l1.94-0.677c0.319-0.119,0.647-0.194,0.955-0.344l0.921-0.439
			c0.607-0.302,1.23-0.539,1.813-0.871c1.144-0.716,2.319-1.306,3.341-2.15c0.513-0.411,1.082-0.722,1.544-1.188l1.433-1.292
			c0.491-0.401,0.868-0.938,1.306-1.384c0.417-0.472,0.873-0.894,1.213-1.424l1.1-1.477c0.351-0.496,0.623-1.049,0.94-1.553
			c0.313-0.508,0.628-1.007,0.844-1.563l0.734-1.582c0.756-2.19,1.428-4.302,1.555-6.467c0.291-2.114,0.08-4.228-0.135-6.22
			C458.169,321.409,457.989,320.427,457.744,319.463z"/>
		<path d="M362.39,103.536v15.485v9.238v62.171c-4.196-3.446-9.561-5.519-15.401-5.519c-13.401,0-24.304,10.902-24.304,24.303
			s10.902,24.303,24.304,24.303c13.4,0,24.302-10.902,24.302-24.303h0.003v-83.416l35.293-9.752l35.293-9.752V222.15
			c-4.195-3.444-9.558-5.516-15.397-5.516c-13.402,0-24.305,10.901-24.305,24.303c0,13.4,10.903,24.302,24.305,24.302
			c13.399,0,24.301-10.901,24.301-24.302V103.834l0.002-27.874L362.39,103.536z"/>
	</g>
</g>
</svg>
