<?xml version="1.0" encoding="utf-8"?>
<!-- Generator: Adobe Illustrator 16.0.0, SVG Export Plug-In . SVG Version: 6.00 Build 0)  -->
<!DOCTYPE svg PUBLIC "-//W3C//DTD SVG 1.1//EN" "http://www.w3.org/Graphics/SVG/1.1/DTD/svg11.dtd">
<svg version="1.1" xmlns="http://www.w3.org/2000/svg" xmlns:xlink="http://www.w3.org/1999/xlink" x="0px" y="0px"
	 width="566.93px" height="566.93px" viewBox="0 0 566.93 566.93" enable-background="new 0 0 566.93 566.93" xml:space="preserve">
<g id="fond" display="none">
	
		<rect x="-9283.912" y="-11116" display="inline" fill-rule="evenodd" clip-rule="evenodd" fill="#58595B" width="16654.492" height="16572.797"/>
</g>
<g id="en_cours">
</g>
<g id="fini">
	<g>
		
			<path fill="#AB2E23" stroke="#000000" stroke-width="8" stroke-linecap="round" stroke-linejoin="round" stroke-miterlimit="10" d="
			M338.848,323.865c-0.575-0.657-1.279-1.446-2.111-2.307c-0.831-0.862-1.781-1.813-2.847-2.795
			c-2.123-1.98-4.683-4.141-7.526-6.265c-1.423-1.063-2.911-2.127-4.455-3.151c-1.529-1.049-3.13-2.028-4.712-3.043
			c-1.603-0.977-3.198-1.966-4.802-2.88c-1.589-0.939-3.186-1.805-4.729-2.646c-1.549-0.831-3.061-1.606-4.505-2.321
			c-1.449-0.707-2.827-1.361-4.115-1.936c-2.573-1.155-4.77-2.021-6.33-2.584c-1.566-0.555-2.486-0.824-2.486-0.824
			c-2.893-0.852-4.547-3.887-3.697-6.779c0.852-2.895,3.887-4.549,6.78-3.697c0.762,0.224,1.457,0.617,2.023,1.102
			c0,0,0.727,0.627,2.041,1.641c1.319,1.007,3.238,2.382,5.604,3.918c1.181,0.771,2.479,1.573,3.858,2.408
			c1.384,0.824,2.854,1.675,4.394,2.524c1.544,0.84,3.137,1.713,4.788,2.538c1.638,0.851,3.334,1.654,5.024,2.472
			c1.71,0.779,3.401,1.592,5.111,2.31c1.698,0.74,3.398,1.413,5.063,2.032c3.329,1.237,6.531,2.217,9.346,2.927
			c1.404,0.361,2.718,0.645,3.894,0.874c1.173,0.233,2.218,0.396,3.083,0.524c1.166,0.157,2.009,0.231,2.443,0.263
			c3.018-8.563,4.879-17.695,5.379-27.222c0,0,0.016-0.302,0.047-0.896c0.049-0.637,0.027-1.362,0.044-2.429
			c0.002-0.156,0.003-0.329,0.005-0.497c-0.796-0.244-1.76-0.535-2.871-0.825c-1.111-0.312-2.367-0.641-3.74-0.97
			c-1.373-0.327-2.86-0.662-4.437-0.995c-1.577-0.329-3.241-0.65-4.965-0.963c-1.725-0.302-3.507-0.604-5.32-0.873
			c-1.813-0.271-3.657-0.532-5.503-0.755c-1.847-0.236-3.693-0.438-5.514-0.63c-1.82-0.177-3.613-0.349-5.35-0.477
			c-1.736-0.139-3.417-0.245-5.013-0.325c-1.594-0.086-3.104-0.141-4.498-0.175c-2.789-0.073-5.121-0.046-6.755,0.005
			c-0.816,0.013-1.461,0.064-1.898,0.079c-0.438,0.028-0.672,0.045-0.672,0.045c-2.943,0.194-5.486-2.033-5.683-4.976
			c-0.195-2.943,2.033-5.487,4.977-5.683c0.505-0.032,1.024,0.012,1.496,0.112c0,0,0.229,0.051,0.658,0.146
			c0.432,0.08,1.061,0.228,1.866,0.36c1.607,0.294,3.908,0.67,6.678,1.013c1.385,0.173,2.885,0.346,4.476,0.497
			c1.589,0.16,3.266,0.305,5.004,0.426c1.736,0.134,3.534,0.23,5.361,0.327c1.827,0.081,3.685,0.158,5.544,0.199
			c1.859,0.056,3.722,0.071,5.556,0.074c1.833,0.005,3.641-0.028,5.391-0.069c1.75-0.052,3.443-0.123,5.052-0.211
			c1.607-0.094,3.131-0.205,4.536-0.323c1.407-0.121,2.698-0.261,3.844-0.401c0.034-0.004,0.065-0.008,0.1-0.012
			c-0.194-0.801-0.407-1.601-0.651-2.383c-0.515-1.677-1.12-3.356-1.872-4.9c-0.18-0.408-0.376-0.786-0.582-1.157
			c-0.205-0.37-0.401-0.775-0.624-1.134c-0.216-0.371-0.444-0.727-0.678-1.082c-0.254-0.352-0.367-0.676-0.572-0.994
			c-1.477-2.563-3.422-4.534-6.047-5.594c-1.311-0.546-2.828-0.74-4.414-1.045c-1.592-0.299-3.295-0.516-5.124-0.631
			c-1.83-0.113-3.783-0.133-5.885-0.023c-0.993,0.034-2.026,0.134-3.079,0.211c-1.072,0.116-2.158,0.219-3.309,0.393
			c-2.25,0.291-4.809,0.797-7.229,1.268c-0.63,0.13-1.263,0.261-1.899,0.393c-0.655,0.148-1.313,0.296-1.976,0.445
			c-1.336,0.298-2.684,0.571-4.113,0.918c-2.749,0.6-5.605,1.197-8.625,1.782c-3.022,0.596-6.065,0.961-9.234,1.313
			c-0.797,0.094-1.59,0.177-2.389,0.193c-0.799,0.032-1.611,0.069-2.407,0.078c-1.613,0.044-3.215,0.031-4.837,0.004
			c-1.639-0.104-3.303-0.249-4.93-0.436c-0.83-0.077-1.626-0.2-2.438-0.309c-0.799-0.094-1.677-0.264-2.489-0.424
			c-1.676-0.301-3.294-0.676-4.923-1.043c-1.602-0.416-3.329-0.834-4.934-1.306c-3.174-0.984-6.523-1.938-9.659-3.045
			c-0.784-0.28-1.579-0.55-2.389-0.794c-0.793-0.271-1.593-0.527-2.373-0.813c-1.577-0.54-3.092-1.182-4.637-1.752
			c-1.544-0.563-3.077-1.146-4.574-1.795c-1.509-0.626-2.971-1.361-4.476-1.967c-1.499-0.628-2.971-1.32-4.447-2.016
			c-1.48-0.676-2.927-1.479-4.427-2.104c-2.976-1.333-5.974-2.676-8.989-4.025l-0.143-0.063l-0.274-0.11l-0.281-0.108l-0.564-0.216
			l-1.129-0.432c-0.699-0.29-1.621-0.579-2.502-0.858c-1.784-0.605-3.47-1.015-5.229-1.408c-3.496-0.782-7.102-1.196-10.714-1.419
			c-7.234-0.42-14.602,0.234-21.698,2.063c-7.088,1.84-13.893,4.803-20.042,8.709c-6.167,3.893-11.66,8.693-16.493,13.963
			c-4.833,5.277-9.044,11.008-12.728,16.957c-7.306,11.941-12.585,24.719-16.112,37.454c-1.793,6.365-3.143,12.73-4.125,19.001
			c-0.496,3.137-0.921,6.249-1.214,9.333c-0.321,3.083-0.554,6.136-0.681,9.148c-0.57,12.054,0.104,23.458,1.525,33.826
			c0.161,1.3,0.377,2.577,0.574,3.841c0.2,1.265,0.389,2.518,0.62,3.746c0.199,1.101,0.396,2.19,0.591,3.267
			c0.189,1.153,0.377,2.292,0.562,3.416c0.197,1.12,0.392,2.228,0.583,3.318c0.09,0.843,0.178,1.675,0.281,2.499l20.205-1.999
			c-0.035-1.098-0.069-2.202-0.106-3.326c-0.115-1.106-0.231-2.227-0.349-3.362c-0.131-1.133-0.264-2.279-0.399-3.439
			c-0.186-1.229-0.374-2.473-0.564-3.73c-0.183-1.127-0.323-2.273-0.477-3.43c-0.151-1.157-0.312-2.326-0.437-3.511
			c-1.166-9.456-1.882-19.736-1.896-30.591c0.009-10.847,0.703-22.307,2.842-33.917c1.045-5.808,2.472-11.638,4.319-17.401
			c0.931-2.878,1.928-5.757,3.121-8.563c1.16-2.824,2.453-5.6,3.864-8.321c5.604-10.886,13.519-20.801,23.411-27.803
			c4.935-3.486,10.358-6.257,16.111-7.836c5.738-1.604,11.765-1.964,17.592-1.173c2.915,0.394,5.78,1.063,8.571,1.943
			c0.702,0.198,1.39,0.465,2.083,0.689c0.714,0.208,1.357,0.452,2.007,0.688c0.651,0.24,1.268,0.444,2.062,0.764l1.126,0.439
			l0.563,0.219l0.25,0.097c-0.029-0.011-0.047-0.017,0.035,0.017l0.133,0.06c2.879,1.222,5.74,2.436,8.581,3.642l1.064,0.454
			l1.024,0.51c0.68,0.343,1.365,0.673,2.032,1.034c1.346,0.706,2.686,1.407,3.985,2.168c1.331,0.715,2.518,1.621,3.721,2.494
			c1.197,0.879,2.348,1.814,3.474,2.764c0.57,0.467,1.074,1.014,1.593,1.539c0.518,0.523,1.016,1.068,1.512,1.61
			c0.975,1.106,1.956,2.16,2.809,3.388c1.723,2.437,3.285,4.848,4.665,7.583c0.697,1.356,1.294,2.709,1.938,4.135
			c0.609,1.479,1.216,2.938,1.75,4.462c0.292,0.751,0.517,1.486,0.813,2.301c0.282,0.8,0.577,1.581,0.836,2.404
			c0.263,0.816,0.539,1.617,0.791,2.442c0.255,0.831,0.507,1.659,0.759,2.483c0.552,1.711,1.108,3.421,1.636,5.176
			c0.542,1.747,1.026,3.502,1.623,5.295c0.59,1.803,1.173,3.589,1.753,5.36c0.58,1.806,1.156,3.624,1.814,5.362
			c1.282,3.508,2.615,7.021,4.027,10.39c0.695,1.664,1.449,3.239,2.195,4.825c0.377,0.794,0.753,1.582,1.127,2.367
			c0.379,0.782,0.778,1.531,1.169,2.294c0.786,1.516,1.604,3.001,2.409,4.335c0.413,0.676,0.821,1.348,1.229,2.016
			c0.423,0.649,0.843,1.294,1.26,1.936c0.838,1.288,1.715,2.49,2.577,3.691c0.886,1.158,1.756,2.338,2.652,3.414
			c1.745,2.064,3.529,3.945,5.318,5.674c1.792,1.727,3.594,3.291,5.384,4.714c1.804,1.402,3.644,2.671,5.508,3.629
			c3.753,1.902,7.664,2.647,11.478,2.542c0.237-0.002,0.476-0.014,0.714-0.029c0.243-0.014,0.477-0.019,0.677-0.069
			c0.418-0.076,0.834-0.158,1.251-0.257c0.047-0.01,0.097-0.026,0.145-0.037c-0.469-0.943-0.956-1.912-1.486-2.92
			c-0.816-1.563-1.693-3.198-2.642-4.861c-0.933-1.674-1.941-3.372-2.971-5.094c-0.523-0.854-1.051-1.717-1.581-2.581
			c-0.545-0.854-1.09-1.714-1.637-2.571c-1.102-1.71-2.22-3.408-3.359-5.051c-1.129-1.652-2.281-3.248-3.407-4.784
			c-1.133-1.532-2.258-2.991-3.34-4.364c-1.094-1.365-2.147-2.641-3.14-3.805c-1.001-1.158-1.934-2.21-2.781-3.126
			c-0.851-0.914-1.604-1.702-2.242-2.339c-1.279-1.272-2.063-1.962-2.063-1.963c-2.854-2.512-3.133-6.861-0.621-9.718
			c2.513-2.855,6.864-3.133,9.72-0.62c0.818,0.72,1.436,1.621,1.825,2.565c0.001-0.001,0.395,0.966,1.178,2.591
			c0.394,0.812,0.891,1.781,1.476,2.885c0.588,1.102,1.275,2.326,2.042,3.652c0.773,1.318,1.636,2.732,2.566,4.212
			c0.942,1.473,1.953,3.014,3.028,4.586c1.083,1.567,2.213,3.179,3.404,4.786c1.178,1.616,2.417,3.229,3.672,4.829
			c0.631,0.798,1.263,1.595,1.893,2.389c0.644,0.784,1.285,1.564,1.921,2.34c1.289,1.537,2.563,3.046,3.84,4.476
			c1.26,1.441,2.519,2.806,3.726,4.089c1.206,1.285,2.375,2.48,3.47,3.57c0.199,0.199,0.394,0.39,0.588,0.581
			c0.253-0.175,0.508-0.352,0.752-0.521c0.698-0.525,1.361-1.023,1.986-1.494c0.614-0.441,1.251-0.996,1.827-1.463
			c0.577-0.476,1.113-0.91,1.646-1.398c0.525-0.474,0.995-0.875,1.451-1.303c0.465-0.452,0.886-0.86,1.261-1.226
			c0.76-0.748,1.301-1.235,1.727-1.71c0.408-0.433,0.616-0.653,0.616-0.653l0.103-0.106c4.49-4.772,8.502-10.008,11.965-15.627
			c-0.182-0.217-0.367-0.43-0.532-0.658C340.596,326.047,339.989,325.199,338.848,323.865z"/>
		
			<path fill="#AB2E23" stroke="#000000" stroke-width="8" stroke-linecap="round" stroke-linejoin="round" stroke-miterlimit="10" d="
			M397.443,125.832c-0.778-0.343-1.556-0.688-2.346-1.012s-1.584-0.625-2.38-0.929c-39.683-14.841-84.256,4.416-100.47,43.891
			c-12.25,29.828-4.867,62.825,16.151,84.653c1.053,1.093,2.139,2.16,3.26,3.194c11.459,12.457,15.381,30.882,8.524,47.574
			c-6.855,16.692-22.595,27.042-39.503,27.848c-1.523-0.051-3.047-0.056-4.563-0.018c-30.292,0.753-58.737,19.034-70.988,48.862
			c-16.213,39.475,1.958,84.502,40.617,101.838c0.778,0.343,1.555,0.688,2.345,1.012c0.79,0.325,1.585,0.626,2.38,0.929
			c69.878,26.628,158.167-29.928,198.306-127.655C488.915,258.291,465.864,156.007,397.443,125.832z"/>
	</g>
</g>
</svg>
