<?xml version="1.0" encoding="utf-8"?>
<!-- Generator: Adobe Illustrator 16.0.0, SVG Export Plug-In . SVG Version: 6.00 Build 0)  -->
<!DOCTYPE svg PUBLIC "-//W3C//DTD SVG 1.1//EN" "http://www.w3.org/Graphics/SVG/1.1/DTD/svg11.dtd">
<svg version="1.1" xmlns="http://www.w3.org/2000/svg" xmlns:xlink="http://www.w3.org/1999/xlink" x="0px" y="0px"
	 width="566.93px" height="566.93px" viewBox="0 0 566.93 566.93" enable-background="new 0 0 566.93 566.93" xml:space="preserve">
<g id="fond" display="none">
	
		<rect x="-12793.873" y="-8228.754" display="inline" fill-rule="evenodd" clip-rule="evenodd" fill="#58595B" width="15942.492" height="15814.695"/>
</g>
<g id="en_cours">
</g>
<g id="fini">
	<g>
		<g>
			<g>
				<path fill="#564432" d="M325.028,494.477c-0.367,0-0.735-0.042-1.095-0.125l-36.495-8.501c0,0-0.149,0.002-0.178,0.002
					c-0.362,0-0.722-0.031-1.093-0.096l-25.791-0.796c-2.859-0.094-5.111-2.488-5.025-5.339c0.08-2.458,1.889-4.538,4.301-4.954
					l17.684-3.047c-0.121-0.226-0.578-1.078-0.578-1.078c-0.602-1.119-1.223-2.229-1.854-3.334c-1.25-2.236-2.582-4.468-3.869-6.626
					l-1.255-2.089c-0.956-1.59-1.913-3.18-2.848-4.78c-0.241-0.421-0.471-0.812-0.7-1.202c-0.449-0.765-0.896-1.529-1.317-2.306
					l-1.884-3.402c-1.297-2.399-2.523-4.802-3.668-7.177c-1.199-2.494-2.301-4.985-3.277-7.408l-0.396-1.024
					c-0.359-0.92-0.73-1.872-1.067-2.873c-0.495-1.389-0.915-2.722-1.263-4.01c-1.16-4.295,1.393-8.735,5.689-9.896
					c0.688-0.186,1.394-0.279,2.101-0.279c2.523,0,4.938,1.206,6.459,3.226c0.813,1.085,1.605,2.239,2.423,3.536
					c0.529,0.802,1.039,1.661,1.533,2.492l0.558,0.934c1.351,2.345,2.63,4.747,3.847,7.212c1.173,2.38,2.307,4.828,3.374,7.28
					l1.545,3.646c0.347,0.801,0.679,1.641,1.011,2.48c0.16,0.406,0.32,0.813,0.484,1.218c0.688,1.731,1.343,3.448,1.998,5.164
					l0.95,2.478c0.886,2.295,1.802,4.668,2.757,6.943c0.496,1.215,0.986,2.39,1.498,3.553l0.173,0.396
					c0.453,1.031,0.904,2.061,1.385,3.079c0.29,0.604,0.582,1.171,0.879,1.704l24.696-2.244c0.161-0.015,0.326-0.022,0.49-0.022
					c2.793,0,5.091,2.099,5.344,4.883c0.031,0.337,0.031,0.67-0.001,0.996l14.397,1.377c2.84,0.275,4.925,2.805,4.652,5.638
					c-0.246,2.612-2.413,4.623-5.038,4.676l-10.005,0.218l0.322,0.133c1.195,0.49,2.133,1.424,2.633,2.626s0.5,2.525,0,3.728
					C328.766,493.296,327.004,494.477,325.028,494.477z"/>
				<path d="M261.149,418.136c1.286,0,2.5,0.618,3.264,1.632c0.798,1.063,1.536,2.155,2.237,3.266
					c0.723,1.1,1.369,2.236,2.047,3.357c1.305,2.268,2.53,4.574,3.686,6.915c1.152,2.341,2.25,4.711,3.293,7.106l1.529,3.609
					c0.519,1.199,0.979,2.426,1.471,3.639c0.965,2.433,1.887,4.888,2.826,7.332c0.945,2.444,1.887,4.889,2.896,7.299
					c0.495,1.211,0.999,2.418,1.523,3.613c0.525,1.197,1.047,2.394,1.604,3.575c0.564,1.177,1.183,2.327,1.89,3.434
					c0.168,0.259,0.339,0.515,0.515,0.771l27.15-2.468c0.042-0.004,0.085-0.006,0.128-0.006c0.699,0,1.296,0.534,1.359,1.244
					c0.063,0.671-0.373,1.272-1,1.444l-7.365,2.028l26.365,2.521c0.643,0.063,1.113,0.633,1.053,1.275
					c-0.057,0.597-0.555,1.046-1.139,1.058l-29.104,0.634l17.978,7.414c0.438,0.18,0.646,0.682,0.465,1.118
					c-0.137,0.331-0.455,0.53-0.792,0.53c-0.063,0-0.128-0.008-0.192-0.022l-36.979-8.613l-0.554,0.012
					c-0.014,0-0.027,0.001-0.043,0.001c-0.217,0-0.426-0.034-0.629-0.084l-26.131-0.807c-0.656-0.021-1.169-0.568-1.15-1.221
					c0.02-0.574,0.441-1.039,0.984-1.133l22.896-3.945c-0.342-0.864-0.713-1.715-1.122-2.546c-0.587-1.167-1.21-2.315-1.826-3.466
					c-0.618-1.151-1.257-2.293-1.905-3.428c-1.275-2.283-2.618-4.531-3.961-6.781c-1.345-2.247-2.709-4.486-4.029-6.747
					c-0.65-1.135-1.334-2.254-1.957-3.4l-1.899-3.43c-1.242-2.3-2.431-4.624-3.563-6.976c-1.131-2.352-2.192-4.738-3.17-7.166
					c-0.468-1.223-0.963-2.433-1.384-3.68c-0.44-1.237-0.847-2.492-1.191-3.774c-0.587-2.171,0.7-4.407,2.872-4.994
					C260.446,418.182,260.801,418.136,261.149,418.136 M261.15,410.136L261.15,410.136L261.15,410.136
					c-1.061,0-2.117,0.141-3.143,0.417c-6.428,1.737-10.244,8.377-8.51,14.803c0.369,1.369,0.813,2.78,1.355,4.31
					c0.361,1.064,0.741,2.039,1.109,2.983c0.121,0.312,0.242,0.623,0.362,0.935c0.017,0.044,0.033,0.087,0.052,0.13
					c1.007,2.503,2.145,5.075,3.381,7.645c1.173,2.437,2.428,4.895,3.733,7.311c0.014,0.024,0.026,0.05,0.04,0.074l1.887,3.404
					c0.457,0.842,0.918,1.628,1.364,2.389c0.223,0.379,0.445,0.758,0.663,1.14c0.012,0.019,0.022,0.037,0.033,0.056
					c0.952,1.63,1.929,3.254,2.873,4.823c0.4,0.666,0.801,1.331,1.199,1.998l0.047,0.076c1.23,2.063,2.398,4.021,3.518,6.006
					l-12.14,2.092c-4.276,0.738-7.48,4.422-7.62,8.758c-0.152,5.068,3.833,9.31,8.883,9.476l25.555,0.788
					c0.395,0.058,0.785,0.091,1.179,0.102l36.05,8.396c0.666,0.154,1.337,0.231,2.007,0.231c3.603,0,6.817-2.152,8.188-5.482
					c0.553-1.328,0.766-2.749,0.641-4.154l2.801-0.062c4.643-0.093,8.486-3.661,8.928-8.3c0.48-5.019-3.217-9.505-8.243-9.994
					l-11.313-1.081c-1.299-3.651-4.76-6.193-8.82-6.193c-0.287,0-0.578,0.014-0.863,0.04l-21.965,1.996
					c-0.316-0.697-0.631-1.414-0.959-2.16l-0.176-0.401c-0.438-0.998-0.896-2.085-1.439-3.416c-0.01-0.024-0.02-0.048-0.029-0.071
					c-0.933-2.224-1.799-4.465-2.716-6.839l-0.097-0.249c-0.28-0.73-0.563-1.472-0.847-2.213c-0.647-1.695-1.317-3.449-2.006-5.186
					c-0.007-0.019-0.015-0.036-0.021-0.054c-0.159-0.395-0.315-0.79-0.472-1.187c-0.331-0.837-0.673-1.702-1.06-2.598l-1.517-3.582
					c-0.012-0.024-0.021-0.048-0.032-0.072c-1.093-2.509-2.253-5.015-3.45-7.446c-1.258-2.548-2.579-5.026-3.931-7.374
					c-0.028-0.048-0.056-0.095-0.084-0.143c-0.183-0.302-0.362-0.605-0.542-0.908c-0.506-0.851-1.027-1.729-1.627-2.646
					c-0.863-1.363-1.703-2.586-2.564-3.734C268.531,411.938,264.922,410.136,261.15,410.136L261.15,410.136L261.15,410.136z"/>
			</g>
			<g>
				<path fill="#E5E2D3" d="M272.409,452.737c-2.212-0.001-6.816-0.003-23.515-33.504c-0.607-1.219-0.553-2.662,0.144-3.832
					l8.028-13.473c-10.221-2.862-32.998-10.228-48.416-22.608c-1.229-0.987-1.766-2.604-1.367-4.131
					c0.398-1.525,1.657-2.674,3.213-2.934l132.41-22.09c0.223-0.037,0.443-0.056,0.662-0.056c1.833,0,3.473,1.265,3.896,3.107
					c0.472,2.063-0.745,4.137-2.774,4.732c-19.732,5.783-38.263,17.868-50.838,33.155c-13.033,15.844-18.941,33.973-16.636,51.045
					c0.638,4.721,0.302,7.229-1.199,8.944c-0.926,1.06-2.206,1.643-3.604,1.643H272.409z"/>
				<path d="M343.564,354.111h0.004 M343.564,354.111c-41.855,12.268-75.512,50.082-70.313,88.574
					c0.582,4.31,0.184,6.052-0.841,6.052c-4.343,0-19.937-31.288-19.937-31.288l10.753-18.046c0,0-32.577-7.548-52.073-23.202
					L343.564,354.111 M343.572,346.11c-0.209,0-0.42,0.008-0.631,0.024c-0.285,0.022-0.566,0.06-0.844,0.11l-132.26,22.065
					c-3.111,0.519-5.627,2.816-6.424,5.868c-0.797,3.051,0.271,6.286,2.731,8.261c13.763,11.05,33.062,18.212,44.851,21.863
					l-5.395,9.052c-1.393,2.339-1.502,5.227-0.287,7.663c0.163,0.327,4.047,8.106,8.543,16.025
					c8.674,15.277,12.836,19.694,18.554,19.694c2.533,0,4.945-1.098,6.618-3.011c2.883-3.299,2.736-7.771,2.15-12.111
					c-2.154-15.958,3.442-32.993,15.762-47.969c12.043-14.64,29.787-26.227,48.707-31.81c0.713-0.191,1.387-0.479,2.007-0.849
					c0.626-0.372,1.188-0.822,1.681-1.336c1.381-1.438,2.23-3.391,2.23-5.541c0-4.035-2.984-7.372-6.867-7.921
					C344.329,346.138,343.953,346.11,343.572,346.11L343.572,346.11z"/>
			</g>
		</g>
		<g>
			<path fill="#564432" d="M547.563,220.614c-0.562,0-1.133-0.119-1.674-0.369l-1.6-0.74c-0.965-0.437-2.377-1.111-4.155-1.961
				c0,0-3.607-1.761-3.643-1.779c-0.517-0.271-1.161-0.547-1.844-0.839c-0.573-0.245-1.163-0.497-1.757-0.775l-4.21-1.877
				c-0.441-0.195-0.9-0.404-1.365-0.616c-1.031-0.471-2.1-0.957-3.176-1.367l-5.296-2.164l-2.761-1.158
				c-0.498-0.197-1.08-0.41-1.666-0.625l-1.049-0.387c-1.926-0.703-3.926-1.464-5.964-2.254l-1.43-0.549l-4.644-1.57
				c-0.877-0.285-1.795-0.608-2.718-0.935c-1.242-0.439-2.415-0.854-3.612-1.214l-6.703-2.054c-1.542-0.501-3.068-0.903-4.682-1.33
				c-0.68-0.179-1.36-0.358-2.039-0.545l-3.429-0.922c-1.101-0.319-2.16-0.594-3.319-0.86l-6.983-1.685
				c-1.406-0.333-2.891-0.634-4.325-0.926c-0.838-0.17-1.673-0.34-2.504-0.517l-3.377-0.73c0,0-4.99-0.934-5.813-1.089
				c-1.396-0.264-2.779-0.525-4.152-0.757c-1.41-0.21-2.875-0.44-4.32-0.668c-2.873-0.453-5.587-0.88-8.223-1.205
				c-3.344-0.488-6.457-0.807-9.468-1.115l-1.891-0.195c-1.045-0.125-2.058-0.194-3.036-0.262c-0.679-0.046-1.345-0.092-1.997-0.151
				c-1.595-0.125-3.162-0.286-4.614-0.437c-2.377-0.199-4.777-0.472-7.485-0.851c-1.8-0.202-3.522-0.451-5.12-0.741
				c-1.28-0.227-1.973-0.397-1.973-0.397c-2.095-0.508-3.873-1.806-5-3.653c-1.126-1.848-1.465-4.022-0.954-6.126
				c0.729-3.016,3.169-5.38,6.216-6.02c0,0,0.698-0.148,2.001-0.334c1.604-0.235,3.354-0.428,5.184-0.569
				c1.54-0.103,3.366-0.151,5.627-0.151c0.838,0,1.71,0.007,2.614,0.018c2.994,0.106,6.383,0.365,10.459,0.795l1.852,0.212
				c3.252,0.371,6.615,0.755,10.205,1.322c0.587,0.09,1.204,0.178,1.825,0.267c1.529,0.219,3.111,0.445,4.737,0.755l6.672,1.243
				c1.548,0.31,3.054,0.641,4.571,0.975c0.8,0.177,1.604,0.354,2.411,0.526c0,0,3.606,0.794,3.649,0.805l3.509,0.896
				c0.859,0.233,1.67,0.444,2.481,0.657c1.54,0.402,3.132,0.818,4.722,1.286l7.08,2.125c1.789,0.501,3.58,1.13,5.313,1.738
				c0.607,0.214,1.215,0.427,1.823,0.635c0.697,0.248,1.347,0.473,1.997,0.697c1.667,0.577,3.391,1.174,5.096,1.871l6.637,2.59
				c0.924,0.344,1.844,0.746,2.735,1.134l3.864,1.695c4.674,2.015,8.971,4.184,12.189,5.847l0.967,0.495
				c0.631,0.32,1.256,0.639,1.867,0.97l2.702,1.528c1.142,0.643,2.259,1.295,3.346,1.931l1.645,0.958
				c1.689,0.95,3.254,1.967,4.687,2.922l3.951,2.614c2.236,1.429,4.174,2.905,5.731,4.092l0.915,0.696
				c1.649,1.268,2.946,2.265,3.824,2.971l1.352,1.07c1.587,1.258,1.982,3.504,0.922,5.229
				C550.224,219.927,548.915,220.614,547.563,220.614z"/>
			<path d="M412.623,169.145c0.822,0,1.678,0.007,2.565,0.018c3.021,0.108,6.404,0.385,10.088,0.772
				c3.677,0.427,7.666,0.847,11.851,1.508c2.095,0.318,4.254,0.584,6.439,1c2.186,0.407,4.419,0.823,6.688,1.246
				c2.263,0.453,4.553,0.981,6.875,1.479c1.16,0.255,2.326,0.512,3.499,0.77c1.164,0.297,2.333,0.596,3.506,0.896
				c2.341,0.634,4.714,1.212,7.064,1.904c2.349,0.704,4.703,1.412,7.062,2.119c2.366,0.664,4.673,1.535,6.991,2.327
				c2.309,0.821,4.628,1.567,6.873,2.485c2.252,0.88,4.487,1.752,6.696,2.614c1.109,0.413,2.184,0.9,3.258,1.364
				c1.07,0.471,2.133,0.938,3.187,1.401c4.228,1.821,8.217,3.802,11.962,5.737c0.936,0.484,1.867,0.941,2.768,1.429
				c0.89,0.504,1.77,1.001,2.633,1.49c1.728,0.973,3.374,1.954,4.961,2.872c1.599,0.899,3.077,1.859,4.472,2.788
				c1.395,0.923,2.718,1.799,3.959,2.621c2.508,1.602,4.558,3.214,6.261,4.503c1.695,1.303,3.022,2.322,3.914,3.038
				c0.895,0.708,1.371,1.086,1.371,1.086s-0.555-0.256-1.594-0.737c-1.043-0.473-2.554-1.196-4.467-2.111
				c-0.952-0.465-2.003-0.979-3.15-1.54c-1.125-0.592-2.434-1.072-3.765-1.696c-1.343-0.599-2.771-1.236-4.278-1.908
				c-1.506-0.665-3.055-1.424-4.746-2.068c-1.67-0.683-3.408-1.393-5.207-2.128c-0.894-0.375-1.803-0.756-2.726-1.144
				c-0.93-0.37-1.892-0.707-2.856-1.069c-1.938-0.707-3.912-1.458-5.925-2.238c-0.503-0.193-1.01-0.388-1.518-0.583
				c-0.52-0.175-1.038-0.351-1.561-0.527c-1.044-0.353-2.098-0.709-3.16-1.068c-2.134-0.694-4.251-1.526-6.463-2.19
				c-2.203-0.675-4.434-1.358-6.682-2.047c-2.232-0.727-4.542-1.28-6.834-1.908c-1.146-0.309-2.296-0.617-3.446-0.927
				c-1.143-0.333-2.299-0.629-3.461-0.896c-2.318-0.559-4.635-1.118-6.944-1.675c-2.309-0.546-4.638-0.977-6.93-1.466
				c-1.145-0.247-2.287-0.494-3.421-0.739c-1.143-0.215-2.277-0.429-3.407-0.641c-2.26-0.412-4.485-0.857-6.685-1.229
				c-4.414-0.66-8.662-1.398-12.719-1.898c-4.045-0.592-7.888-0.948-11.431-1.319c-1.771-0.212-3.475-0.271-5.09-0.418
				c-1.612-0.127-3.151-0.286-4.578-0.434c-2.848-0.239-5.307-0.548-7.382-0.839c-2.115-0.236-3.775-0.503-4.907-0.708
				c-1.133-0.2-1.735-0.348-1.735-0.348c-2.2-0.533-3.552-2.749-3.018-4.95c0.384-1.587,1.651-2.733,3.15-3.048
				c0,0,0.607-0.127,1.745-0.289c1.137-0.167,2.805-0.377,4.926-0.541C408.832,169.183,410.625,169.145,412.623,169.145
				 M412.623,161.145c-2.383,0-4.242,0.051-5.851,0.157c-0.028,0.002-0.058,0.004-0.087,0.006c-1.92,0.149-3.76,0.352-5.471,0.603
				c-1.293,0.184-2.076,0.344-2.22,0.373c-4.556,0.956-8.198,4.488-9.29,8.998c-0.76,3.136-0.254,6.386,1.43,9.146
				c1.682,2.759,4.339,4.698,7.48,5.46c0.127,0.031,0.906,0.217,2.226,0.45c1.638,0.297,3.432,0.557,5.302,0.769
				c2.732,0.381,5.164,0.657,7.634,0.866c1.413,0.146,2.993,0.309,4.653,0.439c0.666,0.06,1.344,0.106,2.035,0.154
				c0.973,0.066,1.891,0.129,2.775,0.235c0.039,0.005,0.078,0.009,0.117,0.013l1.899,0.196c2.969,0.305,6.038,0.619,9.207,1.083
				c0.06,0.009,0.12,0.017,0.18,0.023c2.569,0.317,5.251,0.739,8.09,1.187c1.431,0.225,2.88,0.453,4.348,0.673
				c1.299,0.221,2.614,0.469,4.005,0.731c0.832,0.156,1.666,0.313,2.504,0.467l2.188,0.411l1.07,0.201l1.186,0.257l2.133,0.461
				c0.861,0.184,1.709,0.356,2.561,0.529c1.469,0.298,2.855,0.58,4.217,0.901l2.828,0.683l4.082,0.984
				c0.026,0.007,0.053,0.013,0.079,0.019c1.083,0.25,2.069,0.505,3.018,0.781c0.052,0.016,0.106,0.03,0.159,0.045l1.951,0.524
				l1.498,0.402c0.653,0.179,1.346,0.362,2.037,0.545c1.559,0.411,3.031,0.8,4.398,1.245c0.044,0.015,0.088,0.028,0.133,0.042
				l3.691,1.131l2.99,0.916c1.148,0.345,2.277,0.744,3.474,1.167c0.905,0.319,1.841,0.65,2.81,0.966l3.122,1.056l1.403,0.475
				l0.291,0.112l1.072,0.411c2.299,0.892,4.219,1.617,6.02,2.274c0.348,0.13,0.695,0.258,1.043,0.385
				c0.527,0.194,1.053,0.386,1.566,0.589l1.805,0.757l0.849,0.356c0.022,0.01,0.046,0.019,0.068,0.028l2.765,1.13l2.443,0.998
				c0.059,0.024,0.118,0.048,0.178,0.07c0.958,0.365,1.92,0.804,2.939,1.269c0.48,0.22,0.954,0.435,1.424,0.643l2.088,0.932
				l2.1,0.937c0.65,0.302,1.264,0.564,1.809,0.798c0.607,0.259,1.18,0.503,1.554,0.7c0.069,0.037,0.14,0.072,0.211,0.106
				l3.151,1.541c0.021,0.01,0.041,0.021,0.063,0.03l0.369,0.176c1.769,0.847,3.17,1.516,4.216,1.991l1.575,0.729
				c1.08,0.498,2.221,0.736,3.346,0.736c2.704,0,5.32-1.374,6.819-3.81c2.122-3.451,1.33-7.942-1.843-10.459l-1.352-1.069
				c-0.929-0.747-2.23-1.747-3.875-3.011l-0.156-0.12c-0.016-0.012-0.029-0.023-0.046-0.035l-0.724-0.55
				c-1.604-1.222-3.596-2.739-6.001-4.28l-0.503-0.333l-3.405-2.254c-1.468-0.977-3.095-2.034-4.921-3.064
				c-0.523-0.303-1.053-0.612-1.592-0.927c-1.104-0.646-2.239-1.309-3.41-1.968l-2.122-1.202l-0.497-0.28
				c-0.043-0.024-0.086-0.049-0.131-0.072c-0.641-0.348-1.296-0.682-1.958-1.018c-0.312-0.158-0.626-0.317-0.938-0.48
				c-3.276-1.693-7.646-3.898-12.447-5.969l-2.369-1.041l-0.79-0.348c-0.017-0.007-0.032-0.015-0.05-0.021l-0.641-0.278
				c-0.879-0.384-1.873-0.817-2.934-1.215l-2.327-0.908l-4.258-1.662c-1.786-0.728-3.542-1.336-5.241-1.924
				c-0.638-0.221-1.276-0.441-1.914-0.669c-0.033-0.011-0.064-0.022-0.096-0.033c-0.598-0.204-1.194-0.414-1.791-0.623
				c-1.771-0.622-3.6-1.265-5.555-1.816l-3.479-1.044l-3.518-1.056c-1.688-0.496-3.31-0.921-4.879-1.33
				c-0.801-0.209-1.598-0.418-2.393-0.633c-0.037-0.01-0.074-0.02-0.111-0.029l-0.443-0.113l-3.064-0.783
				c-0.086-0.021-0.174-0.042-0.262-0.062l-1.531-0.337l-1.969-0.433c-0.838-0.18-1.633-0.355-2.425-0.529
				c-1.499-0.33-3.05-0.672-4.596-0.981c-0.035-0.007-0.069-0.014-0.104-0.02l-2.739-0.511l-3.95-0.735
				c-1.684-0.321-3.313-0.555-4.887-0.779c-0.609-0.088-1.215-0.175-1.815-0.266c-3.628-0.573-7.187-0.979-10.327-1.338
				l-1.803-0.207c-0.029-0.004-0.057-0.007-0.086-0.01c-4.166-0.438-7.646-0.704-10.638-0.812c-0.063-0.002-0.126-0.004-0.19-0.004
				C414.365,161.151,413.476,161.145,412.623,161.145L412.623,161.145z"/>
		</g>
		<g>
			<path fill="#564432" d="M391.32,519.235c-0.334,0-0.67-0.035-0.997-0.104l-45.074-9.454c-0.056,0.002-0.109,0.002-0.163,0.002
				c-0.157,0-0.313-0.006-0.467-0.017c0,0-32.49,0.778-32.522,0.778c-2.79,0-5.114-2.27-5.181-5.059
				c-0.06-2.551,1.715-4.743,4.217-5.216l23.581-4.517c-0.504-0.9-1.024-1.805-1.546-2.709l-0.276-0.482
				c-0.781-1.354-1.581-2.701-2.393-4.042c-1.594-2.686-3.276-5.37-4.903-7.968l-1.527-2.425c-1.229-1.951-2.458-3.902-3.666-5.864
				c-0.292-0.481-0.576-0.942-0.861-1.402c-0.568-0.92-1.137-1.841-1.68-2.774l-2.419-4.101c-1.654-2.86-3.238-5.72-4.724-8.528
				c-1.579-2.996-3.039-5.944-4.342-8.767l-0.577-1.29c-0.476-1.057-0.966-2.148-1.423-3.279c-0.686-1.621-1.284-3.17-1.809-4.679
				c-1.454-4.195,0.773-8.79,4.965-10.245c0.852-0.295,1.736-0.444,2.635-0.444c2.512,0,4.916,1.196,6.429,3.2
				c0.966,1.282,1.917,2.642,2.916,4.162c0.651,0.961,1.285,1.979,1.897,2.962l0.715,1.143c1.671,2.738,3.26,5.514,4.893,8.538
				c1.507,2.803,3,5.711,4.438,8.648l2.084,4.347c0.462,0.948,0.909,1.933,1.356,2.918c0.225,0.492,0.448,0.985,0.676,1.476
				c0.966,2.116,1.9,4.223,2.835,6.33l1.142,2.571c1.259,2.813,2.56,5.724,3.895,8.529c0.676,1.45,1.35,2.867,2.039,4.272
				l0.246,0.497c0.609,1.238,1.218,2.476,1.855,3.699c0.602,1.141,1.194,2.173,1.794,3.123l30.883-4.463
				c0.257-0.037,0.516-0.056,0.771-0.056c2.65,0,4.933,1.979,5.31,4.604c0.121,0.832,0.038,1.658-0.212,2.421l18.938,0.909
				c1.381,0.066,2.65,0.665,3.578,1.686c0.93,1.022,1.404,2.346,1.338,3.726c-0.129,2.664-2.236,4.776-4.902,4.913l-18.148,0.871
				l6.008,2.123c2.524,0.897,3.85,3.675,2.959,6.195C395.216,517.934,393.375,519.235,391.32,519.235L391.32,519.235z"/>
			<path d="M310.168,430.65c1.266,0,2.473,0.6,3.237,1.611c0.972,1.289,1.885,2.607,2.763,3.945
				c0.898,1.327,1.722,2.694,2.575,4.046c1.662,2.726,3.239,5.497,4.754,8.302c1.51,2.808,2.964,5.645,4.367,8.509l2.068,4.315
				c0.698,1.434,1.339,2.898,2.01,4.347c1.326,2.905,2.61,5.833,3.911,8.752c1.304,2.917,2.606,5.834,3.978,8.716
				c0.674,1.446,1.359,2.888,2.063,4.318c0.704,1.431,1.405,2.863,2.141,4.277c0.744,1.409,1.54,2.791,2.423,4.127
				c0.333,0.493,0.674,0.982,1.023,1.466l33.354-4.819c0.064-0.01,0.131-0.015,0.197-0.015c0.668,0,1.252,0.491,1.35,1.173
				c0.1,0.681-0.321,1.316-0.963,1.506l-11.932,3.552l35.391,1.699c0.643,0.031,1.141,0.578,1.109,1.223
				c-0.027,0.605-0.519,1.081-1.109,1.111l-38.49,1.849l25.22,8.912c0.445,0.158,0.679,0.646,0.521,1.092
				c-0.124,0.352-0.454,0.571-0.808,0.571c-0.058,0-0.116-0.006-0.175-0.019l-45.571-9.558l-0.384,0.019
				c-0.034,0.002-0.069,0.002-0.104,0.002c-0.113,0-0.227-0.008-0.337-0.021l-32.622,0.782c-0.012,0-0.02,0-0.029,0
				c-0.641,0-1.167-0.511-1.183-1.154c-0.014-0.586,0.402-1.084,0.962-1.189l28.761-5.509c-0.58-1.353-1.225-2.673-1.921-3.964
				c-0.764-1.398-1.564-2.778-2.358-4.16c-0.797-1.382-1.611-2.754-2.438-4.119c-1.628-2.744-3.326-5.451-5.022-8.159
				c-1.699-2.706-3.416-5.403-5.089-8.123c-0.829-1.364-1.688-2.712-2.491-4.091l-2.431-4.122c-1.597-2.761-3.143-5.549-4.633-8.366
				c-1.486-2.82-2.908-5.675-4.246-8.573c-0.646-1.461-1.324-2.906-1.925-4.392c-0.622-1.475-1.207-2.969-1.737-4.492
				c-0.732-2.113,0.384-4.42,2.498-5.153C309.283,430.723,309.729,430.65,310.168,430.65 M310.168,422.65L310.168,422.65
				c-1.344,0-2.671,0.224-3.943,0.665c-6.277,2.179-9.611,9.056-7.438,15.332c0.549,1.58,1.172,3.19,1.902,4.928
				c0.48,1.181,0.979,2.29,1.461,3.363c0.184,0.403,0.363,0.806,0.543,1.21c0.017,0.039,0.034,0.077,0.052,0.115
				c1.333,2.887,2.823,5.898,4.433,8.95c1.515,2.864,3.123,5.768,4.785,8.642c0.012,0.021,0.023,0.04,0.034,0.06l2.418,4.099
				c0.575,0.988,1.159,1.934,1.724,2.847c0.279,0.452,0.559,0.904,0.834,1.358c1.246,2.025,2.502,4.017,3.715,5.941l1.436,2.28
				l0.082,0.132c1.615,2.577,3.284,5.242,4.836,7.857c0.012,0.02,0.023,0.038,0.035,0.058c0.482,0.797,0.937,1.557,1.37,2.291
				l-18.075,3.462c-4.416,0.834-7.559,4.719-7.453,9.233c0.117,4.947,4.236,8.968,9.18,8.968c0.064,0,0.158-0.001,0.223-0.002
				l32.227-0.773c0.094,0.005,0.188,0.009,0.282,0.011l44.675,9.37c0.596,0.125,1.207,0.188,1.816,0.188
				c3.746,0,7.103-2.374,8.351-5.906c0.745-2.111,0.64-4.321-0.14-6.252l5.729-0.274c4.752-0.243,8.49-3.99,8.719-8.716
				c0.118-2.448-0.725-4.797-2.375-6.61c-1.645-1.81-3.897-2.871-6.34-2.989l-15.119-0.727c-0.984-4.161-4.766-7.213-9.113-7.213
				c-0.447,0-0.9,0.033-1.344,0.097l-28.22,4.078c-0.116-0.211-0.231-0.426-0.347-0.646c-0.605-1.163-1.188-2.345-1.803-3.596
				l-0.25-0.506c-0.625-1.273-1.275-2.637-1.986-4.16c-0.008-0.02-0.018-0.039-0.027-0.058c-1.314-2.763-2.604-5.65-3.852-8.442
				l-0.046-0.102l-1.091-2.455c-0.923-2.08-1.877-4.231-2.846-6.354c-0.242-0.522-0.462-1.006-0.682-1.489
				c-0.443-0.977-0.902-1.987-1.402-3.015l-2.059-4.294c-0.01-0.021-0.02-0.041-0.029-0.062c-1.461-2.982-2.978-5.936-4.506-8.778
				c-1.672-3.098-3.295-5.933-4.97-8.678c-0.021-0.036-0.044-0.071-0.065-0.106c-0.236-0.373-0.469-0.748-0.703-1.122
				c-0.623-1-1.266-2.032-1.979-3.089c-1.034-1.574-2.025-2.987-3.029-4.321C317.522,424.44,313.926,422.65,310.168,422.65
				L310.168,422.65z"/>
		</g>
		<path fill="none" d="M412.022,284.617c-0.671,12.424-2.842,25.716-7.788,37.484C411.212,310.009,413.496,296.787,412.022,284.617z
			"/>
		<path fill="none" d="M157.101,392.4c10.371-2.543,21.059-4.676,31.916-6.533c-5.615,0.521-10.507,1.189-14.152,1.777
			C171.766,388.145,165.45,389.924,157.101,392.4z"/>
		<g>
			<path fill="#CCAC6C" d="M127.615,405.203c-1.686,0-3.248-1.074-3.799-2.755c-0.673-2.053,0.405-4.27,2.436-5.006
				c9.145-3.318,18.924-6.238,29.896-8.927c0.319-0.078,0.64-0.116,0.955-0.116c1.766,0,3.377,1.177,3.858,2.956
				c0.567,2.097-0.642,4.263-2.724,4.88c-3.236,0.96-6.779,2.024-10.562,3.161c-5.83,1.753-12.226,3.675-18.933,5.644
				C128.367,405.15,127.989,405.203,127.615,405.203z"/>
			<path d="M157.101,392.4h0.005 M157.101,392.4c-8.226,2.439-18.428,5.557-29.483,8.802
				C137.04,397.783,146.918,394.896,157.101,392.4 M157.106,384.398c-0.313,0-0.631,0.019-0.948,0.057
				c-0.388,0.046-0.768,0.119-1.137,0.218c-11.043,2.712-20.902,5.659-30.133,9.009c-4.063,1.474-6.219,5.906-4.873,10.013
				c1.102,3.361,4.227,5.51,7.599,5.51c0.747,0,1.505-0.105,2.255-0.326c6.726-1.974,13.225-3.927,18.959-5.65
				c3.709-1.115,7.188-2.161,10.373-3.106c0.664-0.18,1.293-0.443,1.876-0.777c0.726-0.414,1.37-0.935,1.919-1.535
				c1.309-1.424,2.107-3.322,2.107-5.408c0-4.001-2.936-7.316-6.771-7.906C157.93,384.431,157.52,384.398,157.106,384.398
				L157.106,384.398z"/>
		</g>
		<g>
			<path fill="#E5E2D3" d="M321.301,460.016c-1.823,0-6.669,0-27.582-29.59c-0.786-1.111-0.953-2.547-0.441-3.809l5.882-14.538
				c-10.537-1.272-34.169-5.083-51.295-14.971c-9.326-5.384-23.028-8.114-40.724-8.114c-5.647,0-11.621,0.288-17.756,0.856
				c-0.125,0.011-0.25,0.017-0.372,0.017c-1.985,0-3.698-1.472-3.962-3.479c-0.28-2.131,1.173-4.102,3.292-4.464
				c20.546-3.514,41.772-6.063,62.301-8.526c48.771-5.855,94.836-11.386,124.72-28.653c11.139-6.437,19.686-14.728,25.406-24.643
				c0.737-1.277,2.08-2.002,3.467-2.002c0.6,0,1.206,0.135,1.775,0.418c1.893,0.938,2.729,3.186,1.91,5.133
				c-6.283,14.952-15.994,25.589-28.861,31.615c-18.621,8.722-35.094,23.488-45.193,40.513
				c-10.469,17.645-13.546,36.461-8.668,52.982c1.181,3.994,1.626,7.11-0.036,9.334
				C324.252,459.315,322.844,460.016,321.301,460.016z"/>
			<path d="M404.234,322.102h0.005 M404.234,322.102c-5.278,12.56-13.717,23.382-26.87,29.543c-39.5,18.5-67,61-56,98.25
				c1.292,4.373,1.089,6.121-0.063,6.121c-4.598,0-24.315-27.898-24.315-27.898l7.879-19.473c0,0-33.347-2.498-55-15
				c-11.579-6.685-27.78-8.65-42.724-8.65c-6.43,0-12.629,0.364-18.124,0.873c69.067-11.811,144.886-12.546,188.348-37.658
				C389.769,341.041,398.556,331.945,404.234,322.102 M404.24,314.101c-0.286,0-0.57,0.015-0.854,0.045
				c-1.213,0.128-2.344,0.526-3.334,1.135c-0.875,0.535-1.655,1.245-2.285,2.11c-0.195,0.268-0.373,0.547-0.535,0.837
				c-5.363,9.245-13.395,17.001-23.871,23.055c-29.174,16.856-74.844,22.34-123.195,28.145c-20.576,2.47-41.854,5.024-62.498,8.555
				c-4.236,0.725-7.144,4.668-6.582,8.93c0.527,4.012,3.951,6.956,7.922,6.956c0.247,0,0.496-0.011,0.746-0.034
				c6.012-0.557,11.861-0.839,17.387-0.839c16.746,0,30.137,2.621,38.724,7.578c15.286,8.825,35.45,12.965,47.657,14.777
				l-3.953,9.767c-1.021,2.524-0.688,5.395,0.883,7.618c0.207,0.292,5.117,7.229,10.688,14.288
				c11.404,14.45,15.588,16.993,20.162,16.993c2.816,0,5.393-1.285,7.066-3.525c2.814-3.766,1.984-8.407,0.67-12.861
				c-4.561-15.443-1.623-33.132,8.27-49.809c9.701-16.352,25.538-30.541,43.451-38.931c13.723-6.428,24.068-17.681,30.751-33.449
				c0.468-1.017,0.728-2.147,0.728-3.339c0-4.039-2.99-7.38-6.881-7.923C404.984,314.126,404.611,314.101,404.24,314.101
				L404.24,314.101z"/>
		</g>
		<g>
			<path fill="#CCAC6C" d="M42.509,423.344c-3.433,0-6.445-0.263-8.955-0.782c-0.956-0.198-1.853-0.407-2.698-0.624
				c-2.109-0.541-3.398-2.67-2.9-4.79c0.432-1.839,2.072-3.086,3.89-3.086c0.277,0,0.558,0.029,0.84,0.09
				c1.407,0.301,3.146,0.453,5.169,0.453c12.636-0.001,33.881-5.746,56.373-11.827c5.941-1.606,12.084-3.268,18.134-4.839
				c10.373-2.692,15.313-4.76,17.635-6.026c-1.348-0.811-2.137-2.367-1.909-3.985c0.276-1.976,1.952-3.449,3.945-3.449h6.587
				c-2.53-2.826-4.14-5.929-4.907-8.64c-0.646-2.285-0.793-4.499-0.469-6.481l-0.304-0.091c-1.487-0.444-2.582-1.708-2.812-3.242
				s0.449-3.063,1.74-3.922c26.921-17.897,88.692-61.809,94.168-67.285c7.078-7.077,51.762-43.639,71.271-54.901
				c4.484-2.59,9.276-4.859,13.91-7.055c16.93-8.021,27.169-13.561,24.49-25.864c-0.61-2.8-1.726-5.19-2.907-7.722
				c-2.47-5.293-5.259-11.271-3.538-21.42c-2.484-7.762-10.396-11.028-26.112-16.898c-13.884-5.186-31.163-11.64-50.971-25.43
				c-8.481-5.905-10.979-9.063-9.895-12.514c0.251-0.801,1.378-3.411,5.33-3.411c4.33,0,11.852,3.154,14.884,4.511
				c4.496,2.011,10.174,4.077,15.479,5.866c-0.208-1.081,0.004-1.853,0.144-2.363c0.791-2.87,3.478-4.325,7.986-4.325
				c4.814,0,12.857,1.466,24.589,4.48c6.543,1.682,14.099,3.067,20.222,4.059c-2.178-3.421-1.531-5.31-1.24-6.155
				c0.495-1.443,2.023-3.864,6.709-3.864c3.934,0,10.575,1.655,20.301,5.06c2.49,0.871,6.51,2.84,10.327,4.825
				c0.081-0.279,0.184-0.554,0.308-0.823c0.458-0.998,1.949-3.318,5.891-3.318c7.614,0,24.199,9.353,36.771,17.198
				c9.711,6.061,16.979,18.672,18.517,32.128c1.337,11.714-1.872,22.409-8.807,29.344c-10.808,10.808-9.867,16.161-7.077,32.051
				c0.533,3.028,1.137,6.46,1.705,10.282c1.001,6.721,2.553,20.371,1.696,36.276c-0.004,0.075-0.01,0.15-0.019,0.225
				c-0.118,1.073-2.964,26.432-8.076,38.595c-0.064,0.154-0.14,0.304-0.223,0.449c-6.431,11.146-15.965,20.424-28.334,27.571
				c-31.304,18.089-78.16,23.714-127.769,29.669c-20.431,2.453-41.557,4.989-61.906,8.469c-0.101,0.018-0.202,0.031-0.306,0.041
				c-5.974,0.554-10.847,1.253-13.883,1.743c-3.121,0.503-10.478,2.629-17.264,4.642c-0.062,0.019-0.123,0.035-0.186,0.05
				c-10.69,2.62-20.201,5.458-29.071,8.677c-0.079,0.029-0.158,0.055-0.238,0.078c-29.042,8.522-65.091,18.304-86.232,18.304H42.509
				z"/>
			<path d="M247.613,123.602c2.449,0,7.536,1.606,13.251,4.162c12.138,5.429,32.25,11.131,32.25,11.131s-19.485-11.604-7.009-11.604
				c4.004,0,11.302,1.195,23.593,4.354c14.11,3.626,32.492,5.859,32.492,5.859s-15.042-11.695-5.806-11.694
				c3.098,0.001,8.932,1.317,18.98,4.835c5.506,1.927,19.749,10,19.749,10c-5.007-5.827-5.657-9.092-1.903-9.092
				c4.68,0,16.202,5.077,34.653,16.592c16.52,10.31,23.625,40.625,9,55.25s-10,22.25-6.5,45.75
				c1.242,8.341,2.419,21.343,1.658,35.473c0,0-2.842,25.716-7.788,37.484c-5.679,9.844-14.466,18.939-26.87,26.107
				c-43.462,25.112-119.28,25.848-188.348,37.658c-5.615,0.521-10.507,1.189-14.152,1.777c-3.099,0.5-9.414,2.279-17.764,4.756
				c-10.183,2.495-20.061,5.383-29.483,8.802c-29.4,8.627-64.822,18.142-85.108,18.142c-3.091,0-5.831-0.221-8.145-0.699
				c-0.892-0.185-1.727-0.38-2.516-0.582c1.733,0.37,3.744,0.542,6.005,0.542c16.637,0,46.594-9.287,75.512-16.794
				c34.666-9,18.666-13.333,18.666-13.333h21c-14-3.333-18.833-17.167-14.333-21.667l-4.614-1.378
				c26.403-17.555,88.989-61.997,94.78-67.788c6.75-6.75,51.328-43.23,70.441-54.266c19.112-11.035,44.827-16.484,40.309-37.234
				c-2.101-9.641-9-14.25-6.25-28.5c-5.25-20-37.084-16.287-78.901-45.401C245.59,126.065,244.579,123.601,247.613,123.602
				 M247.614,115.602L247.614,115.602c-5.307-0.001-8.205,3.209-9.147,6.213c-1.146,3.648,0.09,7.294,3.671,10.834
				c1.751,1.731,4.288,3.747,7.754,6.16c20.222,14.079,38.507,20.908,51.857,25.895c13.804,5.156,21.048,8.081,23.397,13.569
				c-1.554,10.732,1.524,17.329,4.027,22.693c1.132,2.424,2.109,4.518,2.623,6.881c1.947,8.935-4.932,13.174-22.293,21.398
				c-4.707,2.229-9.572,4.535-14.198,7.206c-19.739,11.396-64.94,48.378-72.099,55.536c-4.893,4.882-65.223,47.947-93.553,66.783
				c-2.584,1.718-3.941,4.775-3.483,7.844c0.304,2.029,1.364,3.821,2.907,5.06c0.02,1.698,0.278,3.465,0.784,5.253
				c0.331,1.169,0.776,2.376,1.343,3.593c-3.712,0.376-6.831,3.249-7.262,7.012c-0.104,0.909-0.059,1.801,0.12,2.648
				c-2.677,1.018-6.702,2.328-12.708,3.888c-6.072,1.576-12.227,3.24-18.18,4.85c-22.226,6.011-43.219,11.688-55.322,11.688
				c-1.742,0-3.201-0.123-4.332-0.365c-0.563-0.12-1.126-0.179-1.68-0.179c-3.637,0-6.917,2.493-7.781,6.173
				c-0.996,4.24,1.584,8.498,5.803,9.579c0.945,0.242,1.914,0.466,2.879,0.666c2.816,0.582,6.01,0.865,9.767,0.865
				c21.653,0,58.062-9.868,87.36-18.465c0.16-0.048,0.32-0.1,0.477-0.156c8.734-3.17,18.109-5.967,28.659-8.553
				c0.124-0.03,0.247-0.063,0.37-0.1c6.275-1.861,13.851-4.058,16.764-4.528c2.975-0.479,7.753-1.165,13.616-1.709
				c0.204-0.019,0.407-0.046,0.61-0.08c20.25-3.463,41.326-5.993,61.709-8.44c50.025-6.006,97.277-11.679,129.293-30.177
				c12.984-7.504,23.011-17.273,29.797-29.036c0.167-0.29,0.316-0.59,0.445-0.898c5.334-12.691,8.244-38.608,8.365-39.705
				c0.016-0.149,0.027-0.299,0.036-0.449c0.876-16.256-0.71-30.21-1.733-37.081c-0.578-3.873-1.186-7.332-1.721-10.385
				c-2.725-15.509-3.371-19.193,5.965-28.529c7.801-7.802,11.429-19.694,9.951-32.627c-1.695-14.846-9.502-28.282-20.373-35.067
				c-28.529-17.805-36.326-17.805-38.889-17.805c-3.068,0-5.746,1.055-7.627,2.923c-2.873-1.43-5.621-2.698-7.576-3.382
				c-13.529-4.735-18.819-5.283-21.623-5.284c-7.646-0.001-9.964,5.024-10.492,6.565c-0.286,0.833-0.445,1.651-0.499,2.449
				c-4.532-0.823-9.351-1.81-13.704-2.928c-12.061-3.1-20.429-4.606-25.584-4.606c-6.813,0-9.807,2.88-11.123,5.423
				c-3.848-1.365-7.662-2.825-10.852-4.252C259.174,118.244,252.285,115.602,247.614,115.602L247.614,115.602z"/>
		</g>
		<g>
			<path fill="#2268A8" d="M391.364,181.645c-5.515,0-10-4.486-10-10s4.485-10,10-10c5.514,0,10,4.486,10,10
				S396.878,181.645,391.364,181.645z"/>
			<path d="M391.364,165.645c3.313,0,6,2.687,6,6s-2.687,6-6,6s-6-2.687-6-6S388.051,165.645,391.364,165.645 M391.364,157.645
				c-7.72,0-14,6.28-14,14s6.28,14,14,14s14-6.28,14-14S399.084,157.645,391.364,157.645L391.364,157.645z"/>
		</g>
		<g>
			<path d="M37.854,422.604c-2.621,0-4.858-0.206-6.841-0.631c-0.054-0.011-0.106-0.023-0.159-0.037
				c-14.71-3.777-15.484-10.889-15.489-12.275c-0.007-1.757,1.133-3.313,2.811-3.836c0.847-0.264,84.839-26.474,104.189-37.645
				c1.813-1.047,5.011-3.092,9.505-6.079c0.662-0.441,1.434-0.669,2.215-0.669c0.383,0,0.768,0.055,1.144,0.167l4.615,1.378
				c1.35,0.403,2.388,1.486,2.733,2.853s-0.054,2.813-1.05,3.809c-0.378,0.379-0.745,1.805-0.117,4.021
				c1.111,3.927,5.065,9.146,12.55,10.927c1.974,0.47,3.282,2.343,3.046,4.358c-0.236,2.015-1.944,3.533-3.974,3.533h-13.384
				c-0.631,4.187-5.727,8.129-25.278,13.205c-6.012,1.561-12.137,3.217-18.062,4.819C73.293,416.725,51.551,422.604,37.854,422.604
				C37.854,422.604,37.854,422.604,37.854,422.604z"/>
			<path d="M134.084,365.433l4.614,1.378c-4.5,4.5,0.333,18.334,14.333,21.667h-21c0,0,16,4.333-18.666,13.333
				c-28.92,7.508-58.876,16.794-75.512,16.794c-2.26,0-4.273-0.172-6.005-0.542c-12.464-3.2-12.484-8.418-12.484-8.418
				s85.038-26.476,105-38C126.331,370.509,129.712,368.338,134.084,365.433 M134.084,357.433c-1.561,0-3.103,0.456-4.43,1.337
				c-5.511,3.664-8.094,5.256-9.291,5.947c-15.178,8.763-74.258,28.224-103.377,37.289c-3.355,1.045-5.637,4.157-5.622,7.672
				c0.011,2.674,1.378,11.738,18.495,16.134c0.105,0.026,0.211,0.052,0.316,0.074c2.262,0.483,4.771,0.719,7.678,0.719
				c14.229,0,36.219-5.946,59.498-12.242c5.916-1.599,12.031-3.253,18.023-4.809c14.273-3.705,23.765-7.274,27.057-13.076h10.6
				c4.059,0,7.473-3.037,7.946-7.067c0.474-4.029-2.146-7.775-6.093-8.715c-7.094-1.689-9.717-7.007-9.822-9.036
				c1.465-1.924,1.994-4.428,1.392-6.81c-0.69-2.731-2.767-4.898-5.468-5.705l-4.615-1.378
				C135.621,357.543,134.85,357.433,134.084,357.433L134.084,357.433z"/>
		</g>
		<g>
			<defs>
				<path id="SVGID_2_" d="M407.864,148.145c-33.249-20.75-44-20.593-32.75-7.5c0,0-14.243-8.073-19.749-10
					c-40-14-13.175,6.859-13.175,6.859s-18.382-2.233-32.492-5.859c-50.584-13-16.584,7.25-16.584,7.25s-20.112-5.702-32.25-11.131
					c-12.796-5.723-22.436-6.685-6.401,4.479c41.817,29.114,73.651,25.401,78.901,45.401c-2.75,14.25,4.149,18.859,6.25,28.5
					c4.519,20.75-21.196,26.199-40.309,37.234c-19.113,11.035-63.691,47.516-70.441,54.266c-5.791,5.791-68.377,50.233-94.78,67.788
					l4.614,1.378c-4.5,4.5,0.333,18.334,14.333,21.667h-21c0,0,16,4.333-18.666,13.333c-32.848,8.527-67.032,19.349-81.517,16.252
					c0.789,0.202,1.624,0.397,2.516,0.582c29,6,119.286-26.6,134.685-29.658c77.565-15.404,160.475-11.591,206.808-39.924
					c37.212-22.755,35.059-52.642,34.508-99.918c-0.276-23.758-8.125-31.125,6.5-45.75S424.384,158.454,407.864,148.145z"/>
			</defs>
			<clipPath id="SVGID_1_">
				<use xlink:href="#SVGID_2_"  overflow="visible"/>
			</clipPath>
			<path clip-path="url(#SVGID_1_)" d="M278.447,155.563c-16.087-9.288-12.151-27.531,14.667-16.668
				c-8.285-5.895,3.063-11.313,19.938-7.875c10.282,2.095,26.938,5.688,26.938,5.688s-1.688-10.938,15.209-8.062
				c12.262,2.087,19.916,11.999,19.916,11.999s-4.375-12.188,18.5-1.938c8.626,3.865-8.916-15.105-8.916-15.105l-102.667-10.289
				l-40.833,6l10.833,26L278.447,155.563z"/>
			<g clip-path="url(#SVGID_1_)">
				<path d="M382.031,295.478c0,0-0.13,0.015-0.383,0.042c-0.253,0.034-0.626,0.063-1.135,0.068
					c-0.997,0.005-2.488-0.115-4.314-0.584c-1.824-0.454-3.985-1.175-6.377-2.109c-2.366-0.931-5.034-1.98-7.945-3.126
					c-5.784-2.24-12.527-4.594-19.892-6.563c-0.922-0.239-1.853-0.479-2.789-0.723c-0.446-0.11-0.984-0.263-1.36-0.341l-1.463-0.347
					c-1.787-0.38-3.674-0.712-5.579-0.996c-3.818-0.521-7.733-0.813-11.679-0.83c-3.942-0.032-7.903,0.085-11.846,0.21
					c-3.94,0.127-7.865,0.294-11.703,0.537c-3.839,0.233-7.584,0.556-11.187,0.897c-3.61,0.332-7.063,0.719-10.453,0.824
					c-1.698,0.038-3.384,0.025-5.112-0.181c-1.72-0.223-3.5-0.585-5.295-1.501c-0.883-0.432-1.75-1.063-2.497-1.771
					c-0.737-0.733-1.37-1.557-1.811-2.392c-0.916-1.681-1.198-3.242-1.345-4.502c-0.148-1.282-0.115-2.328-0.069-3.212
					c0.047-0.882,0.132-1.597,0.204-2.169c0.15-1.138,0.256-1.726,0.256-1.726c0.456-2.542,2.888-4.234,5.431-3.777
					c2.544,0.456,4.235,2.889,3.779,5.432c-0.03,0.166-0.069,0.329-0.116,0.488l-0.004,0.015c0,0-0.123,0.419-0.354,1.203
					c-0.197,0.758-0.458,1.941-0.437,3.025c-0.005,0.546,0.091,1.014,0.198,1.282c0.114,0.275,0.195,0.444,0.673,0.734
					c0.933,0.61,3.444,0.99,6.258,0.858c2.85-0.09,6.122-0.488,9.605-1.066c3.489-0.574,7.211-1.316,11.119-2.018
					c3.907-0.693,8.008-1.349,12.247-1.684c4.234-0.348,8.607-0.354,12.976,0.033c4.369,0.375,8.739,1.066,12.964,2.104
					c2.112,0.517,4.178,1.134,6.258,1.837l1.414,0.51c0.581,0.199,0.983,0.37,1.483,0.557c0.949,0.362,1.883,0.747,2.812,1.127
					c3.709,1.513,7.214,3.174,10.468,4.849c3.254,1.683,6.234,3.434,8.931,5.097c2.704,1.646,5.095,3.259,7.216,4.639
					c2.127,1.364,3.964,2.548,5.551,3.367c1.583,0.817,2.899,1.338,3.838,1.572c0.464,0.114,0.832,0.205,1.086,0.24
					C381.902,295.454,382.031,295.478,382.031,295.478z"/>
			</g>
			<g clip-path="url(#SVGID_1_)">
				<path d="M374.929,316.921c0,0-0.516,0.297-1.483,0.854c-0.984,0.537-2.322,1.454-4.293,2.318
					c-0.967,0.443-2.021,1.028-3.234,1.427c-0.604,0.23-1.229,0.471-1.878,0.72c-0.325,0.126-0.656,0.254-0.994,0.384
					c-0.347,0.1-0.699,0.2-1.06,0.303c-1.438,0.396-2.967,0.908-4.638,1.154c-0.832,0.146-1.688,0.328-2.568,0.457
					c-0.89,0.084-1.799,0.171-2.729,0.259c-3.721,0.286-7.854,0.223-12.137-0.531c-4.296-0.712-8.717-2.022-13.275-3.592
					c-4.516-1.646-9.145-3.671-13.535-6.286l-1.636-1.004l-0.405-0.259l-0.102-0.065c0.471,0.381,0.104,0.09,0.195,0.167
					l-0.047-0.028l-0.192-0.113l-0.766-0.455l-1.513-0.936l-0.755-0.476c-0.23-0.137-0.409-0.196-0.615-0.299
					c-0.397-0.184-0.791-0.37-1.169-0.576c-0.387-0.201-0.729-0.417-1.198-0.596c-0.883-0.37-1.724-0.829-2.606-1.171
					c-3.506-1.428-7.158-2.419-11.065-2.993c-3.895-0.594-8.041-0.65-12.13-0.165c-1.021,0.143-2.037,0.297-3.045,0.477
					c-1.007,0.225-2.01,0.392-2.996,0.665c-0.988,0.256-1.966,0.5-2.93,0.813c-0.554,0.172-1.104,0.342-1.651,0.511
					c-0.499,0.143-0.993,0.285-1.485,0.426c-0.86,0.287-2.263,0.551-3.458,0.785c-0.628,0.14-1.186,0.178-1.757,0.242
					c-0.568,0.059-1.133,0.116-1.692,0.174c-1.126,0.02-2.231,0.092-3.317,0.062c-1.087-0.081-2.156-0.065-3.193-0.245
					c-4.157-0.543-7.917-1.758-11.018-3.47c-3.119-1.676-5.563-3.805-7.32-5.838c-1.702-2.091-2.778-3.993-3.384-5.342
					c-0.584-1.362-0.872-2.108-0.872-2.108c-1.086-2.807,0.309-5.963,3.115-7.049c2.808-1.087,5.963,0.309,7.05,3.115
					c0.053,0.139,0.101,0.277,0.143,0.417l0.165,0.56c0,0,0.109,0.375,0.275,1.114c0.195,0.729,0.629,1.76,1.435,2.995
					c0.858,1.203,2.199,2.552,4.139,3.724c1.942,1.139,4.478,2.11,7.411,2.43c0.722,0.133,1.487,0.087,2.251,0.152
					c0.769,0.011,1.555-0.044,2.352-0.09c0.396-0.06,0.794-0.119,1.196-0.18c0.396-0.062,0.826-0.101,1.162-0.206
					c0.743-0.2,1.341-0.256,2.414-0.649c0.486-0.161,0.975-0.323,1.467-0.485c0.06-0.021-0.371,0.123-0.166,0.054l0.046-0.019
					l0.096-0.037l0.188-0.073l0.379-0.146l0.761-0.295c1.026-0.391,2.066-0.786,3.118-1.186c2.12-0.792,4.335-1.566,6.638-2.313
					c4.612-1.459,9.691-2.678,15.165-2.907c0.683-0.015,1.366-0.067,2.059-0.045l2.083,0.104c1.397,0.024,2.789,0.306,4.193,0.509
					c2.788,0.514,5.554,1.356,8.18,2.506c1.329,0.534,2.549,1.289,3.811,1.945c0.614,0.314,1.25,0.783,1.873,1.204
					c0.627,0.425,1.238,0.871,1.844,1.317c0.292,0.22,0.629,0.454,0.878,0.662l0.656,0.604l1.297,1.22l0.641,0.62l0.158,0.154
					l0.04,0.039c0.121,0.1-0.217-0.169,0.283,0.233l0.07,0.073l0.283,0.292l1.115,1.193c2.951,3.202,6.045,6.282,9.428,8.797
					c3.381,2.512,7.068,4.281,10.695,5.597c3.625,1.381,7.269,2.003,10.668,2.313c0.855,0.045,1.692,0.09,2.512,0.133
					c0.818-0.005,1.618-0.063,2.403-0.089c1.579-0.004,3.047-0.283,4.449-0.46c2.782-0.451,5.199-1.103,7.088-1.825
					c1.935-0.608,3.427-1.358,4.432-1.828c1.011-0.475,1.55-0.729,1.55-0.729c0.249-0.118,0.548-0.011,0.665,0.239
					C375.245,316.511,375.15,316.792,374.929,316.921z"/>
			</g>
			<g clip-path="url(#SVGID_1_)">
				<path d="M376.698,305.145c0,0,0.156-0.019,0.449-0.054c0.295-0.035,0.719-0.098,1.281-0.118c1.12-0.069,2.732-0.068,4.672,0.203
					c3.867,0.521,9.032,2.12,13.643,5.314c2.3,1.587,4.474,3.562,6.163,5.931c0.856,1.169,1.576,2.444,2.137,3.756
					c0.585,1.299,0.937,2.667,1.191,3.956c0.104,0.648,0.179,1.285,0.232,1.893c0.02,0.607,0.044,1.194,0.031,1.742
					c-0.039,0.549-0.077,1.063-0.11,1.538c-0.059,0.47-0.138,0.896-0.203,1.288c-0.118,0.791-0.315,1.358-0.412,1.772
					c-0.113,0.406-0.173,0.623-0.173,0.623l-0.09,0.326c-0.913,3.305-4.331,5.244-7.636,4.331c-3.306-0.912-5.244-4.331-4.331-7.636
					c0.19-0.691,0.506-1.344,0.895-1.902c0,0,0.052-0.074,0.148-0.213c0.086-0.141,0.283-0.343,0.42-0.614
					c0.08-0.138,0.173-0.289,0.271-0.454c0.082-0.172,0.17-0.358,0.265-0.557c0.077-0.209,0.158-0.432,0.244-0.666
					c0.062-0.25,0.126-0.513,0.193-0.787c0.076-0.567,0.172-1.224,0.097-1.966c-0.047-0.74-0.191-1.567-0.478-2.437
					c-0.529-1.748-1.588-3.659-2.965-5.428c-1.372-1.779-3.067-3.407-4.824-4.769c-0.883-0.671-1.774-1.296-2.66-1.824
					c-0.88-0.548-1.755-0.995-2.578-1.391c-1.649-0.783-3.135-1.251-4.182-1.51c-0.522-0.144-0.956-0.213-1.245-0.267
					C376.852,305.173,376.698,305.145,376.698,305.145z"/>
			</g>
			<g clip-path="url(#SVGID_1_)">
				<path d="M305.806,318.51c0,0,0.259,0.145,0.743,0.415c0.476,0.292,1.186,0.668,2.056,1.132c0.885,0.474,1.955,1.033,3.21,1.603
					c1.233,0.6,2.652,1.21,4.192,1.843c1.54,0.636,3.226,1.262,5.013,1.886c1.798,0.608,3.693,1.227,5.68,1.807
					c3.976,1.165,8.25,2.28,12.673,3.43c2.209,0.602,4.459,1.187,6.756,1.934c2.326,0.761,4.645,1.52,7.341,3.104
					c0.681,0.427,1.37,0.877,2.131,1.521c0.734,0.602,1.557,1.41,2.307,2.486c0.757,1.055,1.461,2.562,1.767,4.16
					c0.336,1.647,0.168,3.241-0.159,4.56c-0.718,2.563-1.82,4.005-2.754,5.148c-0.954,1.151-1.847,1.928-2.704,2.638
					c-1.696,1.378-3.234,2.295-4.599,3.06c-1.371,0.727-2.567,1.292-3.572,1.693c-0.997,0.417-1.801,0.685-2.354,0.857
					c-0.543,0.185-0.847,0.259-0.847,0.259c-2.807,0.68-5.633-1.044-6.313-3.85c-0.391-1.611,0.012-3.229,0.956-4.443l0.137-0.176
					c0,0,0.183-0.23,0.548-0.615c0.364-0.392,0.89-0.966,1.571-1.648c0.661-0.664,1.465-1.47,2.388-2.396
					c0.89-0.883,1.055-2.804-0.804-3.708c-2-0.929-4.035-1.872-6.066-2.814c-2.097-0.985-4.225-1.996-6.304-3.082
					c-2.082-1.077-4.116-2.215-6.046-3.399c-1.926-1.188-3.759-2.405-5.427-3.665c-1.679-1.244-3.196-2.521-4.542-3.752
					c-1.339-1.24-2.511-2.429-3.484-3.541c-0.97-1.116-1.756-2.132-2.39-2.968c-0.619-0.878-1.075-1.561-1.36-2.028
					c-0.286-0.477-0.438-0.73-0.438-0.73c-0.147-0.245-0.067-0.563,0.177-0.71C305.451,318.42,305.649,318.423,305.806,318.51z"/>
			</g>
			<g clip-path="url(#SVGID_1_)">
				<path d="M322.039,365.958c0,0-0.211,0.03-0.621,0.087c-0.402,0.06-1.014,0.15-1.85,0.197c-0.823,0.047-1.843,0.098-3.066,0.014
					c-1.224-0.07-2.663-0.235-4.283-0.711c-0.812-0.234-1.672-0.535-2.562-0.948c-0.877-0.429-1.79-0.952-2.686-1.612
					c-1.804-1.307-3.476-3.196-4.769-5.342c-2.644-4.301-3.818-9.333-5.481-13.389c-0.823-2.031-1.786-3.765-2.804-4.978
					c-1.03-1.232-2.063-1.992-3.458-2.817c-0.708-0.394-1.517-0.789-2.438-1.163c-0.239-0.086-0.46-0.188-0.714-0.268l-0.374-0.126
					l-0.187-0.064l-0.048-0.017c0.07,0.021-0.224-0.069,0.147,0.043l-0.132-0.042c-0.701-0.22-1.405-0.442-2.114-0.665l-1.066-0.336
					l-0.527-0.162l-0.459-0.118c-0.614-0.161-1.23-0.322-1.85-0.484c-0.603-0.175-1.265-0.317-1.941-0.473
					c-0.671-0.156-1.344-0.313-2.021-0.471c-5.442-1.095-11.223-1.799-17.239-1.865c-6.015-0.047-12.248,0.516-18.45,1.75
					c-6.202,1.226-12.35,3.086-18.351,5.195c-6.006,2.104-11.869,4.483-17.564,6.846c-5.699,2.358-11.223,4.726-16.63,6.71
					c-5.381,1.942-10.498,3.637-15.285,5.048c-4.778,1.404-9.21,2.524-13.169,3.357c-3.962,0.828-7.455,1.343-10.342,1.621
					c-2.888,0.285-5.163,0.323-6.711,0.315c-0.773,0.003-1.366-0.022-1.766-0.035c-0.398-0.013-0.604-0.02-0.604-0.02
					s0.206-0.012,0.604-0.035s0.989-0.051,1.758-0.124c1.536-0.13,3.785-0.372,6.604-0.91c2.819-0.53,6.206-1.347,10.022-2.512
					c3.817-1.154,8.058-2.676,12.604-4.527c4.542-1.846,9.413-4.01,14.476-6.435c5.015-2.44,10.219-5.323,15.673-8.261
					c5.457-2.941,11.161-5.965,17.155-8.775c2.997-1.404,6.059-2.771,9.199-4.028c3.133-1.274,6.326-2.498,9.595-3.568
					c6.505-2.232,13.295-3.989,20.213-5.017c6.915-0.966,13.97-1.154,20.72-0.289c0.842,0.12,1.682,0.24,2.516,0.36l1.249,0.186
					l1.284,0.265c0.856,0.185,1.709,0.369,2.557,0.552l0.637,0.14l0.552,0.143l1.081,0.284c0.719,0.188,1.434,0.377,2.145,0.563
					l0.133,0.035l0.361,0.113l0.334,0.111l0.664,0.226c0.44,0.146,0.89,0.332,1.332,0.498c1.776,0.699,3.547,1.59,5.219,2.728
					c1.676,1.124,3.237,2.521,4.567,4.069c1.315,1.563,2.419,3.254,3.202,4.967c0.814,1.702,1.354,3.387,1.727,4.972
					c0.387,1.584,0.598,3.083,0.749,4.471c0.293,2.78,0.358,5.186,0.457,7.289c0.105,2.103,0.279,3.894,0.57,5.435
					c0.308,1.536,0.782,2.806,1.438,3.952c0.677,1.12,1.567,2.089,2.525,2.905c1.947,1.607,4.013,2.587,5.395,3.217
					c0.688,0.3,1.248,0.556,1.637,0.698c0.384,0.153,0.581,0.233,0.581,0.233c0.265,0.106,0.393,0.407,0.287,0.673
					C322.377,365.816,322.216,365.933,322.039,365.958z"/>
			</g>
			<g clip-path="url(#SVGID_1_)">
				<path d="M236.217,345.811c0,0,0.677-0.021,1.858-0.057c1.172-0.044,2.887-0.052,4.938,0.004
					c2.058,0.045,4.466,0.191,7.072,0.483c1.305,0.142,2.653,0.348,4.035,0.573c1.376,0.258,2.79,0.517,4.197,0.891
					c1.422,0.315,2.825,0.795,4.236,1.229c1.388,0.532,2.786,1.014,4.109,1.679c1.346,0.584,2.608,1.348,3.829,2.061
					c0.608,0.363,1.173,0.802,1.736,1.192c0.556,0.406,1.112,0.773,1.6,1.229c0.988,0.88,1.937,1.659,2.664,2.536
					c0.741,0.85,1.439,1.562,1.892,2.275c0.965,1.375,1.496,2.206,1.496,2.206l0.324,0.504c2.646,4.133,1.442,9.63-2.691,12.276
					c-4.133,2.647-9.629,1.442-12.276-2.69c-0.672-1.051-1.103-2.234-1.291-3.393c0,0-0.057-0.354-0.123-1.054
					c0.005-0.362-0.175-0.766-0.292-1.28c-0.086-0.524-0.39-1.08-0.65-1.742c-0.112-0.339-0.333-0.66-0.531-1.014
					c-0.211-0.346-0.39-0.733-0.653-1.102c-0.538-0.729-1.081-1.553-1.815-2.329c-0.666-0.825-1.517-1.586-2.351-2.415
					c-0.903-0.76-1.806-1.593-2.821-2.317c-0.981-0.771-2.036-1.468-3.084-2.17c-1.063-0.673-2.13-1.337-3.194-1.934
					c-2.128-1.202-4.201-2.242-6.02-3.064c-1.816-0.832-3.352-1.478-4.464-1.904C236.847,346.056,236.217,345.811,236.217,345.811z"
					/>
			</g>
			<g clip-path="url(#SVGID_1_)">
				<path d="M200.521,357.811c0,0,2.189-0.188,5.474-0.469c0.832-0.05,1.734-0.104,2.687-0.161c0.96-0.051,1.974-0.134,3.04-0.121
					c1.074-0.004,2.186-0.009,3.313-0.014c1.146,0.063,2.329,0.166,3.528,0.262c1.202,0.047,2.403,0.368,3.617,0.57
					c0.603,0.12,1.213,0.229,1.809,0.364c0.586,0.182,1.165,0.361,1.734,0.538c0.577,0.186,1.144,0.368,1.7,0.547
					c0.567,0.175,1.11,0.366,1.599,0.604c1.015,0.459,1.975,0.893,2.858,1.294c0.927,0.397,1.65,0.841,2.32,1.225
					c0.676,0.391,1.261,0.731,1.743,1.012c0.974,0.576,1.529,0.905,1.529,0.905c4.243,2.508,5.65,7.98,3.142,12.223
					c-2.507,4.243-7.98,5.65-12.223,3.143c-1.331-0.786-2.402-1.902-3.141-3.143c0,0-0.232-0.389-0.634-1.068
					c-0.204-0.348-0.453-0.77-0.738-1.254c-0.289-0.488-0.61-1.075-1.011-1.574c-0.4-0.548-0.832-1.141-1.29-1.768
					c-0.225-0.339-0.486-0.631-0.766-0.914c-0.278-0.299-0.562-0.604-0.851-0.913c-0.297-0.319-0.599-0.644-0.905-0.972
					c-0.334-0.296-0.69-0.577-1.045-0.877c-0.732-0.569-1.418-1.273-2.28-1.774c-0.834-0.541-1.672-1.104-2.534-1.642
					c-0.909-0.489-1.805-0.97-2.672-1.436c-0.867-0.487-1.761-0.881-2.596-1.278c-0.845-0.395-1.643-0.769-2.382-1.113
					C202.533,358.688,200.521,357.811,200.521,357.811z"/>
			</g>
			<g clip-path="url(#SVGID_1_)">
				<path d="M197.992,364.144c0,0-0.085,0.21-0.243,0.605c-0.173,0.378-0.413,0.948-0.744,1.646c-0.313,0.7-0.813,1.505-1.4,2.438
					c-0.581,0.956-1.334,1.899-2.172,2.966c-0.884,1.008-1.856,2.12-3.04,3.142c-1.162,1.047-2.478,2.078-3.947,3.011
					c-0.738,0.464-1.483,0.956-2.302,1.35c-0.806,0.418-1.631,0.834-2.509,1.169c-1.717,0.748-3.589,1.258-5.491,1.666
					c-1.922,0.343-3.887,0.566-5.855,0.502c-1.961-0.046-3.909-0.317-5.739-0.884c-1.83-0.553-3.544-1.316-5.043-2.322
					c-1.506-0.985-2.782-2.178-3.792-3.448c-0.992-1.302-1.712-2.688-2.068-4.028c-0.396-1.319-0.332-2.643-0.107-3.581
					c0.258-0.973,0.714-1.591,1.055-1.93c0.172-0.174,0.31-0.288,0.409-0.361c0.093-0.071,0.141-0.108,0.141-0.108
					s0.069,0.23,0.199,0.663c0.042,0.192,0.185,0.434,0.326,0.672c0.106,0.235,0.338,0.486,0.531,0.717
					c0.458,0.474,1.01,0.879,1.731,1.243c0.726,0.352,1.534,0.672,2.454,0.942c0.918,0.282,1.958,0.478,3.022,0.683
					c1.066,0.207,2.226,0.333,3.411,0.45c1.184,0.129,2.434,0.179,3.713,0.215c1.282,0.068,2.612-0.055,3.958-0.144
					c1.345-0.16,2.71-0.327,4.07-0.623c1.367-0.249,2.713-0.622,4.053-0.975c1.323-0.393,2.645-0.78,3.885-1.24
					c0.638-0.196,1.255-0.416,1.839-0.661c0.597-0.224,1.198-0.413,1.75-0.65c1.11-0.458,2.199-0.843,3.109-1.237
					c0.93-0.386,1.792-0.687,2.499-1.011c0.714-0.296,1.295-0.508,1.683-0.663C197.778,364.218,197.992,364.144,197.992,364.144z"/>
			</g>
		</g>
		<path fill="none" stroke="#000000" stroke-width="8" stroke-linecap="round" stroke-linejoin="round" stroke-miterlimit="10" d="
			M358.364,245.645c46.667,0,76,73.629,19,106.564s-169.667,23.936-249.749,52.993"/>
	</g>
</g>
</svg>
