<?xml version="1.0" encoding="utf-8"?>
<!-- Generator: Adobe Illustrator 16.0.0, SVG Export Plug-In . SVG Version: 6.00 Build 0)  -->
<!DOCTYPE svg PUBLIC "-//W3C//DTD SVG 1.1//EN" "http://www.w3.org/Graphics/SVG/1.1/DTD/svg11.dtd">
<svg version="1.1" xmlns="http://www.w3.org/2000/svg" xmlns:xlink="http://www.w3.org/1999/xlink" x="0px" y="0px"
	 width="566.93px" height="566.93px" viewBox="0 0 566.93 566.93" enable-background="new 0 0 566.93 566.93" xml:space="preserve">
<g id="fond" display="none">
	
		<rect x="-7607.873" y="-8861.898" display="inline" fill-rule="evenodd" clip-rule="evenodd" fill="#58595B" width="15942.492" height="15814.695"/>
</g>
<g id="en_cours">
</g>
<g id="fini">
	<g>
		
			<path fill="#564432" stroke="#241815" stroke-width="8" stroke-linecap="round" stroke-linejoin="round" stroke-miterlimit="10" d="
			M493.938,508.961c0,14.104-11.434,25.539-25.538,25.539H317.702c-14.105,0-25.538-11.435-25.538-25.539v-49.228
			c0-14.104,11.433-25.539,25.538-25.539H468.4c14.104,0,25.538,11.435,25.538,25.539V508.961z"/>
		<polygon fill="#CCAC6C" stroke="#241815" stroke-width="8" stroke-linejoin="round" stroke-miterlimit="10" points="
			249.832,480.342 266.076,92.07 281.385,92.072 297.518,480.342 		"/>
		
			<path fill="#564432" stroke="#241815" stroke-width="8" stroke-linecap="round" stroke-linejoin="round" stroke-miterlimit="10" d="
			M512.426,409.004c0,158.063-334.715,110.262-425.186,62.71c-35.95-18.897-52.314-43.262-52.314-62.71H512.426z"/>
		<g>
			<g>
				<path fill="#E5E2D3" d="M56.999,395.285c-1.486,0-2.849-0.823-3.541-2.139s-0.597-2.905,0.245-4.129l194.604-282.795
					c0.763-1.108,2.007-1.732,3.296-1.732c0.448,0,0.902,0.075,1.343,0.232c1.708,0.609,2.792,2.291,2.642,4.098l-23.424,282.795
					c-0.172,2.074-1.905,3.67-3.986,3.67H56.999z"/>
				<path fill="#241815" d="M251.603,108.49l-23.424,282.795H56.999L251.603,108.49 M251.604,100.489
					c-2.578,0-5.067,1.25-6.592,3.466L50.409,386.75c-1.685,2.448-1.874,5.628-0.491,8.258c1.383,2.631,4.109,4.277,7.081,4.277
					h171.179c4.162,0,7.629-3.191,7.973-7.34l23.424-282.795c0.299-3.613-1.869-6.977-5.285-8.195
					C253.409,100.641,252.501,100.489,251.604,100.489L251.604,100.489z"/>
			</g>
			<g>
				<path fill="#E5E2D3" d="M319.174,395.285c-2.081,0-3.814-1.596-3.986-3.67L291.763,108.82c-0.149-1.807,0.935-3.488,2.643-4.098
					c0.44-0.157,0.895-0.232,1.343-0.232c1.289,0,2.533,0.624,3.296,1.732l194.604,282.795c0.843,1.224,0.937,2.813,0.245,4.129
					s-2.055,2.139-3.54,2.139H319.174z"/>
				<path fill="#241815" d="M295.749,108.49l194.604,282.795H319.174L295.749,108.49 M295.747,100.489
					c-0.896,0-1.805,0.151-2.687,0.466c-3.415,1.219-5.584,4.582-5.284,8.195l23.425,282.795c0.344,4.148,3.811,7.34,7.973,7.34
					h171.179c2.972,0,5.698-1.646,7.081-4.277c1.383-2.63,1.193-5.81-0.49-8.258L302.339,103.955
					C300.814,101.739,298.325,100.489,295.747,100.489L295.747,100.489z"/>
			</g>
		</g>
		<path fill="none" stroke="#241815" stroke-width="8" stroke-linecap="round" stroke-linejoin="round" stroke-miterlimit="10" d="
			M466.51,409.004c0,30.331-6.307,63.816-192.835,63.816c-120.844,0-140.31-4.82-156.657,11.527"/>
	</g>
	<polygon fill="#AB2E23" stroke="#241815" stroke-width="8" stroke-linejoin="round" stroke-miterlimit="10" points="
		279.548,198.89 351.733,157.204 351.733,176.886 407.032,176.886 407.032,220.886 351.733,220.886 351.733,240.571 	"/>
</g>
</svg>
