<?xml version="1.0" encoding="utf-8"?>
<!-- Generator: Adobe Illustrator 16.0.0, SVG Export Plug-In . SVG Version: 6.00 Build 0)  -->
<!DOCTYPE svg PUBLIC "-//W3C//DTD SVG 1.1//EN" "http://www.w3.org/Graphics/SVG/1.1/DTD/svg11.dtd">
<svg version="1.1" xmlns="http://www.w3.org/2000/svg" xmlns:xlink="http://www.w3.org/1999/xlink" x="0px" y="0px"
	 width="566.93px" height="566.93px" viewBox="0 0 566.93 566.93" enable-background="new 0 0 566.93 566.93" xml:space="preserve">
<g id="fond" display="none">
	
		<rect x="-9532.873" y="-9494.906" display="inline" fill-rule="evenodd" clip-rule="evenodd" fill="#58595B" width="15942.492" height="15814.695"/>
</g>
<g id="en_cours">
</g>
<g id="fini">
	<g>
		<path fill="#CCAC6C" d="M151.065,506.016c0,0,21.063-69.504,21.063-85.648c0-16.148,1.729-215.532,1.729-215.532l-14.13,93.021
			l-57.656-7.896c0,0,11.983-74.769,11.983-106.885c0-113.732,126.498-19.704,126.498-122.16h85.824
			c0,102.456,126.499,8.428,126.499,122.16c0,32.116,11.982,106.885,11.982,106.885l-57.656,7.896l-14.13-93.021
			c0,0,1.729,199.384,1.729,215.532c0,16.145,21.063,85.648,21.063,85.648H151.065z"/>
		<g>
			
				<line fill="none" stroke="#000000" stroke-width="8" stroke-linecap="round" stroke-linejoin="round" stroke-miterlimit="10" x1="280.218" y1="274.688" x2="280.218" y2="423.524"/>
			<path fill="none" stroke="#000000" stroke-width="8" stroke-linecap="round" stroke-linejoin="round" stroke-miterlimit="10" d="
				M240.553,60.914c0,102.456-126.498,8.428-126.498,122.16c0,32.116-11.983,106.885-11.983,106.885"/>
			<path fill="none" stroke="#000000" stroke-width="8" stroke-linecap="round" stroke-linejoin="round" stroke-miterlimit="10" d="
				M159.728,297.855l14.13-93.021c0,0-1.729,199.384-1.729,215.532c0,16.145-21.063,85.648-21.063,85.648"/>
			<path fill="none" stroke="#000000" stroke-width="8" stroke-linecap="round" stroke-linejoin="round" stroke-miterlimit="10" d="
				M253.191,207.645c-12.639,49.844-37.212,55.461-37.212,55.461"/>
			
				<line fill="none" stroke="#000000" stroke-width="8" stroke-linecap="round" stroke-linejoin="round" stroke-miterlimit="10" x1="234.586" y1="456.871" x2="246.345" y2="468.633"/>
			<path fill="none" stroke="#000000" stroke-width="8" stroke-linecap="round" stroke-linejoin="round" stroke-miterlimit="10" d="
				M326.377,60.914c0,102.456,126.499,8.428,126.499,122.16c0,32.116,11.982,106.885,11.982,106.885"/>
			<path fill="none" stroke="#000000" stroke-width="8" stroke-linecap="round" stroke-linejoin="round" stroke-miterlimit="10" d="
				M407.202,297.855l-14.13-93.021c0,0,1.729,199.384,1.729,215.532c0,16.145,21.063,85.648,21.063,85.648"/>
			<path fill="none" stroke="#000000" stroke-width="8" stroke-linecap="round" stroke-linejoin="round" stroke-miterlimit="10" d="
				M313.738,207.645c12.639,49.844,37.212,55.461,37.212,55.461"/>
			
				<line fill="none" stroke="#000000" stroke-width="8" stroke-linecap="round" stroke-linejoin="round" stroke-miterlimit="10" x1="332.344" y1="456.871" x2="320.585" y2="468.633"/>
		</g>
	</g>
</g>
</svg>
