<?xml version="1.0" encoding="utf-8"?>
<!-- Generator: Adobe Illustrator 16.0.0, SVG Export Plug-In . SVG Version: 6.00 Build 0)  -->
<!DOCTYPE svg PUBLIC "-//W3C//DTD SVG 1.1//EN" "http://www.w3.org/Graphics/SVG/1.1/DTD/svg11.dtd">
<svg version="1.1" xmlns="http://www.w3.org/2000/svg" xmlns:xlink="http://www.w3.org/1999/xlink" x="0px" y="0px"
	 width="566.93px" height="566.93px" viewBox="0 0 566.93 566.93" enable-background="new 0 0 566.93 566.93" xml:space="preserve">
<g id="fond" display="none">
	
		<rect x="-5662.873" y="-7591.898" display="inline" fill-rule="evenodd" clip-rule="evenodd" fill="#58595B" width="15942.492" height="15814.695"/>
</g>
<g id="en_cours">
</g>
<g id="fini">
	<g>
		
			<path fill="#CCAC6C" stroke="#000000" stroke-width="8" stroke-linecap="round" stroke-linejoin="round" stroke-miterlimit="10" d="
			M525.229,363.842c0,0-29.116,13.076-39.421,16.363c-10.306,3.287-26.737-16.979-51.122-13.194l-75.604,4.899
			c-6.428,0.281-11.256,5.963-10.787,12.689c0.47,6.728,6.059,11.954,12.486,11.673l29.157-0.184l0,0
			c18.789,0.123,15.935,13.853,7.554,14.604l-82.071,7.349c-6.39,0.676-10.882,6.654-10.037,13.353
			c0.846,6.698,6.709,11.582,13.098,10.907l68.983-6.177c0.151,0.676,0.316,1.358,0.493,2.049l-80.074,24.594
			c-6.121,1.908-9.446,8.688-7.43,15.146c2.017,6.458,8.613,10.146,14.733,8.237l81.904-25.234c0.277,0.521,0.558,1.038,0.843,1.556
			l-73.326,35.836c-5.79,2.767-8.189,9.985-5.359,16.124c2.829,6.139,9.815,8.871,15.604,6.105l77.255-37.765
			c0.709,0.793,1.425,1.563,2.145,2.309l-50.141,35.575c-5.046,3.414-6.358,10.545-2.931,15.926
			c3.427,5.382,10.296,6.976,15.341,3.562l58.033-38.465l43.952-23.441c0,0,0.007-0.004,0.019-0.009
			c0.004-0.003,0.009-0.005,0.016-0.009c0.012-0.006,0.027-0.014,0.047-0.023c0.009-0.005,0.017-0.009,0.026-0.014
			c0.021-0.01,0.042-0.021,0.067-0.034c0.017-0.009,0.031-0.018,0.051-0.027c0.039-0.02,0.084-0.043,0.135-0.07
			c0.021-0.011,0.045-0.024,0.067-0.035c0.033-0.019,0.065-0.036,0.103-0.056c0.033-0.019,0.068-0.038,0.105-0.058
			c0.031-0.018,0.063-0.035,0.097-0.054c0.043-0.023,0.086-0.047,0.134-0.073c0.025-0.014,0.054-0.03,0.08-0.046
			c0.103-0.057,0.213-0.12,0.331-0.188c0.026-0.015,0.052-0.029,0.079-0.046c0.061-0.034,0.124-0.071,0.188-0.109
			c0.036-0.021,0.075-0.043,0.112-0.065c0.069-0.041,0.14-0.083,0.212-0.126c0.031-0.019,0.063-0.038,0.095-0.057
			c0.264-0.159,0.551-0.335,0.857-0.528c0.023-0.015,0.047-0.03,0.07-0.045c0.101-0.063,0.202-0.128,0.307-0.194
			c0.026-0.018,0.054-0.034,0.081-0.053c0.469-0.304,0.979-0.644,1.521-1.021c0.02-0.013,0.039-0.028,0.06-0.041
			c0.132-0.093,0.266-0.187,0.4-0.283c0.011-0.007,0.022-0.016,0.033-0.024c0.577-0.41,1.184-0.86,1.813-1.35
			c0.015-0.013,0.029-0.023,0.044-0.034c0.637-0.496,1.296-1.03,1.971-1.607c0.005-0.004,0.009-0.008,0.014-0.012
			c0.854-0.73,1.733-1.525,2.62-2.389c0.002-0.001,0.003-0.002,0.005-0.005c0.71-0.69,1.425-1.424,2.135-2.2l0.001-0.001
			c0.888-0.969,1.767-2.005,2.624-3.109c0.005-0.007,0.012-0.015,0.018-0.021c0.68-0.875,1.343-1.795,1.984-2.757
			c0.008-0.012,0.015-0.023,0.023-0.034c0.799-1.2,1.561-2.468,2.271-3.804c0.017-0.031,0.032-0.062,0.049-0.092
			c0.552-1.045,1.071-2.13,1.551-3.258c0.02-0.045,0.039-0.09,0.058-0.135c0.111-0.265,0.221-0.532,0.327-0.801
			c0.016-0.037,0.03-0.076,0.045-0.113c0.333-0.843,0.642-1.71,0.925-2.599c0.015-0.041,0.028-0.083,0.041-0.125
			c0.086-0.271,0.168-0.545,0.249-0.82c0.022-0.077,0.045-0.153,0.067-0.23c0.078-0.275,0.156-0.555,0.23-0.834
			c0.008-0.028,0.015-0.059,0.022-0.088c0.166-0.632,0.319-1.274,0.458-1.928l45.306-11.245"/>
		
			<path fill="#CCAC6C" stroke="#000000" stroke-width="8" stroke-linecap="round" stroke-linejoin="round" stroke-miterlimit="10" d="
			M420.518,411.961c6.602,9.169,31.596,13.538,37.51,11.65"/>
		
			<path fill="#CCAC6C" stroke="#000000" stroke-width="8" stroke-linecap="round" stroke-linejoin="round" stroke-miterlimit="10" d="
			M445.188,464.581c-16.494-3.404-32.117-31.636-32.117-31.636"/>
	</g>
	<g>
		
			<path fill="#CCAC6C" stroke="#000000" stroke-width="8" stroke-linecap="round" stroke-linejoin="round" stroke-miterlimit="10" d="
			M41.701,204.485c0,0,29.116,13.075,39.421,16.362c10.306,3.287,26.737-16.979,51.122-13.194l75.604,4.899
			c6.428,0.281,11.256,5.963,10.787,12.689c-0.47,6.728-6.059,11.954-12.486,11.673l-29.157-0.184l0,0
			c-18.789,0.123-15.935,13.853-7.554,14.604l82.071,7.349c6.39,0.676,10.882,6.654,10.037,13.353
			c-0.846,6.699-6.709,11.582-13.098,10.908l-68.983-6.178c-0.151,0.676-0.316,1.359-0.493,2.049l80.074,24.594
			c6.121,1.908,9.446,8.689,7.43,15.146c-2.017,6.459-8.613,10.146-14.733,8.238l-81.904-25.235
			c-0.277,0.521-0.558,1.039-0.843,1.557l73.326,35.835c5.79,2.768,8.189,9.986,5.359,16.125c-2.829,6.139-9.815,8.871-15.604,6.105
			l-77.255-37.766c-0.709,0.793-1.425,1.564-2.145,2.309l50.141,35.576c5.046,3.414,6.358,10.545,2.931,15.926
			c-3.427,5.381-10.296,6.975-15.341,3.561l-58.033-38.465l-43.952-23.441c0,0-0.007-0.004-0.019-0.008
			c-0.004-0.004-0.009-0.006-0.016-0.01c-0.012-0.006-0.027-0.014-0.047-0.023c-0.009-0.004-0.017-0.008-0.026-0.014
			c-0.021-0.01-0.042-0.021-0.067-0.033c-0.017-0.01-0.031-0.018-0.051-0.027c-0.039-0.02-0.084-0.043-0.135-0.07
			c-0.021-0.012-0.045-0.025-0.067-0.035c-0.033-0.02-0.065-0.037-0.103-0.057c-0.033-0.018-0.068-0.037-0.105-0.057
			c-0.031-0.018-0.063-0.035-0.097-0.055c-0.043-0.023-0.086-0.047-0.134-0.072c-0.025-0.014-0.054-0.031-0.08-0.047
			c-0.103-0.057-0.213-0.119-0.331-0.188c-0.026-0.014-0.052-0.029-0.079-0.045c-0.061-0.035-0.124-0.072-0.188-0.109
			c-0.036-0.021-0.075-0.043-0.112-0.066c-0.069-0.041-0.14-0.082-0.212-0.125c-0.031-0.02-0.063-0.039-0.095-0.057
			c-0.264-0.16-0.551-0.336-0.857-0.529c-0.023-0.014-0.047-0.029-0.07-0.045c-0.101-0.063-0.202-0.127-0.307-0.193
			c-0.026-0.018-0.054-0.035-0.081-0.053c-0.469-0.304-0.979-0.644-1.521-1.022c-0.02-0.012-0.039-0.027-0.06-0.041
			c-0.132-0.092-0.266-0.186-0.4-0.283c-0.011-0.006-0.022-0.016-0.033-0.023c-0.577-0.41-1.184-0.861-1.813-1.35
			c-0.015-0.014-0.029-0.023-0.044-0.035c-0.637-0.496-1.296-1.029-1.971-1.607c-0.005-0.004-0.009-0.008-0.014-0.012
			c-0.854-0.73-1.733-1.525-2.62-2.389c-0.002,0-0.003-0.002-0.005-0.004c-0.71-0.691-1.425-1.424-2.135-2.201h-0.001
			c-0.888-0.969-1.767-2.006-2.624-3.109c-0.005-0.008-0.012-0.016-0.018-0.021c-0.68-0.875-1.343-1.795-1.984-2.758
			c-0.008-0.012-0.015-0.023-0.023-0.033c-0.799-1.201-1.561-2.469-2.271-3.805c-0.017-0.031-0.032-0.061-0.049-0.092
			c-0.552-1.045-1.071-2.129-1.551-3.258c-0.02-0.045-0.039-0.09-0.058-0.135c-0.111-0.264-0.221-0.531-0.327-0.801
			c-0.016-0.037-0.03-0.076-0.045-0.113c-0.333-0.842-0.642-1.709-0.925-2.598c-0.015-0.041-0.028-0.084-0.041-0.125
			c-0.086-0.271-0.168-0.545-0.249-0.82c-0.022-0.078-0.045-0.154-0.067-0.23c-0.078-0.275-0.156-0.555-0.23-0.834
			c-0.008-0.029-0.015-0.059-0.022-0.088c-0.166-0.633-0.319-1.275-0.458-1.928l-45.306-11.246"/>
		
			<path fill="#CCAC6C" stroke="#000000" stroke-width="8" stroke-linecap="round" stroke-linejoin="round" stroke-miterlimit="10" d="
			M146.412,252.603c-6.602,9.169-31.596,13.538-37.51,11.65"/>
		
			<path fill="#CCAC6C" stroke="#000000" stroke-width="8" stroke-linecap="round" stroke-linejoin="round" stroke-miterlimit="10" d="
			M121.741,305.223c16.494-3.404,32.117-31.635,32.117-31.635"/>
	</g>
	<g>
		<g>
			
				<polygon fill="#AB2E23" stroke="#000000" stroke-width="8" stroke-linecap="round" stroke-linejoin="round" stroke-miterlimit="10" points="
				180.865,201.152 283.465,141.916 386.065,201.152 283.465,260.387 			"/>
			
				<polygon fill="#AB2E23" stroke="#000000" stroke-width="8" stroke-linecap="round" stroke-linejoin="round" stroke-miterlimit="10" points="
				180.865,201.152 283.464,260.387 283.464,378.859 180.864,319.623 			"/>
			
				<polygon fill="#AB2E23" stroke="#000000" stroke-width="8" stroke-linecap="round" stroke-linejoin="round" stroke-miterlimit="10" points="
				283.464,378.859 283.464,260.387 386.065,201.151 386.064,319.623 			"/>
		</g>
		<g>
			<path fill="#358C5E" d="M232.164,357.857c-4.75,0-8.614-3.865-8.614-8.615l0.001-118.473c0-3.071,1.653-5.931,4.314-7.464
				l38.372-22.153l-38.378-22.158c-1.993-1.151-3.418-3.009-4.014-5.231c-0.596-2.223-0.29-4.545,0.861-6.538
				c1.533-2.656,4.393-4.307,7.464-4.307c1.505,0,2.993,0.398,4.301,1.153l46.994,27.132l46.993-27.131
				c0.63-0.364,1.318-0.537,1.996-0.537c1.383,0,2.727,0.717,3.468,2l4.614,7.992c0.531,0.918,0.674,2.01,0.4,3.035
				s-0.945,1.898-1.864,2.429l-38.378,22.159l38.378,22.157c2.656,1.532,4.308,4.391,4.308,7.46l-0.001,118.471c0,2.209-1.791,4-4,4
				h-9.229c-1.061,0-2.078-0.422-2.829-1.172c-0.75-0.75-1.171-1.768-1.171-2.828l0.001-113.498l-42.686-24.645l-42.686,24.645
				l-0.001,113.5C240.778,353.992,236.914,357.857,232.164,357.857z"/>
			<path d="M232.17,166.919c0.783,0,1.576,0.199,2.303,0.618l48.993,28.286c24.858-14.352,48.993-28.286,48.993-28.286l4.614,7.992
				l-44.378,25.623l44.378,25.621c1.428,0.824,2.308,2.347,2.308,3.996l-0.001,118.471h-9.229l0.001-115.807l-46.686-26.954
				l-44.584,25.741c-0.814,0.47-1.507,0.87-2.102,1.211l-0.001,115.811c0,2.549-2.066,4.615-4.615,4.615s-4.614-2.066-4.614-4.615
				l0.001-118.473c0-1.649,0.882-3.175,2.311-3.998c0.184-0.106,21.33-12.314,44.375-25.619l-44.378-25.622
				c-2.207-1.275-2.964-4.097-1.689-6.304C229.024,167.746,230.575,166.918,232.17,166.919 M232.17,158.919
				C232.17,158.919,232.17,158.919,232.17,158.919c-4.496,0-8.684,2.417-10.93,6.309c-1.684,2.915-2.132,6.315-1.259,9.571
				c0.872,3.254,2.958,5.974,5.876,7.659l32.379,18.694l-30.548,17.636l-1.827,1.055c-3.89,2.241-6.311,6.429-6.311,10.926
				l-0.001,118.473c0,6.956,5.659,12.615,12.614,12.615s12.615-5.659,12.615-12.615l0.001-111.19l38.686-22.335l38.686,22.335
				L322.15,349.24c0,2.122,0.843,4.156,2.343,5.657c1.5,1.5,3.535,2.343,5.657,2.343h9.229c4.418,0,8-3.582,8-8l0.001-118.471
				c0-4.494-2.418-8.681-6.311-10.926l-32.375-18.691l32.378-18.694c1.837-1.061,3.178-2.809,3.728-4.858
				c0.549-2.049,0.262-4.233-0.799-6.07l-4.614-7.992c-1.482-2.566-4.171-4.001-6.936-4.001c-1.357,0-2.733,0.346-3.993,1.073
				l-44.993,25.976l-44.993-25.977C236.555,159.503,234.376,158.919,232.17,158.919L232.17,158.919z"/>
		</g>
		<g>
			<path fill="#358C5E" d="M241.755,284.313c-1.444,0-2.88-0.37-4.152-1.069c-4.163-2.295-5.681-7.545-3.388-11.705l34.665-62.881
				h-30.79c-20.44,0-37.069-16.63-37.069-37.07c0-20.44,16.629-37.069,37.069-37.069c18.78,0,34.657,13.186,45.375,37.403
				c10.718-24.217,26.595-37.403,45.375-37.403c20.44,0,37.069,16.629,37.069,37.069c0,20.44-16.629,37.07-37.069,37.07h-30.79
				l34.665,62.881c2.293,4.16,0.774,9.41-3.384,11.704c-1.272,0.701-2.708,1.07-4.154,1.07c-3.142,0-6.035-1.708-7.549-4.458
				l-34.162-61.968l-34.163,61.969C247.786,282.604,244.894,284.313,241.755,284.313z M328.84,191.428
				c10.94,0,19.84-8.901,19.84-19.841s-8.9-19.841-19.84-19.841c-19.285,0-29.964,26.08-34.218,39.682H328.84z M238.09,151.746
				c-10.94,0-19.84,8.9-19.84,19.841s8.9,19.841,19.84,19.841h34.218C268.055,177.825,257.376,151.746,238.09,151.746z"/>
			<path d="M328.84,138.517c18.234,0,33.069,14.835,33.069,33.069c0,18.235-14.835,33.07-33.069,33.07h-37.563l37.935,68.812
				c1.23,2.232,0.418,5.039-1.813,6.27c-0.706,0.389-1.47,0.573-2.223,0.573c-1.627,0-3.205-0.861-4.046-2.388l-37.666-68.323
				L245.8,277.924c-0.841,1.525-2.418,2.389-4.045,2.389c-0.754,0-1.518-0.186-2.224-0.574c-2.232-1.23-3.043-4.037-1.813-6.27
				l37.935-68.812H238.09c-18.234,0-33.069-14.835-33.069-33.07c0-18.234,14.835-33.069,33.069-33.069
				c25.56,0,39.104,26.334,45.375,44.325C289.736,164.851,303.28,138.517,328.84,138.517 M289.301,195.428h39.54
				c13.146,0,23.84-10.695,23.84-23.841c0-13.146-10.695-23.841-23.84-23.841C304.391,147.746,292.904,181.852,289.301,195.428
				 M238.09,195.428h39.54c-3.603-13.576-15.09-47.682-39.54-47.682c-13.146,0-23.84,10.695-23.84,23.841
				C214.25,184.733,224.945,195.428,238.09,195.428 M328.84,130.517c-18.389,0-34.107,11.317-45.375,32.284
				c-11.268-20.967-26.986-32.284-45.375-32.284c-22.646,0-41.069,18.424-41.069,41.069c0,22.646,18.423,41.07,41.069,41.07h24.017
				l-31.395,56.95c-3.358,6.092-1.134,13.78,4.957,17.138c1.868,1.027,3.97,1.568,6.086,1.568c4.596,0,8.83-2.5,11.05-6.525
				l30.661-55.616l30.66,55.615c2.217,4.024,6.452,6.525,11.052,6.525c2.119,0,4.222-0.541,6.082-1.565
				c6.094-3.36,8.317-11.048,4.96-17.139l-31.396-56.95h24.017c22.646,0,41.069-18.424,41.069-41.07
				C369.91,148.941,351.486,130.517,328.84,130.517L328.84,130.517z M300.177,187.428c4.739-13.159,14.016-31.682,28.664-31.682
				c8.734,0,15.84,7.106,15.84,15.841s-7.106,15.841-15.84,15.841H300.177L300.177,187.428z M238.09,187.428
				c-8.734,0-15.84-7.106-15.84-15.841s7.106-15.841,15.84-15.841c14.649,0,23.925,18.523,28.664,31.682H238.09L238.09,187.428z"/>
		</g>
	</g>
</g>
</svg>
