<?xml version="1.0" encoding="utf-8"?>
<!-- Generator: Adobe Illustrator 16.0.0, SVG Export Plug-In . SVG Version: 6.00 Build 0)  -->
<!DOCTYPE svg PUBLIC "-//W3C//DTD SVG 1.1//EN" "http://www.w3.org/Graphics/SVG/1.1/DTD/svg11.dtd">
<svg version="1.1" xmlns="http://www.w3.org/2000/svg" xmlns:xlink="http://www.w3.org/1999/xlink" x="0px" y="0px"
	 width="340.158px" height="566.93px" viewBox="0 0 340.158 566.93" enable-background="new 0 0 340.158 566.93"
	 xml:space="preserve">
<g id="fond" display="none">
	
		<rect x="-8013.937" y="-7908" display="inline" fill-rule="evenodd" clip-rule="evenodd" fill="#58595B" width="16654.492" height="16572.797"/>
</g>
<g id="en_cours">
</g>
<g id="fini">
	<g>
		<path d="M60.945,451.16c1.63,0.741,3.744,1.446,6.341,2.114c2.593,0.667,5.152,1.001,7.676,1.001
			c8.156,0,14.536-1.818,19.135-5.451c4.596-3.637,8.75-9.532,12.459-17.688c-9.345-17.8-18.061-36.674-26.144-56.626
			c-8.086-19.948-14.796-40.161-20.136-60.631h22.25c1.631,6.675,3.595,13.872,5.896,21.583c2.298,7.714,4.856,15.651,7.676,23.807
			c2.816,8.159,5.858,16.319,9.122,24.475c3.261,8.16,6.675,16.021,10.235,23.585c5.636-15.574,10.531-31,14.685-46.279
			c4.151-15.276,8.083-31,11.792-47.17h21.36c-5.34,21.805-11.274,42.758-17.8,62.855c-6.529,20.102-13.573,38.903-21.137,56.403
			c-2.969,6.676-6.046,12.422-9.234,17.244c-3.191,4.818-6.713,8.788-10.569,11.903c-3.859,3.115-8.197,5.413-13.016,6.897
			c-4.822,1.481-10.273,2.226-16.354,2.226c-1.634,0-3.337-0.111-5.117-0.334c-1.78-0.223-3.525-0.521-5.229-0.891
			c-1.707-0.371-3.264-0.778-4.672-1.224c-1.412-0.444-2.413-0.816-3.004-1.112L60.945,451.16z"/>
		<path d="M222.478,310.986c8.305,0,15.314,1.078,21.026,3.227c5.708,2.152,10.308,5.194,13.795,9.122
			c3.483,3.933,5.969,8.604,7.454,14.018c1.481,5.417,2.225,11.386,2.225,17.911v72.312c-1.78,0.3-4.266,0.706-7.454,1.225
			c-3.191,0.521-6.786,1.001-10.792,1.446c-4.005,0.444-8.343,0.852-13.016,1.224c-4.672,0.368-9.31,0.556-13.906,0.556
			c-6.529,0-12.537-0.667-18.022-2.002c-5.49-1.335-10.235-3.449-14.24-6.342c-4.005-2.893-7.12-6.709-9.345-11.458
			c-2.225-4.746-3.337-10.458-3.337-17.133c0-6.376,1.297-11.865,3.894-16.465c2.594-4.596,6.119-8.306,10.569-11.125
			c4.45-2.815,9.641-4.895,15.575-6.229c5.931-1.335,12.161-2.003,18.69-2.003c2.076,0,4.228,0.111,6.453,0.334
			c2.225,0.223,4.338,0.521,6.341,0.89c2.003,0.372,3.745,0.706,5.229,1.002c1.481,0.299,2.521,0.521,3.115,0.667v-5.785
			c0-3.41-0.372-6.786-1.112-10.123c-0.744-3.338-2.079-6.304-4.005-8.9c-1.93-2.594-4.562-4.672-7.899-6.229
			s-7.676-2.337-13.016-2.337c-6.824,0-12.793,0.483-17.911,1.446c-5.117,0.967-8.938,1.968-11.458,3.004l-2.447-17.132
			c2.67-1.186,7.12-2.337,13.35-3.449S215.208,310.986,222.478,310.986z M224.257,414.671c4.895,0,9.234-0.111,13.016-0.334
			c3.783-0.223,6.932-0.629,9.456-1.224v-34.487c-1.484-0.74-3.894-1.37-7.231-1.892c-3.337-0.518-7.381-0.778-12.126-0.778
			c-3.115,0-6.418,0.223-9.901,0.668c-3.487,0.444-6.675,1.373-9.567,2.781c-2.893,1.411-5.305,3.337-7.231,5.784
			c-1.929,2.448-2.892,5.674-2.892,9.679c0,7.419,2.371,12.571,7.12,15.464C209.646,413.225,216.098,414.671,224.257,414.671z"/>
	</g>
</g>
</svg>
