<?xml version="1.0" encoding="utf-8"?>
<!-- Generator: Adobe Illustrator 16.0.0, SVG Export Plug-In . SVG Version: 6.00 Build 0)  -->
<!DOCTYPE svg PUBLIC "-//W3C//DTD SVG 1.1//EN" "http://www.w3.org/Graphics/SVG/1.1/DTD/svg11.dtd">
<svg version="1.1" xmlns="http://www.w3.org/2000/svg" xmlns:xlink="http://www.w3.org/1999/xlink" x="0px" y="0px"
	 width="566.93px" height="566.93px" viewBox="0 0 566.93 566.93" enable-background="new 0 0 566.93 566.93" xml:space="preserve">
<g id="fond" display="none">
	
		<rect x="-12155.873" y="-10145.944" display="inline" fill-rule="evenodd" clip-rule="evenodd" fill="#58595B" width="15942.492" height="15814.695"/>
</g>
<g id="en_cours">
</g>
<g id="fini">
	<g>
		<g>
			
				<path fill="#4F5666" stroke="#000000" stroke-width="8" stroke-linecap="round" stroke-linejoin="round" stroke-miterlimit="10" d="
				M494.922,300.524c-12.594-12.7-201.895-21.781-227.391-17.393c-35.115,6.043-155.824,29.482-158.396,64.819
				c-1.799,24.522-57.131,49.773-53.709,71.17c3.547,22.163,8.849,10.304,42.773,20.034c10.82,3.103,1.045,13.168,10.791,27.013
				c3.811,5.419,43.383,3.321,78.416,6.362c23.105,2.006,14.105,24.011,41.318,23.503c35.09-0.653,67.28-12.294,90.652-18.142
				c22.091-5.525,61.559-40.646,96.043-57.51C428.771,413.856,507.701,313.408,494.922,300.524z"/>
			
				<path fill="#4F5666" stroke="#000000" stroke-width="8" stroke-linecap="round" stroke-linejoin="round" stroke-miterlimit="10" d="
				M495.306,300.438c-10.786-10.869-180.655-17.405-200.79-13.643c-27.29,5.104-93.895,12.784-91.976,39.456
				c1.298,18.11-52.3,10.72-41.815,23.447c20.383,24.745-26.321,60.668,13.42,59.586c58.314-1.586,57.227,28.636,65.473,38.817
				c8.322,10.276,46.516-22.288,58.474,9.351c5.143,13.594,64.19-35.875,79.473-30.975
				C395.665,432.282,506.207,311.424,495.306,300.438z"/>
		</g>
		
			<path fill="#EDC2BC" stroke="#000000" stroke-width="8" stroke-linecap="round" stroke-linejoin="round" stroke-miterlimit="10" d="
			M118.199,350.877C76,432.907,200.157,462.108,273.488,449.832C418,425.641,470.733,308.892,471.068,301.801
			C471.404,294.708,176.383,237.774,118.199,350.877z"/>
		
			<circle fill="#FFFFFF" stroke="#000000" stroke-width="8" stroke-linecap="round" stroke-linejoin="round" stroke-miterlimit="10" cx="196.124" cy="405.968" r="21.157"/>
		<g>
			
				<path fill="#E5E2D3" stroke="#000000" stroke-width="8" stroke-linecap="round" stroke-linejoin="round" stroke-miterlimit="10" d="
				M491.612,297.69c-21.544-15.944-252.827-62.905-277.42-63.676c-32.17-1.001-129.802-2.253-131.093,21.551
				c-0.92,16.772-40.476,24.437-37.99,39.695c2.631,16.108,6.308,8.873,31.295,22.848c8.289,4.646,0.994,9.837,8.713,22.34
				c3.076,4.978,35.044,13.369,65.414,25.246c21.15,8.266,13.913,23.896,39.679,32.053c35.23,11.165,68.737,11.902,94.527,14.917
				c25.418,2.968,70.102-16.407,113.438-20.38C415.68,390.677,514.372,314.544,491.612,297.69z"/>
			
				<path fill="#E5E2D3" stroke="#000000" stroke-width="8" stroke-linecap="round" stroke-linejoin="round" stroke-miterlimit="10" d="
				M493.25,298.149c-15.757-11.651-201.566-48.738-219.772-49.302c-23.815-0.733-78.303-5.485-75.451,12.154
				c1.964,12.161-39.506-1.149-31.215,8.594c16.683,19.599-17.274,34.71,12.839,41.575c47.65,10.865,48.62,32.213,56.473,41.572
				c8.087,9.633,40.727-5.131,54.893,22.207c6.278,12.102,62.119-10.668,79.386-2.314
				C391.579,382.886,509.66,310.281,493.25,298.149z"/>
			
				<path fill="#E5E2D3" stroke="#000000" stroke-width="8" stroke-linecap="round" stroke-linejoin="round" stroke-miterlimit="10" d="
				M495.109,298.669c-9.127-6.736-119.123-28.806-129.839-29.128c-14.005-0.424-37.314-3.285-33.006,7.446
				c2.897,7.231-19.172,5.729-15.23,11.867c4.031,6.271,19.238,13.734,31.691,19.287c4.055,1.813,13.338,15.843,18.677,20.778
				c5.441,5.017,25.938-0.577,36.296,13.69c4.461,6.14,27.14,0.298,34.186,0.191C444.914,342.694,504.449,305.565,495.109,298.669z"
				/>
		</g>
	</g>
</g>
</svg>
