<?xml version="1.0" encoding="utf-8"?>
<!-- Generator: Adobe Illustrator 16.0.0, SVG Export Plug-In . SVG Version: 6.00 Build 0)  -->
<!DOCTYPE svg PUBLIC "-//W3C//DTD SVG 1.1//EN" "http://www.w3.org/Graphics/SVG/1.1/DTD/svg11.dtd">
<svg version="1.1" xmlns="http://www.w3.org/2000/svg" xmlns:xlink="http://www.w3.org/1999/xlink" x="0px" y="0px"
	 width="566.93px" height="566.93px" viewBox="0 0 566.93 566.93" enable-background="new 0 0 566.93 566.93" xml:space="preserve">
<g id="fond" display="none">
	
		<rect x="-6307.873" y="-9494.906" display="inline" fill-rule="evenodd" clip-rule="evenodd" fill="#58595B" width="15942.492" height="15814.695"/>
</g>
<g id="en_cours">
</g>
<g id="fini">
	
		<path fill="#4F5666" stroke="#000000" stroke-width="8" stroke-linecap="round" stroke-linejoin="round" stroke-miterlimit="10" d="
		M447.732,112.719c-5.799,0-10.5,4.701-10.5,10.5s4.701,10.5,10.5,10.5c3.448,0,12.449,1.249,21.522,12.814
		c10.148,12.935,22.245,41.364,22.245,103.352c0,57.32-9.429,100.373-28.024,127.962c-16.417,24.358-39.318,36.199-70.011,36.199
		v-84.879l-0.104,0.104c-2.232-47.93-41.794-86.104-90.275-86.104c-51.65,0-59.755-36.446-64.103-67.315
		c-0.035-2.069-0.175-4.112-0.418-6.124c0-0.008,0-0.015,0-0.022l-0.002,0.002c-2.129-17.542-11.957-32.707-26.004-42.022
		L178.341,70l-33.378,59.417C130.429,140.163,121,157.42,121,176.884c0,32.585,26.415,59,59,59c12.667,0,4.811,13.068,1.155,30.201
		l0.005,0.006c-0.755,3.543-1.16,7.215-1.16,10.982c0,22.304,14.884,36.586,14.884,36.586l-11.339,159.217
		c0,8.053,6.528,14.581,14.581,14.581s14.581-6.528,14.581-14.581l30-141.844c39.292,90.853,20.758,89.606,20.758,93.514
		c0,13.248,3.973,25.563,10.778,35.838h-36.162c-8.053,0-14.581,6.528-14.581,14.581s6.528,14.581,14.581,14.581h75.803
		c1.617,0,3.167-0.273,4.621-0.76c3.247,0.499,6.573,0.76,9.96,0.76c32.337,0,59.148-23.618,64.151-54.543
		c0.281,0.022,0.562,0.043,0.849,0.043c37.679,0,67.092-15.296,87.425-45.462c20.975-31.12,31.61-78.121,31.61-139.699
		C512.5,122.61,462.926,112.719,447.732,112.719z"/>
	
		<polyline fill="#4F5666" stroke="#000000" stroke-width="8" stroke-linecap="round" stroke-linejoin="round" stroke-miterlimit="10" points="
		190.464,121.508 256.302,103.867 238.661,169.705 	"/>
</g>
</svg>
