<?xml version="1.0" encoding="utf-8"?>
<!-- Generator: Adobe Illustrator 16.0.0, SVG Export Plug-In . SVG Version: 6.00 Build 0)  -->
<!DOCTYPE svg PUBLIC "-//W3C//DTD SVG 1.1//EN" "http://www.w3.org/Graphics/SVG/1.1/DTD/svg11.dtd">
<svg version="1.1" xmlns="http://www.w3.org/2000/svg" xmlns:xlink="http://www.w3.org/1999/xlink" x="0px" y="0px"
	 width="566.93px" height="566.93px" viewBox="0 0 566.93 566.93" enable-background="new 0 0 566.93 566.93" xml:space="preserve">
<g id="fond" display="none">
	
		<rect x="-9532.873" y="-10145.944" display="inline" fill-rule="evenodd" clip-rule="evenodd" fill="#58595B" width="15942.492" height="15814.695"/>
</g>
<g id="en_cours">
</g>
<g id="fini">
	<g>
		<g>
			<path fill="#FFFFFF" d="M91.452,111.036c-0.352,0-0.705-0.046-1.053-0.141c-1.379-0.377-2.452-1.46-2.815-2.842l-4.446-16.9
				c-0.364-1.382,0.037-2.853,1.053-3.858c0.759-0.753,1.775-1.159,2.815-1.159c0.352,0,0.705,0.046,1.053,0.141l16.86,4.6
				c1.379,0.377,2.452,1.46,2.815,2.842c0.364,1.382-0.037,2.854-1.053,3.859l-12.414,12.301
				C93.509,110.63,92.492,111.036,91.452,111.036z"/>
			<path d="M87.006,90.136l16.86,4.6l-12.414,12.301L87.006,90.136 M87.006,82.136c-2.081,0-4.113,0.813-5.631,2.317
				c-2.03,2.012-2.833,4.954-2.105,7.718l4.446,16.9c0.727,2.765,2.873,4.931,5.631,5.683c0.695,0.19,1.403,0.282,2.104,0.282
				c2.082,0,4.113-0.813,5.632-2.317l12.414-12.301c2.03-2.012,2.833-4.954,2.106-7.718c-0.728-2.765-2.874-4.931-5.632-5.683
				l-16.86-4.6C88.416,82.228,87.708,82.136,87.006,82.136L87.006,82.136z"/>
		</g>
		<g>
			<path fill="#FFFFFF" d="M115.971,115.5c-0.352,0-0.705-0.046-1.053-0.141c-1.379-0.377-2.452-1.46-2.815-2.842l-4.446-16.9
				c-0.364-1.382,0.037-2.854,1.053-3.859c0.759-0.752,1.775-1.158,2.815-1.158c0.352,0,0.705,0.046,1.053,0.142l16.857,4.601
				c1.379,0.376,2.452,1.459,2.815,2.841s-0.037,2.853-1.053,3.858l-12.411,12.3C118.027,115.094,117.011,115.5,115.971,115.5z"/>
			<path d="M111.524,94.6l16.857,4.601l-12.411,12.3L111.524,94.6 M111.525,86.6c-2.082,0-4.113,0.813-5.632,2.317
				c-2.03,2.012-2.833,4.954-2.105,7.718l4.446,16.9c0.727,2.765,2.873,4.931,5.631,5.683c0.695,0.189,1.403,0.282,2.105,0.282
				c2.081,0,4.113-0.813,5.631-2.317l12.412-12.3c2.029-2.013,2.832-4.954,2.105-7.718c-0.728-2.764-2.874-4.93-5.631-5.683
				l-16.857-4.601C112.936,86.692,112.227,86.6,111.525,86.6L111.525,86.6z"/>
		</g>
		<g>
			<path fill="#FFFFFF" d="M142.126,120.196c-0.352,0-0.705-0.046-1.053-0.141c-1.379-0.377-2.452-1.46-2.815-2.842l-4.446-16.9
				c-0.364-1.382,0.037-2.853,1.053-3.859c0.759-0.752,1.775-1.158,2.815-1.158c0.352,0,0.705,0.046,1.053,0.141l16.858,4.601
				c1.379,0.377,2.452,1.46,2.815,2.842c0.364,1.382-0.037,2.853-1.053,3.858l-12.412,12.3
				C144.183,119.79,143.166,120.196,142.126,120.196z"/>
			<path d="M137.68,99.296l16.858,4.601l-12.412,12.3L137.68,99.296 M137.68,91.296c-2.081,0-4.113,0.813-5.631,2.317
				c-2.03,2.012-2.833,4.954-2.105,7.718l4.445,16.9c0.728,2.765,2.874,4.931,5.632,5.683c0.695,0.19,1.403,0.282,2.104,0.282
				c2.082,0,4.114-0.813,5.632-2.317l12.412-12.3c2.03-2.012,2.833-4.954,2.106-7.718c-0.728-2.764-2.874-4.931-5.631-5.683
				l-16.858-4.601C139.09,91.388,138.383,91.296,137.68,91.296L137.68,91.296z"/>
		</g>
		
			<polyline fill="#358C5E" stroke="#000000" stroke-width="8" stroke-linecap="round" stroke-linejoin="round" stroke-miterlimit="10" points="
			199.573,235.982 193.159,247.775 178.083,239.575 158.397,245.161 168.538,249.107 159.18,257.576 172.524,257.03 
			168.523,267.415 182.848,259.68 199.003,268.466 212.767,243.157 		"/>
		
			<path fill="#358C5E" stroke="#000000" stroke-width="8" stroke-linecap="round" stroke-linejoin="round" stroke-miterlimit="10" d="
			M489.73,362.883c0,162.438-396.134,136.692-396.134-33.101c0-17.775,14.863-15.938,14.863,2.452c0,7.53,9.31,47.088,64.959,64.975
			c83.047,26.693,221.912,16.551,208.229-45.337"/>
		
			<path fill="#358C5E" stroke="#000000" stroke-width="8" stroke-linecap="round" stroke-linejoin="round" stroke-miterlimit="10" d="
			M336.406,351.73l-35.739-79.268c-31.758-12.02-67.246,3.981-79.267,35.739c-5.869,15.502-5.044,31.884,1.015,46.002l-0.016-0.006
			l0.041,0.064c2.645,6.144,6.283,11.85,10.801,16.869l40.744,63.644l-20.289,20.373l-54.825,7.825l25.421,9.397l-22.229,17.298
			l29.191-1.037l-13.852,20.962l74.184-23.909l22.754-48.648c0,0-18.725-16.629-4.632-53.86l-0.006-0.001
			C321.541,376.331,331.187,365.519,336.406,351.73z"/>
		<g>
			
				<path fill="#358C5E" stroke="#000000" stroke-width="8" stroke-linecap="round" stroke-linejoin="round" stroke-miterlimit="10" d="
				M489.73,362.883c0-224.96-210.249-93.172-229.864-209.023c-9.834-58.089-5.281-67.959-33.217-96.944l0.002-0.003
				c-1.042-1.185-2.154-2.305-3.314-3.373c-0.076-0.078-0.151-0.151-0.229-0.23c-0.217-0.216-0.449-0.413-0.69-0.603
				c-6.593-5.738-14.884-9.579-24.021-10.668L103.25,41.71c-14.388,0-26.051,11.664-26.051,26.052v18.694l98.995,26.947
				c-21.276,11.646-87.349,11.033-87.349,11.033s5.517,24.199,34.94,26.204c12.943,0.882,31.364-0.065,49.633-4.212l0.002-0.001
				c12.889-4.213,25.131,19.999,25.131,60.761c0,153.078,86.603,177.761,222.482,133.93l18.417,34.004"/>
		</g>
		
			<path fill="#358C5E" stroke="#000000" stroke-width="8" stroke-linecap="round" stroke-linejoin="round" stroke-miterlimit="10" d="
			M173.419,146.429c24.386-5.535,48.502-16.769,58.963-36.957"/>
		
			<circle fill="#AB2E23" stroke="#000000" stroke-width="8" stroke-linecap="round" stroke-linejoin="round" stroke-miterlimit="10" cx="193.051" cy="86.458" r="10.574"/>
		
			<path fill="#358C5E" stroke="#000000" stroke-width="8" stroke-linecap="round" stroke-linejoin="round" stroke-miterlimit="10" d="
			M93.597,67.89c0-6.05,4.903-10.956,10.956-10.956s10.958,4.906,10.958,10.956"/>
		<circle cx="104.553" cy="69.575" r="3.907"/>
		
			<path fill="#358C5E" stroke="#000000" stroke-width="8" stroke-linecap="round" stroke-linejoin="round" stroke-miterlimit="10" d="
			M376.703,275.144c-38.478,0-69.674,31.194-69.674,69.674c0,18.781,7.447,35.814,19.529,48.345l-0.021,0.001l0.072,0.053
			c5.267,5.451,11.413,10.039,18.212,13.545l68.711,51.108l-13.33,29.73l-51.797,13.481l25.025,7.924l-19.201,22.422l40.453-5.527
			l-4.903,25.143l62.829-46.28l4.599-60.685c0,0-26.514-10.114-26.514-55.225h-0.005c9.803-12.003,15.688-27.33,15.688-44.035"/>
		
			<polyline fill="#358C5E" stroke="#000000" stroke-width="8" stroke-linecap="round" stroke-linejoin="round" stroke-miterlimit="10" points="
			255.573,249.177 247.578,259.961 233.791,249.741 213.521,252.527 223.014,257.848 212.563,264.932 225.856,266.25 
			220.447,275.975 235.708,270.312 250.481,281.264 267.639,258.12 		"/>
	</g>
</g>
</svg>
