<?xml version="1.0" encoding="utf-8"?>
<!-- Generator: Adobe Illustrator 16.0.0, SVG Export Plug-In . SVG Version: 6.00 Build 0)  -->
<!DOCTYPE svg PUBLIC "-//W3C//DTD SVG 1.1//EN" "http://www.w3.org/Graphics/SVG/1.1/DTD/svg11.dtd">
<svg version="1.1" xmlns="http://www.w3.org/2000/svg" xmlns:xlink="http://www.w3.org/1999/xlink" x="0px" y="0px"
	 width="566.93px" height="566.93px" viewBox="0 0 566.93 566.93" enable-background="new 0 0 566.93 566.93" xml:space="preserve">
<g id="fond" display="none">
	
		<rect x="-12793.873" y="-7591.898" display="inline" fill-rule="evenodd" clip-rule="evenodd" fill="#58595B" width="15942.492" height="15814.695"/>
</g>
<g id="en_cours">
</g>
<g id="fini">
	<g>
		<g>
			
				<rect x="219.809" y="122.321" fill="#E5E2D3" stroke="#000000" stroke-width="8" stroke-linecap="round" stroke-linejoin="round" stroke-miterlimit="10" width="40.104" height="61.492"/>
			
				<polygon fill="#E5E2D3" stroke="#000000" stroke-width="8" stroke-linecap="round" stroke-linejoin="round" stroke-miterlimit="10" points="
				244.885,318.646 446.168,305.238 446.168,444.458 244.885,520.679 			"/>
			
				<polygon fill="#E5E2D3" stroke="#000000" stroke-width="8" stroke-linecap="round" stroke-linejoin="round" stroke-miterlimit="10" points="
				112.867,286.24 178.875,202.527 244.918,381.552 244.885,520.679 112.867,444.458 			"/>
			
				<polygon fill="#809EAD" stroke="#000000" stroke-width="8" stroke-linecap="round" stroke-linejoin="round" stroke-miterlimit="10" points="
				292.178,482.801 340.826,464.516 340.826,373.172 292.178,391.457 			"/>
			
				<polygon fill="#809EAD" stroke="#000000" stroke-width="8" stroke-linecap="round" stroke-linejoin="round" stroke-miterlimit="10" points="
				366.145,455.186 414.794,436.9 414.794,345.559 366.145,363.843 			"/>
			
				<polyline fill="#AB2E23" stroke="#000000" stroke-width="8" stroke-linecap="round" stroke-linejoin="round" stroke-miterlimit="10" points="
				160.1,174.01 381.904,140.968 485.381,352.691 268.757,437.261 160.1,174.01 55.832,324.619 112.867,314.816 112.867,286.24 
				174.277,208.359 			"/>
			
				<ellipse fill="#809EAD" stroke="#000000" stroke-width="8" stroke-linecap="round" stroke-linejoin="round" stroke-miterlimit="10" cx="170.793" cy="305.238" rx="12.476" ry="26.876"/>
			
				<polygon fill="#564432" stroke="#000000" stroke-width="8" stroke-linecap="round" stroke-linejoin="round" stroke-miterlimit="10" points="
				145.52,463.31 145.52,378.49 183.27,400.285 183.713,485.362 			"/>
		</g>
		<polygon fill="#AB2E23" stroke="#000000" stroke-width="8" stroke-linejoin="round" stroke-miterlimit="10" points="
			390.469,215.323 458.772,175.879 458.772,194.502 511.098,194.502 511.098,236.136 458.772,236.136 458.772,254.763 		"/>
	</g>
</g>
</svg>
