<?xml version="1.0" encoding="utf-8"?>
<!-- Generator: Adobe Illustrator 16.0.0, SVG Export Plug-In . SVG Version: 6.00 Build 0)  -->
<!DOCTYPE svg PUBLIC "-//W3C//DTD SVG 1.1//EN" "http://www.w3.org/Graphics/SVG/1.1/DTD/svg11.dtd">
<svg version="1.1" xmlns="http://www.w3.org/2000/svg" xmlns:xlink="http://www.w3.org/1999/xlink" x="0px" y="0px"
	 width="566.93px" height="566.93px" viewBox="0 0 566.93 566.93" enable-background="new 0 0 566.93 566.93" xml:space="preserve">
<g id="fond" display="none">
	
		<rect x="-13442.186" y="-9494.906" display="inline" fill-rule="evenodd" clip-rule="evenodd" fill="#58595B" width="15942.492" height="15814.695"/>
</g>
<g id="en_cours">
</g>
<g id="fini">
	<g>
		<g>
			<g>
				
					<rect x="113.764" y="295.558" fill="#4F5666" stroke="#000000" stroke-width="8" stroke-linecap="round" stroke-linejoin="round" stroke-miterlimit="10" width="339.403" height="32.892"/>
				<g>
					<g>
						<g>
							<path fill="#E5E2D3" d="M83.813,383.066c-0.649,0-1.297-0.158-1.885-0.471c-14.078-7.515-25.488-18.926-33-33
								c-0.58-1.087-0.627-2.382-0.126-3.508c0.501-1.127,1.493-1.959,2.688-2.257c12.409-3.087,12.987-13.037,12.987-31.828
								s-0.578-28.741-12.987-31.828c-1.195-0.298-2.188-1.13-2.688-2.257c-0.501-1.126-0.454-2.421,0.126-3.508
								c7.512-14.074,18.922-25.485,33-33c0.588-0.313,1.235-0.471,1.885-0.471c0.552,0,1.105,0.114,1.625,0.345
								c1.127,0.501,1.959,1.493,2.256,2.69c3.085,12.406,13.035,12.984,31.828,12.984s28.741-0.578,31.826-12.984
								c0.299-1.196,1.13-2.189,2.258-2.69c0.516-0.23,1.071-0.345,1.625-0.345c0.647,0,1.295,0.157,1.882,0.471
								c14.077,7.512,25.488,18.923,33.001,32.999c0.581,1.088,0.627,2.382,0.127,3.509c-0.501,1.126-1.493,1.959-2.689,2.257
								c-12.408,3.087-12.986,13.036-12.986,31.828s0.578,28.741,12.986,31.828c1.196,0.298,2.188,1.131,2.689,2.257
								c0.5,1.127,0.454,2.421-0.127,3.509c-7.513,14.076-18.924,25.487-33.001,32.999c-0.587,0.313-1.234,0.471-1.882,0.471
								c-0.554,0-1.109-0.114-1.625-0.345c-1.128-0.501-1.959-1.494-2.258-2.69c-3.085-12.406-13.033-12.984-31.826-12.984
								s-28.743,0.578-31.828,12.984c-0.297,1.197-1.129,2.189-2.256,2.69C84.918,382.952,84.364,383.066,83.813,383.066z"/>
							<path d="M155.23,244.939c13.309,7.103,24.251,18.045,31.354,31.354c-16.021,3.985-16.021,18.457-16.021,35.71
								c0,17.251,0,31.725,16.021,35.71c-7.104,13.309-18.046,24.251-31.354,31.354c-3.983-16.019-18.457-16.02-35.709-16.02
								s-31.727,0.001-35.709,16.02c-13.309-7.103-24.254-18.045-31.355-31.354c16.019-3.985,16.021-18.459,16.021-35.71
								c0-17.253-0.002-31.725-16.021-35.71c7.102-13.309,18.047-24.251,31.355-31.354c3.982,16.019,18.457,16.02,35.709,16.02
								S151.247,260.958,155.23,244.939 M155.23,236.939c-1.107,0-2.215,0.229-3.252,0.69c-2.253,1.002-3.918,2.986-4.513,5.38
								c-2.165,8.711-7.901,9.949-27.944,9.949c-20.044,0-25.781-1.238-27.947-9.95c-0.594-2.393-2.26-4.378-4.512-5.379
								c-1.037-0.461-2.145-0.69-3.25-0.69c-1.299,0-2.594,0.315-3.768,0.942c-14.781,7.889-26.762,19.868-34.646,34.646
								c-1.16,2.175-1.252,4.764-0.252,7.016c1.002,2.253,2.986,3.918,5.379,4.514c8.713,2.168,9.952,7.903,9.952,27.946
								s-1.239,25.778-9.952,27.946c-2.393,0.596-4.377,2.261-5.379,4.514c-1,2.252-0.908,4.841,0.252,7.016
								c7.885,14.777,19.865,26.757,34.646,34.646c1.174,0.627,2.469,0.942,3.768,0.942c1.105,0,2.213-0.229,3.25-0.69
								c2.252-1.001,3.918-2.986,4.512-5.379c2.166-8.712,7.903-9.95,27.947-9.95c20.043,0,25.779,1.238,27.944,9.949
								c0.595,2.394,2.26,4.378,4.513,5.38c1.037,0.461,2.145,0.69,3.252,0.69c1.297,0,2.592-0.315,3.766-0.942
								c14.777-7.886,26.758-19.866,34.646-34.644c1.16-2.176,1.254-4.765,0.252-7.018c-1.001-2.253-2.986-3.918-5.379-4.514
								c-8.713-2.167-9.951-7.903-9.951-27.946s1.238-25.779,9.951-27.946c2.393-0.596,4.378-2.261,5.379-4.514
								c1.002-2.253,0.908-4.842-0.252-7.018c-7.889-14.777-19.869-26.758-34.646-34.644
								C157.822,237.255,156.527,236.939,155.23,236.939L155.23,236.939z"/>
						</g>
						
							<circle fill="#AB2E23" stroke="#000000" stroke-width="8" stroke-linecap="round" stroke-linejoin="round" stroke-miterlimit="10" cx="119.521" cy="312.003" r="27.368"/>
					</g>
					<g>
						<g>
							<path fill="#E5E2D3" d="M411.701,383.066c-0.648,0-1.297-0.157-1.883-0.471c-14.078-7.513-25.489-18.924-33.002-32.999
								c-0.58-1.088-0.627-2.383-0.127-3.509c0.502-1.126,1.494-1.959,2.69-2.257c12.407-3.087,12.985-13.036,12.985-31.828
								s-0.578-28.741-12.985-31.828c-1.196-0.298-2.188-1.131-2.69-2.257c-0.5-1.126-0.453-2.421,0.127-3.509
								c7.513-14.075,18.924-25.486,33.002-32.999c0.586-0.313,1.234-0.471,1.883-0.471c0.553,0,1.107,0.114,1.625,0.345
								c1.127,0.501,1.959,1.493,2.257,2.69c3.085,12.406,13.035,12.984,31.826,12.984c18.792,0,28.741-0.578,31.827-12.985
								c0.299-1.196,1.132-2.188,2.258-2.689c0.519-0.23,1.072-0.345,1.625-0.345c0.648,0,1.296,0.158,1.883,0.471
								c14.078,7.514,25.488,18.925,33,33c0.58,1.087,0.627,2.382,0.126,3.508c-0.501,1.127-1.493,1.959-2.688,2.257
								c-12.407,3.087-12.986,13.036-12.986,31.828s0.579,28.741,12.986,31.828c1.195,0.298,2.188,1.13,2.688,2.257
								c0.501,1.126,0.454,2.421-0.126,3.508c-7.512,14.075-18.922,25.486-33,33c-0.587,0.313-1.234,0.471-1.883,0.471
								c-0.553,0-1.106-0.114-1.625-0.345c-1.126-0.501-1.959-1.493-2.258-2.689c-3.086-12.407-13.035-12.985-31.827-12.985
								c-18.791,0-28.741,0.578-31.826,12.984c-0.298,1.197-1.13,2.189-2.257,2.69C412.809,382.952,412.254,383.066,411.701,383.066
								z"/>
							<path d="M483.119,244.939c13.308,7.103,24.252,18.045,31.354,31.354c-16.02,3.985-16.02,18.457-16.02,35.71
								c0,17.251,0,31.725,16.02,35.71c-7.102,13.309-18.046,24.251-31.354,31.354c-3.985-16.019-18.457-16.02-35.71-16.02
								c-17.25,0-31.725,0.001-35.708,16.02c-13.311-7.103-24.253-18.045-31.355-31.354c16.019-3.985,16.02-18.459,16.02-35.71
								c0-17.253-0.001-31.725-16.02-35.71c7.103-13.309,18.045-24.251,31.355-31.354c3.983,16.019,18.458,16.02,35.708,16.02
								C464.662,260.959,479.134,260.958,483.119,244.939 M483.119,236.939c-1.105,0-2.213,0.229-3.25,0.689
								c-2.253,1.002-3.918,2.986-4.514,5.379c-2.168,8.713-7.903,9.951-27.946,9.951c-20.042,0-25.778-1.238-27.944-9.95
								c-0.596-2.393-2.26-4.377-4.514-5.379c-1.036-0.461-2.145-0.69-3.25-0.69c-1.297,0-2.592,0.315-3.767,0.942
								c-14.779,7.887-26.761,19.866-34.646,34.645c-1.161,2.175-1.254,4.764-0.253,7.017c1.002,2.253,2.986,3.918,5.379,4.514
								c8.713,2.167,9.951,7.903,9.951,27.946s-1.238,25.779-9.951,27.946c-2.393,0.596-4.377,2.261-5.379,4.514
								c-1.001,2.253-0.908,4.842,0.253,7.017c7.886,14.778,19.867,26.758,34.646,34.645c1.175,0.627,2.47,0.942,3.767,0.942
								c1.105,0,2.214-0.229,3.25-0.69c2.254-1.002,3.918-2.986,4.514-5.379c2.166-8.712,7.902-9.95,27.944-9.95
								c20.043,0,25.778,1.238,27.946,9.951c0.596,2.393,2.261,4.377,4.514,5.379c1.037,0.46,2.145,0.689,3.25,0.689
								c1.297,0,2.592-0.315,3.767-0.942c14.78-7.888,26.761-19.868,34.646-34.646c1.16-2.175,1.253-4.764,0.252-7.016
								c-1.002-2.253-2.986-3.918-5.379-4.514c-8.711-2.167-9.951-7.902-9.951-27.946s1.24-25.779,9.951-27.946
								c2.393-0.596,4.377-2.261,5.379-4.514c1.001-2.252,0.908-4.841-0.252-7.016c-7.885-14.777-19.865-26.758-34.646-34.646
								C485.711,237.255,484.416,236.939,483.119,236.939L483.119,236.939z"/>
						</g>
						
							<circle fill="#2268A8" stroke="#000000" stroke-width="8" stroke-linecap="round" stroke-linejoin="round" stroke-miterlimit="10" cx="447.409" cy="312.003" r="27.368"/>
					</g>
				</g>
				
					<path fill="#4F5666" stroke="#000000" stroke-width="8" stroke-linecap="round" stroke-linejoin="round" stroke-miterlimit="10" d="
					M336.733,475.991c0,29.421-106.537,29.421-106.537,0V284.264c0-29.419,23.85-53.269,53.269-53.269l0,0
					c29.419,0,53.269,23.85,53.269,53.269V475.991z"/>
			</g>
		</g>
		<polygon fill="#AB2E23" stroke="#000000" stroke-width="8" stroke-linejoin="round" stroke-miterlimit="10" points="
			447.406,272.596 489.093,200.41 469.411,200.41 469.411,145.111 425.411,145.111 425.411,200.41 405.726,200.41 		"/>
	</g>
</g>
</svg>
