<?xml version="1.0" encoding="utf-8"?>
<!-- Generator: Adobe Illustrator 16.0.0, SVG Export Plug-In . SVG Version: 6.00 Build 0)  -->
<!DOCTYPE svg PUBLIC "-//W3C//DTD SVG 1.1//EN" "http://www.w3.org/Graphics/SVG/1.1/DTD/svg11.dtd">
<svg version="1.1" xmlns="http://www.w3.org/2000/svg" xmlns:xlink="http://www.w3.org/1999/xlink" x="0px" y="0px"
	 width="566.93px" height="566.93px" viewBox="0 0 566.93 566.93" enable-background="new 0 0 566.93 566.93" xml:space="preserve">
<g id="fond" display="none">
	
		<rect x="-12155.873" y="-8861.898" display="inline" fill-rule="evenodd" clip-rule="evenodd" fill="#58595B" width="15942.492" height="15814.695"/>
</g>
<g id="en_cours">
</g>
<g id="fini">
	<g>
		<path fill="#4F5666" stroke="#000000" stroke-width="8" stroke-linejoin="round" stroke-miterlimit="10" d="M406.492,219.8v255.4
			c0,19.575-63.008,35.443-140.729,35.443c-77.725,0-140.731-15.868-140.731-35.443V219.8"/>
		<g>
			<path fill="#E5E2D3" stroke="#000000" stroke-width="8" stroke-linejoin="round" stroke-miterlimit="10" d="M395.831,233.351
				c6.864-4.175,10.661-8.751,10.661-13.551c0-19.575-63.008-35.443-140.729-35.443c-77.725,0-140.731,15.868-140.731,35.443
				c0,4.8,3.797,9.376,10.661,13.551c21.132-12.851,71.404-21.893,130.07-21.893C324.427,211.458,374.699,220.5,395.831,233.351z"/>
			<path fill="#2268A8" stroke="#000000" stroke-width="8" stroke-linejoin="round" stroke-miterlimit="10" d="M395.831,233.351
				c-21.132-12.851-71.404-21.893-130.068-21.893c-58.666,0-108.938,9.042-130.07,21.893c21.132,12.852,71.404,21.893,130.07,21.893
				C324.427,255.243,374.699,246.202,395.831,233.351z"/>
		</g>
		
			<ellipse fill="#4F5666" stroke="#000000" stroke-width="8" stroke-linejoin="round" stroke-miterlimit="10" cx="362.95" cy="304.382" rx="16.769" ry="23.833"/>
		<path fill="none" stroke="#000000" stroke-width="8" stroke-linecap="round" stroke-linejoin="round" stroke-miterlimit="10" d="
			M362.95,304.383c0,0,78.948,40.511,78.948,73.87c0,33.358-35.406,46.416-35.406,46.416"/>
	</g>
</g>
</svg>
