<?xml version="1.0" encoding="utf-8"?>
<!-- Generator: Adobe Illustrator 16.0.0, SVG Export Plug-In . SVG Version: 6.00 Build 0)  -->
<!DOCTYPE svg PUBLIC "-//W3C//DTD SVG 1.1//EN" "http://www.w3.org/Graphics/SVG/1.1/DTD/svg11.dtd">
<svg version="1.1" xmlns="http://www.w3.org/2000/svg" xmlns:xlink="http://www.w3.org/1999/xlink" x="0px" y="0px"
	 width="566.93px" height="566.93px" viewBox="0 0 566.93 566.93" enable-background="new 0 0 566.93 566.93" xml:space="preserve">
<g id="fond" display="none">
	
		<rect x="-13442.186" y="-10799.898" display="inline" fill-rule="evenodd" clip-rule="evenodd" fill="#58595B" width="15942.492" height="15814.695"/>
</g>
<g id="en_cours">
</g>
<g id="fini">
	<g>
		<polygon fill="#E5E2D3" stroke="#000000" stroke-width="8" stroke-linejoin="round" stroke-miterlimit="10" points="
			261.053,397.779 261.053,98.047 420.078,189.86 420.078,489.593 		"/>
		<polygon fill="#E5E2D3" stroke="#000000" stroke-width="8" stroke-linejoin="round" stroke-miterlimit="10" points="
			251.351,407.779 251.351,108.047 410.376,199.86 410.376,499.593 		"/>
		<polygon fill="#E5E2D3" stroke="#000000" stroke-width="8" stroke-linejoin="round" stroke-miterlimit="10" points="
			241.649,417.779 241.649,118.047 400.674,209.86 400.674,509.593 		"/>
		<polygon fill="#E5E2D3" stroke="#000000" stroke-width="8" stroke-linejoin="round" stroke-miterlimit="10" points="
			231.947,427.779 231.947,128.047 390.973,219.86 390.973,519.593 		"/>
		<polygon fill="#E5E2D3" stroke="#000000" stroke-width="8" stroke-linejoin="round" stroke-miterlimit="10" points="
			222.245,437.779 222.245,138.047 381.271,229.86 381.271,529.593 		"/>
		<path fill="#FFFFFF" stroke="#000000" stroke-width="8" stroke-linejoin="round" stroke-miterlimit="10" d="M106.852,402.808
			c0,0,55.018-39.689,85.086-129.162c19.343-57.564,20.606-125.599,20.606-125.599l159.024,91.813c0,0-4.021,76.238-20.407,125.001
			c-30.711,91.39-75.284,149.76-75.284,149.76L106.852,402.808z"/>
		<polygon fill="#AB2E23" stroke="#000000" stroke-width="8" stroke-linejoin="round" stroke-miterlimit="10" points="
			212.544,103.757 212.544,159.757 367.098,254.151 420.078,223.563 420.078,167.563 367.098,198.151 		"/>
		<polygon fill="#AB2E23" stroke="#000000" stroke-width="8" stroke-linejoin="round" stroke-miterlimit="10" points="
			261.053,75.75 212.544,103.757 367.098,198.151 420.078,167.563 		"/>
		<text transform="matrix(0.4496 0.2728 -0.3797 0.9251 180.1533 369.5234)" font-family="'Ubuntu-Bold'" font-size="201.1552">08</text>
	</g>
</g>
</svg>
