<?xml version="1.0" encoding="utf-8"?>
<!-- Generator: Adobe Illustrator 16.0.0, SVG Export Plug-In . SVG Version: 6.00 Build 0)  -->
<!DOCTYPE svg PUBLIC "-//W3C//DTD SVG 1.1//EN" "http://www.w3.org/Graphics/SVG/1.1/DTD/svg11.dtd">
<svg version="1.1" xmlns="http://www.w3.org/2000/svg" xmlns:xlink="http://www.w3.org/1999/xlink" x="0px" y="0px"
	 width="566.93px" height="566.93px" viewBox="0 0 566.93 566.93" enable-background="new 0 0 566.93 566.93" xml:space="preserve">
<g id="fond" display="none">
	
		<rect x="-10187.873" y="-8861.898" display="inline" fill-rule="evenodd" clip-rule="evenodd" fill="#58595B" width="15942.492" height="15814.695"/>
</g>
<g id="en_cours">
</g>
<g id="fini">
	<g>
		
			<circle fill-rule="evenodd" clip-rule="evenodd" fill="#809EAD" stroke="#000000" stroke-width="8" stroke-linejoin="round" stroke-miterlimit="10" cx="268.505" cy="318.829" r="177"/>
		<g>
			<g>
				<path fill="#AB2E23" d="M263.306,332.378l12.93-14.043c75.575-75.576,15.678-106.699-20.242-142.617
					c43.173,64.78,17.711,86.097,17.711,129.563l-12.93,14.044c-75.575,75.575-15.678,106.698,20.242,142.617
					C237.844,397.16,263.306,375.844,263.306,332.378z"/>
				<path fill="#2268A8" d="M255.993,175.718c5.179,12.923,5.95,23.412,4.467,32.673c-0.639,3.98-1.698,7.731-3.001,11.353
					c-5.963,16.579-17.104,30.403-17.104,50.632c0,16.557,4.883,33.413,20.419,48.949l12.93-14.044
					C273.704,261.814,299.166,240.498,255.993,175.718z"/>
				<path fill="#2268A8" d="M276.55,429.268c0.638-3.98,1.698-7.731,3.001-11.353c5.962-16.579,17.104-30.403,17.104-50.632
					c0-16.557-4.883-33.413-20.419-48.948l-12.93,14.043c0,43.466-25.462,64.782,17.711,129.563
					C275.838,449.018,275.064,438.529,276.55,429.268z"/>
			</g>
			<g>
				
					<path fill-rule="evenodd" clip-rule="evenodd" fill="none" stroke="#000000" stroke-width="8" stroke-linecap="round" stroke-linejoin="round" stroke-miterlimit="10" d="
					M255.993,175.718c43.173,64.78,17.711,86.097,17.711,129.563"/>
				
					<path fill-rule="evenodd" clip-rule="evenodd" fill="none" stroke="#000000" stroke-width="8" stroke-linecap="round" stroke-linejoin="round" stroke-miterlimit="10" d="
					M276.235,318.335c15.536,15.535,20.419,32.392,20.419,48.948c0,34.927-33.23,50.748-15.638,94.658
					c-35.92-35.919-95.817-67.042-20.242-142.617c12.897-12.897,22.433-23.766,27.226-39.94"/>
				
					<path fill-rule="evenodd" clip-rule="evenodd" fill="none" stroke="#000000" stroke-width="8" stroke-linecap="round" stroke-linejoin="round" stroke-miterlimit="10" d="
					M249.01,358.274c4.793-16.175,14.328-27.043,27.226-39.939c75.575-75.576,15.678-106.699-20.242-142.617
					c17.593,43.909-15.638,59.73-15.638,94.657c0,16.557,4.883,33.413,20.419,48.949"/>
				
					<path fill-rule="evenodd" clip-rule="evenodd" fill="none" stroke="#000000" stroke-width="8" stroke-linecap="round" stroke-linejoin="round" stroke-miterlimit="10" d="
					M281.017,461.941c-43.173-64.781-17.711-86.098-17.711-129.563"/>
			</g>
		</g>
		<circle fill="#FFFFFF" cx="348.564" cy="201.719" r="18.481"/>
	</g>
</g>
</svg>
