<?xml version="1.0" encoding="utf-8"?>
<!-- Generator: Adobe Illustrator 16.0.0, SVG Export Plug-In . SVG Version: 6.00 Build 0)  -->
<!DOCTYPE svg PUBLIC "-//W3C//DTD SVG 1.1//EN" "http://www.w3.org/Graphics/SVG/1.1/DTD/svg11.dtd">
<svg version="1.1" xmlns="http://www.w3.org/2000/svg" xmlns:xlink="http://www.w3.org/1999/xlink" x="0px" y="0px"
	 width="340.157px" height="566.93px" viewBox="0 0 340.157 566.93" enable-background="new 0 0 340.157 566.93"
	 xml:space="preserve">
<g id="fond" display="none">
	
		<rect x="-5507.259" y="-9178" display="inline" fill-rule="evenodd" clip-rule="evenodd" fill="#58595B" width="16654.492" height="16572.797"/>
</g>
<g id="en_cours">
</g>
<g id="fini">
	<g>
		<path d="M129.584,435.322c-9.345,0-17.542-1.484-24.586-4.45c-7.047-2.965-12.981-7.12-17.8-12.46
			c-4.822-5.34-8.42-11.681-10.792-19.023c-2.375-7.342-3.56-15.464-3.56-24.363c0-8.9,1.297-17.056,3.894-24.475
			c2.593-7.416,6.265-13.83,11.014-19.246c4.745-5.413,10.568-9.641,17.466-12.683c6.897-3.038,14.574-4.562,23.029-4.562
			c5.19,0,10.381,0.445,15.575,1.335c5.19,0.891,10.159,2.302,14.907,4.228l-4.672,17.578c-3.115-1.481-6.713-2.671-10.791-3.561
			c-4.082-0.89-8.42-1.335-13.016-1.335c-11.57,0-20.435,3.637-26.588,10.902c-6.157,7.27-9.234,17.876-9.234,31.817
			c0,6.229,0.702,11.941,2.114,17.132c1.408,5.194,3.633,9.645,6.675,13.351c3.039,3.709,6.932,6.563,11.681,8.566
			c4.746,2.002,10.531,3.003,17.355,3.003c5.486,0,10.458-0.518,14.907-1.558c4.45-1.035,7.934-2.148,10.458-3.337l2.893,17.354
			c-1.189,0.744-2.893,1.446-5.118,2.114c-2.225,0.667-4.749,1.258-7.565,1.779c-2.819,0.519-5.823,0.964-9.011,1.335
			C135.626,435.135,132.55,435.322,129.584,435.322z"/>
		<path d="M173.861,432.652V263.554l20.692-3.56v59.185c3.855-1.481,7.972-2.632,12.349-3.449c4.374-0.813,8.712-1.224,13.016-1.224
			c9.195,0,16.833,1.3,22.917,3.894c6.08,2.597,10.937,6.23,14.573,10.902c3.633,4.673,6.192,10.273,7.676,16.799
			c1.481,6.529,2.225,13.722,2.225,21.582v64.97h-20.692v-60.52c0-7.12-0.483-13.2-1.446-18.245
			c-0.966-5.041-2.559-9.122-4.784-12.237c-2.225-3.114-5.194-5.374-8.9-6.786c-3.709-1.408-8.309-2.113-13.795-2.113
			c-2.225,0-4.526,0.149-6.897,0.444c-2.375,0.3-4.638,0.633-6.786,1.002c-2.152,0.372-4.082,0.778-5.785,1.224
			c-1.707,0.444-2.931,0.816-3.671,1.112v96.119H173.861z"/>
	</g>
	<g>
		<path d="M326.2,262.705c0,1.634,0,3.226,0,4.783s-0.076,3.08-0.222,4.562c-0.595,7.714-2.302,15.317-5.118,22.806
			c-2.819,7.492-6.23,14.573-10.235,21.249l-16.02-5.118c3.115-6.675,5.451-13.312,7.009-19.913
			c1.558-6.599,2.336-12.794,2.336-18.579c0-1.48-0.039-3.076-0.111-4.783c-0.077-1.704-0.188-3.372-0.334-5.006H326.2z"/>
	</g>
</g>
</svg>
