<?xml version="1.0" encoding="utf-8"?>
<!-- Generator: Adobe Illustrator 16.0.0, SVG Export Plug-In . SVG Version: 6.00 Build 0)  -->
<!DOCTYPE svg PUBLIC "-//W3C//DTD SVG 1.1//EN" "http://www.w3.org/Graphics/SVG/1.1/DTD/svg11.dtd">
<svg version="1.1" xmlns="http://www.w3.org/2000/svg" xmlns:xlink="http://www.w3.org/1999/xlink" x="0px" y="0px"
	 width="566.93px" height="566.93px" viewBox="0 0 566.93 566.93" enable-background="new 0 0 566.93 566.93" xml:space="preserve">
<g id="fond" display="none">
	
		<rect x="-7607.873" y="-10145.944" display="inline" fill-rule="evenodd" clip-rule="evenodd" fill="#58595B" width="15942.492" height="15814.695"/>
</g>
<g id="en_cours">
</g>
<g id="fini">
	<g>
		<path fill="#CCAC6C" d="M374.563,168.887l-21.927-5.139l0.928-11.583l2.331-29.117c1.168-14.589-9.712-27.364-24.303-28.535
			l-0.284-0.02c-14.592-1.172-27.369,9.71-28.54,24.302l-2.237,27.966c-1.882,0.801-3.659,1.816-5.303,3.021l-2.694-39.856
			c-0.986-14.57-12.938-25.626-26.694-24.697l-0.27,0.021c-13.759,0.928-24.113,13.492-23.131,28.063l4.976,73.566l-5.598-60.161
			c-1.36-14.603-13.084-25.452-26.185-24.234l-0.259,0.025c-13.104,1.218-22.626,14.044-21.267,28.649l6.97,74.916l-9.162-46.829
			c-2.308-11.983-13.893-19.827-25.876-17.522l-0.235,0.047c-11.594,2.23-19.286,13.15-17.688,24.71l-0.038-0.086
			C153.604,214.691,166.199,315,166.199,315s6.456,46.006,44.159,68.656l-8.98,158.101l161.107-1.188
			c0,0-18.048-127.428-18.048-149.744c0-22.317,45.285-50.286,45.285-72.447C389.723,294.804,419.484,177.416,374.563,168.887z"/>
		
			<line fill="#CCAC6C" stroke="#000000" stroke-width="8" stroke-linecap="round" stroke-linejoin="round" stroke-miterlimit="10" x1="211.313" y1="366.841" x2="201.378" y2="541.757"/>
		
			<path fill="#CCAC6C" stroke="#000000" stroke-width="8" stroke-linecap="round" stroke-linejoin="round" stroke-miterlimit="10" d="
			M248.787,201.63c1.358,14.607-8.163,27.432-21.268,28.648l-0.259,0.025c-13.102,1.22-24.826-9.63-26.184-24.23l-6.97-74.916
			c-1.359-14.605,8.163-27.432,21.267-28.649l0.259-0.025c13.101-1.218,24.824,9.632,26.185,24.234L248.787,201.63z"/>
		
			<path fill="#CCAC6C" stroke="#000000" stroke-width="8" stroke-linecap="round" stroke-linejoin="round" stroke-miterlimit="10" d="
			M297.588,184.668c0.985,14.571-9.37,27.136-23.129,28.065l-0.272,0.021c-13.755,0.93-25.707-10.128-26.691-24.695l-5.056-74.748
			c-0.982-14.571,9.372-27.136,23.131-28.063l0.27-0.021c13.757-0.929,25.708,10.127,26.694,24.697L297.588,184.668z"/>
		
			<path fill="#CCAC6C" stroke="#000000" stroke-width="8" stroke-linecap="round" stroke-linejoin="round" stroke-miterlimit="10" d="
			M349.902,197.897c-1.168,14.592-13.943,25.473-28.536,24.304l-0.286-0.021c-14.59-1.169-25.47-13.944-24.301-28.532l5.989-74.854
			c1.171-14.592,13.948-25.474,28.54-24.302l0.284,0.02c14.591,1.171,25.471,13.946,24.303,28.535L349.902,197.897z"/>
		
			<path fill="#CCAC6C" stroke="#000000" stroke-width="8" stroke-linecap="round" stroke-linejoin="round" stroke-miterlimit="10" d="
			M148.078,166.393C153.604,214.691,166.199,315,166.199,315s10.651,75.98,84.589,80.729"/>
		
			<path fill="#CCAC6C" stroke="#000000" stroke-width="8" stroke-linecap="round" stroke-linejoin="round" stroke-miterlimit="10" d="
			M203.751,220.721c2.309,11.984-5.537,23.571-17.521,25.876l-0.234,0.048c-11.985,2.306-23.57-5.538-25.878-17.522l-11.836-61.477
			c-2.309-11.984,5.538-23.571,17.522-25.877l0.235-0.047c11.983-2.305,23.568,5.539,25.876,17.522L203.751,220.721z"/>
		
			<path fill="#CCAC6C" stroke="#000000" stroke-width="8" stroke-linecap="round" stroke-linejoin="round" stroke-miterlimit="10" d="
			M362.485,540.569c0,0-18.048-127.428-18.048-149.744c0-22.317,47.511-41.903,54.951-92.204
			c13.015-87.98,25.611-121.205-24.825-129.734l-58.814-13.784c-14.388-2.685-28.229,6.8-30.92,21.188l-0.049,0.281
			c-2.689,14.391,6.796,28.234,21.188,30.923l46.919,12.76l-24.038,30.239c0,0-68.464,18.678-68.464,55.008"/>
		
			<line fill="#CCAC6C" stroke="#000000" stroke-width="8" stroke-linecap="round" stroke-linejoin="round" stroke-miterlimit="10" x1="260.385" y1="425.806" x2="260.385" y2="478.044"/>
	</g>
</g>
</svg>
