<?xml version="1.0" encoding="utf-8"?>
<!-- Generator: Adobe Illustrator 16.0.0, SVG Export Plug-In . SVG Version: 6.00 Build 0)  -->
<!DOCTYPE svg PUBLIC "-//W3C//DTD SVG 1.1//EN" "http://www.w3.org/Graphics/SVG/1.1/DTD/svg11.dtd">
<svg version="1.1" xmlns="http://www.w3.org/2000/svg" xmlns:xlink="http://www.w3.org/1999/xlink" x="0px" y="0px"
	 width="566.93px" height="566.93px" viewBox="0 0 566.93 566.93" enable-background="new 0 0 566.93 566.93" xml:space="preserve">
<g id="fond" display="none">
	
		<rect x="-11509.055" y="-8861.898" display="inline" fill-rule="evenodd" clip-rule="evenodd" fill="#58595B" width="15942.492" height="15814.695"/>
</g>
<g id="en_cours">
</g>
<g id="fini">
	<g>
		
			<path fill="#EF840F" stroke="#000000" stroke-width="8" stroke-linecap="round" stroke-linejoin="round" stroke-miterlimit="10" d="
			M256.83,430.232c-2.322-71.873-15.516-160.397-45.512-226.232c-6.879-15.321-23.5-33-52.5-33c-43,0-46.668-48.003-17.758-64.48
			c24.518-13.972,61.725,3.679,78.086,22.028c26.181,29.366,35.277,72.024,41.025,109.838c6.108,40.189,7.896,80.912,8.197,121.519
			c0.127,17.082-0.072,34.178-0.541,51.254c-0.166,6.032-0.371,12.063-0.564,18.094C267.048,436.053,257.129,437.521,256.83,430.232
			z"/>
		
			<path fill="#EF840F" stroke="#000000" stroke-width="8" stroke-linecap="round" stroke-linejoin="round" stroke-miterlimit="10" d="
			M272.73,430.197c6.281-85.722-6.295-172.746,8.684-257.9c6.967-39.602,21.449-75.535,46.047-107.481
			c21.618-28.103,55.01-59.568,92.023-36.165c19.106,12.082,28.488,35.67,22.917,57.567c-6.25,24.563-25.727,34.66-48.442,40.146
			c-36.84,8.896-61.069,41.604-75.408,74.804c-15.213,35.216-24.225,72.776-29.648,110.677c-3.553,25.955-5.857,52.011-6.461,78.208
			c-0.275,11.981-0.193,23.988,0.436,35.96C283.332,434.705,271.996,439.781,272.73,430.197z"/>
		
			<path fill="#EF840F" stroke="#000000" stroke-width="8" stroke-linecap="round" stroke-linejoin="round" stroke-miterlimit="10" d="
			M286.252,425.358c-4.341-43.37,6.579-85.257,43.454-111.827c21.232-15.297,105.776-52.764,110.63-1.08
			c2.313,24.598-21.688,35.342-42.037,28.618c-16.568-4.982-33.818-4.67-50.334,0.42c-21.76,6.312-39.104,25.655-45.691,47.001
			c-2.462,8.137-4.227,16.284-5.059,24.764c-0.302,3.082,0.933,9.398-0.563,11.825C296.467,431.508,286.771,431.672,286.252,425.358
			z"/>
		
			<path fill="#EF840F" stroke="#000000" stroke-width="8" stroke-linecap="round" stroke-linejoin="round" stroke-miterlimit="10" d="
			M239.84,425.262c1.674-36.881-4.908-80.662-28.465-110.625c-9.692-12.33-22.68-20.709-38.708-17.934
			c-19.241,5.197-39.983-13.466-26.212-32.568c10.574-14.664,31.848-7.652,45.252-1.647c21.617,10.366,35.272,30.038,43.195,52.137
			c7.902,21.488,10.592,44.886,12.188,67.599c0.998,11.655,1.282,23.388,1.75,35.073c0.061,2.26,1.246,8.923-0.798,11.274
			C245.139,431.91,239.656,429.563,239.84,425.262z"/>
		
			<path fill="#EF840F" stroke="#000000" stroke-width="8" stroke-linecap="round" stroke-linejoin="round" stroke-miterlimit="10" d="
			M343.285,248.322c8.727-33.759,40.109-57.223,73.307-63.613c12.422-2.264,24.643-3.02,37.254-2.664
			c16.705,0.471,27.484,20.255,14.129,32.882c-8.791,8.311-18.684,4.006-28.627,1.745c-13.271-3.008-26.325-3.475-39.811-1.528
			c-16.432,3.023-31.4,11.85-42.234,24.526C355.279,242.038,345.229,260.233,343.285,248.322z"/>
		
			<path fill="#564432" stroke="#000000" stroke-width="8" stroke-linecap="round" stroke-linejoin="round" stroke-miterlimit="10" d="
			M454.973,501.984L322.983,368.772c-11.141,14.604-28.718,24.033-48.503,24.033c-19.786,0-37.363-9.43-48.506-24.034
			L92.763,501.984"/>
		<circle fill="#FFFFFF" cx="409.008" cy="100.567" r="11.583"/>
		<circle fill="#FFFFFF" cx="175.675" cy="150.567" r="11.583"/>
		<circle fill="#FFFFFF" cx="404.877" cy="329.565" r="6.801"/>
		<circle fill="#FFFFFF" cx="173.485" cy="284.334" r="6.405"/>
		<circle fill="#FFFFFF" cx="446.91" cy="207.217" r="5.218"/>
	</g>
	<polygon fill="#AB2E23" stroke="#000000" stroke-width="8" stroke-linejoin="round" stroke-miterlimit="10" points="
		161.252,143.405 89.064,101.72 89.064,121.401 33.766,121.401 33.766,165.401 89.064,165.401 89.064,185.087 	"/>
</g>
</svg>
