<?xml version="1.0" encoding="utf-8"?>
<!-- Generator: Adobe Illustrator 16.0.0, SVG Export Plug-In . SVG Version: 6.00 Build 0)  -->
<!DOCTYPE svg PUBLIC "-//W3C//DTD SVG 1.1//EN" "http://www.w3.org/Graphics/SVG/1.1/DTD/svg11.dtd">
<svg version="1.1" xmlns="http://www.w3.org/2000/svg" xmlns:xlink="http://www.w3.org/1999/xlink" x="0px" y="0px"
	 width="566.93px" height="566.93px" viewBox="0 0 566.93 566.93" enable-background="new 0 0 566.93 566.93" xml:space="preserve">
<g id="fond" display="none">
	
		<rect x="-5393.873" y="-8544.855" display="inline" fill-rule="evenodd" clip-rule="evenodd" fill="#58595B" width="16654.492" height="16572.797"/>
</g>
<g id="en_cours">
</g>
<g id="fini">
	<g>
		<g>
			
				<path fill="#E5E2D3" stroke="#000000" stroke-width="8" stroke-linecap="round" stroke-linejoin="round" stroke-miterlimit="10" d="
				M324.741,515.083c-9.575,13.681-226.979-15.577-226.488-29.497c4.546-128.801,48.439-297.05,57.152-305.764
				c8.713-8.713,58.908-40.724,58.908-40.724l105.682,11.547l36.568,60.62c0,0-6.422,136.377,18.184,240.176
				C381.276,478.986,335.348,499.932,324.741,515.083z"/>
		</g>
		
			<polygon fill="#E5E2D3" stroke="#000000" stroke-width="8" stroke-linecap="round" stroke-linejoin="round" stroke-miterlimit="10" points="
			214.313,139.099 230.792,211.266 319.995,150.646 		"/>
		
			<line fill="#E5E2D3" stroke="#000000" stroke-width="8" stroke-linecap="round" stroke-linejoin="round" stroke-miterlimit="10" x1="236.815" y1="162.396" x2="264.887" y2="164.67"/>
		<g>
			<defs>
				<path id="SVGID_7_" d="M324.741,515.083c-9.575,13.681-226.979-15.577-226.488-29.497
					c4.546-128.801,48.439-297.05,57.152-305.764c8.713-8.713,58.908-40.724,58.908-40.724l105.682,11.547l36.568,60.62
					c0,0-6.422,136.377,18.184,240.176C381.276,478.986,335.348,499.932,324.741,515.083z"/>
			</defs>
			<clipPath id="SVGID_1_">
				<use xlink:href="#SVGID_7_"  overflow="visible"/>
			</clipPath>
			<g clip-path="url(#SVGID_1_)">
				<g>
					<path fill="#564432" d="M274.405,368.933c-3.777,0-6.85-2.939-6.85-6.552c0-3.613,3.073-6.553,6.85-6.553
						s6.85,2.939,6.85,6.553C281.255,365.993,278.183,368.933,274.405,368.933z"/>
					<path d="M274.405,359.828c1.574,0,2.85,1.143,2.85,2.553c0,1.409-1.276,2.552-2.85,2.552s-2.85-1.143-2.85-2.552
						C271.555,360.971,272.831,359.828,274.405,359.828 M274.405,351.828c-5.982,0-10.85,4.734-10.85,10.553
						s4.868,10.552,10.85,10.552s10.85-4.733,10.85-10.552S280.388,351.828,274.405,351.828L274.405,351.828z"/>
				</g>
				<g>
					<path fill="#564432" d="M241.835,362.813c-3.327,0-5.932-2.979-5.932-6.782s2.605-6.782,5.932-6.782s5.932,2.979,5.932,6.782
						S245.162,362.813,241.835,362.813z"/>
					<path d="M241.835,353.248c1.067,0,1.932,1.245,1.932,2.782c0,1.536-0.865,2.782-1.932,2.782s-1.932-1.246-1.932-2.782
						C239.903,354.493,240.769,353.248,241.835,353.248 M241.835,345.248c-5.569,0-9.932,4.736-9.932,10.782
						s4.363,10.782,9.932,10.782s9.932-4.736,9.932-10.782S247.405,345.248,241.835,345.248L241.835,345.248z"/>
				</g>
				<g>
					<path fill="#564432" d="M181.147,351.156c-6.669,0-7.187-3.745-7.187-4.894c0-1.147,0.518-4.893,7.187-4.893
						s7.187,3.745,7.187,4.893C188.334,347.411,187.816,351.156,181.147,351.156z"/>
					<path d="M181.147,345.37c1.76,0,3.187,0.399,3.187,0.893s-1.427,0.894-3.187,0.894s-3.187-0.4-3.187-0.894
						S179.387,345.37,181.147,345.37 M181.147,337.37c-8.831,0-11.187,5.59-11.187,8.893c0,3.304,2.356,8.894,11.187,8.894
						s11.187-5.59,11.187-8.894C192.334,342.96,189.978,337.37,181.147,337.37L181.147,337.37z"/>
				</g>
				<g>
					<path fill="#564432" d="M348.534,335.538c-3.94,0-6.8-2.257-6.8-5.366s2.86-5.366,6.8-5.366s6.8,2.257,6.8,5.366
						S352.474,335.538,348.534,335.538z"/>
					<path d="M348.534,328.806c1.546,0,2.8,0.611,2.8,1.366c0,0.754-1.253,1.366-2.8,1.366s-2.8-0.612-2.8-1.366
						C345.734,329.417,346.988,328.806,348.534,328.806 M348.534,320.806c-6.157,0-10.8,4.026-10.8,9.366s4.643,9.366,10.8,9.366
						s10.8-4.026,10.8-9.366S354.691,320.806,348.534,320.806L348.534,320.806z"/>
				</g>
				<g>
					<path fill="#564432" d="M133.89,522.635c-0.603-0.016-1.195-0.169-1.731-0.446l-63.333-32.826
						c-1.638-0.85-2.482-2.709-2.045-4.501l39.727-162.665c0.438-1.791,2.042-3.051,3.886-3.051c4.752,0,6.953,5.434,7.551,11.477
						c1.514,0.368,2.934,1.01,4.19,1.892c2.058-1.442,4.587-2.256,7.199-2.256c0.707,0,1.409,0.058,2.101,0.172
						c0.473-0.114,0.956-0.172,1.447-0.172c2.172,0,4.146,1.136,5.529,3.058c1.323-1.951,3.127-3.058,5.256-3.058
						c3.604,0,6.279,3.172,7.259,8.239c2.658-3.18,6.959-5.249,11.805-5.249c8.052,0,14.604,5.716,14.604,12.742
						c0,1.21-0.201,2.417-0.589,3.578c0.104,0.193,0.202,0.388,0.295,0.585c0.306-0.018,0.613-0.026,0.92-0.026
						c0.262,0,0.526,0.007,0.791,0.021c1.564-1.493,3.528-2.335,5.583-2.335c4.575,0,8.251,3.972,8.899,9.31
						c1.032-0.852,2.212-1.585,3.511-2.177c0.562-4.021,4.17-7.133,8.523-7.133c4.496,0,8.197,3.32,8.568,7.534
						c2.832-3.244,7.082-5.22,11.73-5.22c5.9,0,11.236,3.286,13.74,8.231c1.952,0.594,3.689,1.558,5.086,2.827
						c0.11,0.027,0.221,0.056,0.331,0.085c1.176-3.725,4.968-6.458,9.451-6.458c4.039,0,7.517,2.219,9.026,5.382
						c1.104-0.313,2.276-0.478,3.468-0.478c2.642,0,5.081,0.789,6.958,2.13c0.962-0.511,1.991-0.813,3.061-0.893
						c0.269-4.287,3.447-7.683,7.315-7.683c0.215,0,0.429,0.011,0.64,0.031c1.504-3.351,4.181-5.49,7.36-5.49
						c2.515,0,4.715,1.338,6.269,3.556c0.815-0.411,1.724-0.636,2.731-0.636c1.176,0,3.451,0.384,5.346,2.979
						c0.483-0.576,1.028-1.098,1.626-1.553c-0.416-1.259-0.64-2.629-0.64-4.046c0-5.955,3.808-10.619,8.669-10.619
						c4.861,0,8.668,4.664,8.668,10.619c0,0.979-0.103,1.924-0.298,2.821c0.909-0.135,1.833-0.202,2.767-0.202
						c0.635,0,1.28,0.034,1.929,0.102c0.348-0.13,0.706-0.241,1.073-0.336c-0.649-1.18-1.003-2.486-1.003-3.845
						c0-5.136,4.83-9.159,10.995-9.159c1.354,0,2.643,0.193,3.83,0.551c1.399-2.833,4.406-4.797,7.882-4.797
						c3.059,0,5.755,1.521,7.311,3.816l7.273-4.903c0.669-0.451,1.45-0.684,2.237-0.684c0.456,0,0.915,0.078,1.354,0.236
						c1.2,0.433,2.122,1.41,2.482,2.634l38.666,131.334c0.462,1.567-0.077,3.258-1.359,4.271l-72.667,57.333
						c-0.707,0.557-1.58,0.859-2.478,0.859C334.63,528.145,133.89,522.635,133.89,522.635z"/>
					<path d="M110.394,323.146c2.058,0,3.726,4.975,3.726,11.112c0,0.012,0,0.023,0,0.036c0.254-0.022,0.51-0.036,0.771-0.036
						c2.666,0,5.029,1.177,6.531,2.993c0.079,0,0.156-0.003,0.235-0.003c0.405,0,0.799,0.012,1.187,0.028
						c1.453-1.825,3.815-3.019,6.491-3.019c0.831,0,1.633,0.115,2.387,0.328c0.364-0.209,0.754-0.328,1.161-0.328
						c1.419,0,2.64,1.381,3.208,3.372c0.784,1.119,1.245,2.441,1.245,3.864c0,0.561-0.077,1.104-0.211,1.629
						c1.052,0.114,2.03,0.338,2.893,0.646c-0.008-0.243-0.016-0.486-0.016-0.734c0-4.848,1.642-8.777,3.667-8.777
						c2.025,0,3.667,3.93,3.667,8.777c0,2.176-0.333,4.163-0.88,5.696c0.014,0,0.028-0.001,0.042-0.001
						c0.542,0,1.069,0.027,1.585,0.07c0.764-0.992,2.041-1.645,3.49-1.645c0.23,0,0.452,0.029,0.672,0.061
						c-0.068-0.402-0.116-0.81-0.116-1.227c0-4.828,4.748-8.742,10.603-8.742c5.856,0,10.604,3.914,10.604,8.742
						c0,1.422-0.42,2.759-1.15,3.945c1.151,1.372,1.867,3.017,1.998,4.798c1.184-0.386,2.452-0.606,3.779-0.606
						c0.86,0,1.694,0.096,2.5,0.263c0.917-1.572,2.311-2.577,3.874-2.577c2.762,0,5,3.134,5,7c0,0.272-0.014,0.541-0.036,0.806
						c2.011,1.054,3.369,3.037,3.369,5.314c0,0.329-0.037,0.65-0.091,0.966c0.037-0.003,0.076-0.005,0.113-0.008
						c0.005-0.114,0.012-0.229,0.023-0.342c-0.027-0.131-0.045-0.265-0.045-0.4c0-0.433,0.15-0.845,0.412-1.227
						c1.049-2.954,4.065-5.311,7.951-6.229c-0.233-0.507-0.363-1.064-0.363-1.649c0-2.337,2.059-4.23,4.599-4.23
						c2.54,0,4.599,1.894,4.599,4.23c0,0.699-0.202,1.349-0.529,1.93c2.283,0.719,4.194,1.954,5.497,3.503
						c1.437-4.26,5.697-7.349,10.731-7.349c5.16,0,9.499,3.249,10.825,7.673c2.525,0.358,4.673,1.49,5.99,3.048
						c2.838,0.482,5.333,1.78,7.159,3.596c1.659,0.079,3.237,0.351,4.685,0.788c-0.021-0.197-0.051-0.392-0.051-0.596
						c0-0.005,0.001-0.011,0.001-0.016c0,0-0.001,0-0.001,0c-3.219,0-5.828-2.195-5.828-4.903c0-2.709,2.609-4.904,5.828-4.904
						s5.828,2.195,5.828,4.904c0,0.143-0.011,0.283-0.025,0.424c0.598,0.314,1.11,0.801,1.519,1.395
						c1.223-1.109,3.085-1.818,5.173-1.818c3.222,0,5.909,1.686,6.531,3.927c1.089-1.685,2.505-2.711,4.057-2.711
						c1.264,0,2.439,0.68,3.42,1.841c0.702-0.475,1.489-0.87,2.342-1.172c-1.357-0.54-2.35-2.143-2.35-4.06
						c0-2.358,1.493-4.271,3.333-4.271s3.333,1.912,3.333,4.271c0,1.411-0.541,2.653-1.365,3.431c0.326-0.026,0.657-0.04,0.992-0.04
						c0.509,0,1.006,0.04,1.494,0.101c-0.698-1.401-1.122-3.217-1.122-5.205c0-4.427,2.089-8.016,4.667-8.016
						c2.577,0,4.667,3.589,4.667,8.016c0,3.309-1.167,6.147-2.832,7.372c0.976,0.776,1.733,1.723,2.222,2.771
						c0.229-0.193,0.467-0.373,0.71-0.543c-0.063-0.485-0.1-0.983-0.1-1.495c0-0.345,0.02-0.683,0.049-1.016
						c-0.029-0.499-0.049-1.005-0.049-1.523c0-5.889,1.94-10.662,4.333-10.662c1.708,0,3.181,2.438,3.887,5.973
						c1.5,1.086,2.616,3.092,2.982,5.504h0.171c-0.025-0.197-0.04-0.396-0.04-0.599c0-0.919,0.268-1.784,0.736-2.543
						c-0.468-0.86-0.736-1.849-0.736-2.899c0-3.337,2.685-6.041,5.997-6.041c0.023,0,0.045,0.003,0.068,0.004
						c-1.611-1.045-2.732-3.343-2.732-6.018c0-3.655,2.09-6.619,4.669-6.619c2.578,0,4.668,2.964,4.668,6.619
						c0,3.409-1.819,6.215-4.156,6.577c0.726,0.339,1.371,0.819,1.904,1.407c0.645-0.861,1.419-1.365,2.252-1.365
						c0.62,0,1.206,0.286,1.731,0.783c1.439-0.497,3.042-0.783,4.738-0.783c0.868,0,1.709,0.08,2.521,0.218
						c0.917-0.507,2.132-0.823,3.479-0.823c1.612,0,3.033,0.453,3.976,1.147v-3.973c-2.35-0.832-3.976-2.598-3.976-4.648
						c0-2.85,3.132-5.159,6.995-5.159s6.995,2.31,6.995,5.159c0,0.17-0.013,0.337-0.034,0.503h0.034c0-1.181,0.282-2.273,0.76-3.172
						c-0.477-0.683-0.76-1.492-0.76-2.365c0-2.414,2.112-4.371,4.717-4.371s4.717,1.957,4.717,4.371
						c0,1.043-0.411,1.988-1.068,2.739l13.172-8.881l38.667,131.334l-72.667,57.333L134,518.637l-63.333-32.826L110.394,323.146
						 M337.115,359.277v-0.152c-0.022,0.017-0.045,0.033-0.068,0.049C337.071,359.208,337.092,359.243,337.115,359.277
						 M110.394,315.146c-3.688,0-6.896,2.521-7.771,6.102L62.896,483.912c-0.875,3.585,0.814,7.303,4.09,9.001l63.333,32.826
						c1.072,0.556,2.256,0.861,3.462,0.895l200.667,5.508c0.073,0.002,0.146,0.003,0.22,0.003c1.796,0,3.542-0.604,4.955-1.72
						l72.667-57.333c2.565-2.023,3.642-5.405,2.719-8.54l-38.667-131.334c-0.72-2.446-2.564-4.403-4.964-5.268
						c-0.88-0.316-1.797-0.473-2.709-0.473c-1.574,0-3.135,0.464-4.473,1.367l-4.509,3.04c-2.161-1.651-4.884-2.637-7.839-2.637
						c-3.874,0-7.349,1.693-9.684,4.36c-0.662-0.075-1.339-0.114-2.028-0.114c-5.838,0-10.798,2.786-13.285,6.96
						c-2.201-4.205-6.193-6.96-10.847-6.96c-6.79,0-12.174,5.866-12.637,13.543c-0.996-0.251-1.833-0.305-2.365-0.305
						c-0.482,0-0.954,0.032-1.414,0.095c-2.087-1.91-4.694-3.015-7.586-3.015c-4.023,0-7.496,2.138-9.782,5.61
						c-4.036,0.693-7.37,3.702-8.8,7.725c-2.032-0.919-4.333-1.431-6.752-1.431c-0.536,0-1.066,0.024-1.59,0.072
						c-2.533-3.026-6.479-4.977-10.904-4.977c-4.373,0-8.279,1.904-10.814,4.871c-0.428-0.215-0.867-0.414-1.316-0.596
						c-3.428-5.44-9.658-8.961-16.478-8.961c-3.667,0-7.141,0.986-10.103,2.738c-2.292-3.06-6.009-5.053-10.195-5.053
						c-4.479,0-8.42,2.281-10.655,5.71c-2.359-3.498-6.053-5.71-10.277-5.71c-1.06,0-2.1,0.145-3.102,0.422
						c-0.978-8.41-8.902-14.986-18.502-14.986c-3.673,0-7.1,0.963-9.987,2.622c-2.053-3.546-5.214-5.612-9.077-5.612
						c-1.984,0-3.783,0.545-5.342,1.556c-1.622-1.005-3.475-1.556-5.443-1.556c-0.516,0-1.03,0.04-1.541,0.119
						c-0.664-0.079-1.334-0.119-2.007-0.119c-2.562,0-5.02,0.566-7.219,1.625c-0.178-0.085-0.358-0.167-0.539-0.246
						C120.176,319.791,116.154,315.146,110.394,315.146L110.394,315.146z"/>
				</g>
			</g>
			<use xlink:href="#SVGID_7_"  overflow="visible" fill="none" stroke="#000000" stroke-width="8" stroke-miterlimit="10"/>
		</g>
		<g>
			<path fill="none" stroke="#000000" stroke-width="8" stroke-linecap="round" stroke-linejoin="round" stroke-miterlimit="10" d="
				M250.852,162.396c92.184-193.201,268.606-89.781,206.101,21.593c-62.507,111.375-43.655,160.245,20.634,229.03"/>
			
				<rect x="432.127" y="367.56" transform="matrix(0.7071 0.7071 -0.7071 0.7071 431.9279 -216.7336)" fill="#2268A8" stroke="#000000" stroke-width="8" stroke-linecap="round" stroke-linejoin="round" stroke-miterlimit="10" width="90.917" height="90.918"/>
			
				<line fill="#E5E2D3" stroke="#000000" stroke-width="8" stroke-linecap="round" stroke-linejoin="round" stroke-miterlimit="10" x1="447.6" y1="400.244" x2="468.172" y2="381.011"/>
		</g>
		<path fill="none" stroke="#000000" stroke-width="8" stroke-linecap="round" stroke-linejoin="round" stroke-miterlimit="10" d="
			M356.563,211.266c-39.397,174.261-11.365,215.174-11.365,215.174l-20.458,88.644"/>
		
			<line fill="#CCAC6C" stroke="#000000" stroke-width="8" stroke-linecap="round" stroke-linejoin="round" stroke-miterlimit="10" x1="374.747" y1="451.441" x2="345.199" y2="426.439"/>
		<path fill="none" stroke="#000000" stroke-width="8" stroke-linecap="round" stroke-linejoin="round" stroke-miterlimit="10" d="
			M356.563,211.266c0,0-52.278,128.801-31.822,303.817"/>
	</g>
</g>
</svg>
