<?xml version="1.0" encoding="utf-8"?>
<!-- Generator: Adobe Illustrator 16.0.0, SVG Export Plug-In . SVG Version: 6.00 Build 0)  -->
<!DOCTYPE svg PUBLIC "-//W3C//DTD SVG 1.1//EN" "http://www.w3.org/Graphics/SVG/1.1/DTD/svg11.dtd">
<svg version="1.1" xmlns="http://www.w3.org/2000/svg" xmlns:xlink="http://www.w3.org/1999/xlink" x="0px" y="0px"
	 width="566.93px" height="566.93px" viewBox="0 0 566.93 566.93" enable-background="new 0 0 566.93 566.93" xml:space="preserve">
<g id="fond" display="none">
	
		<rect x="-8889.913" y="-9494.906" display="inline" fill-rule="evenodd" clip-rule="evenodd" fill="#58595B" width="15942.492" height="15814.695"/>
</g>
<g id="en_cours">
</g>
<g id="fini">
	<g>
		<g>
			<g>
				<path fill="#241815" d="M395.16,254.134c0,0,1.338-0.915,3.847-2.632c1.155-0.828,2.57-1.785,4.261-3.03
					c1.702-1.229,3.623-2.677,5.759-4.319c4.231-3.319,9.228-7.509,14.543-12.652c5.277-5.156,10.844-11.338,15.745-18.617
					c4.84-7.242,9.021-15.803,10.008-24.786c0.5-4.472,0.179-8.997-1.263-13.323c-1.437-4.324-4.01-8.445-7.559-12.121
					c-3.548-3.672-7.989-6.92-13.001-9.597c-2.497-1.353-5.119-2.593-7.852-3.688c-1.349-0.579-2.758-1.063-4.148-1.59
					c-1.422-0.463-2.829-0.973-4.284-1.389c-5.774-1.766-11.807-3.112-17.962-4.125c-3.072-0.528-6.186-0.938-9.311-1.305
					c-3.168-0.379-6.533-0.818-9.803-1.324c-13.105-2.049-26.223-4.874-38.578-9.947c-6.159-2.544-12.123-5.679-17.489-9.82
					c-2.666-2.086-5.165-4.456-7.282-7.207c-2.115-2.74-3.837-5.895-4.786-9.318c-0.978-3.41-1.104-7.045-0.503-10.417
					c0.613-3.38,1.847-6.511,3.444-9.292c3.223-5.573,7.607-9.883,12.124-13.5c9.15-7.156,18.922-11.869,28.1-15.49
					c9.194-3.625,17.872-6.152,25.621-8.068c7.743-1.959,14.584-3.232,20.217-4.241c2.819-0.497,5.344-0.896,7.543-1.221
					c2.195-0.343,4.067-0.615,5.586-0.823c3.04-0.401,4.661-0.615,4.661-0.615c1.511-0.199,2.896,0.864,3.096,2.375
					c0.198,1.51-0.864,2.896-2.374,3.095c-0.033,0.005-0.066,0.009-0.099,0.011l-0.053,0.006c0,0-1.602,0.146-4.604,0.421
					c-3.001,0.288-7.4,0.761-12.961,1.617c-5.566,0.817-12.286,2.081-19.895,3.903c-7.59,1.879-16.076,4.369-24.95,7.986
					c-4.423,1.831-8.94,3.938-13.419,6.43c-4.473,2.49-8.92,5.375-12.988,8.852c-4.052,3.457-7.814,7.501-10.305,12.187
					c-1.229,2.336-2.127,4.819-2.442,7.348c-0.315,2.523-0.097,5.063,0.722,7.468c1.593,4.845,5.477,9.029,10.153,12.321
					c4.7,3.325,10.234,5.8,15.997,7.778c5.779,1.976,11.838,3.447,18.004,4.576c6.168,1.127,12.449,1.933,18.771,2.416
					c3.172,0.266,6.267,0.403,9.553,0.607c3.325,0.224,6.652,0.494,9.973,0.895c6.643,0.758,13.269,1.885,19.801,3.531
					c3.267,0.813,6.51,1.758,9.716,2.857c3.209,1.078,6.372,2.349,9.47,3.799c6.195,2.873,12.138,6.604,17.339,11.386
					c5.194,4.761,9.549,10.739,12.229,17.391c2.737,6.634,3.708,13.762,3.409,20.388c-0.145,3.321-0.566,6.548-1.211,9.633
					c-0.657,3.079-1.499,6.031-2.469,8.855c-1.996,5.613-4.419,10.744-7.065,15.394c-5.306,9.306-11.271,16.865-16.802,23.22
					c-5.562,6.334-10.767,11.442-15.146,15.511c-2.194,2.026-4.173,3.814-5.92,5.331c-1.733,1.532-3.314,2.83-4.546,3.885
					c-2.352,1.938-3.605,2.972-3.605,2.972c-5.332,4.394-13.217,3.634-17.61-1.698s-3.634-13.217,1.698-17.611
					C394.548,254.572,394.862,254.339,395.16,254.134z"/>
			</g>
			<path fill="#4F5666" stroke="#241815" stroke-width="8" stroke-linejoin="round" stroke-miterlimit="10" d="M115.841,402.412
				c4.282,9.752,16.449,9.704,20.236,16.365c5.828,10.25-7.977,11.649-13.868,7.161s-15.578,0.562-11.747,7.56
				c6.661,12.167,29.043,8.724,44.639,9.191c78.221,9.716,124.578,122.156,310.275,70.086c30.903-8.666,3.896-30.805-36.987-70.719
				c-35.806-34.959-42.83-71.041-43.68-102.145c-1.381-50.562,79.625-115.301,67.291-124.078l1.849-9.683
				c-5.167,7.667-62.848,77.313-126.86,61.349c-28.915-7.211-61.216-38.342-64.154-79.498c-3.883-54.379,8.575-75.311-35.641-52.141
				c-58.787,30.806-91.367,91.473-97.034,132.289c-7.317,52.703-0.552,64.361-26.809,88.456
				c-8.102,7.436-18.475,15.306-15.475,28.157c4.242,7.886,10.139,5.012,11.319-3.17s12.681-10.182,14.952-2.033
				C115.749,383.873,109.076,391.579,115.841,402.412z"/>
		</g>
		<circle fill="#241815" cx="130.159" cy="357.364" r="5.667"/>
		<circle fill="#241815" cx="159.159" cy="416.364" r="5.667"/>
		<g>
			<path fill="none" stroke="#241815" stroke-width="8" stroke-linecap="round" stroke-linejoin="round" stroke-miterlimit="10" d="
				M211.719,393.209c6.185,11.927,3.961,32.729,3.961,32.729"/>
			<path fill="none" stroke="#241815" stroke-width="8" stroke-linecap="round" stroke-linejoin="round" stroke-miterlimit="10" d="
				M225.019,389.629c6.185,11.926,3.961,32.729,3.961,32.729"/>
			<path fill="none" stroke="#241815" stroke-width="8" stroke-linecap="round" stroke-linejoin="round" stroke-miterlimit="10" d="
				M238.317,386.048c6.186,11.927,3.961,32.729,3.961,32.729"/>
		</g>
		<g>
			<path fill="none" stroke="#241815" stroke-width="8" stroke-linecap="round" stroke-linejoin="round" stroke-miterlimit="10" d="
				M172.524,337.193c-7.01-8.888-24.343-13.413-24.343-13.413"/>
			<path fill="none" stroke="#241815" stroke-width="8" stroke-linecap="round" stroke-linejoin="round" stroke-miterlimit="10" d="
				M180.576,327.078c-7.008-8.887-24.341-13.414-24.341-13.414"/>
			<path fill="none" stroke="#241815" stroke-width="8" stroke-linecap="round" stroke-linejoin="round" stroke-miterlimit="10" d="
				M188.629,316.965c-7.01-8.889-24.343-13.414-24.343-13.414"/>
		</g>
	</g>
</g>
</svg>
