<?xml version="1.0" encoding="utf-8"?>
<!-- Generator: Adobe Illustrator 16.0.0, SVG Export Plug-In . SVG Version: 6.00 Build 0)  -->
<!DOCTYPE svg PUBLIC "-//W3C//DTD SVG 1.1//EN" "http://www.w3.org/Graphics/SVG/1.1/DTD/svg11.dtd">
<svg version="1.1" xmlns="http://www.w3.org/2000/svg" xmlns:xlink="http://www.w3.org/1999/xlink" x="0px" y="0px"
	 width="566.93px" height="566.93px" viewBox="0 0 566.93 566.93" enable-background="new 0 0 566.93 566.93" xml:space="preserve">
<g id="fond" display="none">
	
		<rect x="-10849.873" y="-10145.944" display="inline" fill-rule="evenodd" clip-rule="evenodd" fill="#58595B" width="15942.492" height="15814.695"/>
</g>
<g id="en_cours">
</g>
<g id="fini">
	<g>
		
			<ellipse fill="#4F5666" stroke="#000000" stroke-width="8" stroke-linecap="round" stroke-linejoin="round" stroke-miterlimit="10" cx="84.178" cy="443.202" rx="37.789" ry="35.342"/>
		
			<ellipse fill="#4F5666" stroke="#000000" stroke-width="8" stroke-linecap="round" stroke-linejoin="round" stroke-miterlimit="10" cx="205.307" cy="464.146" rx="37.789" ry="35.342"/>
		
			<ellipse fill="#4F5666" stroke="#000000" stroke-width="8" stroke-linecap="round" stroke-linejoin="round" stroke-miterlimit="10" cx="460.025" cy="360.823" rx="37.789" ry="35.342"/>
		
			<path fill="#4F5666" stroke="#000000" stroke-width="8" stroke-linecap="round" stroke-linejoin="round" stroke-miterlimit="10" d="
			M139.268,417.842c0,23.555-16.447,49.135-36.951,57.219c-20.732,8.175-37.717-4.621-37.717-28.664
			c0-24.042,16.984-49.826,37.717-57.509C122.82,381.29,139.268,394.29,139.268,417.842z"/>
		<g>
			<path fill="#AB2E23" d="M155.516,477.293c-0.434,0-0.867-0.07-1.284-0.212L35.013,436.659c-1.624-0.55-2.716-2.074-2.716-3.788
				V271.508c0-1.759,1.149-3.312,2.831-3.825l382.311-116.799c0.38-0.116,0.774-0.175,1.169-0.175c0.204,0,0.408,0.016,0.611,0.047
				l115.689,17.891c1.95,0.302,3.389,1.98,3.389,3.953v148.155c0,1.632-0.992,3.101-2.506,3.711L157.01,477.003
				C156.531,477.196,156.023,477.293,155.516,477.293z"/>
			<path d="M418.607,154.709L534.297,172.6v148.155L155.516,473.293L36.297,432.871V271.508L418.607,154.709 M418.607,146.709
				c-0.79,0-1.578,0.117-2.338,0.349L33.959,263.856c-3.364,1.028-5.662,4.134-5.662,7.651v161.363c0,3.429,2.185,6.476,5.432,7.576
				l119.219,40.422c0.834,0.283,1.701,0.424,2.568,0.424c1.016,0,2.031-0.193,2.988-0.579l378.781-152.538
				c3.028-1.22,5.012-4.156,5.012-7.421V172.6c0-3.946-2.877-7.303-6.777-7.906L419.83,146.803
				C419.424,146.74,419.016,146.709,418.607,146.709L418.607,146.709z"/>
		</g>
		<g>
			<path fill="#4F5666" d="M215.611,499.435c-16.237,0-27.578-13.919-27.578-33.848c0-24.614,16.825-51.216,37.507-59.299
				c4.122-1.611,8.207-2.428,12.142-2.428c16.249,0,27.598,13.916,27.598,33.841c0,24.536-16.144,50.449-36.751,58.994
				C224.144,498.513,219.798,499.435,215.611,499.435z"/>
			<path d="M237.682,407.86c13.74-0.001,23.598,11.607,23.598,29.841c0,22.69-15.266,47.414-34.283,55.299
				c-3.98,1.649-7.813,2.435-11.385,2.435c-13.684,0-23.578-11.494-23.578-29.848c0-23.144,15.738-48.06,34.963-55.573
				C230.731,408.554,234.322,407.86,237.682,407.86 M237.683,399.86L237.683,399.86c-4.436,0-9.011,0.909-13.599,2.702
				c-10.889,4.256-21.027,13.175-28.548,25.112c-7.418,11.776-11.503,25.24-11.503,37.912c0,22.284,12.985,37.848,31.578,37.848
				c4.715,0,9.576-1.024,14.448-3.045c21.993-9.117,39.22-36.654,39.22-62.688C269.279,415.421,256.286,399.86,237.683,399.86
				L237.683,399.86z"/>
		</g>
		<g>
			<path fill="#4F5666" d="M465.744,396.166c-14.696,0-24.961-13.309-24.961-32.364c0-22.958,14.669-47.37,32.7-54.418
				c3.411-1.333,6.807-2.01,10.093-2.01c14.703,0,24.973,13.307,24.973,32.358c0,22.918-14.09,46.712-32.077,54.169
				C472.848,395.404,469.238,396.166,465.744,396.166z"/>
			<path d="M483.576,311.374c12.174-0.001,20.973,11.127,20.973,28.358c0,21.096-13.188,43.666-29.609,50.474
				c-3.203,1.328-6.293,1.96-9.195,1.96c-12.125,0-20.961-11.026-20.961-28.364c0-21.486,13.572-44.21,30.156-50.692
				C477.946,311.935,480.847,311.375,483.576,311.374 M483.578,303.374v8V303.374h-0.003c-3.786,0.001-7.671,0.77-11.548,2.284
				c-19.764,7.726-35.244,33.265-35.244,58.144c0,21.41,11.909,36.364,28.961,36.364c4.022,0,8.147-0.864,12.26-2.57
				c19.371-8.03,34.545-33.446,34.545-57.863C512.549,318.325,500.636,303.374,483.578,303.374L483.578,303.374z"/>
		</g>
		
			<path fill="#AB2E23" stroke="#000000" stroke-width="8" stroke-linecap="round" stroke-linejoin="round" stroke-miterlimit="10" d="
			M242.584,445.229c0,10.316-6.961,21.522-15.588,25.042c-8.666,3.537-15.725-2.021-15.725-12.432s7.059-21.653,15.725-25.098
			C235.623,429.315,242.584,434.913,242.584,445.229z"/>
		
			<path fill="#AB2E23" stroke="#000000" stroke-width="8" stroke-linecap="round" stroke-linejoin="round" stroke-miterlimit="10" d="
			M489.041,345.979c0,9.586-6.01,19.809-13.451,22.848c-7.477,3.051-13.564-2.302-13.564-11.968c0-9.667,6.088-19.921,13.564-22.892
			C483.031,331.008,489.041,336.393,489.041,345.979z"/>
		
			<polygon fill="#809EAD" stroke="#000000" stroke-width="8" stroke-linecap="round" stroke-linejoin="round" stroke-miterlimit="10" points="
			282.127,366.407 226.998,387.4 226.998,294.957 282.127,275.423 		"/>
		
			<polygon fill="#809EAD" stroke="#000000" stroke-width="8" stroke-linecap="round" stroke-linejoin="round" stroke-miterlimit="10" points="
			345.742,342.182 292.65,362.399 292.65,271.692 345.742,252.88 		"/>
		
			<polygon fill="#809EAD" stroke="#000000" stroke-width="8" stroke-linecap="round" stroke-linejoin="round" stroke-miterlimit="10" points="
			407.045,375.741 355.879,396.506 355.879,249.688 407.045,231.156 		"/>
		
			<polygon fill="#809EAD" stroke="#000000" stroke-width="8" stroke-linecap="round" stroke-linejoin="round" stroke-miterlimit="10" points="
			466.16,296.323 416.82,315.113 416.82,227.691 466.16,210.208 		"/>
		
			<polygon fill="#809EAD" stroke="#000000" stroke-width="8" stroke-linecap="round" stroke-linejoin="round" stroke-miterlimit="10" points="
			523.205,274.599 475.59,292.732 475.59,206.866 523.205,189.992 		"/>
		
			<polygon fill="#809EAD" stroke="#000000" stroke-width="8" stroke-linecap="round" stroke-linejoin="round" stroke-miterlimit="10" points="
			159.121,412.371 212.902,392.769 212.902,299.951 159.121,318.132 33.029,279.666 33.029,374.182 		"/>
		
			<line fill="#AB2E23" stroke="#000000" stroke-width="8" stroke-linecap="round" stroke-linejoin="round" stroke-miterlimit="10" x1="170.85" y1="300.156" x2="523.205" y2="176.496"/>
		
			<path fill="#CCAC6C" stroke="#000000" stroke-width="8" stroke-linecap="round" stroke-linejoin="round" stroke-miterlimit="10" d="
			M158.771,449.999c0,7.64-4.732,12.229-10.57,10.25c-5.836-1.979-10.568-9.777-10.568-17.417s4.732-12.229,10.568-10.249
			C154.039,434.562,158.771,442.359,158.771,449.999z"/>
		
			<path fill="#CCAC6C" stroke="#000000" stroke-width="8" stroke-linecap="round" stroke-linejoin="round" stroke-miterlimit="10" d="
			M53.771,413.954c0,7.64-4.732,12.229-10.57,10.25c-5.836-1.979-10.568-9.777-10.568-17.417s4.732-12.229,10.568-10.249
			C49.039,398.517,53.771,406.314,53.771,413.954z"/>
	</g>
</g>
</svg>
