<?xml version="1.0" encoding="utf-8"?>
<!-- Generator: Adobe Illustrator 16.0.0, SVG Export Plug-In . SVG Version: 6.00 Build 0)  -->
<!DOCTYPE svg PUBLIC "-//W3C//DTD SVG 1.1//EN" "http://www.w3.org/Graphics/SVG/1.1/DTD/svg11.dtd">
<svg version="1.1" xmlns="http://www.w3.org/2000/svg" xmlns:xlink="http://www.w3.org/1999/xlink" x="0px" y="0px"
	 width="566.93px" height="566.93px" viewBox="0 0 566.93 566.93" enable-background="new 0 0 566.93 566.93" xml:space="preserve">
<g id="fond" display="none">
	
		<rect x="-5393.873" y="-10462.046" display="inline" fill-rule="evenodd" clip-rule="evenodd" fill="#58595B" width="16654.492" height="16572.797"/>
</g>
<g id="en_cours">
</g>
<g id="fini">
	<g>
		<g>
			<path fill="#AB2E23" d="M175.54,530.913c-2.666,0-5.321-0.685-7.68-1.98c-7.703-4.247-10.512-13.963-6.269-21.66l94.886-172.116
				h-90.419c-49.388,0-89.567-40.181-89.567-89.569c0-49.39,40.18-89.57,89.567-89.57c30.544,0,57.626,13.904,80.492,41.327
				c14.347,17.206,26.741,39.282,36.915,65.733c10.175-26.451,22.569-48.528,36.916-65.733
				c22.867-27.423,49.948-41.327,80.493-41.327c49.387,0,89.566,40.181,89.566,89.57c0,49.389-40.179,89.569-89.566,89.569h-90.42
				l94.886,172.117c4.243,7.696,1.434,17.411-6.263,21.656c-2.354,1.297-5.011,1.981-7.684,1.981c-5.815,0-11.168-3.161-13.971-8.25
				l-93.956-170.428l-93.956,170.429C186.702,527.752,181.35,530.913,175.54,530.913z M400.873,303.272
				c31.809,0,57.687-25.878,57.687-57.686c0-31.81-25.878-57.689-57.687-57.689c-25.808,0-48.683,15.69-67.988,46.634
				c-14.898,23.88-24.242,51.653-29.076,68.741H400.873z M166.058,187.897c-31.809,0-57.687,25.88-57.687,57.689
				c0,31.808,25.878,57.686,57.687,57.686h97.064c-4.833-17.087-14.177-44.859-29.076-68.741
				C214.74,203.588,191.866,187.897,166.058,187.897z"/>
			<path d="M400.873,160.017c47.181,0,85.566,38.389,85.566,85.57s-38.385,85.569-85.566,85.569H303.68l98.156,178.048
				c3.184,5.775,1.083,13.038-4.691,16.223c-1.827,1.006-3.803,1.484-5.752,1.484c-4.208,0-8.292-2.229-10.467-6.18l-97.46-176.783
				l-97.459,176.783c-2.177,3.947-6.258,6.182-10.466,6.182c-1.951,0-3.927-0.482-5.755-1.486
				c-5.775-3.185-7.875-10.447-4.691-16.223l98.155-178.048h-97.191c-47.182,0-85.567-38.388-85.567-85.569
				s38.386-85.57,85.567-85.57c66.137,0,101.182,68.14,117.407,114.69C299.691,228.156,334.736,160.017,400.873,160.017
				 M298.564,307.272h102.309c34.014,0,61.687-27.669,61.687-61.686c0-34.016-27.672-61.689-61.687-61.689
				C337.61,183.897,307.887,272.15,298.564,307.272 M166.058,307.272h102.309c-9.322-35.122-39.046-123.375-102.309-123.375
				c-34.014,0-61.687,27.674-61.687,61.689C104.371,279.604,132.043,307.272,166.058,307.272 M400.873,152.017
				c-31.787,0-59.902,14.389-83.564,42.766c-12.91,15.482-24.253,34.792-33.844,57.582c-9.59-22.79-20.933-42.1-33.843-57.582
				c-23.662-28.377-51.777-42.766-83.564-42.766c-51.593,0-93.567,41.976-93.567,93.57c0,51.594,41.974,93.569,93.567,93.569h83.646
				l-91.616,166.186c-5.309,9.628-1.794,21.781,7.834,27.091c2.959,1.625,6.281,2.48,9.618,2.48c7.267,0,13.962-3.954,17.472-10.318
				l90.454-164.076l90.454,164.075c3.504,6.362,10.2,10.317,17.473,10.317c3.346,0,6.67-0.856,9.612-2.477
				c9.631-5.313,13.146-17.465,7.838-27.093l-91.616-166.186h83.647c51.593,0,93.566-41.976,93.566-93.569
				C494.439,193.992,452.466,152.017,400.873,152.017L400.873,152.017z M309.142,299.272c5.086-16.946,13.886-41.384,27.137-62.624
				c18.526-29.694,40.259-44.751,64.595-44.751c29.603,0,53.687,24.085,53.687,53.689c0,29.603-24.084,53.686-53.687,53.686H309.142
				L309.142,299.272z M166.058,299.272c-29.603,0-53.687-24.083-53.687-53.686c0-29.604,24.084-53.689,53.687-53.689
				c24.336,0,46.068,15.057,64.595,44.751c13.252,21.242,22.051,45.679,27.137,62.624H166.058L166.058,299.272z"/>
		</g>
		
			<circle fill="#AB2E23" stroke="#000000" stroke-width="8" stroke-linecap="round" stroke-linejoin="round" stroke-miterlimit="10" cx="283.465" cy="319.485" r="23.958"/>
	</g>
</g>
</svg>
