<?xml version="1.0" encoding="utf-8"?>
<!-- Generator: Adobe Illustrator 16.0.0, SVG Export Plug-In . SVG Version: 6.00 Build 0)  -->
<!DOCTYPE svg PUBLIC "-//W3C//DTD SVG 1.1//EN" "http://www.w3.org/Graphics/SVG/1.1/DTD/svg11.dtd">
<svg version="1.1" xmlns="http://www.w3.org/2000/svg" xmlns:xlink="http://www.w3.org/1999/xlink" x="0px" y="0px"
	 width="283.465px" height="566.93px" viewBox="0 0 283.465 566.93" enable-background="new 0 0 283.465 566.93"
	 xml:space="preserve">
<g id="fond" display="none">
	
		<rect x="-7500.152" y="-10462.046" display="inline" fill-rule="evenodd" clip-rule="evenodd" fill="#58595B" width="16654.492" height="16572.797"/>
</g>
<g id="en_cours">
</g>
<g id="fini">
	<g>
		<path d="M136.837,417.745c8.455,0,14.72-1.112,18.801-3.338c4.078-2.225,6.119-5.785,6.119-10.68
			c0-5.041-2.002-9.046-6.008-12.015c-4.005-2.966-10.607-6.303-19.802-10.013c-4.45-1.78-8.716-3.595-12.793-5.451
			c-4.082-1.853-7.603-4.04-10.569-6.563c-2.969-2.521-5.34-5.563-7.12-9.123c-1.78-3.56-2.67-7.933-2.67-13.127
			c0-10.234,3.783-18.356,11.348-24.363c7.565-6.008,17.873-9.012,30.927-9.012c3.261,0,6.525,0.188,9.79,0.557
			c3.261,0.372,6.303,0.817,9.122,1.335c2.816,0.521,5.302,1.078,7.454,1.669c2.149,0.595,3.817,1.112,5.006,1.558l-3.782,17.8
			c-2.225-1.186-5.712-2.409-10.458-3.672c-4.749-1.258-10.458-1.891-17.132-1.891c-5.785,0-10.83,1.15-15.13,3.448
			c-4.304,2.302-6.453,5.896-6.453,10.791c0,2.524,0.48,4.749,1.446,6.675c0.963,1.93,2.448,3.672,4.45,5.229
			s4.484,3.003,7.454,4.339c2.965,1.335,6.525,2.746,10.68,4.227c5.486,2.079,10.381,4.116,14.685,6.119
			c4.3,2.003,7.972,4.339,11.014,7.009c3.039,2.67,5.375,5.896,7.009,9.679c1.63,3.782,2.447,8.42,2.447,13.906
			c0,10.68-3.97,18.766-11.904,24.252c-7.937,5.489-19.246,8.232-33.931,8.232c-10.235,0-18.245-0.855-24.03-2.559
			c-5.785-1.703-9.717-3.004-11.792-3.894l3.783-17.8c2.371,0.89,6.153,2.225,11.347,4.005
			C121.335,416.855,128.233,417.745,136.837,417.745z"/>
	</g>
	<g>
		<path d="M234.515,262.705c0,1.634,0,3.226,0,4.783s-0.076,3.08-0.222,4.562c-0.595,7.714-2.302,15.317-5.118,22.806
			c-2.819,7.492-6.23,14.573-10.235,21.249l-16.02-5.118c3.115-6.675,5.451-13.312,7.009-19.913
			c1.558-6.599,2.336-12.794,2.336-18.579c0-1.48-0.039-3.076-0.111-4.783c-0.077-1.704-0.188-3.372-0.334-5.006H234.515z"/>
	</g>
</g>
</svg>
