<?xml version="1.0" encoding="utf-8"?>
<!-- Generator: Adobe Illustrator 16.0.0, SVG Export Plug-In . SVG Version: 6.00 Build 0)  -->
<!DOCTYPE svg PUBLIC "-//W3C//DTD SVG 1.1//EN" "http://www.w3.org/Graphics/SVG/1.1/DTD/svg11.dtd">
<svg version="1.1" xmlns="http://www.w3.org/2000/svg" xmlns:xlink="http://www.w3.org/1999/xlink" x="0px" y="0px"
	 width="566.93px" height="566.93px" viewBox="0 0 566.93 566.93" enable-background="new 0 0 566.93 566.93" xml:space="preserve">
<g id="fond" display="none">
	
		<rect x="-10849.873" y="-9494.906" display="inline" fill-rule="evenodd" clip-rule="evenodd" fill="#58595B" width="15942.492" height="15814.695"/>
</g>
<g id="en_cours">
</g>
<g id="fini">
	<g>
		<g>
			
				<polyline fill="#3F3F3F" stroke="#000000" stroke-width="8" stroke-linecap="round" stroke-linejoin="round" stroke-miterlimit="10" points="
				412.469,553.93 412.469,392.954 81.801,392.954 81.801,553.93 			"/>
			
				<polyline fill="#CCAC6C" stroke="#000000" stroke-width="8" stroke-linecap="round" stroke-linejoin="round" stroke-miterlimit="10" points="
				286.982,423.726 286.982,450.287 309.189,472.495 244.6,553.93 180.01,472.495 202.217,450.287 202.217,423.726 			"/>
			
				<path fill="#141414" stroke="#000000" stroke-width="8" stroke-linecap="round" stroke-linejoin="round" stroke-miterlimit="10" d="
				M212.018,387.708c0,0,1.582,5.518-8.031,0.188c4.953,9.562-1.098,15.743-15.635,13.374c1.939,6.766-2.061,11.048-20.566,12.172
				c0.148,11.46-4.996,9.016-18.494,8.442c2.355,8.215-3.99,15.263-18.969,19.558c5.598,3.103-5.854,17.889-16.902,15.828
				c2.633,9.182,3.326,11.596-12.83,13.614c7.461,4.136-2.742,19.612-12.889,22.521c4.352,2.413,5.402,18.844-3.229,19.75
				c-2.41,4.354-6.203,11.191-2.877,22.789c-4.352-2.414-11.471-10.83-10.584-20.497c-7.148-3.966-2.355-8.215-5.818-20.294
				c-12.438-6.894-13.059-7.238-2.719-25.89c-5.285-2.932-30.465-16.888-10.541-40.409c-10.275-5.695-19.004-24.33,8.818-27.602
				c-8.08-4.48-13.01-30.782,12.326-35.433c-10.574-9.519-6.928-24.16,11.504-27.353c-10.021-11.245-0.369-24.996,19.543-24.855
				c-3.715-12.955,1.537-25.639,17.902-25.102c-2.91-10.147-1.4-19.471,15.455-17.227l13.074-13.074l78.584,12.255L212.018,387.708z
				"/>
			
				<path fill="#141414" stroke="#000000" stroke-width="8" stroke-linecap="round" stroke-linejoin="round" stroke-miterlimit="10" d="
				M277.18,387.708c0,0-1.582,5.518,8.033,0.188c-4.953,9.562,1.098,15.743,15.633,13.374c-1.939,6.766,2.063,11.048,20.566,12.172
				c-0.146,11.46,4.998,9.016,18.496,8.442c-2.355,8.215,3.99,15.263,18.969,19.558c-5.598,3.103,5.854,17.889,16.9,15.828
				c-2.633,9.182-3.324,11.596,12.83,13.614c-7.459,4.136,2.744,19.612,12.891,22.521c-4.354,2.413-5.404,18.844,3.227,19.75
				c2.41,4.354,6.203,11.191,2.879,22.789c4.352-2.414,11.471-10.83,10.582-20.497c7.15-3.966,2.357-8.215,5.82-20.294
				c12.436-6.894,13.057-7.238,2.717-25.89c5.285-2.932,30.467-16.888,10.543-40.409c10.273-5.695,19.002-24.33-8.82-27.602
				c8.082-4.48,13.01-30.782-12.326-35.433c10.574-9.519,6.928-24.16-11.504-27.353c10.021-11.245,0.369-24.996-19.541-24.855
				c3.715-12.955-1.539-25.639-17.904-25.102c2.91-10.147,1.4-19.471-15.453-17.227l-13.074-13.074l-78.586,12.255L277.18,387.708z"
				/>
			
				<path fill="#CCAC6C" stroke="#000000" stroke-width="8" stroke-linecap="round" stroke-linejoin="round" stroke-miterlimit="10" d="
				M308.801,268.25c12.73,26.449,17.459,174.039-64.336,174.039c-81.789,0-77.061-147.59-64.33-174.039"/>
			
				<path fill="#141414" stroke="#000000" stroke-width="8" stroke-linecap="round" stroke-linejoin="round" stroke-miterlimit="10" d="
				M115.383,342.956c0,3.187,11.047,7.01,13.809,1.062c2.762,2.762,15.084,4.036,15.084-7.647
				c2.867,2.867,19.547,1.198,21.561-8.391c8.32,5.523,20.924-1.592,19.65-13.063c16.463,7.114,26.766-6.559,21.773-17.952
				c10.303,4.533,21.35-3.823,17.846-14.871c5.24,5.242,17.418-1.698,16.037-13.651l-49.707-12.583l-36.965,1.699"/>
			
				<path fill="#141414" stroke="#000000" stroke-width="8" stroke-linecap="round" stroke-linejoin="round" stroke-miterlimit="10" d="
				M368.479,337.484c0,3.187-11.045,7.011-13.807,1.062c-2.764,2.762-15.084,4.037-15.084-7.647
				c-2.869,2.868-19.549,1.198-21.563-8.391c-8.318,5.524-20.924-1.592-19.65-13.063c-16.463,7.115-26.766-6.559-21.773-17.951
				c-10.303,4.533-21.35-3.824-17.846-14.871c-5.24,5.241-17.418-1.699-16.037-13.652l49.709-12.583l36.963,1.699"/>
			<g>
				
					<path fill="#3F3F3F" stroke="#000000" stroke-width="8" stroke-linecap="round" stroke-linejoin="round" stroke-miterlimit="10" d="
					M323.01,78.012c1.518-19.027-13.439-35.003-33.459-35.003h-89.906c-20.02,0-34.973,15.976-33.455,35.003l13.092,164.141
					c1.018,12.753,14.51,22.803,30.164,22.803h70.307c15.656,0,29.15-10.05,30.166-22.803L323.01,78.012z"/>
				
					<path fill="#3F3F3F" stroke="#000000" stroke-width="8" stroke-linecap="round" stroke-linejoin="round" stroke-miterlimit="10" d="
					M389.1,258.21c0,6.693-3.473,12.117-7.756,12.117H107.855c-4.283,0-7.756-5.424-7.756-12.117l0,0
					c0-6.692,3.473-12.118,7.756-12.118h273.488C385.627,246.092,389.1,251.518,389.1,258.21L389.1,258.21z"/>
			</g>
			<g>
				
					<line fill="#3F3F3F" stroke="#000000" stroke-width="8" stroke-linecap="round" stroke-linejoin="round" stroke-miterlimit="10" x1="230.501" y1="324.621" x2="259.057" y2="324.621"/>
				<g>
					<path fill="#3F3F3F" d="M194.949,362.256c-18.316,0-28.404-10.721-28.404-30.188c0-12.535,10.429-30.188,33.615-30.188
						c23.977,0,37.729,5.756,37.729,15.791C237.889,332.542,219.325,362.256,194.949,362.256z"/>
					<path d="M200.16,305.881c17.824,0,33.729,3.541,33.729,11.791c0,12.888-17.002,40.584-38.939,40.584
						s-24.404-16.452-24.404-26.188C170.545,322.334,178.496,305.881,200.16,305.881 M200.16,297.881
						c-25.945,0-37.615,19.992-37.615,34.188c0,21.727,11.811,34.188,32.404,34.188c27.117,0,46.939-31.953,46.939-48.584
						c0-4.387-2.055-12.381-15.819-16.633C217.62,298.429,207.316,297.881,200.16,297.881L200.16,297.881z"/>
				</g>
				<g>
					<path fill="#3F3F3F" d="M294.25,362.256c-24.376,0-42.939-29.714-42.939-44.584c0-10.035,13.752-15.791,37.729-15.791
						c23.187,0,33.615,17.652,33.615,30.188C322.654,351.535,312.566,362.256,294.25,362.256z"/>
					<path d="M289.039,305.881c21.664,0,29.615,16.453,29.615,26.188c0,9.735-2.467,26.188-24.404,26.188
						s-38.939-27.696-38.939-40.584C255.311,309.422,271.215,305.881,289.039,305.881 M289.039,297.881
						c-7.156,0-17.46,0.548-25.909,3.158c-13.765,4.252-15.819,12.246-15.819,16.633c0,16.631,19.822,48.584,46.939,48.584
						c20.594,0,32.404-12.461,32.404-34.188C326.654,317.873,314.984,297.881,289.039,297.881L289.039,297.881z"/>
				</g>
			</g>
			<g>
				<circle cx="252.722" cy="381.242" r="5.667"/>
				<circle cx="236.478" cy="381.242" r="5.667"/>
			</g>
			
				<line fill="#CCAC6C" stroke="#000000" stroke-width="8" stroke-linecap="round" stroke-linejoin="round" stroke-miterlimit="10" x1="223.6" y1="412.954" x2="265.6" y2="412.954"/>
		</g>
		<g>
			<g>
				<g>
					<g>
						<g>
							<rect x="482.973" y="85.448" fill="#4F5666" width="32.25" height="6.591"/>
							<g>
								<path fill="#E5E2D3" d="M524.873,92.157c0,4.096-3.318,7.415-7.414,7.415l0,0c-4.096,0-7.416-3.319-7.416-7.415V85.33
									c0-4.095,3.32-7.414,7.416-7.414l0,0c4.096,0,7.414,3.319,7.414,7.414V92.157z"/>
							</g>
						</g>
						<g>
							<rect x="482.973" y="124.761" fill="#4F5666" width="32.25" height="6.591"/>
							<g>
								<path fill="#E5E2D3" d="M524.873,131.47c0,4.095-3.318,7.415-7.414,7.415l0,0c-4.096,0-7.416-3.32-7.416-7.415v-6.827
									c0-4.096,3.32-7.415,7.416-7.415l0,0c4.096,0,7.414,3.319,7.414,7.415V131.47z"/>
							</g>
						</g>
						<g>
							<rect x="482.973" y="164.072" fill="#4F5666" width="32.25" height="6.592"/>
							<g>
								<path fill="#E5E2D3" d="M524.873,170.781c0,4.096-3.318,7.416-7.414,7.416l0,0c-4.096,0-7.416-3.32-7.416-7.416v-6.826
									c0-4.096,3.32-7.416,7.416-7.416l0,0c4.096,0,7.414,3.32,7.414,7.416V170.781z"/>
							</g>
						</g>
					</g>
					<g>
						<g>
							<rect x="385.279" y="85.448" fill="#4F5666" width="32.25" height="6.591"/>
							<g>
								<path fill="#E5E2D3" d="M375.627,92.157c0,4.096,3.32,7.415,7.416,7.415l0,0c4.096,0,7.414-3.319,7.414-7.415V85.33
									c0-4.095-3.318-7.414-7.414-7.414l0,0c-4.096,0-7.416,3.319-7.416,7.414V92.157z"/>
							</g>
						</g>
						<g>
							<rect x="385.279" y="124.761" fill="#4F5666" width="32.25" height="6.591"/>
							<g>
								<path fill="#E5E2D3" d="M375.627,131.47c0,4.095,3.32,7.415,7.416,7.415l0,0c4.096,0,7.414-3.32,7.414-7.415v-6.827
									c0-4.096-3.318-7.415-7.414-7.415l0,0c-4.096,0-7.416,3.319-7.416,7.415V131.47z"/>
							</g>
						</g>
						<g>
							<rect x="385.279" y="164.072" fill="#4F5666" width="32.25" height="6.592"/>
							<g>
								<path fill="#E5E2D3" d="M375.627,170.781c0,4.096,3.32,7.416,7.416,7.416l0,0c4.096,0,7.414-3.32,7.414-7.416v-6.826
									c0-4.096-3.318-7.416-7.414-7.416l0,0c-4.096,0-7.416,3.32-7.416,7.416V170.781z"/>
							</g>
						</g>
					</g>
				</g>
				<path fill="#141414" d="M450.25,49.666c0-7.415-13.742-8.945-22.127-3.736c-8.387,5.208-13.418,17.154-33.898,17.154
					c7.18,19.893,20.363,93.573,6.938,131.355c7.945,7.945,18.369,9.887,18.369,38.488l-7.063,321.002h75.564l-7.063-321.002
					c0-28.602,10.424-30.543,18.367-38.488c-13.424-37.782-0.24-111.463,6.939-131.355c-20.48,0-25.512-11.946-33.898-17.154
					C463.992,40.721,450.25,42.251,450.25,49.666"/>
				<g>
					<g>
						<polyline fill="none" points="424.715,553.93 427.65,210.521 418.941,88.744 						"/>
						<polyline fill="none" points="434.928,553.93 436.691,210.521 431.654,128.056 						"/>
						<polyline fill="none" points="445.143,553.93 445.73,210.521 440.6,167.367 						"/>
						<polyline fill="none" points="455.357,553.93 454.77,210.521 459.902,167.367 						"/>
						<polyline fill="none" points="465.572,553.93 463.811,210.521 469.553,128.056 						"/>
						<polyline fill="none" points="475.787,553.93 472.85,210.521 481.559,88.744 						"/>
					</g>
					<g>
						<g>
							<circle fill="#E5E2D3" cx="418.942" cy="88.744" r="4.002"/>
						</g>
						<g>
							<circle fill="#E5E2D3" cx="431.654" cy="128.056" r="4.002"/>
						</g>
						<g>
							<circle fill="#E5E2D3" cx="440.6" cy="167.369" r="4.002"/>
						</g>
						<g>
							<circle fill="#E5E2D3" cx="481.56" cy="88.744" r="4.002"/>
						</g>
						<g>
							<circle fill="#E5E2D3" cx="469.554" cy="128.056" r="4.001"/>
						</g>
						<g>
							<circle fill="#E5E2D3" cx="459.902" cy="167.369" r="4.002"/>
						</g>
					</g>
				</g>
			</g>
			<g>
				<g>
					<g>
						<g>
							
								<rect x="482.973" y="85.448" fill="#4F5666" stroke="#000000" stroke-width="8" stroke-linecap="round" stroke-linejoin="round" stroke-miterlimit="10" width="32.25" height="6.591"/>
							<g>
								<path fill="#E5E2D3" d="M517.459,103.572c-6.295,0-11.416-5.121-11.416-11.415V85.33c0-6.294,5.121-11.414,11.416-11.414
									c6.294,0,11.414,5.12,11.414,11.414v6.827C528.873,98.451,523.753,103.572,517.459,103.572z"/>
								<path d="M517.459,77.916c4.096,0,7.414,3.319,7.414,7.414v6.827c0,4.096-3.318,7.415-7.414,7.415s-7.416-3.319-7.416-7.415
									V85.33C510.043,81.235,513.363,77.916,517.459,77.916 M517.459,69.916c-8.5,0-15.416,6.915-15.416,15.414v6.827
									c0,8.5,6.916,15.415,15.416,15.415c8.499,0,15.414-6.915,15.414-15.415V85.33C532.873,76.831,525.958,69.916,517.459,69.916
									L517.459,69.916z"/>
							</g>
						</g>
						<g>
							
								<rect x="482.973" y="124.761" fill="#4F5666" stroke="#000000" stroke-width="8" stroke-linecap="round" stroke-linejoin="round" stroke-miterlimit="10" width="32.25" height="6.591"/>
							<g>
								<path fill="#E5E2D3" d="M517.459,142.885c-6.295,0-11.416-5.121-11.416-11.415v-6.827c0-6.294,5.121-11.415,11.416-11.415
									c6.294,0,11.414,5.121,11.414,11.415v6.827C528.873,137.764,523.753,142.885,517.459,142.885z"/>
								<path d="M517.459,117.228c4.096,0,7.414,3.319,7.414,7.415v6.827c0,4.095-3.318,7.415-7.414,7.415s-7.416-3.32-7.416-7.415
									v-6.827C510.043,120.547,513.363,117.228,517.459,117.228 M517.459,109.228c-8.5,0-15.416,6.915-15.416,15.415v6.827
									c0,8.5,6.916,15.415,15.416,15.415c8.499,0,15.414-6.915,15.414-15.415v-6.827
									C532.873,116.143,525.958,109.228,517.459,109.228L517.459,109.228z"/>
							</g>
						</g>
						<g>
							
								<rect x="482.973" y="164.072" fill="#4F5666" stroke="#000000" stroke-width="8" stroke-linecap="round" stroke-linejoin="round" stroke-miterlimit="10" width="32.25" height="6.592"/>
							<g>
								<path fill="#E5E2D3" d="M517.459,182.197c-6.295,0-11.416-5.121-11.416-11.416v-6.826c0-6.295,5.121-11.416,11.416-11.416
									c6.294,0,11.414,5.121,11.414,11.416v6.826C528.873,177.076,523.753,182.197,517.459,182.197z"/>
								<path d="M517.459,156.539c4.096,0,7.414,3.32,7.414,7.416v6.826c0,4.096-3.318,7.416-7.414,7.416s-7.416-3.32-7.416-7.416
									v-6.826C510.043,159.859,513.363,156.539,517.459,156.539 M517.459,148.539c-8.5,0-15.416,6.916-15.416,15.416v6.826
									c0,8.5,6.916,15.416,15.416,15.416c8.499,0,15.414-6.916,15.414-15.416v-6.826
									C532.873,155.455,525.958,148.539,517.459,148.539L517.459,148.539z"/>
							</g>
						</g>
					</g>
					<g>
						<g>
							
								<rect x="385.279" y="85.448" fill="#4F5666" stroke="#000000" stroke-width="8" stroke-linecap="round" stroke-linejoin="round" stroke-miterlimit="10" width="32.25" height="6.591"/>
							<g>
								<path fill="#E5E2D3" d="M383.043,103.572c-6.295,0-11.416-5.121-11.416-11.415V85.33c0-6.294,5.121-11.414,11.416-11.414
									c6.294,0,11.414,5.12,11.414,11.414v6.827C394.457,98.451,389.337,103.572,383.043,103.572z"/>
								<path d="M383.043,77.916c4.096,0,7.414,3.319,7.414,7.414v6.827c0,4.096-3.318,7.415-7.414,7.415s-7.416-3.319-7.416-7.415
									V85.33C375.627,81.235,378.947,77.916,383.043,77.916 M383.043,69.916c-8.5,0-15.416,6.915-15.416,15.414v6.827
									c0,8.5,6.916,15.415,15.416,15.415c8.499,0,15.414-6.915,15.414-15.415V85.33C398.457,76.831,391.542,69.916,383.043,69.916
									L383.043,69.916z"/>
							</g>
						</g>
						<g>
							
								<rect x="385.279" y="124.761" fill="#4F5666" stroke="#000000" stroke-width="8" stroke-linecap="round" stroke-linejoin="round" stroke-miterlimit="10" width="32.25" height="6.591"/>
							<g>
								<path fill="#E5E2D3" d="M383.043,142.885c-6.295,0-11.416-5.121-11.416-11.415v-6.827c0-6.294,5.121-11.415,11.416-11.415
									c6.294,0,11.414,5.121,11.414,11.415v6.827C394.457,137.764,389.337,142.885,383.043,142.885z"/>
								<path d="M383.043,117.228c4.096,0,7.414,3.319,7.414,7.415v6.827c0,4.095-3.318,7.415-7.414,7.415s-7.416-3.32-7.416-7.415
									v-6.827C375.627,120.547,378.947,117.228,383.043,117.228 M383.043,109.228c-8.5,0-15.416,6.915-15.416,15.415v6.827
									c0,8.5,6.916,15.415,15.416,15.415c8.499,0,15.414-6.915,15.414-15.415v-6.827
									C398.457,116.143,391.542,109.228,383.043,109.228L383.043,109.228z"/>
							</g>
						</g>
						<g>
							
								<rect x="385.279" y="164.072" fill="#4F5666" stroke="#000000" stroke-width="8" stroke-linecap="round" stroke-linejoin="round" stroke-miterlimit="10" width="32.25" height="6.592"/>
							<g>
								<path fill="#E5E2D3" d="M383.043,182.197c-6.295,0-11.416-5.121-11.416-11.416v-6.826c0-6.295,5.121-11.416,11.416-11.416
									c6.294,0,11.414,5.121,11.414,11.416v6.826C394.457,177.076,389.337,182.197,383.043,182.197z"/>
								<path d="M383.043,156.539c4.096,0,7.414,3.32,7.414,7.416v6.826c0,4.096-3.318,7.416-7.414,7.416s-7.416-3.32-7.416-7.416
									v-6.826C375.627,159.859,378.947,156.539,383.043,156.539 M383.043,148.539c-8.5,0-15.416,6.916-15.416,15.416v6.826
									c0,8.5,6.916,15.416,15.416,15.416c8.499,0,15.414-6.916,15.414-15.416v-6.826
									C398.457,155.455,391.542,148.539,383.043,148.539L383.043,148.539z"/>
							</g>
						</g>
					</g>
				</g>
				
					<path fill="#141414" stroke="#000000" stroke-width="8" stroke-linecap="round" stroke-linejoin="round" stroke-miterlimit="10" d="
					M488.033,553.93l-7.063-321.002c0-28.602,10.424-30.543,18.367-38.488c-13.424-37.782-0.24-111.463,6.939-131.355
					c-20.48,0-25.512-11.946-33.898-17.154c-8.387-5.209-22.129-3.679-22.129,3.736"/>
				
					<path fill="#141414" stroke="#000000" stroke-width="8" stroke-linecap="round" stroke-linejoin="round" stroke-miterlimit="10" d="
					M450.25,49.666c0-7.415-13.742-8.945-22.127-3.736c-8.387,5.208-13.418,17.154-33.898,17.154
					c7.18,19.893,20.363,93.573,6.938,131.355c7.945,7.945,18.369,9.887,18.369,38.488l-7.063,321.002"/>
				<g>
					<g>
						<polyline fill="none" stroke="#4F5666" stroke-linejoin="round" stroke-miterlimit="10" points="424.715,553.93 
							427.65,210.521 418.941,88.744 						"/>
						<polyline fill="none" stroke="#4F5666" stroke-linejoin="round" stroke-miterlimit="10" points="434.928,553.93 
							436.691,210.521 431.654,128.056 						"/>
						<polyline fill="none" stroke="#4F5666" stroke-linejoin="round" stroke-miterlimit="10" points="445.143,553.93 
							445.73,210.521 440.6,167.367 						"/>
						<polyline fill="none" stroke="#4F5666" stroke-linejoin="round" stroke-miterlimit="10" points="455.357,553.93 
							454.77,210.521 459.902,167.367 						"/>
						<polyline fill="none" stroke="#4F5666" stroke-linejoin="round" stroke-miterlimit="10" points="465.572,553.93 
							463.811,210.521 469.553,128.056 						"/>
						<polyline fill="none" stroke="#4F5666" stroke-linejoin="round" stroke-miterlimit="10" points="475.787,553.93 
							472.85,210.521 481.559,88.744 						"/>
					</g>
					<g>
						<g>
							<path fill="#E5E2D3" d="M418.941,96.746c-2.138,0-4.146-0.832-5.657-2.345c-1.511-1.509-2.345-3.519-2.345-5.657
								c0-2.138,0.834-4.147,2.347-5.659c1.51-1.511,3.52-2.343,5.656-2.343s4.146,0.832,5.657,2.344
								c3.119,3.121,3.119,8.197,0,11.315C423.089,95.913,421.079,96.746,418.941,96.746z"/>
							<path d="M418.942,84.742c1.024,0,2.048,0.391,2.829,1.172c1.563,1.563,1.563,4.097,0,5.659
								c-0.781,0.782-1.806,1.173-2.83,1.173c-1.023,0-2.047-0.391-2.828-1.172c-1.564-1.563-1.564-4.097,0-5.66
								C416.895,85.133,417.918,84.742,418.942,84.742 M418.942,76.742c-3.206,0-6.22,1.248-8.485,3.515
								c-2.268,2.266-3.518,5.28-3.518,8.487c0,3.208,1.25,6.224,3.521,8.49c2.261,2.263,5.275,3.512,8.481,3.512
								c3.207,0,6.222-1.249,8.488-3.518c4.677-4.677,4.678-12.289,0-16.97C425.162,77.99,422.148,76.742,418.942,76.742
								L418.942,76.742z"/>
						</g>
						<g>
							<path fill="#E5E2D3" d="M431.653,136.059c-2.138,0-4.147-0.833-5.658-2.346c-3.118-3.118-3.119-8.194,0-11.314
								c1.511-1.513,3.521-2.346,5.659-2.346s4.148,0.834,5.66,2.348c3.118,3.117,3.118,8.193-0.002,11.313
								C435.801,135.226,433.791,136.059,431.653,136.059z"/>
							<path d="M431.654,124.053c1.024,0,2.049,0.392,2.83,1.174c1.563,1.563,1.563,4.096,0,5.658
								c-0.782,0.782-1.807,1.174-2.831,1.174s-2.048-0.392-2.829-1.173c-1.563-1.563-1.563-4.097,0-5.66
								C429.605,124.444,430.63,124.053,431.654,124.053 M431.654,116.053L431.654,116.053c-3.207,0.001-6.223,1.25-8.488,3.518
								c-4.678,4.681-4.677,12.294,0.002,16.973c2.265,2.266,5.278,3.516,8.485,3.516c3.206,0,6.22-1.249,8.487-3.517
								c4.68-4.68,4.68-12.293,0-16.973C437.878,117.303,434.862,116.053,431.654,116.053L431.654,116.053z"/>
						</g>
						<g>
							<path fill="#E5E2D3" d="M440.599,175.37c-2.138,0-4.146-0.832-5.657-2.344c-3.118-3.119-3.118-8.195-0.002-11.315
								c1.513-1.514,3.521-2.346,5.659-2.346c2.14,0,4.149,0.834,5.661,2.348c3.117,3.116,3.117,8.191-0.001,11.312
								C444.745,174.538,442.735,175.37,440.599,175.37z"/>
							<path d="M440.599,163.365c1.024,0,2.05,0.392,2.831,1.174c1.563,1.563,1.563,4.095,0,5.658
								c-0.782,0.781-1.807,1.173-2.831,1.173s-2.048-0.391-2.829-1.172c-1.563-1.563-1.563-4.097,0-5.661
								C438.551,163.756,439.574,163.365,440.599,163.365 M440.599,155.365L440.599,155.365c-3.206,0-6.22,1.248-8.485,3.516
								c-4.678,4.683-4.677,12.295-0.002,16.973c2.268,2.269,5.281,3.517,8.487,3.517c3.205,0,6.219-1.248,8.486-3.515
								c4.681-4.683,4.679-12.296,0.001-16.973C446.822,156.615,443.808,155.365,440.599,155.365L440.599,155.365z"/>
						</g>
						<g>
							<path fill="#E5E2D3" d="M481.561,96.746c-2.138,0-4.147-0.833-5.659-2.346c-1.511-1.509-2.345-3.519-2.345-5.656
								s0.834-4.147,2.347-5.659c1.51-1.511,3.52-2.343,5.656-2.343s4.146,0.832,5.657,2.344c1.512,1.511,2.346,3.521,2.346,5.658
								c0,2.139-0.834,4.148-2.348,5.66C485.707,95.914,483.698,96.746,481.561,96.746L481.561,96.746z"/>
							<path d="M481.56,84.742c1.024,0,2.048,0.391,2.829,1.172c1.564,1.563,1.564,4.098,0,5.66
								c-0.781,0.781-1.805,1.172-2.828,1.172c-1.024,0-2.049-0.391-2.83-1.173c-1.564-1.563-1.564-4.096,0-5.659
								C479.512,85.133,480.535,84.742,481.56,84.742 M481.56,76.742c-3.206,0-6.22,1.248-8.485,3.515
								c-2.268,2.266-3.518,5.28-3.518,8.487s1.25,6.223,3.521,8.489c2.262,2.264,5.276,3.513,8.483,3.513
								c3.206,0,6.221-1.249,8.486-3.517c2.266-2.262,3.516-5.277,3.516-8.485c0-3.207-1.25-6.222-3.519-8.488
								C487.779,77.99,484.766,76.742,481.56,76.742L481.56,76.742z"/>
						</g>
						<g>
							<path fill="#E5E2D3" d="M469.554,136.059c-2.138,0-4.147-0.834-5.659-2.348c-3.118-3.117-3.118-8.193,0.002-11.313
								c1.51-1.512,3.52-2.346,5.657-2.346s4.147,0.833,5.658,2.346c1.511,1.51,2.345,3.52,2.345,5.657
								c0,2.139-0.834,4.148-2.348,5.66C473.701,135.226,471.691,136.059,469.554,136.059
								C469.554,136.059,469.555,136.059,469.554,136.059z"/>
							<path d="M469.555,124.053c1.023,0,2.047,0.392,2.828,1.173c1.564,1.563,1.564,4.098,0,5.66
								c-0.781,0.781-1.805,1.173-2.828,1.173c-1.024,0-2.049-0.392-2.83-1.174c-1.563-1.563-1.563-4.096,0-5.658
								C467.506,124.444,468.53,124.053,469.555,124.053 M469.555,116.053c-3.208,0-6.224,1.25-8.49,3.521
								c-4.676,4.676-4.676,12.289,0.004,16.969c2.263,2.267,5.278,3.517,8.486,3.517c3.206,0,6.22-1.25,8.486-3.518
								c2.266-2.262,3.516-5.277,3.516-8.485c0-3.206-1.25-6.222-3.519-8.488C475.774,117.303,472.761,116.053,469.555,116.053
								L469.555,116.053z"/>
						</g>
						<g>
							<path fill="#E5E2D3" d="M459.902,175.37c-2.139,0-4.148-0.833-5.659-2.346c-3.118-3.12-3.118-8.195,0.001-11.313
								c1.51-1.512,3.52-2.346,5.658-2.346c2.136,0,4.145,0.832,5.656,2.342c3.12,3.124,3.12,8.2,0.003,11.318
								C464.047,174.538,462.038,175.37,459.902,175.37L459.902,175.37z"/>
							<path d="M459.902,163.365c1.023,0,2.048,0.391,2.83,1.172c1.563,1.564,1.563,4.098,0,5.661
								c-0.782,0.781-1.807,1.172-2.83,1.172c-1.024,0-2.049-0.392-2.83-1.173c-1.563-1.563-1.563-4.096,0-5.658
								C457.854,163.757,458.878,163.365,459.902,163.365 M459.902,155.365c-3.208,0-6.223,1.25-8.49,3.521
								c-4.674,4.674-4.676,12.287,0.002,16.967c2.267,2.269,5.281,3.518,8.488,3.518c3.203,0,6.217-1.247,8.483-3.512
								c4.68-4.683,4.681-12.295,0.007-16.975C466.119,156.612,463.105,155.365,459.902,155.365L459.902,155.365z"/>
						</g>
					</g>
				</g>
			</g>
		</g>
	</g>
</g>
</svg>
