<?xml version="1.0" encoding="utf-8"?>
<!-- Generator: Adobe Illustrator 16.0.0, SVG Export Plug-In . SVG Version: 6.00 Build 0)  -->
<!DOCTYPE svg PUBLIC "-//W3C//DTD SVG 1.1//EN" "http://www.w3.org/Graphics/SVG/1.1/DTD/svg11.dtd">
<svg version="1.1" xmlns="http://www.w3.org/2000/svg" xmlns:xlink="http://www.w3.org/1999/xlink" x="0px" y="0px"
	 width="566.93px" height="566.93px" viewBox="0 0 566.93 566.93" enable-background="new 0 0 566.93 566.93" xml:space="preserve">
<g id="fond" display="none">
	
		<rect x="-6964.42" y="-10145.944" display="inline" fill-rule="evenodd" clip-rule="evenodd" fill="#58595B" width="15942.492" height="15814.695"/>
</g>
<g id="en_cours">
</g>
<g id="fini">
	<g>
		<g>
			<path fill-rule="evenodd" clip-rule="evenodd" fill="#FFFFFF" d="M265.164,460.999c-3.766,0-9.167-2.432-17.58-21.348
				c-5.147-11.572-10.27-26.945-14.054-42.177c-5.018-20.192-11.482-55.102,1.595-62.017c1.556-0.819,3.168-1.233,4.798-1.233
				c12.238,0,19.788,22.47,27.705,49.616c1.686,5.781,3.583,12.287,4.562,14.179c0.304,0.243,0.569,0.528,0.789,0.845l0.002,0.004
				c0.186,0.269,0.339,0.561,0.456,0.868c0.237,0.629,0.318,1.325,0.207,2.031c-0.011,0.07-0.024,0.14-0.039,0.209
				c-0.599,3.021-0.233,11.008,0.12,18.733c0.961,21.01,1.169,34.09-4.041,38.57c-1.305,1.123-2.867,1.718-4.515,1.719
				C265.168,460.999,265.166,460.999,265.164,460.999z"/>
			<path d="M239.924,338.224c15.221-0.004,25.927,62.139,29.769,62.921h-0.001c-0.091,0-0.426,1.798-0.396,1.798
				c0.016,0,0.123-0.449,0.397-1.798c-1.912,9.397,3.908,49.492-2.616,55.103c-0.59,0.508-1.23,0.752-1.91,0.752
				c-14.332,0-46.73-108.19-28.171-118.005C237.989,338.471,238.966,338.225,239.924,338.224 M269.693,401.145h0.005
				 M269.693,401.145h0.005 M239.926,330.224v8V330.224c-0.001,0-0.003,0-0.003,0c-2.288,0.001-4.526,0.57-6.656,1.693
				c-7.12,3.765-10.324,12.865-9.806,27.825c0.458,13.214,3.605,28.282,6.165,38.598c3.836,15.461,9.044,31.097,14.288,42.896
				c7.402,16.656,13.759,23.764,21.254,23.764c2.619,0,5.084-0.93,7.127-2.688c6.365-5.473,6.538-17.509,5.427-41.784
				c-0.305-6.673-0.684-14.943-0.218-17.631c0.126-0.563,0.192-1.15,0.192-1.752c0-2.125-0.828-4.056-2.179-5.488
				c-0.935-2.261-2.645-8.126-4.048-12.936C262.794,352.977,254.963,330.224,239.926,330.224L239.926,330.224z"/>
		</g>
		<g>
			<path fill-rule="evenodd" clip-rule="evenodd" fill="#FFFFFF" d="M288.111,535.383c-11.821,0.001-12.41-22.797-13.034-46.933
				c-0.05-1.949-0.1-3.86-0.155-5.708c-0.782-25.987-6.205-60.285-13.814-87.378c-9.933-35.359-20.521-47.958-27.117-47.958
				c-3.526,0-10.791,3.521-19.83,27.099c-17.89,46.66-25.058,79.892-28.407,131.693c-0.543,8.431-5.69,9.086-7.255,9.086
				c-8.3,0-17.565-15.65-23.469-30.296c-8.607-21.354-13.351-47.486-13.358-73.593c-0.68-21.981,3.582-39.718,7.343-55.369
				c6.048-25.174,11.272-46.915-4.218-79.547c-9.441-19.888-16.447-43.767-19.22-65.513c-3.508-27.51-0.231-50.944,9.478-67.771
				c9.736-16.872,26.728-17.663,41.72-18.36c2.663-0.124,5.417-0.252,8.062-0.462c12.723-1.015,19.247-9.236,26.801-18.756
				c4.583-5.775,9.322-11.748,15.787-16.383c9.289-6.66,18.3-9.897,27.549-9.897c14.941,0,27.902,8.64,40.436,16.995
				c12.513,8.341,25.452,16.966,40.271,16.966l0.384-0.002c7.744-0.076,15.603-2.317,23.202-4.485
				c7.794-2.223,15.854-4.521,23.894-4.521c9.913,0,18.476,3.541,26.178,10.825c18.961,17.932,25.503,35.491,29.912,58.011
				c6.488,33.155,1.055,68.388-15.713,101.891c-11.337,22.659-3.4,42.979,5.003,64.493c5.034,12.889,10.24,26.216,11.735,40.795
				c0.886,8.637,3.641,39.131,1.884,68.91c-2.101,35.608-9.937,57.234-23.29,64.278c-0.57,0.301-1.237,0.468-1.881,0.471
				c-0.01,0-0.021,0-0.031,0c-4.018,0-4.403-3.413-5.246-10.869c-0.523-4.633-1.136-11.119-1.847-18.631
				c-2.138-22.611-5.065-53.578-8.961-71.287c-5.708-25.951-27.873-64.245-40.219-64.245c-4.776,0-7.567,7.992-8.807,12.756
				c-3.956,15.216-6.583,31.225-9.124,46.706c-4.46,27.175-9.071,55.274-21.037,80.712
				C302.588,529.774,294.261,535.382,288.111,535.383z"/>
			<path d="M254.972,83.338c28.188,0,49.453,33.961,80.708,33.961c0.142,0,0.281-0.001,0.423-0.002
				c16.385-0.161,31.927-9.007,47.057-9.007c7.902,0,15.689,2.411,23.43,9.731c17.387,16.442,24.2,32.71,28.735,55.873
				c6.667,34.07-0.075,68.782-15.365,99.332c-19.072,38.12,12.379,68.906,16.336,107.486c2.523,24.591,8.895,114.373-19.292,129.242
				c-0.011,0.006-0.021,0.009-0.032,0.009c-1.688,0-5.567-67.67-12.161-97.646c-5.708-25.949-28.285-67.382-44.125-67.386
				c-5.255-0.001-9.767,4.556-12.678,15.749c-10.924,42.021-11.401,87.374-29.909,126.723
				c-15.263,32.45-24.427,43.979-29.987,43.979c-8.711,0-8.575-28.296-9.19-48.76c-1.503-49.95-20.751-139.214-44.93-139.216
				c-7.508-0.001-15.49,8.605-23.565,29.667c-18.427,48.063-25.389,82.213-28.664,132.867c-0.233,3.626-1.434,5.344-3.263,5.344
				c-8.921,0-32.828-40.793-32.828-99.952c0.053,1.067,0.089,1.491,0.114,1.491c0.095,0,0.004-6.454-0.061-6.453
				c-0.029,0-0.053,1.275-0.053,4.962c-1.754-55.998,28.844-81.571,2.739-136.567c-16.421-34.591-30.59-93.695-9.891-129.569
				c10.225-17.72,29.122-15.441,46.633-16.834c22.788-1.816,28.162-24.089,44.601-35.875
				C238.918,85.915,247.209,83.338,254.972,83.338 M254.972,75.338c-10.113,0-19.887,3.482-29.88,10.646
				c-6.919,4.961-11.835,11.156-16.589,17.147c-8.058,10.154-13.528,16.421-23.986,17.255c-2.577,0.205-5.176,0.325-7.928,0.454
				c-15.224,0.708-34.169,1.589-44.999,20.356c-10.149,17.59-13.601,41.891-9.981,70.276c2.824,22.147,9.959,46.467,19.574,66.722
				c14.884,31.355,10.055,51.452,3.941,76.896c-3.815,15.882-8.14,33.876-7.453,56.365c0.015,26.586,4.861,53.227,13.648,75.026
				c4.938,12.25,15.035,32.801,27.179,32.801c4.807,0,10.637-3.359,11.247-12.83c3.32-51.346,10.423-84.281,28.15-130.517
				c9.298-24.253,15.821-24.531,16.095-24.531c2.952,0,12.888,8.093,23.267,45.041c7.529,26.806,12.894,60.726,13.667,86.415
				c0.056,1.842,0.104,3.748,0.155,5.691c0.255,9.865,0.544,21.048,1.816,29.821c0.771,5.31,1.849,9.383,3.296,12.454
				c3.508,7.442,8.974,8.553,11.919,8.553c8.877,0,18.201-8.125,37.227-48.573c12.203-25.942,16.86-54.322,21.364-81.768
				c2.526-15.393,5.139-31.309,9.048-46.348c1.938-7.448,4.294-9.762,4.933-9.762c1.863,0.001,8.916,3.62,19.044,20.144
				c7.827,12.77,14.606,28.847,17.27,40.961c3.843,17.471,6.758,48.298,8.886,70.807c0.711,7.529,1.327,14.031,1.854,18.699
				c0.295,2.615,0.541,4.468,0.773,5.829c0.165,0.966,0.327,1.71,0.512,2.342c1.351,4.614,5.126,6.251,7.949,6.251
				c1.301,0,2.615-0.326,3.765-0.934c14.882-7.851,23.196-29.956,25.416-67.58c1.774-30.078-1.004-60.842-1.898-69.554
				c-1.55-15.12-6.857-28.704-11.988-41.842c-8.421-21.56-15.693-40.179-5.152-61.249c17.167-34.3,22.721-70.417,16.062-104.447
				c-4.434-22.65-11.418-41.547-31.089-60.149c-8.481-8.021-17.943-11.919-28.927-11.919c-8.6,0-16.932,2.377-24.991,4.676
				c-7.683,2.191-14.939,4.261-22.145,4.332l-0.345,0.001c-13.608,0-25.482-7.915-38.053-16.294
				C284.597,84.319,271.124,75.338,254.972,75.338L254.972,75.338z"/>
		</g>
		
			<path fill-rule="evenodd" clip-rule="evenodd" fill="none" stroke="#000000" stroke-width="8" stroke-linecap="round" stroke-linejoin="round" stroke-miterlimit="10" d="
			M174.106,172.308c36.661,30.503,60.974-10.218,103.618-10.218c42.644,0,79.513,35.119,106.011-11.162"/>
	</g>
</g>
</svg>
