<?xml version="1.0" encoding="utf-8"?>
<!-- Generator: Adobe Illustrator 16.0.0, SVG Export Plug-In . SVG Version: 6.00 Build 0)  -->
<!DOCTYPE svg PUBLIC "-//W3C//DTD SVG 1.1//EN" "http://www.w3.org/Graphics/SVG/1.1/DTD/svg11.dtd">
<svg version="1.1" xmlns="http://www.w3.org/2000/svg" xmlns:xlink="http://www.w3.org/1999/xlink" x="0px" y="0px"
	 width="566.93px" height="566.93px" viewBox="0 0 566.93 566.93" enable-background="new 0 0 566.93 566.93" xml:space="preserve">
<g id="fond" display="none">
	
		<rect x="-12155.873" y="-8228.754" display="inline" fill-rule="evenodd" clip-rule="evenodd" fill="#58595B" width="15942.492" height="15814.695"/>
</g>
<g id="en_cours">
</g>
<g id="fini">
	<g>
		<g>
			<g>
				<path fill="#2268A8" d="M49.35,499.339c-2.209,0-4-1.791-4-4V158.365c0-2.209,1.791-4,4-4h468.23c2.209,0,4,1.791,4,4v336.974
					c0,2.209-1.791,4-4,4H49.35z"/>
				<path d="M517.58,158.365v336.974H49.35V158.365H517.58 M517.58,150.365H49.35c-4.418,0-8,3.582-8,8v336.974c0,4.418,3.582,8,8,8
					h468.23c4.418,0,8-3.582,8-8V158.365C525.58,153.947,521.998,150.365,517.58,150.365L517.58,150.365z"/>
			</g>
			<g>
				<g>
					<g>
						<path fill="#4F5666" d="M116.146,445.9c-7.71-0.001-14.042-6.038-14.417-13.745c-0.019-0.47-0.017-0.913-0.003-1.333
							l6.025-124.751c-7.077-3.189-11.916-10.242-12.155-18.152c-0.001-0.014-0.004-0.042-0.004-0.042
							c-0.017-0.255-0.019-0.53-0.004-0.784l2.232-53.756c0.126-2.953,2.535-5.263,5.484-5.263c0.058,0,0.179,0.002,0.235,0.005
							c1.622,0.069,3.074,0.86,4.04,2.058c1.007-1.262,2.557-2.063,4.293-2.063c0.057,0,0.179,0.002,0.235,0.005
							c1.623,0.069,3.075,0.86,4.04,2.058c1.006-1.262,2.556-2.063,4.293-2.063c0.058,0,0.179,0.002,0.235,0.005
							c1.649,0.07,3.097,0.846,4.053,2.038c1.007-1.25,2.551-2.043,4.282-2.043c0.056,0,0.178,0.002,0.235,0.005
							c2.825,0.12,5.132,2.429,5.251,5.255c0,0,2.24,53.906,2.24,53.962c0,8.193-4.869,15.511-12.174,18.782l6.021,124.682
							c0.187,3.854-1.139,7.551-3.731,10.406c-2.594,2.855-6.145,4.531-9.999,4.717C116.618,445.895,116.381,445.9,116.146,445.9z"
							/>
						<path d="M129.013,232.074c0.021,0,0.043,0,0.064,0.001c0.779,0.033,1.394,0.664,1.425,1.428l2.237,53.793
							c0,7.666-5.231,14.13-12.312,16.02l6.163,127.638c0.278,5.763-4.164,10.656-9.929,10.935
							c-0.173,0.009-0.344,0.013-0.516,0.013c-5.533,0-10.15-4.35-10.422-9.939c-0.013-0.334-0.011-0.68,0-1.008l6.165-127.641
							c-6.959-1.858-12.13-8.143-12.298-15.64c-0.002-0.022-0.008-0.044-0.008-0.068c-0.007-0.101-0.007-0.21,0-0.309l2.233-53.793
							c0.034-0.8,0.695-1.429,1.488-1.429c0.021,0,0.043,0,0.064,0.001c0.777,0.033,1.396,0.664,1.43,1.428l2.234,53.793h1.116
							l2.234-53.793c0.035-0.8,0.695-1.429,1.489-1.429c0.021,0,0.043,0,0.064,0.001c0.778,0.033,1.395,0.664,1.428,1.428
							l2.235,53.793h1.117l2.237-53.793c0.033-0.8,0.693-1.429,1.486-1.429c0.021,0,0.043,0,0.064,0.001
							c0.781,0.033,1.395,0.664,1.429,1.428l2.237,53.793h1.114l2.237-53.793C127.557,232.703,128.217,232.074,129.013,232.074
							 M129.013,224.074c-1.54,0-2.993,0.362-4.279,1.01c-1.173-0.589-2.487-0.942-3.887-1.002
							c-0.136-0.006-0.271-0.008-0.404-0.008c-1.55,0-3.014,0.368-4.306,1.024c-1.172-0.597-2.479-0.957-3.857-1.017
							c-0.138-0.006-0.271-0.008-0.405-0.008c-1.55,0-3.014,0.368-4.306,1.025c-1.172-0.598-2.479-0.958-3.856-1.018
							c-0.138-0.006-0.272-0.008-0.406-0.008c-5.099-0.001-9.263,3.991-9.481,9.087l-2.23,53.736
							c-0.022,0.413-0.02,0.83,0.008,1.243c0.291,8.45,4.977,16.071,12.031,20.284l-5.898,122.143
							c-0.002,0.041-0.004,0.083-0.006,0.124c-0.018,0.547-0.018,1.076,0.002,1.573c0,0.028,0.002,0.057,0.004,0.085
							c0.479,9.842,8.566,17.551,18.412,17.551c0.301,0,0.602-0.008,0.904-0.022c4.92-0.237,9.453-2.376,12.764-6.023
							c3.313-3.646,5.004-8.365,4.768-13.287l-5.897-122.127c7.325-4.347,12.055-12.32,12.055-21.145
							c0-0.11-0.003-0.222-0.007-0.332l-2.236-53.793c-0.207-4.891-4.193-8.88-9.078-9.089
							C129.28,224.076,129.146,224.074,129.013,224.074L129.013,224.074z"/>
					</g>
					<g>
						<path fill="#4F5666" d="M456.894,445.9c-7.713-0.001-14.045-6.039-14.414-13.748c-0.023-0.445-0.024-0.923,0-1.401
							l3.837-79.455c-5.744-2.2-9.736-7.76-9.738-14.169c0-0.485,0.023-0.983,0.072-1.481l10.259-104.258
							c0.509-5.16,4.799-9.051,9.979-9.051c0.325,0,0.655,0.016,0.986,0.049c5.136,0.507,9.026,4.79,9.051,9.963l0.022,104.77
							c0,0.438-0.021,0.894-0.066,1.384l4.453,92.259c0.187,3.854-1.139,7.549-3.733,10.405c-2.594,2.855-6.145,4.531-9.999,4.717
							C457.365,445.895,457.129,445.9,456.894,445.9z"/>
						<path d="M456.888,226.337c0.196,0,0.396,0.01,0.595,0.029c3.106,0.307,5.428,2.946,5.442,6.002l0.022,104.751
							c0,0.436-0.029,0.857-0.076,1.28l4.468,92.554c0.279,5.763-4.167,10.656-9.93,10.935c-0.173,0.009-0.345,0.013-0.516,0.013
							c-5.532,0-10.151-4.35-10.419-9.939c-0.018-0.334-0.017-0.68,0-1.008l3.994-82.727c-5.563-0.643-9.889-5.362-9.891-11.101
							c0-0.367,0.02-0.742,0.054-1.099l10.258-104.248C451.197,228.666,453.82,226.337,456.888,226.337 M456.888,218.337
							c-7.245,0-13.247,5.441-13.96,12.656L432.67,335.244c-0.062,0.644-0.092,1.271-0.092,1.882
							c0.002,7.056,3.83,13.296,9.615,16.626l-3.709,76.815c-0.031,0.596-0.03,1.212,0.002,1.813
							c0.47,9.808,8.557,17.52,18.407,17.52c0.3,0,0.601-0.008,0.904-0.022c4.919-0.237,9.452-2.376,12.764-6.022
							c3.313-3.647,5.007-8.367,4.769-13.289l-4.441-91.992c0.039-0.504,0.059-0.984,0.059-1.455l-0.022-104.753
							c-0.034-7.266-5.476-13.252-12.655-13.961C457.808,218.359,457.345,218.337,456.888,218.337L456.888,218.337z"/>
					</g>
				</g>
				<g>
					<path fill="#E5E2D3" d="M283.465,454.56c-70.417,0-127.706-57.289-127.706-127.707s57.289-127.707,127.706-127.707
						c70.418,0,127.707,57.289,127.707,127.707S353.883,454.56,283.465,454.56z"/>
					<path d="M283.465,203.146c68.323,0,123.707,55.385,123.707,123.707c0,68.32-55.384,123.707-123.707,123.707
						c-68.321,0-123.706-55.387-123.706-123.707C159.759,258.53,215.144,203.146,283.465,203.146 M283.465,195.146
						c-35.18,0-68.254,13.7-93.131,38.576c-24.875,24.876-38.575,57.95-38.575,93.131c0,35.18,13.7,68.254,38.575,93.131
						c24.877,24.876,57.951,38.576,93.131,38.576c35.182,0,68.256-13.7,93.132-38.576c24.876-24.877,38.575-57.951,38.575-93.131
						c0-35.181-13.699-68.255-38.575-93.131S318.646,195.146,283.465,195.146L283.465,195.146z"/>
				</g>
				<g>
					<path fill="#E5E2D3" d="M283.465,409.532c-45.588,0-82.68-37.09-82.68-82.68c0-45.591,37.092-82.682,82.68-82.682
						c45.591,0,82.681,37.091,82.681,82.682C366.146,372.442,329.056,409.532,283.465,409.532z"/>
					<path d="M283.465,248.171c43.453,0,78.681,35.229,78.681,78.682s-35.228,78.68-78.681,78.68
						c-43.452,0-78.68-35.227-78.68-78.68S240.013,248.171,283.465,248.171 M283.465,240.171c-47.795,0-86.68,38.885-86.68,86.682
						c0,47.795,38.885,86.68,86.68,86.68c47.797,0,86.681-38.885,86.681-86.68C370.146,279.056,331.262,240.171,283.465,240.171
						L283.465,240.171z"/>
				</g>
			</g>
		</g>
		<polygon fill="#AB2E23" stroke="#000000" stroke-width="8" stroke-linejoin="round" stroke-miterlimit="10" points="
			407.17,185.931 447.005,116.949 428.196,116.949 428.196,64.106 386.15,64.106 386.15,116.949 367.341,116.949 		"/>
	</g>
</g>
</svg>
