<?xml version="1.0" encoding="utf-8"?>
<!-- Generator: Adobe Illustrator 16.0.0, SVG Export Plug-In . SVG Version: 6.00 Build 0)  -->
<!DOCTYPE svg PUBLIC "-//W3C//DTD SVG 1.1//EN" "http://www.w3.org/Graphics/SVG/1.1/DTD/svg11.dtd">
<svg version="1.1" xmlns="http://www.w3.org/2000/svg" xmlns:xlink="http://www.w3.org/1999/xlink" x="0px" y="0px"
	 width="566.93px" height="566.93px" viewBox="0 0 566.93 566.93" enable-background="new 0 0 566.93 566.93" xml:space="preserve">
<g id="fond" display="none">
	
		<rect x="-5662.873" y="-8231.828" display="inline" fill-rule="evenodd" clip-rule="evenodd" fill="#58595B" width="15942.492" height="15814.695"/>
</g>
<g id="en_cours">
</g>
<g id="fini">
	<g>
		
			<path fill="#BFAA41" stroke="#000000" stroke-width="8" stroke-linecap="round" stroke-linejoin="round" stroke-miterlimit="10" d="
			M264.069,477.908c-8.686-3.822-17.014-8.188-24.829-13.597c-8.372-5.793-16.054-12.547-22.93-20.054
			c-5.756-6.284-10.986-13.133-15.521-20.412c-5.875-5.494-11.183-11.521-16.291-17.727c-2.514-3.055-4.946-6.279-7.125-9.575
			c-1.78-2.692-3.646-5.336-5.318-8.097c-1.286-2.122-2.604-4.227-3.874-6.358c-1.38-2.315-2.593-4.738-3.903-7.093
			c-2.618-4.707-4.71-9.753-6.662-14.764c-1.946-4.996-3.43-10.178-4.46-15.439c-1.035-5.286-1.788-10.827-1.583-16.228
			c0.009-5.306,0.421-10.693,1.449-15.905c1.056-5.356,2.363-10.6,4.839-15.493c4.646-9.179,13.03-16.419,21.961-21.275
			c3.7-2.014,7.522-3.746,11.504-5.126c-2.866,0-5.732,0-8.599,0c-7.437,0-14.873,0-22.31,0c-10.265,0-20.528,0-30.793,0
			c-11.349,0-22.698,0-34.047,0c-10.691,0-21.383,0-32.073,0c-8.291,0-16.581,0-24.872,0c-4.147,0-8.294,0-12.441,0
			c-0.186,0-0.37,0-0.556,0c7.299,5.571,14.023,12.028,20.291,18.726c7.446,7.956,14.478,16.339,20.492,25.441
			c2.968,4.491,5.63,9.188,8.409,13.796c2.802,4.646,5.708,9.231,8.658,13.785c5.73,8.845,11.592,17.605,17.563,26.29
			c11.813,17.183,24.013,34.077,38.892,48.777c7.616,7.524,15.868,14.474,24.475,20.839c4.348,3.214,8.786,6.293,13.331,9.221
			c4.597,2.962,9.287,5.736,13.992,8.523c9.223,4.932,18.501,9.645,28.175,13.642c9.751,4.028,19.747,7.463,29.914,10.279
			c5.282,1.464,10.63,2.778,16.019,3.784c2.462,0.461,4.928,1.06,7.407,1.423c1.968,0.289,3.935,0.577,5.902,0.864
			c4.249,0.617,8.504,1.037,12.776,1.446c4.496,0.43,9.016,0.574,13.526,0.78c2.063,0.094,4.151,0.007,6.216-0.001
			c1.245-0.005,2.497,0.022,3.746,0.013c-8.869-0.193-17.606-0.996-26.322-2.759C280.577,483.912,272.036,481.413,264.069,477.908z"
			/>
		
			<path fill="#BFAA41" stroke="#000000" stroke-width="8" stroke-linecap="round" stroke-linejoin="round" stroke-miterlimit="10" d="
			M298.977,245.484c13.324-2.008,26.986-1.662,40.221,1.05c18.624,3.813,36.312,12.438,50.813,24.725
			c7.877,6.673,14.893,14.37,20.72,22.895c5.914,8.651,10.85,18.265,13.943,28.3c1.857,6.027,3.421,12.098,4.335,18.347
			c0.698,4.763,0.988,9.541,1.222,14.345c0.002-0.104,0.005-0.207,0.004-0.311c-0.002,0.609-0.004,1.217-0.007,1.826
			c0.001-0.14,0.001-0.146,0,0.263c0,0.063,0,0.128-0.001,0.182c0,0.157-0.001,0.231,0,0.001c-0.04,9.927-1.162,19.724-3.578,29.361
			c-2.558,10.207-6.498,20.078-11.714,29.221c-10.282,18.023-25.29,33.099-43.402,43.241c-7.17,4.015-14.769,7.209-22.645,9.517
			c3.938-0.499,7.86-1.118,11.762-1.896c14.371-2.864,28.564-6.987,41.944-13.028c4.516-2.038,8.98-4.191,13.361-6.506
			c0.219-0.22,0.443-0.434,0.659-0.655c14.212-14.558,25.07-32.223,31.462-51.545c4.431-13.396,6.755-27.585,6.718-41.703
			c-0.008-0.19-0.028-1.657,0.002-0.449c-0.098-3.877-0.156-7.734-0.467-11.604c-0.341-4.239-0.89-8.459-1.642-12.646
			c-1.885-10.504-5.003-20.749-9.197-30.558c-8.223-19.23-21.094-36.545-36.948-50.157c-15.651-13.438-34.493-23.277-54.485-28.378
			c-6.318-1.611-12.752-2.765-19.232-3.48c-3.045-0.434-6.172-0.557-9.241-0.716c-1.396-0.028-2.792-0.057-4.188-0.086
			c-0.531-0.011-1.472,0.055-1.835-0.038c-0.769-0.194-1.875,0.03-2.658,0.057c-2.722,0.094-5.429,0.195-8.143,0.429
			c-2.605,0.226-5.198,0.514-7.782,0.864c-2.845,0.387-5.68,0.85-8.505,1.41c-9.563,1.899-18.697,4.999-27.7,8.693
			c-6.981,2.865-13.699,6.724-20.007,10.839c-7.715,5.032-14.931,10.83-21.501,17.285c-14.231,13.98-25.419,31.173-32.314,49.903
			c-3.622,9.838-6.387,20.25-7.474,30.699c-0.48,4.622-0.999,9.281-1.001,13.935c-0.002,7.264,0.288,14.472,1.26,21.684
			c1.364,10.119,4.024,19.938,7.518,29.515c2.992,8.203,6.901,16.092,11.537,23.532c4.535,7.279,9.766,14.128,15.521,20.412
			c6.876,7.507,14.558,14.261,22.93,20.054c7.815,5.408,16.144,9.774,24.829,13.597c7.967,3.505,16.508,6.004,25.027,7.728
			c8.716,1.763,17.453,2.565,26.322,2.759c0.59-0.005,1.178-0.015,1.765-0.045c4.991-0.256,9.977-0.464,14.948-0.971
			c1.87-0.191,3.743-0.387,5.615-0.598c4.442-0.501,8.88-1.099,13.252-1.998c4.166-0.858,8.336-1.666,12.458-2.719
			c9.702-2.479,19.217-5.468,28.517-9.196c19.234-7.712,37.528-18.104,53.843-30.903c4.223-3.442,8.402-6.889,12.468-10.518
			c2.36-2.106,4.612-4.295,6.877-6.506c6.114-5.97,11.84-12.306,17.216-18.949c13.239-16.363,24.321-34.548,32.438-53.987
			c4.143-9.922,7.701-20.127,10.297-30.567c2.545-10.229,4.728-20.608,5.701-31.122c0.2-2.172,0.399-4.343,0.598-6.514
			c0.193-2.115,0.079-4.32,1.155-6.225c0.964-1.705,2.506-3.03,4.122-4.1c0.822-0.545,1.686-0.998,2.568-1.435
			c0.534-0.265,1.434-0.876,2.039-0.876c-8.541-0.216-17.082-0.433-25.622-0.648c-2.03-0.051-4.06-0.104-6.088-0.154
			c0.229,0,0.621,0.274,0.818,0.37c0.487,0.233,0.956,0.491,1.431,0.749c0.998,0.563,1.953,1.175,2.848,1.892
			c1.735,1.389,3.315,3.159,3.866,5.364c0.283,1.135,0.198,2.325,0.13,3.479c-0.078,1.327-0.157,2.654-0.235,3.981
			c-0.154,2.623-0.3,5.237-0.585,7.851c-1.175,10.778-2.873,21.451-5.728,31.924c-2.66,9.763-6.009,19.329-10.093,28.59
			c-2.213,5.018-4.59,10.002-7.307,14.768c-1.318,2.314-2.609,4.648-3.968,6.939c-1.393,2.35-2.949,4.615-4.423,6.914
			c-4.726,7.371-10.256,14.248-16.021,20.827c-5.256,5.999-10.942,11.508-16.8,16.913c-3.001,2.77-6.264,5.343-9.499,7.83
			c-4.306,3.31-8.719,6.422-13.191,9.501c-4.357,2.999-9.048,5.646-13.704,8.147c-0.388,0.208-0.78,0.406-1.17,0.611
			c-4.381,2.314-8.846,4.468-13.361,6.506c-13.38,6.041-27.573,10.164-41.944,13.028c-3.901,0.777-7.824,1.396-11.762,1.896
			c-2.072,0.607-4.16,1.167-6.269,1.648c-8.51,1.938-17.563,3.143-26.24,2.871c-8.858-0.277-17.576-1.174-26.223-3.23
			c-6.843-1.629-13.532-3.953-19.953-6.838c-1.108-0.499-2.211-1.008-3.304-1.539c-18.881-9.187-34.853-23.566-46.331-41.1
			c-12.02-18.357-18.115-40.069-18.25-61.942c-0.077-12.376,2.171-24.623,5.896-36.452c2.011-6.384,4.876-12.582,8.088-18.446
			c4.991-9.108,11.207-17.476,18.452-24.917c12.761-13.109,28.637-23.052,46.033-28.722
			C286.729,247.843,292.816,246.412,298.977,245.484"/>
	</g>
</g>
</svg>
