<?xml version="1.0" encoding="utf-8"?>
<!-- Generator: Adobe Illustrator 16.0.0, SVG Export Plug-In . SVG Version: 6.00 Build 0)  -->
<!DOCTYPE svg PUBLIC "-//W3C//DTD SVG 1.1//EN" "http://www.w3.org/Graphics/SVG/1.1/DTD/svg11.dtd">
<svg version="1.1" xmlns="http://www.w3.org/2000/svg" xmlns:xlink="http://www.w3.org/1999/xlink" x="0px" y="0px"
	 width="566.93px" height="566.93px" viewBox="0 0 566.93 566.93" enable-background="new 0 0 566.93 566.93" xml:space="preserve">
<g id="fond" display="none">

		<rect x="-10849.873" y="-8861.898" display="inline" fill-rule="evenodd" clip-rule="evenodd" fill="#58595B" width="15942.492" height="15814.695"/>
</g>
<g id="en_cours">
</g>
<g id="fini">
	<g>
		<g>
			<path fill="#141414" d="M116.68,51.189c0-7.415,13.742-8.945,22.127-3.736c8.387,5.208,13.418,17.154,33.898,17.154
				c-7.18,19.893-20.363,93.573-6.938,131.355c-7.945,7.945-18.369,9.887-18.369,38.488l7.063,321.002H78.896l7.063-321.002
				c0-28.602-10.424-30.543-18.367-38.488c13.424-37.782,0.24-111.463-6.939-131.355c20.48,0,25.512-11.946,33.898-17.154
				C102.938,42.244,116.68,43.774,116.68,51.189"/>
			<g>

					<path fill="#141414" stroke="#000000" stroke-width="8" stroke-linecap="round" stroke-linejoin="round" stroke-miterlimit="10" d="
					M78.896,555.453l7.063-321.002c0-28.602-10.424-30.543-18.367-38.488c13.424-37.782,0.24-111.463-6.939-131.355
					c20.48,0,25.512-11.946,33.898-17.154c8.387-5.209,22.129-3.679,22.129,3.736"/>

					<path fill="#141414" stroke="#000000" stroke-width="8" stroke-linecap="round" stroke-linejoin="round" stroke-miterlimit="10" d="
					M116.68,51.189c0-7.415,13.742-8.945,22.127-3.736c8.387,5.208,13.418,17.154,33.898,17.154
					c-7.18,19.893-20.363,93.573-6.938,131.355c-7.945,7.945-18.369,9.887-18.369,38.488l7.063,321.002"/>
				<g>
					<g>
						<g>
							<g>
								<path fill="#4F5666" d="M51.707,97.563c-2.209,0-4-1.791-4-4v-6.591c0-2.209,1.791-4,4-4h32.25c2.209,0,4,1.791,4,4v6.591
									c0,2.209-1.791,4-4,4H51.707z"/>
								<path d="M83.957,86.972v6.591h-32.25v-6.591H83.957 M83.957,78.972h-32.25c-4.418,0-8,3.582-8,8v6.591c0,4.418,3.582,8,8,8
									h32.25c4.418,0,8-3.582,8-8v-6.591C91.957,82.554,88.375,78.972,83.957,78.972L83.957,78.972z"/>
							</g>
							<g>
								<path fill="#E5E2D3" d="M49.471,105.096c-6.294,0-11.414-5.121-11.414-11.415v-6.827c0-6.294,5.12-11.414,11.414-11.414
									c6.295,0,11.416,5.12,11.416,11.414v6.827C60.887,99.975,55.766,105.096,49.471,105.096z"/>
								<path d="M49.471,79.439c4.096,0,7.416,3.319,7.416,7.414v6.827c0,4.096-3.32,7.415-7.416,7.415s-7.414-3.319-7.414-7.415
									v-6.827C42.057,82.759,45.375,79.439,49.471,79.439 M49.471,71.439c-8.499,0-15.414,6.915-15.414,15.414v6.827
									c0,8.5,6.915,15.415,15.414,15.415c8.5,0,15.416-6.915,15.416-15.415v-6.827C64.887,78.354,57.971,71.439,49.471,71.439
									L49.471,71.439z"/>
							</g>
						</g>
						<g>
							<g>
								<path fill="#4F5666" d="M51.707,136.875c-2.209,0-4-1.791-4-4v-6.591c0-2.209,1.791-4,4-4h32.25c2.209,0,4,1.791,4,4v6.591
									c0,2.209-1.791,4-4,4H51.707z"/>
								<path d="M83.957,126.284v6.591h-32.25v-6.591H83.957 M83.957,118.284h-32.25c-4.418,0-8,3.582-8,8v6.591
									c0,4.418,3.582,8,8,8h32.25c4.418,0,8-3.582,8-8v-6.591C91.957,121.866,88.375,118.284,83.957,118.284L83.957,118.284z"/>
							</g>
							<g>
								<path fill="#E5E2D3" d="M49.471,144.408c-6.294,0-11.414-5.121-11.414-11.415v-6.827c0-6.294,5.12-11.415,11.414-11.415
									c6.295,0,11.416,5.121,11.416,11.415v6.827C60.887,139.287,55.766,144.408,49.471,144.408z"/>
								<path d="M49.471,118.751c4.096,0,7.416,3.319,7.416,7.415v6.827c0,4.095-3.32,7.415-7.416,7.415s-7.414-3.32-7.414-7.415
									v-6.827C42.057,122.07,45.375,118.751,49.471,118.751 M49.471,110.751c-8.499,0-15.414,6.915-15.414,15.415v6.827
									c0,8.5,6.915,15.415,15.414,15.415c8.5,0,15.416-6.915,15.416-15.415v-6.827C64.887,117.666,57.971,110.751,49.471,110.751
									L49.471,110.751z"/>
							</g>
						</g>
						<g>
							<g>
								<path fill="#4F5666" d="M51.707,176.188c-2.209,0-4-1.791-4-4v-6.592c0-2.209,1.791-4,4-4h32.25c2.209,0,4,1.791,4,4v6.592
									c0,2.209-1.791,4-4,4H51.707z"/>
								<path d="M83.957,165.596v6.592h-32.25v-6.592H83.957 M83.957,157.596h-32.25c-4.418,0-8,3.582-8,8v6.592
									c0,4.418,3.582,8,8,8h32.25c4.418,0,8-3.582,8-8v-6.592C91.957,161.178,88.375,157.596,83.957,157.596L83.957,157.596z"/>
							</g>
							<g>
								<path fill="#E5E2D3" d="M49.471,183.721c-6.294,0-11.414-5.121-11.414-11.416v-6.826c0-6.295,5.12-11.416,11.414-11.416
									c6.295,0,11.416,5.121,11.416,11.416v6.826C60.887,178.6,55.766,183.721,49.471,183.721z"/>
								<path d="M49.471,158.063c4.096,0,7.416,3.32,7.416,7.416v6.826c0,4.096-3.32,7.416-7.416,7.416s-7.414-3.32-7.414-7.416
									v-6.826C42.057,161.383,45.375,158.063,49.471,158.063 M49.471,150.063c-8.499,0-15.414,6.916-15.414,15.416v6.826
									c0,8.5,6.915,15.416,15.414,15.416c8.5,0,15.416-6.916,15.416-15.416v-6.826C64.887,156.979,57.971,150.063,49.471,150.063
									L49.471,150.063z"/>
							</g>
						</g>
					</g>
					<g>
						<g>
							<g>
								<path fill="#4F5666" d="M149.4,97.563c-2.209,0-4-1.791-4-4v-6.591c0-2.209,1.791-4,4-4h32.25c2.209,0,4,1.791,4,4v6.591
									c0,2.209-1.791,4-4,4H149.4z"/>
								<path d="M181.65,86.972v6.591H149.4v-6.591H181.65 M181.65,78.972H149.4c-4.418,0-8,3.582-8,8v6.591c0,4.418,3.582,8,8,8
									h32.25c4.418,0,8-3.582,8-8v-6.591C189.65,82.554,186.068,78.972,181.65,78.972L181.65,78.972z"/>
							</g>
							<g>
								<path fill="#E5E2D3" d="M183.887,105.096c-6.294,0-11.414-5.121-11.414-11.415v-6.827c0-6.294,5.12-11.414,11.414-11.414
									c6.295,0,11.416,5.12,11.416,11.414v6.827C195.303,99.975,190.182,105.096,183.887,105.096z"/>
								<path d="M183.887,79.439c4.096,0,7.416,3.319,7.416,7.414v6.827c0,4.096-3.32,7.415-7.416,7.415s-7.414-3.319-7.414-7.415
									v-6.827C176.473,82.759,179.791,79.439,183.887,79.439 M183.887,71.439c-8.499,0-15.414,6.915-15.414,15.414v6.827
									c0,8.5,6.915,15.415,15.414,15.415c8.5,0,15.416-6.915,15.416-15.415v-6.827C199.303,78.354,192.387,71.439,183.887,71.439
									L183.887,71.439z"/>
							</g>
						</g>
						<g>
							<g>
								<path fill="#4F5666" d="M149.4,136.875c-2.209,0-4-1.791-4-4v-6.591c0-2.209,1.791-4,4-4h32.25c2.209,0,4,1.791,4,4v6.591
									c0,2.209-1.791,4-4,4H149.4z"/>
								<path d="M181.65,126.284v6.591H149.4v-6.591H181.65 M181.65,118.284H149.4c-4.418,0-8,3.582-8,8v6.591c0,4.418,3.582,8,8,8
									h32.25c4.418,0,8-3.582,8-8v-6.591C189.65,121.866,186.068,118.284,181.65,118.284L181.65,118.284z"/>
							</g>
							<g>
								<path fill="#E5E2D3" d="M183.887,144.408c-6.294,0-11.414-5.121-11.414-11.415v-6.827c0-6.294,5.12-11.415,11.414-11.415
									c6.295,0,11.416,5.121,11.416,11.415v6.827C195.303,139.287,190.182,144.408,183.887,144.408z"/>
								<path d="M183.887,118.751c4.096,0,7.416,3.319,7.416,7.415v6.827c0,4.095-3.32,7.415-7.416,7.415s-7.414-3.32-7.414-7.415
									v-6.827C176.473,122.07,179.791,118.751,183.887,118.751 M183.887,110.751c-8.499,0-15.414,6.915-15.414,15.415v6.827
									c0,8.5,6.915,15.415,15.414,15.415c8.5,0,15.416-6.915,15.416-15.415v-6.827
									C199.303,117.666,192.387,110.751,183.887,110.751L183.887,110.751z"/>
							</g>
						</g>
						<g>
							<g>
								<path fill="#4F5666" d="M149.4,176.188c-2.209,0-4-1.791-4-4v-6.592c0-2.209,1.791-4,4-4h32.25c2.209,0,4,1.791,4,4v6.592
									c0,2.209-1.791,4-4,4H149.4z"/>
								<path d="M181.65,165.596v6.592H149.4v-6.592H181.65 M181.65,157.596H149.4c-4.418,0-8,3.582-8,8v6.592c0,4.418,3.582,8,8,8
									h32.25c4.418,0,8-3.582,8-8v-6.592C189.65,161.178,186.068,157.596,181.65,157.596L181.65,157.596z"/>
							</g>
							<g>
								<path fill="#E5E2D3" d="M183.887,183.721c-6.294,0-11.414-5.121-11.414-11.416v-6.826c0-6.295,5.12-11.416,11.414-11.416
									c6.295,0,11.416,5.121,11.416,11.416v6.826C195.303,178.6,190.182,183.721,183.887,183.721z"/>
								<path d="M183.887,158.063c4.096,0,7.416,3.32,7.416,7.416v6.826c0,4.096-3.32,7.416-7.416,7.416s-7.414-3.32-7.414-7.416
									v-6.826C176.473,161.383,179.791,158.063,183.887,158.063 M183.887,150.063c-8.499,0-15.414,6.916-15.414,15.416v6.826
									c0,8.5,6.915,15.416,15.414,15.416c8.5,0,15.416-6.916,15.416-15.416v-6.826
									C199.303,156.979,192.387,150.063,183.887,150.063L183.887,150.063z"/>
							</g>
						</g>
					</g>
				</g>
			</g>
		</g>
		<g>

				<polyline fill="#3F3F3F" stroke="#000000" stroke-width="8" stroke-linecap="round" stroke-linejoin="round" stroke-miterlimit="10" points="
				154.461,555.453 154.461,394.478 485.129,394.478 485.129,555.453 			"/>

				<path fill="#141414" stroke="#000000" stroke-width="8" stroke-linecap="round" stroke-linejoin="round" stroke-miterlimit="10" d="
				M354.912,389.231c0,0-1.582,5.518,8.031,0.188c-4.953,9.562,1.098,15.743,15.635,13.374c-1.939,6.766,2.061,11.048,20.566,12.172
				c-0.148,11.46,4.996,9.016,18.494,8.442c-2.355,8.215,3.99,15.263,18.969,19.558c-5.598,3.103,5.854,17.889,16.902,15.828
				c-2.633,9.182-3.326,11.596,12.83,13.614c-7.461,4.136,2.742,19.612,12.889,22.521c-4.352,2.413-5.402,18.844,3.229,19.75
				c2.41,4.354,6.203,11.191,2.877,22.789c4.352-2.414,11.471-10.83,10.584-20.497c7.148-3.966,2.355-8.215,5.818-20.294
				c12.438-6.894,13.059-7.238,2.719-25.89c5.285-2.932,30.465-16.888,10.541-40.409c10.275-5.695,19.004-24.33-8.818-27.602
				c8.08-4.48,13.01-30.782-12.326-35.433c10.574-9.519,6.928-24.16-11.504-27.353c10.021-11.245,0.369-24.996-19.543-24.855
				c3.715-12.955-1.537-25.639-17.902-25.102c2.91-10.147,1.4-19.471-15.455-17.227l-13.074-13.074H228.287l-13.074,13.074
				c-16.854-2.244-18.363,7.079-15.453,17.227c-16.365-0.537-21.619,12.146-17.904,25.102c-19.91-0.141-29.563,13.61-19.541,24.855
				c-18.432,3.192-22.078,17.834-11.504,27.353c-25.336,4.65-20.408,30.952-12.326,35.433c-27.822,3.271-19.094,21.906-8.82,27.602
				c-19.924,23.521,5.258,37.478,10.543,40.409c-10.34,18.651-9.719,18.996,2.717,25.89c3.463,12.079-1.33,16.328,5.82,20.294
				c-0.889,9.667,6.23,18.083,10.582,20.497c-3.324-11.598,0.469-18.436,2.879-22.789c8.631-0.906,7.58-17.337,3.227-19.75
				c10.146-2.909,20.35-18.386,12.891-22.521c16.154-2.019,15.463-4.433,12.83-13.614c11.047,2.061,22.498-12.726,16.9-15.828
				c14.979-4.295,21.324-11.343,18.969-19.558c13.498,0.573,18.643,3.018,18.496-8.442c18.504-1.124,22.506-5.406,20.566-12.172
				c14.535,2.369,20.586-3.813,15.633-13.374c9.615,5.33,8.033-0.188,8.033-0.188H354.912z"/>
			<g>

					<path fill="#3F3F3F" stroke="#000000" stroke-width="8" stroke-linecap="round" stroke-linejoin="round" stroke-miterlimit="10" d="
					M243.92,79.535c-1.518-19.027,13.439-35.003,33.459-35.003h89.906c20.02,0,34.973,15.976,33.455,35.003l-13.092,164.141
					c-1.018,12.753-14.51,22.803-30.164,22.803h-70.307c-15.656,0-29.15-10.05-30.166-22.803L243.92,79.535z"/>

					<path fill="#3F3F3F" stroke="#000000" stroke-width="8" stroke-linecap="round" stroke-linejoin="round" stroke-miterlimit="10" d="
					M177.83,259.733c0,6.693,3.473,12.117,7.756,12.117h273.488c4.283,0,7.756-5.424,7.756-12.117l0,0
					c0-6.692-3.473-12.118-7.756-12.118H185.586C181.303,247.615,177.83,253.041,177.83,259.733L177.83,259.733z"/>
			</g>

				<path fill="#141414" stroke="#000000" stroke-width="8" stroke-linecap="round" stroke-linejoin="round" stroke-miterlimit="10" d="
				M212.131,327.933l2.483,12.518c-13.297,6.101-10.117,13.58-3.342,19.631c-12.159,7.119-10.161,18.763-1.512,26.487
				c-14.557,9.035-15.272,23.474-2.817,27.06c-11.949,10.783-7.884,23.113,4.181,25.189c-16.308,15.012-0.649,31.895,7.289,31.448
				c-18.75,15.148-3.845,24.707,6.247,24.138c-3.707,26.265,21.027,24.866,26.22,24.574c1.033,18.321,1.645,18.288,13.859,17.598
				c8.064,7.202,6.526,12.496,13.55,12.101c3.79,7.444,25.77,12.229,30.045,11.99c-7.741-6.917-0.422-17.226-0.666-21.5
				c5.067,5.067,17.917-3.417,18.5-8.5c6.666,1,17.332-6.5,12.582-13.25c5.751,4.084,10.709-7.457,13.334-15.832
				c-2.5,5.125-0.25,14.249,4.417,13.916c-4.249,4.25-0.936,13,5.167,10.5c-5.365,3.197-9.479,10.569-4.768,15.281
				c-0.244,4.274-1.048,9.366-10.9,14.172c4.275,0.239,18.21,0.667,22-6.777c7.023,0.396,11.125-3.551,10.058-12.101
				c4.809,4.809,12.826,0.724,13.859-17.598c5.192,0.292,29.927,1.69,26.22-24.574c10.092,0.569,24.997-8.989,6.247-24.138
				c7.938,0.446,23.597-16.437,7.289-31.448c12.064-2.076,16.13-14.406,4.181-25.189c12.455-3.586,11.739-18.024-2.817-27.06
				c8.649-7.725,10.647-19.368-1.512-26.487c6.775-6.051,9.955-13.53-3.342-19.631l2.483-12.518"/>
		</g>
	</g>
</g>
</svg>