<?xml version="1.0" encoding="utf-8"?>
<!-- Generator: Adobe Illustrator 16.0.0, SVG Export Plug-In . SVG Version: 6.00 Build 0)  -->
<!DOCTYPE svg PUBLIC "-//W3C//DTD SVG 1.1//EN" "http://www.w3.org/Graphics/SVG/1.1/DTD/svg11.dtd">
<svg version="1.1" xmlns="http://www.w3.org/2000/svg" xmlns:xlink="http://www.w3.org/1999/xlink" x="0px" y="0px"
	 width="283.464px" height="283.465px" viewBox="0 0 283.464 566.93" enable-background="new 0 0 283.464 566.93"
	 xml:space="preserve">
<g id="fond" display="none">
	
		<rect x="-8042.283" y="-8544.855" display="inline" fill-rule="evenodd" clip-rule="evenodd" fill="#58595B" width="16654.492" height="16572.797"/>
</g>
<g id="en_cours">
</g>
<g id="fini">
	<g>
		<path d="M205.033,275.387c-4.6,5.045-9.79,10.646-15.575,16.799c-5.785,6.157-11.831,12.46-18.134,18.912
			c-6.307,6.453-12.571,12.794-18.801,19.023c-6.23,6.23-12.091,12.016-17.577,17.355c6.376,4.45,13.127,9.939,20.247,16.465
			c7.12,6.528,14.091,13.499,20.915,20.915c6.821,7.419,13.239,14.983,19.246,22.694c6.007,7.715,11.014,15.057,15.019,22.027
			h-25.365c-4.45-6.971-9.567-13.979-15.353-21.026c-5.785-7.043-11.903-13.795-18.356-20.247
			c-6.452-6.452-12.981-12.422-19.58-17.911c-6.602-5.486-13.016-10.158-19.246-14.018v73.202H90.892V275.387h21.583v68.085
			c5.19-4.896,10.902-10.42,17.132-16.576c6.23-6.153,12.383-12.349,18.467-18.579c6.081-6.229,11.827-12.199,17.244-17.911
			c5.413-5.708,9.974-10.714,13.684-15.019H205.033z"/>
	</g>
</g>
</svg>
