<?xml version="1.0" encoding="utf-8"?>
<!-- Generator: Adobe Illustrator 16.0.0, SVG Export Plug-In . SVG Version: 6.00 Build 0)  -->
<!DOCTYPE svg PUBLIC "-//W3C//DTD SVG 1.1//EN" "http://www.w3.org/Graphics/SVG/1.1/DTD/svg11.dtd">
<svg version="1.1" xmlns="http://www.w3.org/2000/svg" xmlns:xlink="http://www.w3.org/1999/xlink" x="0px" y="0px" width="566.9px"
	 height="566.9px" viewBox="0 0 566.9 566.9" enable-background="new 0 0 566.9 566.9" xml:space="preserve">
<g id="fond" display="none">
	
		<rect x="-8249.9" y="-9494.9" display="inline" fill-rule="evenodd" clip-rule="evenodd" fill="#F2F2F2" width="15942.5" height="15814.7"/>
</g>
<g id="en_cours">
</g>
<g id="fini">
	<g>
		<g>
			<polygon fill-rule="evenodd" clip-rule="evenodd" fill="#333333" points="248.7,350.9 212.5,357.1 246.1,370.3 262.8,337.2 
				235.1,316.3 			"/>
			<circle fill-rule="evenodd" clip-rule="evenodd" fill="#333333" cx="284.4" cy="368.1" r="39.3"/>
			<path fill-rule="evenodd" clip-rule="evenodd" fill="#333333" d="M329.7,366.1c-35.4,0-64.2,28.7-64.2,64.2
				c0,35.4,28.7,64.2,64.2,64.2c85.2,0,90.6-103.8,90.6-103.8S370.4,366.1,329.7,366.1z"/>
			<path fill-rule="evenodd" clip-rule="evenodd" fill="#333333" d="M341.9,394c0,0,175.2-17.6,179.5-15.9
				c4.3,1.7,25.2,35.7,24.6,40.2c-0.6,4.5-200.9-15.3-200.9-15.3L341.9,394z"/>
			<g>
				<path fill="#333333" d="M358.3,485.9c-0.5,4-0.9,8.1-1.3,12.1c-0.2,2-0.3,4-0.5,6l-0.4,6c-0.1,2-0.2,4-0.3,6c-0.1,2-0.2,4-0.3,6
					c0,2,0.1,4,0.3,6l0.2,3c0,1,0.1,2,0.1,3l0,0.1c0,0.8-0.6,1.5-1.3,1.8l-39.4,12.5c-0.4,0.1-0.9-0.1-1-0.5c-0.1-0.4,0.1-0.8,0.5-1
					l38.6-14.8l-1.3,1.9c0-1,0-2,0.1-3l0.2-3c0.2-2,0.3-4,0.3-6c0-2-0.1-4-0.3-6c-0.1-2-0.2-4-0.3-6l-0.4-6c-0.2-2-0.3-4-0.5-6
					c-0.4-4-0.8-8.1-1.3-12.1c-0.3-2.3,1.3-4.5,3.7-4.8s4.5,1.3,4.8,3.7C358.4,485.1,358.4,485.5,358.3,485.9z"/>
				<path fill="#333333" d="M318.5,536.5l35.4-4.3l0,0c1.1-0.1,2.1,0.6,2.2,1.7c0.1,0.7-0.2,1.3-0.7,1.7l-20.7,17.8
					c-0.3,0.3-0.8,0.2-1.1-0.1c-0.3-0.3-0.2-0.8,0-1l19-19.6l1.5,3.5l-35.6,1.9c-0.5,0-0.8-0.3-0.9-0.8
					C317.7,536.9,318.1,536.5,318.5,536.5z"/>
				<path fill="#333333" d="M376.5,536.7l-22.6-0.6c-1,0-1.9-0.9-1.8-1.9c0-1,0.9-1.9,1.9-1.8c0.1,0,0.1,0,0.2,0l22.4,2.7
					c0.5,0.1,0.8,0.5,0.7,0.9C377.3,536.4,376.9,536.7,376.5,536.7z"/>
			</g>
			<g>
				<path fill="#333333" d="M321.3,478.2c-0.5,4-0.9,8.1-1.3,12.1c-0.2,2-0.3,4-0.5,6l-0.4,6c-0.1,2-0.2,4-0.4,6c-0.1,2-0.2,4-0.3,6
					c0,2,0.1,4,0.3,6l0.2,3c0,1,0.1,2,0.1,3l0,0.1c0,0.9-0.7,1.7-1.5,1.8l-38.3,7.7c-0.4,0.1-0.8-0.2-0.9-0.6
					c-0.1-0.4,0.2-0.8,0.6-0.9l37.7-10.1l-1.5,1.9c0-1,0-2,0.1-3l0.2-3c0.2-2,0.3-4,0.3-6c0-2-0.1-4-0.3-6c-0.1-2-0.2-4-0.4-6
					l-0.4-6c-0.2-2-0.3-4-0.5-6c-0.4-4-0.8-8.1-1.3-12.1c-0.3-2.3,1.3-4.5,3.7-4.8s4.5,1.3,4.8,3.7
					C321.4,477.4,321.4,477.8,321.3,478.2z"/>
				<path fill="#333333" d="M285.7,525.7l31.3-1.2h0c1.1,0,2,0.8,2.1,1.9c0,0.8-0.4,1.5-1.1,1.8l-26.8,13.3c-0.4,0.2-0.8,0-1-0.3
					c-0.2-0.4,0-0.8,0.3-1l25.6-15.4l1,3.8l-31.3-1.2c-0.5,0-0.8-0.4-0.8-0.9C284.9,526,285.3,525.7,285.7,525.7z"/>
				<path fill="#333333" d="M338.6,527.4l-21.5,1c-1,0.1-1.9-0.8-2-1.8s0.8-1.9,1.8-2c0.1,0,0.1,0,0.2,0l21.5,1
					c0.5,0,0.8,0.4,0.8,0.9C339.3,527,339,527.3,338.6,527.4z"/>
			</g>
		</g>
		<path fill="#FFFFFF" d="M138.8,304.5c0-0.1,0.1-0.2,0.1-0.3c9.4,1.9,19.1,2.9,29,2.9c81.1,0,146.9-65.8,146.9-146.9
			S248.9,13.3,167.8,13.3S20.9,79.1,20.9,160.2c0,65.6,43,121.2,102.4,140c-0.1,0.3-0.1,0.7-0.2,1c-0.4,2-0.6,4.3-0.8,6.6
			c-0.3,4.7-0.1,10,1.6,15.6c0.2,0.7,0.5,1.4,0.7,2.1c0.2,0.7,0.6,1.4,0.9,2.1l0.5,1c0.2,0.3,0.4,0.7,0.6,1c0.4,0.7,0.7,1.4,1.2,2
			c1.7,2.7,4,5.1,6.7,7.2c5.4,4.1,12.6,6,19.5,4.6c3.4-0.7,6.8-2.2,9.6-4.4c1.4-1.1,2.7-2.4,3.7-3.9c0.6-0.7,1-1.5,1.4-2.2
			c0.4-0.6,0.7-1.2,1-1.8c0.2-0.3,0.3-0.5,0.4-0.7l0.4-0.6c0.3-0.4,0.6-0.9,0.9-1.3c0.7-0.8,1.4-1.6,2.1-2.2c1.5-1.2,3.2-2,5-2.2
			c3.7-0.4,8,1.8,11,4.9c0.8,0.8,1.4,1.6,2,2.5c0.3,0.4,0.6,0.9,0.8,1.3c0.3,0.6,0.6,1.1,0.8,1.7c0.2,0.5,0.6,1.2,1,1.8
			c0.3,0.6,0.7,1.2,1.1,1.7c0.4,0.6,0.9,1.1,1.3,1.6c0.2,0.3,0.5,0.5,0.8,0.8c0.3,0.3,0.5,0.5,0.8,0.7c1.2,1,2.7,1.6,4.1,1.9
			c1.5,0.3,2.9,0.2,4.1,0c2.5-0.4,4.5-1.2,6.4-1.7c3.8-1.2,7.2-1.7,10.3-1.3c3.1,0.3,5.7,1.3,7.8,2.2c2.1,1,3.6,2,4.7,2.7
			c1,0.7,1.6,1.1,1.6,1.1l0,0c0.3,0.2,0.7,0.1,0.9-0.1c0.2-0.3,0.2-0.7-0.1-1c0,0-0.5-0.4-1.5-1.3c-1-0.8-2.5-2-4.6-3.3
			c-2.1-1.2-4.9-2.6-8.3-3.3c-3.5-0.8-7.6-0.5-11.7,0.4c-2,0.4-4.1,0.9-6,1c-0.9,0.1-1.8,0-2.5-0.2c-0.7-0.2-1.3-0.6-1.9-1.2
			c-0.2-0.1-0.3-0.3-0.4-0.5c-0.1-0.2-0.3-0.3-0.4-0.5c-0.3-0.4-0.6-0.8-0.8-1.2c-0.2-0.4-0.5-0.9-0.7-1.4c-0.2-0.5-0.4-0.9-0.7-1.5
			c-0.2-0.6-0.4-1.1-0.7-1.7c-0.3-0.7-0.6-1.3-0.9-2c-0.7-1.3-1.5-2.5-2.4-3.7c-1.8-2.3-4.1-4.3-6.8-5.9c-2.7-1.6-5.9-2.7-9.4-2.7
			c-1.8,0-3.5,0.2-5.2,0.8c-1.7,0.5-3.3,1.3-4.7,2.3c-1.4,1-2.7,2.1-3.8,3.3c-0.6,0.6-1.1,1.2-1.6,1.8l-0.8,1
			c-0.3,0.3-0.5,0.7-0.7,1c-0.4,0.6-0.8,1.1-1.2,1.7c-0.3,0.4-0.5,0.8-0.9,1.1c-0.6,0.7-1.3,1.3-2.1,1.8c-1.5,1-3.3,1.6-5.1,1.7
			c-3.7,0.3-7.3-1.1-9.8-3.4c-1.3-1.2-2.3-2.6-3.1-4.1c-0.2-0.4-0.3-0.8-0.5-1.2c-0.1-0.2-0.2-0.4-0.3-0.6l-0.2-0.6
			c-0.1-0.4-0.3-0.8-0.4-1.2c-0.1-0.4-0.2-0.9-0.3-1.3c-0.7-3.4-0.5-7.1,0-10.5C138,307.7,138.3,306.1,138.8,304.5z"/>
		<path d="M120.8,83.8v17.4v10.4v69.8c-4.7-3.9-10.7-6.2-17.3-6.2c-15.1,0-27.3,12.2-27.3,27.3s12.2,27.3,27.3,27.3
			c15,0,27.3-12.2,27.3-27.3h0v-93.7l39.6-11l39.6-11V217c-4.7-3.9-10.7-6.2-17.3-6.2c-15.1,0-27.3,12.2-27.3,27.3
			s12.2,27.3,27.3,27.3c15,0,27.3-12.2,27.3-27.3v-154l0-31.3L120.8,83.8z"/>
	</g>
</g>
</svg>
