<?xml version="1.0" encoding="utf-8"?>
<!-- Generator: Adobe Illustrator 16.0.0, SVG Export Plug-In . SVG Version: 6.00 Build 0)  -->
<!DOCTYPE svg PUBLIC "-//W3C//DTD SVG 1.1//EN" "http://www.w3.org/Graphics/SVG/1.1/DTD/svg11.dtd">
<svg version="1.1" xmlns="http://www.w3.org/2000/svg" xmlns:xlink="http://www.w3.org/1999/xlink" x="0px" y="0px"
	 width="340.157px" height="340.157px" viewBox="0 0 340.157 566.93" enable-background="new 0 0 340.157 566.93"
	 xml:space="preserve">
<g id="fond" display="none">
	
		<rect x="-5507.259" y="-9811.008" display="inline" fill-rule="evenodd" clip-rule="evenodd" fill="#58595B" width="16654.492" height="16572.797"/>
</g>
<g id="en_cours">
</g>
<g id="fini">
	<g>
		<path d="M135.264,421.082c-1.78,1.189-5.229,2.709-10.346,4.562c-5.118,1.856-11.091,2.781-17.911,2.781
			c-6.975,0-13.538-1.112-19.691-3.337c-6.157-2.226-11.535-5.674-16.131-10.347c-4.6-4.673-8.232-10.492-10.902-17.466
			c-2.67-6.971-4.006-15.276-4.006-24.92c0-8.455,1.259-16.204,3.783-23.251c2.521-7.044,6.191-13.128,11.014-18.245
			c4.818-5.117,10.715-9.122,17.688-12.015c6.971-2.893,14.831-4.339,23.585-4.339c9.64,0,18.057,0.706,25.253,2.113
			c7.193,1.412,13.239,2.709,18.134,3.895v103.238c0,17.801-4.6,30.705-13.795,38.715c-9.199,8.01-23.14,12.016-41.829,12.016
			c-7.27,0-14.129-0.595-20.581-1.78c-6.453-1.189-12.054-2.597-16.799-4.228l3.782-18.022c4.151,1.631,9.233,3.077,15.241,4.339
			c6.008,1.259,12.272,1.892,18.801,1.892c12.311,0,21.172-2.448,26.589-7.343c5.413-4.896,8.121-12.683,8.121-23.362V421.082z
			 M135.042,335.198c-2.079-0.591-4.86-1.147-8.344-1.669c-3.486-0.518-8.197-0.778-14.128-0.778
			c-11.125,0-19.691,3.636-25.699,10.902c-6.007,7.27-9.011,16.909-9.011,28.925c0,6.675,0.852,12.387,2.559,17.132
			c1.703,4.749,4.005,8.678,6.897,11.793c2.893,3.114,6.229,5.416,10.013,6.897c3.782,1.484,7.676,2.225,11.681,2.225
			c5.486,0,10.53-0.778,15.13-2.336c4.596-1.558,8.232-3.372,10.902-5.451V335.198z"/>
		<path d="M182.431,320.291c4.745-1.186,11.048-2.447,18.912-3.782c7.86-1.335,16.91-2.003,27.145-2.003
			c9.195,0,16.834,1.3,22.918,3.894c6.08,2.597,10.937,6.23,14.573,10.902c3.633,4.673,6.191,10.273,7.676,16.799
			c1.481,6.529,2.226,13.722,2.226,21.582v64.97h-20.692v-60.52c0-7.12-0.483-13.2-1.446-18.245
			c-0.967-5.041-2.559-9.122-4.784-12.237c-2.225-3.114-5.193-5.374-8.899-6.786c-3.71-1.408-8.309-2.113-13.795-2.113
			c-2.226,0-4.526,0.076-6.897,0.223c-2.375,0.149-4.638,0.333-6.786,0.556c-2.152,0.223-4.082,0.483-5.785,0.779
			c-1.707,0.299-2.931,0.521-3.671,0.667v97.677h-20.692V320.291z"/>
	</g>
	<g>
		<path d="M332.651,262.705c0,1.634,0,3.226,0,4.783s-0.076,3.08-0.222,4.562c-0.595,7.714-2.302,15.317-5.118,22.806
			c-2.819,7.492-6.23,14.573-10.235,21.249l-16.02-5.118c3.115-6.675,5.451-13.312,7.009-19.913
			c1.558-6.599,2.336-12.794,2.336-18.579c0-1.48-0.039-3.076-0.111-4.783c-0.077-1.704-0.188-3.372-0.334-5.006H332.651z"/>
	</g>
</g>
</svg>
