<?xml version="1.0" encoding="utf-8"?>
<!-- Generator: Adobe Illustrator 16.0.0, SVG Export Plug-In . SVG Version: 6.00 Build 0)  -->
<!DOCTYPE svg PUBLIC "-//W3C//DTD SVG 1.1//EN" "http://www.w3.org/Graphics/SVG/1.1/DTD/svg11.dtd">
<svg version="1.1" xmlns="http://www.w3.org/2000/svg" xmlns:xlink="http://www.w3.org/1999/xlink" x="0px" y="0px"
	 width="283.465px" height="566.93px" viewBox="0 0 283.465 566.93" enable-background="new 0 0 283.465 566.93"
	 xml:space="preserve">
<g id="fond" display="none">
	
		<rect x="-6198.605" y="-9811.008" display="inline" fill-rule="evenodd" clip-rule="evenodd" fill="#58595B" width="16654.492" height="16572.797"/>
</g>
<g id="en_cours">
</g>
<g id="fini">
	<g>
		<path d="M112.475,474.26c-1.78,0-4.078-0.223-6.897-0.668c-2.816-0.444-5.19-1.039-7.12-1.78l2.67-16.909
			c1.484,0.444,3.191,0.813,5.118,1.112c1.929,0.296,3.709,0.445,5.34,0.445c7.12,0,12.199-2.19,15.241-6.564
			c3.039-4.377,4.561-10.791,4.561-19.246V316.953h20.692v113.475c0,14.83-3.376,25.844-10.124,33.041
			C135.205,470.661,125.38,474.26,112.475,474.26z M141.622,296.038c-3.709,0-6.863-1.224-9.456-3.671
			c-2.597-2.447-3.894-5.746-3.894-9.901c0-4.15,1.296-7.453,3.894-9.9c2.593-2.448,5.747-3.672,9.456-3.672
			c3.706,0,6.859,1.224,9.456,3.672c2.594,2.447,3.894,5.75,3.894,9.9c0,4.155-1.3,7.454-3.894,9.901
			C148.481,294.814,145.328,296.038,141.622,296.038z"/>
	</g>
	<g>
		<path d="M226.515,262.705c0,1.634,0,3.226,0,4.783s-0.076,3.08-0.222,4.562c-0.595,7.714-2.302,15.317-5.118,22.806
			c-2.819,7.492-6.23,14.573-10.235,21.249l-16.02-5.118c3.115-6.675,5.451-13.312,7.009-19.913
			c1.558-6.599,2.336-12.794,2.336-18.579c0-1.48-0.039-3.076-0.111-4.783c-0.077-1.704-0.188-3.372-0.334-5.006H226.515z"/>
	</g>
</g>
</svg>
