<?xml version="1.0" encoding="utf-8"?>
<!-- Generator: Adobe Illustrator 16.0.0, SVG Export Plug-In . SVG Version: 6.00 Build 0)  -->
<!DOCTYPE svg PUBLIC "-//W3C//DTD SVG 1.1//EN" "http://www.w3.org/Graphics/SVG/1.1/DTD/svg11.dtd">
<svg version="1.1" xmlns="http://www.w3.org/2000/svg" xmlns:xlink="http://www.w3.org/1999/xlink" x="0px" y="0px"
	 width="566.93px" height="566.93px" viewBox="0 0 566.93 566.93" enable-background="new 0 0 566.93 566.93" xml:space="preserve">
<g id="fond" display="none">
	
		<rect x="-13836.186" y="-10462.046" display="inline" fill-rule="evenodd" clip-rule="evenodd" fill="#58595B" width="16654.492" height="16572.797"/>
</g>
<g id="en_cours">
</g>
<g id="fini">
	<g>
		<polygon fill="#E5E2D3" stroke="#000000" stroke-width="8" stroke-linejoin="round" stroke-miterlimit="10" points="
			261.053,397.779 261.053,98.047 420.078,189.86 420.078,489.593 		"/>
		<polygon fill="#E5E2D3" stroke="#000000" stroke-width="8" stroke-linejoin="round" stroke-miterlimit="10" points="
			251.351,407.779 251.351,108.047 410.376,199.86 410.376,499.593 		"/>
		<polygon fill="#E5E2D3" stroke="#000000" stroke-width="8" stroke-linejoin="round" stroke-miterlimit="10" points="
			241.649,417.779 241.649,118.047 400.674,209.86 400.674,509.593 		"/>
		<polygon fill="#E5E2D3" stroke="#000000" stroke-width="8" stroke-linejoin="round" stroke-miterlimit="10" points="
			231.947,427.779 231.947,128.047 390.973,219.86 390.973,519.593 		"/>
		<polygon fill="#E5E2D3" stroke="#000000" stroke-width="8" stroke-linejoin="round" stroke-miterlimit="10" points="
			222.245,437.779 222.245,138.047 381.271,229.86 381.271,529.593 		"/>
		<path fill="#FFFFFF" stroke="#000000" stroke-width="8" stroke-linejoin="round" stroke-miterlimit="10" d="M106.852,402.808
			c0,0,55.018-39.689,85.086-129.162c19.343-57.564,20.606-125.599,20.606-125.599l159.024,91.813c0,0-4.021,76.238-20.407,125.001
			c-30.711,91.39-75.284,149.76-75.284,149.76L106.852,402.808z"/>
		<polygon fill="#AB2E23" stroke="#000000" stroke-width="8" stroke-linejoin="round" stroke-miterlimit="10" points="
			212.544,103.757 212.544,159.757 367.098,254.151 420.078,223.563 420.078,167.563 367.098,198.151 		"/>
		<polygon fill="#AB2E23" stroke="#000000" stroke-width="8" stroke-linejoin="round" stroke-miterlimit="10" points="
			261.053,75.75 212.544,103.757 367.098,198.151 420.078,167.563 		"/>
		<g>
			<path d="M255.027,334.066c-8.911,21.711-17.751,37.149-26.521,46.315c-8.772,9.169-16.682,11.611-23.736,7.331
				c-7.054-4.279-10.209-13.435-9.456-27.47c0.751-14.031,5.582-31.902,14.493-53.614c4.43-10.793,8.876-20.025,13.344-27.699
				c4.465-7.669,8.865-13.756,13.198-18.256c4.331-4.499,8.494-7.397,12.492-8.691c3.993-1.296,7.711-0.899,11.147,1.186
				c7.055,4.28,10.204,13.437,9.454,27.469C268.691,294.671,263.887,312.479,255.027,334.066z M241.28,325.725
				c2.646-6.449,4.902-12.402,6.766-17.859c1.86-5.455,3.25-10.307,4.166-14.557c0.913-4.247,1.232-7.772,0.953-10.578
				c-0.28-2.804-1.266-4.719-2.953-5.743c-1.688-1.024-3.524-0.819-5.503,0.613c-1.983,1.432-4.109,3.861-6.38,7.286
				c-2.273,3.425-4.642,7.682-7.106,12.771c-2.467,5.091-5.023,10.861-7.67,17.311c-2.648,6.453-4.917,12.438-6.803,17.954
				c-1.889,5.518-3.276,10.411-4.159,14.677c-0.886,4.267-1.204,7.792-0.952,10.579c0.247,2.786,1.218,4.689,2.906,5.714
				c1.688,1.024,3.538,0.831,5.55-0.584c2.011-1.413,4.136-3.843,6.379-7.286c2.24-3.441,4.606-7.741,7.1-12.893
				C236.063,337.979,238.632,332.178,241.28,325.725z"/>
			<path d="M279.664,382.483c1.476-3.597,2.394-7.032,2.758-10.298c0.36-3.267-0.043-6.417-1.208-9.448
				c-1.166-3.032-3.173-6.028-6.021-8.999c-2.849-2.967-6.746-5.952-11.688-8.951c5.398-11.136,10.753-22.53,16.063-34.185
				c5.309-11.653,10.224-22.618,14.742-32.892l33.916,20.577l-9.547,23.261l-22.611-13.719c-1.954,4.394-3.859,8.623-5.715,12.687
				c-1.856,4.067-3.511,7.596-4.964,10.586c8.292,6.581,13.047,14.772,14.259,24.572c1.211,9.8-0.831,21.152-6.126,34.054
				c-2.444,5.955-5.223,11.165-8.334,15.629c-3.114,4.467-6.459,7.936-10.035,10.414c-3.578,2.479-7.354,3.83-11.323,4.056
				c-3.971,0.224-8.036-0.925-12.197-3.45c-1.628-0.987-3.241-2.238-4.843-3.751c-1.6-1.515-3.088-3.116-4.467-4.803
				c-1.381-1.687-2.578-3.308-3.599-4.855c-1.022-1.55-1.74-2.916-2.159-4.1l11.837-21.407c0.945,2.28,2.388,4.819,4.326,7.621
				c1.938,2.804,4.625,5.247,8.062,7.332c4.161,2.524,7.875,2.65,11.146,0.371C275.202,390.508,277.779,387.074,279.664,382.483z"/>
		</g>
	</g>
</g>
</svg>
