<?xml version="1.0" encoding="utf-8"?>
<!-- Generator: Adobe Illustrator 16.0.0, SVG Export Plug-In . SVG Version: 6.00 Build 0)  -->
<!DOCTYPE svg PUBLIC "-//W3C//DTD SVG 1.1//EN" "http://www.w3.org/Graphics/SVG/1.1/DTD/svg11.dtd">
<svg version="1.1" xmlns="http://www.w3.org/2000/svg" xmlns:xlink="http://www.w3.org/1999/xlink" x="0px" y="0px"
	 width="566.93px" height="566.93px" viewBox="0 0 566.93 566.93" enable-background="new 0 0 566.93 566.93" xml:space="preserve">
<g id="fond" display="none">
	
		<rect x="-7358.419" y="-8544.855" display="inline" fill-rule="evenodd" clip-rule="evenodd" fill="#58595B" width="16654.492" height="16572.797"/>
</g>
<g id="en_cours">
</g>
<g id="fini">
	<g>
		<path d="M285.023,369.018c4.45,3.414,9.157,7.642,14.129,12.683c4.968,5.045,9.863,10.496,14.685,16.354
			c4.818,5.861,9.38,11.793,13.684,17.8c4.301,6.008,7.934,11.608,10.902,16.799h-24.252c-3.115-5.19-6.713-10.492-10.792-15.908
			c-4.081-5.413-8.343-10.604-12.793-15.575c-4.45-4.968-8.977-9.529-13.572-13.684c-4.6-4.151-8.977-7.638-13.127-10.458v55.625
			h-20.692V263.554l20.692-3.56v105.464c3.56-3.56,7.488-7.488,11.792-11.792c4.3-4.301,8.528-8.678,12.682-13.128
			c4.151-4.45,8.083-8.712,11.792-12.794c3.706-4.077,6.897-7.676,9.567-10.791h24.252c-3.414,3.71-7.12,7.788-11.125,12.237
			c-4.005,4.45-8.159,8.938-12.46,13.462c-4.304,4.526-8.643,9.049-13.016,13.572C292.995,360.751,288.879,365.013,285.023,369.018z
			"/>
	</g>
</g>
</svg>
