<?xml version="1.0" encoding="utf-8"?>
<!-- Generator: Adobe Illustrator 16.0.0, SVG Export Plug-In . SVG Version: 6.00 Build 0)  -->
<!DOCTYPE svg PUBLIC "-//W3C//DTD SVG 1.1//EN" "http://www.w3.org/Graphics/SVG/1.1/DTD/svg11.dtd">
<svg version="1.1" xmlns="http://www.w3.org/2000/svg" xmlns:xlink="http://www.w3.org/1999/xlink" x="0px" y="0px"
	 width="566.93px" height="566.93px" viewBox="0 0 566.93 566.93" enable-background="new 0 0 566.93 566.93" xml:space="preserve">
<g id="fond" display="none">
	
		<rect x="-12155.873" y="-9494.906" display="inline" fill-rule="evenodd" clip-rule="evenodd" fill="#58595B" width="15942.492" height="15814.695"/>
</g>
<g id="en_cours">
</g>
<g id="fini">
	<g>
		<g>
			<g>
				
					<line fill="#564432" stroke="#000000" stroke-width="8" stroke-linecap="round" stroke-linejoin="round" stroke-miterlimit="10" x1="283.465" y1="65.5" x2="283.465" y2="506.424"/>
				
					<line fill="#564432" stroke="#000000" stroke-width="8" stroke-linecap="round" stroke-linejoin="round" stroke-miterlimit="10" x1="173.234" y1="95.037" x2="393.695" y2="476.888"/>
				
					<line fill="#564432" stroke="#000000" stroke-width="8" stroke-linecap="round" stroke-linejoin="round" stroke-miterlimit="10" x1="92.539" y1="175.73" x2="474.39" y2="396.191"/>
				
					<line fill="#564432" stroke="#000000" stroke-width="8" stroke-linecap="round" stroke-linejoin="round" stroke-miterlimit="10" x1="63.002" y1="285.962" x2="503.926" y2="285.962"/>
				
					<line fill="#564432" stroke="#000000" stroke-width="8" stroke-linecap="round" stroke-linejoin="round" stroke-miterlimit="10" x1="92.539" y1="396.193" x2="474.39" y2="175.73"/>
				
					<line fill="#564432" stroke="#000000" stroke-width="8" stroke-linecap="round" stroke-linejoin="round" stroke-miterlimit="10" x1="173.234" y1="476.889" x2="393.694" y2="95.037"/>
			</g>
			
				<polygon fill="none" stroke="#000000" stroke-width="8" stroke-linecap="round" stroke-linejoin="round" stroke-miterlimit="10" points="
				283.463,321.818 265.535,317.016 252.41,303.891 247.607,285.962 252.411,268.034 265.535,254.908 283.463,250.105 
				301.392,254.909 314.518,268.034 319.32,285.962 314.518,303.891 301.392,317.016 			"/>
			
				<polygon fill="none" stroke="#000000" stroke-width="8" stroke-linecap="round" stroke-linejoin="round" stroke-miterlimit="10" points="
				283.463,339.746 256.572,332.541 236.885,312.855 229.678,285.962 236.885,259.069 256.572,239.381 283.463,232.178 
				310.355,239.384 330.045,259.069 337.249,285.962 330.045,312.855 310.355,332.542 			"/>
			
				<polygon fill="none" stroke="#000000" stroke-width="8" stroke-linecap="round" stroke-linejoin="round" stroke-miterlimit="10" points="
				283.463,366.639 243.128,355.831 213.595,326.301 202.785,285.962 213.597,245.623 243.128,216.09 283.463,205.284 
				323.804,216.094 353.336,245.623 364.143,285.962 353.336,326.301 323.804,355.832 			"/>
			
				<polygon fill="none" stroke="#000000" stroke-width="8" stroke-linecap="round" stroke-linejoin="round" stroke-miterlimit="10" points="
				283.463,406.977 222.959,390.765 178.66,346.47 162.447,285.962 178.665,225.453 222.959,181.153 283.463,164.945 
				343.973,181.16 388.271,225.453 404.481,285.962 388.271,346.47 343.973,390.768 			"/>
			
				<polygon fill="none" stroke="#000000" stroke-width="8" stroke-linecap="round" stroke-linejoin="round" stroke-miterlimit="10" points="
				283.463,467.484 192.707,443.166 126.258,376.725 101.938,285.962 126.266,195.199 192.707,128.749 283.463,104.436 
				374.229,128.758 440.678,195.199 464.992,285.962 440.678,376.725 374.229,443.169 			"/>
		</g>
		<g>
			
				<line stroke="#000000" stroke-width="8" stroke-linecap="round" stroke-linejoin="round" stroke-miterlimit="10" x1="353.336" y1="326.301" x2="353.336" y2="520.477"/>
			<g>
				<g>
					
						<line fill="#564432" stroke="#000000" stroke-width="8" stroke-linecap="round" stroke-linejoin="round" stroke-miterlimit="10" x1="323.402" y1="559.106" x2="383.27" y2="499.238"/>
					
						<line fill="#564432" stroke="#000000" stroke-width="8" stroke-linecap="round" stroke-linejoin="round" stroke-miterlimit="10" x1="383.27" y1="559.107" x2="323.402" y2="499.238"/>
					
						<line fill="#564432" stroke="#000000" stroke-width="8" stroke-linecap="round" stroke-linejoin="round" stroke-miterlimit="10" x1="394.229" y1="540.128" x2="312.443" y2="518.215"/>
					
						<line fill="#564432" stroke="#000000" stroke-width="8" stroke-linecap="round" stroke-linejoin="round" stroke-miterlimit="10" x1="394.229" y1="518.214" x2="312.443" y2="540.131"/>
				</g>
				<g>
					
						<path fill="#AB2E23" stroke="#000000" stroke-width="8" stroke-linecap="round" stroke-linejoin="round" stroke-miterlimit="10" d="
						M346.342,543.815c0-3.864,3.133-6.991,6.994-6.991c3.861-0.002,6.994,3.129,6.991,6.992c0.003,3.861-3.13,6.99-6.991,6.992
						C349.475,550.809,346.342,547.678,346.342,543.815z"/>
					
						<path fill="#AB2E23" stroke="#000000" stroke-width="8" stroke-linecap="round" stroke-linejoin="round" stroke-miterlimit="10" d="
						M338.692,522.181c-0.001-8.088,6.558-14.644,14.644-14.646c8.086,0.002,14.644,6.556,14.643,14.645
						c0.001,8.086-6.557,14.643-14.643,14.645C345.25,536.82,338.695,530.266,338.692,522.181z"/>
				</g>
			</g>
		</g>
	</g>
</g>
</svg>
