<?xml version="1.0" encoding="utf-8"?>
<!-- Generator: Adobe Illustrator 16.0.0, SVG Export Plug-In . SVG Version: 6.00 Build 0)  -->
<!DOCTYPE svg PUBLIC "-//W3C//DTD SVG 1.1//EN" "http://www.w3.org/Graphics/SVG/1.1/DTD/svg11.dtd">
<svg version="1.1" xmlns="http://www.w3.org/2000/svg" xmlns:xlink="http://www.w3.org/1999/xlink" x="0px" y="0px"
	 width="566.93px" height="566.93px" viewBox="0 0 566.93 566.93" enable-background="new 0 0 566.93 566.93" xml:space="preserve">
<g id="fond" display="none">
	
		<rect x="-9283.912" y="-10462.046" display="inline" fill-rule="evenodd" clip-rule="evenodd" fill="#58595B" width="16654.492" height="16572.797"/>
</g>
<g id="en_cours">
</g>
<g id="fini">
	<g>
		<polygon fill="#E5E2D3" stroke="#000000" stroke-width="8" stroke-linejoin="round" stroke-miterlimit="10" points="
			281.053,392.229 281.053,92.496 440.078,184.31 440.078,484.042 		"/>
		<polygon fill="#E5E2D3" stroke="#000000" stroke-width="8" stroke-linejoin="round" stroke-miterlimit="10" points="
			271.351,402.229 271.351,102.496 430.377,194.31 430.377,494.042 		"/>
		<polygon fill="#E5E2D3" stroke="#000000" stroke-width="8" stroke-linejoin="round" stroke-miterlimit="10" points="
			261.649,412.229 261.649,112.496 420.674,204.31 420.674,504.042 		"/>
		<polygon fill="#E5E2D3" stroke="#000000" stroke-width="8" stroke-linejoin="round" stroke-miterlimit="10" points="
			251.947,422.229 251.947,122.496 410.973,214.31 410.973,514.042 		"/>
		<polygon fill="#E5E2D3" stroke="#000000" stroke-width="8" stroke-linejoin="round" stroke-miterlimit="10" points="
			242.245,432.229 242.245,132.496 401.271,224.31 401.271,524.042 		"/>
		<path fill="#FFFFFF" stroke="#000000" stroke-width="8" stroke-linejoin="round" stroke-miterlimit="10" d="M126.852,397.257
			c0,0,55.018-39.689,85.086-129.162c19.342-57.564,20.607-125.599,20.607-125.599l159.023,91.813c0,0-4.021,76.238-20.407,125.001
			c-30.711,91.39-75.284,149.76-75.284,149.76L126.852,397.257z"/>
		<polygon fill="#AB2E23" stroke="#000000" stroke-width="8" stroke-linejoin="round" stroke-miterlimit="10" points="
			232.545,98.206 232.545,154.206 387.098,248.601 440.078,218.013 440.078,162.013 387.098,192.601 		"/>
		<polygon fill="#AB2E23" stroke="#000000" stroke-width="8" stroke-linejoin="round" stroke-miterlimit="10" points="
			281.053,70.199 232.545,98.206 387.098,192.601 440.078,162.013 		"/>
		<g>
			<path d="M275.027,328.516c-8.911,21.711-17.751,37.149-26.521,46.315c-8.772,9.169-16.682,11.611-23.736,7.331
				c-7.054-4.279-10.209-13.435-9.456-27.47c0.751-14.031,5.582-31.902,14.493-53.614c4.43-10.793,8.876-20.025,13.344-27.699
				c4.465-7.669,8.865-13.756,13.198-18.256c4.331-4.499,8.494-7.397,12.492-8.691c3.993-1.296,7.711-0.899,11.147,1.186
				c7.055,4.28,10.204,13.437,9.454,27.469C288.691,289.12,283.887,306.928,275.027,328.516z M261.28,320.174
				c2.646-6.449,4.902-12.402,6.766-17.859c1.86-5.455,3.25-10.307,4.166-14.557c0.913-4.247,1.232-7.772,0.953-10.578
				c-0.28-2.804-1.266-4.719-2.953-5.743c-1.688-1.024-3.524-0.819-5.503,0.613c-1.983,1.432-4.109,3.861-6.38,7.286
				c-2.273,3.425-4.642,7.682-7.106,12.771c-2.467,5.091-5.023,10.861-7.67,17.311c-2.648,6.453-4.917,12.438-6.803,17.954
				c-1.889,5.518-3.276,10.411-4.159,14.677c-0.886,4.267-1.204,7.792-0.952,10.579c0.247,2.786,1.218,4.689,2.906,5.714
				c1.688,1.024,3.538,0.831,5.55-0.584c2.011-1.413,4.136-3.843,6.379-7.286c2.24-3.441,4.606-7.741,7.1-12.893
				C256.063,332.429,258.632,326.627,261.28,320.174z"/>
			<path d="M311.78,328.966c3.919,2.378,6.803,5.485,8.658,9.32c1.852,3.836,2.888,8.144,3.109,12.927
				c0.222,4.782-0.296,9.896-1.547,15.331c-1.255,5.439-3.025,10.949-5.316,16.532c-2.037,4.963-4.563,9.783-7.573,14.464
				c-3.014,4.68-6.276,8.591-9.785,11.728c-3.51,3.14-7.198,5.243-11.061,6.307c-3.862,1.062-7.664,0.463-11.401-1.805
				c-7.539-4.574-11.256-12.949-11.151-25.127c0.102-12.179,3.693-26.891,10.771-44.136c5.091-12.404,10.531-22.817,16.322-31.237
				c5.788-8.418,11.755-14.834,17.896-19.243c6.14-4.409,12.365-6.828,18.681-7.26c6.313-0.43,12.571,1.159,18.773,4.766
				c-1.459,3.92-2.88,7.746-4.259,11.479c-1.383,3.733-2.828,7.622-4.337,11.663c-3.125-1.74-6.248-2.896-9.361-3.472
				c-3.116-0.573-6.234-0.412-9.35,0.486c-3.119,0.897-6.217,2.62-9.296,5.169c-3.079,2.548-6.114,6.092-9.106,10.628
				c1.834-0.435,3.549-0.479,5.141-0.135C309.175,327.697,310.573,328.233,311.78,328.966z M301.203,349.51
				c-1.328-0.805-2.848-1.415-4.558-1.835c-1.712-0.418-3.167-0.447-4.366-0.093c-0.204,0.497-0.526,1.232-0.961,2.206
				c-0.44,0.975-0.809,1.833-1.114,2.578c-1.833,4.466-3.416,8.774-4.743,12.928c-1.328,4.155-2.24,7.938-2.739,11.354
				c-0.498,3.416-0.488,6.327,0.03,8.733c0.518,2.406,1.682,4.159,3.49,5.257c1.508,0.915,3.056,1.039,4.646,0.377
				c1.59-0.661,3.139-1.774,4.646-3.339c1.507-1.563,2.925-3.456,4.249-5.674s2.446-4.443,3.362-6.677
				c2.597-6.327,3.824-11.661,3.688-16.007C306.698,354.976,304.819,351.704,301.203,349.51z"/>
		</g>
	</g>
</g>
</svg>
