<?xml version="1.0" encoding="utf-8"?>
<!-- Generator: Adobe Illustrator 16.0.0, SVG Export Plug-In . SVG Version: 6.00 Build 0)  -->
<!DOCTYPE svg PUBLIC "-//W3C//DTD SVG 1.1//EN" "http://www.w3.org/Graphics/SVG/1.1/DTD/svg11.dtd">
<svg version="1.1" xmlns="http://www.w3.org/2000/svg" xmlns:xlink="http://www.w3.org/1999/xlink" x="0px" y="0px"
	 width="283.465px" height="283.465px" viewBox="0 0 283.465 566.93" enable-background="new 0 0 283.465 566.93"
	 xml:space="preserve">
<g id="fond" display="none">
	
		<rect x="-8042.283" y="-9811.008" display="inline" fill-rule="evenodd" clip-rule="evenodd" fill="#58595B" width="16654.492" height="16572.797"/>
</g>
<g id="en_cours">
</g>
<g id="fini">
	<g>
		<path d="M212.488,275.387c-5.639,16.319-11.014,31.411-16.131,45.278c-5.117,13.872-10.124,27.034-15.019,39.494
			c-4.895,12.459-9.755,24.363-14.574,35.711c-4.822,11.347-9.755,22.583-14.796,33.708h-20.248
			c-5.044-11.125-9.978-22.361-14.796-33.708c-4.822-11.348-9.717-23.252-14.685-35.711c-4.971-12.46-10.05-25.622-15.241-39.494
			c-5.194-13.867-10.534-28.959-16.02-45.278h23.807c8.01,23.439,15.871,45.984,23.585,67.64
			c7.711,21.659,15.648,41.979,23.807,60.965c8.156-18.836,16.093-39.122,23.807-60.854c7.711-21.729,15.499-44.312,23.362-67.751
			H212.488z"/>
	</g>
</g>
</svg>
