<?xml version="1.0" encoding="utf-8"?>
<!-- Generator: Adobe Illustrator 16.0.0, SVG Export Plug-In . SVG Version: 6.00 Build 0)  -->
<!DOCTYPE svg PUBLIC "-//W3C//DTD SVG 1.1//EN" "http://www.w3.org/Graphics/SVG/1.1/DTD/svg11.dtd">
<svg version="1.1" xmlns="http://www.w3.org/2000/svg" xmlns:xlink="http://www.w3.org/1999/xlink" x="0px" y="0px"
	 width="566.93px" height="566.93px" viewBox="0 0 566.93 566.93" enable-background="new 0 0 566.93 566.93" xml:space="preserve">
<g id="fond" display="none">
	
		<rect x="-8889.913" y="-7591.898" display="inline" fill-rule="evenodd" clip-rule="evenodd" fill="#58595B" width="15942.492" height="15814.695"/>
</g>
<g id="en_cours">
</g>
<g id="fini">
	<g>
		<g>
			<polygon fill="#CCAC6C" stroke="#241815" stroke-width="8" stroke-linejoin="round" stroke-miterlimit="10" points="
				484.848,51.958 309.799,270.986 301.583,263.577 467.603,39.338 			"/>
			<polygon fill="#CCAC6C" stroke="#241815" stroke-width="8" stroke-linejoin="round" stroke-miterlimit="10" points="
				526.264,88.362 330.392,289.351 322.328,281.776 510.688,73.733 			"/>
			<g>
				<g>
					<path fill="#FFFFFF" d="M92.451,347.174v-4c0-0.329,0.046-27.898,0.159-38.674c-10.051-0.863-19.176-5.122-19.176-12.508
						c0-4.382,3.454-8.124,9.421-10.397c0.135-2.305,1.223-5.308,4.714-8.629c2.237-2.128,5.164-4.078,8.499-5.686
						c-5.944-5.54-8.201-11.626-5.646-16.242c0.988-1.785,3.595-4.78,9.943-4.78c3.121,0,6.663,0.721,10.3,2.071
						c0.097-0.421,0.199-0.841,0.308-1.26c2.5-9.634,8.42-19.356,16.013-19.356c0.211,0,0.422,0.008,0.633,0.024
						c1.95-9.047,6.759-17.613,13.867-17.613c0.346,0,0.695,0.022,1.038,0.067c1.287,0.167,3.175,0.743,4.976,2.516
						c3.564-4.606,7.645-7.22,11.521-7.22c1.03,0,2.027,0.184,2.966,0.547c0.56,0.217,1.086,0.492,1.576,0.821
						c2.537-5.547,6.32-8.863,10.619-8.863c0.201,0,0.404,0.008,0.606,0.023c2.077,0.158,3.94,1.061,5.52,2.622
						c0.413-0.448,0.829-0.799,1.205-1.07c1.423-1.028,3.183-1.571,5.086-1.571c0.227,0,0.455,0.007,0.686,0.022
						c0.136-0.551,0.317-1.042,0.516-1.472c0.957-2.071,3.68-5.551,11.16-5.551c4.534,0,9.878,1.315,15.047,3.704
						c0.685,0.315,1.371,0.654,2.056,1.016c2.272-1.87,4.91-3.58,7.764-5.024c5.209-2.639,10.571-4.137,15.17-4.246
						c0.174-4.354,2.213-6.601,3.681-7.662c1.428-1.031,3.191-1.577,5.101-1.577c5.028,0,11.076,3.698,16.32,9.841
						c1.268-0.706,2.741-1.076,4.313-1.076c3.854,0,8.3,2.154,12.603,6.026c4.459-7.158,10.169-11.576,15.272-11.576
						c1.268,0,2.47,0.266,3.573,0.792c3.674,1.746,5.547,5.873,5.43,11.428c4.063-1.738,8.083-2.693,11.526-2.693
						c3.633,0,6.001,1.051,7.52,2.25c3.112-2.446,6.242-3.754,9.093-3.754c1.532,0,2.948,0.368,4.209,1.093
						c2.407,1.383,3.892,3.81,4.417,6.97c0.268-0.026,0.539-0.039,0.812-0.039c5.354,0,11.125,5.04,15.269,13.112
						c0.985-0.227,1.938-0.341,2.853-0.341c2.16,0,4.102,0.654,5.616,1.891c0.153,0.125,0.301,0.254,0.443,0.389
						c2.742-3.329,5.896-5.184,9.058-5.184c0.624,0,1.246,0.072,1.849,0.213c4.533,1.06,7.445,5.807,8.093,12.682
						c1.94-0.698,4.018-1.171,6.081-1.171c3.646,0,5.805,1.51,6.975,2.777c1.082,1.17,2.455,3.384,2.232,6.94
						c4.229,1.54,7.252,6.572,8.341,13.702c1.14-0.376,2.257-0.568,3.333-0.568c1.419,0,2.744,0.323,3.94,0.96
						c3.313,1.761,5.012,5.457,4.956,10.402c2.223-0.721,4.34-1.099,6.249-1.099c4.263,0,6.593,1.816,7.797,3.34
						c2.216,2.797,2.364,6.704,0.563,11.031c1.692,0.669,2.812,1.681,3.53,2.589c2.429,3.068,2.39,7.398,0.051,12.17
						c8.41,1.862,13.708,6.21,13.708,11.689c0,7.386-9.125,11.645-19.176,12.508c0.113,10.776,0.159,38.345,0.159,38.674v4H92.451z"
						/>
					<path fill="#241815" d="M247.776,181.204c4.268,0,10.475,4.327,15.409,11.152c0.261,0.361,0.505,0.726,0.751,1.091
						c0.319-1.132,0.874-2.051,1.715-2.658c0.769-0.556,1.704-0.82,2.758-0.82c3.585,0,8.539,3.056,12.958,8.081
						c0.282,0.018,0.563,0.042,0.847,0.063c3.914-8.144,9.776-13.694,14.07-13.694c0.659,0,1.282,0.131,1.854,0.403
						c3.448,1.639,4.04,7.924,1.854,15.21c0.026,0.003,0.053,0.007,0.077,0.011c0.654-0.442,1.324-0.877,2.024-1.294
						c5.289-3.15,10.674-4.804,14.719-4.804c2.854,0,5.043,0.825,6.057,2.528c0.361,0.607,0.535,1.299,0.57,2.043
						c3.438-3.798,7.112-6.076,9.985-6.076c0.81,0,1.556,0.181,2.215,0.56c3.302,1.898,3.412,8.183,0.688,15.255
						c0.439,0.138,0.872,0.284,1.309,0.424c0.121-4.031,1.361-7.02,3.689-7.931c0.487-0.191,1.002-0.284,1.537-0.284
						c4.229,0,9.727,5.78,13.164,14.091c1.803-0.858,3.496-1.32,4.957-1.32c1.212,0,2.265,0.317,3.086,0.989
						c1.45,1.183,1.958,3.293,1.658,5.899c0.216,0.109,0.435,0.215,0.65,0.325c2.604-6.079,6.353-10.117,9.723-10.116
						c0.314,0,0.627,0.035,0.934,0.107c3.844,0.898,5.757,7.298,4.969,15.244c3.716-2.339,7.326-3.627,10.12-3.627
						c1.702,0,3.102,0.479,4.035,1.49c1.648,1.783,1.522,4.883-0.004,8.435c0.775-0.456,1.575-0.701,2.385-0.701
						c0.104,0,0.208,0.004,0.313,0.012c4.348,0.342,7.379,7.68,7.26,16.896c2.433-2.088,4.854-3.28,6.893-3.28
						c0.744,0,1.437,0.159,2.06,0.491c3.114,1.655,3.613,7.164,1.692,13.653c4.176-2.513,8.266-3.88,11.394-3.88
						c2.048,0,3.684,0.586,4.659,1.821c2.027,2.56,0.681,7.249-2.992,12.038c0.855-0.155,1.666-0.235,2.422-0.235
						c2.05,0,3.688,0.584,4.663,1.818c2.133,2.694,0.521,7.746-3.599,12.791c9.309,0.564,16.495,4.189,16.495,8.587
						c0,4.79-8.514,8.672-19.017,8.672c-0.077,0-0.15-0.004-0.228-0.006c0.148,1.892,0.228,40.602,0.228,42.516H96.451
						c0-1.914,0.078-40.624,0.228-42.516c-0.077,0.002-0.15,0.006-0.229,0.006c-10.503,0-19.016-3.882-19.016-8.672
						c0-3.313,4.073-6.188,10.058-7.648c-0.175-0.273-0.322-0.559-0.429-0.867c-1.563-4.525,5.217-10.976,15.144-14.405
						c0.654-0.225,1.305-0.429,1.952-0.618c-7.848-5-12.364-11.637-10.237-15.479c1.012-1.828,3.356-2.717,6.443-2.717
						c3.733,0,8.55,1.302,13.397,3.819c0.195-1.925,0.547-3.941,1.082-6.003c2.446-9.428,7.693-16.361,12.141-16.361
						c0.348,0,0.692,0.042,1.029,0.13c1.082,0.281,1.992,1.014,2.729,2.076c0.054-0.665,0.123-1.339,0.211-2.02
						c1.304-10.034,5.944-17.775,10.53-17.774c0.174,0,0.348,0.011,0.521,0.034c2.364,0.308,4.232,2.68,5.347,6.267
						c3.388-6.583,7.997-10.939,11.666-10.938c0.528,0,1.038,0.09,1.521,0.277c2.533,0.983,3.801,4.419,3.732,8.993
						c0.097-0.046,0.195-0.091,0.295-0.14c1.1-9.429,5.211-16.625,9.613-16.625c0.102,0,0.203,0.004,0.305,0.012
						c3.113,0.237,5.56,4.063,6.672,9.593c0.349-0.129,0.699-0.255,1.05-0.383c-0.827-3.844-0.349-6.966,1.645-8.404
						c0.767-0.553,1.697-0.816,2.746-0.815c1.66,0,3.615,0.658,5.674,1.861c-1.216-2.068-1.58-4.036-0.842-5.632
						c0.995-2.155,3.795-3.23,7.529-3.23c3.798,0,8.562,1.113,13.369,3.335c1.517,0.699,2.935,1.474,4.258,2.288
						c2.313-2.286,5.408-4.517,9.046-6.358c5.004-2.534,9.999-3.821,13.898-3.821c1.518,0,2.87,0.195,3.992,0.587
						c-1.015-4.114-0.599-7.487,1.496-9C245.787,181.468,246.723,181.204,247.776,181.204 M247.777,173.204L247.777,173.204
						c-2.757,0-5.331,0.808-7.446,2.337c-1.368,0.988-3.73,3.198-4.794,7.182c-4.32,0.595-8.994,2.106-13.521,4.398
						c-2.282,1.156-4.444,2.472-6.422,3.904c-5.65-2.599-11.558-4.031-16.636-4.032c-6.743,0-11.95,2.597-14.432,7.158
						c-1.525,0.235-2.967,0.732-4.271,1.474c-1.58-0.912-3.313-1.458-5.164-1.599c-0.303-0.023-0.606-0.034-0.906-0.035
						c-4.865,0-9.187,2.874-12.368,7.814c-0.91-0.213-1.846-0.32-2.798-0.32c-4.151,0-8.372,2.106-12.149,5.905
						c-1.197-0.597-2.48-0.991-3.832-1.167c-0.512-0.066-1.033-0.101-1.551-0.101c-8.546,0-14.324,8.176-17.057,17.837
						c-8.093,1.598-13.702,10.631-16.519,19.32c-2.635-0.673-5.187-1.024-7.547-1.024c-8.4,0-12.028,4.287-13.443,6.843
						c-2.83,5.112-1.648,11.31,2.821,17.139c-1.845,1.186-3.507,2.473-4.932,3.829c-2.851,2.711-4.72,5.697-5.523,8.707
						c-6.271,2.992-9.854,7.684-9.854,13.218c0,8.1,7.564,14.184,19.146,16.063c-0.097,12.451-0.129,34.821-0.129,35.118v8h8
						h334.331h8v-8c0-0.297-0.034-22.67-0.13-35.117c11.581-1.881,19.146-7.965,19.146-16.064c0-6.325-4.723-11.485-12.478-14.313
						c1.159-4.544,0.472-8.724-2.146-12.031c-0.559-0.707-1.189-1.341-1.884-1.901c1.046-4.436,0.332-8.513-2.21-11.722
						c-2.473-3.127-6.355-4.854-10.931-4.854c-0.922,0-1.84,0.066-2.748,0.187c-0.93-4.069-3.154-7.201-6.583-9.023
						c-1.774-0.946-3.733-1.427-5.814-1.427c-0.08,0-0.159,0-0.239,0.002c-1.472-5.308-4.085-9.357-7.526-11.615
						c-0.434-3.669-2.152-6.04-3.206-7.18c-2.414-2.616-5.935-4.06-9.909-4.06c-0.958,0-1.911,0.08-2.851,0.223
						c-1.592-6.223-5.21-10.413-10.417-11.63c-0.892-0.209-1.821-0.317-2.754-0.317c-3.438,0-6.733,1.403-9.678,4.026
						c-1.652-0.739-3.491-1.123-5.44-1.123c-0.23,0-0.462,0.005-0.695,0.016c-3.693-6.174-8.921-11.516-15.143-12.59
						c-1.075-2.842-2.926-5.105-5.519-6.596c-1.874-1.078-3.961-1.625-6.202-1.625c-2.993,0-6.143,1.031-9.249,2.984
						c-1.891-0.878-4.304-1.48-7.363-1.48c-2.533,0-5.258,0.415-8.065,1.209c-1.01-4.432-3.441-7.783-7.175-9.558
						c-1.643-0.781-3.423-1.178-5.289-1.178c-6.241,0-11.836,4.306-16.114,9.819c-3.982-2.766-8.042-4.269-11.76-4.269
						c-1.106,0-2.183,0.13-3.212,0.384C260.32,177.349,254.056,173.205,247.777,173.204L247.777,173.204L247.777,173.204z"/>
				</g>
				<g>
					<path fill="#2268A8" stroke="#241815" stroke-width="8" stroke-linejoin="round" stroke-miterlimit="10" d="M348.263,466.52
						c0,19.449-37.896,35.22-84.646,35.22c-46.75,0-84.648-15.771-84.648-35.22v-76.467h169.295V466.52z"/>
					<path fill="#2268A8" stroke="#241815" stroke-width="8" stroke-linejoin="round" stroke-miterlimit="10" d="M65.146,298.549
						c15.251,95.519,98.298,168.531,198.471,168.531c100.174,0,183.218-73.013,198.47-168.531c0,0-93.603,19.323-204.912,19.323
						C145.866,317.872,65.146,298.549,65.146,298.549z"/>
				</g>
			</g>
		</g>
		<polygon fill="#AB2E23" stroke="#241815" stroke-width="8" stroke-linejoin="round" stroke-miterlimit="10" points="
			197.644,225.98 239.329,153.792 219.647,153.792 219.646,98.493 175.647,98.493 175.646,153.792 155.961,153.792 		"/>
	</g>
</g>
</svg>
