<?xml version="1.0" encoding="utf-8"?>
<!-- Generator: Adobe Illustrator 16.0.0, SVG Export Plug-In . SVG Version: 6.00 Build 0)  -->
<!DOCTYPE svg PUBLIC "-//W3C//DTD SVG 1.1//EN" "http://www.w3.org/Graphics/SVG/1.1/DTD/svg11.dtd">
<svg version="1.1" xmlns="http://www.w3.org/2000/svg" xmlns:xlink="http://www.w3.org/1999/xlink" x="0px" y="0px"
	 width="566.93px" height="566.93px" viewBox="0 0 566.93 566.93" enable-background="new 0 0 566.93 566.93" xml:space="preserve">
<g id="fond" display="none">
	
		<rect x="-8889.913" y="-10145.944" display="inline" fill-rule="evenodd" clip-rule="evenodd" fill="#58595B" width="15942.492" height="15814.695"/>
</g>
<g id="en_cours">
</g>
<g id="fini">
	<g>
		<g>
			<path fill="#CCAC6C" d="M229.958,202.179l-19.837-4.648l0.84-10.479l2.108-26.341c1.057-13.198-8.786-24.756-21.985-25.815
				l-0.257-0.018c-13.201-1.06-24.76,8.784-25.819,21.985l-2.024,25.299c-1.702,0.725-3.31,1.644-4.797,2.732l-2.438-36.057
				c-0.892-13.181-11.704-23.182-24.149-22.342l-0.243,0.019c-12.447,0.839-21.814,12.206-20.926,25.388l4.501,66.553l-5.063-54.426
				c-1.231-13.21-11.837-23.025-23.688-21.924l-0.234,0.023c-11.854,1.102-20.469,12.705-19.238,25.918l6.305,67.773l-8.288-42.365
				c-2.088-10.84-12.568-17.937-23.409-15.852l-0.213,0.043C30.613,179.664,23.654,189.543,25.101,200l-0.034-0.077
				c4.998,43.693,16.393,134.438,16.393,134.438s5.841,41.619,39.949,62.11l-8.124,143.027l145.747-1.074
				c0,0-16.327-115.278-16.327-135.468s40.968-45.491,40.968-65.54C243.672,316.091,270.596,209.895,229.958,202.179z"/>
			
				<line fill="#CCAC6C" stroke="#000000" stroke-width="8" stroke-linecap="round" stroke-linejoin="round" stroke-miterlimit="10" x1="82.272" y1="381.26" x2="73.284" y2="539.499"/>
			
				<path fill="#CCAC6C" stroke="#000000" stroke-width="8" stroke-linecap="round" stroke-linejoin="round" stroke-miterlimit="10" d="
				M116.173,231.801c1.229,13.214-7.385,24.815-19.239,25.916l-0.234,0.023c-11.853,1.104-22.459-8.712-23.688-21.92l-6.305-67.773
				c-1.23-13.213,7.385-24.816,19.238-25.918l0.234-0.023c11.852-1.102,22.457,8.714,23.688,21.924L116.173,231.801z"/>
			
				<path fill="#CCAC6C" stroke="#000000" stroke-width="8" stroke-linecap="round" stroke-linejoin="round" stroke-miterlimit="10" d="
				M160.321,216.455c0.892,13.183-8.477,24.549-20.924,25.39l-0.247,0.02c-12.443,0.841-23.256-9.162-24.146-22.341l-4.573-67.621
				c-0.889-13.182,8.479-24.549,20.926-25.388l0.243-0.019c12.445-0.84,23.258,9.161,24.149,22.342L160.321,216.455z"/>
			
				<path fill="#CCAC6C" stroke="#000000" stroke-width="8" stroke-linecap="round" stroke-linejoin="round" stroke-miterlimit="10" d="
				M207.647,228.424c-1.057,13.2-12.613,23.044-25.815,21.986l-0.259-0.019c-13.198-1.058-23.041-12.614-21.983-25.812l5.418-67.717
				c1.06-13.201,12.618-23.045,25.819-21.985l0.257,0.018c13.199,1.06,23.042,12.617,21.985,25.815L207.647,228.424z"/>
			
				<path fill="#CCAC6C" stroke="#000000" stroke-width="8" stroke-linecap="round" stroke-linejoin="round" stroke-miterlimit="10" d="
				M25.066,199.923c4.998,43.693,16.393,134.438,16.393,134.438s9.636,68.736,76.524,73.033"/>
			
				<path fill="#CCAC6C" stroke="#000000" stroke-width="8" stroke-linecap="round" stroke-linejoin="round" stroke-miterlimit="10" d="
				M75.431,249.07c2.089,10.842-5.009,21.324-15.851,23.409l-0.212,0.044c-10.843,2.086-21.323-5.011-23.411-15.853L25.25,201.056
				c-2.089-10.842,5.01-21.323,15.852-23.409l0.213-0.043c10.841-2.085,21.321,5.012,23.409,15.852L75.431,249.07z"/>
			
				<path fill="#CCAC6C" stroke="#000000" stroke-width="8" stroke-linecap="round" stroke-linejoin="round" stroke-miterlimit="10" d="
				M219.031,538.425c0,0-16.327-115.278-16.327-135.468s42.98-37.908,49.712-83.413c11.773-79.592,23.17-109.649-22.458-117.365
				l-53.207-12.47c-13.017-2.429-25.537,6.151-27.973,19.167l-0.044,0.255c-2.433,13.019,6.148,25.542,19.168,27.975l42.445,11.543
				l-21.746,27.356c0,0-61.937,16.896-61.937,49.763"/>
			
				<line fill="#CCAC6C" stroke="#000000" stroke-width="8" stroke-linecap="round" stroke-linejoin="round" stroke-miterlimit="10" x1="126.665" y1="434.603" x2="126.665" y2="481.86"/>
		</g>
		<g>
			<path fill="#CCAC6C" d="M336.972,202.179l19.836-4.648l-0.839-10.479l-2.109-26.341c-1.057-13.198,8.786-24.756,21.986-25.815
				l0.257-0.018c13.2-1.06,24.76,8.784,25.818,21.985l2.024,25.299c1.702,0.725,3.311,1.644,4.797,2.732l2.438-36.057
				c0.893-13.181,11.704-23.182,24.149-22.342l0.244,0.019c12.446,0.839,21.813,12.206,20.925,25.388l-4.501,66.553l5.064-54.426
				c1.23-13.21,11.836-23.025,23.688-21.924l0.234,0.023c11.854,1.102,20.469,12.705,19.239,25.918l-6.306,67.773l8.289-42.365
				c2.087-10.84,12.567-17.937,23.409-15.852l0.213,0.043c10.488,2.018,17.447,11.896,16.001,22.354l0.034-0.077
				c-4.999,43.693-16.394,134.438-16.394,134.438s-5.841,41.619-39.949,62.11l8.125,143.027l-145.747-1.074
				c0,0,16.326-115.278,16.326-135.468s-40.967-45.491-40.967-65.54C323.258,316.091,296.333,209.895,336.972,202.179z"/>
			
				<line fill="#CCAC6C" stroke="#000000" stroke-width="8" stroke-linecap="round" stroke-linejoin="round" stroke-miterlimit="10" x1="484.657" y1="381.26" x2="493.646" y2="539.499"/>
			
				<path fill="#CCAC6C" stroke="#000000" stroke-width="8" stroke-linecap="round" stroke-linejoin="round" stroke-miterlimit="10" d="
				M450.756,231.801c-1.229,13.214,7.385,24.815,19.24,25.916l0.234,0.023c11.852,1.104,22.459-8.712,23.687-21.92l6.306-67.773
				c1.229-13.213-7.385-24.816-19.239-25.918l-0.234-0.023c-11.852-1.102-22.457,8.714-23.688,21.924L450.756,231.801z"/>
			
				<path fill="#CCAC6C" stroke="#000000" stroke-width="8" stroke-linecap="round" stroke-linejoin="round" stroke-miterlimit="10" d="
				M406.608,216.455c-0.892,13.183,8.477,24.549,20.923,25.39l0.247,0.02c12.443,0.841,23.256-9.162,24.146-22.341l4.573-67.621
				c0.889-13.182-8.479-24.549-20.925-25.388l-0.244-0.019c-12.445-0.84-23.257,9.161-24.149,22.342L406.608,216.455z"/>
			
				<path fill="#CCAC6C" stroke="#000000" stroke-width="8" stroke-linecap="round" stroke-linejoin="round" stroke-miterlimit="10" d="
				M359.281,228.424c1.057,13.2,12.614,23.044,25.815,21.986l0.259-0.019c13.199-1.058,23.041-12.614,21.984-25.812l-5.419-67.717
				c-1.059-13.201-12.618-23.045-25.818-21.985l-0.257,0.018c-13.2,1.06-23.043,12.617-21.986,25.815L359.281,228.424z"/>
			
				<path fill="#CCAC6C" stroke="#000000" stroke-width="8" stroke-linecap="round" stroke-linejoin="round" stroke-miterlimit="10" d="
				M541.863,199.923c-4.999,43.693-16.394,134.438-16.394,134.438s-9.636,68.736-76.524,73.033"/>
			
				<path fill="#CCAC6C" stroke="#000000" stroke-width="8" stroke-linecap="round" stroke-linejoin="round" stroke-miterlimit="10" d="
				M491.498,249.07c-2.088,10.842,5.01,21.324,15.852,23.409l0.212,0.044c10.843,2.086,21.323-5.011,23.41-15.853l10.708-55.615
				c2.088-10.842-5.01-21.323-15.852-23.409l-0.213-0.043c-10.842-2.085-21.322,5.012-23.409,15.852L491.498,249.07z"/>
			
				<path fill="#CCAC6C" stroke="#000000" stroke-width="8" stroke-linecap="round" stroke-linejoin="round" stroke-miterlimit="10" d="
				M347.898,538.425c0,0,16.326-115.278,16.326-135.468s-42.98-37.908-49.711-83.413c-11.774-79.592-23.17-109.649,22.458-117.365
				l53.207-12.47c13.016-2.429,25.537,6.151,27.972,19.167l0.044,0.255c2.434,13.019-6.147,25.542-19.167,27.975l-42.445,11.543
				l21.746,27.356c0,0,61.936,16.896,61.936,49.763"/>
			
				<line fill="#CCAC6C" stroke="#000000" stroke-width="8" stroke-linecap="round" stroke-linejoin="round" stroke-miterlimit="10" x1="440.264" y1="434.603" x2="440.264" y2="481.86"/>
		</g>
	</g>
</g>
</svg>
