<?xml version="1.0" encoding="utf-8"?>
<!-- Generator: Adobe Illustrator 16.0.0, SVG Export Plug-In . SVG Version: 6.00 Build 0)  -->
<!DOCTYPE svg PUBLIC "-//W3C//DTD SVG 1.1//EN" "http://www.w3.org/Graphics/SVG/1.1/DTD/svg11.dtd">
<svg version="1.1" xmlns="http://www.w3.org/2000/svg" xmlns:xlink="http://www.w3.org/1999/xlink" x="0px" y="0px"
	 width="566.93px" height="566.93px" viewBox="0 0 566.93 566.93" enable-background="new 0 0 566.93 566.93" xml:space="preserve">
<g id="fond" display="none">
	
		<rect x="-4748.14" y="-8544.855" display="inline" fill-rule="evenodd" clip-rule="evenodd" fill="#58595B" width="16654.492" height="16572.797"/>
</g>
<g id="en_cours">
</g>
<g id="fini">
	<g>
		<path fill="#FFFFFF" stroke="#000000" stroke-width="8" stroke-linejoin="round" stroke-miterlimit="10" d="M284.965,175.49
			c-99.53,0-185.341,55.403-224.768,135.32c39.427,79.918,125.237,135.321,224.768,135.321c99.531,0,185.341-55.403,224.768-135.321
			C470.306,230.894,384.496,175.49,284.965,175.49z"/>
		
			<circle fill="#564432" stroke="#000000" stroke-width="8" stroke-linejoin="round" stroke-miterlimit="10" cx="284.965" cy="310.811" r="135.321"/>
		
			<circle fill="#141414" stroke="#000000" stroke-width="8" stroke-linejoin="round" stroke-miterlimit="10" cx="284.965" cy="310.811" r="48.769"/>
		<g>
			<path d="M507.067,312.187c0,0-1.134-1.844-3.26-5.301c-1.029-1.775-2.405-3.775-3.978-6.176c-1.535-2.4-3.502-5.1-5.604-8.147
				c-4.35-6.01-9.87-13.111-16.694-20.779c-6.83-7.659-15.011-15.848-24.584-23.971c-1.2-1.01-2.412-2.03-3.637-3.061
				c-1.222-1.031-2.517-2.003-3.788-3.022c-1.288-0.999-2.55-2.053-3.89-3.033c-1.337-0.982-2.686-1.973-4.045-2.973
				c-0.681-0.497-1.365-0.996-2.051-1.497c-0.7-0.482-1.403-0.967-2.109-1.453c-1.409-0.975-2.829-1.956-4.26-2.946
				c-1.462-0.941-2.937-1.89-4.421-2.845c-1.481-0.958-2.972-1.923-4.524-2.816c-1.535-0.915-3.081-1.837-4.637-2.765
				c-1.56-0.919-3.17-1.777-4.766-2.677c-3.173-1.836-6.521-3.446-9.841-5.178c-1.679-0.83-3.397-1.607-5.105-2.42
				c-0.854-0.407-1.709-0.815-2.567-1.224c-0.862-0.401-1.743-0.767-2.617-1.152c-1.75-0.764-3.509-1.53-5.276-2.301
				c-1.792-0.71-3.591-1.422-5.398-2.138c-0.905-0.353-1.804-0.728-2.719-1.063c-0.919-0.328-1.84-0.655-2.763-0.984
				c-1.85-0.643-3.685-1.347-5.555-1.971c-3.754-1.211-7.513-2.492-11.371-3.537c-7.669-2.232-15.55-4.064-23.548-5.591
				c-16.002-3.041-32.542-4.556-49.095-4.582l-6.281,0.093c-1.067,0.022-2.185,0.018-3.21,0.062l-3.029,0.153
				c-2.026,0.116-4.021,0.168-6.071,0.329c-2.056,0.174-4.111,0.347-6.164,0.52c-8.19,0.858-16.353,1.824-24.34,3.426
				c-7.998,1.526-15.878,3.358-23.548,5.591c-3.858,1.045-7.616,2.326-11.371,3.537c-1.87,0.624-3.705,1.328-5.555,1.971
				c-0.923,0.329-1.843,0.657-2.762,0.984c-0.916,0.336-1.813,0.712-2.719,1.064c-1.807,0.715-3.607,1.428-5.399,2.137
				c-1.767,0.771-3.525,1.537-5.275,2.301c-0.874,0.387-1.755,0.751-2.617,1.152c-0.857,0.409-1.714,0.816-2.567,1.224
				c-1.708,0.813-3.426,1.59-5.105,2.42c-3.32,1.731-6.668,3.342-9.841,5.178c-1.596,0.9-3.206,1.758-4.766,2.677
				c-1.556,0.928-3.102,1.85-4.637,2.766c-1.552,0.893-3.043,1.857-4.524,2.815c-1.484,0.955-2.958,1.903-4.421,2.845
				c-1.431,0.99-2.851,1.972-4.26,2.946c-0.706,0.486-1.409,0.971-2.109,1.453c-0.687,0.501-1.37,1-2.051,1.498
				c-1.36,0.999-2.709,1.99-4.046,2.972c-1.339,0.981-2.602,2.034-3.89,3.034c-1.271,1.019-2.566,1.99-3.788,3.021
				c-1.225,1.03-2.437,2.051-3.637,3.061c-9.573,8.123-17.754,16.312-24.584,23.971c-6.824,7.668-12.345,14.77-16.694,20.779
				c-4.27,6.061-7.52,10.939-9.596,14.351c-2.101,3.407-3.221,5.225-3.221,5.225l-0.062,0.1c-0.87,1.412-2.721,1.851-4.132,0.98
				c-1.283-0.79-1.762-2.39-1.187-3.734c0,0,0.86-2.019,2.474-5.804c0.786-1.908,1.918-4.178,3.202-6.882
				c1.236-2.733,2.905-5.737,4.726-9.143c3.766-6.729,8.583-14.818,14.959-23.551c6.354-8.74,14.214-18.149,23.696-27.578
				c9.5-9.393,20.542-18.916,33.253-27.595c1.593-1.079,3.196-2.166,4.81-3.261c1.629-1.07,3.312-2.081,4.983-3.135
				c3.323-2.143,6.832-4.063,10.328-6.104c1.766-0.986,3.574-1.918,5.376-2.887c0.905-0.477,1.813-0.954,2.723-1.433
				c0.915-0.469,1.85-0.902,2.777-1.356c1.862-0.898,3.732-1.801,5.61-2.707c1.909-0.844,3.825-1.69,5.75-2.541
				c0.966-0.42,1.924-0.862,2.901-1.265c0.98-0.395,1.963-0.789,2.948-1.184c1.973-0.782,3.939-1.609,5.951-2.337
				c4.031-1.431,8.076-2.927,12.228-4.182c4.117-1.374,8.337-2.486,12.561-3.679c2.121-0.559,4.269-1.032,6.412-1.553l3.221-0.764
				l3.251-0.657c8.662-1.851,17.505-3.158,26.417-4.088c2.231-0.2,4.465-0.401,6.7-0.602c2.243-0.188,4.56-0.271,6.839-0.408
				l3.433-0.183c1.13-0.053,2.172-0.053,3.262-0.081l6.667-0.132l6.743,0.134c1.123,0.029,2.247,0.031,3.369,0.084l3.366,0.184
				c2.242,0.137,4.487,0.215,6.723,0.402c2.235,0.2,4.468,0.401,6.699,0.602c8.911,0.93,17.755,2.237,26.417,4.088l3.251,0.657
				l3.221,0.764c2.143,0.521,4.291,0.994,6.412,1.553c4.224,1.192,8.443,2.305,12.561,3.679c4.152,1.255,8.197,2.751,12.228,4.182
				c2.011,0.728,3.978,1.555,5.951,2.337c0.985,0.395,1.967,0.789,2.948,1.184c0.978,0.402,1.936,0.845,2.901,1.265
				c1.925,0.851,3.842,1.697,5.75,2.541c1.878,0.906,3.749,1.809,5.61,2.707c0.928,0.454,1.863,0.888,2.777,1.356
				c0.91,0.479,1.817,0.956,2.723,1.433c1.802,0.969,3.61,1.9,5.376,2.887c3.496,2.041,7.005,3.961,10.328,6.104
				c1.672,1.054,3.354,2.064,4.983,3.135c1.614,1.095,3.217,2.181,4.81,3.261c12.71,8.679,23.753,18.202,33.253,27.595
				c9.482,9.429,17.341,18.838,23.696,27.578c6.376,8.731,11.193,16.822,14.959,23.551c1.822,3.408,3.485,6.399,4.739,9.165
				c1.293,2.721,2.443,5.029,3.203,6.887c1.588,3.735,2.435,5.728,2.435,5.728c0.65,1.528-0.062,3.295-1.591,3.945
				C509.418,313.971,507.833,313.436,507.067,312.187z"/>
		</g>
	</g>
</g>
</svg>
