<?xml version="1.0" encoding="utf-8"?>
<!-- Generator: Adobe Illustrator 16.0.0, SVG Export Plug-In . SVG Version: 6.00 Build 0)  -->
<!DOCTYPE svg PUBLIC "-//W3C//DTD SVG 1.1//EN" "http://www.w3.org/Graphics/SVG/1.1/DTD/svg11.dtd">
<svg version="1.1" xmlns="http://www.w3.org/2000/svg" xmlns:xlink="http://www.w3.org/1999/xlink" x="0px" y="0px"
	 width="566.93px" height="566.93px" viewBox="0 0 566.93 566.93" enable-background="new 0 0 566.93 566.93" xml:space="preserve">
<g id="fond" display="none">
	
		<rect x="-7607.873" y="-7591.898" display="inline" fill-rule="evenodd" clip-rule="evenodd" fill="#58595B" width="15942.492" height="15814.695"/>
</g>
<g id="en_cours">
</g>
<g id="fini">
	<g>
		<g>
			<g>
				<g>
					<path fill="#CCAC6C" d="M347.578,161.254l-64.114,64.112l51.61,51.608c11.07,11.07,29.018,11.07,40.09,0l24.021-24.022
						c11.07-11.07,11.07-29.02,0-40.09L347.578,161.254z"/>
					<path fill="#CCAC6C" d="M399.186,69.557l-24.021-24.022c-11.07-11.07-29.02-11.07-40.09,0l-51.608,51.608l-51.611-51.61
						c-11.069-11.069-29.018-11.069-40.089,0.002l-24.022,24.021c-11.07,11.07-11.07,29.02,0,40.089l51.609,51.61l-51.609,51.609
						c-11.07,11.069-11.07,29.018,0,40.088l24.023,24.022c11.07,11.07,29.019,11.07,40.088,0l167.33-167.33
						C410.256,98.575,410.256,80.627,399.186,69.557z"/>
				</g>
				<g>
					<path fill="none" stroke="#000000" stroke-width="8" stroke-miterlimit="10" d="M347.578,161.254"/>
					<path fill="none" stroke="#000000" stroke-width="8" stroke-miterlimit="10" d="M283.466,97.143"/>
					<path fill="none" stroke="#000000" stroke-width="8" stroke-miterlimit="10" d="M219.354,161.255"/>
					<path fill="none" stroke="#000000" stroke-width="8" stroke-miterlimit="10" d="M283.464,225.366"/>
					<path fill="none" stroke="#000000" stroke-width="8" stroke-miterlimit="10" d="M283.464,225.366l51.61,51.608
						c11.07,11.07,29.018,11.07,40.09,0l24.021-24.022c11.07-11.07,11.07-29.02,0-40.09l-51.607-51.608"/>
					<path fill="none" stroke="#000000" stroke-width="8" stroke-miterlimit="10" d="M283.466,97.143l-51.611-51.61
						c-11.069-11.069-29.018-11.069-40.089,0.002l-24.022,24.021c-11.07,11.07-11.07,29.02,0,40.089l51.609,51.61"/>
					<path fill="none" stroke="#000000" stroke-width="8" stroke-miterlimit="10" d="M219.354,161.255"/>
					<path fill="none" stroke="#000000" stroke-width="8" stroke-miterlimit="10" d="M283.466,97.143"/>
					<path fill="none" stroke="#000000" stroke-width="8" stroke-miterlimit="10" d="M347.578,161.254"/>
					<path fill="none" stroke="#000000" stroke-width="8" stroke-miterlimit="10" d="M283.464,225.366"/>
				</g>
				<path fill="none" stroke="#000000" stroke-width="8" stroke-miterlimit="10" d="M399.186,69.557
					c11.07,11.07,11.07,29.019,0,40.088l-167.33,167.33c-11.069,11.07-29.018,11.07-40.088,0l-24.023-24.022
					c-11.07-11.07-11.07-29.019,0-40.088l167.33-167.33c11.07-11.07,29.02-11.07,40.09,0L399.186,69.557z"/>
				<g>
					<circle cx="246.667" cy="167.604" r="5.667"/>
					<circle cx="261.049" cy="153.221" r="5.667"/>
					<circle cx="261.928" cy="182.865" r="5.667"/>
					<circle cx="276.311" cy="168.482" r="5.667"/>
					<circle cx="277.116" cy="198.054" r="5.667"/>
					<circle cx="291.5" cy="183.67" r="5.665"/>
					<circle cx="305.883" cy="169.288" r="5.668"/>
					<circle cx="290.694" cy="154.1" r="5.667"/>
					<circle cx="275.432" cy="138.838" r="5.667"/>
					<circle cx="320.265" cy="154.905" r="5.667"/>
					<circle cx="305.077" cy="139.717" r="5.667"/>
					<circle cx="289.815" cy="124.455" r="5.667"/>
				</g>
			</g>
			<g>
				<path fill="#AB2E23" stroke="#000000" stroke-width="8" stroke-miterlimit="10" d="M283.466,541.699
					c34.697,0,62.824-29.718,62.824-62.767c0-62.038-62.824-201.921-62.824-201.921S220.64,416.895,220.64,478.933
					C220.64,511.981,248.769,541.699,283.466,541.699z"/>
				<circle fill="#FFFFFF" cx="315.598" cy="478.603" r="17.333"/>
			</g>
		</g>
		<polygon fill="#AB2E23" stroke="#000000" stroke-width="8" stroke-linejoin="round" stroke-miterlimit="10" points="
			231.196,468.129 159.009,426.443 159.009,446.125 103.71,446.125 103.71,490.125 159.009,490.125 159.009,509.811 		"/>
	</g>
</g>
</svg>
