<?xml version="1.0" encoding="utf-8"?>
<!-- Generator: Adobe Illustrator 16.0.0, SVG Export Plug-In . SVG Version: 6.00 Build 0)  -->
<!DOCTYPE svg PUBLIC "-//W3C//DTD SVG 1.1//EN" "http://www.w3.org/Graphics/SVG/1.1/DTD/svg11.dtd">
<svg version="1.1" xmlns="http://www.w3.org/2000/svg" xmlns:xlink="http://www.w3.org/1999/xlink" x="0px" y="0px"
	 width="566.93px" height="566.93px" viewBox="0 0 566.93 566.93" enable-background="new 0 0 566.93 566.93" xml:space="preserve">
<g id="fond" display="none">
	
		<rect x="-6056.873" y="-9178" display="inline" fill-rule="evenodd" clip-rule="evenodd" fill="#58595B" width="16654.492" height="16572.797"/>
</g>
<g id="en_cours">
</g>
<g id="fini">
	<g>
		<path d="M310.5,263.554l20.692-3.56v169.32c-4.749,1.335-10.83,2.67-18.245,4.006c-7.419,1.335-15.947,2.002-25.587,2.002
			c-8.9,0-16.91-1.411-24.03-4.228c-7.12-2.815-13.204-6.821-18.245-12.015c-5.044-5.19-8.938-11.532-11.681-19.023
			c-2.746-7.488-4.116-15.909-4.116-25.254c0-8.899,1.147-17.056,3.449-24.475c2.298-7.415,5.674-13.795,10.124-19.135
			c4.45-5.34,9.901-9.491,16.354-12.46c6.452-2.966,13.83-4.45,22.139-4.45c6.675,0,12.571,0.891,17.688,2.67
			c5.117,1.78,8.935,3.487,11.458,5.118V263.554z M310.5,341.428c-2.524-2.075-6.157-4.077-10.902-6.007
			c-4.749-1.926-9.939-2.893-15.575-2.893c-5.935,0-11.014,1.077-15.241,3.227c-4.228,2.151-7.676,5.117-10.346,8.899
			s-4.6,8.271-5.785,13.461c-1.189,5.194-1.78,10.757-1.78,16.688c0,13.499,3.337,23.919,10.012,31.261
			c6.675,7.343,15.575,11.014,26.7,11.014c5.635,0,10.346-0.257,14.128-0.778c3.782-0.519,6.709-1.074,8.789-1.669V341.428z"/>
	</g>
</g>
</svg>
