<?xml version="1.0" encoding="utf-8"?>
<!-- Generator: Adobe Illustrator 16.0.0, SVG Export Plug-In . SVG Version: 6.00 Build 0)  -->
<!DOCTYPE svg PUBLIC "-//W3C//DTD SVG 1.1//EN" "http://www.w3.org/Graphics/SVG/1.1/DTD/svg11.dtd">
<svg version="1.1" xmlns="http://www.w3.org/2000/svg" xmlns:xlink="http://www.w3.org/1999/xlink" x="0px" y="0px"
	 width="566.93px" height="566.93px" viewBox="0 0 566.93 566.93" enable-background="new 0 0 566.93 566.93" xml:space="preserve">
<g id="fond" display="none">
	
		<rect x="-11243.873" y="-10462.046" display="inline" fill-rule="evenodd" clip-rule="evenodd" fill="#58595B" width="16654.492" height="16572.797"/>
</g>
<g id="en_cours">
</g>
<g id="fini">
	<g>
		<g>
			
				<path fill="#4F5666" stroke="#000000" stroke-width="8" stroke-linecap="round" stroke-linejoin="round" stroke-miterlimit="10" d="
				M313.49,458.893c6.527-6.527,62.172-31,81.374-23.934c6.534,2.404,26.546,7.833,26.546,7.833
				c9.138-24.369,3.479-46.126,3.479-46.126c23.063-3.046,66.579,13.046,66.579,13.046c5.222-63.968-46.126-99.216-46.126-99.216
				c27.849,0,52.649,13.93,52.649,13.93c-9.139-38.729-55.695-54.826-70.926-117.068c-11.71-47.851-90.948-93.122-143.602-93.122
				s-131.892,45.271-143.602,93.122c-15.23,62.242-61.787,78.34-70.926,117.068c0,0,24.8-13.93,52.649-13.93
				c0,0-51.349,35.248-46.126,99.216c0,0,43.516-16.092,66.578-13.046c0,0-5.657,21.757,3.48,46.126c0,0,20.012-5.429,26.546-7.833
				c19.202-7.066,74.847,17.406,81.374,23.934"/>
			
				<path fill="#4F5666" stroke="#000000" stroke-width="8" stroke-linecap="round" stroke-linejoin="round" stroke-miterlimit="10" d="
				M235.162,134.706c-10.878-19.147-62.701-26.797-76.588-34.813c-13.885-8.016-36.117-32.889-44.385-20.452s-2.611,68.755,0,96.169
				c2.61,27.415,2.61,39.164,2.61,39.164s-21.539-1.24-25.673,2.895c0,0,21.588,6,27.926,12.337c0,0-21.834,14.795-27.926,20.888
				c0,0,33.507-3.482,39.598,2.61"/>
			<path fill="#CCAC6C" d="M155.094,231.745c21.986-37.954,51.783-58.312,53.959-63.968c7.697-20.004-42.729-30.896-67.014-59.617
				c-18.295-21.637-20.533-10.313-19.146-3.063c3.58,18.729,3.658,45.218,7.398,69.427
				C136.324,213.596,146.411,246.733,155.094,231.745z"/>
			<path fill="none" stroke="#000000" stroke-width="8" stroke-linecap="round" stroke-linejoin="round" stroke-miterlimit="10" d="
				M122.893,105.097c0-7.38,0.852-18.573,19.146,3.063c24.284,28.721,74.711,39.613,67.014,59.617
				c-2.176,5.656-40.469,22.192-53.959,63.968"/>
			
				<path fill="#4F5666" stroke="#000000" stroke-width="8" stroke-linecap="round" stroke-linejoin="round" stroke-miterlimit="10" d="
				M331.768,134.706c10.878-19.147,62.701-26.797,76.588-34.813c13.885-8.016,36.117-32.889,44.385-20.452s2.611,68.755,0,96.169
				c-2.61,27.415-2.61,39.164-2.61,39.164s21.538-1.24,25.673,2.895c0,0-21.588,6-27.926,12.337c0,0,21.834,14.795,27.926,20.888
				c0,0-33.507-3.482-39.599,2.61"/>
			<path fill="#CCAC6C" d="M411.835,231.745c-21.986-37.954-51.782-58.312-53.958-63.968c-7.697-20.004,42.729-30.896,67.013-59.617
				c18.296-21.637,20.533-10.313,19.147-3.063c-3.58,18.729-3.658,45.218-7.398,69.427
				C430.605,213.596,420.519,246.733,411.835,231.745z"/>
			<path fill="none" stroke="#000000" stroke-width="8" stroke-linecap="round" stroke-linejoin="round" stroke-miterlimit="10" d="
				M444.037,105.097c0-7.38-0.852-18.573-19.147,3.063c-24.284,28.721-74.71,39.613-67.013,59.617
				c2.176,5.656,40.469,22.192,53.958,63.968"/>
		</g>
		
			<path fill="#4F5666" stroke="#000000" stroke-width="8" stroke-linecap="round" stroke-linejoin="round" stroke-miterlimit="10" d="
			M408.789,319.423c0,23.702-42.783,65.834-45.691,88.978c-9.574,76.152-15.382,92.261-29.686,106.564
			c-15.207,15.207-49.947,17.02-49.947,10.492c0,6.527-34.74,4.715-49.947-10.492c-14.304-14.304-20.111-30.412-29.686-106.564
			c-2.908-23.144-45.691-65.275-45.691-88.978"/>
		<g>
			<g>
				
					<path fill="#FFFFFF" stroke="#000000" stroke-width="8" stroke-linecap="round" stroke-linejoin="round" stroke-miterlimit="10" d="
					M203.326,302.275c36.88-15.339,40.959,20.562,39.98,31.006l-7.063-4.078c0,0-18.558,6.035-27.859-5.387
					C202.117,316.119,203.326,302.275,203.326,302.275z"/>
				<g>
					<path fill="#CCAC6C" d="M228.362,328.479c-6.912,0-12.535-5.624-12.535-12.536s5.623-12.535,12.535-12.535
						s12.536,5.623,12.536,12.535S235.274,328.479,228.362,328.479z"/>
					<path d="M228.362,307.407c4.707,0,8.536,3.829,8.536,8.535c0,4.707-3.829,8.536-8.536,8.536c-4.706,0-8.535-3.829-8.535-8.536
						C219.827,311.236,223.656,307.407,228.362,307.407 M228.362,299.407c-9.13,0-16.535,7.403-16.535,16.535
						s7.405,16.536,16.535,16.536c9.134,0,16.536-7.404,16.536-16.536S237.496,299.407,228.362,299.407L228.362,299.407z"/>
				</g>
			</g>
			<g>
				
					<path fill="#FFFFFF" stroke="#000000" stroke-width="8" stroke-linecap="round" stroke-linejoin="round" stroke-miterlimit="10" d="
					M363.604,302.275c-36.88-15.339-40.959,20.562-39.98,31.006l7.063-4.078c0,0,18.557,6.035,27.859-5.387
					C364.812,316.119,363.604,302.275,363.604,302.275z"/>
				<g>
					<path fill="#CCAC6C" d="M338.567,328.479c-6.912,0-12.536-5.624-12.536-12.536s5.624-12.535,12.536-12.535
						c6.911,0,12.534,5.623,12.534,12.535S345.479,328.479,338.567,328.479z"/>
					<path d="M338.567,307.407c4.706,0,8.534,3.829,8.534,8.535c0,4.707-3.828,8.536-8.534,8.536c-4.707,0-8.536-3.829-8.536-8.536
						C330.031,311.236,333.86,307.407,338.567,307.407 M338.567,299.407c-9.134,0-16.536,7.403-16.536,16.535
						s7.402,16.536,16.536,16.536c9.13,0,16.534-7.404,16.534-16.536S347.697,299.407,338.567,299.407L338.567,299.407z"/>
				</g>
			</g>
		</g>
		
			<path fill="#141414" stroke="#000000" stroke-width="8" stroke-linecap="round" stroke-linejoin="round" stroke-miterlimit="10" d="
			M283.465,516.062c1.648,8.351,27.063-7.056,20.622-9.652c-5.018-2.023-12.573-0.55-12.573-0.55c0-3.34,3.847-6.328,6.102-4.897
			c2.669,1.694,8.082,5.731,14.676-2.616c4.066-5.146,4.84-12.521,3.489-15.86c-2.02-4.997-18.921-9.276-32.315-9.276
			s-30.296,4.279-32.315,9.276c-1.351,3.339-0.577,10.714,3.489,15.86c6.595,8.348,12.007,4.311,14.676,2.616
			c2.254-1.431,6.102,1.558,6.102,4.897c0,0-7.556-1.474-12.572,0.55C256.402,509.006,281.816,524.412,283.465,516.062z"/>
		<g>
			
				<path fill="#4F5666" stroke="#000000" stroke-width="8" stroke-linecap="round" stroke-linejoin="round" stroke-miterlimit="10" d="
				M253.362,282.715c4.187-6.375,0.888-33.635-0.892-41.035l-12.629,21.105c0,0-3.928-29.748-23.774-36.416
				c0,0-0.313,19.211-3.422,24.658l-13.704-6.048"/>
			
				<path fill="#4F5666" stroke="#000000" stroke-width="8" stroke-linecap="round" stroke-linejoin="round" stroke-miterlimit="10" d="
				M313.566,282.715c-4.186-6.375-0.887-33.635,0.893-41.035l12.629,21.105c0,0,3.927-29.748,23.773-36.416
				c0,0,0.314,19.211,3.422,24.658l13.705-6.048"/>
		</g>
	</g>
</g>
</svg>
