<?xml version="1.0" encoding="utf-8"?>
<!-- Generator: Adobe Illustrator 16.0.0, SVG Export Plug-In . SVG Version: 6.00 Build 0)  -->
<!DOCTYPE svg PUBLIC "-//W3C//DTD SVG 1.1//EN" "http://www.w3.org/Graphics/SVG/1.1/DTD/svg11.dtd">
<svg version="1.1" xmlns="http://www.w3.org/2000/svg" xmlns:xlink="http://www.w3.org/1999/xlink" x="0px" y="0px"
	 width="566.93px" height="566.93px" viewBox="0 0 566.93 566.93" enable-background="new 0 0 566.93 566.93" xml:space="preserve">
<g id="fond" display="none">
	
		<rect x="-12793.873" y="-9494.906" display="inline" fill-rule="evenodd" clip-rule="evenodd" fill="#58595B" width="15942.492" height="15814.695"/>
</g>
<g id="en_cours">
</g>
<g id="fini">
	<g>
		<g>
			<g>
				<path fill="#358C5E" d="M270.724,447.205c-0.653,0-1.306-0.16-1.894-0.477l-1.185-0.637c-1.051-0.565-1.796-1.569-2.028-2.739
					c-0.234-1.17,0.066-2.383,0.818-3.309c0.439-0.54,0.896-1.071,1.363-1.589c2.765-14.473-4.883-29.048-18.484-34.95
					c-1.391-0.604-2.32-1.94-2.401-3.454s0.7-2.943,2.018-3.692c7.003-3.979,12.181-10.398,14.578-18.076
					c3.532-11.299,0.516-23.52-7.874-31.896c-0.956-0.955-1.366-2.33-1.087-3.654c0.278-1.324,1.208-2.417,2.47-2.906
					c9.068-3.512,15.93-10.835,18.824-20.092c3.299-10.544,0.943-21.837-6.299-30.21c-0.991-1.145-1.25-2.75-0.671-4.148
					s1.897-2.35,3.408-2.458c13.083-0.942,24.063-9.636,27.972-22.146c2.084-6.658,1.934-13.639-0.431-20.188
					c-0.526-1.455-0.165-3.083,0.926-4.181c0.764-0.768,1.79-1.179,2.837-1.179c0.447,0,0.901,0.075,1.339,0.23
					c0.436,0.155,0.87,0.31,1.315,0.447c3.093,0.968,6.278,1.456,9.476,1.456c13.921,0,26.069-8.937,30.229-22.238
					c0.175-0.558,0.34-1.162,0.524-1.908c0.304-1.241,1.183-2.263,2.364-2.749c0.489-0.2,1.006-0.3,1.52-0.3
					c0.73,0,1.456,0.199,2.095,0.592c1.564,0.961,3.197,1.785,4.852,2.448c3.775,1.511,7.733,2.277,11.762,2.277
					c13.033,0.001,24.584-7.818,29.427-19.919c0.627-1.563,2.129-2.515,3.715-2.515c0.496,0,0.998,0.093,1.486,0.287
					c2.051,0.821,3.047,3.149,2.228,5.2c-3.734,9.327-10.468,32.369,7.606,44.871c1.458,1.009,3.045,1.916,4.72,2.695
					c1.156,0.538,1.986,1.596,2.234,2.846c0.249,1.251-0.113,2.545-0.976,3.484c-0.447,0.488-0.89,0.985-1.314,1.506
					c-5.337,6.563-7.802,14.814-6.936,23.234c0.865,8.419,4.959,15.996,11.523,21.336c0.359,0.293,0.73,0.572,1.102,0.85
					c1.239,0.929,1.832,2.488,1.521,4.006c-0.311,1.517-1.47,2.718-2.975,3.083c-6.77,1.645-12.672,5.374-17.073,10.785
					c-8.271,10.17-9.457,24.124-3.021,35.55c0.742,1.318,0.678,2.943-0.168,4.198c-0.75,1.112-1.998,1.765-3.316,1.765
					c-0.17,0-0.342-0.011-0.513-0.033c-1.343-0.173-2.712-0.261-4.068-0.261c-9.592,0-18.558,4.26-24.601,11.688
					c-6.119,7.521-8.438,17.284-6.361,26.786c0.289,1.322-0.109,2.7-1.06,3.663c-0.759,0.77-1.788,1.191-2.848,1.191
					c-0.266,0-0.533-0.026-0.8-0.081c-2.081-0.424-4.217-0.64-6.348-0.64c-9.588,0-18.551,4.259-24.591,11.684
					c-5.077,6.241-7.571,14.103-7.023,22.136c0.103,1.513-0.657,2.953-1.964,3.721c-0.625,0.368-1.327,0.552-2.026,0.552
					c-0.761,0-1.519-0.216-2.181-0.646c-5.13-3.336-11.086-5.099-17.223-5.099c-8.252,0-16.256,3.262-22.124,8.982
					c-0.174,0.676-0.365,1.35-0.573,2.013c-0.355,1.14-1.202,2.06-2.307,2.511C271.749,447.106,271.234,447.205,270.724,447.205z"/>
				<path d="M402.201,197.047c-7.324,18.296-7.161,38.437,9.045,49.647c1.708,1.182,3.486,2.184,5.307,3.031
					c-0.5,0.545-0.993,1.102-1.467,1.683c-12.437,15.289-10.125,37.766,5.163,50.201c0.403,0.328,0.816,0.64,1.229,0.948
					c-7.31,1.775-14.119,5.861-19.232,12.148c-9.526,11.711-10.389,27.635-3.402,40.036c-1.521-0.196-3.053-0.294-4.58-0.294
					c-10.369,0-20.65,4.494-27.703,13.164c-7.139,8.773-9.407,19.912-7.166,30.165c-2.362-0.481-4.757-0.721-7.146-0.721
					c-10.366-0.001-20.644,4.491-27.694,13.159c-5.938,7.299-8.505,16.234-7.911,24.933c-5.936-3.858-12.69-5.745-19.403-5.745
					c-9.45,0-18.823,3.733-25.751,10.959c3.765-16.703-4.949-33.743-20.58-40.526c7.581-4.308,13.615-11.382,16.42-20.361
					c4.104-13.126,0.236-26.831-8.865-35.919c9.79-3.791,17.821-11.832,21.197-22.629c3.83-12.24,0.725-24.984-7.093-34.021
					c14.199-1.022,27-10.532,31.504-24.942c2.42-7.732,2.068-15.666-0.486-22.74c0.484,0.173,0.972,0.344,1.469,0.498
					c3.544,1.108,7.133,1.637,10.661,1.637c15.193,0,29.272-9.779,34.047-25.045c0.225-0.714,0.416-1.434,0.591-2.151
					c1.713,1.052,3.531,1.98,5.458,2.753c4.348,1.74,8.837,2.564,13.25,2.564C383.219,219.479,396.617,210.995,402.201,197.047
					 M271.487,440.362c-0.214,0.949-0.47,1.897-0.764,2.843l-1.185-0.637C270.164,441.8,270.813,441.065,271.487,440.362
					 M402.204,189.045c-3.175,0-6.178,1.901-7.43,5.028c-4.231,10.574-14.327,17.406-25.715,17.406
					c-3.517,0-6.974-0.67-10.277-1.992c-1.441-0.577-2.869-1.299-4.242-2.142c-1.277-0.784-2.729-1.184-4.188-1.184
					c-1.028,0-2.062,0.198-3.04,0.601c-2.364,0.971-4.121,3.014-4.729,5.497c-0.161,0.66-0.306,1.186-0.452,1.653
					c-3.64,11.636-14.253,19.445-26.416,19.445c-2.792,0-5.576-0.429-8.273-1.271c-0.409-0.128-0.793-0.265-1.178-0.401
					c-0.875-0.311-1.781-0.462-2.677-0.462c-2.095,0-4.146,0.822-5.675,2.357c-2.182,2.194-2.904,5.45-1.852,8.361
					c2.067,5.719,2.195,11.816,0.376,17.632c-3.418,10.935-13.011,18.529-24.442,19.353c-3.02,0.218-5.657,2.12-6.816,4.916
					c-1.159,2.797-0.642,6.008,1.34,8.297c6.331,7.318,8.39,17.188,5.508,26.398c-2.529,8.089-8.525,14.488-16.451,17.558
					c-2.524,0.978-4.382,3.163-4.94,5.812c-0.557,2.647,0.262,5.397,2.177,7.31c7.331,7.32,9.968,17.999,6.882,27.871
					c-2.095,6.708-6.618,12.316-12.736,15.792c-2.637,1.498-4.198,4.357-4.037,7.385c0.163,3.027,2.023,5.703,4.805,6.91
					c11.555,5.015,18.19,17.194,16.325,29.488c-0.242,0.283-0.481,0.568-0.714,0.857c-1.507,1.851-2.107,4.277-1.64,6.616
					c0.468,2.34,1.955,4.349,4.058,5.479l1.184,0.637c1.179,0.633,2.482,0.953,3.788,0.953c1.024,0,2.051-0.196,3.021-0.593
					c2.209-0.9,3.901-2.742,4.613-5.02c0.11-0.354,0.217-0.709,0.319-1.066c5.045-4.549,11.703-7.123,18.56-7.123
					c5.362,0,10.563,1.54,15.044,4.452c1.323,0.86,2.841,1.293,4.36,1.293c1.399,0,2.8-0.366,4.053-1.103
					c2.614-1.536,4.135-4.418,3.929-7.442c-0.479-7.019,1.7-13.887,6.136-19.339c5.276-6.488,13.108-10.208,21.487-10.208
					c1.863,0,3.729,0.188,5.548,0.56c0.532,0.108,1.068,0.161,1.6,0.161c2.119,0,4.178-0.843,5.696-2.383
					c1.899-1.927,2.695-4.683,2.119-7.325c-1.815-8.306,0.209-16.838,5.556-23.408c5.281-6.491,13.115-10.213,21.498-10.213
					c1.185,0,2.383,0.077,3.556,0.229c0.344,0.044,0.687,0.065,1.026,0.065c2.637,0,5.133-1.306,6.633-3.529
					c1.69-2.51,1.82-5.76,0.336-8.397c-5.625-9.983-4.59-22.176,2.638-31.062c3.846-4.728,9.003-7.986,14.915-9.423
					c3.011-0.73,5.326-3.133,5.948-6.166c0.621-3.034-0.563-6.154-3.042-8.011c-0.329-0.247-0.659-0.495-0.982-0.757
					c-5.729-4.66-9.305-11.281-10.061-18.637c-0.758-7.356,1.397-14.567,6.063-20.305c0.312-0.383,0.681-0.805,1.154-1.322
					c1.724-1.879,2.449-4.467,1.951-6.969c-0.497-2.501-2.157-4.615-4.469-5.691c-1.47-0.685-2.859-1.478-4.132-2.358
					c-15.706-10.864-9.546-31.659-6.17-40.095c1.642-4.103-0.352-8.759-4.453-10.4C404.199,189.229,403.192,189.045,402.204,189.045
					L402.204,189.045z"/>
			</g>
			<g>
				<path fill="#358C5E" d="M254.243,482.417c-0.652,0-1.301-0.159-1.886-0.473l-3.948-2.111c-0.941-0.503-1.644-1.361-1.947-2.384
					c-0.305-1.022-0.189-2.124,0.321-3.061l127.557-233.58c0.726-1.329,2.098-2.084,3.515-2.084c0.637,0,1.283,0.152,1.884,0.475
					c1.936,1.036,2.675,3.439,1.654,5.384L257.785,480.274c-0.495,0.944-1.347,1.652-2.367,1.966
					C255.034,482.358,254.638,482.417,254.243,482.417z"/>
				<path d="M377.85,242.726L254.243,478.417l-3.948-2.111L377.85,242.726 M377.857,234.724c-2.833,0-5.576,1.509-7.028,4.168
					l-127.556,233.58c-1.021,1.873-1.256,4.076-0.645,6.121c0.61,2.045,2.012,3.762,3.894,4.768l3.948,2.111
					c1.171,0.627,2.468,0.945,3.772,0.945c0.79,0,1.582-0.117,2.352-0.354c2.038-0.627,3.741-2.042,4.733-3.931l123.607-235.691
					c2.04-3.89,0.563-8.696-3.309-10.769C380.425,235.029,379.132,234.724,377.857,234.724L377.857,234.724z"/>
			</g>
		</g>
		<g>
			<g>
				<path fill="#358C5E" d="M387.429,493.313c-1.343,0-2.595-0.673-3.337-1.794c-5.896-8.915-15.766-14.238-26.402-14.238
					c-1.089,0-2.194,0.057-3.285,0.169c-8.004,0.822-15.326,4.617-20.619,10.686c-0.77,0.883-1.874,1.371-3.014,1.371
					c-0.336,0-0.672-0.042-1.006-0.128c-1.467-0.382-2.593-1.56-2.907-3.042c-3.058-14.411-15.878-24.903-30.569-25.078
					c-0.601,0.355-1.213,0.696-1.829,1.02c-0.58,0.303-1.217,0.456-1.855,0.456c-0.527,0-1.056-0.104-1.553-0.313
					c-1.101-0.464-1.937-1.395-2.279-2.538l-0.386-1.287c-0.342-1.143-0.157-2.377,0.505-3.369c0.661-0.991,1.731-1.636,2.918-1.758
					c0.692-0.071,1.39-0.125,2.085-0.16c12.189-8.28,17.09-23.994,11.645-37.785c-0.557-1.41-0.27-3.014,0.744-4.142
					c0.77-0.856,1.857-1.327,2.977-1.327c0.354,0,0.711,0.047,1.062,0.144c2.756,0.759,5.597,1.144,8.443,1.144
					c5.137,0,10.065-1.217,14.648-3.617c10.485-5.49,16.994-16.264,16.987-28.117c-0.002-1.354,0.684-2.615,1.815-3.354
					c0.661-0.431,1.419-0.649,2.185-0.649c0.549,0,1.099,0.112,1.615,0.341c4.029,1.778,8.477,2.719,12.864,2.719
					c5.138,0,10.067-1.217,14.654-3.617c9.786-5.124,16.106-14.775,16.906-25.817c0.108-1.51,1.062-2.828,2.458-3.406
					c0.495-0.205,1.015-0.305,1.53-0.305c0.945,0,1.879,0.335,2.619,0.976c5.767,4.992,13.149,7.741,20.788,7.741
					c5.136,0,10.066-1.218,14.652-3.619c6.18-3.238,11.012-8.281,13.969-14.584c0.658-1.402,2.069-2.299,3.619-2.3h0.002
					c1.549,0,2.959,0.895,3.619,2.296c0.194,0.413,0.391,0.824,0.605,1.231c5.494,10.492,16.262,17.004,28.105,17.004
					c5.141,0,10.077-1.219,14.668-3.622c0.592-0.31,1.165-0.644,1.731-0.984c0.632-0.381,1.347-0.574,2.064-0.574
					c0.525,0,1.052,0.104,1.549,0.313c1.177,0.494,2.048,1.521,2.343,2.763c0.422,1.774,0.993,3.51,1.697,5.158
					c4.999,11.672,16.438,19.217,29.141,19.218h0.004c4.285,0,8.476-0.864,12.454-2.568c0.514-0.22,1.048-0.324,1.573-0.324
					c1.553,0,3.029,0.909,3.679,2.426c0.87,2.031-0.071,4.383-2.102,5.252c-9.235,3.956-30.289,15.489-26.35,37.109
					c0.316,1.75,0.798,3.511,1.431,5.235c0.439,1.199,0.28,2.536-0.429,3.598c-0.71,1.063-1.883,1.722-3.159,1.775
					c-0.774,0.033-1.406,0.076-1.988,0.136c-8.419,0.865-15.996,4.958-21.337,11.523s-7.806,14.818-6.939,23.237
					c0.047,0.462,0.109,0.909,0.177,1.361c0.228,1.535-0.453,3.063-1.746,3.922c-0.67,0.443-1.439,0.666-2.211,0.666
					c-0.721,0-1.441-0.194-2.081-0.584c-4.958-3.021-10.632-4.616-16.413-4.616c-1.089,0-2.195,0.057-3.285,0.169
					c-13.041,1.341-23.746,10.37-27.273,23.002c-0.407,1.457-1.602,2.561-3.088,2.85c-0.255,0.05-0.511,0.074-0.766,0.074
					c-1.225,0-2.4-0.564-3.166-1.557c-5.972-7.74-15.341-12.361-25.063-12.361c-1.09,0-2.197,0.057-3.289,0.169
					c-9.649,0.99-18.19,6.254-23.437,14.443c-0.73,1.139-1.986,1.832-3.338,1.842C387.447,493.313,387.438,493.313,387.429,493.313z
					"/>
				<path d="M460.078,337.732c0.22,0.467,0.443,0.933,0.687,1.394c6.374,12.174,18.791,19.138,31.644,19.138
					c5.578,0,11.238-1.312,16.523-4.078c0.663-0.348,1.307-0.721,1.94-1.103c0.464,1.952,1.095,3.896,1.911,5.806
					c5.795,13.534,18.973,21.646,32.818,21.646c4.688,0,9.451-0.929,14.033-2.892c-18.117,7.76-32.243,22.113-28.71,41.503
					c0.37,2.043,0.919,4.01,1.61,5.896c-0.741,0.031-1.482,0.076-2.23,0.153c-19.604,2.015-33.861,19.544-31.846,39.148
					c0.053,0.519,0.123,1.027,0.199,1.54c-5.435-3.312-11.787-5.2-18.494-5.2c-1.221,0-2.454,0.063-3.695,0.19
					c-15.018,1.544-26.887,12.191-30.717,25.904c-6.586-8.538-16.903-13.918-28.229-13.918c-1.224,0-2.457,0.063-3.7,0.19
					c-11.251,1.154-20.733,7.427-26.395,16.264c-6.45-9.754-17.503-16.032-29.739-16.032c-1.221,0-2.453,0.063-3.695,0.19
					c-9.359,0.961-17.492,5.464-23.223,12.035c-3.484-16.425-18.057-28.249-34.855-28.25c-0.254,0-0.508,0.003-0.762,0.008
					c14.473-9.149,20.363-27.36,14.105-43.21c3.082,0.849,6.28,1.287,9.505,1.287c5.571,0,11.226-1.309,16.504-4.073
					c12.183-6.379,19.14-18.806,19.132-31.664c4.539,2.005,9.478,3.06,14.479,3.06c5.574,0,11.229-1.309,16.51-4.073
					c11.361-5.949,18.178-17.156,19.041-29.072c6.514,5.638,14.863,8.716,23.406,8.716c5.572,0,11.227-1.31,16.508-4.074
					C451.52,350.399,456.881,344.541,460.078,337.732 M295.154,457.265c-0.823,0.521-1.672,1.011-2.55,1.47l-0.386-1.287
					C293.203,457.346,294.181,457.285,295.154,457.265 M460.078,329.732c0,0-0.003,0-0.004,0c-3.101,0.002-5.92,1.794-7.238,4.601
					c-2.584,5.505-6.805,9.911-12.205,12.741c-4.006,2.097-8.313,3.16-12.795,3.16c-6.678,0-13.131-2.402-18.17-6.765
					c-1.48-1.281-3.348-1.951-5.238-1.951c-1.031,0-2.07,0.199-3.059,0.608c-2.796,1.158-4.699,3.795-4.918,6.813
					c-0.699,9.65-6.223,18.085-14.773,22.563c-4.007,2.097-8.313,3.16-12.799,3.16c-3.834,0-7.724-0.822-11.247-2.378
					c-1.034-0.456-2.134-0.682-3.231-0.682c-1.529,0-3.049,0.438-4.369,1.299c-2.267,1.478-3.633,4.001-3.631,6.706
					c0.006,10.359-5.682,19.775-14.843,24.572c-4.005,2.097-8.309,3.16-12.793,3.16c-2.487,0-4.972-0.337-7.382-1
					c-0.701-0.193-1.416-0.287-2.123-0.287c-2.238,0-4.413,0.94-5.952,2.654c-2.026,2.256-2.603,5.464-1.489,8.283
					c4.626,11.716,0.705,25.021-9.309,32.396c-0.371,0.029-0.742,0.063-1.111,0.101c-2.371,0.244-4.51,1.534-5.834,3.517
					c-1.323,1.983-1.693,4.454-1.009,6.738l0.386,1.287c0.686,2.287,2.357,4.148,4.558,5.076c0.995,0.419,2.052,0.627,3.105,0.627
					c1.276,0,2.552-0.306,3.71-0.912c0.329-0.173,0.656-0.35,0.982-0.53c12.389,0.627,23.052,9.632,25.648,21.875
					c0.629,2.966,2.881,5.321,5.815,6.083c0.666,0.173,1.341,0.257,2.011,0.257c2.279,0,4.489-0.976,6.029-2.742
					c4.623-5.302,11.02-8.617,18.011-9.335c0.958-0.099,1.925-0.148,2.878-0.148c9.291,0,17.912,4.652,23.066,12.445
					c1.48,2.24,3.988,3.587,6.673,3.587c0.019,0,0.038,0,0.058,0c2.707-0.02,5.219-1.406,6.679-3.685
					c4.585-7.156,12.047-11.756,20.475-12.621c0.961-0.099,1.929-0.148,2.883-0.148c8.491,0,16.677,4.039,21.896,10.805
					c1.532,1.985,3.883,3.113,6.334,3.113c0.508,0,1.021-0.049,1.531-0.147c2.971-0.579,5.361-2.785,6.176-5.701
					c3.081-11.037,12.435-18.927,23.828-20.098c0.957-0.099,1.924-0.148,2.877-0.148c5.047,0,10.002,1.395,14.332,4.032
					c1.279,0.779,2.721,1.168,4.162,1.168c1.543,0,3.083-0.445,4.421-1.332c2.587-1.716,3.948-4.773,3.492-7.844
					c-0.054-0.359-0.112-0.779-0.153-1.174c-0.758-7.365,1.396-14.576,6.063-20.313s11.287-9.313,18.643-10.068
					c0.502-0.052,1.057-0.09,1.749-0.118c2.552-0.108,4.899-1.428,6.317-3.552s1.736-4.798,0.857-7.195
					c-0.555-1.51-0.975-3.047-1.25-4.567c-3.426-18.796,15.635-29.146,23.988-32.724l-3.15-7.354l-3.15-7.354
					c-3.478,1.489-7.139,2.245-10.883,2.245c-11.1,0-21.096-6.593-25.465-16.795c-0.613-1.435-1.112-2.952-1.481-4.506
					c-0.591-2.484-2.331-4.537-4.685-5.526c-0.995-0.418-2.049-0.624-3.098-0.624c-1.438,0-2.865,0.386-4.129,1.147
					c-0.605,0.364-1.09,0.641-1.527,0.87c-4.008,2.098-8.319,3.163-12.809,3.163c-10.352,0-19.76-5.689-24.557-14.849
					c-0.186-0.353-0.366-0.73-0.535-1.09C465.996,331.521,463.176,329.732,460.078,329.732L460.078,329.732z"/>
			</g>
			<g>
				<path fill="#358C5E" d="M256.053,475.979c-0.646,0-1.29-0.157-1.872-0.465c-0.942-0.5-1.646-1.354-1.956-2.375l-1.299-4.286
					c-0.311-1.021-0.198-2.123,0.309-3.063c0.508-0.938,1.369-1.635,2.393-1.936l255.361-74.969c0.376-0.11,0.756-0.163,1.129-0.163
					c1.719,0,3.304,1.115,3.826,2.842c0.637,2.102-0.541,4.323-2.637,4.978l-254.063,79.255
					C256.854,475.919,256.453,475.979,256.053,475.979z"/>
				<path d="M510.115,392.725l-254.063,79.255l-1.299-4.286L510.115,392.725 M510.119,384.723c-0.747,0-1.506,0.105-2.258,0.326
					L252.5,460.018c-2.047,0.601-3.77,1.995-4.784,3.872s-1.237,4.082-0.618,6.124l1.299,4.286c0.619,2.041,2.027,3.751,3.912,4.749
					c1.164,0.617,2.451,0.931,3.744,0.931c0.801,0,1.604-0.12,2.383-0.363l254.063-79.255c4.192-1.308,6.547-5.751,5.273-9.955
					C516.727,386.953,513.555,384.723,510.119,384.723L510.119,384.723z"/>
			</g>
		</g>
		<g>
			<g>
				<path fill="#358C5E" d="M211.982,466.515c-0.207,0-0.417-0.016-0.626-0.049c-1.497-0.237-2.731-1.301-3.188-2.746
					c-2.426-7.68-7.62-14.087-14.627-18.042c-4.745-2.68-10.115-4.096-15.528-4.096c-6.157,0-12.141,1.771-17.304,5.12
					c-0.66,0.427-1.416,0.644-2.178,0.644c-0.552,0-1.105-0.114-1.625-0.345c-1.236-0.55-2.111-1.688-2.325-3.023
					c-1.536-9.6-7.263-17.842-15.708-22.611c-4.746-2.681-10.119-4.098-15.534-4.098c-5.34,0-10.64,1.36-15.325,3.935
					c-0.601,0.33-1.264,0.494-1.925,0.494c-0.796,0-1.59-0.237-2.271-0.707c-1.246-0.859-1.9-2.348-1.691-3.847
					c1.815-12.988-4.389-25.544-15.804-31.987c-4.744-2.679-10.116-4.094-15.538-4.094c-1.429,0-2.875,0.098-4.296,0.292
					c-0.181,0.024-0.361,0.036-0.542,0.036c-1.346,0-2.615-0.68-3.358-1.83c-0.842-1.305-0.854-2.978-0.029-4.293
					c0.235-0.376,0.466-0.756,0.683-1.147c4.178-7.397,5.22-15.946,2.95-24.099c-2.27-8.153-7.579-14.935-14.95-19.097
					c-0.51-0.288-1.086-0.587-1.758-0.913c-1.148-0.558-1.963-1.631-2.19-2.887c-0.228-1.257,0.16-2.547,1.042-3.472
					c1.271-1.334,2.416-2.758,3.409-4.232c9.741-14.499,5.869-34.225-8.632-43.97c-1.833-1.232-2.32-3.718-1.089-5.552
					c0.772-1.148,2.037-1.769,3.324-1.769c0.767,0,1.543,0.22,2.228,0.68c9.146,6.147,18.367,9.396,26.665,9.396
					c7.224,0,13.552-2.505,18.806-7.445c1.296-1.219,2.514-2.581,3.619-4.049c0.757-1.005,1.94-1.594,3.195-1.594
					c0.02,0,0.037,0,0.057,0c1.276,0.019,2.467,0.645,3.206,1.686c0.384,0.541,0.774,1.076,1.198,1.604
					c6.042,7.516,15.051,11.828,24.712,11.828c7.282,0,14.138-2.417,19.826-6.99c0.363-0.291,0.705-0.586,1.048-0.888
					c0.744-0.657,1.689-1.001,2.647-1.001c0.538,0,1.081,0.108,1.594,0.332c1.424,0.619,2.361,2.006,2.403,3.558
					c0.192,6.964,2.604,13.519,6.974,18.955c6.04,7.516,15.042,11.827,24.701,11.827c3.208,0,6.38-0.482,9.43-1.433
					c0.392-0.122,0.792-0.182,1.19-0.182c1.07,0,2.114,0.43,2.881,1.225c1.05,1.09,1.395,2.68,0.891,4.106
					c-3.684,10.438-1.752,21.812,5.172,30.424c6.038,7.515,15.045,11.823,24.711,11.823h0.172c1.346,0,2.602,0.677,3.342,1.802
					c0.744,1.131,0.865,2.561,0.323,3.801c-4.75,10.866-3.093,23.346,4.325,32.567c5.04,6.272,12.205,10.356,20.175,11.502
					c1.5,0.215,2.75,1.261,3.228,2.699c0.477,1.438,0.102,3.023-0.974,4.093c-10.502,10.466-12.297,26.827-4.44,39.287
					c0.626,0.311,1.246,0.64,1.853,0.982c1.039,0.586,1.761,1.605,1.972,2.779c0.209,1.175-0.115,2.381-0.887,3.291l-0.871,1.027
					c-0.76,0.896-1.877,1.413-3.051,1.413c-0.018,0-0.035,0-0.053,0c-1.193-0.016-2.317-0.563-3.066-1.494
					c-0.436-0.543-0.86-1.102-1.27-1.669c-3.895-1.645-8.008-2.479-12.245-2.479c-10.231,0-19.874,4.951-25.797,13.243
					C214.479,465.9,213.262,466.515,211.982,466.515z"/>
				<path d="M99.861,269.119c0.429,0.604,0.867,1.201,1.34,1.791c7.049,8.769,17.395,13.328,27.833,13.328
					c7.845,0,15.743-2.575,22.333-7.874c0.406-0.325,0.797-0.661,1.188-1.006c0.207,7.521,2.776,15.034,7.854,21.351
					c7.045,8.767,17.385,13.32,27.819,13.32c3.571,0,7.153-0.533,10.62-1.613c-3.977,11.266-2.207,24.268,5.826,34.261
					c7.045,8.769,17.389,13.317,27.83,13.317c0.057,0,0.113,0,0.17,0c-5.152,11.787-3.746,25.961,4.873,36.677
					c5.893,7.332,14.093,11.714,22.723,12.954c-12.07,12.028-13.959,31.068-4.354,45.243c-4.793-2.212-9.867-3.271-14.882-3.271
					c-11.249,0-22.202,5.327-29.052,14.918c-2.627-8.315-8.283-15.695-16.475-20.32c-5.539-3.128-11.559-4.612-17.495-4.612
					c-6.897,0-13.685,2.004-19.481,5.764c-1.658-10.362-7.847-19.903-17.691-25.463c-5.541-3.129-11.563-4.613-17.501-4.614
					c-6.03,0-11.976,1.531-17.25,4.429c1.97-14.098-4.653-28.604-17.8-36.024c-5.541-3.129-11.563-4.61-17.502-4.61
					c-1.623,0-3.239,0.11-4.838,0.328c0.273-0.437,0.541-0.878,0.793-1.333c9.689-17.159,3.632-38.925-13.533-48.616
					c-0.651-0.367-1.313-0.705-1.979-1.028c1.385-1.454,2.676-3.038,3.834-4.761c10.99-16.357,6.639-38.527-9.72-49.521
					c9.091,6.109,19.224,10.076,28.896,10.076c7.732,0,15.168-2.533,21.547-8.531C97.299,272.254,98.65,270.726,99.861,269.119
					 M255.916,450.868c0.885,0.408,1.76,0.855,2.623,1.343l-0.871,1.027C257.047,452.466,256.463,451.675,255.916,450.868
					 M99.861,261.119c-2.51,0-4.877,1.179-6.391,3.188c-0.969,1.286-2.033,2.478-3.164,3.542c-4.551,4.278-9.805,6.358-16.066,6.358
					c-7.393,0-16.07-3.096-24.434-8.716l-4.462,6.64l-4.462,6.64c12.67,8.516,16.053,25.751,7.541,38.421
					c-0.864,1.285-1.869,2.532-2.984,3.702c-1.762,1.85-2.535,4.429-2.082,6.942c0.455,2.514,2.082,4.659,4.38,5.774
					c0.599,0.29,1.103,0.552,1.543,0.8c6.437,3.635,11.075,9.561,13.059,16.684c1.983,7.124,1.073,14.592-2.563,21.03
					c-0.01,0.02-0.021,0.039-0.032,0.059c-0.147,0.266-0.329,0.571-0.573,0.961c-1.648,2.631-1.625,5.978,0.059,8.586
					c1.485,2.302,4.027,3.661,6.719,3.661c0.359,0,0.721-0.023,1.081-0.073c1.243-0.169,2.507-0.255,3.759-0.255
					c4.732,0,9.425,1.236,13.568,3.576c9.976,5.631,15.396,16.602,13.811,27.951c-0.419,2.998,0.89,5.976,3.382,7.693
					c1.361,0.939,2.949,1.414,4.542,1.414c1.322,0,2.647-0.327,3.851-0.988c4.097-2.25,8.73-3.44,13.398-3.44
					c4.728,0.001,9.419,1.238,13.567,3.581c7.379,4.167,12.383,11.369,13.726,19.76c0.428,2.672,2.177,4.947,4.649,6.047
					c1.039,0.461,2.146,0.689,3.25,0.689c1.521,0,3.037-0.435,4.354-1.288c4.514-2.928,9.746-4.476,15.128-4.476
					c4.726,0,9.415,1.237,13.562,3.578c6.121,3.456,10.66,9.055,12.779,15.765c0.914,2.891,3.383,5.017,6.377,5.491
					c0.418,0.066,0.838,0.099,1.254,0.099c2.557,0,4.992-1.228,6.508-3.351c5.174-7.243,13.601-11.567,22.541-11.567
					c3.346,0,6.602,0.595,9.708,1.771c0.228,0.298,0.458,0.593,0.691,0.883c1.495,1.861,3.743,2.956,6.13,2.987
					c0.035,0.001,0.07,0.001,0.105,0.001c2.349,0,4.58-1.032,6.102-2.826l0.871-1.027c1.543-1.819,2.193-4.232,1.773-6.581
					s-1.865-4.388-3.943-5.56c-0.324-0.184-0.652-0.362-0.981-0.538c-6.224-10.761-4.495-24.523,4.427-33.414
					c2.148-2.14,2.901-5.31,1.946-8.187c-0.955-2.878-3.454-4.968-6.454-5.399c-6.963-1.001-13.223-4.568-17.625-10.047
					c-6.483-8.06-7.93-18.964-3.779-28.461c1.084-2.479,0.841-5.339-0.646-7.601c-1.479-2.25-3.992-3.604-6.684-3.604
					c-0.013,0-0.025,0-0.039,0h-0.131c-8.449,0-16.32-3.764-21.594-10.328c-6.05-7.526-7.738-17.465-4.519-26.587
					c1.007-2.854,0.317-6.034-1.783-8.214c-1.531-1.59-3.622-2.449-5.762-2.449c-0.795,0-1.597,0.118-2.38,0.362
					c-2.664,0.831-5.436,1.251-8.239,1.251c-8.439,0-16.307-3.766-21.583-10.332c-3.818-4.75-5.926-10.477-6.093-16.559
					c-0.085-3.104-1.96-5.879-4.808-7.117c-1.025-0.445-2.111-0.663-3.188-0.663c-1.916,0-3.805,0.687-5.296,2.002
					c-0.366,0.323-0.642,0.558-0.894,0.759c-4.982,4.006-10.973,6.119-17.333,6.119c-8.443,0-16.315-3.77-21.599-10.341
					c-0.305-0.381-0.641-0.831-1.049-1.406c-1.477-2.082-3.858-3.335-6.41-3.371C99.938,261.119,99.898,261.119,99.861,261.119
					L99.861,261.119z"/>
			</g>
			<g>
				<path fill="#358C5E" d="M286.627,483.115c-0.954,0-1.881-0.342-2.609-0.969L82.308,308.535
					c-1.664-1.432-1.862-3.938-0.444-5.615c0.791-0.935,1.919-1.416,3.055-1.416c0.903,0,1.81,0.304,2.557,0.925l204.603,170.193
					c0.82,0.683,1.334,1.664,1.427,2.727c0.094,1.063-0.242,2.118-0.931,2.933l-2.893,3.418c-0.689,0.814-1.675,1.319-2.738,1.403
					C286.836,483.111,286.73,483.115,286.627,483.115z"/>
				<path d="M84.918,305.504L289.52,475.697l-2.893,3.418L84.918,305.504 M84.921,297.504c-2.272,0-4.529,0.963-6.11,2.832
					c-2.838,3.354-2.441,8.366,0.888,11.231l201.71,173.611c1.457,1.254,3.311,1.937,5.219,1.937c0.209,0,0.42-0.008,0.631-0.025
					c2.127-0.168,4.098-1.178,5.477-2.807l2.893-3.418c1.377-1.629,2.049-3.74,1.862-5.865c-0.187-2.126-1.214-4.089-2.854-5.453
					L90.033,299.354C88.539,298.111,86.725,297.504,84.921,297.504L84.921,297.504z"/>
			</g>
		</g>
		
			<ellipse fill="#AB2E23" stroke="#000000" stroke-width="8" stroke-linejoin="round" stroke-miterlimit="10" cx="283.465" cy="432.352" rx="29.516" ry="31.255"/>
		
			<ellipse fill="#AB2E23" stroke="#000000" stroke-width="8" stroke-linejoin="round" stroke-miterlimit="10" cx="228.325" cy="443.205" rx="29.515" ry="31.255"/>
		
			<ellipse fill="#AB2E23" stroke="#000000" stroke-width="8" stroke-linejoin="round" stroke-miterlimit="10" cx="272.72" cy="471.979" rx="29.515" ry="31.254"/>
	</g>
</g>
</svg>
