<?xml version="1.0" encoding="utf-8"?>
<!-- Generator: Adobe Illustrator 16.0.0, SVG Export Plug-In . SVG Version: 6.00 Build 0)  -->
<!DOCTYPE svg PUBLIC "-//W3C//DTD SVG 1.1//EN" "http://www.w3.org/Graphics/SVG/1.1/DTD/svg11.dtd">
<svg version="1.1" xmlns="http://www.w3.org/2000/svg" xmlns:xlink="http://www.w3.org/1999/xlink" x="0px" y="0px"
	 width="566.93px" height="566.93px" viewBox="0 0 566.93 566.93" enable-background="new 0 0 566.93 566.93" xml:space="preserve">
<g id="fond" display="none">
	
		<rect x="-11509.055" y="-8228.754" display="inline" fill-rule="evenodd" clip-rule="evenodd" fill="#58595B" width="15942.492" height="15814.695"/>
</g>
<g id="en_cours">
</g>
<g id="fini">
	<g>
		<g>
			
				<path fill="#E5E2D3" stroke="#000000" stroke-width="8" stroke-linecap="round" stroke-linejoin="round" stroke-miterlimit="10" d="
				M288.211,377.981c-21.525,0.56-43.592-7.051-62.678-16.372c-8.476-4.139-40.351-32.157-18.336-41.157
				c16.063-9.544,36.561,3.197,49.468,12.02C260.021,334.78,309.801,377.32,288.211,377.981z"/>
			<g>
				<path fill="#E5E2D3" d="M211.229,521.943c-1.292,0-2.55-0.626-3.316-1.761c-1.126-1.666-0.84-3.908,0.668-5.238
					c3.187-2.813,10.434-10.228,8.9-18.338c-0.53-2.6-1.476-5.268-2.478-8.091c-2.16-6.087-4.58-12.909-2.423-19.985
					c-2.71-4.088-4.182-8.928-4.182-13.858c0-13.821,11.244-25.066,25.065-25.066s25.066,11.245,25.066,25.066
					c0,11.266-7.553,21.099-18.23,24.117c-0.223,0.464-0.417,0.889-0.54,1.234c-2.421,6.754-2.555,12.785-0.4,17.927l0.29,0.679
					c1.261,2.921,2.172,5.031,0.779,7.151c-0.763,1.16-2.049,1.853-3.439,1.853h-0.001c-2.221,0.001-3.645-1.685-4.79-3.038
					c-0.453-0.536-0.886-1.079-1.298-1.629c-3.067,7.728-9.401,14.292-17.878,18.552
					C212.45,521.806,211.836,521.943,211.229,521.943z"/>
				<path d="M233.465,433.605c11.635,0,21.066,9.432,21.066,21.066c0,10.243-7.314,18.775-17.003,20.67
					c-0.557,1.182-1.172,2.321-1.534,3.334c-2.441,6.811-3.177,14.01-0.323,20.82c0.583,1.391,1.866,4.137,1.318,4.137
					c-0.222,0-0.745-0.449-1.735-1.621c-2.568-3.036-4.694-6.666-5.534-10.597c-1.269-5.364-1.193-10.737-0.434-16.093
					c-0.442-0.089-0.878-0.194-1.31-0.312c-1.82,2.436-0.257,9.201-0.028,11.368c0.519,4.908,1.051,10.25-0.714,14.984
					c-2.864,7.373-9.007,13.063-16.007,16.58c6.131-5.409,11.801-13.529,10.185-22.08c-1.947-9.563-8.464-18.704-4.334-27.957
					c-2.925-3.617-4.679-8.22-4.679-13.234C212.399,443.037,221.83,433.605,233.465,433.605 M233.465,425.605
					c-16.027,0-29.065,13.039-29.065,29.066c0,5.099,1.357,10.114,3.88,14.502c-1.672,7.639,0.855,14.764,2.955,20.679
					c0.945,2.666,1.839,5.185,2.326,7.547c1.139,6.247-5.545,12.71-7.627,14.545c-3.014,2.661-3.586,7.146-1.334,10.479
					c1.532,2.268,4.049,3.521,6.633,3.521c1.213,0,2.439-0.276,3.588-0.853c7.322-3.68,13.211-8.958,17.061-15.197
					c1.304,0.971,2.969,1.738,5.108,1.738c2.741,0,5.276-1.366,6.782-3.655c2.578-3.921,0.9-7.81-0.448-10.934
					c-0.101-0.232-0.194-0.449-0.274-0.638c-1.714-4.094-1.633-8.803,0.25-14.38c11.365-4.084,19.232-14.973,19.232-27.354
					C262.531,438.645,249.492,425.605,233.465,425.605L233.465,425.605z"/>
			</g>
			
				<path fill="#CCAC6C" stroke="#000000" stroke-width="8" stroke-linecap="round" stroke-linejoin="round" stroke-miterlimit="10" d="
				M181.719,325.054c-5.661-12.857-10.848-27.716-21.286-37.665c-24.225-21.747-50.374-4.777-73.68,8.039
				c-2.904,1.597-11.877,4.631-13.591,7.528c-5.835,3.277,1.396,6.791,5.177,5.503c12.74-4.34,25.398-8.919,38.025-13.575
				c14.438-5.328,29.857-0.786,36.022,13.983c-0.424-0.885-0.109-0.225-0.2-0.412c3.242,7.958,6.498,15.919,10.033,23.753
				C167.978,345.048,187.565,338.088,181.719,325.054z"/>
			
				<path fill="#CCAC6C" stroke="#000000" stroke-width="8" stroke-linecap="round" stroke-linejoin="round" stroke-miterlimit="10" d="
				M225.5,327.395c1.28-12.367,3.804-26.066,0.138-38.292c-9.103-27.339-36.646-25.748-60.184-26.106
				c-2.935-0.043-11.162-1.643-13.751-0.166c-5.923-0.036-1.903,5.835,1.57,6.502c11.696,2.245,23.438,4.271,35.189,6.222
				c13.438,2.23,23.306,12.479,21.572,26.54c0.063-0.867,0.017-0.221,0.028-0.406c-0.995,7.542-1.98,15.091-2.694,22.664
				C206.171,336.751,224.283,339.979,225.5,327.395z"/>
			
				<path fill="#AB2E23" stroke="#000000" stroke-width="8" stroke-linecap="round" stroke-linejoin="round" stroke-miterlimit="10" d="
				M264.332,442.677c0-11.635-5.407-17.777-17.042-17.777s-28.015,2.923-28.015,14.558s11.187,24.578,22.821,24.578
				S264.332,454.311,264.332,442.677z"/>
			
				<path fill="#E5E2D3" stroke="#000000" stroke-width="8" stroke-linecap="round" stroke-linejoin="round" stroke-miterlimit="10" d="
				M31.581,492.123c27.211-16.678,45.643-55.006,84.264-112.938c9.123-13.686,14.651-13.102,24.817-26.031
				c11.299-14.369,22.204-35.994,40.312-42.01c13.253-4.404,28.258-0.891,38.205,8.905c8.259,8.134,11.841,20.339,17.136,30.484
				c9.26,17.748,18.298,37.59,30.999,53.1c9.085,11.172,22.461,16.219,21.535,33.104c-0.834,15.248-14.256,27.342-29.527,26.506
				c-15.383-0.842-19.653-13.053-30.083-21.534c-4.988-4.085-10.646-7.248-16.176-10.522c-2.138-1.266-10.721-8.141-13.525-7.832
				c-2.551-1.426-51.042,100.261-53.263,102.122"/>
			
				<line fill="#E5E2D3" stroke="#000000" stroke-width="8" stroke-linecap="round" stroke-linejoin="round" stroke-miterlimit="10" x1="208.815" y1="451.234" x2="182.263" y2="437.702"/>
			<polygon fill="#E5E2D3" points="213.423,449.626 169.755,427.316 182.702,415.905 214.081,435.654 215.983,443.336 			"/>
			
				<path fill="#E5E2D3" stroke="#000000" stroke-width="8" stroke-linecap="round" stroke-linejoin="round" stroke-miterlimit="10" d="
				M171.891,322.256c-16.063-9.544-36.561,3.197-49.468,12.02c-3.357,2.309-53.137,44.849-31.546,45.51
				c21.525,0.56,43.591-7.051,62.677-16.372c3.451-1.685,10.781-7.329,16.774-14.036"/>
			
				<path fill="#E5E2D3" stroke="#000000" stroke-width="8" stroke-linecap="round" stroke-linejoin="round" stroke-miterlimit="10" d="
				M166.66,349.043"/>
			<path fill="none" stroke="#000000" stroke-width="8" stroke-linecap="round" stroke-linejoin="round" stroke-miterlimit="10" d="
				M259.066,443.773c0-3.636-2.947-6.583-6.583-6.583c-3.637,0-6.584,2.947-6.584,6.583"/>
			<circle cx="193.966" cy="368.872" r="6.583"/>
			<circle cx="233.758" cy="362.142" r="6.583"/>
			<path fill="none" stroke="#000000" stroke-width="8" stroke-linecap="round" stroke-linejoin="round" stroke-miterlimit="10" d="
				M288.251,440.482c0-3.637-2.946-6.583-6.583-6.583c-3.636,0-6.584,2.946-6.584,6.583"/>
		</g>
		<path fill="#FFFFFF" stroke="#000000" stroke-width="8" stroke-linejoin="round" stroke-miterlimit="10" d="M447.479,360.733
			c-0.437-1.149-0.709-2.261-1.164-3.354c-0.533-1.093-0.934-2.158-1.465-3.197c-0.607-1.036-1.18-2.046-1.713-3.034
			c-0.674-0.97-1.336-1.922-1.986-2.856c-0.16-0.232-0.306-0.466-0.473-0.693l-0.566-0.669c-0.373-0.44-0.742-0.876-1.107-1.308
			c-0.355-0.43-0.709-0.854-1.059-1.275c-0.338-0.421-0.793-0.81-1.172-1.209c-0.776-0.788-1.534-1.558-2.273-2.309
			c-1.602-1.453-3.189-2.796-4.641-4.056c-1.59-1.197-3.076-2.317-4.453-3.353c-0.275-0.177-0.527-0.337-0.795-0.507
			c-13.953,4.132-28.723,6.361-44.016,6.361c-85.468,0-154.754-69.286-154.754-154.754S295.128,29.768,380.596,29.768
			s154.753,69.285,154.753,154.753c0,53.976-27.641,101.489-69.531,129.182c0.446,0.667,0.894,1.345,1.341,2.038
			c0.885,1.515,1.789,3.068,2.717,4.658c0.446,0.808,0.937,1.566,1.354,2.437c0.415,0.866,0.836,1.74,1.261,2.625
			c0.416,0.883,0.837,1.774,1.261,2.675c0.211,0.448,0.424,0.898,0.637,1.351c0.188,0.479,0.375,0.959,0.564,1.442
			c0.739,1.94,1.482,3.904,2.197,5.912c0.6,2.105,1.184,4.24,1.748,6.398c0.5,2.201,0.836,4.52,1.221,6.806
			c0.316,2.319,0.4,4.754,0.559,7.146c0.018,2.436-0.086,4.917-0.229,7.386c-0.167,1.241-0.335,2.488-0.506,3.743
			c-0.185,1.247-0.331,2.494-0.675,3.735c-0.613,2.483-1.177,4.972-2.148,7.379c-1.643,4.888-4.25,9.46-7.141,13.736
			c-1.615,2.032-3.084,4.168-4.938,5.982c-0.902,0.924-1.76,1.888-2.711,2.756c-0.973,0.838-1.947,1.677-2.924,2.518
			c-0.951,0.862-2.031,1.567-3.073,2.312c-1.063,0.712-2.062,1.512-3.187,2.124l-3.328,1.876c-1.09,0.647-2.3,1.084-3.442,1.621
			c-2.28,1.102-4.722,1.813-7.098,2.596c-1.199,0.36-2.441,0.591-3.655,0.879c-1.217,0.281-2.43,0.546-3.673,0.672l-3.685,0.46
			c-1.233,0.08-2.471,0.093-3.695,0.131l-1.834,0.039c-0.611-0.012-1.223-0.074-1.83-0.109l-3.629-0.276
			c-4.781-0.706-9.449-1.744-13.729-3.561c-1.07-0.447-2.162-0.821-3.185-1.335c-1.013-0.526-2.021-1.053-3.027-1.577l-1.493-0.789
			c-0.492-0.268-0.945-0.6-1.416-0.896c-0.928-0.611-1.852-1.221-2.773-1.827c-3.146-2.173-6.449-4.434-9.645-6.44
			c-1.569-0.896-3.166-1.719-4.729-2.577c-1.574-0.839-3.123-1.685-4.766-2.355c-1.62-0.708-3.225-1.409-4.807-2.102
			c-0.787-0.371-1.59-0.66-2.393-0.933c-0.799-0.287-1.592-0.572-2.381-0.854c-3.129-1.259-6.254-2.095-9.268-3.051
			c-1.511-0.469-3.02-0.74-4.496-1.114c-0.742-0.176-1.477-0.351-2.203-0.522c-0.73-0.154-1.459-0.228-2.178-0.346
			c-5.764-1.078-11.15-1.065-15.911-0.706c-1.181,0.144-2.358,0.188-3.452,0.4c-1.102,0.214-2.164,0.42-3.186,0.618
			c-1.023,0.209-1.959,0.547-2.889,0.795c-0.463,0.134-0.914,0.265-1.354,0.393c-0.427,0.161-0.845,0.318-1.25,0.472
			c-3.319,1.13-5.688,2.597-7.315,3.576c-0.807,0.507-1.369,0.971-1.78,1.252c-0.403,0.292-0.61,0.443-0.61,0.443
			s0.17-0.19,0.501-0.56c0.339-0.359,0.804-0.946,1.497-1.623c0.358-0.326,0.761-0.689,1.202-1.091
			c0.438-0.409,0.929-0.846,1.507-1.252c0.568-0.426,1.179-0.884,1.832-1.372c0.668-0.464,1.42-0.893,2.198-1.384
			c3.151-1.869,7.28-3.788,12.313-5.043c5.004-1.294,10.913-2.153,17.32-1.903c0.803,0.02,1.621-0.005,2.438,0.052
			c0.813,0.073,1.633,0.149,2.461,0.226c0.832,0.078,1.672,0.156,2.52,0.235c0.846,0.088,1.715,0.13,2.551,0.319
			c1.697,0.317,3.424,0.639,5.176,0.965c0.881,0.156,1.756,0.357,2.613,0.622c0.867,0.245,1.74,0.492,2.619,0.741
			c0.877,0.259,1.76,0.52,2.648,0.782c0.892,0.256,1.783,0.53,2.646,0.88c1.747,0.66,3.515,1.327,5.302,2.003
			c1.807,0.618,3.566,1.472,5.372,2.268c1.813,0.782,3.625,1.614,5.495,2.387c3.494,1.684,6.906,3.331,10.656,4.938
			c0.809,0.326,1.622,0.653,2.436,0.98c0.408,0.154,0.8,0.348,1.219,0.474l1.254,0.358c0.828,0.24,1.66,0.481,2.492,0.724
			c0.828,0.23,1.695,0.319,2.531,0.49c3.354,0.709,6.775,0.695,10.078,0.543l2.465-0.33c0.408-0.058,0.816-0.088,1.219-0.165
			l1.201-0.291c0.798-0.199,1.593-0.358,2.374-0.567l2.296-0.801c0.377-0.142,0.766-0.23,1.129-0.407l1.091-0.52
			c0.719-0.357,1.456-0.638,2.146-1.031c1.354-0.847,2.744-1.545,3.953-2.544c0.608-0.486,1.281-0.854,1.827-1.406l1.695-1.529
			c0.581-0.475,1.026-1.109,1.545-1.638c0.493-0.558,1.032-1.057,1.437-1.685l1.301-1.747c0.416-0.587,0.736-1.241,1.113-1.837
			c0.371-0.602,0.742-1.191,1-1.851l0.868-1.872c0.895-2.592,1.688-5.09,1.839-7.651c0.344-2.502,0.095-5.003-0.16-7.36
			C447.981,363.037,447.769,361.874,447.479,360.733z"/>
		<g>
			<circle cx="423.151" cy="184.533" r="14.496"/>
			<circle cx="380.552" cy="184.533" r="14.496"/>
			<circle cx="337.954" cy="184.533" r="14.496"/>
		</g>
	</g>
</g>
</svg>
