<?xml version="1.0" encoding="utf-8"?>
<!-- Generator: Adobe Illustrator 16.0.0, SVG Export Plug-In . SVG Version: 6.00 Build 0)  -->
<!DOCTYPE svg PUBLIC "-//W3C//DTD SVG 1.1//EN" "http://www.w3.org/Graphics/SVG/1.1/DTD/svg11.dtd">
<svg version="1.1" xmlns="http://www.w3.org/2000/svg" xmlns:xlink="http://www.w3.org/1999/xlink" x="0px" y="0px"
	 width="566.93px" height="566.93px" viewBox="0 0 566.93 566.93" enable-background="new 0 0 566.93 566.93" xml:space="preserve">
<g id="fond" display="none">
	
		<rect x="-6701.873" y="-9811.008" display="inline" fill-rule="evenodd" clip-rule="evenodd" fill="#58595B" width="16654.492" height="16572.797"/>
</g>
<g id="en_cours">
</g>
<g id="fini">
	<g>
		
			<path fill="#4F5666" stroke="#000000" stroke-width="8" stroke-linecap="round" stroke-linejoin="round" stroke-miterlimit="10" d="
			M453.932,316.201c-32.452-128.75-153.607-110.961-159.511-114.367c-5.903-3.408-41.252-30.803-47.57-46.831l-79.446,78.087
			c0,63.32,72.055,106.039,72.055,137.309c0,46.752,4.284,65.072,2.158,66.301s-52.012,18.554-14.576,33.277
			c11.512,4.526,25.094,3.651,29.541,3.199c4.432,28.02,27.608,66.052,112.093,70.23
			C474.875,548.659,486.384,444.949,453.932,316.201z"/>
		<path fill="none" stroke="#000000" stroke-width="8" stroke-linecap="round" stroke-linejoin="round" stroke-miterlimit="10" d="
			M167.405,233.09c0,63.32,72.055,106.039,72.055,137.309c0,46.752,4.284,65.072,2.158,66.301s-52.012,18.554-14.576,33.277
			c13.985,5.5,31.038,3.025,31.038,3.025"/>
		
			<path fill="#4F5666" stroke="#000000" stroke-width="8" stroke-linecap="round" stroke-linejoin="round" stroke-miterlimit="10" d="
			M255.754,454.184c-25.586,1.027-43.153,16.213-31.34,35.195c3.404,5.469,23.811,3.95,40.895,3.662"/>
		<g>
			<g>
				
					<polygon fill="#4F5666" stroke="#000000" stroke-width="8" stroke-linecap="round" stroke-linejoin="round" stroke-miterlimit="10" points="
					247.313,152.33 267.298,55.176 202.428,98.977 				"/>
				
					<polyline fill="#CCAC6C" stroke="#000000" stroke-width="8" stroke-linecap="round" stroke-linejoin="round" stroke-miterlimit="10" points="
					246.577,84.126 218.88,108.284 240.658,133.92 				"/>
			</g>
			<g>
				
					<polygon fill="#4F5666" stroke="#000000" stroke-width="8" stroke-linecap="round" stroke-linejoin="round" stroke-miterlimit="10" points="
					110.606,152.33 90.621,55.176 155.491,98.977 				"/>
				
					<polyline fill="#CCAC6C" stroke="#000000" stroke-width="8" stroke-linecap="round" stroke-linejoin="round" stroke-miterlimit="10" points="
					111.342,84.126 139.04,108.284 117.26,133.92 				"/>
			</g>
		</g>
		
			<path fill="#4F5666" stroke="#000000" stroke-width="8" stroke-linecap="round" stroke-linejoin="round" stroke-miterlimit="10" d="
			M247.08,160.306c0-35.694-30.499-64.629-68.12-64.629s-68.12,28.935-68.12,64.629s47.503,75.63,68.12,75.63
			C202.932,235.936,247.08,196,247.08,160.306z"/>
		<g>
			<g>
				<g>
					<path fill="#358C5E" d="M162.524,186.568c-2.267,2.267-15.369,4.725-21.498,0.697c-6.129-4.029-9.12-13.551-5.092-19.681
						c4.029-6.129,14.071-7.241,19.679-2.513C164.086,172.207,162.524,186.568,162.524,186.568z"/>
					<path d="M165.028,189.688c0,0-0.418,0.22-1.204,0.632c-0.3,0.152-0.64,0.313-1.014,0.468c-0.257,0.076-0.539,0.158-0.842,0.248
						c-0.615,0.204-1.23,0.299-1.955,0.46c-1.402,0.255-3.051,0.464-4.918,0.597c-1.869,0.131-3.967,0.153-6.286-0.002
						c-2.313-0.209-4.881-0.534-7.607-1.753c-0.338-0.167-0.677-0.363-1.017-0.55l-0.509-0.289l-0.064-0.037
						c0.09,0.064-0.159-0.106-0.141-0.096l-0.023-0.017l-0.094-0.069l-0.187-0.138l-0.756-0.555c-0.29-0.231-0.61-0.515-0.913-0.778
						l-0.459-0.407l-0.391-0.409l-0.776-0.832c-0.459-0.599-0.97-1.178-1.367-1.834c-1.693-2.555-2.898-5.556-3.256-8.856
						c-0.314-3.298,0.231-6.914,2.444-10.087c0.223-0.297,0.378-0.545,0.656-0.881c0.334-0.377,0.679-0.749,1.032-1.112
						c0.355-0.374,0.686-0.602,1.035-0.905c0.339-0.297,0.698-0.556,1.072-0.788c1.459-1.005,3.062-1.698,4.689-2.168
						c1.626-0.493,3.297-0.712,4.955-0.73c1.658-0.046,3.311,0.196,4.905,0.612c1.604,0.397,3.123,1.131,4.529,1.992
						c0.339,0.243,0.676,0.485,1.011,0.726l0.249,0.184l0.062,0.046l0.217,0.195l0.086,0.079l0.343,0.317l0.68,0.629l0.337,0.312
						l0.396,0.447c0.512,0.604,1.078,1.233,1.492,1.825c0.387,0.59,0.769,1.17,1.144,1.741c0.312,0.595,0.618,1.18,0.919,1.754
						c0.296,0.577,0.502,1.161,0.747,1.726c0.886,2.275,1.425,4.408,1.749,6.295c0.313,1.887,0.483,3.535,0.54,4.896
						c0.065,1.362,0.06,2.434,0.032,3.188c-0.02,0.728-0.067,1.216-0.068,1.24l-0.02,0.409
						C166.434,188.406,165.851,189.254,165.028,189.688z M158.888,184.492l-0.34,1.644c-0.005,0.024,0.031-0.188,0.071-0.78
						c0.044-0.565,0.083-1.433,0.073-2.536c0-1.105-0.091-2.446-0.277-3.956c-0.195-1.509-0.558-3.166-1.136-4.854
						c-0.163-0.409-0.291-0.856-0.485-1.264c-0.192-0.409-0.388-0.825-0.587-1.249c-0.236-0.391-0.476-0.789-0.719-1.192
						c-0.243-0.382-0.487-0.64-0.717-0.991c-0.062-0.085-0.107-0.165-0.182-0.258l-0.324-0.324l-0.655-0.655l-0.331-0.331
						l-0.083-0.083l-0.021-0.021c-0.159-0.144,0.193,0.172,0.151,0.136l-0.033-0.024l-0.129-0.098l-0.511-0.405
						c-0.745-0.478-1.559-0.958-2.522-1.227c-1.88-0.595-4.138-0.7-6.226-0.165c-1.045,0.254-2.063,0.645-2.937,1.206
						c-0.233,0.124-0.45,0.266-0.643,0.432c-0.185,0.153-0.45,0.313-0.578,0.454c-0.14,0.141-0.287,0.271-0.445,0.398
						c-0.185,0.193-0.426,0.531-0.637,0.789l-0.165,0.207l-0.082,0.104c-0.034,0.046,0.21-0.297,0.102-0.143l-0.011,0.02
						l-0.023,0.041l-0.192,0.32c-0.125,0.215-0.284,0.412-0.368,0.655l-0.313,0.696l-0.23,0.746
						c-0.257,1.018-0.394,2.109-0.333,3.229c0.119,2.228,0.799,4.523,1.986,6.395c0.265,0.491,0.625,0.901,0.93,1.35l0.528,0.601
						l0.26,0.298l0.25,0.234l0.501,0.484l0.754,0.558l0.188,0.138l0.093,0.068l0.023,0.018c0.033,0.023-0.198-0.139-0.092-0.066
						l0.038,0.021l0.299,0.159l0.588,0.326c1.722,0.744,3.776,1.053,5.668,1.062c1.904,0.033,3.689-0.203,5.224-0.53
						c1.535-0.342,2.814-0.787,3.785-1.206C158.361,184.764,158.648,184.621,158.888,184.492z"/>
				</g>
				<g>
					<path d="M150.449,169.795c0,0,0.111,0.202,0.251,0.556c0.145,0.354,0.319,0.858,0.48,1.464
						c0.322,1.212,0.527,2.828,0.516,4.443c-0.004,1.615-0.218,3.231-0.534,4.443c-0.159,0.605-0.329,1.11-0.469,1.464
						c-0.138,0.354-0.245,0.556-0.245,0.556c-0.146,0.276-0.488,0.382-0.764,0.235c-0.104-0.055-0.185-0.138-0.236-0.235
						c0,0-0.107-0.202-0.245-0.556c-0.141-0.354-0.31-0.858-0.469-1.464c-0.316-1.212-0.53-2.828-0.534-4.443
						c-0.011-1.615,0.194-3.231,0.516-4.443c0.161-0.605,0.336-1.11,0.48-1.464c0.141-0.354,0.251-0.556,0.251-0.556
						c0.151-0.276,0.498-0.377,0.774-0.226C150.323,169.623,150.399,169.703,150.449,169.795z"/>
				</g>
				<circle fill="#FFFFFF" cx="140.736" cy="170.618" r="2.2"/>
			</g>
			<g>
				<g>
					<path fill="#358C5E" d="M195.394,186.568c2.267,2.267,15.369,4.725,21.498,0.697c6.129-4.029,9.12-13.551,5.091-19.681
						c-4.028-6.129-14.07-7.241-19.679-2.513C193.833,172.207,195.394,186.568,195.394,186.568z"/>
					<path d="M199.033,184.506c0.238,0.129,0.522,0.271,0.806,0.425c0.97,0.422,2.25,0.868,3.787,1.209
						c1.535,0.326,3.321,0.561,5.226,0.52c1.891-0.013,3.946-0.333,5.658-1.089l0.583-0.329l0.296-0.161l0.037-0.02
						c0.108-0.074-0.127,0.091-0.094,0.066l0.023-0.017l0.093-0.069l0.187-0.139l0.751-0.562l0.496-0.485l0.248-0.232l0.258-0.297
						l0.524-0.601c0.306-0.446,0.651-0.863,0.91-1.356c1.146-1.882,1.817-4.16,1.912-6.368c0.052-1.107-0.083-2.183-0.341-3.185
						l-0.229-0.732l-0.311-0.683c-0.083-0.238-0.241-0.43-0.363-0.641l-0.189-0.313l-0.023-0.039l-0.011-0.02
						c-0.113-0.162,0.142,0.198,0.107,0.15l-0.082-0.103l-0.165-0.207c-0.209-0.259-0.451-0.599-0.633-0.79
						c-0.153-0.121-0.294-0.249-0.428-0.385c-0.121-0.136-0.384-0.296-0.564-0.447c-0.188-0.164-0.402-0.304-0.63-0.428
						c-0.858-0.557-1.862-0.946-2.895-1.201c-2.063-0.539-4.302-0.443-6.166,0.138c-0.955,0.262-1.762,0.733-2.502,1.202
						l-0.508,0.399l-0.128,0.096l-0.032,0.023c-0.042,0.037,0.318-0.286,0.155-0.14l-0.021,0.021l-0.083,0.082l-0.332,0.33
						l-0.657,0.652l-0.325,0.324c-0.074,0.092-0.119,0.17-0.181,0.254c-0.229,0.348-0.472,0.601-0.715,0.979
						c-0.244,0.401-0.484,0.796-0.721,1.185c-0.2,0.422-0.397,0.836-0.59,1.242c-0.196,0.405-0.324,0.851-0.489,1.258
						c-0.583,1.683-0.952,3.336-1.153,4.842c-0.191,1.508-0.288,2.848-0.292,3.953c-0.013,1.103,0.022,1.97,0.064,2.535
						c0.038,0.592,0.073,0.805,0.068,0.781L199.033,184.506z M191.417,187c-0.001-0.023-0.05-0.512-0.072-1.239
						c-0.03-0.754-0.039-1.825,0.023-3.188c0.053-1.36,0.218-3.01,0.525-4.899c0.318-1.889,0.851-4.024,1.731-6.307
						c0.244-0.566,0.449-1.152,0.744-1.731c0.3-0.576,0.605-1.164,0.917-1.761c0.375-0.573,0.755-1.157,1.141-1.749
						c0.414-0.596,0.981-1.23,1.494-1.838l0.397-0.45l0.335-0.313l0.678-0.631l0.342-0.319l0.086-0.079l0.221-0.198l0.062-0.047
						l0.25-0.186c0.336-0.242,0.675-0.486,1.015-0.732c1.412-0.869,2.938-1.611,4.548-2.016c1.603-0.422,3.264-0.67,4.932-0.629
						c1.667,0.014,3.35,0.229,4.988,0.721c1.64,0.469,3.256,1.162,4.732,2.172c0.377,0.233,0.741,0.493,1.083,0.793
						c0.354,0.305,0.687,0.533,1.048,0.911c0.358,0.367,0.709,0.744,1.049,1.126c0.28,0.339,0.436,0.584,0.66,0.881
						c2.236,3.217,2.779,6.867,2.453,10.189c-0.382,3.32-1.596,6.339-3.33,8.883c-0.404,0.655-0.929,1.227-1.388,1.828l-0.78,0.832
						l-0.393,0.409l-0.461,0.409c-0.304,0.264-0.626,0.547-0.917,0.779l-0.76,0.55l-0.188,0.137l-0.094,0.068l-0.023,0.017
						c0.018-0.012-0.234,0.162-0.143,0.098l-0.064,0.036l-0.512,0.287c-0.341,0.186-0.682,0.381-1.021,0.546
						c-2.736,1.209-5.305,1.521-7.617,1.726c-2.319,0.149-4.416,0.124-6.284-0.007c-1.867-0.135-3.515-0.342-4.917-0.596
						c-0.725-0.158-1.34-0.253-1.955-0.456c-0.304-0.088-0.585-0.17-0.843-0.245c-0.374-0.154-0.714-0.314-1.015-0.466
						c-0.787-0.409-1.206-0.628-1.206-0.628c-0.883-0.459-1.406-1.337-1.453-2.264L191.417,187z"/>
				</g>
				<g>
					<path d="M208.469,169.795c0,0,0.111,0.202,0.251,0.556c0.145,0.354,0.319,0.858,0.48,1.464
						c0.322,1.212,0.527,2.828,0.516,4.443c-0.004,1.615-0.218,3.231-0.534,4.443c-0.159,0.605-0.329,1.11-0.469,1.464
						c-0.138,0.354-0.245,0.556-0.245,0.556c-0.146,0.276-0.488,0.382-0.764,0.235c-0.104-0.055-0.185-0.138-0.236-0.235
						c0,0-0.107-0.202-0.245-0.556c-0.141-0.354-0.31-0.858-0.469-1.464c-0.316-1.212-0.53-2.828-0.534-4.443
						c-0.011-1.615,0.194-3.231,0.516-4.443c0.161-0.605,0.336-1.11,0.48-1.464c0.141-0.354,0.251-0.556,0.251-0.556
						c0.151-0.276,0.498-0.377,0.774-0.226C208.342,169.623,208.418,169.703,208.469,169.795z"/>
				</g>
				<circle fill="#FFFFFF" cx="204.16" cy="170.618" r="2.2"/>
			</g>
		</g>
		<g>
			<path fill="#CCAC6C" d="M178.959,222.98c-0.823,0-1.61-0.338-2.177-0.936l-5.881-6.201c-0.825-0.87-1.053-2.147-0.58-3.249
				c0.474-1.102,1.558-1.815,2.756-1.815h11.763c1.199,0,2.283,0.714,2.756,1.815c0.473,1.102,0.246,2.379-0.58,3.249l-5.882,6.201
				C180.569,222.643,179.782,222.98,178.959,222.98L178.959,222.98z"/>
			<path d="M184.841,213.779l-5.882,6.201l-5.881-6.201H184.841 M184.841,207.779h-11.763c-2.398,0-4.565,1.428-5.512,3.631
				s-0.492,4.758,1.159,6.498l5.881,6.201c1.133,1.194,2.707,1.871,4.354,1.871c1.646,0,3.22-0.677,4.354-1.871l5.882-6.201
				c1.65-1.74,2.106-4.295,1.159-6.498C189.406,209.207,187.239,207.779,184.841,207.779L184.841,207.779z"/>
		</g>
		
			<path fill="#4F5666" stroke="#000000" stroke-width="8" stroke-linecap="round" stroke-linejoin="round" stroke-miterlimit="10" d="
			M246.851,155.003c6.318,16.028,41.667,43.423,47.57,46.831c5.903,3.406,127.059-14.383,159.511,114.367
			c32.452,128.748,20.944,232.458-85.256,227.205c-122.31-6.051-116.135-83.056-110.596-97.906
			c5.539-14.852,25.259-15.742,20.722,3.85c-9.682,41.803,66.579,101.567,143.778,50.604"/>
		
			<path fill="#4F5666" stroke="#000000" stroke-width="8" stroke-linecap="round" stroke-linejoin="round" stroke-miterlimit="10" d="
			M275.406,305.24c6.915,17.051,8.487,31.352,0,47.854c-8.486,16.5-18.387,40.066-8.486,82.463"/>
		<g>
			<g>
				
					<line fill="#CCAC6C" stroke="#000000" stroke-width="6" stroke-linecap="round" stroke-linejoin="round" stroke-miterlimit="10" x1="231.812" y1="175.779" x2="309.916" y2="165.807"/>
				
					<line fill="#CCAC6C" stroke="#000000" stroke-width="6" stroke-linecap="round" stroke-linejoin="round" stroke-miterlimit="10" x1="227.411" y1="148.48" x2="267.895" y2="127.578"/>
				
					<line fill="#CCAC6C" stroke="#000000" stroke-width="6" stroke-linecap="round" stroke-linejoin="round" stroke-miterlimit="10" x1="203.025" y1="211.184" x2="257.565" y2="211.184"/>
				
					<line fill="#CCAC6C" stroke="#000000" stroke-width="6" stroke-linecap="round" stroke-linejoin="round" stroke-miterlimit="10" x1="199.481" y1="218.713" x2="241.162" y2="230.756"/>
			</g>
			<g>
				
					<line fill="#CCAC6C" stroke="#000000" stroke-width="6" stroke-linecap="round" stroke-linejoin="round" stroke-miterlimit="10" x1="126.107" y1="175.779" x2="48.002" y2="165.807"/>
				
					<line fill="#CCAC6C" stroke="#000000" stroke-width="6" stroke-linecap="round" stroke-linejoin="round" stroke-miterlimit="10" x1="130.508" y1="148.48" x2="90.024" y2="127.578"/>
				
					<line fill="#CCAC6C" stroke="#000000" stroke-width="6" stroke-linecap="round" stroke-linejoin="round" stroke-miterlimit="10" x1="154.894" y1="211.184" x2="100.353" y2="211.184"/>
				
					<line fill="#CCAC6C" stroke="#000000" stroke-width="6" stroke-linecap="round" stroke-linejoin="round" stroke-miterlimit="10" x1="158.438" y1="218.713" x2="116.757" y2="230.756"/>
			</g>
		</g>
		<polyline fill="none" stroke="#000000" stroke-width="6" stroke-linejoin="round" stroke-miterlimit="10" points="167.405,234.09 
			178.862,222.633 188.91,232.682 		"/>
	</g>
</g>
</svg>
